<?xml version="1.0" encoding="UTF-8" standalone="no"?>
<!DOCTYPE svg PUBLIC "-//W3C//DTD SVG 1.1//EN"
 "http://www.w3.org/Graphics/SVG/1.1/DTD/svg11.dtd">
<!-- Generated by graphviz version 12.1.2 (20240928.0832)
 -->
<!-- Title: PicoHal.h Pages: 1 -->
<svg width="415pt" height="84pt"
 viewBox="0.00 0.00 414.62 84.00" xmlns="http://www.w3.org/2000/svg" xmlns:xlink="http://www.w3.org/1999/xlink">
<g id="graph0" class="graph" transform="scale(1 1) rotate(0) translate(4 80)">
<title>PicoHal.h</title>
<!-- Node1 -->
<g id="Node000001" class="node">
<title>Node1</title>
<g id="a_Node000001"><a xlink:title=" ">
<polygon fill="#999999" stroke="#666666" points="236.62,-76 177.88,-76 177.88,-56 236.62,-56 236.62,-76"/>
<text text-anchor="middle" x="207.25" y="-62.5" font-family="Helvetica,sans-Serif" font-size="10.00">PicoHal.h</text>
</a>
</g>
</g>
<!-- Node2 -->
<g id="Node000002" class="node">
<title>Node2</title>
<g id="a_Node000002"><a xlink:title=" ">
<polygon fill="#e0e0e0" stroke="#999999" points="62.5,-20 0,-20 0,0 62.5,0 62.5,-20"/>
<text text-anchor="middle" x="31.25" y="-6.5" font-family="Helvetica,sans-Serif" font-size="10.00">RadioLib.h</text>
</a>
</g>
</g>
<!-- Node1&#45;&gt;Node2 -->
<g id="edge1_Node000001_Node000002" class="edge">
<title>Node1&#45;&gt;Node2</title>
<g id="a_edge1_Node000001_Node000002"><a xlink:title=" ">
<path fill="none" stroke="#63b8ff" d="M177.39,-55.84C148.71,-47.04 105.1,-33.66 72.98,-23.8"/>
<polygon fill="#63b8ff" stroke="#63b8ff" points="74.18,-20.51 63.59,-20.92 72.12,-27.2 74.18,-20.51"/>
</a>
</g>
</g>
<!-- Node3 -->
<g id="Node000003" class="node">
<title>Node3</title>
<g id="a_Node000003"><a xlink:href="stdlib_8h.html" target="_top" xlink:title=" ">
<polygon fill="white" stroke="#666666" points="149.5,-20 81,-20 81,0 149.5,0 149.5,-20"/>
<text text-anchor="middle" x="115.25" y="-6.5" font-family="Helvetica,sans-Serif" font-size="10.00">pico/stdlib.h</text>
</a>
</g>
</g>
<!-- Node1&#45;&gt;Node3 -->
<g id="edge2_Node000001_Node000003" class="edge">
<title>Node1&#45;&gt;Node3</title>
<g id="a_edge2_Node000001_Node000003"><a xlink:title=" ">
<path fill="none" stroke="#63b8ff" d="M191.22,-55.59C177.46,-47.51 157.35,-35.71 141.27,-26.27"/>
<polygon fill="#63b8ff" stroke="#63b8ff" points="143.1,-23.29 132.71,-21.25 139.56,-29.33 143.1,-23.29"/>
</a>
</g>
</g>
<!-- Node4 -->
<g id="Node000004" class="node">
<title>Node4</title>
<g id="a_Node000004"><a xlink:href="spi_8h.html" target="_top" xlink:title=" ">
<polygon fill="white" stroke="#666666" points="247.12,-20 167.38,-20 167.38,0 247.12,0 247.12,-20"/>
<text text-anchor="middle" x="207.25" y="-6.5" font-family="Helvetica,sans-Serif" font-size="10.00">hardware/spi.h</text>
</a>
</g>
</g>
<!-- Node1&#45;&gt;Node4 -->
<g id="edge3_Node000001_Node000004" class="edge">
<title>Node1&#45;&gt;Node4</title>
<g id="a_edge3_Node000001_Node000004"><a xlink:title=" ">
<path fill="none" stroke="#63b8ff" d="M207.25,-55.59C207.25,-49.01 207.25,-39.96 207.25,-31.73"/>
<polygon fill="#63b8ff" stroke="#63b8ff" points="210.75,-31.81 207.25,-21.81 203.75,-31.81 210.75,-31.81"/>
</a>
</g>
</g>
<!-- Node5 -->
<g id="Node000005" class="node">
<title>Node5</title>
<g id="a_Node000005"><a xlink:title=" ">
<polygon fill="#e0e0e0" stroke="#999999" points="353.62,-20 264.88,-20 264.88,0 353.62,0 353.62,-20"/>
<text text-anchor="middle" x="309.25" y="-6.5" font-family="Helvetica,sans-Serif" font-size="10.00">hardware/timer.h</text>
</a>
</g>
</g>
<!-- Node1&#45;&gt;Node5 -->
<g id="edge4_Node000001_Node000005" class="edge">
<title>Node1&#45;&gt;Node5</title>
<g id="a_edge4_Node000001_Node000005"><a xlink:title=" ">
<path fill="none" stroke="#63b8ff" d="M225.02,-55.59C240.57,-47.36 263.43,-35.26 281.41,-25.74"/>
<polygon fill="#63b8ff" stroke="#63b8ff" points="282.81,-28.96 290.01,-21.19 279.53,-22.77 282.81,-28.96"/>
</a>
</g>
</g>
<!-- Node6 -->
<g id="Node000006" class="node">
<title>Node6</title>
<g id="a_Node000006"><a xlink:title=" ">
<polygon fill="#e0e0e0" stroke="#999999" points="406.62,-20 371.88,-20 371.88,0 406.62,0 406.62,-20"/>
<text text-anchor="middle" x="389.25" y="-6.5" font-family="Helvetica,sans-Serif" font-size="10.00">map</text>
</a>
</g>
</g>
<!-- Node1&#45;&gt;Node6 -->
<g id="edge5_Node000001_Node000006" class="edge">
<title>Node1&#45;&gt;Node6</title>
<g id="a_edge5_Node000001_Node000006"><a xlink:title=" ">
<path fill="none" stroke="#63b8ff" d="M237.07,-56.72C266.22,-48.54 312.09,-35.45 360.8,-20.36"/>
<polygon fill="#63b8ff" stroke="#63b8ff" points="361.61,-23.77 370.12,-17.46 359.53,-17.09 361.61,-23.77"/>
</a>
</g>
</g>
</g>
</svg>
