<?xml version="1.0" encoding="UTF-8" standalone="no"?>
<!DOCTYPE svg PUBLIC "-//W3C//DTD SVG 1.1//EN"
 "http://www.w3.org/Graphics/SVG/1.1/DTD/svg11.dtd">
<!-- Generated by graphviz version 2.43.0 (0)
 -->
<!-- Title: deploy_antenna_job Pages: 1 -->
<svg width="818pt" height="137pt"
 viewBox="0.00 0.00 818.00 137.00" xmlns="http://www.w3.org/2000/svg" xmlns:xlink="http://www.w3.org/1999/xlink">
<g id="graph0" class="graph" transform="scale(1 1) rotate(0) translate(4 133)">
<title>deploy_antenna_job</title>
<!-- Node1 -->
<g id="Node000001" class="node">
<title>Node1</title>
<g id="a_Node000001"><a xlink:title=" ">
<polygon fill="#999999" stroke="#666666" points="115,-56 0,-56 0,-37 115,-37 115,-56"/>
<text text-anchor="middle" x="57.5" y="-44" font-family="Helvetica,sans-Serif" font-size="10.00">deploy_antenna_job</text>
</a>
</g>
</g>
<!-- Node1&#45;&gt;Node1 -->
<g id="edge1_Node000001_Node000001" class="edge">
<title>Node1&#45;&gt;Node1</title>
<g id="a_edge1_Node000001_Node000001"><a xlink:title=" ">
<path fill="none" stroke="#63b8ff" d="M31.3,-56.08C18.55,-64.73 27.29,-74 57.5,-74 77.8,-74 88.4,-69.82 89.31,-64.45"/>
<polygon fill="#63b8ff" stroke="#63b8ff" points="92.18,-62.44 83.7,-56.08 86.36,-66.34 92.18,-62.44"/>
</a>
</g>
</g>
<!-- Node2 -->
<g id="Node000002" class="node">
<title>Node2</title>
<g id="a_Node000002"><a xlink:href="steve_8c.html#ace442d9381f8eb22beb38e26a5bc23e1" target="_top" xlink:title=" ">
<polygon fill="white" stroke="#666666" points="305,-93 151,-93 151,-74 305,-74 305,-93"/>
<text text-anchor="middle" x="228" y="-81" font-family="Helvetica,sans-Serif" font-size="10.00">schedule_delayed_job_mins</text>
</a>
</g>
</g>
<!-- Node1&#45;&gt;Node2 -->
<g id="edge2_Node000001_Node000002" class="edge">
<title>Node1&#45;&gt;Node2</title>
<g id="a_edge2_Node000001_Node000002"><a xlink:title=" ">
<path fill="none" stroke="#63b8ff" d="M101.89,-56.03C123.72,-60.82 150.38,-66.68 173.47,-71.75"/>
<polygon fill="#63b8ff" stroke="#63b8ff" points="172.94,-75.21 183.46,-73.94 174.44,-68.38 172.94,-75.21"/>
</a>
</g>
</g>
<!-- Node10 -->
<g id="Node000010" class="node">
<title>Node10</title>
<g id="a_Node000010"><a xlink:href="vega__ant_8c.html#a2f0326deb24f883f2cb4288ee52f5981" target="_top" xlink:title="Send command to deploy antennas.">
<polygon fill="white" stroke="#666666" points="278,-56 178,-56 178,-37 278,-37 278,-56"/>
<text text-anchor="middle" x="228" y="-44" font-family="Helvetica,sans-Serif" font-size="10.00">vega_ant_deploy</text>
</a>
</g>
</g>
<!-- Node1&#45;&gt;Node10 -->
<g id="edge10_Node000001_Node000010" class="edge">
<title>Node1&#45;&gt;Node10</title>
<g id="a_edge10_Node000001_Node000010"><a xlink:title=" ">
<path fill="none" stroke="#63b8ff" d="M115.08,-46.5C131.94,-46.5 150.47,-46.5 167.51,-46.5"/>
<polygon fill="#63b8ff" stroke="#63b8ff" points="167.91,-50 177.91,-46.5 167.91,-43 167.91,-50"/>
</a>
</g>
</g>
<!-- Node11 -->
<g id="Node000011" class="node">
<title>Node11</title>
<g id="a_Node000011"><a xlink:href="vega__ant_8c.html#a6377b53e9c676bceaa38ec9ddeb7fd28" target="_top" xlink:title="Gets deployment status of antennas.">
<polygon fill="white" stroke="#666666" points="276.5,-19 179.5,-19 179.5,0 276.5,0 276.5,-19"/>
<text text-anchor="middle" x="228" y="-7" font-family="Helvetica,sans-Serif" font-size="10.00">vega_ant_status</text>
</a>
</g>
</g>
<!-- Node1&#45;&gt;Node11 -->
<g id="edge11_Node000001_Node000011" class="edge">
<title>Node1&#45;&gt;Node11</title>
<g id="a_edge11_Node000001_Node000011"><a xlink:title=" ">
<path fill="none" stroke="#63b8ff" d="M101.89,-36.97C123.72,-32.18 150.38,-26.32 173.47,-21.25"/>
<polygon fill="#63b8ff" stroke="#63b8ff" points="174.44,-24.62 183.46,-19.06 172.94,-17.79 174.44,-24.62"/>
</a>
</g>
</g>
<!-- Node3 -->
<g id="Node000003" class="node">
<title>Node3</title>
<g id="a_Node000003"><a xlink:href="timing_8c.html#a01a2b07b8a31d303bc5659c9eefb0103" target="_top" xlink:title=" ">
<polygon fill="white" stroke="#666666" points="458.5,-111 375.5,-111 375.5,-92 458.5,-92 458.5,-111"/>
<text text-anchor="middle" x="417" y="-99" font-family="Helvetica,sans-Serif" font-size="10.00">mins_to_secs</text>
</a>
</g>
</g>
<!-- Node2&#45;&gt;Node3 -->
<g id="edge3_Node000002_Node000003" class="edge">
<title>Node2&#45;&gt;Node3</title>
<g id="a_edge3_Node000002_Node000003"><a xlink:title=" ">
<path fill="none" stroke="#63b8ff" d="M305.06,-90.82C325.37,-92.78 346.81,-94.84 365.37,-96.63"/>
<polygon fill="#63b8ff" stroke="#63b8ff" points="365.08,-100.11 375.37,-97.59 365.75,-93.15 365.08,-100.11"/>
</a>
</g>
</g>
<!-- Node4 -->
<g id="Node000004" class="node">
<title>Node4</title>
<g id="a_Node000004"><a xlink:href="steve_8c.html#a91d71dfff270a62a0c797a91085e5445" target="_top" xlink:title=" ">
<polygon fill="white" stroke="#666666" points="493,-74 341,-74 341,-55 493,-55 493,-74"/>
<text text-anchor="middle" x="417" y="-62" font-family="Helvetica,sans-Serif" font-size="10.00">schedule_delayed_job_secs</text>
</a>
</g>
</g>
<!-- Node2&#45;&gt;Node4 -->
<g id="edge4_Node000002_Node000004" class="edge">
<title>Node2&#45;&gt;Node4</title>
<g id="a_edge4_Node000002_Node000004"><a xlink:title=" ">
<path fill="none" stroke="#63b8ff" d="M305.06,-75.77C313.56,-74.91 322.27,-74.02 330.87,-73.15"/>
<polygon fill="#63b8ff" stroke="#63b8ff" points="331.32,-76.62 340.92,-72.13 330.61,-69.66 331.32,-76.62"/>
</a>
</g>
</g>
<!-- Node5 -->
<g id="Node000005" class="node">
<title>Node5</title>
<g id="a_Node000005"><a xlink:href="steve_8c.html#acc0bfad0acf234b4903c832955b29767" target="_top" xlink:title=" ">
<polygon fill="white" stroke="#666666" points="674,-92 529,-92 529,-73 674,-73 674,-92"/>
<text text-anchor="middle" x="601.5" y="-80" font-family="Helvetica,sans-Serif" font-size="10.00">schedule_delayed_job_ms</text>
</a>
</g>
</g>
<!-- Node4&#45;&gt;Node5 -->
<g id="edge5_Node000004_Node000005" class="edge">
<title>Node4&#45;&gt;Node5</title>
<g id="a_edge5_Node000004_Node000005"><a xlink:title=" ">
<path fill="none" stroke="#63b8ff" d="M493.02,-71.9C501.5,-72.74 510.17,-73.59 518.73,-74.44"/>
<polygon fill="#63b8ff" stroke="#63b8ff" points="518.42,-77.92 528.71,-75.42 519.1,-70.95 518.42,-77.92"/>
</a>
</g>
</g>
<!-- Node9 -->
<g id="Node000009" class="node">
<title>Node9</title>
<g id="a_Node000009"><a xlink:href="timing_8c.html#afd3999513ea688f512ea1d35aed46a43" target="_top" xlink:title=" ">
<polygon fill="white" stroke="#666666" points="638.5,-55 564.5,-55 564.5,-36 638.5,-36 638.5,-55"/>
<text text-anchor="middle" x="601.5" y="-43" font-family="Helvetica,sans-Serif" font-size="10.00">secs_to_ms</text>
</a>
</g>
</g>
<!-- Node4&#45;&gt;Node9 -->
<g id="edge9_Node000004_Node000009" class="edge">
<title>Node4&#45;&gt;Node9</title>
<g id="a_edge9_Node000004_Node000009"><a xlink:title=" ">
<path fill="none" stroke="#63b8ff" d="M493.02,-56.69C513.76,-54.53 535.65,-52.25 554.23,-50.32"/>
<polygon fill="#63b8ff" stroke="#63b8ff" points="554.59,-53.8 564.18,-49.28 553.87,-46.84 554.59,-53.8"/>
</a>
</g>
</g>
<!-- Node6 -->
<g id="Node000006" class="node">
<title>Node6</title>
<g id="a_Node000006"><a xlink:href="steve_8c.html#a799ff818db4199c57a75461bbae98611" target="_top" xlink:title=" ">
<polygon fill="white" stroke="#666666" points="810,-129 710,-129 710,-110 810,-110 810,-129"/>
<text text-anchor="middle" x="760" y="-117" font-family="Helvetica,sans-Serif" font-size="10.00">create_steve_job</text>
</a>
</g>
</g>
<!-- Node5&#45;&gt;Node6 -->
<g id="edge6_Node000005_Node000006" class="edge">
<title>Node5&#45;&gt;Node6</title>
<g id="a_edge6_Node000005_Node000006"><a xlink:title=" ">
<path fill="none" stroke="#63b8ff" d="M642.8,-92.03C662.9,-96.78 687.39,-102.57 708.71,-107.61"/>
<polygon fill="#63b8ff" stroke="#63b8ff" points="708.03,-111.04 718.56,-109.94 709.64,-104.23 708.03,-111.04"/>
</a>
</g>
</g>
<!-- Node7 -->
<g id="Node000007" class="node">
<title>Node7</title>
<g id="a_Node000007"><a xlink:href="timing_8c.html#a7cef17ffb0e9db503a077191e1a4b013" target="_top" xlink:title=" ">
<polygon fill="white" stroke="#666666" points="796,-92 724,-92 724,-73 796,-73 796,-92"/>
<text text-anchor="middle" x="760" y="-80" font-family="Helvetica,sans-Serif" font-size="10.00">get_uptime</text>
</a>
</g>
</g>
<!-- Node5&#45;&gt;Node7 -->
<g id="edge7_Node000005_Node000007" class="edge">
<title>Node5&#45;&gt;Node7</title>
<g id="a_edge7_Node000005_Node000007"><a xlink:title=" ">
<path fill="none" stroke="#63b8ff" d="M674.34,-82.5C687.77,-82.5 701.46,-82.5 713.8,-82.5"/>
<polygon fill="#63b8ff" stroke="#63b8ff" points="713.82,-86 723.82,-82.5 713.82,-79 713.82,-86"/>
</a>
</g>
</g>
<!-- Node8 -->
<g id="Node000008" class="node">
<title>Node8</title>
<g id="a_Node000008"><a xlink:href="timing_8c.html#aca6ceb66dd9a31e6376e1bc478dec3d6" target="_top" xlink:title=" ">
<polygon fill="white" stroke="#666666" points="797.5,-55 722.5,-55 722.5,-36 797.5,-36 797.5,-55"/>
<text text-anchor="middle" x="760" y="-43" font-family="Helvetica,sans-Serif" font-size="10.00">ms_to_ticks</text>
</a>
</g>
</g>
<!-- Node5&#45;&gt;Node8 -->
<g id="edge8_Node000005_Node000008" class="edge">
<title>Node5&#45;&gt;Node8</title>
<g id="a_edge8_Node000005_Node000008"><a xlink:title=" ">
<path fill="none" stroke="#63b8ff" d="M642.8,-72.97C664.09,-67.94 690.31,-61.74 712.46,-56.5"/>
<polygon fill="#63b8ff" stroke="#63b8ff" points="713.39,-59.88 722.32,-54.17 711.78,-53.07 713.39,-59.88"/>
</a>
</g>
</g>
<!-- Node12 -->
<g id="Node000012" class="node">
<title>Node12</title>
<g id="a_Node000012"><a xlink:href="i2c_8c.html#afd489cf93d14a907e09132068de8e1c9" target="_top" xlink:title="Write [reg] byte to i2c device and then read [nbytes] from it. Read bytes are stored in [buf].">
<polygon fill="white" stroke="#666666" points="481.5,-19 352.5,-19 352.5,0 481.5,0 481.5,-19"/>
<text text-anchor="middle" x="417" y="-7" font-family="Helvetica,sans-Serif" font-size="10.00">i2c_read_from_register</text>
</a>
</g>
</g>
<!-- Node11&#45;&gt;Node12 -->
<g id="edge12_Node000011_Node000012" class="edge">
<title>Node11&#45;&gt;Node12</title>
<g id="a_edge12_Node000011_Node000012"><a xlink:title=" ">
<path fill="none" stroke="#63b8ff" d="M276.67,-9.5C296.57,-9.5 320.14,-9.5 342.18,-9.5"/>
<polygon fill="#63b8ff" stroke="#63b8ff" points="342.18,-13 352.18,-9.5 342.18,-6 342.18,-13"/>
</a>
</g>
</g>
</g>
</svg>
