<?xml version="1.0" encoding="UTF-8" standalone="no"?>
<!DOCTYPE svg PUBLIC "-//W3C//DTD SVG 1.1//EN"
 "http://www.w3.org/Graphics/SVG/1.1/DTD/svg11.dtd">
<!-- Generated by graphviz version 2.43.0 (0)
 -->
<!-- Title: antenna_deploy_job.c Pages: 1 -->
<svg width="545pt" height="247pt"
 viewBox="0.00 0.00 544.60 247.00" xmlns="http://www.w3.org/2000/svg" xmlns:xlink="http://www.w3.org/1999/xlink">
<g id="graph0" class="graph" transform="scale(1 1) rotate(0) translate(4 243)">
<title>antenna_deploy_job.c</title>
<!-- Node1 -->
<g id="Node000001" class="node">
<title>Node1</title>
<g id="a_Node000001"><a xlink:title=" ">
<polygon fill="#999999" stroke="#666666" points="458.1,-239 335.1,-239 335.1,-220 458.1,-220 458.1,-239"/>
<text text-anchor="middle" x="396.6" y="-227" font-family="Helvetica,sans-Serif" font-size="10.00">antenna_deploy_job.c</text>
</a>
</g>
</g>
<!-- Node2 -->
<g id="Node000002" class="node">
<title>Node2</title>
<g id="a_Node000002"><a xlink:href="vega__ant_8h.html" target="_top" xlink:title="Vega Antenna Board Driver.">
<polygon fill="white" stroke="#666666" points="215.1,-184 144.1,-184 144.1,-165 215.1,-165 215.1,-184"/>
<text text-anchor="middle" x="179.6" y="-172" font-family="Helvetica,sans-Serif" font-size="10.00">vega_ant.h</text>
</a>
</g>
</g>
<!-- Node1&#45;&gt;Node2 -->
<g id="edge1_Node000001_Node000002" class="edge">
<title>Node1&#45;&gt;Node2</title>
<g id="a_edge1_Node000001_Node000002"><a xlink:title=" ">
<path fill="none" stroke="#63b8ff" d="M361.74,-219.98C324.51,-210.89 265.4,-196.46 224.67,-186.51"/>
<polygon fill="#63b8ff" stroke="#63b8ff" points="225.28,-183.05 214.74,-184.08 223.62,-189.85 225.28,-183.05"/>
</a>
</g>
</g>
<!-- Node10 -->
<g id="Node000010" class="node">
<title>Node10</title>
<g id="a_Node000010"><a xlink:href="log_8h.html" target="_top" xlink:title=" ">
<polygon fill="white" stroke="#666666" points="417.1,-184 376.1,-184 376.1,-165 417.1,-165 417.1,-184"/>
<text text-anchor="middle" x="396.6" y="-172" font-family="Helvetica,sans-Serif" font-size="10.00">log.h</text>
</a>
</g>
</g>
<!-- Node1&#45;&gt;Node10 -->
<g id="edge14_Node000001_Node000010" class="edge">
<title>Node1&#45;&gt;Node10</title>
<g id="a_edge14_Node000001_Node000010"><a xlink:title=" ">
<path fill="none" stroke="#63b8ff" d="M396.6,-219.75C396.6,-212.8 396.6,-202.85 396.6,-194.13"/>
<polygon fill="#63b8ff" stroke="#63b8ff" points="400.1,-194.09 396.6,-184.09 393.1,-194.09 400.1,-194.09"/>
</a>
</g>
</g>
<!-- Node13 -->
<g id="Node000013" class="node">
<title>Node13</title>
<g id="a_Node000013"><a xlink:href="steve_8h.html" target="_top" xlink:title="S.T.E.V.E (Scheduler Task for Executing Vital Events)">
<polygon fill="white" stroke="#666666" points="517.1,-184 464.1,-184 464.1,-165 517.1,-165 517.1,-184"/>
<text text-anchor="middle" x="490.6" y="-172" font-family="Helvetica,sans-Serif" font-size="10.00">steve.h</text>
</a>
</g>
</g>
<!-- Node1&#45;&gt;Node13 -->
<g id="edge19_Node000001_Node000013" class="edge">
<title>Node1&#45;&gt;Node13</title>
<g id="a_edge19_Node000001_Node000013"><a xlink:title=" ">
<path fill="none" stroke="#63b8ff" d="M411.7,-219.98C426.42,-211.69 449.02,-198.94 466.27,-189.22"/>
<polygon fill="#63b8ff" stroke="#63b8ff" points="468.23,-192.13 475.22,-184.17 464.79,-186.03 468.23,-192.13"/>
</a>
</g>
</g>
<!-- Node3 -->
<g id="Node000003" class="node">
<title>Node3</title>
<g id="a_Node000003"><a xlink:href="simulator_2pico-sdk_2hardware_2i2c_8h.html" target="_top" xlink:title=" ">
<polygon fill="white" stroke="#666666" points="254.1,-74 165.1,-74 165.1,-55 254.1,-55 254.1,-74"/>
<text text-anchor="middle" x="209.6" y="-62" font-family="Helvetica,sans-Serif" font-size="10.00">hardware/i2c.h</text>
</a>
</g>
</g>
<!-- Node2&#45;&gt;Node3 -->
<g id="edge2_Node000002_Node000003" class="edge">
<title>Node2&#45;&gt;Node3</title>
<g id="a_edge2_Node000002_Node000003"><a xlink:title=" ">
<path fill="none" stroke="#63b8ff" d="M182.06,-164.66C186.94,-147.09 197.95,-107.45 204.47,-83.95"/>
<polygon fill="#63b8ff" stroke="#63b8ff" points="207.89,-84.73 207.2,-74.16 201.15,-82.86 207.89,-84.73"/>
</a>
</g>
</g>
<!-- Node4 -->
<g id="Node000004" class="node">
<title>Node4</title>
<g id="a_Node000004"><a xlink:title=" ">
<polygon fill="#e0e0e0" stroke="#999999" points="125.1,-19 72.1,-19 72.1,0 125.1,0 125.1,-19"/>
<text text-anchor="middle" x="98.6" y="-7" font-family="Helvetica,sans-Serif" font-size="10.00">stdint.h</text>
</a>
</g>
</g>
<!-- Node2&#45;&gt;Node4 -->
<g id="edge8_Node000002_Node000004" class="edge">
<title>Node2&#45;&gt;Node4</title>
<g id="a_edge8_Node000002_Node000004"><a xlink:title=" ">
<path fill="none" stroke="#63b8ff" d="M143.99,-165.19C101.63,-153.16 32.96,-126.35 3.6,-74 -11.92,-46.32 29.04,-28.44 61.96,-18.92"/>
<polygon fill="#63b8ff" stroke="#63b8ff" points="63.12,-22.23 71.85,-16.23 61.28,-15.48 63.12,-22.23"/>
</a>
</g>
</g>
<!-- Node7 -->
<g id="Node000007" class="node">
<title>Node7</title>
<g id="a_Node000007"><a xlink:href="gpio_8h.html" target="_top" xlink:title=" ">
<polygon fill="white" stroke="#666666" points="108.1,-74 13.1,-74 13.1,-55 108.1,-55 108.1,-74"/>
<text text-anchor="middle" x="60.6" y="-62" font-family="Helvetica,sans-Serif" font-size="10.00">hardware/gpio.h</text>
</a>
</g>
</g>
<!-- Node2&#45;&gt;Node7 -->
<g id="edge6_Node000002_Node000007" class="edge">
<title>Node2&#45;&gt;Node7</title>
<g id="a_edge6_Node000002_Node000007"><a xlink:title=" ">
<path fill="none" stroke="#63b8ff" d="M164.85,-164.97C151.12,-156.68 130.45,-143.28 114.6,-129 98.87,-114.84 83.49,-96.13 73.19,-82.7"/>
<polygon fill="#63b8ff" stroke="#63b8ff" points="75.74,-80.25 66.93,-74.36 70.14,-84.46 75.74,-80.25"/>
</a>
</g>
</g>
<!-- Node8 -->
<g id="Node000008" class="node">
<title>Node8</title>
<g id="a_Node000008"><a xlink:href="drivers_2include_2i2c_8h.html" target="_top" xlink:title="Drivers for i2c peripheral devices.">
<polygon fill="white" stroke="#666666" points="163.6,-129 123.6,-129 123.6,-110 163.6,-110 163.6,-129"/>
<text text-anchor="middle" x="143.6" y="-117" font-family="Helvetica,sans-Serif" font-size="10.00">i2c.h</text>
</a>
</g>
</g>
<!-- Node2&#45;&gt;Node8 -->
<g id="edge9_Node000002_Node000008" class="edge">
<title>Node2&#45;&gt;Node8</title>
<g id="a_edge9_Node000002_Node000008"><a xlink:title=" ">
<path fill="none" stroke="#63b8ff" d="M173.66,-164.75C168.62,-157.34 161.26,-146.5 155.09,-137.41"/>
<polygon fill="#63b8ff" stroke="#63b8ff" points="157.95,-135.39 149.43,-129.09 152.16,-139.33 157.95,-135.39"/>
</a>
</g>
</g>
<!-- Node9 -->
<g id="Node000009" class="node">
<title>Node9</title>
<g id="a_Node000009"><a xlink:title=" ">
<polygon fill="#e0e0e0" stroke="#999999" points="344.6,-74 272.6,-74 272.6,-55 344.6,-55 344.6,-74"/>
<text text-anchor="middle" x="308.6" y="-62" font-family="Helvetica,sans-Serif" font-size="10.00">FreeRTOS.h</text>
</a>
</g>
</g>
<!-- Node2&#45;&gt;Node9 -->
<g id="edge13_Node000002_Node000009" class="edge">
<title>Node2&#45;&gt;Node9</title>
<g id="a_edge13_Node000002_Node000009"><a xlink:title=" ">
<path fill="none" stroke="#63b8ff" d="M190.16,-164.66C212.09,-146.3 262.84,-103.81 290.25,-80.87"/>
<polygon fill="#63b8ff" stroke="#63b8ff" points="292.84,-83.26 298.26,-74.16 288.34,-77.89 292.84,-83.26"/>
</a>
</g>
</g>
<!-- Node3&#45;&gt;Node4 -->
<g id="edge3_Node000003_Node000004" class="edge">
<title>Node3&#45;&gt;Node4</title>
<g id="a_edge3_Node000003_Node000004"><a xlink:title=" ">
<path fill="none" stroke="#63b8ff" d="M191.77,-54.98C173.99,-46.5 146.45,-33.35 125.92,-23.54"/>
<polygon fill="#63b8ff" stroke="#63b8ff" points="127.29,-20.32 116.76,-19.17 124.27,-26.64 127.29,-20.32"/>
</a>
</g>
</g>
<!-- Node5 -->
<g id="Node000005" class="node">
<title>Node5</title>
<g id="a_Node000005"><a xlink:title=" ">
<polygon fill="#e0e0e0" stroke="#999999" points="237.6,-19 181.6,-19 181.6,0 237.6,0 237.6,-19"/>
<text text-anchor="middle" x="209.6" y="-7" font-family="Helvetica,sans-Serif" font-size="10.00">stddef.h</text>
</a>
</g>
</g>
<!-- Node3&#45;&gt;Node5 -->
<g id="edge4_Node000003_Node000005" class="edge">
<title>Node3&#45;&gt;Node5</title>
<g id="a_edge4_Node000003_Node000005"><a xlink:title=" ">
<path fill="none" stroke="#63b8ff" d="M209.6,-54.75C209.6,-47.8 209.6,-37.85 209.6,-29.13"/>
<polygon fill="#63b8ff" stroke="#63b8ff" points="213.1,-29.09 209.6,-19.09 206.1,-29.09 213.1,-29.09"/>
</a>
</g>
</g>
<!-- Node6 -->
<g id="Node000006" class="node">
<title>Node6</title>
<g id="a_Node000006"><a xlink:title=" ">
<polygon fill="#e0e0e0" stroke="#999999" points="397.6,-19 335.6,-19 335.6,0 397.6,0 397.6,-19"/>
<text text-anchor="middle" x="366.6" y="-7" font-family="Helvetica,sans-Serif" font-size="10.00">stdbool.h</text>
</a>
</g>
</g>
<!-- Node3&#45;&gt;Node6 -->
<g id="edge5_Node000003_Node000006" class="edge">
<title>Node3&#45;&gt;Node6</title>
<g id="a_edge5_Node000003_Node000006"><a xlink:title=" ">
<path fill="none" stroke="#63b8ff" d="M234.82,-54.98C260.96,-46.16 302,-32.31 331.33,-22.41"/>
<polygon fill="#63b8ff" stroke="#63b8ff" points="332.82,-25.6 341.18,-19.08 330.58,-18.96 332.82,-25.6"/>
</a>
</g>
</g>
<!-- Node7&#45;&gt;Node4 -->
<g id="edge7_Node000007_Node000004" class="edge">
<title>Node7&#45;&gt;Node4</title>
<g id="a_edge7_Node000007_Node000004"><a xlink:title=" ">
<path fill="none" stroke="#63b8ff" d="M66.88,-54.75C72.19,-47.34 79.96,-36.5 86.48,-27.41"/>
<polygon fill="#63b8ff" stroke="#63b8ff" points="89.46,-29.26 92.44,-19.09 83.77,-25.18 89.46,-29.26"/>
</a>
</g>
</g>
<!-- Node8&#45;&gt;Node3 -->
<g id="edge10_Node000008_Node000003" class="edge">
<title>Node8&#45;&gt;Node3</title>
<g id="a_edge10_Node000008_Node000003"><a xlink:title=" ">
<path fill="none" stroke="#63b8ff" d="M154.2,-109.98C164.06,-102.07 178.95,-90.11 190.82,-80.58"/>
<polygon fill="#63b8ff" stroke="#63b8ff" points="193.2,-83.16 198.8,-74.17 188.81,-77.7 193.2,-83.16"/>
</a>
</g>
</g>
<!-- Node8&#45;&gt;Node4 -->
<g id="edge12_Node000008_Node000004" class="edge">
<title>Node8&#45;&gt;Node4</title>
<g id="a_edge12_Node000008_Node000004"><a xlink:title=" ">
<path fill="none" stroke="#63b8ff" d="M139.92,-109.66C132.56,-92.01 115.93,-52.09 106.16,-28.64"/>
<polygon fill="#63b8ff" stroke="#63b8ff" points="109.28,-27.04 102.21,-19.16 102.82,-29.74 109.28,-27.04"/>
</a>
</g>
</g>
<!-- Node8&#45;&gt;Node7 -->
<g id="edge11_Node000008_Node000007" class="edge">
<title>Node8&#45;&gt;Node7</title>
<g id="a_edge11_Node000008_Node000007"><a xlink:title=" ">
<path fill="none" stroke="#63b8ff" d="M130.26,-109.98C117.51,-101.84 98.05,-89.41 82.93,-79.76"/>
<polygon fill="#63b8ff" stroke="#63b8ff" points="84.49,-76.6 74.18,-74.17 80.72,-82.5 84.49,-76.6"/>
</a>
</g>
</g>
<!-- Node10&#45;&gt;Node6 -->
<g id="edge18_Node000010_Node000006" class="edge">
<title>Node10&#45;&gt;Node6</title>
<g id="a_edge18_Node000010_Node000006"><a xlink:title=" ">
<path fill="none" stroke="#63b8ff" d="M405.08,-164.85C412.65,-156.47 423.2,-143.01 427.6,-129 437.45,-97.62 442.5,-84.32 427.6,-55 420.83,-41.68 408,-31.41 395.85,-24.1"/>
<polygon fill="#63b8ff" stroke="#63b8ff" points="397.24,-20.87 386.8,-19.09 393.85,-26.99 397.24,-20.87"/>
</a>
</g>
</g>
<!-- Node11 -->
<g id="Node000011" class="node">
<title>Node11</title>
<g id="a_Node000011"><a xlink:href="telemetry_8h.html" target="_top" xlink:title="Functions for packaging and queuing telemetry packets for sending.">
<polygon fill="white" stroke="#666666" points="418.6,-129 346.6,-129 346.6,-110 418.6,-110 418.6,-129"/>
<text text-anchor="middle" x="382.6" y="-117" font-family="Helvetica,sans-Serif" font-size="10.00">telemetry.h</text>
</a>
</g>
</g>
<!-- Node10&#45;&gt;Node11 -->
<g id="edge15_Node000010_Node000011" class="edge">
<title>Node10&#45;&gt;Node11</title>
<g id="a_edge15_Node000010_Node000011"><a xlink:title=" ">
<path fill="none" stroke="#63b8ff" d="M394.29,-164.75C392.43,-157.72 389.76,-147.62 387.45,-138.84"/>
<polygon fill="#63b8ff" stroke="#63b8ff" points="390.81,-137.86 384.87,-129.09 384.04,-139.65 390.81,-137.86"/>
</a>
</g>
</g>
<!-- Node11&#45;&gt;Node9 -->
<g id="edge16_Node000011_Node000009" class="edge">
<title>Node11&#45;&gt;Node9</title>
<g id="a_edge16_Node000011_Node000009"><a xlink:title=" ">
<path fill="none" stroke="#63b8ff" d="M370.71,-109.98C359.45,-101.92 342.31,-89.65 328.89,-80.03"/>
<polygon fill="#63b8ff" stroke="#63b8ff" points="330.87,-77.15 320.71,-74.17 326.8,-82.84 330.87,-77.15"/>
</a>
</g>
</g>
<!-- Node12 -->
<g id="Node000012" class="node">
<title>Node12</title>
<g id="a_Node000012"><a xlink:title=" ">
<polygon fill="#e0e0e0" stroke="#999999" points="418.6,-74 362.6,-74 362.6,-55 418.6,-55 418.6,-74"/>
<text text-anchor="middle" x="390.6" y="-62" font-family="Helvetica,sans-Serif" font-size="10.00">queue.h</text>
</a>
</g>
</g>
<!-- Node11&#45;&gt;Node12 -->
<g id="edge17_Node000011_Node000012" class="edge">
<title>Node11&#45;&gt;Node12</title>
<g id="a_edge17_Node000011_Node000012"><a xlink:title=" ">
<path fill="none" stroke="#63b8ff" d="M383.92,-109.75C384.97,-102.8 386.47,-92.85 387.79,-84.13"/>
<polygon fill="#63b8ff" stroke="#63b8ff" points="391.27,-84.5 389.3,-74.09 384.35,-83.45 391.27,-84.5"/>
</a>
</g>
</g>
<!-- Node14 -->
<g id="Node000014" class="node">
<title>Node14</title>
<g id="a_Node000014"><a xlink:title=" ">
<polygon fill="#e0e0e0" stroke="#999999" points="536.6,-129 474.6,-129 474.6,-110 536.6,-110 536.6,-129"/>
<text text-anchor="middle" x="505.6" y="-117" font-family="Helvetica,sans-Serif" font-size="10.00">semphr.h</text>
</a>
</g>
</g>
<!-- Node13&#45;&gt;Node14 -->
<g id="edge20_Node000013_Node000014" class="edge">
<title>Node13&#45;&gt;Node14</title>
<g id="a_edge20_Node000013_Node000014"><a xlink:title=" ">
<path fill="none" stroke="#63b8ff" d="M493.08,-164.75C495.06,-157.72 497.92,-147.62 500.41,-138.84"/>
<polygon fill="#63b8ff" stroke="#63b8ff" points="503.81,-139.66 503.17,-129.09 497.08,-137.76 503.81,-139.66"/>
</a>
</g>
</g>
</g>
</svg>
