<?xml version="1.0" encoding="UTF-8" standalone="no"?>
<!DOCTYPE svg PUBLIC "-//W3C//DTD SVG 1.1//EN"
 "http://www.w3.org/Graphics/SVG/1.1/DTD/svg11.dtd">
<!-- Generated by graphviz version 2.43.0 (0)
 -->
<!-- Title: antenna_deploy_job.c Pages: 1 -->
<svg width="785pt" height="302pt"
 viewBox="0.00 0.00 784.74 302.00" xmlns="http://www.w3.org/2000/svg" xmlns:xlink="http://www.w3.org/1999/xlink">
<g id="graph0" class="graph" transform="scale(1 1) rotate(0) translate(4 298)">
<title>antenna_deploy_job.c</title>
<!-- Node1 -->
<g id="Node000001" class="node">
<title>Node1</title>
<g id="a_Node000001"><a xlink:title=" ">
<polygon fill="#999999" stroke="#666666" points="426.24,-294 303.24,-294 303.24,-275 426.24,-275 426.24,-294"/>
<text text-anchor="middle" x="364.74" y="-282" font-family="Helvetica,sans-Serif" font-size="10.00">antenna_deploy_job.c</text>
</a>
</g>
</g>
<!-- Node2 -->
<g id="Node000002" class="node">
<title>Node2</title>
<g id="a_Node000002"><a xlink:href="vega__ant_8h.html" target="_top" xlink:title="Vega Antenna Board Driver.">
<polygon fill="white" stroke="#666666" points="209.24,-184 138.24,-184 138.24,-165 209.24,-165 209.24,-184"/>
<text text-anchor="middle" x="173.74" y="-172" font-family="Helvetica,sans-Serif" font-size="10.00">vega_ant.h</text>
</a>
</g>
</g>
<!-- Node1&#45;&gt;Node2 -->
<g id="edge1_Node000001_Node000002" class="edge">
<title>Node1&#45;&gt;Node2</title>
<g id="a_edge1_Node000001_Node000002"><a xlink:title=" ">
<path fill="none" stroke="#63b8ff" d="M349.44,-274.84C316.24,-256.08 237.45,-211.52 197.64,-189.01"/>
<polygon fill="#63b8ff" stroke="#63b8ff" points="199.29,-185.92 188.86,-184.05 195.84,-192.02 199.29,-185.92"/>
</a>
</g>
</g>
<!-- Node10 -->
<g id="Node000010" class="node">
<title>Node10</title>
<g id="a_Node000010"><a xlink:href="log_8h.html" target="_top" xlink:title=" ">
<polygon fill="white" stroke="#666666" points="385.24,-239 344.24,-239 344.24,-220 385.24,-220 385.24,-239"/>
<text text-anchor="middle" x="364.74" y="-227" font-family="Helvetica,sans-Serif" font-size="10.00">log.h</text>
</a>
</g>
</g>
<!-- Node1&#45;&gt;Node10 -->
<g id="edge14_Node000001_Node000010" class="edge">
<title>Node1&#45;&gt;Node10</title>
<g id="a_edge14_Node000001_Node000010"><a xlink:title=" ">
<path fill="none" stroke="#63b8ff" d="M364.74,-274.75C364.74,-267.8 364.74,-257.85 364.74,-249.13"/>
<polygon fill="#63b8ff" stroke="#63b8ff" points="368.24,-249.09 364.74,-239.09 361.24,-249.09 368.24,-249.09"/>
</a>
</g>
</g>
<!-- Node19 -->
<g id="Node000019" class="node">
<title>Node19</title>
<g id="a_Node000019"><a xlink:href="steve_8h.html" target="_top" xlink:title="S.T.E.V.E (Scheduler Task for Executing Vital Events)">
<polygon fill="white" stroke="#666666" points="566.24,-239 513.24,-239 513.24,-220 566.24,-220 566.24,-239"/>
<text text-anchor="middle" x="539.74" y="-227" font-family="Helvetica,sans-Serif" font-size="10.00">steve.h</text>
</a>
</g>
</g>
<!-- Node1&#45;&gt;Node19 -->
<g id="edge32_Node000001_Node000019" class="edge">
<title>Node1&#45;&gt;Node19</title>
<g id="a_edge32_Node000001_Node000019"><a xlink:title=" ">
<path fill="none" stroke="#63b8ff" d="M392.86,-274.98C422.89,-265.89 470.6,-251.44 503.45,-241.49"/>
<polygon fill="#63b8ff" stroke="#63b8ff" points="504.57,-244.81 513.13,-238.56 502.54,-238.11 504.57,-244.81"/>
</a>
</g>
</g>
<!-- Node3 -->
<g id="Node000003" class="node">
<title>Node3</title>
<g id="a_Node000003"><a xlink:href="simulator_2pico-sdk_2hardware_2i2c_8h.html" target="_top" xlink:title=" ">
<polygon fill="white" stroke="#666666" points="254.24,-74 165.24,-74 165.24,-55 254.24,-55 254.24,-74"/>
<text text-anchor="middle" x="209.74" y="-62" font-family="Helvetica,sans-Serif" font-size="10.00">hardware/i2c.h</text>
</a>
</g>
</g>
<!-- Node2&#45;&gt;Node3 -->
<g id="edge2_Node000002_Node000003" class="edge">
<title>Node2&#45;&gt;Node3</title>
<g id="a_edge2_Node000002_Node000003"><a xlink:title=" ">
<path fill="none" stroke="#63b8ff" d="M176.69,-164.66C182.55,-147.09 195.76,-107.45 203.59,-83.95"/>
<polygon fill="#63b8ff" stroke="#63b8ff" points="207.02,-84.75 206.86,-74.16 200.37,-82.54 207.02,-84.75"/>
</a>
</g>
</g>
<!-- Node4 -->
<g id="Node000004" class="node">
<title>Node4</title>
<g id="a_Node000004"><a xlink:title=" ">
<polygon fill="#e0e0e0" stroke="#999999" points="134.24,-19 81.24,-19 81.24,0 134.24,0 134.24,-19"/>
<text text-anchor="middle" x="107.74" y="-7" font-family="Helvetica,sans-Serif" font-size="10.00">stdint.h</text>
</a>
</g>
</g>
<!-- Node2&#45;&gt;Node4 -->
<g id="edge8_Node000002_Node000004" class="edge">
<title>Node2&#45;&gt;Node4</title>
<g id="a_edge8_Node000002_Node000004"><a xlink:title=" ">
<path fill="none" stroke="#63b8ff" d="M140.14,-164.96C99.37,-152.58 32.52,-125.3 3.74,-74 -13.33,-43.56 34.8,-25.98 71.18,-17.33"/>
<polygon fill="#63b8ff" stroke="#63b8ff" points="72.07,-20.72 81.07,-15.12 70.55,-13.88 72.07,-20.72"/>
</a>
</g>
</g>
<!-- Node7 -->
<g id="Node000007" class="node">
<title>Node7</title>
<g id="a_Node000007"><a xlink:href="gpio_8h.html" target="_top" xlink:title=" ">
<polygon fill="white" stroke="#666666" points="108.24,-74 13.24,-74 13.24,-55 108.24,-55 108.24,-74"/>
<text text-anchor="middle" x="60.74" y="-62" font-family="Helvetica,sans-Serif" font-size="10.00">hardware/gpio.h</text>
</a>
</g>
</g>
<!-- Node2&#45;&gt;Node7 -->
<g id="edge6_Node000002_Node000007" class="edge">
<title>Node2&#45;&gt;Node7</title>
<g id="a_edge6_Node000002_Node000007"><a xlink:title=" ">
<path fill="none" stroke="#63b8ff" d="M160.43,-164.72C148.03,-156.25 129.3,-142.73 114.74,-129 99.35,-114.48 83.92,-95.82 73.52,-82.5"/>
<polygon fill="#63b8ff" stroke="#63b8ff" points="76.05,-80.05 67.18,-74.24 70.49,-84.31 76.05,-80.05"/>
</a>
</g>
</g>
<!-- Node8 -->
<g id="Node000008" class="node">
<title>Node8</title>
<g id="a_Node000008"><a xlink:href="drivers_2include_2i2c_8h.html" target="_top" xlink:title="Drivers for i2c peripheral devices.">
<polygon fill="white" stroke="#666666" points="163.74,-129 123.74,-129 123.74,-110 163.74,-110 163.74,-129"/>
<text text-anchor="middle" x="143.74" y="-117" font-family="Helvetica,sans-Serif" font-size="10.00">i2c.h</text>
</a>
</g>
</g>
<!-- Node2&#45;&gt;Node8 -->
<g id="edge9_Node000002_Node000008" class="edge">
<title>Node2&#45;&gt;Node8</title>
<g id="a_edge9_Node000002_Node000008"><a xlink:title=" ">
<path fill="none" stroke="#63b8ff" d="M168.79,-164.75C164.68,-157.49 158.72,-146.95 153.64,-137.98"/>
<polygon fill="#63b8ff" stroke="#63b8ff" points="156.58,-136.07 148.6,-129.09 150.48,-139.52 156.58,-136.07"/>
</a>
</g>
</g>
<!-- Node9 -->
<g id="Node000009" class="node">
<title>Node9</title>
<g id="a_Node000009"><a xlink:title=" ">
<polygon fill="#e0e0e0" stroke="#999999" points="378.74,-19 306.74,-19 306.74,0 378.74,0 378.74,-19"/>
<text text-anchor="middle" x="342.74" y="-7" font-family="Helvetica,sans-Serif" font-size="10.00">FreeRTOS.h</text>
</a>
</g>
</g>
<!-- Node2&#45;&gt;Node9 -->
<g id="edge13_Node000002_Node000009" class="edge">
<title>Node2&#45;&gt;Node9</title>
<g id="a_edge13_Node000002_Node000009"><a xlink:title=" ">
<path fill="none" stroke="#63b8ff" d="M182.83,-164.74C210,-138.53 290.89,-60.51 326.08,-26.57"/>
<polygon fill="#63b8ff" stroke="#63b8ff" points="328.84,-28.77 333.61,-19.31 323.98,-23.73 328.84,-28.77"/>
</a>
</g>
</g>
<!-- Node3&#45;&gt;Node4 -->
<g id="edge3_Node000003_Node000004" class="edge">
<title>Node3&#45;&gt;Node4</title>
<g id="a_edge3_Node000003_Node000004"><a xlink:title=" ">
<path fill="none" stroke="#63b8ff" d="M193.36,-54.98C177.17,-46.57 152.17,-33.59 133.36,-23.81"/>
<polygon fill="#63b8ff" stroke="#63b8ff" points="134.92,-20.68 124.43,-19.17 131.69,-26.89 134.92,-20.68"/>
</a>
</g>
</g>
<!-- Node5 -->
<g id="Node000005" class="node">
<title>Node5</title>
<g id="a_Node000005"><a xlink:title=" ">
<polygon fill="#e0e0e0" stroke="#999999" points="288.74,-19 232.74,-19 232.74,0 288.74,0 288.74,-19"/>
<text text-anchor="middle" x="260.74" y="-7" font-family="Helvetica,sans-Serif" font-size="10.00">stddef.h</text>
</a>
</g>
</g>
<!-- Node3&#45;&gt;Node5 -->
<g id="edge4_Node000003_Node000005" class="edge">
<title>Node3&#45;&gt;Node5</title>
<g id="a_edge4_Node000003_Node000005"><a xlink:title=" ">
<path fill="none" stroke="#63b8ff" d="M218.16,-54.75C225.52,-47.11 236.38,-35.82 245.29,-26.56"/>
<polygon fill="#63b8ff" stroke="#63b8ff" points="248.07,-28.72 252.48,-19.09 243.02,-23.87 248.07,-28.72"/>
</a>
</g>
</g>
<!-- Node6 -->
<g id="Node000006" class="node">
<title>Node6</title>
<g id="a_Node000006"><a xlink:title=" ">
<polygon fill="#e0e0e0" stroke="#999999" points="214.74,-19 152.74,-19 152.74,0 214.74,0 214.74,-19"/>
<text text-anchor="middle" x="183.74" y="-7" font-family="Helvetica,sans-Serif" font-size="10.00">stdbool.h</text>
</a>
</g>
</g>
<!-- Node3&#45;&gt;Node6 -->
<g id="edge5_Node000003_Node000006" class="edge">
<title>Node3&#45;&gt;Node6</title>
<g id="a_edge5_Node000003_Node000006"><a xlink:title=" ">
<path fill="none" stroke="#63b8ff" d="M205.45,-54.75C201.93,-47.57 196.83,-37.18 192.46,-28.27"/>
<polygon fill="#63b8ff" stroke="#63b8ff" points="195.5,-26.53 187.96,-19.09 189.22,-29.61 195.5,-26.53"/>
</a>
</g>
</g>
<!-- Node7&#45;&gt;Node4 -->
<g id="edge7_Node000007_Node000004" class="edge">
<title>Node7&#45;&gt;Node4</title>
<g id="a_edge7_Node000007_Node000004"><a xlink:title=" ">
<path fill="none" stroke="#63b8ff" d="M68.5,-54.75C75.21,-47.18 85.08,-36.05 93.25,-26.84"/>
<polygon fill="#63b8ff" stroke="#63b8ff" points="96.11,-28.89 100.13,-19.09 90.87,-24.25 96.11,-28.89"/>
</a>
</g>
</g>
<!-- Node8&#45;&gt;Node3 -->
<g id="edge10_Node000008_Node000003" class="edge">
<title>Node8&#45;&gt;Node3</title>
<g id="a_edge10_Node000008_Node000003"><a xlink:title=" ">
<path fill="none" stroke="#63b8ff" d="M154.35,-109.98C164.2,-102.07 179.09,-90.11 190.96,-80.58"/>
<polygon fill="#63b8ff" stroke="#63b8ff" points="193.34,-83.16 198.95,-74.17 188.96,-77.7 193.34,-83.16"/>
</a>
</g>
</g>
<!-- Node8&#45;&gt;Node4 -->
<g id="edge12_Node000008_Node000004" class="edge">
<title>Node8&#45;&gt;Node4</title>
<g id="a_edge12_Node000008_Node000004"><a xlink:title=" ">
<path fill="none" stroke="#63b8ff" d="M140.8,-109.66C134.94,-92.09 121.73,-52.45 113.89,-28.95"/>
<polygon fill="#63b8ff" stroke="#63b8ff" points="117.11,-27.54 110.63,-19.16 110.47,-29.75 117.11,-27.54"/>
</a>
</g>
</g>
<!-- Node8&#45;&gt;Node7 -->
<g id="edge11_Node000008_Node000007" class="edge">
<title>Node8&#45;&gt;Node7</title>
<g id="a_edge11_Node000008_Node000007"><a xlink:title=" ">
<path fill="none" stroke="#63b8ff" d="M130.41,-109.98C117.66,-101.84 98.19,-89.41 83.07,-79.76"/>
<polygon fill="#63b8ff" stroke="#63b8ff" points="84.63,-76.6 74.32,-74.17 80.87,-82.5 84.63,-76.6"/>
</a>
</g>
</g>
<!-- Node10&#45;&gt;Node6 -->
<g id="edge31_Node000010_Node000006" class="edge">
<title>Node10&#45;&gt;Node6</title>
<g id="a_edge31_Node000010_Node000006"><a xlink:title=" ">
<path fill="none" stroke="#63b8ff" d="M361.57,-219.87C351.2,-192.62 315.85,-107.14 262.74,-55 249.07,-41.58 230.54,-30.86 214.86,-23.3"/>
<polygon fill="#63b8ff" stroke="#63b8ff" points="216.08,-20.01 205.53,-19.02 213.15,-26.37 216.08,-20.01"/>
</a>
</g>
</g>
<!-- Node11 -->
<g id="Node000011" class="node">
<title>Node11</title>
<g id="a_Node000011"><a xlink:href="telemetry_8h.html" target="_top" xlink:title="Functions for packaging and queuing telemetry packets for sending.">
<polygon fill="white" stroke="#666666" points="444.74,-184 372.74,-184 372.74,-165 444.74,-165 444.74,-184"/>
<text text-anchor="middle" x="408.74" y="-172" font-family="Helvetica,sans-Serif" font-size="10.00">telemetry.h</text>
</a>
</g>
</g>
<!-- Node10&#45;&gt;Node11 -->
<g id="edge15_Node000010_Node000011" class="edge">
<title>Node10&#45;&gt;Node11</title>
<g id="a_edge15_Node000010_Node000011"><a xlink:title=" ">
<path fill="none" stroke="#63b8ff" d="M372.01,-219.75C378.29,-212.18 387.53,-201.05 395.17,-191.84"/>
<polygon fill="#63b8ff" stroke="#63b8ff" points="397.92,-194.02 401.61,-184.09 392.53,-189.55 397.92,-194.02"/>
</a>
</g>
</g>
<!-- Node11&#45;&gt;Node9 -->
<g id="edge16_Node000011_Node000009" class="edge">
<title>Node11&#45;&gt;Node9</title>
<g id="a_edge16_Node000011_Node000009"><a xlink:title=" ">
<path fill="none" stroke="#63b8ff" d="M405.19,-164.74C394.81,-139.09 364.32,-63.78 350.14,-28.78"/>
<polygon fill="#63b8ff" stroke="#63b8ff" points="353.31,-27.26 346.31,-19.31 346.82,-29.89 353.31,-27.26"/>
</a>
</g>
</g>
<!-- Node12 -->
<g id="Node000012" class="node">
<title>Node12</title>
<g id="a_Node000012"><a xlink:title=" ">
<polygon fill="#e0e0e0" stroke="#999999" points="696.74,-19 640.74,-19 640.74,0 696.74,0 696.74,-19"/>
<text text-anchor="middle" x="668.74" y="-7" font-family="Helvetica,sans-Serif" font-size="10.00">queue.h</text>
</a>
</g>
</g>
<!-- Node11&#45;&gt;Node12 -->
<g id="edge17_Node000011_Node000012" class="edge">
<title>Node11&#45;&gt;Node12</title>
<g id="a_edge17_Node000011_Node000012"><a xlink:title=" ">
<path fill="none" stroke="#63b8ff" d="M429.21,-164.91C448.41,-156.58 477.68,-143.16 501.74,-129 558.08,-95.86 619.63,-49.2 649.85,-25.54"/>
<polygon fill="#63b8ff" stroke="#63b8ff" points="652.16,-28.17 657.85,-19.23 647.83,-22.67 652.16,-28.17"/>
</a>
</g>
</g>
<!-- Node13 -->
<g id="Node000013" class="node">
<title>Node13</title>
<g id="a_Node000013"><a xlink:href="file__downlink_8h.html" target="_top" xlink:title=" ">
<polygon fill="white" stroke="#666666" points="492.74,-129 402.74,-129 402.74,-110 492.74,-110 492.74,-129"/>
<text text-anchor="middle" x="447.74" y="-117" font-family="Helvetica,sans-Serif" font-size="10.00">file_downlink.h</text>
</a>
</g>
</g>
<!-- Node11&#45;&gt;Node13 -->
<g id="edge18_Node000011_Node000013" class="edge">
<title>Node11&#45;&gt;Node13</title>
<g id="a_edge18_Node000011_Node000013"><a xlink:title=" ">
<path fill="none" stroke="#63b8ff" d="M415.18,-164.75C420.64,-157.34 428.61,-146.5 435.3,-137.41"/>
<polygon fill="#63b8ff" stroke="#63b8ff" points="438.32,-139.22 441.42,-129.09 432.68,-135.07 438.32,-139.22"/>
</a>
</g>
</g>
<!-- Node13&#45;&gt;Node9 -->
<g id="edge19_Node000013_Node000009" class="edge">
<title>Node13&#45;&gt;Node9</title>
<g id="a_edge19_Node000013_Node000009"><a xlink:title=" ">
<path fill="none" stroke="#63b8ff" d="M439.15,-109.66C421.45,-91.46 380.71,-49.55 358.27,-26.47"/>
<polygon fill="#63b8ff" stroke="#63b8ff" points="360.64,-23.89 351.16,-19.16 355.62,-28.77 360.64,-23.89"/>
</a>
</g>
</g>
<!-- Node13&#45;&gt;Node12 -->
<g id="edge20_Node000013_Node000012" class="edge">
<title>Node13&#45;&gt;Node12</title>
<g id="a_edge20_Node000013_Node000012"><a xlink:title=" ">
<path fill="none" stroke="#63b8ff" d="M465.45,-109.84C504.18,-90.92 596.58,-45.77 642.25,-23.45"/>
<polygon fill="#63b8ff" stroke="#63b8ff" points="643.81,-26.58 651.25,-19.05 640.73,-20.29 643.81,-26.58"/>
</a>
</g>
</g>
<!-- Node14 -->
<g id="Node000014" class="node">
<title>Node14</title>
<g id="a_Node000014"><a xlink:href="filesystem_8h.html" target="_top" xlink:title="Handles file system operations and management.">
<polygon fill="white" stroke="#666666" points="502.24,-74 425.24,-74 425.24,-55 502.24,-55 502.24,-74"/>
<text text-anchor="middle" x="463.74" y="-62" font-family="Helvetica,sans-Serif" font-size="10.00">filesystem.h</text>
</a>
</g>
</g>
<!-- Node13&#45;&gt;Node14 -->
<g id="edge21_Node000013_Node000014" class="edge">
<title>Node13&#45;&gt;Node14</title>
<g id="a_edge21_Node000013_Node000014"><a xlink:title=" ">
<path fill="none" stroke="#63b8ff" d="M450.39,-109.75C452.51,-102.72 455.55,-92.62 458.21,-83.84"/>
<polygon fill="#63b8ff" stroke="#63b8ff" points="461.61,-84.67 461.15,-74.09 454.91,-82.65 461.61,-84.67"/>
</a>
</g>
</g>
<!-- Node14&#45;&gt;Node4 -->
<g id="edge29_Node000014_Node000004" class="edge">
<title>Node14&#45;&gt;Node4</title>
<g id="a_edge29_Node000014_Node000004"><a xlink:title=" ">
<path fill="none" stroke="#63b8ff" d="M425.13,-59.31C366.63,-52.71 251.86,-38.76 144.46,-18.96"/>
<polygon fill="#63b8ff" stroke="#63b8ff" points="144.89,-15.48 134.42,-17.09 143.61,-22.37 144.89,-15.48"/>
</a>
</g>
</g>
<!-- Node14&#45;&gt;Node5 -->
<g id="edge28_Node000014_Node000005" class="edge">
<title>Node14&#45;&gt;Node5</title>
<g id="a_edge28_Node000014_Node000005"><a xlink:title=" ">
<path fill="none" stroke="#63b8ff" d="M431.13,-54.98C395.02,-45.56 336.88,-30.38 298.74,-20.42"/>
<polygon fill="#63b8ff" stroke="#63b8ff" points="299.58,-17.02 289.02,-17.88 297.81,-23.8 299.58,-17.02"/>
</a>
</g>
</g>
<!-- Node14&#45;&gt;Node6 -->
<g id="edge30_Node000014_Node000006" class="edge">
<title>Node14&#45;&gt;Node6</title>
<g id="a_edge30_Node000014_Node000006"><a xlink:title=" ">
<path fill="none" stroke="#63b8ff" d="M425.03,-56.64C379.58,-48.52 301.67,-34.38 225.43,-19.3"/>
<polygon fill="#63b8ff" stroke="#63b8ff" points="225.66,-15.77 215.17,-17.26 224.3,-22.64 225.66,-15.77"/>
</a>
</g>
</g>
<!-- Node14&#45;&gt;Node9 -->
<g id="edge22_Node000014_Node000009" class="edge">
<title>Node14&#45;&gt;Node9</title>
<g id="a_edge22_Node000014_Node000009"><a xlink:title=" ">
<path fill="none" stroke="#63b8ff" d="M444.3,-54.98C424.75,-46.42 394.36,-33.11 371.92,-23.28"/>
<polygon fill="#63b8ff" stroke="#63b8ff" points="373.1,-19.98 362.54,-19.17 370.29,-26.39 373.1,-19.98"/>
</a>
</g>
</g>
<!-- Node14&#45;&gt;Node12 -->
<g id="edge23_Node000014_Node000012" class="edge">
<title>Node14&#45;&gt;Node12</title>
<g id="a_edge23_Node000014_Node000012"><a xlink:title=" ">
<path fill="none" stroke="#63b8ff" d="M496.68,-54.98C533.25,-45.53 592.19,-30.29 630.7,-20.33"/>
<polygon fill="#63b8ff" stroke="#63b8ff" points="631.7,-23.69 640.51,-17.8 629.95,-16.91 631.7,-23.69"/>
</a>
</g>
</g>
<!-- Node15 -->
<g id="Node000015" class="node">
<title>Node15</title>
<g id="a_Node000015"><a xlink:title=" ">
<polygon fill="#e0e0e0" stroke="#999999" points="444.24,-19 397.24,-19 397.24,0 444.24,0 444.24,-19"/>
<text text-anchor="middle" x="420.74" y="-7" font-family="Helvetica,sans-Serif" font-size="10.00">task.h</text>
</a>
</g>
</g>
<!-- Node14&#45;&gt;Node15 -->
<g id="edge24_Node000014_Node000015" class="edge">
<title>Node14&#45;&gt;Node15</title>
<g id="a_edge24_Node000014_Node000015"><a xlink:title=" ">
<path fill="none" stroke="#63b8ff" d="M456.64,-54.75C450.57,-47.26 441.66,-36.28 434.23,-27.13"/>
<polygon fill="#63b8ff" stroke="#63b8ff" points="436.73,-24.65 427.71,-19.09 431.29,-29.06 436.73,-24.65"/>
</a>
</g>
</g>
<!-- Node16 -->
<g id="Node000016" class="node">
<title>Node16</title>
<g id="a_Node000016"><a xlink:title=" ">
<polygon fill="#e0e0e0" stroke="#999999" points="494.74,-19 462.74,-19 462.74,0 494.74,0 494.74,-19"/>
<text text-anchor="middle" x="478.74" y="-7" font-family="Helvetica,sans-Serif" font-size="10.00">ff.h</text>
</a>
</g>
</g>
<!-- Node14&#45;&gt;Node16 -->
<g id="edge25_Node000014_Node000016" class="edge">
<title>Node14&#45;&gt;Node16</title>
<g id="a_edge25_Node000014_Node000016"><a xlink:title=" ">
<path fill="none" stroke="#63b8ff" d="M466.22,-54.75C468.21,-47.72 471.07,-37.62 473.55,-28.84"/>
<polygon fill="#63b8ff" stroke="#63b8ff" points="476.96,-29.66 476.31,-19.09 470.22,-27.76 476.96,-29.66"/>
</a>
</g>
</g>
<!-- Node17 -->
<g id="Node000017" class="node">
<title>Node17</title>
<g id="a_Node000017"><a xlink:href="filesystem__errors_8h.html" target="_top" xlink:title=" ">
<polygon fill="white" stroke="#666666" points="622.74,-19 512.74,-19 512.74,0 622.74,0 622.74,-19"/>
<text text-anchor="middle" x="567.74" y="-7" font-family="Helvetica,sans-Serif" font-size="10.00">filesystem_errors.h</text>
</a>
</g>
</g>
<!-- Node14&#45;&gt;Node17 -->
<g id="edge26_Node000014_Node000017" class="edge">
<title>Node14&#45;&gt;Node17</title>
<g id="a_edge26_Node000014_Node000017"><a xlink:title=" ">
<path fill="none" stroke="#63b8ff" d="M480.45,-54.98C496.96,-46.57 522.44,-33.59 541.62,-23.81"/>
<polygon fill="#63b8ff" stroke="#63b8ff" points="543.41,-26.83 550.73,-19.17 540.23,-20.59 543.41,-26.83"/>
</a>
</g>
</g>
<!-- Node18 -->
<g id="Node000018" class="node">
<title>Node18</title>
<g id="a_Node000018"><a xlink:title=" ">
<polygon fill="#e0e0e0" stroke="#999999" points="776.74,-19 714.74,-19 714.74,0 776.74,0 776.74,-19"/>
<text text-anchor="middle" x="745.74" y="-7" font-family="Helvetica,sans-Serif" font-size="10.00">semphr.h</text>
</a>
</g>
</g>
<!-- Node14&#45;&gt;Node18 -->
<g id="edge27_Node000014_Node000018" class="edge">
<title>Node14&#45;&gt;Node18</title>
<g id="a_edge27_Node000014_Node000018"><a xlink:title=" ">
<path fill="none" stroke="#63b8ff" d="M502.37,-56.74C548.22,-48.63 627.27,-34.42 704.43,-19.22"/>
<polygon fill="#63b8ff" stroke="#63b8ff" points="705.19,-22.64 714.32,-17.26 703.83,-15.77 705.19,-22.64"/>
</a>
</g>
</g>
<!-- Node19&#45;&gt;Node18 -->
<g id="edge33_Node000019_Node000018" class="edge">
<title>Node19&#45;&gt;Node18</title>
<g id="a_edge33_Node000019_Node000018"><a xlink:title=" ">
<path fill="none" stroke="#63b8ff" d="M547.82,-219.95C578.71,-187.27 689.68,-69.83 730.52,-26.61"/>
<polygon fill="#63b8ff" stroke="#63b8ff" points="733.18,-28.9 737.5,-19.22 728.09,-24.09 733.18,-28.9"/>
</a>
</g>
</g>
</g>
</svg>
