<?xml version="1.0" encoding="UTF-8" standalone="no"?>
<!DOCTYPE svg PUBLIC "-//W3C//DTD SVG 1.1//EN"
 "http://www.w3.org/Graphics/SVG/1.1/DTD/svg11.dtd">
<!-- Generated by graphviz version 2.43.0 (0)
 -->
<!-- Title: pulseIn Pages: 1 -->
<svg width="168pt" height="101pt"
 viewBox="0.00 0.00 168.00 101.00" xmlns="http://www.w3.org/2000/svg" xmlns:xlink="http://www.w3.org/1999/xlink">
<g id="graph0" class="graph" transform="scale(1 1) rotate(0) translate(4 97)">
<title>pulseIn</title>
<!-- Node1 -->
<g id="Node000001" class="node">
<title>Node1</title>
<g id="a_Node000001"><a xlink:title=" ">
<polygon fill="#999999" stroke="#666666" points="52,-56 0,-56 0,-37 52,-37 52,-56"/>
<text text-anchor="middle" x="26" y="-44" font-family="Helvetica,sans-Serif" font-size="10.00">pulseIn</text>
</a>
</g>
</g>
<!-- Node2 -->
<g id="Node000002" class="node">
<title>Node2</title>
<g id="a_Node000002"><a xlink:href="classPicoHal.html#a1a7f48d7549b6bac047746ffcbf7cb61" target="_top" xlink:title=" ">
<polygon fill="white" stroke="#666666" points="160,-93 88,-93 88,-74 160,-74 160,-93"/>
<text text-anchor="middle" x="124" y="-81" font-family="Helvetica,sans-Serif" font-size="10.00">digitalRead</text>
</a>
</g>
</g>
<!-- Node1&#45;&gt;Node2 -->
<g id="edge1_Node000001_Node000002" class="edge">
<title>Node1&#45;&gt;Node2</title>
<g id="a_edge1_Node000001_Node000002"><a xlink:title=" ">
<path fill="none" stroke="#63b8ff" d="M51.72,-56.03C62.94,-60.35 76.41,-65.54 88.59,-70.24"/>
<polygon fill="#63b8ff" stroke="#63b8ff" points="87.44,-73.54 98.03,-73.88 89.96,-67.01 87.44,-73.54"/>
</a>
</g>
</g>
<!-- Node3 -->
<g id="Node000003" class="node">
<title>Node3</title>
<g id="a_Node000003"><a xlink:href="classPicoHal.html#ae6a801f30f53ae97b156edb442efb88a" target="_top" xlink:title=" ">
<polygon fill="white" stroke="#666666" points="149,-56 99,-56 99,-37 149,-37 149,-56"/>
<text text-anchor="middle" x="124" y="-44" font-family="Helvetica,sans-Serif" font-size="10.00">micros</text>
</a>
</g>
</g>
<!-- Node1&#45;&gt;Node3 -->
<g id="edge2_Node000001_Node000003" class="edge">
<title>Node1&#45;&gt;Node3</title>
<g id="a_edge2_Node000001_Node000003"><a xlink:title=" ">
<path fill="none" stroke="#63b8ff" d="M52.22,-46.5C63.39,-46.5 76.71,-46.5 88.76,-46.5"/>
<polygon fill="#63b8ff" stroke="#63b8ff" points="88.94,-50 98.94,-46.5 88.94,-43 88.94,-50"/>
</a>
</g>
</g>
<!-- Node4 -->
<g id="Node000004" class="node">
<title>Node4</title>
<g id="a_Node000004"><a xlink:href="classPicoHal.html#a9a6712573dcdfb23916e25c7d265698b" target="_top" xlink:title=" ">
<polygon fill="white" stroke="#666666" points="153.5,-19 94.5,-19 94.5,0 153.5,0 153.5,-19"/>
<text text-anchor="middle" x="124" y="-7" font-family="Helvetica,sans-Serif" font-size="10.00">pinMode</text>
</a>
</g>
</g>
<!-- Node1&#45;&gt;Node4 -->
<g id="edge3_Node000001_Node000004" class="edge">
<title>Node1&#45;&gt;Node4</title>
<g id="a_edge3_Node000001_Node000004"><a xlink:title=" ">
<path fill="none" stroke="#63b8ff" d="M51.72,-36.97C62.94,-32.65 76.41,-27.46 88.59,-22.76"/>
<polygon fill="#63b8ff" stroke="#63b8ff" points="89.96,-25.99 98.03,-19.12 87.44,-19.46 89.96,-25.99"/>
</a>
</g>
</g>
</g>
</svg>
