<?xml version="1.0" encoding="UTF-8" standalone="no"?>
<!DOCTYPE svg PUBLIC "-//W3C//DTD SVG 1.1//EN"
 "http://www.w3.org/Graphics/SVG/1.1/DTD/svg11.dtd">
<!-- Generated by graphviz version 12.1.2 (20240928.0832)
 -->
<!-- Title: main Pages: 1 -->
<svg width="873pt" height="1097pt"
 viewBox="0.00 0.00 873.00 1097.00" xmlns="http://www.w3.org/2000/svg" xmlns:xlink="http://www.w3.org/1999/xlink">
<g id="graph0" class="graph" transform="scale(1 1) rotate(0) translate(4 1093)">
<title>main</title>
<!-- Node1 -->
<g id="Node000001" class="node">
<title>Node1</title>
<g id="a_Node000001"><a xlink:title=" ">
<polygon fill="#999999" stroke="#666666" points="37,-153 0,-153 0,-133 37,-133 37,-153"/>
<text text-anchor="middle" x="18.5" y="-139.5" font-family="Helvetica,sans-Serif" font-size="10.00">main</text>
</a>
</g>
</g>
<!-- Node2 -->
<g id="Node000002" class="node">
<title>Node2</title>
<g id="a_Node000002"><a xlink:href="command__fuzzer_8cpp.html#ab0e871ec3061d40f07ff6c3d80c4bfe5" target="_top" xlink:title=" ">
<polygon fill="white" stroke="#666666" points="202.25,-153 73,-153 73,-133 202.25,-133 202.25,-153"/>
<text text-anchor="middle" x="137.62" y="-139.5" font-family="Helvetica,sans-Serif" font-size="10.00">LLVMFuzzerTestOneInput</text>
</a>
</g>
</g>
<!-- Node1&#45;&gt;Node2 -->
<g id="edge1_Node000001_Node000002" class="edge">
<title>Node1&#45;&gt;Node2</title>
<g id="a_edge1_Node000001_Node000002"><a xlink:title=" ">
<path fill="none" stroke="#63b8ff" d="M37.29,-143C44.08,-143 52.33,-143 61.14,-143"/>
<polygon fill="#63b8ff" stroke="#63b8ff" points="61.01,-146.5 71.01,-143 61.01,-139.5 61.01,-146.5"/>
</a>
</g>
</g>
<!-- Node3 -->
<g id="Node000003" class="node">
<title>Node3</title>
<g id="a_Node000003"><a xlink:href="command_8c.html#a661d128b0c529a2ccf2418bc3de76e32" target="_top" xlink:title=" ">
<polygon fill="white" stroke="#666666" points="322.12,-497 239.38,-497 239.38,-477 322.12,-477 322.12,-497"/>
<text text-anchor="middle" x="280.75" y="-483.5" font-family="Helvetica,sans-Serif" font-size="10.00">command_task</text>
</a>
</g>
</g>
<!-- Node2&#45;&gt;Node3 -->
<g id="edge2_Node000002_Node000003" class="edge">
<title>Node2&#45;&gt;Node3</title>
<g id="a_edge2_Node000002_Node000003"><a xlink:title=" ">
<path fill="none" stroke="#63b8ff" d="M142.85,-153.3C162.41,-200.97 244.36,-400.74 271.2,-466.16"/>
<polygon fill="#63b8ff" stroke="#63b8ff" points="267.93,-467.42 274.97,-475.34 274.41,-464.76 267.93,-467.42"/>
</a>
</g>
</g>
<!-- Node47 -->
<g id="Node000047" class="node">
<title>Node47</title>
<g id="a_Node000047"><a xlink:href="filesystem_8c.html#a73f4c05620eb3111fa320fe7fa6c5609" target="_top" xlink:title=" ">
<polygon fill="white" stroke="#666666" points="323.25,-343 238.25,-343 238.25,-323 323.25,-323 323.25,-343"/>
<text text-anchor="middle" x="280.75" y="-329.5" font-family="Helvetica,sans-Serif" font-size="10.00">filesystem_task</text>
</a>
</g>
</g>
<!-- Node2&#45;&gt;Node47 -->
<g id="edge40_Node000002_Node000047" class="edge">
<title>Node2&#45;&gt;Node47</title>
<g id="a_edge40_Node000002_Node000047"><a xlink:title=" ">
<path fill="none" stroke="#63b8ff" d="M146.41,-153.49C169.16,-184.12 235.77,-273.79 265.33,-313.59"/>
<polygon fill="#63b8ff" stroke="#63b8ff" points="262.48,-315.62 271.26,-321.56 268.1,-311.45 262.48,-315.62"/>
</a>
</g>
</g>
<!-- Node57 -->
<g id="Node000057" class="node">
<title>Node57</title>
<g id="a_Node000057"><a xlink:href="command__fuzzer_8cpp.html#a267f396cbd33fde57276eb740536934c" target="_top" xlink:title=" ">
<polygon fill="white" stroke="#666666" points="314.25,-172 247.25,-172 247.25,-152 314.25,-152 314.25,-172"/>
<text text-anchor="middle" x="280.75" y="-158.5" font-family="Helvetica,sans-Serif" font-size="10.00">fuzzer_task</text>
</a>
</g>
</g>
<!-- Node2&#45;&gt;Node57 -->
<g id="edge50_Node000002_Node000057" class="edge">
<title>Node2&#45;&gt;Node57</title>
<g id="a_edge50_Node000002_Node000057"><a xlink:title=" ">
<path fill="none" stroke="#63b8ff" d="M202.58,-151.61C213.71,-153.11 225.06,-154.64 235.51,-156.04"/>
<polygon fill="#63b8ff" stroke="#63b8ff" points="234.99,-159.5 245.36,-157.37 235.92,-152.57 234.99,-159.5"/>
</a>
</g>
</g>
<!-- Node60 -->
<g id="Node000060" class="node">
<title>Node60</title>
<g id="a_Node000060"><a xlink:href="steve_8c.html#a5eaa2a6f8e013a076a0b8dc66dcaacfd" target="_top" xlink:title=" ">
<polygon fill="white" stroke="#666666" points="453.62,-134 389.62,-134 389.62,-114 453.62,-114 453.62,-134"/>
<text text-anchor="middle" x="421.62" y="-120.5" font-family="Helvetica,sans-Serif" font-size="10.00">steve_task</text>
</a>
</g>
</g>
<!-- Node2&#45;&gt;Node60 -->
<g id="edge52_Node000002_Node000060" class="edge">
<title>Node2&#45;&gt;Node60</title>
<g id="a_edge52_Node000002_Node000060"><a xlink:title=" ">
<path fill="none" stroke="#63b8ff" d="M202.62,-138.69C256.28,-135.07 331.42,-130.01 378,-126.87"/>
<polygon fill="#63b8ff" stroke="#63b8ff" points="378.23,-130.36 387.97,-126.2 377.76,-123.38 378.23,-130.36"/>
</a>
</g>
</g>
<!-- Node95 -->
<g id="Node000095" class="node">
<title>Node95</title>
<g id="a_Node000095"><a xlink:href="telemetry_8c.html#a4b6f80453fccd49ceedb1296e14b1bee" target="_top" xlink:title=" ">
<polygon fill="white" stroke="#666666" points="321,-96 240.5,-96 240.5,-76 321,-76 321,-96"/>
<text text-anchor="middle" x="280.75" y="-82.5" font-family="Helvetica,sans-Serif" font-size="10.00">telemetry_task</text>
</a>
</g>
</g>
<!-- Node2&#45;&gt;Node95 -->
<g id="edge59_Node000002_Node000095" class="edge">
<title>Node2&#45;&gt;Node95</title>
<g id="a_edge59_Node000002_Node000095"><a xlink:title=" ">
<path fill="none" stroke="#63b8ff" d="M164.51,-132.55C186.69,-123.59 218.88,-110.59 243.6,-100.6"/>
<polygon fill="#63b8ff" stroke="#63b8ff" points="244.66,-103.95 252.63,-96.96 242.04,-97.46 244.66,-103.95"/>
</a>
</g>
</g>
<!-- Node100 -->
<g id="Node000100" class="node">
<title>Node100</title>
<g id="a_Node000100"><a xlink:href="command__fuzzer_8cpp.html#a713515efde98e3f81d7e857c31f81919" target="_top" xlink:title=" ">
<polygon fill="white" stroke="#666666" points="316.5,-58 245,-58 245,-38 316.5,-38 316.5,-58"/>
<text text-anchor="middle" x="280.75" y="-44.5" font-family="Helvetica,sans-Serif" font-size="10.00">xTaskCreate</text>
</a>
</g>
</g>
<!-- Node2&#45;&gt;Node100 -->
<g id="edge63_Node000002_Node000100" class="edge">
<title>Node2&#45;&gt;Node100</title>
<g id="a_edge63_Node000002_Node000100"><a xlink:title=" ">
<path fill="none" stroke="#63b8ff" d="M150.28,-132.73C168.27,-117.19 204.3,-87.37 238.25,-67 240.27,-65.79 242.37,-64.6 244.52,-63.45"/>
<polygon fill="#63b8ff" stroke="#63b8ff" points="245.97,-66.65 253.36,-59.05 242.84,-60.38 245.97,-66.65"/>
</a>
</g>
</g>
<!-- Node4 -->
<g id="Node000004" class="node">
<title>Node4</title>
<g id="a_Node000004"><a xlink:href="command_8c.html#a659f541debc1151493914063c723a0b1" target="_top" xlink:title=" ">
<polygon fill="white" stroke="#666666" points="482.88,-652 360.38,-652 360.38,-632 482.88,-632 482.88,-652"/>
<text text-anchor="middle" x="421.62" y="-638.5" font-family="Helvetica,sans-Serif" font-size="10.00">parse_command_packet</text>
</a>
</g>
</g>
<!-- Node3&#45;&gt;Node4 -->
<g id="edge3_Node000003_Node000004" class="edge">
<title>Node3&#45;&gt;Node4</title>
<g id="a_edge3_Node000003_Node000004"><a xlink:title=" ">
<path fill="none" stroke="#63b8ff" d="M290.86,-497.17C313.81,-522.78 374.24,-590.23 403.83,-623.25"/>
<polygon fill="#63b8ff" stroke="#63b8ff" points="401.01,-625.35 410.29,-630.46 406.22,-620.68 401.01,-625.35"/>
</a>
</g>
</g>
<!-- Node5 -->
<g id="Node000005" class="node">
<title>Node5</title>
<g id="a_Node000005"><a xlink:href="user__auth_8c.html#a2e45341289a64a026113badabc8369cc" target="_top" xlink:title=" ">
<polygon fill="#fff0f0" stroke="red" points="615.5,-1089 559.75,-1089 559.75,-1069 615.5,-1069 615.5,-1089"/>
<text text-anchor="middle" x="587.62" y="-1075.5" font-family="Helvetica,sans-Serif" font-size="10.00">add_user</text>
</a>
</g>
</g>
<!-- Node4&#45;&gt;Node5 -->
<g id="edge4_Node000004_Node000005" class="edge">
<title>Node4&#45;&gt;Node5</title>
<g id="a_edge4_Node000004_Node000005"><a xlink:title=" ">
<path fill="none" stroke="#63b8ff" d="M423.61,-652.14C429.4,-709.99 460.91,-997.94 520,-1060 527.43,-1067.8 537.82,-1072.47 548.19,-1075.25"/>
<polygon fill="#63b8ff" stroke="#63b8ff" points="547.3,-1078.64 557.81,-1077.26 548.74,-1071.78 547.3,-1078.64"/>
</a>
</g>
</g>
<!-- Node12 -->
<g id="Node000012" class="node">
<title>Node12</title>
<g id="a_Node000012"><a xlink:href="filesystem_8c.html#a20ca64a89158ccc1eb3f714b3d8725f5" target="_top" xlink:title=" ">
<polygon fill="white" stroke="#666666" points="760.5,-1032 704.75,-1032 704.75,-1012 760.5,-1012 760.5,-1032"/>
<text text-anchor="middle" x="732.62" y="-1018.5" font-family="Helvetica,sans-Serif" font-size="10.00">make_dir</text>
</a>
</g>
</g>
<!-- Node4&#45;&gt;Node12 -->
<g id="edge21_Node000004_Node000012" class="edge">
<title>Node4&#45;&gt;Node12</title>
<g id="a_edge21_Node000004_Node000012"><a xlink:title=" ">
<path fill="none" stroke="#63b8ff" d="M424.09,-652.36C431.67,-704.44 468.05,-936.98 520,-984 544.88,-1006.52 639.21,-1016.15 693.16,-1019.89"/>
<polygon fill="#63b8ff" stroke="#63b8ff" points="692.62,-1023.36 702.83,-1020.52 693.08,-1016.38 692.62,-1023.36"/>
</a>
</g>
</g>
<!-- Node13 -->
<g id="Node000013" class="node">
<title>Node13</title>
<g id="a_Node000013"><a xlink:href="filesystem_8c.html#a8e5a51c709e9d6229c1974435475292a" target="_top" xlink:title=" ">
<polygon fill="white" stroke="#666666" points="865,-956 810,-956 810,-936 865,-936 865,-956"/>
<text text-anchor="middle" x="837.5" y="-942.5" font-family="Helvetica,sans-Serif" font-size="10.00">write_file</text>
</a>
</g>
</g>
<!-- Node4&#45;&gt;Node13 -->
<g id="edge39_Node000004_Node000013" class="edge">
<title>Node4&#45;&gt;Node13</title>
<g id="a_edge39_Node000004_Node000013"><a xlink:title=" ">
<path fill="none" stroke="#63b8ff" d="M425.53,-652.35C434.44,-682.3 464.25,-769.85 520,-817 568.7,-858.19 595.21,-843.47 655.25,-865 708.09,-883.94 723.38,-883.74 774,-908 786.89,-914.18 800.52,-922.27 811.76,-929.39"/>
<polygon fill="#63b8ff" stroke="#63b8ff" points="809.75,-932.26 820.04,-934.76 813.56,-926.39 809.75,-932.26"/>
</a>
</g>
</g>
<!-- Node14 -->
<g id="Node000014" class="node">
<title>Node14</title>
<g id="a_Node000014"><a xlink:href="filesystem_8c.html#aedf13aa9daded9085cdb13bc1560947b" target="_top" xlink:title=" ">
<polygon fill="#fff0f0" stroke="red" points="602.38,-785 572.88,-785 572.88,-765 602.38,-765 602.38,-785"/>
<text text-anchor="middle" x="587.62" y="-771.5" font-family="Helvetica,sans-Serif" font-size="10.00">cat</text>
</a>
</g>
</g>
<!-- Node4&#45;&gt;Node14 -->
<g id="edge7_Node000004_Node000014" class="edge">
<title>Node4&#45;&gt;Node14</title>
<g id="a_edge7_Node000004_Node000014"><a xlink:title=" ">
<path fill="none" stroke="#63b8ff" d="M428.48,-652.28C441.75,-674.65 476.42,-728.01 520,-756 532.4,-763.96 548.19,-768.65 561.28,-771.38"/>
<polygon fill="#63b8ff" stroke="#63b8ff" points="560.43,-774.79 570.89,-773.11 561.66,-767.9 560.43,-774.79"/>
</a>
</g>
</g>
<!-- Node18 -->
<g id="Node000018" class="node">
<title>Node18</title>
<g id="a_Node000018"><a xlink:href="filesystem_8c.html#a02c1e03f51146617a18f5bcc96099220" target="_top" xlink:title=" ">
<polygon fill="white" stroke="#666666" points="762.75,-795 702.5,-795 702.5,-775 762.75,-775 762.75,-795"/>
<text text-anchor="middle" x="732.62" y="-781.5" font-family="Helvetica,sans-Serif" font-size="10.00">delete_file</text>
</a>
</g>
</g>
<!-- Node4&#45;&gt;Node18 -->
<g id="edge8_Node000004_Node000018" class="edge">
<title>Node4&#45;&gt;Node18</title>
<g id="a_edge8_Node000004_Node000018"><a xlink:title=" ">
<path fill="none" stroke="#63b8ff" d="M425.46,-652.31C434,-681.15 462.54,-762.57 520,-794 573.42,-823.22 646.27,-810.88 691.07,-798.51"/>
<polygon fill="#63b8ff" stroke="#63b8ff" points="692.02,-801.88 700.65,-795.73 690.07,-795.16 692.02,-801.88"/>
</a>
</g>
</g>
<!-- Node19 -->
<g id="Node000019" class="node">
<title>Node19</title>
<g id="a_Node000019"><a xlink:href="user__auth_8c.html#a7b721ad996f2f06a51dc10384adec934" target="_top" xlink:title=" ">
<polygon fill="#fff0f0" stroke="red" points="620.75,-747 554.5,-747 554.5,-727 620.75,-727 620.75,-747"/>
<text text-anchor="middle" x="587.62" y="-733.5" font-family="Helvetica,sans-Serif" font-size="10.00">delete_user</text>
</a>
</g>
</g>
<!-- Node4&#45;&gt;Node19 -->
<g id="edge9_Node000004_Node000019" class="edge">
<title>Node4&#45;&gt;Node19</title>
<g id="a_edge9_Node000004_Node000019"><a xlink:title=" ">
<path fill="none" stroke="#63b8ff" d="M434.48,-652.39C452.11,-667.42 486.73,-695.35 520,-713 527.39,-716.92 535.56,-720.46 543.58,-723.53"/>
<polygon fill="#63b8ff" stroke="#63b8ff" points="542.3,-726.79 552.89,-726.91 544.69,-720.21 542.3,-726.79"/>
</a>
</g>
</g>
<!-- Node21 -->
<g id="Node000021" class="node">
<title>Node21</title>
<g id="a_Node000021"><a xlink:href="filesystem_8c.html#a550849e6b02b5ca20d32bdacb2ddd19b" target="_top" xlink:title=" ">
<polygon fill="white" stroke="#666666" points="754.88,-728 710.38,-728 710.38,-708 754.88,-708 754.88,-728"/>
<text text-anchor="middle" x="732.62" y="-714.5" font-family="Helvetica,sans-Serif" font-size="10.00">list_dir</text>
</a>
</g>
</g>
<!-- Node4&#45;&gt;Node21 -->
<g id="edge20_Node000004_Node000021" class="edge">
<title>Node4&#45;&gt;Node21</title>
<g id="a_edge20_Node000004_Node000021"><a xlink:title=" ">
<path fill="none" stroke="#63b8ff" d="M465.27,-652.49C527.71,-667.85 642.7,-696.13 698.93,-709.96"/>
<polygon fill="#63b8ff" stroke="#63b8ff" points="697.98,-713.33 708.53,-712.32 699.65,-706.53 697.98,-713.33"/>
</a>
</g>
</g>
<!-- Node22 -->
<g id="Node000022" class="node">
<title>Node22</title>
<g id="a_Node000022"><a xlink:href="steve_8c.html#a5632f290d33b3c7aa26d8c708441134d" target="_top" xlink:title=" ">
<polygon fill="white" stroke="#666666" points="652.62,-633 522.62,-633 522.62,-613 652.62,-613 652.62,-633"/>
<text text-anchor="middle" x="587.62" y="-619.5" font-family="Helvetica,sans-Serif" font-size="10.00">edit_steve_job_recur_time</text>
</a>
</g>
</g>
<!-- Node4&#45;&gt;Node22 -->
<g id="edge12_Node000004_Node000022" class="edge">
<title>Node4&#45;&gt;Node22</title>
<g id="a_edge12_Node000004_Node000022"><a xlink:title=" ">
<path fill="none" stroke="#63b8ff" d="M483.23,-634.98C492.24,-633.93 501.63,-632.85 510.91,-631.77"/>
<polygon fill="#63b8ff" stroke="#63b8ff" points="511.11,-635.27 520.64,-630.64 510.31,-628.32 511.11,-635.27"/>
</a>
</g>
</g>
<!-- Node23 -->
<g id="Node000023" class="node">
<title>Node23</title>
<g id="a_Node000023"><a xlink:href="steve_8c.html#a19f0e4d517e614fdb1e563f56ac1123a" target="_top" xlink:title=" ">
<polygon fill="white" stroke="#666666" points="772.12,-652 693.12,-652 693.12,-632 772.12,-632 772.12,-652"/>
<text text-anchor="middle" x="732.62" y="-638.5" font-family="Helvetica,sans-Serif" font-size="10.00">find_steve_job</text>
</a>
</g>
</g>
<!-- Node4&#45;&gt;Node23 -->
<g id="edge15_Node000004_Node000023" class="edge">
<title>Node4&#45;&gt;Node23</title>
<g id="a_edge15_Node000004_Node000023"><a xlink:title=" ">
<path fill="none" stroke="#63b8ff" d="M483.3,-642C541.27,-642 627.59,-642 681.69,-642"/>
<polygon fill="#63b8ff" stroke="#63b8ff" points="681.54,-645.5 691.54,-642 681.54,-638.5 681.54,-645.5"/>
</a>
</g>
</g>
<!-- Node25 -->
<g id="Node000025" class="node">
<title>Node25</title>
<g id="a_Node000025"><a xlink:href="utilities_2src_2log_8c.html#ad11311f2e9ec2fb14a767d93d1c5b97e" target="_top" xlink:title=" ">
<polygon fill="#fff0f0" stroke="red" points="648.88,-595 526.38,-595 526.38,-563 648.88,-563 648.88,-595"/>
<text text-anchor="start" x="534.38" y="-581.5" font-family="Helvetica,sans-Serif" font-size="10.00">get_most_recent_logged</text>
<text text-anchor="middle" x="587.62" y="-569.5" font-family="Helvetica,sans-Serif" font-size="10.00">_error</text>
</a>
</g>
</g>
<!-- Node4&#45;&gt;Node25 -->
<g id="edge16_Node000004_Node000025" class="edge">
<title>Node4&#45;&gt;Node25</title>
<g id="a_edge16_Node000004_Node000025"><a xlink:title=" ">
<path fill="none" stroke="#63b8ff" d="M449.04,-631.58C468.61,-623.9 495.93,-613.21 520,-604 523.86,-602.52 527.85,-601 531.87,-599.48"/>
<polygon fill="#63b8ff" stroke="#63b8ff" points="532.98,-602.8 541.1,-595.99 530.51,-596.25 532.98,-602.8"/>
</a>
</g>
</g>
<!-- Node26 -->
<g id="Node000026" class="node">
<title>Node26</title>
<g id="a_Node000026"><a xlink:href="hb__tlm__log_8c.html#a4cc64d575f6cdeedc77c1439ab316ee5" target="_top" xlink:title=" ">
<polygon fill="#fff0f0" stroke="red" points="632.38,-545 542.88,-545 542.88,-525 632.38,-525 632.38,-545"/>
<text text-anchor="middle" x="587.62" y="-531.5" font-family="Helvetica,sans-Serif" font-size="10.00">hb_tlm_playback</text>
</a>
</g>
</g>
<!-- Node4&#45;&gt;Node26 -->
<g id="edge17_Node000004_Node000026" class="edge">
<title>Node4&#45;&gt;Node26</title>
<g id="a_edge17_Node000004_Node000026"><a xlink:title=" ">
<path fill="none" stroke="#63b8ff" d="M431.15,-631.66C446.84,-613.3 482.14,-575 520,-554 523.8,-551.89 527.85,-550.01 532,-548.31"/>
<polygon fill="#63b8ff" stroke="#63b8ff" points="532.85,-551.73 541.05,-545.02 530.46,-545.15 532.85,-551.73"/>
</a>
</g>
</g>
<!-- Node16 -->
<g id="Node000016" class="node">
<title>Node16</title>
<g id="a_Node000016"><a xlink:href="telemetry_8c.html#a6dbf6c6cfd75451e5642ca0b64bf7f5a" target="_top" xlink:title=" ">
<polygon fill="white" stroke="#666666" points="774,-526 691.25,-526 691.25,-506 774,-506 774,-526"/>
<text text-anchor="middle" x="732.62" y="-512.5" font-family="Helvetica,sans-Serif" font-size="10.00">send_telemetry</text>
</a>
</g>
</g>
<!-- Node4&#45;&gt;Node16 -->
<g id="edge31_Node000004_Node000016" class="edge">
<title>Node4&#45;&gt;Node16</title>
<g id="a_edge31_Node000004_Node000016"><a xlink:title=" ">
<path fill="none" stroke="#63b8ff" d="M426.78,-631.59C437.6,-606.11 469.38,-540.86 520,-516 570.06,-491.42 635.15,-495.99 679.86,-503.78"/>
<polygon fill="#63b8ff" stroke="#63b8ff" points="679.08,-507.2 689.55,-505.59 680.37,-500.32 679.08,-507.2"/>
</a>
</g>
</g>
<!-- Node27 -->
<g id="Node000027" class="node">
<title>Node27</title>
<g id="a_Node000027"><a xlink:href="user__auth_8c.html#ac096e58f2c99b9804fb8a31697d748a1" target="_top" xlink:title=" ">
<polygon fill="white" stroke="#666666" points="615.12,-469 560.12,-469 560.12,-449 615.12,-449 615.12,-469"/>
<text text-anchor="middle" x="587.62" y="-455.5" font-family="Helvetica,sans-Serif" font-size="10.00">is_admin</text>
</a>
</g>
</g>
<!-- Node4&#45;&gt;Node27 -->
<g id="edge19_Node000004_Node000027" class="edge">
<title>Node4&#45;&gt;Node27</title>
<g id="a_edge19_Node000004_Node000027"><a xlink:title=" ">
<path fill="none" stroke="#63b8ff" d="M427.68,-631.89C443.61,-600.39 493.27,-504.77 520,-483 528.4,-476.16 538.91,-471.18 549.09,-467.6"/>
<polygon fill="#63b8ff" stroke="#63b8ff" points="549.93,-471 558.43,-464.69 547.85,-464.32 549.93,-471"/>
</a>
</g>
</g>
<!-- Node28 -->
<g id="Node000028" class="node">
<title>Node28</title>
<g id="a_Node000028"><a xlink:href="filesystem_8c.html#a799eadaaf9ccd6162d5fa3fd15a0c3a1" target="_top" xlink:title=" ">
<polygon fill="white" stroke="#666666" points="632.75,-431 542.5,-431 542.5,-411 632.75,-411 632.75,-431"/>
<text text-anchor="middle" x="587.62" y="-417.5" font-family="Helvetica,sans-Serif" font-size="10.00">make_filesystem</text>
</a>
</g>
</g>
<!-- Node4&#45;&gt;Node28 -->
<g id="edge22_Node000004_Node000028" class="edge">
<title>Node4&#45;&gt;Node28</title>
<g id="a_edge22_Node000004_Node000028"><a xlink:title=" ">
<path fill="none" stroke="#63b8ff" d="M428.28,-631.61C439.4,-611.08 464.68,-563.75 484,-523 501.23,-486.67 489.76,-466.5 520,-440 523.56,-436.88 527.6,-434.27 531.89,-432.08"/>
<polygon fill="#63b8ff" stroke="#63b8ff" points="532.99,-435.42 540.85,-428.31 530.28,-428.97 532.99,-435.42"/>
</a>
</g>
</g>
<!-- Node29 -->
<g id="Node000029" class="node">
<title>Node29</title>
<g id="a_Node000029"><a xlink:href="steve_8c.html#af6d8fc617602d5007ade6ab61734ee9d" target="_top" xlink:title=" ">
<polygon fill="#fff0f0" stroke="red" points="648.5,-191 526.75,-191 526.75,-171 648.5,-171 648.5,-191"/>
<text text-anchor="middle" x="587.62" y="-177.5" font-family="Helvetica,sans-Serif" font-size="10.00">print_debug_exec_times</text>
</a>
</g>
</g>
<!-- Node4&#45;&gt;Node29 -->
<g id="edge23_Node000004_Node000029" class="edge">
<title>Node4&#45;&gt;Node29</title>
<g id="a_edge23_Node000004_Node000029"><a xlink:title=" ">
<path fill="none" stroke="#63b8ff" d="M429.53,-631.71C442.57,-611.73 470.7,-565.85 484,-523 521.84,-401.06 459.42,-350.39 520,-238 528.92,-221.45 544.74,-207.6 558.73,-197.7"/>
<polygon fill="#63b8ff" stroke="#63b8ff" points="560.38,-200.8 566.75,-192.34 556.49,-194.99 560.38,-200.8"/>
</a>
</g>
</g>
<!-- Node33 -->
<g id="Node000033" class="node">
<title>Node33</title>
<g id="a_Node000033"><a xlink:href="radio_8cpp.html#aededabcbfc8060b1d374369c6b67df4b" target="_top" xlink:title=" ">
<polygon fill="white" stroke="#666666" points="655.25,-393 520,-393 520,-373 655.25,-373 655.25,-393"/>
<text text-anchor="middle" x="587.62" y="-379.5" font-family="Helvetica,sans-Serif" font-size="10.00">radio_queue_stat_response</text>
</a>
</g>
</g>
<!-- Node4&#45;&gt;Node33 -->
<g id="edge25_Node000004_Node000033" class="edge">
<title>Node4&#45;&gt;Node33</title>
<g id="a_edge25_Node000004_Node000033"><a xlink:title=" ">
<path fill="none" stroke="#63b8ff" d="M428.72,-631.8C440.6,-611.6 467.16,-564.83 484,-523 504.95,-470.95 480.1,-441.45 520,-402 520.88,-401.13 521.79,-400.31 522.74,-399.51"/>
<polygon fill="#63b8ff" stroke="#63b8ff" points="524.35,-402.65 530.74,-394.2 520.47,-396.82 524.35,-402.65"/>
</a>
</g>
</g>
<!-- Node34 -->
<g id="Node000034" class="node">
<title>Node34</title>
<g id="a_Node000034"><a xlink:href="radio_8cpp.html#ab4fc5d140cd46c3db7b311a67d236deb" target="_top" xlink:title=" ">
<polygon fill="white" stroke="#666666" points="633.88,-355 541.38,-355 541.38,-335 633.88,-335 633.88,-355"/>
<text text-anchor="middle" x="587.62" y="-341.5" font-family="Helvetica,sans-Serif" font-size="10.00">radio_set_module</text>
</a>
</g>
</g>
<!-- Node4&#45;&gt;Node34 -->
<g id="edge26_Node000004_Node000034" class="edge">
<title>Node4&#45;&gt;Node34</title>
<g id="a_edge26_Node000004_Node000034"><a xlink:title=" ">
<path fill="none" stroke="#63b8ff" d="M429.16,-631.59C441.56,-611.38 468.64,-565.15 484,-523 508.81,-454.92 470.2,-416.63 520,-364 523.12,-360.7 526.77,-357.97 530.72,-355.69"/>
<polygon fill="#63b8ff" stroke="#63b8ff" points="532.04,-358.94 539.67,-351.59 529.12,-352.58 532.04,-358.94"/>
</a>
</g>
</g>
<!-- Node35 -->
<g id="Node000035" class="node">
<title>Node35</title>
<g id="a_Node000035"><a xlink:href="radio_8cpp.html#a610ddc33ff0f6388cea252fb357dc990" target="_top" xlink:title=" ">
<polygon fill="white" stroke="#666666" points="635.75,-317 539.5,-317 539.5,-285 635.75,-285 635.75,-317"/>
<text text-anchor="start" x="547.5" y="-303.5" font-family="Helvetica,sans-Serif" font-size="10.00">radio_set_transmit</text>
<text text-anchor="middle" x="587.62" y="-291.5" font-family="Helvetica,sans-Serif" font-size="10.00">_power</text>
</a>
</g>
</g>
<!-- Node4&#45;&gt;Node35 -->
<g id="edge27_Node000004_Node000035" class="edge">
<title>Node4&#45;&gt;Node35</title>
<g id="a_edge27_Node000004_Node000035"><a xlink:title=" ">
<path fill="none" stroke="#63b8ff" d="M429.32,-631.64C441.99,-611.54 469.53,-565.47 484,-523 512.71,-438.75 462.91,-394.29 520,-326 522.74,-322.73 525.95,-319.88 529.45,-317.41"/>
<polygon fill="#63b8ff" stroke="#63b8ff" points="531.1,-320.5 538,-312.45 527.59,-314.44 531.1,-320.5"/>
</a>
</g>
</g>
<!-- Node36 -->
<g id="Node000036" class="node">
<title>Node36</title>
<g id="a_Node000036"><a xlink:href="steve_8c.html#acc0bfad0acf234b4903c832955b29767" target="_top" xlink:title=" ">
<polygon fill="#fff0f0" stroke="red" points="653,-267 522.25,-267 522.25,-247 653,-247 653,-267"/>
<text text-anchor="middle" x="587.62" y="-253.5" font-family="Helvetica,sans-Serif" font-size="10.00">schedule_delayed_job_ms</text>
</a>
</g>
</g>
<!-- Node4&#45;&gt;Node36 -->
<g id="edge28_Node000004_Node000036" class="edge">
<title>Node4&#45;&gt;Node36</title>
<g id="a_edge28_Node000004_Node000036"><a xlink:title=" ">
<path fill="none" stroke="#63b8ff" d="M429.46,-631.69C442.37,-611.66 470.29,-565.72 484,-523 517.89,-417.37 446.94,-359.49 520,-276 520.47,-275.46 520.95,-274.94 521.45,-274.43"/>
<polygon fill="#63b8ff" stroke="#63b8ff" points="523.57,-277.22 529.32,-268.31 519.28,-271.69 523.57,-277.22"/>
</a>
</g>
</g>
<!-- Node38 -->
<g id="Node000038" class="node">
<title>Node38</title>
<g id="a_Node000038"><a xlink:href="set__rtc__job_8c.html#af31d3e6e7b984cd9aca01db95eac999a" target="_top" xlink:title=" ">
<polygon fill="#fff0f0" stroke="red" points="619.62,-1051 555.62,-1051 555.62,-1031 619.62,-1031 619.62,-1051"/>
<text text-anchor="middle" x="587.62" y="-1037.5" font-family="Helvetica,sans-Serif" font-size="10.00">set_rtc_job</text>
</a>
</g>
</g>
<!-- Node4&#45;&gt;Node38 -->
<g id="edge32_Node000004_Node000038" class="edge">
<title>Node4&#45;&gt;Node38</title>
<g id="a_edge32_Node000004_Node000038"><a xlink:title=" ">
<path fill="none" stroke="#63b8ff" d="M424.01,-652.44C431.46,-707.15 468.32,-960.35 520,-1017 526.55,-1024.18 535.41,-1029.22 544.53,-1032.74"/>
<polygon fill="#63b8ff" stroke="#63b8ff" points="543.19,-1035.99 553.79,-1035.77 545.37,-1029.34 543.19,-1035.99"/>
</a>
</g>
</g>
<!-- Node41 -->
<g id="Node000041" class="node">
<title>Node41</title>
<g id="a_Node000041"><a xlink:href="filesystem_8c.html#a1038e83eda006a16d81aba0bda5c3334" target="_top" xlink:title=" ">
<polygon fill="white" stroke="#666666" points="752.62,-937 712.62,-937 712.62,-917 752.62,-917 752.62,-937"/>
<text text-anchor="middle" x="732.62" y="-923.5" font-family="Helvetica,sans-Serif" font-size="10.00">touch</text>
</a>
</g>
</g>
<!-- Node4&#45;&gt;Node41 -->
<g id="edge33_Node000004_Node000041" class="edge">
<title>Node4&#45;&gt;Node41</title>
<g id="a_edge33_Node000004_Node000041"><a xlink:title=" ">
<path fill="none" stroke="#63b8ff" d="M424.04,-652.46C429.38,-687.94 451.68,-804.83 520,-865 533.79,-877.14 645.84,-905.92 701.07,-919.57"/>
<polygon fill="#63b8ff" stroke="#63b8ff" points="700.24,-922.97 710.78,-921.96 701.91,-916.17 700.24,-922.97"/>
</a>
</g>
</g>
<!-- Node42 -->
<g id="Node000042" class="node">
<title>Node42</title>
<g id="a_Node000042"><a xlink:href="user__auth_8c.html#acb5e4e390f704ceea798b215f70692d6" target="_top" xlink:title=" ">
<polygon fill="#fff0f0" stroke="red" points="633.88,-975 541.38,-975 541.38,-955 633.88,-955 633.88,-975"/>
<text text-anchor="middle" x="587.62" y="-961.5" font-family="Helvetica,sans-Serif" font-size="10.00">upload_user_data</text>
</a>
</g>
</g>
<!-- Node4&#45;&gt;Node42 -->
<g id="edge35_Node000004_Node000042" class="edge">
<title>Node4&#45;&gt;Node42</title>
<g id="a_edge35_Node000004_Node000042"><a xlink:title=" ">
<path fill="none" stroke="#63b8ff" d="M422.65,-652.42C423.33,-695.4 431.81,-860.61 520,-946 523.21,-949.11 526.9,-951.72 530.85,-953.91"/>
<polygon fill="#63b8ff" stroke="#63b8ff" points="529.17,-956.99 539.73,-957.89 532.04,-950.6 529.17,-956.99"/>
</a>
</g>
</g>
<!-- Node46 -->
<g id="Node000046" class="node">
<title>Node46</title>
<g id="a_Node000046"><a xlink:href="watchdog_8c.html#acebf79aaf42978286eec0c3e016d7b0a" target="_top" xlink:title=" ">
<polygon fill="white" stroke="#666666" points="632.75,-937 542.5,-937 542.5,-917 632.75,-917 632.75,-937"/>
<text text-anchor="middle" x="587.62" y="-923.5" font-family="Helvetica,sans-Serif" font-size="10.00">watchdog_freeze</text>
</a>
</g>
</g>
<!-- Node4&#45;&gt;Node46 -->
<g id="edge38_Node000004_Node000046" class="edge">
<title>Node4&#45;&gt;Node46</title>
<g id="a_edge38_Node000004_Node000046"><a xlink:title=" ">
<path fill="none" stroke="#63b8ff" d="M423.44,-652.38C427.05,-691.1 444.85,-828.7 520,-903 523.59,-906.55 527.74,-909.58 532.18,-912.16"/>
<polygon fill="#63b8ff" stroke="#63b8ff" points="530.38,-915.17 540.9,-916.46 533.48,-908.9 530.38,-915.17"/>
</a>
</g>
</g>
<!-- Node5&#45;&gt;Node12 -->
<g id="edge5_Node000005_Node000012" class="edge">
<title>Node5&#45;&gt;Node12</title>
<g id="a_edge5_Node000005_Node000012"><a xlink:title=" ">
<path fill="none" stroke="#63b8ff" d="M615.9,-1072.44C628.11,-1069.19 642.58,-1064.91 655.25,-1060 671.54,-1053.69 689.03,-1045.13 703.15,-1037.73"/>
<polygon fill="#63b8ff" stroke="#63b8ff" points="704.72,-1040.86 711.89,-1033.07 701.42,-1034.69 704.72,-1040.86"/>
</a>
</g>
</g>
<!-- Node5&#45;&gt;Node13 -->
<g id="edge6_Node000005_Node000013" class="edge">
<title>Node5&#45;&gt;Node13</title>
<g id="a_edge6_Node000005_Node000013"><a xlink:title=" ">
<path fill="none" stroke="#63b8ff" d="M615.96,-1079.71C654.48,-1079.39 725.45,-1073.9 774,-1041 800.88,-1022.79 819.01,-988.77 828.55,-966.77"/>
<polygon fill="#63b8ff" stroke="#63b8ff" points="831.74,-968.22 832.28,-957.64 825.26,-965.57 831.74,-968.22"/>
</a>
</g>
</g>
<!-- Node19&#45;&gt;Node18 -->
<g id="edge10_Node000019_Node000018" class="edge">
<title>Node19&#45;&gt;Node18</title>
<g id="a_edge10_Node000019_Node000018"><a xlink:title=" ">
<path fill="none" stroke="#63b8ff" d="M620.99,-745.63C631.93,-748.71 644.18,-752.33 655.25,-756 668.37,-760.35 682.57,-765.59 695.12,-770.42"/>
<polygon fill="#63b8ff" stroke="#63b8ff" points="693.67,-773.6 704.25,-773.97 696.2,-767.08 693.67,-773.6"/>
</a>
</g>
</g>
<!-- Node19&#45;&gt;Node21 -->
<g id="edge11_Node000019_Node000021" class="edge">
<title>Node19&#45;&gt;Node21</title>
<g id="a_edge11_Node000019_Node000021"><a xlink:title=" ">
<path fill="none" stroke="#63b8ff" d="M621.07,-732.69C644.23,-729.61 675.27,-725.49 698.56,-722.39"/>
<polygon fill="#63b8ff" stroke="#63b8ff" points="699.01,-725.86 708.46,-721.08 698.08,-718.93 699.01,-725.86"/>
</a>
</g>
</g>
<!-- Node22&#45;&gt;Node23 -->
<g id="edge13_Node000022_Node000023" class="edge">
<title>Node22&#45;&gt;Node23</title>
<g id="a_edge13_Node000022_Node000023"><a xlink:title=" ">
<path fill="none" stroke="#63b8ff" d="M653.01,-631.56C662.6,-632.83 672.37,-634.13 681.6,-635.35"/>
<polygon fill="#63b8ff" stroke="#63b8ff" points="681.09,-638.82 691.47,-636.66 682.02,-631.88 681.09,-638.82"/>
</a>
</g>
</g>
<!-- Node24 -->
<g id="Node000024" class="node">
<title>Node24</title>
<g id="a_Node000024"><a xlink:href="timing_8c.html#aca6ceb66dd9a31e6376e1bc478dec3d6" target="_top" xlink:title=" ">
<polygon fill="white" stroke="#666666" points="767.25,-267 698,-267 698,-247 767.25,-247 767.25,-267"/>
<text text-anchor="middle" x="732.62" y="-253.5" font-family="Helvetica,sans-Serif" font-size="10.00">ms_to_ticks</text>
</a>
</g>
</g>
<!-- Node22&#45;&gt;Node24 -->
<g id="edge14_Node000022_Node000024" class="edge">
<title>Node22&#45;&gt;Node24</title>
<g id="a_edge14_Node000022_Node000024"><a xlink:title=" ">
<path fill="none" stroke="#63b8ff" d="M644.15,-612.55C648.25,-610.23 652.04,-607.42 655.25,-604 678.03,-579.79 716.6,-350.33 728.21,-278.43"/>
<polygon fill="#63b8ff" stroke="#63b8ff" points="731.64,-279.19 729.77,-268.76 724.73,-278.08 731.64,-279.19"/>
</a>
</g>
</g>
<!-- Node26&#45;&gt;Node16 -->
<g id="edge18_Node000026_Node000016" class="edge">
<title>Node26&#45;&gt;Node16</title>
<g id="a_edge18_Node000026_Node000016"><a xlink:title=" ">
<path fill="none" stroke="#63b8ff" d="M632.7,-529.14C647.62,-527.16 664.42,-524.93 679.89,-522.87"/>
<polygon fill="#63b8ff" stroke="#63b8ff" points="679.91,-526.4 689.37,-521.61 678.99,-519.46 679.91,-526.4"/>
</a>
</g>
</g>
<!-- Node30 -->
<g id="Node000030" class="node">
<title>Node30</title>
<g id="a_Node000030"><a xlink:href="timing_8c.html#a7cef17ffb0e9db503a077191e1a4b013" target="_top" xlink:title=" ">
<polygon fill="white" stroke="#666666" points="764.62,-134 700.62,-134 700.62,-114 764.62,-114 764.62,-134"/>
<text text-anchor="middle" x="732.62" y="-120.5" font-family="Helvetica,sans-Serif" font-size="10.00">get_uptime</text>
</a>
</g>
</g>
<!-- Node29&#45;&gt;Node30 -->
<g id="edge24_Node000029_Node000030" class="edge">
<title>Node29&#45;&gt;Node30</title>
<g id="a_edge24_Node000029_Node000030"><a xlink:title=" ">
<path fill="none" stroke="#63b8ff" d="M629.89,-170.51C638.37,-168 647.18,-165.13 655.25,-162 671.54,-155.69 689.03,-147.13 703.15,-139.73"/>
<polygon fill="#63b8ff" stroke="#63b8ff" points="704.72,-142.86 711.89,-135.07 701.42,-136.69 704.72,-142.86"/>
</a>
</g>
</g>
<!-- Node36&#45;&gt;Node24 -->
<g id="edge30_Node000036_Node000024" class="edge">
<title>Node36&#45;&gt;Node24</title>
<g id="a_edge30_Node000036_Node000024"><a xlink:title=" ">
<path fill="none" stroke="#63b8ff" d="M653.43,-257C664.49,-257 675.77,-257 686.19,-257"/>
<polygon fill="#63b8ff" stroke="#63b8ff" points="686.02,-260.5 696.02,-257 686.02,-253.5 686.02,-260.5"/>
</a>
</g>
</g>
<!-- Node36&#45;&gt;Node30 -->
<g id="edge29_Node000036_Node000030" class="edge">
<title>Node36&#45;&gt;Node30</title>
<g id="a_edge29_Node000036_Node000030"><a xlink:title=" ">
<path fill="none" stroke="#63b8ff" d="M601.4,-246.56C614.99,-235.33 637.02,-216.83 655.25,-200 676.13,-180.73 699.11,-157.58 714.36,-141.93"/>
<polygon fill="#63b8ff" stroke="#63b8ff" points="716.47,-144.78 720.92,-135.17 711.44,-139.91 716.47,-144.78"/>
</a>
</g>
</g>
<!-- Node41&#45;&gt;Node13 -->
<g id="edge34_Node000041_Node000013" class="edge">
<title>Node41&#45;&gt;Node13</title>
<g id="a_edge34_Node000041_Node000013"><a xlink:title=" ">
<path fill="none" stroke="#63b8ff" d="M752.98,-930.57C765.9,-932.96 783.33,-936.18 798.92,-939.06"/>
<polygon fill="#63b8ff" stroke="#63b8ff" points="797.9,-942.43 808.37,-940.81 799.17,-935.55 797.9,-942.43"/>
</a>
</g>
</g>
<!-- Node42&#45;&gt;Node13 -->
<g id="edge37_Node000042_Node000013" class="edge">
<title>Node42&#45;&gt;Node13</title>
<g id="a_edge37_Node000042_Node000013"><a xlink:title=" ">
<path fill="none" stroke="#63b8ff" d="M634.09,-961.52C681.2,-957.9 754.02,-952.32 798.27,-948.93"/>
<polygon fill="#63b8ff" stroke="#63b8ff" points="798.47,-952.43 808.17,-948.17 797.93,-945.45 798.47,-952.43"/>
</a>
</g>
</g>
<!-- Node42&#45;&gt;Node41 -->
<g id="edge36_Node000042_Node000041" class="edge">
<title>Node42&#45;&gt;Node41</title>
<g id="a_edge36_Node000042_Node000041"><a xlink:title=" ">
<path fill="none" stroke="#63b8ff" d="M628.08,-954.52C651.24,-948.36 680.05,-940.71 701.4,-935.03"/>
<polygon fill="#63b8ff" stroke="#63b8ff" points="702.18,-938.45 710.94,-932.5 700.38,-931.68 702.18,-938.45"/>
</a>
</g>
</g>
<!-- Node48 -->
<g id="Node000048" class="node">
<title>Node48</title>
<g id="a_Node000048"><a xlink:href="filesystem_8c.html#a65a8bfbf26326e7b6dfd677f9b4ad626" target="_top" xlink:title=" ">
<polygon fill="white" stroke="#666666" points="446.88,-286 396.38,-286 396.38,-266 446.88,-266 446.88,-286"/>
<text text-anchor="middle" x="421.62" y="-272.5" font-family="Helvetica,sans-Serif" font-size="10.00">_fdelete</text>
</a>
</g>
</g>
<!-- Node47&#45;&gt;Node48 -->
<g id="edge41_Node000047_Node000048" class="edge">
<title>Node47&#45;&gt;Node48</title>
<g id="a_edge41_Node000047_Node000048"><a xlink:title=" ">
<path fill="none" stroke="#63b8ff" d="M300.8,-322.62C316.26,-314.45 338.78,-303.13 359.25,-295 367.54,-291.71 376.64,-288.62 385.23,-285.93"/>
<polygon fill="#63b8ff" stroke="#63b8ff" points="386.12,-289.31 394.68,-283.07 384.09,-282.61 386.12,-289.31"/>
</a>
</g>
</g>
<!-- Node49 -->
<g id="Node000049" class="node">
<title>Node49</title>
<g id="a_Node000049"><a xlink:href="filesystem_8c.html#a1dbe64362d5ac8a72c84181d6ec09bd0" target="_top" xlink:title=" ">
<polygon fill="white" stroke="#666666" points="449.5,-248 393.75,-248 393.75,-228 449.5,-228 449.5,-248"/>
<text text-anchor="middle" x="421.62" y="-234.5" font-family="Helvetica,sans-Serif" font-size="10.00">_fdiropen</text>
</a>
</g>
</g>
<!-- Node47&#45;&gt;Node49 -->
<g id="edge42_Node000047_Node000049" class="edge">
<title>Node47&#45;&gt;Node49</title>
<g id="a_edge42_Node000047_Node000049"><a xlink:title=" ">
<path fill="none" stroke="#63b8ff" d="M289.63,-322.56C302.46,-306.25 329.47,-274.77 359.25,-257 366.43,-252.72 374.66,-249.31 382.72,-246.64"/>
<polygon fill="#63b8ff" stroke="#63b8ff" points="383.45,-250.08 392.03,-243.87 381.45,-243.37 383.45,-250.08"/>
</a>
</g>
</g>
<!-- Node50 -->
<g id="Node000050" class="node">
<title>Node50</title>
<g id="a_Node000050"><a xlink:href="filesystem_8c.html#a6256d8a7a46cd729effd6739faded687" target="_top" xlink:title=" ">
<polygon fill="white" stroke="#666666" points="448.38,-210 394.88,-210 394.88,-190 448.38,-190 448.38,-210"/>
<text text-anchor="middle" x="421.62" y="-196.5" font-family="Helvetica,sans-Serif" font-size="10.00">_fdirread</text>
</a>
</g>
</g>
<!-- Node47&#45;&gt;Node50 -->
<g id="edge43_Node000047_Node000050" class="edge">
<title>Node47&#45;&gt;Node50</title>
<g id="a_edge43_Node000047_Node000050"><a xlink:title=" ">
<path fill="none" stroke="#63b8ff" d="M285.87,-322.77C295.37,-300.5 320.96,-247.33 359.25,-219 366.42,-213.7 375.1,-209.85 383.64,-207.07"/>
<polygon fill="#63b8ff" stroke="#63b8ff" points="384.51,-210.46 393.21,-204.41 382.63,-203.72 384.51,-210.46"/>
</a>
</g>
</g>
<!-- Node51 -->
<g id="Node000051" class="node">
<title>Node51</title>
<g id="a_Node000051"><a xlink:href="filesystem_8c.html#a242db63f134c45189c12dc9e46c6b90d" target="_top" xlink:title=" ">
<polygon fill="white" stroke="#666666" points="440.12,-514 403.12,-514 403.12,-494 440.12,-494 440.12,-514"/>
<text text-anchor="middle" x="421.62" y="-500.5" font-family="Helvetica,sans-Serif" font-size="10.00">_flist</text>
</a>
</g>
</g>
<!-- Node47&#45;&gt;Node51 -->
<g id="edge44_Node000047_Node000051" class="edge">
<title>Node47&#45;&gt;Node51</title>
<g id="a_edge44_Node000047_Node000051"><a xlink:title=" ">
<path fill="none" stroke="#63b8ff" d="M284.03,-343.23C290.62,-370.5 312.34,-445.51 359.25,-485 368.37,-492.68 380.57,-497.26 391.69,-499.99"/>
<polygon fill="#63b8ff" stroke="#63b8ff" points="390.74,-503.36 401.23,-501.91 392.12,-496.5 390.74,-503.36"/>
</a>
</g>
</g>
<!-- Node52 -->
<g id="Node000052" class="node">
<title>Node52</title>
<g id="a_Node000052"><a xlink:href="filesystem_8c.html#a0332aeda2c19ddb31aa4307d37007f98" target="_top" xlink:title=" ">
<polygon fill="white" stroke="#666666" points="445.75,-476 397.5,-476 397.5,-456 445.75,-456 445.75,-476"/>
<text text-anchor="middle" x="421.62" y="-462.5" font-family="Helvetica,sans-Serif" font-size="10.00">_fmkdir</text>
</a>
</g>
</g>
<!-- Node47&#45;&gt;Node52 -->
<g id="edge45_Node000047_Node000052" class="edge">
<title>Node47&#45;&gt;Node52</title>
<g id="a_edge45_Node000047_Node000052"><a xlink:title=" ">
<path fill="none" stroke="#63b8ff" d="M285.87,-343.23C295.37,-365.5 320.96,-418.67 359.25,-447 367.09,-452.8 376.74,-456.86 386.04,-459.68"/>
<polygon fill="#63b8ff" stroke="#63b8ff" points="385.05,-463.04 395.61,-462.17 386.81,-456.26 385.05,-463.04"/>
</a>
</g>
</g>
<!-- Node53 -->
<g id="Node000053" class="node">
<title>Node53</title>
<g id="a_Node000053"><a xlink:href="filesystem_8c.html#ab4f728372ea55ba4c14531514e913814" target="_top" xlink:title=" ">
<polygon fill="white" stroke="#666666" points="443.12,-438 400.12,-438 400.12,-418 443.12,-418 443.12,-438"/>
<text text-anchor="middle" x="421.62" y="-424.5" font-family="Helvetica,sans-Serif" font-size="10.00">_fread</text>
</a>
</g>
</g>
<!-- Node47&#45;&gt;Node53 -->
<g id="edge46_Node000047_Node000053" class="edge">
<title>Node47&#45;&gt;Node53</title>
<g id="a_edge46_Node000047_Node000053"><a xlink:title=" ">
<path fill="none" stroke="#63b8ff" d="M289.63,-343.44C302.46,-359.75 329.47,-391.23 359.25,-409 368.2,-414.34 378.79,-418.31 388.64,-421.21"/>
<polygon fill="#63b8ff" stroke="#63b8ff" points="387.68,-424.57 398.24,-423.74 389.46,-417.8 387.68,-424.57"/>
</a>
</g>
</g>
<!-- Node54 -->
<g id="Node000054" class="node">
<title>Node54</title>
<g id="a_Node000054"><a xlink:href="filesystem_8c.html#a84409cd08ad5f1532a9908bcb106ffd9" target="_top" xlink:title=" ">
<polygon fill="white" stroke="#666666" points="442,-400 401.25,-400 401.25,-380 442,-380 442,-400"/>
<text text-anchor="middle" x="421.62" y="-386.5" font-family="Helvetica,sans-Serif" font-size="10.00">_fstat</text>
</a>
</g>
</g>
<!-- Node47&#45;&gt;Node54 -->
<g id="edge47_Node000047_Node000054" class="edge">
<title>Node47&#45;&gt;Node54</title>
<g id="a_edge47_Node000047_Node000054"><a xlink:title=" ">
<path fill="none" stroke="#63b8ff" d="M300.8,-343.38C316.26,-351.55 338.78,-362.87 359.25,-371 369.09,-374.91 380.06,-378.53 389.98,-381.54"/>
<polygon fill="#63b8ff" stroke="#63b8ff" points="388.97,-384.89 399.55,-384.34 390.94,-378.17 388.97,-384.89"/>
</a>
</g>
</g>
<!-- Node55 -->
<g id="Node000055" class="node">
<title>Node55</title>
<g id="a_Node000055"><a xlink:href="filesystem_8c.html#a20490ef1d54401f12085f7a9bfbb2c13" target="_top" xlink:title=" ">
<polygon fill="white" stroke="#666666" points="444.25,-362 399,-362 399,-342 444.25,-342 444.25,-362"/>
<text text-anchor="middle" x="421.62" y="-348.5" font-family="Helvetica,sans-Serif" font-size="10.00">_fwrite</text>
</a>
</g>
</g>
<!-- Node47&#45;&gt;Node55 -->
<g id="edge48_Node000047_Node000055" class="edge">
<title>Node47&#45;&gt;Node55</title>
<g id="a_edge48_Node000047_Node000055"><a xlink:title=" ">
<path fill="none" stroke="#63b8ff" d="M323.42,-338.7C343.93,-341.51 368.31,-344.84 387.52,-347.47"/>
<polygon fill="#63b8ff" stroke="#63b8ff" points="386.86,-350.91 397.24,-348.8 387.8,-343.98 386.86,-350.91"/>
</a>
</g>
</g>
<!-- Node56 -->
<g id="Node000056" class="node">
<title>Node56</title>
<g id="a_Node000056"><a xlink:href="filesystem_8c.html#a7ea79e37cd85f3400dd530c48032329e" target="_top" xlink:title=" ">
<polygon fill="white" stroke="#666666" points="443.12,-324 400.12,-324 400.12,-304 443.12,-304 443.12,-324"/>
<text text-anchor="middle" x="421.62" y="-310.5" font-family="Helvetica,sans-Serif" font-size="10.00">_mkfs</text>
</a>
</g>
</g>
<!-- Node47&#45;&gt;Node56 -->
<g id="edge49_Node000047_Node000056" class="edge">
<title>Node47&#45;&gt;Node56</title>
<g id="a_edge49_Node000047_Node000056"><a xlink:title=" ">
<path fill="none" stroke="#63b8ff" d="M323.42,-327.3C344.32,-324.44 369.25,-321.03 388.63,-318.38"/>
<polygon fill="#63b8ff" stroke="#63b8ff" points="388.96,-321.86 398.4,-317.04 388.01,-314.93 388.96,-321.86"/>
</a>
</g>
</g>
<!-- Node58 -->
<g id="Node000058" class="node">
<title>Node58</title>
<g id="a_Node000058"><a xlink:href="command_8c.html#ac090b79f5dfeeaa73978dc9df75fe1a0" target="_top" xlink:title=" ">
<polygon fill="#fff0f0" stroke="red" points="484,-172 359.25,-172 359.25,-152 484,-152 484,-172"/>
<text text-anchor="middle" x="421.62" y="-158.5" font-family="Helvetica,sans-Serif" font-size="10.00">receive_command_bytes</text>
</a>
</g>
</g>
<!-- Node57&#45;&gt;Node58 -->
<g id="edge51_Node000057_Node000058" class="edge">
<title>Node57&#45;&gt;Node58</title>
<g id="a_edge51_Node000057_Node000058"><a xlink:title=" ">
<path fill="none" stroke="#63b8ff" d="M314.66,-162C324.59,-162 335.91,-162 347.36,-162"/>
<polygon fill="#63b8ff" stroke="#63b8ff" points="347.31,-165.5 357.31,-162 347.31,-158.5 347.31,-165.5"/>
</a>
</g>
</g>
<!-- Node60&#45;&gt;Node24 -->
<g id="edge56_Node000060_Node000024" class="edge">
<title>Node60&#45;&gt;Node24</title>
<g id="a_edge56_Node000060_Node000024"><a xlink:title=" ">
<path fill="none" stroke="#63b8ff" d="M453.99,-129.18C464.3,-132.01 475.32,-136.35 484,-143 507.78,-161.22 495.88,-182.22 520,-200 526.82,-205.02 626.49,-230.63 686.58,-245.76"/>
<polygon fill="#63b8ff" stroke="#63b8ff" points="685.65,-249.13 696.2,-248.17 687.36,-242.34 685.65,-249.13"/>
</a>
</g>
</g>
<!-- Node60&#45;&gt;Node30 -->
<g id="edge54_Node000060_Node000030" class="edge">
<title>Node60&#45;&gt;Node30</title>
<g id="a_edge54_Node000060_Node000030"><a xlink:title=" ">
<path fill="none" stroke="#63b8ff" d="M453.93,-115.53C463.7,-112.57 474.42,-108.97 484,-105 500.71,-98.07 502.44,-90.35 520,-86 578.35,-71.55 596.73,-72.25 655.25,-86 673.35,-90.25 692.06,-99.47 706.44,-107.76"/>
<polygon fill="#63b8ff" stroke="#63b8ff" points="704.39,-110.62 714.77,-112.77 708,-104.62 704.39,-110.62"/>
</a>
</g>
</g>
<!-- Node61 -->
<g id="Node000061" class="node">
<title>Node61</title>
<g id="a_Node000061"><a xlink:href="i2c_8c.html#a5d09de7ed47b30c0948eb1f363cb836c" target="_top" xlink:title=" ">
<polygon fill="white" stroke="#666666" points="620.38,-153 554.88,-153 554.88,-133 620.38,-133 620.38,-153"/>
<text text-anchor="middle" x="587.62" y="-139.5" font-family="Helvetica,sans-Serif" font-size="10.00">config_i2c1</text>
</a>
</g>
</g>
<!-- Node60&#45;&gt;Node61 -->
<g id="edge53_Node000060_Node000061" class="edge">
<title>Node60&#45;&gt;Node61</title>
<g id="a_edge53_Node000060_Node000061"><a xlink:title=" ">
<path fill="none" stroke="#63b8ff" d="M453.86,-127.62C479.18,-130.55 515.15,-134.72 543.26,-137.98"/>
<polygon fill="#63b8ff" stroke="#63b8ff" points="542.55,-141.42 552.88,-139.09 543.35,-134.46 542.55,-141.42"/>
</a>
</g>
</g>
<!-- Node62 -->
<g id="Node000062" class="node">
<title>Node62</title>
<g id="a_Node000062"><a xlink:href="steve_8c.html#a7eb0cd293c468c08d67c90a8ace5448c" target="_top" xlink:title=" ">
<polygon fill="#fff0f0" stroke="red" points="627.88,-115 547.38,-115 547.38,-95 627.88,-95 627.88,-115"/>
<text text-anchor="middle" x="587.62" y="-101.5" font-family="Helvetica,sans-Serif" font-size="10.00">initialize_steve</text>
</a>
</g>
</g>
<!-- Node60&#45;&gt;Node62 -->
<g id="edge55_Node000060_Node000062" class="edge">
<title>Node60&#45;&gt;Node62</title>
<g id="a_edge55_Node000060_Node000062"><a xlink:title=" ">
<path fill="none" stroke="#63b8ff" d="M453.86,-120.38C477.03,-117.7 509.13,-113.98 535.96,-110.87"/>
<polygon fill="#63b8ff" stroke="#63b8ff" points="536.06,-114.38 545.59,-109.75 535.25,-107.43 536.06,-114.38"/>
</a>
</g>
</g>
<!-- Node92 -->
<g id="Node000092" class="node">
<title>Node92</title>
<g id="a_Node000092"><a xlink:href="steve_8c.html#a42627e02f5c86446dbe0cbbae5f87fe6" target="_top" xlink:title=" ">
<polygon fill="#fff0f0" stroke="red" points="626,-39 549.25,-39 549.25,-19 626,-19 626,-39"/>
<text text-anchor="middle" x="587.62" y="-25.5" font-family="Helvetica,sans-Serif" font-size="10.00">run_steve_job</text>
</a>
</g>
</g>
<!-- Node60&#45;&gt;Node92 -->
<g id="edge57_Node000060_Node000092" class="edge">
<title>Node60&#45;&gt;Node92</title>
<g id="a_edge57_Node000060_Node000092"><a xlink:title=" ">
<path fill="none" stroke="#63b8ff" d="M453.83,-118.61C464.12,-115.76 475.18,-111.46 484,-105 506.67,-88.38 497.72,-70.13 520,-53 525.56,-48.72 531.96,-45.16 538.54,-42.2"/>
<polygon fill="#63b8ff" stroke="#63b8ff" points="539.55,-45.57 547.53,-38.61 536.95,-39.07 539.55,-45.57"/>
</a>
</g>
</g>
<!-- Node92&#45;&gt;Node30 -->
<g id="edge58_Node000092_Node000030" class="edge">
<title>Node92&#45;&gt;Node30</title>
<g id="a_edge58_Node000092_Node000030"><a xlink:title=" ">
<path fill="none" stroke="#63b8ff" d="M625.8,-39.41C635.74,-42.98 646.22,-47.5 655.25,-53 678.64,-67.26 701.06,-89.46 715.49,-105.24"/>
<polygon fill="#63b8ff" stroke="#63b8ff" points="712.73,-107.41 722,-112.55 717.96,-102.75 712.73,-107.41"/>
</a>
</g>
</g>
<!-- Node96 -->
<g id="Node000096" class="node">
<title>Node96</title>
<g id="a_Node000096"><a xlink:href="gse_8c.html#a07a7ef3b41255450f286364cc3668e54" target="_top" xlink:title=" ">
<polygon fill="#fff0f0" stroke="red" points="475.75,-96 367.5,-96 367.5,-76 475.75,-76 475.75,-96"/>
<text text-anchor="middle" x="421.62" y="-82.5" font-family="Helvetica,sans-Serif" font-size="10.00">gse_queue_message</text>
</a>
</g>
</g>
<!-- Node95&#45;&gt;Node96 -->
<g id="edge60_Node000095_Node000096" class="edge">
<title>Node95&#45;&gt;Node96</title>
<g id="a_edge60_Node000095_Node000096"><a xlink:title=" ">
<path fill="none" stroke="#63b8ff" d="M321.17,-86C331.99,-86 344.01,-86 355.85,-86"/>
<polygon fill="#63b8ff" stroke="#63b8ff" points="355.59,-89.5 365.59,-86 355.59,-82.5 355.59,-89.5"/>
</a>
</g>
</g>
<!-- Node98 -->
<g id="Node000098" class="node">
<title>Node98</title>
<g id="a_Node000098"><a xlink:href="test_2unit_2utilities_2log_8c.html#ad6da18174ed9892c214e56bac27bfc7f" target="_top" xlink:title=" ">
<polygon fill="white" stroke="#666666" points="456.25,-58 387,-58 387,-38 456.25,-38 456.25,-58"/>
<text text-anchor="middle" x="421.62" y="-44.5" font-family="Helvetica,sans-Serif" font-size="10.00">print_banner</text>
</a>
</g>
</g>
<!-- Node95&#45;&gt;Node98 -->
<g id="edge61_Node000095_Node000098" class="edge">
<title>Node95&#45;&gt;Node98</title>
<g id="a_edge61_Node000095_Node000098"><a xlink:title=" ">
<path fill="none" stroke="#63b8ff" d="M320.07,-75.52C337.27,-70.81 357.69,-65.22 375.62,-60.32"/>
<polygon fill="#63b8ff" stroke="#63b8ff" points="376.51,-63.7 385.23,-57.68 374.66,-56.95 376.51,-63.7"/>
</a>
</g>
</g>
<!-- Node99 -->
<g id="Node000099" class="node">
<title>Node99</title>
<g id="a_Node000099"><a xlink:href="radio_8cpp.html#af0ecc74e51dbb7c5bdb5d2bfc4a7a0b2" target="_top" xlink:title=" ">
<polygon fill="white" stroke="#666666" points="478.38,-20 364.88,-20 364.88,0 478.38,0 478.38,-20"/>
<text text-anchor="middle" x="421.62" y="-6.5" font-family="Helvetica,sans-Serif" font-size="10.00">radio_queue_message</text>
</a>
</g>
</g>
<!-- Node95&#45;&gt;Node99 -->
<g id="edge62_Node000095_Node000099" class="edge">
<title>Node95&#45;&gt;Node99</title>
<g id="a_edge62_Node000095_Node000099"><a xlink:title=" ">
<path fill="none" stroke="#63b8ff" d="M308.49,-75.6C313.59,-73.11 318.74,-70.23 323.25,-67 342.17,-53.47 339.49,-41.29 359.25,-29 361.65,-27.51 364.18,-26.12 366.79,-24.84"/>
<polygon fill="#63b8ff" stroke="#63b8ff" points="367.94,-28.15 375.74,-20.98 365.17,-21.72 367.94,-28.15"/>
</a>
</g>
</g>
</g>
</svg>
