<?xml version="1.0" encoding="UTF-8" standalone="no"?>
<!DOCTYPE svg PUBLIC "-//W3C//DTD SVG 1.1//EN"
 "http://www.w3.org/Graphics/SVG/1.1/DTD/svg11.dtd">
<!-- Generated by graphviz version 2.43.0 (0)
 -->
<!-- Title: command.c Pages: 1 -->
<svg width="1577pt" height="302pt"
 viewBox="0.00 0.00 1577.00 302.00" xmlns="http://www.w3.org/2000/svg" xmlns:xlink="http://www.w3.org/1999/xlink">
<g id="graph0" class="graph" transform="scale(1 1) rotate(0) translate(4 298)">
<title>command.c</title>
<!-- Node1 -->
<g id="Node000001" class="node">
<title>Node1</title>
<g id="a_Node000001"><a xlink:title=" ">
<polygon fill="#999999" stroke="#666666" points="967,-294 893,-294 893,-275 967,-275 967,-294"/>
<text text-anchor="middle" x="930" y="-282" font-family="Helvetica,sans-Serif" font-size="10.00">command.c</text>
</a>
</g>
</g>
<!-- Node2 -->
<g id="Node000002" class="node">
<title>Node2</title>
<g id="a_Node000002"><a xlink:href="stdlib_8h.html" target="_top" xlink:title=" ">
<polygon fill="white" stroke="#666666" points="76,-239 0,-239 0,-220 76,-220 76,-239"/>
<text text-anchor="middle" x="38" y="-227" font-family="Helvetica,sans-Serif" font-size="10.00">pico/stdlib.h</text>
</a>
</g>
</g>
<!-- Node1&#45;&gt;Node2 -->
<g id="edge1_Node000001_Node000002" class="edge">
<title>Node1&#45;&gt;Node2</title>
<g id="a_edge1_Node000001_Node000002"><a xlink:title=" ">
<path fill="none" stroke="#63b8ff" d="M892.79,-283.21C775.66,-281.96 403.92,-275.29 86.48,-239.01"/>
<polygon fill="#63b8ff" stroke="#63b8ff" points="86.49,-235.49 76.16,-237.82 85.69,-242.44 86.49,-235.49"/>
</a>
</g>
</g>
<!-- Node3 -->
<g id="Node000003" class="node">
<title>Node3</title>
<g id="a_Node000003"><a xlink:title=" ">
<polygon fill="#e0e0e0" stroke="#999999" points="147.5,-239 94.5,-239 94.5,-220 147.5,-220 147.5,-239"/>
<text text-anchor="middle" x="121" y="-227" font-family="Helvetica,sans-Serif" font-size="10.00">string.h</text>
</a>
</g>
</g>
<!-- Node1&#45;&gt;Node3 -->
<g id="edge2_Node000001_Node000003" class="edge">
<title>Node1&#45;&gt;Node3</title>
<g id="a_edge2_Node000001_Node000003"><a xlink:title=" ">
<path fill="none" stroke="#63b8ff" d="M892.65,-283.27C781.14,-282.17 441.05,-275.81 162,-239 160.7,-238.83 159.39,-238.64 158.06,-238.44"/>
<polygon fill="#63b8ff" stroke="#63b8ff" points="158.26,-234.92 147.81,-236.65 157.06,-241.81 158.26,-234.92"/>
</a>
</g>
</g>
<!-- Node4 -->
<g id="Node000004" class="node">
<title>Node4</title>
<g id="a_Node000004"><a xlink:title=" ">
<polygon fill="#e0e0e0" stroke="#999999" points="368.5,-19 315.5,-19 315.5,0 368.5,0 368.5,-19"/>
<text text-anchor="middle" x="342" y="-7" font-family="Helvetica,sans-Serif" font-size="10.00">stdint.h</text>
</a>
</g>
</g>
<!-- Node1&#45;&gt;Node4 -->
<g id="edge3_Node000001_Node000004" class="edge">
<title>Node1&#45;&gt;Node4</title>
<g id="a_edge3_Node000001_Node000004"><a xlink:title=" ">
<path fill="none" stroke="#63b8ff" d="M892.87,-282.14C741.1,-276.12 176,-248.77 176,-175.5 176,-175.5 176,-175.5 176,-118.5 176,-57.19 256.54,-28.89 305.42,-17.36"/>
<polygon fill="#63b8ff" stroke="#63b8ff" points="306.33,-20.75 315.33,-15.15 304.81,-13.91 306.33,-20.75"/>
</a>
</g>
</g>
<!-- Node5 -->
<g id="Node000005" class="node">
<title>Node5</title>
<g id="a_Node000005"><a xlink:title=" ">
<polygon fill="#e0e0e0" stroke="#999999" points="599,-19 537,-19 537,0 599,0 599,-19"/>
<text text-anchor="middle" x="568" y="-7" font-family="Helvetica,sans-Serif" font-size="10.00">stdbool.h</text>
</a>
</g>
</g>
<!-- Node1&#45;&gt;Node5 -->
<g id="edge4_Node000001_Node000005" class="edge">
<title>Node1&#45;&gt;Node5</title>
<g id="a_edge4_Node000001_Node000005"><a xlink:title=" ">
<path fill="none" stroke="#63b8ff" d="M892.87,-279.11C858.68,-273.77 807.57,-262.37 769,-239 676.77,-183.12 603.84,-71.1 578.06,-27.98"/>
<polygon fill="#63b8ff" stroke="#63b8ff" points="580.99,-26.06 572.91,-19.21 574.96,-29.61 580.99,-26.06"/>
</a>
</g>
</g>
<!-- Node6 -->
<g id="Node000006" class="node">
<title>Node6</title>
<g id="a_Node000006"><a xlink:title=" ">
<polygon fill="#e0e0e0" stroke="#999999" points="867,-19 795,-19 795,0 867,0 867,-19"/>
<text text-anchor="middle" x="831" y="-7" font-family="Helvetica,sans-Serif" font-size="10.00">FreeRTOS.h</text>
</a>
</g>
</g>
<!-- Node1&#45;&gt;Node6 -->
<g id="edge5_Node000001_Node000006" class="edge">
<title>Node1&#45;&gt;Node6</title>
<g id="a_edge5_Node000001_Node000006"><a xlink:title=" ">
<path fill="none" stroke="#63b8ff" d="M929.89,-274.83C929.3,-248.82 925.46,-169.62 901,-110 887.65,-77.47 862.06,-45.16 845.79,-26.55"/>
<polygon fill="#63b8ff" stroke="#63b8ff" points="848.33,-24.14 839.05,-19.01 843.11,-28.8 848.33,-24.14"/>
</a>
</g>
</g>
<!-- Node7 -->
<g id="Node000007" class="node">
<title>Node7</title>
<g id="a_Node000007"><a xlink:title=" ">
<polygon fill="#e0e0e0" stroke="#999999" points="1071.5,-19 1024.5,-19 1024.5,0 1071.5,0 1071.5,-19"/>
<text text-anchor="middle" x="1048" y="-7" font-family="Helvetica,sans-Serif" font-size="10.00">task.h</text>
</a>
</g>
</g>
<!-- Node1&#45;&gt;Node7 -->
<g id="edge6_Node000001_Node000007" class="edge">
<title>Node1&#45;&gt;Node7</title>
<g id="a_edge6_Node000001_Node000007"><a xlink:title=" ">
<path fill="none" stroke="#63b8ff" d="M964.49,-274.99C985.47,-268.26 1011.51,-256.95 1029,-239 1042.93,-224.69 1086.53,-114.52 1094,-74 1095.53,-65.7 1097.3,-62.77 1094,-55 1089.02,-43.25 1079.25,-33.09 1069.99,-25.45"/>
<polygon fill="#63b8ff" stroke="#63b8ff" points="1071.85,-22.47 1061.78,-19.18 1067.6,-28.03 1071.85,-22.47"/>
</a>
</g>
</g>
<!-- Node8 -->
<g id="Node000008" class="node">
<title>Node8</title>
<g id="a_Node000008"><a xlink:title=" ">
<polygon fill="#e0e0e0" stroke="#999999" points="1182,-19 1120,-19 1120,0 1182,0 1182,-19"/>
<text text-anchor="middle" x="1151" y="-7" font-family="Helvetica,sans-Serif" font-size="10.00">semphr.h</text>
</a>
</g>
</g>
<!-- Node1&#45;&gt;Node8 -->
<g id="edge7_Node000001_Node000008" class="edge">
<title>Node1&#45;&gt;Node8</title>
<g id="a_edge7_Node000001_Node000008"><a xlink:title=" ">
<path fill="none" stroke="#63b8ff" d="M967.12,-277.1C992.53,-271.06 1025.55,-259.71 1048,-239 1112.31,-179.7 1139.13,-72.62 1147.69,-29.38"/>
<polygon fill="#63b8ff" stroke="#63b8ff" points="1151.16,-29.86 1149.56,-19.39 1144.28,-28.58 1151.16,-29.86"/>
</a>
</g>
</g>
<!-- Node9 -->
<g id="Node000009" class="node">
<title>Node9</title>
<g id="a_Node000009"><a xlink:title=" ">
<polygon fill="#e0e0e0" stroke="#999999" points="957,-19 901,-19 901,0 957,0 957,-19"/>
<text text-anchor="middle" x="929" y="-7" font-family="Helvetica,sans-Serif" font-size="10.00">queue.h</text>
</a>
</g>
</g>
<!-- Node1&#45;&gt;Node9 -->
<g id="edge8_Node000001_Node000009" class="edge">
<title>Node1&#45;&gt;Node9</title>
<g id="a_edge8_Node000001_Node000009"><a xlink:title=" ">
<path fill="none" stroke="#63b8ff" d="M942.21,-274.86C952.35,-266.88 966.04,-254.01 972,-239 993.17,-185.72 983.61,-166.14 972,-110 965.74,-79.71 949.79,-47.3 939.18,-27.98"/>
<polygon fill="#63b8ff" stroke="#63b8ff" points="942.16,-26.14 934.19,-19.15 936.06,-29.58 942.16,-26.14"/>
</a>
</g>
</g>
<!-- Node10 -->
<g id="Node000010" class="node">
<title>Node10</title>
<g id="a_Node000010"><a xlink:href="gse_8h.html" target="_top" xlink:title="Handles hardline communication over USB.">
<polygon fill="white" stroke="#666666" points="1247.5,-239 1204.5,-239 1204.5,-220 1247.5,-220 1247.5,-239"/>
<text text-anchor="middle" x="1226" y="-227" font-family="Helvetica,sans-Serif" font-size="10.00">gse.h</text>
</a>
</g>
</g>
<!-- Node1&#45;&gt;Node10 -->
<g id="edge9_Node000001_Node000010" class="edge">
<title>Node1&#45;&gt;Node10</title>
<g id="a_edge9_Node000001_Node000010"><a xlink:title=" ">
<path fill="none" stroke="#63b8ff" d="M967.16,-277.89C1017.75,-270.08 1111.02,-255.07 1190,-239 1191.46,-238.7 1192.94,-238.39 1194.44,-238.07"/>
<polygon fill="#63b8ff" stroke="#63b8ff" points="1195.36,-241.45 1204.35,-235.84 1193.82,-234.62 1195.36,-241.45"/>
</a>
</g>
</g>
<!-- Node11 -->
<g id="Node000011" class="node">
<title>Node11</title>
<g id="a_Node000011"><a xlink:href="log_8h.html" target="_top" xlink:title=" ">
<polygon fill="white" stroke="#666666" points="843.5,-239 802.5,-239 802.5,-220 843.5,-220 843.5,-239"/>
<text text-anchor="middle" x="823" y="-227" font-family="Helvetica,sans-Serif" font-size="10.00">log.h</text>
</a>
</g>
</g>
<!-- Node1&#45;&gt;Node11 -->
<g id="edge10_Node000001_Node000011" class="edge">
<title>Node1&#45;&gt;Node11</title>
<g id="a_edge10_Node000001_Node000011"><a xlink:title=" ">
<path fill="none" stroke="#63b8ff" d="M912.81,-274.98C895.75,-266.54 869.37,-253.47 849.6,-243.68"/>
<polygon fill="#63b8ff" stroke="#63b8ff" points="851.02,-240.47 840.5,-239.17 847.91,-246.75 851.02,-240.47"/>
</a>
</g>
</g>
<!-- Node13 -->
<g id="Node000013" class="node">
<title>Node13</title>
<g id="a_Node000013"><a xlink:href="file__downlink_8h.html" target="_top" xlink:title=" ">
<polygon fill="white" stroke="#666666" points="892,-129 802,-129 802,-110 892,-110 892,-129"/>
<text text-anchor="middle" x="847" y="-117" font-family="Helvetica,sans-Serif" font-size="10.00">file_downlink.h</text>
</a>
</g>
</g>
<!-- Node1&#45;&gt;Node13 -->
<g id="edge57_Node000001_Node000013" class="edge">
<title>Node1&#45;&gt;Node13</title>
<g id="a_edge57_Node000001_Node000013"><a xlink:title=" ">
<path fill="none" stroke="#63b8ff" d="M925.54,-274.74C912.42,-248.98 873.8,-173.13 856.08,-138.33"/>
<polygon fill="#63b8ff" stroke="#63b8ff" points="859.14,-136.63 851.48,-129.31 852.9,-139.81 859.14,-136.63"/>
</a>
</g>
</g>
<!-- Node14 -->
<g id="Node000014" class="node">
<title>Node14</title>
<g id="a_Node000014"><a xlink:href="filesystem_8h.html" target="_top" xlink:title="Handles file system operations and management.">
<polygon fill="white" stroke="#666666" points="726.5,-74 649.5,-74 649.5,-55 726.5,-55 726.5,-74"/>
<text text-anchor="middle" x="688" y="-62" font-family="Helvetica,sans-Serif" font-size="10.00">filesystem.h</text>
</a>
</g>
</g>
<!-- Node1&#45;&gt;Node14 -->
<g id="edge31_Node000001_Node000014" class="edge">
<title>Node1&#45;&gt;Node14</title>
<g id="a_edge31_Node000001_Node000014"><a xlink:title=" ">
<path fill="none" stroke="#63b8ff" d="M892.91,-278.55C863.51,-273.04 822.74,-261.73 794,-239 740.31,-196.53 707.13,-118.83 694.2,-83.66"/>
<polygon fill="#63b8ff" stroke="#63b8ff" points="697.49,-82.44 690.84,-74.19 690.89,-84.79 697.49,-82.44"/>
</a>
</g>
</g>
<!-- Node18 -->
<g id="Node000018" class="node">
<title>Node18</title>
<g id="a_Node000018"><a xlink:href="heartbeat__job_8h.html" target="_top" xlink:title=" ">
<polygon fill="white" stroke="#666666" points="1358.5,-239 1265.5,-239 1265.5,-220 1358.5,-220 1358.5,-239"/>
<text text-anchor="middle" x="1312" y="-227" font-family="Helvetica,sans-Serif" font-size="10.00">heartbeat_job.h</text>
</a>
</g>
</g>
<!-- Node1&#45;&gt;Node18 -->
<g id="edge28_Node000001_Node000018" class="edge">
<title>Node1&#45;&gt;Node18</title>
<g id="a_edge28_Node000001_Node000018"><a xlink:title=" ">
<path fill="none" stroke="#63b8ff" d="M967.3,-278.65C1026.27,-270.93 1144.89,-255.2 1255.51,-239.2"/>
<polygon fill="#63b8ff" stroke="#63b8ff" points="1256.1,-242.65 1265.5,-237.75 1255.1,-235.72 1256.1,-242.65"/>
</a>
</g>
</g>
<!-- Node19 -->
<g id="Node000019" class="node">
<title>Node19</title>
<g id="a_Node000019"><a xlink:href="steve_8h.html" target="_top" xlink:title="S.T.E.V.E (Scheduler Task for Executing Vital Events)">
<polygon fill="white" stroke="#666666" points="1219.5,-184 1166.5,-184 1166.5,-165 1219.5,-165 1219.5,-184"/>
<text text-anchor="middle" x="1193" y="-172" font-family="Helvetica,sans-Serif" font-size="10.00">steve.h</text>
</a>
</g>
</g>
<!-- Node1&#45;&gt;Node19 -->
<g id="edge29_Node000001_Node000019" class="edge">
<title>Node1&#45;&gt;Node19</title>
<g id="a_edge29_Node000001_Node000019"><a xlink:title=" ">
<path fill="none" stroke="#63b8ff" d="M967.06,-279.59C1022.15,-273.21 1122.35,-259.18 1152,-239 1168.24,-227.95 1179.5,-208.11 1186.06,-193.54"/>
<polygon fill="#63b8ff" stroke="#63b8ff" points="1189.39,-194.64 1190.01,-184.07 1182.93,-191.95 1189.39,-194.64"/>
</a>
</g>
</g>
<!-- Node20 -->
<g id="Node000020" class="node">
<title>Node20</title>
<g id="a_Node000020"><a xlink:title=" ">
<polygon fill="#e0e0e0" stroke="#999999" points="1427,-239 1377,-239 1377,-220 1427,-220 1427,-239"/>
<text text-anchor="middle" x="1402" y="-227" font-family="Helvetica,sans-Serif" font-size="10.00">radio.h</text>
</a>
</g>
</g>
<!-- Node1&#45;&gt;Node20 -->
<g id="edge32_Node000001_Node000020" class="edge">
<title>Node1&#45;&gt;Node20</title>
<g id="a_edge32_Node000001_Node000020"><a xlink:title=" ">
<path fill="none" stroke="#63b8ff" d="M967.16,-281.53C1041.36,-277.21 1213.21,-265.27 1366.75,-238.97"/>
<polygon fill="#63b8ff" stroke="#63b8ff" points="1367.58,-242.38 1376.84,-237.22 1366.38,-235.48 1367.58,-242.38"/>
</a>
</g>
</g>
<!-- Node21 -->
<g id="Node000021" class="node">
<title>Node21</title>
<g id="a_Node000021"><a xlink:href="command_8h.html" target="_top" xlink:title="Handles decoding and triggering responses to received commands.">
<polygon fill="white" stroke="#666666" points="485,-184 411,-184 411,-165 485,-165 485,-184"/>
<text text-anchor="middle" x="448" y="-172" font-family="Helvetica,sans-Serif" font-size="10.00">command.h</text>
</a>
</g>
</g>
<!-- Node1&#45;&gt;Node21 -->
<g id="edge33_Node000001_Node000021" class="edge">
<title>Node1&#45;&gt;Node21</title>
<g id="a_edge33_Node000001_Node000021"><a xlink:title=" ">
<path fill="none" stroke="#63b8ff" d="M892.96,-282.29C788.95,-278.56 499.67,-265.85 467,-239 453.95,-228.28 449.62,-208.98 448.3,-194.46"/>
<polygon fill="#63b8ff" stroke="#63b8ff" points="451.78,-193.91 447.78,-184.1 444.78,-194.26 451.78,-193.91"/>
</a>
</g>
</g>
<!-- Node24 -->
<g id="Node000024" class="node">
<title>Node24</title>
<g id="a_Node000024"><a xlink:href="set__rtc__job_8h.html" target="_top" xlink:title=" ">
<polygon fill="white" stroke="#666666" points="587.5,-184 508.5,-184 508.5,-165 587.5,-165 587.5,-184"/>
<text text-anchor="middle" x="548" y="-172" font-family="Helvetica,sans-Serif" font-size="10.00">set_rtc_job.h</text>
</a>
</g>
</g>
<!-- Node1&#45;&gt;Node24 -->
<g id="edge40_Node000001_Node000024" class="edge">
<title>Node1&#45;&gt;Node24</title>
<g id="a_edge40_Node000001_Node000024"><a xlink:title=" ">
<path fill="none" stroke="#63b8ff" d="M892.77,-281.45C818.97,-276.89 657.04,-264.25 608,-239 587.23,-228.3 569.73,-207.49 559.09,-192.61"/>
<polygon fill="#63b8ff" stroke="#63b8ff" points="561.91,-190.53 553.38,-184.25 556.13,-194.48 561.91,-190.53"/>
</a>
</g>
</g>
<!-- Node27 -->
<g id="Node000027" class="node">
<title>Node27</title>
<g id="a_Node000027"><a xlink:href="antenna__deploy__job_8h.html" target="_top" xlink:title=" ">
<polygon fill="white" stroke="#666666" points="1569,-239 1445,-239 1445,-220 1569,-220 1569,-239"/>
<text text-anchor="middle" x="1507" y="-227" font-family="Helvetica,sans-Serif" font-size="10.00">antenna_deploy_job.h</text>
</a>
</g>
</g>
<!-- Node1&#45;&gt;Node27 -->
<g id="edge49_Node000001_Node000027" class="edge">
<title>Node1&#45;&gt;Node27</title>
<g id="a_edge49_Node000001_Node000027"><a xlink:title=" ">
<path fill="none" stroke="#63b8ff" d="M967.18,-280.63C1049.42,-274.2 1253.25,-257.8 1434.68,-239.11"/>
<polygon fill="#63b8ff" stroke="#63b8ff" points="1435.09,-242.58 1444.67,-238.07 1434.37,-235.62 1435.09,-242.58"/>
</a>
</g>
</g>
<!-- Node28 -->
<g id="Node000028" class="node">
<title>Node28</title>
<g id="a_Node000028"><a xlink:href="watchdog_8h.html" target="_top" xlink:title="Watchdog management functions.">
<polygon fill="white" stroke="#666666" points="1084.5,-74 1011.5,-74 1011.5,-55 1084.5,-55 1084.5,-74"/>
<text text-anchor="middle" x="1048" y="-62" font-family="Helvetica,sans-Serif" font-size="10.00">watchdog.h</text>
</a>
</g>
</g>
<!-- Node1&#45;&gt;Node28 -->
<g id="edge50_Node000001_Node000028" class="edge">
<title>Node1&#45;&gt;Node28</title>
<g id="a_edge50_Node000001_Node000028"><a xlink:title=" ">
<path fill="none" stroke="#63b8ff" d="M957.37,-274.92C975.01,-267.99 997.01,-256.47 1010,-239 1045.06,-191.85 1048.98,-118.78 1048.69,-84.49"/>
<polygon fill="#63b8ff" stroke="#63b8ff" points="1052.18,-84 1048.46,-74.08 1045.19,-84.16 1052.18,-84"/>
</a>
</g>
</g>
<!-- Node29 -->
<g id="Node000029" class="node">
<title>Node29</title>
<g id="a_Node000029"><a xlink:href="hb__tlm__log_8h.html" target="_top" xlink:title=" ">
<polygon fill="white" stroke="#666666" points="556,-239 476,-239 476,-220 556,-220 556,-239"/>
<text text-anchor="middle" x="516" y="-227" font-family="Helvetica,sans-Serif" font-size="10.00">hb_tlm_log.h</text>
</a>
</g>
</g>
<!-- Node1&#45;&gt;Node29 -->
<g id="edge53_Node000001_Node000029" class="edge">
<title>Node1&#45;&gt;Node29</title>
<g id="a_edge53_Node000001_Node000029"><a xlink:title=" ">
<path fill="none" stroke="#63b8ff" d="M892.89,-279.32C827.55,-271.88 687.71,-255.53 570,-239 568.73,-238.82 567.45,-238.64 566.15,-238.45"/>
<polygon fill="#63b8ff" stroke="#63b8ff" points="566.49,-234.96 556.08,-236.96 565.46,-241.89 566.49,-234.96"/>
</a>
</g>
</g>
<!-- Node11&#45;&gt;Node5 -->
<g id="edge27_Node000011_Node000005" class="edge">
<title>Node11&#45;&gt;Node5</title>
<g id="a_edge27_Node000011_Node000005"><a xlink:title=" ">
<path fill="none" stroke="#63b8ff" d="M812.62,-219.87C784.59,-196.54 705.16,-130.23 640,-74 621.22,-57.8 599.95,-38.98 585.43,-26.06"/>
<polygon fill="#63b8ff" stroke="#63b8ff" points="587.52,-23.23 577.72,-19.19 582.86,-28.46 587.52,-23.23"/>
</a>
</g>
</g>
<!-- Node12 -->
<g id="Node000012" class="node">
<title>Node12</title>
<g id="a_Node000012"><a xlink:href="telemetry_8h.html" target="_top" xlink:title="Functions for packaging and queuing telemetry packets for sending.">
<polygon fill="white" stroke="#666666" points="859,-184 787,-184 787,-165 859,-165 859,-184"/>
<text text-anchor="middle" x="823" y="-172" font-family="Helvetica,sans-Serif" font-size="10.00">telemetry.h</text>
</a>
</g>
</g>
<!-- Node11&#45;&gt;Node12 -->
<g id="edge11_Node000011_Node000012" class="edge">
<title>Node11&#45;&gt;Node12</title>
<g id="a_edge11_Node000011_Node000012"><a xlink:title=" ">
<path fill="none" stroke="#63b8ff" d="M823,-219.75C823,-212.8 823,-202.85 823,-194.13"/>
<polygon fill="#63b8ff" stroke="#63b8ff" points="826.5,-194.09 823,-184.09 819.5,-194.09 826.5,-194.09"/>
</a>
</g>
</g>
<!-- Node12&#45;&gt;Node6 -->
<g id="edge12_Node000012_Node000006" class="edge">
<title>Node12&#45;&gt;Node6</title>
<g id="a_edge12_Node000012_Node000006"><a xlink:title=" ">
<path fill="none" stroke="#63b8ff" d="M814.79,-164.8C807.46,-156.38 797.25,-142.9 793,-129 790.53,-120.92 791.47,-118.3 793,-110 798.49,-80.25 812.48,-47.89 821.87,-28.4"/>
<polygon fill="#63b8ff" stroke="#63b8ff" points="825.11,-29.75 826.4,-19.24 818.83,-26.64 825.11,-29.75"/>
</a>
</g>
</g>
<!-- Node12&#45;&gt;Node9 -->
<g id="edge13_Node000012_Node000009" class="edge">
<title>Node12&#45;&gt;Node9</title>
<g id="a_edge13_Node000012_Node000009"><a xlink:title=" ">
<path fill="none" stroke="#63b8ff" d="M848.85,-164.99C866.14,-157.98 888.02,-146.35 901,-129 923.29,-99.2 928.16,-54.35 929.03,-29.24"/>
<polygon fill="#63b8ff" stroke="#63b8ff" points="932.53,-29.27 929.2,-19.22 925.54,-29.16 932.53,-29.27"/>
</a>
</g>
</g>
<!-- Node12&#45;&gt;Node13 -->
<g id="edge14_Node000012_Node000013" class="edge">
<title>Node12&#45;&gt;Node13</title>
<g id="a_edge14_Node000012_Node000013"><a xlink:title=" ">
<path fill="none" stroke="#63b8ff" d="M826.96,-164.75C830.21,-157.57 834.92,-147.18 838.95,-138.27"/>
<polygon fill="#63b8ff" stroke="#63b8ff" points="842.17,-139.64 843.11,-129.09 835.8,-136.75 842.17,-139.64"/>
</a>
</g>
</g>
<!-- Node13&#45;&gt;Node6 -->
<g id="edge15_Node000013_Node000006" class="edge">
<title>Node13&#45;&gt;Node6</title>
<g id="a_edge15_Node000013_Node000006"><a xlink:title=" ">
<path fill="none" stroke="#63b8ff" d="M845.69,-109.66C843.1,-92.17 837.27,-52.8 833.78,-29.27"/>
<polygon fill="#63b8ff" stroke="#63b8ff" points="837.21,-28.54 832.28,-19.16 830.29,-29.56 837.21,-28.54"/>
</a>
</g>
</g>
<!-- Node13&#45;&gt;Node9 -->
<g id="edge16_Node000013_Node000009" class="edge">
<title>Node13&#45;&gt;Node9</title>
<g id="a_edge16_Node000013_Node000009"><a xlink:title=" ">
<path fill="none" stroke="#63b8ff" d="M853.71,-109.66C867.35,-91.69 898.52,-50.64 916.18,-27.38"/>
<polygon fill="#63b8ff" stroke="#63b8ff" points="919.17,-29.24 922.43,-19.16 913.59,-25.01 919.17,-29.24"/>
</a>
</g>
</g>
<!-- Node13&#45;&gt;Node14 -->
<g id="edge17_Node000013_Node000014" class="edge">
<title>Node13&#45;&gt;Node14</title>
<g id="a_edge17_Node000013_Node000014"><a xlink:title=" ">
<path fill="none" stroke="#63b8ff" d="M821.45,-109.98C794.88,-101.13 753.06,-87.19 723.33,-77.28"/>
<polygon fill="#63b8ff" stroke="#63b8ff" points="724.34,-73.92 713.75,-74.08 722.13,-80.56 724.34,-73.92"/>
</a>
</g>
</g>
<!-- Node14&#45;&gt;Node4 -->
<g id="edge25_Node000014_Node000004" class="edge">
<title>Node14&#45;&gt;Node4</title>
<g id="a_edge25_Node000014_Node000004"><a xlink:title=" ">
<path fill="none" stroke="#63b8ff" d="M649.32,-57.57C582.03,-47.27 444.34,-26.18 378.56,-16.1"/>
<polygon fill="#63b8ff" stroke="#63b8ff" points="379.06,-12.64 368.64,-14.58 378,-19.56 379.06,-12.64"/>
</a>
</g>
</g>
<!-- Node14&#45;&gt;Node5 -->
<g id="edge26_Node000014_Node000005" class="edge">
<title>Node14&#45;&gt;Node5</title>
<g id="a_edge26_Node000014_Node000005"><a xlink:title=" ">
<path fill="none" stroke="#63b8ff" d="M668.72,-54.98C649.33,-46.42 619.19,-33.11 596.93,-23.28"/>
<polygon fill="#63b8ff" stroke="#63b8ff" points="598.19,-20.01 587.63,-19.17 595.36,-26.41 598.19,-20.01"/>
</a>
</g>
</g>
<!-- Node14&#45;&gt;Node6 -->
<g id="edge18_Node000014_Node000006" class="edge">
<title>Node14&#45;&gt;Node6</title>
<g id="a_edge18_Node000014_Node000006"><a xlink:title=" ">
<path fill="none" stroke="#63b8ff" d="M710.98,-54.98C734.5,-46.27 771.29,-32.63 797.94,-22.75"/>
<polygon fill="#63b8ff" stroke="#63b8ff" points="799.45,-25.93 807.61,-19.17 797.01,-19.36 799.45,-25.93"/>
</a>
</g>
</g>
<!-- Node14&#45;&gt;Node7 -->
<g id="edge20_Node000014_Node000007" class="edge">
<title>Node14&#45;&gt;Node7</title>
<g id="a_edge20_Node000014_Node000007"><a xlink:title=" ">
<path fill="none" stroke="#63b8ff" d="M726.53,-57.83C797.29,-47.41 946.86,-25.39 1014.06,-15.5"/>
<polygon fill="#63b8ff" stroke="#63b8ff" points="1014.73,-18.94 1024.11,-14.02 1013.71,-12.01 1014.73,-18.94"/>
</a>
</g>
</g>
<!-- Node14&#45;&gt;Node8 -->
<g id="edge23_Node000014_Node000008" class="edge">
<title>Node14&#45;&gt;Node8</title>
<g id="a_edge23_Node000014_Node000008"><a xlink:title=" ">
<path fill="none" stroke="#63b8ff" d="M726.5,-59.24C796.9,-51.44 951.08,-34.24 1081,-19 1090.38,-17.9 1100.45,-16.69 1109.96,-15.54"/>
<polygon fill="#63b8ff" stroke="#63b8ff" points="1110.49,-19 1119.99,-14.32 1109.64,-12.05 1110.49,-19"/>
</a>
</g>
</g>
<!-- Node14&#45;&gt;Node9 -->
<g id="edge19_Node000014_Node000009" class="edge">
<title>Node14&#45;&gt;Node9</title>
<g id="a_edge19_Node000014_Node000009"><a xlink:title=" ">
<path fill="none" stroke="#63b8ff" d="M726.72,-54.98C771.9,-45.05 846.12,-28.73 890.99,-18.86"/>
<polygon fill="#63b8ff" stroke="#63b8ff" points="891.9,-22.24 900.92,-16.68 890.4,-15.41 891.9,-22.24"/>
</a>
</g>
</g>
<!-- Node15 -->
<g id="Node000015" class="node">
<title>Node15</title>
<g id="a_Node000015"><a xlink:title=" ">
<polygon fill="#e0e0e0" stroke="#999999" points="649,-19 617,-19 617,0 649,0 649,-19"/>
<text text-anchor="middle" x="633" y="-7" font-family="Helvetica,sans-Serif" font-size="10.00">ff.h</text>
</a>
</g>
</g>
<!-- Node14&#45;&gt;Node15 -->
<g id="edge21_Node000014_Node000015" class="edge">
<title>Node14&#45;&gt;Node15</title>
<g id="a_edge21_Node000014_Node000015"><a xlink:title=" ">
<path fill="none" stroke="#63b8ff" d="M678.92,-54.75C670.91,-47.03 659.04,-35.6 649.38,-26.28"/>
<polygon fill="#63b8ff" stroke="#63b8ff" points="651.54,-23.51 641.91,-19.09 646.69,-28.55 651.54,-23.51"/>
</a>
</g>
</g>
<!-- Node16 -->
<g id="Node000016" class="node">
<title>Node16</title>
<g id="a_Node000016"><a xlink:href="filesystem__errors_8h.html" target="_top" xlink:title=" ">
<polygon fill="white" stroke="#666666" points="777,-19 667,-19 667,0 777,0 777,-19"/>
<text text-anchor="middle" x="722" y="-7" font-family="Helvetica,sans-Serif" font-size="10.00">filesystem_errors.h</text>
</a>
</g>
</g>
<!-- Node14&#45;&gt;Node16 -->
<g id="edge22_Node000014_Node000016" class="edge">
<title>Node14&#45;&gt;Node16</title>
<g id="a_edge22_Node000014_Node000016"><a xlink:title=" ">
<path fill="none" stroke="#63b8ff" d="M693.61,-54.75C698.32,-47.42 705.17,-36.73 710.97,-27.7"/>
<polygon fill="#63b8ff" stroke="#63b8ff" points="714.04,-29.4 716.49,-19.09 708.14,-25.62 714.04,-29.4"/>
</a>
</g>
</g>
<!-- Node17 -->
<g id="Node000017" class="node">
<title>Node17</title>
<g id="a_Node000017"><a xlink:title=" ">
<polygon fill="#e0e0e0" stroke="#999999" points="510,-19 454,-19 454,0 510,0 510,-19"/>
<text text-anchor="middle" x="482" y="-7" font-family="Helvetica,sans-Serif" font-size="10.00">stddef.h</text>
</a>
</g>
</g>
<!-- Node14&#45;&gt;Node17 -->
<g id="edge24_Node000014_Node000017" class="edge">
<title>Node14&#45;&gt;Node17</title>
<g id="a_edge24_Node000014_Node000017"><a xlink:title=" ">
<path fill="none" stroke="#63b8ff" d="M654.9,-54.98C618.05,-45.5 558.59,-30.2 519.9,-20.25"/>
<polygon fill="#63b8ff" stroke="#63b8ff" points="520.61,-16.82 510.05,-17.72 518.86,-23.6 520.61,-16.82"/>
</a>
</g>
</g>
<!-- Node19&#45;&gt;Node8 -->
<g id="edge30_Node000019_Node000008" class="edge">
<title>Node19&#45;&gt;Node8</title>
<g id="a_edge30_Node000019_Node000008"><a xlink:title=" ">
<path fill="none" stroke="#63b8ff" d="M1191.18,-164.82C1187,-145.16 1176.21,-95.76 1165,-55 1162.64,-46.41 1159.72,-36.99 1157.16,-29.03"/>
<polygon fill="#63b8ff" stroke="#63b8ff" points="1160.42,-27.72 1153.98,-19.31 1153.76,-29.9 1160.42,-27.72"/>
</a>
</g>
</g>
<!-- Node21&#45;&gt;Node4 -->
<g id="edge34_Node000021_Node000004" class="edge">
<title>Node21&#45;&gt;Node4</title>
<g id="a_edge34_Node000021_Node000004"><a xlink:title=" ">
<path fill="none" stroke="#63b8ff" d="M410.77,-169.47C364.06,-163.56 288,-150.8 271,-129 244.02,-94.4 291.86,-48.74 321.36,-25.49"/>
<polygon fill="#63b8ff" stroke="#63b8ff" points="323.65,-28.15 329.47,-19.29 319.4,-22.58 323.65,-28.15"/>
</a>
</g>
</g>
<!-- Node22 -->
<g id="Node000022" class="node">
<title>Node22</title>
<g id="a_Node000022"><a xlink:title=" ">
<polygon fill="#e0e0e0" stroke="#999999" points="366,-129 280,-129 280,-110 366,-110 366,-129"/>
<text text-anchor="middle" x="323" y="-117" font-family="Helvetica,sans-Serif" font-size="10.00">spacepacket.h</text>
</a>
</g>
</g>
<!-- Node21&#45;&gt;Node22 -->
<g id="edge35_Node000021_Node000022" class="edge">
<title>Node21&#45;&gt;Node22</title>
<g id="a_edge35_Node000021_Node000022"><a xlink:title=" ">
<path fill="none" stroke="#63b8ff" d="M427.92,-164.98C407.63,-156.38 376.04,-142.99 352.83,-133.15"/>
<polygon fill="#63b8ff" stroke="#63b8ff" points="354.02,-129.85 343.45,-129.17 351.29,-136.3 354.02,-129.85"/>
</a>
</g>
</g>
<!-- Node23 -->
<g id="Node000023" class="node">
<title>Node23</title>
<g id="a_Node000023"><a xlink:href="user__auth_8h.html" target="_top" xlink:title=" ">
<polygon fill="white" stroke="#666666" points="594,-129 520,-129 520,-110 594,-110 594,-129"/>
<text text-anchor="middle" x="557" y="-117" font-family="Helvetica,sans-Serif" font-size="10.00">user_auth.h</text>
</a>
</g>
</g>
<!-- Node21&#45;&gt;Node23 -->
<g id="edge36_Node000021_Node000023" class="edge">
<title>Node21&#45;&gt;Node23</title>
<g id="a_edge36_Node000021_Node000023"><a xlink:title=" ">
<path fill="none" stroke="#63b8ff" d="M465.51,-164.98C482.97,-156.5 510.01,-143.35 530.17,-133.54"/>
<polygon fill="#63b8ff" stroke="#63b8ff" points="531.71,-136.69 539.17,-129.17 528.64,-130.4 531.71,-136.69"/>
</a>
</g>
</g>
<!-- Node23&#45;&gt;Node4 -->
<g id="edge38_Node000023_Node000004" class="edge">
<title>Node23&#45;&gt;Node4</title>
<g id="a_edge38_Node000023_Node000004"><a xlink:title=" ">
<path fill="none" stroke="#63b8ff" d="M519.72,-110.72C490.79,-103.72 450.3,-91.77 418,-74 394.61,-61.13 371.64,-40.52 357.18,-26.29"/>
<polygon fill="#63b8ff" stroke="#63b8ff" points="359.6,-23.76 350.08,-19.12 354.63,-28.69 359.6,-23.76"/>
</a>
</g>
</g>
<!-- Node23&#45;&gt;Node5 -->
<g id="edge37_Node000023_Node000005" class="edge">
<title>Node23&#45;&gt;Node5</title>
<g id="a_edge37_Node000023_Node000005"><a xlink:title=" ">
<path fill="none" stroke="#63b8ff" d="M557.9,-109.66C559.68,-92.17 563.69,-52.8 566.09,-29.27"/>
<polygon fill="#63b8ff" stroke="#63b8ff" points="569.59,-29.46 567.12,-19.16 562.62,-28.75 569.59,-29.46"/>
</a>
</g>
</g>
<!-- Node23&#45;&gt;Node14 -->
<g id="edge39_Node000023_Node000014" class="edge">
<title>Node23&#45;&gt;Node14</title>
<g id="a_edge39_Node000023_Node000014"><a xlink:title=" ">
<path fill="none" stroke="#63b8ff" d="M578.05,-109.98C599.41,-101.34 632.7,-87.87 657.06,-78.02"/>
<polygon fill="#63b8ff" stroke="#63b8ff" points="658.61,-81.17 666.57,-74.17 655.99,-74.68 658.61,-81.17"/>
</a>
</g>
</g>
<!-- Node24&#45;&gt;Node4 -->
<g id="edge41_Node000024_Node000004" class="edge">
<title>Node24&#45;&gt;Node4</title>
<g id="a_edge41_Node000024_Node000004"><a xlink:title=" ">
<path fill="none" stroke="#63b8ff" d="M508.3,-166.27C480,-159.78 441.99,-148.24 413,-129 385.97,-111.06 381.47,-101.95 365,-74 356.63,-59.79 350.51,-42.03 346.7,-28.91"/>
<polygon fill="#63b8ff" stroke="#63b8ff" points="350.05,-27.89 344.04,-19.16 343.3,-29.73 350.05,-27.89"/>
</a>
</g>
</g>
<!-- Node24&#45;&gt;Node6 -->
<g id="edge48_Node000024_Node000006" class="edge">
<title>Node24&#45;&gt;Node6</title>
<g id="a_edge48_Node000024_Node000006"><a xlink:title=" ">
<path fill="none" stroke="#63b8ff" d="M565.7,-164.89C599.41,-148.33 674.95,-110.43 736,-74 762.47,-58.2 791.81,-38.19 810.78,-24.9"/>
<polygon fill="#63b8ff" stroke="#63b8ff" points="812.8,-27.75 818.96,-19.13 808.77,-22.03 812.8,-27.75"/>
</a>
</g>
</g>
<!-- Node25 -->
<g id="Node000025" class="node">
<title>Node25</title>
<g id="a_Node000025"><a xlink:href="rtc__ds3231_8h.html" target="_top" xlink:title="DS3231 Real Time Clock Driver.">
<polygon fill="white" stroke="#666666" points="501.5,-129 422.5,-129 422.5,-110 501.5,-110 501.5,-129"/>
<text text-anchor="middle" x="462" y="-117" font-family="Helvetica,sans-Serif" font-size="10.00">rtc_ds3231.h</text>
</a>
</g>
</g>
<!-- Node24&#45;&gt;Node25 -->
<g id="edge42_Node000024_Node000025" class="edge">
<title>Node24&#45;&gt;Node25</title>
<g id="a_edge42_Node000024_Node000025"><a xlink:title=" ">
<path fill="none" stroke="#63b8ff" d="M534.18,-164.98C520.85,-156.77 500.42,-144.18 484.69,-134.49"/>
<polygon fill="#63b8ff" stroke="#63b8ff" points="486.42,-131.44 476.07,-129.17 482.75,-137.4 486.42,-131.44"/>
</a>
</g>
</g>
<!-- Node25&#45;&gt;Node4 -->
<g id="edge47_Node000025_Node000004" class="edge">
<title>Node25&#45;&gt;Node4</title>
<g id="a_edge47_Node000025_Node000004"><a xlink:title=" ">
<path fill="none" stroke="#63b8ff" d="M441.71,-109.89C425.16,-102.18 401.84,-89.68 385,-74 370.73,-60.71 358.71,-41.85 351.04,-28.13"/>
<polygon fill="#63b8ff" stroke="#63b8ff" points="354.07,-26.37 346.26,-19.21 347.9,-29.68 354.07,-26.37"/>
</a>
</g>
</g>
<!-- Node26 -->
<g id="Node000026" class="node">
<title>Node26</title>
<g id="a_Node000026"><a xlink:href="simulator_2pico-sdk_2hardware_2i2c_8h.html" target="_top" xlink:title=" ">
<polygon fill="white" stroke="#666666" points="516.5,-74 427.5,-74 427.5,-55 516.5,-55 516.5,-74"/>
<text text-anchor="middle" x="472" y="-62" font-family="Helvetica,sans-Serif" font-size="10.00">hardware/i2c.h</text>
</a>
</g>
</g>
<!-- Node25&#45;&gt;Node26 -->
<g id="edge43_Node000025_Node000026" class="edge">
<title>Node25&#45;&gt;Node26</title>
<g id="a_edge43_Node000025_Node000026"><a xlink:title=" ">
<path fill="none" stroke="#63b8ff" d="M463.65,-109.75C464.96,-102.8 466.84,-92.85 468.48,-84.13"/>
<polygon fill="#63b8ff" stroke="#63b8ff" points="471.96,-84.56 470.38,-74.09 465.09,-83.27 471.96,-84.56"/>
</a>
</g>
</g>
<!-- Node26&#45;&gt;Node4 -->
<g id="edge44_Node000026_Node000004" class="edge">
<title>Node26&#45;&gt;Node4</title>
<g id="a_edge44_Node000026_Node000004"><a xlink:title=" ">
<path fill="none" stroke="#63b8ff" d="M451.11,-54.98C429.92,-46.34 396.87,-32.87 372.7,-23.02"/>
<polygon fill="#63b8ff" stroke="#63b8ff" points="373.85,-19.7 363.27,-19.17 371.21,-26.19 373.85,-19.7"/>
</a>
</g>
</g>
<!-- Node26&#45;&gt;Node5 -->
<g id="edge46_Node000026_Node000005" class="edge">
<title>Node26&#45;&gt;Node5</title>
<g id="a_edge46_Node000026_Node000005"><a xlink:title=" ">
<path fill="none" stroke="#63b8ff" d="M487.42,-54.98C502.45,-46.69 525.54,-33.94 543.16,-24.22"/>
<polygon fill="#63b8ff" stroke="#63b8ff" points="545.23,-27.07 552.3,-19.17 541.85,-20.94 545.23,-27.07"/>
</a>
</g>
</g>
<!-- Node26&#45;&gt;Node17 -->
<g id="edge45_Node000026_Node000017" class="edge">
<title>Node26&#45;&gt;Node17</title>
<g id="a_edge45_Node000026_Node000017"><a xlink:title=" ">
<path fill="none" stroke="#63b8ff" d="M473.65,-54.75C474.96,-47.8 476.84,-37.85 478.48,-29.13"/>
<polygon fill="#63b8ff" stroke="#63b8ff" points="481.96,-29.56 480.38,-19.09 475.09,-28.27 481.96,-29.56"/>
</a>
</g>
</g>
<!-- Node28&#45;&gt;Node6 -->
<g id="edge51_Node000028_Node000006" class="edge">
<title>Node28&#45;&gt;Node6</title>
<g id="a_edge51_Node000028_Node000006"><a xlink:title=" ">
<path fill="none" stroke="#63b8ff" d="M1013.14,-54.98C975.91,-45.89 916.8,-31.46 876.07,-21.51"/>
<polygon fill="#63b8ff" stroke="#63b8ff" points="876.68,-18.05 866.14,-19.08 875.02,-24.85 876.68,-18.05"/>
</a>
</g>
</g>
<!-- Node28&#45;&gt;Node7 -->
<g id="edge52_Node000028_Node000007" class="edge">
<title>Node28&#45;&gt;Node7</title>
<g id="a_edge52_Node000028_Node000007"><a xlink:title=" ">
<path fill="none" stroke="#63b8ff" d="M1048,-54.75C1048,-47.8 1048,-37.85 1048,-29.13"/>
<polygon fill="#63b8ff" stroke="#63b8ff" points="1051.5,-29.09 1048,-19.09 1044.5,-29.09 1051.5,-29.09"/>
</a>
</g>
</g>
<!-- Node29&#45;&gt;Node4 -->
<g id="edge55_Node000029_Node000004" class="edge">
<title>Node29&#45;&gt;Node4</title>
<g id="a_edge55_Node000029_Node000004"><a xlink:title=" ">
<path fill="none" stroke="#63b8ff" d="M475.99,-226.27C417.12,-220.59 308.87,-200.43 260,-129 249.48,-113.62 256.26,-76.36 271,-55 280.53,-41.19 295.9,-30.79 309.9,-23.53"/>
<polygon fill="#63b8ff" stroke="#63b8ff" points="311.8,-26.5 319.28,-19 308.75,-20.19 311.8,-26.5"/>
</a>
</g>
</g>
<!-- Node29&#45;&gt;Node12 -->
<g id="edge54_Node000029_Node000012" class="edge">
<title>Node29&#45;&gt;Node12</title>
<g id="a_edge54_Node000029_Node000012"><a xlink:title=" ">
<path fill="none" stroke="#63b8ff" d="M556.13,-221.57C612.98,-211.76 716.7,-193.85 776.72,-183.49"/>
<polygon fill="#63b8ff" stroke="#63b8ff" points="777.42,-186.92 786.68,-181.77 776.23,-180.02 777.42,-186.92"/>
</a>
</g>
</g>
<!-- Node29&#45;&gt;Node21 -->
<g id="edge56_Node000029_Node000021" class="edge">
<title>Node29&#45;&gt;Node21</title>
<g id="a_edge56_Node000029_Node000021"><a xlink:title=" ">
<path fill="none" stroke="#63b8ff" d="M505.07,-219.98C494.92,-212.07 479.58,-200.11 467.35,-190.58"/>
<polygon fill="#63b8ff" stroke="#63b8ff" points="469.16,-187.56 459.12,-184.17 464.86,-193.08 469.16,-187.56"/>
</a>
</g>
</g>
</g>
</svg>
