<?xml version="1.0" encoding="UTF-8" standalone="no"?>
<!DOCTYPE svg PUBLIC "-//W3C//DTD SVG 1.1//EN"
 "http://www.w3.org/Graphics/SVG/1.1/DTD/svg11.dtd">
<!-- Generated by graphviz version 12.1.2 (20240928.0832)
 -->
<!-- Title: command_fuzzer.cpp Pages: 1 -->
<svg width="1369pt" height="264pt"
 viewBox="0.00 0.00 1368.75 264.00" xmlns="http://www.w3.org/2000/svg" xmlns:xlink="http://www.w3.org/1999/xlink">
<g id="graph0" class="graph" transform="scale(1 1) rotate(0) translate(4 260)">
<title>command_fuzzer.cpp</title>
<!-- Node1 -->
<g id="Node000001" class="node">
<title>Node1</title>
<g id="a_Node000001"><a xlink:title=" ">
<polygon fill="#999999" stroke="#666666" points="786.38,-256 676.62,-256 676.62,-236 786.38,-236 786.38,-256"/>
<text text-anchor="middle" x="731.5" y="-242.5" font-family="Helvetica,sans-Serif" font-size="10.00">command_fuzzer.cpp</text>
</a>
</g>
</g>
<!-- Node2 -->
<g id="Node000002" class="node">
<title>Node2</title>
<g id="a_Node000002"><a xlink:title=" ">
<polygon fill="#e0e0e0" stroke="#999999" points="43,-194 0,-194 0,-174 43,-174 43,-194"/>
<text text-anchor="middle" x="21.5" y="-180.5" font-family="Helvetica,sans-Serif" font-size="10.00">fcntl.h</text>
</a>
</g>
</g>
<!-- Node1&#45;&gt;Node2 -->
<g id="edge1_Node000001_Node000002" class="edge">
<title>Node1&#45;&gt;Node2</title>
<g id="a_edge1_Node000001_Node000002"><a xlink:title=" ">
<path fill="none" stroke="#63b8ff" d="M676.35,-243.64C537.21,-239.84 174.66,-227.52 57.5,-200 55.51,-199.53 53.49,-198.97 51.47,-198.33"/>
<polygon fill="#63b8ff" stroke="#63b8ff" points="52.93,-195.14 42.34,-194.98 50.52,-201.71 52.93,-195.14"/>
</a>
</g>
</g>
<!-- Node3 -->
<g id="Node000003" class="node">
<title>Node3</title>
<g id="a_Node000003"><a xlink:title=" ">
<polygon fill="#e0e0e0" stroke="#999999" points="950.38,-20 894.62,-20 894.62,0 950.38,0 950.38,-20"/>
<text text-anchor="middle" x="922.5" y="-6.5" font-family="Helvetica,sans-Serif" font-size="10.00">stdbool.h</text>
</a>
</g>
</g>
<!-- Node1&#45;&gt;Node3 -->
<g id="edge2_Node000001_Node000003" class="edge">
<title>Node1&#45;&gt;Node3</title>
<g id="a_edge2_Node000001_Node000003"><a xlink:title=" ">
<path fill="none" stroke="#63b8ff" d="M786.79,-243.35C854.48,-240.03 963.26,-230.04 988.5,-200 1010.87,-173.37 957.94,-72.88 933.76,-30.28"/>
<polygon fill="#63b8ff" stroke="#63b8ff" points="936.82,-28.57 928.8,-21.65 930.75,-32.06 936.82,-28.57"/>
</a>
</g>
</g>
<!-- Node4 -->
<g id="Node000004" class="node">
<title>Node4</title>
<g id="a_Node000004"><a xlink:title=" ">
<polygon fill="#e0e0e0" stroke="#999999" points="337.62,-20 289.38,-20 289.38,0 337.62,0 337.62,-20"/>
<text text-anchor="middle" x="313.5" y="-6.5" font-family="Helvetica,sans-Serif" font-size="10.00">stdint.h</text>
</a>
</g>
</g>
<!-- Node1&#45;&gt;Node4 -->
<g id="edge3_Node000001_Node000004" class="edge">
<title>Node1&#45;&gt;Node4</title>
<g id="a_edge3_Node000001_Node000004"><a xlink:title=" ">
<path fill="none" stroke="#63b8ff" d="M676.25,-245.32C528.02,-245.62 130.03,-242.41 90.5,-200 20.6,-125.02 199.85,-50.69 278.59,-22.67"/>
<polygon fill="#63b8ff" stroke="#63b8ff" points="279.28,-26.14 287.56,-19.53 276.97,-19.53 279.28,-26.14"/>
</a>
</g>
</g>
<!-- Node5 -->
<g id="Node000005" class="node">
<title>Node5</title>
<g id="a_Node000005"><a xlink:href="stdlib_8h.html" target="_top" xlink:title=" ">
<polygon fill="white" stroke="#666666" points="232.25,-194 184.75,-194 184.75,-174 232.25,-174 232.25,-194"/>
<text text-anchor="middle" x="208.5" y="-180.5" font-family="Helvetica,sans-Serif" font-size="10.00">stdlib.h</text>
</a>
</g>
</g>
<!-- Node1&#45;&gt;Node5 -->
<g id="edge4_Node000001_Node000005" class="edge">
<title>Node1&#45;&gt;Node5</title>
<g id="a_edge4_Node000001_Node000005"><a xlink:title=" ">
<path fill="none" stroke="#63b8ff" d="M676.45,-245.88C584.67,-246.03 395.3,-240.77 241.5,-200 239.9,-199.58 238.29,-199.08 236.67,-198.54"/>
<polygon fill="#63b8ff" stroke="#63b8ff" points="238.24,-195.4 227.66,-194.94 235.65,-201.9 238.24,-195.4"/>
</a>
</g>
</g>
<!-- Node6 -->
<g id="Node000006" class="node">
<title>Node6</title>
<g id="a_Node000006"><a xlink:title=" ">
<polygon fill="#e0e0e0" stroke="#999999" points="298.62,-194 250.38,-194 250.38,-174 298.62,-174 298.62,-194"/>
<text text-anchor="middle" x="274.5" y="-180.5" font-family="Helvetica,sans-Serif" font-size="10.00">string.h</text>
</a>
</g>
</g>
<!-- Node1&#45;&gt;Node6 -->
<g id="edge5_Node000001_Node000006" class="edge">
<title>Node1&#45;&gt;Node6</title>
<g id="a_edge5_Node000001_Node000006"><a xlink:title=" ">
<path fill="none" stroke="#63b8ff" d="M676.25,-244.74C594.32,-243.1 436.41,-235.15 307.5,-200 306.1,-199.62 304.68,-199.18 303.27,-198.71"/>
<polygon fill="#63b8ff" stroke="#63b8ff" points="304.6,-195.47 294.02,-195.05 302.03,-201.98 304.6,-195.47"/>
</a>
</g>
</g>
<!-- Node7 -->
<g id="Node000007" class="node">
<title>Node7</title>
<g id="a_Node000007"><a xlink:title=" ">
<polygon fill="#e0e0e0" stroke="#999999" points="376.25,-194 316.75,-194 316.75,-174 376.25,-174 376.25,-194"/>
<text text-anchor="middle" x="346.5" y="-180.5" font-family="Helvetica,sans-Serif" font-size="10.00">sys/stat.h</text>
</a>
</g>
</g>
<!-- Node1&#45;&gt;Node7 -->
<g id="edge6_Node000001_Node000007" class="edge">
<title>Node1&#45;&gt;Node7</title>
<g id="a_edge6_Node000001_Node000007"><a xlink:title=" ">
<path fill="none" stroke="#63b8ff" d="M676.31,-242.05C607.18,-237.41 485.53,-226.06 384.5,-200 382.39,-199.46 380.24,-198.82 378.08,-198.14"/>
<polygon fill="#63b8ff" stroke="#63b8ff" points="379.52,-194.93 368.92,-194.86 377.16,-201.53 379.52,-194.93"/>
</a>
</g>
</g>
<!-- Node8 -->
<g id="Node000008" class="node">
<title>Node8</title>
<g id="a_Node000008"><a xlink:title=" ">
<polygon fill="#e0e0e0" stroke="#999999" points="437,-194 394,-194 394,-174 437,-174 437,-194"/>
<text text-anchor="middle" x="415.5" y="-180.5" font-family="Helvetica,sans-Serif" font-size="10.00">time.h</text>
</a>
</g>
</g>
<!-- Node1&#45;&gt;Node8 -->
<g id="edge7_Node000001_Node000008" class="edge">
<title>Node1&#45;&gt;Node8</title>
<g id="a_edge7_Node000001_Node000008"><a xlink:title=" ">
<path fill="none" stroke="#63b8ff" d="M676.3,-241.12C618.07,-235.91 524.18,-224.34 446.5,-200 445.36,-199.64 444.21,-199.25 443.05,-198.83"/>
<polygon fill="#63b8ff" stroke="#63b8ff" points="444.8,-195.77 434.23,-195.08 442.07,-202.21 444.8,-195.77"/>
</a>
</g>
</g>
<!-- Node9 -->
<g id="Node000009" class="node">
<title>Node9</title>
<g id="a_Node000009"><a xlink:title=" ">
<polygon fill="#e0e0e0" stroke="#999999" points="505.75,-194 455.25,-194 455.25,-174 505.75,-174 505.75,-194"/>
<text text-anchor="middle" x="480.5" y="-180.5" font-family="Helvetica,sans-Serif" font-size="10.00">unistd.h</text>
</a>
</g>
</g>
<!-- Node1&#45;&gt;Node9 -->
<g id="edge8_Node000001_Node000009" class="edge">
<title>Node1&#45;&gt;Node9</title>
<g id="a_edge8_Node000001_Node000009"><a xlink:title=" ">
<path fill="none" stroke="#63b8ff" d="M676.28,-236.86C631.92,-229.53 568.36,-217.25 514.5,-200 513.15,-199.57 511.79,-199.1 510.41,-198.61"/>
<polygon fill="#63b8ff" stroke="#63b8ff" points="511.99,-195.47 501.41,-195.01 509.4,-201.97 511.99,-195.47"/>
</a>
</g>
</g>
<!-- Node10 -->
<g id="Node000010" class="node">
<title>Node10</title>
<g id="a_Node000010"><a xlink:title=" ">
<polygon fill="#e0e0e0" stroke="#999999" points="573,-194 524,-194 524,-174 573,-174 573,-194"/>
<text text-anchor="middle" x="548.5" y="-180.5" font-family="Helvetica,sans-Serif" font-size="10.00">fstream</text>
</a>
</g>
</g>
<!-- Node1&#45;&gt;Node10 -->
<g id="edge9_Node000001_Node000010" class="edge">
<title>Node1&#45;&gt;Node10</title>
<g id="a_edge9_Node000001_Node000010"><a xlink:title=" ">
<path fill="none" stroke="#63b8ff" d="M699.28,-235.58C669.97,-226.85 625.59,-213.26 587.5,-200 585.96,-199.46 584.39,-198.91 582.8,-198.33"/>
<polygon fill="#63b8ff" stroke="#63b8ff" points="584.35,-195.17 573.75,-194.97 581.91,-201.74 584.35,-195.17"/>
</a>
</g>
</g>
<!-- Node11 -->
<g id="Node000011" class="node">
<title>Node11</title>
<g id="a_Node000011"><a xlink:title=" ">
<polygon fill="#e0e0e0" stroke="#999999" points="1291.88,-20 1221.12,-20 1221.12,0 1291.88,0 1291.88,-20"/>
<text text-anchor="middle" x="1256.5" y="-6.5" font-family="Helvetica,sans-Serif" font-size="10.00">FreeRTOS.h</text>
</a>
</g>
</g>
<!-- Node1&#45;&gt;Node11 -->
<g id="edge10_Node000001_Node000011" class="edge">
<title>Node1&#45;&gt;Node11</title>
<g id="a_edge10_Node000001_Node000011"><a xlink:title=" ">
<path fill="none" stroke="#63b8ff" d="M786.58,-243.97C910.9,-241.09 1204.93,-231.05 1236.5,-200 1282.04,-155.21 1270.14,-70.09 1261.63,-31.24"/>
<polygon fill="#63b8ff" stroke="#63b8ff" points="1265.07,-30.56 1259.37,-21.64 1258.26,-32.17 1265.07,-30.56"/>
</a>
</g>
</g>
<!-- Node12 -->
<g id="Node000012" class="node">
<title>Node12</title>
<g id="a_Node000012"><a xlink:title=" ">
<polygon fill="#e0e0e0" stroke="#999999" points="709.75,-194 629.25,-194 629.25,-174 709.75,-174 709.75,-194"/>
<text text-anchor="middle" x="669.5" y="-180.5" font-family="Helvetica,sans-Serif" font-size="10.00">command.pb.h</text>
</a>
</g>
</g>
<!-- Node1&#45;&gt;Node12 -->
<g id="edge11_Node000001_Node000012" class="edge">
<title>Node1&#45;&gt;Node12</title>
<g id="a_edge11_Node000001_Node000012"><a xlink:title=" ">
<path fill="none" stroke="#63b8ff" d="M721.81,-235.62C712.57,-226.68 698.42,-212.99 687.17,-202.1"/>
<polygon fill="#63b8ff" stroke="#63b8ff" points="689.62,-199.6 680,-195.17 684.76,-204.63 689.62,-199.6"/>
</a>
</g>
</g>
<!-- Node13 -->
<g id="Node000013" class="node">
<title>Node13</title>
<g id="a_Node000013"><a xlink:title=" ">
<polygon fill="#e0e0e0" stroke="#999999" points="858.88,-200 728.12,-200 728.12,-168 858.88,-168 858.88,-200"/>
<text text-anchor="start" x="736.12" y="-186.5" font-family="Helvetica,sans-Serif" font-size="10.00">google/protobuf/io</text>
<text text-anchor="middle" x="793.5" y="-174.5" font-family="Helvetica,sans-Serif" font-size="10.00">/zero_copy_stream_impl.h</text>
</a>
</g>
</g>
<!-- Node1&#45;&gt;Node13 -->
<g id="edge12_Node000001_Node000013" class="edge">
<title>Node1&#45;&gt;Node13</title>
<g id="a_edge12_Node000001_Node000013"><a xlink:title=" ">
<path fill="none" stroke="#63b8ff" d="M741.19,-235.62C748.85,-228.21 759.88,-217.53 769.84,-207.9"/>
<polygon fill="#63b8ff" stroke="#63b8ff" points="772.02,-210.66 776.77,-201.19 767.15,-205.63 772.02,-210.66"/>
</a>
</g>
</g>
<!-- Node14 -->
<g id="Node000014" class="node">
<title>Node14</title>
<g id="a_Node000014"><a xlink:title=" ">
<polygon fill="#e0e0e0" stroke="#999999" points="979.62,-200 877.38,-200 877.38,-168 979.62,-168 979.62,-200"/>
<text text-anchor="start" x="885.38" y="-186.5" font-family="Helvetica,sans-Serif" font-size="10.00">google/protobuf/text</text>
<text text-anchor="middle" x="928.5" y="-174.5" font-family="Helvetica,sans-Serif" font-size="10.00">_format.h</text>
</a>
</g>
</g>
<!-- Node1&#45;&gt;Node14 -->
<g id="edge13_Node000001_Node000014" class="edge">
<title>Node1&#45;&gt;Node14</title>
<g id="a_edge13_Node000001_Node000014"><a xlink:title=" ">
<path fill="none" stroke="#63b8ff" d="M762.28,-235.62C790.11,-227.15 831.92,-214.42 866.64,-203.84"/>
<polygon fill="#63b8ff" stroke="#63b8ff" points="867.65,-207.19 876.19,-200.93 865.61,-200.5 867.65,-207.19"/>
</a>
</g>
</g>
<!-- Node15 -->
<g id="Node000015" class="node">
<title>Node15</title>
<g id="a_Node000015"><a xlink:title=" ">
<polygon fill="#e0e0e0" stroke="#999999" points="1360.75,-20 1310.25,-20 1310.25,0 1360.75,0 1360.75,-20"/>
<text text-anchor="middle" x="1335.5" y="-6.5" font-family="Helvetica,sans-Serif" font-size="10.00">queue.h</text>
</a>
</g>
</g>
<!-- Node1&#45;&gt;Node15 -->
<g id="edge14_Node000001_Node000015" class="edge">
<title>Node1&#45;&gt;Node15</title>
<g id="a_edge14_Node000001_Node000015"><a xlink:title=" ">
<path fill="none" stroke="#63b8ff" d="M786.84,-243.69C920.89,-240.08 1255.08,-228.33 1296.5,-200 1347.04,-165.44 1342.82,-135.68 1356.5,-76 1360.11,-60.26 1353.94,-42.89 1347.37,-30.06"/>
<polygon fill="#63b8ff" stroke="#63b8ff" points="1350.46,-28.41 1342.48,-21.43 1344.37,-31.86 1350.46,-28.41"/>
</a>
</g>
</g>
<!-- Node16 -->
<g id="Node000016" class="node">
<title>Node16</title>
<g id="a_Node000016"><a xlink:title=" ">
<polygon fill="#e0e0e0" stroke="#999999" points="1128,-20 1085,-20 1085,0 1128,0 1128,-20"/>
<text text-anchor="middle" x="1106.5" y="-6.5" font-family="Helvetica,sans-Serif" font-size="10.00">task.h</text>
</a>
</g>
</g>
<!-- Node1&#45;&gt;Node16 -->
<g id="edge15_Node000001_Node000016" class="edge">
<title>Node1&#45;&gt;Node16</title>
<g id="a_edge15_Node000001_Node000016"><a xlink:title=" ">
<path fill="none" stroke="#63b8ff" d="M786.84,-243.84C866.03,-241.08 1006.35,-231.72 1044.5,-200 1095.91,-157.27 1105.02,-71.09 1106.41,-31.61"/>
<polygon fill="#63b8ff" stroke="#63b8ff" points="1109.9,-31.92 1106.6,-21.85 1102.9,-31.78 1109.9,-31.92"/>
</a>
</g>
</g>
<!-- Node17 -->
<g id="Node000017" class="node">
<title>Node17</title>
<g id="a_Node000017"><a xlink:title=" ">
<polygon fill="#e0e0e0" stroke="#999999" points="619.38,-132 539.62,-132 539.62,-112 619.38,-112 619.38,-132"/>
<text text-anchor="middle" x="579.5" y="-118.5" font-family="Helvetica,sans-Serif" font-size="10.00">spacepacket.h</text>
</a>
</g>
</g>
<!-- Node1&#45;&gt;Node17 -->
<g id="edge16_Node000001_Node000017" class="edge">
<title>Node1&#45;&gt;Node17</title>
<g id="a_edge16_Node000001_Node000017"><a xlink:title=" ">
<path fill="none" stroke="#63b8ff" d="M689.76,-235.54C667.16,-228.71 639.97,-217.54 620.5,-200 603.4,-184.59 592.15,-160.33 585.83,-143.16"/>
<polygon fill="#63b8ff" stroke="#63b8ff" points="589.18,-142.15 582.65,-133.81 582.56,-144.41 589.18,-142.15"/>
</a>
</g>
</g>
<!-- Node18 -->
<g id="Node000018" class="node">
<title>Node18</title>
<g id="a_Node000018"><a xlink:href="command_8h.html" target="_top" xlink:title=" ">
<polygon fill="white" stroke="#666666" points="167,-194 100,-194 100,-174 167,-174 167,-194"/>
<text text-anchor="middle" x="133.5" y="-180.5" font-family="Helvetica,sans-Serif" font-size="10.00">command.h</text>
</a>
</g>
</g>
<!-- Node1&#45;&gt;Node18 -->
<g id="edge17_Node000001_Node000018" class="edge">
<title>Node1&#45;&gt;Node18</title>
<g id="a_edge17_Node000001_Node000018"><a xlink:title=" ">
<path fill="none" stroke="#63b8ff" d="M676.35,-245.29C575.68,-244.77 355.86,-238.8 175.5,-200 172.72,-199.4 169.87,-198.67 167.03,-197.84"/>
<polygon fill="#63b8ff" stroke="#63b8ff" points="168.32,-194.58 157.73,-194.83 166.16,-201.24 168.32,-194.58"/>
</a>
</g>
</g>
<!-- Node20 -->
<g id="Node000020" class="node">
<title>Node20</title>
<g id="a_Node000020"><a xlink:href="filesystem_8h.html" target="_top" xlink:title=" ">
<polygon fill="white" stroke="#666666" points="1077.12,-76 1007.88,-76 1007.88,-56 1077.12,-56 1077.12,-76"/>
<text text-anchor="middle" x="1042.5" y="-62.5" font-family="Helvetica,sans-Serif" font-size="10.00">filesystem.h</text>
</a>
</g>
</g>
<!-- Node1&#45;&gt;Node20 -->
<g id="edge32_Node000001_Node000020" class="edge">
<title>Node1&#45;&gt;Node20</title>
<g id="a_edge32_Node000001_Node000020"><a xlink:title=" ">
<path fill="none" stroke="#63b8ff" d="M786.6,-243.94C861.37,-241.29 989.35,-232.07 1021.5,-200 1051.2,-170.38 1049.58,-116.93 1045.96,-87.62"/>
<polygon fill="#63b8ff" stroke="#63b8ff" points="1049.44,-87.23 1044.53,-77.84 1042.51,-88.25 1049.44,-87.23"/>
</a>
</g>
</g>
<!-- Node24 -->
<g id="Node000024" class="node">
<title>Node24</title>
<g id="a_Node000024"><a xlink:href="gse_8h.html" target="_top" xlink:title=" ">
<polygon fill="white" stroke="#666666" points="1227.5,-194 1187.5,-194 1187.5,-174 1227.5,-174 1227.5,-194"/>
<text text-anchor="middle" x="1207.5" y="-180.5" font-family="Helvetica,sans-Serif" font-size="10.00">gse.h</text>
</a>
</g>
</g>
<!-- Node1&#45;&gt;Node24 -->
<g id="edge33_Node000001_Node000024" class="edge">
<title>Node1&#45;&gt;Node24</title>
<g id="a_edge33_Node000001_Node000024"><a xlink:title=" ">
<path fill="none" stroke="#63b8ff" d="M786.58,-244.89C871.18,-243.51 1037.6,-235.93 1173.5,-200 1175.1,-199.58 1176.72,-199.09 1178.34,-198.55"/>
<polygon fill="#63b8ff" stroke="#63b8ff" points="1179.35,-201.92 1187.41,-195.04 1176.82,-195.39 1179.35,-201.92"/>
</a>
</g>
</g>
<!-- Node25 -->
<g id="Node000025" class="node">
<title>Node25</title>
<g id="a_Node000025"><a xlink:href="log_8h.html" target="_top" xlink:title=" ">
<polygon fill="white" stroke="#666666" points="1149,-132 1112,-132 1112,-112 1149,-112 1149,-132"/>
<text text-anchor="middle" x="1130.5" y="-118.5" font-family="Helvetica,sans-Serif" font-size="10.00">log.h</text>
</a>
</g>
</g>
<!-- Node1&#45;&gt;Node25 -->
<g id="edge34_Node000001_Node000025" class="edge">
<title>Node1&#45;&gt;Node25</title>
<g id="a_edge34_Node000001_Node000025"><a xlink:title=" ">
<path fill="none" stroke="#63b8ff" d="M786.86,-244.78C876.87,-243.37 1049.7,-235.9 1097.5,-200 1115.37,-186.58 1123.67,-161.54 1127.46,-143.65"/>
<polygon fill="#63b8ff" stroke="#63b8ff" points="1130.89,-144.35 1129.19,-133.9 1124,-143.13 1130.89,-144.35"/>
</a>
</g>
</g>
<!-- Node26 -->
<g id="Node000026" class="node">
<title>Node26</title>
<g id="a_Node000026"><a xlink:href="telemetry_8h.html" target="_top" xlink:title=" ">
<polygon fill="white" stroke="#666666" points="1347.5,-76 1283.5,-76 1283.5,-56 1347.5,-56 1347.5,-76"/>
<text text-anchor="middle" x="1315.5" y="-62.5" font-family="Helvetica,sans-Serif" font-size="10.00">telemetry.h</text>
</a>
</g>
</g>
<!-- Node1&#45;&gt;Node26 -->
<g id="edge41_Node000001_Node000026" class="edge">
<title>Node1&#45;&gt;Node26</title>
<g id="a_edge41_Node000001_Node000026"><a xlink:title=" ">
<path fill="none" stroke="#63b8ff" d="M786.78,-243.75C916.43,-240.35 1231.99,-229.15 1269.5,-200 1304.44,-172.85 1312.97,-117.54 1314.96,-87.51"/>
<polygon fill="#63b8ff" stroke="#63b8ff" points="1318.44,-88 1315.41,-77.85 1311.45,-87.68 1318.44,-88"/>
</a>
</g>
</g>
<!-- Node27 -->
<g id="Node000027" class="node">
<title>Node27</title>
<g id="a_Node000027"><a xlink:href="steve_8h.html" target="_top" xlink:title=" ">
<polygon fill="white" stroke="#666666" points="1199.62,-76 1151.38,-76 1151.38,-56 1199.62,-56 1199.62,-76"/>
<text text-anchor="middle" x="1175.5" y="-62.5" font-family="Helvetica,sans-Serif" font-size="10.00">steve.h</text>
</a>
</g>
</g>
<!-- Node1&#45;&gt;Node27 -->
<g id="edge39_Node000001_Node000027" class="edge">
<title>Node1&#45;&gt;Node27</title>
<g id="a_edge39_Node000001_Node000027"><a xlink:title=" ">
<path fill="none" stroke="#63b8ff" d="M786.87,-244.85C881.47,-243.59 1069.18,-236.42 1122.5,-200 1159.86,-174.48 1170.88,-118.03 1174.14,-87.52"/>
<polygon fill="#63b8ff" stroke="#63b8ff" points="1177.61,-87.97 1174.98,-77.71 1170.64,-87.37 1177.61,-87.97"/>
</a>
</g>
</g>
<!-- Node18&#45;&gt;Node4 -->
<g id="edge18_Node000018_Node000004" class="edge">
<title>Node18&#45;&gt;Node4</title>
<g id="a_edge18_Node000018_Node000004"><a xlink:title=" ">
<path fill="none" stroke="#63b8ff" d="M143.43,-173.51C172.64,-145.6 258.49,-63.56 295.83,-27.89"/>
<polygon fill="#63b8ff" stroke="#63b8ff" points="297.91,-30.74 302.72,-21.3 293.07,-25.68 297.91,-30.74"/>
</a>
</g>
</g>
<!-- Node18&#45;&gt;Node17 -->
<g id="edge19_Node000018_Node000017" class="edge">
<title>Node18&#45;&gt;Node17</title>
<g id="a_edge19_Node000018_Node000017"><a xlink:title=" ">
<path fill="none" stroke="#63b8ff" d="M156.76,-173.61C162.78,-171.48 169.31,-169.43 175.5,-168 241.28,-152.81 434.38,-135.19 527.76,-127.26"/>
<polygon fill="#63b8ff" stroke="#63b8ff" points="527.99,-130.75 537.66,-126.42 527.41,-123.77 527.99,-130.75"/>
</a>
</g>
</g>
<!-- Node19 -->
<g id="Node000019" class="node">
<title>Node19</title>
<g id="a_Node000019"><a xlink:href="user__auth_8h.html" target="_top" xlink:title=" ">
<polygon fill="white" stroke="#666666" points="443,-132 376,-132 376,-112 443,-112 443,-132"/>
<text text-anchor="middle" x="409.5" y="-118.5" font-family="Helvetica,sans-Serif" font-size="10.00">user_auth.h</text>
</a>
</g>
</g>
<!-- Node18&#45;&gt;Node19 -->
<g id="edge20_Node000018_Node000019" class="edge">
<title>Node18&#45;&gt;Node19</title>
<g id="a_edge20_Node000018_Node000019"><a xlink:title=" ">
<path fill="none" stroke="#63b8ff" d="M157.73,-173.64C163.5,-171.6 169.67,-169.59 175.5,-168 240.39,-150.29 317.25,-136.92 364.69,-129.53"/>
<polygon fill="#63b8ff" stroke="#63b8ff" points="364.96,-133.03 374.31,-128.05 363.89,-126.11 364.96,-133.03"/>
</a>
</g>
</g>
<!-- Node19&#45;&gt;Node3 -->
<g id="edge21_Node000019_Node000003" class="edge">
<title>Node19&#45;&gt;Node3</title>
<g id="a_edge21_Node000019_Node000003"><a xlink:title=" ">
<path fill="none" stroke="#63b8ff" d="M443.16,-113.78C534.3,-94.24 785.57,-40.36 883.09,-19.45"/>
<polygon fill="#63b8ff" stroke="#63b8ff" points="883.68,-22.9 892.72,-17.39 882.21,-16.06 883.68,-22.9"/>
</a>
</g>
</g>
<!-- Node19&#45;&gt;Node4 -->
<g id="edge22_Node000019_Node000004" class="edge">
<title>Node19&#45;&gt;Node4</title>
<g id="a_edge22_Node000019_Node000004"><a xlink:title=" ">
<path fill="none" stroke="#63b8ff" d="M401.32,-111.62C385.3,-93.27 349.61,-52.37 328.99,-28.75"/>
<polygon fill="#63b8ff" stroke="#63b8ff" points="331.87,-26.73 322.66,-21.5 326.6,-31.33 331.87,-26.73"/>
</a>
</g>
</g>
<!-- Node19&#45;&gt;Node20 -->
<g id="edge23_Node000019_Node000020" class="edge">
<title>Node19&#45;&gt;Node20</title>
<g id="a_edge23_Node000019_Node000020"><a xlink:title=" ">
<path fill="none" stroke="#63b8ff" d="M443.09,-118.13C548.71,-109.12 874.31,-81.35 995.99,-70.97"/>
<polygon fill="#63b8ff" stroke="#63b8ff" points="996.27,-74.46 1005.94,-70.12 995.68,-67.48 996.27,-74.46"/>
</a>
</g>
</g>
<!-- Node20&#45;&gt;Node3 -->
<g id="edge31_Node000020_Node000003" class="edge">
<title>Node20&#45;&gt;Node3</title>
<g id="a_edge31_Node000020_Node000003"><a xlink:title=" ">
<path fill="none" stroke="#63b8ff" d="M1021.6,-55.59C1002.87,-47.17 975.14,-34.69 953.78,-25.07"/>
<polygon fill="#63b8ff" stroke="#63b8ff" points="955.5,-22.01 944.95,-21.1 952.63,-28.4 955.5,-22.01"/>
</a>
</g>
</g>
<!-- Node20&#45;&gt;Node4 -->
<g id="edge30_Node000020_Node000004" class="edge">
<title>Node20&#45;&gt;Node4</title>
<g id="a_edge30_Node000020_Node000004"><a xlink:title=" ">
<path fill="none" stroke="#63b8ff" d="M1007.83,-62.43C885.42,-53.36 474.2,-22.9 349.59,-13.67"/>
<polygon fill="#63b8ff" stroke="#63b8ff" points="349.86,-10.18 339.62,-12.94 349.34,-17.16 349.86,-10.18"/>
</a>
</g>
</g>
<!-- Node20&#45;&gt;Node11 -->
<g id="edge24_Node000020_Node000011" class="edge">
<title>Node20&#45;&gt;Node11</title>
<g id="a_edge24_Node000020_Node000011"><a xlink:title=" ">
<path fill="none" stroke="#63b8ff" d="M1077.36,-56.2C1113.44,-47.1 1170.01,-32.83 1209.91,-22.76"/>
<polygon fill="#63b8ff" stroke="#63b8ff" points="1210.64,-26.18 1219.48,-20.34 1208.92,-19.4 1210.64,-26.18"/>
</a>
</g>
</g>
<!-- Node20&#45;&gt;Node15 -->
<g id="edge25_Node000020_Node000015" class="edge">
<title>Node20&#45;&gt;Node15</title>
<g id="a_edge25_Node000020_Node000015"><a xlink:title=" ">
<path fill="none" stroke="#63b8ff" d="M1077.31,-59.82C1124.94,-52.55 1213.33,-38.35 1298.73,-20.23"/>
<polygon fill="#63b8ff" stroke="#63b8ff" points="1299.42,-23.66 1308.46,-18.14 1297.95,-16.81 1299.42,-23.66"/>
</a>
</g>
</g>
<!-- Node20&#45;&gt;Node16 -->
<g id="edge26_Node000020_Node000016" class="edge">
<title>Node20&#45;&gt;Node16</title>
<g id="a_edge26_Node000020_Node000016"><a xlink:title=" ">
<path fill="none" stroke="#63b8ff" d="M1053.65,-55.59C1062.83,-47.85 1076.05,-36.69 1086.98,-27.47"/>
<polygon fill="#63b8ff" stroke="#63b8ff" points="1088.94,-30.4 1094.32,-21.27 1084.42,-25.05 1088.94,-30.4"/>
</a>
</g>
</g>
<!-- Node21 -->
<g id="Node000021" class="node">
<title>Node21</title>
<g id="a_Node000021"><a xlink:title=" ">
<polygon fill="#e0e0e0" stroke="#999999" points="998.25,-20 968.75,-20 968.75,0 998.25,0 998.25,-20"/>
<text text-anchor="middle" x="983.5" y="-6.5" font-family="Helvetica,sans-Serif" font-size="10.00">ff.h</text>
</a>
</g>
</g>
<!-- Node20&#45;&gt;Node21 -->
<g id="edge27_Node000020_Node000021" class="edge">
<title>Node20&#45;&gt;Node21</title>
<g id="a_edge27_Node000020_Node000021"><a xlink:title=" ">
<path fill="none" stroke="#63b8ff" d="M1032.22,-55.59C1023.93,-48.01 1012.05,-37.13 1002.1,-28.02"/>
<polygon fill="#63b8ff" stroke="#63b8ff" points="1004.52,-25.49 994.78,-21.32 999.79,-30.65 1004.52,-25.49"/>
</a>
</g>
</g>
<!-- Node22 -->
<g id="Node000022" class="node">
<title>Node22</title>
<g id="a_Node000022"><a xlink:title=" ">
<polygon fill="#e0e0e0" stroke="#999999" points="1202.75,-20 1146.25,-20 1146.25,0 1202.75,0 1202.75,-20"/>
<text text-anchor="middle" x="1174.5" y="-6.5" font-family="Helvetica,sans-Serif" font-size="10.00">semphr.h</text>
</a>
</g>
</g>
<!-- Node20&#45;&gt;Node22 -->
<g id="edge28_Node000020_Node000022" class="edge">
<title>Node20&#45;&gt;Node22</title>
<g id="a_edge28_Node000020_Node000022"><a xlink:title=" ">
<path fill="none" stroke="#63b8ff" d="M1065.49,-55.59C1086.28,-47.09 1117.15,-34.46 1140.74,-24.81"/>
<polygon fill="#63b8ff" stroke="#63b8ff" points="1142,-28.08 1149.93,-21.05 1139.35,-21.6 1142,-28.08"/>
</a>
</g>
</g>
<!-- Node23 -->
<g id="Node000023" class="node">
<title>Node23</title>
<g id="a_Node000023"><a xlink:title=" ">
<polygon fill="#e0e0e0" stroke="#999999" points="1067.12,-20 1015.88,-20 1015.88,0 1067.12,0 1067.12,-20"/>
<text text-anchor="middle" x="1041.5" y="-6.5" font-family="Helvetica,sans-Serif" font-size="10.00">stddef.h</text>
</a>
</g>
</g>
<!-- Node20&#45;&gt;Node23 -->
<g id="edge29_Node000020_Node000023" class="edge">
<title>Node20&#45;&gt;Node23</title>
<g id="a_edge29_Node000020_Node000023"><a xlink:title=" ">
<path fill="none" stroke="#63b8ff" d="M1042.33,-55.59C1042.2,-49.01 1042.04,-39.96 1041.88,-31.73"/>
<polygon fill="#63b8ff" stroke="#63b8ff" points="1045.38,-31.75 1041.7,-21.81 1038.39,-31.87 1045.38,-31.75"/>
</a>
</g>
</g>
<!-- Node25&#45;&gt;Node3 -->
<g id="edge38_Node000025_Node000003" class="edge">
<title>Node25&#45;&gt;Node3</title>
<g id="a_edge38_Node000025_Node000003"><a xlink:title=" ">
<path fill="none" stroke="#63b8ff" d="M1111.63,-116.96C1085.13,-110.76 1035.94,-97.34 998.5,-76 975.77,-63.04 953.46,-42.81 938.95,-28.36"/>
<polygon fill="#63b8ff" stroke="#63b8ff" points="941.55,-26.01 932.06,-21.31 936.55,-30.91 941.55,-26.01"/>
</a>
</g>
</g>
<!-- Node25&#45;&gt;Node26 -->
<g id="edge35_Node000025_Node000026" class="edge">
<title>Node25&#45;&gt;Node26</title>
<g id="a_edge35_Node000025_Node000026"><a xlink:title=" ">
<path fill="none" stroke="#63b8ff" d="M1149.26,-115.53C1177.85,-107.18 1233.12,-91.05 1272.06,-79.68"/>
<polygon fill="#63b8ff" stroke="#63b8ff" points="1273.01,-83.05 1281.63,-76.89 1271.05,-76.33 1273.01,-83.05"/>
</a>
</g>
</g>
<!-- Node26&#45;&gt;Node11 -->
<g id="edge36_Node000026_Node000011" class="edge">
<title>Node26&#45;&gt;Node11</title>
<g id="a_edge36_Node000026_Node000011"><a xlink:title=" ">
<path fill="none" stroke="#63b8ff" d="M1305.22,-55.59C1296.93,-48.01 1285.05,-37.13 1275.1,-28.02"/>
<polygon fill="#63b8ff" stroke="#63b8ff" points="1277.52,-25.49 1267.78,-21.32 1272.79,-30.65 1277.52,-25.49"/>
</a>
</g>
</g>
<!-- Node26&#45;&gt;Node15 -->
<g id="edge37_Node000026_Node000015" class="edge">
<title>Node26&#45;&gt;Node15</title>
<g id="a_edge37_Node000026_Node000015"><a xlink:title=" ">
<path fill="none" stroke="#63b8ff" d="M1318.98,-55.59C1321.51,-48.78 1325.01,-39.32 1328.14,-30.86"/>
<polygon fill="#63b8ff" stroke="#63b8ff" points="1331.34,-32.31 1331.53,-21.72 1324.78,-29.88 1331.34,-32.31"/>
</a>
</g>
</g>
<!-- Node27&#45;&gt;Node22 -->
<g id="edge40_Node000027_Node000022" class="edge">
<title>Node27&#45;&gt;Node22</title>
<g id="a_edge40_Node000027_Node000022"><a xlink:title=" ">
<path fill="none" stroke="#63b8ff" d="M1175.33,-55.59C1175.2,-49.01 1175.04,-39.96 1174.88,-31.73"/>
<polygon fill="#63b8ff" stroke="#63b8ff" points="1178.38,-31.75 1174.7,-21.81 1171.39,-31.87 1178.38,-31.75"/>
</a>
</g>
</g>
</g>
</svg>
