<?xml version="1.0" encoding="UTF-8" standalone="no"?>
<!DOCTYPE svg PUBLIC "-//W3C//DTD SVG 1.1//EN"
 "http://www.w3.org/Graphics/SVG/1.1/DTD/svg11.dtd">
<!-- Generated by graphviz version 12.1.2 (20240928.0832)
 -->
<!-- Title: parse_command_packet Pages: 1 -->
<svg width="736pt" height="1198pt"
 viewBox="0.00 0.00 736.00 1197.71" xmlns="http://www.w3.org/2000/svg" xmlns:xlink="http://www.w3.org/1999/xlink">
<g id="graph0" class="graph" transform="scale(1 1) rotate(0) translate(4 1193.71)">
<title>parse_command_packet</title>
<!-- Node1 -->
<g id="Node000001" class="node">
<title>Node1</title>
<g id="a_Node000001"><a xlink:title=" ">
<polygon fill="#999999" stroke="#666666" points="122.5,-450 0,-450 0,-430 122.5,-430 122.5,-450"/>
<text text-anchor="middle" x="61.25" y="-436.5" font-family="Helvetica,sans-Serif" font-size="10.00">parse_command_packet</text>
</a>
</g>
</g>
<!-- Node2 -->
<g id="Node000002" class="node">
<title>Node2</title>
<g id="a_Node000002"><a xlink:href="user__auth_8c.html#a2e45341289a64a026113badabc8369cc" target="_top" xlink:title=" ">
<polygon fill="white" stroke="#666666" points="254,-792 198.25,-792 198.25,-772 254,-772 254,-792"/>
<text text-anchor="middle" x="226.12" y="-778.5" font-family="Helvetica,sans-Serif" font-size="10.00">add_user</text>
</a>
</g>
</g>
<!-- Node1&#45;&gt;Node2 -->
<g id="edge1_Node000001_Node000002" class="edge">
<title>Node1&#45;&gt;Node2</title>
<g id="a_edge1_Node000001_Node000002"><a xlink:title=" ">
<path fill="none" stroke="#63b8ff" d="M63.73,-450.47C69.66,-489.68 94.6,-630.46 158.5,-725 169.24,-740.88 185.53,-754.93 199.32,-765.11"/>
<polygon fill="#63b8ff" stroke="#63b8ff" points="196.95,-767.72 207.13,-770.64 200.99,-762 196.95,-767.72"/>
</a>
</g>
</g>
<!-- Node9 -->
<g id="Node000009" class="node">
<title>Node9</title>
<g id="a_Node000009"><a xlink:href="filesystem_8c.html#a20ca64a89158ccc1eb3f714b3d8725f5" target="_top" xlink:title=" ">
<polygon fill="white" stroke="#666666" points="408.38,-982 352.62,-982 352.62,-962 408.38,-962 408.38,-982"/>
<text text-anchor="middle" x="380.5" y="-968.5" font-family="Helvetica,sans-Serif" font-size="10.00">make_dir</text>
</a>
</g>
</g>
<!-- Node1&#45;&gt;Node9 -->
<g id="edge36_Node000001_Node000009" class="edge">
<title>Node1&#45;&gt;Node9</title>
<g id="a_edge36_Node000001_Node000009"><a xlink:title=" ">
<path fill="none" stroke="#63b8ff" d="M62.85,-450.31C65.89,-495.33 82.56,-677.89 158.5,-801 185.21,-844.31 286.25,-926.6 329.75,-953 333.55,-955.31 337.69,-957.42 341.89,-959.33"/>
<polygon fill="#63b8ff" stroke="#63b8ff" points="340.35,-962.48 350.93,-963.07 343.03,-956.01 340.35,-962.48"/>
</a>
</g>
</g>
<!-- Node10 -->
<g id="Node000010" class="node">
<title>Node10</title>
<g id="a_Node000010"><a xlink:href="filesystem_8c.html#a8e5a51c709e9d6229c1974435475292a" target="_top" xlink:title=" ">
<polygon fill="white" stroke="#666666" points="548.12,-640 493.12,-640 493.12,-620 548.12,-620 548.12,-640"/>
<text text-anchor="middle" x="520.62" y="-626.5" font-family="Helvetica,sans-Serif" font-size="10.00">write_file</text>
</a>
</g>
</g>
<!-- Node1&#45;&gt;Node10 -->
<g id="edge69_Node000001_Node000010" class="edge">
<title>Node1&#45;&gt;Node10</title>
<g id="a_edge69_Node000001_Node000010"><a xlink:title=" ">
<path fill="none" stroke="#63b8ff" d="M122.74,-436.02C214.1,-431.16 381.85,-427.15 431.25,-459 484.5,-493.33 507.34,-570.58 515.62,-608.37"/>
<polygon fill="#63b8ff" stroke="#63b8ff" points="512.17,-608.96 517.59,-618.06 519.03,-607.57 512.17,-608.96"/>
</a>
</g>
</g>
<!-- Node11 -->
<g id="Node000011" class="node">
<title>Node11</title>
<g id="a_Node000011"><a xlink:href="filesystem_8c.html#aedf13aa9daded9085cdb13bc1560947b" target="_top" xlink:title=" ">
<polygon fill="white" stroke="#666666" points="240.88,-1096 211.38,-1096 211.38,-1076 240.88,-1076 240.88,-1096"/>
<text text-anchor="middle" x="226.12" y="-1082.5" font-family="Helvetica,sans-Serif" font-size="10.00">cat</text>
</a>
</g>
</g>
<!-- Node1&#45;&gt;Node11 -->
<g id="edge11_Node000001_Node000011" class="edge">
<title>Node1&#45;&gt;Node11</title>
<g id="a_edge11_Node000001_Node000011"><a xlink:title=" ">
<path fill="none" stroke="#63b8ff" d="M62.64,-450.5C65.51,-522.95 85.33,-948.87 158.5,-1051 168.47,-1064.91 185.68,-1073.75 200.11,-1079.07"/>
<polygon fill="#63b8ff" stroke="#63b8ff" points="198.86,-1082.34 209.46,-1082.13 201.04,-1075.69 198.86,-1082.34"/>
</a>
</g>
</g>
<!-- Node13 -->
<g id="Node000013" class="node">
<title>Node13</title>
<g id="a_Node000013"><a xlink:href="telemetry_8c.html#a6dbf6c6cfd75451e5642ca0b64bf7f5a" target="_top" xlink:title=" ">
<polygon fill="white" stroke="#666666" points="562,-1172 479.25,-1172 479.25,-1152 562,-1152 562,-1172"/>
<text text-anchor="middle" x="520.62" y="-1158.5" font-family="Helvetica,sans-Serif" font-size="10.00">send_telemetry</text>
</a>
</g>
</g>
<!-- Node1&#45;&gt;Node13 -->
<g id="edge49_Node000001_Node000013" class="edge">
<title>Node1&#45;&gt;Node13</title>
<g id="a_edge49_Node000001_Node000013"><a xlink:title=" ">
<path fill="none" stroke="#63b8ff" d="M62.42,-450.49C63.81,-526.7 75.72,-995.75 158.5,-1105 234.5,-1205.3 306.11,-1194.3 431.25,-1181 443.56,-1179.69 456.67,-1177.39 468.92,-1174.82"/>
<polygon fill="#63b8ff" stroke="#63b8ff" points="469.39,-1178.3 478.4,-1172.74 467.88,-1171.47 469.39,-1178.3"/>
</a>
</g>
</g>
<!-- Node15 -->
<g id="Node000015" class="node">
<title>Node15</title>
<g id="a_Node000015"><a xlink:href="filesystem_8c.html#a02c1e03f51146617a18f5bcc96099220" target="_top" xlink:title=" ">
<polygon fill="white" stroke="#666666" points="410.62,-526 350.38,-526 350.38,-506 410.62,-506 410.62,-526"/>
<text text-anchor="middle" x="380.5" y="-512.5" font-family="Helvetica,sans-Serif" font-size="10.00">delete_file</text>
</a>
</g>
</g>
<!-- Node1&#45;&gt;Node15 -->
<g id="edge16_Node000001_Node000015" class="edge">
<title>Node1&#45;&gt;Node15</title>
<g id="a_edge16_Node000001_Node000015"><a xlink:title=" ">
<path fill="none" stroke="#63b8ff" d="M86.38,-450.4C105.61,-458.35 133.39,-469.09 158.5,-476 220.45,-493.04 294.21,-504.72 338.91,-510.87"/>
<polygon fill="#63b8ff" stroke="#63b8ff" points="338.29,-514.32 348.67,-512.19 339.23,-507.39 338.29,-514.32"/>
</a>
</g>
</g>
<!-- Node16 -->
<g id="Node000016" class="node">
<title>Node16</title>
<g id="a_Node000016"><a xlink:href="user__auth_8c.html#a7b721ad996f2f06a51dc10384adec934" target="_top" xlink:title=" ">
<polygon fill="white" stroke="#666666" points="259.25,-602 193,-602 193,-582 259.25,-582 259.25,-602"/>
<text text-anchor="middle" x="226.12" y="-588.5" font-family="Helvetica,sans-Serif" font-size="10.00">delete_user</text>
</a>
</g>
</g>
<!-- Node1&#45;&gt;Node16 -->
<g id="edge17_Node000001_Node000016" class="edge">
<title>Node1&#45;&gt;Node16</title>
<g id="a_edge17_Node000001_Node000016"><a xlink:title=" ">
<path fill="none" stroke="#63b8ff" d="M67.26,-450.23C79.51,-474.23 113.31,-534.64 158.5,-568 165.52,-573.18 173.76,-577.33 182.01,-580.63"/>
<polygon fill="#63b8ff" stroke="#63b8ff" points="180.74,-583.89 191.33,-583.97 183.1,-577.3 180.74,-583.89"/>
</a>
</g>
</g>
<!-- Node18 -->
<g id="Node000018" class="node">
<title>Node18</title>
<g id="a_Node000018"><a xlink:href="filesystem_8c.html#a550849e6b02b5ca20d32bdacb2ddd19b" target="_top" xlink:title=" ">
<polygon fill="white" stroke="#666666" points="402.75,-488 358.25,-488 358.25,-468 402.75,-468 402.75,-488"/>
<text text-anchor="middle" x="380.5" y="-474.5" font-family="Helvetica,sans-Serif" font-size="10.00">list_dir</text>
</a>
</g>
</g>
<!-- Node1&#45;&gt;Node18 -->
<g id="edge35_Node000001_Node000018" class="edge">
<title>Node1&#45;&gt;Node18</title>
<g id="a_edge35_Node000001_Node000018"><a xlink:title=" ">
<path fill="none" stroke="#63b8ff" d="M122.79,-449.15C134.62,-450.84 146.94,-452.53 158.5,-454 225.17,-462.47 303.39,-470.52 346.6,-474.8"/>
<polygon fill="#63b8ff" stroke="#63b8ff" points="346.02,-478.26 356.32,-475.76 346.71,-471.3 346.02,-478.26"/>
</a>
</g>
</g>
<!-- Node19 -->
<g id="Node000019" class="node">
<title>Node19</title>
<g id="a_Node000019"><a xlink:href="steve_8c.html#a5632f290d33b3c7aa26d8c708441134d" target="_top" xlink:title=" ">
<polygon fill="white" stroke="#666666" points="291.12,-374 161.12,-374 161.12,-354 291.12,-354 291.12,-374"/>
<text text-anchor="middle" x="226.12" y="-360.5" font-family="Helvetica,sans-Serif" font-size="10.00">edit_steve_job_recur_time</text>
</a>
</g>
</g>
<!-- Node1&#45;&gt;Node19 -->
<g id="edge24_Node000001_Node000019" class="edge">
<title>Node1&#45;&gt;Node19</title>
<g id="a_edge24_Node000001_Node000019"><a xlink:title=" ">
<path fill="none" stroke="#63b8ff" d="M79.59,-429.61C98.56,-418.48 130.07,-400.72 158.5,-388 166.14,-384.58 174.43,-381.29 182.47,-378.29"/>
<polygon fill="#63b8ff" stroke="#63b8ff" points="183.59,-381.61 191.8,-374.92 181.2,-375.03 183.59,-381.61"/>
</a>
</g>
</g>
<!-- Node20 -->
<g id="Node000020" class="node">
<title>Node20</title>
<g id="a_Node000020"><a xlink:href="steve_8c.html#a19f0e4d517e614fdb1e563f56ac1123a" target="_top" xlink:title=" ">
<polygon fill="white" stroke="#666666" points="420,-412 341,-412 341,-392 420,-392 420,-412"/>
<text text-anchor="middle" x="380.5" y="-398.5" font-family="Helvetica,sans-Serif" font-size="10.00">find_steve_job</text>
</a>
</g>
</g>
<!-- Node1&#45;&gt;Node20 -->
<g id="edge27_Node000001_Node000020" class="edge">
<title>Node1&#45;&gt;Node20</title>
<g id="a_edge27_Node000001_Node000020"><a xlink:title=" ">
<path fill="none" stroke="#63b8ff" d="M122.79,-430.85C134.62,-429.16 146.94,-427.47 158.5,-426 217.02,-418.57 284.44,-411.46 329.27,-406.93"/>
<polygon fill="#63b8ff" stroke="#63b8ff" points="329.62,-410.41 339.22,-405.93 328.92,-403.45 329.62,-410.41"/>
</a>
</g>
</g>
<!-- Node22 -->
<g id="Node000022" class="node">
<title>Node22</title>
<g id="a_Node000022"><a xlink:href="utilities_2src_2log_8c.html#ad11311f2e9ec2fb14a767d93d1c5b97e" target="_top" xlink:title=" ">
<polygon fill="white" stroke="#666666" points="287.38,-1042 164.88,-1042 164.88,-1010 287.38,-1010 287.38,-1042"/>
<text text-anchor="start" x="172.88" y="-1028.5" font-family="Helvetica,sans-Serif" font-size="10.00">get_most_recent_logged</text>
<text text-anchor="middle" x="226.12" y="-1016.5" font-family="Helvetica,sans-Serif" font-size="10.00">_error</text>
</a>
</g>
</g>
<!-- Node1&#45;&gt;Node22 -->
<g id="edge28_Node000001_Node000022" class="edge">
<title>Node1&#45;&gt;Node22</title>
<g id="a_edge28_Node000001_Node000022"><a xlink:title=" ">
<path fill="none" stroke="#63b8ff" d="M63.17,-450.18C69.18,-515.39 104.44,-874.91 158.5,-969 166.04,-982.12 177.77,-993.65 189.3,-1002.84"/>
<polygon fill="#63b8ff" stroke="#63b8ff" points="187.12,-1005.58 197.21,-1008.79 191.32,-999.98 187.12,-1005.58"/>
</a>
</g>
</g>
<!-- Node23 -->
<g id="Node000023" class="node">
<title>Node23</title>
<g id="a_Node000023"><a xlink:href="hb__tlm__log_8c.html#a4cc64d575f6cdeedc77c1439ab316ee5" target="_top" xlink:title=" ">
<polygon fill="white" stroke="#666666" points="270.88,-960 181.38,-960 181.38,-940 270.88,-940 270.88,-960"/>
<text text-anchor="middle" x="226.12" y="-946.5" font-family="Helvetica,sans-Serif" font-size="10.00">hb_tlm_playback</text>
</a>
</g>
</g>
<!-- Node1&#45;&gt;Node23 -->
<g id="edge30_Node000001_Node000023" class="edge">
<title>Node1&#45;&gt;Node23</title>
<g id="a_edge30_Node000001_Node000023"><a xlink:title=" ">
<path fill="none" stroke="#63b8ff" d="M63.17,-450.45C67.71,-498.71 90.34,-704.18 158.5,-856 171.27,-884.44 193.18,-913.09 208.37,-931.15"/>
<polygon fill="#63b8ff" stroke="#63b8ff" points="205.46,-933.13 214.63,-938.43 210.76,-928.56 205.46,-933.13"/>
</a>
</g>
</g>
<!-- Node24 -->
<g id="Node000024" class="node">
<title>Node24</title>
<g id="a_Node000024"><a xlink:href="user__auth_8c.html#ac096e58f2c99b9804fb8a31697d748a1" target="_top" xlink:title=" ">
<polygon fill="white" stroke="#666666" points="253.62,-260 198.62,-260 198.62,-240 253.62,-240 253.62,-260"/>
<text text-anchor="middle" x="226.12" y="-246.5" font-family="Helvetica,sans-Serif" font-size="10.00">is_admin</text>
</a>
</g>
</g>
<!-- Node1&#45;&gt;Node24 -->
<g id="edge34_Node000001_Node000024" class="edge">
<title>Node1&#45;&gt;Node24</title>
<g id="a_edge34_Node000001_Node000024"><a xlink:title=" ">
<path fill="none" stroke="#63b8ff" d="M65.02,-429.71C73.55,-399.99 102.33,-313.31 158.5,-269 166.73,-262.5 177.09,-258.23 187.16,-255.42"/>
<polygon fill="#63b8ff" stroke="#63b8ff" points="187.87,-258.84 196.81,-253.16 186.28,-252.03 187.87,-258.84"/>
</a>
</g>
</g>
<!-- Node25 -->
<g id="Node000025" class="node">
<title>Node25</title>
<g id="a_Node000025"><a xlink:href="filesystem_8c.html#a799eadaaf9ccd6162d5fa3fd15a0c3a1" target="_top" xlink:title=" ">
<polygon fill="white" stroke="#666666" points="271.25,-222 181,-222 181,-202 271.25,-202 271.25,-222"/>
<text text-anchor="middle" x="226.12" y="-208.5" font-family="Helvetica,sans-Serif" font-size="10.00">make_filesystem</text>
</a>
</g>
</g>
<!-- Node1&#45;&gt;Node25 -->
<g id="edge37_Node000001_Node000025" class="edge">
<title>Node1&#45;&gt;Node25</title>
<g id="a_edge37_Node000001_Node000025"><a xlink:title=" ">
<path fill="none" stroke="#63b8ff" d="M63.85,-429.94C69.72,-396.32 93.28,-286.89 158.5,-231 162.1,-227.92 166.16,-225.34 170.47,-223.17"/>
<polygon fill="#63b8ff" stroke="#63b8ff" points="171.57,-226.5 179.45,-219.42 168.87,-220.04 171.57,-226.5"/>
</a>
</g>
</g>
<!-- Node26 -->
<g id="Node000026" class="node">
<title>Node26</title>
<g id="a_Node000026"><a xlink:href="steve_8c.html#af6d8fc617602d5007ade6ab61734ee9d" target="_top" xlink:title=" ">
<polygon fill="white" stroke="#666666" points="287,-298 165.25,-298 165.25,-278 287,-278 287,-298"/>
<text text-anchor="middle" x="226.12" y="-284.5" font-family="Helvetica,sans-Serif" font-size="10.00">print_debug_exec_times</text>
</a>
</g>
</g>
<!-- Node1&#45;&gt;Node26 -->
<g id="edge38_Node000001_Node000026" class="edge">
<title>Node1&#45;&gt;Node26</title>
<g id="a_edge38_Node000001_Node000026"><a xlink:title=" ">
<path fill="none" stroke="#63b8ff" d="M66.82,-429.53C78.36,-404.38 111.11,-340.2 158.5,-307 160.42,-305.65 162.44,-304.4 164.53,-303.23"/>
<polygon fill="#63b8ff" stroke="#63b8ff" points="165.8,-306.51 173.33,-299.06 162.8,-300.18 165.8,-306.51"/>
</a>
</g>
</g>
<!-- Node30 -->
<g id="Node000030" class="node">
<title>Node30</title>
<g id="a_Node000030"><a xlink:href="radio_8cpp.html#aededabcbfc8060b1d374369c6b67df4b" target="_top" xlink:title=" ">
<polygon fill="white" stroke="#666666" points="293.75,-184 158.5,-184 158.5,-164 293.75,-164 293.75,-184"/>
<text text-anchor="middle" x="226.12" y="-170.5" font-family="Helvetica,sans-Serif" font-size="10.00">radio_queue_stat_response</text>
</a>
</g>
</g>
<!-- Node1&#45;&gt;Node30 -->
<g id="edge42_Node000001_Node000030" class="edge">
<title>Node1&#45;&gt;Node30</title>
<g id="a_edge42_Node000001_Node000030"><a xlink:title=" ">
<path fill="none" stroke="#63b8ff" d="M63.08,-429.75C66.68,-392.17 84.31,-260.54 158.5,-193 159.58,-192.02 160.7,-191.09 161.86,-190.21"/>
<polygon fill="#63b8ff" stroke="#63b8ff" points="163.46,-193.34 170.16,-185.13 159.8,-187.37 163.46,-193.34"/>
</a>
</g>
</g>
<!-- Node31 -->
<g id="Node000031" class="node">
<title>Node31</title>
<g id="a_Node000031"><a xlink:href="radio_8cpp.html#ab4fc5d140cd46c3db7b311a67d236deb" target="_top" xlink:title=" ">
<polygon fill="white" stroke="#666666" points="272.38,-146 179.88,-146 179.88,-126 272.38,-126 272.38,-146"/>
<text text-anchor="middle" x="226.12" y="-132.5" font-family="Helvetica,sans-Serif" font-size="10.00">radio_set_module</text>
</a>
</g>
</g>
<!-- Node1&#45;&gt;Node31 -->
<g id="edge43_Node000001_Node000031" class="edge">
<title>Node1&#45;&gt;Node31</title>
<g id="a_edge43_Node000001_Node000031"><a xlink:title=" ">
<path fill="none" stroke="#63b8ff" d="M62.48,-429.66C63.98,-388.47 75.15,-234.45 158.5,-155 161.74,-151.91 165.44,-149.32 169.41,-147.15"/>
<polygon fill="#63b8ff" stroke="#63b8ff" points="170.6,-150.45 178.3,-143.18 167.74,-144.06 170.6,-150.45"/>
</a>
</g>
</g>
<!-- Node32 -->
<g id="Node000032" class="node">
<title>Node32</title>
<g id="a_Node000032"><a xlink:href="radio_8cpp.html#a610ddc33ff0f6388cea252fb357dc990" target="_top" xlink:title=" ">
<polygon fill="white" stroke="#666666" points="274.25,-108 178,-108 178,-76 274.25,-76 274.25,-108"/>
<text text-anchor="start" x="186" y="-94.5" font-family="Helvetica,sans-Serif" font-size="10.00">radio_set_transmit</text>
<text text-anchor="middle" x="226.12" y="-82.5" font-family="Helvetica,sans-Serif" font-size="10.00">_power</text>
</a>
</g>
</g>
<!-- Node1&#45;&gt;Node32 -->
<g id="edge44_Node000001_Node000032" class="edge">
<title>Node1&#45;&gt;Node32</title>
<g id="a_edge44_Node000001_Node000032"><a xlink:title=" ">
<path fill="none" stroke="#63b8ff" d="M62.2,-429.74C62.55,-385.91 69.69,-212.2 158.5,-117 161.24,-114.07 164.35,-111.47 167.71,-109.18"/>
<polygon fill="#63b8ff" stroke="#63b8ff" points="169.41,-112.24 176.36,-104.25 165.94,-106.16 169.41,-112.24"/>
</a>
</g>
</g>
<!-- Node33 -->
<g id="Node000033" class="node">
<title>Node33</title>
<g id="a_Node000033"><a xlink:href="steve_8c.html#acc0bfad0acf234b4903c832955b29767" target="_top" xlink:title=" ">
<polygon fill="white" stroke="#666666" points="291.5,-336 160.75,-336 160.75,-316 291.5,-316 291.5,-336"/>
<text text-anchor="middle" x="226.12" y="-322.5" font-family="Helvetica,sans-Serif" font-size="10.00">schedule_delayed_job_ms</text>
</a>
</g>
</g>
<!-- Node1&#45;&gt;Node33 -->
<g id="edge45_Node000001_Node000033" class="edge">
<title>Node1&#45;&gt;Node33</title>
<g id="a_edge45_Node000001_Node000033"><a xlink:title=" ">
<path fill="none" stroke="#63b8ff" d="M69.76,-429.72C84.53,-410.24 119.36,-367.84 158.5,-345 161.14,-343.46 163.9,-342.04 166.75,-340.73"/>
<polygon fill="#63b8ff" stroke="#63b8ff" points="167.96,-344.02 175.92,-337.02 165.34,-337.53 167.96,-344.02"/>
</a>
</g>
</g>
<!-- Node35 -->
<g id="Node000035" class="node">
<title>Node35</title>
<g id="a_Node000035"><a xlink:href="set__rtc__job_8c.html#af31d3e6e7b984cd9aca01db95eac999a" target="_top" xlink:title=" ">
<polygon fill="white" stroke="#666666" points="258.12,-58 194.12,-58 194.12,-38 258.12,-38 258.12,-58"/>
<text text-anchor="middle" x="226.12" y="-44.5" font-family="Helvetica,sans-Serif" font-size="10.00">set_rtc_job</text>
</a>
</g>
</g>
<!-- Node1&#45;&gt;Node35 -->
<g id="edge50_Node000001_Node000035" class="edge">
<title>Node1&#45;&gt;Node35</title>
<g id="a_edge50_Node000001_Node000035"><a xlink:title=" ">
<path fill="none" stroke="#63b8ff" d="M63.54,-429.55C70.51,-374.81 105.27,-121.59 158.5,-67 165.07,-60.27 173.84,-55.87 182.86,-53.02"/>
<polygon fill="#63b8ff" stroke="#63b8ff" points="183.54,-56.46 192.38,-50.62 181.82,-49.67 183.54,-56.46"/>
</a>
</g>
</g>
<!-- Node38 -->
<g id="Node000038" class="node">
<title>Node38</title>
<g id="a_Node000038"><a xlink:href="filesystem_8c.html#a1038e83eda006a16d81aba0bda5c3334" target="_top" xlink:title=" ">
<polygon fill="white" stroke="#666666" points="400.5,-564 360.5,-564 360.5,-544 400.5,-544 400.5,-564"/>
<text text-anchor="middle" x="380.5" y="-550.5" font-family="Helvetica,sans-Serif" font-size="10.00">touch</text>
</a>
</g>
</g>
<!-- Node1&#45;&gt;Node38 -->
<g id="edge53_Node000001_Node000038" class="edge">
<title>Node1&#45;&gt;Node38</title>
<g id="a_edge53_Node000001_Node000038"><a xlink:title=" ">
<path fill="none" stroke="#63b8ff" d="M74.47,-450.29C91.96,-464.49 125.67,-489.94 158.5,-504 223.12,-531.68 305.21,-545.08 348.89,-550.65"/>
<polygon fill="#63b8ff" stroke="#63b8ff" points="348.3,-554.1 358.65,-551.83 349.14,-547.15 348.3,-554.1"/>
</a>
</g>
</g>
<!-- Node39 -->
<g id="Node000039" class="node">
<title>Node39</title>
<g id="a_Node000039"><a xlink:href="user__auth_8c.html#acb5e4e390f704ceea798b215f70692d6" target="_top" xlink:title=" ">
<polygon fill="white" stroke="#666666" points="272.38,-716 179.88,-716 179.88,-696 272.38,-696 272.38,-716"/>
<text text-anchor="middle" x="226.12" y="-702.5" font-family="Helvetica,sans-Serif" font-size="10.00">upload_user_data</text>
</a>
</g>
</g>
<!-- Node1&#45;&gt;Node39 -->
<g id="edge55_Node000001_Node000039" class="edge">
<title>Node1&#45;&gt;Node39</title>
<g id="a_edge55_Node000001_Node000039"><a xlink:title=" ">
<path fill="none" stroke="#63b8ff" d="M67.55,-450.23C81.56,-477.08 121.1,-551.62 158.5,-611 175.43,-637.87 196.78,-667.68 210.68,-686.61"/>
<polygon fill="#63b8ff" stroke="#63b8ff" points="207.73,-688.51 216.49,-694.47 213.36,-684.35 207.73,-688.51"/>
</a>
</g>
</g>
<!-- Node43 -->
<g id="Node000043" class="node">
<title>Node43</title>
<g id="a_Node000043"><a xlink:href="watchdog_8c.html#acebf79aaf42978286eec0c3e016d7b0a" target="_top" xlink:title=" ">
<polygon fill="white" stroke="#666666" points="271.25,-20 181,-20 181,0 271.25,0 271.25,-20"/>
<text text-anchor="middle" x="226.12" y="-6.5" font-family="Helvetica,sans-Serif" font-size="10.00">watchdog_freeze</text>
</a>
</g>
</g>
<!-- Node1&#45;&gt;Node43 -->
<g id="edge68_Node000001_Node000043" class="edge">
<title>Node1&#45;&gt;Node43</title>
<g id="a_edge68_Node000001_Node000043"><a xlink:title=" ">
<path fill="none" stroke="#63b8ff" d="M63.27,-429.66C69.13,-371.92 100.47,-89.87 158.5,-29 161.86,-25.47 165.83,-22.59 170.12,-20.23"/>
<polygon fill="#63b8ff" stroke="#63b8ff" points="171.47,-23.46 179.22,-16.23 168.66,-17.05 171.47,-23.46"/>
</a>
</g>
</g>
<!-- Node3 -->
<g id="Node000003" class="node">
<title>Node3</title>
<g id="a_Node000003"><a xlink:href="filesystem_8c.html#a6c3bed1f355bd1952d7ffa87405828c6" target="_top" xlink:title=" ">
<polygon fill="white" stroke="#666666" points="409.5,-944 351.5,-944 351.5,-924 409.5,-924 409.5,-944"/>
<text text-anchor="middle" x="380.5" y="-930.5" font-family="Helvetica,sans-Serif" font-size="10.00">dir_exists</text>
</a>
</g>
</g>
<!-- Node2&#45;&gt;Node3 -->
<g id="edge2_Node000002_Node000003" class="edge">
<title>Node2&#45;&gt;Node3</title>
<g id="a_edge2_Node000002_Node000003"><a xlink:title=" ">
<path fill="none" stroke="#63b8ff" d="M248.15,-792.35C262.62,-800.37 281.39,-812.69 293.75,-828 320.04,-860.55 299.76,-885.82 329.75,-915 332.98,-918.14 336.77,-920.77 340.81,-922.97"/>
<polygon fill="#63b8ff" stroke="#63b8ff" points="339.2,-926.09 349.76,-927 342.07,-919.7 339.2,-926.09"/>
</a>
</g>
</g>
<!-- Node6 -->
<g id="Node000006" class="node">
<title>Node6</title>
<g id="a_Node000006"><a xlink:href="filesystem_8c.html#a07610d3a6787ca02aa3d340759bcb8c9" target="_top" xlink:title=" ">
<polygon fill="white" stroke="#666666" points="410.62,-906 350.38,-906 350.38,-886 410.62,-886 410.62,-906"/>
<text text-anchor="middle" x="380.5" y="-892.5" font-family="Helvetica,sans-Serif" font-size="10.00">file_exists</text>
</a>
</g>
</g>
<!-- Node2&#45;&gt;Node6 -->
<g id="edge5_Node000002_Node000006" class="edge">
<title>Node2&#45;&gt;Node6</title>
<g id="a_edge5_Node000002_Node000006"><a xlink:title=" ">
<path fill="none" stroke="#63b8ff" d="M245.1,-792.48C259.11,-801.09 278.66,-814.09 293.75,-828 312.33,-845.12 309.9,-856.36 329.75,-872 333.67,-875.09 338.05,-877.91 342.54,-880.45"/>
<polygon fill="#63b8ff" stroke="#63b8ff" points="340.59,-883.38 351.08,-884.86 343.8,-877.16 340.59,-883.38"/>
</a>
</g>
</g>
<!-- Node7 -->
<g id="Node000007" class="node">
<title>Node7</title>
<g id="a_Node000007"><a xlink:href="user__auth_8c.html#ab7d59518267fd7616ff486aa9054d753" target="_top" xlink:title=" ">
<polygon fill="white" stroke="#666666" points="427.12,-678 333.88,-678 333.88,-658 427.12,-658 427.12,-678"/>
<text text-anchor="middle" x="380.5" y="-664.5" font-family="Helvetica,sans-Serif" font-size="10.00">get_user_dir_path</text>
</a>
</g>
</g>
<!-- Node2&#45;&gt;Node7 -->
<g id="edge7_Node000002_Node000007" class="edge">
<title>Node2&#45;&gt;Node7</title>
<g id="a_edge7_Node000002_Node000007"><a xlink:title=" ">
<path fill="none" stroke="#63b8ff" d="M240.92,-771.68C267.21,-752.01 324.73,-708.98 356.78,-685"/>
<polygon fill="#63b8ff" stroke="#63b8ff" points="358.73,-687.91 364.64,-679.12 354.53,-682.31 358.73,-687.91"/>
</a>
</g>
</g>
<!-- Node8 -->
<g id="Node000008" class="node">
<title>Node8</title>
<g id="a_Node000008"><a xlink:href="user__auth_8c.html#aed0ce6c01378a5dfdbf8faa9bf3e9460" target="_top" xlink:title=" ">
<polygon fill="white" stroke="#666666" points="574,-792 467.25,-792 467.25,-772 574,-772 574,-792"/>
<text text-anchor="middle" x="520.62" y="-778.5" font-family="Helvetica,sans-Serif" font-size="10.00">get_user_token_path</text>
</a>
</g>
</g>
<!-- Node2&#45;&gt;Node8 -->
<g id="edge8_Node000002_Node000008" class="edge">
<title>Node2&#45;&gt;Node8</title>
<g id="a_edge8_Node000002_Node000008"><a xlink:title=" ">
<path fill="none" stroke="#63b8ff" d="M254.38,-782C299.91,-782 392.62,-782 455.45,-782"/>
<polygon fill="#63b8ff" stroke="#63b8ff" points="455.3,-785.5 465.3,-782 455.3,-778.5 455.3,-785.5"/>
</a>
</g>
</g>
<!-- Node2&#45;&gt;Node9 -->
<g id="edge9_Node000002_Node000009" class="edge">
<title>Node2&#45;&gt;Node9</title>
<g id="a_edge9_Node000002_Node000009"><a xlink:title=" ">
<path fill="none" stroke="#63b8ff" d="M249.64,-792.44C264.22,-800.29 282.51,-812.37 293.75,-828 327.5,-874.94 290.63,-910.43 329.75,-953 333.19,-956.74 337.44,-959.75 342,-962.17"/>
<polygon fill="#63b8ff" stroke="#63b8ff" points="340.31,-965.25 350.88,-965.98 343.07,-958.82 340.31,-965.25"/>
</a>
</g>
</g>
<!-- Node2&#45;&gt;Node10 -->
<g id="edge10_Node000002_Node000010" class="edge">
<title>Node2&#45;&gt;Node10</title>
<g id="a_edge10_Node000002_Node000010"><a xlink:title=" ">
<path fill="none" stroke="#63b8ff" d="M254.37,-776.05C294.97,-766.39 372.82,-744.82 431.25,-710 459.41,-693.22 486.55,-666.58 503.16,-648.7"/>
<polygon fill="#63b8ff" stroke="#63b8ff" points="505.68,-651.13 509.82,-641.37 500.5,-646.42 505.68,-651.13"/>
</a>
</g>
</g>
<!-- Node4 -->
<g id="Node000004" class="node">
<title>Node4</title>
<g id="a_Node000004"><a xlink:href="filesystem_8c.html#aa109ff29a72d1beadda58bb3a54185b6" target="_top" xlink:title=" ">
<polygon fill="white" stroke="#666666" points="536.88,-906 504.38,-906 504.38,-886 536.88,-886 536.88,-906"/>
<text text-anchor="middle" x="520.62" y="-892.5" font-family="Helvetica,sans-Serif" font-size="10.00">stat</text>
</a>
</g>
</g>
<!-- Node3&#45;&gt;Node4 -->
<g id="edge3_Node000003_Node000004" class="edge">
<title>Node3&#45;&gt;Node4</title>
<g id="a_edge3_Node000003_Node000004"><a xlink:title=" ">
<path fill="none" stroke="#63b8ff" d="M409.78,-926.22C434.23,-919.49 469.29,-909.85 493.18,-903.28"/>
<polygon fill="#63b8ff" stroke="#63b8ff" points="494.05,-906.67 502.76,-900.64 492.19,-899.92 494.05,-906.67"/>
</a>
</g>
</g>
<!-- Node5 -->
<g id="Node000005" class="node">
<title>Node5</title>
<g id="a_Node000005"><a xlink:href="utilities_2src_2log_8c.html#a4b048be24c6c7f622a6bc6c6bf8ac435" target="_top" xlink:title=" ">
<polygon fill="white" stroke="#666666" points="728,-887 610,-887 610,-867 728,-867 728,-887"/>
<text text-anchor="middle" x="669" y="-873.5" font-family="Helvetica,sans-Serif" font-size="10.00">get_current_task_name</text>
</a>
</g>
</g>
<!-- Node4&#45;&gt;Node5 -->
<g id="edge4_Node000004_Node000005" class="edge">
<title>Node4&#45;&gt;Node5</title>
<g id="a_edge4_Node000004_Node000005"><a xlink:title=" ">
<path fill="none" stroke="#63b8ff" d="M537.29,-893.97C552.12,-892.04 575.47,-889.01 598.35,-886.04"/>
<polygon fill="#63b8ff" stroke="#63b8ff" points="598.54,-889.55 608,-884.79 597.64,-882.6 598.54,-889.55"/>
</a>
</g>
</g>
<!-- Node6&#45;&gt;Node4 -->
<g id="edge6_Node000006_Node000004" class="edge">
<title>Node6&#45;&gt;Node4</title>
<g id="a_edge6_Node000006_Node000004"><a xlink:title=" ">
<path fill="none" stroke="#63b8ff" d="M410.79,-896C435.07,-896 469.29,-896 492.85,-896"/>
<polygon fill="#63b8ff" stroke="#63b8ff" points="492.57,-899.5 502.57,-896 492.57,-892.5 492.57,-899.5"/>
</a>
</g>
</g>
<!-- Node12 -->
<g id="Node000012" class="node">
<title>Node12</title>
<g id="a_Node000012"><a xlink:href="utilities_2src_2log_8c.html#a91ef5592b899f72c2dd283ef7c354ddd" target="_top" xlink:title=" ">
<polygon fill="white" stroke="#666666" points="410.62,-1172 350.38,-1172 350.38,-1152 410.62,-1152 410.62,-1172"/>
<text text-anchor="middle" x="380.5" y="-1158.5" font-family="Helvetica,sans-Serif" font-size="10.00">_write_log</text>
</a>
</g>
</g>
<!-- Node11&#45;&gt;Node12 -->
<g id="edge12_Node000011_Node000012" class="edge">
<title>Node11&#45;&gt;Node12</title>
<g id="a_edge12_Node000011_Node000012"><a xlink:title=" ">
<path fill="none" stroke="#63b8ff" d="M241.36,-1093.32C261.13,-1103.47 298.06,-1122.33 329.75,-1138 335.44,-1140.82 341.52,-1143.78 347.41,-1146.63"/>
<polygon fill="#63b8ff" stroke="#63b8ff" points="345.77,-1149.73 356.3,-1150.92 348.81,-1143.42 345.77,-1149.73"/>
</a>
</g>
</g>
<!-- Node14 -->
<g id="Node000014" class="node">
<title>Node14</title>
<g id="a_Node000014"><a xlink:href="filesystem_8c.html#ab92b1f0beb3be903677f3293d0430b62" target="_top" xlink:title=" ">
<polygon fill="white" stroke="#666666" points="547,-1020 494.25,-1020 494.25,-1000 547,-1000 547,-1020"/>
<text text-anchor="middle" x="520.62" y="-1006.5" font-family="Helvetica,sans-Serif" font-size="10.00">read_file</text>
</a>
</g>
</g>
<!-- Node11&#45;&gt;Node14 -->
<g id="edge14_Node000011_Node000014" class="edge">
<title>Node11&#45;&gt;Node14</title>
<g id="a_edge14_Node000011_Node000014"><a xlink:title=" ">
<path fill="none" stroke="#63b8ff" d="M241.11,-1083.38C274.36,-1077.03 360.62,-1059.89 431.25,-1040 448.61,-1035.11 467.58,-1028.8 483.48,-1023.23"/>
<polygon fill="#63b8ff" stroke="#63b8ff" points="484.26,-1026.67 492.51,-1020.03 481.92,-1020.07 484.26,-1026.67"/>
</a>
</g>
</g>
<!-- Node12&#45;&gt;Node13 -->
<g id="edge13_Node000012_Node000013" class="edge">
<title>Node12&#45;&gt;Node13</title>
<g id="a_edge13_Node000012_Node000013"><a xlink:title=" ">
<path fill="none" stroke="#63b8ff" d="M410.79,-1162C427.26,-1162 448.32,-1162 467.51,-1162"/>
<polygon fill="#63b8ff" stroke="#63b8ff" points="467.33,-1165.5 477.33,-1162 467.33,-1158.5 467.33,-1165.5"/>
</a>
</g>
</g>
<!-- Node14&#45;&gt;Node5 -->
<g id="edge15_Node000014_Node000005" class="edge">
<title>Node14&#45;&gt;Node5</title>
<g id="a_edge15_Node000014_Node000005"><a xlink:title=" ">
<path fill="none" stroke="#63b8ff" d="M533.11,-999.56C558.02,-976.94 617.23,-923.13 648.26,-894.93"/>
<polygon fill="#63b8ff" stroke="#63b8ff" points="650.4,-897.72 655.45,-888.41 645.69,-892.54 650.4,-897.72"/>
</a>
</g>
</g>
<!-- Node16&#45;&gt;Node3 -->
<g id="edge19_Node000016_Node000003" class="edge">
<title>Node16&#45;&gt;Node3</title>
<g id="a_edge19_Node000016_Node000003"><a xlink:title=" ">
<path fill="none" stroke="#63b8ff" d="M236.92,-602.43C251.83,-618.96 279.94,-652.82 293.75,-687 332.19,-782.11 265.14,-835.31 329.75,-915 332.76,-918.72 336.59,-921.71 340.78,-924.11"/>
<polygon fill="#63b8ff" stroke="#63b8ff" points="339.07,-927.18 349.62,-928.11 341.95,-920.8 339.07,-927.18"/>
</a>
</g>
</g>
<!-- Node16&#45;&gt;Node7 -->
<g id="edge21_Node000016_Node000007" class="edge">
<title>Node16&#45;&gt;Node7</title>
<g id="a_edge21_Node000016_Node000007"><a xlink:title=" ">
<path fill="none" stroke="#63b8ff" d="M244.17,-602.45C264.21,-614.51 298.71,-634.54 329.75,-649 332.88,-650.46 336.15,-651.89 339.45,-653.28"/>
<polygon fill="#63b8ff" stroke="#63b8ff" points="338.02,-656.48 348.61,-656.97 340.64,-649.98 338.02,-656.48"/>
</a>
</g>
</g>
<!-- Node16&#45;&gt;Node8 -->
<g id="edge22_Node000016_Node000008" class="edge">
<title>Node16&#45;&gt;Node8</title>
<g id="a_edge22_Node000016_Node000008"><a xlink:title=" ">
<path fill="none" stroke="#63b8ff" d="M259.62,-586.09C302.75,-580.11 379.46,-576.08 431.25,-611 458.36,-629.28 495.66,-719.53 511.73,-761.04"/>
<polygon fill="#63b8ff" stroke="#63b8ff" points="508.46,-762.29 515.3,-770.38 515,-759.79 508.46,-762.29"/>
</a>
</g>
</g>
<!-- Node16&#45;&gt;Node15 -->
<g id="edge18_Node000016_Node000015" class="edge">
<title>Node16&#45;&gt;Node15</title>
<g id="a_edge18_Node000016_Node000015"><a xlink:title=" ">
<path fill="none" stroke="#63b8ff" d="M244.17,-581.55C264.21,-569.49 298.71,-549.46 329.75,-535 332.88,-533.54 336.15,-532.11 339.45,-530.72"/>
<polygon fill="#63b8ff" stroke="#63b8ff" points="340.64,-534.02 348.61,-527.03 338.02,-527.52 340.64,-534.02"/>
</a>
</g>
</g>
<!-- Node17 -->
<g id="Node000017" class="node">
<title>Node17</title>
<g id="a_Node000017"><a xlink:href="user__auth_8c.html#a1cefb8275e8b8485dc7c3fdc3baa5377" target="_top" xlink:title=" ">
<polygon fill="white" stroke="#666666" points="431.25,-640 329.75,-640 329.75,-620 431.25,-620 431.25,-640"/>
<text text-anchor="middle" x="380.5" y="-626.5" font-family="Helvetica,sans-Serif" font-size="10.00">get_user_data_path</text>
</a>
</g>
</g>
<!-- Node16&#45;&gt;Node17 -->
<g id="edge20_Node000016_Node000017" class="edge">
<title>Node16&#45;&gt;Node17</title>
<g id="a_edge20_Node000016_Node000017"><a xlink:title=" ">
<path fill="none" stroke="#63b8ff" d="M259.44,-600.06C278.95,-604.92 304.27,-611.24 326.63,-616.82"/>
<polygon fill="#63b8ff" stroke="#63b8ff" points="325.65,-620.18 336.2,-619.2 327.34,-613.39 325.65,-620.18"/>
</a>
</g>
</g>
<!-- Node16&#45;&gt;Node18 -->
<g id="edge23_Node000016_Node000018" class="edge">
<title>Node16&#45;&gt;Node18</title>
<g id="a_edge23_Node000016_Node000018"><a xlink:title=" ">
<path fill="none" stroke="#63b8ff" d="M235.74,-581.77C252.22,-562.74 290.15,-521.6 329.75,-497 335.15,-493.65 341.24,-490.72 347.25,-488.24"/>
<polygon fill="#63b8ff" stroke="#63b8ff" points="348.3,-491.59 356.43,-484.79 345.83,-485.04 348.3,-491.59"/>
</a>
</g>
</g>
<!-- Node19&#45;&gt;Node20 -->
<g id="edge25_Node000019_Node000020" class="edge">
<title>Node19&#45;&gt;Node20</title>
<g id="a_edge25_Node000019_Node000020"><a xlink:title=" ">
<path fill="none" stroke="#63b8ff" d="M269.17,-374.48C287.87,-379.15 310.04,-384.68 329.58,-389.55"/>
<polygon fill="#63b8ff" stroke="#63b8ff" points="328.71,-392.94 339.26,-391.97 330.41,-386.15 328.71,-392.94"/>
</a>
</g>
</g>
<!-- Node21 -->
<g id="Node000021" class="node">
<title>Node21</title>
<g id="a_Node000021"><a xlink:href="timing_8c.html#aca6ceb66dd9a31e6376e1bc478dec3d6" target="_top" xlink:title=" ">
<polygon fill="white" stroke="#666666" points="415.12,-374 345.88,-374 345.88,-354 415.12,-354 415.12,-374"/>
<text text-anchor="middle" x="380.5" y="-360.5" font-family="Helvetica,sans-Serif" font-size="10.00">ms_to_ticks</text>
</a>
</g>
</g>
<!-- Node19&#45;&gt;Node21 -->
<g id="edge26_Node000019_Node000021" class="edge">
<title>Node19&#45;&gt;Node21</title>
<g id="a_edge26_Node000019_Node000021"><a xlink:title=" ">
<path fill="none" stroke="#63b8ff" d="M291.3,-364C305.77,-364 320.83,-364 334.33,-364"/>
<polygon fill="#63b8ff" stroke="#63b8ff" points="334.22,-367.5 344.22,-364 334.22,-360.5 334.22,-367.5"/>
</a>
</g>
</g>
<!-- Node22&#45;&gt;Node14 -->
<g id="edge29_Node000022_Node000014" class="edge">
<title>Node22&#45;&gt;Node14</title>
<g id="a_edge29_Node000022_Node000014"><a xlink:title=" ">
<path fill="none" stroke="#63b8ff" d="M287.52,-1027.74C328.21,-1028.33 383.04,-1028.03 431.25,-1024 448.32,-1022.57 467.07,-1019.78 482.9,-1017.06"/>
<polygon fill="#63b8ff" stroke="#63b8ff" points="483.12,-1020.58 492.35,-1015.38 481.89,-1013.68 483.12,-1020.58"/>
</a>
</g>
</g>
<!-- Node23&#45;&gt;Node3 -->
<g id="edge31_Node000023_Node000003" class="edge">
<title>Node23&#45;&gt;Node3</title>
<g id="a_edge31_Node000023_Node000003"><a xlink:title=" ">
<path fill="none" stroke="#63b8ff" d="M271.2,-945.37C293,-943.08 319.1,-940.34 340.21,-938.13"/>
<polygon fill="#63b8ff" stroke="#63b8ff" points="340.29,-941.64 349.87,-937.11 339.56,-934.68 340.29,-941.64"/>
</a>
</g>
</g>
<!-- Node23&#45;&gt;Node13 -->
<g id="edge33_Node000023_Node000013" class="edge">
<title>Node23&#45;&gt;Node13</title>
<g id="a_edge33_Node000023_Node000013"><a xlink:title=" ">
<path fill="none" stroke="#63b8ff" d="M241.23,-960.23C287.94,-994.08 437.9,-1102.76 496.16,-1144.99"/>
<polygon fill="#63b8ff" stroke="#63b8ff" points="493.94,-1147.71 504.09,-1150.74 498.05,-1142.04 493.94,-1147.71"/>
</a>
</g>
</g>
<!-- Node23&#45;&gt;Node14 -->
<g id="edge32_Node000023_Node000014" class="edge">
<title>Node23&#45;&gt;Node14</title>
<g id="a_edge32_Node000023_Node000014"><a xlink:title=" ">
<path fill="none" stroke="#63b8ff" d="M248.17,-960.44C268.52,-970.04 300.49,-983.84 329.75,-991 381.84,-1003.74 443.97,-1007.97 482.62,-1009.35"/>
<polygon fill="#63b8ff" stroke="#63b8ff" points="482.44,-1012.85 492.55,-1009.66 482.66,-1005.85 482.44,-1012.85"/>
</a>
</g>
</g>
<!-- Node27 -->
<g id="Node000027" class="node">
<title>Node27</title>
<g id="a_Node000027"><a xlink:href="timing_8c.html#a7cef17ffb0e9db503a077191e1a4b013" target="_top" xlink:title=" ">
<polygon fill="white" stroke="#666666" points="412.5,-298 348.5,-298 348.5,-278 412.5,-278 412.5,-298"/>
<text text-anchor="middle" x="380.5" y="-284.5" font-family="Helvetica,sans-Serif" font-size="10.00">get_uptime</text>
</a>
</g>
</g>
<!-- Node26&#45;&gt;Node27 -->
<g id="edge39_Node000026_Node000027" class="edge">
<title>Node26&#45;&gt;Node27</title>
<g id="a_edge39_Node000026_Node000027"><a xlink:title=" ">
<path fill="none" stroke="#63b8ff" d="M287.35,-288C303.92,-288 321.55,-288 336.9,-288"/>
<polygon fill="#63b8ff" stroke="#63b8ff" points="336.63,-291.5 346.63,-288 336.63,-284.5 336.63,-291.5"/>
</a>
</g>
</g>
<!-- Node28 -->
<g id="Node000028" class="node">
<title>Node28</title>
<g id="a_Node000028"><a xlink:href="timing_8c.html#a9eaeded457e70e6eb00abc6129920593" target="_top" xlink:title=" ">
<polygon fill="white" stroke="#666666" points="415.12,-260 345.88,-260 345.88,-240 415.12,-240 415.12,-260"/>
<text text-anchor="middle" x="380.5" y="-246.5" font-family="Helvetica,sans-Serif" font-size="10.00">ms_to_secs</text>
</a>
</g>
</g>
<!-- Node26&#45;&gt;Node28 -->
<g id="edge40_Node000026_Node000028" class="edge">
<title>Node26&#45;&gt;Node28</title>
<g id="a_edge40_Node000026_Node000028"><a xlink:title=" ">
<path fill="none" stroke="#63b8ff" d="M269.17,-277.52C289.53,-272.44 314,-266.33 334.72,-261.17"/>
<polygon fill="#63b8ff" stroke="#63b8ff" points="335.46,-264.59 344.32,-258.77 333.77,-257.8 335.46,-264.59"/>
</a>
</g>
</g>
<!-- Node29 -->
<g id="Node000029" class="node">
<title>Node29</title>
<g id="a_Node000029"><a xlink:href="timing_8c.html#afc667ef1e53f787d5e61e758dc1bd7b2" target="_top" xlink:title=" ">
<polygon fill="white" stroke="#666666" points="415.12,-222 345.88,-222 345.88,-202 415.12,-202 415.12,-222"/>
<text text-anchor="middle" x="380.5" y="-208.5" font-family="Helvetica,sans-Serif" font-size="10.00">ticks_to_ms</text>
</a>
</g>
</g>
<!-- Node26&#45;&gt;Node29 -->
<g id="edge41_Node000026_Node000029" class="edge">
<title>Node26&#45;&gt;Node29</title>
<g id="a_edge41_Node000026_Node000029"><a xlink:title=" ">
<path fill="none" stroke="#63b8ff" d="M275.38,-277.6C281.79,-275.26 288.09,-272.43 293.75,-269 313.64,-256.94 310.4,-243.92 329.75,-231 331.6,-229.77 333.53,-228.6 335.53,-227.49"/>
<polygon fill="#63b8ff" stroke="#63b8ff" points="337,-230.67 344.47,-223.15 333.94,-224.37 337,-230.67"/>
</a>
</g>
</g>
<!-- Node33&#45;&gt;Node21 -->
<g id="edge48_Node000033_Node000021" class="edge">
<title>Node33&#45;&gt;Node21</title>
<g id="a_edge48_Node000033_Node000021"><a xlink:title=" ">
<path fill="none" stroke="#63b8ff" d="M269.17,-336.48C289.53,-341.56 314,-347.67 334.72,-352.83"/>
<polygon fill="#63b8ff" stroke="#63b8ff" points="333.77,-356.2 344.32,-355.23 335.46,-349.41 333.77,-356.2"/>
</a>
</g>
</g>
<!-- Node33&#45;&gt;Node27 -->
<g id="edge47_Node000033_Node000027" class="edge">
<title>Node33&#45;&gt;Node27</title>
<g id="a_edge47_Node000033_Node000027"><a xlink:title=" ">
<path fill="none" stroke="#63b8ff" d="M269.17,-315.52C290.37,-310.23 316.03,-303.83 337.26,-298.53"/>
<polygon fill="#63b8ff" stroke="#63b8ff" points="337.91,-301.98 346.76,-296.16 336.21,-295.19 337.91,-301.98"/>
</a>
</g>
</g>
<!-- Node34 -->
<g id="Node000034" class="node">
<title>Node34</title>
<g id="a_Node000034"><a xlink:href="steve_8c.html#a799ff818db4199c57a75461bbae98611" target="_top" xlink:title=" ">
<polygon fill="white" stroke="#666666" points="425.62,-336 335.38,-336 335.38,-316 425.62,-316 425.62,-336"/>
<text text-anchor="middle" x="380.5" y="-322.5" font-family="Helvetica,sans-Serif" font-size="10.00">create_steve_job</text>
</a>
</g>
</g>
<!-- Node33&#45;&gt;Node34 -->
<g id="edge46_Node000033_Node000034" class="edge">
<title>Node33&#45;&gt;Node34</title>
<g id="a_edge46_Node000033_Node000034"><a xlink:title=" ">
<path fill="none" stroke="#63b8ff" d="M291.75,-326C302.35,-326 313.27,-326 323.64,-326"/>
<polygon fill="#63b8ff" stroke="#63b8ff" points="323.56,-329.5 333.56,-326 323.56,-322.5 323.56,-329.5"/>
</a>
</g>
</g>
<!-- Node36 -->
<g id="Node000036" class="node">
<title>Node36</title>
<g id="a_Node000036"><a xlink:href="rtc__ds3231_8c.html#a2c6c198dcdf9a137429432320e626cd0" target="_top" xlink:title=" ">
<polygon fill="white" stroke="#666666" points="415.5,-58 345.5,-58 345.5,-38 415.5,-38 415.5,-58"/>
<text text-anchor="middle" x="380.5" y="-44.5" font-family="Helvetica,sans-Serif" font-size="10.00">rtc_set_time</text>
</a>
</g>
</g>
<!-- Node35&#45;&gt;Node36 -->
<g id="edge51_Node000035_Node000036" class="edge">
<title>Node35&#45;&gt;Node36</title>
<g id="a_edge51_Node000035_Node000036"><a xlink:title=" ">
<path fill="none" stroke="#63b8ff" d="M258.33,-48C280.03,-48 309.31,-48 333.66,-48"/>
<polygon fill="#63b8ff" stroke="#63b8ff" points="333.64,-51.5 343.64,-48 333.64,-44.5 333.64,-51.5"/>
</a>
</g>
</g>
<!-- Node37 -->
<g id="Node000037" class="node">
<title>Node37</title>
<g id="a_Node000037"><a xlink:href="i2c_8c.html#a73f9c3581b5d48d5db9c6c445034a970" target="_top" xlink:title=" ">
<polygon fill="white" stroke="#666666" points="573.62,-58 467.62,-58 467.62,-38 573.62,-38 573.62,-58"/>
<text text-anchor="middle" x="520.62" y="-44.5" font-family="Helvetica,sans-Serif" font-size="10.00">i2c_write_to_register</text>
</a>
</g>
</g>
<!-- Node36&#45;&gt;Node37 -->
<g id="edge52_Node000036_Node000037" class="edge">
<title>Node36&#45;&gt;Node37</title>
<g id="a_edge52_Node000036_Node000037"><a xlink:title=" ">
<path fill="none" stroke="#63b8ff" d="M416,-48C428.11,-48 442.13,-48 455.87,-48"/>
<polygon fill="#63b8ff" stroke="#63b8ff" points="455.78,-51.5 465.78,-48 455.78,-44.5 455.78,-51.5"/>
</a>
</g>
</g>
<!-- Node38&#45;&gt;Node10 -->
<g id="edge54_Node000038_Node000010" class="edge">
<title>Node38&#45;&gt;Node10</title>
<g id="a_edge54_Node000038_Node000010"><a xlink:title=" ">
<path fill="none" stroke="#63b8ff" d="M400.58,-562.76C409.92,-567.15 421.27,-572.67 431.25,-578 452.51,-589.36 476.01,-603.25 493.43,-613.82"/>
<polygon fill="#63b8ff" stroke="#63b8ff" points="491.27,-616.6 501.63,-618.82 494.91,-610.63 491.27,-616.6"/>
</a>
</g>
</g>
<!-- Node39&#45;&gt;Node4 -->
<g id="edge65_Node000039_Node000004" class="edge">
<title>Node39&#45;&gt;Node4</title>
<g id="a_edge65_Node000039_Node000004"><a xlink:title=" ">
<path fill="none" stroke="#63b8ff" d="M242.8,-716.46C257.46,-726.88 279.23,-744.01 293.75,-763 316.45,-792.69 301.41,-814.64 329.75,-839 354.49,-860.26 446.7,-881.29 492.89,-890.77"/>
<polygon fill="#63b8ff" stroke="#63b8ff" points="492.12,-894.19 502.61,-892.73 493.5,-887.32 492.12,-894.19"/>
</a>
</g>
</g>
<!-- Node39&#45;&gt;Node6 -->
<g id="edge56_Node000039_Node000006" class="edge">
<title>Node39&#45;&gt;Node6</title>
<g id="a_edge56_Node000039_Node000006"><a xlink:title=" ">
<path fill="none" stroke="#63b8ff" d="M243.91,-716.47C258.95,-726.64 280.6,-743.41 293.75,-763 322.18,-805.36 296.1,-833.65 329.75,-872 332.72,-875.39 336.29,-878.34 340.12,-880.91"/>
<polygon fill="#63b8ff" stroke="#63b8ff" points="338.27,-883.89 348.7,-885.76 341.72,-877.79 338.27,-883.89"/>
</a>
</g>
</g>
<!-- Node39&#45;&gt;Node10 -->
<g id="edge67_Node000039_Node000010" class="edge">
<title>Node39&#45;&gt;Node10</title>
<g id="a_edge67_Node000039_Node000010"><a xlink:title=" ">
<path fill="none" stroke="#63b8ff" d="M272.62,-707.87C314.87,-708.21 378.94,-705.08 431.25,-687 456.73,-678.19 482.22,-660.58 499.23,-647.25"/>
<polygon fill="#63b8ff" stroke="#63b8ff" points="500.99,-650.33 506.57,-641.32 496.59,-644.88 500.99,-650.33"/>
</a>
</g>
</g>
<!-- Node39&#45;&gt;Node17 -->
<g id="edge64_Node000039_Node000017" class="edge">
<title>Node39&#45;&gt;Node17</title>
<g id="a_edge64_Node000039_Node000017"><a xlink:title=" ">
<path fill="none" stroke="#63b8ff" d="M244.17,-695.55C264.21,-683.49 298.71,-663.46 329.75,-649 332.88,-647.54 336.15,-646.11 339.45,-644.72"/>
<polygon fill="#63b8ff" stroke="#63b8ff" points="340.64,-648.02 348.61,-641.03 338.02,-641.52 340.64,-648.02"/>
</a>
</g>
</g>
<!-- Node39&#45;&gt;Node38 -->
<g id="edge66_Node000039_Node000038" class="edge">
<title>Node39&#45;&gt;Node38</title>
<g id="a_edge66_Node000039_Node000038"><a xlink:title=" ">
<path fill="none" stroke="#63b8ff" d="M237.6,-695.55C263.17,-670.05 329.02,-604.35 361.23,-572.23"/>
<polygon fill="#63b8ff" stroke="#63b8ff" points="363.68,-574.73 368.28,-565.19 358.73,-569.77 363.68,-574.73"/>
</a>
</g>
</g>
<!-- Node40 -->
<g id="Node000040" class="node">
<title>Node40</title>
<g id="a_Node000040"><a xlink:href="user__auth_8c.html#abd83d867ec7c814578d0f6d9a13f79f0" target="_top" xlink:title=" ">
<polygon fill="white" stroke="#666666" points="407.25,-830 353.75,-830 353.75,-810 407.25,-810 407.25,-830"/>
<text text-anchor="middle" x="380.5" y="-816.5" font-family="Helvetica,sans-Serif" font-size="10.00">get_user</text>
</a>
</g>
</g>
<!-- Node39&#45;&gt;Node40 -->
<g id="edge57_Node000039_Node000040" class="edge">
<title>Node39&#45;&gt;Node40</title>
<g id="a_edge57_Node000039_Node000040"><a xlink:title=" ">
<path fill="none" stroke="#63b8ff" d="M240.92,-716.32C267.21,-735.99 324.73,-779.02 356.78,-803"/>
<polygon fill="#63b8ff" stroke="#63b8ff" points="354.53,-805.69 364.64,-808.88 358.73,-800.09 354.53,-805.69"/>
</a>
</g>
</g>
<!-- Node40&#45;&gt;Node8 -->
<g id="edge58_Node000040_Node000008" class="edge">
<title>Node40&#45;&gt;Node8</title>
<g id="a_edge58_Node000040_Node000008"><a xlink:title=" ">
<path fill="none" stroke="#63b8ff" d="M407.48,-812.85C425.25,-807.96 449.35,-801.33 470.66,-795.47"/>
<polygon fill="#63b8ff" stroke="#63b8ff" points="471.32,-798.92 480.04,-792.89 469.47,-792.17 471.32,-798.92"/>
</a>
</g>
</g>
<!-- Node40&#45;&gt;Node14 -->
<g id="edge63_Node000040_Node000014" class="edge">
<title>Node40&#45;&gt;Node14</title>
<g id="a_edge63_Node000040_Node000014"><a xlink:title=" ">
<path fill="none" stroke="#63b8ff" d="M391.09,-830.16C401.44,-841.3 418.18,-859.88 431.25,-877 460.67,-915.54 491.14,-963.5 507.5,-990.02"/>
<polygon fill="#63b8ff" stroke="#63b8ff" points="504.41,-991.69 512.62,-998.39 510.38,-988.03 504.41,-991.69"/>
</a>
</g>
</g>
<!-- Node41 -->
<g id="Node000041" class="node">
<title>Node41</title>
<g id="a_Node000041"><a xlink:href="filesystem_8c.html#ae37338ef034a23a8068df8421a5e3dfd" target="_top" xlink:title=" ">
<polygon fill="white" stroke="#666666" points="547,-868 494.25,-868 494.25,-848 547,-848 547,-868"/>
<text text-anchor="middle" x="520.62" y="-854.5" font-family="Helvetica,sans-Serif" font-size="10.00">open_dir</text>
</a>
</g>
</g>
<!-- Node40&#45;&gt;Node41 -->
<g id="edge59_Node000040_Node000041" class="edge">
<title>Node40&#45;&gt;Node41</title>
<g id="a_edge59_Node000040_Node000041"><a xlink:title=" ">
<path fill="none" stroke="#63b8ff" d="M407.48,-827.15C428.7,-832.99 458.96,-841.31 482.7,-847.84"/>
<polygon fill="#63b8ff" stroke="#63b8ff" points="481.73,-851.21 492.3,-850.48 483.59,-844.46 481.73,-851.21"/>
</a>
</g>
</g>
<!-- Node42 -->
<g id="Node000042" class="node">
<title>Node42</title>
<g id="a_Node000042"><a xlink:href="filesystem_8c.html#a7e4306f2cf5a6c7ab054e334829a4b9d" target="_top" xlink:title=" ">
<polygon fill="white" stroke="#666666" points="545.88,-830 495.38,-830 495.38,-810 545.88,-810 545.88,-830"/>
<text text-anchor="middle" x="520.62" y="-816.5" font-family="Helvetica,sans-Serif" font-size="10.00">read_dir</text>
</a>
</g>
</g>
<!-- Node40&#45;&gt;Node42 -->
<g id="edge61_Node000040_Node000042" class="edge">
<title>Node40&#45;&gt;Node42</title>
<g id="a_edge61_Node000040_Node000042"><a xlink:title=" ">
<path fill="none" stroke="#63b8ff" d="M407.48,-820C429.01,-820 459.83,-820 483.72,-820"/>
<polygon fill="#63b8ff" stroke="#63b8ff" points="483.64,-823.5 493.64,-820 483.64,-816.5 483.64,-823.5"/>
</a>
</g>
</g>
<!-- Node41&#45;&gt;Node5 -->
<g id="edge60_Node000041_Node000005" class="edge">
<title>Node41&#45;&gt;Node5</title>
<g id="a_edge60_Node000041_Node000005"><a xlink:title=" ">
<path fill="none" stroke="#63b8ff" d="M547.46,-861.35C561.73,-863.21 580.21,-865.61 598.4,-867.97"/>
<polygon fill="#63b8ff" stroke="#63b8ff" points="597.78,-871.41 608.15,-869.23 598.68,-864.47 597.78,-871.41"/>
</a>
</g>
</g>
<!-- Node42&#45;&gt;Node5 -->
<g id="edge62_Node000042_Node000005" class="edge">
<title>Node42&#45;&gt;Node5</title>
<g id="a_edge62_Node000042_Node000005"><a xlink:title=" ">
<path fill="none" stroke="#63b8ff" d="M546.21,-828.71C555,-831.88 564.97,-835.54 574,-839 593.46,-846.46 615.03,-855.15 632.6,-862.34"/>
<polygon fill="#63b8ff" stroke="#63b8ff" points="630.98,-865.46 641.56,-866.02 633.64,-858.98 630.98,-865.46"/>
</a>
</g>
</g>
</g>
</svg>
