<?xml version="1.0" encoding="UTF-8" standalone="no"?>
<!DOCTYPE svg PUBLIC "-//W3C//DTD SVG 1.1//EN"
 "http://www.w3.org/Graphics/SVG/1.1/DTD/svg11.dtd">
<!-- Generated by graphviz version 2.43.0 (0)
 -->
<!-- Title: command_fuzzer.cpp Pages: 1 -->
<!--zoomable 313 -->

<svg id="main" version="1.1" xmlns="http://www.w3.org/2000/svg" xmlns:xlink="http://www.w3.org/1999/xlink" xml:space="preserve" onload="init(evt)">

<style type="text/css"><![CDATA[
.node, .edge {opacity: 0.7;}
.node.selected, .edge.selected {opacity: 1;}
.edge:hover path { stroke: red; }
.edge:hover polygon { stroke: red; fill: red; }
]]></style>

<defs>
  <circle id="rim" cx="0" cy="0" r="7"/>
  <circle id="rim2" cx="0" cy="0" r="3.5"/>
  <g id="zoomPlus">
    <use xlink:href="#rim" fill="#404040"><set attributeName="fill" to="#808080" begin="zoomplus.mouseover" end="zoomplus.mouseout"/></use>
    <path d="M-4,0h8M0,-4v8" fill="none" stroke="white" stroke-width="1.5" pointer-events="none"/>
  </g>
  <g id="zoomMin">
    <use xlink:href="#rim" fill="#404040"><set attributeName="fill" to="#808080" begin="zoomminus.mouseover" end="zoomminus.mouseout"/></use>
    <path d="M-4,0h8" fill="none" stroke="white" stroke-width="1.5" pointer-events="none"/>
  </g>
  <g id="arrowUp" transform="translate(30 24)">
    <use xlink:href="#rim"/>
    <path pointer-events="none" fill="none" stroke="white" stroke-width="1.5" d="M0,-3.0v7 M-2.5,-0.5L0,-3.0L2.5,-0.5"/>
  </g>
  <g id="arrowRight" transform="rotate(90) translate(36 -43)">
    <use xlink:href="#rim"/>
    <path pointer-events="none" fill="none" stroke="white" stroke-width="1.5" d="M0,-3.0v7 M-2.5,-0.5L0,-3.0L2.5,-0.5"/>
  </g>
  <g id="arrowDown" transform="rotate(180) translate(-30 -48)">
    <use xlink:href="#rim"/>
    <path pointer-events="none" fill="none" stroke="white" stroke-width="1.5" d="M0,-3.0v7 M-2.5,-0.5L0,-3.0L2.5,-0.5"/>
  </g>
  <g id="arrowLeft" transform="rotate(270) translate(-36 17)">
    <use xlink:href="#rim"/>
    <path pointer-events="none" fill="none" stroke="white" stroke-width="1.5" d="M0,-3.0v7 M-2.5,-0.5L0,-3.0L2.5,-0.5"/>
  </g>
  <g id="resetDef">
    <use xlink:href="#rim2" fill="#404040"><set attributeName="fill" to="#808080" begin="reset.mouseover" end="reset.mouseout"/></use>
  </g>
</defs>
<script type="application/ecmascript">
var viewWidth = 1515;
var viewHeight = 313;
var sectionId = 'dynsection-0';
</script>
<script type="application/ecmascript" xlink:href="svg.min.js"/>
<svg id="graph" class="graph">
<g id="viewport">
<title>command_fuzzer.cpp</title>
<!-- Node1 -->
<g id="Node000001" class="node">
<title>Node1</title>
<g id="a_Node000001"><a xlink:title=" ">
<polygon fill="#999999" stroke="#666666" points="791,-305 670,-305 670,-286 791,-286 791,-305"/>
<text text-anchor="middle" x="730.5" y="-293" font-family="Helvetica,sans-Serif" font-size="10.00">command_fuzzer.cpp</text>
</a>
</g>
</g>
<!-- Node2 -->
<g id="Node000002" class="node">
<title>Node2</title>
<g id="a_Node000002"><a xlink:title=" ">
<polygon fill="#e0e0e0" stroke="#999999" points="47,-244.5 0,-244.5 0,-225.5 47,-225.5 47,-244.5"/>
<text text-anchor="middle" x="23.5" y="-232.5" font-family="Helvetica,sans-Serif" font-size="10.00">fcntl.h</text>
</a>
</g>
</g>
<!-- Node1&#45;&gt;Node2 -->
<g id="edge1_Node000001_Node000002" class="edge">
<title>Node1&#45;&gt;Node2</title>
<g id="a_edge1_Node000001_Node000002"><a xlink:title=" ">
<path fill="none" stroke="#63b8ff" d="M669.9,-292.69C527.84,-288.08 176.7,-274.52 61.5,-250 58.66,-249.4 55.75,-248.62 52.87,-247.75"/>
<polygon fill="#63b8ff" stroke="#63b8ff" points="53.89,-244.4 43.3,-244.51 51.65,-251.03 53.89,-244.4"/>
</a>
</g>
</g>
<!-- Node3 -->
<g id="Node000003" class="node">
<title>Node3</title>
<g id="a_Node000003"><a xlink:title=" ">
<polygon fill="#e0e0e0" stroke="#999999" points="900.5,-19 838.5,-19 838.5,0 900.5,0 900.5,-19"/>
<text text-anchor="middle" x="869.5" y="-7" font-family="Helvetica,sans-Serif" font-size="10.00">stdbool.h</text>
</a>
</g>
</g>
<!-- Node1&#45;&gt;Node3 -->
<g id="edge2_Node000001_Node000003" class="edge">
<title>Node1&#45;&gt;Node3</title>
<g id="a_edge2_Node000001_Node000003"><a xlink:title=" ">
<path fill="none" stroke="#63b8ff" d="M791.27,-292.63C864.78,-289.1 982.66,-278.97 1014.5,-250 1039.77,-227 1033.5,-209.67 1033.5,-175.5 1033.5,-175.5 1033.5,-175.5 1033.5,-118.5 1033.5,-86.77 946.76,-44.07 899.45,-23.14"/>
<polygon fill="#63b8ff" stroke="#63b8ff" points="900.84,-19.93 890.27,-19.13 898.04,-26.34 900.84,-19.93"/>
</a>
</g>
</g>
<!-- Node4 -->
<g id="Node000004" class="node">
<title>Node4</title>
<g id="a_Node000004"><a xlink:title=" ">
<polygon fill="#e0e0e0" stroke="#999999" points="778,-19 725,-19 725,0 778,0 778,-19"/>
<text text-anchor="middle" x="751.5" y="-7" font-family="Helvetica,sans-Serif" font-size="10.00">stdint.h</text>
</a>
</g>
</g>
<!-- Node1&#45;&gt;Node4 -->
<g id="edge3_Node000001_Node000004" class="edge">
<title>Node1&#45;&gt;Node4</title>
<g id="a_edge3_Node000001_Node000004"><a xlink:title=" ">
<path fill="none" stroke="#63b8ff" d="M669.82,-293.4C523.75,-290.3 161.26,-279.66 115.5,-250 83.96,-229.56 75.5,-213.08 75.5,-175.5 75.5,-175.5 75.5,-175.5 75.5,-118.5 75.5,-53.2 573.72,-20.42 714.72,-12.45"/>
<polygon fill="#63b8ff" stroke="#63b8ff" points="715.21,-15.93 725,-11.88 714.82,-8.94 715.21,-15.93"/>
</a>
</g>
</g>
<!-- Node5 -->
<g id="Node000005" class="node">
<title>Node5</title>
<g id="a_Node000005"><a xlink:href="stdlib_8h.html" target="_top" xlink:title=" ">
<polygon fill="white" stroke="#666666" points="195,-244.5 142,-244.5 142,-225.5 195,-225.5 195,-244.5"/>
<text text-anchor="middle" x="168.5" y="-232.5" font-family="Helvetica,sans-Serif" font-size="10.00">stdlib.h</text>
</a>
</g>
</g>
<!-- Node1&#45;&gt;Node5 -->
<g id="edge4_Node000001_Node000005" class="edge">
<title>Node1&#45;&gt;Node5</title>
<g id="a_edge4_Node000001_Node000005"><a xlink:title=" ">
<path fill="none" stroke="#63b8ff" d="M669.92,-295.16C570.95,-294.95 369.02,-289.17 203.5,-250 201.19,-249.45 198.83,-248.78 196.48,-248.03"/>
<polygon fill="#63b8ff" stroke="#63b8ff" points="197.65,-244.73 187.06,-244.61 195.26,-251.31 197.65,-244.73"/>
</a>
</g>
</g>
<!-- Node6 -->
<g id="Node000006" class="node">
<title>Node6</title>
<g id="a_Node000006"><a xlink:title=" ">
<polygon fill="#e0e0e0" stroke="#999999" points="266,-244.5 213,-244.5 213,-225.5 266,-225.5 266,-244.5"/>
<text text-anchor="middle" x="239.5" y="-232.5" font-family="Helvetica,sans-Serif" font-size="10.00">string.h</text>
</a>
</g>
</g>
<!-- Node1&#45;&gt;Node6 -->
<g id="edge5_Node000001_Node000006" class="edge">
<title>Node1&#45;&gt;Node6</title>
<g id="a_edge5_Node000001_Node000006"><a xlink:title=" ">
<path fill="none" stroke="#63b8ff" d="M669.65,-293.8C581.55,-291.61 413.89,-283.01 275.5,-250 273.13,-249.44 270.71,-248.75 268.31,-247.99"/>
<polygon fill="#63b8ff" stroke="#63b8ff" points="269.21,-244.6 258.62,-244.55 266.87,-251.19 269.21,-244.6"/>
</a>
</g>
</g>
<!-- Node7 -->
<g id="Node000007" class="node">
<title>Node7</title>
<g id="a_Node000007"><a xlink:title=" ">
<polygon fill="#e0e0e0" stroke="#999999" points="348.5,-244.5 284.5,-244.5 284.5,-225.5 348.5,-225.5 348.5,-244.5"/>
<text text-anchor="middle" x="316.5" y="-232.5" font-family="Helvetica,sans-Serif" font-size="10.00">sys/stat.h</text>
</a>
</g>
</g>
<!-- Node1&#45;&gt;Node7 -->
<g id="edge6_Node000001_Node000007" class="edge">
<title>Node1&#45;&gt;Node7</title>
<g id="a_edge6_Node000001_Node000007"><a xlink:title=" ">
<path fill="none" stroke="#63b8ff" d="M669.75,-291.19C595.37,-286.23 465.92,-274.69 357.5,-250 354.52,-249.32 351.44,-248.5 348.39,-247.61"/>
<polygon fill="#63b8ff" stroke="#63b8ff" points="349.4,-244.26 338.81,-244.57 347.28,-250.93 349.4,-244.26"/>
</a>
</g>
</g>
<!-- Node8 -->
<g id="Node000008" class="node">
<title>Node8</title>
<g id="a_Node000008"><a xlink:title=" ">
<polygon fill="#e0e0e0" stroke="#999999" points="414.5,-244.5 366.5,-244.5 366.5,-225.5 414.5,-225.5 414.5,-244.5"/>
<text text-anchor="middle" x="390.5" y="-232.5" font-family="Helvetica,sans-Serif" font-size="10.00">time.h</text>
</a>
</g>
</g>
<!-- Node1&#45;&gt;Node8 -->
<g id="edge7_Node000001_Node000008" class="edge">
<title>Node1&#45;&gt;Node8</title>
<g id="a_edge7_Node000001_Node000008"><a xlink:title=" ">
<path fill="none" stroke="#63b8ff" d="M669.84,-290.33C607.21,-284.96 507.14,-273.38 423.5,-250 421.61,-249.47 419.69,-248.86 417.77,-248.2"/>
<polygon fill="#63b8ff" stroke="#63b8ff" points="418.94,-244.9 408.35,-244.56 416.42,-251.43 418.94,-244.9"/>
</a>
</g>
</g>
<!-- Node9 -->
<g id="Node000009" class="node">
<title>Node9</title>
<g id="a_Node000009"><a xlink:title=" ">
<polygon fill="#e0e0e0" stroke="#999999" points="488.5,-244.5 432.5,-244.5 432.5,-225.5 488.5,-225.5 488.5,-244.5"/>
<text text-anchor="middle" x="460.5" y="-232.5" font-family="Helvetica,sans-Serif" font-size="10.00">unistd.h</text>
</a>
</g>
</g>
<!-- Node1&#45;&gt;Node9 -->
<g id="edge8_Node000001_Node000009" class="edge">
<title>Node1&#45;&gt;Node9</title>
<g id="a_edge8_Node000001_Node000009"><a xlink:title=" ">
<path fill="none" stroke="#63b8ff" d="M670.46,-285.96C623.01,-278.52 555.36,-266.34 497.5,-250 495.35,-249.39 493.15,-248.72 490.95,-247.99"/>
<polygon fill="#63b8ff" stroke="#63b8ff" points="492.02,-244.66 481.42,-244.64 489.69,-251.26 492.02,-244.66"/>
</a>
</g>
</g>
<!-- Node10 -->
<g id="Node000010" class="node">
<title>Node10</title>
<g id="a_Node000010"><a xlink:title=" ">
<polygon fill="#e0e0e0" stroke="#999999" points="562,-244.5 507,-244.5 507,-225.5 562,-225.5 562,-244.5"/>
<text text-anchor="middle" x="534.5" y="-232.5" font-family="Helvetica,sans-Serif" font-size="10.00">fstream</text>
</a>
</g>
</g>
<!-- Node1&#45;&gt;Node10 -->
<g id="edge9_Node000001_Node000010" class="edge">
<title>Node1&#45;&gt;Node10</title>
<g id="a_edge9_Node000001_Node000010"><a xlink:title=" ">
<path fill="none" stroke="#63b8ff" d="M699.71,-286C668.55,-277.3 619.02,-263.22 576.5,-250 574.21,-249.29 571.85,-248.54 569.48,-247.78"/>
<polygon fill="#63b8ff" stroke="#63b8ff" points="570.36,-244.38 559.77,-244.61 568.18,-251.04 570.36,-244.38"/>
</a>
</g>
</g>
<!-- Node11 -->
<g id="Node000011" class="node">
<title>Node11</title>
<g id="a_Node000011"><a xlink:title=" ">
<polygon fill="#e0e0e0" stroke="#999999" points="1391,-19 1318,-19 1318,0 1391,0 1391,-19"/>
<text text-anchor="middle" x="1354.5" y="-7" font-family="Helvetica,sans-Serif" font-size="10.00">FreeRTOS.h</text>
</a>
</g>
</g>
<!-- Node1&#45;&gt;Node11 -->
<g id="edge10_Node000001_Node000011" class="edge">
<title>Node1&#45;&gt;Node11</title>
<g id="a_edge10_Node000001_Node000011"><a xlink:title=" ">
<path fill="none" stroke="#63b8ff" d="M791.44,-292.62C919.74,-288.21 1213.84,-275.57 1310.5,-250 1385.56,-230.15 1468.5,-253.14 1468.5,-175.5 1468.5,-175.5 1468.5,-175.5 1468.5,-118.5 1468.5,-72.47 1418.92,-40.18 1385.15,-23.53"/>
<polygon fill="#63b8ff" stroke="#63b8ff" points="1386.21,-20.16 1375.68,-19.05 1383.22,-26.49 1386.21,-20.16"/>
</a>
</g>
</g>
<!-- Node12 -->
<g id="Node000012" class="node">
<title>Node12</title>
<g id="a_Node000012"><a xlink:title=" ">
<polygon fill="#e0e0e0" stroke="#999999" points="708,-244.5 619,-244.5 619,-225.5 708,-225.5 708,-244.5"/>
<text text-anchor="middle" x="663.5" y="-232.5" font-family="Helvetica,sans-Serif" font-size="10.00">command.pb.h</text>
</a>
</g>
</g>
<!-- Node1&#45;&gt;Node12 -->
<g id="edge11_Node000001_Node000012" class="edge">
<title>Node1&#45;&gt;Node12</title>
<g id="a_edge11_Node000001_Node000012"><a xlink:title=" ">
<path fill="none" stroke="#63b8ff" d="M720.61,-285.87C710.22,-276.8 693.66,-262.34 681.05,-251.32"/>
<polygon fill="#63b8ff" stroke="#63b8ff" points="683.26,-248.61 673.43,-244.67 678.66,-253.88 683.26,-248.61"/>
</a>
</g>
</g>
<!-- Node13 -->
<g id="Node000013" class="node">
<title>Node13</title>
<g id="a_Node000013"><a xlink:title=" ">
<polygon fill="#e0e0e0" stroke="#999999" points="871,-250 726,-250 726,-220 871,-220 871,-250"/>
<text text-anchor="start" x="734" y="-238" font-family="Helvetica,sans-Serif" font-size="10.00">google/protobuf/io</text>
<text text-anchor="middle" x="798.5" y="-227" font-family="Helvetica,sans-Serif" font-size="10.00">/zero_copy_stream_impl.h</text>
</a>
</g>
</g>
<!-- Node1&#45;&gt;Node13 -->
<g id="edge12_Node000001_Node000013" class="edge">
<title>Node1&#45;&gt;Node13</title>
<g id="a_edge12_Node000001_Node000013"><a xlink:title=" ">
<path fill="none" stroke="#63b8ff" d="M740.53,-285.87C749.42,-278.22 762.75,-266.76 774.38,-256.75"/>
<polygon fill="#63b8ff" stroke="#63b8ff" points="776.8,-259.29 782.09,-250.11 772.23,-253.98 776.8,-259.29"/>
</a>
</g>
</g>
<!-- Node14 -->
<g id="Node000014" class="node">
<title>Node14</title>
<g id="a_Node000014"><a xlink:title=" ">
<polygon fill="#e0e0e0" stroke="#999999" points="1005.5,-250 889.5,-250 889.5,-220 1005.5,-220 1005.5,-250"/>
<text text-anchor="start" x="897.5" y="-238" font-family="Helvetica,sans-Serif" font-size="10.00">google/protobuf/text</text>
<text text-anchor="middle" x="947.5" y="-227" font-family="Helvetica,sans-Serif" font-size="10.00">_format.h</text>
</a>
</g>
</g>
<!-- Node1&#45;&gt;Node14 -->
<g id="edge13_Node000001_Node000014" class="edge">
<title>Node1&#45;&gt;Node14</title>
<g id="a_edge13_Node000001_Node000014"><a xlink:title=" ">
<path fill="none" stroke="#63b8ff" d="M762.05,-285.99C794.31,-277.3 845.25,-263.57 885.58,-252.69"/>
<polygon fill="#63b8ff" stroke="#63b8ff" points="886.59,-256.05 895.33,-250.06 884.76,-249.29 886.59,-256.05"/>
</a>
</g>
</g>
<!-- Node15 -->
<g id="Node000015" class="node">
<title>Node15</title>
<g id="a_Node000015"><a xlink:title=" ">
<polygon fill="#e0e0e0" stroke="#999999" points="1465.5,-19 1409.5,-19 1409.5,0 1465.5,0 1465.5,-19"/>
<text text-anchor="middle" x="1437.5" y="-7" font-family="Helvetica,sans-Serif" font-size="10.00">queue.h</text>
</a>
</g>
</g>
<!-- Node1&#45;&gt;Node15 -->
<g id="edge14_Node000001_Node000015" class="edge">
<title>Node1&#45;&gt;Node15</title>
<g id="a_edge14_Node000001_Node000015"><a xlink:title=" ">
<path fill="none" stroke="#63b8ff" d="M791.13,-294.4C933.16,-293.54 1283.78,-287.55 1394.5,-250 1451.12,-230.8 1506.5,-235.28 1506.5,-175.5 1506.5,-175.5 1506.5,-175.5 1506.5,-118.5 1506.5,-80.59 1475.94,-45.3 1455.49,-25.94"/>
<polygon fill="#63b8ff" stroke="#63b8ff" points="1457.73,-23.24 1447.98,-19.1 1453.02,-28.42 1457.73,-23.24"/>
</a>
</g>
</g>
<!-- Node16 -->
<g id="Node000016" class="node">
<title>Node16</title>
<g id="a_Node000016"><a xlink:title=" ">
<polygon fill="#e0e0e0" stroke="#999999" points="966,-19 919,-19 919,0 966,0 966,-19"/>
<text text-anchor="middle" x="942.5" y="-7" font-family="Helvetica,sans-Serif" font-size="10.00">task.h</text>
</a>
</g>
</g>
<!-- Node1&#45;&gt;Node16 -->
<g id="edge15_Node000001_Node000016" class="edge">
<title>Node1&#45;&gt;Node16</title>
<g id="a_edge15_Node000001_Node000016"><a xlink:title=" ">
<path fill="none" stroke="#63b8ff" d="M791.17,-292.58C869.61,-288.96 1000.67,-278.68 1038.5,-250 1067.36,-228.12 1071.5,-211.71 1071.5,-175.5 1071.5,-175.5 1071.5,-175.5 1071.5,-118.5 1071.5,-68.63 1014.12,-37.24 975.89,-21.86"/>
<polygon fill="#63b8ff" stroke="#63b8ff" points="976.75,-18.44 966.16,-18.12 974.24,-24.98 976.75,-18.44"/>
</a>
</g>
</g>
<!-- Node17 -->
<g id="Node000017" class="node">
<title>Node17</title>
<g id="a_Node000017"><a xlink:title=" ">
<polygon fill="#e0e0e0" stroke="#999999" points="417.5,-129 331.5,-129 331.5,-110 417.5,-110 417.5,-129"/>
<text text-anchor="middle" x="374.5" y="-117" font-family="Helvetica,sans-Serif" font-size="10.00">spacepacket.h</text>
</a>
</g>
</g>
<!-- Node1&#45;&gt;Node17 -->
<g id="edge16_Node000001_Node000017" class="edge">
<title>Node1&#45;&gt;Node17</title>
<g id="a_edge16_Node000001_Node000017"><a xlink:title=" ">
<path fill="none" stroke="#63b8ff" d="M669.91,-294.55C525.16,-294.04 168.53,-288.82 132.5,-250 71.08,-183.84 233.1,-144.68 321.49,-128.79"/>
<polygon fill="#63b8ff" stroke="#63b8ff" points="322.12,-132.23 331.36,-127.06 320.91,-125.34 322.12,-132.23"/>
</a>
</g>
</g>
<!-- Node18 -->
<g id="Node000018" class="node">
<title>Node18</title>
<g id="a_Node000018"><a xlink:href="command_8h.html" target="_top" xlink:title="Handles decoding and triggering responses to received commands.">
<polygon fill="white" stroke="#666666" points="639.5,-184 565.5,-184 565.5,-165 639.5,-165 639.5,-184"/>
<text text-anchor="middle" x="602.5" y="-172" font-family="Helvetica,sans-Serif" font-size="10.00">command.h</text>
</a>
</g>
</g>
<!-- Node1&#45;&gt;Node18 -->
<g id="edge17_Node000001_Node000018" class="edge">
<title>Node1&#45;&gt;Node18</title>
<g id="a_edge17_Node000001_Node000018"><a xlink:title=" ">
<path fill="none" stroke="#63b8ff" d="M669.78,-286.02C647.42,-279.76 624.04,-268.89 609.5,-250 597.4,-234.28 597.24,-210.79 599.09,-194.41"/>
<polygon fill="#63b8ff" stroke="#63b8ff" points="602.57,-194.78 600.57,-184.38 595.65,-193.76 602.57,-194.78"/>
</a>
</g>
</g>
<!-- Node20 -->
<g id="Node000020" class="node">
<title>Node20</title>
<g id="a_Node000020"><a xlink:href="filesystem_8h.html" target="_top" xlink:title="Handles file system operations and management.">
<polygon fill="white" stroke="#666666" points="1215,-74 1138,-74 1138,-55 1215,-55 1215,-74"/>
<text text-anchor="middle" x="1176.5" y="-62" font-family="Helvetica,sans-Serif" font-size="10.00">filesystem.h</text>
</a>
</g>
</g>
<!-- Node1&#45;&gt;Node20 -->
<g id="edge33_Node000001_Node000020" class="edge">
<title>Node1&#45;&gt;Node20</title>
<g id="a_edge33_Node000001_Node000020"><a xlink:title=" ">
<path fill="none" stroke="#63b8ff" d="M791.22,-292.11C901.16,-287.2 1124.19,-274.33 1149.5,-250 1195.18,-206.09 1186.79,-121.45 1180.31,-84.05"/>
<polygon fill="#63b8ff" stroke="#63b8ff" points="1183.72,-83.23 1178.42,-74.06 1176.84,-84.53 1183.72,-83.23"/>
</a>
</g>
</g>
<!-- Node25 -->
<g id="Node000025" class="node">
<title>Node25</title>
<g id="a_Node000025"><a xlink:href="gse_8h.html" target="_top" xlink:title="Handles hardline communication over USB.">
<polygon fill="white" stroke="#666666" points="1279,-244.5 1236,-244.5 1236,-225.5 1279,-225.5 1279,-244.5"/>
<text text-anchor="middle" x="1257.5" y="-232.5" font-family="Helvetica,sans-Serif" font-size="10.00">gse.h</text>
</a>
</g>
</g>
<!-- Node1&#45;&gt;Node25 -->
<g id="edge34_Node000001_Node000025" class="edge">
<title>Node1&#45;&gt;Node25</title>
<g id="a_edge34_Node000001_Node000025"><a xlink:title=" ">
<path fill="none" stroke="#63b8ff" d="M791.07,-294.43C884.65,-293.12 1069.43,-285.71 1221.5,-250 1223.87,-249.44 1226.29,-248.76 1228.7,-248.01"/>
<polygon fill="#63b8ff" stroke="#63b8ff" points="1230.13,-251.21 1238.39,-244.58 1227.79,-244.62 1230.13,-251.21"/>
</a>
</g>
</g>
<!-- Node26 -->
<g id="Node000026" class="node">
<title>Node26</title>
<g id="a_Node000026"><a xlink:href="log_8h.html" target="_top" xlink:title=" ">
<polygon fill="white" stroke="#666666" points="1141,-244.5 1100,-244.5 1100,-225.5 1141,-225.5 1141,-244.5"/>
<text text-anchor="middle" x="1120.5" y="-232.5" font-family="Helvetica,sans-Serif" font-size="10.00">log.h</text>
</a>
</g>
</g>
<!-- Node1&#45;&gt;Node26 -->
<g id="edge35_Node000001_Node000026" class="edge">
<title>Node1&#45;&gt;Node26</title>
<g id="a_edge35_Node000001_Node000026"><a xlink:title=" ">
<path fill="none" stroke="#63b8ff" d="M791.05,-291.63C862.43,-287.16 984.16,-276.16 1085.5,-250 1087.66,-249.44 1089.87,-248.78 1092.07,-248.06"/>
<polygon fill="#63b8ff" stroke="#63b8ff" points="1093.35,-251.32 1101.54,-244.61 1090.95,-244.75 1093.35,-251.32"/>
</a>
</g>
</g>
<!-- Node27 -->
<g id="Node000027" class="node">
<title>Node27</title>
<g id="a_Node000027"><a xlink:href="telemetry_8h.html" target="_top" xlink:title="Functions for packaging and queuing telemetry packets for sending.">
<polygon fill="white" stroke="#666666" points="1343.5,-184 1271.5,-184 1271.5,-165 1343.5,-165 1343.5,-184"/>
<text text-anchor="middle" x="1307.5" y="-172" font-family="Helvetica,sans-Serif" font-size="10.00">telemetry.h</text>
</a>
</g>
</g>
<!-- Node1&#45;&gt;Node27 -->
<g id="edge46_Node000001_Node000027" class="edge">
<title>Node1&#45;&gt;Node27</title>
<g id="a_edge46_Node000001_Node000027"><a xlink:title=" ">
<path fill="none" stroke="#63b8ff" d="M791.02,-293.59C927.66,-290.98 1251.11,-281.51 1288.5,-250 1304.57,-236.45 1308.06,-211.37 1308.37,-194.08"/>
<polygon fill="#63b8ff" stroke="#63b8ff" points="1311.86,-193.99 1308.21,-184.04 1304.87,-194.1 1311.86,-193.99"/>
</a>
</g>
</g>
<!-- Node29 -->
<g id="Node000029" class="node">
<title>Node29</title>
<g id="a_Node000029"><a xlink:href="steve_8h.html" target="_top" xlink:title="S.T.E.V.E (Scheduler Task for Executing Vital Events).">
<polygon fill="white" stroke="#666666" points="1287,-74 1234,-74 1234,-55 1287,-55 1287,-74"/>
<text text-anchor="middle" x="1260.5" y="-62" font-family="Helvetica,sans-Serif" font-size="10.00">steve.h</text>
</a>
</g>
</g>
<!-- Node1&#45;&gt;Node29 -->
<g id="edge44_Node000001_Node000029" class="edge">
<title>Node1&#45;&gt;Node29</title>
<g id="a_edge44_Node000001_Node000029"><a xlink:title=" ">
<path fill="none" stroke="#63b8ff" d="M791.21,-291.94C905.7,-286.6 1144.73,-272.84 1174.5,-250 1227.29,-209.5 1195.6,-168.39 1227.5,-110 1232.85,-100.21 1240.13,-90.15 1246.49,-82.08"/>
<polygon fill="#63b8ff" stroke="#63b8ff" points="1249.3,-84.17 1252.9,-74.21 1243.87,-79.75 1249.3,-84.17"/>
</a>
</g>
</g>
<!-- Node18&#45;&gt;Node4 -->
<g id="edge18_Node000018_Node000004" class="edge">
<title>Node18&#45;&gt;Node4</title>
<g id="a_edge18_Node000018_Node000004"><a xlink:title=" ">
<path fill="none" stroke="#63b8ff" d="M610.51,-164.74C634.36,-138.65 705.18,-61.17 736.41,-27"/>
<polygon fill="#63b8ff" stroke="#63b8ff" points="739.29,-29.05 743.45,-19.31 734.12,-24.33 739.29,-29.05"/>
</a>
</g>
</g>
<!-- Node18&#45;&gt;Node17 -->
<g id="edge19_Node000018_Node000017" class="edge">
<title>Node18&#45;&gt;Node17</title>
<g id="a_edge19_Node000018_Node000017"><a xlink:title=" ">
<path fill="none" stroke="#63b8ff" d="M565.87,-164.98C526.59,-155.86 464.13,-141.33 421.31,-131.38"/>
<polygon fill="#63b8ff" stroke="#63b8ff" points="421.95,-127.94 411.42,-129.08 420.37,-134.76 421.95,-127.94"/>
</a>
</g>
</g>
<!-- Node19 -->
<g id="Node000019" class="node">
<title>Node19</title>
<g id="a_Node000019"><a xlink:href="user__auth_8h.html" target="_top" xlink:title=" ">
<polygon fill="white" stroke="#666666" points="877.5,-129 803.5,-129 803.5,-110 877.5,-110 877.5,-129"/>
<text text-anchor="middle" x="840.5" y="-117" font-family="Helvetica,sans-Serif" font-size="10.00">user_auth.h</text>
</a>
</g>
</g>
<!-- Node18&#45;&gt;Node19 -->
<g id="edge20_Node000018_Node000019" class="edge">
<title>Node18&#45;&gt;Node19</title>
<g id="a_edge20_Node000018_Node000019"><a xlink:title=" ">
<path fill="none" stroke="#63b8ff" d="M639.69,-165.22C681.13,-155.99 748.24,-141.04 793.35,-131"/>
<polygon fill="#63b8ff" stroke="#63b8ff" points="794.18,-134.4 803.18,-128.81 792.66,-127.57 794.18,-134.4"/>
</a>
</g>
</g>
<!-- Node19&#45;&gt;Node3 -->
<g id="edge21_Node000019_Node000003" class="edge">
<title>Node19&#45;&gt;Node3</title>
<g id="a_edge21_Node000019_Node000003"><a xlink:title=" ">
<path fill="none" stroke="#63b8ff" d="M842.87,-109.66C847.59,-92.09 858.24,-52.45 864.54,-28.95"/>
<polygon fill="#63b8ff" stroke="#63b8ff" points="867.96,-29.72 867.18,-19.16 861.2,-27.91 867.96,-29.72"/>
</a>
</g>
</g>
<!-- Node19&#45;&gt;Node4 -->
<g id="edge22_Node000019_Node000004" class="edge">
<title>Node19&#45;&gt;Node4</title>
<g id="a_edge22_Node000019_Node000004"><a xlink:title=" ">
<path fill="none" stroke="#63b8ff" d="M833.22,-109.66C818.34,-91.61 784.28,-50.28 765.16,-27.08"/>
<polygon fill="#63b8ff" stroke="#63b8ff" points="767.7,-24.65 758.64,-19.16 762.29,-29.1 767.7,-24.65"/>
</a>
</g>
</g>
<!-- Node19&#45;&gt;Node20 -->
<g id="edge23_Node000019_Node000020" class="edge">
<title>Node19&#45;&gt;Node20</title>
<g id="a_edge23_Node000019_Node000020"><a xlink:title=" ">
<path fill="none" stroke="#63b8ff" d="M877.74,-112.63C938.77,-103 1060.04,-83.87 1127.8,-73.18"/>
<polygon fill="#63b8ff" stroke="#63b8ff" points="1128.47,-76.62 1137.8,-71.6 1127.38,-69.71 1128.47,-76.62"/>
</a>
</g>
</g>
<!-- Node20&#45;&gt;Node3 -->
<g id="edge32_Node000020_Node000003" class="edge">
<title>Node20&#45;&gt;Node3</title>
<g id="a_edge32_Node000020_Node000003"><a xlink:title=" ">
<path fill="none" stroke="#63b8ff" d="M1137.92,-57.29C1078.73,-47.72 967.21,-29.55 911.05,-19.21"/>
<polygon fill="#63b8ff" stroke="#63b8ff" points="911.39,-15.71 900.92,-17.31 910.1,-22.59 911.39,-15.71"/>
</a>
</g>
</g>
<!-- Node20&#45;&gt;Node4 -->
<g id="edge31_Node000020_Node000004" class="edge">
<title>Node20&#45;&gt;Node4</title>
<g id="a_edge31_Node000020_Node000004"><a xlink:title=" ">
<path fill="none" stroke="#63b8ff" d="M1137.66,-58.66C1056.08,-48.48 867.88,-25.01 788.2,-15.08"/>
<polygon fill="#63b8ff" stroke="#63b8ff" points="788.5,-11.59 778.15,-13.82 787.64,-18.53 788.5,-11.59"/>
</a>
</g>
</g>
<!-- Node20&#45;&gt;Node11 -->
<g id="edge24_Node000020_Node000011" class="edge">
<title>Node20&#45;&gt;Node11</title>
<g id="a_edge24_Node000020_Node000011"><a xlink:title=" ">
<path fill="none" stroke="#63b8ff" d="M1205.1,-54.98C1235.11,-46.05 1282.48,-31.94 1315.82,-22.02"/>
<polygon fill="#63b8ff" stroke="#63b8ff" points="1317.09,-25.29 1325.68,-19.08 1315.09,-18.58 1317.09,-25.29"/>
</a>
</g>
</g>
<!-- Node20&#45;&gt;Node15 -->
<g id="edge25_Node000020_Node000015" class="edge">
<title>Node20&#45;&gt;Node15</title>
<g id="a_edge25_Node000020_Node000015"><a xlink:title=" ">
<path fill="none" stroke="#63b8ff" d="M1215.02,-56.21C1257.7,-48.05 1328.81,-34.22 1399.3,-19.21"/>
<polygon fill="#63b8ff" stroke="#63b8ff" points="1400.19,-22.6 1409.24,-17.08 1398.73,-15.75 1400.19,-22.6"/>
</a>
</g>
</g>
<!-- Node20&#45;&gt;Node16 -->
<g id="edge26_Node000020_Node000016" class="edge">
<title>Node20&#45;&gt;Node16</title>
<g id="a_edge26_Node000020_Node000016"><a xlink:title=" ">
<path fill="none" stroke="#63b8ff" d="M1137.66,-55.46C1098.98,-47.34 1037.66,-34.15 976.11,-19.32"/>
<polygon fill="#63b8ff" stroke="#63b8ff" points="976.78,-15.88 966.24,-16.93 975.13,-22.68 976.78,-15.88"/>
</a>
</g>
</g>
<!-- Node21 -->
<g id="Node000021" class="node">
<title>Node21</title>
<g id="a_Node000021"><a xlink:title=" ">
<polygon fill="#e0e0e0" stroke="#999999" points="1219.5,-19 1187.5,-19 1187.5,0 1219.5,0 1219.5,-19"/>
<text text-anchor="middle" x="1203.5" y="-7" font-family="Helvetica,sans-Serif" font-size="10.00">ff.h</text>
</a>
</g>
</g>
<!-- Node20&#45;&gt;Node21 -->
<g id="edge27_Node000020_Node000021" class="edge">
<title>Node20&#45;&gt;Node21</title>
<g id="a_edge27_Node000020_Node000021"><a xlink:title=" ">
<path fill="none" stroke="#63b8ff" d="M1180.96,-54.75C1184.62,-47.57 1189.91,-37.18 1194.45,-28.27"/>
<polygon fill="#63b8ff" stroke="#63b8ff" points="1197.7,-29.59 1199.12,-19.09 1191.47,-26.41 1197.7,-29.59"/>
</a>
</g>
</g>
<!-- Node22 -->
<g id="Node000022" class="node">
<title>Node22</title>
<g id="a_Node000022"><a xlink:href="filesystem__errors_8h.html" target="_top" xlink:title=" ">
<polygon fill="white" stroke="#666666" points="1095,-19 984,-19 984,0 1095,0 1095,-19"/>
<text text-anchor="middle" x="1039.5" y="-7" font-family="Helvetica,sans-Serif" font-size="10.00">filesystem_errors.h</text>
</a>
</g>
</g>
<!-- Node20&#45;&gt;Node22 -->
<g id="edge28_Node000020_Node000022" class="edge">
<title>Node20&#45;&gt;Node22</title>
<g id="a_edge28_Node000020_Node000022"><a xlink:title=" ">
<path fill="none" stroke="#63b8ff" d="M1154.49,-54.98C1132.05,-46.3 1097.02,-32.75 1071.51,-22.88"/>
<polygon fill="#63b8ff" stroke="#63b8ff" points="1072.5,-19.51 1061.91,-19.17 1069.98,-26.04 1072.5,-19.51"/>
</a>
</g>
</g>
<!-- Node23 -->
<g id="Node000023" class="node">
<title>Node23</title>
<g id="a_Node000023"><a xlink:title=" ">
<polygon fill="#e0e0e0" stroke="#999999" points="1299.5,-19 1237.5,-19 1237.5,0 1299.5,0 1299.5,-19"/>
<text text-anchor="middle" x="1268.5" y="-7" font-family="Helvetica,sans-Serif" font-size="10.00">semphr.h</text>
</a>
</g>
</g>
<!-- Node20&#45;&gt;Node23 -->
<g id="edge29_Node000020_Node000023" class="edge">
<title>Node20&#45;&gt;Node23</title>
<g id="a_edge29_Node000020_Node000023"><a xlink:title=" ">
<path fill="none" stroke="#63b8ff" d="M1191.28,-54.98C1205.68,-46.69 1227.81,-33.94 1244.69,-24.22"/>
<polygon fill="#63b8ff" stroke="#63b8ff" points="1246.53,-27.19 1253.45,-19.17 1243.04,-21.13 1246.53,-27.19"/>
</a>
</g>
</g>
<!-- Node24 -->
<g id="Node000024" class="node">
<title>Node24</title>
<g id="a_Node000024"><a xlink:title=" ">
<polygon fill="#e0e0e0" stroke="#999999" points="1169.5,-19 1113.5,-19 1113.5,0 1169.5,0 1169.5,-19"/>
<text text-anchor="middle" x="1141.5" y="-7" font-family="Helvetica,sans-Serif" font-size="10.00">stddef.h</text>
</a>
</g>
</g>
<!-- Node20&#45;&gt;Node24 -->
<g id="edge30_Node000020_Node000024" class="edge">
<title>Node20&#45;&gt;Node24</title>
<g id="a_edge30_Node000020_Node000024"><a xlink:title=" ">
<path fill="none" stroke="#63b8ff" d="M1170.72,-54.75C1165.88,-47.42 1158.82,-36.73 1152.86,-27.7"/>
<polygon fill="#63b8ff" stroke="#63b8ff" points="1155.6,-25.5 1147.17,-19.09 1149.76,-29.36 1155.6,-25.5"/>
</a>
</g>
</g>
<!-- Node26&#45;&gt;Node3 -->
<g id="edge43_Node000026_Node000003" class="edge">
<title>Node26&#45;&gt;Node3</title>
<g id="a_edge43_Node000026_Node000003"><a xlink:title=" ">
<path fill="none" stroke="#63b8ff" d="M1119.68,-225.33C1116.45,-196.4 1102.02,-102.27 1047.5,-55 1042.25,-50.45 961.57,-31.45 910.65,-19.8"/>
<polygon fill="#63b8ff" stroke="#63b8ff" points="911.42,-16.39 900.89,-17.57 909.86,-23.21 911.42,-16.39"/>
</a>
</g>
</g>
<!-- Node26&#45;&gt;Node27 -->
<g id="edge36_Node000026_Node000027" class="edge">
<title>Node26&#45;&gt;Node27</title>
<g id="a_edge36_Node000026_Node000027"><a xlink:title=" ">
<path fill="none" stroke="#63b8ff" d="M1141.23,-227.52C1172.3,-217.79 1231.45,-199.29 1270.17,-187.18"/>
<polygon fill="#63b8ff" stroke="#63b8ff" points="1271.53,-190.42 1280.03,-184.09 1269.44,-183.74 1271.53,-190.42"/>
</a>
</g>
</g>
<!-- Node27&#45;&gt;Node11 -->
<g id="edge37_Node000027_Node000011" class="edge">
<title>Node27&#45;&gt;Node11</title>
<g id="a_edge37_Node000027_Node000011"><a xlink:title=" ">
<path fill="none" stroke="#63b8ff" d="M1314.71,-164.91C1321.48,-156.37 1331.31,-142.61 1336.5,-129 1349.3,-95.41 1353.02,-53.2 1354.09,-29.29"/>
<polygon fill="#63b8ff" stroke="#63b8ff" points="1357.59,-29.26 1354.43,-19.15 1350.6,-29.02 1357.59,-29.26"/>
</a>
</g>
</g>
<!-- Node27&#45;&gt;Node15 -->
<g id="edge38_Node000027_Node000015" class="edge">
<title>Node27&#45;&gt;Node15</title>
<g id="a_edge38_Node000027_Node000015"><a xlink:title=" ">
<path fill="none" stroke="#63b8ff" d="M1317.28,-164.73C1326.73,-156.06 1341.23,-142.2 1352.5,-129 1381.54,-94.98 1410.98,-51.48 1426.44,-27.79"/>
<polygon fill="#63b8ff" stroke="#63b8ff" points="1429.5,-29.5 1431.99,-19.2 1423.62,-25.7 1429.5,-29.5"/>
</a>
</g>
</g>
<!-- Node28 -->
<g id="Node000028" class="node">
<title>Node28</title>
<g id="a_Node000028"><a xlink:href="file__downlink_8h.html" target="_top" xlink:title=" ">
<polygon fill="white" stroke="#666666" points="1327,-129 1236,-129 1236,-110 1327,-110 1327,-129"/>
<text text-anchor="middle" x="1281.5" y="-117" font-family="Helvetica,sans-Serif" font-size="10.00">file_downlink.h</text>
</a>
</g>
</g>
<!-- Node27&#45;&gt;Node28 -->
<g id="edge39_Node000027_Node000028" class="edge">
<title>Node27&#45;&gt;Node28</title>
<g id="a_edge39_Node000027_Node000028"><a xlink:title=" ">
<path fill="none" stroke="#63b8ff" d="M1303.21,-164.75C1299.69,-157.57 1294.59,-147.18 1290.22,-138.27"/>
<polygon fill="#63b8ff" stroke="#63b8ff" points="1293.26,-136.53 1285.71,-129.09 1286.98,-139.61 1293.26,-136.53"/>
</a>
</g>
</g>
<!-- Node28&#45;&gt;Node11 -->
<g id="edge40_Node000028_Node000011" class="edge">
<title>Node28&#45;&gt;Node11</title>
<g id="a_edge40_Node000028_Node000011"><a xlink:title=" ">
<path fill="none" stroke="#63b8ff" d="M1287.47,-109.66C1299.56,-91.77 1327.12,-51 1342.88,-27.69"/>
<polygon fill="#63b8ff" stroke="#63b8ff" points="1345.95,-29.4 1348.65,-19.16 1340.15,-25.48 1345.95,-29.4"/>
</a>
</g>
</g>
<!-- Node28&#45;&gt;Node15 -->
<g id="edge41_Node000028_Node000015" class="edge">
<title>Node28&#45;&gt;Node15</title>
<g id="a_edge41_Node000028_Node000015"><a xlink:title=" ">
<path fill="none" stroke="#63b8ff" d="M1294,-109.84C1320.7,-91.36 1383.54,-47.86 1416.49,-25.05"/>
<polygon fill="#63b8ff" stroke="#63b8ff" points="1418.71,-27.77 1424.94,-19.2 1414.72,-22.01 1418.71,-27.77"/>
</a>
</g>
</g>
<!-- Node28&#45;&gt;Node20 -->
<g id="edge42_Node000028_Node000020" class="edge">
<title>Node28&#45;&gt;Node20</title>
<g id="a_edge42_Node000028_Node000020"><a xlink:title=" ">
<path fill="none" stroke="#63b8ff" d="M1264.63,-109.98C1247.89,-101.54 1222,-88.47 1202.61,-78.68"/>
<polygon fill="#63b8ff" stroke="#63b8ff" points="1204.18,-75.55 1193.68,-74.17 1201.03,-81.8 1204.18,-75.55"/>
</a>
</g>
</g>
<!-- Node29&#45;&gt;Node23 -->
<g id="edge45_Node000029_Node000023" class="edge">
<title>Node29&#45;&gt;Node23</title>
<g id="a_edge45_Node000029_Node000023"><a xlink:title=" ">
<path fill="none" stroke="#63b8ff" d="M1261.82,-54.75C1262.87,-47.8 1264.37,-37.85 1265.69,-29.13"/>
<polygon fill="#63b8ff" stroke="#63b8ff" points="1269.17,-29.5 1267.2,-19.09 1262.25,-28.45 1269.17,-29.5"/>
</a>
</g>
</g>
</g>
</svg>

<g id="navigator" transform="translate(0 0)" fill="#404254">
  <rect fill="#f2f5e9" fill-opacity="0.5" stroke="#606060" stroke-width=".5" x="0" y="0" width="60" height="60"/>
  <use id="zoomplus" xlink:href="#zoomPlus" x="17" y="9" onmousedown="handleZoom(evt,'in')"/>
  <use id="zoomminus" xlink:href="#zoomMin" x="42" y="9" onmousedown="handleZoom(evt,'out')"/>
  <use id="reset" xlink:href="#resetDef" x="30" y="36" onmousedown="handleReset()"/>
   <use id="arrowup" xlink:href="#arrowUp" x="0" y="0" onmousedown="handlePan(0,-1)"/>
  <use id="arrowright" xlink:href="#arrowRight" x="0" y="0" onmousedown="handlePan(1,0)"/>
  <use id="arrowdown" xlink:href="#arrowDown" x="0" y="0" onmousedown="handlePan(0,1)"/>
  <use id="arrowleft" xlink:href="#arrowLeft" x="0" y="0" onmousedown="handlePan(-1,0)"/>
</g>
<svg viewBox="0 0 15 15" width="100%" height="30px" preserveAspectRatio="xMaxYMin meet">
 <g id="arrow_out" transform="scale(0.3 0.3)">
  <a xlink:href="command__fuzzer_8cpp__incl_org.svg" target="_base">
   <rect id="button" ry="5" rx="5" y="6" x="6" height="38" width="38"
        fill="#f2f5e9" fill-opacity="0.5" stroke="#606060" stroke-width="1.0"/>
   <path id="arrow"
     d="M 11.500037,31.436501 C 11.940474,20.09759 22.043105,11.32322 32.158766,21.979434 L 37.068811,17.246167 C 37.068811,17.246167 37.088388,32 37.088388,32 L 22.160133,31.978069 C 22.160133,31.978069 26.997745,27.140456 26.997745,27.140456 C 18.528582,18.264221 13.291696,25.230495 11.500037,31.436501 z"
     style="fill:#404040;"/>
  </a>
 </g>
</svg>

<style type='text/css'>
<![CDATA[
[data-mouse-over-selected='false'] { opacity: 0.7; }
[data-mouse-over-selected='true']  { opacity: 1.0; }
]]>
</style>
<script type="application/ecmascript"><![CDATA[
document.addEventListener('DOMContentLoaded', (event) => {
  highlightEdges();
  highlightAdjacentNodes();
});
]]></script>
</svg>
