<?xml version="1.0" encoding="UTF-8" standalone="no"?>
<!DOCTYPE svg PUBLIC "-//W3C//DTD SVG 1.1//EN"
 "http://www.w3.org/Graphics/SVG/1.1/DTD/svg11.dtd">
<!-- Generated by graphviz version 2.43.0 (0)
 -->
<!-- Title: filesystem_task Pages: 1 -->
<svg width="450pt" height="360pt"
 viewBox="0.00 0.00 450.00 360.00" xmlns="http://www.w3.org/2000/svg" xmlns:xlink="http://www.w3.org/1999/xlink">

<svg id="main" version="1.1" xmlns="http://www.w3.org/2000/svg" xmlns:xlink="http://www.w3.org/1999/xlink" xml:space="preserve">

<style type="text/css"><![CDATA[
.node, .edge {opacity: 0.7;}
.node.selected, .edge.selected {opacity: 1;}
.edge:hover path { stroke: red; }
.edge:hover polygon { stroke: red; fill: red; }
]]></style>
<script type="application/ecmascript" xlink:href="svg.min.js"/>
<svg id="graph" class="graph">
<g id="graph0" class="graph" transform="scale(1 1) rotate(0) translate(4 356)">
<title>filesystem_task</title>
<!-- Node1 -->
<g id="Node000001" class="node">
<title>Node1</title>
<g id="a_Node000001"><a xlink:title=" ">
<polygon fill="#999999" stroke="#666666" points="95,-185 0,-185 0,-166 95,-166 95,-185"/>
<text text-anchor="middle" x="47.5" y="-173" font-family="Helvetica,sans-Serif" font-size="10.00">filesystem_task</text>
</a>
</g>
</g>
<!-- Node2 -->
<g id="Node000002" class="node">
<title>Node2</title>
<g id="a_Node000002"><a xlink:href="filesystem_8c.html#a65a8bfbf26326e7b6dfd677f9b4ad626" target="_top" xlink:title=" ">
<polygon fill="white" stroke="#666666" points="209,-352 153,-352 153,-333 209,-333 209,-352"/>
<text text-anchor="middle" x="181" y="-340" font-family="Helvetica,sans-Serif" font-size="10.00">_fdelete</text>
</a>
</g>
</g>
<!-- Node1&#45;&gt;Node2 -->
<g id="edge1_Node000001_Node000002" class="edge">
<title>Node1&#45;&gt;Node2</title>
<g id="a_edge1_Node000001_Node000002"><a xlink:title=" ">
<path fill="none" stroke="#63b8ff" d="M51.19,-185.03C59.03,-211.13 84.3,-284.48 131,-324.5 134.72,-327.69 139.05,-330.33 143.57,-332.52"/>
<polygon fill="#63b8ff" stroke="#63b8ff" points="142.4,-335.82 152.98,-336.39 145.07,-329.35 142.4,-335.82"/>
</a>
</g>
</g>
<!-- Node5 -->
<g id="Node000005" class="node">
<title>Node5</title>
<g id="a_Node000005"><a xlink:href="filesystem_8c.html#a1dbe64362d5ac8a72c84181d6ec09bd0" target="_top" xlink:title=" ">
<polygon fill="white" stroke="#666666" points="212,-315 150,-315 150,-296 212,-296 212,-315"/>
<text text-anchor="middle" x="181" y="-303" font-family="Helvetica,sans-Serif" font-size="10.00">_fdiropen</text>
</a>
</g>
</g>
<!-- Node1&#45;&gt;Node5 -->
<g id="edge4_Node000001_Node000005" class="edge">
<title>Node1&#45;&gt;Node5</title>
<g id="a_edge4_Node000001_Node000005"><a xlink:title=" ">
<path fill="none" stroke="#63b8ff" d="M53.07,-185.07C63.75,-206.45 92.37,-258.5 131,-287.5 133.96,-289.73 137.23,-291.7 140.63,-293.45"/>
<polygon fill="#63b8ff" stroke="#63b8ff" points="139.26,-296.67 149.82,-297.55 142.12,-290.28 139.26,-296.67"/>
</a>
</g>
</g>
<!-- Node6 -->
<g id="Node000006" class="node">
<title>Node6</title>
<g id="a_Node000006"><a xlink:href="filesystem_8c.html#a6256d8a7a46cd729effd6739faded687" target="_top" xlink:title=" ">
<polygon fill="white" stroke="#666666" points="211,-278 151,-278 151,-259 211,-259 211,-278"/>
<text text-anchor="middle" x="181" y="-266" font-family="Helvetica,sans-Serif" font-size="10.00">_fdirread</text>
</a>
</g>
</g>
<!-- Node1&#45;&gt;Node6 -->
<g id="edge5_Node000001_Node000006" class="edge">
<title>Node1&#45;&gt;Node6</title>
<g id="a_edge5_Node000001_Node000006"><a xlink:title=" ">
<path fill="none" stroke="#63b8ff" d="M56.73,-185.07C70.61,-200.7 100.21,-231.84 131,-250.5 134.35,-252.53 137.96,-254.39 141.66,-256.07"/>
<polygon fill="#63b8ff" stroke="#63b8ff" points="140.32,-259.31 150.9,-259.91 143,-252.84 140.32,-259.31"/>
</a>
</g>
</g>
<!-- Node7 -->
<g id="Node000007" class="node">
<title>Node7</title>
<g id="a_Node000007"><a xlink:href="filesystem_8c.html#a242db63f134c45189c12dc9e46c6b90d" target="_top" xlink:title=" ">
<polygon fill="white" stroke="#666666" points="201.5,-241 160.5,-241 160.5,-222 201.5,-222 201.5,-241"/>
<text text-anchor="middle" x="181" y="-229" font-family="Helvetica,sans-Serif" font-size="10.00">_flist</text>
</a>
</g>
</g>
<!-- Node1&#45;&gt;Node7 -->
<g id="edge6_Node000001_Node000007" class="edge">
<title>Node1&#45;&gt;Node7</title>
<g id="a_edge6_Node000001_Node000007"><a xlink:title=" ">
<path fill="none" stroke="#63b8ff" d="M67.98,-185C84.57,-192.97 109.14,-204.47 131,-213.5 137.27,-216.09 144.05,-218.7 150.53,-221.1"/>
<polygon fill="#63b8ff" stroke="#63b8ff" points="149.72,-224.53 160.31,-224.67 152.11,-217.96 149.72,-224.53"/>
</a>
</g>
</g>
<!-- Node8 -->
<g id="Node000008" class="node">
<title>Node8</title>
<g id="a_Node000008"><a xlink:href="filesystem_8c.html#a0332aeda2c19ddb31aa4307d37007f98" target="_top" xlink:title=" ">
<polygon fill="white" stroke="#666666" points="208,-204 154,-204 154,-185 208,-185 208,-204"/>
<text text-anchor="middle" x="181" y="-192" font-family="Helvetica,sans-Serif" font-size="10.00">_fmkdir</text>
</a>
</g>
</g>
<!-- Node1&#45;&gt;Node8 -->
<g id="edge8_Node000001_Node000008" class="edge">
<title>Node1&#45;&gt;Node8</title>
<g id="a_edge8_Node000001_Node000008"><a xlink:title=" ">
<path fill="none" stroke="#63b8ff" d="M95.23,-182.25C111.19,-184.56 128.78,-187.1 143.78,-189.27"/>
<polygon fill="#63b8ff" stroke="#63b8ff" points="143.3,-192.73 153.7,-190.7 144.3,-185.81 143.3,-192.73"/>
</a>
</g>
</g>
<!-- Node9 -->
<g id="Node000009" class="node">
<title>Node9</title>
<g id="a_Node000009"><a xlink:href="filesystem_8c.html#a7cea9cb52704704e58a15402d699fe6b" target="_top" xlink:title=" ">
<polygon fill="white" stroke="#666666" points="204.5,-167 157.5,-167 157.5,-148 204.5,-148 204.5,-167"/>
<text text-anchor="middle" x="181" y="-155" font-family="Helvetica,sans-Serif" font-size="10.00">_fread</text>
</a>
</g>
</g>
<!-- Node1&#45;&gt;Node9 -->
<g id="edge10_Node000001_Node000009" class="edge">
<title>Node1&#45;&gt;Node9</title>
<g id="a_edge10_Node000001_Node000009"><a xlink:title=" ">
<path fill="none" stroke="#63b8ff" d="M95.23,-169.1C112.39,-166.76 131.43,-164.15 147.12,-162"/>
<polygon fill="#63b8ff" stroke="#63b8ff" points="147.94,-165.42 157.37,-160.6 146.99,-158.49 147.94,-165.42"/>
</a>
</g>
</g>
<!-- Node10 -->
<g id="Node000010" class="node">
<title>Node10</title>
<g id="a_Node000010"><a xlink:href="filesystem_8c.html#a84409cd08ad5f1532a9908bcb106ffd9" target="_top" xlink:title=" ">
<polygon fill="white" stroke="#666666" points="203,-130 159,-130 159,-111 203,-111 203,-130"/>
<text text-anchor="middle" x="181" y="-118" font-family="Helvetica,sans-Serif" font-size="10.00">_fstat</text>
</a>
</g>
</g>
<!-- Node1&#45;&gt;Node10 -->
<g id="edge11_Node000001_Node000010" class="edge">
<title>Node1&#45;&gt;Node10</title>
<g id="a_edge11_Node000001_Node000010"><a xlink:title=" ">
<path fill="none" stroke="#63b8ff" d="M69.76,-165.93C86.36,-158.53 110.05,-148.13 131,-139.5 136.98,-137.04 143.4,-134.48 149.57,-132.07"/>
<polygon fill="#63b8ff" stroke="#63b8ff" points="150.88,-135.32 158.94,-128.45 148.35,-128.79 150.88,-135.32"/>
</a>
</g>
</g>
<!-- Node11 -->
<g id="Node000011" class="node">
<title>Node11</title>
<g id="a_Node000011"><a xlink:href="filesystem_8c.html#a20490ef1d54401f12085f7a9bfbb2c13" target="_top" xlink:title=" ">
<polygon fill="white" stroke="#666666" points="206,-93 156,-93 156,-74 206,-74 206,-93"/>
<text text-anchor="middle" x="181" y="-81" font-family="Helvetica,sans-Serif" font-size="10.00">_fwrite</text>
</a>
</g>
</g>
<!-- Node1&#45;&gt;Node11 -->
<g id="edge12_Node000001_Node000011" class="edge">
<title>Node1&#45;&gt;Node11</title>
<g id="a_edge12_Node000001_Node000011"><a xlink:title=" ">
<path fill="none" stroke="#63b8ff" d="M57.28,-165.77C71.48,-150.51 100.95,-120.81 131,-102.5 135.77,-99.59 141.07,-96.99 146.36,-94.71"/>
<polygon fill="#63b8ff" stroke="#63b8ff" points="147.77,-97.91 155.77,-90.96 145.19,-91.41 147.77,-97.91"/>
</a>
</g>
</g>
<!-- Node12 -->
<g id="Node000012" class="node">
<title>Node12</title>
<g id="a_Node000012"><a xlink:href="filesystem_8c.html#a7ea79e37cd85f3400dd530c48032329e" target="_top" xlink:title=" ">
<polygon fill="white" stroke="#666666" points="204.5,-56 157.5,-56 157.5,-37 204.5,-37 204.5,-56"/>
<text text-anchor="middle" x="181" y="-44" font-family="Helvetica,sans-Serif" font-size="10.00">_mkfs</text>
</a>
</g>
</g>
<!-- Node1&#45;&gt;Node12 -->
<g id="edge13_Node000001_Node000012" class="edge">
<title>Node1&#45;&gt;Node12</title>
<g id="a_edge13_Node000001_Node000012"><a xlink:title=" ">
<path fill="none" stroke="#63b8ff" d="M53.32,-165.84C64.29,-144.75 93.14,-94.2 131,-65.5 135.94,-61.76 141.7,-58.66 147.51,-56.14"/>
<polygon fill="#63b8ff" stroke="#63b8ff" points="149.11,-59.27 157.18,-52.41 146.59,-52.74 149.11,-59.27"/>
</a>
</g>
</g>
<!-- Node13 -->
<g id="Node000013" class="node">
<title>Node13</title>
<g id="a_Node000013"><a xlink:href="watchdog_8c.html#acebf79aaf42978286eec0c3e016d7b0a" target="_top" xlink:title="Task that controls the resetting of the hardware watchdog &#45; MAX706RESA &#45; this module needs to be rese...">
<polygon fill="white" stroke="#666666" points="231,-19 131,-19 131,0 231,0 231,-19"/>
<text text-anchor="middle" x="181" y="-7" font-family="Helvetica,sans-Serif" font-size="10.00">watchdog_freeze</text>
</a>
</g>
</g>
<!-- Node1&#45;&gt;Node13 -->
<g id="edge15_Node000001_Node000013" class="edge">
<title>Node1&#45;&gt;Node13</title>
<g id="a_edge15_Node000001_Node000013"><a xlink:title=" ">
<path fill="none" stroke="#63b8ff" d="M51.38,-165.77C59.54,-139.81 85.24,-68.2 131,-28.5 132.93,-26.83 135.02,-25.29 137.22,-23.88"/>
<polygon fill="#63b8ff" stroke="#63b8ff" points="138.97,-26.92 146.1,-19.07 135.64,-20.76 138.97,-26.92"/>
</a>
</g>
</g>
<!-- Node3 -->
<g id="Node000003" class="node">
<title>Node3</title>
<g id="a_Node000003"><a xlink:href="filesystem_8c.html#a927cf61c34acf12c6d2e91abb0894b0b" target="_top" xlink:title=" ">
<polygon fill="white" stroke="#666666" points="313,-222 267,-222 267,-203 313,-203 313,-222"/>
<text text-anchor="middle" x="290" y="-210" font-family="Helvetica,sans-Serif" font-size="10.00">fs_log</text>
</a>
</g>
</g>
<!-- Node2&#45;&gt;Node3 -->
<g id="edge2_Node000002_Node000003" class="edge">
<title>Node2&#45;&gt;Node3</title>
<g id="a_edge2_Node000002_Node000003"><a xlink:title=" ">
<path fill="none" stroke="#63b8ff" d="M209.12,-336.5C216.83,-333.8 224.81,-329.95 231,-324.5 259.62,-299.27 276.15,-256.51 283.79,-231.76"/>
<polygon fill="#63b8ff" stroke="#63b8ff" points="287.17,-232.66 286.6,-222.08 280.45,-230.7 287.17,-232.66"/>
</a>
</g>
</g>
<!-- Node4 -->
<g id="Node000004" class="node">
<title>Node4</title>
<g id="a_Node000004"><a xlink:href="telemetry_8c.html#a6dbf6c6cfd75451e5642ca0b64bf7f5a" target="_top" xlink:title=" ">
<polygon fill="white" stroke="#666666" points="442,-222 349,-222 349,-203 442,-203 442,-222"/>
<text text-anchor="middle" x="395.5" y="-210" font-family="Helvetica,sans-Serif" font-size="10.00">send_telemetry</text>
</a>
</g>
</g>
<!-- Node3&#45;&gt;Node4 -->
<g id="edge3_Node000003_Node000004" class="edge">
<title>Node3&#45;&gt;Node4</title>
<g id="a_edge3_Node000003_Node000004"><a xlink:title=" ">
<path fill="none" stroke="#63b8ff" d="M313.2,-212.5C320.8,-212.5 329.67,-212.5 338.71,-212.5"/>
<polygon fill="#63b8ff" stroke="#63b8ff" points="338.92,-216 348.92,-212.5 338.92,-209 338.92,-216"/>
</a>
</g>
</g>
<!-- Node7&#45;&gt;Node3 -->
<g id="edge7_Node000007_Node000003" class="edge">
<title>Node7&#45;&gt;Node3</title>
<g id="a_edge7_Node000007_Node000003"><a xlink:title=" ">
<path fill="none" stroke="#63b8ff" d="M201.63,-228.02C217.06,-225.27 238.88,-221.4 256.85,-218.21"/>
<polygon fill="#63b8ff" stroke="#63b8ff" points="257.68,-221.62 266.91,-216.42 256.46,-214.72 257.68,-221.62"/>
</a>
</g>
</g>
<!-- Node8&#45;&gt;Node3 -->
<g id="edge9_Node000008_Node000003" class="edge">
<title>Node8&#45;&gt;Node3</title>
<g id="a_edge9_Node000008_Node000003"><a xlink:title=" ">
<path fill="none" stroke="#63b8ff" d="M208.18,-198.9C222.75,-201.36 241.03,-204.43 256.52,-207.04"/>
<polygon fill="#63b8ff" stroke="#63b8ff" points="256.27,-210.54 266.71,-208.75 257.43,-203.64 256.27,-210.54"/>
</a>
</g>
</g>
<!-- Node12&#45;&gt;Node3 -->
<g id="edge14_Node000012_Node000003" class="edge">
<title>Node12&#45;&gt;Node3</title>
<g id="a_edge14_Node000012_Node000003"><a xlink:title=" ">
<path fill="none" stroke="#63b8ff" d="M204.69,-51.09C213.83,-53.92 223.88,-58.42 231,-65.5 266.87,-101.16 281.16,-161.7 286.34,-192.78"/>
<polygon fill="#63b8ff" stroke="#63b8ff" points="282.9,-193.44 287.87,-202.81 289.82,-192.39 282.9,-193.44"/>
</a>
</g>
</g>
</g>
</svg>
</svg>

<style type='text/css'>
<![CDATA[
[data-mouse-over-selected='false'] { opacity: 0.7; }
[data-mouse-over-selected='true']  { opacity: 1.0; }
]]>
</style>
<script type="application/ecmascript"><![CDATA[
document.addEventListener('DOMContentLoaded', (event) => {
  highlightEdges();
  highlightAdjacentNodes();
});
]]></script>
</svg>
