<?xml version="1.0" encoding="UTF-8" standalone="no"?>
<!DOCTYPE svg PUBLIC "-//W3C//DTD SVG 1.1//EN"
 "http://www.w3.org/Graphics/SVG/1.1/DTD/svg11.dtd">
<!-- Generated by graphviz version 2.43.0 (0)
 -->
<!-- Title: command.c Pages: 1 -->
<!--zoomable 302 -->

<svg id="main" version="1.1" xmlns="http://www.w3.org/2000/svg" xmlns:xlink="http://www.w3.org/1999/xlink" xml:space="preserve" onload="init(evt)">

<style type="text/css"><![CDATA[
.node, .edge {opacity: 0.7;}
.node.selected, .edge.selected {opacity: 1;}
.edge:hover path { stroke: red; }
.edge:hover polygon { stroke: red; fill: red; }
]]></style>

<defs>
  <circle id="rim" cx="0" cy="0" r="7"/>
  <circle id="rim2" cx="0" cy="0" r="3.5"/>
  <g id="zoomPlus">
    <use xlink:href="#rim" fill="#404040"><set attributeName="fill" to="#808080" begin="zoomplus.mouseover" end="zoomplus.mouseout"/></use>
    <path d="M-4,0h8M0,-4v8" fill="none" stroke="white" stroke-width="1.5" pointer-events="none"/>
  </g>
  <g id="zoomMin">
    <use xlink:href="#rim" fill="#404040"><set attributeName="fill" to="#808080" begin="zoomminus.mouseover" end="zoomminus.mouseout"/></use>
    <path d="M-4,0h8" fill="none" stroke="white" stroke-width="1.5" pointer-events="none"/>
  </g>
  <g id="arrowUp" transform="translate(30 24)">
    <use xlink:href="#rim"/>
    <path pointer-events="none" fill="none" stroke="white" stroke-width="1.5" d="M0,-3.0v7 M-2.5,-0.5L0,-3.0L2.5,-0.5"/>
  </g>
  <g id="arrowRight" transform="rotate(90) translate(36 -43)">
    <use xlink:href="#rim"/>
    <path pointer-events="none" fill="none" stroke="white" stroke-width="1.5" d="M0,-3.0v7 M-2.5,-0.5L0,-3.0L2.5,-0.5"/>
  </g>
  <g id="arrowDown" transform="rotate(180) translate(-30 -48)">
    <use xlink:href="#rim"/>
    <path pointer-events="none" fill="none" stroke="white" stroke-width="1.5" d="M0,-3.0v7 M-2.5,-0.5L0,-3.0L2.5,-0.5"/>
  </g>
  <g id="arrowLeft" transform="rotate(270) translate(-36 17)">
    <use xlink:href="#rim"/>
    <path pointer-events="none" fill="none" stroke="white" stroke-width="1.5" d="M0,-3.0v7 M-2.5,-0.5L0,-3.0L2.5,-0.5"/>
  </g>
  <g id="resetDef">
    <use xlink:href="#rim2" fill="#404040"><set attributeName="fill" to="#808080" begin="reset.mouseover" end="reset.mouseout"/></use>
  </g>
</defs>
<script type="application/ecmascript">
var viewWidth = 1419;
var viewHeight = 302;
var sectionId = 'dynsection-0';
</script>
<script type="application/ecmascript" xlink:href="svg.min.js"/>
<svg id="graph" class="graph">
<g id="viewport">
<title>command.c</title>
<!-- Node1 -->
<g id="Node000001" class="node">
<title>Node1</title>
<g id="a_Node000001"><a xlink:title=" ">
<polygon fill="#999999" stroke="#666666" points="923,-294 849,-294 849,-275 923,-275 923,-294"/>
<text text-anchor="middle" x="886" y="-282" font-family="Helvetica,sans-Serif" font-size="10.00">command.c</text>
</a>
</g>
</g>
<!-- Node2 -->
<g id="Node000002" class="node">
<title>Node2</title>
<g id="a_Node000002"><a xlink:href="stdlib_8h.html" target="_top" xlink:title=" ">
<polygon fill="white" stroke="#666666" points="76,-239 0,-239 0,-220 76,-220 76,-239"/>
<text text-anchor="middle" x="38" y="-227" font-family="Helvetica,sans-Serif" font-size="10.00">pico/stdlib.h</text>
</a>
</g>
</g>
<!-- Node1&#45;&gt;Node2 -->
<g id="edge1_Node000001_Node000002" class="edge">
<title>Node1&#45;&gt;Node2</title>
<g id="a_edge1_Node000001_Node000002"><a xlink:title=" ">
<path fill="none" stroke="#63b8ff" d="M848.73,-283.06C735.56,-281.39 385.87,-273.66 86.35,-239"/>
<polygon fill="#63b8ff" stroke="#63b8ff" points="86.5,-235.49 76.16,-237.81 85.69,-242.45 86.5,-235.49"/>
</a>
</g>
</g>
<!-- Node3 -->
<g id="Node000003" class="node">
<title>Node3</title>
<g id="a_Node000003"><a xlink:title=" ">
<polygon fill="#e0e0e0" stroke="#999999" points="147.5,-239 94.5,-239 94.5,-220 147.5,-220 147.5,-239"/>
<text text-anchor="middle" x="121" y="-227" font-family="Helvetica,sans-Serif" font-size="10.00">string.h</text>
</a>
</g>
</g>
<!-- Node1&#45;&gt;Node3 -->
<g id="edge2_Node000001_Node000003" class="edge">
<title>Node1&#45;&gt;Node3</title>
<g id="a_edge2_Node000001_Node000003"><a xlink:title=" ">
<path fill="none" stroke="#63b8ff" d="M848.9,-283.09C741.87,-281.5 423.5,-273.96 162,-239 160.7,-238.83 159.39,-238.64 158.06,-238.43"/>
<polygon fill="#63b8ff" stroke="#63b8ff" points="158.27,-234.91 147.81,-236.63 157.06,-241.81 158.27,-234.91"/>
</a>
</g>
</g>
<!-- Node4 -->
<g id="Node000004" class="node">
<title>Node4</title>
<g id="a_Node000004"><a xlink:title=" ">
<polygon fill="#e0e0e0" stroke="#999999" points="393.5,-19 340.5,-19 340.5,0 393.5,0 393.5,-19"/>
<text text-anchor="middle" x="367" y="-7" font-family="Helvetica,sans-Serif" font-size="10.00">stdint.h</text>
</a>
</g>
</g>
<!-- Node1&#45;&gt;Node4 -->
<g id="edge3_Node000001_Node000004" class="edge">
<title>Node1&#45;&gt;Node4</title>
<g id="a_edge3_Node000001_Node000004"><a xlink:title=" ">
<path fill="none" stroke="#63b8ff" d="M848.83,-281.81C702.74,-274.69 176,-244.23 176,-175.5 176,-175.5 176,-175.5 176,-118.5 176,-48.36 274.81,-23.24 330.29,-14.67"/>
<polygon fill="#63b8ff" stroke="#63b8ff" points="331.04,-18.1 340.44,-13.21 330.05,-11.17 331.04,-18.1"/>
</a>
</g>
</g>
<!-- Node5 -->
<g id="Node000005" class="node">
<title>Node5</title>
<g id="a_Node000005"><a xlink:title=" ">
<polygon fill="#e0e0e0" stroke="#999999" points="639,-19 577,-19 577,0 639,0 639,-19"/>
<text text-anchor="middle" x="608" y="-7" font-family="Helvetica,sans-Serif" font-size="10.00">stdbool.h</text>
</a>
</g>
</g>
<!-- Node1&#45;&gt;Node5 -->
<g id="edge4_Node000001_Node000005" class="edge">
<title>Node1&#45;&gt;Node5</title>
<g id="a_edge4_Node000001_Node000005"><a xlink:title=" ">
<path fill="none" stroke="#63b8ff" d="M872.33,-274.82C832.15,-248.74 712.64,-167.1 640,-74 629.21,-60.18 620.55,-42.15 614.97,-28.83"/>
<polygon fill="#63b8ff" stroke="#63b8ff" points="618.13,-27.32 611.17,-19.33 611.63,-29.92 618.13,-27.32"/>
</a>
</g>
</g>
<!-- Node6 -->
<g id="Node000006" class="node">
<title>Node6</title>
<g id="a_Node000006"><a xlink:title=" ">
<polygon fill="#e0e0e0" stroke="#999999" points="838,-19 766,-19 766,0 838,0 838,-19"/>
<text text-anchor="middle" x="802" y="-7" font-family="Helvetica,sans-Serif" font-size="10.00">FreeRTOS.h</text>
</a>
</g>
</g>
<!-- Node1&#45;&gt;Node6 -->
<g id="edge5_Node000001_Node000006" class="edge">
<title>Node1&#45;&gt;Node6</title>
<g id="a_edge5_Node000001_Node000006"><a xlink:title=" ">
<path fill="none" stroke="#63b8ff" d="M888.97,-274.94C894.97,-256.83 908,-213.2 908,-175.5 908,-175.5 908,-175.5 908,-118.5 908,-89.04 907.85,-77.64 889,-55 876.75,-40.29 858.39,-29.9 841.69,-22.88"/>
<polygon fill="#63b8ff" stroke="#63b8ff" points="842.7,-19.52 832.11,-19.13 840.15,-26.03 842.7,-19.52"/>
</a>
</g>
</g>
<!-- Node7 -->
<g id="Node000007" class="node">
<title>Node7</title>
<g id="a_Node000007"><a xlink:title=" ">
<polygon fill="#e0e0e0" stroke="#999999" points="996.5,-19 949.5,-19 949.5,0 996.5,0 996.5,-19"/>
<text text-anchor="middle" x="973" y="-7" font-family="Helvetica,sans-Serif" font-size="10.00">task.h</text>
</a>
</g>
</g>
<!-- Node1&#45;&gt;Node7 -->
<g id="edge6_Node000001_Node000007" class="edge">
<title>Node1&#45;&gt;Node7</title>
<g id="a_edge6_Node000001_Node000007"><a xlink:title=" ">
<path fill="none" stroke="#63b8ff" d="M905.14,-274.98C922.03,-266.97 946.87,-254.01 966,-239 1013.15,-202 1030.44,-187.38 1044,-129 1048.68,-108.86 1040.25,-60.36 1037,-55 1028.87,-41.59 1014.99,-31.2 1002.23,-23.85"/>
<polygon fill="#63b8ff" stroke="#63b8ff" points="1003.7,-20.67 993.23,-19.03 1000.39,-26.84 1003.7,-20.67"/>
</a>
</g>
</g>
<!-- Node8 -->
<g id="Node000008" class="node">
<title>Node8</title>
<g id="a_Node000008"><a xlink:title=" ">
<polygon fill="#e0e0e0" stroke="#999999" points="1149,-19 1087,-19 1087,0 1149,0 1149,-19"/>
<text text-anchor="middle" x="1118" y="-7" font-family="Helvetica,sans-Serif" font-size="10.00">semphr.h</text>
</a>
</g>
</g>
<!-- Node1&#45;&gt;Node8 -->
<g id="edge7_Node000001_Node000008" class="edge">
<title>Node1&#45;&gt;Node8</title>
<g id="a_edge7_Node000001_Node000008"><a xlink:title=" ">
<path fill="none" stroke="#63b8ff" d="M923.06,-282.28C967.59,-279.4 1043.38,-269.92 1100,-239 1130.07,-222.58 1141.04,-215.71 1154,-184 1176.17,-129.78 1145.45,-60.24 1128.25,-28.16"/>
<polygon fill="#63b8ff" stroke="#63b8ff" points="1131.14,-26.17 1123.22,-19.13 1125.03,-29.57 1131.14,-26.17"/>
</a>
</g>
</g>
<!-- Node9 -->
<g id="Node000009" class="node">
<title>Node9</title>
<g id="a_Node000009"><a xlink:title=" ">
<polygon fill="#e0e0e0" stroke="#999999" points="912,-19 856,-19 856,0 912,0 912,-19"/>
<text text-anchor="middle" x="884" y="-7" font-family="Helvetica,sans-Serif" font-size="10.00">queue.h</text>
</a>
</g>
</g>
<!-- Node1&#45;&gt;Node9 -->
<g id="edge8_Node000001_Node000009" class="edge">
<title>Node1&#45;&gt;Node9</title>
<g id="a_edge8_Node000001_Node000009"><a xlink:title=" ">
<path fill="none" stroke="#63b8ff" d="M898.38,-274.83C941.22,-243.77 1077.37,-135.71 1019,-55 1007.48,-39.08 958.04,-25.74 922.32,-17.94"/>
<polygon fill="#63b8ff" stroke="#63b8ff" points="922.7,-14.44 912.19,-15.79 921.25,-21.29 922.7,-14.44"/>
</a>
</g>
</g>
<!-- Node10 -->
<g id="Node000010" class="node">
<title>Node10</title>
<g id="a_Node000010"><a xlink:href="gse_8h.html" target="_top" xlink:title="Handles hardline communication over USB.">
<polygon fill="white" stroke="#666666" points="1231.5,-239 1188.5,-239 1188.5,-220 1231.5,-220 1231.5,-239"/>
<text text-anchor="middle" x="1210" y="-227" font-family="Helvetica,sans-Serif" font-size="10.00">gse.h</text>
</a>
</g>
</g>
<!-- Node1&#45;&gt;Node10 -->
<g id="edge9_Node000001_Node000010" class="edge">
<title>Node1&#45;&gt;Node10</title>
<g id="a_edge9_Node000001_Node000010"><a xlink:title=" ">
<path fill="none" stroke="#63b8ff" d="M923.44,-278.67C978.55,-271.35 1084.62,-256.43 1174,-239 1175.46,-238.72 1176.95,-238.41 1178.45,-238.1"/>
<polygon fill="#63b8ff" stroke="#63b8ff" points="1179.35,-241.48 1188.36,-235.9 1177.84,-234.65 1179.35,-241.48"/>
</a>
</g>
</g>
<!-- Node11 -->
<g id="Node000011" class="node">
<title>Node11</title>
<g id="a_Node000011"><a xlink:href="log_8h.html" target="_top" xlink:title=" ">
<polygon fill="white" stroke="#666666" points="841.5,-129 800.5,-129 800.5,-110 841.5,-110 841.5,-129"/>
<text text-anchor="middle" x="821" y="-117" font-family="Helvetica,sans-Serif" font-size="10.00">log.h</text>
</a>
</g>
</g>
<!-- Node1&#45;&gt;Node11 -->
<g id="edge10_Node000001_Node000011" class="edge">
<title>Node1&#45;&gt;Node11</title>
<g id="a_edge10_Node000001_Node000011"><a xlink:title=" ">
<path fill="none" stroke="#63b8ff" d="M882.51,-274.74C872.28,-249.09 842.25,-173.78 828.29,-138.78"/>
<polygon fill="#63b8ff" stroke="#63b8ff" points="831.47,-137.3 824.51,-129.31 824.97,-139.89 831.47,-137.3"/>
</a>
</g>
</g>
<!-- Node13 -->
<g id="Node000013" class="node">
<title>Node13</title>
<g id="a_Node000013"><a xlink:href="heartbeat__job_8h.html" target="_top" xlink:title=" ">
<polygon fill="white" stroke="#666666" points="1342.5,-239 1249.5,-239 1249.5,-220 1342.5,-220 1342.5,-239"/>
<text text-anchor="middle" x="1296" y="-227" font-family="Helvetica,sans-Serif" font-size="10.00">heartbeat_job.h</text>
</a>
</g>
</g>
<!-- Node1&#45;&gt;Node13 -->
<g id="edge15_Node000001_Node000013" class="edge">
<title>Node1&#45;&gt;Node13</title>
<g id="a_edge15_Node000001_Node000013"><a xlink:title=" ">
<path fill="none" stroke="#63b8ff" d="M923.1,-279.2C985.98,-271.85 1117.74,-256.1 1239,-239.25"/>
<polygon fill="#63b8ff" stroke="#63b8ff" points="1239.79,-242.67 1249.21,-237.83 1238.82,-235.74 1239.79,-242.67"/>
</a>
</g>
</g>
<!-- Node14 -->
<g id="Node000014" class="node">
<title>Node14</title>
<g id="a_Node000014"><a xlink:href="steve_8h.html" target="_top" xlink:title="S.T.E.V.E (Scheduler Task for Executing Vital Events)">
<polygon fill="white" stroke="#666666" points="1144.5,-184 1091.5,-184 1091.5,-165 1144.5,-165 1144.5,-184"/>
<text text-anchor="middle" x="1118" y="-172" font-family="Helvetica,sans-Serif" font-size="10.00">steve.h</text>
</a>
</g>
</g>
<!-- Node1&#45;&gt;Node14 -->
<g id="edge16_Node000001_Node000014" class="edge">
<title>Node1&#45;&gt;Node14</title>
<g id="a_edge16_Node000001_Node000014"><a xlink:title=" ">
<path fill="none" stroke="#63b8ff" d="M923.08,-282.93C964.19,-280.58 1030.78,-271.53 1077,-239 1092.89,-227.82 1104.11,-208.33 1110.75,-193.88"/>
<polygon fill="#63b8ff" stroke="#63b8ff" points="1114.08,-195.02 1114.78,-184.45 1107.64,-192.27 1114.08,-195.02"/>
</a>
</g>
</g>
<!-- Node15 -->
<g id="Node000015" class="node">
<title>Node15</title>
<g id="a_Node000015"><a xlink:href="filesystem_8h.html" target="_top" xlink:title="Handles file system operations and management.">
<polygon fill="white" stroke="#666666" points="751.5,-74 674.5,-74 674.5,-55 751.5,-55 751.5,-74"/>
<text text-anchor="middle" x="713" y="-62" font-family="Helvetica,sans-Serif" font-size="10.00">filesystem.h</text>
</a>
</g>
</g>
<!-- Node1&#45;&gt;Node15 -->
<g id="edge18_Node000001_Node000015" class="edge">
<title>Node1&#45;&gt;Node15</title>
<g id="a_edge18_Node000001_Node000015"><a xlink:title=" ">
<path fill="none" stroke="#63b8ff" d="M879.22,-274.95C853.39,-242.4 760.86,-125.81 726.22,-82.16"/>
<polygon fill="#63b8ff" stroke="#63b8ff" points="728.88,-79.88 719.92,-74.22 723.4,-84.23 728.88,-79.88"/>
</a>
</g>
</g>
<!-- Node18 -->
<g id="Node000018" class="node">
<title>Node18</title>
<g id="a_Node000018"><a xlink:title=" ">
<polygon fill="#e0e0e0" stroke="#999999" points="1411,-239 1361,-239 1361,-220 1411,-220 1411,-239"/>
<text text-anchor="middle" x="1386" y="-227" font-family="Helvetica,sans-Serif" font-size="10.00">radio.h</text>
</a>
</g>
</g>
<!-- Node1&#45;&gt;Node18 -->
<g id="edge27_Node000001_Node000018" class="edge">
<title>Node1&#45;&gt;Node18</title>
<g id="a_edge27_Node000001_Node000018"><a xlink:title=" ">
<path fill="none" stroke="#63b8ff" d="M923.1,-281.85C1000.72,-277.98 1186,-266.65 1350.53,-238.99"/>
<polygon fill="#63b8ff" stroke="#63b8ff" points="1351.57,-242.37 1360.84,-237.24 1350.39,-235.47 1351.57,-242.37"/>
</a>
</g>
</g>
<!-- Node19 -->
<g id="Node000019" class="node">
<title>Node19</title>
<g id="a_Node000019"><a xlink:href="command_8h.html" target="_top" xlink:title="Handles decoding and triggering responses to received commands.">
<polygon fill="white" stroke="#666666" points="328,-184 254,-184 254,-165 328,-165 328,-184"/>
<text text-anchor="middle" x="291" y="-172" font-family="Helvetica,sans-Serif" font-size="10.00">command.h</text>
</a>
</g>
</g>
<!-- Node1&#45;&gt;Node19 -->
<g id="edge28_Node000001_Node000019" class="edge">
<title>Node1&#45;&gt;Node19</title>
<g id="a_edge28_Node000001_Node000019"><a xlink:title=" ">
<path fill="none" stroke="#63b8ff" d="M848.89,-281.97C751.49,-277.66 490.44,-264.05 408,-239 371.66,-227.95 333.75,-204.92 311.27,-189.84"/>
<polygon fill="#63b8ff" stroke="#63b8ff" points="313.13,-186.87 302.91,-184.11 309.18,-192.65 313.13,-186.87"/>
</a>
</g>
</g>
<!-- Node22 -->
<g id="Node000022" class="node">
<title>Node22</title>
<g id="a_Node000022"><a xlink:href="set__rtc__job_8h.html" target="_top" xlink:title=" ">
<polygon fill="white" stroke="#666666" points="547.5,-184 468.5,-184 468.5,-165 547.5,-165 547.5,-184"/>
<text text-anchor="middle" x="508" y="-172" font-family="Helvetica,sans-Serif" font-size="10.00">set_rtc_job.h</text>
</a>
</g>
</g>
<!-- Node1&#45;&gt;Node22 -->
<g id="edge35_Node000001_Node000022" class="edge">
<title>Node1&#45;&gt;Node22</title>
<g id="a_edge35_Node000001_Node000022"><a xlink:title=" ">
<path fill="none" stroke="#63b8ff" d="M848.8,-282.31C794.29,-279.51 690.27,-270.18 608,-239 576.98,-227.24 545.35,-205.09 526.2,-190.31"/>
<polygon fill="#63b8ff" stroke="#63b8ff" points="528.34,-187.55 518.32,-184.11 524.01,-193.05 528.34,-187.55"/>
</a>
</g>
</g>
<!-- Node25 -->
<g id="Node000025" class="node">
<title>Node25</title>
<g id="a_Node000025"><a xlink:href="watchdog_8h.html" target="_top" xlink:title="Watchdog management functions.">
<polygon fill="white" stroke="#666666" points="1009.5,-74 936.5,-74 936.5,-55 1009.5,-55 1009.5,-74"/>
<text text-anchor="middle" x="973" y="-62" font-family="Helvetica,sans-Serif" font-size="10.00">watchdog.h</text>
</a>
</g>
</g>
<!-- Node1&#45;&gt;Node25 -->
<g id="edge44_Node000001_Node000025" class="edge">
<title>Node1&#45;&gt;Node25</title>
<g id="a_edge44_Node000001_Node000025"><a xlink:title=" ">
<path fill="none" stroke="#63b8ff" d="M894.89,-274.72C903.01,-266.25 914.8,-252.73 922,-239 949.52,-186.52 964.19,-117.11 969.99,-84.27"/>
<polygon fill="#63b8ff" stroke="#63b8ff" points="973.46,-84.7 971.68,-74.26 966.56,-83.54 973.46,-84.7"/>
</a>
</g>
</g>
<!-- Node26 -->
<g id="Node000026" class="node">
<title>Node26</title>
<g id="a_Node000026"><a xlink:href="hb__tlm__log_8h.html" target="_top" xlink:title=" ">
<polygon fill="white" stroke="#666666" points="497,-239 417,-239 417,-220 497,-220 497,-239"/>
<text text-anchor="middle" x="457" y="-227" font-family="Helvetica,sans-Serif" font-size="10.00">hb_tlm_log.h</text>
</a>
</g>
</g>
<!-- Node1&#45;&gt;Node26 -->
<g id="edge47_Node000001_Node000026" class="edge">
<title>Node1&#45;&gt;Node26</title>
<g id="a_edge47_Node000001_Node000026"><a xlink:title=" ">
<path fill="none" stroke="#63b8ff" d="M848.68,-278.89C771.5,-269.35 594.29,-247.46 507.19,-236.7"/>
<polygon fill="#63b8ff" stroke="#63b8ff" points="507.38,-233.2 497.03,-235.44 506.52,-240.14 507.38,-233.2"/>
</a>
</g>
</g>
<!-- Node11&#45;&gt;Node5 -->
<g id="edge14_Node000011_Node000005" class="edge">
<title>Node11&#45;&gt;Node5</title>
<g id="a_edge14_Node000011_Node000005"><a xlink:title=" ">
<path fill="none" stroke="#63b8ff" d="M800.33,-116.3C768.98,-112.2 708.47,-101.17 665,-74 646.04,-62.15 629.62,-42.2 619.34,-27.82"/>
<polygon fill="#63b8ff" stroke="#63b8ff" points="622.05,-25.58 613.5,-19.32 616.28,-29.54 622.05,-25.58"/>
</a>
</g>
</g>
<!-- Node12 -->
<g id="Node000012" class="node">
<title>Node12</title>
<g id="a_Node000012"><a xlink:href="telemetry_8h.html" target="_top" xlink:title="Functions for packaging and queuing telemetry packets for sending.">
<polygon fill="white" stroke="#666666" points="880,-74 808,-74 808,-55 880,-55 880,-74"/>
<text text-anchor="middle" x="844" y="-62" font-family="Helvetica,sans-Serif" font-size="10.00">telemetry.h</text>
</a>
</g>
</g>
<!-- Node11&#45;&gt;Node12 -->
<g id="edge11_Node000011_Node000012" class="edge">
<title>Node11&#45;&gt;Node12</title>
<g id="a_edge11_Node000011_Node000012"><a xlink:title=" ">
<path fill="none" stroke="#63b8ff" d="M824.8,-109.75C827.91,-102.57 832.42,-92.18 836.29,-83.27"/>
<polygon fill="#63b8ff" stroke="#63b8ff" points="839.5,-84.66 840.27,-74.09 833.08,-81.87 839.5,-84.66"/>
</a>
</g>
</g>
<!-- Node12&#45;&gt;Node6 -->
<g id="edge12_Node000012_Node000006" class="edge">
<title>Node12&#45;&gt;Node6</title>
<g id="a_edge12_Node000012_Node000006"><a xlink:title=" ">
<path fill="none" stroke="#63b8ff" d="M837.06,-54.75C831.13,-47.26 822.43,-36.28 815.18,-27.13"/>
<polygon fill="#63b8ff" stroke="#63b8ff" points="817.76,-24.75 808.81,-19.09 812.27,-29.1 817.76,-24.75"/>
</a>
</g>
</g>
<!-- Node12&#45;&gt;Node9 -->
<g id="edge13_Node000012_Node000009" class="edge">
<title>Node12&#45;&gt;Node9</title>
<g id="a_edge13_Node000012_Node000009"><a xlink:title=" ">
<path fill="none" stroke="#63b8ff" d="M850.61,-54.75C856.26,-47.26 864.54,-36.28 871.45,-27.13"/>
<polygon fill="#63b8ff" stroke="#63b8ff" points="874.29,-29.18 877.52,-19.09 868.7,-24.96 874.29,-29.18"/>
</a>
</g>
</g>
<!-- Node14&#45;&gt;Node8 -->
<g id="edge17_Node000014_Node000008" class="edge">
<title>Node14&#45;&gt;Node8</title>
<g id="a_edge17_Node000014_Node000008"><a xlink:title=" ">
<path fill="none" stroke="#63b8ff" d="M1118,-164.74C1118,-139.31 1118,-65.08 1118,-29.69"/>
<polygon fill="#63b8ff" stroke="#63b8ff" points="1121.5,-29.31 1118,-19.31 1114.5,-29.31 1121.5,-29.31"/>
</a>
</g>
</g>
<!-- Node15&#45;&gt;Node4 -->
<g id="edge25_Node000015_Node000004" class="edge">
<title>Node15&#45;&gt;Node4</title>
<g id="a_edge25_Node000015_Node000004"><a xlink:title=" ">
<path fill="none" stroke="#63b8ff" d="M674.32,-57.57C607.03,-47.27 469.34,-26.18 403.56,-16.1"/>
<polygon fill="#63b8ff" stroke="#63b8ff" points="404.06,-12.64 393.64,-14.58 403,-19.56 404.06,-12.64"/>
</a>
</g>
</g>
<!-- Node15&#45;&gt;Node5 -->
<g id="edge26_Node000015_Node000005" class="edge">
<title>Node15&#45;&gt;Node5</title>
<g id="a_edge26_Node000015_Node000005"><a xlink:title=" ">
<path fill="none" stroke="#63b8ff" d="M696.13,-54.98C679.39,-46.54 653.5,-33.47 634.11,-23.68"/>
<polygon fill="#63b8ff" stroke="#63b8ff" points="635.68,-20.55 625.18,-19.17 632.53,-26.8 635.68,-20.55"/>
</a>
</g>
</g>
<!-- Node15&#45;&gt;Node6 -->
<g id="edge19_Node000015_Node000006" class="edge">
<title>Node15&#45;&gt;Node6</title>
<g id="a_edge19_Node000015_Node000006"><a xlink:title=" ">
<path fill="none" stroke="#63b8ff" d="M727.3,-54.98C741.1,-46.77 762.24,-34.18 778.51,-24.49"/>
<polygon fill="#63b8ff" stroke="#63b8ff" points="780.64,-27.29 787.44,-19.17 777.06,-21.28 780.64,-27.29"/>
</a>
</g>
</g>
<!-- Node15&#45;&gt;Node7 -->
<g id="edge21_Node000015_Node000007" class="edge">
<title>Node15&#45;&gt;Node7</title>
<g id="a_edge21_Node000015_Node000007"><a xlink:title=" ">
<path fill="none" stroke="#63b8ff" d="M751.64,-55.62C802.52,-45.25 891.13,-27.19 939.37,-17.36"/>
<polygon fill="#63b8ff" stroke="#63b8ff" points="940.2,-20.76 949.3,-15.33 938.8,-13.9 940.2,-20.76"/>
</a>
</g>
</g>
<!-- Node15&#45;&gt;Node8 -->
<g id="edge23_Node000015_Node000008" class="edge">
<title>Node15&#45;&gt;Node8</title>
<g id="a_edge23_Node000015_Node000008"><a xlink:title=" ">
<path fill="none" stroke="#63b8ff" d="M751.83,-58.42C828.48,-48.39 998.55,-26.13 1076.95,-15.87"/>
<polygon fill="#63b8ff" stroke="#63b8ff" points="1077.48,-19.33 1086.94,-14.56 1076.57,-12.39 1077.48,-19.33"/>
</a>
</g>
</g>
<!-- Node15&#45;&gt;Node9 -->
<g id="edge20_Node000015_Node000009" class="edge">
<title>Node15&#45;&gt;Node9</title>
<g id="a_edge20_Node000015_Node000009"><a xlink:title=" ">
<path fill="none" stroke="#63b8ff" d="M740.47,-54.98C769.18,-46.09 814.42,-32.07 846.42,-22.15"/>
<polygon fill="#63b8ff" stroke="#63b8ff" points="847.8,-25.39 856.31,-19.08 845.72,-18.7 847.8,-25.39"/>
</a>
</g>
</g>
<!-- Node16 -->
<g id="Node000016" class="node">
<title>Node16</title>
<g id="a_Node000016"><a xlink:title=" ">
<polygon fill="#e0e0e0" stroke="#999999" points="729,-19 697,-19 697,0 729,0 729,-19"/>
<text text-anchor="middle" x="713" y="-7" font-family="Helvetica,sans-Serif" font-size="10.00">ff.h</text>
</a>
</g>
</g>
<!-- Node15&#45;&gt;Node16 -->
<g id="edge22_Node000015_Node000016" class="edge">
<title>Node15&#45;&gt;Node16</title>
<g id="a_edge22_Node000015_Node000016"><a xlink:title=" ">
<path fill="none" stroke="#63b8ff" d="M713,-54.75C713,-47.8 713,-37.85 713,-29.13"/>
<polygon fill="#63b8ff" stroke="#63b8ff" points="716.5,-29.09 713,-19.09 709.5,-29.09 716.5,-29.09"/>
</a>
</g>
</g>
<!-- Node17 -->
<g id="Node000017" class="node">
<title>Node17</title>
<g id="a_Node000017"><a xlink:title=" ">
<polygon fill="#e0e0e0" stroke="#999999" points="542,-19 486,-19 486,0 542,0 542,-19"/>
<text text-anchor="middle" x="514" y="-7" font-family="Helvetica,sans-Serif" font-size="10.00">stddef.h</text>
</a>
</g>
</g>
<!-- Node15&#45;&gt;Node17 -->
<g id="edge24_Node000015_Node000017" class="edge">
<title>Node15&#45;&gt;Node17</title>
<g id="a_edge24_Node000015_Node000017"><a xlink:title=" ">
<path fill="none" stroke="#63b8ff" d="M681.03,-54.98C645.88,-45.62 589.44,-30.59 552.04,-20.63"/>
<polygon fill="#63b8ff" stroke="#63b8ff" points="552.6,-17.16 542.03,-17.97 550.8,-23.92 552.6,-17.16"/>
</a>
</g>
</g>
<!-- Node19&#45;&gt;Node4 -->
<g id="edge29_Node000019_Node000004" class="edge">
<title>Node19&#45;&gt;Node4</title>
<g id="a_edge29_Node000019_Node000004"><a xlink:title=" ">
<path fill="none" stroke="#63b8ff" d="M272.57,-164.83C251.86,-153.77 222.44,-133.24 233,-110 252.64,-66.78 302.02,-38.13 335.03,-23.1"/>
<polygon fill="#63b8ff" stroke="#63b8ff" points="336.53,-26.26 344.29,-19.05 333.72,-19.85 336.53,-26.26"/>
</a>
</g>
</g>
<!-- Node20 -->
<g id="Node000020" class="node">
<title>Node20</title>
<g id="a_Node000020"><a xlink:title=" ">
<polygon fill="#e0e0e0" stroke="#999999" points="328,-129 242,-129 242,-110 328,-110 328,-129"/>
<text text-anchor="middle" x="285" y="-117" font-family="Helvetica,sans-Serif" font-size="10.00">spacepacket.h</text>
</a>
</g>
</g>
<!-- Node19&#45;&gt;Node20 -->
<g id="edge30_Node000019_Node000020" class="edge">
<title>Node19&#45;&gt;Node20</title>
<g id="a_edge30_Node000019_Node000020"><a xlink:title=" ">
<path fill="none" stroke="#63b8ff" d="M290.01,-164.75C289.22,-157.8 288.1,-147.85 287.11,-139.13"/>
<polygon fill="#63b8ff" stroke="#63b8ff" points="290.58,-138.63 285.97,-129.09 283.62,-139.42 290.58,-138.63"/>
</a>
</g>
</g>
<!-- Node21 -->
<g id="Node000021" class="node">
<title>Node21</title>
<g id="a_Node000021"><a xlink:href="user__auth_8h.html" target="_top" xlink:title=" ">
<polygon fill="white" stroke="#666666" points="594,-129 520,-129 520,-110 594,-110 594,-129"/>
<text text-anchor="middle" x="557" y="-117" font-family="Helvetica,sans-Serif" font-size="10.00">user_auth.h</text>
</a>
</g>
</g>
<!-- Node19&#45;&gt;Node21 -->
<g id="edge31_Node000019_Node000021" class="edge">
<title>Node19&#45;&gt;Node21</title>
<g id="a_edge31_Node000019_Node000021"><a xlink:title=" ">
<path fill="none" stroke="#63b8ff" d="M328.27,-166.07C375.85,-156.59 458.22,-140.18 510.05,-129.86"/>
<polygon fill="#63b8ff" stroke="#63b8ff" points="510.86,-133.26 519.99,-127.87 509.49,-126.4 510.86,-133.26"/>
</a>
</g>
</g>
<!-- Node21&#45;&gt;Node4 -->
<g id="edge33_Node000021_Node000004" class="edge">
<title>Node21&#45;&gt;Node4</title>
<g id="a_edge33_Node000021_Node000004"><a xlink:title=" ">
<path fill="none" stroke="#63b8ff" d="M527.7,-109.97C503.94,-102.38 470.06,-90.01 443,-74 420.27,-60.56 397.47,-40.39 382.85,-26.41"/>
<polygon fill="#63b8ff" stroke="#63b8ff" points="385.23,-23.84 375.63,-19.36 380.34,-28.85 385.23,-23.84"/>
</a>
</g>
</g>
<!-- Node21&#45;&gt;Node5 -->
<g id="edge32_Node000021_Node000005" class="edge">
<title>Node21&#45;&gt;Node5</title>
<g id="a_edge32_Node000021_Node000005"><a xlink:title=" ">
<path fill="none" stroke="#63b8ff" d="M561.17,-109.66C569.55,-91.93 588.53,-51.73 599.59,-28.32"/>
<polygon fill="#63b8ff" stroke="#63b8ff" points="602.81,-29.7 603.91,-19.16 596.48,-26.71 602.81,-29.7"/>
</a>
</g>
</g>
<!-- Node21&#45;&gt;Node15 -->
<g id="edge34_Node000021_Node000015" class="edge">
<title>Node21&#45;&gt;Node15</title>
<g id="a_edge34_Node000021_Node000015"><a xlink:title=" ">
<path fill="none" stroke="#63b8ff" d="M582.06,-109.98C608.03,-101.16 648.81,-87.31 677.96,-77.41"/>
<polygon fill="#63b8ff" stroke="#63b8ff" points="679.4,-80.61 687.74,-74.08 677.15,-73.99 679.4,-80.61"/>
</a>
</g>
</g>
<!-- Node22&#45;&gt;Node4 -->
<g id="edge36_Node000022_Node000004" class="edge">
<title>Node22&#45;&gt;Node4</title>
<g id="a_edge36_Node000022_Node000004"><a xlink:title=" ">
<path fill="none" stroke="#63b8ff" d="M475.19,-164.96C454.91,-158.19 429.66,-146.83 413,-129 386.35,-100.47 374.56,-54.79 369.83,-29.28"/>
<polygon fill="#63b8ff" stroke="#63b8ff" points="373.23,-28.39 368.12,-19.11 366.32,-29.55 373.23,-28.39"/>
</a>
</g>
</g>
<!-- Node22&#45;&gt;Node6 -->
<g id="edge43_Node000022_Node000006" class="edge">
<title>Node22&#45;&gt;Node6</title>
<g id="a_edge43_Node000022_Node000006"><a xlink:title=" ">
<path fill="none" stroke="#63b8ff" d="M547.61,-165.7C600.7,-153.61 695.69,-126.13 760,-74 775.2,-61.68 786.87,-42.37 794,-28.27"/>
<polygon fill="#63b8ff" stroke="#63b8ff" points="797.23,-29.64 798.39,-19.11 790.91,-26.62 797.23,-29.64"/>
</a>
</g>
</g>
<!-- Node23 -->
<g id="Node000023" class="node">
<title>Node23</title>
<g id="a_Node000023"><a xlink:href="rtc__ds3231_8h.html" target="_top" xlink:title="DS3231 Real Time Clock Driver.">
<polygon fill="white" stroke="#666666" points="501.5,-129 422.5,-129 422.5,-110 501.5,-110 501.5,-129"/>
<text text-anchor="middle" x="462" y="-117" font-family="Helvetica,sans-Serif" font-size="10.00">rtc_ds3231.h</text>
</a>
</g>
</g>
<!-- Node22&#45;&gt;Node23 -->
<g id="edge37_Node000022_Node000023" class="edge">
<title>Node22&#45;&gt;Node23</title>
<g id="a_edge37_Node000022_Node000023"><a xlink:title=" ">
<path fill="none" stroke="#63b8ff" d="M500.4,-164.75C493.84,-157.18 484.18,-146.05 476.19,-136.84"/>
<polygon fill="#63b8ff" stroke="#63b8ff" points="478.65,-134.35 469.45,-129.09 473.37,-138.94 478.65,-134.35"/>
</a>
</g>
</g>
<!-- Node23&#45;&gt;Node4 -->
<g id="edge42_Node000023_Node000004" class="edge">
<title>Node23&#45;&gt;Node4</title>
<g id="a_edge42_Node000023_Node000004"><a xlink:title=" ">
<path fill="none" stroke="#63b8ff" d="M450.05,-109.76C438.96,-101.32 422.35,-87.82 410,-74 397.15,-59.62 385.08,-41.18 377.01,-27.88"/>
<polygon fill="#63b8ff" stroke="#63b8ff" points="380,-26.06 371.9,-19.24 373.98,-29.63 380,-26.06"/>
</a>
</g>
</g>
<!-- Node24 -->
<g id="Node000024" class="node">
<title>Node24</title>
<g id="a_Node000024"><a xlink:href="simulator_2pico-sdk_2hardware_2i2c_8h.html" target="_top" xlink:title=" ">
<polygon fill="white" stroke="#666666" points="541.5,-74 452.5,-74 452.5,-55 541.5,-55 541.5,-74"/>
<text text-anchor="middle" x="497" y="-62" font-family="Helvetica,sans-Serif" font-size="10.00">hardware/i2c.h</text>
</a>
</g>
</g>
<!-- Node23&#45;&gt;Node24 -->
<g id="edge38_Node000023_Node000024" class="edge">
<title>Node23&#45;&gt;Node24</title>
<g id="a_edge38_Node000023_Node000024"><a xlink:title=" ">
<path fill="none" stroke="#63b8ff" d="M467.78,-109.75C472.62,-102.42 479.68,-91.73 485.64,-82.7"/>
<polygon fill="#63b8ff" stroke="#63b8ff" points="488.74,-84.36 491.33,-74.09 482.9,-80.5 488.74,-84.36"/>
</a>
</g>
</g>
<!-- Node24&#45;&gt;Node4 -->
<g id="edge39_Node000024_Node000004" class="edge">
<title>Node24&#45;&gt;Node4</title>
<g id="a_edge39_Node000024_Node000004"><a xlink:title=" ">
<path fill="none" stroke="#63b8ff" d="M476.11,-54.98C454.92,-46.34 421.87,-32.87 397.7,-23.02"/>
<polygon fill="#63b8ff" stroke="#63b8ff" points="398.85,-19.7 388.27,-19.17 396.21,-26.19 398.85,-19.7"/>
</a>
</g>
</g>
<!-- Node24&#45;&gt;Node5 -->
<g id="edge41_Node000024_Node000005" class="edge">
<title>Node24&#45;&gt;Node5</title>
<g id="a_edge41_Node000024_Node000005"><a xlink:title=" ">
<path fill="none" stroke="#63b8ff" d="M514.83,-54.98C532.61,-46.5 560.15,-33.35 580.68,-23.54"/>
<polygon fill="#63b8ff" stroke="#63b8ff" points="582.33,-26.64 589.84,-19.17 579.31,-20.32 582.33,-26.64"/>
</a>
</g>
</g>
<!-- Node24&#45;&gt;Node17 -->
<g id="edge40_Node000024_Node000017" class="edge">
<title>Node24&#45;&gt;Node17</title>
<g id="a_edge40_Node000024_Node000017"><a xlink:title=" ">
<path fill="none" stroke="#63b8ff" d="M499.81,-54.75C502.06,-47.72 505.3,-37.62 508.12,-28.84"/>
<polygon fill="#63b8ff" stroke="#63b8ff" points="511.52,-29.68 511.25,-19.09 504.86,-27.54 511.52,-29.68"/>
</a>
</g>
</g>
<!-- Node25&#45;&gt;Node6 -->
<g id="edge45_Node000025_Node000006" class="edge">
<title>Node25&#45;&gt;Node6</title>
<g id="a_edge45_Node000025_Node000006"><a xlink:title=" ">
<path fill="none" stroke="#63b8ff" d="M945.53,-54.98C916.82,-46.09 871.58,-32.07 839.58,-22.15"/>
<polygon fill="#63b8ff" stroke="#63b8ff" points="840.28,-18.7 829.69,-19.08 838.2,-25.39 840.28,-18.7"/>
</a>
</g>
</g>
<!-- Node25&#45;&gt;Node7 -->
<g id="edge46_Node000025_Node000007" class="edge">
<title>Node25&#45;&gt;Node7</title>
<g id="a_edge46_Node000025_Node000007"><a xlink:title=" ">
<path fill="none" stroke="#63b8ff" d="M973,-54.75C973,-47.8 973,-37.85 973,-29.13"/>
<polygon fill="#63b8ff" stroke="#63b8ff" points="976.5,-29.09 973,-19.09 969.5,-29.09 976.5,-29.09"/>
</a>
</g>
</g>
<!-- Node26&#45;&gt;Node4 -->
<g id="edge49_Node000026_Node000004" class="edge">
<title>Node26&#45;&gt;Node4</title>
<g id="a_edge49_Node000026_Node000004"><a xlink:title=" ">
<path fill="none" stroke="#63b8ff" d="M450.14,-219.78C432.92,-197.27 388.19,-134.72 373,-74 369.34,-59.36 367.87,-42.31 367.31,-29.57"/>
<polygon fill="#63b8ff" stroke="#63b8ff" points="370.8,-29.16 367,-19.27 363.8,-29.37 370.8,-29.16"/>
</a>
</g>
</g>
<!-- Node26&#45;&gt;Node12 -->
<g id="edge48_Node000026_Node000012" class="edge">
<title>Node26&#45;&gt;Node12</title>
<g id="a_edge48_Node000026_Node000012"><a xlink:title=" ">
<path fill="none" stroke="#63b8ff" d="M497.03,-224.52C588.3,-214.52 807.32,-185.08 851,-129 860.88,-116.31 857.32,-97.62 852.38,-83.8"/>
<polygon fill="#63b8ff" stroke="#63b8ff" points="855.54,-82.29 848.53,-74.36 849.06,-84.94 855.54,-82.29"/>
</a>
</g>
</g>
<!-- Node26&#45;&gt;Node19 -->
<g id="edge50_Node000026_Node000019" class="edge">
<title>Node26&#45;&gt;Node19</title>
<g id="a_edge50_Node000026_Node000019"><a xlink:title=" ">
<path fill="none" stroke="#63b8ff" d="M430.33,-219.98C402.46,-211.09 358.55,-197.07 327.48,-187.15"/>
<polygon fill="#63b8ff" stroke="#63b8ff" points="328.47,-183.79 317.88,-184.08 326.34,-190.46 328.47,-183.79"/>
</a>
</g>
</g>
</g>
</svg>

<g id="navigator" transform="translate(0 0)" fill="#404254">
  <rect fill="#f2f5e9" fill-opacity="0.5" stroke="#606060" stroke-width=".5" x="0" y="0" width="60" height="60"/>
  <use id="zoomplus" xlink:href="#zoomPlus" x="17" y="9" onmousedown="handleZoom(evt,'in')"/>
  <use id="zoomminus" xlink:href="#zoomMin" x="42" y="9" onmousedown="handleZoom(evt,'out')"/>
  <use id="reset" xlink:href="#resetDef" x="30" y="36" onmousedown="handleReset()"/>
   <use id="arrowup" xlink:href="#arrowUp" x="0" y="0" onmousedown="handlePan(0,-1)"/>
  <use id="arrowright" xlink:href="#arrowRight" x="0" y="0" onmousedown="handlePan(1,0)"/>
  <use id="arrowdown" xlink:href="#arrowDown" x="0" y="0" onmousedown="handlePan(0,1)"/>
  <use id="arrowleft" xlink:href="#arrowLeft" x="0" y="0" onmousedown="handlePan(-1,0)"/>
</g>
<svg viewBox="0 0 15 15" width="100%" height="30px" preserveAspectRatio="xMaxYMin meet">
 <g id="arrow_out" transform="scale(0.3 0.3)">
  <a xlink:href="command_8c__incl_org.svg" target="_base">
   <rect id="button" ry="5" rx="5" y="6" x="6" height="38" width="38"
        fill="#f2f5e9" fill-opacity="0.5" stroke="#606060" stroke-width="1.0"/>
   <path id="arrow"
     d="M 11.500037,31.436501 C 11.940474,20.09759 22.043105,11.32322 32.158766,21.979434 L 37.068811,17.246167 C 37.068811,17.246167 37.088388,32 37.088388,32 L 22.160133,31.978069 C 22.160133,31.978069 26.997745,27.140456 26.997745,27.140456 C 18.528582,18.264221 13.291696,25.230495 11.500037,31.436501 z"
     style="fill:#404040;"/>
  </a>
 </g>
</svg>

<style type='text/css'>
<![CDATA[
[data-mouse-over-selected='false'] { opacity: 0.7; }
[data-mouse-over-selected='true']  { opacity: 1.0; }
]]>
</style>
<script type="application/ecmascript"><![CDATA[
document.addEventListener('DOMContentLoaded', (event) => {
  highlightEdges();
  highlightAdjacentNodes();
});
]]></script>
</svg>
