<?xml version="1.0" encoding="UTF-8" standalone="no"?>
<!DOCTYPE svg PUBLIC "-//W3C//DTD SVG 1.1//EN"
 "http://www.w3.org/Graphics/SVG/1.1/DTD/svg11.dtd">
<!-- Generated by graphviz version 2.43.0 (0)
 -->
<!-- Title: main Pages: 1 -->
<svg width="842pt" height="1100pt"
 viewBox="0.00 0.00 842.00 1100.00" xmlns="http://www.w3.org/2000/svg" xmlns:xlink="http://www.w3.org/1999/xlink">
<g id="graph0" class="graph" transform="scale(1 1) rotate(0) translate(4 1096)">
<title>main</title>
<!-- Node1 -->
<g id="Node000001" class="node">
<title>Node1</title>
<g id="a_Node000001"><a xlink:title=" ">
<polygon fill="#999999" stroke="#666666" points="41,-187 0,-187 0,-168 41,-168 41,-187"/>
<text text-anchor="middle" x="20.5" y="-175" font-family="Helvetica,sans-Serif" font-size="10.00">main</text>
</a>
</g>
</g>
<!-- Node2 -->
<g id="Node000002" class="node">
<title>Node2</title>
<g id="a_Node000002"><a xlink:href="command__fuzzer_8cpp.html#ab0e871ec3061d40f07ff6c3d80c4bfe5" target="_top" xlink:title=" ">
<polygon fill="white" stroke="#666666" points="214,-187 77,-187 77,-168 214,-168 214,-187"/>
<text text-anchor="middle" x="145.5" y="-175" font-family="Helvetica,sans-Serif" font-size="10.00">LLVMFuzzerTestOneInput</text>
</a>
</g>
</g>
<!-- Node1&#45;&gt;Node2 -->
<g id="edge1_Node000001_Node000002" class="edge">
<title>Node1&#45;&gt;Node2</title>
<g id="a_edge1_Node000001_Node000002"><a xlink:title=" ">
<path fill="none" stroke="#63b8ff" d="M41.26,-177.5C48.54,-177.5 57.3,-177.5 66.6,-177.5"/>
<polygon fill="#63b8ff" stroke="#63b8ff" points="66.86,-181 76.86,-177.5 66.86,-174 66.86,-181"/>
</a>
</g>
</g>
<!-- Node3 -->
<g id="Node000003" class="node">
<title>Node3</title>
<g id="a_Node000003"><a xlink:href="command_8c.html#a661d128b0c529a2ccf2418bc3de76e32" target="_top" xlink:title=" ">
<polygon fill="white" stroke="#666666" points="343,-547 251,-547 251,-528 343,-528 343,-547"/>
<text text-anchor="middle" x="297" y="-535" font-family="Helvetica,sans-Serif" font-size="10.00">command_task</text>
</a>
</g>
</g>
<!-- Node2&#45;&gt;Node3 -->
<g id="edge2_Node000002_Node000003" class="edge">
<title>Node2&#45;&gt;Node3</title>
<g id="a_edge2_Node000002_Node000003"><a xlink:title=" ">
<path fill="none" stroke="#63b8ff" d="M150.5,-187.13C170.6,-235.53 260.7,-452.5 288.08,-518.44"/>
<polygon fill="#63b8ff" stroke="#63b8ff" points="284.85,-519.78 291.92,-527.67 291.32,-517.09 284.85,-519.78"/>
</a>
</g>
</g>
<!-- Node47 -->
<g id="Node000047" class="node">
<title>Node47</title>
<g id="a_Node000047"><a xlink:href="filesystem_8c.html#a73f4c05620eb3111fa320fe7fa6c5609" target="_top" xlink:title=" ">
<polygon fill="white" stroke="#666666" points="344,-371 250,-371 250,-352 344,-352 344,-371"/>
<text text-anchor="middle" x="297" y="-359" font-family="Helvetica,sans-Serif" font-size="10.00">filesystem_task</text>
</a>
</g>
</g>
<!-- Node2&#45;&gt;Node47 -->
<g id="edge36_Node000002_Node000047" class="edge">
<title>Node2&#45;&gt;Node47</title>
<g id="a_edge36_Node000002_Node000047"><a xlink:title=" ">
<path fill="none" stroke="#63b8ff" d="M154.33,-187.13C178.24,-216.57 250.61,-305.64 281.63,-343.82"/>
<polygon fill="#63b8ff" stroke="#63b8ff" points="279.23,-346.41 288.25,-351.96 284.66,-341.99 279.23,-346.41"/>
</a>
</g>
</g>
<!-- Node57 -->
<g id="Node000057" class="node">
<title>Node57</title>
<g id="a_Node000057"><a xlink:href="command__fuzzer_8cpp.html#a267f396cbd33fde57276eb740536934c" target="_top" xlink:title=" ">
<polygon fill="white" stroke="#666666" points="333.5,-206 260.5,-206 260.5,-187 333.5,-187 333.5,-206"/>
<text text-anchor="middle" x="297" y="-194" font-family="Helvetica,sans-Serif" font-size="10.00">fuzzer_task</text>
</a>
</g>
</g>
<!-- Node2&#45;&gt;Node57 -->
<g id="edge46_Node000002_Node000057" class="edge">
<title>Node2&#45;&gt;Node57</title>
<g id="a_edge46_Node000002_Node000057"><a xlink:title=" ">
<path fill="none" stroke="#63b8ff" d="M214.25,-186.11C226.44,-187.66 238.87,-189.24 250.25,-190.69"/>
<polygon fill="#63b8ff" stroke="#63b8ff" points="250,-194.18 260.36,-191.97 250.88,-187.24 250,-194.18"/>
</a>
</g>
</g>
<!-- Node60 -->
<g id="Node000060" class="node">
<title>Node60</title>
<g id="a_Node000060"><a xlink:href="steve_8c.html#a5eaa2a6f8e013a076a0b8dc66dcaacfd" target="_top" xlink:title=" ">
<polygon fill="white" stroke="#666666" points="484.5,-168 414.5,-168 414.5,-149 484.5,-149 484.5,-168"/>
<text text-anchor="middle" x="449.5" y="-156" font-family="Helvetica,sans-Serif" font-size="10.00">steve_task</text>
</a>
</g>
</g>
<!-- Node2&#45;&gt;Node60 -->
<g id="edge48_Node000002_Node000060" class="edge">
<title>Node2&#45;&gt;Node60</title>
<g id="a_edge48_Node000002_Node000060"><a xlink:title=" ">
<path fill="none" stroke="#63b8ff" d="M214.27,-173.24C272.24,-169.59 353.99,-164.45 404,-161.3"/>
<polygon fill="#63b8ff" stroke="#63b8ff" points="404.41,-164.78 414.17,-160.66 403.97,-157.79 404.41,-164.78"/>
</a>
</g>
</g>
<!-- Node96 -->
<g id="Node000096" class="node">
<title>Node96</title>
<g id="a_Node000096"><a xlink:href="telemetry_8c.html#a4b6f80453fccd49ceedb1296e14b1bee" target="_top" xlink:title=" ">
<polygon fill="white" stroke="#666666" points="342.5,-130 251.5,-130 251.5,-111 342.5,-111 342.5,-130"/>
<text text-anchor="middle" x="297" y="-118" font-family="Helvetica,sans-Serif" font-size="10.00">telemetry_task</text>
</a>
</g>
</g>
<!-- Node2&#45;&gt;Node96 -->
<g id="edge58_Node000002_Node000096" class="edge">
<title>Node2&#45;&gt;Node96</title>
<g id="a_edge58_Node000002_Node000096"><a xlink:title=" ">
<path fill="none" stroke="#63b8ff" d="M171.52,-167.96C196.1,-158.59 233.81,-144.21 261.28,-133.74"/>
<polygon fill="#63b8ff" stroke="#63b8ff" points="262.8,-136.9 270.9,-130.07 260.3,-130.36 262.8,-136.9"/>
</a>
</g>
</g>
<!-- Node100 -->
<g id="Node000100" class="node">
<title>Node100</title>
<g id="a_Node000100"><a xlink:href="command__fuzzer_8cpp.html#a713515efde98e3f81d7e857c31f81919" target="_top" xlink:title=" ">
<polygon fill="white" stroke="#666666" points="335.5,-93 258.5,-93 258.5,-74 335.5,-74 335.5,-93"/>
<text text-anchor="middle" x="297" y="-81" font-family="Helvetica,sans-Serif" font-size="10.00">xTaskCreate</text>
</a>
</g>
</g>
<!-- Node2&#45;&gt;Node100 -->
<g id="edge61_Node000002_Node000100" class="edge">
<title>Node2&#45;&gt;Node100</title>
<g id="a_edge61_Node000002_Node000100"><a xlink:title=" ">
<path fill="none" stroke="#63b8ff" d="M158,-167.76C176.48,-152.44 214.35,-122.41 250,-102.5 253.29,-100.66 256.79,-98.9 260.33,-97.24"/>
<polygon fill="#63b8ff" stroke="#63b8ff" points="261.97,-100.35 269.71,-93.11 259.15,-93.94 261.97,-100.35"/>
</a>
</g>
</g>
<!-- Node4 -->
<g id="Node000004" class="node">
<title>Node4</title>
<g id="a_Node000004"><a xlink:href="command_8c.html#a659f541debc1151493914063c723a0b1" target="_top" xlink:title=" ">
<polygon fill="#fff0f0" stroke="red" points="517,-668 382,-668 382,-649 517,-649 517,-668"/>
<text text-anchor="middle" x="449.5" y="-656" font-family="Helvetica,sans-Serif" font-size="10.00">parse_command_packet</text>
</a>
</g>
</g>
<!-- Node3&#45;&gt;Node4 -->
<g id="edge3_Node000003_Node000004" class="edge">
<title>Node3&#45;&gt;Node4</title>
<g id="a_edge3_Node000003_Node000004"><a xlink:title=" ">
<path fill="none" stroke="#63b8ff" d="M310.06,-547.2C335.82,-567.91 396.44,-616.64 428.23,-642.2"/>
<polygon fill="#63b8ff" stroke="#63b8ff" points="426.39,-645.22 436.38,-648.76 430.78,-639.76 426.39,-645.22"/>
</a>
</g>
</g>
<!-- Node5 -->
<g id="Node000005" class="node">
<title>Node5</title>
<g id="a_Node000005"><a xlink:href="user__auth_8c.html#a2e45341289a64a026113badabc8369cc" target="_top" xlink:title=" ">
<polygon fill="#fff0f0" stroke="red" points="660.5,-781 599.5,-781 599.5,-762 660.5,-762 660.5,-781"/>
<text text-anchor="middle" x="630" y="-769" font-family="Helvetica,sans-Serif" font-size="10.00">add_user</text>
</a>
</g>
</g>
<!-- Node4&#45;&gt;Node5 -->
<g id="edge4_Node000004_Node000005" class="edge">
<title>Node4&#45;&gt;Node5</title>
<g id="a_edge4_Node000004_Node000005"><a xlink:title=" ">
<path fill="none" stroke="#63b8ff" d="M459.34,-668.22C476.25,-686.28 515.06,-725.18 555,-747.5 565.67,-753.46 578.04,-758.21 589.58,-761.85"/>
<polygon fill="#63b8ff" stroke="#63b8ff" points="588.86,-765.29 599.44,-764.77 590.85,-758.58 588.86,-765.29"/>
</a>
</g>
</g>
<!-- Node12 -->
<g id="Node000012" class="node">
<title>Node12</title>
<g id="a_Node000012"><a xlink:href="filesystem_8c.html#a20ca64a89158ccc1eb3f714b3d8725f5" target="_top" xlink:title=" ">
<polygon fill="white" stroke="#666666" points="818.5,-818 756.5,-818 756.5,-799 818.5,-799 818.5,-818"/>
<text text-anchor="middle" x="787.5" y="-806" font-family="Helvetica,sans-Serif" font-size="10.00">make_dir</text>
</a>
</g>
</g>
<!-- Node4&#45;&gt;Node12 -->
<g id="edge20_Node000004_Node000012" class="edge">
<title>Node4&#45;&gt;Node12</title>
<g id="a_edge20_Node000004_Node000012"><a xlink:title=" ">
<path fill="none" stroke="#63b8ff" d="M452.92,-668.17C461.1,-698.49 490.82,-791.73 555,-827.5 618.66,-862.99 707.82,-838.89 754.75,-821.66"/>
<polygon fill="#63b8ff" stroke="#63b8ff" points="756.26,-824.83 764.37,-818.01 753.77,-818.29 756.26,-824.83"/>
</a>
</g>
</g>
<!-- Node14 -->
<g id="Node000014" class="node">
<title>Node14</title>
<g id="a_Node000014"><a xlink:href="filesystem_8c.html#aedf13aa9daded9085cdb13bc1560947b" target="_top" xlink:title=" ">
<polygon fill="#fff0f0" stroke="red" points="646,-705 614,-705 614,-686 646,-686 646,-705"/>
<text text-anchor="middle" x="630" y="-693" font-family="Helvetica,sans-Serif" font-size="10.00">cat</text>
</a>
</g>
</g>
<!-- Node4&#45;&gt;Node14 -->
<g id="edge6_Node000004_Node000014" class="edge">
<title>Node4&#45;&gt;Node14</title>
<g id="a_edge6_Node000004_Node000014"><a xlink:title=" ">
<path fill="none" stroke="#63b8ff" d="M496.47,-668.03C530.57,-675.1 575.81,-684.47 603.63,-690.24"/>
<polygon fill="#63b8ff" stroke="#63b8ff" points="603.22,-693.73 613.73,-692.33 604.64,-686.88 603.22,-693.73"/>
</a>
</g>
</g>
<!-- Node18 -->
<g id="Node000018" class="node">
<title>Node18</title>
<g id="a_Node000018"><a xlink:href="filesystem_8c.html#a02c1e03f51146617a18f5bcc96099220" target="_top" xlink:title=" ">
<polygon fill="white" stroke="#666666" points="821.5,-705 753.5,-705 753.5,-686 821.5,-686 821.5,-705"/>
<text text-anchor="middle" x="787.5" y="-693" font-family="Helvetica,sans-Serif" font-size="10.00">delete_file</text>
</a>
</g>
</g>
<!-- Node4&#45;&gt;Node18 -->
<g id="edge7_Node000004_Node000018" class="edge">
<title>Node4&#45;&gt;Node18</title>
<g id="a_edge7_Node000004_Node000018"><a xlink:title=" ">
<path fill="none" stroke="#63b8ff" d="M463.48,-668.22C482.41,-681.72 519.27,-705.53 555,-714.5 619.31,-730.65 696.52,-718.21 743.52,-707.25"/>
<polygon fill="#63b8ff" stroke="#63b8ff" points="744.46,-710.62 753.36,-704.87 742.82,-703.82 744.46,-710.62"/>
</a>
</g>
</g>
<!-- Node19 -->
<g id="Node000019" class="node">
<title>Node19</title>
<g id="a_Node000019"><a xlink:href="user__auth_8c.html#a7b721ad996f2f06a51dc10384adec934" target="_top" xlink:title=" ">
<polygon fill="#fff0f0" stroke="red" points="667,-668 593,-668 593,-649 667,-649 667,-668"/>
<text text-anchor="middle" x="630" y="-656" font-family="Helvetica,sans-Serif" font-size="10.00">delete_user</text>
</a>
</g>
</g>
<!-- Node4&#45;&gt;Node19 -->
<g id="edge8_Node000004_Node000019" class="edge">
<title>Node4&#45;&gt;Node19</title>
<g id="a_edge8_Node000004_Node000019"><a xlink:title=" ">
<path fill="none" stroke="#63b8ff" d="M517.22,-658.5C539.06,-658.5 562.83,-658.5 582.81,-658.5"/>
<polygon fill="#63b8ff" stroke="#63b8ff" points="582.88,-662 592.88,-658.5 582.88,-655 582.88,-662"/>
</a>
</g>
</g>
<!-- Node21 -->
<g id="Node000021" class="node">
<title>Node21</title>
<g id="a_Node000021"><a xlink:href="filesystem_8c.html#a550849e6b02b5ca20d32bdacb2ddd19b" target="_top" xlink:title=" ">
<polygon fill="white" stroke="#666666" points="812.5,-649 762.5,-649 762.5,-630 812.5,-630 812.5,-649"/>
<text text-anchor="middle" x="787.5" y="-637" font-family="Helvetica,sans-Serif" font-size="10.00">list_dir</text>
</a>
</g>
</g>
<!-- Node4&#45;&gt;Node21 -->
<g id="edge19_Node000004_Node000021" class="edge">
<title>Node4&#45;&gt;Node21</title>
<g id="a_edge19_Node000004_Node000021"><a xlink:title=" ">
<path fill="none" stroke="#63b8ff" d="M496.07,-648.96C514.3,-645.58 535.56,-642.2 555,-640.5 624.87,-634.37 707.06,-636.14 752.3,-637.88"/>
<polygon fill="#63b8ff" stroke="#63b8ff" points="752.31,-641.38 762.44,-638.29 752.6,-634.39 752.31,-641.38"/>
</a>
</g>
</g>
<!-- Node22 -->
<g id="Node000022" class="node">
<title>Node22</title>
<g id="a_Node000022"><a xlink:href="steve_8c.html#a5632f290d33b3c7aa26d8c708441134d" target="_top" xlink:title=" ">
<polygon fill="white" stroke="#666666" points="703,-430 557,-430 557,-411 703,-411 703,-430"/>
<text text-anchor="middle" x="630" y="-418" font-family="Helvetica,sans-Serif" font-size="10.00">edit_steve_job_recur_time</text>
</a>
</g>
</g>
<!-- Node4&#45;&gt;Node22 -->
<g id="edge11_Node000004_Node000022" class="edge">
<title>Node4&#45;&gt;Node22</title>
<g id="a_edge11_Node000004_Node000022"><a xlink:title=" ">
<path fill="none" stroke="#63b8ff" d="M457.54,-648.83C470.96,-630.08 500.49,-587.09 519,-547.5 540.43,-501.67 517.99,-474 555,-439.5 556.53,-438.08 558.15,-436.75 559.84,-435.53"/>
<polygon fill="#63b8ff" stroke="#63b8ff" points="562.06,-438.29 568.87,-430.17 558.48,-432.27 562.06,-438.29"/>
</a>
</g>
</g>
<!-- Node23 -->
<g id="Node000023" class="node">
<title>Node23</title>
<g id="a_Node000023"><a xlink:href="steve_8c.html#a19f0e4d517e614fdb1e563f56ac1123a" target="_top" xlink:title=" ">
<polygon fill="white" stroke="#666666" points="831,-473 744,-473 744,-454 831,-454 831,-473"/>
<text text-anchor="middle" x="787.5" y="-461" font-family="Helvetica,sans-Serif" font-size="10.00">find_steve_job</text>
</a>
</g>
</g>
<!-- Node4&#45;&gt;Node23 -->
<g id="edge14_Node000004_Node000023" class="edge">
<title>Node4&#45;&gt;Node23</title>
<g id="a_edge14_Node000004_Node000023"><a xlink:title=" ">
<path fill="none" stroke="#63b8ff" d="M456.63,-648.99C471.13,-627.22 509.73,-573.35 555,-543.5 571.39,-532.69 684.66,-495.83 746.46,-476.14"/>
<polygon fill="#63b8ff" stroke="#63b8ff" points="747.81,-479.38 756.28,-473.02 745.69,-472.71 747.81,-479.38"/>
</a>
</g>
</g>
<!-- Node25 -->
<g id="Node000025" class="node">
<title>Node25</title>
<g id="a_Node000025"><a xlink:href="utilities_2src_2log_8c.html#ad11311f2e9ec2fb14a767d93d1c5b97e" target="_top" xlink:title=" ">
<polygon fill="#fff0f0" stroke="red" points="698.5,-478.5 561.5,-478.5 561.5,-448.5 698.5,-448.5 698.5,-478.5"/>
<text text-anchor="start" x="569.5" y="-466.5" font-family="Helvetica,sans-Serif" font-size="10.00">get_most_recent_logged</text>
<text text-anchor="middle" x="630" y="-455.5" font-family="Helvetica,sans-Serif" font-size="10.00">_error</text>
</a>
</g>
</g>
<!-- Node4&#45;&gt;Node25 -->
<g id="edge15_Node000004_Node000025" class="edge">
<title>Node4&#45;&gt;Node25</title>
<g id="a_edge15_Node000004_Node000025"><a xlink:title=" ">
<path fill="none" stroke="#63b8ff" d="M456.49,-648.81C478.16,-613.75 551.43,-495.46 555,-492.5 559.19,-489.04 563.84,-485.95 568.71,-483.21"/>
<polygon fill="#63b8ff" stroke="#63b8ff" points="570.34,-486.31 577.66,-478.65 567.16,-480.07 570.34,-486.31"/>
</a>
</g>
</g>
<!-- Node26 -->
<g id="Node000026" class="node">
<title>Node26</title>
<g id="a_Node000026"><a xlink:href="hb__tlm__log_8c.html#a4cc64d575f6cdeedc77c1439ab316ee5" target="_top" xlink:title=" ">
<polygon fill="#fff0f0" stroke="red" points="680,-592 580,-592 580,-573 680,-573 680,-592"/>
<text text-anchor="middle" x="630" y="-580" font-family="Helvetica,sans-Serif" font-size="10.00">hb_tlm_playback</text>
</a>
</g>
</g>
<!-- Node4&#45;&gt;Node26 -->
<g id="edge16_Node000004_Node000026" class="edge">
<title>Node4&#45;&gt;Node26</title>
<g id="a_edge16_Node000004_Node000026"><a xlink:title=" ">
<path fill="none" stroke="#63b8ff" d="M467.88,-648.85C488.33,-637.74 523.48,-619.37 555,-606.5 564.95,-602.44 575.86,-598.58 586.18,-595.2"/>
<polygon fill="#63b8ff" stroke="#63b8ff" points="587.38,-598.49 595.84,-592.1 585.25,-591.82 587.38,-598.49"/>
</a>
</g>
</g>
<!-- Node16 -->
<g id="Node000016" class="node">
<title>Node16</title>
<g id="a_Node000016"><a xlink:href="telemetry_8c.html#a6dbf6c6cfd75451e5642ca0b64bf7f5a" target="_top" xlink:title=" ">
<polygon fill="white" stroke="#666666" points="834,-573 741,-573 741,-554 834,-554 834,-573"/>
<text text-anchor="middle" x="787.5" y="-561" font-family="Helvetica,sans-Serif" font-size="10.00">send_telemetry</text>
</a>
</g>
</g>
<!-- Node4&#45;&gt;Node16 -->
<g id="edge30_Node000004_Node000016" class="edge">
<title>Node4&#45;&gt;Node16</title>
<g id="a_edge30_Node000004_Node000016"><a xlink:title=" ">
<path fill="none" stroke="#63b8ff" d="M457.22,-648.89C472.06,-628.62 509.93,-581.9 555,-564.5 611.88,-542.54 682.65,-546.26 730.86,-552.93"/>
<polygon fill="#63b8ff" stroke="#63b8ff" points="730.39,-556.4 740.8,-554.39 731.41,-549.47 730.39,-556.4"/>
</a>
</g>
</g>
<!-- Node27 -->
<g id="Node000027" class="node">
<title>Node27</title>
<g id="a_Node000027"><a xlink:href="user__auth_8c.html#ac096e58f2c99b9804fb8a31697d748a1" target="_top" xlink:title=" ">
<polygon fill="white" stroke="#666666" points="660.5,-393 599.5,-393 599.5,-374 660.5,-374 660.5,-393"/>
<text text-anchor="middle" x="630" y="-381" font-family="Helvetica,sans-Serif" font-size="10.00">is_admin</text>
</a>
</g>
</g>
<!-- Node4&#45;&gt;Node27 -->
<g id="edge18_Node000004_Node000027" class="edge">
<title>Node4&#45;&gt;Node27</title>
<g id="a_edge18_Node000004_Node000027"><a xlink:title=" ">
<path fill="none" stroke="#63b8ff" d="M457.83,-648.96C471.73,-630.42 502.06,-587.79 519,-547.5 544.74,-486.29 508.23,-449.64 555,-402.5 563.98,-393.45 576.64,-388.52 588.96,-385.89"/>
<polygon fill="#63b8ff" stroke="#63b8ff" points="589.85,-389.29 599.14,-384.18 588.7,-382.38 589.85,-389.29"/>
</a>
</g>
</g>
<!-- Node28 -->
<g id="Node000028" class="node">
<title>Node28</title>
<g id="a_Node000028"><a xlink:href="filesystem_8c.html#a799eadaaf9ccd6162d5fa3fd15a0c3a1" target="_top" xlink:title=" ">
<polygon fill="white" stroke="#666666" points="680,-356 580,-356 580,-337 680,-337 680,-356"/>
<text text-anchor="middle" x="630" y="-344" font-family="Helvetica,sans-Serif" font-size="10.00">make_filesystem</text>
</a>
</g>
</g>
<!-- Node4&#45;&gt;Node28 -->
<g id="edge21_Node000004_Node000028" class="edge">
<title>Node4&#45;&gt;Node28</title>
<g id="a_edge21_Node000004_Node000028"><a xlink:title=" ">
<path fill="none" stroke="#63b8ff" d="M458.22,-648.74C472.52,-630.17 503.11,-587.97 519,-547.5 549.13,-470.75 498.35,-425.42 555,-365.5 559.37,-360.88 564.69,-357.33 570.46,-354.6"/>
<polygon fill="#63b8ff" stroke="#63b8ff" points="571.77,-357.85 579.82,-350.96 569.23,-351.32 571.77,-357.85"/>
</a>
</g>
</g>
<!-- Node29 -->
<g id="Node000029" class="node">
<title>Node29</title>
<g id="a_Node000029"><a xlink:href="steve_8c.html#af6d8fc617602d5007ade6ab61734ee9d" target="_top" xlink:title=" ">
<polygon fill="#fff0f0" stroke="red" points="697.5,-319 562.5,-319 562.5,-300 697.5,-300 697.5,-319"/>
<text text-anchor="middle" x="630" y="-307" font-family="Helvetica,sans-Serif" font-size="10.00">print_debug_exec_times</text>
</a>
</g>
</g>
<!-- Node4&#45;&gt;Node29 -->
<g id="edge22_Node000004_Node000029" class="edge">
<title>Node4&#45;&gt;Node29</title>
<g id="a_edge22_Node000004_Node000029"><a xlink:title=" ">
<path fill="none" stroke="#63b8ff" d="M458.35,-648.79C472.85,-630.3 503.77,-588.22 519,-547.5 553.56,-455.11 488.4,-401.26 555,-328.5 556.2,-327.19 557.48,-325.96 558.82,-324.82"/>
<polygon fill="#63b8ff" stroke="#63b8ff" points="560.9,-327.63 567.16,-319.09 556.93,-321.87 560.9,-327.63"/>
</a>
</g>
</g>
<!-- Node33 -->
<g id="Node000033" class="node">
<title>Node33</title>
<g id="a_Node000033"><a xlink:href="radio_8cpp.html#aededabcbfc8060b1d374369c6b67df4b" target="_top" xlink:title="Adds a stat response operation to the radio queue Stats Response Operation sends a packet of RSSI,...">
<polygon fill="white" stroke="#666666" points="705,-1055 555,-1055 555,-1036 705,-1036 705,-1055"/>
<text text-anchor="middle" x="630" y="-1043" font-family="Helvetica,sans-Serif" font-size="10.00">radio_queue_stat_response</text>
</a>
</g>
</g>
<!-- Node4&#45;&gt;Node33 -->
<g id="edge24_Node000004_Node000033" class="edge">
<title>Node4&#45;&gt;Node33</title>
<g id="a_edge24_Node000004_Node000033"><a xlink:title=" ">
<path fill="none" stroke="#63b8ff" d="M450,-668.21C448.16,-715.45 446.63,-923.1 555,-1027.5 556.1,-1028.56 557.25,-1029.56 558.45,-1030.51"/>
<polygon fill="#63b8ff" stroke="#63b8ff" points="556.62,-1033.49 566.93,-1035.97 560.42,-1027.61 556.62,-1033.49"/>
</a>
</g>
</g>
<!-- Node34 -->
<g id="Node000034" class="node">
<title>Node34</title>
<g id="a_Node000034"><a xlink:href="radio_8cpp.html#ab4fc5d140cd46c3db7b311a67d236deb" target="_top" xlink:title="Adds a change radio module being used operation to the radio queue.">
<polygon fill="white" stroke="#666666" points="682,-1018 578,-1018 578,-999 682,-999 682,-1018"/>
<text text-anchor="middle" x="630" y="-1006" font-family="Helvetica,sans-Serif" font-size="10.00">radio_set_module</text>
</a>
</g>
</g>
<!-- Node4&#45;&gt;Node34 -->
<g id="edge25_Node000004_Node000034" class="edge">
<title>Node4&#45;&gt;Node34</title>
<g id="a_edge25_Node000004_Node000034"><a xlink:title=" ">
<path fill="none" stroke="#63b8ff" d="M450.4,-668.08C450.46,-712.05 456.77,-896.48 555,-989.5 558.87,-993.17 563.36,-996.15 568.16,-998.58"/>
<polygon fill="#63b8ff" stroke="#63b8ff" points="567.15,-1001.95 577.72,-1002.58 569.85,-995.49 567.15,-1001.95"/>
</a>
</g>
</g>
<!-- Node35 -->
<g id="Node000035" class="node">
<title>Node35</title>
<g id="a_Node000035"><a xlink:href="radio_8cpp.html#a610ddc33ff0f6388cea252fb357dc990" target="_top" xlink:title="Changes the transmit power used by the radios.">
<polygon fill="white" stroke="#666666" points="684,-980.5 576,-980.5 576,-950.5 684,-950.5 684,-980.5"/>
<text text-anchor="start" x="584" y="-968.5" font-family="Helvetica,sans-Serif" font-size="10.00">radio_set_transmit</text>
<text text-anchor="middle" x="630" y="-957.5" font-family="Helvetica,sans-Serif" font-size="10.00">_power</text>
</a>
</g>
</g>
<!-- Node4&#45;&gt;Node35 -->
<g id="edge26_Node000004_Node000035" class="edge">
<title>Node4&#45;&gt;Node35</title>
<g id="a_edge26_Node000004_Node000035"><a xlink:title=" ">
<path fill="none" stroke="#63b8ff" d="M451.12,-668.16C454.22,-707.98 471.34,-861.13 555,-941.5 558.53,-944.89 562.54,-947.8 566.82,-950.3"/>
<polygon fill="#63b8ff" stroke="#63b8ff" points="565.44,-953.52 575.94,-954.87 568.58,-947.26 565.44,-953.52"/>
</a>
</g>
</g>
<!-- Node36 -->
<g id="Node000036" class="node">
<title>Node36</title>
<g id="a_Node000036"><a xlink:href="steve_8c.html#acc0bfad0acf234b4903c832955b29767" target="_top" xlink:title=" ">
<polygon fill="#fff0f0" stroke="red" points="702.5,-243 557.5,-243 557.5,-224 702.5,-224 702.5,-243"/>
<text text-anchor="middle" x="630" y="-231" font-family="Helvetica,sans-Serif" font-size="10.00">schedule_delayed_job_ms</text>
</a>
</g>
</g>
<!-- Node4&#45;&gt;Node36 -->
<g id="edge27_Node000004_Node000036" class="edge">
<title>Node4&#45;&gt;Node36</title>
<g id="a_edge27_Node000004_Node000036"><a xlink:title=" ">
<path fill="none" stroke="#63b8ff" d="M458.44,-648.82C473.09,-630.39 504.24,-588.4 519,-547.5 558,-439.42 497.62,-391.05 555,-291.5 565.63,-273.06 584.63,-258.35 600.72,-248.37"/>
<polygon fill="#63b8ff" stroke="#63b8ff" points="602.93,-251.13 609.77,-243.04 599.37,-245.1 602.93,-251.13"/>
</a>
</g>
</g>
<!-- Node38 -->
<g id="Node000038" class="node">
<title>Node38</title>
<g id="a_Node000038"><a xlink:href="set__rtc__job_8c.html#af31d3e6e7b984cd9aca01db95eac999a" target="_top" xlink:title=" ">
<polygon fill="#fff0f0" stroke="red" points="665,-932 595,-932 595,-913 665,-913 665,-932"/>
<text text-anchor="middle" x="630" y="-920" font-family="Helvetica,sans-Serif" font-size="10.00">set_rtc_job</text>
</a>
</g>
</g>
<!-- Node4&#45;&gt;Node38 -->
<g id="edge31_Node000004_Node000038" class="edge">
<title>Node4&#45;&gt;Node38</title>
<g id="a_edge31_Node000004_Node000038"><a xlink:title=" ">
<path fill="none" stroke="#63b8ff" d="M451.87,-668.39C457.44,-704.7 481.63,-831.93 555,-898.5 563.42,-906.14 574.31,-911.36 585.14,-914.91"/>
<polygon fill="#63b8ff" stroke="#63b8ff" points="584.41,-918.34 594.98,-917.73 586.33,-911.61 584.41,-918.34"/>
</a>
</g>
</g>
<!-- Node41 -->
<g id="Node000041" class="node">
<title>Node41</title>
<g id="a_Node000041"><a xlink:href="filesystem_8c.html#a1038e83eda006a16d81aba0bda5c3334" target="_top" xlink:title=" ">
<polygon fill="#fff0f0" stroke="red" points="809.5,-993 765.5,-993 765.5,-974 809.5,-974 809.5,-993"/>
<text text-anchor="middle" x="787.5" y="-981" font-family="Helvetica,sans-Serif" font-size="10.00">touch</text>
</a>
</g>
</g>
<!-- Node4&#45;&gt;Node41 -->
<g id="edge32_Node000004_Node000041" class="edge">
<title>Node4&#45;&gt;Node41</title>
<g id="a_edge32_Node000004_Node000041"><a xlink:title=" ">
<path fill="none" stroke="#63b8ff" d="M453.04,-668.04C461.75,-698.98 493.35,-797.63 555,-850.5 608.78,-896.63 644.88,-867 705,-904.5 732.01,-921.35 757.39,-948.4 772.44,-966.06"/>
<polygon fill="#63b8ff" stroke="#63b8ff" points="769.87,-968.44 778.96,-973.89 775.25,-963.96 769.87,-968.44"/>
</a>
</g>
</g>
<!-- Node42 -->
<g id="Node000042" class="node">
<title>Node42</title>
<g id="a_Node000042"><a xlink:href="user__auth_8c.html#acb5e4e390f704ceea798b215f70692d6" target="_top" xlink:title=" ">
<polygon fill="#fff0f0" stroke="red" points="681.5,-1092 578.5,-1092 578.5,-1073 681.5,-1073 681.5,-1092"/>
<text text-anchor="middle" x="630" y="-1080" font-family="Helvetica,sans-Serif" font-size="10.00">upload_user_data</text>
</a>
</g>
</g>
<!-- Node4&#45;&gt;Node42 -->
<g id="edge33_Node000004_Node000042" class="edge">
<title>Node4&#45;&gt;Node42</title>
<g id="a_edge33_Node000004_Node000042"><a xlink:title=" ">
<path fill="none" stroke="#63b8ff" d="M451.63,-668.03C458.39,-723.62 495.29,-1005.58 555,-1064.5 559,-1068.45 563.71,-1071.58 568.79,-1074.06"/>
<polygon fill="#63b8ff" stroke="#63b8ff" points="567.66,-1077.38 578.24,-1077.85 570.27,-1070.88 567.66,-1077.38"/>
</a>
</g>
</g>
<!-- Node46 -->
<g id="Node000046" class="node">
<title>Node46</title>
<g id="a_Node000046"><a xlink:href="watchdog_8c.html#acebf79aaf42978286eec0c3e016d7b0a" target="_top" xlink:title=" ">
<polygon fill="white" stroke="#666666" points="680,-818 580,-818 580,-799 680,-799 680,-818"/>
<text text-anchor="middle" x="630" y="-806" font-family="Helvetica,sans-Serif" font-size="10.00">watchdog_freeze</text>
</a>
</g>
</g>
<!-- Node4&#45;&gt;Node46 -->
<g id="edge35_Node000004_Node000046" class="edge">
<title>Node4&#45;&gt;Node46</title>
<g id="a_edge35_Node000004_Node000046"><a xlink:title=" ">
<path fill="none" stroke="#63b8ff" d="M455.28,-668.28C467.89,-692.97 504.55,-758.17 555,-790.5 559.66,-793.49 564.78,-795.98 570.08,-798.06"/>
<polygon fill="#63b8ff" stroke="#63b8ff" points="569.15,-801.44 579.75,-801.37 571.42,-794.82 569.15,-801.44"/>
</a>
</g>
</g>
<!-- Node5&#45;&gt;Node12 -->
<g id="edge5_Node000005_Node000012" class="edge">
<title>Node5&#45;&gt;Node12</title>
<g id="a_edge5_Node000005_Node000012"><a xlink:title=" ">
<path fill="none" stroke="#63b8ff" d="M660.61,-778.55C684.99,-784.35 719.78,-792.62 746.61,-799.01"/>
<polygon fill="#63b8ff" stroke="#63b8ff" points="745.93,-802.44 756.47,-801.35 747.55,-795.63 745.93,-802.44"/>
</a>
</g>
</g>
<!-- Node19&#45;&gt;Node18 -->
<g id="edge9_Node000019_Node000018" class="edge">
<title>Node19&#45;&gt;Node18</title>
<g id="a_edge9_Node000019_Node000018"><a xlink:title=" ">
<path fill="none" stroke="#63b8ff" d="M667.07,-667.08C689.83,-672.5 719.37,-679.53 743.37,-685.24"/>
<polygon fill="#63b8ff" stroke="#63b8ff" points="742.75,-688.69 753.28,-687.6 744.37,-681.88 742.75,-688.69"/>
</a>
</g>
</g>
<!-- Node19&#45;&gt;Node21 -->
<g id="edge10_Node000019_Node000021" class="edge">
<title>Node19&#45;&gt;Node21</title>
<g id="a_edge10_Node000019_Node000021"><a xlink:title=" ">
<path fill="none" stroke="#63b8ff" d="M667.07,-654.09C692.66,-650.97 726.81,-646.79 752.03,-643.71"/>
<polygon fill="#63b8ff" stroke="#63b8ff" points="752.74,-647.15 762.25,-642.46 751.9,-640.2 752.74,-647.15"/>
</a>
</g>
</g>
<!-- Node22&#45;&gt;Node23 -->
<g id="edge12_Node000022_Node000023" class="edge">
<title>Node22&#45;&gt;Node23</title>
<g id="a_edge12_Node000022_Node000023"><a xlink:title=" ">
<path fill="none" stroke="#63b8ff" d="M669.09,-430.01C680.65,-432.97 693.36,-436.29 705,-439.5 718.02,-443.09 732.14,-447.18 744.92,-450.95"/>
<polygon fill="#63b8ff" stroke="#63b8ff" points="744.25,-454.4 754.84,-453.9 746.25,-447.69 744.25,-454.4"/>
</a>
</g>
</g>
<!-- Node24 -->
<g id="Node000024" class="node">
<title>Node24</title>
<g id="a_Node000024"><a xlink:href="timing_8c.html#aca6ceb66dd9a31e6376e1bc478dec3d6" target="_top" xlink:title=" ">
<polygon fill="white" stroke="#666666" points="825,-281 750,-281 750,-262 825,-262 825,-281"/>
<text text-anchor="middle" x="787.5" y="-269" font-family="Helvetica,sans-Serif" font-size="10.00">ms_to_ticks</text>
</a>
</g>
</g>
<!-- Node22&#45;&gt;Node24 -->
<g id="edge13_Node000022_Node000024" class="edge">
<title>Node22&#45;&gt;Node24</title>
<g id="a_edge13_Node000022_Node000024"><a xlink:title=" ">
<path fill="none" stroke="#63b8ff" d="M689.5,-410.93C695.01,-408.68 700.29,-405.91 705,-402.5 744.44,-373.96 768.96,-319.9 779.87,-290.95"/>
<polygon fill="#63b8ff" stroke="#63b8ff" points="783.29,-291.79 783.38,-281.19 776.7,-289.42 783.29,-291.79"/>
</a>
</g>
</g>
<!-- Node26&#45;&gt;Node16 -->
<g id="edge17_Node000026_Node000016" class="edge">
<title>Node26&#45;&gt;Node16</title>
<g id="a_edge17_Node000026_Node000016"><a xlink:title=" ">
<path fill="none" stroke="#63b8ff" d="M680.2,-576.49C696.26,-574.53 714.22,-572.33 730.73,-570.31"/>
<polygon fill="#63b8ff" stroke="#63b8ff" points="731.29,-573.77 740.79,-569.09 730.44,-566.82 731.29,-573.77"/>
</a>
</g>
</g>
<!-- Node30 -->
<g id="Node000030" class="node">
<title>Node30</title>
<g id="a_Node000030"><a xlink:href="timing_8c.html#a7cef17ffb0e9db503a077191e1a4b013" target="_top" xlink:title=" ">
<polygon fill="white" stroke="#666666" points="823.5,-225 751.5,-225 751.5,-206 823.5,-206 823.5,-225"/>
<text text-anchor="middle" x="787.5" y="-213" font-family="Helvetica,sans-Serif" font-size="10.00">get_uptime</text>
</a>
</g>
</g>
<!-- Node29&#45;&gt;Node30 -->
<g id="edge23_Node000029_Node000030" class="edge">
<title>Node29&#45;&gt;Node30</title>
<g id="a_edge23_Node000029_Node000030"><a xlink:title=" ">
<path fill="none" stroke="#63b8ff" d="M646.77,-299.97C673.89,-283.57 729.58,-249.91 761.87,-230.39"/>
<polygon fill="#63b8ff" stroke="#63b8ff" points="763.95,-233.22 770.69,-225.06 760.32,-227.23 763.95,-233.22"/>
</a>
</g>
</g>
<!-- Node36&#45;&gt;Node24 -->
<g id="edge29_Node000036_Node000024" class="edge">
<title>Node36&#45;&gt;Node24</title>
<g id="a_edge29_Node000036_Node000024"><a xlink:title=" ">
<path fill="none" stroke="#63b8ff" d="M670.24,-243.09C691.46,-248.28 717.8,-254.71 740.05,-260.15"/>
<polygon fill="#63b8ff" stroke="#63b8ff" points="739.4,-263.59 749.94,-262.57 741.06,-256.79 739.4,-263.59"/>
</a>
</g>
</g>
<!-- Node36&#45;&gt;Node30 -->
<g id="edge28_Node000036_Node000030" class="edge">
<title>Node36&#45;&gt;Node30</title>
<g id="a_edge28_Node000036_Node000030"><a xlink:title=" ">
<path fill="none" stroke="#63b8ff" d="M702.83,-225.18C715.88,-223.67 729.15,-222.14 741.17,-220.75"/>
<polygon fill="#63b8ff" stroke="#63b8ff" points="741.83,-224.19 751.36,-219.57 741.03,-217.24 741.83,-224.19"/>
</a>
</g>
</g>
<!-- Node42&#45;&gt;Node41 -->
<g id="edge34_Node000042_Node000041" class="edge">
<title>Node42&#45;&gt;Node41</title>
<g id="a_edge34_Node000042_Node000041"><a xlink:title=" ">
<path fill="none" stroke="#63b8ff" d="M681.76,-1074.06C689.82,-1071.63 697.85,-1068.51 705,-1064.5 733.55,-1048.51 758.97,-1019.76 773.55,-1001.16"/>
<polygon fill="#63b8ff" stroke="#63b8ff" points="776.36,-1003.26 779.64,-993.18 770.79,-999.01 776.36,-1003.26"/>
</a>
</g>
</g>
<!-- Node48 -->
<g id="Node000048" class="node">
<title>Node48</title>
<g id="a_Node000048"><a xlink:href="filesystem_8c.html#a65a8bfbf26326e7b6dfd677f9b4ad626" target="_top" xlink:title=" ">
<polygon fill="white" stroke="#666666" points="477.5,-353 421.5,-353 421.5,-334 477.5,-334 477.5,-353"/>
<text text-anchor="middle" x="449.5" y="-341" font-family="Helvetica,sans-Serif" font-size="10.00">_fdelete</text>
</a>
</g>
</g>
<!-- Node47&#45;&gt;Node48 -->
<g id="edge37_Node000047_Node000048" class="edge">
<title>Node47&#45;&gt;Node48</title>
<g id="a_edge37_Node000047_Node000048"><a xlink:title=" ">
<path fill="none" stroke="#63b8ff" d="M344.38,-355.95C365.86,-353.38 391.03,-350.37 411.25,-347.96"/>
<polygon fill="#63b8ff" stroke="#63b8ff" points="411.81,-351.41 421.32,-346.75 410.97,-344.46 411.81,-351.41"/>
</a>
</g>
</g>
<!-- Node49 -->
<g id="Node000049" class="node">
<title>Node49</title>
<g id="a_Node000049"><a xlink:href="filesystem_8c.html#a1dbe64362d5ac8a72c84181d6ec09bd0" target="_top" xlink:title=" ">
<polygon fill="white" stroke="#666666" points="480.5,-316 418.5,-316 418.5,-297 480.5,-297 480.5,-316"/>
<text text-anchor="middle" x="449.5" y="-304" font-family="Helvetica,sans-Serif" font-size="10.00">_fdiropen</text>
</a>
</g>
</g>
<!-- Node47&#45;&gt;Node49 -->
<g id="edge38_Node000047_Node000049" class="edge">
<title>Node47&#45;&gt;Node49</title>
<g id="a_edge38_Node000047_Node000049"><a xlink:title=" ">
<path fill="none" stroke="#63b8ff" d="M317.56,-351.96C333.98,-344.19 358.18,-333.27 380,-325.5 389.05,-322.28 398.93,-319.26 408.3,-316.62"/>
<polygon fill="#63b8ff" stroke="#63b8ff" points="409.48,-319.92 418.2,-313.9 407.63,-313.17 409.48,-319.92"/>
</a>
</g>
</g>
<!-- Node50 -->
<g id="Node000050" class="node">
<title>Node50</title>
<g id="a_Node000050"><a xlink:href="filesystem_8c.html#a6256d8a7a46cd729effd6739faded687" target="_top" xlink:title=" ">
<polygon fill="white" stroke="#666666" points="479.5,-279 419.5,-279 419.5,-260 479.5,-260 479.5,-279"/>
<text text-anchor="middle" x="449.5" y="-267" font-family="Helvetica,sans-Serif" font-size="10.00">_fdirread</text>
</a>
</g>
</g>
<!-- Node47&#45;&gt;Node50 -->
<g id="edge39_Node000047_Node000050" class="edge">
<title>Node47&#45;&gt;Node50</title>
<g id="a_edge39_Node000047_Node000050"><a xlink:title=" ">
<path fill="none" stroke="#63b8ff" d="M306.06,-351.92C319.69,-336.31 348.87,-305.46 380,-288.5 389.1,-283.54 399.61,-279.79 409.61,-276.99"/>
<polygon fill="#63b8ff" stroke="#63b8ff" points="410.56,-280.36 419.38,-274.49 408.83,-273.58 410.56,-280.36"/>
</a>
</g>
</g>
<!-- Node51 -->
<g id="Node000051" class="node">
<title>Node51</title>
<g id="a_Node000051"><a xlink:href="filesystem_8c.html#a242db63f134c45189c12dc9e46c6b90d" target="_top" xlink:title=" ">
<polygon fill="white" stroke="#666666" points="469.5,-242 429.5,-242 429.5,-223 469.5,-223 469.5,-242"/>
<text text-anchor="middle" x="449.5" y="-230" font-family="Helvetica,sans-Serif" font-size="10.00">_flist</text>
</a>
</g>
</g>
<!-- Node47&#45;&gt;Node51 -->
<g id="edge40_Node000047_Node000051" class="edge">
<title>Node47&#45;&gt;Node51</title>
<g id="a_edge40_Node000047_Node000051"><a xlink:title=" ">
<path fill="none" stroke="#63b8ff" d="M302.41,-351.88C312.75,-330.41 340.69,-278.41 380,-251.5 391.65,-243.52 406.57,-238.88 419.51,-236.19"/>
<polygon fill="#63b8ff" stroke="#63b8ff" points="420.14,-239.63 429.36,-234.42 418.9,-232.74 420.14,-239.63"/>
</a>
</g>
</g>
<!-- Node52 -->
<g id="Node000052" class="node">
<title>Node52</title>
<g id="a_Node000052"><a xlink:href="filesystem_8c.html#a0332aeda2c19ddb31aa4307d37007f98" target="_top" xlink:title=" ">
<polygon fill="white" stroke="#666666" points="476.5,-538 422.5,-538 422.5,-519 476.5,-519 476.5,-538"/>
<text text-anchor="middle" x="449.5" y="-526" font-family="Helvetica,sans-Serif" font-size="10.00">_fmkdir</text>
</a>
</g>
</g>
<!-- Node47&#45;&gt;Node52 -->
<g id="edge41_Node000047_Node000052" class="edge">
<title>Node47&#45;&gt;Node52</title>
<g id="a_edge41_Node000047_Node000052"><a xlink:title=" ">
<path fill="none" stroke="#63b8ff" d="M300.46,-371.27C307.71,-397.97 331.57,-472.73 380,-510.5 389.21,-517.68 401,-522.01 412.21,-524.62"/>
<polygon fill="#63b8ff" stroke="#63b8ff" points="411.75,-528.09 422.23,-526.56 413.08,-521.22 411.75,-528.09"/>
</a>
</g>
</g>
<!-- Node53 -->
<g id="Node000053" class="node">
<title>Node53</title>
<g id="a_Node000053"><a xlink:href="filesystem_8c.html#ab4f728372ea55ba4c14531514e913814" target="_top" xlink:title=" ">
<polygon fill="white" stroke="#666666" points="473,-501 426,-501 426,-482 473,-482 473,-501"/>
<text text-anchor="middle" x="449.5" y="-489" font-family="Helvetica,sans-Serif" font-size="10.00">_fread</text>
</a>
</g>
</g>
<!-- Node47&#45;&gt;Node53 -->
<g id="edge42_Node000047_Node000053" class="edge">
<title>Node47&#45;&gt;Node53</title>
<g id="a_edge42_Node000047_Node000053"><a xlink:title=" ">
<path fill="none" stroke="#63b8ff" d="M302.18,-371.01C312.25,-392.74 339.96,-446.23 380,-473.5 390.53,-480.67 403.76,-484.99 415.78,-487.58"/>
<polygon fill="#63b8ff" stroke="#63b8ff" points="415.47,-491.08 425.94,-489.45 416.73,-484.2 415.47,-491.08"/>
</a>
</g>
</g>
<!-- Node54 -->
<g id="Node000054" class="node">
<title>Node54</title>
<g id="a_Node000054"><a xlink:href="filesystem_8c.html#a84409cd08ad5f1532a9908bcb106ffd9" target="_top" xlink:title=" ">
<polygon fill="white" stroke="#666666" points="471.5,-464 427.5,-464 427.5,-445 471.5,-445 471.5,-464"/>
<text text-anchor="middle" x="449.5" y="-452" font-family="Helvetica,sans-Serif" font-size="10.00">_fstat</text>
</a>
</g>
</g>
<!-- Node47&#45;&gt;Node54 -->
<g id="edge43_Node000047_Node000054" class="edge">
<title>Node47&#45;&gt;Node54</title>
<g id="a_edge43_Node000047_Node000054"><a xlink:title=" ">
<path fill="none" stroke="#63b8ff" d="M305.76,-371.15C319.17,-387.18 348.32,-419.24 380,-436.5 391.44,-442.73 405.15,-446.89 417.28,-449.62"/>
<polygon fill="#63b8ff" stroke="#63b8ff" points="416.95,-453.13 427.45,-451.67 418.33,-446.26 416.95,-453.13"/>
</a>
</g>
</g>
<!-- Node55 -->
<g id="Node000055" class="node">
<title>Node55</title>
<g id="a_Node000055"><a xlink:href="filesystem_8c.html#a20490ef1d54401f12085f7a9bfbb2c13" target="_top" xlink:title=" ">
<polygon fill="white" stroke="#666666" points="474.5,-427 424.5,-427 424.5,-408 474.5,-408 474.5,-427"/>
<text text-anchor="middle" x="449.5" y="-415" font-family="Helvetica,sans-Serif" font-size="10.00">_fwrite</text>
</a>
</g>
</g>
<!-- Node47&#45;&gt;Node55 -->
<g id="edge44_Node000047_Node000055" class="edge">
<title>Node47&#45;&gt;Node55</title>
<g id="a_edge44_Node000047_Node000055"><a xlink:title=" ">
<path fill="none" stroke="#63b8ff" d="M316.17,-371.06C332.53,-379.39 357.41,-391.37 380,-399.5 391.07,-403.48 403.44,-407.01 414.59,-409.85"/>
<polygon fill="#63b8ff" stroke="#63b8ff" points="413.86,-413.28 424.41,-412.27 415.53,-406.48 413.86,-413.28"/>
</a>
</g>
</g>
<!-- Node56 -->
<g id="Node000056" class="node">
<title>Node56</title>
<g id="a_Node000056"><a xlink:href="filesystem_8c.html#a7ea79e37cd85f3400dd530c48032329e" target="_top" xlink:title=" ">
<polygon fill="white" stroke="#666666" points="473,-390 426,-390 426,-371 473,-371 473,-390"/>
<text text-anchor="middle" x="449.5" y="-378" font-family="Helvetica,sans-Serif" font-size="10.00">_mkfs</text>
</a>
</g>
</g>
<!-- Node47&#45;&gt;Node56 -->
<g id="edge45_Node000047_Node000056" class="edge">
<title>Node47&#45;&gt;Node56</title>
<g id="a_edge45_Node000047_Node000056"><a xlink:title=" ">
<path fill="none" stroke="#63b8ff" d="M344.38,-367.36C367.58,-370.28 395.1,-373.76 416.01,-376.4"/>
<polygon fill="#63b8ff" stroke="#63b8ff" points="415.64,-379.88 426,-377.66 416.52,-372.93 415.64,-379.88"/>
</a>
</g>
</g>
<!-- Node58 -->
<g id="Node000058" class="node">
<title>Node58</title>
<g id="a_Node000058"><a xlink:href="command_8c.html#ac090b79f5dfeeaa73978dc9df75fe1a0" target="_top" xlink:title=" ">
<polygon fill="#fff0f0" stroke="red" points="519,-205 380,-205 380,-186 519,-186 519,-205"/>
<text text-anchor="middle" x="449.5" y="-193" font-family="Helvetica,sans-Serif" font-size="10.00">receive_command_bytes</text>
</a>
</g>
</g>
<!-- Node57&#45;&gt;Node58 -->
<g id="edge47_Node000057_Node000058" class="edge">
<title>Node57&#45;&gt;Node58</title>
<g id="a_edge47_Node000057_Node000058"><a xlink:title=" ">
<path fill="none" stroke="#63b8ff" d="M333.67,-196.26C344.57,-196.19 357.03,-196.11 369.62,-196.02"/>
<polygon fill="#63b8ff" stroke="#63b8ff" points="369.74,-199.52 379.72,-195.96 369.7,-192.52 369.74,-199.52"/>
</a>
</g>
</g>
<!-- Node60&#45;&gt;Node24 -->
<g id="edge53_Node000060_Node000024" class="edge">
<title>Node60&#45;&gt;Node24</title>
<g id="a_edge53_Node000060_Node000024"><a xlink:title=" ">
<path fill="none" stroke="#63b8ff" d="M484.56,-162.08C496.51,-164.76 509.35,-169.42 519,-177.5 547.35,-201.23 524.54,-231.54 555,-252.5 609.7,-290.13 689.81,-287.22 740.01,-280.34"/>
<polygon fill="#63b8ff" stroke="#63b8ff" points="740.56,-283.8 749.94,-278.88 739.53,-276.88 740.56,-283.8"/>
</a>
</g>
</g>
<!-- Node60&#45;&gt;Node30 -->
<g id="edge51_Node000060_Node000030" class="edge">
<title>Node60&#45;&gt;Node30</title>
<g id="a_edge51_Node000060_Node000030"><a xlink:title=" ">
<path fill="none" stroke="#63b8ff" d="M484.87,-157.46C534.36,-156.81 628.18,-158.7 705,-178.5 724.56,-183.54 745.28,-193.01 760.93,-201.1"/>
<polygon fill="#63b8ff" stroke="#63b8ff" points="759.49,-204.3 769.96,-205.91 762.78,-198.12 759.49,-204.3"/>
</a>
</g>
</g>
<!-- Node60&#45;&gt;Node36 -->
<g id="edge57_Node000060_Node000036" class="edge">
<title>Node60&#45;&gt;Node36</title>
<g id="a_edge57_Node000060_Node000036"><a xlink:title=" ">
<path fill="none" stroke="#63b8ff" d="M484.73,-164.16C496.17,-167.02 508.64,-171.27 519,-177.5 538.94,-189.49 534.87,-203.83 555,-215.5 558.07,-217.28 561.3,-218.88 564.64,-220.33"/>
<polygon fill="#63b8ff" stroke="#63b8ff" points="563.66,-223.7 574.25,-224 566.16,-217.16 563.66,-223.7"/>
</a>
</g>
</g>
<!-- Node61 -->
<g id="Node000061" class="node">
<title>Node61</title>
<g id="a_Node000061"><a xlink:href="miscellaneous__jobs_8c.html#a83768296af657eb8ad9963e4d9c4aaf0" target="_top" xlink:title="This method beeps the (CMT&#45;8504&#45;100&#45;SMT&#45;TR) buzzer 3 times using pwm.">
<polygon fill="white" stroke="#666666" points="679,-130 581,-130 581,-111 679,-111 679,-130"/>
<text text-anchor="middle" x="630" y="-118" font-family="Helvetica,sans-Serif" font-size="10.00">buzzer_beep_job</text>
</a>
</g>
</g>
<!-- Node60&#45;&gt;Node61 -->
<g id="edge49_Node000060_Node000061" class="edge">
<title>Node60&#45;&gt;Node61</title>
<g id="a_edge49_Node000060_Node000061"><a xlink:title=" ">
<path fill="none" stroke="#63b8ff" d="M484.92,-151.17C510.2,-145.79 545.07,-138.37 574.17,-132.17"/>
<polygon fill="#63b8ff" stroke="#63b8ff" points="575.15,-135.54 584.2,-130.04 573.69,-128.7 575.15,-135.54"/>
</a>
</g>
</g>
<!-- Node62 -->
<g id="Node000062" class="node">
<title>Node62</title>
<g id="a_Node000062"><a xlink:href="i2c_8c.html#a5d09de7ed47b30c0948eb1f363cb836c" target="_top" xlink:title="Configure i2c0 speed and pins.">
<polygon fill="white" stroke="#666666" points="665.5,-93 594.5,-93 594.5,-74 665.5,-74 665.5,-93"/>
<text text-anchor="middle" x="630" y="-81" font-family="Helvetica,sans-Serif" font-size="10.00">config_i2c1</text>
</a>
</g>
</g>
<!-- Node60&#45;&gt;Node62 -->
<g id="edge50_Node000060_Node000062" class="edge">
<title>Node60&#45;&gt;Node62</title>
<g id="a_edge50_Node000060_Node000062"><a xlink:title=" ">
<path fill="none" stroke="#63b8ff" d="M484.72,-153.41C496.16,-150.72 508.63,-146.64 519,-140.5 539.02,-128.65 534.95,-114.3 555,-102.5 563.92,-97.25 574.27,-93.44 584.36,-90.67"/>
<polygon fill="#63b8ff" stroke="#63b8ff" points="585.41,-94.02 594.29,-88.24 583.74,-87.22 585.41,-94.02"/>
</a>
</g>
</g>
<!-- Node63 -->
<g id="Node000063" class="node">
<title>Node63</title>
<g id="a_Node000063"><a xlink:href="steve_8c.html#a7eb0cd293c468c08d67c90a8ace5448c" target="_top" xlink:title=" ">
<polygon fill="#fff0f0" stroke="red" points="675.5,-56 584.5,-56 584.5,-37 675.5,-37 675.5,-56"/>
<text text-anchor="middle" x="630" y="-44" font-family="Helvetica,sans-Serif" font-size="10.00">initialize_steve</text>
</a>
</g>
</g>
<!-- Node60&#45;&gt;Node63 -->
<g id="edge52_Node000060_Node000063" class="edge">
<title>Node60&#45;&gt;Node63</title>
<g id="a_edge52_Node000060_Node000063"><a xlink:title=" ">
<path fill="none" stroke="#63b8ff" d="M484.56,-155.49C496.51,-152.99 509.35,-148.51 519,-140.5 547.76,-116.63 526.02,-88.1 555,-64.5 560.71,-59.85 567.44,-56.37 574.47,-53.77"/>
<polygon fill="#63b8ff" stroke="#63b8ff" points="575.67,-57.07 584.18,-50.75 573.59,-50.38 575.67,-57.07"/>
</a>
</g>
</g>
<!-- Node92 -->
<g id="Node000092" class="node">
<title>Node92</title>
<g id="a_Node000092"><a xlink:href="ds18b20_8c.html#a77ee2f32d90e72a84b5dcddf9f4222c4" target="_top" xlink:title="Initializes the PIO block to be a OneWire bus.">
<polygon fill="white" stroke="#666666" points="668.5,-19 591.5,-19 591.5,0 668.5,0 668.5,-19"/>
<text text-anchor="middle" x="630" y="-7" font-family="Helvetica,sans-Serif" font-size="10.00">onewire_init</text>
</a>
</g>
</g>
<!-- Node60&#45;&gt;Node92 -->
<g id="edge54_Node000060_Node000092" class="edge">
<title>Node60&#45;&gt;Node92</title>
<g id="a_edge54_Node000060_Node000092"><a xlink:title=" ">
<path fill="none" stroke="#63b8ff" d="M484.82,-156.24C496.93,-153.84 509.82,-149.22 519,-140.5 557.22,-104.2 516.45,-63.45 555,-27.5 562.25,-20.74 571.6,-16.4 581.19,-13.63"/>
<polygon fill="#63b8ff" stroke="#63b8ff" points="582.27,-16.98 591.21,-11.29 580.67,-10.16 582.27,-16.98"/>
</a>
</g>
</g>
<!-- Node93 -->
<g id="Node000093" class="node">
<title>Node93</title>
<g id="a_Node000093"><a xlink:href="steve_8c.html#a42627e02f5c86446dbe0cbbae5f87fe6" target="_top" xlink:title=" ">
<polygon fill="#fff0f0" stroke="red" points="672.5,-206 587.5,-206 587.5,-187 672.5,-187 672.5,-206"/>
<text text-anchor="middle" x="630" y="-194" font-family="Helvetica,sans-Serif" font-size="10.00">run_steve_job</text>
</a>
</g>
</g>
<!-- Node60&#45;&gt;Node93 -->
<g id="edge55_Node000060_Node000093" class="edge">
<title>Node60&#45;&gt;Node93</title>
<g id="a_edge55_Node000060_Node000093"><a xlink:title=" ">
<path fill="none" stroke="#63b8ff" d="M484.92,-165.83C511.22,-171.43 547.9,-179.24 577.67,-185.57"/>
<polygon fill="#63b8ff" stroke="#63b8ff" points="576.96,-189 587.47,-187.66 578.42,-182.15 576.96,-189"/>
</a>
</g>
</g>
<!-- Node93&#45;&gt;Node30 -->
<g id="edge56_Node000093_Node000030" class="edge">
<title>Node93&#45;&gt;Node30</title>
<g id="a_edge56_Node000093_Node000030"><a xlink:title=" ">
<path fill="none" stroke="#63b8ff" d="M672.67,-201.59C693.87,-204.18 719.67,-207.33 741.35,-209.98"/>
<polygon fill="#63b8ff" stroke="#63b8ff" points="740.95,-213.46 751.3,-211.2 741.8,-206.51 740.95,-213.46"/>
</a>
</g>
</g>
<!-- Node97 -->
<g id="Node000097" class="node">
<title>Node97</title>
<g id="a_Node000097"><a xlink:href="gse_8c.html#a07a7ef3b41255450f286364cc3668e54" target="_top" xlink:title=" ">
<polygon fill="#fff0f0" stroke="red" points="509,-131 390,-131 390,-112 509,-112 509,-131"/>
<text text-anchor="middle" x="449.5" y="-119" font-family="Helvetica,sans-Serif" font-size="10.00">gse_queue_message</text>
</a>
</g>
</g>
<!-- Node96&#45;&gt;Node97 -->
<g id="edge59_Node000096_Node000097" class="edge">
<title>Node96&#45;&gt;Node97</title>
<g id="a_edge59_Node000096_Node000097"><a xlink:title=" ">
<path fill="none" stroke="#63b8ff" d="M342.75,-120.8C354.44,-120.88 367.31,-120.96 379.93,-121.04"/>
<polygon fill="#63b8ff" stroke="#63b8ff" points="379.95,-124.54 389.97,-121.11 380,-117.54 379.95,-124.54"/>
</a>
</g>
</g>
<!-- Node99 -->
<g id="Node000099" class="node">
<title>Node99</title>
<g id="a_Node000099"><a xlink:href="test_2unit_2utilities_2log_8c.html#ad6da18174ed9892c214e56bac27bfc7f" target="_top" xlink:title=" ">
<polygon fill="white" stroke="#666666" points="488.5,-94 410.5,-94 410.5,-75 488.5,-75 488.5,-94"/>
<text text-anchor="middle" x="449.5" y="-82" font-family="Helvetica,sans-Serif" font-size="10.00">print_banner</text>
</a>
</g>
</g>
<!-- Node96&#45;&gt;Node99 -->
<g id="edge60_Node000096_Node000099" class="edge">
<title>Node96&#45;&gt;Node99</title>
<g id="a_edge60_Node000096_Node000099"><a xlink:title=" ">
<path fill="none" stroke="#63b8ff" d="M337.94,-110.95C357.16,-106.35 380.35,-100.8 400.52,-95.98"/>
<polygon fill="#63b8ff" stroke="#63b8ff" points="401.54,-99.33 410.45,-93.6 399.91,-92.52 401.54,-99.33"/>
</a>
</g>
</g>
</g>
</svg>
