<?xml version="1.0" encoding="UTF-8" standalone="no"?>
<!DOCTYPE svg PUBLIC "-//W3C//DTD SVG 1.1//EN"
 "http://www.w3.org/Graphics/SVG/1.1/DTD/svg11.dtd">
<!-- Generated by graphviz version 12.1.2 (20240928.0832)
 -->
<!-- Title: command.h Pages: 1 -->
<svg width="540pt" height="196pt"
 viewBox="0.00 0.00 540.00 196.00" xmlns="http://www.w3.org/2000/svg" xmlns:xlink="http://www.w3.org/1999/xlink">
<g id="graph0" class="graph" transform="scale(1 1) rotate(0) translate(4 192)">
<title>command.h</title>
<!-- Node1 -->
<g id="Node000001" class="node">
<title>Node1</title>
<g id="a_Node000001"><a xlink:title=" ">
<polygon fill="#999999" stroke="#666666" points="462.38,-188 395.38,-188 395.38,-168 462.38,-168 462.38,-188"/>
<text text-anchor="middle" x="428.88" y="-174.5" font-family="Helvetica,sans-Serif" font-size="10.00">command.h</text>
</a>
</g>
</g>
<!-- Node2 -->
<g id="Node000002" class="node">
<title>Node2</title>
<g id="a_Node000002"><a xlink:title=" ">
<polygon fill="#e0e0e0" stroke="#999999" points="532,-20 483.75,-20 483.75,0 532,0 532,-20"/>
<text text-anchor="middle" x="507.88" y="-6.5" font-family="Helvetica,sans-Serif" font-size="10.00">stdint.h</text>
</a>
</g>
</g>
<!-- Node1&#45;&gt;Node2 -->
<g id="edge1_Node000001_Node000002" class="edge">
<title>Node1&#45;&gt;Node2</title>
<g id="a_edge1_Node000001_Node000002"><a xlink:title=" ">
<path fill="none" stroke="#63b8ff" d="M443.02,-167.58C454.14,-159.44 469.15,-146.7 477.88,-132 496.68,-100.3 503.74,-57.22 506.36,-31.94"/>
<polygon fill="#63b8ff" stroke="#63b8ff" points="509.85,-32.27 507.23,-22 502.87,-31.66 509.85,-32.27"/>
</a>
</g>
</g>
<!-- Node3 -->
<g id="Node000003" class="node">
<title>Node3</title>
<g id="a_Node000003"><a xlink:title=" ">
<polygon fill="#e0e0e0" stroke="#999999" points="468.75,-132 389,-132 389,-112 468.75,-112 468.75,-132"/>
<text text-anchor="middle" x="428.88" y="-118.5" font-family="Helvetica,sans-Serif" font-size="10.00">spacepacket.h</text>
</a>
</g>
</g>
<!-- Node1&#45;&gt;Node3 -->
<g id="edge2_Node000001_Node000003" class="edge">
<title>Node1&#45;&gt;Node3</title>
<g id="a_edge2_Node000001_Node000003"><a xlink:title=" ">
<path fill="none" stroke="#63b8ff" d="M428.88,-167.59C428.88,-161.01 428.88,-151.96 428.88,-143.73"/>
<polygon fill="#63b8ff" stroke="#63b8ff" points="432.38,-143.81 428.88,-133.81 425.38,-143.81 432.38,-143.81"/>
</a>
</g>
</g>
<!-- Node4 -->
<g id="Node000004" class="node">
<title>Node4</title>
<g id="a_Node000004"><a xlink:href="user__auth_8h.html" target="_top" xlink:title=" ">
<polygon fill="white" stroke="#666666" points="361.38,-132 294.38,-132 294.38,-112 361.38,-112 361.38,-132"/>
<text text-anchor="middle" x="327.88" y="-118.5" font-family="Helvetica,sans-Serif" font-size="10.00">user_auth.h</text>
</a>
</g>
</g>
<!-- Node1&#45;&gt;Node4 -->
<g id="edge3_Node000001_Node000004" class="edge">
<title>Node1&#45;&gt;Node4</title>
<g id="a_edge3_Node000001_Node000004"><a xlink:title=" ">
<path fill="none" stroke="#63b8ff" d="M411.28,-167.59C395.95,-159.4 373.46,-147.37 355.69,-137.87"/>
<polygon fill="#63b8ff" stroke="#63b8ff" points="357.41,-134.82 346.94,-133.19 354.11,-140.99 357.41,-134.82"/>
</a>
</g>
</g>
<!-- Node4&#45;&gt;Node2 -->
<g id="edge5_Node000004_Node000002" class="edge">
<title>Node4&#45;&gt;Node2</title>
<g id="a_edge5_Node000004_Node000002"><a xlink:title=" ">
<path fill="none" stroke="#63b8ff" d="M343.22,-111.62C374.31,-92.63 444.96,-49.45 482.82,-26.31"/>
<polygon fill="#63b8ff" stroke="#63b8ff" points="484.57,-29.35 491.28,-21.14 480.92,-23.37 484.57,-29.35"/>
</a>
</g>
</g>
<!-- Node5 -->
<g id="Node000005" class="node">
<title>Node5</title>
<g id="a_Node000005"><a xlink:title=" ">
<polygon fill="#e0e0e0" stroke="#999999" points="55.75,-20 0,-20 0,0 55.75,0 55.75,-20"/>
<text text-anchor="middle" x="27.88" y="-6.5" font-family="Helvetica,sans-Serif" font-size="10.00">stdbool.h</text>
</a>
</g>
</g>
<!-- Node4&#45;&gt;Node5 -->
<g id="edge4_Node000004_Node000005" class="edge">
<title>Node4&#45;&gt;Node5</title>
<g id="a_edge4_Node000004_Node000005"><a xlink:title=" ">
<path fill="none" stroke="#63b8ff" d="M302.04,-111.53C248.65,-91.95 126.04,-46.99 64.5,-24.43"/>
<polygon fill="#63b8ff" stroke="#63b8ff" points="65.77,-21.17 55.18,-21.01 63.36,-27.74 65.77,-21.17"/>
</a>
</g>
</g>
<!-- Node6 -->
<g id="Node000006" class="node">
<title>Node6</title>
<g id="a_Node000006"><a xlink:href="filesystem_8h.html" target="_top" xlink:title=" ">
<polygon fill="white" stroke="#666666" points="341.5,-76 272.25,-76 272.25,-56 341.5,-56 341.5,-76"/>
<text text-anchor="middle" x="306.88" y="-62.5" font-family="Helvetica,sans-Serif" font-size="10.00">filesystem.h</text>
</a>
</g>
</g>
<!-- Node4&#45;&gt;Node6 -->
<g id="edge6_Node000004_Node000006" class="edge">
<title>Node4&#45;&gt;Node6</title>
<g id="a_edge6_Node000004_Node000006"><a xlink:title=" ">
<path fill="none" stroke="#63b8ff" d="M324.22,-111.59C321.57,-104.78 317.89,-95.32 314.6,-86.86"/>
<polygon fill="#63b8ff" stroke="#63b8ff" points="317.93,-85.76 311.04,-77.71 311.4,-88.3 317.93,-85.76"/>
</a>
</g>
</g>
<!-- Node6&#45;&gt;Node2 -->
<g id="edge13_Node000006_Node000002" class="edge">
<title>Node6&#45;&gt;Node2</title>
<g id="a_edge13_Node000006_Node000002"><a xlink:title=" ">
<path fill="none" stroke="#63b8ff" d="M341.96,-55.65C373.7,-47.18 422.01,-34.27 472.56,-20.62"/>
<polygon fill="#63b8ff" stroke="#63b8ff" points="473.17,-24.08 481.91,-18.09 471.34,-17.32 473.17,-24.08"/>
</a>
</g>
</g>
<!-- Node6&#45;&gt;Node5 -->
<g id="edge14_Node000006_Node000005" class="edge">
<title>Node6&#45;&gt;Node5</title>
<g id="a_edge14_Node000006_Node000005"><a xlink:title=" ">
<path fill="none" stroke="#63b8ff" d="M271.89,-59.11C226.85,-51.4 145.9,-37.09 67.21,-20.41"/>
<polygon fill="#63b8ff" stroke="#63b8ff" points="68.11,-17.02 57.6,-18.36 66.65,-23.87 68.11,-17.02"/>
</a>
</g>
</g>
<!-- Node7 -->
<g id="Node000007" class="node">
<title>Node7</title>
<g id="a_Node000007"><a xlink:title=" ">
<polygon fill="#e0e0e0" stroke="#999999" points="144.25,-20 73.5,-20 73.5,0 144.25,0 144.25,-20"/>
<text text-anchor="middle" x="108.88" y="-6.5" font-family="Helvetica,sans-Serif" font-size="10.00">FreeRTOS.h</text>
</a>
</g>
</g>
<!-- Node6&#45;&gt;Node7 -->
<g id="edge7_Node000006_Node000007" class="edge">
<title>Node6&#45;&gt;Node7</title>
<g id="a_edge7_Node000006_Node000007"><a xlink:title=" ">
<path fill="none" stroke="#63b8ff" d="M272.39,-55.59C239.65,-46.67 190.25,-33.19 154.32,-23.39"/>
<polygon fill="#63b8ff" stroke="#63b8ff" points="155.66,-20.13 145.09,-20.88 153.82,-26.89 155.66,-20.13"/>
</a>
</g>
</g>
<!-- Node8 -->
<g id="Node000008" class="node">
<title>Node8</title>
<g id="a_Node000008"><a xlink:title=" ">
<polygon fill="#e0e0e0" stroke="#999999" points="213.12,-20 162.62,-20 162.62,0 213.12,0 213.12,-20"/>
<text text-anchor="middle" x="187.88" y="-6.5" font-family="Helvetica,sans-Serif" font-size="10.00">queue.h</text>
</a>
</g>
</g>
<!-- Node6&#45;&gt;Node8 -->
<g id="edge8_Node000006_Node000008" class="edge">
<title>Node6&#45;&gt;Node8</title>
<g id="a_edge8_Node000006_Node000008"><a xlink:title=" ">
<path fill="none" stroke="#63b8ff" d="M286.15,-55.59C267.66,-47.21 240.33,-34.8 219.18,-25.21"/>
<polygon fill="#63b8ff" stroke="#63b8ff" points="220.7,-22.05 210.14,-21.1 217.8,-28.42 220.7,-22.05"/>
</a>
</g>
</g>
<!-- Node9 -->
<g id="Node000009" class="node">
<title>Node9</title>
<g id="a_Node000009"><a xlink:title=" ">
<polygon fill="#e0e0e0" stroke="#999999" points="274.38,-20 231.38,-20 231.38,0 274.38,0 274.38,-20"/>
<text text-anchor="middle" x="252.88" y="-6.5" font-family="Helvetica,sans-Serif" font-size="10.00">task.h</text>
</a>
</g>
</g>
<!-- Node6&#45;&gt;Node9 -->
<g id="edge9_Node000006_Node000009" class="edge">
<title>Node6&#45;&gt;Node9</title>
<g id="a_edge9_Node000006_Node000009"><a xlink:title=" ">
<path fill="none" stroke="#63b8ff" d="M297.47,-55.59C289.96,-48.08 279.23,-37.35 270.18,-28.3"/>
<polygon fill="#63b8ff" stroke="#63b8ff" points="272.79,-25.96 263.24,-21.37 267.84,-30.91 272.79,-25.96"/>
</a>
</g>
</g>
<!-- Node10 -->
<g id="Node000010" class="node">
<title>Node10</title>
<g id="a_Node000010"><a xlink:title=" ">
<polygon fill="#e0e0e0" stroke="#999999" points="321.62,-20 292.12,-20 292.12,0 321.62,0 321.62,-20"/>
<text text-anchor="middle" x="306.88" y="-6.5" font-family="Helvetica,sans-Serif" font-size="10.00">ff.h</text>
</a>
</g>
</g>
<!-- Node6&#45;&gt;Node10 -->
<g id="edge10_Node000006_Node000010" class="edge">
<title>Node6&#45;&gt;Node10</title>
<g id="a_edge10_Node000006_Node000010"><a xlink:title=" ">
<path fill="none" stroke="#63b8ff" d="M306.88,-55.59C306.88,-49.01 306.88,-39.96 306.88,-31.73"/>
<polygon fill="#63b8ff" stroke="#63b8ff" points="310.38,-31.81 306.88,-21.81 303.38,-31.81 310.38,-31.81"/>
</a>
</g>
</g>
<!-- Node11 -->
<g id="Node000011" class="node">
<title>Node11</title>
<g id="a_Node000011"><a xlink:title=" ">
<polygon fill="#e0e0e0" stroke="#999999" points="396.12,-20 339.62,-20 339.62,0 396.12,0 396.12,-20"/>
<text text-anchor="middle" x="367.88" y="-6.5" font-family="Helvetica,sans-Serif" font-size="10.00">semphr.h</text>
</a>
</g>
</g>
<!-- Node6&#45;&gt;Node11 -->
<g id="edge11_Node000006_Node000011" class="edge">
<title>Node6&#45;&gt;Node11</title>
<g id="a_edge11_Node000006_Node000011"><a xlink:title=" ">
<path fill="none" stroke="#63b8ff" d="M317.5,-55.59C326.16,-47.93 338.61,-36.91 348.96,-27.75"/>
<polygon fill="#63b8ff" stroke="#63b8ff" points="351.07,-30.55 356.24,-21.3 346.43,-25.31 351.07,-30.55"/>
</a>
</g>
</g>
<!-- Node12 -->
<g id="Node000012" class="node">
<title>Node12</title>
<g id="a_Node000012"><a xlink:title=" ">
<polygon fill="#e0e0e0" stroke="#999999" points="465.5,-20 414.25,-20 414.25,0 465.5,0 465.5,-20"/>
<text text-anchor="middle" x="439.88" y="-6.5" font-family="Helvetica,sans-Serif" font-size="10.00">stddef.h</text>
</a>
</g>
</g>
<!-- Node6&#45;&gt;Node12 -->
<g id="edge12_Node000006_Node000012" class="edge">
<title>Node6&#45;&gt;Node12</title>
<g id="a_edge12_Node000006_Node000012"><a xlink:title=" ">
<path fill="none" stroke="#63b8ff" d="M330.04,-55.59C351.08,-47.05 382.37,-34.35 406.18,-24.68"/>
<polygon fill="#63b8ff" stroke="#63b8ff" points="407.18,-28.05 415.13,-21.05 404.54,-21.57 407.18,-28.05"/>
</a>
</g>
</g>
</g>
</svg>
