<?xml version="1.0" encoding="UTF-8" standalone="no"?>
<!DOCTYPE svg PUBLIC "-//W3C//DTD SVG 1.1//EN"
 "http://www.w3.org/Graphics/SVG/1.1/DTD/svg11.dtd">
<!-- Generated by graphviz version 12.1.2 (20240928.0832)
 -->
<!-- Title: filesystem_task Pages: 1 -->
<svg width="185pt" height="332pt"
 viewBox="0.00 0.00 184.75 332.00" xmlns="http://www.w3.org/2000/svg" xmlns:xlink="http://www.w3.org/1999/xlink">
<g id="graph0" class="graph" transform="scale(1 1) rotate(0) translate(4 328)">
<title>filesystem_task</title>
<!-- Node1 -->
<g id="Node000001" class="node">
<title>Node1</title>
<g id="a_Node000001"><a xlink:title=" ">
<polygon fill="#999999" stroke="#666666" points="85,-172 0,-172 0,-152 85,-152 85,-172"/>
<text text-anchor="middle" x="42.5" y="-158.5" font-family="Helvetica,sans-Serif" font-size="10.00">filesystem_task</text>
</a>
</g>
</g>
<!-- Node2 -->
<g id="Node000002" class="node">
<title>Node2</title>
<g id="a_Node000002"><a xlink:href="filesystem_8c.html#a65a8bfbf26326e7b6dfd677f9b4ad626" target="_top" xlink:title=" ">
<polygon fill="white" stroke="#666666" points="174.12,-324 123.62,-324 123.62,-304 174.12,-304 174.12,-324"/>
<text text-anchor="middle" x="148.88" y="-310.5" font-family="Helvetica,sans-Serif" font-size="10.00">_fdelete</text>
</a>
</g>
</g>
<!-- Node1&#45;&gt;Node2 -->
<g id="edge1_Node000001_Node000002" class="edge">
<title>Node1&#45;&gt;Node2</title>
<g id="a_edge1_Node000001_Node000002"><a xlink:title=" ">
<path fill="none" stroke="#63b8ff" d="M47.67,-172.29C57.63,-195.99 84.72,-255.39 121,-295 121.36,-295.39 121.72,-295.78 122.1,-296.16"/>
<polygon fill="#63b8ff" stroke="#63b8ff" points="119.74,-298.75 129.62,-302.59 124.29,-293.43 119.74,-298.75"/>
</a>
</g>
</g>
<!-- Node3 -->
<g id="Node000003" class="node">
<title>Node3</title>
<g id="a_Node000003"><a xlink:href="filesystem_8c.html#a1dbe64362d5ac8a72c84181d6ec09bd0" target="_top" xlink:title=" ">
<polygon fill="white" stroke="#666666" points="176.75,-286 121,-286 121,-266 176.75,-266 176.75,-286"/>
<text text-anchor="middle" x="148.88" y="-272.5" font-family="Helvetica,sans-Serif" font-size="10.00">_fdiropen</text>
</a>
</g>
</g>
<!-- Node1&#45;&gt;Node3 -->
<g id="edge2_Node000001_Node000003" class="edge">
<title>Node1&#45;&gt;Node3</title>
<g id="a_edge2_Node000001_Node000003"><a xlink:title=" ">
<path fill="none" stroke="#63b8ff" d="M50.6,-172.47C63.36,-190.85 91.59,-229.55 121,-257 121.61,-257.57 122.24,-258.14 122.88,-258.7"/>
<polygon fill="#63b8ff" stroke="#63b8ff" points="120.48,-261.26 130.5,-264.69 124.8,-255.76 120.48,-261.26"/>
</a>
</g>
</g>
<!-- Node4 -->
<g id="Node000004" class="node">
<title>Node4</title>
<g id="a_Node000004"><a xlink:href="filesystem_8c.html#a6256d8a7a46cd729effd6739faded687" target="_top" xlink:title=" ">
<polygon fill="white" stroke="#666666" points="175.62,-248 122.12,-248 122.12,-228 175.62,-228 175.62,-248"/>
<text text-anchor="middle" x="148.88" y="-234.5" font-family="Helvetica,sans-Serif" font-size="10.00">_fdirread</text>
</a>
</g>
</g>
<!-- Node1&#45;&gt;Node4 -->
<g id="edge3_Node000001_Node000004" class="edge">
<title>Node1&#45;&gt;Node4</title>
<g id="a_edge3_Node000001_Node000004"><a xlink:title=" ">
<path fill="none" stroke="#63b8ff" d="M57.44,-172.38C72.91,-183.86 98.65,-202.88 121,-219 121.97,-219.7 122.97,-220.42 123.97,-221.14"/>
<polygon fill="#63b8ff" stroke="#63b8ff" points="121.64,-223.77 131.82,-226.72 125.7,-218.07 121.64,-223.77"/>
</a>
</g>
</g>
<!-- Node5 -->
<g id="Node000005" class="node">
<title>Node5</title>
<g id="a_Node000005"><a xlink:href="filesystem_8c.html#a242db63f134c45189c12dc9e46c6b90d" target="_top" xlink:title=" ">
<polygon fill="white" stroke="#666666" points="167.38,-210 130.38,-210 130.38,-190 167.38,-190 167.38,-210"/>
<text text-anchor="middle" x="148.88" y="-196.5" font-family="Helvetica,sans-Serif" font-size="10.00">_flist</text>
</a>
</g>
</g>
<!-- Node1&#45;&gt;Node5 -->
<g id="edge4_Node000001_Node000005" class="edge">
<title>Node1&#45;&gt;Node5</title>
<g id="a_edge4_Node000001_Node000005"><a xlink:title=" ">
<path fill="none" stroke="#63b8ff" d="M72.3,-172.48C87.01,-177.84 104.85,-184.34 119.5,-189.67"/>
<polygon fill="#63b8ff" stroke="#63b8ff" points="117.97,-192.84 128.56,-192.97 120.36,-186.26 117.97,-192.84"/>
</a>
</g>
</g>
<!-- Node6 -->
<g id="Node000006" class="node">
<title>Node6</title>
<g id="a_Node000006"><a xlink:href="filesystem_8c.html#a0332aeda2c19ddb31aa4307d37007f98" target="_top" xlink:title=" ">
<polygon fill="white" stroke="#666666" points="173,-172 124.75,-172 124.75,-152 173,-152 173,-172"/>
<text text-anchor="middle" x="148.88" y="-158.5" font-family="Helvetica,sans-Serif" font-size="10.00">_fmkdir</text>
</a>
</g>
</g>
<!-- Node1&#45;&gt;Node6 -->
<g id="edge5_Node000001_Node000006" class="edge">
<title>Node1&#45;&gt;Node6</title>
<g id="a_edge5_Node000001_Node000006"><a xlink:title=" ">
<path fill="none" stroke="#63b8ff" d="M85.35,-162C94.48,-162 104.04,-162 112.86,-162"/>
<polygon fill="#63b8ff" stroke="#63b8ff" points="112.82,-165.5 122.82,-162 112.82,-158.5 112.82,-165.5"/>
</a>
</g>
</g>
<!-- Node7 -->
<g id="Node000007" class="node">
<title>Node7</title>
<g id="a_Node000007"><a xlink:href="filesystem_8c.html#ab4f728372ea55ba4c14531514e913814" target="_top" xlink:title=" ">
<polygon fill="white" stroke="#666666" points="170.38,-134 127.38,-134 127.38,-114 170.38,-114 170.38,-134"/>
<text text-anchor="middle" x="148.88" y="-120.5" font-family="Helvetica,sans-Serif" font-size="10.00">_fread</text>
</a>
</g>
</g>
<!-- Node1&#45;&gt;Node7 -->
<g id="edge6_Node000001_Node000007" class="edge">
<title>Node1&#45;&gt;Node7</title>
<g id="a_edge6_Node000001_Node000007"><a xlink:title=" ">
<path fill="none" stroke="#63b8ff" d="M72.3,-151.52C86.01,-146.52 102.44,-140.54 116.47,-135.43"/>
<polygon fill="#63b8ff" stroke="#63b8ff" points="117.49,-138.79 125.69,-132.08 115.1,-132.21 117.49,-138.79"/>
</a>
</g>
</g>
<!-- Node8 -->
<g id="Node000008" class="node">
<title>Node8</title>
<g id="a_Node000008"><a xlink:href="filesystem_8c.html#a84409cd08ad5f1532a9908bcb106ffd9" target="_top" xlink:title=" ">
<polygon fill="white" stroke="#666666" points="169.25,-96 128.5,-96 128.5,-76 169.25,-76 169.25,-96"/>
<text text-anchor="middle" x="148.88" y="-82.5" font-family="Helvetica,sans-Serif" font-size="10.00">_fstat</text>
</a>
</g>
</g>
<!-- Node1&#45;&gt;Node8 -->
<g id="edge7_Node000001_Node000008" class="edge">
<title>Node1&#45;&gt;Node8</title>
<g id="a_edge7_Node000001_Node000008"><a xlink:title=" ">
<path fill="none" stroke="#63b8ff" d="M57.44,-151.62C72.91,-140.14 98.65,-121.12 121,-105 121.97,-104.3 122.97,-103.58 123.97,-102.86"/>
<polygon fill="#63b8ff" stroke="#63b8ff" points="125.7,-105.93 131.82,-97.28 121.64,-100.23 125.7,-105.93"/>
</a>
</g>
</g>
<!-- Node9 -->
<g id="Node000009" class="node">
<title>Node9</title>
<g id="a_Node000009"><a xlink:href="filesystem_8c.html#a20490ef1d54401f12085f7a9bfbb2c13" target="_top" xlink:title=" ">
<polygon fill="white" stroke="#666666" points="171.5,-58 126.25,-58 126.25,-38 171.5,-38 171.5,-58"/>
<text text-anchor="middle" x="148.88" y="-44.5" font-family="Helvetica,sans-Serif" font-size="10.00">_fwrite</text>
</a>
</g>
</g>
<!-- Node1&#45;&gt;Node9 -->
<g id="edge8_Node000001_Node000009" class="edge">
<title>Node1&#45;&gt;Node9</title>
<g id="a_edge8_Node000001_Node000009"><a xlink:title=" ">
<path fill="none" stroke="#63b8ff" d="M50.6,-151.53C63.36,-133.15 91.59,-94.45 121,-67 121.61,-66.43 122.24,-65.86 122.88,-65.3"/>
<polygon fill="#63b8ff" stroke="#63b8ff" points="124.8,-68.24 130.5,-59.31 120.48,-62.74 124.8,-68.24"/>
</a>
</g>
</g>
<!-- Node10 -->
<g id="Node000010" class="node">
<title>Node10</title>
<g id="a_Node000010"><a xlink:href="filesystem_8c.html#a7ea79e37cd85f3400dd530c48032329e" target="_top" xlink:title=" ">
<polygon fill="white" stroke="#666666" points="170.38,-20 127.38,-20 127.38,0 170.38,0 170.38,-20"/>
<text text-anchor="middle" x="148.88" y="-6.5" font-family="Helvetica,sans-Serif" font-size="10.00">_mkfs</text>
</a>
</g>
</g>
<!-- Node1&#45;&gt;Node10 -->
<g id="edge9_Node000001_Node000010" class="edge">
<title>Node1&#45;&gt;Node10</title>
<g id="a_edge9_Node000001_Node000010"><a xlink:title=" ">
<path fill="none" stroke="#63b8ff" d="M47.67,-151.71C57.63,-128.01 84.72,-68.61 121,-29 121.36,-28.61 121.72,-28.22 122.1,-27.84"/>
<polygon fill="#63b8ff" stroke="#63b8ff" points="124.29,-30.57 129.62,-21.41 119.74,-25.25 124.29,-30.57"/>
</a>
</g>
</g>
</g>
</svg>
