<?xml version="1.0" encoding="UTF-8" standalone="no"?>
<!DOCTYPE svg PUBLIC "-//W3C//DTD SVG 1.1//EN"
 "http://www.w3.org/Graphics/SVG/1.1/DTD/svg11.dtd">
<!-- Generated by graphviz version 12.1.2 (20240928.0832)
 -->
<!-- Title: LLVMFuzzerTestOneInput Pages: 1 -->
<svg width="800pt" height="1477pt"
 viewBox="0.00 0.00 800.00 1477.00" xmlns="http://www.w3.org/2000/svg" xmlns:xlink="http://www.w3.org/1999/xlink">
<g id="graph0" class="graph" transform="scale(1 1) rotate(0) translate(4 1473)">
<title>LLVMFuzzerTestOneInput</title>
<!-- Node1 -->
<g id="Node000001" class="node">
<title>Node1</title>
<g id="a_Node000001"><a xlink:title=" ">
<polygon fill="#999999" stroke="#666666" points="129.25,-248 0,-248 0,-228 129.25,-228 129.25,-248"/>
<text text-anchor="middle" x="64.62" y="-234.5" font-family="Helvetica,sans-Serif" font-size="10.00">LLVMFuzzerTestOneInput</text>
</a>
</g>
</g>
<!-- Node2 -->
<g id="Node000002" class="node">
<title>Node2</title>
<g id="a_Node000002"><a xlink:href="command_8c.html#a661d128b0c529a2ccf2418bc3de76e32" target="_top" xlink:title=" ">
<polygon fill="white" stroke="#666666" points="249.12,-724 166.38,-724 166.38,-704 249.12,-704 249.12,-724"/>
<text text-anchor="middle" x="207.75" y="-710.5" font-family="Helvetica,sans-Serif" font-size="10.00">command_task</text>
</a>
</g>
</g>
<!-- Node1&#45;&gt;Node2 -->
<g id="edge1_Node000001_Node000002" class="edge">
<title>Node1&#45;&gt;Node2</title>
<g id="a_edge1_Node000001_Node000002"><a xlink:title=" ">
<path fill="none" stroke="#63b8ff" d="M68.7,-248.38C86.46,-308.26 175.8,-609.62 200.45,-692.74"/>
<polygon fill="#63b8ff" stroke="#63b8ff" points="197.08,-693.71 203.28,-702.3 203.79,-691.72 197.08,-693.71"/>
</a>
</g>
</g>
<!-- Node46 -->
<g id="Node000046" class="node">
<title>Node46</title>
<g id="a_Node000046"><a xlink:href="filesystem_8c.html#a73f4c05620eb3111fa320fe7fa6c5609" target="_top" xlink:title=" ">
<polygon fill="white" stroke="#666666" points="250.25,-305 165.25,-305 165.25,-285 250.25,-285 250.25,-305"/>
<text text-anchor="middle" x="207.75" y="-291.5" font-family="Helvetica,sans-Serif" font-size="10.00">filesystem_task</text>
</a>
</g>
</g>
<!-- Node1&#45;&gt;Node46 -->
<g id="edge39_Node000001_Node000046" class="edge">
<title>Node1&#45;&gt;Node46</title>
<g id="a_edge39_Node000001_Node000046"><a xlink:title=" ">
<path fill="none" stroke="#63b8ff" d="M91.51,-248.45C113.69,-257.41 145.88,-270.41 170.6,-280.4"/>
<polygon fill="#63b8ff" stroke="#63b8ff" points="169.04,-283.54 179.63,-284.04 171.66,-277.05 169.04,-283.54"/>
</a>
</g>
</g>
<!-- Node56 -->
<g id="Node000056" class="node">
<title>Node56</title>
<g id="a_Node000056"><a xlink:href="command__fuzzer_8cpp.html#a267f396cbd33fde57276eb740536934c" target="_top" xlink:title=" ">
<polygon fill="white" stroke="#666666" points="241.25,-172 174.25,-172 174.25,-152 241.25,-152 241.25,-172"/>
<text text-anchor="middle" x="207.75" y="-158.5" font-family="Helvetica,sans-Serif" font-size="10.00">fuzzer_task</text>
</a>
</g>
</g>
<!-- Node1&#45;&gt;Node56 -->
<g id="edge49_Node000001_Node000056" class="edge">
<title>Node1&#45;&gt;Node56</title>
<g id="a_edge49_Node000001_Node000056"><a xlink:title=" ">
<path fill="none" stroke="#63b8ff" d="M84.95,-227.59C108.92,-214.69 149.98,-192.57 177.74,-177.62"/>
<polygon fill="#63b8ff" stroke="#63b8ff" points="179.18,-180.82 186.32,-173 175.86,-174.66 179.18,-180.82"/>
</a>
</g>
</g>
<!-- Node59 -->
<g id="Node000059" class="node">
<title>Node59</title>
<g id="a_Node000059"><a xlink:href="steve_8c.html#a5eaa2a6f8e013a076a0b8dc66dcaacfd" target="_top" xlink:title=" ">
<polygon fill="white" stroke="#666666" points="380.62,-514 316.62,-514 316.62,-494 380.62,-494 380.62,-514"/>
<text text-anchor="middle" x="348.62" y="-500.5" font-family="Helvetica,sans-Serif" font-size="10.00">steve_task</text>
</a>
</g>
</g>
<!-- Node1&#45;&gt;Node59 -->
<g id="edge52_Node000001_Node000059" class="edge">
<title>Node1&#45;&gt;Node59</title>
<g id="a_edge52_Node000001_Node000059"><a xlink:title=" ">
<path fill="none" stroke="#63b8ff" d="M71.95,-248.49C95.35,-286.38 181.03,-417.41 286.25,-485 292.16,-488.8 298.88,-491.88 305.65,-494.36"/>
<polygon fill="#63b8ff" stroke="#63b8ff" points="304.2,-497.57 314.79,-497.33 306.36,-490.91 304.2,-497.57"/>
</a>
</g>
</g>
<!-- Node94 -->
<g id="Node000094" class="node">
<title>Node94</title>
<g id="a_Node000094"><a xlink:href="telemetry_8c.html#a4b6f80453fccd49ceedb1296e14b1bee" target="_top" xlink:title=" ">
<polygon fill="white" stroke="#666666" points="248,-96 167.5,-96 167.5,-76 248,-76 248,-96"/>
<text text-anchor="middle" x="207.75" y="-82.5" font-family="Helvetica,sans-Serif" font-size="10.00">telemetry_task</text>
</a>
</g>
</g>
<!-- Node1&#45;&gt;Node94 -->
<g id="edge59_Node000001_Node000094" class="edge">
<title>Node1&#45;&gt;Node94</title>
<g id="a_edge59_Node000001_Node000094"><a xlink:title=" ">
<path fill="none" stroke="#63b8ff" d="M75.33,-227.55C99,-202.05 160,-136.35 189.83,-104.23"/>
<polygon fill="#63b8ff" stroke="#63b8ff" points="192.08,-106.94 196.32,-97.23 186.95,-102.18 192.08,-106.94"/>
</a>
</g>
</g>
<!-- Node99 -->
<g id="Node000099" class="node">
<title>Node99</title>
<g id="a_Node000099"><a xlink:href="command__fuzzer_8cpp.html#a713515efde98e3f81d7e857c31f81919" target="_top" xlink:title=" ">
<polygon fill="white" stroke="#666666" points="243.5,-58 172,-58 172,-38 243.5,-38 243.5,-58"/>
<text text-anchor="middle" x="207.75" y="-44.5" font-family="Helvetica,sans-Serif" font-size="10.00">xTaskCreate</text>
</a>
</g>
</g>
<!-- Node1&#45;&gt;Node99 -->
<g id="edge63_Node000001_Node000099" class="edge">
<title>Node1&#45;&gt;Node99</title>
<g id="a_edge63_Node000001_Node000099"><a xlink:title=" ">
<path fill="none" stroke="#63b8ff" d="M69.09,-227.7C79.31,-198.68 112.04,-115.22 165.25,-67 166.31,-66.04 167.42,-65.13 168.58,-64.25"/>
<polygon fill="#63b8ff" stroke="#63b8ff" points="170.19,-67.37 176.79,-59.09 166.46,-61.44 170.19,-67.37"/>
</a>
</g>
</g>
<!-- Node3 -->
<g id="Node000003" class="node">
<title>Node3</title>
<g id="a_Node000003"><a xlink:href="command_8c.html#a659f541debc1151493914063c723a0b1" target="_top" xlink:title=" ">
<polygon fill="white" stroke="#666666" points="409.88,-1020 287.38,-1020 287.38,-1000 409.88,-1000 409.88,-1020"/>
<text text-anchor="middle" x="348.62" y="-1006.5" font-family="Helvetica,sans-Serif" font-size="10.00">parse_command_packet</text>
</a>
</g>
</g>
<!-- Node2&#45;&gt;Node3 -->
<g id="edge2_Node000002_Node000003" class="edge">
<title>Node2&#45;&gt;Node3</title>
<g id="a_edge2_Node000002_Node000003"><a xlink:title=" ">
<path fill="none" stroke="#63b8ff" d="M213.53,-724.19C233.52,-766.79 310.62,-931.12 337.95,-989.38"/>
<polygon fill="#63b8ff" stroke="#63b8ff" points="334.66,-990.61 342.08,-998.18 341,-987.64 334.66,-990.61"/>
</a>
</g>
</g>
<!-- Node4 -->
<g id="Node000004" class="node">
<title>Node4</title>
<g id="a_Node000004"><a xlink:href="user__auth_8c.html#a2e45341289a64a026113badabc8369cc" target="_top" xlink:title=" ">
<polygon fill="#fff0f0" stroke="red" points="542.5,-1191 486.75,-1191 486.75,-1171 542.5,-1171 542.5,-1191"/>
<text text-anchor="middle" x="514.62" y="-1177.5" font-family="Helvetica,sans-Serif" font-size="10.00">add_user</text>
</a>
</g>
</g>
<!-- Node3&#45;&gt;Node4 -->
<g id="edge3_Node000003_Node000004" class="edge">
<title>Node3&#45;&gt;Node4</title>
<g id="a_edge3_Node000003_Node000004"><a xlink:title=" ">
<path fill="none" stroke="#63b8ff" d="M353.64,-1020.17C364.57,-1046.6 397.41,-1118.05 447,-1157 455.29,-1163.51 465.5,-1168.35 475.41,-1171.91"/>
<polygon fill="#63b8ff" stroke="#63b8ff" points="474.33,-1175.24 484.92,-1174.95 476.46,-1168.57 474.33,-1175.24"/>
</a>
</g>
</g>
<!-- Node11 -->
<g id="Node000011" class="node">
<title>Node11</title>
<g id="a_Node000011"><a xlink:href="filesystem_8c.html#a20ca64a89158ccc1eb3f714b3d8725f5" target="_top" xlink:title=" ">
<polygon fill="white" stroke="#666666" points="687.5,-1229 631.75,-1229 631.75,-1209 687.5,-1209 687.5,-1229"/>
<text text-anchor="middle" x="659.62" y="-1215.5" font-family="Helvetica,sans-Serif" font-size="10.00">make_dir</text>
</a>
</g>
</g>
<!-- Node3&#45;&gt;Node11 -->
<g id="edge20_Node000003_Node000011" class="edge">
<title>Node3&#45;&gt;Node11</title>
<g id="a_edge20_Node000003_Node000011"><a xlink:title=" ">
<path fill="none" stroke="#63b8ff" d="M351.32,-1020.08C357.38,-1052.68 381.24,-1155.65 447,-1200 498.91,-1235.01 575.01,-1231.95 620.41,-1225.91"/>
<polygon fill="#63b8ff" stroke="#63b8ff" points="620.64,-1229.41 630.03,-1224.51 619.63,-1222.49 620.64,-1229.41"/>
</a>
</g>
</g>
<!-- Node12 -->
<g id="Node000012" class="node">
<title>Node12</title>
<g id="a_Node000012"><a xlink:href="filesystem_8c.html#a8e5a51c709e9d6229c1974435475292a" target="_top" xlink:title=" ">
<polygon fill="white" stroke="#666666" points="792,-1134 737,-1134 737,-1114 792,-1114 792,-1134"/>
<text text-anchor="middle" x="764.5" y="-1120.5" font-family="Helvetica,sans-Serif" font-size="10.00">write_file</text>
</a>
</g>
</g>
<!-- Node3&#45;&gt;Node12 -->
<g id="edge38_Node000003_Node000012" class="edge">
<title>Node3&#45;&gt;Node12</title>
<g id="a_edge38_Node000003_Node000012"><a xlink:title=" ">
<path fill="none" stroke="#63b8ff" d="M355.84,-1020.37C369.32,-1041.78 403.58,-1090.57 447,-1111 539.33,-1154.44 664.08,-1141.74 725.75,-1131.46"/>
<polygon fill="#63b8ff" stroke="#63b8ff" points="726.13,-1134.95 735.38,-1129.78 724.92,-1128.05 726.13,-1134.95"/>
</a>
</g>
</g>
<!-- Node13 -->
<g id="Node000013" class="node">
<title>Node13</title>
<g id="a_Node000013"><a xlink:href="filesystem_8c.html#aedf13aa9daded9085cdb13bc1560947b" target="_top" xlink:title=" ">
<polygon fill="#fff0f0" stroke="red" points="529.38,-1039 499.88,-1039 499.88,-1019 529.38,-1019 529.38,-1039"/>
<text text-anchor="middle" x="514.62" y="-1025.5" font-family="Helvetica,sans-Serif" font-size="10.00">cat</text>
</a>
</g>
</g>
<!-- Node3&#45;&gt;Node13 -->
<g id="edge6_Node000003_Node000013" class="edge">
<title>Node3&#45;&gt;Node13</title>
<g id="a_edge6_Node000003_Node000013"><a xlink:title=" ">
<path fill="none" stroke="#63b8ff" d="M410.23,-1017.02C437.1,-1020.13 467.27,-1023.63 488.06,-1026.04"/>
<polygon fill="#63b8ff" stroke="#63b8ff" points="487.55,-1029.5 497.89,-1027.18 488.36,-1022.55 487.55,-1029.5"/>
</a>
</g>
</g>
<!-- Node17 -->
<g id="Node000017" class="node">
<title>Node17</title>
<g id="a_Node000017"><a xlink:href="filesystem_8c.html#a02c1e03f51146617a18f5bcc96099220" target="_top" xlink:title=" ">
<polygon fill="white" stroke="#666666" points="689.75,-1001 629.5,-1001 629.5,-981 689.75,-981 689.75,-1001"/>
<text text-anchor="middle" x="659.62" y="-987.5" font-family="Helvetica,sans-Serif" font-size="10.00">delete_file</text>
</a>
</g>
</g>
<!-- Node3&#45;&gt;Node17 -->
<g id="edge7_Node000003_Node000017" class="edge">
<title>Node3&#45;&gt;Node17</title>
<g id="a_edge7_Node000003_Node000017"><a xlink:title=" ">
<path fill="none" stroke="#63b8ff" d="M410.3,-1006.27C471.74,-1002.49 565.04,-996.75 618.05,-993.49"/>
<polygon fill="#63b8ff" stroke="#63b8ff" points="618.08,-997 627.85,-992.89 617.65,-990.01 618.08,-997"/>
</a>
</g>
</g>
<!-- Node18 -->
<g id="Node000018" class="node">
<title>Node18</title>
<g id="a_Node000018"><a xlink:href="user__auth_8c.html#a7b721ad996f2f06a51dc10384adec934" target="_top" xlink:title=" ">
<polygon fill="#fff0f0" stroke="red" points="547.75,-963 481.5,-963 481.5,-943 547.75,-943 547.75,-963"/>
<text text-anchor="middle" x="514.62" y="-949.5" font-family="Helvetica,sans-Serif" font-size="10.00">delete_user</text>
</a>
</g>
</g>
<!-- Node3&#45;&gt;Node18 -->
<g id="edge8_Node000003_Node000018" class="edge">
<title>Node3&#45;&gt;Node18</title>
<g id="a_edge8_Node000003_Node000018"><a xlink:title=" ">
<path fill="none" stroke="#63b8ff" d="M379.71,-999.55C405.86,-990.45 443.99,-977.2 472.88,-967.16"/>
<polygon fill="#63b8ff" stroke="#63b8ff" points="473.73,-970.57 482.03,-963.98 471.43,-963.96 473.73,-970.57"/>
</a>
</g>
</g>
<!-- Node20 -->
<g id="Node000020" class="node">
<title>Node20</title>
<g id="a_Node000020"><a xlink:href="filesystem_8c.html#a550849e6b02b5ca20d32bdacb2ddd19b" target="_top" xlink:title=" ">
<polygon fill="white" stroke="#666666" points="681.88,-944 637.38,-944 637.38,-924 681.88,-924 681.88,-944"/>
<text text-anchor="middle" x="659.62" y="-930.5" font-family="Helvetica,sans-Serif" font-size="10.00">list_dir</text>
</a>
</g>
</g>
<!-- Node3&#45;&gt;Node20 -->
<g id="edge19_Node000003_Node000020" class="edge">
<title>Node3&#45;&gt;Node20</title>
<g id="a_edge19_Node000003_Node000020"><a xlink:title=" ">
<path fill="none" stroke="#63b8ff" d="M358.52,-999.54C374.23,-981.96 408.88,-947.12 447,-934 507.37,-913.23 583.28,-920.66 625.82,-927.57"/>
<polygon fill="#63b8ff" stroke="#63b8ff" points="625.21,-931.01 635.66,-929.27 626.4,-924.12 625.21,-931.01"/>
</a>
</g>
</g>
<!-- Node21 -->
<g id="Node000021" class="node">
<title>Node21</title>
<g id="a_Node000021"><a xlink:href="steve_8c.html#a5632f290d33b3c7aa26d8c708441134d" target="_top" xlink:title=" ">
<polygon fill="white" stroke="#666666" points="579.62,-849 449.62,-849 449.62,-829 579.62,-829 579.62,-849"/>
<text text-anchor="middle" x="514.62" y="-835.5" font-family="Helvetica,sans-Serif" font-size="10.00">edit_steve_job_recur_time</text>
</a>
</g>
</g>
<!-- Node3&#45;&gt;Node21 -->
<g id="edge11_Node000003_Node000021" class="edge">
<title>Node3&#45;&gt;Node21</title>
<g id="a_edge11_Node000003_Node000021"><a xlink:title=" ">
<path fill="none" stroke="#63b8ff" d="M353.64,-999.83C364.57,-973.4 397.41,-901.95 447,-863 451.31,-859.62 456.13,-856.69 461.16,-854.15"/>
<polygon fill="#63b8ff" stroke="#63b8ff" points="462.57,-857.35 470.3,-850.1 459.74,-850.95 462.57,-857.35"/>
</a>
</g>
</g>
<!-- Node22 -->
<g id="Node000022" class="node">
<title>Node22</title>
<g id="a_Node000022"><a xlink:href="steve_8c.html#a19f0e4d517e614fdb1e563f56ac1123a" target="_top" xlink:title=" ">
<polygon fill="white" stroke="#666666" points="699.12,-868 620.12,-868 620.12,-848 699.12,-848 699.12,-868"/>
<text text-anchor="middle" x="659.62" y="-854.5" font-family="Helvetica,sans-Serif" font-size="10.00">find_steve_job</text>
</a>
</g>
</g>
<!-- Node3&#45;&gt;Node22 -->
<g id="edge14_Node000003_Node000022" class="edge">
<title>Node3&#45;&gt;Node22</title>
<g id="a_edge14_Node000003_Node000022"><a xlink:title=" ">
<path fill="none" stroke="#63b8ff" d="M357.25,-999.8C372.26,-980.47 407.59,-938.44 447,-916 497.86,-887.04 563.89,-871.95 608.56,-864.51"/>
<polygon fill="#63b8ff" stroke="#63b8ff" points="608.9,-868 618.23,-862.98 607.8,-861.09 608.9,-868"/>
</a>
</g>
</g>
<!-- Node24 -->
<g id="Node000024" class="node">
<title>Node24</title>
<g id="a_Node000024"><a xlink:href="utilities_2src_2log_8c.html#ad11311f2e9ec2fb14a767d93d1c5b97e" target="_top" xlink:title=" ">
<polygon fill="#fff0f0" stroke="red" points="575.88,-773 453.38,-773 453.38,-741 575.88,-741 575.88,-773"/>
<text text-anchor="start" x="461.38" y="-759.5" font-family="Helvetica,sans-Serif" font-size="10.00">get_most_recent_logged</text>
<text text-anchor="middle" x="514.62" y="-747.5" font-family="Helvetica,sans-Serif" font-size="10.00">_error</text>
</a>
</g>
</g>
<!-- Node3&#45;&gt;Node24 -->
<g id="edge15_Node000003_Node000024" class="edge">
<title>Node3&#45;&gt;Node24</title>
<g id="a_edge15_Node000003_Node000024"><a xlink:title=" ">
<path fill="none" stroke="#63b8ff" d="M351.09,-999.75C356.68,-964.4 379.81,-846.26 447,-782 447.74,-781.29 448.51,-780.6 449.29,-779.93"/>
<polygon fill="#63b8ff" stroke="#63b8ff" points="451.02,-783 457.12,-774.33 446.95,-777.3 451.02,-783"/>
</a>
</g>
</g>
<!-- Node25 -->
<g id="Node000025" class="node">
<title>Node25</title>
<g id="a_Node000025"><a xlink:href="hb__tlm__log_8c.html#a4cc64d575f6cdeedc77c1439ab316ee5" target="_top" xlink:title=" ">
<polygon fill="#fff0f0" stroke="red" points="559.38,-811 469.88,-811 469.88,-791 559.38,-791 559.38,-811"/>
<text text-anchor="middle" x="514.62" y="-797.5" font-family="Helvetica,sans-Serif" font-size="10.00">hb_tlm_playback</text>
</a>
</g>
</g>
<!-- Node3&#45;&gt;Node25 -->
<g id="edge16_Node000003_Node000025" class="edge">
<title>Node3&#45;&gt;Node25</title>
<g id="a_edge16_Node000003_Node000025"><a xlink:title=" ">
<path fill="none" stroke="#63b8ff" d="M351.88,-999.51C359.35,-967.44 386.27,-869.87 447,-820 450.66,-816.99 454.77,-814.46 459.11,-812.33"/>
<polygon fill="#63b8ff" stroke="#63b8ff" points="460.21,-815.67 468.12,-808.63 457.55,-809.19 460.21,-815.67"/>
</a>
</g>
</g>
<!-- Node15 -->
<g id="Node000015" class="node">
<title>Node15</title>
<g id="a_Node000015"><a xlink:href="telemetry_8c.html#a6dbf6c6cfd75451e5642ca0b64bf7f5a" target="_top" xlink:title=" ">
<polygon fill="white" stroke="#666666" points="701,-767 618.25,-767 618.25,-747 701,-747 701,-767"/>
<text text-anchor="middle" x="659.62" y="-753.5" font-family="Helvetica,sans-Serif" font-size="10.00">send_telemetry</text>
</a>
</g>
</g>
<!-- Node3&#45;&gt;Node15 -->
<g id="edge30_Node000003_Node000015" class="edge">
<title>Node3&#45;&gt;Node15</title>
<g id="a_edge30_Node000003_Node000015"><a xlink:title=" ">
<path fill="none" stroke="#63b8ff" d="M349.42,-999.78C349.2,-957.78 354.61,-797.53 447,-732 501.52,-693.33 584.51,-721.7 628.61,-741.74"/>
<polygon fill="#63b8ff" stroke="#63b8ff" points="627.04,-744.87 637.58,-745.97 630.02,-738.54 627.04,-744.87"/>
</a>
</g>
</g>
<!-- Node26 -->
<g id="Node000026" class="node">
<title>Node26</title>
<g id="a_Node000026"><a xlink:href="user__auth_8c.html#ac096e58f2c99b9804fb8a31697d748a1" target="_top" xlink:title=" ">
<polygon fill="white" stroke="#666666" points="542.12,-685 487.12,-685 487.12,-665 542.12,-665 542.12,-685"/>
<text text-anchor="middle" x="514.62" y="-671.5" font-family="Helvetica,sans-Serif" font-size="10.00">is_admin</text>
</a>
</g>
</g>
<!-- Node3&#45;&gt;Node26 -->
<g id="edge18_Node000003_Node000026" class="edge">
<title>Node3&#45;&gt;Node26</title>
<g id="a_edge18_Node000003_Node000026"><a xlink:title=" ">
<path fill="none" stroke="#63b8ff" d="M349.73,-999.51C350.73,-956.21 360.28,-789.47 447,-699 454.77,-690.9 465.47,-685.52 476.02,-681.96"/>
<polygon fill="#63b8ff" stroke="#63b8ff" points="476.73,-685.4 485.38,-679.28 474.8,-678.67 476.73,-685.4"/>
</a>
</g>
</g>
<!-- Node27 -->
<g id="Node000027" class="node">
<title>Node27</title>
<g id="a_Node000027"><a xlink:href="filesystem_8c.html#a799eadaaf9ccd6162d5fa3fd15a0c3a1" target="_top" xlink:title=" ">
<polygon fill="white" stroke="#666666" points="559.75,-1469 469.5,-1469 469.5,-1449 559.75,-1449 559.75,-1469"/>
<text text-anchor="middle" x="514.62" y="-1455.5" font-family="Helvetica,sans-Serif" font-size="10.00">make_filesystem</text>
</a>
</g>
</g>
<!-- Node3&#45;&gt;Node27 -->
<g id="edge21_Node000003_Node000027" class="edge">
<title>Node3&#45;&gt;Node27</title>
<g id="a_edge21_Node000003_Node000027"><a xlink:title=" ">
<path fill="none" stroke="#63b8ff" d="M350.56,-1020.43C356.11,-1079.92 386.5,-1376.07 447,-1440 450.35,-1443.54 454.3,-1446.43 458.59,-1448.8"/>
<polygon fill="#63b8ff" stroke="#63b8ff" points="457.12,-1451.97 467.69,-1452.8 459.94,-1445.57 457.12,-1451.97"/>
</a>
</g>
</g>
<!-- Node28 -->
<g id="Node000028" class="node">
<title>Node28</title>
<g id="a_Node000028"><a xlink:href="steve_8c.html#af6d8fc617602d5007ade6ab61734ee9d" target="_top" xlink:title=" ">
<polygon fill="#fff0f0" stroke="red" points="575.5,-571 453.75,-571 453.75,-551 575.5,-551 575.5,-571"/>
<text text-anchor="middle" x="514.62" y="-557.5" font-family="Helvetica,sans-Serif" font-size="10.00">print_debug_exec_times</text>
</a>
</g>
</g>
<!-- Node3&#45;&gt;Node28 -->
<g id="edge22_Node000003_Node000028" class="edge">
<title>Node3&#45;&gt;Node28</title>
<g id="a_edge22_Node000003_Node000028"><a xlink:title=" ">
<path fill="none" stroke="#63b8ff" d="M349.93,-999.74C351.76,-952.43 364.27,-751.94 447,-618 457.01,-601.79 473.15,-587.81 487.04,-577.75"/>
<polygon fill="#63b8ff" stroke="#63b8ff" points="488.7,-580.86 494.94,-572.3 484.73,-575.1 488.7,-580.86"/>
</a>
</g>
</g>
<!-- Node32 -->
<g id="Node000032" class="node">
<title>Node32</title>
<g id="a_Node000032"><a xlink:href="radio_8cpp.html#aededabcbfc8060b1d374369c6b67df4b" target="_top" xlink:title=" ">
<polygon fill="white" stroke="#666666" points="582.25,-1431 447,-1431 447,-1411 582.25,-1411 582.25,-1431"/>
<text text-anchor="middle" x="514.62" y="-1417.5" font-family="Helvetica,sans-Serif" font-size="10.00">radio_queue_stat_response</text>
</a>
</g>
</g>
<!-- Node3&#45;&gt;Node32 -->
<g id="edge24_Node000003_Node000032" class="edge">
<title>Node3&#45;&gt;Node32</title>
<g id="a_edge24_Node000003_Node000032"><a xlink:title=" ">
<path fill="none" stroke="#63b8ff" d="M350.78,-1020.23C357.31,-1076.15 391.21,-1344.26 447,-1402 447.73,-1402.76 448.49,-1403.48 449.27,-1404.18"/>
<polygon fill="#63b8ff" stroke="#63b8ff" points="447.07,-1406.91 457.27,-1409.77 451.08,-1401.17 447.07,-1406.91"/>
</a>
</g>
</g>
<!-- Node33 -->
<g id="Node000033" class="node">
<title>Node33</title>
<g id="a_Node000033"><a xlink:href="radio_8cpp.html#ab4fc5d140cd46c3db7b311a67d236deb" target="_top" xlink:title=" ">
<polygon fill="white" stroke="#666666" points="560.88,-1393 468.38,-1393 468.38,-1373 560.88,-1373 560.88,-1393"/>
<text text-anchor="middle" x="514.62" y="-1379.5" font-family="Helvetica,sans-Serif" font-size="10.00">radio_set_module</text>
</a>
</g>
</g>
<!-- Node3&#45;&gt;Node33 -->
<g id="edge25_Node000003_Node000033" class="edge">
<title>Node3&#45;&gt;Node33</title>
<g id="a_edge25_Node000003_Node000033"><a xlink:title=" ">
<path fill="none" stroke="#63b8ff" d="M349.1,-1020.46C347.33,-1067.61 346.51,-1262.57 447,-1364 450.15,-1367.18 453.79,-1369.83 457.71,-1372.05"/>
<polygon fill="#63b8ff" stroke="#63b8ff" points="455.99,-1375.11 466.54,-1376.08 458.9,-1368.75 455.99,-1375.11"/>
</a>
</g>
</g>
<!-- Node34 -->
<g id="Node000034" class="node">
<title>Node34</title>
<g id="a_Node000034"><a xlink:href="radio_8cpp.html#a610ddc33ff0f6388cea252fb357dc990" target="_top" xlink:title=" ">
<polygon fill="white" stroke="#666666" points="562.75,-1355 466.5,-1355 466.5,-1323 562.75,-1323 562.75,-1355"/>
<text text-anchor="start" x="474.5" y="-1341.5" font-family="Helvetica,sans-Serif" font-size="10.00">radio_set_transmit</text>
<text text-anchor="middle" x="514.62" y="-1329.5" font-family="Helvetica,sans-Serif" font-size="10.00">_power</text>
</a>
</g>
</g>
<!-- Node3&#45;&gt;Node34 -->
<g id="edge26_Node000003_Node000034" class="edge">
<title>Node3&#45;&gt;Node34</title>
<g id="a_edge26_Node000003_Node000034"><a xlink:title=" ">
<path fill="none" stroke="#63b8ff" d="M349.84,-1020.23C351.29,-1062.46 362.35,-1225.1 447,-1314 449.77,-1316.91 452.91,-1319.48 456.28,-1321.75"/>
<polygon fill="#63b8ff" stroke="#63b8ff" points="454.53,-1324.78 464.95,-1326.66 457.97,-1318.69 454.53,-1324.78"/>
</a>
</g>
</g>
<!-- Node35 -->
<g id="Node000035" class="node">
<title>Node35</title>
<g id="a_Node000035"><a xlink:href="steve_8c.html#acc0bfad0acf234b4903c832955b29767" target="_top" xlink:title=" ">
<polygon fill="#fff0f0" stroke="red" points="580,-647 449.25,-647 449.25,-627 580,-627 580,-647"/>
<text text-anchor="middle" x="514.62" y="-633.5" font-family="Helvetica,sans-Serif" font-size="10.00">schedule_delayed_job_ms</text>
</a>
</g>
</g>
<!-- Node3&#45;&gt;Node35 -->
<g id="edge27_Node000003_Node000035" class="edge">
<title>Node3&#45;&gt;Node35</title>
<g id="a_edge27_Node000003_Node000035"><a xlink:title=" ">
<path fill="none" stroke="#63b8ff" d="M349.1,-999.54C347.33,-952.39 346.51,-757.43 447,-656 447.74,-655.25 448.51,-654.53 449.3,-653.84"/>
<polygon fill="#63b8ff" stroke="#63b8ff" points="451.09,-656.86 457.36,-648.31 447.13,-651.09 451.09,-656.86"/>
</a>
</g>
</g>
<!-- Node37 -->
<g id="Node000037" class="node">
<title>Node37</title>
<g id="a_Node000037"><a xlink:href="set__rtc__job_8c.html#af31d3e6e7b984cd9aca01db95eac999a" target="_top" xlink:title=" ">
<polygon fill="#fff0f0" stroke="red" points="546.62,-1305 482.62,-1305 482.62,-1285 546.62,-1285 546.62,-1305"/>
<text text-anchor="middle" x="514.62" y="-1291.5" font-family="Helvetica,sans-Serif" font-size="10.00">set_rtc_job</text>
</a>
</g>
</g>
<!-- Node3&#45;&gt;Node37 -->
<g id="edge31_Node000003_Node000037" class="edge">
<title>Node3&#45;&gt;Node37</title>
<g id="a_edge31_Node000003_Node000037"><a xlink:title=" ">
<path fill="none" stroke="#63b8ff" d="M350.2,-1020.47C352.94,-1060.14 368.11,-1202.68 447,-1276 453.83,-1282.35 462.63,-1286.59 471.58,-1289.42"/>
<polygon fill="#63b8ff" stroke="#63b8ff" points="470.43,-1292.74 480.98,-1291.85 472.17,-1285.96 470.43,-1292.74"/>
</a>
</g>
</g>
<!-- Node40 -->
<g id="Node000040" class="node">
<title>Node40</title>
<g id="a_Node000040"><a xlink:href="filesystem_8c.html#a1038e83eda006a16d81aba0bda5c3334" target="_top" xlink:title=" ">
<polygon fill="white" stroke="#666666" points="679.62,-1115 639.62,-1115 639.62,-1095 679.62,-1095 679.62,-1115"/>
<text text-anchor="middle" x="659.62" y="-1101.5" font-family="Helvetica,sans-Serif" font-size="10.00">touch</text>
</a>
</g>
</g>
<!-- Node3&#45;&gt;Node40 -->
<g id="edge32_Node000003_Node000040" class="edge">
<title>Node3&#45;&gt;Node40</title>
<g id="a_edge32_Node000003_Node000040"><a xlink:title=" ">
<path fill="none" stroke="#63b8ff" d="M358.9,-1020.38C374.94,-1037.51 409.7,-1071.27 447,-1086 507.74,-1109.99 585.67,-1109.89 627.97,-1107.54"/>
<polygon fill="#63b8ff" stroke="#63b8ff" points="628.14,-1111.04 637.9,-1106.9 627.69,-1104.05 628.14,-1111.04"/>
</a>
</g>
</g>
<!-- Node41 -->
<g id="Node000041" class="node">
<title>Node41</title>
<g id="a_Node000041"><a xlink:href="user__auth_8c.html#acb5e4e390f704ceea798b215f70692d6" target="_top" xlink:title=" ">
<polygon fill="#fff0f0" stroke="red" points="560.88,-1077 468.38,-1077 468.38,-1057 560.88,-1057 560.88,-1077"/>
<text text-anchor="middle" x="514.62" y="-1063.5" font-family="Helvetica,sans-Serif" font-size="10.00">upload_user_data</text>
</a>
</g>
</g>
<!-- Node3&#45;&gt;Node41 -->
<g id="edge34_Node000003_Node000041" class="edge">
<title>Node3&#45;&gt;Node41</title>
<g id="a_edge34_Node000003_Node000041"><a xlink:title=" ">
<path fill="none" stroke="#63b8ff" d="M374.61,-1020.5C394.14,-1028.52 422.06,-1039.6 447,-1048 452.42,-1049.83 458.12,-1051.63 463.82,-1053.35"/>
<polygon fill="#63b8ff" stroke="#63b8ff" points="462.65,-1056.66 473.23,-1056.13 464.63,-1049.94 462.65,-1056.66"/>
</a>
</g>
</g>
<!-- Node45 -->
<g id="Node000045" class="node">
<title>Node45</title>
<g id="a_Node000045"><a xlink:href="watchdog_8c.html#acebf79aaf42978286eec0c3e016d7b0a" target="_top" xlink:title=" ">
<polygon fill="white" stroke="#666666" points="559.75,-1267 469.5,-1267 469.5,-1247 559.75,-1247 559.75,-1267"/>
<text text-anchor="middle" x="514.62" y="-1253.5" font-family="Helvetica,sans-Serif" font-size="10.00">watchdog_freeze</text>
</a>
</g>
</g>
<!-- Node3&#45;&gt;Node45 -->
<g id="edge37_Node000003_Node000045" class="edge">
<title>Node3&#45;&gt;Node45</title>
<g id="a_edge37_Node000003_Node000045"><a xlink:title=" ">
<path fill="none" stroke="#63b8ff" d="M351.13,-1020.06C356.86,-1054.76 380.38,-1170.64 447,-1233 450.63,-1236.4 454.78,-1239.33 459.19,-1241.84"/>
<polygon fill="#63b8ff" stroke="#63b8ff" points="457.29,-1244.81 467.81,-1246.05 460.36,-1238.52 457.29,-1244.81"/>
</a>
</g>
</g>
<!-- Node4&#45;&gt;Node11 -->
<g id="edge4_Node000004_Node000011" class="edge">
<title>Node4&#45;&gt;Node11</title>
<g id="a_edge4_Node000004_Node000011"><a xlink:title=" ">
<path fill="none" stroke="#63b8ff" d="M542.86,-1188.24C564.83,-1194.07 595.98,-1202.35 620.44,-1208.85"/>
<polygon fill="#63b8ff" stroke="#63b8ff" points="619.47,-1212.22 630.03,-1211.4 621.26,-1205.45 619.47,-1212.22"/>
</a>
</g>
</g>
<!-- Node4&#45;&gt;Node12 -->
<g id="edge5_Node000004_Node000012" class="edge">
<title>Node4&#45;&gt;Node12</title>
<g id="a_edge5_Node000004_Node000012"><a xlink:title=" ">
<path fill="none" stroke="#63b8ff" d="M542.98,-1180.48C579.74,-1179.11 646.71,-1174.23 701,-1157 713.76,-1152.95 727,-1146.36 737.99,-1140.12"/>
<polygon fill="#63b8ff" stroke="#63b8ff" points="739.62,-1143.23 746.45,-1135.12 736.06,-1137.2 739.62,-1143.23"/>
</a>
</g>
</g>
<!-- Node18&#45;&gt;Node17 -->
<g id="edge9_Node000018_Node000017" class="edge">
<title>Node18&#45;&gt;Node17</title>
<g id="a_edge9_Node000018_Node000017"><a xlink:title=" ">
<path fill="none" stroke="#63b8ff" d="M548.07,-961.62C568.84,-967.14 595.96,-974.35 618.14,-980.24"/>
<polygon fill="#63b8ff" stroke="#63b8ff" points="617.2,-983.61 627.76,-982.8 618.99,-976.85 617.2,-983.61"/>
</a>
</g>
</g>
<!-- Node18&#45;&gt;Node20 -->
<g id="edge10_Node000018_Node000020" class="edge">
<title>Node18&#45;&gt;Node20</title>
<g id="a_edge10_Node000018_Node000020"><a xlink:title=" ">
<path fill="none" stroke="#63b8ff" d="M548.07,-948.69C571.23,-945.61 602.27,-941.49 625.56,-938.39"/>
<polygon fill="#63b8ff" stroke="#63b8ff" points="626.01,-941.86 635.46,-937.08 625.08,-934.93 626.01,-941.86"/>
</a>
</g>
</g>
<!-- Node21&#45;&gt;Node22 -->
<g id="edge12_Node000021_Node000022" class="edge">
<title>Node21&#45;&gt;Node22</title>
<g id="a_edge12_Node000021_Node000022"><a xlink:title=" ">
<path fill="none" stroke="#63b8ff" d="M580.01,-847.56C589.6,-848.83 599.37,-850.13 608.6,-851.35"/>
<polygon fill="#63b8ff" stroke="#63b8ff" points="608.09,-854.82 618.47,-852.66 609.02,-847.88 608.09,-854.82"/>
</a>
</g>
</g>
<!-- Node23 -->
<g id="Node000023" class="node">
<title>Node23</title>
<g id="a_Node000023"><a xlink:href="timing_8c.html#aca6ceb66dd9a31e6376e1bc478dec3d6" target="_top" xlink:title=" ">
<polygon fill="white" stroke="#666666" points="694.25,-647 625,-647 625,-627 694.25,-627 694.25,-647"/>
<text text-anchor="middle" x="659.62" y="-633.5" font-family="Helvetica,sans-Serif" font-size="10.00">ms_to_ticks</text>
</a>
</g>
</g>
<!-- Node21&#45;&gt;Node23 -->
<g id="edge13_Node000021_Node000023" class="edge">
<title>Node21&#45;&gt;Node23</title>
<g id="a_edge13_Node000021_Node000023"><a xlink:title=" ">
<path fill="none" stroke="#63b8ff" d="M569.21,-828.56C573.94,-826.25 578.38,-823.44 582.25,-820 585.49,-817.12 630.92,-705.48 650.13,-658.01"/>
<polygon fill="#63b8ff" stroke="#63b8ff" points="653.34,-659.41 653.85,-648.83 646.85,-656.79 653.34,-659.41"/>
</a>
</g>
</g>
<!-- Node25&#45;&gt;Node15 -->
<g id="edge17_Node000025_Node000015" class="edge">
<title>Node25&#45;&gt;Node15</title>
<g id="a_edge17_Node000025_Node000015"><a xlink:title=" ">
<path fill="none" stroke="#63b8ff" d="M553.4,-790.5C562.84,-787.8 572.93,-784.85 582.25,-782 593.46,-778.57 605.53,-774.7 616.7,-771.05"/>
<polygon fill="#63b8ff" stroke="#63b8ff" points="617.66,-774.42 626.06,-767.96 615.47,-767.77 617.66,-774.42"/>
</a>
</g>
</g>
<!-- Node29 -->
<g id="Node000029" class="node">
<title>Node29</title>
<g id="a_Node000029"><a xlink:href="timing_8c.html#a7cef17ffb0e9db503a077191e1a4b013" target="_top" xlink:title=" ">
<polygon fill="white" stroke="#666666" points="691.62,-533 627.62,-533 627.62,-513 691.62,-513 691.62,-533"/>
<text text-anchor="middle" x="659.62" y="-519.5" font-family="Helvetica,sans-Serif" font-size="10.00">get_uptime</text>
</a>
</g>
</g>
<!-- Node28&#45;&gt;Node29 -->
<g id="edge23_Node000028_Node000029" class="edge">
<title>Node28&#45;&gt;Node29</title>
<g id="a_edge23_Node000028_Node000029"><a xlink:title=" ">
<path fill="none" stroke="#63b8ff" d="M555.08,-550.52C574.15,-545.45 597.06,-539.36 616.48,-534.2"/>
<polygon fill="#63b8ff" stroke="#63b8ff" points="617.22,-537.62 625.99,-531.67 615.42,-530.86 617.22,-537.62"/>
</a>
</g>
</g>
<!-- Node35&#45;&gt;Node23 -->
<g id="edge29_Node000035_Node000023" class="edge">
<title>Node35&#45;&gt;Node23</title>
<g id="a_edge29_Node000035_Node000023"><a xlink:title=" ">
<path fill="none" stroke="#63b8ff" d="M580.43,-637C591.49,-637 602.77,-637 613.19,-637"/>
<polygon fill="#63b8ff" stroke="#63b8ff" points="613.02,-640.5 623.02,-637 613.02,-633.5 613.02,-640.5"/>
</a>
</g>
</g>
<!-- Node35&#45;&gt;Node29 -->
<g id="edge28_Node000035_Node000029" class="edge">
<title>Node35&#45;&gt;Node29</title>
<g id="a_edge28_Node000035_Node000029"><a xlink:title=" ">
<path fill="none" stroke="#63b8ff" d="M528.32,-626.88C552.74,-607.41 606.54,-564.52 636.82,-540.38"/>
<polygon fill="#63b8ff" stroke="#63b8ff" points="638.94,-543.17 644.57,-534.2 634.57,-537.7 638.94,-543.17"/>
</a>
</g>
</g>
<!-- Node40&#45;&gt;Node12 -->
<g id="edge33_Node000040_Node000012" class="edge">
<title>Node40&#45;&gt;Node12</title>
<g id="a_edge33_Node000040_Node000012"><a xlink:title=" ">
<path fill="none" stroke="#63b8ff" d="M679.98,-1108.57C692.9,-1110.96 710.33,-1114.18 725.92,-1117.06"/>
<polygon fill="#63b8ff" stroke="#63b8ff" points="724.9,-1120.43 735.37,-1118.81 726.17,-1113.55 724.9,-1120.43"/>
</a>
</g>
</g>
<!-- Node41&#45;&gt;Node12 -->
<g id="edge36_Node000041_Node000012" class="edge">
<title>Node41&#45;&gt;Node12</title>
<g id="a_edge36_Node000041_Node000012"><a xlink:title=" ">
<path fill="none" stroke="#63b8ff" d="M560.99,-1066.12C599.26,-1066.67 655,-1070.54 701,-1086 715.34,-1090.82 729.86,-1099.38 741.3,-1107.16"/>
<polygon fill="#63b8ff" stroke="#63b8ff" points="739.06,-1109.86 749.24,-1112.8 743.11,-1104.15 739.06,-1109.86"/>
</a>
</g>
</g>
<!-- Node41&#45;&gt;Node40 -->
<g id="edge35_Node000041_Node000040" class="edge">
<title>Node41&#45;&gt;Node40</title>
<g id="a_edge35_Node000041_Node000040"><a xlink:title=" ">
<path fill="none" stroke="#63b8ff" d="M555.08,-1077.48C578.24,-1083.64 607.05,-1091.29 628.4,-1096.97"/>
<polygon fill="#63b8ff" stroke="#63b8ff" points="627.38,-1100.32 637.94,-1099.5 629.18,-1093.55 627.38,-1100.32"/>
</a>
</g>
</g>
<!-- Node47 -->
<g id="Node000047" class="node">
<title>Node47</title>
<g id="a_Node000047"><a xlink:href="filesystem_8c.html#a65a8bfbf26326e7b6dfd677f9b4ad626" target="_top" xlink:title=" ">
<polygon fill="white" stroke="#666666" points="373.88,-248 323.38,-248 323.38,-228 373.88,-228 373.88,-248"/>
<text text-anchor="middle" x="348.62" y="-234.5" font-family="Helvetica,sans-Serif" font-size="10.00">_fdelete</text>
</a>
</g>
</g>
<!-- Node46&#45;&gt;Node47 -->
<g id="edge40_Node000046_Node000047" class="edge">
<title>Node46&#45;&gt;Node47</title>
<g id="a_edge40_Node000046_Node000047"><a xlink:title=" ">
<path fill="none" stroke="#63b8ff" d="M227.8,-284.62C243.26,-276.45 265.78,-265.13 286.25,-257 294.54,-253.71 303.64,-250.62 312.23,-247.93"/>
<polygon fill="#63b8ff" stroke="#63b8ff" points="313.12,-251.31 321.68,-245.07 311.09,-244.61 313.12,-251.31"/>
</a>
</g>
</g>
<!-- Node48 -->
<g id="Node000048" class="node">
<title>Node48</title>
<g id="a_Node000048"><a xlink:href="filesystem_8c.html#a1dbe64362d5ac8a72c84181d6ec09bd0" target="_top" xlink:title=" ">
<polygon fill="white" stroke="#666666" points="376.5,-210 320.75,-210 320.75,-190 376.5,-190 376.5,-210"/>
<text text-anchor="middle" x="348.62" y="-196.5" font-family="Helvetica,sans-Serif" font-size="10.00">_fdiropen</text>
</a>
</g>
</g>
<!-- Node46&#45;&gt;Node48 -->
<g id="edge41_Node000046_Node000048" class="edge">
<title>Node46&#45;&gt;Node48</title>
<g id="a_edge41_Node000046_Node000048"><a xlink:title=" ">
<path fill="none" stroke="#63b8ff" d="M216.63,-284.56C229.46,-268.25 256.47,-236.77 286.25,-219 293.43,-214.72 301.66,-211.31 309.72,-208.64"/>
<polygon fill="#63b8ff" stroke="#63b8ff" points="310.45,-212.08 319.03,-205.87 308.45,-205.37 310.45,-212.08"/>
</a>
</g>
</g>
<!-- Node49 -->
<g id="Node000049" class="node">
<title>Node49</title>
<g id="a_Node000049"><a xlink:href="filesystem_8c.html#a6256d8a7a46cd729effd6739faded687" target="_top" xlink:title=" ">
<polygon fill="white" stroke="#666666" points="375.38,-172 321.88,-172 321.88,-152 375.38,-152 375.38,-172"/>
<text text-anchor="middle" x="348.62" y="-158.5" font-family="Helvetica,sans-Serif" font-size="10.00">_fdirread</text>
</a>
</g>
</g>
<!-- Node46&#45;&gt;Node49 -->
<g id="edge42_Node000046_Node000049" class="edge">
<title>Node46&#45;&gt;Node49</title>
<g id="a_edge42_Node000046_Node000049"><a xlink:title=" ">
<path fill="none" stroke="#63b8ff" d="M212.87,-284.77C222.37,-262.5 247.96,-209.33 286.25,-181 293.42,-175.7 302.1,-171.85 310.64,-169.07"/>
<polygon fill="#63b8ff" stroke="#63b8ff" points="311.51,-172.46 320.21,-166.41 309.63,-165.72 311.51,-172.46"/>
</a>
</g>
</g>
<!-- Node50 -->
<g id="Node000050" class="node">
<title>Node50</title>
<g id="a_Node000050"><a xlink:href="filesystem_8c.html#a242db63f134c45189c12dc9e46c6b90d" target="_top" xlink:title=" ">
<polygon fill="white" stroke="#666666" points="367.12,-476 330.12,-476 330.12,-456 367.12,-456 367.12,-476"/>
<text text-anchor="middle" x="348.62" y="-462.5" font-family="Helvetica,sans-Serif" font-size="10.00">_flist</text>
</a>
</g>
</g>
<!-- Node46&#45;&gt;Node50 -->
<g id="edge43_Node000046_Node000050" class="edge">
<title>Node46&#45;&gt;Node50</title>
<g id="a_edge43_Node000046_Node000050"><a xlink:title=" ">
<path fill="none" stroke="#63b8ff" d="M211.03,-305.23C217.62,-332.5 239.34,-407.51 286.25,-447 295.37,-454.68 307.57,-459.26 318.69,-461.99"/>
<polygon fill="#63b8ff" stroke="#63b8ff" points="317.74,-465.36 328.23,-463.91 319.12,-458.5 317.74,-465.36"/>
</a>
</g>
</g>
<!-- Node51 -->
<g id="Node000051" class="node">
<title>Node51</title>
<g id="a_Node000051"><a xlink:href="filesystem_8c.html#a0332aeda2c19ddb31aa4307d37007f98" target="_top" xlink:title=" ">
<polygon fill="white" stroke="#666666" points="372.75,-438 324.5,-438 324.5,-418 372.75,-418 372.75,-438"/>
<text text-anchor="middle" x="348.62" y="-424.5" font-family="Helvetica,sans-Serif" font-size="10.00">_fmkdir</text>
</a>
</g>
</g>
<!-- Node46&#45;&gt;Node51 -->
<g id="edge44_Node000046_Node000051" class="edge">
<title>Node46&#45;&gt;Node51</title>
<g id="a_edge44_Node000046_Node000051"><a xlink:title=" ">
<path fill="none" stroke="#63b8ff" d="M212.87,-305.23C222.37,-327.5 247.96,-380.67 286.25,-409 294.09,-414.8 303.74,-418.86 313.04,-421.68"/>
<polygon fill="#63b8ff" stroke="#63b8ff" points="312.05,-425.04 322.61,-424.17 313.81,-418.26 312.05,-425.04"/>
</a>
</g>
</g>
<!-- Node52 -->
<g id="Node000052" class="node">
<title>Node52</title>
<g id="a_Node000052"><a xlink:href="filesystem_8c.html#ab4f728372ea55ba4c14531514e913814" target="_top" xlink:title=" ">
<polygon fill="white" stroke="#666666" points="370.12,-400 327.12,-400 327.12,-380 370.12,-380 370.12,-400"/>
<text text-anchor="middle" x="348.62" y="-386.5" font-family="Helvetica,sans-Serif" font-size="10.00">_fread</text>
</a>
</g>
</g>
<!-- Node46&#45;&gt;Node52 -->
<g id="edge45_Node000046_Node000052" class="edge">
<title>Node46&#45;&gt;Node52</title>
<g id="a_edge45_Node000046_Node000052"><a xlink:title=" ">
<path fill="none" stroke="#63b8ff" d="M216.63,-305.44C229.46,-321.75 256.47,-353.23 286.25,-371 295.2,-376.34 305.79,-380.31 315.64,-383.21"/>
<polygon fill="#63b8ff" stroke="#63b8ff" points="314.68,-386.57 325.24,-385.74 316.46,-379.8 314.68,-386.57"/>
</a>
</g>
</g>
<!-- Node53 -->
<g id="Node000053" class="node">
<title>Node53</title>
<g id="a_Node000053"><a xlink:href="filesystem_8c.html#a84409cd08ad5f1532a9908bcb106ffd9" target="_top" xlink:title=" ">
<polygon fill="white" stroke="#666666" points="369,-362 328.25,-362 328.25,-342 369,-342 369,-362"/>
<text text-anchor="middle" x="348.62" y="-348.5" font-family="Helvetica,sans-Serif" font-size="10.00">_fstat</text>
</a>
</g>
</g>
<!-- Node46&#45;&gt;Node53 -->
<g id="edge46_Node000046_Node000053" class="edge">
<title>Node46&#45;&gt;Node53</title>
<g id="a_edge46_Node000046_Node000053"><a xlink:title=" ">
<path fill="none" stroke="#63b8ff" d="M227.8,-305.38C243.26,-313.55 265.78,-324.87 286.25,-333 296.09,-336.91 307.06,-340.53 316.98,-343.54"/>
<polygon fill="#63b8ff" stroke="#63b8ff" points="315.97,-346.89 326.55,-346.34 317.94,-340.17 315.97,-346.89"/>
</a>
</g>
</g>
<!-- Node54 -->
<g id="Node000054" class="node">
<title>Node54</title>
<g id="a_Node000054"><a xlink:href="filesystem_8c.html#a20490ef1d54401f12085f7a9bfbb2c13" target="_top" xlink:title=" ">
<polygon fill="white" stroke="#666666" points="371.25,-324 326,-324 326,-304 371.25,-304 371.25,-324"/>
<text text-anchor="middle" x="348.62" y="-310.5" font-family="Helvetica,sans-Serif" font-size="10.00">_fwrite</text>
</a>
</g>
</g>
<!-- Node46&#45;&gt;Node54 -->
<g id="edge47_Node000046_Node000054" class="edge">
<title>Node46&#45;&gt;Node54</title>
<g id="a_edge47_Node000046_Node000054"><a xlink:title=" ">
<path fill="none" stroke="#63b8ff" d="M250.42,-300.7C270.93,-303.51 295.31,-306.84 314.52,-309.47"/>
<polygon fill="#63b8ff" stroke="#63b8ff" points="313.86,-312.91 324.24,-310.8 314.8,-305.98 313.86,-312.91"/>
</a>
</g>
</g>
<!-- Node55 -->
<g id="Node000055" class="node">
<title>Node55</title>
<g id="a_Node000055"><a xlink:href="filesystem_8c.html#a7ea79e37cd85f3400dd530c48032329e" target="_top" xlink:title=" ">
<polygon fill="white" stroke="#666666" points="370.12,-286 327.12,-286 327.12,-266 370.12,-266 370.12,-286"/>
<text text-anchor="middle" x="348.62" y="-272.5" font-family="Helvetica,sans-Serif" font-size="10.00">_mkfs</text>
</a>
</g>
</g>
<!-- Node46&#45;&gt;Node55 -->
<g id="edge48_Node000046_Node000055" class="edge">
<title>Node46&#45;&gt;Node55</title>
<g id="a_edge48_Node000046_Node000055"><a xlink:title=" ">
<path fill="none" stroke="#63b8ff" d="M250.42,-289.3C271.32,-286.44 296.25,-283.03 315.63,-280.38"/>
<polygon fill="#63b8ff" stroke="#63b8ff" points="315.96,-283.86 325.4,-279.04 315.01,-276.93 315.96,-283.86"/>
</a>
</g>
</g>
<!-- Node57 -->
<g id="Node000057" class="node">
<title>Node57</title>
<g id="a_Node000057"><a xlink:href="command_8c.html#ac090b79f5dfeeaa73978dc9df75fe1a0" target="_top" xlink:title=" ">
<polygon fill="white" stroke="#666666" points="411,-134 286.25,-134 286.25,-114 411,-114 411,-134"/>
<text text-anchor="middle" x="348.62" y="-120.5" font-family="Helvetica,sans-Serif" font-size="10.00">receive_command_bytes</text>
</a>
</g>
</g>
<!-- Node56&#45;&gt;Node57 -->
<g id="edge50_Node000056_Node000057" class="edge">
<title>Node56&#45;&gt;Node57</title>
<g id="a_edge50_Node000056_Node000057"><a xlink:title=" ">
<path fill="none" stroke="#63b8ff" d="M241.66,-152.99C258.55,-148.37 279.46,-142.65 298.23,-137.52"/>
<polygon fill="#63b8ff" stroke="#63b8ff" points="299.11,-140.9 307.83,-134.89 297.26,-134.15 299.11,-140.9"/>
</a>
</g>
</g>
<!-- Node58 -->
<g id="Node000058" class="node">
<title>Node58</title>
<g id="a_Node000058"><a xlink:href="command_8c.html#a4f5fb387e54e9f86c0201fff500341a7" target="_top" xlink:title=" ">
<polygon fill="white" stroke="#666666" points="574.38,-134 454.88,-134 454.88,-114 574.38,-114 574.38,-134"/>
<text text-anchor="middle" x="514.62" y="-120.5" font-family="Helvetica,sans-Serif" font-size="10.00">receive_command_byte</text>
</a>
</g>
</g>
<!-- Node57&#45;&gt;Node58 -->
<g id="edge51_Node000057_Node000058" class="edge">
<title>Node57&#45;&gt;Node58</title>
<g id="a_edge51_Node000057_Node000058"><a xlink:title=" ">
<path fill="none" stroke="#63b8ff" d="M411.16,-124C421.57,-124 432.45,-124 443.08,-124"/>
<polygon fill="#63b8ff" stroke="#63b8ff" points="442.95,-127.5 452.95,-124 442.95,-120.5 442.95,-127.5"/>
</a>
</g>
</g>
<!-- Node59&#45;&gt;Node23 -->
<g id="edge56_Node000059_Node000023" class="edge">
<title>Node59&#45;&gt;Node23</title>
<g id="a_edge56_Node000059_Node000023"><a xlink:title=" ">
<path fill="none" stroke="#63b8ff" d="M360.02,-514.47C376.84,-530.83 411.69,-562.38 447,-580 461.96,-587.47 556.15,-611.55 613.72,-625.92"/>
<polygon fill="#63b8ff" stroke="#63b8ff" points="612.69,-629.27 623.24,-628.29 614.38,-622.47 612.69,-629.27"/>
</a>
</g>
</g>
<!-- Node59&#45;&gt;Node29 -->
<g id="edge54_Node000059_Node000029" class="edge">
<title>Node59&#45;&gt;Node29</title>
<g id="a_edge54_Node000059_Node000029"><a xlink:title=" ">
<path fill="none" stroke="#63b8ff" d="M380.93,-495.53C390.7,-492.57 401.42,-488.97 411,-485 427.71,-478.07 429.44,-470.35 447,-466 505.35,-451.55 525.2,-447.06 582.25,-466 605.4,-473.69 627.21,-491.42 641.55,-505.08"/>
<polygon fill="#63b8ff" stroke="#63b8ff" points="638.82,-507.3 648.39,-511.87 643.76,-502.34 638.82,-507.3"/>
</a>
</g>
</g>
<!-- Node60 -->
<g id="Node000060" class="node">
<title>Node60</title>
<g id="a_Node000060"><a xlink:href="i2c_8c.html#a5d09de7ed47b30c0948eb1f363cb836c" target="_top" xlink:title=" ">
<polygon fill="white" stroke="#666666" points="547.38,-533 481.88,-533 481.88,-513 547.38,-513 547.38,-533"/>
<text text-anchor="middle" x="514.62" y="-519.5" font-family="Helvetica,sans-Serif" font-size="10.00">config_i2c1</text>
</a>
</g>
</g>
<!-- Node59&#45;&gt;Node60 -->
<g id="edge53_Node000059_Node000060" class="edge">
<title>Node59&#45;&gt;Node60</title>
<g id="a_edge53_Node000059_Node000060"><a xlink:title=" ">
<path fill="none" stroke="#63b8ff" d="M380.86,-507.62C406.18,-510.55 442.15,-514.72 470.26,-517.98"/>
<polygon fill="#63b8ff" stroke="#63b8ff" points="469.55,-521.42 479.88,-519.09 470.35,-514.46 469.55,-521.42"/>
</a>
</g>
</g>
<!-- Node61 -->
<g id="Node000061" class="node">
<title>Node61</title>
<g id="a_Node000061"><a xlink:href="steve_8c.html#a7eb0cd293c468c08d67c90a8ace5448c" target="_top" xlink:title=" ">
<polygon fill="#fff0f0" stroke="red" points="554.88,-419 474.38,-419 474.38,-399 554.88,-399 554.88,-419"/>
<text text-anchor="middle" x="514.62" y="-405.5" font-family="Helvetica,sans-Serif" font-size="10.00">initialize_steve</text>
</a>
</g>
</g>
<!-- Node59&#45;&gt;Node61 -->
<g id="edge55_Node000059_Node000061" class="edge">
<title>Node59&#45;&gt;Node61</title>
<g id="a_edge55_Node000059_Node000061"><a xlink:title=" ">
<path fill="none" stroke="#63b8ff" d="M380.83,-498.61C391.12,-495.76 402.18,-491.46 411,-485 433.67,-468.38 424.72,-450.13 447,-433 452.12,-429.06 457.94,-425.73 463.97,-422.92"/>
<polygon fill="#63b8ff" stroke="#63b8ff" points="464.91,-426.32 472.81,-419.25 462.23,-419.85 464.91,-426.32"/>
</a>
</g>
</g>
<!-- Node91 -->
<g id="Node000091" class="node">
<title>Node91</title>
<g id="a_Node000091"><a xlink:href="steve_8c.html#a42627e02f5c86446dbe0cbbae5f87fe6" target="_top" xlink:title=" ">
<polygon fill="#fff0f0" stroke="red" points="553,-495 476.25,-495 476.25,-475 553,-475 553,-495"/>
<text text-anchor="middle" x="514.62" y="-481.5" font-family="Helvetica,sans-Serif" font-size="10.00">run_steve_job</text>
</a>
</g>
</g>
<!-- Node59&#45;&gt;Node91 -->
<g id="edge57_Node000059_Node000091" class="edge">
<title>Node59&#45;&gt;Node91</title>
<g id="a_edge57_Node000059_Node000091"><a xlink:title=" ">
<path fill="none" stroke="#63b8ff" d="M380.86,-500.38C404.52,-497.64 437.49,-493.82 464.65,-490.67"/>
<polygon fill="#63b8ff" stroke="#63b8ff" points="464.85,-494.17 474.38,-489.55 464.05,-487.22 464.85,-494.17"/>
</a>
</g>
</g>
<!-- Node91&#45;&gt;Node29 -->
<g id="edge58_Node000091_Node000029" class="edge">
<title>Node91&#45;&gt;Node29</title>
<g id="a_edge58_Node000091_Node000029"><a xlink:title=" ">
<path fill="none" stroke="#63b8ff" d="M553.2,-494.98C572.66,-500.16 596.48,-506.49 616.55,-511.82"/>
<polygon fill="#63b8ff" stroke="#63b8ff" points="615.55,-515.17 626.11,-514.36 617.35,-508.41 615.55,-515.17"/>
</a>
</g>
</g>
<!-- Node95 -->
<g id="Node000095" class="node">
<title>Node95</title>
<g id="a_Node000095"><a xlink:href="gse_8c.html#a07a7ef3b41255450f286364cc3668e54" target="_top" xlink:title=" ">
<polygon fill="#fff0f0" stroke="red" points="402.75,-96 294.5,-96 294.5,-76 402.75,-76 402.75,-96"/>
<text text-anchor="middle" x="348.62" y="-82.5" font-family="Helvetica,sans-Serif" font-size="10.00">gse_queue_message</text>
</a>
</g>
</g>
<!-- Node94&#45;&gt;Node95 -->
<g id="edge60_Node000094_Node000095" class="edge">
<title>Node94&#45;&gt;Node95</title>
<g id="a_edge60_Node000094_Node000095"><a xlink:title=" ">
<path fill="none" stroke="#63b8ff" d="M248.17,-86C258.99,-86 271.01,-86 282.85,-86"/>
<polygon fill="#63b8ff" stroke="#63b8ff" points="282.59,-89.5 292.59,-86 282.59,-82.5 282.59,-89.5"/>
</a>
</g>
</g>
<!-- Node97 -->
<g id="Node000097" class="node">
<title>Node97</title>
<g id="a_Node000097"><a xlink:href="test_2unit_2utilities_2log_8c.html#ad6da18174ed9892c214e56bac27bfc7f" target="_top" xlink:title=" ">
<polygon fill="white" stroke="#666666" points="383.25,-58 314,-58 314,-38 383.25,-38 383.25,-58"/>
<text text-anchor="middle" x="348.62" y="-44.5" font-family="Helvetica,sans-Serif" font-size="10.00">print_banner</text>
</a>
</g>
</g>
<!-- Node94&#45;&gt;Node97 -->
<g id="edge61_Node000094_Node000097" class="edge">
<title>Node94&#45;&gt;Node97</title>
<g id="a_edge61_Node000094_Node000097"><a xlink:title=" ">
<path fill="none" stroke="#63b8ff" d="M247.07,-75.52C264.27,-70.81 284.69,-65.22 302.62,-60.32"/>
<polygon fill="#63b8ff" stroke="#63b8ff" points="303.51,-63.7 312.23,-57.68 301.66,-56.95 303.51,-63.7"/>
</a>
</g>
</g>
<!-- Node98 -->
<g id="Node000098" class="node">
<title>Node98</title>
<g id="a_Node000098"><a xlink:href="radio_8cpp.html#af0ecc74e51dbb7c5bdb5d2bfc4a7a0b2" target="_top" xlink:title=" ">
<polygon fill="white" stroke="#666666" points="405.38,-20 291.88,-20 291.88,0 405.38,0 405.38,-20"/>
<text text-anchor="middle" x="348.62" y="-6.5" font-family="Helvetica,sans-Serif" font-size="10.00">radio_queue_message</text>
</a>
</g>
</g>
<!-- Node94&#45;&gt;Node98 -->
<g id="edge62_Node000094_Node000098" class="edge">
<title>Node94&#45;&gt;Node98</title>
<g id="a_edge62_Node000094_Node000098"><a xlink:title=" ">
<path fill="none" stroke="#63b8ff" d="M235.49,-75.6C240.59,-73.11 245.74,-70.23 250.25,-67 269.17,-53.47 266.49,-41.29 286.25,-29 288.65,-27.51 291.18,-26.12 293.79,-24.84"/>
<polygon fill="#63b8ff" stroke="#63b8ff" points="294.94,-28.15 302.74,-20.98 292.17,-21.72 294.94,-28.15"/>
</a>
</g>
</g>
</g>
</svg>
