<?xml version="1.0" encoding="UTF-8" standalone="no"?>
<!DOCTYPE svg PUBLIC "-//W3C//DTD SVG 1.1//EN"
 "http://www.w3.org/Graphics/SVG/1.1/DTD/svg11.dtd">
<!-- Generated by graphviz version 2.43.0 (0)
 -->
<!-- Title: command_fuzzer.cpp Pages: 1 -->
<svg width="1460pt" height="258pt"
 viewBox="0.00 0.00 1459.50 258.00" xmlns="http://www.w3.org/2000/svg" xmlns:xlink="http://www.w3.org/1999/xlink">
<g id="graph0" class="graph" transform="scale(1 1) rotate(0) translate(4 254)">
<title>command_fuzzer.cpp</title>
<!-- Node1 -->
<g id="Node000001" class="node">
<title>Node1</title>
<g id="a_Node000001"><a xlink:title=" ">
<polygon fill="#999999" stroke="#666666" points="844.5,-250 724.5,-250 724.5,-231 844.5,-231 844.5,-250"/>
<text text-anchor="middle" x="784.5" y="-238" font-family="Helvetica,sans-Serif" font-size="10.00">command_fuzzer.cpp</text>
</a>
</g>
</g>
<!-- Node2 -->
<g id="Node000002" class="node">
<title>Node2</title>
<g id="a_Node000002"><a xlink:title=" ">
<polygon fill="#e0e0e0" stroke="#999999" points="47,-189.5 0,-189.5 0,-170.5 47,-170.5 47,-189.5"/>
<text text-anchor="middle" x="23.5" y="-177.5" font-family="Helvetica,sans-Serif" font-size="10.00">fcntl.h</text>
</a>
</g>
</g>
<!-- Node1&#45;&gt;Node2 -->
<g id="edge1_Node000001_Node000002" class="edge">
<title>Node1&#45;&gt;Node2</title>
<g id="a_edge1_Node000001_Node000002"><a xlink:title=" ">
<path fill="none" stroke="#63b8ff" d="M724.32,-238.05C574.44,-234.07 187.49,-221.49 61.5,-195 58.66,-194.4 55.75,-193.64 52.87,-192.77"/>
<polygon fill="#63b8ff" stroke="#63b8ff" points="53.89,-189.42 43.29,-189.53 51.65,-196.05 53.89,-189.42"/>
</a>
</g>
</g>
<!-- Node3 -->
<g id="Node000003" class="node">
<title>Node3</title>
<g id="a_Node000003"><a xlink:title=" ">
<polygon fill="#e0e0e0" stroke="#999999" points="1017.5,-19 955.5,-19 955.5,0 1017.5,0 1017.5,-19"/>
<text text-anchor="middle" x="986.5" y="-7" font-family="Helvetica,sans-Serif" font-size="10.00">stdbool.h</text>
</a>
</g>
</g>
<!-- Node1&#45;&gt;Node3 -->
<g id="edge2_Node000001_Node000003" class="edge">
<title>Node1&#45;&gt;Node3</title>
<g id="a_edge2_Node000001_Node000003"><a xlink:title=" ">
<path fill="none" stroke="#63b8ff" d="M844.56,-238.88C919.22,-236.69 1040.27,-227.99 1068.5,-195 1091.65,-167.94 1026.4,-67.62 998.49,-27.37"/>
<polygon fill="#63b8ff" stroke="#63b8ff" points="1001.31,-25.3 992.71,-19.12 995.58,-29.32 1001.31,-25.3"/>
</a>
</g>
</g>
<!-- Node4 -->
<g id="Node000004" class="node">
<title>Node4</title>
<g id="a_Node000004"><a xlink:title=" ">
<polygon fill="#e0e0e0" stroke="#999999" points="361,-19 308,-19 308,0 361,0 361,-19"/>
<text text-anchor="middle" x="334.5" y="-7" font-family="Helvetica,sans-Serif" font-size="10.00">stdint.h</text>
</a>
</g>
</g>
<!-- Node1&#45;&gt;Node4 -->
<g id="edge3_Node000001_Node000004" class="edge">
<title>Node1&#45;&gt;Node4</title>
<g id="a_edge3_Node000001_Node000004"><a xlink:title=" ">
<path fill="none" stroke="#63b8ff" d="M724.46,-240.2C564.47,-241.45 137.12,-240.45 94.5,-195 21.62,-117.26 214.74,-46.93 298.22,-21.03"/>
<polygon fill="#63b8ff" stroke="#63b8ff" points="299.29,-24.37 307.83,-18.1 297.24,-17.67 299.29,-24.37"/>
</a>
</g>
</g>
<!-- Node5 -->
<g id="Node000005" class="node">
<title>Node5</title>
<g id="a_Node000005"><a xlink:href="stdlib_8h.html" target="_top" xlink:title=" ">
<polygon fill="white" stroke="#666666" points="249,-189.5 196,-189.5 196,-170.5 249,-170.5 249,-189.5"/>
<text text-anchor="middle" x="222.5" y="-177.5" font-family="Helvetica,sans-Serif" font-size="10.00">stdlib.h</text>
</a>
</g>
</g>
<!-- Node1&#45;&gt;Node5 -->
<g id="edge4_Node000001_Node000005" class="edge">
<title>Node1&#45;&gt;Node5</title>
<g id="a_edge4_Node000001_Node000005"><a xlink:title=" ">
<path fill="none" stroke="#63b8ff" d="M724.32,-240.16C625.5,-239.97 423.25,-234.22 257.5,-195 255.19,-194.45 252.83,-193.78 250.48,-193.03"/>
<polygon fill="#63b8ff" stroke="#63b8ff" points="251.65,-189.73 241.06,-189.61 249.26,-196.31 251.65,-189.73"/>
</a>
</g>
</g>
<!-- Node6 -->
<g id="Node000006" class="node">
<title>Node6</title>
<g id="a_Node000006"><a xlink:title=" ">
<polygon fill="#e0e0e0" stroke="#999999" points="320,-189.5 267,-189.5 267,-170.5 320,-170.5 320,-189.5"/>
<text text-anchor="middle" x="293.5" y="-177.5" font-family="Helvetica,sans-Serif" font-size="10.00">string.h</text>
</a>
</g>
</g>
<!-- Node1&#45;&gt;Node6 -->
<g id="edge5_Node000001_Node000006" class="edge">
<title>Node1&#45;&gt;Node6</title>
<g id="a_edge5_Node000001_Node000006"><a xlink:title=" ">
<path fill="none" stroke="#63b8ff" d="M724.38,-238.82C636.49,-236.66 468.27,-228.11 329.5,-195 327.13,-194.44 324.71,-193.75 322.31,-192.99"/>
<polygon fill="#63b8ff" stroke="#63b8ff" points="323.21,-189.6 312.62,-189.55 320.87,-196.19 323.21,-189.6"/>
</a>
</g>
</g>
<!-- Node7 -->
<g id="Node000007" class="node">
<title>Node7</title>
<g id="a_Node000007"><a xlink:title=" ">
<polygon fill="#e0e0e0" stroke="#999999" points="402.5,-189.5 338.5,-189.5 338.5,-170.5 402.5,-170.5 402.5,-189.5"/>
<text text-anchor="middle" x="370.5" y="-177.5" font-family="Helvetica,sans-Serif" font-size="10.00">sys/stat.h</text>
</a>
</g>
</g>
<!-- Node1&#45;&gt;Node7 -->
<g id="edge6_Node000001_Node000007" class="edge">
<title>Node1&#45;&gt;Node7</title>
<g id="a_edge6_Node000001_Node000007"><a xlink:title=" ">
<path fill="none" stroke="#63b8ff" d="M724.41,-236.23C650.13,-231.3 520.24,-219.76 411.5,-195 408.52,-194.32 405.44,-193.5 402.39,-192.61"/>
<polygon fill="#63b8ff" stroke="#63b8ff" points="403.4,-189.26 392.81,-189.57 401.28,-195.93 403.4,-189.26"/>
</a>
</g>
</g>
<!-- Node8 -->
<g id="Node000008" class="node">
<title>Node8</title>
<g id="a_Node000008"><a xlink:title=" ">
<polygon fill="#e0e0e0" stroke="#999999" points="468.5,-189.5 420.5,-189.5 420.5,-170.5 468.5,-170.5 468.5,-189.5"/>
<text text-anchor="middle" x="444.5" y="-177.5" font-family="Helvetica,sans-Serif" font-size="10.00">time.h</text>
</a>
</g>
</g>
<!-- Node1&#45;&gt;Node8 -->
<g id="edge7_Node000001_Node000008" class="edge">
<title>Node1&#45;&gt;Node8</title>
<g id="a_edge7_Node000001_Node000008"><a xlink:title=" ">
<path fill="none" stroke="#63b8ff" d="M724.42,-235.38C661.83,-230.03 561.4,-218.45 477.5,-195 475.61,-194.47 473.69,-193.86 471.77,-193.2"/>
<polygon fill="#63b8ff" stroke="#63b8ff" points="472.94,-189.9 462.35,-189.56 470.42,-196.43 472.94,-189.9"/>
</a>
</g>
</g>
<!-- Node9 -->
<g id="Node000009" class="node">
<title>Node9</title>
<g id="a_Node000009"><a xlink:title=" ">
<polygon fill="#e0e0e0" stroke="#999999" points="542.5,-189.5 486.5,-189.5 486.5,-170.5 542.5,-170.5 542.5,-189.5"/>
<text text-anchor="middle" x="514.5" y="-177.5" font-family="Helvetica,sans-Serif" font-size="10.00">unistd.h</text>
</a>
</g>
</g>
<!-- Node1&#45;&gt;Node9 -->
<g id="edge8_Node000001_Node000009" class="edge">
<title>Node1&#45;&gt;Node9</title>
<g id="a_edge8_Node000001_Node000009"><a xlink:title=" ">
<path fill="none" stroke="#63b8ff" d="M724.46,-230.96C677.01,-223.52 609.36,-211.34 551.5,-195 549.35,-194.39 547.15,-193.72 544.95,-192.99"/>
<polygon fill="#63b8ff" stroke="#63b8ff" points="546.02,-189.66 535.42,-189.64 543.69,-196.26 546.02,-189.66"/>
</a>
</g>
</g>
<!-- Node10 -->
<g id="Node000010" class="node">
<title>Node10</title>
<g id="a_Node000010"><a xlink:title=" ">
<polygon fill="#e0e0e0" stroke="#999999" points="616,-189.5 561,-189.5 561,-170.5 616,-170.5 616,-189.5"/>
<text text-anchor="middle" x="588.5" y="-177.5" font-family="Helvetica,sans-Serif" font-size="10.00">fstream</text>
</a>
</g>
</g>
<!-- Node1&#45;&gt;Node10 -->
<g id="edge9_Node000001_Node000010" class="edge">
<title>Node1&#45;&gt;Node10</title>
<g id="a_edge9_Node000001_Node000010"><a xlink:title=" ">
<path fill="none" stroke="#63b8ff" d="M753.71,-231C722.55,-222.3 673.02,-208.22 630.5,-195 628.21,-194.29 625.85,-193.54 623.48,-192.78"/>
<polygon fill="#63b8ff" stroke="#63b8ff" points="624.36,-189.38 613.77,-189.61 622.18,-196.04 624.36,-189.38"/>
</a>
</g>
</g>
<!-- Node11 -->
<g id="Node000011" class="node">
<title>Node11</title>
<g id="a_Node000011"><a xlink:title=" ">
<polygon fill="#e0e0e0" stroke="#999999" points="1377.5,-19 1305.5,-19 1305.5,0 1377.5,0 1377.5,-19"/>
<text text-anchor="middle" x="1341.5" y="-7" font-family="Helvetica,sans-Serif" font-size="10.00">FreeRTOS.h</text>
</a>
</g>
</g>
<!-- Node1&#45;&gt;Node11 -->
<g id="edge10_Node000001_Node000011" class="edge">
<title>Node1&#45;&gt;Node11</title>
<g id="a_edge10_Node000001_Node000011"><a xlink:title=" ">
<path fill="none" stroke="#63b8ff" d="M844.91,-238.72C977.92,-236.4 1286.95,-227.55 1320.5,-195 1365.8,-151.06 1354.1,-66.44 1346.09,-29.05"/>
<polygon fill="#63b8ff" stroke="#63b8ff" points="1349.44,-28.01 1343.78,-19.05 1342.62,-29.59 1349.44,-28.01"/>
</a>
</g>
</g>
<!-- Node12 -->
<g id="Node000012" class="node">
<title>Node12</title>
<g id="a_Node000012"><a xlink:title=" ">
<polygon fill="#e0e0e0" stroke="#999999" points="762,-189.5 673,-189.5 673,-170.5 762,-170.5 762,-189.5"/>
<text text-anchor="middle" x="717.5" y="-177.5" font-family="Helvetica,sans-Serif" font-size="10.00">command.pb.h</text>
</a>
</g>
</g>
<!-- Node1&#45;&gt;Node12 -->
<g id="edge11_Node000001_Node000012" class="edge">
<title>Node1&#45;&gt;Node12</title>
<g id="a_edge11_Node000001_Node000012"><a xlink:title=" ">
<path fill="none" stroke="#63b8ff" d="M774.61,-230.87C764.22,-221.8 747.66,-207.34 735.05,-196.32"/>
<polygon fill="#63b8ff" stroke="#63b8ff" points="737.26,-193.61 727.43,-189.67 732.66,-198.88 737.26,-193.61"/>
</a>
</g>
</g>
<!-- Node13 -->
<g id="Node000013" class="node">
<title>Node13</title>
<g id="a_Node000013"><a xlink:title=" ">
<polygon fill="#e0e0e0" stroke="#999999" points="925,-195 780,-195 780,-165 925,-165 925,-195"/>
<text text-anchor="start" x="788" y="-183" font-family="Helvetica,sans-Serif" font-size="10.00">google/protobuf/io</text>
<text text-anchor="middle" x="852.5" y="-172" font-family="Helvetica,sans-Serif" font-size="10.00">/zero_copy_stream_impl.h</text>
</a>
</g>
</g>
<!-- Node1&#45;&gt;Node13 -->
<g id="edge12_Node000001_Node000013" class="edge">
<title>Node1&#45;&gt;Node13</title>
<g id="a_edge12_Node000001_Node000013"><a xlink:title=" ">
<path fill="none" stroke="#63b8ff" d="M794.53,-230.87C803.42,-223.22 816.75,-211.76 828.38,-201.75"/>
<polygon fill="#63b8ff" stroke="#63b8ff" points="830.8,-204.29 836.09,-195.11 826.23,-198.98 830.8,-204.29"/>
</a>
</g>
</g>
<!-- Node14 -->
<g id="Node000014" class="node">
<title>Node14</title>
<g id="a_Node000014"><a xlink:title=" ">
<polygon fill="#e0e0e0" stroke="#999999" points="1059.5,-195 943.5,-195 943.5,-165 1059.5,-165 1059.5,-195"/>
<text text-anchor="start" x="951.5" y="-183" font-family="Helvetica,sans-Serif" font-size="10.00">google/protobuf/text</text>
<text text-anchor="middle" x="1001.5" y="-172" font-family="Helvetica,sans-Serif" font-size="10.00">_format.h</text>
</a>
</g>
</g>
<!-- Node1&#45;&gt;Node14 -->
<g id="edge13_Node000001_Node000014" class="edge">
<title>Node1&#45;&gt;Node14</title>
<g id="a_edge13_Node000001_Node000014"><a xlink:title=" ">
<path fill="none" stroke="#63b8ff" d="M816.05,-230.99C848.31,-222.3 899.25,-208.57 939.58,-197.69"/>
<polygon fill="#63b8ff" stroke="#63b8ff" points="940.59,-201.05 949.33,-195.06 938.76,-194.29 940.59,-201.05"/>
</a>
</g>
</g>
<!-- Node15 -->
<g id="Node000015" class="node">
<title>Node15</title>
<g id="a_Node000015"><a xlink:title=" ">
<polygon fill="#e0e0e0" stroke="#999999" points="1451.5,-19 1395.5,-19 1395.5,0 1451.5,0 1451.5,-19"/>
<text text-anchor="middle" x="1423.5" y="-7" font-family="Helvetica,sans-Serif" font-size="10.00">queue.h</text>
</a>
</g>
</g>
<!-- Node1&#45;&gt;Node15 -->
<g id="edge14_Node000001_Node000015" class="edge">
<title>Node1&#45;&gt;Node15</title>
<g id="a_edge14_Node000001_Node000015"><a xlink:title=" ">
<path fill="none" stroke="#63b8ff" d="M844.73,-238.18C986.96,-234.61 1335.06,-223.08 1379.5,-195 1431.83,-161.93 1432.64,-133.84 1448.5,-74 1452.76,-57.94 1444.85,-40.42 1436.82,-27.86"/>
<polygon fill="#63b8ff" stroke="#63b8ff" points="1439.46,-25.52 1430.86,-19.32 1433.72,-29.53 1439.46,-25.52"/>
</a>
</g>
</g>
<!-- Node16 -->
<g id="Node000016" class="node">
<title>Node16</title>
<g id="a_Node000016"><a xlink:title=" ">
<polygon fill="#e0e0e0" stroke="#999999" points="1207,-19 1160,-19 1160,0 1207,0 1207,-19"/>
<text text-anchor="middle" x="1183.5" y="-7" font-family="Helvetica,sans-Serif" font-size="10.00">task.h</text>
</a>
</g>
</g>
<!-- Node1&#45;&gt;Node16 -->
<g id="edge15_Node000001_Node000016" class="edge">
<title>Node1&#45;&gt;Node16</title>
<g id="a_edge15_Node000001_Node000016"><a xlink:title=" ">
<path fill="none" stroke="#63b8ff" d="M844.82,-239.11C930.67,-237.32 1082.3,-229.24 1123.5,-195 1174.21,-152.86 1182.45,-67.29 1183.52,-29.35"/>
<polygon fill="#63b8ff" stroke="#63b8ff" points="1187.02,-29.25 1183.66,-19.2 1180.02,-29.15 1187.02,-29.25"/>
</a>
</g>
</g>
<!-- Node17 -->
<g id="Node000017" class="node">
<title>Node17</title>
<g id="a_Node000017"><a xlink:title=" ">
<polygon fill="#e0e0e0" stroke="#999999" points="663.5,-129 577.5,-129 577.5,-110 663.5,-110 663.5,-129"/>
<text text-anchor="middle" x="620.5" y="-117" font-family="Helvetica,sans-Serif" font-size="10.00">spacepacket.h</text>
</a>
</g>
</g>
<!-- Node1&#45;&gt;Node17 -->
<g id="edge16_Node000001_Node000017" class="edge">
<title>Node1&#45;&gt;Node17</title>
<g id="a_edge16_Node000001_Node000017"><a xlink:title=" ">
<path fill="none" stroke="#63b8ff" d="M739.85,-230.94C715.19,-224.4 685.24,-213.31 663.5,-195 645.7,-180.01 633.63,-155.66 626.92,-138.9"/>
<polygon fill="#63b8ff" stroke="#63b8ff" points="630.06,-137.3 623.27,-129.16 623.5,-139.75 630.06,-137.3"/>
</a>
</g>
</g>
<!-- Node18 -->
<g id="Node000018" class="node">
<title>Node18</title>
<g id="a_Node000018"><a xlink:href="command_8h.html" target="_top" xlink:title="Handles decoding and triggering responses to received commands.">
<polygon fill="white" stroke="#666666" points="177.5,-189.5 103.5,-189.5 103.5,-170.5 177.5,-170.5 177.5,-189.5"/>
<text text-anchor="middle" x="140.5" y="-177.5" font-family="Helvetica,sans-Serif" font-size="10.00">command.h</text>
</a>
</g>
</g>
<!-- Node1&#45;&gt;Node18 -->
<g id="edge17_Node000001_Node000018" class="edge">
<title>Node1&#45;&gt;Node18</title>
<g id="a_edge17_Node000001_Node000018"><a xlink:title=" ">
<path fill="none" stroke="#63b8ff" d="M724.09,-239.4C615.54,-238.24 380.68,-231.31 186.5,-195 182.64,-194.28 178.65,-193.35 174.7,-192.31"/>
<polygon fill="#63b8ff" stroke="#63b8ff" points="175.65,-188.95 165.08,-189.58 173.74,-195.68 175.65,-188.95"/>
</a>
</g>
</g>
<!-- Node20 -->
<g id="Node000020" class="node">
<title>Node20</title>
<g id="a_Node000020"><a xlink:href="filesystem_8h.html" target="_top" xlink:title="Handles file system operations and management.">
<polygon fill="white" stroke="#666666" points="1153,-74 1076,-74 1076,-55 1153,-55 1153,-74"/>
<text text-anchor="middle" x="1114.5" y="-62" font-family="Helvetica,sans-Serif" font-size="10.00">filesystem.h</text>
</a>
</g>
</g>
<!-- Node1&#45;&gt;Node20 -->
<g id="edge32_Node000001_Node000020" class="edge">
<title>Node1&#45;&gt;Node20</title>
<g id="a_edge32_Node000001_Node000020"><a xlink:title=" ">
<path fill="none" stroke="#63b8ff" d="M844.62,-239.57C926.57,-238.28 1067.13,-230.76 1101.5,-195 1129.99,-165.36 1124.55,-112.45 1119.02,-84.31"/>
<polygon fill="#63b8ff" stroke="#63b8ff" points="1122.37,-83.23 1116.82,-74.21 1115.53,-84.73 1122.37,-83.23"/>
</a>
</g>
</g>
<!-- Node24 -->
<g id="Node000024" class="node">
<title>Node24</title>
<g id="a_Node000024"><a xlink:href="gse_8h.html" target="_top" xlink:title="Handles hardline communication over USB.">
<polygon fill="white" stroke="#666666" points="1311,-189.5 1268,-189.5 1268,-170.5 1311,-170.5 1311,-189.5"/>
<text text-anchor="middle" x="1289.5" y="-177.5" font-family="Helvetica,sans-Serif" font-size="10.00">gse.h</text>
</a>
</g>
</g>
<!-- Node1&#45;&gt;Node24 -->
<g id="edge33_Node000001_Node000024" class="edge">
<title>Node1&#45;&gt;Node24</title>
<g id="a_edge33_Node000001_Node000024"><a xlink:title=" ">
<path fill="none" stroke="#63b8ff" d="M844.59,-239.07C934.65,-237.25 1109.45,-229.15 1253.5,-195 1255.87,-194.44 1258.29,-193.76 1260.7,-193"/>
<polygon fill="#63b8ff" stroke="#63b8ff" points="1262.13,-196.2 1270.38,-189.56 1259.79,-189.6 1262.13,-196.2"/>
</a>
</g>
</g>
<!-- Node25 -->
<g id="Node000025" class="node">
<title>Node25</title>
<g id="a_Node000025"><a xlink:href="log_8h.html" target="_top" xlink:title=" ">
<polygon fill="white" stroke="#666666" points="1233,-129 1192,-129 1192,-110 1233,-110 1233,-129"/>
<text text-anchor="middle" x="1212.5" y="-117" font-family="Helvetica,sans-Serif" font-size="10.00">log.h</text>
</a>
</g>
</g>
<!-- Node1&#45;&gt;Node25 -->
<g id="edge34_Node000001_Node000025" class="edge">
<title>Node1&#45;&gt;Node25</title>
<g id="a_edge34_Node000001_Node000025"><a xlink:title=" ">
<path fill="none" stroke="#63b8ff" d="M844.55,-239.69C941.16,-238.86 1125.54,-232.27 1177.5,-195 1195.79,-181.88 1204.82,-156.71 1209.07,-139.27"/>
<polygon fill="#63b8ff" stroke="#63b8ff" points="1212.56,-139.65 1211.21,-129.14 1205.72,-138.2 1212.56,-139.65"/>
</a>
</g>
</g>
<!-- Node26 -->
<g id="Node000026" class="node">
<title>Node26</title>
<g id="a_Node000026"><a xlink:href="telemetry_8h.html" target="_top" xlink:title="Functions for packaging and queuing telemetry packets for sending.">
<polygon fill="white" stroke="#666666" points="1439.5,-74 1367.5,-74 1367.5,-55 1439.5,-55 1439.5,-74"/>
<text text-anchor="middle" x="1403.5" y="-62" font-family="Helvetica,sans-Serif" font-size="10.00">telemetry.h</text>
</a>
</g>
</g>
<!-- Node1&#45;&gt;Node26 -->
<g id="edge41_Node000001_Node000026" class="edge">
<title>Node1&#45;&gt;Node26</title>
<g id="a_edge41_Node000001_Node000026"><a xlink:title=" ">
<path fill="none" stroke="#63b8ff" d="M844.67,-238.38C982.71,-235.3 1313.39,-224.87 1353.5,-195 1388.99,-168.56 1399.29,-113.43 1402.28,-84.36"/>
<polygon fill="#63b8ff" stroke="#63b8ff" points="1405.78,-84.55 1403.13,-74.29 1398.8,-83.96 1405.78,-84.55"/>
</a>
</g>
</g>
<!-- Node27 -->
<g id="Node000027" class="node">
<title>Node27</title>
<g id="a_Node000027"><a xlink:href="steve_8h.html" target="_top" xlink:title="S.T.E.V.E (Scheduler Task for Executing Vital Events)">
<polygon fill="white" stroke="#666666" points="1285,-74 1232,-74 1232,-55 1285,-55 1285,-74"/>
<text text-anchor="middle" x="1258.5" y="-62" font-family="Helvetica,sans-Serif" font-size="10.00">steve.h</text>
</a>
</g>
</g>
<!-- Node1&#45;&gt;Node27 -->
<g id="edge39_Node000001_Node000027" class="edge">
<title>Node1&#45;&gt;Node27</title>
<g id="a_edge39_Node000001_Node000027"><a xlink:title=" ">
<path fill="none" stroke="#63b8ff" d="M844.65,-239.54C945.78,-238.56 1144.52,-231.84 1202.5,-195 1240.65,-170.76 1252.9,-114.19 1256.76,-84.49"/>
<polygon fill="#63b8ff" stroke="#63b8ff" points="1260.28,-84.54 1257.9,-74.22 1253.32,-83.77 1260.28,-84.54"/>
</a>
</g>
</g>
<!-- Node18&#45;&gt;Node4 -->
<g id="edge18_Node000018_Node000004" class="edge">
<title>Node18&#45;&gt;Node4</title>
<g id="a_edge18_Node000018_Node000004"><a xlink:title=" ">
<path fill="none" stroke="#63b8ff" d="M150.39,-170.41C181.38,-143.49 276.96,-60.48 316.79,-25.88"/>
<polygon fill="#63b8ff" stroke="#63b8ff" points="319.15,-28.47 324.4,-19.27 314.56,-23.19 319.15,-28.47"/>
</a>
</g>
</g>
<!-- Node18&#45;&gt;Node17 -->
<g id="edge19_Node000018_Node000017" class="edge">
<title>Node18&#45;&gt;Node17</title>
<g id="a_edge19_Node000018_Node000017"><a xlink:title=" ">
<path fill="none" stroke="#63b8ff" d="M165.58,-170.41C172.31,-168.37 179.63,-166.38 186.5,-165 258.03,-150.59 467.75,-132.66 567.11,-124.68"/>
<polygon fill="#63b8ff" stroke="#63b8ff" points="567.55,-128.15 577.23,-123.87 566.99,-121.17 567.55,-128.15"/>
</a>
</g>
</g>
<!-- Node19 -->
<g id="Node000019" class="node">
<title>Node19</title>
<g id="a_Node000019"><a xlink:href="user__auth_8h.html" target="_top" xlink:title=" ">
<polygon fill="white" stroke="#666666" points="474.5,-129 400.5,-129 400.5,-110 474.5,-110 474.5,-129"/>
<text text-anchor="middle" x="437.5" y="-117" font-family="Helvetica,sans-Serif" font-size="10.00">user_auth.h</text>
</a>
</g>
</g>
<!-- Node18&#45;&gt;Node19 -->
<g id="edge20_Node000018_Node000019" class="edge">
<title>Node18&#45;&gt;Node19</title>
<g id="a_edge20_Node000018_Node000019"><a xlink:title=" ">
<path fill="none" stroke="#63b8ff" d="M166.62,-170.46C173.08,-168.51 180.01,-166.56 186.5,-165 256.76,-148.15 339.48,-134.69 390.2,-127.15"/>
<polygon fill="#63b8ff" stroke="#63b8ff" points="390.83,-130.6 400.21,-125.68 389.81,-123.67 390.83,-130.6"/>
</a>
</g>
</g>
<!-- Node19&#45;&gt;Node3 -->
<g id="edge21_Node000019_Node000003" class="edge">
<title>Node19&#45;&gt;Node3</title>
<g id="a_edge21_Node000019_Node000003"><a xlink:title=" ">
<path fill="none" stroke="#63b8ff" d="M474.8,-111.16C573.73,-91.7 842.25,-38.88 945.39,-18.59"/>
<polygon fill="#63b8ff" stroke="#63b8ff" points="946.28,-21.98 955.42,-16.61 944.93,-15.11 946.28,-21.98"/>
</a>
</g>
</g>
<!-- Node19&#45;&gt;Node4 -->
<g id="edge22_Node000019_Node000004" class="edge">
<title>Node19&#45;&gt;Node4</title>
<g id="a_edge22_Node000019_Node000004"><a xlink:title=" ">
<path fill="none" stroke="#63b8ff" d="M429.07,-109.66C411.71,-91.46 371.74,-49.55 349.73,-26.47"/>
<polygon fill="#63b8ff" stroke="#63b8ff" points="352.19,-23.98 342.76,-19.16 347.13,-28.81 352.19,-23.98"/>
</a>
</g>
</g>
<!-- Node19&#45;&gt;Node20 -->
<g id="edge23_Node000019_Node000020" class="edge">
<title>Node19&#45;&gt;Node20</title>
<g id="a_edge23_Node000019_Node000020"><a xlink:title=" ">
<path fill="none" stroke="#63b8ff" d="M474.86,-115.57C589.59,-106.59 936.78,-79.41 1065.66,-69.32"/>
<polygon fill="#63b8ff" stroke="#63b8ff" points="1066.3,-72.78 1076,-68.51 1065.76,-65.81 1066.3,-72.78"/>
</a>
</g>
</g>
<!-- Node20&#45;&gt;Node3 -->
<g id="edge31_Node000020_Node000003" class="edge">
<title>Node20&#45;&gt;Node3</title>
<g id="a_edge31_Node000020_Node000003"><a xlink:title=" ">
<path fill="none" stroke="#63b8ff" d="M1093.93,-54.98C1073.07,-46.34 1040.53,-32.87 1016.73,-23.02"/>
<polygon fill="#63b8ff" stroke="#63b8ff" points="1018.02,-19.76 1007.44,-19.17 1015.34,-26.23 1018.02,-19.76"/>
</a>
</g>
</g>
<!-- Node20&#45;&gt;Node4 -->
<g id="edge30_Node000020_Node000004" class="edge">
<title>Node20&#45;&gt;Node4</title>
<g id="a_edge30_Node000020_Node000004"><a xlink:title=" ">
<path fill="none" stroke="#63b8ff" d="M1075.82,-60.87C942.32,-51.8 501.93,-21.88 371.32,-13"/>
<polygon fill="#63b8ff" stroke="#63b8ff" points="371.27,-9.49 361.05,-12.3 370.79,-16.47 371.27,-9.49"/>
</a>
</g>
</g>
<!-- Node20&#45;&gt;Node11 -->
<g id="edge24_Node000020_Node000011" class="edge">
<title>Node20&#45;&gt;Node11</title>
<g id="a_edge24_Node000020_Node000011"><a xlink:title=" ">
<path fill="none" stroke="#63b8ff" d="M1150.97,-54.98C1190.3,-45.8 1253,-31.16 1295.65,-21.21"/>
<polygon fill="#63b8ff" stroke="#63b8ff" points="1296.55,-24.59 1305.49,-18.91 1294.96,-17.77 1296.55,-24.59"/>
</a>
</g>
</g>
<!-- Node20&#45;&gt;Node15 -->
<g id="edge25_Node000020_Node000015" class="edge">
<title>Node20&#45;&gt;Node15</title>
<g id="a_edge25_Node000020_Node000015"><a xlink:title=" ">
<path fill="none" stroke="#63b8ff" d="M1153.38,-57.94C1204.38,-50.46 1296.87,-36.31 1385.33,-19.13"/>
<polygon fill="#63b8ff" stroke="#63b8ff" points="1386.12,-22.54 1395.26,-17.18 1384.77,-15.67 1386.12,-22.54"/>
</a>
</g>
</g>
<!-- Node20&#45;&gt;Node16 -->
<g id="edge26_Node000020_Node000016" class="edge">
<title>Node20&#45;&gt;Node16</title>
<g id="a_edge26_Node000020_Node000016"><a xlink:title=" ">
<path fill="none" stroke="#63b8ff" d="M1125.59,-54.98C1135.99,-47 1151.76,-34.88 1164.22,-25.31"/>
<polygon fill="#63b8ff" stroke="#63b8ff" points="1166.41,-28.04 1172.21,-19.17 1162.15,-22.49 1166.41,-28.04"/>
</a>
</g>
</g>
<!-- Node21 -->
<g id="Node000021" class="node">
<title>Node21</title>
<g id="a_Node000021"><a xlink:title=" ">
<polygon fill="#e0e0e0" stroke="#999999" points="1067.5,-19 1035.5,-19 1035.5,0 1067.5,0 1067.5,-19"/>
<text text-anchor="middle" x="1051.5" y="-7" font-family="Helvetica,sans-Serif" font-size="10.00">ff.h</text>
</a>
</g>
</g>
<!-- Node20&#45;&gt;Node21 -->
<g id="edge27_Node000020_Node000021" class="edge">
<title>Node20&#45;&gt;Node21</title>
<g id="a_edge27_Node000020_Node000021"><a xlink:title=" ">
<path fill="none" stroke="#63b8ff" d="M1104.38,-54.98C1095.06,-47.15 1081.03,-35.34 1069.76,-25.86"/>
<polygon fill="#63b8ff" stroke="#63b8ff" points="1071.71,-22.93 1061.81,-19.17 1067.21,-28.29 1071.71,-22.93"/>
</a>
</g>
</g>
<!-- Node22 -->
<g id="Node000022" class="node">
<title>Node22</title>
<g id="a_Node000022"><a xlink:title=" ">
<polygon fill="#e0e0e0" stroke="#999999" points="1287.5,-19 1225.5,-19 1225.5,0 1287.5,0 1287.5,-19"/>
<text text-anchor="middle" x="1256.5" y="-7" font-family="Helvetica,sans-Serif" font-size="10.00">semphr.h</text>
</a>
</g>
</g>
<!-- Node20&#45;&gt;Node22 -->
<g id="edge28_Node000020_Node000022" class="edge">
<title>Node20&#45;&gt;Node22</title>
<g id="a_edge28_Node000020_Node000022"><a xlink:title=" ">
<path fill="none" stroke="#63b8ff" d="M1137.31,-54.98C1160.67,-46.27 1197.2,-32.63 1223.67,-22.75"/>
<polygon fill="#63b8ff" stroke="#63b8ff" points="1225.13,-25.95 1233.27,-19.17 1222.68,-19.39 1225.13,-25.95"/>
</a>
</g>
</g>
<!-- Node23 -->
<g id="Node000023" class="node">
<title>Node23</title>
<g id="a_Node000023"><a xlink:title=" ">
<polygon fill="#e0e0e0" stroke="#999999" points="1141.5,-19 1085.5,-19 1085.5,0 1141.5,0 1141.5,-19"/>
<text text-anchor="middle" x="1113.5" y="-7" font-family="Helvetica,sans-Serif" font-size="10.00">stddef.h</text>
</a>
</g>
</g>
<!-- Node20&#45;&gt;Node23 -->
<g id="edge29_Node000020_Node000023" class="edge">
<title>Node20&#45;&gt;Node23</title>
<g id="a_edge29_Node000020_Node000023"><a xlink:title=" ">
<path fill="none" stroke="#63b8ff" d="M1114.33,-54.75C1114.2,-47.8 1114.02,-37.85 1113.85,-29.13"/>
<polygon fill="#63b8ff" stroke="#63b8ff" points="1117.35,-29.02 1113.66,-19.09 1110.35,-29.15 1117.35,-29.02"/>
</a>
</g>
</g>
<!-- Node25&#45;&gt;Node3 -->
<g id="edge38_Node000025_Node000003" class="edge">
<title>Node25&#45;&gt;Node3</title>
<g id="a_edge38_Node000025_Node000003"><a xlink:title=" ">
<path fill="none" stroke="#63b8ff" d="M1191.73,-114.73C1162.53,-108.87 1108.26,-95.92 1066.5,-74 1042.12,-61.2 1017.89,-40.58 1002.59,-26.32"/>
<polygon fill="#63b8ff" stroke="#63b8ff" points="1004.72,-23.51 995.07,-19.14 999.89,-28.58 1004.72,-23.51"/>
</a>
</g>
</g>
<!-- Node25&#45;&gt;Node26 -->
<g id="edge35_Node000025_Node000026" class="edge">
<title>Node25&#45;&gt;Node26</title>
<g id="a_edge35_Node000025_Node000026"><a xlink:title=" ">
<path fill="none" stroke="#63b8ff" d="M1233.3,-112.73C1264.32,-104.12 1323.29,-87.76 1363,-76.74"/>
<polygon fill="#63b8ff" stroke="#63b8ff" points="1363.96,-80.11 1372.66,-74.06 1362.08,-73.36 1363.96,-80.11"/>
</a>
</g>
</g>
<!-- Node26&#45;&gt;Node11 -->
<g id="edge36_Node000026_Node000011" class="edge">
<title>Node26&#45;&gt;Node11</title>
<g id="a_edge36_Node000026_Node000011"><a xlink:title=" ">
<path fill="none" stroke="#63b8ff" d="M1393.54,-54.98C1384.37,-47.15 1370.56,-35.34 1359.47,-25.86"/>
<polygon fill="#63b8ff" stroke="#63b8ff" points="1361.52,-23.01 1351.64,-19.17 1356.97,-28.33 1361.52,-23.01"/>
</a>
</g>
</g>
<!-- Node26&#45;&gt;Node15 -->
<g id="edge37_Node000026_Node000015" class="edge">
<title>Node26&#45;&gt;Node15</title>
<g id="a_edge37_Node000026_Node000015"><a xlink:title=" ">
<path fill="none" stroke="#63b8ff" d="M1406.8,-54.75C1409.48,-47.65 1413.35,-37.4 1416.69,-28.56"/>
<polygon fill="#63b8ff" stroke="#63b8ff" points="1420,-29.68 1420.26,-19.09 1413.45,-27.21 1420,-29.68"/>
</a>
</g>
</g>
<!-- Node27&#45;&gt;Node22 -->
<g id="edge40_Node000027_Node000022" class="edge">
<title>Node27&#45;&gt;Node22</title>
<g id="a_edge40_Node000027_Node000022"><a xlink:title=" ">
<path fill="none" stroke="#63b8ff" d="M1258.17,-54.75C1257.91,-47.8 1257.53,-37.85 1257.2,-29.13"/>
<polygon fill="#63b8ff" stroke="#63b8ff" points="1260.7,-28.95 1256.82,-19.09 1253.7,-29.21 1260.7,-28.95"/>
</a>
</g>
</g>
</g>
</svg>
