<?xml version="1.0" encoding="UTF-8" standalone="no"?>
<!DOCTYPE svg PUBLIC "-//W3C//DTD SVG 1.1//EN"
 "http://www.w3.org/Graphics/SVG/1.1/DTD/svg11.dtd">
<!-- Generated by graphviz version 2.43.0 (0)
 -->
<!-- Title: command.c Pages: 1 -->
<svg width="1461pt" height="302pt"
 viewBox="0.00 0.00 1461.00 302.00" xmlns="http://www.w3.org/2000/svg" xmlns:xlink="http://www.w3.org/1999/xlink">
<g id="graph0" class="graph" transform="scale(1 1) rotate(0) translate(4 298)">
<title>command.c</title>
<!-- Node1 -->
<g id="Node000001" class="node">
<title>Node1</title>
<g id="a_Node000001"><a xlink:title=" ">
<polygon fill="#999999" stroke="#666666" points="871,-294 797,-294 797,-275 871,-275 871,-294"/>
<text text-anchor="middle" x="834" y="-282" font-family="Helvetica,sans-Serif" font-size="10.00">command.c</text>
</a>
</g>
</g>
<!-- Node2 -->
<g id="Node000002" class="node">
<title>Node2</title>
<g id="a_Node000002"><a xlink:href="stdlib_8h.html" target="_top" xlink:title=" ">
<polygon fill="white" stroke="#666666" points="76,-239 0,-239 0,-220 76,-220 76,-239"/>
<text text-anchor="middle" x="38" y="-227" font-family="Helvetica,sans-Serif" font-size="10.00">pico/stdlib.h</text>
</a>
</g>
</g>
<!-- Node1&#45;&gt;Node2 -->
<g id="edge1_Node000001_Node000002" class="edge">
<title>Node1&#45;&gt;Node2</title>
<g id="a_edge1_Node000001_Node000002"><a xlink:title=" ">
<path fill="none" stroke="#63b8ff" d="M796.84,-282.86C688.75,-280.68 364.97,-271.77 86.47,-239.02"/>
<polygon fill="#63b8ff" stroke="#63b8ff" points="86.51,-235.5 76.16,-237.8 85.68,-242.45 86.51,-235.5"/>
</a>
</g>
</g>
<!-- Node3 -->
<g id="Node000003" class="node">
<title>Node3</title>
<g id="a_Node000003"><a xlink:title=" ">
<polygon fill="#e0e0e0" stroke="#999999" points="147.5,-239 94.5,-239 94.5,-220 147.5,-220 147.5,-239"/>
<text text-anchor="middle" x="121" y="-227" font-family="Helvetica,sans-Serif" font-size="10.00">string.h</text>
</a>
</g>
</g>
<!-- Node1&#45;&gt;Node3 -->
<g id="edge2_Node000001_Node000003" class="edge">
<title>Node1&#45;&gt;Node3</title>
<g id="a_edge2_Node000001_Node000003"><a xlink:title=" ">
<path fill="none" stroke="#63b8ff" d="M796.67,-282.84C694.58,-280.63 402.4,-271.72 162,-239 160.7,-238.82 159.39,-238.63 158.06,-238.42"/>
<polygon fill="#63b8ff" stroke="#63b8ff" points="158.27,-234.91 147.81,-236.61 157.05,-241.8 158.27,-234.91"/>
</a>
</g>
</g>
<!-- Node4 -->
<g id="Node000004" class="node">
<title>Node4</title>
<g id="a_Node000004"><a xlink:title=" ">
<polygon fill="#e0e0e0" stroke="#999999" points="335.5,-19 282.5,-19 282.5,0 335.5,0 335.5,-19"/>
<text text-anchor="middle" x="309" y="-7" font-family="Helvetica,sans-Serif" font-size="10.00">stdint.h</text>
</a>
</g>
</g>
<!-- Node1&#45;&gt;Node4 -->
<g id="edge3_Node000001_Node000004" class="edge">
<title>Node1&#45;&gt;Node4</title>
<g id="a_edge3_Node000001_Node000004"><a xlink:title=" ">
<path fill="none" stroke="#63b8ff" d="M796.74,-281.36C657.54,-272.86 176,-238.88 176,-175.5 176,-175.5 176,-175.5 176,-118.5 176,-68.46 233.44,-37.54 272.83,-22.23"/>
<polygon fill="#63b8ff" stroke="#63b8ff" points="274.25,-25.44 282.41,-18.67 271.81,-18.87 274.25,-25.44"/>
</a>
</g>
</g>
<!-- Node5 -->
<g id="Node000005" class="node">
<title>Node5</title>
<g id="a_Node000005"><a xlink:title=" ">
<polygon fill="#e0e0e0" stroke="#999999" points="562,-19 500,-19 500,0 562,0 562,-19"/>
<text text-anchor="middle" x="531" y="-7" font-family="Helvetica,sans-Serif" font-size="10.00">stdbool.h</text>
</a>
</g>
</g>
<!-- Node1&#45;&gt;Node5 -->
<g id="edge4_Node000001_Node000005" class="edge">
<title>Node1&#45;&gt;Node5</title>
<g id="a_edge4_Node000001_Node000005"><a xlink:title=" ">
<path fill="none" stroke="#63b8ff" d="M821.14,-274.99C781.6,-248.44 659.38,-163.5 576,-74 562.66,-59.68 550.01,-41.24 541.54,-27.92"/>
<polygon fill="#63b8ff" stroke="#63b8ff" points="544.41,-25.91 536.16,-19.26 538.46,-29.6 544.41,-25.91"/>
</a>
</g>
</g>
<!-- Node6 -->
<g id="Node000006" class="node">
<title>Node6</title>
<g id="a_Node000006"><a xlink:title=" ">
<polygon fill="#e0e0e0" stroke="#999999" points="886,-19 814,-19 814,0 886,0 886,-19"/>
<text text-anchor="middle" x="850" y="-7" font-family="Helvetica,sans-Serif" font-size="10.00">FreeRTOS.h</text>
</a>
</g>
</g>
<!-- Node1&#45;&gt;Node6 -->
<g id="edge5_Node000001_Node000006" class="edge">
<title>Node1&#45;&gt;Node6</title>
<g id="a_edge5_Node000001_Node000006"><a xlink:title=" ">
<path fill="none" stroke="#63b8ff" d="M841.74,-274.99C856.67,-257.64 888,-216.38 888,-175.5 888,-175.5 888,-175.5 888,-118.5 888,-85.02 871.55,-48.84 860.3,-28.01"/>
<polygon fill="#63b8ff" stroke="#63b8ff" points="863.24,-26.1 855.28,-19.1 857.13,-29.53 863.24,-26.1"/>
</a>
</g>
</g>
<!-- Node7 -->
<g id="Node000007" class="node">
<title>Node7</title>
<g id="a_Node000007"><a xlink:title=" ">
<polygon fill="#e0e0e0" stroke="#999999" points="976.5,-19 929.5,-19 929.5,0 976.5,0 976.5,-19"/>
<text text-anchor="middle" x="953" y="-7" font-family="Helvetica,sans-Serif" font-size="10.00">task.h</text>
</a>
</g>
</g>
<!-- Node1&#45;&gt;Node7 -->
<g id="edge6_Node000001_Node000007" class="edge">
<title>Node1&#45;&gt;Node7</title>
<g id="a_edge6_Node000001_Node000007"><a xlink:title=" ">
<path fill="none" stroke="#63b8ff" d="M861.22,-274.87C880,-267.76 904.47,-256.05 921,-239 977.45,-180.76 981.24,-153.15 999,-74 1000.85,-65.76 1002.3,-62.77 999,-55 994.02,-43.25 984.25,-33.09 974.99,-25.45"/>
<polygon fill="#63b8ff" stroke="#63b8ff" points="976.85,-22.47 966.78,-19.18 972.6,-28.03 976.85,-22.47"/>
</a>
</g>
</g>
<!-- Node8 -->
<g id="Node000008" class="node">
<title>Node8</title>
<g id="a_Node000008"><a xlink:title=" ">
<polygon fill="#e0e0e0" stroke="#999999" points="1087,-19 1025,-19 1025,0 1087,0 1087,-19"/>
<text text-anchor="middle" x="1056" y="-7" font-family="Helvetica,sans-Serif" font-size="10.00">semphr.h</text>
</a>
</g>
</g>
<!-- Node1&#45;&gt;Node8 -->
<g id="edge7_Node000001_Node000008" class="edge">
<title>Node1&#45;&gt;Node8</title>
<g id="a_edge7_Node000001_Node000008"><a xlink:title=" ">
<path fill="none" stroke="#63b8ff" d="M871.45,-282.67C930.76,-278.97 1042.87,-261.58 1075,-184 1096.98,-130.93 1075.99,-61.32 1063.61,-28.76"/>
<polygon fill="#63b8ff" stroke="#63b8ff" points="1066.77,-27.22 1059.82,-19.22 1060.26,-29.81 1066.77,-27.22"/>
</a>
</g>
</g>
<!-- Node9 -->
<g id="Node000009" class="node">
<title>Node9</title>
<g id="a_Node000009"><a xlink:title=" ">
<polygon fill="#e0e0e0" stroke="#999999" points="776,-19 720,-19 720,0 776,0 776,-19"/>
<text text-anchor="middle" x="748" y="-7" font-family="Helvetica,sans-Serif" font-size="10.00">queue.h</text>
</a>
</g>
</g>
<!-- Node1&#45;&gt;Node9 -->
<g id="edge8_Node000001_Node000009" class="edge">
<title>Node1&#45;&gt;Node9</title>
<g id="a_edge8_Node000001_Node000009"><a xlink:title=" ">
<path fill="none" stroke="#63b8ff" d="M834.27,-274.6C834.87,-242.77 833.72,-132.4 793,-55 787.05,-43.68 777.21,-33.46 768.24,-25.67"/>
<polygon fill="#63b8ff" stroke="#63b8ff" points="770.35,-22.88 760.4,-19.25 765.92,-28.29 770.35,-22.88"/>
</a>
</g>
</g>
<!-- Node10 -->
<g id="Node000010" class="node">
<title>Node10</title>
<g id="a_Node000010"><a xlink:href="gse_8h.html" target="_top" xlink:title="Handles hardline communication over USB.">
<polygon fill="white" stroke="#666666" points="1131.5,-239 1088.5,-239 1088.5,-220 1131.5,-220 1131.5,-239"/>
<text text-anchor="middle" x="1110" y="-227" font-family="Helvetica,sans-Serif" font-size="10.00">gse.h</text>
</a>
</g>
</g>
<!-- Node1&#45;&gt;Node10 -->
<g id="edge9_Node000001_Node000010" class="edge">
<title>Node1&#45;&gt;Node10</title>
<g id="a_edge9_Node000001_Node000010"><a xlink:title=" ">
<path fill="none" stroke="#63b8ff" d="M871.11,-277.19C918.37,-269.03 1002.47,-254.07 1074,-239 1075.45,-238.69 1076.94,-238.37 1078.44,-238.04"/>
<polygon fill="#63b8ff" stroke="#63b8ff" points="1079.36,-241.42 1088.34,-235.79 1077.81,-234.6 1079.36,-241.42"/>
</a>
</g>
</g>
<!-- Node11 -->
<g id="Node000011" class="node">
<title>Node11</title>
<g id="a_Node000011"><a xlink:href="log_8h.html" target="_top" xlink:title=" ">
<polygon fill="white" stroke="#666666" points="767.5,-129 726.5,-129 726.5,-110 767.5,-110 767.5,-129"/>
<text text-anchor="middle" x="747" y="-117" font-family="Helvetica,sans-Serif" font-size="10.00">log.h</text>
</a>
</g>
</g>
<!-- Node1&#45;&gt;Node11 -->
<g id="edge10_Node000001_Node000011" class="edge">
<title>Node1&#45;&gt;Node11</title>
<g id="a_edge10_Node000001_Node000011"><a xlink:title=" ">
<path fill="none" stroke="#63b8ff" d="M829.32,-274.74C815.57,-248.98 775.09,-173.13 756.51,-138.33"/>
<polygon fill="#63b8ff" stroke="#63b8ff" points="759.5,-136.48 751.7,-129.31 753.32,-139.78 759.5,-136.48"/>
</a>
</g>
</g>
<!-- Node13 -->
<g id="Node000013" class="node">
<title>Node13</title>
<g id="a_Node000013"><a xlink:href="heartbeat__job_8h.html" target="_top" xlink:title=" ">
<polygon fill="white" stroke="#666666" points="1242.5,-239 1149.5,-239 1149.5,-220 1242.5,-220 1242.5,-239"/>
<text text-anchor="middle" x="1196" y="-227" font-family="Helvetica,sans-Serif" font-size="10.00">heartbeat_job.h</text>
</a>
</g>
</g>
<!-- Node1&#45;&gt;Node13 -->
<g id="edge15_Node000001_Node000013" class="edge">
<title>Node1&#45;&gt;Node13</title>
<g id="a_edge15_Node000001_Node000013"><a xlink:title=" ">
<path fill="none" stroke="#63b8ff" d="M871.35,-278.2C927.36,-270.23 1036.69,-254.57 1139.56,-239.2"/>
<polygon fill="#63b8ff" stroke="#63b8ff" points="1140.12,-242.66 1149.49,-237.72 1139.09,-235.74 1140.12,-242.66"/>
</a>
</g>
</g>
<!-- Node14 -->
<g id="Node000014" class="node">
<title>Node14</title>
<g id="a_Node000014"><a xlink:href="steve_8h.html" target="_top" xlink:title="S.T.E.V.E (Scheduler Task for Executing Vital Events)">
<polygon fill="white" stroke="#666666" points="1065.5,-184 1012.5,-184 1012.5,-165 1065.5,-165 1065.5,-184"/>
<text text-anchor="middle" x="1039" y="-172" font-family="Helvetica,sans-Serif" font-size="10.00">steve.h</text>
</a>
</g>
</g>
<!-- Node1&#45;&gt;Node14 -->
<g id="edge16_Node000001_Node000014" class="edge">
<title>Node1&#45;&gt;Node14</title>
<g id="a_edge16_Node000001_Node000014"><a xlink:title=" ">
<path fill="none" stroke="#63b8ff" d="M871.16,-281.02C906.72,-277.01 960.37,-266.51 998,-239 1013.69,-227.53 1024.94,-208.09 1031.65,-193.73"/>
<polygon fill="#63b8ff" stroke="#63b8ff" points="1034.94,-194.93 1035.72,-184.36 1028.52,-192.14 1034.94,-194.93"/>
</a>
</g>
</g>
<!-- Node15 -->
<g id="Node000015" class="node">
<title>Node15</title>
<g id="a_Node000015"><a xlink:href="filesystem_8h.html" target="_top" xlink:title="Handles file system operations and management.">
<polygon fill="white" stroke="#666666" points="693.5,-74 616.5,-74 616.5,-55 693.5,-55 693.5,-74"/>
<text text-anchor="middle" x="655" y="-62" font-family="Helvetica,sans-Serif" font-size="10.00">filesystem.h</text>
</a>
</g>
</g>
<!-- Node1&#45;&gt;Node15 -->
<g id="edge18_Node000001_Node000015" class="edge">
<title>Node1&#45;&gt;Node15</title>
<g id="a_edge18_Node000001_Node000015"><a xlink:title=" ">
<path fill="none" stroke="#63b8ff" d="M826.89,-274.99C819.42,-266.04 807.36,-251.56 797,-239 749.66,-181.61 693.85,-113.2 668.61,-82.22"/>
<polygon fill="#63b8ff" stroke="#63b8ff" points="671.1,-79.73 662.07,-74.18 665.67,-84.15 671.1,-79.73"/>
</a>
</g>
</g>
<!-- Node18 -->
<g id="Node000018" class="node">
<title>Node18</title>
<g id="a_Node000018"><a xlink:title=" ">
<polygon fill="#e0e0e0" stroke="#999999" points="1311,-239 1261,-239 1261,-220 1311,-220 1311,-239"/>
<text text-anchor="middle" x="1286" y="-227" font-family="Helvetica,sans-Serif" font-size="10.00">radio.h</text>
</a>
</g>
</g>
<!-- Node1&#45;&gt;Node18 -->
<g id="edge27_Node000001_Node000018" class="edge">
<title>Node1&#45;&gt;Node18</title>
<g id="a_edge27_Node000001_Node000018"><a xlink:title=" ">
<path fill="none" stroke="#63b8ff" d="M871.15,-281.28C942.78,-276.64 1105.09,-264.29 1250.82,-238.97"/>
<polygon fill="#63b8ff" stroke="#63b8ff" points="1251.59,-242.39 1260.83,-237.21 1250.38,-235.5 1251.59,-242.39"/>
</a>
</g>
</g>
<!-- Node19 -->
<g id="Node000019" class="node">
<title>Node19</title>
<g id="a_Node000019"><a xlink:href="command_8h.html" target="_top" xlink:title="Handles decoding and triggering responses to received commands.">
<polygon fill="white" stroke="#666666" points="496,-184 422,-184 422,-165 496,-165 496,-184"/>
<text text-anchor="middle" x="459" y="-172" font-family="Helvetica,sans-Serif" font-size="10.00">command.h</text>
</a>
</g>
</g>
<!-- Node1&#45;&gt;Node19 -->
<g id="edge28_Node000001_Node000019" class="edge">
<title>Node1&#45;&gt;Node19</title>
<g id="a_edge28_Node000001_Node000019"><a xlink:title=" ">
<path fill="none" stroke="#63b8ff" d="M796.83,-280.47C746.89,-275.6 655.87,-263.95 582,-239 544.81,-226.44 505.01,-204.06 481.07,-189.5"/>
<polygon fill="#63b8ff" stroke="#63b8ff" points="482.76,-186.44 472.42,-184.16 479.09,-192.39 482.76,-186.44"/>
</a>
</g>
</g>
<!-- Node22 -->
<g id="Node000022" class="node">
<title>Node22</title>
<g id="a_Node000022"><a xlink:href="set__rtc__job_8h.html" target="_top" xlink:title=" ">
<polygon fill="white" stroke="#666666" points="593.5,-184 514.5,-184 514.5,-165 593.5,-165 593.5,-184"/>
<text text-anchor="middle" x="554" y="-172" font-family="Helvetica,sans-Serif" font-size="10.00">set_rtc_job.h</text>
</a>
</g>
</g>
<!-- Node1&#45;&gt;Node22 -->
<g id="edge35_Node000001_Node000022" class="edge">
<title>Node1&#45;&gt;Node22</title>
<g id="a_edge35_Node000001_Node000022"><a xlink:title=" ">
<path fill="none" stroke="#63b8ff" d="M796.96,-283.53C749.91,-282.01 667.68,-273.99 608,-239 588.95,-227.83 573.43,-207.42 563.99,-192.75"/>
<polygon fill="#63b8ff" stroke="#63b8ff" points="566.9,-190.8 558.7,-184.09 560.93,-194.45 566.9,-190.8"/>
</a>
</g>
</g>
<!-- Node25 -->
<g id="Node000025" class="node">
<title>Node25</title>
<g id="a_Node000025"><a xlink:href="antenna__deploy__job_8h.html" target="_top" xlink:title=" ">
<polygon fill="white" stroke="#666666" points="1453,-239 1329,-239 1329,-220 1453,-220 1453,-239"/>
<text text-anchor="middle" x="1391" y="-227" font-family="Helvetica,sans-Serif" font-size="10.00">antenna_deploy_job.h</text>
</a>
</g>
</g>
<!-- Node1&#45;&gt;Node25 -->
<g id="edge44_Node000001_Node000025" class="edge">
<title>Node1&#45;&gt;Node25</title>
<g id="a_edge44_Node000001_Node000025"><a xlink:title=" ">
<path fill="none" stroke="#63b8ff" d="M871.23,-280.45C951.12,-273.82 1145.17,-257.31 1318.6,-239.12"/>
<polygon fill="#63b8ff" stroke="#63b8ff" points="1319.09,-242.59 1328.67,-238.06 1318.36,-235.63 1319.09,-242.59"/>
</a>
</g>
</g>
<!-- Node26 -->
<g id="Node000026" class="node">
<title>Node26</title>
<g id="a_Node000026"><a xlink:href="watchdog_8h.html" target="_top" xlink:title="Watchdog management functions.">
<polygon fill="white" stroke="#666666" points="989.5,-74 916.5,-74 916.5,-55 989.5,-55 989.5,-74"/>
<text text-anchor="middle" x="953" y="-62" font-family="Helvetica,sans-Serif" font-size="10.00">watchdog.h</text>
</a>
</g>
</g>
<!-- Node1&#45;&gt;Node26 -->
<g id="edge45_Node000001_Node000026" class="edge">
<title>Node1&#45;&gt;Node26</title>
<g id="a_edge45_Node000001_Node000026"><a xlink:title=" ">
<path fill="none" stroke="#63b8ff" d="M854.39,-274.92C869.61,-267.52 889.81,-255.43 902,-239 937.65,-190.99 948.48,-118.38 951.69,-84.35"/>
<polygon fill="#63b8ff" stroke="#63b8ff" points="955.18,-84.63 952.51,-74.38 948.2,-84.06 955.18,-84.63"/>
</a>
</g>
</g>
<!-- Node27 -->
<g id="Node000027" class="node">
<title>Node27</title>
<g id="a_Node000027"><a xlink:href="hb__tlm__log_8h.html" target="_top" xlink:title=" ">
<polygon fill="white" stroke="#666666" points="502,-239 422,-239 422,-220 502,-220 502,-239"/>
<text text-anchor="middle" x="462" y="-227" font-family="Helvetica,sans-Serif" font-size="10.00">hb_tlm_log.h</text>
</a>
</g>
</g>
<!-- Node1&#45;&gt;Node27 -->
<g id="edge48_Node000001_Node000027" class="edge">
<title>Node1&#45;&gt;Node27</title>
<g id="a_edge48_Node000001_Node000027"><a xlink:title=" ">
<path fill="none" stroke="#63b8ff" d="M796.97,-278.22C729.92,-268.67 588.34,-248.5 512.49,-237.69"/>
<polygon fill="#63b8ff" stroke="#63b8ff" points="512.64,-234.18 502.24,-236.23 511.65,-241.11 512.64,-234.18"/>
</a>
</g>
</g>
<!-- Node11&#45;&gt;Node5 -->
<g id="edge14_Node000011_Node000005" class="edge">
<title>Node11&#45;&gt;Node5</title>
<g id="a_edge14_Node000011_Node000005"><a xlink:title=" ">
<path fill="none" stroke="#63b8ff" d="M726.06,-114.51C697.77,-108.53 646.35,-95.59 607,-74 583.6,-61.16 560.63,-40.54 546.17,-26.3"/>
<polygon fill="#63b8ff" stroke="#63b8ff" points="548.6,-23.77 539.07,-19.13 543.63,-28.7 548.6,-23.77"/>
</a>
</g>
</g>
<!-- Node12 -->
<g id="Node000012" class="node">
<title>Node12</title>
<g id="a_Node000012"><a xlink:href="telemetry_8h.html" target="_top" xlink:title="Functions for packaging and queuing telemetry packets for sending.">
<polygon fill="white" stroke="#666666" points="784,-74 712,-74 712,-55 784,-55 784,-74"/>
<text text-anchor="middle" x="748" y="-62" font-family="Helvetica,sans-Serif" font-size="10.00">telemetry.h</text>
</a>
</g>
</g>
<!-- Node11&#45;&gt;Node12 -->
<g id="edge11_Node000011_Node000012" class="edge">
<title>Node11&#45;&gt;Node12</title>
<g id="a_edge11_Node000011_Node000012"><a xlink:title=" ">
<path fill="none" stroke="#63b8ff" d="M747.17,-109.75C747.3,-102.8 747.48,-92.85 747.65,-84.13"/>
<polygon fill="#63b8ff" stroke="#63b8ff" points="751.15,-84.15 747.84,-74.09 744.15,-84.02 751.15,-84.15"/>
</a>
</g>
</g>
<!-- Node12&#45;&gt;Node6 -->
<g id="edge12_Node000012_Node000006" class="edge">
<title>Node12&#45;&gt;Node6</title>
<g id="a_edge12_Node000012_Node000006"><a xlink:title=" ">
<path fill="none" stroke="#63b8ff" d="M764.39,-54.98C780.57,-46.57 805.57,-33.59 824.38,-23.81"/>
<polygon fill="#63b8ff" stroke="#63b8ff" points="826.05,-26.89 833.31,-19.17 822.83,-20.68 826.05,-26.89"/>
</a>
</g>
</g>
<!-- Node12&#45;&gt;Node9 -->
<g id="edge13_Node000012_Node000009" class="edge">
<title>Node12&#45;&gt;Node9</title>
<g id="a_edge13_Node000012_Node000009"><a xlink:title=" ">
<path fill="none" stroke="#63b8ff" d="M748,-54.75C748,-47.8 748,-37.85 748,-29.13"/>
<polygon fill="#63b8ff" stroke="#63b8ff" points="751.5,-29.09 748,-19.09 744.5,-29.09 751.5,-29.09"/>
</a>
</g>
</g>
<!-- Node14&#45;&gt;Node8 -->
<g id="edge17_Node000014_Node000008" class="edge">
<title>Node14&#45;&gt;Node8</title>
<g id="a_edge17_Node000014_Node000008"><a xlink:title=" ">
<path fill="none" stroke="#63b8ff" d="M1039.91,-164.74C1042.57,-139.31 1050.31,-65.08 1054,-29.69"/>
<polygon fill="#63b8ff" stroke="#63b8ff" points="1057.53,-29.62 1055.08,-19.31 1050.56,-28.89 1057.53,-29.62"/>
</a>
</g>
</g>
<!-- Node15&#45;&gt;Node4 -->
<g id="edge25_Node000015_Node000004" class="edge">
<title>Node15&#45;&gt;Node4</title>
<g id="a_edge25_Node000015_Node000004"><a xlink:title=" ">
<path fill="none" stroke="#63b8ff" d="M616.32,-57.57C549.03,-47.27 411.34,-26.18 345.56,-16.1"/>
<polygon fill="#63b8ff" stroke="#63b8ff" points="346.06,-12.64 335.64,-14.58 345,-19.56 346.06,-12.64"/>
</a>
</g>
</g>
<!-- Node15&#45;&gt;Node5 -->
<g id="edge26_Node000015_Node000005" class="edge">
<title>Node15&#45;&gt;Node5</title>
<g id="a_edge26_Node000015_Node000005"><a xlink:title=" ">
<path fill="none" stroke="#63b8ff" d="M635.08,-54.98C614.95,-46.38 583.62,-32.99 560.59,-23.15"/>
<polygon fill="#63b8ff" stroke="#63b8ff" points="561.86,-19.88 551.29,-19.17 559.1,-26.32 561.86,-19.88"/>
</a>
</g>
</g>
<!-- Node15&#45;&gt;Node6 -->
<g id="edge19_Node000015_Node000006" class="edge">
<title>Node15&#45;&gt;Node6</title>
<g id="a_edge19_Node000015_Node000006"><a xlink:title=" ">
<path fill="none" stroke="#63b8ff" d="M686.33,-54.98C719.49,-45.97 772,-31.7 808.56,-21.76"/>
<polygon fill="#63b8ff" stroke="#63b8ff" points="809.69,-25.08 818.42,-19.08 807.86,-18.33 809.69,-25.08"/>
</a>
</g>
</g>
<!-- Node15&#45;&gt;Node7 -->
<g id="edge21_Node000015_Node000007" class="edge">
<title>Node15&#45;&gt;Node7</title>
<g id="a_edge21_Node000015_Node000007"><a xlink:title=" ">
<path fill="none" stroke="#63b8ff" d="M693.65,-56.63C752.54,-46.15 863.73,-26.38 919.43,-16.47"/>
<polygon fill="#63b8ff" stroke="#63b8ff" points="920.24,-19.88 929.48,-14.68 919.02,-12.99 920.24,-19.88"/>
</a>
</g>
</g>
<!-- Node15&#45;&gt;Node8 -->
<g id="edge23_Node000015_Node000008" class="edge">
<title>Node15&#45;&gt;Node8</title>
<g id="a_edge23_Node000015_Node000008"><a xlink:title=" ">
<path fill="none" stroke="#63b8ff" d="M693.75,-56.47C696.87,-55.95 699.99,-55.46 703,-55 733.26,-50.42 928.25,-26.26 1014.76,-15.58"/>
<polygon fill="#63b8ff" stroke="#63b8ff" points="1015.26,-19.05 1024.75,-14.35 1014.4,-12.1 1015.26,-19.05"/>
</a>
</g>
</g>
<!-- Node15&#45;&gt;Node9 -->
<g id="edge20_Node000015_Node000009" class="edge">
<title>Node15&#45;&gt;Node9</title>
<g id="a_edge20_Node000015_Node000009"><a xlink:title=" ">
<path fill="none" stroke="#63b8ff" d="M669.94,-54.98C684.5,-46.69 706.87,-33.94 723.93,-24.22"/>
<polygon fill="#63b8ff" stroke="#63b8ff" points="725.83,-27.16 732.79,-19.17 722.36,-21.08 725.83,-27.16"/>
</a>
</g>
</g>
<!-- Node16 -->
<g id="Node000016" class="node">
<title>Node16</title>
<g id="a_Node000016"><a xlink:title=" ">
<polygon fill="#e0e0e0" stroke="#999999" points="686,-19 654,-19 654,0 686,0 686,-19"/>
<text text-anchor="middle" x="670" y="-7" font-family="Helvetica,sans-Serif" font-size="10.00">ff.h</text>
</a>
</g>
</g>
<!-- Node15&#45;&gt;Node16 -->
<g id="edge22_Node000015_Node000016" class="edge">
<title>Node15&#45;&gt;Node16</title>
<g id="a_edge22_Node000015_Node000016"><a xlink:title=" ">
<path fill="none" stroke="#63b8ff" d="M657.48,-54.75C659.46,-47.72 662.32,-37.62 664.81,-28.84"/>
<polygon fill="#63b8ff" stroke="#63b8ff" points="668.21,-29.66 667.57,-19.09 661.48,-27.76 668.21,-29.66"/>
</a>
</g>
</g>
<!-- Node17 -->
<g id="Node000017" class="node">
<title>Node17</title>
<g id="a_Node000017"><a xlink:title=" ">
<polygon fill="#e0e0e0" stroke="#999999" points="636,-19 580,-19 580,0 636,0 636,-19"/>
<text text-anchor="middle" x="608" y="-7" font-family="Helvetica,sans-Serif" font-size="10.00">stddef.h</text>
</a>
</g>
</g>
<!-- Node15&#45;&gt;Node17 -->
<g id="edge24_Node000015_Node000017" class="edge">
<title>Node15&#45;&gt;Node17</title>
<g id="a_edge24_Node000015_Node000017"><a xlink:title=" ">
<path fill="none" stroke="#63b8ff" d="M647.24,-54.75C640.53,-47.18 630.66,-36.05 622.49,-26.84"/>
<polygon fill="#63b8ff" stroke="#63b8ff" points="624.87,-24.25 615.62,-19.09 619.63,-28.89 624.87,-24.25"/>
</a>
</g>
</g>
<!-- Node19&#45;&gt;Node4 -->
<g id="edge29_Node000019_Node000004" class="edge">
<title>Node19&#45;&gt;Node4</title>
<g id="a_edge29_Node000019_Node000004"><a xlink:title=" ">
<path fill="none" stroke="#63b8ff" d="M421.6,-170.05C372.24,-164.64 289.41,-152.28 271,-129 263.68,-119.74 262.15,-91.33 276,-55 279.93,-44.7 286.95,-34.71 293.51,-26.81"/>
<polygon fill="#63b8ff" stroke="#63b8ff" points="296.28,-28.96 300.28,-19.15 291.03,-24.33 296.28,-28.96"/>
</a>
</g>
</g>
<!-- Node20 -->
<g id="Node000020" class="node">
<title>Node20</title>
<g id="a_Node000020"><a xlink:title=" ">
<polygon fill="#e0e0e0" stroke="#999999" points="366,-129 280,-129 280,-110 366,-110 366,-129"/>
<text text-anchor="middle" x="323" y="-117" font-family="Helvetica,sans-Serif" font-size="10.00">spacepacket.h</text>
</a>
</g>
</g>
<!-- Node19&#45;&gt;Node20 -->
<g id="edge30_Node000019_Node000020" class="edge">
<title>Node19&#45;&gt;Node20</title>
<g id="a_edge30_Node000019_Node000020"><a xlink:title=" ">
<path fill="none" stroke="#63b8ff" d="M437.15,-164.98C414.88,-156.3 380.1,-142.75 354.78,-132.88"/>
<polygon fill="#63b8ff" stroke="#63b8ff" points="355.84,-129.54 345.25,-129.17 353.29,-136.06 355.84,-129.54"/>
</a>
</g>
</g>
<!-- Node21 -->
<g id="Node000021" class="node">
<title>Node21</title>
<g id="a_Node000021"><a xlink:href="user__auth_8h.html" target="_top" xlink:title=" ">
<polygon fill="white" stroke="#666666" points="594,-129 520,-129 520,-110 594,-110 594,-129"/>
<text text-anchor="middle" x="557" y="-117" font-family="Helvetica,sans-Serif" font-size="10.00">user_auth.h</text>
</a>
</g>
</g>
<!-- Node19&#45;&gt;Node21 -->
<g id="edge31_Node000019_Node000021" class="edge">
<title>Node19&#45;&gt;Node21</title>
<g id="a_edge31_Node000019_Node000021"><a xlink:title=" ">
<path fill="none" stroke="#63b8ff" d="M474.75,-164.98C490.23,-156.61 514.09,-143.7 532.14,-133.95"/>
<polygon fill="#63b8ff" stroke="#63b8ff" points="533.84,-137.01 540.97,-129.17 530.51,-130.85 533.84,-137.01"/>
</a>
</g>
</g>
<!-- Node21&#45;&gt;Node4 -->
<g id="edge33_Node000021_Node000004" class="edge">
<title>Node21&#45;&gt;Node4</title>
<g id="a_edge33_Node000021_Node000004"><a xlink:title=" ">
<path fill="none" stroke="#63b8ff" d="M519.7,-110.86C476.52,-101.67 408.32,-85.98 385,-74 361.26,-61.8 338.36,-41.04 324.02,-26.6"/>
<polygon fill="#63b8ff" stroke="#63b8ff" points="326.44,-24.07 316.98,-19.31 321.41,-28.94 326.44,-24.07"/>
</a>
</g>
</g>
<!-- Node21&#45;&gt;Node5 -->
<g id="edge32_Node000021_Node000005" class="edge">
<title>Node21&#45;&gt;Node5</title>
<g id="a_edge32_Node000021_Node000005"><a xlink:title=" ">
<path fill="none" stroke="#63b8ff" d="M551.84,-109.99C546.84,-101.29 539.51,-87.21 536,-74 532.13,-59.43 530.96,-42.38 530.72,-29.62"/>
<polygon fill="#63b8ff" stroke="#63b8ff" points="534.22,-29.29 530.7,-19.29 527.22,-29.3 534.22,-29.29"/>
</a>
</g>
</g>
<!-- Node21&#45;&gt;Node15 -->
<g id="edge34_Node000021_Node000015" class="edge">
<title>Node21&#45;&gt;Node15</title>
<g id="a_edge34_Node000021_Node000015"><a xlink:title=" ">
<path fill="none" stroke="#63b8ff" d="M572.75,-109.98C588.23,-101.61 612.09,-88.7 630.14,-78.95"/>
<polygon fill="#63b8ff" stroke="#63b8ff" points="631.84,-82.01 638.97,-74.17 628.51,-75.85 631.84,-82.01"/>
</a>
</g>
</g>
<!-- Node22&#45;&gt;Node4 -->
<g id="edge36_Node000022_Node000004" class="edge">
<title>Node22&#45;&gt;Node4</title>
<g id="a_edge36_Node000022_Node000004"><a xlink:title=" ">
<path fill="none" stroke="#63b8ff" d="M517.28,-164.99C488.17,-157.52 446.89,-145.3 413,-129 393.23,-119.49 344.4,-91.38 331,-74 320.87,-60.86 315.21,-42.73 312.17,-29.2"/>
<polygon fill="#63b8ff" stroke="#63b8ff" points="315.56,-28.28 310.2,-19.13 308.69,-29.62 315.56,-28.28"/>
</a>
</g>
</g>
<!-- Node22&#45;&gt;Node6 -->
<g id="edge43_Node000022_Node000006" class="edge">
<title>Node22&#45;&gt;Node6</title>
<g id="a_edge43_Node000022_Node000006"><a xlink:title=" ">
<path fill="none" stroke="#63b8ff" d="M593.58,-169.43C649.43,-163.05 747.83,-149.29 777,-129 812.91,-104.02 834.54,-55.1 844.13,-28.6"/>
<polygon fill="#63b8ff" stroke="#63b8ff" points="847.47,-29.64 847.41,-19.04 840.85,-27.36 847.47,-29.64"/>
</a>
</g>
</g>
<!-- Node23 -->
<g id="Node000023" class="node">
<title>Node23</title>
<g id="a_Node000023"><a xlink:href="rtc__ds3231_8h.html" target="_top" xlink:title="DS3231 Real Time Clock Driver.">
<polygon fill="white" stroke="#666666" points="501.5,-129 422.5,-129 422.5,-110 501.5,-110 501.5,-129"/>
<text text-anchor="middle" x="462" y="-117" font-family="Helvetica,sans-Serif" font-size="10.00">rtc_ds3231.h</text>
</a>
</g>
</g>
<!-- Node22&#45;&gt;Node23 -->
<g id="edge37_Node000022_Node000023" class="edge">
<title>Node22&#45;&gt;Node23</title>
<g id="a_edge37_Node000022_Node000023"><a xlink:title=" ">
<path fill="none" stroke="#63b8ff" d="M539.22,-164.98C524.82,-156.69 502.69,-143.94 485.81,-134.22"/>
<polygon fill="#63b8ff" stroke="#63b8ff" points="487.46,-131.13 477.05,-129.17 483.97,-137.19 487.46,-131.13"/>
</a>
</g>
</g>
<!-- Node23&#45;&gt;Node4 -->
<g id="edge42_Node000023_Node000004" class="edge">
<title>Node23&#45;&gt;Node4</title>
<g id="a_edge42_Node000023_Node000004"><a xlink:title=" ">
<path fill="none" stroke="#63b8ff" d="M426.51,-109.95C403.47,-103.07 373.79,-91.62 352,-74 336.67,-61.6 324.69,-42.31 317.31,-28.24"/>
<polygon fill="#63b8ff" stroke="#63b8ff" points="320.35,-26.49 312.77,-19.09 314.08,-29.6 320.35,-26.49"/>
</a>
</g>
</g>
<!-- Node24 -->
<g id="Node000024" class="node">
<title>Node24</title>
<g id="a_Node000024"><a xlink:href="simulator_2pico-sdk_2hardware_2i2c_8h.html" target="_top" xlink:title=" ">
<polygon fill="white" stroke="#666666" points="483.5,-74 394.5,-74 394.5,-55 483.5,-55 483.5,-74"/>
<text text-anchor="middle" x="439" y="-62" font-family="Helvetica,sans-Serif" font-size="10.00">hardware/i2c.h</text>
</a>
</g>
</g>
<!-- Node23&#45;&gt;Node24 -->
<g id="edge38_Node000023_Node000024" class="edge">
<title>Node23&#45;&gt;Node24</title>
<g id="a_edge38_Node000023_Node000024"><a xlink:title=" ">
<path fill="none" stroke="#63b8ff" d="M458.2,-109.75C455.09,-102.57 450.58,-92.18 446.71,-83.27"/>
<polygon fill="#63b8ff" stroke="#63b8ff" points="449.92,-81.87 442.73,-74.09 443.5,-84.66 449.92,-81.87"/>
</a>
</g>
</g>
<!-- Node24&#45;&gt;Node4 -->
<g id="edge39_Node000024_Node000004" class="edge">
<title>Node24&#45;&gt;Node4</title>
<g id="a_edge39_Node000024_Node000004"><a xlink:title=" ">
<path fill="none" stroke="#63b8ff" d="M418.11,-54.98C396.92,-46.34 363.87,-32.87 339.7,-23.02"/>
<polygon fill="#63b8ff" stroke="#63b8ff" points="340.85,-19.7 330.27,-19.17 338.21,-26.19 340.85,-19.7"/>
</a>
</g>
</g>
<!-- Node24&#45;&gt;Node5 -->
<g id="edge41_Node000024_Node000005" class="edge">
<title>Node24&#45;&gt;Node5</title>
<g id="a_edge41_Node000024_Node000005"><a xlink:title=" ">
<path fill="none" stroke="#63b8ff" d="M453.78,-54.98C468.18,-46.69 490.31,-33.94 507.19,-24.22"/>
<polygon fill="#63b8ff" stroke="#63b8ff" points="509.03,-27.19 515.95,-19.17 505.54,-21.13 509.03,-27.19"/>
</a>
</g>
</g>
<!-- Node24&#45;&gt;Node17 -->
<g id="edge40_Node000024_Node000017" class="edge">
<title>Node24&#45;&gt;Node17</title>
<g id="a_edge40_Node000024_Node000017"><a xlink:title=" ">
<path fill="none" stroke="#63b8ff" d="M466.15,-54.98C494.53,-46.09 539.23,-32.07 570.86,-22.15"/>
<polygon fill="#63b8ff" stroke="#63b8ff" points="572.14,-25.41 580.63,-19.08 570.05,-18.73 572.14,-25.41"/>
</a>
</g>
</g>
<!-- Node26&#45;&gt;Node6 -->
<g id="edge46_Node000026_Node000006" class="edge">
<title>Node26&#45;&gt;Node6</title>
<g id="a_edge46_Node000026_Node000006"><a xlink:title=" ">
<path fill="none" stroke="#63b8ff" d="M936.45,-54.98C920.11,-46.57 894.87,-33.59 875.87,-23.81"/>
<polygon fill="#63b8ff" stroke="#63b8ff" points="877.34,-20.63 866.85,-19.17 874.14,-26.86 877.34,-20.63"/>
</a>
</g>
</g>
<!-- Node26&#45;&gt;Node7 -->
<g id="edge47_Node000026_Node000007" class="edge">
<title>Node26&#45;&gt;Node7</title>
<g id="a_edge47_Node000026_Node000007"><a xlink:title=" ">
<path fill="none" stroke="#63b8ff" d="M953,-54.75C953,-47.8 953,-37.85 953,-29.13"/>
<polygon fill="#63b8ff" stroke="#63b8ff" points="956.5,-29.09 953,-19.09 949.5,-29.09 956.5,-29.09"/>
</a>
</g>
</g>
<!-- Node27&#45;&gt;Node4 -->
<g id="edge50_Node000027_Node000004" class="edge">
<title>Node27&#45;&gt;Node4</title>
<g id="a_edge50_Node000027_Node000004"><a xlink:title=" ">
<path fill="none" stroke="#63b8ff" d="M421.63,-221.43C373.97,-210.68 296.82,-185.21 262,-129 254.84,-117.45 253.63,-84.65 267,-55 272.03,-43.84 281.04,-33.72 289.42,-25.95"/>
<polygon fill="#63b8ff" stroke="#63b8ff" points="291.86,-28.47 297.12,-19.28 287.27,-23.18 291.86,-28.47"/>
</a>
</g>
</g>
<!-- Node27&#45;&gt;Node12 -->
<g id="edge49_Node000027_Node000012" class="edge">
<title>Node27&#45;&gt;Node12</title>
<g id="a_edge49_Node000027_Node000012"><a xlink:title=" ">
<path fill="none" stroke="#63b8ff" d="M502.21,-219.97C531.1,-212.84 570.35,-201.08 602,-184 654.89,-155.47 707.2,-106.7 732.43,-81.55"/>
<polygon fill="#63b8ff" stroke="#63b8ff" points="735.08,-83.84 739.63,-74.27 730.11,-78.91 735.08,-83.84"/>
</a>
</g>
</g>
<!-- Node27&#45;&gt;Node19 -->
<g id="edge51_Node000027_Node000019" class="edge">
<title>Node27&#45;&gt;Node19</title>
<g id="a_edge51_Node000027_Node000019"><a xlink:title=" ">
<path fill="none" stroke="#63b8ff" d="M461.5,-219.75C461.11,-212.8 460.55,-202.85 460.05,-194.13"/>
<polygon fill="#63b8ff" stroke="#63b8ff" points="463.55,-193.88 459.49,-184.09 456.56,-194.27 463.55,-193.88"/>
</a>
</g>
</g>
</g>
</svg>
