<?xml version="1.0" encoding="UTF-8" standalone="no"?>
<!DOCTYPE svg PUBLIC "-//W3C//DTD SVG 1.1//EN"
 "http://www.w3.org/Graphics/SVG/1.1/DTD/svg11.dtd">
<!-- Generated by graphviz version 2.43.0 (0)
 -->
<!-- Title: command.h Pages: 1 -->
<svg width="486pt" height="137pt"
 viewBox="0.00 0.00 485.65 137.00" xmlns="http://www.w3.org/2000/svg" xmlns:xlink="http://www.w3.org/1999/xlink">

<svg id="main" version="1.1" xmlns="http://www.w3.org/2000/svg" xmlns:xlink="http://www.w3.org/1999/xlink" xml:space="preserve">

<style type="text/css"><![CDATA[
.node, .edge {opacity: 0.7;}
.node.selected, .edge.selected {opacity: 1;}
.edge:hover path { stroke: red; }
.edge:hover polygon { stroke: red; fill: red; }
]]></style>
<script type="application/ecmascript" xlink:href="svg.min.js"/>
<svg id="graph" class="graph">
<g id="graph0" class="graph" transform="scale(1 1) rotate(0) translate(4 133)">
<title>command.h</title>
<!-- Node1 -->
<g id="Node000001" class="node">
<title>Node1</title>
<g id="a_Node000001"><a xlink:title="Handles decoding and triggering responses to received commands.">
<polygon fill="#999999" stroke="#666666" points="288.65,-129 214.65,-129 214.65,-110 288.65,-110 288.65,-129"/>
<text text-anchor="middle" x="251.65" y="-117" font-family="Helvetica,sans-Serif" font-size="10.00">command.h</text>
</a>
</g>
</g>
<!-- Node2 -->
<g id="Node000002" class="node">
<title>Node2</title>
<g id="a_Node000002"><a xlink:href="command_8c.html" target="_top" xlink:title=" ">
<polygon fill="white" stroke="#666666" points="90.65,-19 16.65,-19 16.65,0 90.65,0 90.65,-19"/>
<text text-anchor="middle" x="53.65" y="-7" font-family="Helvetica,sans-Serif" font-size="10.00">command.c</text>
</a>
</g>
</g>
<!-- Node1&#45;&gt;Node2 -->
<g id="edge1_Node000001_Node000002" class="edge">
<title>Node1&#45;&gt;Node2</title>
<g id="a_edge1_Node000001_Node000002"><a xlink:title=" ">
<path fill="none" stroke="#63b8ff" d="M203.85,-116.92C139.32,-113.65 29.53,-103.77 4.65,-74 -11.34,-54.88 18.99,-31.45 38.68,-19.09"/>
<polygon fill="#63b8ff" stroke="#63b8ff" points="204.03,-120.43 214.18,-117.4 204.36,-113.43 204.03,-120.43"/>
</a>
</g>
</g>
<!-- Node3 -->
<g id="Node000003" class="node">
<title>Node3</title>
<g id="a_Node000003"><a xlink:href="command__fuzzer_8cpp.html" target="_top" xlink:title=" ">
<polygon fill="white" stroke="#666666" points="133.65,-74 13.65,-74 13.65,-55 133.65,-55 133.65,-74"/>
<text text-anchor="middle" x="73.65" y="-62" font-family="Helvetica,sans-Serif" font-size="10.00">command_fuzzer.cpp</text>
</a>
</g>
</g>
<!-- Node1&#45;&gt;Node3 -->
<g id="edge2_Node000001_Node000003" class="edge">
<title>Node1&#45;&gt;Node3</title>
<g id="a_edge2_Node000001_Node000003"><a xlink:title=" ">
<path fill="none" stroke="#63b8ff" d="M213.21,-107.06C179.94,-97.15 132.57,-83.04 102.47,-74.08"/>
<polygon fill="#63b8ff" stroke="#63b8ff" points="212.47,-110.49 223.05,-109.98 214.46,-103.78 212.47,-110.49"/>
</a>
</g>
</g>
<!-- Node4 -->
<g id="Node000004" class="node">
<title>Node4</title>
<g id="a_Node000004"><a xlink:href="gse_8c.html" target="_top" xlink:title=" ">
<polygon fill="white" stroke="#666666" points="193.65,-74 151.65,-74 151.65,-55 193.65,-55 193.65,-74"/>
<text text-anchor="middle" x="172.65" y="-62" font-family="Helvetica,sans-Serif" font-size="10.00">gse.c</text>
</a>
</g>
</g>
<!-- Node1&#45;&gt;Node4 -->
<g id="edge3_Node000001_Node000004" class="edge">
<title>Node1&#45;&gt;Node4</title>
<g id="a_edge3_Node000001_Node000004"><a xlink:title=" ">
<path fill="none" stroke="#63b8ff" d="M230.26,-104.15C215.98,-94.57 197.67,-82.29 185.57,-74.17"/>
<polygon fill="#63b8ff" stroke="#63b8ff" points="228.7,-107.32 238.95,-109.98 232.6,-101.51 228.7,-107.32"/>
</a>
</g>
</g>
<!-- Node5 -->
<g id="Node000005" class="node">
<title>Node5</title>
<g id="a_Node000005"><a xlink:href="hb__tlm__log_8h.html" target="_top" xlink:title=" ">
<polygon fill="white" stroke="#666666" points="291.65,-74 211.65,-74 211.65,-55 291.65,-55 291.65,-74"/>
<text text-anchor="middle" x="251.65" y="-62" font-family="Helvetica,sans-Serif" font-size="10.00">hb_tlm_log.h</text>
</a>
</g>
</g>
<!-- Node1&#45;&gt;Node5 -->
<g id="edge4_Node000001_Node000005" class="edge">
<title>Node1&#45;&gt;Node5</title>
<g id="a_edge4_Node000001_Node000005"><a xlink:title=" ">
<path fill="none" stroke="#63b8ff" d="M251.65,-99.66C251.65,-90.93 251.65,-80.99 251.65,-74.09"/>
<polygon fill="#63b8ff" stroke="#63b8ff" points="248.15,-99.75 251.65,-109.75 255.15,-99.75 248.15,-99.75"/>
</a>
</g>
</g>
<!-- Node7 -->
<g id="Node000007" class="node">
<title>Node7</title>
<g id="a_Node000007"><a xlink:href="heartbeat__job_8c.html" target="_top" xlink:title=" ">
<polygon fill="white" stroke="#666666" points="365.65,-19 273.65,-19 273.65,0 365.65,0 365.65,-19"/>
<text text-anchor="middle" x="319.65" y="-7" font-family="Helvetica,sans-Serif" font-size="10.00">heartbeat_job.c</text>
</a>
</g>
</g>
<!-- Node1&#45;&gt;Node7 -->
<g id="edge8_Node000001_Node000007" class="edge">
<title>Node1&#45;&gt;Node7</title>
<g id="a_edge8_Node000001_Node000007"><a xlink:title=" ">
<path fill="none" stroke="#63b8ff" d="M272.82,-103.56C282.53,-95.75 293.45,-85.43 300.65,-74 311.69,-56.47 316.6,-32.2 318.54,-19.33"/>
<polygon fill="#63b8ff" stroke="#63b8ff" points="270.55,-100.9 264.73,-109.75 274.8,-106.46 270.55,-100.9"/>
</a>
</g>
</g>
<!-- Node8 -->
<g id="Node000008" class="node">
<title>Node8</title>
<g id="a_Node000008"><a xlink:href="main_8c.html" target="_top" xlink:title=" ">
<polygon fill="white" stroke="#666666" points="397.65,-74 347.65,-74 347.65,-55 397.65,-55 397.65,-74"/>
<text text-anchor="middle" x="372.65" y="-62" font-family="Helvetica,sans-Serif" font-size="10.00">main.c</text>
</a>
</g>
</g>
<!-- Node1&#45;&gt;Node8 -->
<g id="edge9_Node000001_Node000008" class="edge">
<title>Node1&#45;&gt;Node8</title>
<g id="a_edge9_Node000001_Node000008"><a xlink:title=" ">
<path fill="none" stroke="#63b8ff" d="M280.42,-105.9C302.77,-96.11 333.17,-82.79 352.85,-74.17"/>
<polygon fill="#63b8ff" stroke="#63b8ff" points="278.84,-102.77 271.09,-109.98 281.65,-109.18 278.84,-102.77"/>
</a>
</g>
</g>
<!-- Node9 -->
<g id="Node000009" class="node">
<title>Node9</title>
<g id="a_Node000009"><a xlink:href="radio_8cpp.html" target="_top" xlink:title="Radio operations and the task handling them.">
<polygon fill="white" stroke="#666666" points="477.65,-74 415.65,-74 415.65,-55 477.65,-55 477.65,-74"/>
<text text-anchor="middle" x="446.65" y="-62" font-family="Helvetica,sans-Serif" font-size="10.00">radio.cpp</text>
</a>
</g>
</g>
<!-- Node1&#45;&gt;Node9 -->
<g id="edge10_Node000001_Node000009" class="edge">
<title>Node1&#45;&gt;Node9</title>
<g id="a_edge10_Node000001_Node000009"><a xlink:title=" ">
<path fill="none" stroke="#63b8ff" d="M292.85,-107.3C329.45,-97.35 382.16,-83.03 415.39,-73.99"/>
<polygon fill="#63b8ff" stroke="#63b8ff" points="291.71,-103.98 282.98,-109.98 293.55,-110.74 291.71,-103.98"/>
</a>
</g>
</g>
<!-- Node5&#45;&gt;Node2 -->
<g id="edge5_Node000005_Node000002" class="edge">
<title>Node5&#45;&gt;Node2</title>
<g id="a_edge5_Node000005_Node000002"><a xlink:title=" ">
<path fill="none" stroke="#63b8ff" d="M209.85,-52.31C172.8,-42.39 119.48,-28.12 85.71,-19.08"/>
<polygon fill="#63b8ff" stroke="#63b8ff" points="209.27,-55.78 219.84,-54.98 211.08,-49.02 209.27,-55.78"/>
</a>
</g>
</g>
<!-- Node6 -->
<g id="Node000006" class="node">
<title>Node6</title>
<g id="a_Node000006"><a xlink:href="hb__tlm__log_8c.html" target="_top" xlink:title=" ">
<polygon fill="white" stroke="#666666" points="255.15,-19 176.15,-19 176.15,0 255.15,0 255.15,-19"/>
<text text-anchor="middle" x="215.65" y="-7" font-family="Helvetica,sans-Serif" font-size="10.00">hb_tlm_log.c</text>
</a>
</g>
</g>
<!-- Node5&#45;&gt;Node6 -->
<g id="edge6_Node000005_Node000006" class="edge">
<title>Node5&#45;&gt;Node6</title>
<g id="a_edge6_Node000005_Node000006"><a xlink:title=" ">
<path fill="none" stroke="#63b8ff" d="M240.02,-46.39C233.83,-37.27 226.48,-26.45 221.48,-19.09"/>
<polygon fill="#63b8ff" stroke="#63b8ff" points="237.19,-48.44 245.7,-54.75 242.98,-44.51 237.19,-48.44"/>
</a>
</g>
</g>
<!-- Node5&#45;&gt;Node7 -->
<g id="edge7_Node000005_Node000007" class="edge">
<title>Node5&#45;&gt;Node7</title>
<g id="a_edge7_Node000005_Node000007"><a xlink:title=" ">
<path fill="none" stroke="#63b8ff" d="M270.76,-48.6C282.95,-39.11 298.31,-27.13 308.52,-19.17"/>
<polygon fill="#63b8ff" stroke="#63b8ff" points="268.31,-46.08 262.57,-54.98 272.61,-51.6 268.31,-46.08"/>
</a>
</g>
</g>
</g>
</svg>
</svg>

<style type='text/css'>
<![CDATA[
[data-mouse-over-selected='false'] { opacity: 0.7; }
[data-mouse-over-selected='true']  { opacity: 1.0; }
]]>
</style>
<script type="application/ecmascript"><![CDATA[
document.addEventListener('DOMContentLoaded', (event) => {
  highlightEdges();
  highlightAdjacentNodes();
});
]]></script>
</svg>
