<?xml version="1.0" encoding="UTF-8" standalone="no"?>
<!DOCTYPE svg PUBLIC "-//W3C//DTD SVG 1.1//EN"
 "http://www.w3.org/Graphics/SVG/1.1/DTD/svg11.dtd">
<!-- Generated by graphviz version 2.43.0 (0)
 -->
<!-- Title: command.c Pages: 1 -->
<!--zoomable 302 -->

<svg id="main" version="1.1" xmlns="http://www.w3.org/2000/svg" xmlns:xlink="http://www.w3.org/1999/xlink" xml:space="preserve" onload="init(evt)">

<style type="text/css"><![CDATA[
.node, .edge {opacity: 0.7;}
.node.selected, .edge.selected {opacity: 1;}
.edge:hover path { stroke: red; }
.edge:hover polygon { stroke: red; fill: red; }
]]></style>

<defs>
  <circle id="rim" cx="0" cy="0" r="7"/>
  <circle id="rim2" cx="0" cy="0" r="3.5"/>
  <g id="zoomPlus">
    <use xlink:href="#rim" fill="#404040"><set attributeName="fill" to="#808080" begin="zoomplus.mouseover" end="zoomplus.mouseout"/></use>
    <path d="M-4,0h8M0,-4v8" fill="none" stroke="white" stroke-width="1.5" pointer-events="none"/>
  </g>
  <g id="zoomMin">
    <use xlink:href="#rim" fill="#404040"><set attributeName="fill" to="#808080" begin="zoomminus.mouseover" end="zoomminus.mouseout"/></use>
    <path d="M-4,0h8" fill="none" stroke="white" stroke-width="1.5" pointer-events="none"/>
  </g>
  <g id="arrowUp" transform="translate(30 24)">
    <use xlink:href="#rim"/>
    <path pointer-events="none" fill="none" stroke="white" stroke-width="1.5" d="M0,-3.0v7 M-2.5,-0.5L0,-3.0L2.5,-0.5"/>
  </g>
  <g id="arrowRight" transform="rotate(90) translate(36 -43)">
    <use xlink:href="#rim"/>
    <path pointer-events="none" fill="none" stroke="white" stroke-width="1.5" d="M0,-3.0v7 M-2.5,-0.5L0,-3.0L2.5,-0.5"/>
  </g>
  <g id="arrowDown" transform="rotate(180) translate(-30 -48)">
    <use xlink:href="#rim"/>
    <path pointer-events="none" fill="none" stroke="white" stroke-width="1.5" d="M0,-3.0v7 M-2.5,-0.5L0,-3.0L2.5,-0.5"/>
  </g>
  <g id="arrowLeft" transform="rotate(270) translate(-36 17)">
    <use xlink:href="#rim"/>
    <path pointer-events="none" fill="none" stroke="white" stroke-width="1.5" d="M0,-3.0v7 M-2.5,-0.5L0,-3.0L2.5,-0.5"/>
  </g>
  <g id="resetDef">
    <use xlink:href="#rim2" fill="#404040"><set attributeName="fill" to="#808080" begin="reset.mouseover" end="reset.mouseout"/></use>
  </g>
</defs>
<script type="application/ecmascript">
var viewWidth = 1577;
var viewHeight = 302;
var sectionId = 'dynsection-0';
</script>
<script type="application/ecmascript" xlink:href="svg.min.js"/>
<svg id="graph" class="graph">
<g id="viewport">
<title>command.c</title>
<!-- Node1 -->
<g id="Node000001" class="node">
<title>Node1</title>
<g id="a_Node000001"><a xlink:title=" ">
<polygon fill="#999999" stroke="#666666" points="969,-294 895,-294 895,-275 969,-275 969,-294"/>
<text text-anchor="middle" x="932" y="-282" font-family="Helvetica,sans-Serif" font-size="10.00">command.c</text>
</a>
</g>
</g>
<!-- Node2 -->
<g id="Node000002" class="node">
<title>Node2</title>
<g id="a_Node000002"><a xlink:href="stdlib_8h.html" target="_top" xlink:title=" ">
<polygon fill="white" stroke="#666666" points="76,-239 0,-239 0,-220 76,-220 76,-239"/>
<text text-anchor="middle" x="38" y="-227" font-family="Helvetica,sans-Serif" font-size="10.00">pico/stdlib.h</text>
</a>
</g>
</g>
<!-- Node1&#45;&gt;Node2 -->
<g id="edge1_Node000001_Node000002" class="edge">
<title>Node1&#45;&gt;Node2</title>
<g id="a_edge1_Node000001_Node000002"><a xlink:title=" ">
<path fill="none" stroke="#63b8ff" d="M894.71,-283.22C777.29,-281.98 404.67,-275.35 86.5,-239.01"/>
<polygon fill="#63b8ff" stroke="#63b8ff" points="86.49,-235.49 76.16,-237.82 85.69,-242.44 86.49,-235.49"/>
</a>
</g>
</g>
<!-- Node3 -->
<g id="Node000003" class="node">
<title>Node3</title>
<g id="a_Node000003"><a xlink:title=" ">
<polygon fill="#e0e0e0" stroke="#999999" points="147.5,-239 94.5,-239 94.5,-220 147.5,-220 147.5,-239"/>
<text text-anchor="middle" x="121" y="-227" font-family="Helvetica,sans-Serif" font-size="10.00">string.h</text>
</a>
</g>
</g>
<!-- Node1&#45;&gt;Node3 -->
<g id="edge2_Node000001_Node000003" class="edge">
<title>Node1&#45;&gt;Node3</title>
<g id="a_edge2_Node000001_Node000003"><a xlink:title=" ">
<path fill="none" stroke="#63b8ff" d="M894.95,-283.28C783.57,-282.21 442.11,-275.93 162,-239 160.7,-238.83 159.39,-238.64 158.06,-238.44"/>
<polygon fill="#63b8ff" stroke="#63b8ff" points="158.26,-234.92 147.81,-236.65 157.06,-241.82 158.26,-234.92"/>
</a>
</g>
</g>
<!-- Node4 -->
<g id="Node000004" class="node">
<title>Node4</title>
<g id="a_Node000004"><a xlink:title=" ">
<polygon fill="#e0e0e0" stroke="#999999" points="368.5,-19 315.5,-19 315.5,0 368.5,0 368.5,-19"/>
<text text-anchor="middle" x="342" y="-7" font-family="Helvetica,sans-Serif" font-size="10.00">stdint.h</text>
</a>
</g>
</g>
<!-- Node1&#45;&gt;Node4 -->
<g id="edge3_Node000001_Node000004" class="edge">
<title>Node1&#45;&gt;Node4</title>
<g id="a_edge3_Node000001_Node000004"><a xlink:title=" ">
<path fill="none" stroke="#63b8ff" d="M894.77,-282.15C742.6,-276.17 176,-248.96 176,-175.5 176,-175.5 176,-175.5 176,-118.5 176,-57.19 256.54,-28.89 305.42,-17.36"/>
<polygon fill="#63b8ff" stroke="#63b8ff" points="306.33,-20.75 315.33,-15.15 304.81,-13.91 306.33,-20.75"/>
</a>
</g>
</g>
<!-- Node5 -->
<g id="Node000005" class="node">
<title>Node5</title>
<g id="a_Node000005"><a xlink:title=" ">
<polygon fill="#e0e0e0" stroke="#999999" points="597,-19 535,-19 535,0 597,0 597,-19"/>
<text text-anchor="middle" x="566" y="-7" font-family="Helvetica,sans-Serif" font-size="10.00">stdbool.h</text>
</a>
</g>
</g>
<!-- Node1&#45;&gt;Node5 -->
<g id="edge4_Node000001_Node000005" class="edge">
<title>Node1&#45;&gt;Node5</title>
<g id="a_edge4_Node000001_Node000005"><a xlink:title=" ">
<path fill="none" stroke="#63b8ff" d="M894.99,-279.19C860.6,-273.87 808.97,-262.49 770,-239 677.04,-182.98 602.64,-71.04 576.29,-27.96"/>
<polygon fill="#63b8ff" stroke="#63b8ff" points="579.18,-25.97 571.02,-19.2 573.18,-29.58 579.18,-25.97"/>
</a>
</g>
</g>
<!-- Node6 -->
<g id="Node000006" class="node">
<title>Node6</title>
<g id="a_Node000006"><a xlink:title=" ">
<polygon fill="#e0e0e0" stroke="#999999" points="867.5,-19 794.5,-19 794.5,0 867.5,0 867.5,-19"/>
<text text-anchor="middle" x="831" y="-7" font-family="Helvetica,sans-Serif" font-size="10.00">FreeRTOS.h</text>
</a>
</g>
</g>
<!-- Node1&#45;&gt;Node6 -->
<g id="edge5_Node000001_Node000006" class="edge">
<title>Node1&#45;&gt;Node6</title>
<g id="a_edge5_Node000001_Node000006"><a xlink:title=" ">
<path fill="none" stroke="#63b8ff" d="M931.93,-274.81C931.44,-248.77 927.86,-169.45 903,-110 889.38,-77.42 863.24,-45.34 846.49,-26.76"/>
<polygon fill="#63b8ff" stroke="#63b8ff" points="848.88,-24.2 839.53,-19.22 843.74,-28.94 848.88,-24.2"/>
</a>
</g>
</g>
<!-- Node7 -->
<g id="Node000007" class="node">
<title>Node7</title>
<g id="a_Node000007"><a xlink:title=" ">
<polygon fill="#e0e0e0" stroke="#999999" points="1071.5,-19 1024.5,-19 1024.5,0 1071.5,0 1071.5,-19"/>
<text text-anchor="middle" x="1048" y="-7" font-family="Helvetica,sans-Serif" font-size="10.00">task.h</text>
</a>
</g>
</g>
<!-- Node1&#45;&gt;Node7 -->
<g id="edge6_Node000001_Node000007" class="edge">
<title>Node1&#45;&gt;Node7</title>
<g id="a_edge6_Node000001_Node000007"><a xlink:title=" ">
<path fill="none" stroke="#63b8ff" d="M967.06,-274.93C988,-268.22 1013.78,-256.95 1031,-239 1043.46,-226.01 1086.02,-118.24 1094,-74 1095.5,-65.69 1097.3,-62.77 1094,-55 1089.02,-43.25 1079.25,-33.09 1069.99,-25.45"/>
<polygon fill="#63b8ff" stroke="#63b8ff" points="1071.85,-22.47 1061.78,-19.18 1067.6,-28.03 1071.85,-22.47"/>
</a>
</g>
</g>
<!-- Node8 -->
<g id="Node000008" class="node">
<title>Node8</title>
<g id="a_Node000008"><a xlink:title=" ">
<polygon fill="#e0e0e0" stroke="#999999" points="1182,-19 1120,-19 1120,0 1182,0 1182,-19"/>
<text text-anchor="middle" x="1151" y="-7" font-family="Helvetica,sans-Serif" font-size="10.00">semphr.h</text>
</a>
</g>
</g>
<!-- Node1&#45;&gt;Node8 -->
<g id="edge7_Node000001_Node000008" class="edge">
<title>Node1&#45;&gt;Node8</title>
<g id="a_edge7_Node000001_Node000008"><a xlink:title=" ">
<path fill="none" stroke="#63b8ff" d="M969.22,-277.21C994.67,-271.21 1027.7,-259.87 1050,-239 1113.66,-179.41 1139.62,-72.5 1147.83,-29.34"/>
<polygon fill="#63b8ff" stroke="#63b8ff" points="1151.3,-29.83 1149.63,-19.37 1144.41,-28.59 1151.3,-29.83"/>
</a>
</g>
</g>
<!-- Node9 -->
<g id="Node000009" class="node">
<title>Node9</title>
<g id="a_Node000009"><a xlink:title=" ">
<polygon fill="#e0e0e0" stroke="#999999" points="958,-19 902,-19 902,0 958,0 958,-19"/>
<text text-anchor="middle" x="930" y="-7" font-family="Helvetica,sans-Serif" font-size="10.00">queue.h</text>
</a>
</g>
</g>
<!-- Node1&#45;&gt;Node9 -->
<g id="edge8_Node000001_Node000009" class="edge">
<title>Node1&#45;&gt;Node9</title>
<g id="a_edge8_Node000001_Node000009"><a xlink:title=" ">
<path fill="none" stroke="#63b8ff" d="M944.21,-274.86C954.35,-266.88 968.04,-254.01 974,-239 995.17,-185.72 985.85,-166.1 974,-110 967.58,-79.63 951.27,-47.24 940.41,-27.95"/>
<polygon fill="#63b8ff" stroke="#63b8ff" points="943.35,-26.04 935.31,-19.13 937.29,-29.54 943.35,-26.04"/>
</a>
</g>
</g>
<!-- Node10 -->
<g id="Node000010" class="node">
<title>Node10</title>
<g id="a_Node000010"><a xlink:href="gse_8h.html" target="_top" xlink:title="Handles hardline communication over USB.">
<polygon fill="white" stroke="#666666" points="1247.5,-239 1204.5,-239 1204.5,-220 1247.5,-220 1247.5,-239"/>
<text text-anchor="middle" x="1226" y="-227" font-family="Helvetica,sans-Serif" font-size="10.00">gse.h</text>
</a>
</g>
</g>
<!-- Node1&#45;&gt;Node10 -->
<g id="edge9_Node000001_Node000010" class="edge">
<title>Node1&#45;&gt;Node10</title>
<g id="a_edge9_Node000001_Node000010"><a xlink:title=" ">
<path fill="none" stroke="#63b8ff" d="M969.3,-277.8C1019.59,-269.95 1111.84,-254.95 1190,-239 1191.46,-238.7 1192.94,-238.39 1194.44,-238.07"/>
<polygon fill="#63b8ff" stroke="#63b8ff" points="1195.36,-241.45 1204.35,-235.84 1193.82,-234.62 1195.36,-241.45"/>
</a>
</g>
</g>
<!-- Node11 -->
<g id="Node000011" class="node">
<title>Node11</title>
<g id="a_Node000011"><a xlink:href="log_8h.html" target="_top" xlink:title=" ">
<polygon fill="white" stroke="#666666" points="844.5,-239 803.5,-239 803.5,-220 844.5,-220 844.5,-239"/>
<text text-anchor="middle" x="824" y="-227" font-family="Helvetica,sans-Serif" font-size="10.00">log.h</text>
</a>
</g>
</g>
<!-- Node1&#45;&gt;Node11 -->
<g id="edge10_Node000001_Node000011" class="edge">
<title>Node1&#45;&gt;Node11</title>
<g id="a_edge10_Node000001_Node000011"><a xlink:title=" ">
<path fill="none" stroke="#63b8ff" d="M914.65,-274.98C897.43,-266.54 870.8,-253.47 850.85,-243.68"/>
<polygon fill="#63b8ff" stroke="#63b8ff" points="852.19,-240.43 841.67,-239.17 849.1,-246.72 852.19,-240.43"/>
</a>
</g>
</g>
<!-- Node13 -->
<g id="Node000013" class="node">
<title>Node13</title>
<g id="a_Node000013"><a xlink:href="file__downlink_8h.html" target="_top" xlink:title=" ">
<polygon fill="white" stroke="#666666" points="893.5,-129 802.5,-129 802.5,-110 893.5,-110 893.5,-129"/>
<text text-anchor="middle" x="848" y="-117" font-family="Helvetica,sans-Serif" font-size="10.00">file_downlink.h</text>
</a>
</g>
</g>
<!-- Node1&#45;&gt;Node13 -->
<g id="edge57_Node000001_Node000013" class="edge">
<title>Node1&#45;&gt;Node13</title>
<g id="a_edge57_Node000001_Node000013"><a xlink:title=" ">
<path fill="none" stroke="#63b8ff" d="M927.48,-274.74C914.21,-248.98 875.12,-173.13 857.19,-138.33"/>
<polygon fill="#63b8ff" stroke="#63b8ff" points="860.23,-136.59 852.54,-129.31 854.01,-139.8 860.23,-136.59"/>
</a>
</g>
</g>
<!-- Node14 -->
<g id="Node000014" class="node">
<title>Node14</title>
<g id="a_Node000014"><a xlink:href="filesystem_8h.html" target="_top" xlink:title="Handles file system operations and management.">
<polygon fill="white" stroke="#666666" points="726.5,-74 649.5,-74 649.5,-55 726.5,-55 726.5,-74"/>
<text text-anchor="middle" x="688" y="-62" font-family="Helvetica,sans-Serif" font-size="10.00">filesystem.h</text>
</a>
</g>
</g>
<!-- Node1&#45;&gt;Node14 -->
<g id="edge31_Node000001_Node000014" class="edge">
<title>Node1&#45;&gt;Node14</title>
<g id="a_edge31_Node000001_Node000014"><a xlink:title=" ">
<path fill="none" stroke="#63b8ff" d="M894.96,-278.63C865.34,-273.17 824.1,-261.87 795,-239 741.04,-196.59 707.43,-118.86 694.3,-83.67"/>
<polygon fill="#63b8ff" stroke="#63b8ff" points="697.57,-82.42 690.89,-74.2 690.99,-84.79 697.57,-82.42"/>
</a>
</g>
</g>
<!-- Node18 -->
<g id="Node000018" class="node">
<title>Node18</title>
<g id="a_Node000018"><a xlink:href="heartbeat__job_8h.html" target="_top" xlink:title=" ">
<polygon fill="white" stroke="#666666" points="1358.5,-239 1265.5,-239 1265.5,-220 1358.5,-220 1358.5,-239"/>
<text text-anchor="middle" x="1312" y="-227" font-family="Helvetica,sans-Serif" font-size="10.00">heartbeat_job.h</text>
</a>
</g>
</g>
<!-- Node1&#45;&gt;Node18 -->
<g id="edge28_Node000001_Node000018" class="edge">
<title>Node1&#45;&gt;Node18</title>
<g id="a_edge28_Node000001_Node000018"><a xlink:title=" ">
<path fill="none" stroke="#63b8ff" d="M969.07,-278.64C1027.68,-270.9 1145.57,-255.15 1255.56,-239.19"/>
<polygon fill="#63b8ff" stroke="#63b8ff" points="1256.11,-242.65 1265.5,-237.74 1255.1,-235.72 1256.11,-242.65"/>
</a>
</g>
</g>
<!-- Node19 -->
<g id="Node000019" class="node">
<title>Node19</title>
<g id="a_Node000019"><a xlink:href="steve_8h.html" target="_top" xlink:title="S.T.E.V.E (Scheduler Task for Executing Vital Events).">
<polygon fill="white" stroke="#666666" points="1219.5,-184 1166.5,-184 1166.5,-165 1219.5,-165 1219.5,-184"/>
<text text-anchor="middle" x="1193" y="-172" font-family="Helvetica,sans-Serif" font-size="10.00">steve.h</text>
</a>
</g>
</g>
<!-- Node1&#45;&gt;Node19 -->
<g id="edge29_Node000001_Node000019" class="edge">
<title>Node1&#45;&gt;Node19</title>
<g id="a_edge29_Node000001_Node000019"><a xlink:title=" ">
<path fill="none" stroke="#63b8ff" d="M969.18,-279.5C1023.87,-273.04 1122.7,-258.98 1152,-239 1168.23,-227.93 1179.49,-208.1 1186.05,-193.54"/>
<polygon fill="#63b8ff" stroke="#63b8ff" points="1189.39,-194.64 1190,-184.06 1182.93,-191.95 1189.39,-194.64"/>
</a>
</g>
</g>
<!-- Node20 -->
<g id="Node000020" class="node">
<title>Node20</title>
<g id="a_Node000020"><a xlink:title=" ">
<polygon fill="#e0e0e0" stroke="#999999" points="1427,-239 1377,-239 1377,-220 1427,-220 1427,-239"/>
<text text-anchor="middle" x="1402" y="-227" font-family="Helvetica,sans-Serif" font-size="10.00">radio.h</text>
</a>
</g>
</g>
<!-- Node1&#45;&gt;Node20 -->
<g id="edge32_Node000001_Node000020" class="edge">
<title>Node1&#45;&gt;Node20</title>
<g id="a_edge32_Node000001_Node000020"><a xlink:title=" ">
<path fill="none" stroke="#63b8ff" d="M969.28,-281.5C1043.3,-277.14 1214.12,-265.15 1366.81,-238.96"/>
<polygon fill="#63b8ff" stroke="#63b8ff" points="1367.58,-242.38 1376.84,-237.22 1366.38,-235.48 1367.58,-242.38"/>
</a>
</g>
</g>
<!-- Node21 -->
<g id="Node000021" class="node">
<title>Node21</title>
<g id="a_Node000021"><a xlink:href="command_8h.html" target="_top" xlink:title="Handles decoding and triggering responses to received commands.">
<polygon fill="white" stroke="#666666" points="485,-184 411,-184 411,-165 485,-165 485,-184"/>
<text text-anchor="middle" x="448" y="-172" font-family="Helvetica,sans-Serif" font-size="10.00">command.h</text>
</a>
</g>
</g>
<!-- Node1&#45;&gt;Node21 -->
<g id="edge33_Node000001_Node000021" class="edge">
<title>Node1&#45;&gt;Node21</title>
<g id="a_edge33_Node000001_Node000021"><a xlink:title=" ">
<path fill="none" stroke="#63b8ff" d="M894.8,-282.3C790.34,-278.6 499.82,-265.96 467,-239 453.95,-228.28 449.62,-208.98 448.3,-194.46"/>
<polygon fill="#63b8ff" stroke="#63b8ff" points="451.77,-193.91 447.78,-184.1 444.78,-194.26 451.77,-193.91"/>
</a>
</g>
</g>
<!-- Node24 -->
<g id="Node000024" class="node">
<title>Node24</title>
<g id="a_Node000024"><a xlink:href="set__rtc__job_8h.html" target="_top" xlink:title=" ">
<polygon fill="white" stroke="#666666" points="587.5,-184 508.5,-184 508.5,-165 587.5,-165 587.5,-184"/>
<text text-anchor="middle" x="548" y="-172" font-family="Helvetica,sans-Serif" font-size="10.00">set_rtc_job.h</text>
</a>
</g>
</g>
<!-- Node1&#45;&gt;Node24 -->
<g id="edge40_Node000001_Node000024" class="edge">
<title>Node1&#45;&gt;Node24</title>
<g id="a_edge40_Node000001_Node000024"><a xlink:title=" ">
<path fill="none" stroke="#63b8ff" d="M894.82,-281.49C820.7,-276.98 657.42,-264.42 608,-239 587.23,-228.31 569.73,-207.5 559.09,-192.61"/>
<polygon fill="#63b8ff" stroke="#63b8ff" points="561.91,-190.54 553.38,-184.25 556.13,-194.48 561.91,-190.54"/>
</a>
</g>
</g>
<!-- Node27 -->
<g id="Node000027" class="node">
<title>Node27</title>
<g id="a_Node000027"><a xlink:href="antenna__deploy__job_8h.html" target="_top" xlink:title=" ">
<polygon fill="white" stroke="#666666" points="1569,-239 1445,-239 1445,-220 1569,-220 1569,-239"/>
<text text-anchor="middle" x="1507" y="-227" font-family="Helvetica,sans-Serif" font-size="10.00">antenna_deploy_job.h</text>
</a>
</g>
</g>
<!-- Node1&#45;&gt;Node27 -->
<g id="edge49_Node000001_Node000027" class="edge">
<title>Node1&#45;&gt;Node27</title>
<g id="a_edge49_Node000001_Node000027"><a xlink:title=" ">
<path fill="none" stroke="#63b8ff" d="M969.03,-280.63C1050.95,-274.19 1253.97,-257.75 1434.72,-239.1"/>
<polygon fill="#63b8ff" stroke="#63b8ff" points="1435.09,-242.59 1444.67,-238.07 1434.37,-235.62 1435.09,-242.59"/>
</a>
</g>
</g>
<!-- Node28 -->
<g id="Node000028" class="node">
<title>Node28</title>
<g id="a_Node000028"><a xlink:href="watchdog_8h.html" target="_top" xlink:title="Watchdog management functions.">
<polygon fill="white" stroke="#666666" points="1084.5,-74 1011.5,-74 1011.5,-55 1084.5,-55 1084.5,-74"/>
<text text-anchor="middle" x="1048" y="-62" font-family="Helvetica,sans-Serif" font-size="10.00">watchdog.h</text>
</a>
</g>
</g>
<!-- Node1&#45;&gt;Node28 -->
<g id="edge50_Node000001_Node000028" class="edge">
<title>Node1&#45;&gt;Node28</title>
<g id="a_edge50_Node000001_Node000028"><a xlink:title=" ">
<path fill="none" stroke="#63b8ff" d="M959.43,-274.97C977.1,-268.05 999.1,-256.54 1012,-239 1046.72,-191.77 1049.7,-118.74 1048.95,-84.47"/>
<polygon fill="#63b8ff" stroke="#63b8ff" points="1052.44,-83.94 1048.58,-74.07 1045.44,-84.19 1052.44,-83.94"/>
</a>
</g>
</g>
<!-- Node29 -->
<g id="Node000029" class="node">
<title>Node29</title>
<g id="a_Node000029"><a xlink:href="hb__tlm__log_8h.html" target="_top" xlink:title=" ">
<polygon fill="white" stroke="#666666" points="556,-239 476,-239 476,-220 556,-220 556,-239"/>
<text text-anchor="middle" x="516" y="-227" font-family="Helvetica,sans-Serif" font-size="10.00">hb_tlm_log.h</text>
</a>
</g>
</g>
<!-- Node1&#45;&gt;Node29 -->
<g id="edge53_Node000001_Node000029" class="edge">
<title>Node1&#45;&gt;Node29</title>
<g id="a_edge53_Node000001_Node000029"><a xlink:title=" ">
<path fill="none" stroke="#63b8ff" d="M894.95,-279.36C829.35,-271.95 688.52,-255.61 570,-239 568.73,-238.82 567.45,-238.64 566.15,-238.45"/>
<polygon fill="#63b8ff" stroke="#63b8ff" points="566.49,-234.96 556.08,-236.96 565.46,-241.89 566.49,-234.96"/>
</a>
</g>
</g>
<!-- Node11&#45;&gt;Node5 -->
<g id="edge27_Node000011_Node000005" class="edge">
<title>Node11&#45;&gt;Node5</title>
<g id="a_edge27_Node000011_Node000005"><a xlink:title=" ">
<path fill="none" stroke="#63b8ff" d="M813.59,-219.83C785.5,-196.41 705.83,-129.88 640,-74 620.8,-57.7 598.92,-38.89 583.96,-26"/>
<polygon fill="#63b8ff" stroke="#63b8ff" points="585.88,-23.04 576.02,-19.16 581.31,-28.34 585.88,-23.04"/>
</a>
</g>
</g>
<!-- Node12 -->
<g id="Node000012" class="node">
<title>Node12</title>
<g id="a_Node000012"><a xlink:href="telemetry_8h.html" target="_top" xlink:title="Functions for packaging and queuing telemetry packets for sending.">
<polygon fill="white" stroke="#666666" points="860,-184 788,-184 788,-165 860,-165 860,-184"/>
<text text-anchor="middle" x="824" y="-172" font-family="Helvetica,sans-Serif" font-size="10.00">telemetry.h</text>
</a>
</g>
</g>
<!-- Node11&#45;&gt;Node12 -->
<g id="edge11_Node000011_Node000012" class="edge">
<title>Node11&#45;&gt;Node12</title>
<g id="a_edge11_Node000011_Node000012"><a xlink:title=" ">
<path fill="none" stroke="#63b8ff" d="M824,-219.75C824,-212.8 824,-202.85 824,-194.13"/>
<polygon fill="#63b8ff" stroke="#63b8ff" points="827.5,-194.09 824,-184.09 820.5,-194.09 827.5,-194.09"/>
</a>
</g>
</g>
<!-- Node12&#45;&gt;Node6 -->
<g id="edge12_Node000012_Node000006" class="edge">
<title>Node12&#45;&gt;Node6</title>
<g id="a_edge12_Node000012_Node000006"><a xlink:title=" ">
<path fill="none" stroke="#63b8ff" d="M815.79,-164.8C808.46,-156.38 798.25,-142.9 794,-129 791.53,-120.92 792.5,-118.31 794,-110 799.34,-80.33 812.96,-47.94 822.11,-28.43"/>
<polygon fill="#63b8ff" stroke="#63b8ff" points="825.34,-29.78 826.52,-19.25 819.03,-26.74 825.34,-29.78"/>
</a>
</g>
</g>
<!-- Node12&#45;&gt;Node9 -->
<g id="edge13_Node000012_Node000009" class="edge">
<title>Node12&#45;&gt;Node9</title>
<g id="a_edge13_Node000012_Node000009"><a xlink:title=" ">
<path fill="none" stroke="#63b8ff" d="M850.6,-164.95C868.07,-157.98 890.01,-146.41 903,-129 925.21,-99.23 929.64,-54.37 930.24,-29.25"/>
<polygon fill="#63b8ff" stroke="#63b8ff" points="933.74,-29.24 930.3,-19.22 926.74,-29.2 933.74,-29.24"/>
</a>
</g>
</g>
<!-- Node12&#45;&gt;Node13 -->
<g id="edge14_Node000012_Node000013" class="edge">
<title>Node12&#45;&gt;Node13</title>
<g id="a_edge14_Node000012_Node000013"><a xlink:title=" ">
<path fill="none" stroke="#63b8ff" d="M827.96,-164.75C831.21,-157.57 835.92,-147.18 839.95,-138.27"/>
<polygon fill="#63b8ff" stroke="#63b8ff" points="843.17,-139.64 844.11,-129.09 836.8,-136.75 843.17,-139.64"/>
</a>
</g>
</g>
<!-- Node13&#45;&gt;Node6 -->
<g id="edge15_Node000013_Node000006" class="edge">
<title>Node13&#45;&gt;Node6</title>
<g id="a_edge15_Node000013_Node000006"><a xlink:title=" ">
<path fill="none" stroke="#63b8ff" d="M846.61,-109.66C843.86,-92.17 837.66,-52.8 833.96,-29.27"/>
<polygon fill="#63b8ff" stroke="#63b8ff" points="837.38,-28.49 832.36,-19.16 830.46,-29.58 837.38,-28.49"/>
</a>
</g>
</g>
<!-- Node13&#45;&gt;Node9 -->
<g id="edge16_Node000013_Node000009" class="edge">
<title>Node13&#45;&gt;Node9</title>
<g id="a_edge16_Node000013_Node000009"><a xlink:title=" ">
<path fill="none" stroke="#63b8ff" d="M854.71,-109.66C868.35,-91.69 899.52,-50.64 917.18,-27.38"/>
<polygon fill="#63b8ff" stroke="#63b8ff" points="920.17,-29.24 923.43,-19.16 914.59,-25.01 920.17,-29.24"/>
</a>
</g>
</g>
<!-- Node13&#45;&gt;Node14 -->
<g id="edge17_Node000013_Node000014" class="edge">
<title>Node13&#45;&gt;Node14</title>
<g id="a_edge17_Node000013_Node000014"><a xlink:title=" ">
<path fill="none" stroke="#63b8ff" d="M822.29,-109.98C795.55,-101.13 753.47,-87.19 723.55,-77.28"/>
<polygon fill="#63b8ff" stroke="#63b8ff" points="724.5,-73.9 713.91,-74.08 722.3,-80.55 724.5,-73.9"/>
</a>
</g>
</g>
<!-- Node14&#45;&gt;Node4 -->
<g id="edge25_Node000014_Node000004" class="edge">
<title>Node14&#45;&gt;Node4</title>
<g id="a_edge25_Node000014_Node000004"><a xlink:title=" ">
<path fill="none" stroke="#63b8ff" d="M649.32,-57.57C582.03,-47.27 444.34,-26.18 378.56,-16.1"/>
<polygon fill="#63b8ff" stroke="#63b8ff" points="379.06,-12.64 368.64,-14.58 378,-19.56 379.06,-12.64"/>
</a>
</g>
</g>
<!-- Node14&#45;&gt;Node5 -->
<g id="edge26_Node000014_Node000005" class="edge">
<title>Node14&#45;&gt;Node5</title>
<g id="a_edge26_Node000014_Node000005"><a xlink:title=" ">
<path fill="none" stroke="#63b8ff" d="M668.4,-54.98C648.68,-46.42 618.05,-33.11 595.42,-23.28"/>
<polygon fill="#63b8ff" stroke="#63b8ff" points="596.52,-19.94 585.96,-19.17 593.74,-26.37 596.52,-19.94"/>
</a>
</g>
</g>
<!-- Node14&#45;&gt;Node6 -->
<g id="edge18_Node000014_Node000006" class="edge">
<title>Node14&#45;&gt;Node6</title>
<g id="a_edge18_Node000014_Node000006"><a xlink:title=" ">
<path fill="none" stroke="#63b8ff" d="M710.98,-54.98C734.5,-46.27 771.29,-32.63 797.94,-22.75"/>
<polygon fill="#63b8ff" stroke="#63b8ff" points="799.45,-25.93 807.61,-19.17 797.01,-19.36 799.45,-25.93"/>
</a>
</g>
</g>
<!-- Node14&#45;&gt;Node7 -->
<g id="edge20_Node000014_Node000007" class="edge">
<title>Node14&#45;&gt;Node7</title>
<g id="a_edge20_Node000014_Node000007"><a xlink:title=" ">
<path fill="none" stroke="#63b8ff" d="M726.53,-57.83C797.29,-47.41 946.86,-25.39 1014.06,-15.5"/>
<polygon fill="#63b8ff" stroke="#63b8ff" points="1014.73,-18.94 1024.11,-14.02 1013.71,-12.01 1014.73,-18.94"/>
</a>
</g>
</g>
<!-- Node14&#45;&gt;Node8 -->
<g id="edge23_Node000014_Node000008" class="edge">
<title>Node14&#45;&gt;Node8</title>
<g id="a_edge23_Node000014_Node000008"><a xlink:title=" ">
<path fill="none" stroke="#63b8ff" d="M726.5,-59.24C796.9,-51.44 951.08,-34.24 1081,-19 1090.38,-17.9 1100.45,-16.69 1109.96,-15.54"/>
<polygon fill="#63b8ff" stroke="#63b8ff" points="1110.49,-19 1119.99,-14.32 1109.64,-12.05 1110.49,-19"/>
</a>
</g>
</g>
<!-- Node14&#45;&gt;Node9 -->
<g id="edge19_Node000014_Node000009" class="edge">
<title>Node14&#45;&gt;Node9</title>
<g id="a_edge19_Node000014_Node000009"><a xlink:title=" ">
<path fill="none" stroke="#63b8ff" d="M726.61,-55.04C771.92,-45.12 846.59,-28.77 891.74,-18.88"/>
<polygon fill="#63b8ff" stroke="#63b8ff" points="892.71,-22.25 901.73,-16.69 891.21,-15.41 892.71,-22.25"/>
</a>
</g>
</g>
<!-- Node15 -->
<g id="Node000015" class="node">
<title>Node15</title>
<g id="a_Node000015"><a xlink:title=" ">
<polygon fill="#e0e0e0" stroke="#999999" points="647,-19 615,-19 615,0 647,0 647,-19"/>
<text text-anchor="middle" x="631" y="-7" font-family="Helvetica,sans-Serif" font-size="10.00">ff.h</text>
</a>
</g>
</g>
<!-- Node14&#45;&gt;Node15 -->
<g id="edge21_Node000014_Node000015" class="edge">
<title>Node14&#45;&gt;Node15</title>
<g id="a_edge21_Node000014_Node000015"><a xlink:title=" ">
<path fill="none" stroke="#63b8ff" d="M678.84,-54.98C670.5,-47.23 657.97,-35.58 647.82,-26.14"/>
<polygon fill="#63b8ff" stroke="#63b8ff" points="650.03,-23.42 640.32,-19.17 645.26,-28.54 650.03,-23.42"/>
</a>
</g>
</g>
<!-- Node16 -->
<g id="Node000016" class="node">
<title>Node16</title>
<g id="a_Node000016"><a xlink:href="filesystem__errors_8h.html" target="_top" xlink:title=" ">
<polygon fill="white" stroke="#666666" points="776.5,-19 665.5,-19 665.5,0 776.5,0 776.5,-19"/>
<text text-anchor="middle" x="721" y="-7" font-family="Helvetica,sans-Serif" font-size="10.00">filesystem_errors.h</text>
</a>
</g>
</g>
<!-- Node14&#45;&gt;Node16 -->
<g id="edge22_Node000014_Node000016" class="edge">
<title>Node14&#45;&gt;Node16</title>
<g id="a_edge22_Node000014_Node000016"><a xlink:title=" ">
<path fill="none" stroke="#63b8ff" d="M693.45,-54.75C698.01,-47.42 704.67,-36.73 710.29,-27.7"/>
<polygon fill="#63b8ff" stroke="#63b8ff" points="713.34,-29.43 715.65,-19.09 707.4,-25.73 713.34,-29.43"/>
</a>
</g>
</g>
<!-- Node17 -->
<g id="Node000017" class="node">
<title>Node17</title>
<g id="a_Node000017"><a xlink:title=" ">
<polygon fill="#e0e0e0" stroke="#999999" points="509,-19 453,-19 453,0 509,0 509,-19"/>
<text text-anchor="middle" x="481" y="-7" font-family="Helvetica,sans-Serif" font-size="10.00">stddef.h</text>
</a>
</g>
</g>
<!-- Node14&#45;&gt;Node17 -->
<g id="edge24_Node000014_Node000017" class="edge">
<title>Node14&#45;&gt;Node17</title>
<g id="a_edge24_Node000014_Node000017"><a xlink:title=" ">
<path fill="none" stroke="#63b8ff" d="M654.74,-54.98C617.71,-45.5 557.96,-30.2 519.08,-20.25"/>
<polygon fill="#63b8ff" stroke="#63b8ff" points="519.74,-16.81 509.19,-17.72 518.01,-23.59 519.74,-16.81"/>
</a>
</g>
</g>
<!-- Node19&#45;&gt;Node8 -->
<g id="edge30_Node000019_Node000008" class="edge">
<title>Node19&#45;&gt;Node8</title>
<g id="a_edge30_Node000019_Node000008"><a xlink:title=" ">
<path fill="none" stroke="#63b8ff" d="M1191.18,-164.82C1187,-145.16 1176.21,-95.76 1165,-55 1162.64,-46.41 1159.72,-36.99 1157.16,-29.03"/>
<polygon fill="#63b8ff" stroke="#63b8ff" points="1160.42,-27.72 1153.98,-19.31 1153.76,-29.9 1160.42,-27.72"/>
</a>
</g>
</g>
<!-- Node21&#45;&gt;Node4 -->
<g id="edge34_Node000021_Node000004" class="edge">
<title>Node21&#45;&gt;Node4</title>
<g id="a_edge34_Node000021_Node000004"><a xlink:title=" ">
<path fill="none" stroke="#63b8ff" d="M410.77,-169.47C364.06,-163.56 288,-150.8 271,-129 244.02,-94.4 291.86,-48.74 321.36,-25.49"/>
<polygon fill="#63b8ff" stroke="#63b8ff" points="323.65,-28.15 329.47,-19.29 319.4,-22.58 323.65,-28.15"/>
</a>
</g>
</g>
<!-- Node22 -->
<g id="Node000022" class="node">
<title>Node22</title>
<g id="a_Node000022"><a xlink:title=" ">
<polygon fill="#e0e0e0" stroke="#999999" points="366,-129 280,-129 280,-110 366,-110 366,-129"/>
<text text-anchor="middle" x="323" y="-117" font-family="Helvetica,sans-Serif" font-size="10.00">spacepacket.h</text>
</a>
</g>
</g>
<!-- Node21&#45;&gt;Node22 -->
<g id="edge35_Node000021_Node000022" class="edge">
<title>Node21&#45;&gt;Node22</title>
<g id="a_edge35_Node000021_Node000022"><a xlink:title=" ">
<path fill="none" stroke="#63b8ff" d="M427.92,-164.98C407.63,-156.38 376.04,-142.99 352.83,-133.15"/>
<polygon fill="#63b8ff" stroke="#63b8ff" points="354.02,-129.85 343.45,-129.17 351.29,-136.3 354.02,-129.85"/>
</a>
</g>
</g>
<!-- Node23 -->
<g id="Node000023" class="node">
<title>Node23</title>
<g id="a_Node000023"><a xlink:href="user__auth_8h.html" target="_top" xlink:title=" ">
<polygon fill="white" stroke="#666666" points="594,-129 520,-129 520,-110 594,-110 594,-129"/>
<text text-anchor="middle" x="557" y="-117" font-family="Helvetica,sans-Serif" font-size="10.00">user_auth.h</text>
</a>
</g>
</g>
<!-- Node21&#45;&gt;Node23 -->
<g id="edge36_Node000021_Node000023" class="edge">
<title>Node21&#45;&gt;Node23</title>
<g id="a_edge36_Node000021_Node000023"><a xlink:title=" ">
<path fill="none" stroke="#63b8ff" d="M465.51,-164.98C482.97,-156.5 510.01,-143.35 530.17,-133.54"/>
<polygon fill="#63b8ff" stroke="#63b8ff" points="531.71,-136.69 539.17,-129.17 528.64,-130.4 531.71,-136.69"/>
</a>
</g>
</g>
<!-- Node23&#45;&gt;Node4 -->
<g id="edge38_Node000023_Node000004" class="edge">
<title>Node23&#45;&gt;Node4</title>
<g id="a_edge38_Node000023_Node000004"><a xlink:title=" ">
<path fill="none" stroke="#63b8ff" d="M519.72,-110.72C490.79,-103.72 450.3,-91.77 418,-74 394.61,-61.13 371.64,-40.52 357.18,-26.29"/>
<polygon fill="#63b8ff" stroke="#63b8ff" points="359.6,-23.76 350.08,-19.12 354.63,-28.69 359.6,-23.76"/>
</a>
</g>
</g>
<!-- Node23&#45;&gt;Node5 -->
<g id="edge37_Node000023_Node000005" class="edge">
<title>Node23&#45;&gt;Node5</title>
<g id="a_edge37_Node000023_Node000005"><a xlink:title=" ">
<path fill="none" stroke="#63b8ff" d="M557.74,-109.66C559.19,-92.17 562.47,-52.8 564.44,-29.27"/>
<polygon fill="#63b8ff" stroke="#63b8ff" points="567.94,-29.41 565.28,-19.16 560.96,-28.83 567.94,-29.41"/>
</a>
</g>
</g>
<!-- Node23&#45;&gt;Node14 -->
<g id="edge39_Node000023_Node000014" class="edge">
<title>Node23&#45;&gt;Node14</title>
<g id="a_edge39_Node000023_Node000014"><a xlink:title=" ">
<path fill="none" stroke="#63b8ff" d="M578.05,-109.98C599.41,-101.34 632.7,-87.87 657.06,-78.02"/>
<polygon fill="#63b8ff" stroke="#63b8ff" points="658.61,-81.17 666.57,-74.17 655.99,-74.68 658.61,-81.17"/>
</a>
</g>
</g>
<!-- Node24&#45;&gt;Node4 -->
<g id="edge41_Node000024_Node000004" class="edge">
<title>Node24&#45;&gt;Node4</title>
<g id="a_edge41_Node000024_Node000004"><a xlink:title=" ">
<path fill="none" stroke="#63b8ff" d="M508.3,-166.27C480,-159.78 441.99,-148.24 413,-129 385.97,-111.06 381.47,-101.95 365,-74 356.63,-59.79 350.51,-42.03 346.7,-28.91"/>
<polygon fill="#63b8ff" stroke="#63b8ff" points="350.05,-27.89 344.04,-19.16 343.3,-29.73 350.05,-27.89"/>
</a>
</g>
</g>
<!-- Node24&#45;&gt;Node6 -->
<g id="edge48_Node000024_Node000006" class="edge">
<title>Node24&#45;&gt;Node6</title>
<g id="a_edge48_Node000024_Node000006"><a xlink:title=" ">
<path fill="none" stroke="#63b8ff" d="M565.7,-164.89C599.41,-148.33 674.95,-110.43 736,-74 762.47,-58.2 791.81,-38.19 810.78,-24.9"/>
<polygon fill="#63b8ff" stroke="#63b8ff" points="812.8,-27.75 818.96,-19.13 808.77,-22.03 812.8,-27.75"/>
</a>
</g>
</g>
<!-- Node25 -->
<g id="Node000025" class="node">
<title>Node25</title>
<g id="a_Node000025"><a xlink:href="rtc__ds3231_8h.html" target="_top" xlink:title="DS3231 Real Time Clock Driver.">
<polygon fill="white" stroke="#666666" points="501.5,-129 422.5,-129 422.5,-110 501.5,-110 501.5,-129"/>
<text text-anchor="middle" x="462" y="-117" font-family="Helvetica,sans-Serif" font-size="10.00">rtc_ds3231.h</text>
</a>
</g>
</g>
<!-- Node24&#45;&gt;Node25 -->
<g id="edge42_Node000024_Node000025" class="edge">
<title>Node24&#45;&gt;Node25</title>
<g id="a_edge42_Node000024_Node000025"><a xlink:title=" ">
<path fill="none" stroke="#63b8ff" d="M534.18,-164.98C520.85,-156.77 500.42,-144.18 484.69,-134.49"/>
<polygon fill="#63b8ff" stroke="#63b8ff" points="486.42,-131.44 476.07,-129.17 482.75,-137.4 486.42,-131.44"/>
</a>
</g>
</g>
<!-- Node25&#45;&gt;Node4 -->
<g id="edge47_Node000025_Node000004" class="edge">
<title>Node25&#45;&gt;Node4</title>
<g id="a_edge47_Node000025_Node000004"><a xlink:title=" ">
<path fill="none" stroke="#63b8ff" d="M441.71,-109.89C425.16,-102.18 401.84,-89.68 385,-74 370.73,-60.71 358.71,-41.85 351.04,-28.13"/>
<polygon fill="#63b8ff" stroke="#63b8ff" points="354.07,-26.37 346.26,-19.21 347.9,-29.68 354.07,-26.37"/>
</a>
</g>
</g>
<!-- Node26 -->
<g id="Node000026" class="node">
<title>Node26</title>
<g id="a_Node000026"><a xlink:href="simulator_2pico-sdk_2hardware_2i2c_8h.html" target="_top" xlink:title=" ">
<polygon fill="white" stroke="#666666" points="516.5,-74 427.5,-74 427.5,-55 516.5,-55 516.5,-74"/>
<text text-anchor="middle" x="472" y="-62" font-family="Helvetica,sans-Serif" font-size="10.00">hardware/i2c.h</text>
</a>
</g>
</g>
<!-- Node25&#45;&gt;Node26 -->
<g id="edge43_Node000025_Node000026" class="edge">
<title>Node25&#45;&gt;Node26</title>
<g id="a_edge43_Node000025_Node000026"><a xlink:title=" ">
<path fill="none" stroke="#63b8ff" d="M463.65,-109.75C464.96,-102.8 466.84,-92.85 468.48,-84.13"/>
<polygon fill="#63b8ff" stroke="#63b8ff" points="471.96,-84.56 470.38,-74.09 465.09,-83.27 471.96,-84.56"/>
</a>
</g>
</g>
<!-- Node26&#45;&gt;Node4 -->
<g id="edge44_Node000026_Node000004" class="edge">
<title>Node26&#45;&gt;Node4</title>
<g id="a_edge44_Node000026_Node000004"><a xlink:title=" ">
<path fill="none" stroke="#63b8ff" d="M451.11,-54.98C429.92,-46.34 396.87,-32.87 372.7,-23.02"/>
<polygon fill="#63b8ff" stroke="#63b8ff" points="373.85,-19.7 363.27,-19.17 371.21,-26.19 373.85,-19.7"/>
</a>
</g>
</g>
<!-- Node26&#45;&gt;Node5 -->
<g id="edge46_Node000026_Node000005" class="edge">
<title>Node26&#45;&gt;Node5</title>
<g id="a_edge46_Node000026_Node000005"><a xlink:title=" ">
<path fill="none" stroke="#63b8ff" d="M487.1,-54.98C501.82,-46.69 524.42,-33.94 541.67,-24.22"/>
<polygon fill="#63b8ff" stroke="#63b8ff" points="543.63,-27.13 550.62,-19.17 540.19,-21.03 543.63,-27.13"/>
</a>
</g>
</g>
<!-- Node26&#45;&gt;Node17 -->
<g id="edge45_Node000026_Node000017" class="edge">
<title>Node26&#45;&gt;Node17</title>
<g id="a_edge45_Node000026_Node000017"><a xlink:title=" ">
<path fill="none" stroke="#63b8ff" d="M473.49,-54.75C474.67,-47.8 476.36,-37.85 477.84,-29.13"/>
<polygon fill="#63b8ff" stroke="#63b8ff" points="481.32,-29.53 479.54,-19.09 474.42,-28.36 481.32,-29.53"/>
</a>
</g>
</g>
<!-- Node28&#45;&gt;Node6 -->
<g id="edge51_Node000028_Node000006" class="edge">
<title>Node28&#45;&gt;Node6</title>
<g id="a_edge51_Node000028_Node000006"><a xlink:title=" ">
<path fill="none" stroke="#63b8ff" d="M1013.14,-54.98C975.91,-45.89 916.8,-31.46 876.07,-21.51"/>
<polygon fill="#63b8ff" stroke="#63b8ff" points="876.68,-18.05 866.14,-19.08 875.02,-24.85 876.68,-18.05"/>
</a>
</g>
</g>
<!-- Node28&#45;&gt;Node7 -->
<g id="edge52_Node000028_Node000007" class="edge">
<title>Node28&#45;&gt;Node7</title>
<g id="a_edge52_Node000028_Node000007"><a xlink:title=" ">
<path fill="none" stroke="#63b8ff" d="M1048,-54.75C1048,-47.8 1048,-37.85 1048,-29.13"/>
<polygon fill="#63b8ff" stroke="#63b8ff" points="1051.5,-29.09 1048,-19.09 1044.5,-29.09 1051.5,-29.09"/>
</a>
</g>
</g>
<!-- Node29&#45;&gt;Node4 -->
<g id="edge55_Node000029_Node000004" class="edge">
<title>Node29&#45;&gt;Node4</title>
<g id="a_edge55_Node000029_Node000004"><a xlink:title=" ">
<path fill="none" stroke="#63b8ff" d="M475.99,-226.27C417.12,-220.59 308.87,-200.43 260,-129 249.48,-113.62 256.26,-76.36 271,-55 280.53,-41.19 295.9,-30.79 309.9,-23.53"/>
<polygon fill="#63b8ff" stroke="#63b8ff" points="311.8,-26.5 319.28,-19 308.75,-20.19 311.8,-26.5"/>
</a>
</g>
</g>
<!-- Node29&#45;&gt;Node12 -->
<g id="edge54_Node000029_Node000012" class="edge">
<title>Node29&#45;&gt;Node12</title>
<g id="a_edge54_Node000029_Node000012"><a xlink:title=" ">
<path fill="none" stroke="#63b8ff" d="M556.27,-221.57C613.3,-211.76 717.35,-193.85 777.57,-183.49"/>
<polygon fill="#63b8ff" stroke="#63b8ff" points="778.3,-186.92 787.56,-181.77 777.11,-180.02 778.3,-186.92"/>
</a>
</g>
</g>
<!-- Node29&#45;&gt;Node21 -->
<g id="edge56_Node000029_Node000021" class="edge">
<title>Node29&#45;&gt;Node21</title>
<g id="a_edge56_Node000029_Node000021"><a xlink:title=" ">
<path fill="none" stroke="#63b8ff" d="M505.07,-219.98C494.92,-212.07 479.58,-200.11 467.35,-190.58"/>
<polygon fill="#63b8ff" stroke="#63b8ff" points="469.16,-187.56 459.12,-184.17 464.86,-193.08 469.16,-187.56"/>
</a>
</g>
</g>
</g>
</svg>

<g id="navigator" transform="translate(0 0)" fill="#404254">
  <rect fill="#f2f5e9" fill-opacity="0.5" stroke="#606060" stroke-width=".5" x="0" y="0" width="60" height="60"/>
  <use id="zoomplus" xlink:href="#zoomPlus" x="17" y="9" onmousedown="handleZoom(evt,'in')"/>
  <use id="zoomminus" xlink:href="#zoomMin" x="42" y="9" onmousedown="handleZoom(evt,'out')"/>
  <use id="reset" xlink:href="#resetDef" x="30" y="36" onmousedown="handleReset()"/>
   <use id="arrowup" xlink:href="#arrowUp" x="0" y="0" onmousedown="handlePan(0,-1)"/>
  <use id="arrowright" xlink:href="#arrowRight" x="0" y="0" onmousedown="handlePan(1,0)"/>
  <use id="arrowdown" xlink:href="#arrowDown" x="0" y="0" onmousedown="handlePan(0,1)"/>
  <use id="arrowleft" xlink:href="#arrowLeft" x="0" y="0" onmousedown="handlePan(-1,0)"/>
</g>
<svg viewBox="0 0 15 15" width="100%" height="30px" preserveAspectRatio="xMaxYMin meet">
 <g id="arrow_out" transform="scale(0.3 0.3)">
  <a xlink:href="command_8c__incl_org.svg" target="_base">
   <rect id="button" ry="5" rx="5" y="6" x="6" height="38" width="38"
        fill="#f2f5e9" fill-opacity="0.5" stroke="#606060" stroke-width="1.0"/>
   <path id="arrow"
     d="M 11.500037,31.436501 C 11.940474,20.09759 22.043105,11.32322 32.158766,21.979434 L 37.068811,17.246167 C 37.068811,17.246167 37.088388,32 37.088388,32 L 22.160133,31.978069 C 22.160133,31.978069 26.997745,27.140456 26.997745,27.140456 C 18.528582,18.264221 13.291696,25.230495 11.500037,31.436501 z"
     style="fill:#404040;"/>
  </a>
 </g>
</svg>

<style type='text/css'>
<![CDATA[
[data-mouse-over-selected='false'] { opacity: 0.7; }
[data-mouse-over-selected='true']  { opacity: 1.0; }
]]>
</style>
<script type="application/ecmascript"><![CDATA[
document.addEventListener('DOMContentLoaded', (event) => {
  highlightEdges();
  highlightAdjacentNodes();
});
]]></script>
</svg>
