<?xml version="1.0" encoding="UTF-8" standalone="no"?>
<!DOCTYPE svg PUBLIC "-//W3C//DTD SVG 1.1//EN"
 "http://www.w3.org/Graphics/SVG/1.1/DTD/svg11.dtd">
<!-- Generated by graphviz version 2.43.0 (0)
 -->
<!-- Title: main Pages: 1 -->
<svg width="204pt" height="224pt"
 viewBox="0.00 0.00 204.00 224.00" xmlns="http://www.w3.org/2000/svg" xmlns:xlink="http://www.w3.org/1999/xlink">

<svg id="main" version="1.1" xmlns="http://www.w3.org/2000/svg" xmlns:xlink="http://www.w3.org/1999/xlink" xml:space="preserve">

<style type="text/css"><![CDATA[
.node, .edge {opacity: 0.7;}
.node.selected, .edge.selected {opacity: 1;}
.edge:hover path { stroke: red; }
.edge:hover polygon { stroke: red; fill: red; }
]]></style>
<script type="application/ecmascript" xlink:href="svg.min.js"/>
<svg id="graph" class="graph">
<g id="graph0" class="graph" transform="scale(1 1) rotate(0) translate(4 220)">
<title>main</title>
<g id="clust1" class="cluster">
<title>clusterdir_5c982d53a68cdbcd421152b4020263a9</title>
<g id="a_clust1"><a xlink:href="dir_5c982d53a68cdbcd421152b4020263a9.html" target="_top">
<polygon fill="#edf0f7" stroke="#404040" stroke-width="2" points="8,-8 8,-208 188,-208 188,-8 8,-8"/>
</a>
</g>
</g>
<!-- dir_5c982d53a68cdbcd421152b4020263a9 -->
<g id="node1" class="node">
<title>dir_5c982d53a68cdbcd421152b4020263a9</title>
<text text-anchor="middle" x="159" y="-188" font-family="Helvetica,sans-Serif" font-size="10.00">main</text>
</g>
<!-- dir_ce9acbebd20a964a9fb527ea0a00b86e -->
<g id="node2" class="node">
<title>dir_ce9acbebd20a964a9fb527ea0a00b86e</title>
<g id="a_node2"><a xlink:href="dir_ce9acbebd20a964a9fb527ea0a00b86e.html" target="_top" xlink:title="drivers">
<polygon fill="#a2b4d6" stroke="#404040" points="120,-200 70,-200 70,-181 120,-181 120,-200"/>
<text text-anchor="middle" x="95" y="-188" font-family="Helvetica,sans-Serif" font-size="10.00">drivers</text>
</a>
</g>
</g>
<!-- dir_420f87287d5a5fc6f35b7971ed84ed3f -->
<g id="node3" class="node">
<title>dir_420f87287d5a5fc6f35b7971ed84ed3f</title>
<g id="a_node3"><a xlink:href="dir_420f87287d5a5fc6f35b7971ed84ed3f.html" target="_top" xlink:title="simulator">
<polygon fill="#a2b4d6" stroke="#404040" points="155.5,-35 92.5,-35 92.5,-16 155.5,-16 155.5,-35"/>
<text text-anchor="middle" x="124" y="-23" font-family="Helvetica,sans-Serif" font-size="10.00">simulator</text>
</a>
</g>
</g>
<!-- dir_ce9acbebd20a964a9fb527ea0a00b86e&#45;&gt;dir_420f87287d5a5fc6f35b7971ed84ed3f -->
<g id="edge1" class="edge">
<title>dir_ce9acbebd20a964a9fb527ea0a00b86e&#45;&gt;dir_420f87287d5a5fc6f35b7971ed84ed3f</title>
<g id="a_edge1"><a xlink:href="dir_000003_000021.html" target="_top">
<path fill="none" stroke="#63b8ff" d="M95.98,-180.75C101.03,-172.3 110.9,-158.79 115,-145 125.12,-110.93 121.58,-68.89 120.98,-45.14"/>
<polygon fill="#63b8ff" stroke="#63b8ff" points="124.48,-45.07 120.99,-35.07 117.48,-45.07 124.48,-45.07"/>
</a>
</g>
<g id="a_edge1&#45;headlabel"><a xlink:href="dir_000003_000021.html" target="_top" xlink:title="24">
<text text-anchor="middle" x="127.31" y="-46.17" font-family="Helvetica,sans-Serif" font-size="10.00" fill="#63b8ff">24</text>
</a>
</g>
</g>
<!-- dir_f18bcf57bbcb015d680a06f545708a64 -->
<g id="node6" class="node">
<title>dir_f18bcf57bbcb015d680a06f545708a64</title>
<g id="a_node6"><a xlink:href="dir_f18bcf57bbcb015d680a06f545708a64.html" target="_top" xlink:title="utilities">
<polygon fill="#a2b4d6" stroke="#404040" points="109.5,-145 56.5,-145 56.5,-126 109.5,-126 109.5,-145"/>
<text text-anchor="middle" x="83" y="-133" font-family="Helvetica,sans-Serif" font-size="10.00">utilities</text>
</a>
</g>
</g>
<!-- dir_ce9acbebd20a964a9fb527ea0a00b86e&#45;&gt;dir_f18bcf57bbcb015d680a06f545708a64 -->
<g id="edge2" class="edge">
<title>dir_ce9acbebd20a964a9fb527ea0a00b86e&#45;&gt;dir_f18bcf57bbcb015d680a06f545708a64</title>
<g id="a_edge2"><a xlink:href="dir_000003_000034.html" target="_top">
<path fill="none" stroke="#63b8ff" d="M93.02,-180.75C91.43,-173.72 89.14,-163.62 87.15,-154.84"/>
<polygon fill="#63b8ff" stroke="#63b8ff" points="90.57,-154.07 84.94,-145.09 83.74,-155.62 90.57,-154.07"/>
</a>
</g>
<g id="a_edge2&#45;headlabel"><a xlink:href="dir_000003_000034.html" target="_top" xlink:title="8">
<text text-anchor="middle" x="94.13" y="-154.45" font-family="Helvetica,sans-Serif" font-size="10.00" fill="#63b8ff">8</text>
</a>
</g>
</g>
<!-- dir_420f87287d5a5fc6f35b7971ed84ed3f&#45;&gt;dir_ce9acbebd20a964a9fb527ea0a00b86e -->
<g id="edge3" class="edge">
<title>dir_420f87287d5a5fc6f35b7971ed84ed3f&#45;&gt;dir_ce9acbebd20a964a9fb527ea0a00b86e</title>
<g id="a_edge3"><a xlink:href="dir_000021_000003.html" target="_top">
<path fill="none" stroke="#63b8ff" d="M130.27,-35.07C138.06,-54.92 144.78,-105.36 133,-145 129.96,-155.23 123.74,-165.31 117,-173.29"/>
<polygon fill="#63b8ff" stroke="#63b8ff" points="114.26,-171.09 109.91,-180.75 119.33,-175.91 114.26,-171.09"/>
</a>
</g>
<g id="a_edge3&#45;headlabel"><a xlink:href="dir_000021_000003.html" target="_top" xlink:title="1">
<text text-anchor="middle" x="114.68" y="-164.03" font-family="Helvetica,sans-Serif" font-size="10.00" fill="#63b8ff">1</text>
</a>
</g>
</g>
<!-- dir_76dd8867a16d204aa2db31affc56d971 -->
<g id="node4" class="node">
<title>dir_76dd8867a16d204aa2db31affc56d971</title>
<g id="a_node4"><a xlink:href="dir_76dd8867a16d204aa2db31affc56d971.html" target="_top" xlink:title="tasks">
<polygon fill="#a2b4d6" stroke="#404040" points="104.5,-90 61.5,-90 61.5,-71 104.5,-71 104.5,-90"/>
<text text-anchor="middle" x="83" y="-78" font-family="Helvetica,sans-Serif" font-size="10.00">tasks</text>
</a>
</g>
</g>
<!-- dir_76dd8867a16d204aa2db31affc56d971&#45;&gt;dir_ce9acbebd20a964a9fb527ea0a00b86e -->
<g id="edge5" class="edge">
<title>dir_76dd8867a16d204aa2db31affc56d971&#45;&gt;dir_ce9acbebd20a964a9fb527ea0a00b86e</title>
<g id="a_edge5"><a xlink:href="dir_000029_000003.html" target="_top">
<path fill="none" stroke="#63b8ff" d="M93.16,-90.19C101.9,-98.4 113.9,-111.57 119,-126 124.63,-141.91 116.45,-159.9 108.15,-172.65"/>
<polygon fill="#63b8ff" stroke="#63b8ff" points="105.22,-170.74 102.28,-180.92 110.92,-174.79 105.22,-170.74"/>
</a>
</g>
<g id="a_edge5&#45;headlabel"><a xlink:href="dir_000029_000003.html" target="_top" xlink:title="13">
<text text-anchor="middle" x="104.98" y="-163.66" font-family="Helvetica,sans-Serif" font-size="10.00" fill="#63b8ff">13</text>
</a>
</g>
</g>
<!-- dir_76dd8867a16d204aa2db31affc56d971&#45;&gt;dir_420f87287d5a5fc6f35b7971ed84ed3f -->
<g id="edge4" class="edge">
<title>dir_76dd8867a16d204aa2db31affc56d971&#45;&gt;dir_420f87287d5a5fc6f35b7971ed84ed3f</title>
<g id="a_edge4"><a xlink:href="dir_000029_000021.html" target="_top">
<path fill="none" stroke="#63b8ff" d="M89.77,-70.75C95.56,-63.26 104.06,-52.28 111.14,-43.13"/>
<polygon fill="#63b8ff" stroke="#63b8ff" points="114.01,-45.14 117.36,-35.09 108.47,-40.86 114.01,-45.14"/>
</a>
</g>
<g id="a_edge4&#45;headlabel"><a xlink:href="dir_000029_000021.html" target="_top" xlink:title="11">
<text text-anchor="middle" x="114.05" y="-47.22" font-family="Helvetica,sans-Serif" font-size="10.00" fill="#63b8ff">11</text>
</a>
</g>
</g>
<!-- dir_76dd8867a16d204aa2db31affc56d971&#45;&gt;dir_f18bcf57bbcb015d680a06f545708a64 -->
<g id="edge6" class="edge">
<title>dir_76dd8867a16d204aa2db31affc56d971&#45;&gt;dir_f18bcf57bbcb015d680a06f545708a64</title>
<g id="a_edge6"><a xlink:href="dir_000029_000034.html" target="_top">
<path fill="none" stroke="#63b8ff" d="M88.13,-90.09C89.64,-96.99 90.09,-106.93 89.49,-115.66"/>
<polygon fill="#63b8ff" stroke="#63b8ff" points="86,-115.38 88.17,-125.75 92.94,-116.29 86,-115.38"/>
</a>
</g>
<g id="a_edge6&#45;headlabel"><a xlink:href="dir_000029_000034.html" target="_top" xlink:title="18">
<text text-anchor="middle" x="83.65" y="-108.94" font-family="Helvetica,sans-Serif" font-size="10.00" fill="#63b8ff">18</text>
</a>
</g>
</g>
<!-- dir_ac05129b11b5a537cec6bd85d4a1e765 -->
<g id="node5" class="node">
<title>dir_ac05129b11b5a537cec6bd85d4a1e765</title>
<g id="a_node5"><a xlink:href="dir_ac05129b11b5a537cec6bd85d4a1e765.html" target="_top" xlink:title="test">
<polygon fill="#a2b4d6" stroke="#404040" points="51.5,-200 16.5,-200 16.5,-181 51.5,-181 51.5,-200"/>
<text text-anchor="middle" x="34" y="-188" font-family="Helvetica,sans-Serif" font-size="10.00">test</text>
</a>
</g>
</g>
<!-- dir_ac05129b11b5a537cec6bd85d4a1e765&#45;&gt;dir_420f87287d5a5fc6f35b7971ed84ed3f -->
<g id="edge7" class="edge">
<title>dir_ac05129b11b5a537cec6bd85d4a1e765&#45;&gt;dir_420f87287d5a5fc6f35b7971ed84ed3f</title>
<g id="a_edge7"><a xlink:href="dir_000031_000021.html" target="_top">
<path fill="none" stroke="#63b8ff" d="M32.83,-180.71C30.5,-159.49 27.5,-104.75 53,-71 63.26,-57.42 78.97,-46.96 93.01,-39.6"/>
<polygon fill="#63b8ff" stroke="#63b8ff" points="94.94,-42.55 102.37,-35 91.85,-36.27 94.94,-42.55"/>
</a>
</g>
<g id="a_edge7&#45;headlabel"><a xlink:href="dir_000031_000021.html" target="_top" xlink:title="1">
<text text-anchor="middle" x="92.96" y="-44.18" font-family="Helvetica,sans-Serif" font-size="10.00" fill="#63b8ff">1</text>
</a>
</g>
</g>
<!-- dir_ac05129b11b5a537cec6bd85d4a1e765&#45;&gt;dir_76dd8867a16d204aa2db31affc56d971 -->
<g id="edge8" class="edge">
<title>dir_ac05129b11b5a537cec6bd85d4a1e765&#45;&gt;dir_76dd8867a16d204aa2db31affc56d971</title>
<g id="a_edge8"><a xlink:href="dir_000031_000029.html" target="_top">
<path fill="none" stroke="#63b8ff" d="M34.67,-180.89C35.92,-168.3 39.31,-144.37 48,-126 52.87,-115.71 60.49,-105.63 67.38,-97.67"/>
<polygon fill="#63b8ff" stroke="#63b8ff" points="70.01,-99.97 74.15,-90.22 64.83,-95.26 70.01,-99.97"/>
</a>
</g>
<g id="a_edge8&#45;headlabel"><a xlink:href="dir_000031_000029.html" target="_top" xlink:title="7">
<text text-anchor="middle" x="69.7" y="-102.04" font-family="Helvetica,sans-Serif" font-size="10.00" fill="#63b8ff">7</text>
</a>
</g>
</g>
<!-- dir_ac05129b11b5a537cec6bd85d4a1e765&#45;&gt;dir_f18bcf57bbcb015d680a06f545708a64 -->
<g id="edge9" class="edge">
<title>dir_ac05129b11b5a537cec6bd85d4a1e765&#45;&gt;dir_f18bcf57bbcb015d680a06f545708a64</title>
<g id="a_edge9"><a xlink:href="dir_000031_000034.html" target="_top">
<path fill="none" stroke="#63b8ff" d="M42.09,-180.75C49.16,-173.11 59.59,-161.82 68.15,-152.56"/>
<polygon fill="#63b8ff" stroke="#63b8ff" points="70.84,-154.81 75.06,-145.09 65.7,-150.06 70.84,-154.81"/>
</a>
</g>
<g id="a_edge9&#45;headlabel"><a xlink:href="dir_000031_000034.html" target="_top" xlink:title="3">
<text text-anchor="middle" x="70.49" y="-156.87" font-family="Helvetica,sans-Serif" font-size="10.00" fill="#63b8ff">3</text>
</a>
</g>
</g>
<!-- dir_f18bcf57bbcb015d680a06f545708a64&#45;&gt;dir_420f87287d5a5fc6f35b7971ed84ed3f -->
<g id="edge10" class="edge">
<title>dir_f18bcf57bbcb015d680a06f545708a64&#45;&gt;dir_420f87287d5a5fc6f35b7971ed84ed3f</title>
<g id="a_edge10"><a xlink:href="dir_000034_000021.html" target="_top">
<path fill="none" stroke="#63b8ff" d="M90.71,-126C97.94,-117.52 108.45,-103.8 114,-90 119.8,-75.58 122.25,-58.07 123.27,-45.09"/>
<polygon fill="#63b8ff" stroke="#63b8ff" points="126.77,-45.23 123.86,-35.04 119.78,-44.82 126.77,-45.23"/>
</a>
</g>
<g id="a_edge10&#45;headlabel"><a xlink:href="dir_000034_000021.html" target="_top" xlink:title="3">
<text text-anchor="middle" x="129.4" y="-46.48" font-family="Helvetica,sans-Serif" font-size="10.00" fill="#63b8ff">3</text>
</a>
</g>
</g>
<!-- dir_f18bcf57bbcb015d680a06f545708a64&#45;&gt;dir_76dd8867a16d204aa2db31affc56d971 -->
<g id="edge11" class="edge">
<title>dir_f18bcf57bbcb015d680a06f545708a64&#45;&gt;dir_76dd8867a16d204aa2db31affc56d971</title>
<g id="a_edge11"><a xlink:href="dir_000034_000029.html" target="_top">
<path fill="none" stroke="#63b8ff" d="M77.83,-125.75C76.34,-118.8 75.9,-108.85 76.52,-100.13"/>
<polygon fill="#63b8ff" stroke="#63b8ff" points="80.01,-100.47 77.87,-90.09 73.07,-99.53 80.01,-100.47"/>
</a>
</g>
<g id="a_edge11&#45;headlabel"><a xlink:href="dir_000034_000029.html" target="_top" xlink:title="6">
<text text-anchor="middle" x="82.34" y="-101.91" font-family="Helvetica,sans-Serif" font-size="10.00" fill="#63b8ff">6</text>
</a>
</g>
</g>
</g>
</svg>
</svg>

<style type='text/css'>
<![CDATA[
[data-mouse-over-selected='false'] { opacity: 0.7; }
[data-mouse-over-selected='true']  { opacity: 1.0; }
]]>
</style>
<script type="application/ecmascript"><![CDATA[
document.addEventListener('DOMContentLoaded', (event) => {
  highlightEdges();
  highlightAdjacentNodes();
});
]]></script>
</svg>
