<?xml version="1.0" encoding="UTF-8" standalone="no"?>
<!DOCTYPE svg PUBLIC "-//W3C//DTD SVG 1.1//EN"
 "http://www.w3.org/Graphics/SVG/1.1/DTD/svg11.dtd">
<!-- Generated by graphviz version 2.43.0 (0)
 -->
<!-- Title: tasks Pages: 1 -->
<svg width="552pt" height="361pt"
 viewBox="0.00 0.00 552.00 361.00" xmlns="http://www.w3.org/2000/svg" xmlns:xlink="http://www.w3.org/1999/xlink">
<g id="graph0" class="graph" transform="scale(1 1) rotate(0) translate(4 357)">
<title>tasks</title>
<g id="clust1" class="cluster">
<title>clusterdir_5c982d53a68cdbcd421152b4020263a9</title>
<g id="a_clust1"><a xlink:href="dir_5c982d53a68cdbcd421152b4020263a9.html" target="_top" xlink:title="main">
<polygon fill="#edf0f7" stroke="#404040" stroke-dasharray="5,2" points="8,-8 8,-345 536,-345 536,-8 8,-8"/>
<text text-anchor="middle" x="272" y="-333" font-family="Helvetica,sans-Serif" font-size="10.00">main</text>
</a>
</g>
</g>
<g id="clust2" class="cluster">
<title>clusterdir_76dd8867a16d204aa2db31affc56d971</title>
<g id="a_clust2"><a xlink:href="dir_76dd8867a16d204aa2db31affc56d971.html" target="_top">
<polygon fill="#edf0f7" stroke="#404040" stroke-width="2" points="78,-63 78,-318 396,-318 396,-63 78,-63"/>
</a>
</g>
</g>
<!-- dir_420f87287d5a5fc6f35b7971ed84ed3f -->
<g id="node1" class="node">
<title>dir_420f87287d5a5fc6f35b7971ed84ed3f</title>
<g id="a_node1"><a xlink:href="dir_420f87287d5a5fc6f35b7971ed84ed3f.html" target="_top" xlink:title="simulator">
<polygon fill="#a2b4d6" stroke="red" points="438.5,-35 375.5,-35 375.5,-16 438.5,-16 438.5,-35"/>
<text text-anchor="middle" x="407" y="-23" font-family="Helvetica,sans-Serif" font-size="10.00">simulator</text>
</a>
</g>
</g>
<!-- dir_ce9acbebd20a964a9fb527ea0a00b86e -->
<g id="node2" class="node">
<title>dir_ce9acbebd20a964a9fb527ea0a00b86e</title>
<g id="a_node2"><a xlink:href="dir_ce9acbebd20a964a9fb527ea0a00b86e.html" target="_top" xlink:title="drivers">
<polygon fill="#a2b4d6" stroke="red" points="517,-35 467,-35 467,-16 517,-16 517,-35"/>
<text text-anchor="middle" x="492" y="-23" font-family="Helvetica,sans-Serif" font-size="10.00">drivers</text>
</a>
</g>
</g>
<!-- dir_f18bcf57bbcb015d680a06f545708a64 -->
<g id="node3" class="node">
<title>dir_f18bcf57bbcb015d680a06f545708a64</title>
<g id="a_node3"><a xlink:href="dir_f18bcf57bbcb015d680a06f545708a64.html" target="_top" xlink:title="utilities">
<polygon fill="#a2b4d6" stroke="red" points="123.5,-35 70.5,-35 70.5,-16 123.5,-16 123.5,-35"/>
<text text-anchor="middle" x="97" y="-23" font-family="Helvetica,sans-Serif" font-size="10.00">utilities</text>
</a>
</g>
</g>
<!-- dir_76dd8867a16d204aa2db31affc56d971 -->
<g id="node4" class="node">
<title>dir_76dd8867a16d204aa2db31affc56d971</title>
<text text-anchor="middle" x="366" y="-298" font-family="Helvetica,sans-Serif" font-size="10.00">tasks</text>
</g>
<!-- dir_d700705468c111f3e92036fb5a08c541 -->
<g id="node5" class="node">
<title>dir_d700705468c111f3e92036fb5a08c541</title>
<g id="a_node5"><a xlink:href="dir_d700705468c111f3e92036fb5a08c541.html" target="_top" xlink:title="command">
<polygon fill="#a2b4d6" stroke="#404040" points="347.5,-255 282.5,-255 282.5,-236 347.5,-236 347.5,-255"/>
<text text-anchor="middle" x="315" y="-243" font-family="Helvetica,sans-Serif" font-size="10.00">command</text>
</a>
</g>
</g>
<!-- dir_d700705468c111f3e92036fb5a08c541&#45;&gt;dir_420f87287d5a5fc6f35b7971ed84ed3f -->
<g id="edge3" class="edge">
<title>dir_d700705468c111f3e92036fb5a08c541&#45;&gt;dir_420f87287d5a5fc6f35b7971ed84ed3f</title>
<g id="a_edge3"><a xlink:href="dir_000000_000023.html" target="_top">
<path fill="none" stroke="#63b8ff" d="M321.03,-235.94C336.63,-213.33 378.47,-149.61 398,-90 402.72,-75.58 404.97,-58.52 406.04,-45.71"/>
<polygon fill="#63b8ff" stroke="#63b8ff" points="409.55,-45.56 406.72,-35.35 402.57,-45.09 409.55,-45.56"/>
</a>
</g>
<g id="a_edge3&#45;headlabel"><a xlink:href="dir_000000_000023.html" target="_top" xlink:title="1">
<text text-anchor="middle" x="412.15" y="-46.83" font-family="Helvetica,sans-Serif" font-size="10.00" fill="#63b8ff">1</text>
</a>
</g>
</g>
<!-- dir_d700705468c111f3e92036fb5a08c541&#45;&gt;dir_f18bcf57bbcb015d680a06f545708a64 -->
<g id="edge7" class="edge">
<title>dir_d700705468c111f3e92036fb5a08c541&#45;&gt;dir_f18bcf57bbcb015d680a06f545708a64</title>
<g id="a_edge7"><a xlink:href="dir_000000_000036.html" target="_top">
<path fill="none" stroke="#63b8ff" d="M282.32,-236.98C280.86,-236.65 279.41,-236.32 278,-236 206.49,-219.79 177.28,-241.74 117,-200 65.05,-164.03 64.65,-124.54 79,-63 80.52,-56.48 83.38,-49.78 86.39,-43.93"/>
<polygon fill="#63b8ff" stroke="#63b8ff" points="89.52,-45.5 91.36,-35.07 83.41,-42.08 89.52,-45.5"/>
</a>
</g>
<g id="a_edge7&#45;headlabel"><a xlink:href="dir_000000_000036.html" target="_top" xlink:title="3">
<text text-anchor="middle" x="90.23" y="-47.53" font-family="Helvetica,sans-Serif" font-size="10.00" fill="#63b8ff">3</text>
</a>
</g>
</g>
<!-- dir_35b10f17c6024418821fe45539f7d1fa -->
<g id="node6" class="node">
<title>dir_35b10f17c6024418821fe45539f7d1fa</title>
<g id="a_node6"><a xlink:href="dir_35b10f17c6024418821fe45539f7d1fa.html" target="_top" xlink:title="file&#45;downlink">
<polygon fill="#a2b4d6" stroke="#404040" points="206,-200 126,-200 126,-181 206,-181 206,-200"/>
<text text-anchor="middle" x="166" y="-188" font-family="Helvetica,sans-Serif" font-size="10.00">file&#45;downlink</text>
</a>
</g>
</g>
<!-- dir_d700705468c111f3e92036fb5a08c541&#45;&gt;dir_35b10f17c6024418821fe45539f7d1fa -->
<g id="edge2" class="edge">
<title>dir_d700705468c111f3e92036fb5a08c541&#45;&gt;dir_35b10f17c6024418821fe45539f7d1fa</title>
<g id="a_edge2"><a xlink:href="dir_000000_000005.html" target="_top">
<path fill="none" stroke="#63b8ff" d="M291.06,-235.98C266.44,-227.23 227.88,-213.51 200.08,-203.62"/>
<polygon fill="#63b8ff" stroke="#63b8ff" points="200.97,-200.22 190.38,-200.17 198.62,-206.82 200.97,-200.22"/>
</a>
</g>
<g id="a_edge2&#45;headlabel"><a xlink:href="dir_000000_000005.html" target="_top" xlink:title="1">
<text text-anchor="middle" x="205.31" y="-196.25" font-family="Helvetica,sans-Serif" font-size="10.00" fill="#63b8ff">1</text>
</a>
</g>
</g>
<!-- dir_e4210f374a3e5cd013f5bf87dcb352bb -->
<g id="node7" class="node">
<title>dir_e4210f374a3e5cd013f5bf87dcb352bb</title>
<g id="a_node7"><a xlink:href="dir_e4210f374a3e5cd013f5bf87dcb352bb.html" target="_top" xlink:title="filesystem">
<polygon fill="#a2b4d6" stroke="#404040" points="204,-145 136,-145 136,-126 204,-126 204,-145"/>
<text text-anchor="middle" x="170" y="-133" font-family="Helvetica,sans-Serif" font-size="10.00">filesystem</text>
</a>
</g>
</g>
<!-- dir_d700705468c111f3e92036fb5a08c541&#45;&gt;dir_e4210f374a3e5cd013f5bf87dcb352bb -->
<g id="edge5" class="edge">
<title>dir_d700705468c111f3e92036fb5a08c541&#45;&gt;dir_e4210f374a3e5cd013f5bf87dcb352bb</title>
<g id="a_edge5"><a xlink:href="dir_000000_000006.html" target="_top">
<path fill="none" stroke="#63b8ff" d="M303.49,-235.98C291.4,-227.03 271.85,-212.54 255,-200 232.6,-183.33 206.93,-164.14 189.71,-151.26"/>
<polygon fill="#63b8ff" stroke="#63b8ff" points="191.64,-148.33 181.54,-145.14 187.45,-153.93 191.64,-148.33"/>
</a>
</g>
<g id="a_edge5&#45;headlabel"><a xlink:href="dir_000000_000006.html" target="_top" xlink:title="1">
<text text-anchor="middle" x="196.22" y="-145.71" font-family="Helvetica,sans-Serif" font-size="10.00" fill="#63b8ff">1</text>
</a>
</g>
</g>
<!-- dir_eab2301a68d140567e746b22d4e0c3b8 -->
<g id="node8" class="node">
<title>dir_eab2301a68d140567e746b22d4e0c3b8</title>
<g id="a_node8"><a xlink:href="dir_eab2301a68d140567e746b22d4e0c3b8.html" target="_top" xlink:title="gse">
<polygon fill="#a2b4d6" stroke="#404040" points="365,-90 331,-90 331,-71 365,-71 365,-90"/>
<text text-anchor="middle" x="348" y="-78" font-family="Helvetica,sans-Serif" font-size="10.00">gse</text>
</a>
</g>
</g>
<!-- dir_d700705468c111f3e92036fb5a08c541&#45;&gt;dir_eab2301a68d140567e746b22d4e0c3b8 -->
<g id="edge6" class="edge">
<title>dir_d700705468c111f3e92036fb5a08c541&#45;&gt;dir_eab2301a68d140567e746b22d4e0c3b8</title>
<g id="a_edge6"><a xlink:href="dir_000000_000009.html" target="_top">
<path fill="none" stroke="#63b8ff" d="M312.2,-235.83C313.91,-227 319.73,-212.82 323,-200 331.81,-165.42 336,-123.86 340.53,-100.28"/>
<polygon fill="#63b8ff" stroke="#63b8ff" points="344.01,-100.78 342.8,-90.25 337.18,-99.23 344.01,-100.78"/>
</a>
</g>
<g id="a_edge6&#45;headlabel"><a xlink:href="dir_000000_000009.html" target="_top" xlink:title="1">
<text text-anchor="middle" x="345.98" y="-102.41" font-family="Helvetica,sans-Serif" font-size="10.00" fill="#63b8ff">1</text>
</a>
</g>
</g>
<!-- dir_43eaeccdd6b29c571d9022b0dcb8cd4e -->
<g id="node11" class="node">
<title>dir_43eaeccdd6b29c571d9022b0dcb8cd4e</title>
<g id="a_node11"><a xlink:href="dir_43eaeccdd6b29c571d9022b0dcb8cd4e.html" target="_top" xlink:title="steve">
<polygon fill="#a2b4d6" stroke="#404040" points="308,-200 264,-200 264,-181 308,-181 308,-200"/>
<text text-anchor="middle" x="286" y="-188" font-family="Helvetica,sans-Serif" font-size="10.00">steve</text>
</a>
</g>
</g>
<!-- dir_d700705468c111f3e92036fb5a08c541&#45;&gt;dir_43eaeccdd6b29c571d9022b0dcb8cd4e -->
<g id="edge4" class="edge">
<title>dir_d700705468c111f3e92036fb5a08c541&#45;&gt;dir_43eaeccdd6b29c571d9022b0dcb8cd4e</title>
<g id="a_edge4"><a xlink:href="dir_000000_000027.html" target="_top">
<path fill="none" stroke="#63b8ff" d="M305.04,-235.75C299.63,-228.65 293.6,-218.4 289.44,-209.56"/>
<polygon fill="#63b8ff" stroke="#63b8ff" points="292.6,-208.02 285.57,-200.09 286.12,-210.67 292.6,-208.02"/>
</a>
</g>
<g id="a_edge4&#45;headlabel"><a xlink:href="dir_000000_000027.html" target="_top" xlink:title="4">
<text text-anchor="middle" x="296.59" y="-207.77" font-family="Helvetica,sans-Serif" font-size="10.00" fill="#63b8ff">4</text>
</a>
</g>
</g>
<!-- dir_22cd7680a4ae9aae1bb38d456a8f3737 -->
<g id="node13" class="node">
<title>dir_22cd7680a4ae9aae1bb38d456a8f3737</title>
<g id="a_node13"><a xlink:href="dir_22cd7680a4ae9aae1bb38d456a8f3737.html" target="_top" xlink:title="watchdog">
<polygon fill="#a2b4d6" stroke="#404040" points="297,-90 233,-90 233,-71 297,-71 297,-90"/>
<text text-anchor="middle" x="265" y="-78" font-family="Helvetica,sans-Serif" font-size="10.00">watchdog</text>
</a>
</g>
</g>
<!-- dir_d700705468c111f3e92036fb5a08c541&#45;&gt;dir_22cd7680a4ae9aae1bb38d456a8f3737 -->
<g id="edge1" class="edge">
<title>dir_d700705468c111f3e92036fb5a08c541&#45;&gt;dir_22cd7680a4ae9aae1bb38d456a8f3737</title>
<g id="a_edge1"><a xlink:href="dir_000000_000037.html" target="_top">
<path fill="none" stroke="#63b8ff" d="M316.19,-235.86C318.58,-215.43 322.21,-163.09 303,-126 297.53,-115.45 289.12,-105.24 281.61,-97.28"/>
<polygon fill="#63b8ff" stroke="#63b8ff" points="284.05,-94.77 274.53,-90.12 279.07,-99.69 284.05,-94.77"/>
</a>
</g>
<g id="a_edge1&#45;headlabel"><a xlink:href="dir_000000_000037.html" target="_top" xlink:title="1">
<text text-anchor="middle" x="288.6" y="-92.83" font-family="Helvetica,sans-Serif" font-size="10.00" fill="#63b8ff">1</text>
</a>
</g>
</g>
<!-- dir_35b10f17c6024418821fe45539f7d1fa&#45;&gt;dir_f18bcf57bbcb015d680a06f545708a64 -->
<g id="edge10" class="edge">
<title>dir_35b10f17c6024418821fe45539f7d1fa&#45;&gt;dir_f18bcf57bbcb015d680a06f545708a64</title>
<g id="a_edge10"><a xlink:href="dir_000005_000036.html" target="_top">
<path fill="none" stroke="#63b8ff" d="M138.71,-180.88C122,-174.03 101.96,-162.62 92,-145 74.24,-113.6 83.13,-69.69 90.51,-45.09"/>
<polygon fill="#63b8ff" stroke="#63b8ff" points="93.94,-45.85 93.69,-35.26 87.28,-43.7 93.94,-45.85"/>
</a>
</g>
<g id="a_edge10&#45;headlabel"><a xlink:href="dir_000005_000036.html" target="_top" xlink:title="2">
<text text-anchor="middle" x="95.53" y="-47.65" font-family="Helvetica,sans-Serif" font-size="10.00" fill="#63b8ff">2</text>
</a>
</g>
</g>
<!-- dir_35b10f17c6024418821fe45539f7d1fa&#45;&gt;dir_e4210f374a3e5cd013f5bf87dcb352bb -->
<g id="edge9" class="edge">
<title>dir_35b10f17c6024418821fe45539f7d1fa&#45;&gt;dir_e4210f374a3e5cd013f5bf87dcb352bb</title>
<g id="a_edge9"><a xlink:href="dir_000005_000006.html" target="_top">
<path fill="none" stroke="#63b8ff" d="M166.66,-180.75C167.18,-173.8 167.94,-163.85 168.59,-155.13"/>
<polygon fill="#63b8ff" stroke="#63b8ff" points="172.09,-155.32 169.35,-145.09 165.11,-154.8 172.09,-155.32"/>
</a>
</g>
<g id="a_edge9&#45;headlabel"><a xlink:href="dir_000005_000006.html" target="_top" xlink:title="1">
<text text-anchor="middle" x="174.65" y="-156.62" font-family="Helvetica,sans-Serif" font-size="10.00" fill="#63b8ff">1</text>
</a>
</g>
</g>
<!-- dir_4f57e902f0118f67b10044df4be31d1c -->
<g id="node12" class="node">
<title>dir_4f57e902f0118f67b10044df4be31d1c</title>
<g id="a_node12"><a xlink:href="dir_4f57e902f0118f67b10044df4be31d1c.html" target="_top" xlink:title="telemetry">
<polygon fill="#a2b4d6" stroke="#404040" points="287.5,-145 222.5,-145 222.5,-126 287.5,-126 287.5,-145"/>
<text text-anchor="middle" x="255" y="-133" font-family="Helvetica,sans-Serif" font-size="10.00">telemetry</text>
</a>
</g>
</g>
<!-- dir_35b10f17c6024418821fe45539f7d1fa&#45;&gt;dir_4f57e902f0118f67b10044df4be31d1c -->
<g id="edge8" class="edge">
<title>dir_35b10f17c6024418821fe45539f7d1fa&#45;&gt;dir_4f57e902f0118f67b10044df4be31d1c</title>
<g id="a_edge8"><a xlink:href="dir_000005_000032.html" target="_top">
<path fill="none" stroke="#63b8ff" d="M175.18,-180.98C187.4,-172.61 208.79,-159.7 226.46,-149.95"/>
<polygon fill="#63b8ff" stroke="#63b8ff" points="228.16,-153.01 235.29,-145.17 224.83,-146.85 228.16,-153.01"/>
</a>
</g>
<g id="a_edge8&#45;headlabel"><a xlink:href="dir_000005_000032.html" target="_top" xlink:title="1">
<text text-anchor="middle" x="226.35" y="-154.71" font-family="Helvetica,sans-Serif" font-size="10.00" fill="#63b8ff">1</text>
</a>
</g>
</g>
<!-- dir_e4210f374a3e5cd013f5bf87dcb352bb&#45;&gt;dir_f18bcf57bbcb015d680a06f545708a64 -->
<g id="edge12" class="edge">
<title>dir_e4210f374a3e5cd013f5bf87dcb352bb&#45;&gt;dir_f18bcf57bbcb015d680a06f545708a64</title>
<g id="a_edge12"><a xlink:href="dir_000006_000036.html" target="_top">
<path fill="none" stroke="#63b8ff" d="M164.03,-125.66C151.94,-107.77 124.38,-67 108.62,-43.69"/>
<polygon fill="#63b8ff" stroke="#63b8ff" points="111.35,-41.48 102.85,-35.16 105.55,-45.4 111.35,-41.48"/>
</a>
</g>
<g id="a_edge12&#45;headlabel"><a xlink:href="dir_000006_000036.html" target="_top" xlink:title="1">
<text text-anchor="middle" x="115.72" y="-40.37" font-family="Helvetica,sans-Serif" font-size="10.00" fill="#63b8ff">1</text>
</a>
</g>
</g>
<!-- dir_e4210f374a3e5cd013f5bf87dcb352bb&#45;&gt;dir_22cd7680a4ae9aae1bb38d456a8f3737 -->
<g id="edge11" class="edge">
<title>dir_e4210f374a3e5cd013f5bf87dcb352bb&#45;&gt;dir_22cd7680a4ae9aae1bb38d456a8f3737</title>
<g id="a_edge11"><a xlink:href="dir_000006_000037.html" target="_top">
<path fill="none" stroke="#63b8ff" d="M185.26,-125.98C200.13,-117.69 222.98,-104.94 240.42,-95.22"/>
<polygon fill="#63b8ff" stroke="#63b8ff" points="242.43,-98.1 249.46,-90.17 239.02,-91.99 242.43,-98.1"/>
</a>
</g>
<g id="a_edge11&#45;headlabel"><a xlink:href="dir_000006_000037.html" target="_top" xlink:title="1">
<text text-anchor="middle" x="240.68" y="-99.83" font-family="Helvetica,sans-Serif" font-size="10.00" fill="#63b8ff">1</text>
</a>
</g>
</g>
<!-- dir_eab2301a68d140567e746b22d4e0c3b8&#45;&gt;dir_420f87287d5a5fc6f35b7971ed84ed3f -->
<g id="edge13" class="edge">
<title>dir_eab2301a68d140567e746b22d4e0c3b8&#45;&gt;dir_420f87287d5a5fc6f35b7971ed84ed3f</title>
<g id="a_edge13"><a xlink:href="dir_000009_000023.html" target="_top">
<path fill="none" stroke="#63b8ff" d="M357.48,-70.98C366.2,-63.15 379.34,-51.34 389.9,-41.86"/>
<polygon fill="#63b8ff" stroke="#63b8ff" points="392.25,-44.46 397.35,-35.17 387.57,-39.25 392.25,-44.46"/>
</a>
</g>
<g id="a_edge13&#45;headlabel"><a xlink:href="dir_000009_000023.html" target="_top" xlink:title="1">
<text text-anchor="middle" x="391.47" y="-46.47" font-family="Helvetica,sans-Serif" font-size="10.00" fill="#63b8ff">1</text>
</a>
</g>
</g>
<!-- dir_eab2301a68d140567e746b22d4e0c3b8&#45;&gt;dir_ce9acbebd20a964a9fb527ea0a00b86e -->
<g id="edge14" class="edge">
<title>dir_eab2301a68d140567e746b22d4e0c3b8&#45;&gt;dir_ce9acbebd20a964a9fb527ea0a00b86e</title>
<g id="a_edge14"><a xlink:href="dir_000009_000003.html" target="_top">
<path fill="none" stroke="#63b8ff" d="M357.3,-70.96C360.78,-68.11 364.88,-65.13 369,-63 397,-48.52 431.62,-38.9 457,-33.18"/>
<polygon fill="#63b8ff" stroke="#63b8ff" points="457.88,-36.58 466.92,-31.04 456.4,-29.73 457.88,-36.58"/>
</a>
</g>
<g id="a_edge14&#45;headlabel"><a xlink:href="dir_000009_000003.html" target="_top" xlink:title="3">
<text text-anchor="middle" x="454.97" y="-37.61" font-family="Helvetica,sans-Serif" font-size="10.00" fill="#63b8ff">3</text>
</a>
</g>
</g>
<!-- dir_eab2301a68d140567e746b22d4e0c3b8&#45;&gt;dir_f18bcf57bbcb015d680a06f545708a64 -->
<g id="edge16" class="edge">
<title>dir_eab2301a68d140567e746b22d4e0c3b8&#45;&gt;dir_f18bcf57bbcb015d680a06f545708a64</title>
<g id="a_edge16"><a xlink:href="dir_000009_000036.html" target="_top">
<path fill="none" stroke="#63b8ff" d="M330.7,-71.79C323.22,-68.7 314.3,-65.33 306,-63 246.83,-46.39 176,-35.93 133.85,-30.65"/>
<polygon fill="#63b8ff" stroke="#63b8ff" points="134.13,-27.16 123.78,-29.42 133.28,-34.11 134.13,-27.16"/>
</a>
</g>
<g id="a_edge16&#45;headlabel"><a xlink:href="dir_000009_000036.html" target="_top" xlink:title="1">
<text text-anchor="middle" x="138.04" y="-22.28" font-family="Helvetica,sans-Serif" font-size="10.00" fill="#63b8ff">1</text>
</a>
</g>
</g>
<!-- dir_eab2301a68d140567e746b22d4e0c3b8&#45;&gt;dir_d700705468c111f3e92036fb5a08c541 -->
<g id="edge15" class="edge">
<title>dir_eab2301a68d140567e746b22d4e0c3b8&#45;&gt;dir_d700705468c111f3e92036fb5a08c541</title>
<g id="a_edge15"><a xlink:href="dir_000009_000000.html" target="_top">
<path fill="none" stroke="#63b8ff" d="M352.22,-90.25C355.25,-110.07 351.25,-159.77 341,-200 338.68,-209.12 335.06,-218.92 330.97,-226.99"/>
<polygon fill="#63b8ff" stroke="#63b8ff" points="327.83,-225.43 325.8,-235.83 333.87,-228.97 327.83,-225.43"/>
</a>
</g>
<g id="a_edge15&#45;headlabel"><a xlink:href="dir_000009_000000.html" target="_top" xlink:title="1">
<text text-anchor="middle" x="327.2" y="-218.39" font-family="Helvetica,sans-Serif" font-size="10.00" fill="#63b8ff">1</text>
</a>
</g>
</g>
<!-- dir_6b9b1723340264dc1e630f920a659643 -->
<g id="node9" class="node">
<title>dir_6b9b1723340264dc1e630f920a659643</title>
<g id="a_node9"><a xlink:href="dir_6b9b1723340264dc1e630f920a659643.html" target="_top" xlink:title="main">
<polygon fill="#a2b4d6" stroke="#404040" points="265.5,-310 224.5,-310 224.5,-291 265.5,-291 265.5,-310"/>
<text text-anchor="middle" x="245" y="-298" font-family="Helvetica,sans-Serif" font-size="10.00">main</text>
</a>
</g>
</g>
<!-- dir_6b9b1723340264dc1e630f920a659643&#45;&gt;dir_420f87287d5a5fc6f35b7971ed84ed3f -->
<g id="edge19" class="edge">
<title>dir_6b9b1723340264dc1e630f920a659643&#45;&gt;dir_420f87287d5a5fc6f35b7971ed84ed3f</title>
<g id="a_edge19"><a xlink:href="dir_000017_000023.html" target="_top">
<path fill="none" stroke="#63b8ff" d="M265.64,-293.08C298.34,-282.74 359.07,-262.77 366,-255 419.8,-194.65 414.46,-88.57 409.63,-45.49"/>
<polygon fill="#63b8ff" stroke="#63b8ff" points="413.07,-44.8 408.36,-35.31 406.12,-45.67 413.07,-44.8"/>
</a>
</g>
<g id="a_edge19&#45;headlabel"><a xlink:href="dir_000017_000023.html" target="_top" xlink:title="2">
<text text-anchor="middle" x="416.33" y="-45.52" font-family="Helvetica,sans-Serif" font-size="10.00" fill="#63b8ff">2</text>
</a>
</g>
</g>
<!-- dir_6b9b1723340264dc1e630f920a659643&#45;&gt;dir_ce9acbebd20a964a9fb527ea0a00b86e -->
<g id="edge22" class="edge">
<title>dir_6b9b1723340264dc1e630f920a659643&#45;&gt;dir_ce9acbebd20a964a9fb527ea0a00b86e</title>
<g id="a_edge22"><a xlink:href="dir_000017_000003.html" target="_top">
<path fill="none" stroke="#63b8ff" d="M265.6,-293.47C300.49,-283.12 368.28,-262.39 377,-255 445.42,-197.02 477.46,-88.31 487.94,-45"/>
<polygon fill="#63b8ff" stroke="#63b8ff" points="491.4,-45.57 490.24,-35.04 484.58,-43.99 491.4,-45.57"/>
</a>
</g>
<g id="a_edge22&#45;headlabel"><a xlink:href="dir_000017_000003.html" target="_top" xlink:title="1">
<text text-anchor="middle" x="493.35" y="-47.21" font-family="Helvetica,sans-Serif" font-size="10.00" fill="#63b8ff">1</text>
</a>
</g>
</g>
<!-- dir_6b9b1723340264dc1e630f920a659643&#45;&gt;dir_f18bcf57bbcb015d680a06f545708a64 -->
<g id="edge26" class="edge">
<title>dir_6b9b1723340264dc1e630f920a659643&#45;&gt;dir_f18bcf57bbcb015d680a06f545708a64</title>
<g id="a_edge26"><a xlink:href="dir_000017_000036.html" target="_top">
<path fill="none" stroke="#63b8ff" d="M224.21,-297.95C176.15,-293.94 59.33,-281.63 32,-255 11.23,-234.76 17,-220.5 17,-191.5 17,-191.5 17,-191.5 17,-134.5 17,-102.03 12.79,-89.18 32,-63 39.54,-52.73 50.89,-44.96 62.01,-39.29"/>
<polygon fill="#63b8ff" stroke="#63b8ff" points="63.61,-42.4 71.2,-35.01 60.66,-36.05 63.61,-42.4"/>
</a>
</g>
<g id="a_edge26&#45;headlabel"><a xlink:href="dir_000017_000036.html" target="_top" xlink:title="2">
<text text-anchor="middle" x="61.55" y="-43.99" font-family="Helvetica,sans-Serif" font-size="10.00" fill="#63b8ff">2</text>
</a>
</g>
</g>
<!-- dir_6b9b1723340264dc1e630f920a659643&#45;&gt;dir_d700705468c111f3e92036fb5a08c541 -->
<g id="edge23" class="edge">
<title>dir_6b9b1723340264dc1e630f920a659643&#45;&gt;dir_d700705468c111f3e92036fb5a08c541</title>
<g id="a_edge23"><a xlink:href="dir_000017_000000.html" target="_top">
<path fill="none" stroke="#63b8ff" d="M256.25,-290.98C266.8,-283 282.8,-270.88 295.44,-261.31"/>
<polygon fill="#63b8ff" stroke="#63b8ff" points="297.69,-264 303.55,-255.17 293.46,-258.42 297.69,-264"/>
</a>
</g>
<g id="a_edge23&#45;headlabel"><a xlink:href="dir_000017_000000.html" target="_top" xlink:title="1">
<text text-anchor="middle" x="296.54" y="-265.93" font-family="Helvetica,sans-Serif" font-size="10.00" fill="#63b8ff">1</text>
</a>
</g>
</g>
<!-- dir_6b9b1723340264dc1e630f920a659643&#45;&gt;dir_35b10f17c6024418821fe45539f7d1fa -->
<g id="edge18" class="edge">
<title>dir_6b9b1723340264dc1e630f920a659643&#45;&gt;dir_35b10f17c6024418821fe45539f7d1fa</title>
<g id="a_edge18"><a xlink:href="dir_000017_000005.html" target="_top">
<path fill="none" stroke="#63b8ff" d="M238.54,-290.66C225.39,-272.69 195.36,-231.64 178.35,-208.38"/>
<polygon fill="#63b8ff" stroke="#63b8ff" points="181.06,-206.16 172.33,-200.16 175.41,-210.3 181.06,-206.16"/>
</a>
</g>
<g id="a_edge18&#45;headlabel"><a xlink:href="dir_000017_000005.html" target="_top" xlink:title="1">
<text text-anchor="middle" x="185.48" y="-204.89" font-family="Helvetica,sans-Serif" font-size="10.00" fill="#63b8ff">1</text>
</a>
</g>
</g>
<!-- dir_6b9b1723340264dc1e630f920a659643&#45;&gt;dir_e4210f374a3e5cd013f5bf87dcb352bb -->
<g id="edge24" class="edge">
<title>dir_6b9b1723340264dc1e630f920a659643&#45;&gt;dir_e4210f374a3e5cd013f5bf87dcb352bb</title>
<g id="a_edge24"><a xlink:href="dir_000017_000006.html" target="_top">
<path fill="none" stroke="#63b8ff" d="M224.74,-290.9C194.71,-276.89 139.51,-246.01 117,-200 107.62,-180.82 127.01,-162.5 144.92,-150.51"/>
<polygon fill="#63b8ff" stroke="#63b8ff" points="146.84,-153.44 153.46,-145.16 143.12,-147.51 146.84,-153.44"/>
</a>
</g>
<g id="a_edge24&#45;headlabel"><a xlink:href="dir_000017_000006.html" target="_top" xlink:title="1">
<text text-anchor="middle" x="145.31" y="-155.25" font-family="Helvetica,sans-Serif" font-size="10.00" fill="#63b8ff">1</text>
</a>
</g>
</g>
<!-- dir_6b9b1723340264dc1e630f920a659643&#45;&gt;dir_eab2301a68d140567e746b22d4e0c3b8 -->
<g id="edge25" class="edge">
<title>dir_6b9b1723340264dc1e630f920a659643&#45;&gt;dir_eab2301a68d140567e746b22d4e0c3b8</title>
<g id="a_edge25"><a xlink:href="dir_000017_000009.html" target="_top">
<path fill="none" stroke="#63b8ff" d="M265.56,-292.73C296.4,-282.36 351.61,-262.94 357,-255 389.56,-207.03 368.15,-133.3 355.46,-99.52"/>
<polygon fill="#63b8ff" stroke="#63b8ff" points="358.65,-98.06 351.73,-90.04 352.14,-100.63 358.65,-98.06"/>
</a>
</g>
<g id="a_edge25&#45;headlabel"><a xlink:href="dir_000017_000009.html" target="_top" xlink:title="1">
<text text-anchor="middle" x="362.61" y="-97.87" font-family="Helvetica,sans-Serif" font-size="10.00" fill="#63b8ff">1</text>
</a>
</g>
</g>
<!-- dir_6b9b1723340264dc1e630f920a659643&#45;&gt;dir_43eaeccdd6b29c571d9022b0dcb8cd4e -->
<g id="edge20" class="edge">
<title>dir_6b9b1723340264dc1e630f920a659643&#45;&gt;dir_43eaeccdd6b29c571d9022b0dcb8cd4e</title>
<g id="a_edge20"><a xlink:href="dir_000017_000027.html" target="_top">
<path fill="none" stroke="#63b8ff" d="M248.36,-290.66C255.06,-273.01 270.21,-233.09 279.12,-209.64"/>
<polygon fill="#63b8ff" stroke="#63b8ff" points="282.44,-210.75 282.71,-200.16 275.89,-208.27 282.44,-210.75"/>
</a>
</g>
<g id="a_edge20&#45;headlabel"><a xlink:href="dir_000017_000027.html" target="_top" xlink:title="1">
<text text-anchor="middle" x="283.81" y="-212.62" font-family="Helvetica,sans-Serif" font-size="10.00" fill="#63b8ff">1</text>
</a>
</g>
</g>
<!-- dir_6b9b1723340264dc1e630f920a659643&#45;&gt;dir_4f57e902f0118f67b10044df4be31d1c -->
<g id="edge21" class="edge">
<title>dir_6b9b1723340264dc1e630f920a659643&#45;&gt;dir_4f57e902f0118f67b10044df4be31d1c</title>
<g id="a_edge21"><a xlink:href="dir_000017_000032.html" target="_top">
<path fill="none" stroke="#63b8ff" d="M245.54,-290.74C247.1,-265.31 251.65,-191.08 253.82,-155.69"/>
<polygon fill="#63b8ff" stroke="#63b8ff" points="257.34,-155.5 254.46,-145.31 250.35,-155.07 257.34,-155.5"/>
</a>
</g>
<g id="a_edge21&#45;headlabel"><a xlink:href="dir_000017_000032.html" target="_top" xlink:title="1">
<text text-anchor="middle" x="259.95" y="-156.76" font-family="Helvetica,sans-Serif" font-size="10.00" fill="#63b8ff">1</text>
</a>
</g>
</g>
<!-- dir_6b9b1723340264dc1e630f920a659643&#45;&gt;dir_22cd7680a4ae9aae1bb38d456a8f3737 -->
<g id="edge17" class="edge">
<title>dir_6b9b1723340264dc1e630f920a659643&#45;&gt;dir_22cd7680a4ae9aae1bb38d456a8f3737</title>
<g id="a_edge17"><a xlink:href="dir_000017_000037.html" target="_top">
<path fill="none" stroke="#63b8ff" d="M224.42,-295C201.69,-289.13 165.12,-276.93 141,-255 114.74,-231.13 105.99,-216.13 111,-181 114.59,-155.8 109.26,-144.26 127,-126 133.96,-118.83 185.39,-103.43 223.44,-92.77"/>
<polygon fill="#63b8ff" stroke="#63b8ff" points="224.58,-96.09 233.28,-90.04 222.71,-89.34 224.58,-96.09"/>
</a>
</g>
<g id="a_edge17&#45;headlabel"><a xlink:href="dir_000017_000037.html" target="_top" xlink:title="1">
<text text-anchor="middle" x="221.88" y="-97.29" font-family="Helvetica,sans-Serif" font-size="10.00" fill="#63b8ff">1</text>
</a>
</g>
</g>
<!-- dir_3bee24c2dc8c35a7481f805d1077a654 -->
<g id="node10" class="node">
<title>dir_3bee24c2dc8c35a7481f805d1077a654</title>
<g id="a_node10"><a xlink:href="dir_3bee24c2dc8c35a7481f805d1077a654.html" target="_top" xlink:title="radio">
<polygon fill="#a2b4d6" stroke="#404040" points="326.5,-310 285.5,-310 285.5,-291 326.5,-291 326.5,-310"/>
<text text-anchor="middle" x="306" y="-298" font-family="Helvetica,sans-Serif" font-size="10.00">radio</text>
</a>
</g>
</g>
<!-- dir_3bee24c2dc8c35a7481f805d1077a654&#45;&gt;dir_420f87287d5a5fc6f35b7971ed84ed3f -->
<g id="edge27" class="edge">
<title>dir_3bee24c2dc8c35a7481f805d1077a654&#45;&gt;dir_420f87287d5a5fc6f35b7971ed84ed3f</title>
<g id="a_edge27"><a xlink:href="dir_000022_000023.html" target="_top">
<path fill="none" stroke="#63b8ff" d="M326.64,-293.6C329.78,-292.72 332.97,-291.83 336,-291 396.3,-274.48 433.86,-304.55 472,-255 524.33,-187.01 500.33,-133.89 452,-63 446.17,-54.45 437.77,-46.89 429.8,-40.89"/>
<polygon fill="#63b8ff" stroke="#63b8ff" points="431.65,-37.91 421.46,-35.02 427.63,-43.64 431.65,-37.91"/>
</a>
</g>
<g id="a_edge27&#45;headlabel"><a xlink:href="dir_000022_000023.html" target="_top" xlink:title="1">
<text text-anchor="middle" x="436.23" y="-35.16" font-family="Helvetica,sans-Serif" font-size="10.00" fill="#63b8ff">1</text>
</a>
</g>
</g>
<!-- dir_3bee24c2dc8c35a7481f805d1077a654&#45;&gt;dir_ce9acbebd20a964a9fb527ea0a00b86e -->
<g id="edge28" class="edge">
<title>dir_3bee24c2dc8c35a7481f805d1077a654&#45;&gt;dir_ce9acbebd20a964a9fb527ea0a00b86e</title>
<g id="a_edge28"><a xlink:href="dir_000022_000003.html" target="_top">
<path fill="none" stroke="#63b8ff" d="M326.63,-293.55C329.76,-292.68 332.96,-291.8 336,-291 401.04,-273.83 427.58,-293.12 483,-255 511.29,-235.54 527,-225.84 527,-191.5 527,-191.5 527,-191.5 527,-134.5 527,-102.03 523.26,-93.46 512,-63 509.62,-56.57 506.27,-49.9 502.98,-44.05"/>
<polygon fill="#63b8ff" stroke="#63b8ff" points="505.81,-41.96 497.7,-35.15 499.79,-45.54 505.81,-41.96"/>
</a>
</g>
<g id="a_edge28&#45;headlabel"><a xlink:href="dir_000022_000003.html" target="_top" xlink:title="1">
<text text-anchor="middle" x="510.09" y="-41.1" font-family="Helvetica,sans-Serif" font-size="10.00" fill="#63b8ff">1</text>
</a>
</g>
</g>
<!-- dir_3bee24c2dc8c35a7481f805d1077a654&#45;&gt;dir_f18bcf57bbcb015d680a06f545708a64 -->
<g id="edge31" class="edge">
<title>dir_3bee24c2dc8c35a7481f805d1077a654&#45;&gt;dir_f18bcf57bbcb015d680a06f545708a64</title>
<g id="a_edge31"><a xlink:href="dir_000022_000036.html" target="_top">
<path fill="none" stroke="#63b8ff" d="M285.34,-293.52C222.35,-275 37,-218.24 37,-191.5 37,-191.5 37,-191.5 37,-134.5 37,-98.09 63.38,-62.48 81.16,-42.62"/>
<polygon fill="#63b8ff" stroke="#63b8ff" points="83.89,-44.82 88.15,-35.11 78.77,-40.05 83.89,-44.82"/>
</a>
</g>
<g id="a_edge31&#45;headlabel"><a xlink:href="dir_000022_000036.html" target="_top" xlink:title="2">
<text text-anchor="middle" x="83.52" y="-46.88" font-family="Helvetica,sans-Serif" font-size="10.00" fill="#63b8ff">2</text>
</a>
</g>
</g>
<!-- dir_3bee24c2dc8c35a7481f805d1077a654&#45;&gt;dir_d700705468c111f3e92036fb5a08c541 -->
<g id="edge29" class="edge">
<title>dir_3bee24c2dc8c35a7481f805d1077a654&#45;&gt;dir_d700705468c111f3e92036fb5a08c541</title>
<g id="a_edge29"><a xlink:href="dir_000022_000000.html" target="_top">
<path fill="none" stroke="#63b8ff" d="M307.49,-290.75C308.67,-283.8 310.36,-273.85 311.84,-265.13"/>
<polygon fill="#63b8ff" stroke="#63b8ff" points="315.32,-265.53 313.54,-255.09 308.42,-264.36 315.32,-265.53"/>
</a>
</g>
<g id="a_edge29&#45;headlabel"><a xlink:href="dir_000022_000000.html" target="_top" xlink:title="1">
<text text-anchor="middle" x="317.52" y="-267.05" font-family="Helvetica,sans-Serif" font-size="10.00" fill="#63b8ff">1</text>
</a>
</g>
</g>
<!-- dir_3bee24c2dc8c35a7481f805d1077a654&#45;&gt;dir_eab2301a68d140567e746b22d4e0c3b8 -->
<g id="edge30" class="edge">
<title>dir_3bee24c2dc8c35a7481f805d1077a654&#45;&gt;dir_eab2301a68d140567e746b22d4e0c3b8</title>
<g id="a_edge30"><a xlink:href="dir_000022_000009.html" target="_top">
<path fill="none" stroke="#63b8ff" d="M326.52,-291.92C342.12,-284.95 362.46,-272.94 372,-255 398.92,-204.38 386.03,-181.59 372,-126 369.59,-116.44 364.67,-106.7 359.91,-98.78"/>
<polygon fill="#63b8ff" stroke="#63b8ff" points="362.72,-96.68 354.37,-90.16 356.83,-100.46 362.72,-96.68"/>
</a>
</g>
<g id="a_edge30&#45;headlabel"><a xlink:href="dir_000022_000009.html" target="_top" xlink:title="1">
<text text-anchor="middle" x="367.05" y="-95.66" font-family="Helvetica,sans-Serif" font-size="10.00" fill="#63b8ff">1</text>
</a>
</g>
</g>
<!-- dir_43eaeccdd6b29c571d9022b0dcb8cd4e&#45;&gt;dir_420f87287d5a5fc6f35b7971ed84ed3f -->
<g id="edge33" class="edge">
<title>dir_43eaeccdd6b29c571d9022b0dcb8cd4e&#45;&gt;dir_420f87287d5a5fc6f35b7971ed84ed3f</title>
<g id="a_edge33"><a xlink:href="dir_000027_000023.html" target="_top">
<path fill="none" stroke="#63b8ff" d="M298.33,-180.84C319.73,-165.17 363.79,-130 388,-90 396.38,-76.16 401.29,-58.36 404.01,-45.13"/>
<polygon fill="#63b8ff" stroke="#63b8ff" points="407.45,-45.75 405.81,-35.28 400.57,-44.49 407.45,-45.75"/>
</a>
</g>
<g id="a_edge33&#45;headlabel"><a xlink:href="dir_000027_000023.html" target="_top" xlink:title="6">
<text text-anchor="middle" x="409.6" y="-47.29" font-family="Helvetica,sans-Serif" font-size="10.00" fill="#63b8ff">6</text>
</a>
</g>
</g>
<!-- dir_43eaeccdd6b29c571d9022b0dcb8cd4e&#45;&gt;dir_ce9acbebd20a964a9fb527ea0a00b86e -->
<g id="edge35" class="edge">
<title>dir_43eaeccdd6b29c571d9022b0dcb8cd4e&#45;&gt;dir_ce9acbebd20a964a9fb527ea0a00b86e</title>
<g id="a_edge35"><a xlink:href="dir_000027_000003.html" target="_top">
<path fill="none" stroke="#63b8ff" d="M300.67,-180.87C314.92,-172.29 336.98,-158.5 355,-145 400.68,-110.78 450.44,-65.52 475.55,-42.08"/>
<polygon fill="#63b8ff" stroke="#63b8ff" points="478.18,-44.41 483.07,-35.01 473.39,-39.3 478.18,-44.41"/>
</a>
</g>
<g id="a_edge35&#45;headlabel"><a xlink:href="dir_000027_000003.html" target="_top" xlink:title="11">
<text text-anchor="middle" x="477.5" y="-46.44" font-family="Helvetica,sans-Serif" font-size="10.00" fill="#63b8ff">11</text>
</a>
</g>
</g>
<!-- dir_43eaeccdd6b29c571d9022b0dcb8cd4e&#45;&gt;dir_f18bcf57bbcb015d680a06f545708a64 -->
<g id="edge38" class="edge">
<title>dir_43eaeccdd6b29c571d9022b0dcb8cd4e&#45;&gt;dir_f18bcf57bbcb015d680a06f545708a64</title>
<g id="a_edge38"><a xlink:href="dir_000027_000036.html" target="_top">
<path fill="none" stroke="#63b8ff" d="M263.84,-186.09C224.8,-179.64 146.06,-164.55 127,-145 100.66,-117.99 96.43,-71.35 96.31,-45.37"/>
<polygon fill="#63b8ff" stroke="#63b8ff" points="99.82,-45.08 96.48,-35.03 92.82,-44.97 99.82,-45.08"/>
</a>
</g>
<g id="a_edge38&#45;headlabel"><a xlink:href="dir_000027_000036.html" target="_top" xlink:title="10">
<text text-anchor="middle" x="102.6" y="-46.22" font-family="Helvetica,sans-Serif" font-size="10.00" fill="#63b8ff">10</text>
</a>
</g>
</g>
<!-- dir_43eaeccdd6b29c571d9022b0dcb8cd4e&#45;&gt;dir_d700705468c111f3e92036fb5a08c541 -->
<g id="edge36" class="edge">
<title>dir_43eaeccdd6b29c571d9022b0dcb8cd4e&#45;&gt;dir_d700705468c111f3e92036fb5a08c541</title>
<g id="a_edge36"><a xlink:href="dir_000027_000000.html" target="_top">
<path fill="none" stroke="#63b8ff" d="M295.83,-200.09C301.23,-207.14 307.27,-217.37 311.46,-226.24"/>
<polygon fill="#63b8ff" stroke="#63b8ff" points="308.33,-227.84 315.38,-235.75 314.8,-225.17 308.33,-227.84"/>
</a>
</g>
<g id="a_edge36&#45;headlabel"><a xlink:href="dir_000027_000000.html" target="_top" xlink:title="1">
<text text-anchor="middle" x="304.34" y="-223.09" font-family="Helvetica,sans-Serif" font-size="10.00" fill="#63b8ff">1</text>
</a>
</g>
</g>
<!-- dir_43eaeccdd6b29c571d9022b0dcb8cd4e&#45;&gt;dir_e4210f374a3e5cd013f5bf87dcb352bb -->
<g id="edge37" class="edge">
<title>dir_43eaeccdd6b29c571d9022b0dcb8cd4e&#45;&gt;dir_e4210f374a3e5cd013f5bf87dcb352bb</title>
<g id="a_edge37"><a xlink:href="dir_000027_000006.html" target="_top">
<path fill="none" stroke="#63b8ff" d="M267.36,-180.98C248.7,-172.46 219.75,-159.23 198.26,-149.41"/>
<polygon fill="#63b8ff" stroke="#63b8ff" points="199.53,-146.14 188.98,-145.17 196.62,-152.51 199.53,-146.14"/>
</a>
</g>
<g id="a_edge37&#45;headlabel"><a xlink:href="dir_000027_000006.html" target="_top" xlink:title="2">
<text text-anchor="middle" x="203.98" y="-142.55" font-family="Helvetica,sans-Serif" font-size="10.00" fill="#63b8ff">2</text>
</a>
</g>
</g>
<!-- dir_43eaeccdd6b29c571d9022b0dcb8cd4e&#45;&gt;dir_4f57e902f0118f67b10044df4be31d1c -->
<g id="edge34" class="edge">
<title>dir_43eaeccdd6b29c571d9022b0dcb8cd4e&#45;&gt;dir_4f57e902f0118f67b10044df4be31d1c</title>
<g id="a_edge34"><a xlink:href="dir_000027_000032.html" target="_top">
<path fill="none" stroke="#63b8ff" d="M280.88,-180.75C276.64,-173.49 270.47,-162.95 265.22,-153.98"/>
<polygon fill="#63b8ff" stroke="#63b8ff" points="268.09,-151.95 260.02,-145.09 262.05,-155.49 268.09,-151.95"/>
</a>
</g>
<g id="a_edge34&#45;headlabel"><a xlink:href="dir_000027_000032.html" target="_top" xlink:title="1">
<text text-anchor="middle" x="272.36" y="-151.12" font-family="Helvetica,sans-Serif" font-size="10.00" fill="#63b8ff">1</text>
</a>
</g>
</g>
<!-- dir_43eaeccdd6b29c571d9022b0dcb8cd4e&#45;&gt;dir_22cd7680a4ae9aae1bb38d456a8f3737 -->
<g id="edge32" class="edge">
<title>dir_43eaeccdd6b29c571d9022b0dcb8cd4e&#45;&gt;dir_22cd7680a4ae9aae1bb38d456a8f3737</title>
<g id="a_edge32"><a xlink:href="dir_000027_000037.html" target="_top">
<path fill="none" stroke="#63b8ff" d="M290.14,-180.69C295.4,-168.25 303.11,-144.96 297,-126 293.66,-115.62 286.9,-105.62 280.45,-97.74"/>
<polygon fill="#63b8ff" stroke="#63b8ff" points="282.97,-95.31 273.75,-90.1 277.71,-99.92 282.97,-95.31"/>
</a>
</g>
<g id="a_edge32&#45;headlabel"><a xlink:href="dir_000027_000037.html" target="_top" xlink:title="1">
<text text-anchor="middle" x="287.48" y="-93.64" font-family="Helvetica,sans-Serif" font-size="10.00" fill="#63b8ff">1</text>
</a>
</g>
</g>
<!-- dir_4f57e902f0118f67b10044df4be31d1c&#45;&gt;dir_420f87287d5a5fc6f35b7971ed84ed3f -->
<g id="edge40" class="edge">
<title>dir_4f57e902f0118f67b10044df4be31d1c&#45;&gt;dir_420f87287d5a5fc6f35b7971ed84ed3f</title>
<g id="a_edge40"><a xlink:href="dir_000032_000023.html" target="_top">
<path fill="none" stroke="#63b8ff" d="M285.09,-125.95C315.7,-116.79 360.5,-101.95 374,-90 387.64,-77.92 396.48,-58.85 401.54,-44.76"/>
<polygon fill="#63b8ff" stroke="#63b8ff" points="404.91,-45.74 404.7,-35.15 398.25,-43.56 404.91,-45.74"/>
</a>
</g>
<g id="a_edge40&#45;headlabel"><a xlink:href="dir_000032_000023.html" target="_top" xlink:title="1">
<text text-anchor="middle" x="406.48" y="-47.54" font-family="Helvetica,sans-Serif" font-size="10.00" fill="#63b8ff">1</text>
</a>
</g>
</g>
<!-- dir_4f57e902f0118f67b10044df4be31d1c&#45;&gt;dir_f18bcf57bbcb015d680a06f545708a64 -->
<g id="edge42" class="edge">
<title>dir_4f57e902f0118f67b10044df4be31d1c&#45;&gt;dir_f18bcf57bbcb015d680a06f545708a64</title>
<g id="a_edge42"><a xlink:href="dir_000032_000036.html" target="_top">
<path fill="none" stroke="#63b8ff" d="M242.34,-125.84C215.3,-107.36 151.66,-63.86 118.28,-41.05"/>
<polygon fill="#63b8ff" stroke="#63b8ff" points="119.95,-37.95 109.72,-35.2 116,-43.73 119.95,-37.95"/>
</a>
</g>
<g id="a_edge42&#45;headlabel"><a xlink:href="dir_000032_000036.html" target="_top" xlink:title="2">
<text text-anchor="middle" x="124.52" y="-35.13" font-family="Helvetica,sans-Serif" font-size="10.00" fill="#63b8ff">2</text>
</a>
</g>
</g>
<!-- dir_4f57e902f0118f67b10044df4be31d1c&#45;&gt;dir_35b10f17c6024418821fe45539f7d1fa -->
<g id="edge39" class="edge">
<title>dir_4f57e902f0118f67b10044df4be31d1c&#45;&gt;dir_35b10f17c6024418821fe45539f7d1fa</title>
<g id="a_edge39"><a xlink:href="dir_000032_000005.html" target="_top">
<path fill="none" stroke="#63b8ff" d="M245.59,-145.17C233.26,-153.6 211.84,-166.51 194.22,-176.23"/>
<polygon fill="#63b8ff" stroke="#63b8ff" points="192.55,-173.15 185.41,-180.98 195.88,-179.31 192.55,-173.15"/>
</a>
</g>
<g id="a_edge39&#45;headlabel"><a xlink:href="dir_000032_000005.html" target="_top" xlink:title="1">
<text text-anchor="middle" x="194.37" y="-166.45" font-family="Helvetica,sans-Serif" font-size="10.00" fill="#63b8ff">1</text>
</a>
</g>
</g>
<!-- dir_4f57e902f0118f67b10044df4be31d1c&#45;&gt;dir_eab2301a68d140567e746b22d4e0c3b8 -->
<g id="edge41" class="edge">
<title>dir_4f57e902f0118f67b10044df4be31d1c&#45;&gt;dir_eab2301a68d140567e746b22d4e0c3b8</title>
<g id="a_edge41"><a xlink:href="dir_000032_000009.html" target="_top">
<path fill="none" stroke="#63b8ff" d="M269.94,-125.98C284.5,-117.69 306.87,-104.94 323.93,-95.22"/>
<polygon fill="#63b8ff" stroke="#63b8ff" points="325.83,-98.16 332.79,-90.17 322.36,-92.08 325.83,-98.16"/>
</a>
</g>
<g id="a_edge41&#45;headlabel"><a xlink:href="dir_000032_000009.html" target="_top" xlink:title="1">
<text text-anchor="middle" x="324.11" y="-99.91" font-family="Helvetica,sans-Serif" font-size="10.00" fill="#63b8ff">1</text>
</a>
</g>
</g>
<!-- dir_22cd7680a4ae9aae1bb38d456a8f3737&#45;&gt;dir_420f87287d5a5fc6f35b7971ed84ed3f -->
<g id="edge43" class="edge">
<title>dir_22cd7680a4ae9aae1bb38d456a8f3737&#45;&gt;dir_420f87287d5a5fc6f35b7971ed84ed3f</title>
<g id="a_edge43"><a xlink:href="dir_000037_000023.html" target="_top">
<path fill="none" stroke="#63b8ff" d="M287.81,-70.98C311.17,-62.27 347.7,-48.63 374.17,-38.75"/>
<polygon fill="#63b8ff" stroke="#63b8ff" points="375.63,-41.95 383.77,-35.17 373.18,-35.39 375.63,-41.95"/>
</a>
</g>
<g id="a_edge43&#45;headlabel"><a xlink:href="dir_000037_000023.html" target="_top" xlink:title="2">
<text text-anchor="middle" x="373.25" y="-43.36" font-family="Helvetica,sans-Serif" font-size="10.00" fill="#63b8ff">2</text>
</a>
</g>
</g>
<!-- dir_22cd7680a4ae9aae1bb38d456a8f3737&#45;&gt;dir_f18bcf57bbcb015d680a06f545708a64 -->
<g id="edge44" class="edge">
<title>dir_22cd7680a4ae9aae1bb38d456a8f3737&#45;&gt;dir_f18bcf57bbcb015d680a06f545708a64</title>
<g id="a_edge44"><a xlink:href="dir_000037_000036.html" target="_top">
<path fill="none" stroke="#63b8ff" d="M247.66,-70.87C241.81,-68.15 235.2,-65.26 229,-63 197.31,-51.44 160.2,-41.48 133.42,-34.9"/>
<polygon fill="#63b8ff" stroke="#63b8ff" points="134.23,-31.5 123.69,-32.55 132.58,-38.3 134.23,-31.5"/>
</a>
</g>
<g id="a_edge44&#45;headlabel"><a xlink:href="dir_000037_000036.html" target="_top" xlink:title="1">
<text text-anchor="middle" x="138.39" y="-27.08" font-family="Helvetica,sans-Serif" font-size="10.00" fill="#63b8ff">1</text>
</a>
</g>
</g>
</g>
</svg>
