<?xml version="1.0" encoding="UTF-8" standalone="no"?>
<!DOCTYPE svg PUBLIC "-//W3C//DTD SVG 1.1//EN"
 "http://www.w3.org/Graphics/SVG/1.1/DTD/svg11.dtd">
<!-- Generated by graphviz version 2.43.0 (0)
 -->
<!-- Title: main Pages: 1 -->
<!--zoomable 133 -->

<svg id="main" version="1.1" xmlns="http://www.w3.org/2000/svg" xmlns:xlink="http://www.w3.org/1999/xlink" xml:space="preserve" onload="init(evt)">

<style type="text/css"><![CDATA[
.node, .edge {opacity: 0.7;}
.node.selected, .edge.selected {opacity: 1;}
.edge:hover path { stroke: red; }
.edge:hover polygon { stroke: red; fill: red; }
]]></style>

<defs>
  <circle id="rim" cx="0" cy="0" r="7"/>
  <circle id="rim2" cx="0" cy="0" r="3.5"/>
  <g id="zoomPlus">
    <use xlink:href="#rim" fill="#404040"><set attributeName="fill" to="#808080" begin="zoomplus.mouseover" end="zoomplus.mouseout"/></use>
    <path d="M-4,0h8M0,-4v8" fill="none" stroke="white" stroke-width="1.5" pointer-events="none"/>
  </g>
  <g id="zoomMin">
    <use xlink:href="#rim" fill="#404040"><set attributeName="fill" to="#808080" begin="zoomminus.mouseover" end="zoomminus.mouseout"/></use>
    <path d="M-4,0h8" fill="none" stroke="white" stroke-width="1.5" pointer-events="none"/>
  </g>
  <g id="arrowUp" transform="translate(30 24)">
    <use xlink:href="#rim"/>
    <path pointer-events="none" fill="none" stroke="white" stroke-width="1.5" d="M0,-3.0v7 M-2.5,-0.5L0,-3.0L2.5,-0.5"/>
  </g>
  <g id="arrowRight" transform="rotate(90) translate(36 -43)">
    <use xlink:href="#rim"/>
    <path pointer-events="none" fill="none" stroke="white" stroke-width="1.5" d="M0,-3.0v7 M-2.5,-0.5L0,-3.0L2.5,-0.5"/>
  </g>
  <g id="arrowDown" transform="rotate(180) translate(-30 -48)">
    <use xlink:href="#rim"/>
    <path pointer-events="none" fill="none" stroke="white" stroke-width="1.5" d="M0,-3.0v7 M-2.5,-0.5L0,-3.0L2.5,-0.5"/>
  </g>
  <g id="arrowLeft" transform="rotate(270) translate(-36 17)">
    <use xlink:href="#rim"/>
    <path pointer-events="none" fill="none" stroke="white" stroke-width="1.5" d="M0,-3.0v7 M-2.5,-0.5L0,-3.0L2.5,-0.5"/>
  </g>
  <g id="resetDef">
    <use xlink:href="#rim2" fill="#404040"><set attributeName="fill" to="#808080" begin="reset.mouseover" end="reset.mouseout"/></use>
  </g>
</defs>
<script type="application/ecmascript">
var viewWidth = 775;
var viewHeight = 133;
var sectionId = 'dynsection-0';
</script>
<script type="application/ecmascript" xlink:href="svg.min.js"/>
<svg id="graph" class="graph">
<g id="viewport">
<title>main</title>
<g id="clust1" class="cluster">
<title>clusterdir_76dd8867a16d204aa2db31affc56d971</title>
<g id="a_clust1"><a xlink:href="dir_76dd8867a16d204aa2db31affc56d971.html" target="_top" xlink:title="tasks">
<polygon fill="#edf0f7" stroke="#7f7f7f" stroke-dasharray="5,2" points="8,-8 8,-117 553,-117 553,-8 8,-8"/>
<text text-anchor="middle" x="280.5" y="-105" font-family="Helvetica,sans-Serif" font-size="10.00">tasks</text>
</a>
</g>
</g>
<!-- dir_22cd7680a4ae9aae1bb38d456a8f3737 -->
<g id="node1" class="node">
<title>dir_22cd7680a4ae9aae1bb38d456a8f3737</title>
<g id="a_node1"><a xlink:href="dir_22cd7680a4ae9aae1bb38d456a8f3737.html" target="_top" xlink:title="watchdog">
<polygon fill="#a2b4d6" stroke="#404040" points="80,-35 16,-35 16,-16 80,-16 80,-35"/>
<text text-anchor="middle" x="48" y="-23" font-family="Helvetica,sans-Serif" font-size="10.00">watchdog</text>
</a>
</g>
</g>
<!-- dir_35b10f17c6024418821fe45539f7d1fa -->
<g id="node2" class="node">
<title>dir_35b10f17c6024418821fe45539f7d1fa</title>
<g id="a_node2"><a xlink:href="dir_35b10f17c6024418821fe45539f7d1fa.html" target="_top" xlink:title="file&#45;downlink">
<polygon fill="#a2b4d6" stroke="#404040" points="178,-35 98,-35 98,-16 178,-16 178,-35"/>
<text text-anchor="middle" x="138" y="-23" font-family="Helvetica,sans-Serif" font-size="10.00">file&#45;downlink</text>
</a>
</g>
</g>
<!-- dir_43eaeccdd6b29c571d9022b0dcb8cd4e -->
<g id="node3" class="node">
<title>dir_43eaeccdd6b29c571d9022b0dcb8cd4e</title>
<g id="a_node3"><a xlink:href="dir_43eaeccdd6b29c571d9022b0dcb8cd4e.html" target="_top" xlink:title="steve">
<polygon fill="#a2b4d6" stroke="red" points="240,-35 196,-35 196,-16 240,-16 240,-35"/>
<text text-anchor="middle" x="218" y="-23" font-family="Helvetica,sans-Serif" font-size="10.00">steve</text>
</a>
</g>
</g>
<!-- dir_4f57e902f0118f67b10044df4be31d1c -->
<g id="node4" class="node">
<title>dir_4f57e902f0118f67b10044df4be31d1c</title>
<g id="a_node4"><a xlink:href="dir_4f57e902f0118f67b10044df4be31d1c.html" target="_top" xlink:title="telemetry">
<polygon fill="#a2b4d6" stroke="#404040" points="323.5,-35 258.5,-35 258.5,-16 323.5,-16 323.5,-35"/>
<text text-anchor="middle" x="291" y="-23" font-family="Helvetica,sans-Serif" font-size="10.00">telemetry</text>
</a>
</g>
</g>
<!-- dir_d700705468c111f3e92036fb5a08c541 -->
<g id="node5" class="node">
<title>dir_d700705468c111f3e92036fb5a08c541</title>
<g id="a_node5"><a xlink:href="dir_d700705468c111f3e92036fb5a08c541.html" target="_top" xlink:title="command">
<polygon fill="#a2b4d6" stroke="#404040" points="406.5,-35 341.5,-35 341.5,-16 406.5,-16 406.5,-35"/>
<text text-anchor="middle" x="374" y="-23" font-family="Helvetica,sans-Serif" font-size="10.00">command</text>
</a>
</g>
</g>
<!-- dir_e4210f374a3e5cd013f5bf87dcb352bb -->
<g id="node6" class="node">
<title>dir_e4210f374a3e5cd013f5bf87dcb352bb</title>
<g id="a_node6"><a xlink:href="dir_e4210f374a3e5cd013f5bf87dcb352bb.html" target="_top" xlink:title="filesystem">
<polygon fill="#a2b4d6" stroke="#404040" points="493,-35 425,-35 425,-16 493,-16 493,-35"/>
<text text-anchor="middle" x="459" y="-23" font-family="Helvetica,sans-Serif" font-size="10.00">filesystem</text>
</a>
</g>
</g>
<!-- dir_eab2301a68d140567e746b22d4e0c3b8 -->
<g id="node7" class="node">
<title>dir_eab2301a68d140567e746b22d4e0c3b8</title>
<g id="a_node7"><a xlink:href="dir_eab2301a68d140567e746b22d4e0c3b8.html" target="_top" xlink:title="gse">
<polygon fill="#a2b4d6" stroke="#404040" points="545,-35 511,-35 511,-16 545,-16 545,-35"/>
<text text-anchor="middle" x="528" y="-23" font-family="Helvetica,sans-Serif" font-size="10.00">gse</text>
</a>
</g>
</g>
<!-- dir_6b9b1723340264dc1e630f920a659643 -->
<g id="node8" class="node">
<title>dir_6b9b1723340264dc1e630f920a659643</title>
<g id="a_node8"><a xlink:href="dir_6b9b1723340264dc1e630f920a659643.html" target="_top" xlink:title="main">
<polygon fill="#edf0f7" stroke="#404040" stroke-width="2" points="436.5,-90 395.5,-90 395.5,-71 436.5,-71 436.5,-90"/>
<text text-anchor="middle" x="416" y="-78" font-family="Helvetica,sans-Serif" font-size="10.00">main</text>
</a>
</g>
</g>
<!-- dir_6b9b1723340264dc1e630f920a659643&#45;&gt;dir_22cd7680a4ae9aae1bb38d456a8f3737 -->
<g id="edge1" class="edge">
<title>dir_6b9b1723340264dc1e630f920a659643&#45;&gt;dir_22cd7680a4ae9aae1bb38d456a8f3737</title>
<g id="a_edge1"><a xlink:href="dir_000017_000037.html" target="_top">
<path fill="none" stroke="#63b8ff" d="M395.26,-77.18C344.86,-71.44 211.75,-55.65 90.39,-35.13"/>
<polygon fill="#63b8ff" stroke="#63b8ff" points="90.64,-31.62 80.19,-33.39 89.46,-38.53 90.64,-31.62"/>
</a>
</g>
<g id="a_edge1&#45;headlabel"><a xlink:href="dir_000017_000037.html" target="_top" xlink:title="1">
<text text-anchor="middle" x="94.66" y="-26.93" font-family="Helvetica,sans-Serif" font-size="10.00" fill="#63b8ff">1</text>
</a>
</g>
</g>
<!-- dir_6b9b1723340264dc1e630f920a659643&#45;&gt;dir_35b10f17c6024418821fe45539f7d1fa -->
<g id="edge2" class="edge">
<title>dir_6b9b1723340264dc1e630f920a659643&#45;&gt;dir_35b10f17c6024418821fe45539f7d1fa</title>
<g id="a_edge2"><a xlink:href="dir_000017_000005.html" target="_top">
<path fill="none" stroke="#63b8ff" d="M395.1,-75.52C351.45,-67.19 249.51,-47.76 187.91,-36.01"/>
<polygon fill="#63b8ff" stroke="#63b8ff" points="188.49,-32.56 178.01,-34.13 187.18,-39.44 188.49,-32.56"/>
</a>
</g>
<g id="a_edge2&#45;headlabel"><a xlink:href="dir_000017_000005.html" target="_top" xlink:title="1">
<text text-anchor="middle" x="192.55" y="-27.95" font-family="Helvetica,sans-Serif" font-size="10.00" fill="#63b8ff">1</text>
</a>
</g>
</g>
<!-- dir_6b9b1723340264dc1e630f920a659643&#45;&gt;dir_43eaeccdd6b29c571d9022b0dcb8cd4e -->
<g id="edge4" class="edge">
<title>dir_6b9b1723340264dc1e630f920a659643&#45;&gt;dir_43eaeccdd6b29c571d9022b0dcb8cd4e</title>
<g id="a_edge4"><a xlink:href="dir_000017_000027.html" target="_top">
<path fill="none" stroke="#63b8ff" d="M395.18,-73.93C360.49,-64.64 290.64,-45.94 249.77,-35"/>
<polygon fill="#63b8ff" stroke="#63b8ff" points="250.6,-31.6 240.04,-32.4 248.79,-38.37 250.6,-31.6"/>
</a>
</g>
<g id="a_edge4&#45;headlabel"><a xlink:href="dir_000017_000027.html" target="_top" xlink:title="1">
<text text-anchor="middle" x="254.81" y="-27.29" font-family="Helvetica,sans-Serif" font-size="10.00" fill="#63b8ff">1</text>
</a>
</g>
</g>
<!-- dir_6b9b1723340264dc1e630f920a659643&#45;&gt;dir_4f57e902f0118f67b10044df4be31d1c -->
<g id="edge5" class="edge">
<title>dir_6b9b1723340264dc1e630f920a659643&#45;&gt;dir_4f57e902f0118f67b10044df4be31d1c</title>
<g id="a_edge5"><a xlink:href="dir_000017_000032.html" target="_top">
<path fill="none" stroke="#63b8ff" d="M395.92,-70.98C375.63,-62.38 344.04,-48.99 320.83,-39.15"/>
<polygon fill="#63b8ff" stroke="#63b8ff" points="322.02,-35.85 311.45,-35.17 319.29,-42.3 322.02,-35.85"/>
</a>
</g>
<g id="a_edge5&#45;headlabel"><a xlink:href="dir_000017_000032.html" target="_top" xlink:title="1">
<text text-anchor="middle" x="326.44" y="-32.14" font-family="Helvetica,sans-Serif" font-size="10.00" fill="#63b8ff">1</text>
</a>
</g>
</g>
<!-- dir_6b9b1723340264dc1e630f920a659643&#45;&gt;dir_d700705468c111f3e92036fb5a08c541 -->
<g id="edge7" class="edge">
<title>dir_6b9b1723340264dc1e630f920a659643&#45;&gt;dir_d700705468c111f3e92036fb5a08c541</title>
<g id="a_edge7"><a xlink:href="dir_000017_000000.html" target="_top">
<path fill="none" stroke="#63b8ff" d="M409.06,-70.75C403.13,-63.26 394.43,-52.28 387.18,-43.13"/>
<polygon fill="#63b8ff" stroke="#63b8ff" points="389.76,-40.75 380.81,-35.09 384.27,-45.1 389.76,-40.75"/>
</a>
</g>
<g id="a_edge7&#45;headlabel"><a xlink:href="dir_000017_000000.html" target="_top" xlink:title="1">
<text text-anchor="middle" x="394.22" y="-39.31" font-family="Helvetica,sans-Serif" font-size="10.00" fill="#63b8ff">1</text>
</a>
</g>
</g>
<!-- dir_6b9b1723340264dc1e630f920a659643&#45;&gt;dir_e4210f374a3e5cd013f5bf87dcb352bb -->
<g id="edge8" class="edge">
<title>dir_6b9b1723340264dc1e630f920a659643&#45;&gt;dir_e4210f374a3e5cd013f5bf87dcb352bb</title>
<g id="a_edge8"><a xlink:href="dir_000017_000006.html" target="_top">
<path fill="none" stroke="#63b8ff" d="M423.1,-70.75C429.17,-63.26 438.09,-52.28 445.51,-43.13"/>
<polygon fill="#63b8ff" stroke="#63b8ff" points="448.45,-45.06 452.03,-35.09 443.01,-40.65 448.45,-45.06"/>
</a>
</g>
<g id="a_edge8&#45;headlabel"><a xlink:href="dir_000017_000006.html" target="_top" xlink:title="1">
<text text-anchor="middle" x="448.39" y="-47.14" font-family="Helvetica,sans-Serif" font-size="10.00" fill="#63b8ff">1</text>
</a>
</g>
</g>
<!-- dir_6b9b1723340264dc1e630f920a659643&#45;&gt;dir_eab2301a68d140567e746b22d4e0c3b8 -->
<g id="edge9" class="edge">
<title>dir_6b9b1723340264dc1e630f920a659643&#45;&gt;dir_eab2301a68d140567e746b22d4e0c3b8</title>
<g id="a_edge9"><a xlink:href="dir_000017_000009.html" target="_top">
<path fill="none" stroke="#63b8ff" d="M433.99,-70.98C452.25,-62.35 480.71,-48.88 501.54,-39.02"/>
<polygon fill="#63b8ff" stroke="#63b8ff" points="503.24,-42.09 510.79,-34.65 500.25,-35.76 503.24,-42.09"/>
</a>
</g>
<g id="a_edge9&#45;headlabel"><a xlink:href="dir_000017_000009.html" target="_top" xlink:title="1">
<text text-anchor="middle" x="501.21" y="-43.69" font-family="Helvetica,sans-Serif" font-size="10.00" fill="#63b8ff">1</text>
</a>
</g>
</g>
<!-- dir_420f87287d5a5fc6f35b7971ed84ed3f -->
<g id="node9" class="node">
<title>dir_420f87287d5a5fc6f35b7971ed84ed3f</title>
<g id="a_node9"><a xlink:href="dir_420f87287d5a5fc6f35b7971ed84ed3f.html" target="_top" xlink:title="simulator">
<polygon fill="#edf0f7" stroke="red" stroke-dasharray="5,2" points="626.5,-35 563.5,-35 563.5,-16 626.5,-16 626.5,-35"/>
<text text-anchor="middle" x="595" y="-23" font-family="Helvetica,sans-Serif" font-size="10.00">simulator</text>
</a>
</g>
</g>
<!-- dir_6b9b1723340264dc1e630f920a659643&#45;&gt;dir_420f87287d5a5fc6f35b7971ed84ed3f -->
<g id="edge3" class="edge">
<title>dir_6b9b1723340264dc1e630f920a659643&#45;&gt;dir_420f87287d5a5fc6f35b7971ed84ed3f</title>
<g id="a_edge3"><a xlink:href="dir_000017_000023.html" target="_top">
<path fill="none" stroke="#63b8ff" d="M436.53,-73.42C465.66,-64.8 519.51,-48.85 556.28,-37.96"/>
<polygon fill="#63b8ff" stroke="#63b8ff" points="557.57,-41.23 566.16,-35.04 555.58,-34.52 557.57,-41.23"/>
</a>
</g>
<g id="a_edge3&#45;headlabel"><a xlink:href="dir_000017_000023.html" target="_top" xlink:title="2">
<text text-anchor="middle" x="554.93" y="-42.48" font-family="Helvetica,sans-Serif" font-size="10.00" fill="#63b8ff">2</text>
</a>
</g>
</g>
<!-- dir_ce9acbebd20a964a9fb527ea0a00b86e -->
<g id="node10" class="node">
<title>dir_ce9acbebd20a964a9fb527ea0a00b86e</title>
<g id="a_node10"><a xlink:href="dir_ce9acbebd20a964a9fb527ea0a00b86e.html" target="_top" xlink:title="drivers">
<polygon fill="#edf0f7" stroke="red" stroke-dasharray="5,2" points="695,-35 645,-35 645,-16 695,-16 695,-35"/>
<text text-anchor="middle" x="670" y="-23" font-family="Helvetica,sans-Serif" font-size="10.00">drivers</text>
</a>
</g>
</g>
<!-- dir_6b9b1723340264dc1e630f920a659643&#45;&gt;dir_ce9acbebd20a964a9fb527ea0a00b86e -->
<g id="edge6" class="edge">
<title>dir_6b9b1723340264dc1e630f920a659643&#45;&gt;dir_ce9acbebd20a964a9fb527ea0a00b86e</title>
<g id="a_edge6"><a xlink:href="dir_000017_000003.html" target="_top">
<path fill="none" stroke="#63b8ff" d="M436.69,-75.64C474.16,-68.58 555.95,-52.85 634.7,-35.21"/>
<polygon fill="#63b8ff" stroke="#63b8ff" points="635.79,-38.55 644.78,-32.94 634.25,-31.73 635.79,-38.55"/>
</a>
</g>
<g id="a_edge6&#45;headlabel"><a xlink:href="dir_000017_000003.html" target="_top" xlink:title="1">
<text text-anchor="middle" x="632.91" y="-39.61" font-family="Helvetica,sans-Serif" font-size="10.00" fill="#63b8ff">1</text>
</a>
</g>
</g>
<!-- dir_f18bcf57bbcb015d680a06f545708a64 -->
<g id="node11" class="node">
<title>dir_f18bcf57bbcb015d680a06f545708a64</title>
<g id="a_node11"><a xlink:href="dir_f18bcf57bbcb015d680a06f545708a64.html" target="_top" xlink:title="utilities">
<polygon fill="#edf0f7" stroke="red" stroke-dasharray="5,2" points="766.5,-35 713.5,-35 713.5,-16 766.5,-16 766.5,-35"/>
<text text-anchor="middle" x="740" y="-23" font-family="Helvetica,sans-Serif" font-size="10.00">utilities</text>
</a>
</g>
</g>
<!-- dir_6b9b1723340264dc1e630f920a659643&#45;&gt;dir_f18bcf57bbcb015d680a06f545708a64 -->
<g id="edge10" class="edge">
<title>dir_6b9b1723340264dc1e630f920a659643&#45;&gt;dir_f18bcf57bbcb015d680a06f545708a64</title>
<g id="a_edge10"><a xlink:href="dir_000017_000036.html" target="_top">
<path fill="none" stroke="#63b8ff" d="M436.7,-76.87C482.73,-70.9 597.22,-55.39 703.4,-34.97"/>
<polygon fill="#63b8ff" stroke="#63b8ff" points="704.17,-38.39 713.31,-33.05 702.83,-31.52 704.17,-38.39"/>
</a>
</g>
<g id="a_edge10&#45;headlabel"><a xlink:href="dir_000017_000036.html" target="_top" xlink:title="2">
<text text-anchor="middle" x="701.18" y="-39.36" font-family="Helvetica,sans-Serif" font-size="10.00" fill="#63b8ff">2</text>
</a>
</g>
</g>
</g>
</svg>

<g id="navigator" transform="translate(0 0)" fill="#404254">
  <rect fill="#f2f5e9" fill-opacity="0.5" stroke="#606060" stroke-width=".5" x="0" y="0" width="60" height="60"/>
  <use id="zoomplus" xlink:href="#zoomPlus" x="17" y="9" onmousedown="handleZoom(evt,'in')"/>
  <use id="zoomminus" xlink:href="#zoomMin" x="42" y="9" onmousedown="handleZoom(evt,'out')"/>
  <use id="reset" xlink:href="#resetDef" x="30" y="36" onmousedown="handleReset()"/>
   <use id="arrowup" xlink:href="#arrowUp" x="0" y="0" onmousedown="handlePan(0,-1)"/>
  <use id="arrowright" xlink:href="#arrowRight" x="0" y="0" onmousedown="handlePan(1,0)"/>
  <use id="arrowdown" xlink:href="#arrowDown" x="0" y="0" onmousedown="handlePan(0,1)"/>
  <use id="arrowleft" xlink:href="#arrowLeft" x="0" y="0" onmousedown="handlePan(-1,0)"/>
</g>
<svg viewBox="0 0 15 15" width="100%" height="30px" preserveAspectRatio="xMaxYMin meet">
 <g id="arrow_out" transform="scale(0.3 0.3)">
  <a xlink:href="dir_6b9b1723340264dc1e630f920a659643_dep_org.svg" target="_base">
   <rect id="button" ry="5" rx="5" y="6" x="6" height="38" width="38"
        fill="#f2f5e9" fill-opacity="0.5" stroke="#606060" stroke-width="1.0"/>
   <path id="arrow"
     d="M 11.500037,31.436501 C 11.940474,20.09759 22.043105,11.32322 32.158766,21.979434 L 37.068811,17.246167 C 37.068811,17.246167 37.088388,32 37.088388,32 L 22.160133,31.978069 C 22.160133,31.978069 26.997745,27.140456 26.997745,27.140456 C 18.528582,18.264221 13.291696,25.230495 11.500037,31.436501 z"
     style="fill:#404040;"/>
  </a>
 </g>
</svg>

<style type='text/css'>
<![CDATA[
[data-mouse-over-selected='false'] { opacity: 0.7; }
[data-mouse-over-selected='true']  { opacity: 1.0; }
]]>
</style>
<script type="application/ecmascript"><![CDATA[
document.addEventListener('DOMContentLoaded', (event) => {
  highlightEdges();
  highlightAdjacentNodes();
});
]]></script>
</svg>
