<?xml version="1.0" encoding="UTF-8" standalone="no"?>
<!DOCTYPE svg PUBLIC "-//W3C//DTD SVG 1.1//EN"
 "http://www.w3.org/Graphics/SVG/1.1/DTD/svg11.dtd">
<!-- Generated by graphviz version 12.1.2 (20240928.0832)
 -->
<!-- Title: drivers Pages: 1 -->
<svg width="160pt" height="200pt"
 viewBox="0.00 0.00 160.00 200.00" xmlns="http://www.w3.org/2000/svg" xmlns:xlink="http://www.w3.org/1999/xlink">
<g id="graph0" class="graph" transform="scale(1 1) rotate(0) translate(4 196)">
<title>drivers</title>
<g id="clust1" class="cluster">
<title>clusterdir_5c982d53a68cdbcd421152b4020263a9</title>
<g id="a_clust1"><a xlink:href="dir_5c982d53a68cdbcd421152b4020263a9.html" target="_top" xlink:title="main">
<polygon fill="#edf0f7" stroke="#404040" stroke-dasharray="5,2" points="8,-8 8,-184 144,-184 144,-8 8,-8"/>
<text text-anchor="middle" x="76" y="-170.5" font-family="Helvetica,sans-Serif" font-size="10.00">main</text>
</a>
</g>
</g>
<g id="clust2" class="cluster">
<title>clusterdir_ce9acbebd20a964a9fb527ea0a00b86e</title>
<g id="a_clust2"><a xlink:href="dir_ce9acbebd20a964a9fb527ea0a00b86e.html" target="_top">
<polygon fill="#edf0f7" stroke="#404040" stroke-width="2" points="16,-64 16,-156 125,-156 125,-64 16,-64"/>
</a>
</g>
</g>
<!-- dir_420f87287d5a5fc6f35b7971ed84ed3f -->
<g id="node1" class="node">
<title>dir_420f87287d5a5fc6f35b7971ed84ed3f</title>
<g id="a_node1"><a xlink:href="dir_420f87287d5a5fc6f35b7971ed84ed3f.html" target="_top" xlink:title="simulator">
<polygon fill="#a2b4d6" stroke="red" points="71.88,-36 16.12,-36 16.12,-16 71.88,-16 71.88,-36"/>
<text text-anchor="middle" x="44" y="-22.5" font-family="Helvetica,sans-Serif" font-size="10.00">simulator</text>
</a>
</g>
</g>
<!-- dir_f18bcf57bbcb015d680a06f545708a64 -->
<g id="node2" class="node">
<title>dir_f18bcf57bbcb015d680a06f545708a64</title>
<g id="a_node2"><a xlink:href="dir_f18bcf57bbcb015d680a06f545708a64.html" target="_top" xlink:title="utilities">
<polygon fill="#a2b4d6" stroke="red" points="136.38,-36 89.62,-36 89.62,-16 136.38,-16 136.38,-36"/>
<text text-anchor="middle" x="113" y="-22.5" font-family="Helvetica,sans-Serif" font-size="10.00">utilities</text>
</a>
</g>
</g>
<!-- dir_ce9acbebd20a964a9fb527ea0a00b86e -->
<g id="node3" class="node">
<title>dir_ce9acbebd20a964a9fb527ea0a00b86e</title>
<text text-anchor="middle" x="47" y="-134.5" font-family="Helvetica,sans-Serif" font-size="10.00">drivers</text>
</g>
<!-- dir_098d6dbb805f4fa1ee37a633d37d2098 -->
<g id="node4" class="node">
<title>dir_098d6dbb805f4fa1ee37a633d37d2098</title>
<g id="a_node4"><a xlink:href="dir_098d6dbb805f4fa1ee37a633d37d2098.html" target="_top" xlink:title="include">
<polygon fill="#a2b4d6" stroke="#404040" points="109.38,-92 62.62,-92 62.62,-72 109.38,-72 109.38,-92"/>
<text text-anchor="middle" x="86" y="-78.5" font-family="Helvetica,sans-Serif" font-size="10.00">include</text>
</a>
</g>
</g>
<!-- dir_098d6dbb805f4fa1ee37a633d37d2098&#45;&gt;dir_420f87287d5a5fc6f35b7971ed84ed3f -->
<g id="edge1" class="edge">
<title>dir_098d6dbb805f4fa1ee37a633d37d2098&#45;&gt;dir_420f87287d5a5fc6f35b7971ed84ed3f</title>
<g id="a_edge1"><a xlink:href="dir_000007_000019.html" target="_top">
<path fill="none" stroke="#63b8ff" d="M78.68,-71.59C73.02,-64.32 65.01,-54.02 58.11,-45.15"/>
<polygon fill="#63b8ff" stroke="#63b8ff" points="61.06,-43.24 52.16,-37.49 55.54,-47.54 61.06,-43.24"/>
</a>
</g>
<g id="a_edge1&#45;headlabel"><a xlink:href="dir_000007_000019.html" target="_top" xlink:title="15">
<text text-anchor="middle" x="64.58" y="-39.64" font-family="Helvetica,sans-Serif" font-size="10.00" fill="#63b8ff">15</text>
</a>
</g>
</g>
<!-- dir_098d6dbb805f4fa1ee37a633d37d2098&#45;&gt;dir_f18bcf57bbcb015d680a06f545708a64 -->
<g id="edge2" class="edge">
<title>dir_098d6dbb805f4fa1ee37a633d37d2098&#45;&gt;dir_f18bcf57bbcb015d680a06f545708a64</title>
<g id="a_edge2"><a xlink:href="dir_000007_000031.html" target="_top">
<path fill="none" stroke="#63b8ff" d="M90.7,-71.59C94.15,-64.7 98.95,-55.1 103.21,-46.57"/>
<polygon fill="#63b8ff" stroke="#63b8ff" points="106.33,-48.16 107.67,-37.65 100.07,-45.03 106.33,-48.16"/>
</a>
</g>
<g id="a_edge2&#45;headlabel"><a xlink:href="dir_000007_000031.html" target="_top" xlink:title="1">
<text text-anchor="middle" x="107.94" y="-47.79" font-family="Helvetica,sans-Serif" font-size="10.00" fill="#63b8ff">1</text>
</a>
</g>
</g>
<!-- dir_85036ef2af93c07967a77933fedc5b50 -->
<g id="node5" class="node">
<title>dir_85036ef2af93c07967a77933fedc5b50</title>
<g id="a_node5"><a xlink:href="dir_85036ef2af93c07967a77933fedc5b50.html" target="_top" xlink:title="src">
<polygon fill="#a2b4d6" stroke="#404040" points="116.75,-148 87.25,-148 87.25,-128 116.75,-128 116.75,-148"/>
<text text-anchor="middle" x="102" y="-134.5" font-family="Helvetica,sans-Serif" font-size="10.00">src</text>
</a>
</g>
</g>
<!-- dir_85036ef2af93c07967a77933fedc5b50&#45;&gt;dir_420f87287d5a5fc6f35b7971ed84ed3f -->
<g id="edge4" class="edge">
<title>dir_85036ef2af93c07967a77933fedc5b50&#45;&gt;dir_420f87287d5a5fc6f35b7971ed84ed3f</title>
<g id="a_edge4"><a xlink:href="dir_000020_000019.html" target="_top">
<path fill="none" stroke="#63b8ff" d="M87.79,-127.72C76.69,-119.66 61.88,-106.95 54,-92 46.82,-78.38 44.43,-61.06 43.77,-47.73"/>
<polygon fill="#63b8ff" stroke="#63b8ff" points="47.28,-47.87 43.61,-37.93 40.28,-47.99 47.28,-47.87"/>
</a>
</g>
<g id="a_edge4&#45;headlabel"><a xlink:href="dir_000020_000019.html" target="_top" xlink:title="7">
<text text-anchor="middle" x="50.15" y="-46.4" font-family="Helvetica,sans-Serif" font-size="10.00" fill="#63b8ff">7</text>
</a>
</g>
</g>
<!-- dir_85036ef2af93c07967a77933fedc5b50&#45;&gt;dir_f18bcf57bbcb015d680a06f545708a64 -->
<g id="edge5" class="edge">
<title>dir_85036ef2af93c07967a77933fedc5b50&#45;&gt;dir_f18bcf57bbcb015d680a06f545708a64</title>
<g id="a_edge5"><a xlink:href="dir_000020_000031.html" target="_top">
<path fill="none" stroke="#63b8ff" d="M106.41,-127.6C110.34,-118.67 115.8,-104.75 118,-92 120.54,-77.28 119.13,-60.46 117.17,-47.61"/>
<polygon fill="#63b8ff" stroke="#63b8ff" points="120.62,-47.04 115.42,-37.81 113.73,-48.27 120.62,-47.04"/>
</a>
</g>
<g id="a_edge5&#45;headlabel"><a xlink:href="dir_000020_000031.html" target="_top" xlink:title="6">
<text text-anchor="middle" x="123.78" y="-45.09" font-family="Helvetica,sans-Serif" font-size="10.00" fill="#63b8ff">6</text>
</a>
</g>
</g>
<!-- dir_85036ef2af93c07967a77933fedc5b50&#45;&gt;dir_098d6dbb805f4fa1ee37a633d37d2098 -->
<g id="edge3" class="edge">
<title>dir_85036ef2af93c07967a77933fedc5b50&#45;&gt;dir_098d6dbb805f4fa1ee37a633d37d2098</title>
<g id="a_edge3"><a xlink:href="dir_000020_000007.html" target="_top">
<path fill="none" stroke="#63b8ff" d="M99.21,-127.59C97.22,-120.86 94.45,-111.53 91.97,-103.15"/>
<polygon fill="#63b8ff" stroke="#63b8ff" points="95.38,-102.34 89.19,-93.75 88.67,-104.33 95.38,-102.34"/>
</a>
</g>
<g id="a_edge3&#45;headlabel"><a xlink:href="dir_000020_000007.html" target="_top" xlink:title="7">
<text text-anchor="middle" x="98.7" y="-100.03" font-family="Helvetica,sans-Serif" font-size="10.00" fill="#63b8ff">7</text>
</a>
</g>
</g>
</g>
</svg>
