<?xml version="1.0" encoding="UTF-8" standalone="no"?>
<!DOCTYPE svg PUBLIC "-//W3C//DTD SVG 1.1//EN"
 "http://www.w3.org/Graphics/SVG/1.1/DTD/svg11.dtd">
<!-- Generated by graphviz version 2.43.0 (0)
 -->
<!-- Title: command Pages: 1 -->
<!--zoomable 133 -->

<svg id="main" version="1.1" xmlns="http://www.w3.org/2000/svg" xmlns:xlink="http://www.w3.org/1999/xlink" xml:space="preserve" onload="init(evt)">

<style type="text/css"><![CDATA[
.node, .edge {opacity: 0.7;}
.node.selected, .edge.selected {opacity: 1;}
.edge:hover path { stroke: red; }
.edge:hover polygon { stroke: red; fill: red; }
]]></style>

<defs>
  <circle id="rim" cx="0" cy="0" r="7"/>
  <circle id="rim2" cx="0" cy="0" r="3.5"/>
  <g id="zoomPlus">
    <use xlink:href="#rim" fill="#404040"><set attributeName="fill" to="#808080" begin="zoomplus.mouseover" end="zoomplus.mouseout"/></use>
    <path d="M-4,0h8M0,-4v8" fill="none" stroke="white" stroke-width="1.5" pointer-events="none"/>
  </g>
  <g id="zoomMin">
    <use xlink:href="#rim" fill="#404040"><set attributeName="fill" to="#808080" begin="zoomminus.mouseover" end="zoomminus.mouseout"/></use>
    <path d="M-4,0h8" fill="none" stroke="white" stroke-width="1.5" pointer-events="none"/>
  </g>
  <g id="arrowUp" transform="translate(30 24)">
    <use xlink:href="#rim"/>
    <path pointer-events="none" fill="none" stroke="white" stroke-width="1.5" d="M0,-3.0v7 M-2.5,-0.5L0,-3.0L2.5,-0.5"/>
  </g>
  <g id="arrowRight" transform="rotate(90) translate(36 -43)">
    <use xlink:href="#rim"/>
    <path pointer-events="none" fill="none" stroke="white" stroke-width="1.5" d="M0,-3.0v7 M-2.5,-0.5L0,-3.0L2.5,-0.5"/>
  </g>
  <g id="arrowDown" transform="rotate(180) translate(-30 -48)">
    <use xlink:href="#rim"/>
    <path pointer-events="none" fill="none" stroke="white" stroke-width="1.5" d="M0,-3.0v7 M-2.5,-0.5L0,-3.0L2.5,-0.5"/>
  </g>
  <g id="arrowLeft" transform="rotate(270) translate(-36 17)">
    <use xlink:href="#rim"/>
    <path pointer-events="none" fill="none" stroke="white" stroke-width="1.5" d="M0,-3.0v7 M-2.5,-0.5L0,-3.0L2.5,-0.5"/>
  </g>
  <g id="resetDef">
    <use xlink:href="#rim2" fill="#404040"><set attributeName="fill" to="#808080" begin="reset.mouseover" end="reset.mouseout"/></use>
  </g>
</defs>
<script type="application/ecmascript">
var viewWidth = 539;
var viewHeight = 133;
var sectionId = 'dynsection-0';
</script>
<script type="application/ecmascript" xlink:href="svg.min.js"/>
<svg id="graph" class="graph">
<g id="viewport">
<title>command</title>
<g id="clust1" class="cluster">
<title>clusterdir_76dd8867a16d204aa2db31affc56d971</title>
<g id="a_clust1"><a xlink:href="dir_76dd8867a16d204aa2db31affc56d971.html" target="_top" xlink:title="tasks">
<polygon fill="#edf0f7" stroke="#7f7f7f" stroke-dasharray="5,2" points="8,-8 8,-117 386,-117 386,-8 8,-8"/>
<text text-anchor="middle" x="197" y="-105" font-family="Helvetica,sans-Serif" font-size="10.00">tasks</text>
</a>
</g>
</g>
<!-- dir_22cd7680a4ae9aae1bb38d456a8f3737 -->
<g id="node1" class="node">
<title>dir_22cd7680a4ae9aae1bb38d456a8f3737</title>
<g id="a_node1"><a xlink:href="dir_22cd7680a4ae9aae1bb38d456a8f3737.html" target="_top" xlink:title="watchdog">
<polygon fill="#a2b4d6" stroke="#404040" points="80,-35 16,-35 16,-16 80,-16 80,-35"/>
<text text-anchor="middle" x="48" y="-23" font-family="Helvetica,sans-Serif" font-size="10.00">watchdog</text>
</a>
</g>
</g>
<!-- dir_35b10f17c6024418821fe45539f7d1fa -->
<g id="node2" class="node">
<title>dir_35b10f17c6024418821fe45539f7d1fa</title>
<g id="a_node2"><a xlink:href="dir_35b10f17c6024418821fe45539f7d1fa.html" target="_top" xlink:title="file&#45;downlink">
<polygon fill="#a2b4d6" stroke="#404040" points="178,-35 98,-35 98,-16 178,-16 178,-35"/>
<text text-anchor="middle" x="138" y="-23" font-family="Helvetica,sans-Serif" font-size="10.00">file&#45;downlink</text>
</a>
</g>
</g>
<!-- dir_43eaeccdd6b29c571d9022b0dcb8cd4e -->
<g id="node3" class="node">
<title>dir_43eaeccdd6b29c571d9022b0dcb8cd4e</title>
<g id="a_node3"><a xlink:href="dir_43eaeccdd6b29c571d9022b0dcb8cd4e.html" target="_top" xlink:title="steve">
<polygon fill="#a2b4d6" stroke="red" points="240,-35 196,-35 196,-16 240,-16 240,-35"/>
<text text-anchor="middle" x="218" y="-23" font-family="Helvetica,sans-Serif" font-size="10.00">steve</text>
</a>
</g>
</g>
<!-- dir_e4210f374a3e5cd013f5bf87dcb352bb -->
<g id="node4" class="node">
<title>dir_e4210f374a3e5cd013f5bf87dcb352bb</title>
<g id="a_node4"><a xlink:href="dir_e4210f374a3e5cd013f5bf87dcb352bb.html" target="_top" xlink:title="filesystem">
<polygon fill="#a2b4d6" stroke="#404040" points="326,-35 258,-35 258,-16 326,-16 326,-35"/>
<text text-anchor="middle" x="292" y="-23" font-family="Helvetica,sans-Serif" font-size="10.00">filesystem</text>
</a>
</g>
</g>
<!-- dir_eab2301a68d140567e746b22d4e0c3b8 -->
<g id="node5" class="node">
<title>dir_eab2301a68d140567e746b22d4e0c3b8</title>
<g id="a_node5"><a xlink:href="dir_eab2301a68d140567e746b22d4e0c3b8.html" target="_top" xlink:title="gse">
<polygon fill="#a2b4d6" stroke="#404040" points="378,-35 344,-35 344,-16 378,-16 378,-35"/>
<text text-anchor="middle" x="361" y="-23" font-family="Helvetica,sans-Serif" font-size="10.00">gse</text>
</a>
</g>
</g>
<!-- dir_d700705468c111f3e92036fb5a08c541 -->
<g id="node6" class="node">
<title>dir_d700705468c111f3e92036fb5a08c541</title>
<g id="a_node6"><a xlink:href="dir_d700705468c111f3e92036fb5a08c541.html" target="_top" xlink:title="command">
<polygon fill="#edf0f7" stroke="#404040" stroke-width="2" points="324.5,-90 259.5,-90 259.5,-71 324.5,-71 324.5,-90"/>
<text text-anchor="middle" x="292" y="-78" font-family="Helvetica,sans-Serif" font-size="10.00">command</text>
</a>
</g>
</g>
<!-- dir_d700705468c111f3e92036fb5a08c541&#45;&gt;dir_22cd7680a4ae9aae1bb38d456a8f3737 -->
<g id="edge1" class="edge">
<title>dir_d700705468c111f3e92036fb5a08c541&#45;&gt;dir_22cd7680a4ae9aae1bb38d456a8f3737</title>
<g id="a_edge1"><a xlink:href="dir_000000_000037.html" target="_top">
<path fill="none" stroke="#63b8ff" d="M259.35,-72.41C215.67,-62.92 138.18,-46.09 90.15,-35.65"/>
<polygon fill="#63b8ff" stroke="#63b8ff" points="90.59,-32.17 80.07,-33.47 89.1,-39.01 90.59,-32.17"/>
</a>
</g>
<g id="a_edge1&#45;headlabel"><a xlink:href="dir_000000_000037.html" target="_top" xlink:title="1">
<text text-anchor="middle" x="94.7" y="-27.66" font-family="Helvetica,sans-Serif" font-size="10.00" fill="#63b8ff">1</text>
</a>
</g>
</g>
<!-- dir_d700705468c111f3e92036fb5a08c541&#45;&gt;dir_35b10f17c6024418821fe45539f7d1fa -->
<g id="edge2" class="edge">
<title>dir_d700705468c111f3e92036fb5a08c541&#45;&gt;dir_35b10f17c6024418821fe45539f7d1fa</title>
<g id="a_edge2"><a xlink:href="dir_000000_000005.html" target="_top">
<path fill="none" stroke="#63b8ff" d="M267.26,-70.98C241.63,-62.16 201.37,-48.31 172.59,-38.41"/>
<polygon fill="#63b8ff" stroke="#63b8ff" points="173.53,-35.03 162.94,-35.08 171.25,-41.65 173.53,-35.03"/>
</a>
</g>
<g id="a_edge2&#45;headlabel"><a xlink:href="dir_000000_000005.html" target="_top" xlink:title="1">
<text text-anchor="middle" x="177.85" y="-31.01" font-family="Helvetica,sans-Serif" font-size="10.00" fill="#63b8ff">1</text>
</a>
</g>
</g>
<!-- dir_d700705468c111f3e92036fb5a08c541&#45;&gt;dir_43eaeccdd6b29c571d9022b0dcb8cd4e -->
<g id="edge4" class="edge">
<title>dir_d700705468c111f3e92036fb5a08c541&#45;&gt;dir_43eaeccdd6b29c571d9022b0dcb8cd4e</title>
<g id="a_edge4"><a xlink:href="dir_000000_000027.html" target="_top">
<path fill="none" stroke="#63b8ff" d="M280.11,-70.98C268.85,-62.92 251.71,-50.65 238.29,-41.03"/>
<polygon fill="#63b8ff" stroke="#63b8ff" points="240.27,-38.15 230.11,-35.17 236.2,-43.84 240.27,-38.15"/>
</a>
</g>
<g id="a_edge4&#45;headlabel"><a xlink:href="dir_000000_000027.html" target="_top" xlink:title="4">
<text text-anchor="middle" x="244.85" y="-35.43" font-family="Helvetica,sans-Serif" font-size="10.00" fill="#63b8ff">4</text>
</a>
</g>
</g>
<!-- dir_d700705468c111f3e92036fb5a08c541&#45;&gt;dir_e4210f374a3e5cd013f5bf87dcb352bb -->
<g id="edge5" class="edge">
<title>dir_d700705468c111f3e92036fb5a08c541&#45;&gt;dir_e4210f374a3e5cd013f5bf87dcb352bb</title>
<g id="a_edge5"><a xlink:href="dir_000000_000006.html" target="_top">
<path fill="none" stroke="#63b8ff" d="M292,-70.75C292,-63.8 292,-53.85 292,-45.13"/>
<polygon fill="#63b8ff" stroke="#63b8ff" points="295.5,-45.09 292,-35.09 288.5,-45.09 295.5,-45.09"/>
</a>
</g>
<g id="a_edge5&#45;headlabel"><a xlink:href="dir_000000_000006.html" target="_top" xlink:title="1">
<text text-anchor="middle" x="298.34" y="-46.18" font-family="Helvetica,sans-Serif" font-size="10.00" fill="#63b8ff">1</text>
</a>
</g>
</g>
<!-- dir_d700705468c111f3e92036fb5a08c541&#45;&gt;dir_eab2301a68d140567e746b22d4e0c3b8 -->
<g id="edge6" class="edge">
<title>dir_d700705468c111f3e92036fb5a08c541&#45;&gt;dir_eab2301a68d140567e746b22d4e0c3b8</title>
<g id="a_edge6"><a xlink:href="dir_000000_000009.html" target="_top">
<path fill="none" stroke="#63b8ff" d="M303.09,-70.98C313.49,-63 329.26,-50.88 341.72,-41.31"/>
<polygon fill="#63b8ff" stroke="#63b8ff" points="343.91,-44.04 349.71,-35.17 339.65,-38.49 343.91,-44.04"/>
</a>
</g>
<g id="a_edge6&#45;headlabel"><a xlink:href="dir_000000_000009.html" target="_top" xlink:title="1">
<text text-anchor="middle" x="342.79" y="-45.98" font-family="Helvetica,sans-Serif" font-size="10.00" fill="#63b8ff">1</text>
</a>
</g>
</g>
<!-- dir_420f87287d5a5fc6f35b7971ed84ed3f -->
<g id="node7" class="node">
<title>dir_420f87287d5a5fc6f35b7971ed84ed3f</title>
<g id="a_node7"><a xlink:href="dir_420f87287d5a5fc6f35b7971ed84ed3f.html" target="_top" xlink:title="simulator">
<polygon fill="#edf0f7" stroke="red" stroke-dasharray="5,2" points="459.5,-35 396.5,-35 396.5,-16 459.5,-16 459.5,-35"/>
<text text-anchor="middle" x="428" y="-23" font-family="Helvetica,sans-Serif" font-size="10.00">simulator</text>
</a>
</g>
</g>
<!-- dir_d700705468c111f3e92036fb5a08c541&#45;&gt;dir_420f87287d5a5fc6f35b7971ed84ed3f -->
<g id="edge3" class="edge">
<title>dir_d700705468c111f3e92036fb5a08c541&#45;&gt;dir_420f87287d5a5fc6f35b7971ed84ed3f</title>
<g id="a_edge3"><a xlink:href="dir_000000_000023.html" target="_top">
<path fill="none" stroke="#63b8ff" d="M313.85,-70.98C336.12,-62.3 370.9,-48.75 396.22,-38.88"/>
<polygon fill="#63b8ff" stroke="#63b8ff" points="397.71,-42.06 405.75,-35.17 395.16,-35.54 397.71,-42.06"/>
</a>
</g>
<g id="a_edge3&#45;headlabel"><a xlink:href="dir_000000_000023.html" target="_top" xlink:title="1">
<text text-anchor="middle" x="395.39" y="-43.51" font-family="Helvetica,sans-Serif" font-size="10.00" fill="#63b8ff">1</text>
</a>
</g>
</g>
<!-- dir_f18bcf57bbcb015d680a06f545708a64 -->
<g id="node8" class="node">
<title>dir_f18bcf57bbcb015d680a06f545708a64</title>
<g id="a_node8"><a xlink:href="dir_f18bcf57bbcb015d680a06f545708a64.html" target="_top" xlink:title="utilities">
<polygon fill="#edf0f7" stroke="red" stroke-dasharray="5,2" points="530.5,-35 477.5,-35 477.5,-16 530.5,-16 530.5,-35"/>
<text text-anchor="middle" x="504" y="-23" font-family="Helvetica,sans-Serif" font-size="10.00">utilities</text>
</a>
</g>
</g>
<!-- dir_d700705468c111f3e92036fb5a08c541&#45;&gt;dir_f18bcf57bbcb015d680a06f545708a64 -->
<g id="edge7" class="edge">
<title>dir_d700705468c111f3e92036fb5a08c541&#45;&gt;dir_f18bcf57bbcb015d680a06f545708a64</title>
<g id="a_edge7"><a xlink:href="dir_000000_000036.html" target="_top">
<path fill="none" stroke="#63b8ff" d="M324.66,-71.33C363.23,-61.69 427.22,-45.7 467.42,-35.65"/>
<polygon fill="#63b8ff" stroke="#63b8ff" points="468.49,-38.98 477.35,-33.16 466.8,-32.19 468.49,-38.98"/>
</a>
</g>
<g id="a_edge7&#45;headlabel"><a xlink:href="dir_000000_000036.html" target="_top" xlink:title="3">
<text text-anchor="middle" x="465.69" y="-40.11" font-family="Helvetica,sans-Serif" font-size="10.00" fill="#63b8ff">3</text>
</a>
</g>
</g>
</g>
</svg>

<g id="navigator" transform="translate(0 0)" fill="#404254">
  <rect fill="#f2f5e9" fill-opacity="0.5" stroke="#606060" stroke-width=".5" x="0" y="0" width="60" height="60"/>
  <use id="zoomplus" xlink:href="#zoomPlus" x="17" y="9" onmousedown="handleZoom(evt,'in')"/>
  <use id="zoomminus" xlink:href="#zoomMin" x="42" y="9" onmousedown="handleZoom(evt,'out')"/>
  <use id="reset" xlink:href="#resetDef" x="30" y="36" onmousedown="handleReset()"/>
   <use id="arrowup" xlink:href="#arrowUp" x="0" y="0" onmousedown="handlePan(0,-1)"/>
  <use id="arrowright" xlink:href="#arrowRight" x="0" y="0" onmousedown="handlePan(1,0)"/>
  <use id="arrowdown" xlink:href="#arrowDown" x="0" y="0" onmousedown="handlePan(0,1)"/>
  <use id="arrowleft" xlink:href="#arrowLeft" x="0" y="0" onmousedown="handlePan(-1,0)"/>
</g>
<svg viewBox="0 0 15 15" width="100%" height="30px" preserveAspectRatio="xMaxYMin meet">
 <g id="arrow_out" transform="scale(0.3 0.3)">
  <a xlink:href="dir_d700705468c111f3e92036fb5a08c541_dep_org.svg" target="_base">
   <rect id="button" ry="5" rx="5" y="6" x="6" height="38" width="38"
        fill="#f2f5e9" fill-opacity="0.5" stroke="#606060" stroke-width="1.0"/>
   <path id="arrow"
     d="M 11.500037,31.436501 C 11.940474,20.09759 22.043105,11.32322 32.158766,21.979434 L 37.068811,17.246167 C 37.068811,17.246167 37.088388,32 37.088388,32 L 22.160133,31.978069 C 22.160133,31.978069 26.997745,27.140456 26.997745,27.140456 C 18.528582,18.264221 13.291696,25.230495 11.500037,31.436501 z"
     style="fill:#404040;"/>
  </a>
 </g>
</svg>

<style type='text/css'>
<![CDATA[
[data-mouse-over-selected='false'] { opacity: 0.7; }
[data-mouse-over-selected='true']  { opacity: 1.0; }
]]>
</style>
<script type="application/ecmascript"><![CDATA[
document.addEventListener('DOMContentLoaded', (event) => {
  highlightEdges();
  highlightAdjacentNodes();
});
]]></script>
</svg>
