<?xml version="1.0" encoding="UTF-8" standalone="no"?>
<!DOCTYPE svg PUBLIC "-//W3C//DTD SVG 1.1//EN"
 "http://www.w3.org/Graphics/SVG/1.1/DTD/svg11.dtd">
<!-- Generated by graphviz version 2.43.0 (0)
 -->
<!-- Title: tasks Pages: 1 -->
<svg width="472pt" height="361pt"
 viewBox="0.00 0.00 472.00 361.00" xmlns="http://www.w3.org/2000/svg" xmlns:xlink="http://www.w3.org/1999/xlink">

<svg id="main" version="1.1" xmlns="http://www.w3.org/2000/svg" xmlns:xlink="http://www.w3.org/1999/xlink" xml:space="preserve">

<style type="text/css"><![CDATA[
.node, .edge {opacity: 0.7;}
.node.selected, .edge.selected {opacity: 1;}
.edge:hover path { stroke: red; }
.edge:hover polygon { stroke: red; fill: red; }
]]></style>
<script type="application/ecmascript" xlink:href="svg.min.js"/>
<svg id="graph" class="graph">
<g id="graph0" class="graph" transform="scale(1 1) rotate(0) translate(4 357)">
<title>tasks</title>
<g id="clust1" class="cluster">
<title>clusterdir_5c982d53a68cdbcd421152b4020263a9</title>
<g id="a_clust1"><a xlink:href="dir_5c982d53a68cdbcd421152b4020263a9.html" target="_top" xlink:title="main">
<polygon fill="#edf0f7" stroke="#404040" stroke-dasharray="5,2" points="8,-8 8,-345 456,-345 456,-8 8,-8"/>
<text text-anchor="middle" x="232" y="-333" font-family="Helvetica,sans-Serif" font-size="10.00">main</text>
</a>
</g>
</g>
<g id="clust2" class="cluster">
<title>clusterdir_76dd8867a16d204aa2db31affc56d971</title>
<g id="a_clust2"><a xlink:href="dir_76dd8867a16d204aa2db31affc56d971.html" target="_top">
<polygon fill="#edf0f7" stroke="#404040" stroke-width="2" points="68,-63 68,-318 376,-318 376,-63 68,-63"/>
</a>
</g>
</g>
<!-- dir_420f87287d5a5fc6f35b7971ed84ed3f -->
<g id="node1" class="node">
<title>dir_420f87287d5a5fc6f35b7971ed84ed3f</title>
<g id="a_node1"><a xlink:href="dir_420f87287d5a5fc6f35b7971ed84ed3f.html" target="_top" xlink:title="simulator">
<polygon fill="#a2b4d6" stroke="red" points="370.5,-35 307.5,-35 307.5,-16 370.5,-16 370.5,-35"/>
<text text-anchor="middle" x="339" y="-23" font-family="Helvetica,sans-Serif" font-size="10.00">simulator</text>
</a>
</g>
</g>
<!-- dir_ce9acbebd20a964a9fb527ea0a00b86e -->
<g id="node2" class="node">
<title>dir_ce9acbebd20a964a9fb527ea0a00b86e</title>
<g id="a_node2"><a xlink:href="dir_ce9acbebd20a964a9fb527ea0a00b86e.html" target="_top" xlink:title="drivers">
<polygon fill="#a2b4d6" stroke="red" points="439,-35 389,-35 389,-16 439,-16 439,-35"/>
<text text-anchor="middle" x="414" y="-23" font-family="Helvetica,sans-Serif" font-size="10.00">drivers</text>
</a>
</g>
</g>
<!-- dir_f18bcf57bbcb015d680a06f545708a64 -->
<g id="node3" class="node">
<title>dir_f18bcf57bbcb015d680a06f545708a64</title>
<g id="a_node3"><a xlink:href="dir_f18bcf57bbcb015d680a06f545708a64.html" target="_top" xlink:title="utilities">
<polygon fill="#a2b4d6" stroke="red" points="139.5,-35 86.5,-35 86.5,-16 139.5,-16 139.5,-35"/>
<text text-anchor="middle" x="113" y="-23" font-family="Helvetica,sans-Serif" font-size="10.00">utilities</text>
</a>
</g>
</g>
<!-- dir_76dd8867a16d204aa2db31affc56d971 -->
<g id="node4" class="node">
<title>dir_76dd8867a16d204aa2db31affc56d971</title>
<text text-anchor="middle" x="346" y="-298" font-family="Helvetica,sans-Serif" font-size="10.00">tasks</text>
</g>
<!-- dir_d700705468c111f3e92036fb5a08c541 -->
<g id="node5" class="node">
<title>dir_d700705468c111f3e92036fb5a08c541</title>
<g id="a_node5"><a xlink:href="dir_d700705468c111f3e92036fb5a08c541.html" target="_top" xlink:title="command">
<polygon fill="#a2b4d6" stroke="#404040" points="306.5,-255 241.5,-255 241.5,-236 306.5,-236 306.5,-255"/>
<text text-anchor="middle" x="274" y="-243" font-family="Helvetica,sans-Serif" font-size="10.00">command</text>
</a>
</g>
</g>
<!-- dir_d700705468c111f3e92036fb5a08c541&#45;&gt;dir_420f87287d5a5fc6f35b7971ed84ed3f -->
<g id="edge2" class="edge">
<title>dir_d700705468c111f3e92036fb5a08c541&#45;&gt;dir_420f87287d5a5fc6f35b7971ed84ed3f</title>
<g id="a_edge2"><a xlink:href="dir_000000_000021.html" target="_top">
<path fill="none" stroke="#63b8ff" d="M306.59,-236.03C324.85,-229.43 346.08,-218.24 357,-200 386.75,-150.29 361.99,-77.99 347.57,-44.62"/>
<polygon fill="#63b8ff" stroke="#63b8ff" points="350.64,-42.91 343.33,-35.23 344.26,-45.79 350.64,-42.91"/>
</a>
</g>
<g id="a_edge2&#45;headlabel"><a xlink:href="dir_000000_000021.html" target="_top" xlink:title="1">
<text text-anchor="middle" x="354.7" y="-42.52" font-family="Helvetica,sans-Serif" font-size="10.00" fill="#63b8ff">1</text>
</a>
</g>
</g>
<!-- dir_d700705468c111f3e92036fb5a08c541&#45;&gt;dir_f18bcf57bbcb015d680a06f545708a64 -->
<g id="edge6" class="edge">
<title>dir_d700705468c111f3e92036fb5a08c541&#45;&gt;dir_f18bcf57bbcb015d680a06f545708a64</title>
<g id="a_edge6"><a xlink:href="dir_000000_000034.html" target="_top">
<path fill="none" stroke="#63b8ff" d="M241.32,-236.96C239.86,-236.63 238.42,-236.31 237,-236 161.58,-219.35 115.63,-260 67,-200 28.8,-152.86 75.31,-77.07 99.78,-43.47"/>
<polygon fill="#63b8ff" stroke="#63b8ff" points="102.8,-45.28 106.01,-35.18 97.2,-41.07 102.8,-45.28"/>
</a>
</g>
<g id="a_edge6&#45;headlabel"><a xlink:href="dir_000000_000034.html" target="_top" xlink:title="3">
<text text-anchor="middle" x="102.92" y="-47.35" font-family="Helvetica,sans-Serif" font-size="10.00" fill="#63b8ff">3</text>
</a>
</g>
</g>
<!-- dir_e4210f374a3e5cd013f5bf87dcb352bb -->
<g id="node6" class="node">
<title>dir_e4210f374a3e5cd013f5bf87dcb352bb</title>
<g id="a_node6"><a xlink:href="dir_e4210f374a3e5cd013f5bf87dcb352bb.html" target="_top" xlink:title="filesystem">
<polygon fill="#a2b4d6" stroke="#404040" points="144,-200 76,-200 76,-181 144,-181 144,-200"/>
<text text-anchor="middle" x="110" y="-188" font-family="Helvetica,sans-Serif" font-size="10.00">filesystem</text>
</a>
</g>
</g>
<!-- dir_d700705468c111f3e92036fb5a08c541&#45;&gt;dir_e4210f374a3e5cd013f5bf87dcb352bb -->
<g id="edge4" class="edge">
<title>dir_d700705468c111f3e92036fb5a08c541&#45;&gt;dir_e4210f374a3e5cd013f5bf87dcb352bb</title>
<g id="a_edge4"><a xlink:href="dir_000000_000005.html" target="_top">
<path fill="none" stroke="#63b8ff" d="M247.65,-235.98C220.24,-227.13 177.11,-213.19 146.44,-203.28"/>
<polygon fill="#63b8ff" stroke="#63b8ff" points="147.15,-199.83 136.56,-200.08 145,-206.49 147.15,-199.83"/>
</a>
</g>
<g id="a_edge4&#45;headlabel"><a xlink:href="dir_000000_000005.html" target="_top" xlink:title="1">
<text text-anchor="middle" x="151.44" y="-195.73" font-family="Helvetica,sans-Serif" font-size="10.00" fill="#63b8ff">1</text>
</a>
</g>
</g>
<!-- dir_eab2301a68d140567e746b22d4e0c3b8 -->
<g id="node7" class="node">
<title>dir_eab2301a68d140567e746b22d4e0c3b8</title>
<g id="a_node7"><a xlink:href="dir_eab2301a68d140567e746b22d4e0c3b8.html" target="_top" xlink:title="gse">
<polygon fill="#a2b4d6" stroke="#404040" points="246,-90 212,-90 212,-71 246,-71 246,-90"/>
<text text-anchor="middle" x="229" y="-78" font-family="Helvetica,sans-Serif" font-size="10.00">gse</text>
</a>
</g>
</g>
<!-- dir_d700705468c111f3e92036fb5a08c541&#45;&gt;dir_eab2301a68d140567e746b22d4e0c3b8 -->
<g id="edge5" class="edge">
<title>dir_d700705468c111f3e92036fb5a08c541&#45;&gt;dir_eab2301a68d140567e746b22d4e0c3b8</title>
<g id="a_edge5"><a xlink:href="dir_000000_000007.html" target="_top">
<path fill="none" stroke="#63b8ff" d="M270.96,-235.58C271.38,-222.61 275.9,-198.2 266,-181 250.1,-153.39 219.9,-172.61 204,-145 195.7,-130.59 202.11,-111.92 210.8,-98.56"/>
<polygon fill="#63b8ff" stroke="#63b8ff" points="213.82,-100.37 217.04,-90.28 208.23,-96.16 213.82,-100.37"/>
</a>
</g>
<g id="a_edge5&#45;headlabel"><a xlink:href="dir_000000_000007.html" target="_top" xlink:title="1">
<text text-anchor="middle" x="213.93" y="-102.45" font-family="Helvetica,sans-Serif" font-size="10.00" fill="#63b8ff">1</text>
</a>
</g>
</g>
<!-- dir_43eaeccdd6b29c571d9022b0dcb8cd4e -->
<g id="node10" class="node">
<title>dir_43eaeccdd6b29c571d9022b0dcb8cd4e</title>
<g id="a_node10"><a xlink:href="dir_43eaeccdd6b29c571d9022b0dcb8cd4e.html" target="_top" xlink:title="steve">
<polygon fill="#a2b4d6" stroke="#404040" points="348,-200 304,-200 304,-181 348,-181 348,-200"/>
<text text-anchor="middle" x="326" y="-188" font-family="Helvetica,sans-Serif" font-size="10.00">steve</text>
</a>
</g>
</g>
<!-- dir_d700705468c111f3e92036fb5a08c541&#45;&gt;dir_43eaeccdd6b29c571d9022b0dcb8cd4e -->
<g id="edge3" class="edge">
<title>dir_d700705468c111f3e92036fb5a08c541&#45;&gt;dir_43eaeccdd6b29c571d9022b0dcb8cd4e</title>
<g id="a_edge3"><a xlink:href="dir_000000_000025.html" target="_top">
<path fill="none" stroke="#63b8ff" d="M282.59,-235.75C290.16,-228.03 301.38,-216.6 310.51,-207.28"/>
<polygon fill="#63b8ff" stroke="#63b8ff" points="313.07,-209.68 317.57,-200.09 308.07,-204.78 313.07,-209.68"/>
</a>
</g>
<g id="a_edge3&#45;headlabel"><a xlink:href="dir_000000_000025.html" target="_top" xlink:title="3">
<text text-anchor="middle" x="312.58" y="-211.73" font-family="Helvetica,sans-Serif" font-size="10.00" fill="#63b8ff">3</text>
</a>
</g>
</g>
<!-- dir_22cd7680a4ae9aae1bb38d456a8f3737 -->
<g id="node12" class="node">
<title>dir_22cd7680a4ae9aae1bb38d456a8f3737</title>
<g id="a_node12"><a xlink:href="dir_22cd7680a4ae9aae1bb38d456a8f3737.html" target="_top" xlink:title="watchdog">
<polygon fill="#a2b4d6" stroke="#404040" points="266,-200 202,-200 202,-181 266,-181 266,-200"/>
<text text-anchor="middle" x="234" y="-188" font-family="Helvetica,sans-Serif" font-size="10.00">watchdog</text>
</a>
</g>
</g>
<!-- dir_d700705468c111f3e92036fb5a08c541&#45;&gt;dir_22cd7680a4ae9aae1bb38d456a8f3737 -->
<g id="edge1" class="edge">
<title>dir_d700705468c111f3e92036fb5a08c541&#45;&gt;dir_22cd7680a4ae9aae1bb38d456a8f3737</title>
<g id="a_edge1"><a xlink:href="dir_000000_000035.html" target="_top">
<path fill="none" stroke="#63b8ff" d="M267.39,-235.75C261.74,-228.26 253.46,-217.28 246.55,-208.13"/>
<polygon fill="#63b8ff" stroke="#63b8ff" points="249.3,-205.96 240.48,-200.09 243.71,-210.18 249.3,-205.96"/>
</a>
</g>
<g id="a_edge1&#45;headlabel"><a xlink:href="dir_000000_000035.html" target="_top" xlink:title="1">
<text text-anchor="middle" x="253.73" y="-204.62" font-family="Helvetica,sans-Serif" font-size="10.00" fill="#63b8ff">1</text>
</a>
</g>
</g>
<!-- dir_e4210f374a3e5cd013f5bf87dcb352bb&#45;&gt;dir_f18bcf57bbcb015d680a06f545708a64 -->
<g id="edge7" class="edge">
<title>dir_e4210f374a3e5cd013f5bf87dcb352bb&#45;&gt;dir_f18bcf57bbcb015d680a06f545708a64</title>
<g id="a_edge7"><a xlink:href="dir_000005_000034.html" target="_top">
<path fill="none" stroke="#63b8ff" d="M110.16,-180.74C110.63,-155.31 112,-81.08 112.65,-45.69"/>
<polygon fill="#63b8ff" stroke="#63b8ff" points="116.15,-45.37 112.84,-35.31 109.15,-45.24 116.15,-45.37"/>
</a>
</g>
<g id="a_edge7&#45;headlabel"><a xlink:href="dir_000005_000034.html" target="_top" xlink:title="1">
<text text-anchor="middle" x="118.93" y="-46.52" font-family="Helvetica,sans-Serif" font-size="10.00" fill="#63b8ff">1</text>
</a>
</g>
</g>
<!-- dir_eab2301a68d140567e746b22d4e0c3b8&#45;&gt;dir_420f87287d5a5fc6f35b7971ed84ed3f -->
<g id="edge8" class="edge">
<title>dir_eab2301a68d140567e746b22d4e0c3b8&#45;&gt;dir_420f87287d5a5fc6f35b7971ed84ed3f</title>
<g id="a_edge8"><a xlink:href="dir_000007_000021.html" target="_top">
<path fill="none" stroke="#63b8ff" d="M238.85,-70.85C242.24,-68.12 246.15,-65.24 250,-63 266.77,-53.23 286.65,-44.81 303.36,-38.53"/>
<polygon fill="#63b8ff" stroke="#63b8ff" points="304.6,-41.8 312.79,-35.08 302.2,-35.23 304.6,-41.8"/>
</a>
</g>
<g id="a_edge8&#45;headlabel"><a xlink:href="dir_000007_000021.html" target="_top" xlink:title="1">
<text text-anchor="middle" x="302.2" y="-43.2" font-family="Helvetica,sans-Serif" font-size="10.00" fill="#63b8ff">1</text>
</a>
</g>
</g>
<!-- dir_eab2301a68d140567e746b22d4e0c3b8&#45;&gt;dir_ce9acbebd20a964a9fb527ea0a00b86e -->
<g id="edge9" class="edge">
<title>dir_eab2301a68d140567e746b22d4e0c3b8&#45;&gt;dir_ce9acbebd20a964a9fb527ea0a00b86e</title>
<g id="a_edge9"><a xlink:href="dir_000007_000003.html" target="_top">
<path fill="none" stroke="#63b8ff" d="M238.22,-70.78C241.68,-67.92 245.8,-64.97 250,-63 300.68,-39.2 320.34,-47.38 378.66,-35.15"/>
<polygon fill="#63b8ff" stroke="#63b8ff" points="379.77,-38.49 388.77,-32.91 378.25,-31.65 379.77,-38.49"/>
</a>
</g>
<g id="a_edge9&#45;headlabel"><a xlink:href="dir_000007_000003.html" target="_top" xlink:title="3">
<text text-anchor="middle" x="376.87" y="-39.54" font-family="Helvetica,sans-Serif" font-size="10.00" fill="#63b8ff">3</text>
</a>
</g>
</g>
<!-- dir_eab2301a68d140567e746b22d4e0c3b8&#45;&gt;dir_f18bcf57bbcb015d680a06f545708a64 -->
<g id="edge11" class="edge">
<title>dir_eab2301a68d140567e746b22d4e0c3b8&#45;&gt;dir_f18bcf57bbcb015d680a06f545708a64</title>
<g id="a_edge11"><a xlink:href="dir_000007_000034.html" target="_top">
<path fill="none" stroke="#63b8ff" d="M219.18,-70.8C215.79,-68.07 211.87,-65.2 208,-63 189.59,-52.55 167.6,-43.88 149.42,-37.62"/>
<polygon fill="#63b8ff" stroke="#63b8ff" points="150.35,-34.25 139.76,-34.4 148.14,-40.88 150.35,-34.25"/>
</a>
</g>
<g id="a_edge11&#45;headlabel"><a xlink:href="dir_000007_000034.html" target="_top" xlink:title="1">
<text text-anchor="middle" x="154.66" y="-30.19" font-family="Helvetica,sans-Serif" font-size="10.00" fill="#63b8ff">1</text>
</a>
</g>
</g>
<!-- dir_eab2301a68d140567e746b22d4e0c3b8&#45;&gt;dir_d700705468c111f3e92036fb5a08c541 -->
<g id="edge10" class="edge">
<title>dir_eab2301a68d140567e746b22d4e0c3b8&#45;&gt;dir_d700705468c111f3e92036fb5a08c541</title>
<g id="a_edge10"><a xlink:href="dir_000007_000000.html" target="_top">
<path fill="none" stroke="#63b8ff" d="M228.78,-90.28C223.85,-103.08 211.79,-127.27 222,-145 237.9,-172.61 268.1,-153.39 284,-181 291.81,-194.57 290.65,-212.63 286.53,-226.02"/>
<polygon fill="#63b8ff" stroke="#63b8ff" points="283.17,-225 282.7,-235.58 289.67,-227.6 283.17,-225"/>
</a>
</g>
<g id="a_edge10&#45;headlabel"><a xlink:href="dir_000007_000000.html" target="_top" xlink:title="1">
<text text-anchor="middle" x="281.87" y="-218.1" font-family="Helvetica,sans-Serif" font-size="10.00" fill="#63b8ff">1</text>
</a>
</g>
</g>
<!-- dir_6b9b1723340264dc1e630f920a659643 -->
<g id="node8" class="node">
<title>dir_6b9b1723340264dc1e630f920a659643</title>
<g id="a_node8"><a xlink:href="dir_6b9b1723340264dc1e630f920a659643.html" target="_top" xlink:title="main">
<polygon fill="#a2b4d6" stroke="#404040" points="218.5,-310 177.5,-310 177.5,-291 218.5,-291 218.5,-310"/>
<text text-anchor="middle" x="198" y="-298" font-family="Helvetica,sans-Serif" font-size="10.00">main</text>
</a>
</g>
</g>
<!-- dir_6b9b1723340264dc1e630f920a659643&#45;&gt;dir_420f87287d5a5fc6f35b7971ed84ed3f -->
<g id="edge13" class="edge">
<title>dir_6b9b1723340264dc1e630f920a659643&#45;&gt;dir_420f87287d5a5fc6f35b7971ed84ed3f</title>
<g id="a_edge13"><a xlink:href="dir_000015_000021.html" target="_top">
<path fill="none" stroke="#63b8ff" d="M218.66,-296.14C245.34,-290.98 292.24,-279.07 325,-255 349.57,-236.95 354.09,-228.07 366,-200 389.79,-143.94 386.97,-119.4 364,-63 361.22,-56.18 357.02,-49.36 352.86,-43.48"/>
<polygon fill="#63b8ff" stroke="#63b8ff" points="355.38,-41.02 346.54,-35.17 349.8,-45.25 355.38,-41.02"/>
</a>
</g>
<g id="a_edge13&#45;headlabel"><a xlink:href="dir_000015_000021.html" target="_top" xlink:title="1">
<text text-anchor="middle" x="359.81" y="-39.66" font-family="Helvetica,sans-Serif" font-size="10.00" fill="#63b8ff">1</text>
</a>
</g>
</g>
<!-- dir_6b9b1723340264dc1e630f920a659643&#45;&gt;dir_f18bcf57bbcb015d680a06f545708a64 -->
<g id="edge19" class="edge">
<title>dir_6b9b1723340264dc1e630f920a659643&#45;&gt;dir_f18bcf57bbcb015d680a06f545708a64</title>
<g id="a_edge19"><a xlink:href="dir_000015_000034.html" target="_top">
<path fill="none" stroke="#63b8ff" d="M177.35,-300.27C142.28,-300.38 71.07,-295.25 32,-255 11.8,-234.19 17,-220.5 17,-191.5 17,-191.5 17,-191.5 17,-134.5 17,-102.03 11.66,-88.31 32,-63 43.12,-49.16 60.62,-40.39 76.51,-34.92"/>
<polygon fill="#63b8ff" stroke="#63b8ff" points="77.62,-38.25 86.13,-31.93 75.54,-31.56 77.62,-38.25"/>
</a>
</g>
<g id="a_edge19&#45;headlabel"><a xlink:href="dir_000015_000034.html" target="_top" xlink:title="1">
<text text-anchor="middle" x="75.03" y="-39.52" font-family="Helvetica,sans-Serif" font-size="10.00" fill="#63b8ff">1</text>
</a>
</g>
</g>
<!-- dir_6b9b1723340264dc1e630f920a659643&#45;&gt;dir_d700705468c111f3e92036fb5a08c541 -->
<g id="edge16" class="edge">
<title>dir_6b9b1723340264dc1e630f920a659643&#45;&gt;dir_d700705468c111f3e92036fb5a08c541</title>
<g id="a_edge16"><a xlink:href="dir_000015_000000.html" target="_top">
<path fill="none" stroke="#63b8ff" d="M210.21,-290.98C221.78,-282.92 239.38,-270.65 253.16,-261.03"/>
<polygon fill="#63b8ff" stroke="#63b8ff" points="255.37,-263.76 261.57,-255.17 251.36,-258.02 255.37,-263.76"/>
</a>
</g>
<g id="a_edge16&#45;headlabel"><a xlink:href="dir_000015_000000.html" target="_top" xlink:title="1">
<text text-anchor="middle" x="254.04" y="-265.65" font-family="Helvetica,sans-Serif" font-size="10.00" fill="#63b8ff">1</text>
</a>
</g>
</g>
<!-- dir_6b9b1723340264dc1e630f920a659643&#45;&gt;dir_e4210f374a3e5cd013f5bf87dcb352bb -->
<g id="edge17" class="edge">
<title>dir_6b9b1723340264dc1e630f920a659643&#45;&gt;dir_e4210f374a3e5cd013f5bf87dcb352bb</title>
<g id="a_edge17"><a xlink:href="dir_000015_000005.html" target="_top">
<path fill="none" stroke="#63b8ff" d="M189.81,-290.83C181.56,-282 168.58,-267.82 158,-255 145.4,-239.73 131.88,-221.67 122.4,-208.72"/>
<polygon fill="#63b8ff" stroke="#63b8ff" points="125,-206.34 116.29,-200.31 119.34,-210.46 125,-206.34"/>
</a>
</g>
<g id="a_edge17&#45;headlabel"><a xlink:href="dir_000015_000005.html" target="_top" xlink:title="1">
<text text-anchor="middle" x="129.41" y="-205.08" font-family="Helvetica,sans-Serif" font-size="10.00" fill="#63b8ff">1</text>
</a>
</g>
</g>
<!-- dir_6b9b1723340264dc1e630f920a659643&#45;&gt;dir_eab2301a68d140567e746b22d4e0c3b8 -->
<g id="edge18" class="edge">
<title>dir_6b9b1723340264dc1e630f920a659643&#45;&gt;dir_eab2301a68d140567e746b22d4e0c3b8</title>
<g id="a_edge18"><a xlink:href="dir_000015_000007.html" target="_top">
<path fill="none" stroke="#63b8ff" d="M193.38,-290.94C188.94,-282.2 182.55,-268.09 180,-255 177.02,-239.68 178.82,-199.24 183,-181 189.99,-150.51 206.96,-118.16 218.22,-98.9"/>
<polygon fill="#63b8ff" stroke="#63b8ff" points="221.36,-100.48 223.5,-90.11 215.36,-96.88 221.36,-100.48"/>
</a>
</g>
<g id="a_edge18&#45;headlabel"><a xlink:href="dir_000015_000007.html" target="_top" xlink:title="1">
<text text-anchor="middle" x="221.94" y="-102.53" font-family="Helvetica,sans-Serif" font-size="10.00" fill="#63b8ff">1</text>
</a>
</g>
</g>
<!-- dir_6b9b1723340264dc1e630f920a659643&#45;&gt;dir_43eaeccdd6b29c571d9022b0dcb8cd4e -->
<g id="edge14" class="edge">
<title>dir_6b9b1723340264dc1e630f920a659643&#45;&gt;dir_43eaeccdd6b29c571d9022b0dcb8cd4e</title>
<g id="a_edge14"><a xlink:href="dir_000015_000025.html" target="_top">
<path fill="none" stroke="#63b8ff" d="M218.7,-297.88C245.55,-294.6 291.81,-284.72 316,-255 326.02,-242.69 327.99,-224.47 327.77,-210.7"/>
<polygon fill="#63b8ff" stroke="#63b8ff" points="331.24,-210.19 327.19,-200.4 324.26,-210.58 331.24,-210.19"/>
</a>
</g>
<g id="a_edge14&#45;headlabel"><a xlink:href="dir_000015_000025.html" target="_top" xlink:title="1">
<text text-anchor="middle" x="334.28" y="-211.12" font-family="Helvetica,sans-Serif" font-size="10.00" fill="#63b8ff">1</text>
</a>
</g>
</g>
<!-- dir_4f57e902f0118f67b10044df4be31d1c -->
<g id="node11" class="node">
<title>dir_4f57e902f0118f67b10044df4be31d1c</title>
<g id="a_node11"><a xlink:href="dir_4f57e902f0118f67b10044df4be31d1c.html" target="_top" xlink:title="telemetry">
<polygon fill="#a2b4d6" stroke="#404040" points="287.5,-145 222.5,-145 222.5,-126 287.5,-126 287.5,-145"/>
<text text-anchor="middle" x="255" y="-133" font-family="Helvetica,sans-Serif" font-size="10.00">telemetry</text>
</a>
</g>
</g>
<!-- dir_6b9b1723340264dc1e630f920a659643&#45;&gt;dir_4f57e902f0118f67b10044df4be31d1c -->
<g id="edge15" class="edge">
<title>dir_6b9b1723340264dc1e630f920a659643&#45;&gt;dir_4f57e902f0118f67b10044df4be31d1c</title>
<g id="a_edge15"><a xlink:href="dir_000015_000030.html" target="_top">
<path fill="none" stroke="#63b8ff" d="M194.89,-290.85C188.1,-270.39 174.01,-218.01 193,-181 199.96,-167.44 213.19,-157.07 225.65,-149.78"/>
<polygon fill="#63b8ff" stroke="#63b8ff" points="227.35,-152.84 234.48,-145 224.02,-146.68 227.35,-152.84"/>
</a>
</g>
<g id="a_edge15&#45;headlabel"><a xlink:href="dir_000015_000030.html" target="_top" xlink:title="1">
<text text-anchor="middle" x="225.53" y="-154.54" font-family="Helvetica,sans-Serif" font-size="10.00" fill="#63b8ff">1</text>
</a>
</g>
</g>
<!-- dir_6b9b1723340264dc1e630f920a659643&#45;&gt;dir_22cd7680a4ae9aae1bb38d456a8f3737 -->
<g id="edge12" class="edge">
<title>dir_6b9b1723340264dc1e630f920a659643&#45;&gt;dir_22cd7680a4ae9aae1bb38d456a8f3737</title>
<g id="a_edge12"><a xlink:href="dir_000015_000035.html" target="_top">
<path fill="none" stroke="#63b8ff" d="M200.95,-290.66C206.8,-273.09 220.02,-233.45 227.85,-209.95"/>
<polygon fill="#63b8ff" stroke="#63b8ff" points="231.27,-210.75 231.11,-200.16 224.63,-208.54 231.27,-210.75"/>
</a>
</g>
<g id="a_edge12&#45;headlabel"><a xlink:href="dir_000015_000035.html" target="_top" xlink:title="1">
<text text-anchor="middle" x="232.83" y="-212.56" font-family="Helvetica,sans-Serif" font-size="10.00" fill="#63b8ff">1</text>
</a>
</g>
</g>
<!-- dir_3bee24c2dc8c35a7481f805d1077a654 -->
<g id="node9" class="node">
<title>dir_3bee24c2dc8c35a7481f805d1077a654</title>
<g id="a_node9"><a xlink:href="dir_3bee24c2dc8c35a7481f805d1077a654.html" target="_top" xlink:title="radio">
<polygon fill="#a2b4d6" stroke="#404040" points="306.5,-310 265.5,-310 265.5,-291 306.5,-291 306.5,-310"/>
<text text-anchor="middle" x="286" y="-298" font-family="Helvetica,sans-Serif" font-size="10.00">radio</text>
</a>
</g>
</g>
<!-- dir_3bee24c2dc8c35a7481f805d1077a654&#45;&gt;dir_420f87287d5a5fc6f35b7971ed84ed3f -->
<g id="edge20" class="edge">
<title>dir_3bee24c2dc8c35a7481f805d1077a654&#45;&gt;dir_420f87287d5a5fc6f35b7971ed84ed3f</title>
<g id="a_edge20"><a xlink:href="dir_000020_000021.html" target="_top">
<path fill="none" stroke="#63b8ff" d="M306.68,-293.38C340.52,-283.2 404.73,-263.09 412,-255 431.37,-233.42 427,-220.5 427,-191.5 427,-191.5 427,-191.5 427,-134.5 427,-99.12 415.1,-89.8 392,-63 384.37,-54.15 374.13,-46.44 364.69,-40.42"/>
<polygon fill="#63b8ff" stroke="#63b8ff" points="366.36,-37.34 355.98,-35.17 362.74,-43.33 366.36,-37.34"/>
</a>
</g>
<g id="a_edge20&#45;headlabel"><a xlink:href="dir_000020_000021.html" target="_top" xlink:title="1">
<text text-anchor="middle" x="370.9" y="-34.26" font-family="Helvetica,sans-Serif" font-size="10.00" fill="#63b8ff">1</text>
</a>
</g>
</g>
<!-- dir_3bee24c2dc8c35a7481f805d1077a654&#45;&gt;dir_ce9acbebd20a964a9fb527ea0a00b86e -->
<g id="edge21" class="edge">
<title>dir_3bee24c2dc8c35a7481f805d1077a654&#45;&gt;dir_ce9acbebd20a964a9fb527ea0a00b86e</title>
<g id="a_edge21"><a xlink:href="dir_000020_000003.html" target="_top">
<path fill="none" stroke="#63b8ff" d="M306.59,-293.32C343.77,-282.1 418.66,-259.14 423,-255 444.83,-234.18 447,-221.67 447,-191.5 447,-191.5 447,-191.5 447,-134.5 447,-101.63 432.84,-65.49 423.07,-44.46"/>
<polygon fill="#63b8ff" stroke="#63b8ff" points="426.09,-42.66 418.59,-35.18 419.79,-45.71 426.09,-42.66"/>
</a>
</g>
<g id="a_edge21&#45;headlabel"><a xlink:href="dir_000020_000003.html" target="_top" xlink:title="1">
<text text-anchor="middle" x="430.22" y="-42.16" font-family="Helvetica,sans-Serif" font-size="10.00" fill="#63b8ff">1</text>
</a>
</g>
</g>
<!-- dir_3bee24c2dc8c35a7481f805d1077a654&#45;&gt;dir_f18bcf57bbcb015d680a06f545708a64 -->
<g id="edge24" class="edge">
<title>dir_3bee24c2dc8c35a7481f805d1077a654&#45;&gt;dir_f18bcf57bbcb015d680a06f545708a64</title>
<g id="a_edge24"><a xlink:href="dir_000020_000034.html" target="_top">
<path fill="none" stroke="#63b8ff" d="M265.2,-295.18C205.35,-282.15 37,-241.09 37,-191.5 37,-191.5 37,-191.5 37,-134.5 37,-99.68 47.94,-90.73 69,-63 75.26,-54.76 83.72,-47.17 91.55,-41.08"/>
<polygon fill="#63b8ff" stroke="#63b8ff" points="93.7,-43.85 99.67,-35.09 89.54,-38.21 93.7,-43.85"/>
</a>
</g>
<g id="a_edge24&#45;headlabel"><a xlink:href="dir_000020_000034.html" target="_top" xlink:title="1">
<text text-anchor="middle" x="92.49" y="-45.76" font-family="Helvetica,sans-Serif" font-size="10.00" fill="#63b8ff">1</text>
</a>
</g>
</g>
<!-- dir_3bee24c2dc8c35a7481f805d1077a654&#45;&gt;dir_d700705468c111f3e92036fb5a08c541 -->
<g id="edge22" class="edge">
<title>dir_3bee24c2dc8c35a7481f805d1077a654&#45;&gt;dir_d700705468c111f3e92036fb5a08c541</title>
<g id="a_edge22"><a xlink:href="dir_000020_000000.html" target="_top">
<path fill="none" stroke="#63b8ff" d="M284.02,-290.75C282.43,-283.72 280.14,-273.62 278.15,-264.84"/>
<polygon fill="#63b8ff" stroke="#63b8ff" points="281.57,-264.07 275.94,-255.09 274.74,-265.62 281.57,-264.07"/>
</a>
</g>
<g id="a_edge22&#45;headlabel"><a xlink:href="dir_000020_000000.html" target="_top" xlink:title="1">
<text text-anchor="middle" x="285.13" y="-264.45" font-family="Helvetica,sans-Serif" font-size="10.00" fill="#63b8ff">1</text>
</a>
</g>
</g>
<!-- dir_3bee24c2dc8c35a7481f805d1077a654&#45;&gt;dir_eab2301a68d140567e746b22d4e0c3b8 -->
<g id="edge23" class="edge">
<title>dir_3bee24c2dc8c35a7481f805d1077a654&#45;&gt;dir_eab2301a68d140567e746b22d4e0c3b8</title>
<g id="a_edge23"><a xlink:href="dir_000020_000007.html" target="_top">
<path fill="none" stroke="#63b8ff" d="M298.07,-290.89C323.3,-271.76 377.67,-224.02 357,-181 345.9,-157.92 330.05,-163.17 312,-145 304.42,-137.37 304.94,-133.26 297,-126 283.98,-114.08 267.44,-103.18 253.93,-95.16"/>
<polygon fill="#63b8ff" stroke="#63b8ff" points="255.56,-92.05 245.15,-90.08 252.05,-98.11 255.56,-92.05"/>
</a>
</g>
<g id="a_edge23&#45;headlabel"><a xlink:href="dir_000020_000007.html" target="_top" xlink:title="1">
<text text-anchor="middle" x="260.09" y="-88.89" font-family="Helvetica,sans-Serif" font-size="10.00" fill="#63b8ff">1</text>
</a>
</g>
</g>
<!-- dir_43eaeccdd6b29c571d9022b0dcb8cd4e&#45;&gt;dir_420f87287d5a5fc6f35b7971ed84ed3f -->
<g id="edge25" class="edge">
<title>dir_43eaeccdd6b29c571d9022b0dcb8cd4e&#45;&gt;dir_420f87287d5a5fc6f35b7971ed84ed3f</title>
<g id="a_edge25"><a xlink:href="dir_000025_000021.html" target="_top">
<path fill="none" stroke="#63b8ff" d="M327.34,-180.99C328.7,-172.05 330.78,-157.57 332,-145 335.4,-109.9 337.38,-68.79 338.32,-45.38"/>
<polygon fill="#63b8ff" stroke="#63b8ff" points="341.83,-45.27 338.71,-35.14 334.83,-45 341.83,-45.27"/>
</a>
</g>
<g id="a_edge25&#45;headlabel"><a xlink:href="dir_000025_000021.html" target="_top" xlink:title="2">
<text text-anchor="middle" x="344.53" y="-46.47" font-family="Helvetica,sans-Serif" font-size="10.00" fill="#63b8ff">2</text>
</a>
</g>
</g>
<!-- dir_43eaeccdd6b29c571d9022b0dcb8cd4e&#45;&gt;dir_ce9acbebd20a964a9fb527ea0a00b86e -->
<g id="edge27" class="edge">
<title>dir_43eaeccdd6b29c571d9022b0dcb8cd4e&#45;&gt;dir_ce9acbebd20a964a9fb527ea0a00b86e</title>
<g id="a_edge27"><a xlink:href="dir_000025_000003.html" target="_top">
<path fill="none" stroke="#63b8ff" d="M330.73,-180.74C344.64,-154.98 385.58,-79.13 404.38,-44.33"/>
<polygon fill="#63b8ff" stroke="#63b8ff" points="407.57,-45.77 409.25,-35.31 401.41,-42.44 407.57,-45.77"/>
</a>
</g>
<g id="a_edge27&#45;headlabel"><a xlink:href="dir_000025_000003.html" target="_top" xlink:title="7">
<text text-anchor="middle" x="408.37" y="-47.78" font-family="Helvetica,sans-Serif" font-size="10.00" fill="#63b8ff">7</text>
</a>
</g>
</g>
<!-- dir_43eaeccdd6b29c571d9022b0dcb8cd4e&#45;&gt;dir_f18bcf57bbcb015d680a06f545708a64 -->
<g id="edge28" class="edge">
<title>dir_43eaeccdd6b29c571d9022b0dcb8cd4e&#45;&gt;dir_f18bcf57bbcb015d680a06f545708a64</title>
<g id="a_edge28"><a xlink:href="dir_000025_000034.html" target="_top">
<path fill="none" stroke="#63b8ff" d="M303.88,-183.79C280.1,-176.98 241.83,-164.09 213,-145 172.2,-117.98 138.92,-69.59 123.05,-43.79"/>
<polygon fill="#63b8ff" stroke="#63b8ff" points="125.99,-41.88 117.85,-35.11 119.99,-45.48 125.99,-41.88"/>
</a>
</g>
<g id="a_edge28&#45;headlabel"><a xlink:href="dir_000025_000034.html" target="_top" xlink:title="7">
<text text-anchor="middle" x="130.27" y="-41.01" font-family="Helvetica,sans-Serif" font-size="10.00" fill="#63b8ff">7</text>
</a>
</g>
</g>
<!-- dir_43eaeccdd6b29c571d9022b0dcb8cd4e&#45;&gt;dir_4f57e902f0118f67b10044df4be31d1c -->
<g id="edge26" class="edge">
<title>dir_43eaeccdd6b29c571d9022b0dcb8cd4e&#45;&gt;dir_4f57e902f0118f67b10044df4be31d1c</title>
<g id="a_edge26"><a xlink:href="dir_000025_000030.html" target="_top">
<path fill="none" stroke="#63b8ff" d="M314.59,-180.98C303.89,-173 287.66,-160.88 274.84,-151.31"/>
<polygon fill="#63b8ff" stroke="#63b8ff" points="276.72,-148.35 266.61,-145.17 272.53,-153.96 276.72,-148.35"/>
</a>
</g>
<g id="a_edge26&#45;headlabel"><a xlink:href="dir_000025_000030.html" target="_top" xlink:title="1">
<text text-anchor="middle" x="281.3" y="-145.72" font-family="Helvetica,sans-Serif" font-size="10.00" fill="#63b8ff">1</text>
</a>
</g>
</g>
<!-- dir_4f57e902f0118f67b10044df4be31d1c&#45;&gt;dir_420f87287d5a5fc6f35b7971ed84ed3f -->
<g id="edge29" class="edge">
<title>dir_4f57e902f0118f67b10044df4be31d1c&#45;&gt;dir_420f87287d5a5fc6f35b7971ed84ed3f</title>
<g id="a_edge29"><a xlink:href="dir_000030_000021.html" target="_top">
<path fill="none" stroke="#63b8ff" d="M261.87,-125.66C275.91,-107.61 308.06,-66.28 326.11,-43.08"/>
<polygon fill="#63b8ff" stroke="#63b8ff" points="328.89,-45.2 332.27,-35.16 323.36,-40.9 328.89,-45.2"/>
</a>
</g>
<g id="a_edge29&#45;headlabel"><a xlink:href="dir_000030_000021.html" target="_top" xlink:title="1">
<text text-anchor="middle" x="328.92" y="-47.28" font-family="Helvetica,sans-Serif" font-size="10.00" fill="#63b8ff">1</text>
</a>
</g>
</g>
<!-- dir_4f57e902f0118f67b10044df4be31d1c&#45;&gt;dir_f18bcf57bbcb015d680a06f545708a64 -->
<g id="edge31" class="edge">
<title>dir_4f57e902f0118f67b10044df4be31d1c&#45;&gt;dir_f18bcf57bbcb015d680a06f545708a64</title>
<g id="a_edge31"><a xlink:href="dir_000030_000034.html" target="_top">
<path fill="none" stroke="#63b8ff" d="M243.38,-125.66C219.02,-107.14 162.41,-64.08 132.43,-41.28"/>
<polygon fill="#63b8ff" stroke="#63b8ff" points="134.46,-38.43 124.38,-35.16 130.22,-44 134.46,-38.43"/>
</a>
</g>
<g id="a_edge31&#45;headlabel"><a xlink:href="dir_000030_000034.html" target="_top" xlink:title="2">
<text text-anchor="middle" x="139.04" y="-35.84" font-family="Helvetica,sans-Serif" font-size="10.00" fill="#63b8ff">2</text>
</a>
</g>
</g>
<!-- dir_4f57e902f0118f67b10044df4be31d1c&#45;&gt;dir_eab2301a68d140567e746b22d4e0c3b8 -->
<g id="edge30" class="edge">
<title>dir_4f57e902f0118f67b10044df4be31d1c&#45;&gt;dir_eab2301a68d140567e746b22d4e0c3b8</title>
<g id="a_edge30"><a xlink:href="dir_000030_000007.html" target="_top">
<path fill="none" stroke="#63b8ff" d="M250.71,-125.75C247.19,-118.57 242.09,-108.18 237.72,-99.27"/>
<polygon fill="#63b8ff" stroke="#63b8ff" points="240.76,-97.53 233.21,-90.09 234.48,-100.61 240.76,-97.53"/>
</a>
</g>
<g id="a_edge30&#45;headlabel"><a xlink:href="dir_000030_000007.html" target="_top" xlink:title="1">
<text text-anchor="middle" x="244.89" y="-97" font-family="Helvetica,sans-Serif" font-size="10.00" fill="#63b8ff">1</text>
</a>
</g>
</g>
<!-- dir_22cd7680a4ae9aae1bb38d456a8f3737&#45;&gt;dir_420f87287d5a5fc6f35b7971ed84ed3f -->
<g id="edge32" class="edge">
<title>dir_22cd7680a4ae9aae1bb38d456a8f3737&#45;&gt;dir_420f87287d5a5fc6f35b7971ed84ed3f</title>
<g id="a_edge32"><a xlink:href="dir_000035_000021.html" target="_top">
<path fill="none" stroke="#63b8ff" d="M251.79,-180.86C265.85,-173.2 285.03,-160.8 297,-145 309.21,-128.88 325.75,-74 333.96,-44.92"/>
<polygon fill="#63b8ff" stroke="#63b8ff" points="337.36,-45.75 336.67,-35.18 330.61,-43.87 337.36,-45.75"/>
</a>
</g>
<g id="a_edge32&#45;headlabel"><a xlink:href="dir_000035_000021.html" target="_top" xlink:title="2">
<text text-anchor="middle" x="339.13" y="-47.47" font-family="Helvetica,sans-Serif" font-size="10.00" fill="#63b8ff">2</text>
</a>
</g>
</g>
<!-- dir_22cd7680a4ae9aae1bb38d456a8f3737&#45;&gt;dir_f18bcf57bbcb015d680a06f545708a64 -->
<g id="edge33" class="edge">
<title>dir_22cd7680a4ae9aae1bb38d456a8f3737&#45;&gt;dir_f18bcf57bbcb015d680a06f545708a64</title>
<g id="a_edge33"><a xlink:href="dir_000035_000034.html" target="_top">
<path fill="none" stroke="#63b8ff" d="M201.68,-182.49C180.45,-176.22 153.79,-164.83 138,-145 131.82,-137.24 121.16,-76.46 115.98,-45.1"/>
<polygon fill="#63b8ff" stroke="#63b8ff" points="119.41,-44.33 114.35,-35.03 112.5,-45.46 119.41,-44.33"/>
</a>
</g>
<g id="a_edge33&#45;headlabel"><a xlink:href="dir_000035_000034.html" target="_top" xlink:title="1">
<text text-anchor="middle" x="122.79" y="-44.93" font-family="Helvetica,sans-Serif" font-size="10.00" fill="#63b8ff">1</text>
</a>
</g>
</g>
</g>
</svg>
</svg>

<style type='text/css'>
<![CDATA[
[data-mouse-over-selected='false'] { opacity: 0.7; }
[data-mouse-over-selected='true']  { opacity: 1.0; }
]]>
</style>
<script type="application/ecmascript"><![CDATA[
document.addEventListener('DOMContentLoaded', (event) => {
  highlightEdges();
  highlightAdjacentNodes();
});
]]></script>
</svg>
