<?xml version="1.0" encoding="UTF-8" standalone="no"?>
<!DOCTYPE svg PUBLIC "-//W3C//DTD SVG 1.1//EN"
 "http://www.w3.org/Graphics/SVG/1.1/DTD/svg11.dtd">
<!-- Generated by graphviz version 2.43.0 (0)
 -->
<!-- Title: tasks Pages: 1 -->
<svg width="492pt" height="361pt"
 viewBox="0.00 0.00 492.00 361.00" xmlns="http://www.w3.org/2000/svg" xmlns:xlink="http://www.w3.org/1999/xlink">
<g id="graph0" class="graph" transform="scale(1 1) rotate(0) translate(4 357)">
<title>tasks</title>
<g id="clust1" class="cluster">
<title>clusterdir_5c982d53a68cdbcd421152b4020263a9</title>
<g id="a_clust1"><a xlink:href="dir_5c982d53a68cdbcd421152b4020263a9.html" target="_top" xlink:title="main">
<polygon fill="#edf0f7" stroke="#404040" stroke-dasharray="5,2" points="8,-8 8,-345 476,-345 476,-8 8,-8"/>
<text text-anchor="middle" x="242" y="-333" font-family="Helvetica,sans-Serif" font-size="10.00">main</text>
</a>
</g>
</g>
<g id="clust2" class="cluster">
<title>clusterdir_76dd8867a16d204aa2db31affc56d971</title>
<g id="a_clust2"><a xlink:href="dir_76dd8867a16d204aa2db31affc56d971.html" target="_top">
<polygon fill="#edf0f7" stroke="#404040" stroke-width="2" points="108,-63 108,-318 370,-318 370,-63 108,-63"/>
</a>
</g>
</g>
<!-- dir_420f87287d5a5fc6f35b7971ed84ed3f -->
<g id="node1" class="node">
<title>dir_420f87287d5a5fc6f35b7971ed84ed3f</title>
<g id="a_node1"><a xlink:href="dir_420f87287d5a5fc6f35b7971ed84ed3f.html" target="_top" xlink:title="simulator">
<polygon fill="#a2b4d6" stroke="red" points="445.5,-35 382.5,-35 382.5,-16 445.5,-16 445.5,-35"/>
<text text-anchor="middle" x="414" y="-23" font-family="Helvetica,sans-Serif" font-size="10.00">simulator</text>
</a>
</g>
</g>
<!-- dir_ce9acbebd20a964a9fb527ea0a00b86e -->
<g id="node2" class="node">
<title>dir_ce9acbebd20a964a9fb527ea0a00b86e</title>
<g id="a_node2"><a xlink:href="dir_ce9acbebd20a964a9fb527ea0a00b86e.html" target="_top" xlink:title="drivers">
<polygon fill="#a2b4d6" stroke="red" points="364,-35 314,-35 314,-16 364,-16 364,-35"/>
<text text-anchor="middle" x="339" y="-23" font-family="Helvetica,sans-Serif" font-size="10.00">drivers</text>
</a>
</g>
</g>
<!-- dir_f18bcf57bbcb015d680a06f545708a64 -->
<g id="node3" class="node">
<title>dir_f18bcf57bbcb015d680a06f545708a64</title>
<g id="a_node3"><a xlink:href="dir_f18bcf57bbcb015d680a06f545708a64.html" target="_top" xlink:title="utilities">
<polygon fill="#a2b4d6" stroke="red" points="113.5,-35 60.5,-35 60.5,-16 113.5,-16 113.5,-35"/>
<text text-anchor="middle" x="87" y="-23" font-family="Helvetica,sans-Serif" font-size="10.00">utilities</text>
</a>
</g>
</g>
<!-- dir_76dd8867a16d204aa2db31affc56d971 -->
<g id="node4" class="node">
<title>dir_76dd8867a16d204aa2db31affc56d971</title>
<text text-anchor="middle" x="340" y="-298" font-family="Helvetica,sans-Serif" font-size="10.00">tasks</text>
</g>
<!-- dir_d700705468c111f3e92036fb5a08c541 -->
<g id="node5" class="node">
<title>dir_d700705468c111f3e92036fb5a08c541</title>
<g id="a_node5"><a xlink:href="dir_d700705468c111f3e92036fb5a08c541.html" target="_top" xlink:title="command">
<polygon fill="#a2b4d6" stroke="#404040" points="282.5,-255 217.5,-255 217.5,-236 282.5,-236 282.5,-255"/>
<text text-anchor="middle" x="250" y="-243" font-family="Helvetica,sans-Serif" font-size="10.00">command</text>
</a>
</g>
</g>
<!-- dir_d700705468c111f3e92036fb5a08c541&#45;&gt;dir_420f87287d5a5fc6f35b7971ed84ed3f -->
<g id="edge2" class="edge">
<title>dir_d700705468c111f3e92036fb5a08c541&#45;&gt;dir_420f87287d5a5fc6f35b7971ed84ed3f</title>
<g id="a_edge2"><a xlink:href="dir_000000_000021.html" target="_top">
<path fill="none" stroke="#63b8ff" d="M282.57,-236.02C303.99,-229.13 331.55,-217.63 351,-200 391.8,-163.02 393.42,-143.1 408,-90 411.99,-75.45 413.44,-58.39 413.91,-45.63"/>
<polygon fill="#63b8ff" stroke="#63b8ff" points="417.42,-45.37 414.12,-35.3 410.42,-45.23 417.42,-45.37"/>
</a>
</g>
<g id="a_edge2&#45;headlabel"><a xlink:href="dir_000000_000021.html" target="_top" xlink:title="1">
<text text-anchor="middle" x="420.18" y="-46.52" font-family="Helvetica,sans-Serif" font-size="10.00" fill="#63b8ff">1</text>
</a>
</g>
</g>
<!-- dir_d700705468c111f3e92036fb5a08c541&#45;&gt;dir_f18bcf57bbcb015d680a06f545708a64 -->
<g id="edge6" class="edge">
<title>dir_d700705468c111f3e92036fb5a08c541&#45;&gt;dir_f18bcf57bbcb015d680a06f545708a64</title>
<g id="a_edge6"><a xlink:href="dir_000000_000034.html" target="_top">
<path fill="none" stroke="#63b8ff" d="M218.97,-235.95C179.25,-223.23 111.66,-195.26 79,-145 59.09,-114.36 66.35,-98.93 73,-63 74.14,-56.83 76.29,-50.35 78.56,-44.59"/>
<polygon fill="#63b8ff" stroke="#63b8ff" points="81.85,-45.8 82.6,-35.23 75.43,-43.03 81.85,-45.8"/>
</a>
</g>
<g id="a_edge6&#45;headlabel"><a xlink:href="dir_000000_000034.html" target="_top" xlink:title="3">
<text text-anchor="middle" x="83.03" y="-47.73" font-family="Helvetica,sans-Serif" font-size="10.00" fill="#63b8ff">3</text>
</a>
</g>
</g>
<!-- dir_e4210f374a3e5cd013f5bf87dcb352bb -->
<g id="node6" class="node">
<title>dir_e4210f374a3e5cd013f5bf87dcb352bb</title>
<g id="a_node6"><a xlink:href="dir_e4210f374a3e5cd013f5bf87dcb352bb.html" target="_top" xlink:title="filesystem">
<polygon fill="#a2b4d6" stroke="#404040" points="204,-145 136,-145 136,-126 204,-126 204,-145"/>
<text text-anchor="middle" x="170" y="-133" font-family="Helvetica,sans-Serif" font-size="10.00">filesystem</text>
</a>
</g>
</g>
<!-- dir_d700705468c111f3e92036fb5a08c541&#45;&gt;dir_e4210f374a3e5cd013f5bf87dcb352bb -->
<g id="edge4" class="edge">
<title>dir_d700705468c111f3e92036fb5a08c541&#45;&gt;dir_e4210f374a3e5cd013f5bf87dcb352bb</title>
<g id="a_edge4"><a xlink:href="dir_000000_000005.html" target="_top">
<path fill="none" stroke="#63b8ff" d="M231.58,-235.95C217.36,-228.42 198.26,-216.15 187,-200 177.72,-186.69 173.51,-168.57 171.59,-155.1"/>
<polygon fill="#63b8ff" stroke="#63b8ff" points="175.06,-154.62 170.46,-145.08 168.1,-155.41 175.06,-154.62"/>
</a>
</g>
<g id="a_edge4&#45;headlabel"><a xlink:href="dir_000000_000005.html" target="_top" xlink:title="1">
<text text-anchor="middle" x="178.28" y="-155.38" font-family="Helvetica,sans-Serif" font-size="10.00" fill="#63b8ff">1</text>
</a>
</g>
</g>
<!-- dir_eab2301a68d140567e746b22d4e0c3b8 -->
<g id="node7" class="node">
<title>dir_eab2301a68d140567e746b22d4e0c3b8</title>
<g id="a_node7"><a xlink:href="dir_eab2301a68d140567e746b22d4e0c3b8.html" target="_top" xlink:title="gse">
<polygon fill="#a2b4d6" stroke="#404040" points="308,-90 274,-90 274,-71 308,-71 308,-90"/>
<text text-anchor="middle" x="291" y="-78" font-family="Helvetica,sans-Serif" font-size="10.00">gse</text>
</a>
</g>
</g>
<!-- dir_d700705468c111f3e92036fb5a08c541&#45;&gt;dir_eab2301a68d140567e746b22d4e0c3b8 -->
<g id="edge5" class="edge">
<title>dir_d700705468c111f3e92036fb5a08c541&#45;&gt;dir_eab2301a68d140567e746b22d4e0c3b8</title>
<g id="a_edge5"><a xlink:href="dir_000000_000007.html" target="_top">
<path fill="none" stroke="#63b8ff" d="M245.65,-235.9C244.97,-223.33 250.51,-199.41 260,-181 269.29,-162.98 281.42,-164.17 288,-145 292.95,-130.58 290.84,-113.31 289.23,-100.42"/>
<polygon fill="#63b8ff" stroke="#63b8ff" points="292.7,-99.96 288.14,-90.4 285.74,-100.72 292.7,-99.96"/>
</a>
</g>
<g id="a_edge5&#45;headlabel"><a xlink:href="dir_000000_000007.html" target="_top" xlink:title="1">
<text text-anchor="middle" x="295.92" y="-100.73" font-family="Helvetica,sans-Serif" font-size="10.00" fill="#63b8ff">1</text>
</a>
</g>
</g>
<!-- dir_43eaeccdd6b29c571d9022b0dcb8cd4e -->
<g id="node10" class="node">
<title>dir_43eaeccdd6b29c571d9022b0dcb8cd4e</title>
<g id="a_node10"><a xlink:href="dir_43eaeccdd6b29c571d9022b0dcb8cd4e.html" target="_top" xlink:title="steve">
<polygon fill="#a2b4d6" stroke="#404040" points="240,-200 196,-200 196,-181 240,-181 240,-200"/>
<text text-anchor="middle" x="218" y="-188" font-family="Helvetica,sans-Serif" font-size="10.00">steve</text>
</a>
</g>
</g>
<!-- dir_d700705468c111f3e92036fb5a08c541&#45;&gt;dir_43eaeccdd6b29c571d9022b0dcb8cd4e -->
<g id="edge3" class="edge">
<title>dir_d700705468c111f3e92036fb5a08c541&#45;&gt;dir_43eaeccdd6b29c571d9022b0dcb8cd4e</title>
<g id="a_edge3"><a xlink:href="dir_000000_000025.html" target="_top">
<path fill="none" stroke="#63b8ff" d="M239.55,-235.75C233.67,-228.57 226.98,-218.18 222.31,-209.27"/>
<polygon fill="#63b8ff" stroke="#63b8ff" points="225.44,-207.69 218.05,-200.09 219.09,-210.63 225.44,-207.69"/>
</a>
</g>
<g id="a_edge3&#45;headlabel"><a xlink:href="dir_000000_000025.html" target="_top" xlink:title="4">
<text text-anchor="middle" x="229.53" y="-207.25" font-family="Helvetica,sans-Serif" font-size="10.00" fill="#63b8ff">4</text>
</a>
</g>
</g>
<!-- dir_22cd7680a4ae9aae1bb38d456a8f3737 -->
<g id="node12" class="node">
<title>dir_22cd7680a4ae9aae1bb38d456a8f3737</title>
<g id="a_node12"><a xlink:href="dir_22cd7680a4ae9aae1bb38d456a8f3737.html" target="_top" xlink:title="watchdog">
<polygon fill="#a2b4d6" stroke="#404040" points="342,-200 278,-200 278,-181 342,-181 342,-200"/>
<text text-anchor="middle" x="310" y="-188" font-family="Helvetica,sans-Serif" font-size="10.00">watchdog</text>
</a>
</g>
</g>
<!-- dir_d700705468c111f3e92036fb5a08c541&#45;&gt;dir_22cd7680a4ae9aae1bb38d456a8f3737 -->
<g id="edge1" class="edge">
<title>dir_d700705468c111f3e92036fb5a08c541&#45;&gt;dir_22cd7680a4ae9aae1bb38d456a8f3737</title>
<g id="a_edge1"><a xlink:href="dir_000000_000035.html" target="_top">
<path fill="none" stroke="#63b8ff" d="M259.64,-235.98C268.51,-228.15 281.87,-216.34 292.61,-206.86"/>
<polygon fill="#63b8ff" stroke="#63b8ff" points="295.01,-209.41 300.18,-200.17 290.37,-204.17 295.01,-209.41"/>
</a>
</g>
<g id="a_edge1&#45;headlabel"><a xlink:href="dir_000000_000035.html" target="_top" xlink:title="1">
<text text-anchor="middle" x="294.19" y="-211.42" font-family="Helvetica,sans-Serif" font-size="10.00" fill="#63b8ff">1</text>
</a>
</g>
</g>
<!-- dir_e4210f374a3e5cd013f5bf87dcb352bb&#45;&gt;dir_f18bcf57bbcb015d680a06f545708a64 -->
<g id="edge7" class="edge">
<title>dir_e4210f374a3e5cd013f5bf87dcb352bb&#45;&gt;dir_f18bcf57bbcb015d680a06f545708a64</title>
<g id="a_edge7"><a xlink:href="dir_000005_000034.html" target="_top">
<path fill="none" stroke="#63b8ff" d="M163.21,-125.66C149.4,-107.69 117.85,-66.64 99.98,-43.38"/>
<polygon fill="#63b8ff" stroke="#63b8ff" points="102.52,-40.95 93.65,-35.16 96.97,-45.22 102.52,-40.95"/>
</a>
</g>
<g id="a_edge7&#45;headlabel"><a xlink:href="dir_000005_000034.html" target="_top" xlink:title="1">
<text text-anchor="middle" x="106.96" y="-39.57" font-family="Helvetica,sans-Serif" font-size="10.00" fill="#63b8ff">1</text>
</a>
</g>
</g>
<!-- dir_eab2301a68d140567e746b22d4e0c3b8&#45;&gt;dir_420f87287d5a5fc6f35b7971ed84ed3f -->
<g id="edge8" class="edge">
<title>dir_eab2301a68d140567e746b22d4e0c3b8&#45;&gt;dir_420f87287d5a5fc6f35b7971ed84ed3f</title>
<g id="a_edge8"><a xlink:href="dir_000007_000021.html" target="_top">
<path fill="none" stroke="#63b8ff" d="M300.79,-70.74C304.18,-68.01 308.1,-65.15 312,-63 330.92,-52.54 353.42,-44.12 372.47,-38.01"/>
<polygon fill="#63b8ff" stroke="#63b8ff" points="373.56,-41.33 382.07,-35.02 371.49,-34.65 373.56,-41.33"/>
</a>
</g>
<g id="a_edge8&#45;headlabel"><a xlink:href="dir_000007_000021.html" target="_top" xlink:title="1">
<text text-anchor="middle" x="370.97" y="-42.61" font-family="Helvetica,sans-Serif" font-size="10.00" fill="#63b8ff">1</text>
</a>
</g>
</g>
<!-- dir_eab2301a68d140567e746b22d4e0c3b8&#45;&gt;dir_ce9acbebd20a964a9fb527ea0a00b86e -->
<g id="edge9" class="edge">
<title>dir_eab2301a68d140567e746b22d4e0c3b8&#45;&gt;dir_ce9acbebd20a964a9fb527ea0a00b86e</title>
<g id="a_edge9"><a xlink:href="dir_000007_000003.html" target="_top">
<path fill="none" stroke="#63b8ff" d="M298.93,-70.75C305.85,-63.11 316.07,-51.82 324.45,-42.56"/>
<polygon fill="#63b8ff" stroke="#63b8ff" points="327.1,-44.85 331.22,-35.09 321.91,-40.15 327.1,-44.85"/>
</a>
</g>
<g id="a_edge9&#45;headlabel"><a xlink:href="dir_000007_000003.html" target="_top" xlink:title="3">
<text text-anchor="middle" x="326.79" y="-46.92" font-family="Helvetica,sans-Serif" font-size="10.00" fill="#63b8ff">3</text>
</a>
</g>
</g>
<!-- dir_eab2301a68d140567e746b22d4e0c3b8&#45;&gt;dir_f18bcf57bbcb015d680a06f545708a64 -->
<g id="edge11" class="edge">
<title>dir_eab2301a68d140567e746b22d4e0c3b8&#45;&gt;dir_f18bcf57bbcb015d680a06f545708a64</title>
<g id="a_edge11"><a xlink:href="dir_000007_000034.html" target="_top">
<path fill="none" stroke="#63b8ff" d="M281.8,-70.75C278.34,-67.88 274.21,-64.94 270,-63 222.39,-41.08 161.86,-32.29 123.77,-28.79"/>
<polygon fill="#63b8ff" stroke="#63b8ff" points="123.9,-25.29 113.64,-27.93 123.31,-32.26 123.9,-25.29"/>
</a>
</g>
<g id="a_edge11&#45;headlabel"><a xlink:href="dir_000007_000034.html" target="_top" xlink:title="1">
<text text-anchor="middle" x="127.72" y="-20.26" font-family="Helvetica,sans-Serif" font-size="10.00" fill="#63b8ff">1</text>
</a>
</g>
</g>
<!-- dir_eab2301a68d140567e746b22d4e0c3b8&#45;&gt;dir_d700705468c111f3e92036fb5a08c541 -->
<g id="edge10" class="edge">
<title>dir_eab2301a68d140567e746b22d4e0c3b8&#45;&gt;dir_d700705468c111f3e92036fb5a08c541</title>
<g id="a_edge10"><a xlink:href="dir_000007_000000.html" target="_top">
<path fill="none" stroke="#63b8ff" d="M300.09,-90.4C307,-102.94 312.4,-126.36 306,-145 299.42,-164.17 287.29,-162.98 278,-181 270.59,-195.38 265.58,-213.13 261.09,-226.2"/>
<polygon fill="#63b8ff" stroke="#63b8ff" points="257.68,-225.31 257.39,-235.9 264.22,-227.8 257.68,-225.31"/>
</a>
</g>
<g id="a_edge10&#45;headlabel"><a xlink:href="dir_000007_000000.html" target="_top" xlink:title="1">
<text text-anchor="middle" x="256.31" y="-218.44" font-family="Helvetica,sans-Serif" font-size="10.00" fill="#63b8ff">1</text>
</a>
</g>
</g>
<!-- dir_6b9b1723340264dc1e630f920a659643 -->
<g id="node8" class="node">
<title>dir_6b9b1723340264dc1e630f920a659643</title>
<g id="a_node8"><a xlink:href="dir_6b9b1723340264dc1e630f920a659643.html" target="_top" xlink:title="main">
<polygon fill="#a2b4d6" stroke="#404040" points="194.5,-310 153.5,-310 153.5,-291 194.5,-291 194.5,-310"/>
<text text-anchor="middle" x="174" y="-298" font-family="Helvetica,sans-Serif" font-size="10.00">main</text>
</a>
</g>
</g>
<!-- dir_6b9b1723340264dc1e630f920a659643&#45;&gt;dir_420f87287d5a5fc6f35b7971ed84ed3f -->
<g id="edge13" class="edge">
<title>dir_6b9b1723340264dc1e630f920a659643&#45;&gt;dir_420f87287d5a5fc6f35b7971ed84ed3f</title>
<g id="a_edge13"><a xlink:href="dir_000015_000021.html" target="_top">
<path fill="none" stroke="#63b8ff" d="M194.54,-294.95C220.72,-288.58 266.8,-275.44 302,-255 334.14,-236.33 340.77,-228.19 365,-200 400,-159.27 407.87,-143.23 415,-90 416.99,-75.11 416.58,-58.07 415.76,-45.4"/>
<polygon fill="#63b8ff" stroke="#63b8ff" points="419.23,-44.87 414.95,-35.18 412.25,-45.42 419.23,-44.87"/>
</a>
</g>
<g id="a_edge13&#45;headlabel"><a xlink:href="dir_000015_000021.html" target="_top" xlink:title="1">
<text text-anchor="middle" x="422.34" y="-45.72" font-family="Helvetica,sans-Serif" font-size="10.00" fill="#63b8ff">1</text>
</a>
</g>
</g>
<!-- dir_6b9b1723340264dc1e630f920a659643&#45;&gt;dir_f18bcf57bbcb015d680a06f545708a64 -->
<g id="edge19" class="edge">
<title>dir_6b9b1723340264dc1e630f920a659643&#45;&gt;dir_f18bcf57bbcb015d680a06f545708a64</title>
<g id="a_edge19"><a xlink:href="dir_000015_000034.html" target="_top">
<path fill="none" stroke="#63b8ff" d="M153.29,-299.12C122.29,-297.39 64.03,-289.42 32,-255 12.24,-233.77 17,-220.5 17,-191.5 17,-191.5 17,-191.5 17,-134.5 17,-102.03 13.78,-89.87 32,-63 38.43,-53.51 48.24,-45.87 57.79,-40.07"/>
<polygon fill="#63b8ff" stroke="#63b8ff" points="59.73,-43 66.76,-35.08 56.32,-36.88 59.73,-43"/>
</a>
</g>
<g id="a_edge19&#45;headlabel"><a xlink:href="dir_000015_000034.html" target="_top" xlink:title="1">
<text text-anchor="middle" x="57.96" y="-44.73" font-family="Helvetica,sans-Serif" font-size="10.00" fill="#63b8ff">1</text>
</a>
</g>
</g>
<!-- dir_6b9b1723340264dc1e630f920a659643&#45;&gt;dir_d700705468c111f3e92036fb5a08c541 -->
<g id="edge16" class="edge">
<title>dir_6b9b1723340264dc1e630f920a659643&#45;&gt;dir_d700705468c111f3e92036fb5a08c541</title>
<g id="a_edge16"><a xlink:href="dir_000015_000000.html" target="_top">
<path fill="none" stroke="#63b8ff" d="M186.21,-290.98C197.78,-282.92 215.38,-270.65 229.16,-261.03"/>
<polygon fill="#63b8ff" stroke="#63b8ff" points="231.37,-263.76 237.57,-255.17 227.36,-258.02 231.37,-263.76"/>
</a>
</g>
<g id="a_edge16&#45;headlabel"><a xlink:href="dir_000015_000000.html" target="_top" xlink:title="1">
<text text-anchor="middle" x="230.04" y="-265.65" font-family="Helvetica,sans-Serif" font-size="10.00" fill="#63b8ff">1</text>
</a>
</g>
</g>
<!-- dir_6b9b1723340264dc1e630f920a659643&#45;&gt;dir_e4210f374a3e5cd013f5bf87dcb352bb -->
<g id="edge17" class="edge">
<title>dir_6b9b1723340264dc1e630f920a659643&#45;&gt;dir_e4210f374a3e5cd013f5bf87dcb352bb</title>
<g id="a_edge17"><a xlink:href="dir_000015_000005.html" target="_top">
<path fill="none" stroke="#63b8ff" d="M168.16,-290.76C162.75,-282.1 155.1,-268.26 152,-255 144.52,-222.97 145.72,-213.28 152,-181 153.79,-171.8 157.48,-162.09 161.06,-154.1"/>
<polygon fill="#63b8ff" stroke="#63b8ff" points="164.23,-155.59 165.38,-145.06 157.91,-152.57 164.23,-155.59"/>
</a>
</g>
<g id="a_edge17&#45;headlabel"><a xlink:href="dir_000015_000005.html" target="_top" xlink:title="1">
<text text-anchor="middle" x="165.24" y="-157.56" font-family="Helvetica,sans-Serif" font-size="10.00" fill="#63b8ff">1</text>
</a>
</g>
</g>
<!-- dir_6b9b1723340264dc1e630f920a659643&#45;&gt;dir_eab2301a68d140567e746b22d4e0c3b8 -->
<g id="edge18" class="edge">
<title>dir_6b9b1723340264dc1e630f920a659643&#45;&gt;dir_eab2301a68d140567e746b22d4e0c3b8</title>
<g id="a_edge18"><a xlink:href="dir_000015_000007.html" target="_top">
<path fill="none" stroke="#63b8ff" d="M167.01,-290.9C145.81,-263.72 86.14,-178.43 127,-126 165.24,-76.93 203.59,-106.91 263.8,-91.6"/>
<polygon fill="#63b8ff" stroke="#63b8ff" points="265.03,-94.89 273.65,-88.74 263.07,-88.17 265.03,-94.89"/>
</a>
</g>
<g id="a_edge18&#45;headlabel"><a xlink:href="dir_000015_000007.html" target="_top" xlink:title="1">
<text text-anchor="middle" x="262.37" y="-96.12" font-family="Helvetica,sans-Serif" font-size="10.00" fill="#63b8ff">1</text>
</a>
</g>
</g>
<!-- dir_6b9b1723340264dc1e630f920a659643&#45;&gt;dir_43eaeccdd6b29c571d9022b0dcb8cd4e -->
<g id="edge14" class="edge">
<title>dir_6b9b1723340264dc1e630f920a659643&#45;&gt;dir_43eaeccdd6b29c571d9022b0dcb8cd4e</title>
<g id="a_edge14"><a xlink:href="dir_000015_000025.html" target="_top">
<path fill="none" stroke="#63b8ff" d="M177.6,-290.66C184.79,-273.01 201.06,-233.09 210.61,-209.64"/>
<polygon fill="#63b8ff" stroke="#63b8ff" points="213.94,-210.74 214.47,-200.16 207.46,-208.1 213.94,-210.74"/>
</a>
</g>
<g id="a_edge14&#45;headlabel"><a xlink:href="dir_000015_000025.html" target="_top" xlink:title="1">
<text text-anchor="middle" x="215.21" y="-212.64" font-family="Helvetica,sans-Serif" font-size="10.00" fill="#63b8ff">1</text>
</a>
</g>
</g>
<!-- dir_4f57e902f0118f67b10044df4be31d1c -->
<g id="node11" class="node">
<title>dir_4f57e902f0118f67b10044df4be31d1c</title>
<g id="a_node11"><a xlink:href="dir_4f57e902f0118f67b10044df4be31d1c.html" target="_top" xlink:title="telemetry">
<polygon fill="#a2b4d6" stroke="#404040" points="287.5,-145 222.5,-145 222.5,-126 287.5,-126 287.5,-145"/>
<text text-anchor="middle" x="255" y="-133" font-family="Helvetica,sans-Serif" font-size="10.00">telemetry</text>
</a>
</g>
</g>
<!-- dir_6b9b1723340264dc1e630f920a659643&#45;&gt;dir_4f57e902f0118f67b10044df4be31d1c -->
<g id="edge15" class="edge">
<title>dir_6b9b1723340264dc1e630f920a659643&#45;&gt;dir_4f57e902f0118f67b10044df4be31d1c</title>
<g id="a_edge15"><a xlink:href="dir_000015_000030.html" target="_top">
<path fill="none" stroke="#63b8ff" d="M172.62,-290.97C169.73,-270.34 165.03,-216.81 187,-181 195.45,-167.22 209.96,-156.86 223.41,-149.62"/>
<polygon fill="#63b8ff" stroke="#63b8ff" points="225.07,-152.7 232.46,-145.11 221.95,-146.44 225.07,-152.7"/>
</a>
</g>
<g id="a_edge15&#45;headlabel"><a xlink:href="dir_000015_000030.html" target="_top" xlink:title="1">
<text text-anchor="middle" x="223.13" y="-154.35" font-family="Helvetica,sans-Serif" font-size="10.00" fill="#63b8ff">1</text>
</a>
</g>
</g>
<!-- dir_6b9b1723340264dc1e630f920a659643&#45;&gt;dir_22cd7680a4ae9aae1bb38d456a8f3737 -->
<g id="edge12" class="edge">
<title>dir_6b9b1723340264dc1e630f920a659643&#45;&gt;dir_22cd7680a4ae9aae1bb38d456a8f3737</title>
<g id="a_edge12"><a xlink:href="dir_000015_000035.html" target="_top">
<path fill="none" stroke="#63b8ff" d="M194.63,-297.36C220.97,-293.53 266.22,-283.05 292,-255 303.15,-242.87 307.45,-224.34 309.08,-210.42"/>
<polygon fill="#63b8ff" stroke="#63b8ff" points="312.6,-210.31 309.91,-200.06 305.62,-209.75 312.6,-210.31"/>
</a>
</g>
<g id="a_edge12&#45;headlabel"><a xlink:href="dir_000015_000035.html" target="_top" xlink:title="1">
<text text-anchor="middle" x="315.14" y="-211.62" font-family="Helvetica,sans-Serif" font-size="10.00" fill="#63b8ff">1</text>
</a>
</g>
</g>
<!-- dir_3bee24c2dc8c35a7481f805d1077a654 -->
<g id="node9" class="node">
<title>dir_3bee24c2dc8c35a7481f805d1077a654</title>
<g id="a_node9"><a xlink:href="dir_3bee24c2dc8c35a7481f805d1077a654.html" target="_top" xlink:title="radio">
<polygon fill="#a2b4d6" stroke="#404040" points="300.5,-310 259.5,-310 259.5,-291 300.5,-291 300.5,-310"/>
<text text-anchor="middle" x="280" y="-298" font-family="Helvetica,sans-Serif" font-size="10.00">radio</text>
</a>
</g>
</g>
<!-- dir_3bee24c2dc8c35a7481f805d1077a654&#45;&gt;dir_420f87287d5a5fc6f35b7971ed84ed3f -->
<g id="edge20" class="edge">
<title>dir_3bee24c2dc8c35a7481f805d1077a654&#45;&gt;dir_420f87287d5a5fc6f35b7971ed84ed3f</title>
<g id="a_edge20"><a xlink:href="dir_000020_000021.html" target="_top">
<path fill="none" stroke="#63b8ff" d="M300.73,-292.42C349.41,-275.17 467,-229.55 467,-191.5 467,-191.5 467,-191.5 467,-134.5 467,-102.03 467.74,-91.4 452,-63 447.57,-55.01 440.82,-47.7 434.23,-41.76"/>
<polygon fill="#63b8ff" stroke="#63b8ff" points="436.07,-38.74 426.15,-35.01 431.58,-44.11 436.07,-38.74"/>
</a>
</g>
<g id="a_edge20&#45;headlabel"><a xlink:href="dir_000020_000021.html" target="_top" xlink:title="1">
<text text-anchor="middle" x="440.65" y="-36.36" font-family="Helvetica,sans-Serif" font-size="10.00" fill="#63b8ff">1</text>
</a>
</g>
</g>
<!-- dir_3bee24c2dc8c35a7481f805d1077a654&#45;&gt;dir_ce9acbebd20a964a9fb527ea0a00b86e -->
<g id="edge21" class="edge">
<title>dir_3bee24c2dc8c35a7481f805d1077a654&#45;&gt;dir_ce9acbebd20a964a9fb527ea0a00b86e</title>
<g id="a_edge21"><a xlink:href="dir_000020_000003.html" target="_top">
<path fill="none" stroke="#63b8ff" d="M293,-290.94C304.51,-282.82 321.11,-269.71 332,-255 347.87,-233.56 350.55,-226.11 356,-200 367.61,-144.34 353.03,-76.95 344.44,-45.01"/>
<polygon fill="#63b8ff" stroke="#63b8ff" points="347.78,-43.95 341.71,-35.27 341.04,-45.84 347.78,-43.95"/>
</a>
</g>
<g id="a_edge21&#45;headlabel"><a xlink:href="dir_000020_000003.html" target="_top" xlink:title="1">
<text text-anchor="middle" x="351.48" y="-44.14" font-family="Helvetica,sans-Serif" font-size="10.00" fill="#63b8ff">1</text>
</a>
</g>
</g>
<!-- dir_3bee24c2dc8c35a7481f805d1077a654&#45;&gt;dir_f18bcf57bbcb015d680a06f545708a64 -->
<g id="edge24" class="edge">
<title>dir_3bee24c2dc8c35a7481f805d1077a654&#45;&gt;dir_f18bcf57bbcb015d680a06f545708a64</title>
<g id="a_edge24"><a xlink:href="dir_000020_000034.html" target="_top">
<path fill="none" stroke="#63b8ff" d="M259.28,-294.99C200.52,-281.6 37,-239.97 37,-191.5 37,-191.5 37,-191.5 37,-134.5 37,-99.56 58.82,-63.66 73.63,-43.31"/>
<polygon fill="#63b8ff" stroke="#63b8ff" points="76.59,-45.2 79.84,-35.11 71.01,-40.97 76.59,-45.2"/>
</a>
</g>
<g id="a_edge24&#45;headlabel"><a xlink:href="dir_000020_000034.html" target="_top" xlink:title="1">
<text text-anchor="middle" x="76.68" y="-47.28" font-family="Helvetica,sans-Serif" font-size="10.00" fill="#63b8ff">1</text>
</a>
</g>
</g>
<!-- dir_3bee24c2dc8c35a7481f805d1077a654&#45;&gt;dir_d700705468c111f3e92036fb5a08c541 -->
<g id="edge22" class="edge">
<title>dir_3bee24c2dc8c35a7481f805d1077a654&#45;&gt;dir_d700705468c111f3e92036fb5a08c541</title>
<g id="a_edge22"><a xlink:href="dir_000020_000000.html" target="_top">
<path fill="none" stroke="#63b8ff" d="M275.05,-290.75C270.94,-283.49 264.97,-272.95 259.9,-263.98"/>
<polygon fill="#63b8ff" stroke="#63b8ff" points="262.83,-262.07 254.86,-255.09 256.74,-265.52 262.83,-262.07"/>
</a>
</g>
<g id="a_edge22&#45;headlabel"><a xlink:href="dir_000020_000000.html" target="_top" xlink:title="1">
<text text-anchor="middle" x="267.08" y="-261.3" font-family="Helvetica,sans-Serif" font-size="10.00" fill="#63b8ff">1</text>
</a>
</g>
</g>
<!-- dir_3bee24c2dc8c35a7481f805d1077a654&#45;&gt;dir_eab2301a68d140567e746b22d4e0c3b8 -->
<g id="edge23" class="edge">
<title>dir_3bee24c2dc8c35a7481f805d1077a654&#45;&gt;dir_eab2301a68d140567e746b22d4e0c3b8</title>
<g id="a_edge23"><a xlink:href="dir_000020_000007.html" target="_top">
<path fill="none" stroke="#63b8ff" d="M289.02,-290.98C305.2,-274.99 338.64,-238.6 351,-200 353.58,-191.96 353.26,-189.14 351,-181 348.52,-172.09 318.78,-124.84 302.12,-98.79"/>
<polygon fill="#63b8ff" stroke="#63b8ff" points="305,-96.79 296.65,-90.26 299.1,-100.57 305,-96.79"/>
</a>
</g>
<g id="a_edge23&#45;headlabel"><a xlink:href="dir_000020_000007.html" target="_top" xlink:title="1">
<text text-anchor="middle" x="309.33" y="-95.78" font-family="Helvetica,sans-Serif" font-size="10.00" fill="#63b8ff">1</text>
</a>
</g>
</g>
<!-- dir_43eaeccdd6b29c571d9022b0dcb8cd4e&#45;&gt;dir_420f87287d5a5fc6f35b7971ed84ed3f -->
<g id="edge25" class="edge">
<title>dir_43eaeccdd6b29c571d9022b0dcb8cd4e&#45;&gt;dir_420f87287d5a5fc6f35b7971ed84ed3f</title>
<g id="a_edge25"><a xlink:href="dir_000025_000021.html" target="_top">
<path fill="none" stroke="#63b8ff" d="M240.05,-181.37C259.14,-173.72 286.91,-161.04 308,-145 347.55,-114.93 383.89,-68.56 401.98,-43.68"/>
<polygon fill="#63b8ff" stroke="#63b8ff" points="405.02,-45.44 407.99,-35.27 399.32,-41.37 405.02,-45.44"/>
</a>
</g>
<g id="a_edge25&#45;headlabel"><a xlink:href="dir_000025_000021.html" target="_top" xlink:title="6">
<text text-anchor="middle" x="405.24" y="-47.52" font-family="Helvetica,sans-Serif" font-size="10.00" fill="#63b8ff">6</text>
</a>
</g>
</g>
<!-- dir_43eaeccdd6b29c571d9022b0dcb8cd4e&#45;&gt;dir_ce9acbebd20a964a9fb527ea0a00b86e -->
<g id="edge27" class="edge">
<title>dir_43eaeccdd6b29c571d9022b0dcb8cd4e&#45;&gt;dir_ce9acbebd20a964a9fb527ea0a00b86e</title>
<g id="a_edge27"><a xlink:href="dir_000025_000003.html" target="_top">
<path fill="none" stroke="#63b8ff" d="M240.27,-181.91C257.88,-174.87 281.93,-162.77 297,-145 321.85,-115.69 332.38,-70.66 336.54,-45.38"/>
<polygon fill="#63b8ff" stroke="#63b8ff" points="340.03,-45.69 338.03,-35.29 333.11,-44.67 340.03,-45.69"/>
</a>
</g>
<g id="a_edge27&#45;headlabel"><a xlink:href="dir_000025_000003.html" target="_top" xlink:title="10">
<text text-anchor="middle" x="342.32" y="-47.16" font-family="Helvetica,sans-Serif" font-size="10.00" fill="#63b8ff">10</text>
</a>
</g>
</g>
<!-- dir_43eaeccdd6b29c571d9022b0dcb8cd4e&#45;&gt;dir_f18bcf57bbcb015d680a06f545708a64 -->
<g id="edge30" class="edge">
<title>dir_43eaeccdd6b29c571d9022b0dcb8cd4e&#45;&gt;dir_f18bcf57bbcb015d680a06f545708a64</title>
<g id="a_edge30"><a xlink:href="dir_000025_000034.html" target="_top">
<path fill="none" stroke="#63b8ff" d="M195.83,-182.02C160.1,-169.92 93.61,-147.18 92,-145 70.24,-115.58 76.28,-69.9 82.01,-44.72"/>
<polygon fill="#63b8ff" stroke="#63b8ff" points="85.41,-45.55 84.44,-35 78.62,-43.85 85.41,-45.55"/>
</a>
</g>
<g id="a_edge30&#45;headlabel"><a xlink:href="dir_000025_000034.html" target="_top" xlink:title="9">
<text text-anchor="middle" x="87.29" y="-47.23" font-family="Helvetica,sans-Serif" font-size="10.00" fill="#63b8ff">9</text>
</a>
</g>
</g>
<!-- dir_43eaeccdd6b29c571d9022b0dcb8cd4e&#45;&gt;dir_d700705468c111f3e92036fb5a08c541 -->
<g id="edge28" class="edge">
<title>dir_43eaeccdd6b29c571d9022b0dcb8cd4e&#45;&gt;dir_d700705468c111f3e92036fb5a08c541</title>
<g id="a_edge28"><a xlink:href="dir_000025_000000.html" target="_top">
<path fill="none" stroke="#63b8ff" d="M228.32,-200.09C234.18,-207.22 240.88,-217.6 245.58,-226.53"/>
<polygon fill="#63b8ff" stroke="#63b8ff" points="242.48,-228.17 249.88,-235.75 248.82,-225.21 242.48,-228.17"/>
</a>
</g>
<g id="a_edge28&#45;headlabel"><a xlink:href="dir_000025_000000.html" target="_top" xlink:title="1">
<text text-anchor="middle" x="238.39" y="-223.61" font-family="Helvetica,sans-Serif" font-size="10.00" fill="#63b8ff">1</text>
</a>
</g>
</g>
<!-- dir_43eaeccdd6b29c571d9022b0dcb8cd4e&#45;&gt;dir_e4210f374a3e5cd013f5bf87dcb352bb -->
<g id="edge29" class="edge">
<title>dir_43eaeccdd6b29c571d9022b0dcb8cd4e&#45;&gt;dir_e4210f374a3e5cd013f5bf87dcb352bb</title>
<g id="a_edge29"><a xlink:href="dir_000025_000005.html" target="_top">
<path fill="none" stroke="#63b8ff" d="M210.07,-180.75C203.15,-173.11 192.93,-161.82 184.55,-152.56"/>
<polygon fill="#63b8ff" stroke="#63b8ff" points="187.09,-150.15 177.78,-145.09 181.9,-154.85 187.09,-150.15"/>
</a>
</g>
<g id="a_edge29&#45;headlabel"><a xlink:href="dir_000025_000005.html" target="_top" xlink:title="1">
<text text-anchor="middle" x="191.6" y="-148.41" font-family="Helvetica,sans-Serif" font-size="10.00" fill="#63b8ff">1</text>
</a>
</g>
</g>
<!-- dir_43eaeccdd6b29c571d9022b0dcb8cd4e&#45;&gt;dir_4f57e902f0118f67b10044df4be31d1c -->
<g id="edge26" class="edge">
<title>dir_43eaeccdd6b29c571d9022b0dcb8cd4e&#45;&gt;dir_4f57e902f0118f67b10044df4be31d1c</title>
<g id="a_edge26"><a xlink:href="dir_000025_000030.html" target="_top">
<path fill="none" stroke="#63b8ff" d="M224.11,-180.75C229.28,-173.34 236.85,-162.5 243.19,-153.41"/>
<polygon fill="#63b8ff" stroke="#63b8ff" points="246.15,-155.29 249,-145.09 240.41,-151.29 246.15,-155.29"/>
</a>
</g>
<g id="a_edge26&#45;headlabel"><a xlink:href="dir_000025_000030.html" target="_top" xlink:title="1">
<text text-anchor="middle" x="246.42" y="-157.36" font-family="Helvetica,sans-Serif" font-size="10.00" fill="#63b8ff">1</text>
</a>
</g>
</g>
<!-- dir_4f57e902f0118f67b10044df4be31d1c&#45;&gt;dir_420f87287d5a5fc6f35b7971ed84ed3f -->
<g id="edge31" class="edge">
<title>dir_4f57e902f0118f67b10044df4be31d1c&#45;&gt;dir_420f87287d5a5fc6f35b7971ed84ed3f</title>
<g id="a_edge31"><a xlink:href="dir_000030_000021.html" target="_top">
<path fill="none" stroke="#63b8ff" d="M267.74,-125.84C294.96,-107.36 359,-63.86 392.59,-41.05"/>
<polygon fill="#63b8ff" stroke="#63b8ff" points="394.89,-43.71 401.2,-35.2 390.96,-37.92 394.89,-43.71"/>
</a>
</g>
<g id="a_edge31&#45;headlabel"><a xlink:href="dir_000030_000021.html" target="_top" xlink:title="1">
<text text-anchor="middle" x="393.51" y="-45.58" font-family="Helvetica,sans-Serif" font-size="10.00" fill="#63b8ff">1</text>
</a>
</g>
</g>
<!-- dir_4f57e902f0118f67b10044df4be31d1c&#45;&gt;dir_f18bcf57bbcb015d680a06f545708a64 -->
<g id="edge33" class="edge">
<title>dir_4f57e902f0118f67b10044df4be31d1c&#45;&gt;dir_f18bcf57bbcb015d680a06f545708a64</title>
<g id="a_edge33"><a xlink:href="dir_000030_000034.html" target="_top">
<path fill="none" stroke="#63b8ff" d="M241.54,-125.84C212.66,-107.28 144.54,-63.49 109.17,-40.75"/>
<polygon fill="#63b8ff" stroke="#63b8ff" points="110.83,-37.66 100.53,-35.2 107.05,-43.55 110.83,-37.66"/>
</a>
</g>
<g id="a_edge33&#45;headlabel"><a xlink:href="dir_000030_000034.html" target="_top" xlink:title="2">
<text text-anchor="middle" x="115.39" y="-34.72" font-family="Helvetica,sans-Serif" font-size="10.00" fill="#63b8ff">2</text>
</a>
</g>
</g>
<!-- dir_4f57e902f0118f67b10044df4be31d1c&#45;&gt;dir_eab2301a68d140567e746b22d4e0c3b8 -->
<g id="edge32" class="edge">
<title>dir_4f57e902f0118f67b10044df4be31d1c&#45;&gt;dir_eab2301a68d140567e746b22d4e0c3b8</title>
<g id="a_edge32"><a xlink:href="dir_000030_000007.html" target="_top">
<path fill="none" stroke="#63b8ff" d="M260.94,-125.75C265.98,-118.34 273.34,-107.5 279.51,-98.41"/>
<polygon fill="#63b8ff" stroke="#63b8ff" points="282.44,-100.33 285.17,-90.09 276.65,-96.39 282.44,-100.33"/>
</a>
</g>
<g id="a_edge32&#45;headlabel"><a xlink:href="dir_000030_000007.html" target="_top" xlink:title="1">
<text text-anchor="middle" x="282.77" y="-102.4" font-family="Helvetica,sans-Serif" font-size="10.00" fill="#63b8ff">1</text>
</a>
</g>
</g>
<!-- dir_22cd7680a4ae9aae1bb38d456a8f3737&#45;&gt;dir_420f87287d5a5fc6f35b7971ed84ed3f -->
<g id="edge34" class="edge">
<title>dir_22cd7680a4ae9aae1bb38d456a8f3737&#45;&gt;dir_420f87287d5a5fc6f35b7971ed84ed3f</title>
<g id="a_edge34"><a xlink:href="dir_000035_000021.html" target="_top">
<path fill="none" stroke="#63b8ff" d="M327.22,-180.95C341.08,-173.27 360.14,-160.78 372,-145 395.08,-114.28 406.28,-69.78 411.02,-44.97"/>
<polygon fill="#63b8ff" stroke="#63b8ff" points="414.48,-45.54 412.77,-35.08 407.58,-44.32 414.48,-45.54"/>
</a>
</g>
<g id="a_edge34&#45;headlabel"><a xlink:href="dir_000035_000021.html" target="_top" xlink:title="2">
<text text-anchor="middle" x="416.65" y="-47.07" font-family="Helvetica,sans-Serif" font-size="10.00" fill="#63b8ff">2</text>
</a>
</g>
</g>
<!-- dir_22cd7680a4ae9aae1bb38d456a8f3737&#45;&gt;dir_f18bcf57bbcb015d680a06f545708a64 -->
<g id="edge35" class="edge">
<title>dir_22cd7680a4ae9aae1bb38d456a8f3737&#45;&gt;dir_f18bcf57bbcb015d680a06f545708a64</title>
<g id="a_edge35"><a xlink:href="dir_000035_000034.html" target="_top">
<path fill="none" stroke="#63b8ff" d="M277.75,-183.41C228.26,-173.81 138.12,-155.19 127,-145 98.42,-118.8 90.25,-71.49 87.92,-45.27"/>
<polygon fill="#63b8ff" stroke="#63b8ff" points="91.4,-44.89 87.22,-35.15 84.42,-45.37 91.4,-44.89"/>
</a>
</g>
<g id="a_edge35&#45;headlabel"><a xlink:href="dir_000035_000034.html" target="_top" xlink:title="1">
<text text-anchor="middle" x="94.48" y="-45.78" font-family="Helvetica,sans-Serif" font-size="10.00" fill="#63b8ff">1</text>
</a>
</g>
</g>
</g>
</svg>
