<?xml version="1.0" encoding="UTF-8" standalone="no"?>
<!DOCTYPE svg PUBLIC "-//W3C//DTD SVG 1.1//EN"
 "http://www.w3.org/Graphics/SVG/1.1/DTD/svg11.dtd">
<!-- Generated by graphviz version 12.1.2 (20240928.0832)
 -->
<!-- Title: utilities Pages: 1 -->
<svg width="234pt" height="200pt"
 viewBox="0.00 0.00 234.00 200.00" xmlns="http://www.w3.org/2000/svg" xmlns:xlink="http://www.w3.org/1999/xlink">
<g id="graph0" class="graph" transform="scale(1 1) rotate(0) translate(4 196)">
<title>utilities</title>
<g id="clust1" class="cluster">
<title>clusterdir_5c982d53a68cdbcd421152b4020263a9</title>
<g id="a_clust1"><a xlink:href="dir_5c982d53a68cdbcd421152b4020263a9.html" target="_top" xlink:title="main">
<polygon fill="#edf0f7" stroke="#404040" stroke-dasharray="5,2" points="8,-8 8,-184 218,-184 218,-8 8,-8"/>
<text text-anchor="middle" x="113" y="-170.5" font-family="Helvetica,sans-Serif" font-size="10.00">main</text>
</a>
</g>
</g>
<g id="clust2" class="cluster">
<title>clusterdir_f18bcf57bbcb015d680a06f545708a64</title>
<g id="a_clust2"><a xlink:href="dir_f18bcf57bbcb015d680a06f545708a64.html" target="_top">
<polygon fill="#edf0f7" stroke="#404040" stroke-width="2" points="16,-64 16,-156 126,-156 126,-64 16,-64"/>
</a>
</g>
</g>
<!-- dir_420f87287d5a5fc6f35b7971ed84ed3f -->
<g id="node1" class="node">
<title>dir_420f87287d5a5fc6f35b7971ed84ed3f</title>
<g id="a_node1"><a xlink:href="dir_420f87287d5a5fc6f35b7971ed84ed3f.html" target="_top" xlink:title="simulator">
<polygon fill="#a2b4d6" stroke="red" points="189.88,-92 134.12,-92 134.12,-72 189.88,-72 189.88,-92"/>
<text text-anchor="middle" x="162" y="-78.5" font-family="Helvetica,sans-Serif" font-size="10.00">simulator</text>
</a>
</g>
</g>
<!-- dir_76dd8867a16d204aa2db31affc56d971 -->
<g id="node2" class="node">
<title>dir_76dd8867a16d204aa2db31affc56d971</title>
<g id="a_node2"><a xlink:href="dir_76dd8867a16d204aa2db31affc56d971.html" target="_top" xlink:title="tasks">
<polygon fill="#a2b4d6" stroke="red" points="161,-36 121,-36 121,-16 161,-16 161,-36"/>
<text text-anchor="middle" x="141" y="-22.5" font-family="Helvetica,sans-Serif" font-size="10.00">tasks</text>
</a>
</g>
</g>
<!-- dir_f18bcf57bbcb015d680a06f545708a64 -->
<g id="node3" class="node">
<title>dir_f18bcf57bbcb015d680a06f545708a64</title>
<text text-anchor="middle" x="47" y="-134.5" font-family="Helvetica,sans-Serif" font-size="10.00">utilities</text>
</g>
<!-- dir_88a5a0b8e1919e01f30c61886db07664 -->
<g id="node4" class="node">
<title>dir_88a5a0b8e1919e01f30c61886db07664</title>
<g id="a_node4"><a xlink:href="dir_88a5a0b8e1919e01f30c61886db07664.html" target="_top" xlink:title="include">
<polygon fill="#a2b4d6" stroke="#404040" points="116.38,-92 69.62,-92 69.62,-72 116.38,-72 116.38,-92"/>
<text text-anchor="middle" x="93" y="-78.5" font-family="Helvetica,sans-Serif" font-size="10.00">include</text>
</a>
</g>
</g>
<!-- dir_88a5a0b8e1919e01f30c61886db07664&#45;&gt;dir_76dd8867a16d204aa2db31affc56d971 -->
<g id="edge1" class="edge">
<title>dir_88a5a0b8e1919e01f30c61886db07664&#45;&gt;dir_76dd8867a16d204aa2db31affc56d971</title>
<g id="a_edge1"><a xlink:href="dir_000011_000029.html" target="_top">
<path fill="none" stroke="#63b8ff" d="M101.36,-71.59C107.9,-64.24 117.18,-53.8 125.12,-44.87"/>
<polygon fill="#63b8ff" stroke="#63b8ff" points="127.7,-47.23 131.73,-37.43 122.47,-42.58 127.7,-47.23"/>
</a>
</g>
<g id="a_edge1&#45;headlabel"><a xlink:href="dir_000011_000029.html" target="_top" xlink:title="4">
<text text-anchor="middle" x="128.44" y="-47.17" font-family="Helvetica,sans-Serif" font-size="10.00" fill="#63b8ff">4</text>
</a>
</g>
</g>
<!-- dir_dfabfc0245b81fb73a666abaede92658 -->
<g id="node5" class="node">
<title>dir_dfabfc0245b81fb73a666abaede92658</title>
<g id="a_node5"><a xlink:href="dir_dfabfc0245b81fb73a666abaede92658.html" target="_top" xlink:title="src">
<polygon fill="#a2b4d6" stroke="#404040" points="117.75,-148 88.25,-148 88.25,-128 117.75,-128 117.75,-148"/>
<text text-anchor="middle" x="103" y="-134.5" font-family="Helvetica,sans-Serif" font-size="10.00">src</text>
</a>
</g>
</g>
<!-- dir_dfabfc0245b81fb73a666abaede92658&#45;&gt;dir_420f87287d5a5fc6f35b7971ed84ed3f -->
<g id="edge2" class="edge">
<title>dir_dfabfc0245b81fb73a666abaede92658&#45;&gt;dir_420f87287d5a5fc6f35b7971ed84ed3f</title>
<g id="a_edge2"><a xlink:href="dir_000024_000021.html" target="_top">
<path fill="none" stroke="#63b8ff" d="M113.28,-127.59C121.57,-120.01 133.45,-109.13 143.4,-100.02"/>
<polygon fill="#63b8ff" stroke="#63b8ff" points="145.71,-102.65 150.72,-93.32 140.98,-97.49 145.71,-102.65"/>
</a>
</g>
<g id="a_edge2&#45;headlabel"><a xlink:href="dir_000024_000021.html" target="_top" xlink:title="3">
<text text-anchor="middle" x="146.09" y="-102.65" font-family="Helvetica,sans-Serif" font-size="10.00" fill="#63b8ff">3</text>
</a>
</g>
</g>
<!-- dir_dfabfc0245b81fb73a666abaede92658&#45;&gt;dir_76dd8867a16d204aa2db31affc56d971 -->
<g id="edge3" class="edge">
<title>dir_dfabfc0245b81fb73a666abaede92658&#45;&gt;dir_76dd8867a16d204aa2db31affc56d971</title>
<g id="a_edge3"><a xlink:href="dir_000024_000029.html" target="_top">
<path fill="none" stroke="#63b8ff" d="M117.92,-134.98C140.09,-131.09 181.03,-120.27 199,-92 205.68,-81.5 204.98,-74.91 199,-64 192.95,-52.97 182.06,-44.75 171.34,-38.9"/>
<polygon fill="#63b8ff" stroke="#63b8ff" points="173.15,-35.89 162.63,-34.66 170.09,-42.18 173.15,-35.89"/>
</a>
</g>
<g id="a_edge3&#45;headlabel"><a xlink:href="dir_000024_000029.html" target="_top" xlink:title="2">
<text text-anchor="middle" x="176.27" y="-30.75" font-family="Helvetica,sans-Serif" font-size="10.00" fill="#63b8ff">2</text>
</a>
</g>
</g>
<!-- dir_dfabfc0245b81fb73a666abaede92658&#45;&gt;dir_88a5a0b8e1919e01f30c61886db07664 -->
<g id="edge4" class="edge">
<title>dir_dfabfc0245b81fb73a666abaede92658&#45;&gt;dir_88a5a0b8e1919e01f30c61886db07664</title>
<g id="a_edge4"><a xlink:href="dir_000024_000011.html" target="_top">
<path fill="none" stroke="#63b8ff" d="M101.26,-127.59C100.02,-120.93 98.32,-111.75 96.79,-103.44"/>
<polygon fill="#63b8ff" stroke="#63b8ff" points="100.26,-102.98 95,-93.79 93.38,-104.26 100.26,-102.98"/>
</a>
</g>
<g id="a_edge4&#45;headlabel"><a xlink:href="dir_000024_000011.html" target="_top" xlink:title="6">
<text text-anchor="middle" x="103.43" y="-101.01" font-family="Helvetica,sans-Serif" font-size="10.00" fill="#63b8ff">6</text>
</a>
</g>
</g>
</g>
</svg>
