<?xml version="1.0" encoding="UTF-8" standalone="no"?>
<!DOCTYPE svg PUBLIC "-//W3C//DTD SVG 1.1//EN"
 "http://www.w3.org/Graphics/SVG/1.1/DTD/svg11.dtd">
<!-- Generated by graphviz version 2.43.0 (0)
 -->
<!-- Title: max17048.h Pages: 1 -->
<svg width="267pt" height="192pt"
 viewBox="0.00 0.00 266.93 192.00" xmlns="http://www.w3.org/2000/svg" xmlns:xlink="http://www.w3.org/1999/xlink">
<g id="graph0" class="graph" transform="scale(1 1) rotate(0) translate(4 188)">
<title>max17048.h</title>
<!-- Node1 -->
<g id="Node000001" class="node">
<title>Node1</title>
<g id="a_Node000001"><a xlink:title="MAX17048 Driver.">
<polygon fill="#999999" stroke="#666666" points="98.43,-184 21.43,-184 21.43,-165 98.43,-165 98.43,-184"/>
<text text-anchor="middle" x="59.93" y="-172" font-family="Helvetica,sans-Serif" font-size="10.00">max17048.h</text>
</a>
</g>
</g>
<!-- Node2 -->
<g id="Node000002" class="node">
<title>Node2</title>
<g id="a_Node000002"><a xlink:href="drivers_2include_2i2c_8h.html" target="_top" xlink:title="Drivers for i2c peripheral devices.">
<polygon fill="white" stroke="#666666" points="79.93,-129 39.93,-129 39.93,-110 79.93,-110 79.93,-129"/>
<text text-anchor="middle" x="59.93" y="-117" font-family="Helvetica,sans-Serif" font-size="10.00">i2c.h</text>
</a>
</g>
</g>
<!-- Node1&#45;&gt;Node2 -->
<g id="edge1_Node000001_Node000002" class="edge">
<title>Node1&#45;&gt;Node2</title>
<g id="a_edge1_Node000001_Node000002"><a xlink:title=" ">
<path fill="none" stroke="#63b8ff" d="M59.93,-164.75C59.93,-157.8 59.93,-147.85 59.93,-139.13"/>
<polygon fill="#63b8ff" stroke="#63b8ff" points="63.43,-139.09 59.93,-129.09 56.43,-139.09 63.43,-139.09"/>
</a>
</g>
</g>
<!-- Node3 -->
<g id="Node000003" class="node">
<title>Node3</title>
<g id="a_Node000003"><a xlink:href="simulator_2pico-sdk_2hardware_2i2c_8h.html" target="_top" xlink:title=" ">
<polygon fill="white" stroke="#666666" points="214.43,-74 125.43,-74 125.43,-55 214.43,-55 214.43,-74"/>
<text text-anchor="middle" x="169.93" y="-62" font-family="Helvetica,sans-Serif" font-size="10.00">hardware/i2c.h</text>
</a>
</g>
</g>
<!-- Node2&#45;&gt;Node3 -->
<g id="edge2_Node000002_Node000003" class="edge">
<title>Node2&#45;&gt;Node3</title>
<g id="a_edge2_Node000002_Node000003"><a xlink:title=" ">
<path fill="none" stroke="#63b8ff" d="M77.6,-109.98C95.21,-101.5 122.5,-88.35 142.85,-78.54"/>
<polygon fill="#63b8ff" stroke="#63b8ff" points="144.44,-81.66 151.93,-74.17 141.4,-75.36 144.44,-81.66"/>
</a>
</g>
</g>
<!-- Node4 -->
<g id="Node000004" class="node">
<title>Node4</title>
<g id="a_Node000004"><a xlink:title=" ">
<polygon fill="#e0e0e0" stroke="#999999" points="86.43,-19 33.43,-19 33.43,0 86.43,0 86.43,-19"/>
<text text-anchor="middle" x="59.93" y="-7" font-family="Helvetica,sans-Serif" font-size="10.00">stdint.h</text>
</a>
</g>
</g>
<!-- Node2&#45;&gt;Node4 -->
<g id="edge8_Node000002_Node000004" class="edge">
<title>Node2&#45;&gt;Node4</title>
<g id="a_edge8_Node000002_Node000004"><a xlink:title=" ">
<path fill="none" stroke="#63b8ff" d="M41.57,-109.88C28.13,-102.46 10.91,-90.36 2.93,-74 -6.72,-54.23 14,-36.03 33.1,-24.23"/>
<polygon fill="#63b8ff" stroke="#63b8ff" points="35.03,-27.16 41.93,-19.13 31.52,-21.1 35.03,-27.16"/>
</a>
</g>
</g>
<!-- Node7 -->
<g id="Node000007" class="node">
<title>Node7</title>
<g id="a_Node000007"><a xlink:href="gpio_8h.html" target="_top" xlink:title=" ">
<polygon fill="white" stroke="#666666" points="107.43,-74 12.43,-74 12.43,-55 107.43,-55 107.43,-74"/>
<text text-anchor="middle" x="59.93" y="-62" font-family="Helvetica,sans-Serif" font-size="10.00">hardware/gpio.h</text>
</a>
</g>
</g>
<!-- Node2&#45;&gt;Node7 -->
<g id="edge6_Node000002_Node000007" class="edge">
<title>Node2&#45;&gt;Node7</title>
<g id="a_edge6_Node000002_Node000007"><a xlink:title=" ">
<path fill="none" stroke="#63b8ff" d="M59.93,-109.75C59.93,-102.8 59.93,-92.85 59.93,-84.13"/>
<polygon fill="#63b8ff" stroke="#63b8ff" points="63.43,-84.09 59.93,-74.09 56.43,-84.09 63.43,-84.09"/>
</a>
</g>
</g>
<!-- Node3&#45;&gt;Node4 -->
<g id="edge3_Node000003_Node000004" class="edge">
<title>Node3&#45;&gt;Node4</title>
<g id="a_edge3_Node000003_Node000004"><a xlink:title=" ">
<path fill="none" stroke="#63b8ff" d="M152.25,-54.98C134.64,-46.5 107.35,-33.35 87,-23.54"/>
<polygon fill="#63b8ff" stroke="#63b8ff" points="88.45,-20.36 77.92,-19.17 85.41,-26.66 88.45,-20.36"/>
</a>
</g>
</g>
<!-- Node5 -->
<g id="Node000005" class="node">
<title>Node5</title>
<g id="a_Node000005"><a xlink:title=" ">
<polygon fill="#e0e0e0" stroke="#999999" points="178.93,-19 122.93,-19 122.93,0 178.93,0 178.93,-19"/>
<text text-anchor="middle" x="150.93" y="-7" font-family="Helvetica,sans-Serif" font-size="10.00">stddef.h</text>
</a>
</g>
</g>
<!-- Node3&#45;&gt;Node5 -->
<g id="edge4_Node000003_Node000005" class="edge">
<title>Node3&#45;&gt;Node5</title>
<g id="a_edge4_Node000003_Node000005"><a xlink:title=" ">
<path fill="none" stroke="#63b8ff" d="M166.79,-54.75C164.24,-47.65 160.57,-37.4 157.4,-28.56"/>
<polygon fill="#63b8ff" stroke="#63b8ff" points="160.67,-27.32 154,-19.09 154.08,-29.68 160.67,-27.32"/>
</a>
</g>
</g>
<!-- Node6 -->
<g id="Node000006" class="node">
<title>Node6</title>
<g id="a_Node000006"><a xlink:title=" ">
<polygon fill="#e0e0e0" stroke="#999999" points="258.93,-19 196.93,-19 196.93,0 258.93,0 258.93,-19"/>
<text text-anchor="middle" x="227.93" y="-7" font-family="Helvetica,sans-Serif" font-size="10.00">stdbool.h</text>
</a>
</g>
</g>
<!-- Node3&#45;&gt;Node6 -->
<g id="edge5_Node000003_Node000006" class="edge">
<title>Node3&#45;&gt;Node6</title>
<g id="a_edge5_Node000003_Node000006"><a xlink:title=" ">
<path fill="none" stroke="#63b8ff" d="M179.24,-54.98C187.73,-47.23 200.48,-35.58 210.81,-26.14"/>
<polygon fill="#63b8ff" stroke="#63b8ff" points="213.42,-28.5 218.44,-19.17 208.69,-23.33 213.42,-28.5"/>
</a>
</g>
</g>
<!-- Node7&#45;&gt;Node4 -->
<g id="edge7_Node000007_Node000004" class="edge">
<title>Node7&#45;&gt;Node4</title>
<g id="a_edge7_Node000007_Node000004"><a xlink:title=" ">
<path fill="none" stroke="#63b8ff" d="M59.93,-54.75C59.93,-47.8 59.93,-37.85 59.93,-29.13"/>
<polygon fill="#63b8ff" stroke="#63b8ff" points="63.43,-29.09 59.93,-19.09 56.43,-29.09 63.43,-29.09"/>
</a>
</g>
</g>
</g>
</svg>
