<?xml version="1.0" encoding="UTF-8" standalone="no"?>
<!DOCTYPE svg PUBLIC "-//W3C//DTD SVG 1.1//EN"
 "http://www.w3.org/Graphics/SVG/1.1/DTD/svg11.dtd">
<!-- Generated by graphviz version 12.1.2 (20240928.0832)
 -->
<!-- Title: diskio.c Pages: 1 -->
<svg width="302pt" height="140pt"
 viewBox="0.00 0.00 301.88 140.00" xmlns="http://www.w3.org/2000/svg" xmlns:xlink="http://www.w3.org/1999/xlink">
<g id="graph0" class="graph" transform="scale(1 1) rotate(0) translate(4 136)">
<title>diskio.c</title>
<!-- Node1 -->
<g id="Node000001" class="node">
<title>Node1</title>
<g id="a_Node000001"><a xlink:title=" ">
<polygon fill="#999999" stroke="#666666" points="164.62,-132 114.88,-132 114.88,-112 164.62,-112 164.62,-132"/>
<text text-anchor="middle" x="139.75" y="-118.5" font-family="Helvetica,sans-Serif" font-size="10.00">diskio.c</text>
</a>
</g>
</g>
<!-- Node2 -->
<g id="Node000002" class="node">
<title>Node2</title>
<g id="a_Node000002"><a xlink:title=" ">
<polygon fill="#e0e0e0" stroke="#999999" points="29.5,-76 0,-76 0,-56 29.5,-56 29.5,-76"/>
<text text-anchor="middle" x="14.75" y="-62.5" font-family="Helvetica,sans-Serif" font-size="10.00">ff.h</text>
</a>
</g>
</g>
<!-- Node1&#45;&gt;Node2 -->
<g id="edge1_Node000001_Node000002" class="edge">
<title>Node1&#45;&gt;Node2</title>
<g id="a_edge1_Node000001_Node000002"><a xlink:title=" ">
<path fill="none" stroke="#63b8ff" d="M117.98,-111.59C96.34,-102.25 63.16,-87.91 40.29,-78.03"/>
<polygon fill="#63b8ff" stroke="#63b8ff" points="41.94,-74.93 31.37,-74.18 39.17,-81.36 41.94,-74.93"/>
</a>
</g>
</g>
<!-- Node3 -->
<g id="Node000003" class="node">
<title>Node3</title>
<g id="a_Node000003"><a xlink:title=" ">
<polygon fill="#e0e0e0" stroke="#999999" points="97.62,-76 47.88,-76 47.88,-56 97.62,-56 97.62,-76"/>
<text text-anchor="middle" x="72.75" y="-62.5" font-family="Helvetica,sans-Serif" font-size="10.00">diskio.h</text>
</a>
</g>
</g>
<!-- Node1&#45;&gt;Node3 -->
<g id="edge2_Node000001_Node000003" class="edge">
<title>Node1&#45;&gt;Node3</title>
<g id="a_edge2_Node000001_Node000003"><a xlink:title=" ">
<path fill="none" stroke="#63b8ff" d="M128.08,-111.59C118.47,-103.85 104.62,-92.69 93.18,-83.47"/>
<polygon fill="#63b8ff" stroke="#63b8ff" points="95.45,-80.8 85.47,-77.25 91.05,-86.25 95.45,-80.8"/>
</a>
</g>
</g>
<!-- Node4 -->
<g id="Node000004" class="node">
<title>Node4</title>
<g id="a_Node000004"><a xlink:href="mram_8h.html" target="_top" xlink:title=" ">
<polygon fill="white" stroke="#666666" points="164.25,-76 115.25,-76 115.25,-56 164.25,-56 164.25,-76"/>
<text text-anchor="middle" x="139.75" y="-62.5" font-family="Helvetica,sans-Serif" font-size="10.00">mram.h</text>
</a>
</g>
</g>
<!-- Node1&#45;&gt;Node4 -->
<g id="edge3_Node000001_Node000004" class="edge">
<title>Node1&#45;&gt;Node4</title>
<g id="a_edge3_Node000001_Node000004"><a xlink:title=" ">
<path fill="none" stroke="#63b8ff" d="M139.75,-111.59C139.75,-105.01 139.75,-95.96 139.75,-87.73"/>
<polygon fill="#63b8ff" stroke="#63b8ff" points="143.25,-87.81 139.75,-77.81 136.25,-87.81 143.25,-87.81"/>
</a>
</g>
</g>
<!-- Node6 -->
<g id="Node000006" class="node">
<title>Node6</title>
<g id="a_Node000006"><a xlink:href="stdio_8h.html" target="_top" xlink:title=" ">
<polygon fill="white" stroke="#666666" points="227.38,-76 182.12,-76 182.12,-56 227.38,-56 227.38,-76"/>
<text text-anchor="middle" x="204.75" y="-62.5" font-family="Helvetica,sans-Serif" font-size="10.00">stdio.h</text>
</a>
</g>
</g>
<!-- Node1&#45;&gt;Node6 -->
<g id="edge5_Node000001_Node000006" class="edge">
<title>Node1&#45;&gt;Node6</title>
<g id="a_edge5_Node000001_Node000006"><a xlink:title=" ">
<path fill="none" stroke="#63b8ff" d="M151.07,-111.59C160.39,-103.85 173.83,-92.69 184.93,-83.47"/>
<polygon fill="#63b8ff" stroke="#63b8ff" points="186.94,-86.35 192.39,-77.27 182.46,-80.96 186.94,-86.35"/>
</a>
</g>
</g>
<!-- Node7 -->
<g id="Node000007" class="node">
<title>Node7</title>
<g id="a_Node000007"><a xlink:title=" ">
<polygon fill="#e0e0e0" stroke="#999999" points="293.88,-76 245.62,-76 245.62,-56 293.88,-56 293.88,-76"/>
<text text-anchor="middle" x="269.75" y="-62.5" font-family="Helvetica,sans-Serif" font-size="10.00">string.h</text>
</a>
</g>
</g>
<!-- Node1&#45;&gt;Node7 -->
<g id="edge6_Node000001_Node000007" class="edge">
<title>Node1&#45;&gt;Node7</title>
<g id="a_edge6_Node000001_Node000007"><a xlink:title=" ">
<path fill="none" stroke="#63b8ff" d="M162.39,-111.59C182.87,-103.09 213.27,-90.46 236.5,-80.81"/>
<polygon fill="#63b8ff" stroke="#63b8ff" points="237.64,-84.13 245.53,-77.06 234.95,-77.66 237.64,-84.13"/>
</a>
</g>
</g>
<!-- Node5 -->
<g id="Node000005" class="node">
<title>Node5</title>
<g id="a_Node000005"><a xlink:href="stdlib_8h.html" target="_top" xlink:title=" ">
<polygon fill="white" stroke="#666666" points="163.5,-20 116,-20 116,0 163.5,0 163.5,-20"/>
<text text-anchor="middle" x="139.75" y="-6.5" font-family="Helvetica,sans-Serif" font-size="10.00">stdlib.h</text>
</a>
</g>
</g>
<!-- Node4&#45;&gt;Node5 -->
<g id="edge4_Node000004_Node000005" class="edge">
<title>Node4&#45;&gt;Node5</title>
<g id="a_edge4_Node000004_Node000005"><a xlink:title=" ">
<path fill="none" stroke="#63b8ff" d="M139.75,-55.59C139.75,-49.01 139.75,-39.96 139.75,-31.73"/>
<polygon fill="#63b8ff" stroke="#63b8ff" points="143.25,-31.81 139.75,-21.81 136.25,-31.81 143.25,-31.81"/>
</a>
</g>
</g>
</g>
</svg>
