<?xml version="1.0" encoding="UTF-8" standalone="no"?>
<!DOCTYPE svg PUBLIC "-//W3C//DTD SVG 1.1//EN"
 "http://www.w3.org/Graphics/SVG/1.1/DTD/svg11.dtd">
<!-- Generated by graphviz version 2.43.0 (0)
 -->
<!-- Title: max17048CellVoltageRaw Pages: 1 -->
<svg width="495pt" height="46pt"
 viewBox="0.00 0.00 495.00 46.00" xmlns="http://www.w3.org/2000/svg" xmlns:xlink="http://www.w3.org/1999/xlink">
<g id="graph0" class="graph" transform="scale(1 1) rotate(0) translate(4 42)">
<title>max17048CellVoltageRaw</title>
<!-- Node1 -->
<g id="Node000001" class="node">
<title>Node1</title>
<g id="a_Node000001"><a xlink:title="For use in a packet; takes up less bytes; conversion done on the ground Returns 2 uint8_ts.">
<polygon fill="#999999" stroke="#666666" points="145,-38 0,-38 0,-19 145,-19 145,-38"/>
<text text-anchor="middle" x="72.5" y="-26" font-family="Helvetica,sans-Serif" font-size="10.00">max17048CellVoltageRaw</text>
</a>
</g>
</g>
<!-- Node2 -->
<g id="Node000002" class="node">
<title>Node2</title>
<g id="a_Node000002"><a xlink:href="i2c_8c.html#afd489cf93d14a907e09132068de8e1c9" target="_top" xlink:title="Write [reg] byte to i2c device and then read [nbytes] from it. Read bytes are stored in [buf].">
<polygon fill="white" stroke="#666666" points="487,-38 358,-38 358,-19 487,-19 487,-38"/>
<text text-anchor="middle" x="422.5" y="-26" font-family="Helvetica,sans-Serif" font-size="10.00">i2c_read_from_register</text>
</a>
</g>
</g>
<!-- Node1&#45;&gt;Node2 -->
<g id="edge1_Node000001_Node000002" class="edge">
<title>Node1&#45;&gt;Node2</title>
<g id="a_edge1_Node000001_Node000002"><a xlink:title=" ">
<path fill="none" stroke="#63b8ff" d="M145.18,-28.5C204.34,-28.5 287.96,-28.5 347.69,-28.5"/>
<polygon fill="#63b8ff" stroke="#63b8ff" points="347.81,-32 357.81,-28.5 347.81,-25 347.81,-32"/>
</a>
</g>
</g>
<!-- Node3 -->
<g id="Node000003" class="node">
<title>Node3</title>
<g id="a_Node000003"><a xlink:href="max17048_8c.html#a4f5e94a7e81b4682c6489f4c07138bda" target="_top" xlink:title=" ">
<polygon fill="white" stroke="#666666" points="322,-19 181,-19 181,0 322,0 322,-19"/>
<text text-anchor="middle" x="251.5" y="-7" font-family="Helvetica,sans-Serif" font-size="10.00">max17048IsDeviceReady</text>
</a>
</g>
</g>
<!-- Node1&#45;&gt;Node3 -->
<g id="edge2_Node000001_Node000003" class="edge">
<title>Node1&#45;&gt;Node3</title>
<g id="a_edge2_Node000001_Node000003"><a xlink:title=" ">
<path fill="none" stroke="#63b8ff" d="M145.24,-20.8C153.71,-19.89 162.39,-18.96 170.97,-18.04"/>
<polygon fill="#63b8ff" stroke="#63b8ff" points="171.39,-21.51 180.96,-16.97 170.64,-14.55 171.39,-21.51"/>
</a>
</g>
</g>
<!-- Node3&#45;&gt;Node2 -->
<g id="edge3_Node000003_Node000002" class="edge">
<title>Node3&#45;&gt;Node2</title>
<g id="a_edge3_Node000003_Node000002"><a xlink:title=" ">
<path fill="none" stroke="#63b8ff" d="M322.21,-17.34C330.71,-18.29 339.41,-19.27 347.96,-20.23"/>
<polygon fill="#63b8ff" stroke="#63b8ff" points="347.58,-23.71 357.91,-21.35 348.36,-16.75 347.58,-23.71"/>
</a>
</g>
</g>
</g>
</svg>
