<?xml version="1.0" encoding="UTF-8" standalone="no"?>
<!DOCTYPE svg PUBLIC "-//W3C//DTD SVG 1.1//EN"
 "http://www.w3.org/Graphics/SVG/1.1/DTD/svg11.dtd">
<!-- Generated by graphviz version 2.43.0 (0)
 -->
<!-- Title: test_diskio Pages: 1 -->
<svg width="495pt" height="138pt"
 viewBox="0.00 0.00 495.00 138.00" xmlns="http://www.w3.org/2000/svg" xmlns:xlink="http://www.w3.org/1999/xlink">

<svg id="main" version="1.1" xmlns="http://www.w3.org/2000/svg" xmlns:xlink="http://www.w3.org/1999/xlink" xml:space="preserve">

<style type="text/css"><![CDATA[
.node, .edge {opacity: 0.7;}
.node.selected, .edge.selected {opacity: 1;}
.edge:hover path { stroke: red; }
.edge:hover polygon { stroke: red; fill: red; }
]]></style>
<script type="application/ecmascript" xlink:href="svg.min.js"/>
<svg id="graph" class="graph">
<g id="graph0" class="graph" transform="scale(1 1) rotate(0) translate(4 134)">
<title>test_diskio</title>
<!-- Node1 -->
<g id="Node000001" class="node">
<title>Node1</title>
<g id="a_Node000001"><a xlink:title=" ">
<polygon fill="#999999" stroke="#666666" points="70,-74 0,-74 0,-55 70,-55 70,-74"/>
<text text-anchor="middle" x="35" y="-62" font-family="Helvetica,sans-Serif" font-size="10.00">test_diskio</text>
</a>
</g>
</g>
<!-- Node2 -->
<g id="Node000002" class="node">
<title>Node2</title>
<g id="a_Node000002"><a xlink:href="drivers_2src_2diskio_8c.html#a09cdaa6f36fa409bdf002727bff98eb1" target="_top" xlink:title=" ">
<polygon fill="white" stroke="#666666" points="190,-130 106,-130 106,-111 190,-111 190,-130"/>
<text text-anchor="middle" x="148" y="-118" font-family="Helvetica,sans-Serif" font-size="10.00">disk_initialize</text>
</a>
</g>
</g>
<!-- Node1&#45;&gt;Node2 -->
<g id="edge1_Node000001_Node000002" class="edge">
<title>Node1&#45;&gt;Node2</title>
<g id="a_edge1_Node000001_Node000002"><a xlink:title=" ">
<path fill="none" stroke="#63b8ff" d="M52.77,-74.12C66.82,-82.05 87.5,-93.44 106,-102.5 108.93,-103.94 112.01,-105.39 115.1,-106.81"/>
<polygon fill="#63b8ff" stroke="#63b8ff" points="113.73,-110.03 124.29,-110.93 116.6,-103.64 113.73,-110.03"/>
</a>
</g>
</g>
<!-- Node5 -->
<g id="Node000005" class="node">
<title>Node5</title>
<g id="a_Node000005"><a xlink:href="drivers_2src_2diskio_8c.html#ab00fa450a811dbdabe3c655c1a36fab4" target="_top" xlink:title=" ">
<polygon fill="white" stroke="#666666" points="179.5,-93 116.5,-93 116.5,-74 179.5,-74 179.5,-93"/>
<text text-anchor="middle" x="148" y="-81" font-family="Helvetica,sans-Serif" font-size="10.00">disk_ioctl</text>
</a>
</g>
</g>
<!-- Node1&#45;&gt;Node5 -->
<g id="edge4_Node000001_Node000005" class="edge">
<title>Node1&#45;&gt;Node5</title>
<g id="a_edge4_Node000001_Node000005"><a xlink:title=" ">
<path fill="none" stroke="#63b8ff" d="M70.21,-70.36C81.64,-72.31 94.49,-74.51 106.36,-76.54"/>
<polygon fill="#63b8ff" stroke="#63b8ff" points="106.03,-80.04 116.48,-78.28 107.21,-73.14 106.03,-80.04"/>
</a>
</g>
</g>
<!-- Node6 -->
<g id="Node000006" class="node">
<title>Node6</title>
<g id="a_Node000006"><a xlink:href="drivers_2src_2diskio_8c.html#a0711b1d03b833e9d73b3be1a6397f461" target="_top" xlink:title=" ">
<polygon fill="white" stroke="#666666" points="180,-56 116,-56 116,-37 180,-37 180,-56"/>
<text text-anchor="middle" x="148" y="-44" font-family="Helvetica,sans-Serif" font-size="10.00">disk_read</text>
</a>
</g>
</g>
<!-- Node1&#45;&gt;Node6 -->
<g id="edge5_Node000001_Node000006" class="edge">
<title>Node1&#45;&gt;Node6</title>
<g id="a_edge5_Node000001_Node000006"><a xlink:title=" ">
<path fill="none" stroke="#63b8ff" d="M70.21,-58.95C81.44,-57.13 94.05,-55.09 105.75,-53.19"/>
<polygon fill="#63b8ff" stroke="#63b8ff" points="106.43,-56.63 115.74,-51.57 105.31,-49.72 106.43,-56.63"/>
</a>
</g>
</g>
<!-- Node8 -->
<g id="Node000008" class="node">
<title>Node8</title>
<g id="a_Node000008"><a xlink:href="drivers_2src_2diskio_8c.html#ac24448955ef914f54a499df1fb45689d" target="_top" xlink:title=" ">
<polygon fill="white" stroke="#666666" points="181.5,-19 114.5,-19 114.5,0 181.5,0 181.5,-19"/>
<text text-anchor="middle" x="148" y="-7" font-family="Helvetica,sans-Serif" font-size="10.00">disk_write</text>
</a>
</g>
</g>
<!-- Node1&#45;&gt;Node8 -->
<g id="edge7_Node000001_Node000008" class="edge">
<title>Node1&#45;&gt;Node8</title>
<g id="a_edge7_Node000001_Node000008"><a xlink:title=" ">
<path fill="none" stroke="#63b8ff" d="M54.03,-54.97C68.1,-47.59 88.2,-37.2 106,-28.5 109.55,-26.77 113.28,-24.98 117,-23.23"/>
<polygon fill="#63b8ff" stroke="#63b8ff" points="118.48,-26.4 126.06,-19 115.52,-20.06 118.48,-26.4"/>
</a>
</g>
</g>
<!-- Node3 -->
<g id="Node000003" class="node">
<title>Node3</title>
<g id="a_Node000003"><a xlink:href="mram_8c.html#ae11c5653b6ee6161a4a838d899556106" target="_top" xlink:title=" ">
<polygon fill="white" stroke="#666666" points="319,-111 226,-111 226,-92 319,-92 319,-111"/>
<text text-anchor="middle" x="272.5" y="-99" font-family="Helvetica,sans-Serif" font-size="10.00">initialize_mram</text>
</a>
</g>
</g>
<!-- Node2&#45;&gt;Node3 -->
<g id="edge2_Node000002_Node000003" class="edge">
<title>Node2&#45;&gt;Node3</title>
<g id="a_edge2_Node000002_Node000003"><a xlink:title=" ">
<path fill="none" stroke="#63b8ff" d="M190.13,-114.12C198.32,-112.85 207.06,-111.5 215.65,-110.16"/>
<polygon fill="#63b8ff" stroke="#63b8ff" points="216.28,-113.61 225.63,-108.62 215.21,-106.69 216.28,-113.61"/>
</a>
</g>
</g>
<!-- Node4 -->
<g id="Node000004" class="node">
<title>Node4</title>
<g id="a_Node000004"><a xlink:href="mram_8c.html#a52ab33155b91ce8971434bf4e30e4d98" target="_top" xlink:title="Send a simple spi command to MRAM device.">
<polygon fill="white" stroke="#666666" points="487,-56 355,-56 355,-37 487,-37 487,-56"/>
<text text-anchor="middle" x="421" y="-44" font-family="Helvetica,sans-Serif" font-size="10.00">send_simple_command</text>
</a>
</g>
</g>
<!-- Node3&#45;&gt;Node4 -->
<g id="edge3_Node000003_Node000004" class="edge">
<title>Node3&#45;&gt;Node4</title>
<g id="a_edge3_Node000003_Node000004"><a xlink:title=" ">
<path fill="none" stroke="#63b8ff" d="M299.02,-91.92C322.72,-83.02 358.22,-69.69 384.64,-59.77"/>
<polygon fill="#63b8ff" stroke="#63b8ff" points="386.15,-62.95 394.28,-56.16 383.69,-56.39 386.15,-62.95"/>
</a>
</g>
</g>
<!-- Node7 -->
<g id="Node000007" class="node">
<title>Node7</title>
<g id="a_Node000007"><a xlink:href="mram_8c.html#ac591c4396a1fe18bacf982086ed0137c" target="_top" xlink:title="Read bytes from the MRAM device.">
<polygon fill="white" stroke="#666666" points="308,-56 237,-56 237,-37 308,-37 308,-56"/>
<text text-anchor="middle" x="272.5" y="-44" font-family="Helvetica,sans-Serif" font-size="10.00">read_bytes</text>
</a>
</g>
</g>
<!-- Node6&#45;&gt;Node7 -->
<g id="edge6_Node000006_Node000007" class="edge">
<title>Node6&#45;&gt;Node7</title>
<g id="a_edge6_Node000006_Node000007"><a xlink:title=" ">
<path fill="none" stroke="#63b8ff" d="M180.23,-46.5C194.28,-46.5 211.14,-46.5 226.52,-46.5"/>
<polygon fill="#63b8ff" stroke="#63b8ff" points="226.87,-50 236.87,-46.5 226.87,-43 226.87,-50"/>
</a>
</g>
</g>
<!-- Node9 -->
<g id="Node000009" class="node">
<title>Node9</title>
<g id="a_Node000009"><a xlink:href="mram_8c.html#add902998ab0ec8cffadcd0e2769b083f" target="_top" xlink:title="Writes bytes to the MRAM device.">
<polygon fill="white" stroke="#666666" points="309.5,-19 235.5,-19 235.5,0 309.5,0 309.5,-19"/>
<text text-anchor="middle" x="272.5" y="-7" font-family="Helvetica,sans-Serif" font-size="10.00">write_bytes</text>
</a>
</g>
</g>
<!-- Node8&#45;&gt;Node9 -->
<g id="edge8_Node000008_Node000009" class="edge">
<title>Node8&#45;&gt;Node9</title>
<g id="a_edge8_Node000008_Node000009"><a xlink:title=" ">
<path fill="none" stroke="#63b8ff" d="M181.51,-9.5C194.85,-9.5 210.55,-9.5 225.07,-9.5"/>
<polygon fill="#63b8ff" stroke="#63b8ff" points="225.39,-13 235.39,-9.5 225.39,-6 225.39,-13"/>
</a>
</g>
</g>
<!-- Node9&#45;&gt;Node4 -->
<g id="edge9_Node000009_Node000004" class="edge">
<title>Node9&#45;&gt;Node4</title>
<g id="a_edge9_Node000009_Node000004"><a xlink:title=" ">
<path fill="none" stroke="#63b8ff" d="M309.71,-18.65C328.65,-23.43 352.06,-29.34 372.43,-34.49"/>
<polygon fill="#63b8ff" stroke="#63b8ff" points="371.61,-37.89 382.16,-36.94 373.32,-31.1 371.61,-37.89"/>
</a>
</g>
</g>
</g>
</svg>
</svg>

<style type='text/css'>
<![CDATA[
[data-mouse-over-selected='false'] { opacity: 0.7; }
[data-mouse-over-selected='true']  { opacity: 1.0; }
]]>
</style>
<script type="application/ecmascript"><![CDATA[
document.addEventListener('DOMContentLoaded', (event) => {
  highlightEdges();
  highlightAdjacentNodes();
});
]]></script>
</svg>
