<?xml version="1.0" encoding="UTF-8" standalone="no"?>
<!DOCTYPE svg PUBLIC "-//W3C//DTD SVG 1.1//EN"
 "http://www.w3.org/Graphics/SVG/1.1/DTD/svg11.dtd">
<!-- Generated by graphviz version 12.1.2 (20240928.0832)
 -->
<!-- Title: usb_uart.c Pages: 1 -->
<svg width="195pt" height="140pt"
 viewBox="0.00 0.00 194.88 140.00" xmlns="http://www.w3.org/2000/svg" xmlns:xlink="http://www.w3.org/1999/xlink">
<g id="graph0" class="graph" transform="scale(1 1) rotate(0) translate(4 136)">
<title>usb_uart.c</title>
<!-- Node1 -->
<g id="Node000001" class="node">
<title>Node1</title>
<g id="a_Node000001"><a xlink:title=" ">
<polygon fill="#999999" stroke="#666666" points="93.12,-132 31.38,-132 31.38,-112 93.12,-112 93.12,-132"/>
<text text-anchor="middle" x="62.25" y="-118.5" font-family="Helvetica,sans-Serif" font-size="10.00">usb_uart.c</text>
</a>
</g>
</g>
<!-- Node2 -->
<g id="Node000002" class="node">
<title>Node2</title>
<g id="a_Node000002"><a xlink:title=" ">
<polygon fill="#e0e0e0" stroke="#999999" points="50.5,-76 0,-76 0,-56 50.5,-56 50.5,-76"/>
<text text-anchor="middle" x="25.25" y="-62.5" font-family="Helvetica,sans-Serif" font-size="10.00">unistd.h</text>
</a>
</g>
</g>
<!-- Node1&#45;&gt;Node2 -->
<g id="edge1_Node000001_Node000002" class="edge">
<title>Node1&#45;&gt;Node2</title>
<g id="a_edge1_Node000001_Node000002"><a xlink:title=" ">
<path fill="none" stroke="#63b8ff" d="M55.81,-111.59C50.92,-104.47 44.06,-94.45 38.07,-85.72"/>
<polygon fill="#63b8ff" stroke="#63b8ff" points="41.02,-83.82 32.48,-77.55 35.24,-87.77 41.02,-83.82"/>
</a>
</g>
</g>
<!-- Node3 -->
<g id="Node000003" class="node">
<title>Node3</title>
<g id="a_Node000003"><a xlink:href="usb__uart_8h.html" target="_top" xlink:title=" ">
<polygon fill="white" stroke="#666666" points="130.12,-76 68.38,-76 68.38,-56 130.12,-56 130.12,-76"/>
<text text-anchor="middle" x="99.25" y="-62.5" font-family="Helvetica,sans-Serif" font-size="10.00">usb_uart.h</text>
</a>
</g>
</g>
<!-- Node1&#45;&gt;Node3 -->
<g id="edge2_Node000001_Node000003" class="edge">
<title>Node1&#45;&gt;Node3</title>
<g id="a_edge2_Node000001_Node000003"><a xlink:title=" ">
<path fill="none" stroke="#63b8ff" d="M68.69,-111.59C73.58,-104.47 80.44,-94.45 86.43,-85.72"/>
<polygon fill="#63b8ff" stroke="#63b8ff" points="89.26,-87.77 92.02,-77.55 83.48,-83.82 89.26,-87.77"/>
</a>
</g>
</g>
<!-- Node4 -->
<g id="Node000004" class="node">
<title>Node4</title>
<g id="a_Node000004"><a xlink:title=" ">
<polygon fill="#e0e0e0" stroke="#999999" points="56.88,-20 5.62,-20 5.62,0 56.88,0 56.88,-20"/>
<text text-anchor="middle" x="31.25" y="-6.5" font-family="Helvetica,sans-Serif" font-size="10.00">stddef.h</text>
</a>
</g>
</g>
<!-- Node3&#45;&gt;Node4 -->
<g id="edge3_Node000003_Node000004" class="edge">
<title>Node3&#45;&gt;Node4</title>
<g id="a_edge3_Node000003_Node000004"><a xlink:title=" ">
<path fill="none" stroke="#63b8ff" d="M87.41,-55.59C77.56,-47.77 63.32,-36.46 51.64,-27.19"/>
<polygon fill="#63b8ff" stroke="#63b8ff" points="54.15,-24.72 44.14,-21.24 49.8,-30.2 54.15,-24.72"/>
</a>
</g>
</g>
<!-- Node5 -->
<g id="Node000005" class="node">
<title>Node5</title>
<g id="a_Node000005"><a xlink:title=" ">
<polygon fill="#e0e0e0" stroke="#999999" points="123.38,-20 75.12,-20 75.12,0 123.38,0 123.38,-20"/>
<text text-anchor="middle" x="99.25" y="-6.5" font-family="Helvetica,sans-Serif" font-size="10.00">stdint.h</text>
</a>
</g>
</g>
<!-- Node3&#45;&gt;Node5 -->
<g id="edge4_Node000003_Node000005" class="edge">
<title>Node3&#45;&gt;Node5</title>
<g id="a_edge4_Node000003_Node000005"><a xlink:title=" ">
<path fill="none" stroke="#63b8ff" d="M99.25,-55.59C99.25,-49.01 99.25,-39.96 99.25,-31.73"/>
<polygon fill="#63b8ff" stroke="#63b8ff" points="102.75,-31.81 99.25,-21.81 95.75,-31.81 102.75,-31.81"/>
</a>
</g>
</g>
<!-- Node6 -->
<g id="Node000006" class="node">
<title>Node6</title>
<g id="a_Node000006"><a xlink:href="stdio_8h.html" target="_top" xlink:title=" ">
<polygon fill="white" stroke="#666666" points="186.88,-20 141.62,-20 141.62,0 186.88,0 186.88,-20"/>
<text text-anchor="middle" x="164.25" y="-6.5" font-family="Helvetica,sans-Serif" font-size="10.00">stdio.h</text>
</a>
</g>
</g>
<!-- Node3&#45;&gt;Node6 -->
<g id="edge5_Node000003_Node000006" class="edge">
<title>Node3&#45;&gt;Node6</title>
<g id="a_edge5_Node000003_Node000006"><a xlink:title=" ">
<path fill="none" stroke="#63b8ff" d="M110.57,-55.59C119.89,-47.85 133.33,-36.69 144.43,-27.47"/>
<polygon fill="#63b8ff" stroke="#63b8ff" points="146.44,-30.35 151.89,-21.27 141.96,-24.96 146.44,-30.35"/>
</a>
</g>
</g>
</g>
</svg>
