<?xml version="1.0" encoding="UTF-8" standalone="no"?>
<!DOCTYPE svg PUBLIC "-//W3C//DTD SVG 1.1//EN"
 "http://www.w3.org/Graphics/SVG/1.1/DTD/svg11.dtd">
<!-- Generated by graphviz version 2.43.0 (0)
 -->
<!-- Title: ds18b20_start_conversion Pages: 1 -->
<svg width="249pt" height="64pt"
 viewBox="0.00 0.00 249.00 64.00" xmlns="http://www.w3.org/2000/svg" xmlns:xlink="http://www.w3.org/1999/xlink">
<g id="graph0" class="graph" transform="scale(1 1) rotate(0) translate(4 60)">
<title>ds18b20_start_conversion</title>
<!-- Node1 -->
<g id="Node000001" class="node">
<title>Node1</title>
<g id="a_Node000001"><a xlink:title="Triggers a temperature conversion on all ds18b20 devices on the onewire line. This can take up to 750...">
<polygon fill="#999999" stroke="#666666" points="144,-37 0,-37 0,-18 144,-18 144,-37"/>
<text text-anchor="middle" x="72" y="-25" font-family="Helvetica,sans-Serif" font-size="10.00">ds18b20_start_conversion</text>
</a>
</g>
</g>
<!-- Node2 -->
<g id="Node000002" class="node">
<title>Node2</title>
<g id="a_Node000002"><a xlink:href="onewire__library_8h.html#aaefd21819e57b6063ff29519a48c76f8" target="_top" xlink:title=" ">
<polygon fill="white" stroke="#666666" points="241,-56 180,-56 180,-37 241,-37 241,-56"/>
<text text-anchor="middle" x="210.5" y="-44" font-family="Helvetica,sans-Serif" font-size="10.00">ow_reset</text>
</a>
</g>
</g>
<!-- Node1&#45;&gt;Node2 -->
<g id="edge1_Node000001_Node000002" class="edge">
<title>Node1&#45;&gt;Node2</title>
<g id="a_edge1_Node000001_Node000002"><a xlink:title=" ">
<path fill="none" stroke="#63b8ff" d="M141.65,-37.06C151.29,-38.4 160.92,-39.74 169.77,-40.97"/>
<polygon fill="#63b8ff" stroke="#63b8ff" points="169.36,-44.45 179.75,-42.36 170.33,-37.51 169.36,-44.45"/>
</a>
</g>
</g>
<!-- Node3 -->
<g id="Node000003" class="node">
<title>Node3</title>
<g id="a_Node000003"><a xlink:href="onewire__library_8h.html#ab92be9bb3fe3a2d3ca76272733888739" target="_top" xlink:title=" ">
<polygon fill="white" stroke="#666666" points="240,-19 181,-19 181,0 240,0 240,-19"/>
<text text-anchor="middle" x="210.5" y="-7" font-family="Helvetica,sans-Serif" font-size="10.00">ow_send</text>
</a>
</g>
</g>
<!-- Node1&#45;&gt;Node3 -->
<g id="edge2_Node000001_Node000003" class="edge">
<title>Node1&#45;&gt;Node3</title>
<g id="a_edge2_Node000001_Node000003"><a xlink:title=" ">
<path fill="none" stroke="#63b8ff" d="M144.05,-18.13C153.25,-16.92 162.38,-15.71 170.78,-14.61"/>
<polygon fill="#63b8ff" stroke="#63b8ff" points="171.51,-18.04 180.96,-13.26 170.59,-11.1 171.51,-18.04"/>
</a>
</g>
</g>
</g>
</svg>
