<?xml version="1.0" encoding="UTF-8" standalone="no"?>
<!DOCTYPE svg PUBLIC "-//W3C//DTD SVG 1.1//EN"
 "http://www.w3.org/Graphics/SVG/1.1/DTD/svg11.dtd">
<!-- Generated by graphviz version 2.43.0 (0)
 -->
<!-- Title: ds18b20_read_temp Pages: 1 -->
<svg width="221pt" height="101pt"
 viewBox="0.00 0.00 221.00 101.00" xmlns="http://www.w3.org/2000/svg" xmlns:xlink="http://www.w3.org/1999/xlink">

<svg id="main" version="1.1" xmlns="http://www.w3.org/2000/svg" xmlns:xlink="http://www.w3.org/1999/xlink" xml:space="preserve">

<style type="text/css"><![CDATA[
.node, .edge {opacity: 0.7;}
.node.selected, .edge.selected {opacity: 1;}
.edge:hover path { stroke: red; }
.edge:hover polygon { stroke: red; fill: red; }
]]></style>
<script type="application/ecmascript" xlink:href="svg.min.js"/>
<svg id="graph" class="graph">
<g id="graph0" class="graph" transform="scale(1 1) rotate(0) translate(4 97)">
<title>ds18b20_read_temp</title>
<!-- Node1 -->
<g id="Node000001" class="node">
<title>Node1</title>
<g id="a_Node000001"><a xlink:title="Reads the temperature from a ds18b20 This requires waiting for that conversion to finish,...">
<polygon fill="#999999" stroke="#666666" points="116,-56 0,-56 0,-37 116,-37 116,-56"/>
<text text-anchor="middle" x="58" y="-44" font-family="Helvetica,sans-Serif" font-size="10.00">ds18b20_read_temp</text>
</a>
</g>
</g>
<!-- Node2 -->
<g id="Node000002" class="node">
<title>Node2</title>
<g id="a_Node000002"><a xlink:href="onewire__library_8h.html#adaf73c76a41dc4bd34ff4e4a2b17781f" target="_top" xlink:title=" ">
<polygon fill="white" stroke="#666666" points="211.5,-93 153.5,-93 153.5,-74 211.5,-74 211.5,-93"/>
<text text-anchor="middle" x="182.5" y="-81" font-family="Helvetica,sans-Serif" font-size="10.00">ow_read</text>
</a>
</g>
</g>
<!-- Node1&#45;&gt;Node2 -->
<g id="edge1_Node000001_Node000002" class="edge">
<title>Node1&#45;&gt;Node2</title>
<g id="a_edge1_Node000001_Node000002"><a xlink:title=" ">
<path fill="none" stroke="#63b8ff" d="M90.55,-56.03C106.78,-60.93 126.7,-66.95 143.75,-72.1"/>
<polygon fill="#63b8ff" stroke="#63b8ff" points="142.82,-75.47 153.4,-75.01 144.84,-68.77 142.82,-75.47"/>
</a>
</g>
</g>
<!-- Node3 -->
<g id="Node000003" class="node">
<title>Node3</title>
<g id="a_Node000003"><a xlink:href="onewire__library_8h.html#aaefd21819e57b6063ff29519a48c76f8" target="_top" xlink:title=" ">
<polygon fill="white" stroke="#666666" points="213,-56 152,-56 152,-37 213,-37 213,-56"/>
<text text-anchor="middle" x="182.5" y="-44" font-family="Helvetica,sans-Serif" font-size="10.00">ow_reset</text>
</a>
</g>
</g>
<!-- Node1&#45;&gt;Node3 -->
<g id="edge2_Node000001_Node000003" class="edge">
<title>Node1&#45;&gt;Node3</title>
<g id="a_edge2_Node000001_Node000003"><a xlink:title=" ">
<path fill="none" stroke="#63b8ff" d="M116.3,-46.5C124.88,-46.5 133.55,-46.5 141.66,-46.5"/>
<polygon fill="#63b8ff" stroke="#63b8ff" points="141.93,-50 151.93,-46.5 141.93,-43 141.93,-50"/>
</a>
</g>
</g>
<!-- Node4 -->
<g id="Node000004" class="node">
<title>Node4</title>
<g id="a_Node000004"><a xlink:href="onewire__library_8h.html#ab92be9bb3fe3a2d3ca76272733888739" target="_top" xlink:title=" ">
<polygon fill="white" stroke="#666666" points="212,-19 153,-19 153,0 212,0 212,-19"/>
<text text-anchor="middle" x="182.5" y="-7" font-family="Helvetica,sans-Serif" font-size="10.00">ow_send</text>
</a>
</g>
</g>
<!-- Node1&#45;&gt;Node4 -->
<g id="edge3_Node000001_Node000004" class="edge">
<title>Node1&#45;&gt;Node4</title>
<g id="a_edge3_Node000001_Node000004"><a xlink:title=" ">
<path fill="none" stroke="#63b8ff" d="M90.55,-36.97C106.67,-32.1 126.41,-26.14 143.37,-21.02"/>
<polygon fill="#63b8ff" stroke="#63b8ff" points="144.43,-24.35 152.99,-18.11 142.41,-17.65 144.43,-24.35"/>
</a>
</g>
</g>
</g>
</svg>
</svg>

<style type='text/css'>
<![CDATA[
[data-mouse-over-selected='false'] { opacity: 0.7; }
[data-mouse-over-selected='true']  { opacity: 1.0; }
]]>
</style>
<script type="application/ecmascript"><![CDATA[
document.addEventListener('DOMContentLoaded', (event) => {
  highlightEdges();
  highlightAdjacentNodes();
});
]]></script>
</svg>
