<?xml version="1.0" encoding="UTF-8" standalone="no"?>
<!DOCTYPE svg PUBLIC "-//W3C//DTD SVG 1.1//EN"
 "http://www.w3.org/Graphics/SVG/1.1/DTD/svg11.dtd">
<!-- Generated by graphviz version 2.43.0 (0)
 -->
<!-- Title: ds18b20.c Pages: 1 -->
<svg width="556pt" height="192pt"
 viewBox="0.00 0.00 556.00 192.00" xmlns="http://www.w3.org/2000/svg" xmlns:xlink="http://www.w3.org/1999/xlink">
<g id="graph0" class="graph" transform="scale(1 1) rotate(0) translate(4 188)">
<title>ds18b20.c</title>
<!-- Node1 -->
<g id="Node000001" class="node">
<title>Node1</title>
<g id="a_Node000001"><a xlink:title=" ">
<polygon fill="#999999" stroke="#666666" points="348,-184 282,-184 282,-165 348,-165 348,-184"/>
<text text-anchor="middle" x="315" y="-172" font-family="Helvetica,sans-Serif" font-size="10.00">ds18b20.c</text>
</a>
</g>
</g>
<!-- Node2 -->
<g id="Node000002" class="node">
<title>Node2</title>
<g id="a_Node000002"><a xlink:href="ds18b20_8h.html" target="_top" xlink:title="Driver for PIO Onewire DS18B20 Temperature Sensors.">
<polygon fill="white" stroke="#666666" points="131.5,-74 64.5,-74 64.5,-55 131.5,-55 131.5,-74"/>
<text text-anchor="middle" x="98" y="-62" font-family="Helvetica,sans-Serif" font-size="10.00">ds18b20.h</text>
</a>
</g>
</g>
<!-- Node1&#45;&gt;Node2 -->
<g id="edge1_Node000001_Node000002" class="edge">
<title>Node1&#45;&gt;Node2</title>
<g id="a_edge1_Node000001_Node000002"><a xlink:title=" ">
<path fill="none" stroke="#63b8ff" d="M293.41,-164.91C272.37,-156.37 239.61,-142.61 212,-129 179.85,-113.15 143.9,-92.64 121.13,-79.28"/>
<polygon fill="#63b8ff" stroke="#63b8ff" points="122.9,-76.26 112.51,-74.2 119.34,-82.29 122.9,-76.26"/>
</a>
</g>
</g>
<!-- Node6 -->
<g id="Node000006" class="node">
<title>Node6</title>
<g id="a_Node000006"><a xlink:href="onewire__library_8h.html" target="_top" xlink:title=" ">
<polygon fill="white" stroke="#666666" points="321,-129 221,-129 221,-110 321,-110 321,-129"/>
<text text-anchor="middle" x="271" y="-117" font-family="Helvetica,sans-Serif" font-size="10.00">onewire_library.h</text>
</a>
</g>
</g>
<!-- Node1&#45;&gt;Node6 -->
<g id="edge5_Node000001_Node000006" class="edge">
<title>Node1&#45;&gt;Node6</title>
<g id="a_edge5_Node000001_Node000006"><a xlink:title=" ">
<path fill="none" stroke="#63b8ff" d="M307.73,-164.75C301.46,-157.18 292.21,-146.05 284.57,-136.84"/>
<polygon fill="#63b8ff" stroke="#63b8ff" points="287.21,-134.55 278.13,-129.09 281.83,-139.02 287.21,-134.55"/>
</a>
</g>
</g>
<!-- Node9 -->
<g id="Node000009" class="node">
<title>Node9</title>
<g id="a_Node000009"><a xlink:href="log_8h.html" target="_top" xlink:title=" ">
<polygon fill="white" stroke="#666666" points="391.5,-129 350.5,-129 350.5,-110 391.5,-110 391.5,-129"/>
<text text-anchor="middle" x="371" y="-117" font-family="Helvetica,sans-Serif" font-size="10.00">log.h</text>
</a>
</g>
</g>
<!-- Node1&#45;&gt;Node9 -->
<g id="edge13_Node000001_Node000009" class="edge">
<title>Node1&#45;&gt;Node9</title>
<g id="a_edge13_Node000001_Node000009"><a xlink:title=" ">
<path fill="none" stroke="#63b8ff" d="M324,-164.98C332.19,-157.23 344.51,-145.58 354.47,-136.14"/>
<polygon fill="#63b8ff" stroke="#63b8ff" points="356.98,-138.59 361.84,-129.17 352.17,-133.5 356.98,-138.59"/>
</a>
</g>
</g>
<!-- Node13 -->
<g id="Node000013" class="node">
<title>Node13</title>
<g id="a_Node000013"><a xlink:href="stdio_8h.html" target="_top" xlink:title=" ">
<polygon fill="white" stroke="#666666" points="460,-129 410,-129 410,-110 460,-110 460,-129"/>
<text text-anchor="middle" x="435" y="-117" font-family="Helvetica,sans-Serif" font-size="10.00">stdio.h</text>
</a>
</g>
</g>
<!-- Node1&#45;&gt;Node13 -->
<g id="edge18_Node000001_Node000013" class="edge">
<title>Node1&#45;&gt;Node13</title>
<g id="a_edge18_Node000001_Node000013"><a xlink:title=" ">
<path fill="none" stroke="#63b8ff" d="M334.28,-164.98C353.67,-156.42 383.81,-143.11 406.07,-133.28"/>
<polygon fill="#63b8ff" stroke="#63b8ff" points="407.64,-136.41 415.37,-129.17 404.81,-130.01 407.64,-136.41"/>
</a>
</g>
</g>
<!-- Node3 -->
<g id="Node000003" class="node">
<title>Node3</title>
<g id="a_Node000003"><a xlink:href="stdlib_8h.html" target="_top" xlink:title=" ">
<polygon fill="white" stroke="#666666" points="198,-19 122,-19 122,0 198,0 198,-19"/>
<text text-anchor="middle" x="160" y="-7" font-family="Helvetica,sans-Serif" font-size="10.00">pico/stdlib.h</text>
</a>
</g>
</g>
<!-- Node2&#45;&gt;Node3 -->
<g id="edge2_Node000002_Node000003" class="edge">
<title>Node2&#45;&gt;Node3</title>
<g id="a_edge2_Node000002_Node000003"><a xlink:title=" ">
<path fill="none" stroke="#63b8ff" d="M107.96,-54.98C117.13,-47.15 130.94,-35.34 142.03,-25.86"/>
<polygon fill="#63b8ff" stroke="#63b8ff" points="144.53,-28.33 149.86,-19.17 139.98,-23.01 144.53,-28.33"/>
</a>
</g>
</g>
<!-- Node4 -->
<g id="Node000004" class="node">
<title>Node4</title>
<g id="a_Node000004"><a xlink:href="binary__info_8h.html" target="_top" xlink:title=" ">
<polygon fill="white" stroke="#666666" points="104,-19 0,-19 0,0 104,0 104,-19"/>
<text text-anchor="middle" x="52" y="-7" font-family="Helvetica,sans-Serif" font-size="10.00">pico/binary_info.h</text>
</a>
</g>
</g>
<!-- Node2&#45;&gt;Node4 -->
<g id="edge3_Node000002_Node000004" class="edge">
<title>Node2&#45;&gt;Node4</title>
<g id="a_edge3_Node000002_Node000004"><a xlink:title=" ">
<path fill="none" stroke="#63b8ff" d="M90.4,-54.75C83.84,-47.18 74.18,-36.05 66.19,-26.84"/>
<polygon fill="#63b8ff" stroke="#63b8ff" points="68.65,-24.35 59.45,-19.09 63.37,-28.94 68.65,-24.35"/>
</a>
</g>
</g>
<!-- Node5 -->
<g id="Node000005" class="node">
<title>Node5</title>
<g id="a_Node000005"><a xlink:title=" ">
<polygon fill="#e0e0e0" stroke="#999999" points="269.5,-19 216.5,-19 216.5,0 269.5,0 269.5,-19"/>
<text text-anchor="middle" x="243" y="-7" font-family="Helvetica,sans-Serif" font-size="10.00">stdint.h</text>
</a>
</g>
</g>
<!-- Node2&#45;&gt;Node5 -->
<g id="edge4_Node000002_Node000005" class="edge">
<title>Node2&#45;&gt;Node5</title>
<g id="a_edge4_Node000002_Node000005"><a xlink:title=" ">
<path fill="none" stroke="#63b8ff" d="M121.3,-54.98C145.25,-46.23 182.78,-32.51 209.83,-22.62"/>
<polygon fill="#63b8ff" stroke="#63b8ff" points="211.09,-25.89 219.28,-19.17 208.69,-19.32 211.09,-25.89"/>
</a>
</g>
</g>
<!-- Node6&#45;&gt;Node3 -->
<g id="edge6_Node000006_Node000003" class="edge">
<title>Node6&#45;&gt;Node3</title>
<g id="a_edge6_Node000006_Node000003"><a xlink:title=" ">
<path fill="none" stroke="#63b8ff" d="M257.36,-109.86C244.67,-101.48 225.58,-88.03 211,-74 196.1,-59.66 181.58,-40.98 171.87,-27.6"/>
<polygon fill="#63b8ff" stroke="#63b8ff" points="174.61,-25.42 165.97,-19.3 168.91,-29.48 174.61,-25.42"/>
</a>
</g>
</g>
<!-- Node6&#45;&gt;Node5 -->
<g id="edge7_Node000006_Node000005" class="edge">
<title>Node6&#45;&gt;Node5</title>
<g id="a_edge7_Node000006_Node000005"><a xlink:title=" ">
<path fill="none" stroke="#63b8ff" d="M254.11,-109.95C241.29,-102.43 224.62,-90.15 217,-74 209.65,-58.42 218.9,-40.18 228.34,-27.25"/>
<polygon fill="#63b8ff" stroke="#63b8ff" points="231.22,-29.26 234.71,-19.25 225.74,-24.9 231.22,-29.26"/>
</a>
</g>
</g>
<!-- Node7 -->
<g id="Node000007" class="node">
<title>Node7</title>
<g id="a_Node000007"><a xlink:title=" ">
<polygon fill="#e0e0e0" stroke="#999999" points="375,-19 313,-19 313,0 375,0 375,-19"/>
<text text-anchor="middle" x="344" y="-7" font-family="Helvetica,sans-Serif" font-size="10.00">stdbool.h</text>
</a>
</g>
</g>
<!-- Node6&#45;&gt;Node7 -->
<g id="edge8_Node000006_Node000007" class="edge">
<title>Node6&#45;&gt;Node7</title>
<g id="a_edge8_Node000006_Node000007"><a xlink:title=" ">
<path fill="none" stroke="#63b8ff" d="M285.11,-109.95C297.08,-102.03 313.86,-89.19 324,-74 333.03,-60.48 338.17,-42.65 340.97,-29.33"/>
<polygon fill="#63b8ff" stroke="#63b8ff" points="344.44,-29.86 342.81,-19.39 337.55,-28.59 344.44,-29.86"/>
</a>
</g>
</g>
<!-- Node8 -->
<g id="Node000008" class="node">
<title>Node8</title>
<g id="a_Node000008"><a xlink:href="pio_8h.html" target="_top" xlink:title=" ">
<polygon fill="white" stroke="#666666" points="315.5,-74 226.5,-74 226.5,-55 315.5,-55 315.5,-74"/>
<text text-anchor="middle" x="271" y="-62" font-family="Helvetica,sans-Serif" font-size="10.00">hardware/pio.h</text>
</a>
</g>
</g>
<!-- Node6&#45;&gt;Node8 -->
<g id="edge9_Node000006_Node000008" class="edge">
<title>Node6&#45;&gt;Node8</title>
<g id="a_edge9_Node000006_Node000008"><a xlink:title=" ">
<path fill="none" stroke="#63b8ff" d="M271,-109.75C271,-102.8 271,-92.85 271,-84.13"/>
<polygon fill="#63b8ff" stroke="#63b8ff" points="274.5,-84.09 271,-74.09 267.5,-84.09 274.5,-84.09"/>
</a>
</g>
</g>
<!-- Node8&#45;&gt;Node3 -->
<g id="edge12_Node000008_Node000003" class="edge">
<title>Node8&#45;&gt;Node3</title>
<g id="a_edge12_Node000008_Node000003"><a xlink:title=" ">
<path fill="none" stroke="#63b8ff" d="M253.17,-54.98C235.39,-46.5 207.85,-33.35 187.32,-23.54"/>
<polygon fill="#63b8ff" stroke="#63b8ff" points="188.69,-20.32 178.16,-19.17 185.67,-26.64 188.69,-20.32"/>
</a>
</g>
</g>
<!-- Node8&#45;&gt;Node5 -->
<g id="edge10_Node000008_Node000005" class="edge">
<title>Node8&#45;&gt;Node5</title>
<g id="a_edge10_Node000008_Node000005"><a xlink:title=" ">
<path fill="none" stroke="#63b8ff" d="M266.38,-54.75C262.54,-47.49 256.98,-36.95 252.24,-27.98"/>
<polygon fill="#63b8ff" stroke="#63b8ff" points="255.3,-26.3 247.54,-19.09 249.11,-29.57 255.3,-26.3"/>
</a>
</g>
</g>
<!-- Node8&#45;&gt;Node7 -->
<g id="edge11_Node000008_Node000007" class="edge">
<title>Node8&#45;&gt;Node7</title>
<g id="a_edge11_Node000008_Node000007"><a xlink:title=" ">
<path fill="none" stroke="#63b8ff" d="M282.73,-54.98C293.73,-47 310.42,-34.88 323.6,-25.31"/>
<polygon fill="#63b8ff" stroke="#63b8ff" points="326.02,-27.88 332.06,-19.17 321.91,-22.21 326.02,-27.88"/>
</a>
</g>
</g>
<!-- Node9&#45;&gt;Node7 -->
<g id="edge17_Node000009_Node000007" class="edge">
<title>Node9&#45;&gt;Node7</title>
<g id="a_edge17_Node000009_Node000007"><a xlink:title=" ">
<path fill="none" stroke="#63b8ff" d="M369.51,-109.81C367.34,-97.52 363.02,-74.39 358,-55 355.77,-46.38 352.87,-36.95 350.29,-29"/>
<polygon fill="#63b8ff" stroke="#63b8ff" points="353.54,-27.67 347.06,-19.29 346.89,-29.88 353.54,-27.67"/>
</a>
</g>
</g>
<!-- Node10 -->
<g id="Node000010" class="node">
<title>Node10</title>
<g id="a_Node000010"><a xlink:href="telemetry_8h.html" target="_top" xlink:title="Functions for packaging and queuing telemetry packets for sending.">
<polygon fill="white" stroke="#666666" points="482,-74 410,-74 410,-55 482,-55 482,-74"/>
<text text-anchor="middle" x="446" y="-62" font-family="Helvetica,sans-Serif" font-size="10.00">telemetry.h</text>
</a>
</g>
</g>
<!-- Node9&#45;&gt;Node10 -->
<g id="edge14_Node000009_Node000010" class="edge">
<title>Node9&#45;&gt;Node10</title>
<g id="a_edge14_Node000009_Node000010"><a xlink:title=" ">
<path fill="none" stroke="#63b8ff" d="M383.05,-109.98C394.46,-101.92 411.83,-89.65 425.43,-80.03"/>
<polygon fill="#63b8ff" stroke="#63b8ff" points="427.58,-82.8 433.73,-74.17 423.54,-77.08 427.58,-82.8"/>
</a>
</g>
</g>
<!-- Node11 -->
<g id="Node000011" class="node">
<title>Node11</title>
<g id="a_Node000011"><a xlink:title=" ">
<polygon fill="#e0e0e0" stroke="#999999" points="474,-19 402,-19 402,0 474,0 474,-19"/>
<text text-anchor="middle" x="438" y="-7" font-family="Helvetica,sans-Serif" font-size="10.00">FreeRTOS.h</text>
</a>
</g>
</g>
<!-- Node10&#45;&gt;Node11 -->
<g id="edge15_Node000010_Node000011" class="edge">
<title>Node10&#45;&gt;Node11</title>
<g id="a_edge15_Node000010_Node000011"><a xlink:title=" ">
<path fill="none" stroke="#63b8ff" d="M444.68,-54.75C443.63,-47.8 442.13,-37.85 440.81,-29.13"/>
<polygon fill="#63b8ff" stroke="#63b8ff" points="444.25,-28.45 439.3,-19.09 437.33,-29.5 444.25,-28.45"/>
</a>
</g>
</g>
<!-- Node12 -->
<g id="Node000012" class="node">
<title>Node12</title>
<g id="a_Node000012"><a xlink:title=" ">
<polygon fill="#e0e0e0" stroke="#999999" points="548,-19 492,-19 492,0 548,0 548,-19"/>
<text text-anchor="middle" x="520" y="-7" font-family="Helvetica,sans-Serif" font-size="10.00">queue.h</text>
</a>
</g>
</g>
<!-- Node10&#45;&gt;Node12 -->
<g id="edge16_Node000010_Node000012" class="edge">
<title>Node10&#45;&gt;Node12</title>
<g id="a_edge16_Node000010_Node000012"><a xlink:title=" ">
<path fill="none" stroke="#63b8ff" d="M457.89,-54.98C469.15,-46.92 486.29,-34.65 499.71,-25.03"/>
<polygon fill="#63b8ff" stroke="#63b8ff" points="501.8,-27.84 507.89,-19.17 497.73,-22.15 501.8,-27.84"/>
</a>
</g>
</g>
</g>
</svg>
