<?xml version="1.0" encoding="UTF-8" standalone="no"?>
<!DOCTYPE svg PUBLIC "-//W3C//DTD SVG 1.1//EN"
 "http://www.w3.org/Graphics/SVG/1.1/DTD/svg11.dtd">
<!-- Generated by graphviz version 2.43.0 (0)
 -->
<!-- Title: ds18b20_scan Pages: 1 -->
<svg width="218pt" height="175pt"
 viewBox="0.00 0.00 218.00 175.00" xmlns="http://www.w3.org/2000/svg" xmlns:xlink="http://www.w3.org/1999/xlink">

<svg id="main" version="1.1" xmlns="http://www.w3.org/2000/svg" xmlns:xlink="http://www.w3.org/1999/xlink" xml:space="preserve">

<style type="text/css"><![CDATA[
.node, .edge {opacity: 0.7;}
.node.selected, .edge.selected {opacity: 1;}
.edge:hover path { stroke: red; }
.edge:hover polygon { stroke: red; fill: red; }
]]></style>
<script type="application/ecmascript" xlink:href="svg.min.js"/>
<svg id="graph" class="graph">
<g id="graph0" class="graph" transform="scale(1 1) rotate(0) translate(4 171)">
<title>ds18b20_scan</title>
<!-- Node1 -->
<g id="Node000001" class="node">
<title>Node1</title>
<g id="a_Node000001"><a xlink:title="More general ds18b20 onewire test, scans for all devices on the onewire bus. The pio config selection...">
<polygon fill="#999999" stroke="#666666" points="86,-93 0,-93 0,-74 86,-74 86,-93"/>
<text text-anchor="middle" x="43" y="-81" font-family="Helvetica,sans-Serif" font-size="10.00">ds18b20_scan</text>
</a>
</g>
</g>
<!-- Node2 -->
<g id="Node000002" class="node">
<title>Node2</title>
<g id="a_Node000002"><a xlink:href="onewire__library_8h.html#a6fb6df98c0d1ce0c677876b55b12f032" target="_top" xlink:title=" ">
<polygon fill="white" stroke="#666666" points="192,-167 140,-167 140,-148 192,-148 192,-167"/>
<text text-anchor="middle" x="166" y="-155" font-family="Helvetica,sans-Serif" font-size="10.00">ow_init</text>
</a>
</g>
</g>
<!-- Node1&#45;&gt;Node2 -->
<g id="edge1_Node000001_Node000002" class="edge">
<title>Node1&#45;&gt;Node2</title>
<g id="a_edge1_Node000001_Node000002"><a xlink:title=" ">
<path fill="none" stroke="#63b8ff" d="M55.6,-93.11C70.36,-105.04 96.97,-125.51 122,-139.5 124.83,-141.08 127.82,-142.6 130.86,-144.05"/>
<polygon fill="#63b8ff" stroke="#63b8ff" points="129.43,-147.25 139.99,-148.15 132.3,-140.86 129.43,-147.25"/>
</a>
</g>
</g>
<!-- Node3 -->
<g id="Node000003" class="node">
<title>Node3</title>
<g id="a_Node000003"><a xlink:href="onewire__library_8h.html#adaf73c76a41dc4bd34ff4e4a2b17781f" target="_top" xlink:title=" ">
<polygon fill="white" stroke="#666666" points="195,-130 137,-130 137,-111 195,-111 195,-130"/>
<text text-anchor="middle" x="166" y="-118" font-family="Helvetica,sans-Serif" font-size="10.00">ow_read</text>
</a>
</g>
</g>
<!-- Node1&#45;&gt;Node3 -->
<g id="edge2_Node000001_Node000003" class="edge">
<title>Node1&#45;&gt;Node3</title>
<g id="a_edge2_Node000001_Node000003"><a xlink:title=" ">
<path fill="none" stroke="#63b8ff" d="M75.16,-93.03C90.93,-97.85 110.22,-103.75 126.87,-108.84"/>
<polygon fill="#63b8ff" stroke="#63b8ff" points="126.25,-112.31 136.84,-111.89 128.3,-105.62 126.25,-112.31"/>
</a>
</g>
</g>
<!-- Node4 -->
<g id="Node000004" class="node">
<title>Node4</title>
<g id="a_Node000004"><a xlink:href="onewire__library_8h.html#aaefd21819e57b6063ff29519a48c76f8" target="_top" xlink:title=" ">
<polygon fill="white" stroke="#666666" points="196.5,-93 135.5,-93 135.5,-74 196.5,-74 196.5,-93"/>
<text text-anchor="middle" x="166" y="-81" font-family="Helvetica,sans-Serif" font-size="10.00">ow_reset</text>
</a>
</g>
</g>
<!-- Node1&#45;&gt;Node4 -->
<g id="edge3_Node000001_Node000004" class="edge">
<title>Node1&#45;&gt;Node4</title>
<g id="a_edge3_Node000001_Node000004"><a xlink:title=" ">
<path fill="none" stroke="#63b8ff" d="M86.32,-83.5C98.99,-83.5 112.84,-83.5 125.33,-83.5"/>
<polygon fill="#63b8ff" stroke="#63b8ff" points="125.45,-87 135.45,-83.5 125.45,-80 125.45,-87"/>
</a>
</g>
</g>
<!-- Node5 -->
<g id="Node000005" class="node">
<title>Node5</title>
<g id="a_Node000005"><a xlink:href="onewire__library_8h.html#ab71d2bc77516ae5c2d098f7a93f12e19" target="_top" xlink:title=" ">
<polygon fill="white" stroke="#666666" points="210,-56 122,-56 122,-37 210,-37 210,-56"/>
<text text-anchor="middle" x="166" y="-44" font-family="Helvetica,sans-Serif" font-size="10.00">ow_romsearch</text>
</a>
</g>
</g>
<!-- Node1&#45;&gt;Node5 -->
<g id="edge4_Node000001_Node000005" class="edge">
<title>Node1&#45;&gt;Node5</title>
<g id="a_edge4_Node000001_Node000005"><a xlink:title=" ">
<path fill="none" stroke="#63b8ff" d="M75.16,-73.97C90.01,-69.43 107.96,-63.94 123.9,-59.07"/>
<polygon fill="#63b8ff" stroke="#63b8ff" points="124.99,-62.4 133.52,-56.12 122.94,-55.7 124.99,-62.4"/>
</a>
</g>
</g>
<!-- Node6 -->
<g id="Node000006" class="node">
<title>Node6</title>
<g id="a_Node000006"><a xlink:href="onewire__library_8h.html#ab92be9bb3fe3a2d3ca76272733888739" target="_top" xlink:title=" ">
<polygon fill="white" stroke="#666666" points="195.5,-19 136.5,-19 136.5,0 195.5,0 195.5,-19"/>
<text text-anchor="middle" x="166" y="-7" font-family="Helvetica,sans-Serif" font-size="10.00">ow_send</text>
</a>
</g>
</g>
<!-- Node1&#45;&gt;Node6 -->
<g id="edge5_Node000001_Node000006" class="edge">
<title>Node1&#45;&gt;Node6</title>
<g id="a_edge5_Node000001_Node000006"><a xlink:title=" ">
<path fill="none" stroke="#63b8ff" d="M55.93,-73.95C70.82,-62.31 97.34,-42.46 122,-28.5 125.08,-26.76 128.34,-25.06 131.65,-23.45"/>
<polygon fill="#63b8ff" stroke="#63b8ff" points="133.34,-26.52 140.93,-19.13 130.39,-20.17 133.34,-26.52"/>
</a>
</g>
</g>
</g>
</svg>
</svg>

<style type='text/css'>
<![CDATA[
[data-mouse-over-selected='false'] { opacity: 0.7; }
[data-mouse-over-selected='true']  { opacity: 1.0; }
]]>
</style>
<script type="application/ecmascript"><![CDATA[
document.addEventListener('DOMContentLoaded', (event) => {
  highlightEdges();
  highlightAdjacentNodes();
});
]]></script>
</svg>
