<?xml version="1.0" encoding="UTF-8" standalone="no"?>
<!DOCTYPE svg PUBLIC "-//W3C//DTD SVG 1.1//EN"
 "http://www.w3.org/Graphics/SVG/1.1/DTD/svg11.dtd">
<!-- Generated by graphviz version 2.43.0 (0)
 -->
<!-- Title: read_file Pages: 1 -->
<svg width="537pt" height="46pt"
 viewBox="0.00 0.00 537.00 46.00" xmlns="http://www.w3.org/2000/svg" xmlns:xlink="http://www.w3.org/1999/xlink">
<g id="graph0" class="graph" transform="scale(1 1) rotate(0) translate(4 42)">
<title>read_file</title>
<!-- Node1 -->
<g id="Node000001" class="node">
<title>Node1</title>
<g id="a_Node000001"><a xlink:title=" ">
<polygon fill="#999999" stroke="#666666" points="59,-19 0,-19 0,0 59,0 59,-19"/>
<text text-anchor="middle" x="29.5" y="-7" font-family="Helvetica,sans-Serif" font-size="10.00">read_file</text>
</a>
</g>
</g>
<!-- Node2 -->
<g id="Node000002" class="node">
<title>Node2</title>
<g id="a_Node000002"><a xlink:href="filesystem_8c.html#ae0599d66eddc7fdf656fca874aa5f1d1" target="_top" xlink:title=" ">
<polygon fill="white" stroke="#666666" points="188,-19 95,-19 95,0 188,0 188,-19"/>
<text text-anchor="middle" x="141.5" y="-7" font-family="Helvetica,sans-Serif" font-size="10.00">read_file_offset</text>
</a>
</g>
</g>
<!-- Node1&#45;&gt;Node2 -->
<g id="edge1_Node000001_Node000002" class="edge">
<title>Node1&#45;&gt;Node2</title>
<g id="a_edge1_Node000001_Node000002"><a xlink:title=" ">
<path fill="none" stroke="#63b8ff" d="M59.11,-9.5C67.07,-9.5 75.99,-9.5 84.93,-9.5"/>
<polygon fill="#63b8ff" stroke="#63b8ff" points="84.98,-13 94.98,-9.5 84.98,-6 84.98,-13"/>
</a>
</g>
</g>
<!-- Node3 -->
<g id="Node000003" class="node">
<title>Node3</title>
<g id="a_Node000003"><a xlink:href="filesystem_8c.html#a07610d3a6787ca02aa3d340759bcb8c9" target="_top" xlink:title=" ">
<polygon fill="white" stroke="#666666" points="291,-38 224,-38 224,-19 291,-19 291,-38"/>
<text text-anchor="middle" x="257.5" y="-26" font-family="Helvetica,sans-Serif" font-size="10.00">file_exists</text>
</a>
</g>
</g>
<!-- Node2&#45;&gt;Node3 -->
<g id="edge2_Node000002_Node000003" class="edge">
<title>Node2&#45;&gt;Node3</title>
<g id="a_edge2_Node000002_Node000003"><a xlink:title=" ">
<path fill="none" stroke="#63b8ff" d="M188.21,-17.12C196.67,-18.53 205.47,-19.99 213.83,-21.39"/>
<polygon fill="#63b8ff" stroke="#63b8ff" points="213.32,-24.85 223.76,-23.04 214.47,-17.95 213.32,-24.85"/>
</a>
</g>
</g>
<!-- Node5 -->
<g id="Node000005" class="node">
<title>Node5</title>
<g id="a_Node000005"><a xlink:href="utilities_2src_2log_8c.html#a4b048be24c6c7f622a6bc6c6bf8ac435" target="_top" xlink:title=" ">
<polygon fill="white" stroke="#666666" points="529,-19 398,-19 398,0 529,0 529,-19"/>
<text text-anchor="middle" x="463.5" y="-7" font-family="Helvetica,sans-Serif" font-size="10.00">get_current_task_name</text>
</a>
</g>
</g>
<!-- Node2&#45;&gt;Node5 -->
<g id="edge5_Node000002_Node000005" class="edge">
<title>Node2&#45;&gt;Node5</title>
<g id="a_edge5_Node000002_Node000005"><a xlink:title=" ">
<path fill="none" stroke="#63b8ff" d="M188.01,-9.5C239.99,-9.5 325.82,-9.5 387.67,-9.5"/>
<polygon fill="#63b8ff" stroke="#63b8ff" points="387.77,-13 397.77,-9.5 387.77,-6 387.77,-13"/>
</a>
</g>
</g>
<!-- Node4 -->
<g id="Node000004" class="node">
<title>Node4</title>
<g id="a_Node000004"><a xlink:href="filesystem_8c.html#aa109ff29a72d1beadda58bb3a54185b6" target="_top" xlink:title=" ">
<polygon fill="white" stroke="#666666" points="362,-38 327,-38 327,-19 362,-19 362,-38"/>
<text text-anchor="middle" x="344.5" y="-26" font-family="Helvetica,sans-Serif" font-size="10.00">stat</text>
</a>
</g>
</g>
<!-- Node3&#45;&gt;Node4 -->
<g id="edge3_Node000003_Node000004" class="edge">
<title>Node3&#45;&gt;Node4</title>
<g id="a_edge3_Node000003_Node000004"><a xlink:title=" ">
<path fill="none" stroke="#63b8ff" d="M291.12,-28.5C299.58,-28.5 308.6,-28.5 316.73,-28.5"/>
<polygon fill="#63b8ff" stroke="#63b8ff" points="316.77,-32 326.77,-28.5 316.77,-25 316.77,-32"/>
</a>
</g>
</g>
<!-- Node4&#45;&gt;Node5 -->
<g id="edge4_Node000004_Node000005" class="edge">
<title>Node4&#45;&gt;Node5</title>
<g id="a_edge4_Node000004_Node000005"><a xlink:title=" ">
<path fill="none" stroke="#63b8ff" d="M362.02,-25.82C370.68,-24.41 381.93,-22.58 393.77,-20.66"/>
<polygon fill="#63b8ff" stroke="#63b8ff" points="394.49,-24.09 403.8,-19.03 393.36,-17.18 394.49,-24.09"/>
</a>
</g>
</g>
</g>
</svg>
