<?xml version="1.0" encoding="UTF-8" standalone="no"?>
<!DOCTYPE svg PUBLIC "-//W3C//DTD SVG 1.1//EN"
 "http://www.w3.org/Graphics/SVG/1.1/DTD/svg11.dtd">
<!-- Generated by graphviz version 2.43.0 (0)
 -->
<!-- Title: filesystem_task Pages: 1 -->
<svg width="449pt" height="360pt"
 viewBox="0.00 0.00 449.00 360.00" xmlns="http://www.w3.org/2000/svg" xmlns:xlink="http://www.w3.org/1999/xlink">

<svg id="main" version="1.1" xmlns="http://www.w3.org/2000/svg" xmlns:xlink="http://www.w3.org/1999/xlink" xml:space="preserve">

<style type="text/css"><![CDATA[
.node, .edge {opacity: 0.7;}
.node.selected, .edge.selected {opacity: 1;}
.edge:hover path { stroke: red; }
.edge:hover polygon { stroke: red; fill: red; }
]]></style>
<script type="application/ecmascript" xlink:href="svg.min.js"/>
<svg id="graph" class="graph">
<g id="graph0" class="graph" transform="scale(1 1) rotate(0) translate(4 356)">
<title>filesystem_task</title>
<!-- Node1 -->
<g id="Node000001" class="node">
<title>Node1</title>
<g id="a_Node000001"><a xlink:title=" ">
<polygon fill="#999999" stroke="#666666" points="94,-185 0,-185 0,-166 94,-166 94,-185"/>
<text text-anchor="middle" x="47" y="-173" font-family="Helvetica,sans-Serif" font-size="10.00">filesystem_task</text>
</a>
</g>
</g>
<!-- Node2 -->
<g id="Node000002" class="node">
<title>Node2</title>
<g id="a_Node000002"><a xlink:href="filesystem_8c.html#a65a8bfbf26326e7b6dfd677f9b4ad626" target="_top" xlink:title=" ">
<polygon fill="white" stroke="#666666" points="208,-352 152,-352 152,-333 208,-333 208,-352"/>
<text text-anchor="middle" x="180" y="-340" font-family="Helvetica,sans-Serif" font-size="10.00">_fdelete</text>
</a>
</g>
</g>
<!-- Node1&#45;&gt;Node2 -->
<g id="edge1_Node000001_Node000002" class="edge">
<title>Node1&#45;&gt;Node2</title>
<g id="a_edge1_Node000001_Node000002"><a xlink:title=" ">
<path fill="none" stroke="#63b8ff" d="M50.65,-185.03C58.4,-211.13 83.42,-284.47 130,-324.5 133.71,-327.69 138.04,-330.34 142.56,-332.53"/>
<polygon fill="#63b8ff" stroke="#63b8ff" points="141.39,-335.83 151.97,-336.4 144.06,-329.36 141.39,-335.83"/>
</a>
</g>
</g>
<!-- Node5 -->
<g id="Node000005" class="node">
<title>Node5</title>
<g id="a_Node000005"><a xlink:href="filesystem_8c.html#a1dbe64362d5ac8a72c84181d6ec09bd0" target="_top" xlink:title=" ">
<polygon fill="white" stroke="#666666" points="211,-315 149,-315 149,-296 211,-296 211,-315"/>
<text text-anchor="middle" x="180" y="-303" font-family="Helvetica,sans-Serif" font-size="10.00">_fdiropen</text>
</a>
</g>
</g>
<!-- Node1&#45;&gt;Node5 -->
<g id="edge4_Node000001_Node000005" class="edge">
<title>Node1&#45;&gt;Node5</title>
<g id="a_edge4_Node000001_Node000005"><a xlink:title=" ">
<path fill="none" stroke="#63b8ff" d="M52.53,-185.07C63.11,-206.46 91.5,-258.51 130,-287.5 132.96,-289.73 136.23,-291.71 139.63,-293.45"/>
<polygon fill="#63b8ff" stroke="#63b8ff" points="138.25,-296.67 148.81,-297.56 141.11,-290.28 138.25,-296.67"/>
</a>
</g>
</g>
<!-- Node6 -->
<g id="Node000006" class="node">
<title>Node6</title>
<g id="a_Node000006"><a xlink:href="filesystem_8c.html#a6256d8a7a46cd729effd6739faded687" target="_top" xlink:title=" ">
<polygon fill="white" stroke="#666666" points="210,-278 150,-278 150,-259 210,-259 210,-278"/>
<text text-anchor="middle" x="180" y="-266" font-family="Helvetica,sans-Serif" font-size="10.00">_fdirread</text>
</a>
</g>
</g>
<!-- Node1&#45;&gt;Node6 -->
<g id="edge5_Node000001_Node000006" class="edge">
<title>Node1&#45;&gt;Node6</title>
<g id="a_edge5_Node000001_Node000006"><a xlink:title=" ">
<path fill="none" stroke="#63b8ff" d="M56.16,-185.07C69.95,-200.71 99.34,-231.85 130,-250.5 133.35,-252.53 136.96,-254.4 140.65,-256.08"/>
<polygon fill="#63b8ff" stroke="#63b8ff" points="139.31,-259.32 149.89,-259.92 142,-252.85 139.31,-259.32"/>
</a>
</g>
</g>
<!-- Node7 -->
<g id="Node000007" class="node">
<title>Node7</title>
<g id="a_Node000007"><a xlink:href="filesystem_8c.html#a242db63f134c45189c12dc9e46c6b90d" target="_top" xlink:title=" ">
<polygon fill="white" stroke="#666666" points="200,-241 160,-241 160,-222 200,-222 200,-241"/>
<text text-anchor="middle" x="180" y="-229" font-family="Helvetica,sans-Serif" font-size="10.00">_flist</text>
</a>
</g>
</g>
<!-- Node1&#45;&gt;Node7 -->
<g id="edge6_Node000001_Node000007" class="edge">
<title>Node1&#45;&gt;Node7</title>
<g id="a_edge6_Node000001_Node000007"><a xlink:title=" ">
<path fill="none" stroke="#63b8ff" d="M67.35,-185.01C83.84,-192.99 108.26,-204.49 130,-213.5 136.52,-216.2 143.62,-218.93 150.33,-221.42"/>
<polygon fill="#63b8ff" stroke="#63b8ff" points="149.18,-224.72 159.78,-224.85 151.58,-218.14 149.18,-224.72"/>
</a>
</g>
</g>
<!-- Node8 -->
<g id="Node000008" class="node">
<title>Node8</title>
<g id="a_Node000008"><a xlink:href="filesystem_8c.html#a0332aeda2c19ddb31aa4307d37007f98" target="_top" xlink:title=" ">
<polygon fill="white" stroke="#666666" points="207,-204 153,-204 153,-185 207,-185 207,-204"/>
<text text-anchor="middle" x="180" y="-192" font-family="Helvetica,sans-Serif" font-size="10.00">_fmkdir</text>
</a>
</g>
</g>
<!-- Node1&#45;&gt;Node8 -->
<g id="edge8_Node000001_Node000008" class="edge">
<title>Node1&#45;&gt;Node8</title>
<g id="a_edge8_Node000001_Node000008"><a xlink:title=" ">
<path fill="none" stroke="#63b8ff" d="M94.19,-182.2C110.11,-184.51 127.7,-187.06 142.71,-189.24"/>
<polygon fill="#63b8ff" stroke="#63b8ff" points="142.25,-192.71 152.65,-190.68 143.25,-185.78 142.25,-192.71"/>
</a>
</g>
</g>
<!-- Node9 -->
<g id="Node000009" class="node">
<title>Node9</title>
<g id="a_Node000009"><a xlink:href="filesystem_8c.html#a7cea9cb52704704e58a15402d699fe6b" target="_top" xlink:title=" ">
<polygon fill="white" stroke="#666666" points="203.5,-167 156.5,-167 156.5,-148 203.5,-148 203.5,-167"/>
<text text-anchor="middle" x="180" y="-155" font-family="Helvetica,sans-Serif" font-size="10.00">_fread</text>
</a>
</g>
</g>
<!-- Node1&#45;&gt;Node9 -->
<g id="edge10_Node000001_Node000009" class="edge">
<title>Node1&#45;&gt;Node9</title>
<g id="a_edge10_Node000001_Node000009"><a xlink:title=" ">
<path fill="none" stroke="#63b8ff" d="M94.19,-169.15C111.3,-166.8 130.35,-164.18 146.06,-162.03"/>
<polygon fill="#63b8ff" stroke="#63b8ff" points="146.9,-165.44 156.33,-160.62 145.94,-158.51 146.9,-165.44"/>
</a>
</g>
</g>
<!-- Node10 -->
<g id="Node000010" class="node">
<title>Node10</title>
<g id="a_Node000010"><a xlink:href="filesystem_8c.html#a84409cd08ad5f1532a9908bcb106ffd9" target="_top" xlink:title=" ">
<polygon fill="white" stroke="#666666" points="202,-130 158,-130 158,-111 202,-111 202,-130"/>
<text text-anchor="middle" x="180" y="-118" font-family="Helvetica,sans-Serif" font-size="10.00">_fstat</text>
</a>
</g>
</g>
<!-- Node1&#45;&gt;Node10 -->
<g id="edge11_Node000001_Node000010" class="edge">
<title>Node1&#45;&gt;Node10</title>
<g id="a_edge11_Node000001_Node000010"><a xlink:title=" ">
<path fill="none" stroke="#63b8ff" d="M69.13,-165.92C85.62,-158.51 109.16,-148.11 130,-139.5 135.98,-137.03 142.4,-134.47 148.56,-132.06"/>
<polygon fill="#63b8ff" stroke="#63b8ff" points="149.87,-135.31 157.94,-128.44 147.35,-128.78 149.87,-135.31"/>
</a>
</g>
</g>
<!-- Node11 -->
<g id="Node000011" class="node">
<title>Node11</title>
<g id="a_Node000011"><a xlink:href="filesystem_8c.html#a20490ef1d54401f12085f7a9bfbb2c13" target="_top" xlink:title=" ">
<polygon fill="white" stroke="#666666" points="205,-93 155,-93 155,-74 205,-74 205,-93"/>
<text text-anchor="middle" x="180" y="-81" font-family="Helvetica,sans-Serif" font-size="10.00">_fwrite</text>
</a>
</g>
</g>
<!-- Node1&#45;&gt;Node11 -->
<g id="edge12_Node000001_Node000011" class="edge">
<title>Node1&#45;&gt;Node11</title>
<g id="a_edge12_Node000001_Node000011"><a xlink:title=" ">
<path fill="none" stroke="#63b8ff" d="M56.71,-165.77C70.81,-150.5 100.08,-120.79 130,-102.5 134.77,-99.59 140.06,-96.98 145.35,-94.7"/>
<polygon fill="#63b8ff" stroke="#63b8ff" points="146.77,-97.9 154.76,-90.95 144.18,-91.4 146.77,-97.9"/>
</a>
</g>
</g>
<!-- Node12 -->
<g id="Node000012" class="node">
<title>Node12</title>
<g id="a_Node000012"><a xlink:href="filesystem_8c.html#a7ea79e37cd85f3400dd530c48032329e" target="_top" xlink:title=" ">
<polygon fill="white" stroke="#666666" points="203.5,-56 156.5,-56 156.5,-37 203.5,-37 203.5,-56"/>
<text text-anchor="middle" x="180" y="-44" font-family="Helvetica,sans-Serif" font-size="10.00">_mkfs</text>
</a>
</g>
</g>
<!-- Node1&#45;&gt;Node12 -->
<g id="edge13_Node000001_Node000012" class="edge">
<title>Node1&#45;&gt;Node12</title>
<g id="a_edge13_Node000001_Node000012"><a xlink:title=" ">
<path fill="none" stroke="#63b8ff" d="M52.77,-165.84C63.65,-144.74 92.27,-94.19 130,-65.5 134.93,-61.75 140.7,-58.65 146.5,-56.13"/>
<polygon fill="#63b8ff" stroke="#63b8ff" points="148.1,-59.26 156.18,-52.4 145.59,-52.73 148.1,-59.26"/>
</a>
</g>
</g>
<!-- Node13 -->
<g id="Node000013" class="node">
<title>Node13</title>
<g id="a_Node000013"><a xlink:href="watchdog_8c.html#acebf79aaf42978286eec0c3e016d7b0a" target="_top" xlink:title="Task that controls the resetting of the hardware watchdog &#45; MAX706RESA &#45; this module needs to be rese...">
<polygon fill="white" stroke="#666666" points="230,-19 130,-19 130,0 230,0 230,-19"/>
<text text-anchor="middle" x="180" y="-7" font-family="Helvetica,sans-Serif" font-size="10.00">watchdog_freeze</text>
</a>
</g>
</g>
<!-- Node1&#45;&gt;Node13 -->
<g id="edge15_Node000001_Node000013" class="edge">
<title>Node1&#45;&gt;Node13</title>
<g id="a_edge15_Node000001_Node000013"><a xlink:title=" ">
<path fill="none" stroke="#63b8ff" d="M50.85,-165.77C58.92,-139.81 84.36,-68.2 130,-28.5 131.93,-26.82 134.02,-25.29 136.22,-23.88"/>
<polygon fill="#63b8ff" stroke="#63b8ff" points="137.97,-26.91 145.09,-19.06 134.63,-20.76 137.97,-26.91"/>
</a>
</g>
</g>
<!-- Node3 -->
<g id="Node000003" class="node">
<title>Node3</title>
<g id="a_Node000003"><a xlink:href="filesystem_8c.html#a927cf61c34acf12c6d2e91abb0894b0b" target="_top" xlink:title=" ">
<polygon fill="white" stroke="#666666" points="312,-222 266,-222 266,-203 312,-203 312,-222"/>
<text text-anchor="middle" x="289" y="-210" font-family="Helvetica,sans-Serif" font-size="10.00">fs_log</text>
</a>
</g>
</g>
<!-- Node2&#45;&gt;Node3 -->
<g id="edge2_Node000002_Node000003" class="edge">
<title>Node2&#45;&gt;Node3</title>
<g id="a_edge2_Node000002_Node000003"><a xlink:title=" ">
<path fill="none" stroke="#63b8ff" d="M208.12,-336.5C215.83,-333.8 223.81,-329.95 230,-324.5 258.62,-299.27 275.15,-256.51 282.79,-231.76"/>
<polygon fill="#63b8ff" stroke="#63b8ff" points="286.17,-232.66 285.6,-222.08 279.45,-230.7 286.17,-232.66"/>
</a>
</g>
</g>
<!-- Node4 -->
<g id="Node000004" class="node">
<title>Node4</title>
<g id="a_Node000004"><a xlink:href="telemetry_8c.html#a6dbf6c6cfd75451e5642ca0b64bf7f5a" target="_top" xlink:title=" ">
<polygon fill="white" stroke="#666666" points="441,-222 348,-222 348,-203 441,-203 441,-222"/>
<text text-anchor="middle" x="394.5" y="-210" font-family="Helvetica,sans-Serif" font-size="10.00">send_telemetry</text>
</a>
</g>
</g>
<!-- Node3&#45;&gt;Node4 -->
<g id="edge3_Node000003_Node000004" class="edge">
<title>Node3&#45;&gt;Node4</title>
<g id="a_edge3_Node000003_Node000004"><a xlink:title=" ">
<path fill="none" stroke="#63b8ff" d="M312.2,-212.5C319.8,-212.5 328.67,-212.5 337.71,-212.5"/>
<polygon fill="#63b8ff" stroke="#63b8ff" points="337.92,-216 347.92,-212.5 337.92,-209 337.92,-216"/>
</a>
</g>
</g>
<!-- Node7&#45;&gt;Node3 -->
<g id="edge7_Node000007_Node000003" class="edge">
<title>Node7&#45;&gt;Node3</title>
<g id="a_edge7_Node000007_Node000003"><a xlink:title=" ">
<path fill="none" stroke="#63b8ff" d="M200.13,-228.1C215.58,-225.36 237.66,-221.44 255.82,-218.21"/>
<polygon fill="#63b8ff" stroke="#63b8ff" points="256.47,-221.65 265.71,-216.46 255.25,-214.76 256.47,-221.65"/>
</a>
</g>
</g>
<!-- Node8&#45;&gt;Node3 -->
<g id="edge9_Node000008_Node000003" class="edge">
<title>Node8&#45;&gt;Node3</title>
<g id="a_edge9_Node000008_Node000003"><a xlink:title=" ">
<path fill="none" stroke="#63b8ff" d="M207.18,-198.9C221.75,-201.36 240.03,-204.43 255.52,-207.04"/>
<polygon fill="#63b8ff" stroke="#63b8ff" points="255.27,-210.54 265.71,-208.75 256.43,-203.64 255.27,-210.54"/>
</a>
</g>
</g>
<!-- Node12&#45;&gt;Node3 -->
<g id="edge14_Node000012_Node000003" class="edge">
<title>Node12&#45;&gt;Node3</title>
<g id="a_edge14_Node000012_Node000003"><a xlink:title=" ">
<path fill="none" stroke="#63b8ff" d="M203.69,-51.09C212.83,-53.92 222.88,-58.42 230,-65.5 265.87,-101.16 280.16,-161.7 285.34,-192.78"/>
<polygon fill="#63b8ff" stroke="#63b8ff" points="281.9,-193.44 286.87,-202.81 288.82,-192.39 281.9,-193.44"/>
</a>
</g>
</g>
</g>
</svg>
</svg>

<style type='text/css'>
<![CDATA[
[data-mouse-over-selected='false'] { opacity: 0.7; }
[data-mouse-over-selected='true']  { opacity: 1.0; }
]]>
</style>
<script type="application/ecmascript"><![CDATA[
document.addEventListener('DOMContentLoaded', (event) => {
  highlightEdges();
  highlightAdjacentNodes();
});
]]></script>
</svg>
