<?xml version="1.0" encoding="UTF-8" standalone="no"?>
<!DOCTYPE svg PUBLIC "-//W3C//DTD SVG 1.1//EN"
 "http://www.w3.org/Graphics/SVG/1.1/DTD/svg11.dtd">
<!-- Generated by graphviz version 2.43.0 (0)
 -->
<!-- Title: filesystem.c Pages: 1 -->
<svg width="578pt" height="192pt"
 viewBox="0.00 0.00 578.00 192.00" xmlns="http://www.w3.org/2000/svg" xmlns:xlink="http://www.w3.org/1999/xlink">
<g id="graph0" class="graph" transform="scale(1 1) rotate(0) translate(4 188)">
<title>filesystem.c</title>
<!-- Node1 -->
<g id="Node000001" class="node">
<title>Node1</title>
<g id="a_Node000001"><a xlink:title=" ">
<polygon fill="#999999" stroke="#666666" points="304,-184 228,-184 228,-165 304,-165 304,-184"/>
<text text-anchor="middle" x="266" y="-172" font-family="Helvetica,sans-Serif" font-size="10.00">filesystem.c</text>
</a>
</g>
</g>
<!-- Node2 -->
<g id="Node000002" class="node">
<title>Node2</title>
<g id="a_Node000002"><a xlink:title=" ">
<polygon fill="#e0e0e0" stroke="#999999" points="209.5,-129 156.5,-129 156.5,-110 209.5,-110 209.5,-129"/>
<text text-anchor="middle" x="183" y="-117" font-family="Helvetica,sans-Serif" font-size="10.00">string.h</text>
</a>
</g>
</g>
<!-- Node1&#45;&gt;Node2 -->
<g id="edge1_Node000001_Node000002" class="edge">
<title>Node1&#45;&gt;Node2</title>
<g id="a_edge1_Node000001_Node000002"><a xlink:title=" ">
<path fill="none" stroke="#63b8ff" d="M252.66,-164.98C239.91,-156.84 220.45,-144.41 205.33,-134.76"/>
<polygon fill="#63b8ff" stroke="#63b8ff" points="206.89,-131.6 196.58,-129.17 203.12,-137.5 206.89,-131.6"/>
</a>
</g>
</g>
<!-- Node3 -->
<g id="Node000003" class="node">
<title>Node3</title>
<g id="a_Node000003"><a xlink:href="log_8h.html" target="_top" xlink:title=" ">
<polygon fill="white" stroke="#666666" points="469.5,-129 428.5,-129 428.5,-110 469.5,-110 469.5,-129"/>
<text text-anchor="middle" x="449" y="-117" font-family="Helvetica,sans-Serif" font-size="10.00">log.h</text>
</a>
</g>
</g>
<!-- Node1&#45;&gt;Node3 -->
<g id="edge2_Node000001_Node000003" class="edge">
<title>Node1&#45;&gt;Node3</title>
<g id="a_edge2_Node000001_Node000003"><a xlink:title=" ">
<path fill="none" stroke="#63b8ff" d="M295.4,-164.98C329.19,-155.2 384.36,-139.22 418.58,-129.31"/>
<polygon fill="#63b8ff" stroke="#63b8ff" points="419.84,-132.59 428.47,-126.45 417.89,-125.87 419.84,-132.59"/>
</a>
</g>
</g>
<!-- Node8 -->
<g id="Node000008" class="node">
<title>Node8</title>
<g id="a_Node000008"><a xlink:href="filesystem_8h.html" target="_top" xlink:title="Handles file system operations and management.">
<polygon fill="white" stroke="#666666" points="304.5,-129 227.5,-129 227.5,-110 304.5,-110 304.5,-129"/>
<text text-anchor="middle" x="266" y="-117" font-family="Helvetica,sans-Serif" font-size="10.00">filesystem.h</text>
</a>
</g>
</g>
<!-- Node1&#45;&gt;Node8 -->
<g id="edge7_Node000001_Node000008" class="edge">
<title>Node1&#45;&gt;Node8</title>
<g id="a_edge7_Node000001_Node000008"><a xlink:title=" ">
<path fill="none" stroke="#63b8ff" d="M266,-164.75C266,-157.8 266,-147.85 266,-139.13"/>
<polygon fill="#63b8ff" stroke="#63b8ff" points="269.5,-139.09 266,-129.09 262.5,-139.09 269.5,-139.09"/>
</a>
</g>
</g>
<!-- Node4 -->
<g id="Node000004" class="node">
<title>Node4</title>
<g id="a_Node000004"><a xlink:href="telemetry_8h.html" target="_top" xlink:title="Functions for packaging and queuing telemetry packets for sending.">
<polygon fill="white" stroke="#666666" points="570,-74 498,-74 498,-55 570,-55 570,-74"/>
<text text-anchor="middle" x="534" y="-62" font-family="Helvetica,sans-Serif" font-size="10.00">telemetry.h</text>
</a>
</g>
</g>
<!-- Node3&#45;&gt;Node4 -->
<g id="edge3_Node000003_Node000004" class="edge">
<title>Node3&#45;&gt;Node4</title>
<g id="a_edge3_Node000003_Node000004"><a xlink:title=" ">
<path fill="none" stroke="#63b8ff" d="M462.66,-109.98C475.84,-101.77 496.03,-89.18 511.57,-79.49"/>
<polygon fill="#63b8ff" stroke="#63b8ff" points="513.46,-82.43 520.09,-74.17 509.76,-76.49 513.46,-82.43"/>
</a>
</g>
</g>
<!-- Node7 -->
<g id="Node000007" class="node">
<title>Node7</title>
<g id="a_Node000007"><a xlink:title=" ">
<polygon fill="#e0e0e0" stroke="#999999" points="480,-74 418,-74 418,-55 480,-55 480,-74"/>
<text text-anchor="middle" x="449" y="-62" font-family="Helvetica,sans-Serif" font-size="10.00">stdbool.h</text>
</a>
</g>
</g>
<!-- Node3&#45;&gt;Node7 -->
<g id="edge6_Node000003_Node000007" class="edge">
<title>Node3&#45;&gt;Node7</title>
<g id="a_edge6_Node000003_Node000007"><a xlink:title=" ">
<path fill="none" stroke="#63b8ff" d="M449,-109.75C449,-102.8 449,-92.85 449,-84.13"/>
<polygon fill="#63b8ff" stroke="#63b8ff" points="452.5,-84.09 449,-74.09 445.5,-84.09 452.5,-84.09"/>
</a>
</g>
</g>
<!-- Node5 -->
<g id="Node000005" class="node">
<title>Node5</title>
<g id="a_Node000005"><a xlink:title=" ">
<polygon fill="#e0e0e0" stroke="#999999" points="498,-19 426,-19 426,0 498,0 498,-19"/>
<text text-anchor="middle" x="462" y="-7" font-family="Helvetica,sans-Serif" font-size="10.00">FreeRTOS.h</text>
</a>
</g>
</g>
<!-- Node4&#45;&gt;Node5 -->
<g id="edge4_Node000004_Node000005" class="edge">
<title>Node4&#45;&gt;Node5</title>
<g id="a_edge4_Node000004_Node000005"><a xlink:title=" ">
<path fill="none" stroke="#63b8ff" d="M522.43,-54.98C511.58,-47 495.12,-34.88 482.12,-25.31"/>
<polygon fill="#63b8ff" stroke="#63b8ff" points="483.91,-22.28 473.78,-19.17 479.76,-27.92 483.91,-22.28"/>
</a>
</g>
</g>
<!-- Node6 -->
<g id="Node000006" class="node">
<title>Node6</title>
<g id="a_Node000006"><a xlink:title=" ">
<polygon fill="#e0e0e0" stroke="#999999" points="332,-19 276,-19 276,0 332,0 332,-19"/>
<text text-anchor="middle" x="304" y="-7" font-family="Helvetica,sans-Serif" font-size="10.00">queue.h</text>
</a>
</g>
</g>
<!-- Node4&#45;&gt;Node6 -->
<g id="edge5_Node000004_Node000006" class="edge">
<title>Node4&#45;&gt;Node6</title>
<g id="a_edge5_Node000004_Node000006"><a xlink:title=" ">
<path fill="none" stroke="#63b8ff" d="M497.81,-55.16C455.3,-45.36 385.1,-29.19 341.87,-19.23"/>
<polygon fill="#63b8ff" stroke="#63b8ff" points="342.55,-15.79 332.02,-16.96 340.98,-22.61 342.55,-15.79"/>
</a>
</g>
</g>
<!-- Node8&#45;&gt;Node5 -->
<g id="edge8_Node000008_Node000005" class="edge">
<title>Node8&#45;&gt;Node5</title>
<g id="a_edge8_Node000008_Node000005"><a xlink:title=" ">
<path fill="none" stroke="#63b8ff" d="M290.02,-109.96C311.74,-101.86 344.32,-88.75 371,-74 397.37,-59.42 425.49,-38.95 443.37,-25.23"/>
<polygon fill="#63b8ff" stroke="#63b8ff" points="445.52,-27.99 451.28,-19.1 441.23,-22.46 445.52,-27.99"/>
</a>
</g>
</g>
<!-- Node8&#45;&gt;Node6 -->
<g id="edge9_Node000008_Node000006" class="edge">
<title>Node8&#45;&gt;Node6</title>
<g id="a_edge9_Node000008_Node000006"><a xlink:title=" ">
<path fill="none" stroke="#63b8ff" d="M233.33,-109.97C200.65,-99.78 157.66,-80.79 176,-55 196.18,-26.61 235.83,-16.18 265.68,-12.42"/>
<polygon fill="#63b8ff" stroke="#63b8ff" points="266.2,-15.89 275.78,-11.35 265.47,-8.93 266.2,-15.89"/>
</a>
</g>
</g>
<!-- Node8&#45;&gt;Node7 -->
<g id="edge15_Node000008_Node000007" class="edge">
<title>Node8&#45;&gt;Node7</title>
<g id="a_edge15_Node000008_Node000007"><a xlink:title=" ">
<path fill="none" stroke="#63b8ff" d="M295.4,-109.98C326.39,-101.01 375.38,-86.82 409.67,-76.89"/>
<polygon fill="#63b8ff" stroke="#63b8ff" points="410.74,-80.23 419.37,-74.08 408.79,-73.5 410.74,-80.23"/>
</a>
</g>
</g>
<!-- Node9 -->
<g id="Node000009" class="node">
<title>Node9</title>
<g id="a_Node000009"><a xlink:title=" ">
<polygon fill="#e0e0e0" stroke="#999999" points="231.5,-74 184.5,-74 184.5,-55 231.5,-55 231.5,-74"/>
<text text-anchor="middle" x="208" y="-62" font-family="Helvetica,sans-Serif" font-size="10.00">task.h</text>
</a>
</g>
</g>
<!-- Node8&#45;&gt;Node9 -->
<g id="edge10_Node000008_Node000009" class="edge">
<title>Node8&#45;&gt;Node9</title>
<g id="a_edge10_Node000008_Node000009"><a xlink:title=" ">
<path fill="none" stroke="#63b8ff" d="M256.68,-109.98C248.19,-102.23 235.44,-90.58 225.12,-81.14"/>
<polygon fill="#63b8ff" stroke="#63b8ff" points="227.23,-78.33 217.49,-74.17 222.51,-83.5 227.23,-78.33"/>
</a>
</g>
</g>
<!-- Node10 -->
<g id="Node000010" class="node">
<title>Node10</title>
<g id="a_Node000010"><a xlink:title=" ">
<polygon fill="#e0e0e0" stroke="#999999" points="282,-74 250,-74 250,-55 282,-55 282,-74"/>
<text text-anchor="middle" x="266" y="-62" font-family="Helvetica,sans-Serif" font-size="10.00">ff.h</text>
</a>
</g>
</g>
<!-- Node8&#45;&gt;Node10 -->
<g id="edge11_Node000008_Node000010" class="edge">
<title>Node8&#45;&gt;Node10</title>
<g id="a_edge11_Node000008_Node000010"><a xlink:title=" ">
<path fill="none" stroke="#63b8ff" d="M266,-109.75C266,-102.8 266,-92.85 266,-84.13"/>
<polygon fill="#63b8ff" stroke="#63b8ff" points="269.5,-84.09 266,-74.09 262.5,-84.09 269.5,-84.09"/>
</a>
</g>
</g>
<!-- Node11 -->
<g id="Node000011" class="node">
<title>Node11</title>
<g id="a_Node000011"><a xlink:title=" ">
<polygon fill="#e0e0e0" stroke="#999999" points="362,-74 300,-74 300,-55 362,-55 362,-74"/>
<text text-anchor="middle" x="331" y="-62" font-family="Helvetica,sans-Serif" font-size="10.00">semphr.h</text>
</a>
</g>
</g>
<!-- Node8&#45;&gt;Node11 -->
<g id="edge12_Node000008_Node000011" class="edge">
<title>Node8&#45;&gt;Node11</title>
<g id="a_edge12_Node000008_Node000011"><a xlink:title=" ">
<path fill="none" stroke="#63b8ff" d="M276.44,-109.98C286.15,-102.07 300.82,-90.11 312.5,-80.58"/>
<polygon fill="#63b8ff" stroke="#63b8ff" points="314.83,-83.2 320.37,-74.17 310.4,-77.78 314.83,-83.2"/>
</a>
</g>
</g>
<!-- Node12 -->
<g id="Node000012" class="node">
<title>Node12</title>
<g id="a_Node000012"><a xlink:title=" ">
<polygon fill="#e0e0e0" stroke="#999999" points="56,-74 0,-74 0,-55 56,-55 56,-74"/>
<text text-anchor="middle" x="28" y="-62" font-family="Helvetica,sans-Serif" font-size="10.00">stddef.h</text>
</a>
</g>
</g>
<!-- Node8&#45;&gt;Node12 -->
<g id="edge13_Node000008_Node000012" class="edge">
<title>Node8&#45;&gt;Node12</title>
<g id="a_edge13_Node000008_Node000012"><a xlink:title=" ">
<path fill="none" stroke="#63b8ff" d="M227.66,-109.98C187.39,-101.03 122.24,-86.55 66,-74 65.9,-73.98 65.8,-73.96 65.7,-73.93"/>
<polygon fill="#63b8ff" stroke="#63b8ff" points="66.74,-70.58 56.22,-71.82 65.22,-77.41 66.74,-70.58"/>
</a>
</g>
</g>
<!-- Node13 -->
<g id="Node000013" class="node">
<title>Node13</title>
<g id="a_Node000013"><a xlink:title=" ">
<polygon fill="#e0e0e0" stroke="#999999" points="127.5,-74 74.5,-74 74.5,-55 127.5,-55 127.5,-74"/>
<text text-anchor="middle" x="101" y="-62" font-family="Helvetica,sans-Serif" font-size="10.00">stdint.h</text>
</a>
</g>
</g>
<!-- Node8&#45;&gt;Node13 -->
<g id="edge14_Node000008_Node000013" class="edge">
<title>Node8&#45;&gt;Node13</title>
<g id="a_edge14_Node000008_Node000013"><a xlink:title=" ">
<path fill="none" stroke="#63b8ff" d="M239.49,-109.98C211.79,-101.09 168.14,-87.07 137.26,-77.15"/>
<polygon fill="#63b8ff" stroke="#63b8ff" points="138.31,-73.81 127.72,-74.08 136.17,-80.47 138.31,-73.81"/>
</a>
</g>
</g>
</g>
</svg>
