<?xml version="1.0" encoding="UTF-8" standalone="no"?>
<!DOCTYPE svg PUBLIC "-//W3C//DTD SVG 1.1//EN"
 "http://www.w3.org/Graphics/SVG/1.1/DTD/svg11.dtd">
<!-- Generated by graphviz version 2.43.0 (0)
 -->
<!-- Title: file_downlink_task Pages: 1 -->
<!--zoomable 178 -->

<svg id="main" version="1.1" xmlns="http://www.w3.org/2000/svg" xmlns:xlink="http://www.w3.org/1999/xlink" xml:space="preserve" onload="init(evt)">

<style type="text/css"><![CDATA[
.node, .edge {opacity: 0.7;}
.node.selected, .edge.selected {opacity: 1;}
.edge:hover path { stroke: red; }
.edge:hover polygon { stroke: red; fill: red; }
]]></style>

<defs>
  <circle id="rim" cx="0" cy="0" r="7"/>
  <circle id="rim2" cx="0" cy="0" r="3.5"/>
  <g id="zoomPlus">
    <use xlink:href="#rim" fill="#404040"><set attributeName="fill" to="#808080" begin="zoomplus.mouseover" end="zoomplus.mouseout"/></use>
    <path d="M-4,0h8M0,-4v8" fill="none" stroke="white" stroke-width="1.5" pointer-events="none"/>
  </g>
  <g id="zoomMin">
    <use xlink:href="#rim" fill="#404040"><set attributeName="fill" to="#808080" begin="zoomminus.mouseover" end="zoomminus.mouseout"/></use>
    <path d="M-4,0h8" fill="none" stroke="white" stroke-width="1.5" pointer-events="none"/>
  </g>
  <g id="arrowUp" transform="translate(30 24)">
    <use xlink:href="#rim"/>
    <path pointer-events="none" fill="none" stroke="white" stroke-width="1.5" d="M0,-3.0v7 M-2.5,-0.5L0,-3.0L2.5,-0.5"/>
  </g>
  <g id="arrowRight" transform="rotate(90) translate(36 -43)">
    <use xlink:href="#rim"/>
    <path pointer-events="none" fill="none" stroke="white" stroke-width="1.5" d="M0,-3.0v7 M-2.5,-0.5L0,-3.0L2.5,-0.5"/>
  </g>
  <g id="arrowDown" transform="rotate(180) translate(-30 -48)">
    <use xlink:href="#rim"/>
    <path pointer-events="none" fill="none" stroke="white" stroke-width="1.5" d="M0,-3.0v7 M-2.5,-0.5L0,-3.0L2.5,-0.5"/>
  </g>
  <g id="arrowLeft" transform="rotate(270) translate(-36 17)">
    <use xlink:href="#rim"/>
    <path pointer-events="none" fill="none" stroke="white" stroke-width="1.5" d="M0,-3.0v7 M-2.5,-0.5L0,-3.0L2.5,-0.5"/>
  </g>
  <g id="resetDef">
    <use xlink:href="#rim2" fill="#404040"><set attributeName="fill" to="#808080" begin="reset.mouseover" end="reset.mouseout"/></use>
  </g>
</defs>
<script type="application/ecmascript">
var viewWidth = 767;
var viewHeight = 178;
var sectionId = 'dynsection-1';
</script>
<script type="application/ecmascript" xlink:href="svg.min.js"/>
<svg id="graph" class="graph">
<g id="viewport">
<title>file_downlink_task</title>
<!-- Node1 -->
<g id="Node000001" class="node">
<title>Node1</title>
<g id="a_Node000001"><a xlink:title=" ">
<polygon fill="#999999" stroke="#666666" points="107,-113 0,-113 0,-94 107,-94 107,-113"/>
<text text-anchor="middle" x="53.5" y="-101" font-family="Helvetica,sans-Serif" font-size="10.00">file_downlink_task</text>
</a>
</g>
</g>
<!-- Node2 -->
<g id="Node000002" class="node">
<title>Node2</title>
<g id="a_Node000002"><a xlink:href="file__downlink_8c.html#add5ce8361f61818d2e39c0e40d4edf2f" target="_top" xlink:title=" ">
<polygon fill="white" stroke="#666666" points="265,-170 143,-170 143,-151 265,-151 265,-170"/>
<text text-anchor="middle" x="204" y="-158" font-family="Helvetica,sans-Serif" font-size="10.00">initialize_file_transfer</text>
</a>
</g>
</g>
<!-- Node1&#45;&gt;Node2 -->
<g id="edge1_Node000001_Node000002" class="edge">
<title>Node1&#45;&gt;Node2</title>
<g id="a_edge1_Node000001_Node000002"><a xlink:title=" ">
<path fill="none" stroke="#63b8ff" d="M79.36,-113.04C103.77,-122.41 141.22,-136.79 168.51,-147.26"/>
<polygon fill="#63b8ff" stroke="#63b8ff" points="167.47,-150.61 178.06,-150.93 169.98,-144.08 167.47,-150.61"/>
</a>
</g>
</g>
<!-- Node3 -->
<g id="Node000003" class="node">
<title>Node3</title>
<g id="a_Node000003"><a xlink:href="timing_8c.html#a93ea9223224ba909811375fceada6a08" target="_top" xlink:title=" ">
<polygon fill="white" stroke="#666666" points="410,-132 301,-132 301,-113 410,-113 410,-132"/>
<text text-anchor="middle" x="355.5" y="-120" font-family="Helvetica,sans-Serif" font-size="10.00">tick_uptime_in_ms</text>
</a>
</g>
</g>
<!-- Node1&#45;&gt;Node3 -->
<g id="edge11_Node000001_Node000003" class="edge">
<title>Node1&#45;&gt;Node3</title>
<g id="a_edge11_Node000001_Node000003"><a xlink:title=" ">
<path fill="none" stroke="#63b8ff" d="M107.1,-106.83C158.25,-110.07 236.02,-115 290.68,-118.46"/>
<polygon fill="#63b8ff" stroke="#63b8ff" points="290.75,-121.97 300.95,-119.11 291.19,-114.98 290.75,-121.97"/>
</a>
</g>
</g>
<!-- Node4 -->
<g id="Node000004" class="node">
<title>Node4</title>
<g id="a_Node000004"><a xlink:href="timing_8c.html#afc667ef1e53f787d5e61e758dc1bd7b2" target="_top" xlink:title=" ">
<polygon fill="white" stroke="#666666" points="521,-113 446,-113 446,-94 521,-94 521,-113"/>
<text text-anchor="middle" x="483.5" y="-101" font-family="Helvetica,sans-Serif" font-size="10.00">ticks_to_ms</text>
</a>
</g>
</g>
<!-- Node1&#45;&gt;Node4 -->
<g id="edge12_Node000001_Node000004" class="edge">
<title>Node1&#45;&gt;Node4</title>
<g id="a_edge12_Node000001_Node000004"><a xlink:title=" ">
<path fill="none" stroke="#63b8ff" d="M107.41,-103.5C191.74,-103.5 355.3,-103.5 435.65,-103.5"/>
<polygon fill="#63b8ff" stroke="#63b8ff" points="435.96,-107 445.96,-103.5 435.96,-100 435.96,-107"/>
</a>
</g>
</g>
<!-- Node5 -->
<g id="Node000005" class="node">
<title>Node5</title>
<g id="a_Node000005"><a xlink:href="file__downlink_8c.html#a9aedf39b0c42ec6c58f0c06b5e11d46c" target="_top" xlink:title=" ">
<polygon fill="white" stroke="#666666" points="248.5,-56 159.5,-56 159.5,-37 248.5,-37 248.5,-56"/>
<text text-anchor="middle" x="204" y="-44" font-family="Helvetica,sans-Serif" font-size="10.00">send_n_packet</text>
</a>
</g>
</g>
<!-- Node1&#45;&gt;Node5 -->
<g id="edge4_Node000001_Node000005" class="edge">
<title>Node1&#45;&gt;Node5</title>
<g id="a_edge4_Node000001_Node000005"><a xlink:title=" ">
<path fill="none" stroke="#63b8ff" d="M79.36,-93.96C103.77,-84.59 141.22,-70.21 168.51,-59.74"/>
<polygon fill="#63b8ff" stroke="#63b8ff" points="169.98,-62.92 178.06,-56.07 167.47,-56.39 169.98,-62.92"/>
</a>
</g>
</g>
<!-- Node2&#45;&gt;Node3 -->
<g id="edge2_Node000002_Node000003" class="edge">
<title>Node2&#45;&gt;Node3</title>
<g id="a_edge2_Node000002_Node000003"><a xlink:title=" ">
<path fill="none" stroke="#63b8ff" d="M242.73,-150.91C262.28,-145.94 286.35,-139.82 307.14,-134.54"/>
<polygon fill="#63b8ff" stroke="#63b8ff" points="308.22,-137.88 317.05,-132.02 306.49,-131.09 308.22,-137.88"/>
</a>
</g>
</g>
<!-- Node3&#45;&gt;Node4 -->
<g id="edge3_Node000003_Node000004" class="edge">
<title>Node3&#45;&gt;Node4</title>
<g id="a_edge3_Node000003_Node000004"><a xlink:title=" ">
<path fill="none" stroke="#63b8ff" d="M410.3,-114.39C418.86,-113.1 427.65,-111.77 436.02,-110.51"/>
<polygon fill="#63b8ff" stroke="#63b8ff" points="436.62,-113.96 445.98,-109.01 435.57,-107.04 436.62,-113.96"/>
</a>
</g>
</g>
<!-- Node6 -->
<g id="Node000006" class="node">
<title>Node6</title>
<g id="a_Node000006"><a xlink:href="filesystem_8c.html#ae0599d66eddc7fdf656fca874aa5f1d1" target="_top" xlink:title=" ">
<polygon fill="white" stroke="#666666" points="401.5,-56 309.5,-56 309.5,-37 401.5,-37 401.5,-56"/>
<text text-anchor="middle" x="355.5" y="-44" font-family="Helvetica,sans-Serif" font-size="10.00">read_file_offset</text>
</a>
</g>
</g>
<!-- Node5&#45;&gt;Node6 -->
<g id="edge5_Node000005_Node000006" class="edge">
<title>Node5&#45;&gt;Node6</title>
<g id="a_edge5_Node000005_Node000006"><a xlink:title=" ">
<path fill="none" stroke="#63b8ff" d="M248.64,-46.5C264.42,-46.5 282.44,-46.5 299.09,-46.5"/>
<polygon fill="#63b8ff" stroke="#63b8ff" points="299.24,-50 309.24,-46.5 299.24,-43 299.24,-50"/>
</a>
</g>
</g>
<!-- Node10 -->
<g id="Node000010" class="node">
<title>Node10</title>
<g id="a_Node000010"><a xlink:href="telemetry_8c.html#a6dbf6c6cfd75451e5642ca0b64bf7f5a" target="_top" xlink:title=" ">
<polygon fill="white" stroke="#666666" points="402,-19 309,-19 309,0 402,0 402,-19"/>
<text text-anchor="middle" x="355.5" y="-7" font-family="Helvetica,sans-Serif" font-size="10.00">send_telemetry</text>
</a>
</g>
</g>
<!-- Node5&#45;&gt;Node10 -->
<g id="edge10_Node000005_Node000010" class="edge">
<title>Node5&#45;&gt;Node10</title>
<g id="a_edge10_Node000005_Node000010"><a xlink:title=" ">
<path fill="none" stroke="#63b8ff" d="M243.5,-36.97C262.52,-32.26 285.67,-26.53 305.9,-21.53"/>
<polygon fill="#63b8ff" stroke="#63b8ff" points="307,-24.86 315.87,-19.06 305.32,-18.07 307,-24.86"/>
</a>
</g>
</g>
<!-- Node7 -->
<g id="Node000007" class="node">
<title>Node7</title>
<g id="a_Node000007"><a xlink:href="filesystem_8c.html#a07610d3a6787ca02aa3d340759bcb8c9" target="_top" xlink:title=" ">
<polygon fill="white" stroke="#666666" points="516.5,-76 450.5,-76 450.5,-57 516.5,-57 516.5,-76"/>
<text text-anchor="middle" x="483.5" y="-64" font-family="Helvetica,sans-Serif" font-size="10.00">file_exists</text>
</a>
</g>
</g>
<!-- Node6&#45;&gt;Node7 -->
<g id="edge6_Node000006_Node000007" class="edge">
<title>Node6&#45;&gt;Node7</title>
<g id="a_edge6_Node000006_Node000007"><a xlink:title=" ">
<path fill="none" stroke="#63b8ff" d="M401.63,-53.66C414.21,-55.66 427.83,-57.82 440.23,-59.79"/>
<polygon fill="#63b8ff" stroke="#63b8ff" points="439.9,-63.28 450.32,-61.39 440.99,-56.37 439.9,-63.28"/>
</a>
</g>
</g>
<!-- Node9 -->
<g id="Node000009" class="node">
<title>Node9</title>
<g id="a_Node000009"><a xlink:href="utilities_2src_2log_8c.html#a4b048be24c6c7f622a6bc6c6bf8ac435" target="_top" xlink:title=" ">
<polygon fill="white" stroke="#666666" points="759,-57 628,-57 628,-38 759,-38 759,-57"/>
<text text-anchor="middle" x="693.5" y="-45" font-family="Helvetica,sans-Serif" font-size="10.00">get_current_task_name</text>
</a>
</g>
</g>
<!-- Node6&#45;&gt;Node9 -->
<g id="edge9_Node000006_Node000009" class="edge">
<title>Node6&#45;&gt;Node9</title>
<g id="a_edge9_Node000006_Node000009"><a xlink:title=" ">
<path fill="none" stroke="#63b8ff" d="M401.81,-46.63C457.07,-46.8 551.27,-47.08 617.43,-47.28"/>
<polygon fill="#63b8ff" stroke="#63b8ff" points="617.78,-50.78 627.79,-47.31 617.8,-43.78 617.78,-50.78"/>
</a>
</g>
</g>
<!-- Node8 -->
<g id="Node000008" class="node">
<title>Node8</title>
<g id="a_Node000008"><a xlink:href="filesystem_8c.html#aa109ff29a72d1beadda58bb3a54185b6" target="_top" xlink:title=" ">
<polygon fill="white" stroke="#666666" points="592,-76 557,-76 557,-57 592,-57 592,-76"/>
<text text-anchor="middle" x="574.5" y="-64" font-family="Helvetica,sans-Serif" font-size="10.00">stat</text>
</a>
</g>
</g>
<!-- Node7&#45;&gt;Node8 -->
<g id="edge7_Node000007_Node000008" class="edge">
<title>Node7&#45;&gt;Node8</title>
<g id="a_edge7_Node000007_Node000008"><a xlink:title=" ">
<path fill="none" stroke="#63b8ff" d="M516.63,-66.5C526.47,-66.5 537.19,-66.5 546.64,-66.5"/>
<polygon fill="#63b8ff" stroke="#63b8ff" points="546.66,-70 556.66,-66.5 546.66,-63 546.66,-70"/>
</a>
</g>
</g>
<!-- Node8&#45;&gt;Node9 -->
<g id="edge8_Node000008_Node000009" class="edge">
<title>Node8&#45;&gt;Node9</title>
<g id="a_edge8_Node000008_Node000009"><a xlink:title=" ">
<path fill="none" stroke="#63b8ff" d="M592.02,-63.82C600.68,-62.41 611.93,-60.58 623.77,-58.66"/>
<polygon fill="#63b8ff" stroke="#63b8ff" points="624.49,-62.09 633.8,-57.03 623.36,-55.18 624.49,-62.09"/>
</a>
</g>
</g>
</g>
</svg>

<g id="navigator" transform="translate(0 0)" fill="#404254">
  <rect fill="#f2f5e9" fill-opacity="0.5" stroke="#606060" stroke-width=".5" x="0" y="0" width="60" height="60"/>
  <use id="zoomplus" xlink:href="#zoomPlus" x="17" y="9" onmousedown="handleZoom(evt,'in')"/>
  <use id="zoomminus" xlink:href="#zoomMin" x="42" y="9" onmousedown="handleZoom(evt,'out')"/>
  <use id="reset" xlink:href="#resetDef" x="30" y="36" onmousedown="handleReset()"/>
   <use id="arrowup" xlink:href="#arrowUp" x="0" y="0" onmousedown="handlePan(0,-1)"/>
  <use id="arrowright" xlink:href="#arrowRight" x="0" y="0" onmousedown="handlePan(1,0)"/>
  <use id="arrowdown" xlink:href="#arrowDown" x="0" y="0" onmousedown="handlePan(0,1)"/>
  <use id="arrowleft" xlink:href="#arrowLeft" x="0" y="0" onmousedown="handlePan(-1,0)"/>
</g>
<svg viewBox="0 0 15 15" width="100%" height="30px" preserveAspectRatio="xMaxYMin meet">
 <g id="arrow_out" transform="scale(0.3 0.3)">
  <a xlink:href="file__downlink_8c_ad0449a7c4902d0cd2313cd276f3ee577_cgraph_org.svg" target="_base">
   <rect id="button" ry="5" rx="5" y="6" x="6" height="38" width="38"
        fill="#f2f5e9" fill-opacity="0.5" stroke="#606060" stroke-width="1.0"/>
   <path id="arrow"
     d="M 11.500037,31.436501 C 11.940474,20.09759 22.043105,11.32322 32.158766,21.979434 L 37.068811,17.246167 C 37.068811,17.246167 37.088388,32 37.088388,32 L 22.160133,31.978069 C 22.160133,31.978069 26.997745,27.140456 26.997745,27.140456 C 18.528582,18.264221 13.291696,25.230495 11.500037,31.436501 z"
     style="fill:#404040;"/>
  </a>
 </g>
</svg>

<style type='text/css'>
<![CDATA[
[data-mouse-over-selected='false'] { opacity: 0.7; }
[data-mouse-over-selected='true']  { opacity: 1.0; }
]]>
</style>
<script type="application/ecmascript"><![CDATA[
document.addEventListener('DOMContentLoaded', (event) => {
  highlightEdges();
  highlightAdjacentNodes();
});
]]></script>
</svg>
