<?xml version="1.0" encoding="UTF-8" standalone="no"?>
<!DOCTYPE svg PUBLIC "-//W3C//DTD SVG 1.1//EN"
 "http://www.w3.org/Graphics/SVG/1.1/DTD/svg11.dtd">
<!-- Generated by graphviz version 2.43.0 (0)
 -->
<!-- Title: filesystem.h Pages: 1 -->
<svg width="2609pt" height="302pt"
 viewBox="0.00 0.00 2608.50 302.00" xmlns="http://www.w3.org/2000/svg" xmlns:xlink="http://www.w3.org/1999/xlink">
<g id="graph0" class="graph" transform="scale(1 1) rotate(0) translate(4 298)">
<title>filesystem.h</title>
<!-- Node1 -->
<g id="Node000001" class="node">
<title>Node1</title>
<g id="a_Node000001"><a xlink:title="Handles file system operations and management.">
<polygon fill="#999999" stroke="#666666" points="573.5,-294 496.5,-294 496.5,-275 573.5,-275 573.5,-294"/>
<text text-anchor="middle" x="535" y="-282" font-family="Helvetica,sans-Serif" font-size="10.00">filesystem.h</text>
</a>
</g>
</g>
<!-- Node2 -->
<g id="Node000002" class="node">
<title>Node2</title>
<g id="a_Node000002"><a xlink:href="command_8c.html" target="_top" xlink:title=" ">
<polygon fill="white" stroke="#666666" points="74,-74 0,-74 0,-55 74,-55 74,-74"/>
<text text-anchor="middle" x="37" y="-62" font-family="Helvetica,sans-Serif" font-size="10.00">command.c</text>
</a>
</g>
</g>
<!-- Node1&#45;&gt;Node2 -->
<g id="edge1_Node000001_Node000002" class="edge">
<title>Node1&#45;&gt;Node2</title>
<g id="a_edge1_Node000001_Node000002"><a xlink:title=" ">
<path fill="none" stroke="#63b8ff" d="M486.22,-281.5C377.38,-276.62 121.79,-262.75 91,-239 37.29,-197.58 35.71,-103.36 36.58,-74.24"/>
<polygon fill="#63b8ff" stroke="#63b8ff" points="486.14,-285 496.29,-281.94 486.45,-278 486.14,-285"/>
</a>
</g>
</g>
<!-- Node3 -->
<g id="Node000003" class="node">
<title>Node3</title>
<g id="a_Node000003"><a xlink:href="command__fuzzer_8cpp.html" target="_top" xlink:title=" ">
<polygon fill="white" stroke="#666666" points="359.5,-74 238.5,-74 238.5,-55 359.5,-55 359.5,-74"/>
<text text-anchor="middle" x="299" y="-62" font-family="Helvetica,sans-Serif" font-size="10.00">command_fuzzer.cpp</text>
</a>
</g>
</g>
<!-- Node1&#45;&gt;Node3 -->
<g id="edge2_Node000001_Node000003" class="edge">
<title>Node1&#45;&gt;Node3</title>
<g id="a_edge2_Node000001_Node000003"><a xlink:title=" ">
<path fill="none" stroke="#63b8ff" d="M486.17,-277.66C443.55,-271.47 380.62,-259.66 329,-239 285.48,-221.58 261.93,-224.89 239,-184 216.44,-143.77 265.75,-94.07 288.4,-74.26"/>
<polygon fill="#63b8ff" stroke="#63b8ff" points="485.89,-281.16 496.28,-279.08 486.86,-274.22 485.89,-281.16"/>
</a>
</g>
</g>
<!-- Node4 -->
<g id="Node000004" class="node">
<title>Node4</title>
<g id="a_Node000004"><a xlink:href="file__downlink_8h.html" target="_top" xlink:title=" ">
<polygon fill="white" stroke="#666666" points="191.5,-239 100.5,-239 100.5,-220 191.5,-220 191.5,-239"/>
<text text-anchor="middle" x="146" y="-227" font-family="Helvetica,sans-Serif" font-size="10.00">file_downlink.h</text>
</a>
</g>
</g>
<!-- Node1&#45;&gt;Node4 -->
<g id="edge3_Node000001_Node000004" class="edge">
<title>Node1&#45;&gt;Node4</title>
<g id="a_edge3_Node000001_Node000004"><a xlink:title=" ">
<path fill="none" stroke="#63b8ff" d="M486.26,-277.01C422.03,-268.42 305.51,-252.78 206,-239 201.31,-238.35 196.42,-237.67 191.53,-236.98"/>
<polygon fill="#63b8ff" stroke="#63b8ff" points="486.12,-280.52 496.49,-278.37 487.05,-273.58 486.12,-280.52"/>
</a>
</g>
</g>
<!-- Node6 -->
<g id="Node000006" class="node">
<title>Node6</title>
<g id="a_Node000006"><a xlink:href="main_8c.html" target="_top" xlink:title=" ">
<polygon fill="white" stroke="#666666" points="428,-74 378,-74 378,-55 428,-55 428,-74"/>
<text text-anchor="middle" x="403" y="-62" font-family="Helvetica,sans-Serif" font-size="10.00">main.c</text>
</a>
</g>
</g>
<!-- Node1&#45;&gt;Node6 -->
<g id="edge55_Node000001_Node000006" class="edge">
<title>Node1&#45;&gt;Node6</title>
<g id="a_edge55_Node000001_Node000006"><a xlink:title=" ">
<path fill="none" stroke="#63b8ff" d="M524.56,-266.26C497.9,-222.24 428.05,-106.87 408.28,-74.22"/>
<polygon fill="#63b8ff" stroke="#63b8ff" points="521.65,-268.21 529.83,-274.95 527.64,-264.59 521.65,-268.21"/>
</a>
</g>
</g>
<!-- Node9 -->
<g id="Node000009" class="node">
<title>Node9</title>
<g id="a_Node000009"><a xlink:href="hb__tlm__log_8c.html" target="_top" xlink:title=" ">
<polygon fill="white" stroke="#666666" points="525.5,-74 446.5,-74 446.5,-55 525.5,-55 525.5,-74"/>
<text text-anchor="middle" x="486" y="-62" font-family="Helvetica,sans-Serif" font-size="10.00">hb_tlm_log.c</text>
</a>
</g>
</g>
<!-- Node1&#45;&gt;Node9 -->
<g id="edge51_Node000001_Node000009" class="edge">
<title>Node1&#45;&gt;Node9</title>
<g id="a_edge51_Node000001_Node000009"><a xlink:title=" ">
<path fill="none" stroke="#63b8ff" d="M530.87,-265.13C520.8,-220.3 495.24,-106.6 487.96,-74.22"/>
<polygon fill="#63b8ff" stroke="#63b8ff" points="527.47,-265.97 533.08,-274.95 534.3,-264.43 527.47,-265.97"/>
</a>
</g>
</g>
<!-- Node10 -->
<g id="Node000010" class="node">
<title>Node10</title>
<g id="a_Node000010"><a xlink:href="heartbeat__job_8c.html" target="_top" xlink:title=" ">
<polygon fill="white" stroke="#666666" points="638,-19 546,-19 546,0 638,0 638,-19"/>
<text text-anchor="middle" x="592" y="-7" font-family="Helvetica,sans-Serif" font-size="10.00">heartbeat_job.c</text>
</a>
</g>
</g>
<!-- Node1&#45;&gt;Node10 -->
<g id="edge52_Node000001_Node000010" class="edge">
<title>Node1&#45;&gt;Node10</title>
<g id="a_edge52_Node000001_Node000010"><a xlink:title=" ">
<path fill="none" stroke="#63b8ff" d="M540.22,-265.23C545.84,-243.9 554,-207.44 554,-175.5 554,-175.5 554,-175.5 554,-118.5 554,-79.54 576.27,-36.93 586.72,-19.1"/>
<polygon fill="#63b8ff" stroke="#63b8ff" points="536.83,-264.34 537.56,-274.91 543.58,-266.19 536.83,-264.34"/>
</a>
</g>
</g>
<!-- Node14 -->
<g id="Node000014" class="node">
<title>Node14</title>
<g id="a_Node000014"><a xlink:href="filesystem_8c.html" target="_top" xlink:title=" ">
<polygon fill="white" stroke="#666666" points="2230.5,-74 2153.5,-74 2153.5,-55 2230.5,-55 2230.5,-74"/>
<text text-anchor="middle" x="2192" y="-62" font-family="Helvetica,sans-Serif" font-size="10.00">filesystem.c</text>
</a>
</g>
</g>
<!-- Node1&#45;&gt;Node14 -->
<g id="edge49_Node000001_Node000014" class="edge">
<title>Node1&#45;&gt;Node14</title>
<g id="a_edge49_Node000001_Node000014"><a xlink:title=" ">
<path fill="none" stroke="#63b8ff" d="M583.63,-277.59C708.09,-261.67 1047.42,-213.34 1319,-129 1339.34,-122.68 1342.24,-114.79 1363,-110 1701.58,-31.85 1798.65,-112.38 2144,-74 2147.03,-73.66 2150.15,-73.25 2153.29,-72.8"/>
<polygon fill="#63b8ff" stroke="#63b8ff" points="583.13,-274.12 573.65,-278.85 584.01,-281.07 583.13,-274.12"/>
</a>
</g>
</g>
<!-- Node19 -->
<g id="Node000019" class="node">
<title>Node19</title>
<g id="a_Node000019"><a xlink:href="utilities_2src_2log_8c.html" target="_top" xlink:title=" ">
<polygon fill="white" stroke="#666666" points="2289,-74 2249,-74 2249,-55 2289,-55 2289,-74"/>
<text text-anchor="middle" x="2269" y="-62" font-family="Helvetica,sans-Serif" font-size="10.00">log.c</text>
</a>
</g>
</g>
<!-- Node1&#45;&gt;Node19 -->
<g id="edge53_Node000001_Node000019" class="edge">
<title>Node1&#45;&gt;Node19</title>
<g id="a_edge53_Node000001_Node000019"><a xlink:title=" ">
<path fill="none" stroke="#63b8ff" d="M583.61,-279.02C654.67,-272.16 790.98,-257.84 906,-239 1024.28,-219.62 1053.79,-213.33 1170,-184 1253.17,-163.01 1274.14,-157.63 1355,-129 1375.85,-121.62 1379.4,-114.77 1401,-110 1765.46,-29.54 1871.78,-134.94 2240,-74 2242.9,-73.52 2245.92,-72.84 2248.86,-72.08"/>
<polygon fill="#63b8ff" stroke="#63b8ff" points="583.23,-275.54 573.61,-279.97 583.9,-282.5 583.23,-275.54"/>
</a>
</g>
</g>
<!-- Node20 -->
<g id="Node000020" class="node">
<title>Node20</title>
<g id="a_Node000020"><a xlink:href="log__test__unittest_8c.html" target="_top" xlink:title=" ">
<polygon fill="white" stroke="#666666" points="2414.5,-74 2307.5,-74 2307.5,-55 2414.5,-55 2414.5,-74"/>
<text text-anchor="middle" x="2361" y="-62" font-family="Helvetica,sans-Serif" font-size="10.00">log_test_unittest.c</text>
</a>
</g>
</g>
<!-- Node1&#45;&gt;Node20 -->
<g id="edge54_Node000001_Node000020" class="edge">
<title>Node1&#45;&gt;Node20</title>
<g id="a_edge54_Node000001_Node000020"><a xlink:title=" ">
<path fill="none" stroke="#63b8ff" d="M584.21,-280.44C665.81,-274.95 834.1,-261.79 975,-239 1085.59,-221.11 1112.9,-213.4 1221,-184 1298.04,-163.05 1316.94,-156.2 1392,-129 1413.18,-121.32 1416.98,-114.76 1439,-110 1625.74,-69.61 2107.68,-90.79 2298,-74 2301.08,-73.73 2304.24,-73.41 2307.42,-73.07"/>
<polygon fill="#63b8ff" stroke="#63b8ff" points="583.5,-276.98 573.75,-281.14 583.96,-283.97 583.5,-276.98"/>
</a>
</g>
</g>
<!-- Node29 -->
<g id="Node000029" class="node">
<title>Node29</title>
<g id="a_Node000029"><a xlink:href="set__rtc__job_8c.html" target="_top" xlink:title=" ">
<polygon fill="white" stroke="#666666" points="2511,-74 2433,-74 2433,-55 2511,-55 2511,-74"/>
<text text-anchor="middle" x="2472" y="-62" font-family="Helvetica,sans-Serif" font-size="10.00">set_rtc_job.c</text>
</a>
</g>
</g>
<!-- Node1&#45;&gt;Node29 -->
<g id="edge56_Node000001_Node000029" class="edge">
<title>Node1&#45;&gt;Node29</title>
<g id="a_edge56_Node000001_Node000029"><a xlink:title=" ">
<path fill="none" stroke="#63b8ff" d="M583.98,-279.7C674.38,-272.58 873.51,-256.35 1041,-239 1656.73,-175.21 1811.65,-164.67 2424,-74 2426.93,-73.57 2429.96,-73.09 2433,-72.6"/>
<polygon fill="#63b8ff" stroke="#63b8ff" points="583.46,-276.23 573.76,-280.5 584.01,-283.21 583.46,-276.23"/>
</a>
</g>
</g>
<!-- Node35 -->
<g id="Node000035" class="node">
<title>Node35</title>
<g id="a_Node000035"><a xlink:href="filesystem__test__unittest_8c.html" target="_top" xlink:title=" ">
<polygon fill="white" stroke="#666666" points="1624.5,-239 1481.5,-239 1481.5,-220 1624.5,-220 1624.5,-239"/>
<text text-anchor="middle" x="1553" y="-227" font-family="Helvetica,sans-Serif" font-size="10.00">filesystem_test_unittest.c</text>
</a>
</g>
</g>
<!-- Node1&#45;&gt;Node35 -->
<g id="edge50_Node000001_Node000035" class="edge">
<title>Node1&#45;&gt;Node35</title>
<g id="a_edge50_Node000001_Node000035"><a xlink:title=" ">
<path fill="none" stroke="#63b8ff" d="M583.94,-282.04C722.56,-277.72 1129.65,-263.71 1467,-239 1471.64,-238.66 1476.41,-238.28 1481.23,-237.87"/>
<polygon fill="#63b8ff" stroke="#63b8ff" points="583.55,-278.55 573.66,-282.36 583.76,-285.55 583.55,-278.55"/>
</a>
</g>
</g>
<!-- Node36 -->
<g id="Node000036" class="node">
<title>Node36</title>
<g id="a_Node000036"><a xlink:href="user__auth_8h.html" target="_top" xlink:title=" ">
<polygon fill="white" stroke="#666666" points="412,-239 338,-239 338,-220 412,-220 412,-239"/>
<text text-anchor="middle" x="375" y="-227" font-family="Helvetica,sans-Serif" font-size="10.00">user_auth.h</text>
</a>
</g>
</g>
<!-- Node1&#45;&gt;Node36 -->
<g id="edge57_Node000001_Node000036" class="edge">
<title>Node1&#45;&gt;Node36</title>
<g id="a_edge57_Node000001_Node000036"><a xlink:title=" ">
<path fill="none" stroke="#63b8ff" d="M499.67,-271.8C469.81,-261.91 427.73,-247.97 400.91,-239.08"/>
<polygon fill="#63b8ff" stroke="#63b8ff" points="498.7,-275.16 509.29,-274.98 500.9,-268.52 498.7,-275.16"/>
</a>
</g>
</g>
<!-- Node4&#45;&gt;Node2 -->
<g id="edge4_Node000004_Node000002" class="edge">
<title>Node4&#45;&gt;Node2</title>
<g id="a_edge4_Node000004_Node000002"><a xlink:title=" ">
<path fill="none" stroke="#63b8ff" d="M124.56,-213.9C114.06,-205.96 101.83,-195.45 93,-184 64.93,-147.6 46.29,-94.86 39.68,-74.23"/>
<polygon fill="#63b8ff" stroke="#63b8ff" points="122.7,-216.87 132.84,-219.91 126.81,-211.21 122.7,-216.87"/>
</a>
</g>
</g>
<!-- Node5 -->
<g id="Node000005" class="node">
<title>Node5</title>
<g id="a_Node000005"><a xlink:href="file__downlink_8c.html" target="_top" xlink:title=" ">
<polygon fill="white" stroke="#666666" points="220,-74 130,-74 130,-55 220,-55 220,-74"/>
<text text-anchor="middle" x="175" y="-62" font-family="Helvetica,sans-Serif" font-size="10.00">file_downlink.c</text>
</a>
</g>
</g>
<!-- Node4&#45;&gt;Node5 -->
<g id="edge5_Node000004_Node000005" class="edge">
<title>Node4&#45;&gt;Node5</title>
<g id="a_edge5_Node000004_Node000005"><a xlink:title=" ">
<path fill="none" stroke="#63b8ff" d="M129.71,-212.48C108.01,-189.12 74.59,-144.71 95,-110 105.55,-92.05 126.25,-80.82 143.95,-74.13"/>
<polygon fill="#63b8ff" stroke="#63b8ff" points="127.33,-215.05 136.79,-219.81 132.36,-210.19 127.33,-215.05"/>
</a>
</g>
</g>
<!-- Node4&#45;&gt;Node6 -->
<g id="edge6_Node000004_Node000006" class="edge">
<title>Node4&#45;&gt;Node6</title>
<g id="a_edge6_Node000004_Node000006"><a xlink:title=" ">
<path fill="none" stroke="#63b8ff" d="M201.88,-227.67C273.98,-225.27 393.44,-216.38 421,-184 448.52,-151.67 420.75,-95.62 408.33,-74.18"/>
<polygon fill="#63b8ff" stroke="#63b8ff" points="201.5,-224.18 191.61,-227.98 201.71,-231.17 201.5,-224.18"/>
</a>
</g>
</g>
<!-- Node7 -->
<g id="Node000007" class="node">
<title>Node7</title>
<g id="a_Node000007"><a xlink:href="telemetry_8h.html" target="_top" xlink:title="Functions for packaging and queuing telemetry packets for sending.">
<polygon fill="white" stroke="#666666" points="412,-184 340,-184 340,-165 412,-165 412,-184"/>
<text text-anchor="middle" x="376" y="-172" font-family="Helvetica,sans-Serif" font-size="10.00">telemetry.h</text>
</a>
</g>
</g>
<!-- Node4&#45;&gt;Node7 -->
<g id="edge7_Node000004_Node000007" class="edge">
<title>Node4&#45;&gt;Node7</title>
<g id="a_edge7_Node000004_Node000007"><a xlink:title=" ">
<path fill="none" stroke="#63b8ff" d="M192.73,-217.73C236.24,-207.71 300.18,-192.97 339.9,-183.82"/>
<polygon fill="#63b8ff" stroke="#63b8ff" points="191.91,-214.33 182.95,-219.98 193.48,-221.15 191.91,-214.33"/>
</a>
</g>
</g>
<!-- Node7&#45;&gt;Node3 -->
<g id="edge8_Node000007_Node000003" class="edge">
<title>Node7&#45;&gt;Node3</title>
<g id="a_edge8_Node000007_Node000003"><a xlink:title=" ">
<path fill="none" stroke="#63b8ff" d="M363.8,-156.38C347.13,-133.01 317.87,-91.97 305.17,-74.16"/>
<polygon fill="#63b8ff" stroke="#63b8ff" points="361.04,-158.55 369.7,-164.66 366.74,-154.49 361.04,-158.55"/>
</a>
</g>
</g>
<!-- Node7&#45;&gt;Node5 -->
<g id="edge9_Node000007_Node000005" class="edge">
<title>Node7&#45;&gt;Node5</title>
<g id="a_edge9_Node000007_Node000005"><a xlink:title=" ">
<path fill="none" stroke="#63b8ff" d="M350.88,-160C308.91,-137.45 225.72,-92.75 190.91,-74.05"/>
<polygon fill="#63b8ff" stroke="#63b8ff" points="349.43,-163.19 359.89,-164.84 352.74,-157.03 349.43,-163.19"/>
</a>
</g>
</g>
<!-- Node7&#45;&gt;Node6 -->
<g id="edge47_Node000007_Node000006" class="edge">
<title>Node7&#45;&gt;Node6</title>
<g id="a_edge47_Node000007_Node000006"><a xlink:title=" ">
<path fill="none" stroke="#63b8ff" d="M380.67,-154.8C386.57,-131.2 396.48,-91.58 400.84,-74.16"/>
<polygon fill="#63b8ff" stroke="#63b8ff" points="377.24,-154.11 378.21,-164.66 384.03,-155.81 377.24,-154.11"/>
</a>
</g>
</g>
<!-- Node8 -->
<g id="Node000008" class="node">
<title>Node8</title>
<g id="a_Node000008"><a xlink:href="hb__tlm__log_8h.html" target="_top" xlink:title=" ">
<polygon fill="white" stroke="#666666" points="184,-129 104,-129 104,-110 184,-110 184,-129"/>
<text text-anchor="middle" x="144" y="-117" font-family="Helvetica,sans-Serif" font-size="10.00">hb_tlm_log.h</text>
</a>
</g>
</g>
<!-- Node7&#45;&gt;Node8 -->
<g id="edge10_Node000007_Node000008" class="edge">
<title>Node7&#45;&gt;Node8</title>
<g id="a_edge10_Node000007_Node000008"><a xlink:title=" ">
<path fill="none" stroke="#63b8ff" d="M329.99,-162.99C286.48,-153.05 222.01,-138.32 181.53,-129.07"/>
<polygon fill="#63b8ff" stroke="#63b8ff" points="329.22,-166.4 339.75,-165.22 330.78,-159.58 329.22,-166.4"/>
</a>
</g>
</g>
<!-- Node7&#45;&gt;Node10 -->
<g id="edge14_Node000007_Node000010" class="edge">
<title>Node7&#45;&gt;Node10</title>
<g id="a_edge14_Node000007_Node000010"><a xlink:title=" ">
<path fill="none" stroke="#63b8ff" d="M401.53,-160.23C433.99,-142.74 490.99,-109.96 534,-74 554.62,-56.76 574.92,-32.37 585.15,-19.41"/>
<polygon fill="#63b8ff" stroke="#63b8ff" points="399.85,-157.16 392.67,-164.95 403.14,-163.33 399.85,-157.16"/>
</a>
</g>
</g>
<!-- Node11 -->
<g id="Node000011" class="node">
<title>Node11</title>
<g id="a_Node000011"><a xlink:href="log_8h.html" target="_top" xlink:title=" ">
<polygon fill="white" stroke="#666666" points="1310.5,-129 1269.5,-129 1269.5,-110 1310.5,-110 1310.5,-129"/>
<text text-anchor="middle" x="1290" y="-117" font-family="Helvetica,sans-Serif" font-size="10.00">log.h</text>
</a>
</g>
</g>
<!-- Node7&#45;&gt;Node11 -->
<g id="edge15_Node000007_Node000011" class="edge">
<title>Node7&#45;&gt;Node11</title>
<g id="a_edge15_Node000007_Node000011"><a xlink:title=" ">
<path fill="none" stroke="#63b8ff" d="M422.52,-170.8C589.41,-161.13 1154.19,-128.37 1269.39,-121.7"/>
<polygon fill="#63b8ff" stroke="#63b8ff" points="421.89,-167.33 412.11,-171.41 422.3,-174.32 421.89,-167.33"/>
</a>
</g>
</g>
<!-- Node30 -->
<g id="Node000030" class="node">
<title>Node30</title>
<g id="a_Node000030"><a xlink:href="telemetry_8c.html" target="_top" xlink:title=" ">
<polygon fill="white" stroke="#666666" points="2600.5,-74 2529.5,-74 2529.5,-55 2600.5,-55 2600.5,-74"/>
<text text-anchor="middle" x="2565" y="-62" font-family="Helvetica,sans-Serif" font-size="10.00">telemetry.c</text>
</a>
</g>
</g>
<!-- Node7&#45;&gt;Node30 -->
<g id="edge48_Node000007_Node000030" class="edge">
<title>Node7&#45;&gt;Node30</title>
<g id="a_edge48_Node000007_Node000030"><a xlink:title=" ">
<path fill="none" stroke="#63b8ff" d="M422.48,-173.75C651.56,-174.5 1682.99,-171.98 2520,-74 2523,-73.65 2526.1,-73.21 2529.21,-72.73"/>
<polygon fill="#63b8ff" stroke="#63b8ff" points="422.2,-170.25 412.18,-173.72 422.17,-177.25 422.2,-170.25"/>
</a>
</g>
</g>
<!-- Node8&#45;&gt;Node2 -->
<g id="edge11_Node000008_Node000002" class="edge">
<title>Node8&#45;&gt;Node2</title>
<g id="a_edge11_Node000008_Node000002"><a xlink:title=" ">
<path fill="none" stroke="#63b8ff" d="M117.76,-105.5C98.07,-95.75 71.68,-82.68 54.5,-74.17"/>
<polygon fill="#63b8ff" stroke="#63b8ff" points="116.29,-108.68 126.81,-109.98 119.4,-102.41 116.29,-108.68"/>
</a>
</g>
</g>
<!-- Node8&#45;&gt;Node9 -->
<g id="edge12_Node000008_Node000009" class="edge">
<title>Node8&#45;&gt;Node9</title>
<g id="a_edge12_Node000008_Node000009"><a xlink:title=" ">
<path fill="none" stroke="#63b8ff" d="M194.4,-111.17C252.82,-102.61 351.96,-87.83 437,-74 440.07,-73.5 443.24,-72.97 446.43,-72.44"/>
<polygon fill="#63b8ff" stroke="#63b8ff" points="193.71,-107.74 184.33,-112.65 194.73,-114.66 193.71,-107.74"/>
</a>
</g>
</g>
<!-- Node8&#45;&gt;Node10 -->
<g id="edge13_Node000008_Node000010" class="edge">
<title>Node8&#45;&gt;Node10</title>
<g id="a_edge13_Node000008_Node000010"><a xlink:title=" ">
<path fill="none" stroke="#63b8ff" d="M129.49,-101.75C119.19,-87.76 109.11,-68.07 121,-55 149.26,-23.94 432.93,-14.11 545.92,-11.41"/>
<polygon fill="#63b8ff" stroke="#63b8ff" points="126.78,-103.96 135.75,-109.61 132.26,-99.6 126.78,-103.96"/>
</a>
</g>
</g>
<!-- Node11&#45;&gt;Node2 -->
<g id="edge17_Node000011_Node000002" class="edge">
<title>Node11&#45;&gt;Node2</title>
<g id="a_edge17_Node000011_Node000002"><a xlink:title=" ">
<path fill="none" stroke="#63b8ff" d="M1259.19,-118.04C1124.34,-115.87 572.74,-105.42 121,-74 105.65,-72.93 88.76,-71.31 74.17,-69.77"/>
<polygon fill="#63b8ff" stroke="#63b8ff" points="1259.16,-121.54 1269.22,-118.2 1259.27,-114.54 1259.16,-121.54"/>
</a>
</g>
</g>
<!-- Node11&#45;&gt;Node3 -->
<g id="edge18_Node000011_Node000003" class="edge">
<title>Node11&#45;&gt;Node3</title>
<g id="a_edge18_Node000011_Node000003"><a xlink:title=" ">
<path fill="none" stroke="#63b8ff" d="M1258.86,-117.82C1141.86,-115.07 717.46,-103.54 369,-74 365.95,-73.74 362.83,-73.45 359.68,-73.14"/>
<polygon fill="#63b8ff" stroke="#63b8ff" points="1259.13,-121.32 1269.21,-118.05 1259.3,-114.32 1259.13,-121.32"/>
</a>
</g>
</g>
<!-- Node11&#45;&gt;Node5 -->
<g id="edge20_Node000011_Node000005" class="edge">
<title>Node11&#45;&gt;Node5</title>
<g id="a_edge20_Node000011_Node000005"><a xlink:title=" ">
<path fill="none" stroke="#63b8ff" d="M1259.18,-118.49C1131.93,-118.19 635,-114.33 229,-74 226.07,-73.71 223.06,-73.36 220.03,-72.98"/>
<polygon fill="#63b8ff" stroke="#63b8ff" points="1259.35,-121.99 1269.36,-118.51 1259.36,-114.99 1259.35,-121.99"/>
</a>
</g>
</g>
<!-- Node11&#45;&gt;Node6 -->
<g id="edge34_Node000011_Node000006" class="edge">
<title>Node11&#45;&gt;Node6</title>
<g id="a_edge34_Node000011_Node000006"><a xlink:title=" ">
<path fill="none" stroke="#63b8ff" d="M1258.81,-117.68C1125.18,-114.04 600.33,-98.44 437,-74 434.11,-73.57 431.11,-73 428.14,-72.36"/>
<polygon fill="#63b8ff" stroke="#63b8ff" points="1259.05,-121.19 1269.14,-117.96 1259.24,-114.19 1259.05,-121.19"/>
</a>
</g>
</g>
<!-- Node11&#45;&gt;Node9 -->
<g id="edge23_Node000011_Node000009" class="edge">
<title>Node11&#45;&gt;Node9</title>
<g id="a_edge23_Node000011_Node000009"><a xlink:title=" ">
<path fill="none" stroke="#63b8ff" d="M1259.3,-116.48C1134.53,-108.25 665.4,-77.33 525.57,-68.11"/>
<polygon fill="#63b8ff" stroke="#63b8ff" points="1259.11,-119.97 1269.32,-117.14 1259.57,-112.99 1259.11,-119.97"/>
</a>
</g>
</g>
<!-- Node12 -->
<g id="Node000012" class="node">
<title>Node12</title>
<g id="a_Node000012"><a xlink:href="antenna__deploy__job_8c.html" target="_top" xlink:title=" ">
<polygon fill="white" stroke="#666666" points="1203.5,-74 1080.5,-74 1080.5,-55 1203.5,-55 1203.5,-74"/>
<text text-anchor="middle" x="1142" y="-62" font-family="Helvetica,sans-Serif" font-size="10.00">antenna_deploy_job.c</text>
</a>
</g>
</g>
<!-- Node11&#45;&gt;Node12 -->
<g id="edge16_Node000011_Node000012" class="edge">
<title>Node11&#45;&gt;Node12</title>
<g id="a_edge16_Node000011_Node000012"><a xlink:title=" ">
<path fill="none" stroke="#63b8ff" d="M1259.82,-107.69C1232.04,-97.75 1191.39,-83.19 1165.83,-74.03"/>
<polygon fill="#63b8ff" stroke="#63b8ff" points="1258.83,-111.05 1269.42,-111.13 1261.19,-104.46 1258.83,-111.05"/>
</a>
</g>
</g>
<!-- Node13 -->
<g id="Node000013" class="node">
<title>Node13</title>
<g id="a_Node000013"><a xlink:href="ds18b20_8c.html" target="_top" xlink:title=" ">
<polygon fill="white" stroke="#666666" points="1288,-74 1222,-74 1222,-55 1288,-55 1288,-74"/>
<text text-anchor="middle" x="1255" y="-62" font-family="Helvetica,sans-Serif" font-size="10.00">ds18b20.c</text>
</a>
</g>
</g>
<!-- Node11&#45;&gt;Node13 -->
<g id="edge19_Node000011_Node000013" class="edge">
<title>Node11&#45;&gt;Node13</title>
<g id="a_edge19_Node000011_Node000013"><a xlink:title=" ">
<path fill="none" stroke="#63b8ff" d="M1278.7,-101.39C1272.68,-92.27 1265.53,-81.45 1260.67,-74.09"/>
<polygon fill="#63b8ff" stroke="#63b8ff" points="1275.79,-103.33 1284.22,-109.75 1281.63,-99.47 1275.79,-103.33"/>
</a>
</g>
</g>
<!-- Node11&#45;&gt;Node14 -->
<g id="edge21_Node000011_Node000014" class="edge">
<title>Node11&#45;&gt;Node14</title>
<g id="a_edge21_Node000011_Node000014"><a xlink:title=" ">
<path fill="none" stroke="#63b8ff" d="M1320.52,-110.72C1322.03,-110.45 1323.53,-110.21 1325,-110 1685.73,-58.77 1781.83,-113.85 2144,-74 2147.03,-73.67 2150.15,-73.26 2153.29,-72.8"/>
<polygon fill="#63b8ff" stroke="#63b8ff" points="1319.67,-107.32 1310.6,-112.79 1321.1,-114.18 1319.67,-107.32"/>
</a>
</g>
</g>
<!-- Node15 -->
<g id="Node000015" class="node">
<title>Node15</title>
<g id="a_Node000015"><a xlink:href="gse_8c.html" target="_top" xlink:title=" ">
<polygon fill="white" stroke="#666666" points="700,-74 658,-74 658,-55 700,-55 700,-74"/>
<text text-anchor="middle" x="679" y="-62" font-family="Helvetica,sans-Serif" font-size="10.00">gse.c</text>
</a>
</g>
</g>
<!-- Node11&#45;&gt;Node15 -->
<g id="edge22_Node000011_Node000015" class="edge">
<title>Node11&#45;&gt;Node15</title>
<g id="a_edge22_Node000011_Node000015"><a xlink:title=" ">
<path fill="none" stroke="#63b8ff" d="M1259.26,-118.3C1172.24,-117.26 916.98,-111.04 709,-74 706.12,-73.49 703.12,-72.81 700.18,-72.07"/>
<polygon fill="#63b8ff" stroke="#63b8ff" points="1259.45,-121.8 1269.49,-118.4 1259.53,-114.8 1259.45,-121.8"/>
</a>
</g>
</g>
<!-- Node16 -->
<g id="Node000016" class="node">
<title>Node16</title>
<g id="a_Node000016"><a xlink:href="i2c_8c.html" target="_top" xlink:title=" ">
<polygon fill="white" stroke="#666666" points="1345.5,-74 1306.5,-74 1306.5,-55 1345.5,-55 1345.5,-74"/>
<text text-anchor="middle" x="1326" y="-62" font-family="Helvetica,sans-Serif" font-size="10.00">i2c.c</text>
</a>
</g>
</g>
<!-- Node11&#45;&gt;Node16 -->
<g id="edge24_Node000011_Node000016" class="edge">
<title>Node11&#45;&gt;Node16</title>
<g id="a_edge24_Node000011_Node000016"><a xlink:title=" ">
<path fill="none" stroke="#63b8ff" d="M1301.62,-101.39C1307.82,-92.27 1315.17,-81.45 1320.17,-74.09"/>
<polygon fill="#63b8ff" stroke="#63b8ff" points="1298.67,-99.51 1295.94,-109.75 1304.46,-103.44 1298.67,-99.51"/>
</a>
</g>
</g>
<!-- Node17 -->
<g id="Node000017" class="node">
<title>Node17</title>
<g id="a_Node000017"><a xlink:href="ina219_8c.html" target="_top" xlink:title=" ">
<polygon fill="white" stroke="#666666" points="1422,-74 1364,-74 1364,-55 1422,-55 1422,-74"/>
<text text-anchor="middle" x="1393" y="-62" font-family="Helvetica,sans-Serif" font-size="10.00">ina219.c</text>
</a>
</g>
</g>
<!-- Node11&#45;&gt;Node17 -->
<g id="edge25_Node000011_Node000017" class="edge">
<title>Node11&#45;&gt;Node17</title>
<g id="a_edge25_Node000011_Node000017"><a xlink:title=" ">
<path fill="none" stroke="#63b8ff" d="M1315.52,-105.37C1334.44,-95.63 1359.7,-82.64 1376.15,-74.17"/>
<polygon fill="#63b8ff" stroke="#63b8ff" points="1313.84,-102.3 1306.55,-109.98 1317.04,-108.52 1313.84,-102.3"/>
</a>
</g>
</g>
<!-- Node18 -->
<g id="Node000018" class="node">
<title>Node18</title>
<g id="a_Node000018"><a xlink:href="test_2unit_2utilities_2log_8c.html" target="_top" xlink:title=" ">
<polygon fill="white" stroke="#666666" points="1480,-74 1440,-74 1440,-55 1480,-55 1480,-74"/>
<text text-anchor="middle" x="1460" y="-62" font-family="Helvetica,sans-Serif" font-size="10.00">log.c</text>
</a>
</g>
</g>
<!-- Node11&#45;&gt;Node18 -->
<g id="edge26_Node000011_Node000018" class="edge">
<title>Node11&#45;&gt;Node18</title>
<g id="a_edge26_Node000011_Node000018"><a xlink:title=" ">
<path fill="none" stroke="#63b8ff" d="M1320.07,-109.13C1354.61,-98.36 1410.31,-80.99 1439.95,-71.75"/>
<polygon fill="#63b8ff" stroke="#63b8ff" points="1319.01,-105.79 1310.51,-112.11 1321.09,-112.47 1319.01,-105.79"/>
</a>
</g>
</g>
<!-- Node11&#45;&gt;Node19 -->
<g id="edge27_Node000011_Node000019" class="edge">
<title>Node11&#45;&gt;Node19</title>
<g id="a_edge27_Node000011_Node000019"><a xlink:title=" ">
<path fill="none" stroke="#63b8ff" d="M1321,-114.37C1333.96,-112.78 1349.19,-111.09 1363,-110 1751.91,-79.42 1855.07,-137.33 2240,-74 2242.9,-73.52 2245.92,-72.85 2248.86,-72.08"/>
<polygon fill="#63b8ff" stroke="#63b8ff" points="1320.21,-110.94 1310.73,-115.67 1321.09,-117.89 1320.21,-110.94"/>
</a>
</g>
</g>
<!-- Node11&#45;&gt;Node20 -->
<g id="edge28_Node000011_Node000020" class="edge">
<title>Node11&#45;&gt;Node20</title>
<g id="a_edge28_Node000011_Node000020"><a xlink:title=" ">
<path fill="none" stroke="#63b8ff" d="M1321.04,-115.82C1343.29,-113.97 1373.97,-111.58 1401,-110 1799.31,-86.76 1900.53,-108.71 2298,-74 2301.08,-73.73 2304.24,-73.42 2307.42,-73.08"/>
<polygon fill="#63b8ff" stroke="#63b8ff" points="1320.52,-112.35 1310.85,-116.68 1321.11,-119.33 1320.52,-112.35"/>
</a>
</g>
</g>
<!-- Node21 -->
<g id="Node000021" class="node">
<title>Node21</title>
<g id="a_Node000021"><a xlink:href="mag__lis3mdltr_8c.html" target="_top" xlink:title=" ">
<polygon fill="white" stroke="#666666" points="990.5,-19 895.5,-19 895.5,0 990.5,0 990.5,-19"/>
<text text-anchor="middle" x="943" y="-7" font-family="Helvetica,sans-Serif" font-size="10.00">mag_lis3mdltr.c</text>
</a>
</g>
</g>
<!-- Node11&#45;&gt;Node21 -->
<g id="edge29_Node000011_Node000021" class="edge">
<title>Node11&#45;&gt;Node21</title>
<g id="a_edge29_Node000011_Node000021"><a xlink:title=" ">
<path fill="none" stroke="#63b8ff" d="M1259.18,-116.05C1213.1,-111.66 1124.06,-100.31 1053,-74 1014.74,-59.84 974.33,-32.98 954.86,-19.18"/>
<polygon fill="#63b8ff" stroke="#63b8ff" points="1259.13,-119.56 1269.41,-116.98 1259.76,-112.59 1259.13,-119.56"/>
</a>
</g>
</g>
<!-- Node22 -->
<g id="Node000022" class="node">
<title>Node22</title>
<g id="a_Node000022"><a xlink:href="mag__lis3mdltr_8h.html" target="_top" xlink:title="Magnetometer Driver (LIS3MDLTR).">
<polygon fill="white" stroke="#666666" points="986,-74 890,-74 890,-55 986,-55 986,-74"/>
<text text-anchor="middle" x="938" y="-62" font-family="Helvetica,sans-Serif" font-size="10.00">mag_lis3mdltr.h</text>
</a>
</g>
</g>
<!-- Node11&#45;&gt;Node22 -->
<g id="edge30_Node000011_Node000022" class="edge">
<title>Node11&#45;&gt;Node22</title>
<g id="a_edge30_Node000011_Node000022"><a xlink:title=" ">
<path fill="none" stroke="#63b8ff" d="M1259.08,-113.84C1197.6,-104.59 1059.61,-83.81 986.15,-72.75"/>
<polygon fill="#63b8ff" stroke="#63b8ff" points="1258.89,-117.35 1269.29,-115.38 1259.93,-110.43 1258.89,-117.35"/>
</a>
</g>
</g>
<!-- Node23 -->
<g id="Node000023" class="node">
<title>Node23</title>
<g id="a_Node000023"><a xlink:href="steve_8c.html" target="_top" xlink:title=" ">
<polygon fill="white" stroke="#666666" points="1072,-19 1020,-19 1020,0 1072,0 1072,-19"/>
<text text-anchor="middle" x="1046" y="-7" font-family="Helvetica,sans-Serif" font-size="10.00">steve.c</text>
</a>
</g>
</g>
<!-- Node11&#45;&gt;Node23 -->
<g id="edge41_Node000011_Node000023" class="edge">
<title>Node11&#45;&gt;Node23</title>
<g id="a_edge41_Node000011_Node000023"><a xlink:title=" ">
<path fill="none" stroke="#63b8ff" d="M1259,-115.83C1205.57,-110.65 1099.15,-97.62 1071,-74 1054.3,-59.99 1048.69,-33.31 1046.86,-19.42"/>
<polygon fill="#63b8ff" stroke="#63b8ff" points="1258.96,-119.34 1269.25,-116.79 1259.62,-112.37 1258.96,-119.34"/>
</a>
</g>
</g>
<!-- Node24 -->
<g id="Node000024" class="node">
<title>Node24</title>
<g id="a_Node000024"><a xlink:href="max17048_8c.html" target="_top" xlink:title=" ">
<polygon fill="white" stroke="#666666" points="1575.5,-74 1498.5,-74 1498.5,-55 1575.5,-55 1575.5,-74"/>
<text text-anchor="middle" x="1537" y="-62" font-family="Helvetica,sans-Serif" font-size="10.00">max17048.c</text>
</a>
</g>
</g>
<!-- Node11&#45;&gt;Node24 -->
<g id="edge35_Node000011_Node000024" class="edge">
<title>Node11&#45;&gt;Node24</title>
<g id="a_edge35_Node000011_Node000024"><a xlink:title=" ">
<path fill="none" stroke="#63b8ff" d="M1320.58,-111.02C1322.07,-110.67 1323.55,-110.33 1325,-110 1385.34,-96.34 1455.67,-81.86 1498.24,-73.26"/>
<polygon fill="#63b8ff" stroke="#63b8ff" points="1319.62,-107.64 1310.7,-113.36 1321.24,-114.45 1319.62,-107.64"/>
</a>
</g>
</g>
<!-- Node25 -->
<g id="Node000025" class="node">
<title>Node25</title>
<g id="a_Node000025"><a xlink:href="miscellaneous__jobs_8c.html" target="_top" xlink:title=" ">
<polygon fill="white" stroke="#666666" points="1714.5,-74 1593.5,-74 1593.5,-55 1714.5,-55 1714.5,-74"/>
<text text-anchor="middle" x="1654" y="-62" font-family="Helvetica,sans-Serif" font-size="10.00">miscellaneous_jobs.c</text>
</a>
</g>
</g>
<!-- Node11&#45;&gt;Node25 -->
<g id="edge36_Node000011_Node000025" class="edge">
<title>Node11&#45;&gt;Node25</title>
<g id="a_edge36_Node000011_Node000025"><a xlink:title=" ">
<path fill="none" stroke="#63b8ff" d="M1320.55,-110.89C1322.05,-110.57 1323.54,-110.28 1325,-110 1350.7,-105.15 1505.33,-84.81 1593.16,-73.38"/>
<polygon fill="#63b8ff" stroke="#63b8ff" points="1319.64,-107.5 1310.65,-113.11 1321.18,-114.33 1319.64,-107.5"/>
</a>
</g>
</g>
<!-- Node26 -->
<g id="Node000026" class="node">
<title>Node26</title>
<g id="a_Node000026"><a xlink:href="mram_8c.html" target="_top" xlink:title=" ">
<polygon fill="white" stroke="#666666" points="1787,-74 1733,-74 1733,-55 1787,-55 1787,-74"/>
<text text-anchor="middle" x="1760" y="-62" font-family="Helvetica,sans-Serif" font-size="10.00">mram.c</text>
</a>
</g>
</g>
<!-- Node11&#45;&gt;Node26 -->
<g id="edge37_Node000011_Node000026" class="edge">
<title>Node11&#45;&gt;Node26</title>
<g id="a_edge37_Node000011_Node000026"><a xlink:title=" ">
<path fill="none" stroke="#63b8ff" d="M1320.53,-110.81C1322.04,-110.51 1323.53,-110.24 1325,-110 1500.66,-80.91 1548.25,-102.53 1724,-74 1726.92,-73.53 1729.95,-72.95 1732.96,-72.32"/>
<polygon fill="#63b8ff" stroke="#63b8ff" points="1319.65,-107.41 1310.62,-112.95 1321.14,-114.26 1319.65,-107.41"/>
</a>
</g>
</g>
<!-- Node27 -->
<g id="Node000027" class="node">
<title>Node27</title>
<g id="a_Node000027"><a xlink:href="radio_8cpp.html" target="_top" xlink:title="Radio operations and the task handling them.">
<polygon fill="white" stroke="#666666" points="780,-74 718,-74 718,-55 780,-55 780,-74"/>
<text text-anchor="middle" x="749" y="-62" font-family="Helvetica,sans-Serif" font-size="10.00">radio.cpp</text>
</a>
</g>
</g>
<!-- Node11&#45;&gt;Node27 -->
<g id="edge38_Node000011_Node000027" class="edge">
<title>Node11&#45;&gt;Node27</title>
<g id="a_edge38_Node000011_Node000027"><a xlink:title=" ">
<path fill="none" stroke="#63b8ff" d="M1259.19,-117.06C1180.52,-113.11 965.91,-100.55 789,-74 786.19,-73.58 783.28,-73.08 780.38,-72.54"/>
<polygon fill="#63b8ff" stroke="#63b8ff" points="1259.21,-120.57 1269.37,-117.56 1259.56,-113.57 1259.21,-120.57"/>
</a>
</g>
</g>
<!-- Node28 -->
<g id="Node000028" class="node">
<title>Node28</title>
<g id="a_Node000028"><a xlink:href="rtc__ds3231_8c.html" target="_top" xlink:title=" ">
<polygon fill="white" stroke="#666666" points="1883,-74 1805,-74 1805,-55 1883,-55 1883,-74"/>
<text text-anchor="middle" x="1844" y="-62" font-family="Helvetica,sans-Serif" font-size="10.00">rtc_ds3231.c</text>
</a>
</g>
</g>
<!-- Node11&#45;&gt;Node28 -->
<g id="edge39_Node000011_Node000028" class="edge">
<title>Node11&#45;&gt;Node28</title>
<g id="a_edge39_Node000011_Node000028"><a xlink:title=" ">
<path fill="none" stroke="#63b8ff" d="M1320.53,-110.78C1322.04,-110.5 1323.53,-110.23 1325,-110 1532.35,-77.12 1587.71,-100.34 1796,-74 1798.85,-73.64 1801.8,-73.22 1804.76,-72.78"/>
<polygon fill="#63b8ff" stroke="#63b8ff" points="1319.66,-107.39 1310.62,-112.91 1321.13,-114.23 1319.66,-107.39"/>
</a>
</g>
</g>
<!-- Node11&#45;&gt;Node29 -->
<g id="edge40_Node000011_Node000029" class="edge">
<title>Node11&#45;&gt;Node29</title>
<g id="a_edge40_Node000011_Node000029"><a xlink:title=" ">
<path fill="none" stroke="#63b8ff" d="M1321.02,-116.55C1351.15,-114.69 1398.2,-111.91 1439,-110 1876.59,-89.52 1988.38,-120.3 2424,-74 2426.86,-73.7 2429.81,-73.32 2432.77,-72.9"/>
<polygon fill="#63b8ff" stroke="#63b8ff" points="1320.49,-113.07 1310.72,-117.18 1320.92,-120.06 1320.49,-113.07"/>
</a>
</g>
</g>
<!-- Node11&#45;&gt;Node30 -->
<g id="edge42_Node000011_Node000030" class="edge">
<title>Node11&#45;&gt;Node30</title>
<g id="a_edge42_Node000011_Node000030"><a xlink:title=" ">
<path fill="none" stroke="#63b8ff" d="M1320.63,-118.02C1486.36,-115.31 2277.14,-101.17 2520,-74 2523,-73.66 2526.11,-73.24 2529.21,-72.76"/>
<polygon fill="#63b8ff" stroke="#63b8ff" points="1320.58,-114.52 1310.63,-118.18 1320.69,-121.52 1320.58,-114.52"/>
</a>
</g>
</g>
<!-- Node31 -->
<g id="Node000031" class="node">
<title>Node31</title>
<g id="a_Node000031"><a xlink:href="timing_8c.html" target="_top" xlink:title=" ">
<polygon fill="white" stroke="#666666" points="1957,-74 1901,-74 1901,-55 1957,-55 1957,-74"/>
<text text-anchor="middle" x="1929" y="-62" font-family="Helvetica,sans-Serif" font-size="10.00">timing.c</text>
</a>
</g>
</g>
<!-- Node11&#45;&gt;Node31 -->
<g id="edge43_Node000011_Node000031" class="edge">
<title>Node11&#45;&gt;Node31</title>
<g id="a_edge43_Node000011_Node000031"><a xlink:title=" ">
<path fill="none" stroke="#63b8ff" d="M1320.53,-110.76C1322.03,-110.48 1323.53,-110.22 1325,-110 1574.64,-72.06 1642.13,-110.39 1892,-74 1894.87,-73.58 1897.85,-73.06 1900.81,-72.47"/>
<polygon fill="#63b8ff" stroke="#63b8ff" points="1319.66,-107.36 1310.61,-112.86 1321.12,-114.21 1319.66,-107.36"/>
</a>
</g>
</g>
<!-- Node32 -->
<g id="Node000032" class="node">
<title>Node32</title>
<g id="a_Node000032"><a xlink:href="user__auth_8c.html" target="_top" xlink:title=" ">
<polygon fill="white" stroke="#666666" points="871.5,-74 798.5,-74 798.5,-55 871.5,-55 871.5,-74"/>
<text text-anchor="middle" x="835" y="-62" font-family="Helvetica,sans-Serif" font-size="10.00">user_auth.c</text>
</a>
</g>
</g>
<!-- Node11&#45;&gt;Node32 -->
<g id="edge44_Node000011_Node000032" class="edge">
<title>Node11&#45;&gt;Node32</title>
<g id="a_edge44_Node000011_Node000032"><a xlink:title=" ">
<path fill="none" stroke="#63b8ff" d="M1258.97,-115.92C1190.53,-110.05 1021.54,-94.6 881,-74 877.95,-73.55 874.79,-73.05 871.62,-72.52"/>
<polygon fill="#63b8ff" stroke="#63b8ff" points="1258.81,-119.42 1269.07,-116.78 1259.41,-112.44 1258.81,-119.42"/>
</a>
</g>
</g>
<!-- Node33 -->
<g id="Node000033" class="node">
<title>Node33</title>
<g id="a_Node000033"><a xlink:href="vega__ant_8c.html" target="_top" xlink:title=" ">
<polygon fill="white" stroke="#666666" points="2045,-74 1975,-74 1975,-55 2045,-55 2045,-74"/>
<text text-anchor="middle" x="2010" y="-62" font-family="Helvetica,sans-Serif" font-size="10.00">vega_ant.c</text>
</a>
</g>
</g>
<!-- Node11&#45;&gt;Node33 -->
<g id="edge45_Node000011_Node000033" class="edge">
<title>Node11&#45;&gt;Node33</title>
<g id="a_edge45_Node000011_Node000033"><a xlink:title=" ">
<path fill="none" stroke="#63b8ff" d="M1320.52,-110.74C1322.03,-110.47 1323.53,-110.22 1325,-110 1607.25,-68.16 1682.83,-109.14 1966,-74 1968.78,-73.66 1971.65,-73.24 1974.52,-72.78"/>
<polygon fill="#63b8ff" stroke="#63b8ff" points="1319.67,-107.35 1310.61,-112.84 1321.11,-114.2 1319.67,-107.35"/>
</a>
</g>
</g>
<!-- Node34 -->
<g id="Node000034" class="node">
<title>Node34</title>
<g id="a_Node000034"><a xlink:href="watchdog_8c.html" target="_top" xlink:title=" ">
<polygon fill="white" stroke="#666666" points="2135,-74 2063,-74 2063,-55 2135,-55 2135,-74"/>
<text text-anchor="middle" x="2099" y="-62" font-family="Helvetica,sans-Serif" font-size="10.00">watchdog.c</text>
</a>
</g>
</g>
<!-- Node11&#45;&gt;Node34 -->
<g id="edge46_Node000011_Node000034" class="edge">
<title>Node11&#45;&gt;Node34</title>
<g id="a_edge46_Node000011_Node000034"><a xlink:title=" ">
<path fill="none" stroke="#63b8ff" d="M1320.52,-110.73C1322.03,-110.46 1323.53,-110.21 1325,-110 1646.05,-63.51 1731.86,-112.19 2054,-74 2056.84,-73.66 2059.78,-73.25 2062.72,-72.8"/>
<polygon fill="#63b8ff" stroke="#63b8ff" points="1319.67,-107.33 1310.6,-112.81 1321.11,-114.18 1319.67,-107.33"/>
</a>
</g>
</g>
<!-- Node22&#45;&gt;Node10 -->
<g id="edge31_Node000022_Node000010" class="edge">
<title>Node22&#45;&gt;Node10</title>
<g id="a_edge31_Node000022_Node000010"><a xlink:title=" ">
<path fill="none" stroke="#63b8ff" d="M879.76,-54.58C811.67,-44.15 700.39,-27.1 638.05,-17.55"/>
<polygon fill="#63b8ff" stroke="#63b8ff" points="879.48,-58.08 889.89,-56.13 880.54,-51.16 879.48,-58.08"/>
</a>
</g>
</g>
<!-- Node22&#45;&gt;Node21 -->
<g id="edge32_Node000022_Node000021" class="edge">
<title>Node22&#45;&gt;Node21</title>
<g id="a_edge32_Node000022_Node000021"><a xlink:title=" ">
<path fill="none" stroke="#63b8ff" d="M939.78,-44.66C940.6,-35.93 941.54,-25.99 942.19,-19.09"/>
<polygon fill="#63b8ff" stroke="#63b8ff" points="936.28,-44.46 938.83,-54.75 943.25,-45.12 936.28,-44.46"/>
</a>
</g>
</g>
<!-- Node22&#45;&gt;Node23 -->
<g id="edge33_Node000022_Node000023" class="edge">
<title>Node22&#45;&gt;Node23</title>
<g id="a_edge33_Node000022_Node000023"><a xlink:title=" ">
<path fill="none" stroke="#63b8ff" d="M964.49,-50.5C984.36,-40.75 1011,-27.68 1028.33,-19.17"/>
<polygon fill="#63b8ff" stroke="#63b8ff" points="962.79,-47.44 955.35,-54.98 965.87,-53.72 962.79,-47.44"/>
</a>
</g>
</g>
<!-- Node36&#45;&gt;Node32 -->
<g id="edge66_Node000036_Node000032" class="edge">
<title>Node36&#45;&gt;Node32</title>
<g id="a_edge66_Node000036_Node000032"><a xlink:title=" ">
<path fill="none" stroke="#63b8ff" d="M417.94,-217.27C480.42,-200.47 599.66,-166.74 698,-129 742.54,-111.91 793,-87.02 818.44,-74.07"/>
<polygon fill="#63b8ff" stroke="#63b8ff" points="416.8,-213.95 408.05,-219.91 418.61,-220.71 416.8,-213.95"/>
</a>
</g>
</g>
<!-- Node37 -->
<g id="Node000037" class="node">
<title>Node37</title>
<g id="a_Node000037"><a xlink:href="command_8h.html" target="_top" xlink:title="Handles decoding and triggering responses to received commands.">
<polygon fill="white" stroke="#666666" points="322,-184 248,-184 248,-165 322,-165 322,-184"/>
<text text-anchor="middle" x="285" y="-172" font-family="Helvetica,sans-Serif" font-size="10.00">command.h</text>
</a>
</g>
</g>
<!-- Node36&#45;&gt;Node37 -->
<g id="edge58_Node000036_Node000037" class="edge">
<title>Node36&#45;&gt;Node37</title>
<g id="a_edge58_Node000036_Node000037"><a xlink:title=" ">
<path fill="none" stroke="#63b8ff" d="M351.56,-214.7C335.16,-205.04 313.77,-192.44 299.72,-184.17"/>
<polygon fill="#63b8ff" stroke="#63b8ff" points="350.15,-217.93 360.54,-219.98 353.7,-211.89 350.15,-217.93"/>
</a>
</g>
</g>
<!-- Node37&#45;&gt;Node2 -->
<g id="edge59_Node000037_Node000002" class="edge">
<title>Node37&#45;&gt;Node2</title>
<g id="a_edge59_Node000037_Node000002"><a xlink:title=" ">
<path fill="none" stroke="#63b8ff" d="M237.86,-170.27C197.56,-165.76 139.23,-154.93 95,-129 71.3,-115.1 51.71,-88.38 42.56,-74.45"/>
<polygon fill="#63b8ff" stroke="#63b8ff" points="237.65,-173.77 247.96,-171.31 238.37,-166.81 237.65,-173.77"/>
</a>
</g>
</g>
<!-- Node37&#45;&gt;Node3 -->
<g id="edge60_Node000037_Node000003" class="edge">
<title>Node37&#45;&gt;Node3</title>
<g id="a_edge60_Node000037_Node000003"><a xlink:title=" ">
<path fill="none" stroke="#63b8ff" d="M287.47,-154.48C290.53,-130.84 295.63,-91.5 297.88,-74.16"/>
<polygon fill="#63b8ff" stroke="#63b8ff" points="283.96,-154.29 286.15,-164.66 290.9,-155.19 283.96,-154.29"/>
</a>
</g>
</g>
<!-- Node37&#45;&gt;Node6 -->
<g id="edge64_Node000037_Node000006" class="edge">
<title>Node37&#45;&gt;Node6</title>
<g id="a_edge64_Node000037_Node000006"><a xlink:title=" ">
<path fill="none" stroke="#63b8ff" d="M302.04,-157.91C327.25,-134.83 373.65,-92.37 393.54,-74.16"/>
<polygon fill="#63b8ff" stroke="#63b8ff" points="299.67,-155.33 294.66,-164.66 304.4,-160.49 299.67,-155.33"/>
</a>
</g>
</g>
<!-- Node37&#45;&gt;Node8 -->
<g id="edge62_Node000037_Node000008" class="edge">
<title>Node37&#45;&gt;Node8</title>
<g id="a_edge62_Node000037_Node000008"><a xlink:title=" ">
<path fill="none" stroke="#63b8ff" d="M252.86,-161.42C226.71,-151.59 190.41,-137.95 167.07,-129.17"/>
<polygon fill="#63b8ff" stroke="#63b8ff" points="251.75,-164.74 262.35,-164.98 254.22,-158.19 251.75,-164.74"/>
</a>
</g>
</g>
<!-- Node37&#45;&gt;Node10 -->
<g id="edge63_Node000037_Node000010" class="edge">
<title>Node37&#45;&gt;Node10</title>
<g id="a_edge63_Node000037_Node000010"><a xlink:title=" ">
<path fill="none" stroke="#63b8ff" d="M329.65,-162.25C381.9,-147.67 469.45,-118.68 534,-74 556.59,-58.37 576.67,-32.4 586.18,-19.03"/>
<polygon fill="#63b8ff" stroke="#63b8ff" points="328.73,-158.88 320.01,-164.89 330.58,-165.63 328.73,-158.88"/>
</a>
</g>
</g>
<!-- Node37&#45;&gt;Node15 -->
<g id="edge61_Node000037_Node000015" class="edge">
<title>Node37&#45;&gt;Node15</title>
<g id="a_edge61_Node000037_Node000015"><a xlink:title=" ">
<path fill="none" stroke="#63b8ff" d="M332.26,-165.09C415.25,-155.64 588.24,-166.4 644,-129 663.45,-115.96 673.11,-88.35 676.94,-74.22"/>
<polygon fill="#63b8ff" stroke="#63b8ff" points="331.58,-161.65 322.12,-166.42 332.49,-168.59 331.58,-161.65"/>
</a>
</g>
</g>
<!-- Node37&#45;&gt;Node27 -->
<g id="edge65_Node000037_Node000027" class="edge">
<title>Node37&#45;&gt;Node27</title>
<g id="a_edge65_Node000037_Node000027"><a xlink:title=" ">
<path fill="none" stroke="#63b8ff" d="M332.12,-164.99C481.73,-145.09 530.68,-183.9 667,-129 698.07,-116.49 727.28,-88.64 740.93,-74.34"/>
<polygon fill="#63b8ff" stroke="#63b8ff" points="331.54,-161.54 322.12,-166.39 332.51,-168.47 331.54,-161.54"/>
</a>
</g>
</g>
</g>
</svg>
