<?xml version="1.0" encoding="UTF-8" standalone="no"?>
<!DOCTYPE svg PUBLIC "-//W3C//DTD SVG 1.1//EN"
 "http://www.w3.org/Graphics/SVG/1.1/DTD/svg11.dtd">
<!-- Generated by graphviz version 12.1.2 (20240928.0832)
 -->
<!-- Title: filesystem.h Pages: 1 -->
<svg width="540pt" height="84pt"
 viewBox="0.00 0.00 540.25 84.00" xmlns="http://www.w3.org/2000/svg" xmlns:xlink="http://www.w3.org/1999/xlink">
<g id="graph0" class="graph" transform="scale(1 1) rotate(0) translate(4 80)">
<title>filesystem.h</title>
<!-- Node1 -->
<g id="Node000001" class="node">
<title>Node1</title>
<g id="a_Node000001"><a xlink:title=" ">
<polygon fill="#999999" stroke="#666666" points="298,-76 228.75,-76 228.75,-56 298,-56 298,-76"/>
<text text-anchor="middle" x="263.38" y="-62.5" font-family="Helvetica,sans-Serif" font-size="10.00">filesystem.h</text>
</a>
</g>
</g>
<!-- Node2 -->
<g id="Node000002" class="node">
<title>Node2</title>
<g id="a_Node000002"><a xlink:title=" ">
<polygon fill="#e0e0e0" stroke="#999999" points="70.75,-20 0,-20 0,0 70.75,0 70.75,-20"/>
<text text-anchor="middle" x="35.38" y="-6.5" font-family="Helvetica,sans-Serif" font-size="10.00">FreeRTOS.h</text>
</a>
</g>
</g>
<!-- Node1&#45;&gt;Node2 -->
<g id="edge1_Node000001_Node000002" class="edge">
<title>Node1&#45;&gt;Node2</title>
<g id="a_edge1_Node000001_Node000002"><a xlink:title=" ">
<path fill="none" stroke="#63b8ff" d="M228.75,-56.8C189.64,-47.54 125.79,-32.41 82.24,-22.1"/>
<polygon fill="#63b8ff" stroke="#63b8ff" points="83.09,-18.7 72.56,-19.81 81.48,-25.52 83.09,-18.7"/>
</a>
</g>
</g>
<!-- Node3 -->
<g id="Node000003" class="node">
<title>Node3</title>
<g id="a_Node000003"><a xlink:title=" ">
<polygon fill="#e0e0e0" stroke="#999999" points="139.62,-20 89.12,-20 89.12,0 139.62,0 139.62,-20"/>
<text text-anchor="middle" x="114.38" y="-6.5" font-family="Helvetica,sans-Serif" font-size="10.00">queue.h</text>
</a>
</g>
</g>
<!-- Node1&#45;&gt;Node3 -->
<g id="edge2_Node000001_Node000003" class="edge">
<title>Node1&#45;&gt;Node3</title>
<g id="a_edge2_Node000001_Node000003"><a xlink:title=" ">
<path fill="none" stroke="#63b8ff" d="M237.42,-55.59C213.38,-46.88 177.41,-33.84 150.56,-24.11"/>
<polygon fill="#63b8ff" stroke="#63b8ff" points="152.05,-20.93 141.45,-20.81 149.66,-27.51 152.05,-20.93"/>
</a>
</g>
</g>
<!-- Node4 -->
<g id="Node000004" class="node">
<title>Node4</title>
<g id="a_Node000004"><a xlink:title=" ">
<polygon fill="#e0e0e0" stroke="#999999" points="200.88,-20 157.88,-20 157.88,0 200.88,0 200.88,-20"/>
<text text-anchor="middle" x="179.38" y="-6.5" font-family="Helvetica,sans-Serif" font-size="10.00">task.h</text>
</a>
</g>
</g>
<!-- Node1&#45;&gt;Node4 -->
<g id="edge3_Node000001_Node000004" class="edge">
<title>Node1&#45;&gt;Node4</title>
<g id="a_edge3_Node000001_Node000004"><a xlink:title=" ">
<path fill="none" stroke="#63b8ff" d="M248.74,-55.59C236.29,-47.59 218.16,-35.93 203.55,-26.54"/>
<polygon fill="#63b8ff" stroke="#63b8ff" points="205.7,-23.76 195.39,-21.3 201.91,-29.65 205.7,-23.76"/>
</a>
</g>
</g>
<!-- Node5 -->
<g id="Node000005" class="node">
<title>Node5</title>
<g id="a_Node000005"><a xlink:title=" ">
<polygon fill="#e0e0e0" stroke="#999999" points="248.12,-20 218.62,-20 218.62,0 248.12,0 248.12,-20"/>
<text text-anchor="middle" x="233.38" y="-6.5" font-family="Helvetica,sans-Serif" font-size="10.00">ff.h</text>
</a>
</g>
</g>
<!-- Node1&#45;&gt;Node5 -->
<g id="edge4_Node000001_Node000005" class="edge">
<title>Node1&#45;&gt;Node5</title>
<g id="a_edge4_Node000001_Node000005"><a xlink:title=" ">
<path fill="none" stroke="#63b8ff" d="M258.15,-55.59C254.28,-48.63 248.87,-38.89 244.09,-30.29"/>
<polygon fill="#63b8ff" stroke="#63b8ff" points="247.19,-28.66 239.28,-21.62 241.07,-32.06 247.19,-28.66"/>
</a>
</g>
</g>
<!-- Node6 -->
<g id="Node000006" class="node">
<title>Node6</title>
<g id="a_Node000006"><a xlink:title=" ">
<polygon fill="#e0e0e0" stroke="#999999" points="322.62,-20 266.12,-20 266.12,0 322.62,0 322.62,-20"/>
<text text-anchor="middle" x="294.38" y="-6.5" font-family="Helvetica,sans-Serif" font-size="10.00">semphr.h</text>
</a>
</g>
</g>
<!-- Node1&#45;&gt;Node6 -->
<g id="edge5_Node000001_Node000006" class="edge">
<title>Node1&#45;&gt;Node6</title>
<g id="a_edge5_Node000001_Node000006"><a xlink:title=" ">
<path fill="none" stroke="#63b8ff" d="M268.77,-55.59C272.82,-48.55 278.49,-38.67 283.47,-30"/>
<polygon fill="#63b8ff" stroke="#63b8ff" points="286.34,-32.03 288.28,-21.61 280.27,-28.54 286.34,-32.03"/>
</a>
</g>
</g>
<!-- Node7 -->
<g id="Node000007" class="node">
<title>Node7</title>
<g id="a_Node000007"><a xlink:title=" ">
<polygon fill="#e0e0e0" stroke="#999999" points="392,-20 340.75,-20 340.75,0 392,0 392,-20"/>
<text text-anchor="middle" x="366.38" y="-6.5" font-family="Helvetica,sans-Serif" font-size="10.00">stddef.h</text>
</a>
</g>
</g>
<!-- Node1&#45;&gt;Node7 -->
<g id="edge6_Node000001_Node000007" class="edge">
<title>Node1&#45;&gt;Node7</title>
<g id="a_edge6_Node000001_Node000007"><a xlink:title=" ">
<path fill="none" stroke="#63b8ff" d="M281.32,-55.59C297.02,-47.36 320.11,-35.26 338.26,-25.74"/>
<polygon fill="#63b8ff" stroke="#63b8ff" points="339.72,-28.93 346.95,-21.18 336.47,-22.73 339.72,-28.93"/>
</a>
</g>
</g>
<!-- Node8 -->
<g id="Node000008" class="node">
<title>Node8</title>
<g id="a_Node000008"><a xlink:title=" ">
<polygon fill="#e0e0e0" stroke="#999999" points="458.5,-20 410.25,-20 410.25,0 458.5,0 458.5,-20"/>
<text text-anchor="middle" x="434.38" y="-6.5" font-family="Helvetica,sans-Serif" font-size="10.00">stdint.h</text>
</a>
</g>
</g>
<!-- Node1&#45;&gt;Node8 -->
<g id="edge7_Node000001_Node000008" class="edge">
<title>Node1&#45;&gt;Node8</title>
<g id="a_edge7_Node000001_Node000008"><a xlink:title=" ">
<path fill="none" stroke="#63b8ff" d="M293.16,-55.59C322.65,-46.28 367.79,-32.03 399.07,-22.15"/>
<polygon fill="#63b8ff" stroke="#63b8ff" points="399.98,-25.53 408.47,-19.18 397.88,-18.86 399.98,-25.53"/>
</a>
</g>
</g>
<!-- Node9 -->
<g id="Node000009" class="node">
<title>Node9</title>
<g id="a_Node000009"><a xlink:title=" ">
<polygon fill="#e0e0e0" stroke="#999999" points="532.25,-20 476.5,-20 476.5,0 532.25,0 532.25,-20"/>
<text text-anchor="middle" x="504.38" y="-6.5" font-family="Helvetica,sans-Serif" font-size="10.00">stdbool.h</text>
</a>
</g>
</g>
<!-- Node1&#45;&gt;Node9 -->
<g id="edge8_Node000001_Node000009" class="edge">
<title>Node1&#45;&gt;Node9</title>
<g id="a_edge8_Node000001_Node000009"><a xlink:title=" ">
<path fill="none" stroke="#63b8ff" d="M298.44,-57.5C336.9,-49.23 400.73,-35.35 464.96,-20.52"/>
<polygon fill="#63b8ff" stroke="#63b8ff" points="465.68,-23.95 474.63,-18.28 464.1,-17.13 465.68,-23.95"/>
</a>
</g>
</g>
</g>
</svg>
