<?xml version="1.0" encoding="UTF-8" standalone="no"?>
<!DOCTYPE svg PUBLIC "-//W3C//DTD SVG 1.1//EN"
 "http://www.w3.org/Graphics/SVG/1.1/DTD/svg11.dtd">
<!-- Generated by graphviz version 2.43.0 (0)
 -->
<!-- Title: file_downlink.c Pages: 1 -->
<svg width="924pt" height="302pt"
 viewBox="0.00 0.00 924.00 302.00" xmlns="http://www.w3.org/2000/svg" xmlns:xlink="http://www.w3.org/1999/xlink">
<g id="graph0" class="graph" transform="scale(1 1) rotate(0) translate(4 298)">
<title>file_downlink.c</title>
<!-- Node1 -->
<g id="Node000001" class="node">
<title>Node1</title>
<g id="a_Node000001"><a xlink:title=" ">
<polygon fill="#999999" stroke="#666666" points="575,-294 486,-294 486,-275 575,-275 575,-294"/>
<text text-anchor="middle" x="530.5" y="-282" font-family="Helvetica,sans-Serif" font-size="10.00">file_downlink.c</text>
</a>
</g>
</g>
<!-- Node2 -->
<g id="Node000002" class="node">
<title>Node2</title>
<g id="a_Node000002"><a xlink:href="file__downlink_8h.html" target="_top" xlink:title=" ">
<polygon fill="white" stroke="#666666" points="419.5,-129 329.5,-129 329.5,-110 419.5,-110 419.5,-129"/>
<text text-anchor="middle" x="374.5" y="-117" font-family="Helvetica,sans-Serif" font-size="10.00">file_downlink.h</text>
</a>
</g>
</g>
<!-- Node1&#45;&gt;Node2 -->
<g id="edge1_Node000001_Node000002" class="edge">
<title>Node1&#45;&gt;Node2</title>
<g id="a_edge1_Node000001_Node000002"><a xlink:title=" ">
<path fill="none" stroke="#63b8ff" d="M510.78,-274.99C480.43,-260.81 422.7,-229.36 393.5,-184 384.74,-170.39 379.87,-152.57 377.26,-139.28"/>
<polygon fill="#63b8ff" stroke="#63b8ff" points="380.7,-138.63 375.57,-129.36 373.8,-139.81 380.7,-138.63"/>
</a>
</g>
</g>
<!-- Node3 -->
<g id="Node000003" class="node">
<title>Node3</title>
<g id="a_Node000003"><a xlink:title=" ">
<polygon fill="#e0e0e0" stroke="#999999" points="784.5,-19 712.5,-19 712.5,0 784.5,0 784.5,-19"/>
<text text-anchor="middle" x="748.5" y="-7" font-family="Helvetica,sans-Serif" font-size="10.00">FreeRTOS.h</text>
</a>
</g>
</g>
<!-- Node1&#45;&gt;Node3 -->
<g id="edge27_Node000001_Node000003" class="edge">
<title>Node1&#45;&gt;Node3</title>
<g id="a_edge27_Node000001_Node000003"><a xlink:title=" ">
<path fill="none" stroke="#63b8ff" d="M571.8,-274.92C619.8,-262.24 692.5,-233.47 692.5,-175.5 692.5,-175.5 692.5,-175.5 692.5,-118.5 692.5,-82.65 717.12,-46.86 733.71,-26.81"/>
<polygon fill="#63b8ff" stroke="#63b8ff" points="736.37,-29.09 740.24,-19.23 731.06,-24.52 736.37,-29.09"/>
</a>
</g>
</g>
<!-- Node6 -->
<g id="Node000006" class="node">
<title>Node6</title>
<g id="a_Node000006"><a xlink:title=" ">
<polygon fill="#e0e0e0" stroke="#999999" points="47,-19 0,-19 0,0 47,0 47,-19"/>
<text text-anchor="middle" x="23.5" y="-7" font-family="Helvetica,sans-Serif" font-size="10.00">task.h</text>
</a>
</g>
</g>
<!-- Node1&#45;&gt;Node6 -->
<g id="edge28_Node000001_Node000006" class="edge">
<title>Node1&#45;&gt;Node6</title>
<g id="a_edge28_Node000001_Node000006"><a xlink:title=" ">
<path fill="none" stroke="#63b8ff" d="M485.61,-282.24C371.53,-277.83 79.5,-258.43 79.5,-175.5 79.5,-175.5 79.5,-175.5 79.5,-118.5 79.5,-82.65 54.88,-46.86 38.29,-26.81"/>
<polygon fill="#63b8ff" stroke="#63b8ff" points="40.94,-24.52 31.76,-19.23 35.63,-29.09 40.94,-24.52"/>
</a>
</g>
</g>
<!-- Node13 -->
<g id="Node000013" class="node">
<title>Node13</title>
<g id="a_Node000013"><a xlink:href="timing_8h.html" target="_top" xlink:title=" ">
<polygon fill="white" stroke="#666666" points="588,-74 531,-74 531,-55 588,-55 588,-74"/>
<text text-anchor="middle" x="559.5" y="-62" font-family="Helvetica,sans-Serif" font-size="10.00">timing.h</text>
</a>
</g>
</g>
<!-- Node1&#45;&gt;Node13 -->
<g id="edge14_Node000001_Node000013" class="edge">
<title>Node1&#45;&gt;Node13</title>
<g id="a_edge14_Node000001_Node000013"><a xlink:title=" ">
<path fill="none" stroke="#63b8ff" d="M531.64,-274.95C535.89,-242.95 550.96,-129.68 556.99,-84.4"/>
<polygon fill="#63b8ff" stroke="#63b8ff" points="560.49,-84.6 558.34,-74.22 553.55,-83.67 560.49,-84.6"/>
</a>
</g>
</g>
<!-- Node15 -->
<g id="Node000015" class="node">
<title>Node15</title>
<g id="a_Node000015"><a xlink:href="telemetry_8h.html" target="_top" xlink:title="Functions for packaging and queuing telemetry packets for sending.">
<polygon fill="white" stroke="#666666" points="474.5,-184 402.5,-184 402.5,-165 474.5,-165 474.5,-184"/>
<text text-anchor="middle" x="438.5" y="-172" font-family="Helvetica,sans-Serif" font-size="10.00">telemetry.h</text>
</a>
</g>
</g>
<!-- Node1&#45;&gt;Node15 -->
<g id="edge19_Node000001_Node000015" class="edge">
<title>Node1&#45;&gt;Node15</title>
<g id="a_edge19_Node000001_Node000015"><a xlink:title=" ">
<path fill="none" stroke="#63b8ff" d="M515.74,-274.72C503.09,-266.64 484.99,-253.71 472.5,-239 460.88,-225.31 451.59,-207 445.68,-193.56"/>
<polygon fill="#63b8ff" stroke="#63b8ff" points="448.78,-191.88 441.69,-184 442.32,-194.58 448.78,-191.88"/>
</a>
</g>
</g>
<!-- Node16 -->
<g id="Node000016" class="node">
<title>Node16</title>
<g id="a_Node000016"><a xlink:href="log_8h.html" target="_top" xlink:title=" ">
<polygon fill="white" stroke="#666666" points="523,-239 482,-239 482,-220 523,-220 523,-239"/>
<text text-anchor="middle" x="502.5" y="-227" font-family="Helvetica,sans-Serif" font-size="10.00">log.h</text>
</a>
</g>
</g>
<!-- Node1&#45;&gt;Node16 -->
<g id="edge23_Node000001_Node000016" class="edge">
<title>Node1&#45;&gt;Node16</title>
<g id="a_edge23_Node000001_Node000016"><a xlink:title=" ">
<path fill="none" stroke="#63b8ff" d="M525.88,-274.75C522.04,-267.49 516.48,-256.95 511.74,-247.98"/>
<polygon fill="#63b8ff" stroke="#63b8ff" points="514.8,-246.3 507.04,-239.09 508.61,-249.57 514.8,-246.3"/>
</a>
</g>
</g>
<!-- Node17 -->
<g id="Node000017" class="node">
<title>Node17</title>
<g id="a_Node000017"><a xlink:href="file__downlink__codes_8h.html" target="_top" xlink:title=" ">
<polygon fill="white" stroke="#666666" points="844.5,-239 720.5,-239 720.5,-220 844.5,-220 844.5,-239"/>
<text text-anchor="middle" x="782.5" y="-227" font-family="Helvetica,sans-Serif" font-size="10.00">file_downlink_codes.h</text>
</a>
</g>
</g>
<!-- Node1&#45;&gt;Node17 -->
<g id="edge26_Node000001_Node000017" class="edge">
<title>Node1&#45;&gt;Node17</title>
<g id="a_edge26_Node000001_Node000017"><a xlink:title=" ">
<path fill="none" stroke="#63b8ff" d="M570.99,-274.98C614.67,-265.8 684.31,-251.15 731.65,-241.19"/>
<polygon fill="#63b8ff" stroke="#63b8ff" points="732.63,-244.57 741.69,-239.08 731.19,-237.72 732.63,-244.57"/>
</a>
</g>
</g>
<!-- Node18 -->
<g id="Node000018" class="node">
<title>Node18</title>
<g id="a_Node000018"><a xlink:title=" ">
<polygon fill="#e0e0e0" stroke="#999999" points="916,-239 863,-239 863,-220 916,-220 916,-239"/>
<text text-anchor="middle" x="889.5" y="-227" font-family="Helvetica,sans-Serif" font-size="10.00">string.h</text>
</a>
</g>
</g>
<!-- Node1&#45;&gt;Node18 -->
<g id="edge29_Node000001_Node000018" class="edge">
<title>Node1&#45;&gt;Node18</title>
<g id="a_edge29_Node000001_Node000018"><a xlink:title=" ">
<path fill="none" stroke="#63b8ff" d="M575.13,-278.71C635.75,-271.9 747.69,-258.28 852.98,-238.93"/>
<polygon fill="#63b8ff" stroke="#63b8ff" points="853.63,-242.37 862.82,-237.1 852.35,-235.48 853.63,-242.37"/>
</a>
</g>
</g>
<!-- Node2&#45;&gt;Node3 -->
<g id="edge2_Node000002_Node000003" class="edge">
<title>Node2&#45;&gt;Node3</title>
<g id="a_edge2_Node000002_Node000003"><a xlink:title=" ">
<path fill="none" stroke="#63b8ff" d="M419.65,-112.46C465.22,-105.68 537.28,-93.06 597.5,-74 617.42,-67.7 621.28,-63.2 640.5,-55 666.54,-43.88 696.3,-31.66 717.98,-22.84"/>
<polygon fill="#63b8ff" stroke="#63b8ff" points="719.38,-26.05 727.33,-19.04 716.74,-19.56 719.38,-26.05"/>
</a>
</g>
</g>
<!-- Node4 -->
<g id="Node000004" class="node">
<title>Node4</title>
<g id="a_Node000004"><a xlink:title=" ">
<polygon fill="#e0e0e0" stroke="#999999" points="121.5,-19 65.5,-19 65.5,0 121.5,0 121.5,-19"/>
<text text-anchor="middle" x="93.5" y="-7" font-family="Helvetica,sans-Serif" font-size="10.00">queue.h</text>
</a>
</g>
</g>
<!-- Node2&#45;&gt;Node4 -->
<g id="edge3_Node000002_Node000004" class="edge">
<title>Node2&#45;&gt;Node4</title>
<g id="a_edge3_Node000002_Node000004"><a xlink:title=" ">
<path fill="none" stroke="#63b8ff" d="M351.98,-109.84C302.22,-90.72 182.79,-44.82 125.38,-22.75"/>
<polygon fill="#63b8ff" stroke="#63b8ff" points="126.33,-19.37 115.74,-19.05 123.82,-25.9 126.33,-19.37"/>
</a>
</g>
</g>
<!-- Node5 -->
<g id="Node000005" class="node">
<title>Node5</title>
<g id="a_Node000005"><a xlink:href="filesystem_8h.html" target="_top" xlink:title="Handles file system operations and management.">
<polygon fill="white" stroke="#666666" points="394,-74 317,-74 317,-55 394,-55 394,-74"/>
<text text-anchor="middle" x="355.5" y="-62" font-family="Helvetica,sans-Serif" font-size="10.00">filesystem.h</text>
</a>
</g>
</g>
<!-- Node2&#45;&gt;Node5 -->
<g id="edge4_Node000002_Node000005" class="edge">
<title>Node2&#45;&gt;Node5</title>
<g id="a_edge4_Node000002_Node000005"><a xlink:title=" ">
<path fill="none" stroke="#63b8ff" d="M371.36,-109.75C368.82,-102.65 365.14,-92.4 361.97,-83.56"/>
<polygon fill="#63b8ff" stroke="#63b8ff" points="365.25,-82.32 358.58,-74.09 358.66,-84.68 365.25,-82.32"/>
</a>
</g>
</g>
<!-- Node5&#45;&gt;Node3 -->
<g id="edge5_Node000005_Node000003" class="edge">
<title>Node5&#45;&gt;Node3</title>
<g id="a_edge5_Node000005_Node000003"><a xlink:title=" ">
<path fill="none" stroke="#63b8ff" d="M394.23,-59.31C456.84,-52.37 584.38,-37.55 702.27,-19.11"/>
<polygon fill="#63b8ff" stroke="#63b8ff" points="702.85,-22.57 712.18,-17.55 701.76,-15.65 702.85,-22.57"/>
</a>
</g>
</g>
<!-- Node5&#45;&gt;Node4 -->
<g id="edge6_Node000005_Node000004" class="edge">
<title>Node5&#45;&gt;Node4</title>
<g id="a_edge6_Node000005_Node000004"><a xlink:title=" ">
<path fill="none" stroke="#63b8ff" d="M316.81,-56.22C273.94,-48.07 202.51,-34.25 131.74,-19.22"/>
<polygon fill="#63b8ff" stroke="#63b8ff" points="132.27,-15.75 121.76,-17.09 130.81,-22.6 132.27,-15.75"/>
</a>
</g>
</g>
<!-- Node5&#45;&gt;Node6 -->
<g id="edge7_Node000005_Node000006" class="edge">
<title>Node5&#45;&gt;Node6</title>
<g id="a_edge7_Node000005_Node000006"><a xlink:title=" ">
<path fill="none" stroke="#63b8ff" d="M316.57,-59.02C261.14,-52.36 156.13,-38.68 57.1,-18.92"/>
<polygon fill="#63b8ff" stroke="#63b8ff" points="57.72,-15.48 47.22,-16.93 56.33,-22.34 57.72,-15.48"/>
</a>
</g>
</g>
<!-- Node7 -->
<g id="Node000007" class="node">
<title>Node7</title>
<g id="a_Node000007"><a xlink:title=" ">
<polygon fill="#e0e0e0" stroke="#999999" points="245.5,-19 213.5,-19 213.5,0 245.5,0 245.5,-19"/>
<text text-anchor="middle" x="229.5" y="-7" font-family="Helvetica,sans-Serif" font-size="10.00">ff.h</text>
</a>
</g>
</g>
<!-- Node5&#45;&gt;Node7 -->
<g id="edge8_Node000005_Node000007" class="edge">
<title>Node5&#45;&gt;Node7</title>
<g id="a_edge8_Node000005_Node000007"><a xlink:title=" ">
<path fill="none" stroke="#63b8ff" d="M335.26,-54.98C313.46,-45.82 278.75,-31.22 255.08,-21.26"/>
<polygon fill="#63b8ff" stroke="#63b8ff" points="256.26,-17.96 245.69,-17.31 253.55,-24.41 256.26,-17.96"/>
</a>
</g>
</g>
<!-- Node8 -->
<g id="Node000008" class="node">
<title>Node8</title>
<g id="a_Node000008"><a xlink:href="filesystem__errors_8h.html" target="_top" xlink:title=" ">
<polygon fill="white" stroke="#666666" points="373.5,-19 263.5,-19 263.5,0 373.5,0 373.5,-19"/>
<text text-anchor="middle" x="318.5" y="-7" font-family="Helvetica,sans-Serif" font-size="10.00">filesystem_errors.h</text>
</a>
</g>
</g>
<!-- Node5&#45;&gt;Node8 -->
<g id="edge9_Node000005_Node000008" class="edge">
<title>Node5&#45;&gt;Node8</title>
<g id="a_edge9_Node000005_Node000008"><a xlink:title=" ">
<path fill="none" stroke="#63b8ff" d="M349.39,-54.75C344.22,-47.34 336.65,-36.5 330.31,-27.41"/>
<polygon fill="#63b8ff" stroke="#63b8ff" points="333.09,-25.29 324.5,-19.09 327.35,-29.29 333.09,-25.29"/>
</a>
</g>
</g>
<!-- Node9 -->
<g id="Node000009" class="node">
<title>Node9</title>
<g id="a_Node000009"><a xlink:title=" ">
<polygon fill="#e0e0e0" stroke="#999999" points="533.5,-19 471.5,-19 471.5,0 533.5,0 533.5,-19"/>
<text text-anchor="middle" x="502.5" y="-7" font-family="Helvetica,sans-Serif" font-size="10.00">semphr.h</text>
</a>
</g>
</g>
<!-- Node5&#45;&gt;Node9 -->
<g id="edge10_Node000005_Node000009" class="edge">
<title>Node5&#45;&gt;Node9</title>
<g id="a_edge10_Node000005_Node000009"><a xlink:title=" ">
<path fill="none" stroke="#63b8ff" d="M379.12,-54.98C403.4,-46.23 441.45,-32.51 468.87,-22.62"/>
<polygon fill="#63b8ff" stroke="#63b8ff" points="470.23,-25.85 478.45,-19.17 467.86,-19.27 470.23,-25.85"/>
</a>
</g>
</g>
<!-- Node10 -->
<g id="Node000010" class="node">
<title>Node10</title>
<g id="a_Node000010"><a xlink:title=" ">
<polygon fill="#e0e0e0" stroke="#999999" points="195.5,-19 139.5,-19 139.5,0 195.5,0 195.5,-19"/>
<text text-anchor="middle" x="167.5" y="-7" font-family="Helvetica,sans-Serif" font-size="10.00">stddef.h</text>
</a>
</g>
</g>
<!-- Node5&#45;&gt;Node10 -->
<g id="edge11_Node000005_Node000010" class="edge">
<title>Node5&#45;&gt;Node10</title>
<g id="a_edge11_Node000005_Node000010"><a xlink:title=" ">
<path fill="none" stroke="#63b8ff" d="M325.29,-54.98C292.8,-45.82 241.04,-31.23 205.73,-21.28"/>
<polygon fill="#63b8ff" stroke="#63b8ff" points="206.36,-17.82 195.79,-18.47 204.46,-24.56 206.36,-17.82"/>
</a>
</g>
</g>
<!-- Node11 -->
<g id="Node000011" class="node">
<title>Node11</title>
<g id="a_Node000011"><a xlink:title=" ">
<polygon fill="#e0e0e0" stroke="#999999" points="605,-19 552,-19 552,0 605,0 605,-19"/>
<text text-anchor="middle" x="578.5" y="-7" font-family="Helvetica,sans-Serif" font-size="10.00">stdint.h</text>
</a>
</g>
</g>
<!-- Node5&#45;&gt;Node11 -->
<g id="edge12_Node000005_Node000011" class="edge">
<title>Node5&#45;&gt;Node11</title>
<g id="a_edge12_Node000005_Node000011"><a xlink:title=" ">
<path fill="none" stroke="#63b8ff" d="M391.33,-54.98C432.73,-45.14 500.49,-29.04 542.12,-19.15"/>
<polygon fill="#63b8ff" stroke="#63b8ff" points="542.94,-22.55 551.86,-16.83 541.32,-15.74 542.94,-22.55"/>
</a>
</g>
</g>
<!-- Node12 -->
<g id="Node000012" class="node">
<title>Node12</title>
<g id="a_Node000012"><a xlink:title=" ">
<polygon fill="#e0e0e0" stroke="#999999" points="453.5,-19 391.5,-19 391.5,0 453.5,0 453.5,-19"/>
<text text-anchor="middle" x="422.5" y="-7" font-family="Helvetica,sans-Serif" font-size="10.00">stdbool.h</text>
</a>
</g>
</g>
<!-- Node5&#45;&gt;Node12 -->
<g id="edge13_Node000005_Node000012" class="edge">
<title>Node5&#45;&gt;Node12</title>
<g id="a_edge13_Node000005_Node000012"><a xlink:title=" ">
<path fill="none" stroke="#63b8ff" d="M366.26,-54.98C376.27,-47.07 391.39,-35.11 403.43,-25.58"/>
<polygon fill="#63b8ff" stroke="#63b8ff" points="405.87,-28.12 411.54,-19.17 401.53,-22.63 405.87,-28.12"/>
</a>
</g>
</g>
<!-- Node13&#45;&gt;Node3 -->
<g id="edge15_Node000013_Node000003" class="edge">
<title>Node13&#45;&gt;Node3</title>
<g id="a_edge15_Node000013_Node000003"><a xlink:title=" ">
<path fill="none" stroke="#63b8ff" d="M588.21,-55.45C620.2,-46.48 672.18,-31.9 708.24,-21.79"/>
<polygon fill="#63b8ff" stroke="#63b8ff" points="709.27,-25.14 717.96,-19.07 707.38,-18.4 709.27,-25.14"/>
</a>
</g>
</g>
<!-- Node13&#45;&gt;Node9 -->
<g id="edge17_Node000013_Node000009" class="edge">
<title>Node13&#45;&gt;Node9</title>
<g id="a_edge17_Node000013_Node000009"><a xlink:title=" ">
<path fill="none" stroke="#63b8ff" d="M550.34,-54.98C542,-47.23 529.47,-35.58 519.32,-26.14"/>
<polygon fill="#63b8ff" stroke="#63b8ff" points="521.53,-23.42 511.82,-19.17 516.76,-28.54 521.53,-23.42"/>
</a>
</g>
</g>
<!-- Node13&#45;&gt;Node11 -->
<g id="edge16_Node000013_Node000011" class="edge">
<title>Node13&#45;&gt;Node11</title>
<g id="a_edge16_Node000013_Node000011"><a xlink:title=" ">
<path fill="none" stroke="#63b8ff" d="M562.64,-54.75C565.18,-47.65 568.86,-37.4 572.03,-28.56"/>
<polygon fill="#63b8ff" stroke="#63b8ff" points="575.34,-29.68 575.42,-19.09 568.75,-27.32 575.34,-29.68"/>
</a>
</g>
</g>
<!-- Node14 -->
<g id="Node000014" class="node">
<title>Node14</title>
<g id="a_Node000014"><a xlink:title=" ">
<polygon fill="#e0e0e0" stroke="#999999" points="694,-19 623,-19 623,0 694,0 694,-19"/>
<text text-anchor="middle" x="658.5" y="-7" font-family="Helvetica,sans-Serif" font-size="10.00">pico/time.h</text>
</a>
</g>
</g>
<!-- Node13&#45;&gt;Node14 -->
<g id="edge18_Node000013_Node000014" class="edge">
<title>Node13&#45;&gt;Node14</title>
<g id="a_edge18_Node000013_Node000014"><a xlink:title=" ">
<path fill="none" stroke="#63b8ff" d="M575.41,-54.98C591.05,-46.61 615.16,-33.7 633.38,-23.95"/>
<polygon fill="#63b8ff" stroke="#63b8ff" points="635.14,-26.98 642.3,-19.17 631.84,-20.8 635.14,-26.98"/>
</a>
</g>
</g>
<!-- Node15&#45;&gt;Node2 -->
<g id="edge22_Node000015_Node000002" class="edge">
<title>Node15&#45;&gt;Node2</title>
<g id="a_edge22_Node000015_Node000002"><a xlink:title=" ">
<path fill="none" stroke="#63b8ff" d="M428.22,-164.98C418.66,-157.07 404.22,-145.11 392.72,-135.58"/>
<polygon fill="#63b8ff" stroke="#63b8ff" points="394.9,-132.85 384.97,-129.17 390.44,-138.24 394.9,-132.85"/>
</a>
</g>
</g>
<!-- Node15&#45;&gt;Node3 -->
<g id="edge20_Node000015_Node000003" class="edge">
<title>Node15&#45;&gt;Node3</title>
<g id="a_edge20_Node000015_Node000003"><a xlink:title=" ">
<path fill="none" stroke="#63b8ff" d="M455.71,-164.87C489.66,-147.8 567.62,-108.39 632.5,-74 664.41,-57.08 700.91,-36.98 724.31,-23.99"/>
<polygon fill="#63b8ff" stroke="#63b8ff" points="726.15,-26.97 733.18,-19.06 722.74,-20.86 726.15,-26.97"/>
</a>
</g>
</g>
<!-- Node15&#45;&gt;Node4 -->
<g id="edge21_Node000015_Node000004" class="edge">
<title>Node15&#45;&gt;Node4</title>
<g id="a_edge21_Node000015_Node000004"><a xlink:title=" ">
<path fill="none" stroke="#63b8ff" d="M413.3,-164.94C389.18,-156.52 351.92,-142.94 320.5,-129 244.32,-95.19 157.98,-47.35 117.21,-24.16"/>
<polygon fill="#63b8ff" stroke="#63b8ff" points="118.74,-21 108.32,-19.08 115.26,-27.08 118.74,-21"/>
</a>
</g>
</g>
<!-- Node16&#45;&gt;Node12 -->
<g id="edge25_Node000016_Node000012" class="edge">
<title>Node16&#45;&gt;Node12</title>
<g id="a_edge25_Node000016_Node000012"><a xlink:title=" ">
<path fill="none" stroke="#63b8ff" d="M500.15,-219.8C496.77,-207.49 490.2,-184.36 483.5,-165 466.18,-114.98 442.34,-57.26 430.23,-28.6"/>
<polygon fill="#63b8ff" stroke="#63b8ff" points="433.33,-26.95 426.2,-19.11 426.89,-29.69 433.33,-26.95"/>
</a>
</g>
</g>
<!-- Node16&#45;&gt;Node15 -->
<g id="edge24_Node000016_Node000015" class="edge">
<title>Node16&#45;&gt;Node15</title>
<g id="a_edge24_Node000016_Node000015"><a xlink:title=" ">
<path fill="none" stroke="#63b8ff" d="M492.22,-219.98C482.66,-212.07 468.22,-200.11 456.72,-190.58"/>
<polygon fill="#63b8ff" stroke="#63b8ff" points="458.9,-187.85 448.97,-184.17 454.44,-193.24 458.9,-187.85"/>
</a>
</g>
</g>
</g>
</svg>
