<?xml version="1.0" encoding="UTF-8" standalone="no"?>
<!DOCTYPE svg PUBLIC "-//W3C//DTD SVG 1.1//EN"
 "http://www.w3.org/Graphics/SVG/1.1/DTD/svg11.dtd">
<!-- Generated by graphviz version 2.43.0 (0)
 -->
<!-- Title: filesystem.h Pages: 1 -->
<!--zoomable 302 -->

<svg id="main" version="1.1" xmlns="http://www.w3.org/2000/svg" xmlns:xlink="http://www.w3.org/1999/xlink" xml:space="preserve" onload="init(evt)">

<style type="text/css"><![CDATA[
.node, .edge {opacity: 0.7;}
.node.selected, .edge.selected {opacity: 1;}
.edge:hover path { stroke: red; }
.edge:hover polygon { stroke: red; fill: red; }
]]></style>

<defs>
  <circle id="rim" cx="0" cy="0" r="7"/>
  <circle id="rim2" cx="0" cy="0" r="3.5"/>
  <g id="zoomPlus">
    <use xlink:href="#rim" fill="#404040"><set attributeName="fill" to="#808080" begin="zoomplus.mouseover" end="zoomplus.mouseout"/></use>
    <path d="M-4,0h8M0,-4v8" fill="none" stroke="white" stroke-width="1.5" pointer-events="none"/>
  </g>
  <g id="zoomMin">
    <use xlink:href="#rim" fill="#404040"><set attributeName="fill" to="#808080" begin="zoomminus.mouseover" end="zoomminus.mouseout"/></use>
    <path d="M-4,0h8" fill="none" stroke="white" stroke-width="1.5" pointer-events="none"/>
  </g>
  <g id="arrowUp" transform="translate(30 24)">
    <use xlink:href="#rim"/>
    <path pointer-events="none" fill="none" stroke="white" stroke-width="1.5" d="M0,-3.0v7 M-2.5,-0.5L0,-3.0L2.5,-0.5"/>
  </g>
  <g id="arrowRight" transform="rotate(90) translate(36 -43)">
    <use xlink:href="#rim"/>
    <path pointer-events="none" fill="none" stroke="white" stroke-width="1.5" d="M0,-3.0v7 M-2.5,-0.5L0,-3.0L2.5,-0.5"/>
  </g>
  <g id="arrowDown" transform="rotate(180) translate(-30 -48)">
    <use xlink:href="#rim"/>
    <path pointer-events="none" fill="none" stroke="white" stroke-width="1.5" d="M0,-3.0v7 M-2.5,-0.5L0,-3.0L2.5,-0.5"/>
  </g>
  <g id="arrowLeft" transform="rotate(270) translate(-36 17)">
    <use xlink:href="#rim"/>
    <path pointer-events="none" fill="none" stroke="white" stroke-width="1.5" d="M0,-3.0v7 M-2.5,-0.5L0,-3.0L2.5,-0.5"/>
  </g>
  <g id="resetDef">
    <use xlink:href="#rim2" fill="#404040"><set attributeName="fill" to="#808080" begin="reset.mouseover" end="reset.mouseout"/></use>
  </g>
</defs>
<script type="application/ecmascript">
var viewWidth = 2605;
var viewHeight = 302;
var sectionId = 'dynsection-1';
</script>
<script type="application/ecmascript" xlink:href="svg.min.js"/>
<svg id="graph" class="graph">
<g id="viewport">
<title>filesystem.h</title>
<!-- Node1 -->
<g id="Node000001" class="node">
<title>Node1</title>
<g id="a_Node000001"><a xlink:title="Handles file system operations and management.">
<polygon fill="#999999" stroke="#666666" points="572.5,-294 495.5,-294 495.5,-275 572.5,-275 572.5,-294"/>
<text text-anchor="middle" x="534" y="-282" font-family="Helvetica,sans-Serif" font-size="10.00">filesystem.h</text>
</a>
</g>
</g>
<!-- Node2 -->
<g id="Node000002" class="node">
<title>Node2</title>
<g id="a_Node000002"><a xlink:href="command_8c.html" target="_top" xlink:title=" ">
<polygon fill="white" stroke="#666666" points="74,-74 0,-74 0,-55 74,-55 74,-74"/>
<text text-anchor="middle" x="37" y="-62" font-family="Helvetica,sans-Serif" font-size="10.00">command.c</text>
</a>
</g>
</g>
<!-- Node1&#45;&gt;Node2 -->
<g id="edge1_Node000001_Node000002" class="edge">
<title>Node1&#45;&gt;Node2</title>
<g id="a_edge1_Node000001_Node000002"><a xlink:title=" ">
<path fill="none" stroke="#63b8ff" d="M485.46,-281.47C377.13,-276.52 122.74,-262.53 92,-239 38.05,-197.71 35.92,-103.4 36.63,-74.25"/>
<polygon fill="#63b8ff" stroke="#63b8ff" points="485.32,-284.96 495.47,-281.92 485.64,-277.97 485.32,-284.96"/>
</a>
</g>
</g>
<!-- Node3 -->
<g id="Node000003" class="node">
<title>Node3</title>
<g id="a_Node000003"><a xlink:href="command__fuzzer_8cpp.html" target="_top" xlink:title=" ">
<polygon fill="white" stroke="#666666" points="359,-74 239,-74 239,-55 359,-55 359,-74"/>
<text text-anchor="middle" x="299" y="-62" font-family="Helvetica,sans-Serif" font-size="10.00">command_fuzzer.cpp</text>
</a>
</g>
</g>
<!-- Node1&#45;&gt;Node3 -->
<g id="edge2_Node000001_Node000003" class="edge">
<title>Node1&#45;&gt;Node3</title>
<g id="a_edge2_Node000001_Node000003"><a xlink:title=" ">
<path fill="none" stroke="#63b8ff" d="M485.17,-277.66C442.55,-271.47 379.62,-259.66 328,-239 284.48,-221.58 260.93,-224.89 238,-184 215.36,-143.64 265.33,-94.01 288.27,-74.24"/>
<polygon fill="#63b8ff" stroke="#63b8ff" points="484.89,-281.16 495.28,-279.08 485.86,-274.22 484.89,-281.16"/>
</a>
</g>
</g>
<!-- Node4 -->
<g id="Node000004" class="node">
<title>Node4</title>
<g id="a_Node000004"><a xlink:href="file__downlink_8h.html" target="_top" xlink:title=" ">
<polygon fill="white" stroke="#666666" points="191,-239 101,-239 101,-220 191,-220 191,-239"/>
<text text-anchor="middle" x="146" y="-227" font-family="Helvetica,sans-Serif" font-size="10.00">file_downlink.h</text>
</a>
</g>
</g>
<!-- Node1&#45;&gt;Node4 -->
<g id="edge3_Node000001_Node000004" class="edge">
<title>Node1&#45;&gt;Node4</title>
<g id="a_edge3_Node000001_Node000004"><a xlink:title=" ">
<path fill="none" stroke="#63b8ff" d="M485.26,-277.04C421.02,-268.5 304.5,-252.9 205,-239 200.49,-238.37 195.79,-237.71 191.09,-237.04"/>
<polygon fill="#63b8ff" stroke="#63b8ff" points="485.12,-280.55 495.49,-278.4 486.04,-273.61 485.12,-280.55"/>
</a>
</g>
</g>
<!-- Node6 -->
<g id="Node000006" class="node">
<title>Node6</title>
<g id="a_Node000006"><a xlink:href="main_8c.html" target="_top" xlink:title=" ">
<polygon fill="white" stroke="#666666" points="427,-74 377,-74 377,-55 427,-55 427,-74"/>
<text text-anchor="middle" x="402" y="-62" font-family="Helvetica,sans-Serif" font-size="10.00">main.c</text>
</a>
</g>
</g>
<!-- Node1&#45;&gt;Node6 -->
<g id="edge55_Node000001_Node000006" class="edge">
<title>Node1&#45;&gt;Node6</title>
<g id="a_edge55_Node000001_Node000006"><a xlink:title=" ">
<path fill="none" stroke="#63b8ff" d="M523.56,-266.26C496.9,-222.24 427.05,-106.87 407.28,-74.22"/>
<polygon fill="#63b8ff" stroke="#63b8ff" points="520.65,-268.21 528.83,-274.95 526.64,-264.59 520.65,-268.21"/>
</a>
</g>
</g>
<!-- Node9 -->
<g id="Node000009" class="node">
<title>Node9</title>
<g id="a_Node000009"><a xlink:href="hb__tlm__log_8c.html" target="_top" xlink:title=" ">
<polygon fill="white" stroke="#666666" points="524.5,-74 445.5,-74 445.5,-55 524.5,-55 524.5,-74"/>
<text text-anchor="middle" x="485" y="-62" font-family="Helvetica,sans-Serif" font-size="10.00">hb_tlm_log.c</text>
</a>
</g>
</g>
<!-- Node1&#45;&gt;Node9 -->
<g id="edge51_Node000001_Node000009" class="edge">
<title>Node1&#45;&gt;Node9</title>
<g id="a_edge51_Node000001_Node000009"><a xlink:title=" ">
<path fill="none" stroke="#63b8ff" d="M529.87,-265.13C519.8,-220.3 494.24,-106.6 486.96,-74.22"/>
<polygon fill="#63b8ff" stroke="#63b8ff" points="526.47,-265.97 532.08,-274.95 533.3,-264.43 526.47,-265.97"/>
</a>
</g>
</g>
<!-- Node10 -->
<g id="Node000010" class="node">
<title>Node10</title>
<g id="a_Node000010"><a xlink:href="heartbeat__job_8c.html" target="_top" xlink:title=" ">
<polygon fill="white" stroke="#666666" points="637,-19 545,-19 545,0 637,0 637,-19"/>
<text text-anchor="middle" x="591" y="-7" font-family="Helvetica,sans-Serif" font-size="10.00">heartbeat_job.c</text>
</a>
</g>
</g>
<!-- Node1&#45;&gt;Node10 -->
<g id="edge52_Node000001_Node000010" class="edge">
<title>Node1&#45;&gt;Node10</title>
<g id="a_edge52_Node000001_Node000010"><a xlink:title=" ">
<path fill="none" stroke="#63b8ff" d="M539.22,-265.23C544.84,-243.9 553,-207.44 553,-175.5 553,-175.5 553,-175.5 553,-118.5 553,-79.54 575.27,-36.93 585.72,-19.1"/>
<polygon fill="#63b8ff" stroke="#63b8ff" points="535.83,-264.34 536.56,-274.91 542.58,-266.19 535.83,-264.34"/>
</a>
</g>
</g>
<!-- Node14 -->
<g id="Node000014" class="node">
<title>Node14</title>
<g id="a_Node000014"><a xlink:href="filesystem_8c.html" target="_top" xlink:title=" ">
<polygon fill="white" stroke="#666666" points="2227,-74 2151,-74 2151,-55 2227,-55 2227,-74"/>
<text text-anchor="middle" x="2189" y="-62" font-family="Helvetica,sans-Serif" font-size="10.00">filesystem.c</text>
</a>
</g>
</g>
<!-- Node1&#45;&gt;Node14 -->
<g id="edge49_Node000001_Node000014" class="edge">
<title>Node1&#45;&gt;Node14</title>
<g id="a_edge49_Node000001_Node000014"><a xlink:title=" ">
<path fill="none" stroke="#63b8ff" d="M582.57,-277.58C706.86,-261.64 1045.76,-213.27 1317,-129 1337.34,-122.68 1340.24,-114.79 1361,-110 1699.58,-31.85 1796.72,-113.01 2142,-74 2144.88,-73.67 2147.86,-73.28 2150.84,-72.84"/>
<polygon fill="#63b8ff" stroke="#63b8ff" points="582.08,-274.11 572.6,-278.85 582.97,-281.06 582.08,-274.11"/>
</a>
</g>
</g>
<!-- Node19 -->
<g id="Node000019" class="node">
<title>Node19</title>
<g id="a_Node000019"><a xlink:href="utilities_2src_2log_8c.html" target="_top" xlink:title=" ">
<polygon fill="white" stroke="#666666" points="2285,-74 2245,-74 2245,-55 2285,-55 2285,-74"/>
<text text-anchor="middle" x="2265" y="-62" font-family="Helvetica,sans-Serif" font-size="10.00">log.c</text>
</a>
</g>
</g>
<!-- Node1&#45;&gt;Node19 -->
<g id="edge53_Node000001_Node000019" class="edge">
<title>Node1&#45;&gt;Node19</title>
<g id="a_edge53_Node000001_Node000019"><a xlink:title=" ">
<path fill="none" stroke="#63b8ff" d="M582.61,-279.03C653.68,-272.18 789.99,-257.89 905,-239 1022.84,-219.65 1052.22,-213.26 1168,-184 1251.16,-162.98 1272.14,-157.63 1353,-129 1373.85,-121.62 1377.4,-114.77 1399,-110 1762.58,-29.71 1868.66,-134.81 2236,-74 2238.9,-73.52 2241.92,-72.84 2244.86,-72.08"/>
<polygon fill="#63b8ff" stroke="#63b8ff" points="582.23,-275.55 572.61,-279.98 582.9,-282.52 582.23,-275.55"/>
</a>
</g>
</g>
<!-- Node20 -->
<g id="Node000020" class="node">
<title>Node20</title>
<g id="a_Node000020"><a xlink:href="log__test__unittest_8c.html" target="_top" xlink:title=" ">
<polygon fill="white" stroke="#666666" points="2410.5,-74 2303.5,-74 2303.5,-55 2410.5,-55 2410.5,-74"/>
<text text-anchor="middle" x="2357" y="-62" font-family="Helvetica,sans-Serif" font-size="10.00">log_test_unittest.c</text>
</a>
</g>
</g>
<!-- Node1&#45;&gt;Node20 -->
<g id="edge54_Node000001_Node000020" class="edge">
<title>Node1&#45;&gt;Node20</title>
<g id="a_edge54_Node000001_Node000020"><a xlink:title=" ">
<path fill="none" stroke="#63b8ff" d="M583.1,-280.44C664.51,-274.93 832.42,-261.76 973,-239 1083.59,-221.1 1110.9,-213.4 1219,-184 1296.04,-163.05 1314.94,-156.2 1390,-129 1411.18,-121.32 1414.98,-114.76 1437,-110 1623.3,-69.69 2104.13,-90.76 2294,-74 2297.08,-73.73 2300.24,-73.41 2303.42,-73.07"/>
<polygon fill="#63b8ff" stroke="#63b8ff" points="582.41,-276.97 572.66,-281.13 582.88,-283.96 582.41,-276.97"/>
</a>
</g>
</g>
<!-- Node29 -->
<g id="Node000029" class="node">
<title>Node29</title>
<g id="a_Node000029"><a xlink:href="set__rtc__job_8c.html" target="_top" xlink:title=" ">
<polygon fill="white" stroke="#666666" points="2507,-74 2429,-74 2429,-55 2507,-55 2507,-74"/>
<text text-anchor="middle" x="2468" y="-62" font-family="Helvetica,sans-Serif" font-size="10.00">set_rtc_job.c</text>
</a>
</g>
</g>
<!-- Node1&#45;&gt;Node29 -->
<g id="edge56_Node000001_Node000029" class="edge">
<title>Node1&#45;&gt;Node29</title>
<g id="a_edge56_Node000001_Node000029"><a xlink:title=" ">
<path fill="none" stroke="#63b8ff" d="M582.88,-279.7C673.1,-272.57 871.85,-256.35 1039,-239 1653.84,-175.2 1808.53,-164.6 2420,-74 2422.93,-73.57 2425.96,-73.09 2429,-72.6"/>
<polygon fill="#63b8ff" stroke="#63b8ff" points="582.38,-276.23 572.69,-280.5 582.93,-283.21 582.38,-276.23"/>
</a>
</g>
</g>
<!-- Node35 -->
<g id="Node000035" class="node">
<title>Node35</title>
<g id="a_Node000035"><a xlink:href="filesystem__test__unittest_8c.html" target="_top" xlink:title=" ">
<polygon fill="white" stroke="#666666" points="1622.5,-239 1479.5,-239 1479.5,-220 1622.5,-220 1622.5,-239"/>
<text text-anchor="middle" x="1551" y="-227" font-family="Helvetica,sans-Serif" font-size="10.00">filesystem_test_unittest.c</text>
</a>
</g>
</g>
<!-- Node1&#45;&gt;Node35 -->
<g id="edge50_Node000001_Node000035" class="edge">
<title>Node1&#45;&gt;Node35</title>
<g id="a_edge50_Node000001_Node000035"><a xlink:title=" ">
<path fill="none" stroke="#63b8ff" d="M582.89,-282.04C721.36,-277.71 1128.01,-263.69 1465,-239 1469.64,-238.66 1474.41,-238.28 1479.23,-237.87"/>
<polygon fill="#63b8ff" stroke="#63b8ff" points="582.51,-278.55 572.62,-282.36 582.72,-285.54 582.51,-278.55"/>
</a>
</g>
</g>
<!-- Node36 -->
<g id="Node000036" class="node">
<title>Node36</title>
<g id="a_Node000036"><a xlink:href="user__auth_8h.html" target="_top" xlink:title=" ">
<polygon fill="white" stroke="#666666" points="411,-239 337,-239 337,-220 411,-220 411,-239"/>
<text text-anchor="middle" x="374" y="-227" font-family="Helvetica,sans-Serif" font-size="10.00">user_auth.h</text>
</a>
</g>
</g>
<!-- Node1&#45;&gt;Node36 -->
<g id="edge57_Node000001_Node000036" class="edge">
<title>Node1&#45;&gt;Node36</title>
<g id="a_edge57_Node000001_Node000036"><a xlink:title=" ">
<path fill="none" stroke="#63b8ff" d="M498.67,-271.8C468.81,-261.91 426.73,-247.97 399.91,-239.08"/>
<polygon fill="#63b8ff" stroke="#63b8ff" points="497.7,-275.16 508.29,-274.98 499.9,-268.52 497.7,-275.16"/>
</a>
</g>
</g>
<!-- Node4&#45;&gt;Node2 -->
<g id="edge4_Node000004_Node000002" class="edge">
<title>Node4&#45;&gt;Node2</title>
<g id="a_edge4_Node000004_Node000002"><a xlink:title=" ">
<path fill="none" stroke="#63b8ff" d="M124.56,-213.89C114.06,-205.96 101.83,-195.45 93,-184 64.93,-147.6 46.29,-94.86 39.68,-74.24"/>
<polygon fill="#63b8ff" stroke="#63b8ff" points="122.7,-216.87 132.84,-219.91 126.81,-211.21 122.7,-216.87"/>
</a>
</g>
</g>
<!-- Node5 -->
<g id="Node000005" class="node">
<title>Node5</title>
<g id="a_Node000005"><a xlink:href="file__downlink_8c.html" target="_top" xlink:title=" ">
<polygon fill="white" stroke="#666666" points="221.5,-74 132.5,-74 132.5,-55 221.5,-55 221.5,-74"/>
<text text-anchor="middle" x="177" y="-62" font-family="Helvetica,sans-Serif" font-size="10.00">file_downlink.c</text>
</a>
</g>
</g>
<!-- Node4&#45;&gt;Node5 -->
<g id="edge5_Node000004_Node000005" class="edge">
<title>Node4&#45;&gt;Node5</title>
<g id="a_edge5_Node000004_Node000005"><a xlink:title=" ">
<path fill="none" stroke="#63b8ff" d="M129.41,-212.47C107.3,-189.09 73.25,-144.66 94,-110 104.83,-91.9 125.82,-80.74 143.98,-74.13"/>
<polygon fill="#63b8ff" stroke="#63b8ff" points="127.11,-215.13 136.62,-219.81 132.11,-210.22 127.11,-215.13"/>
</a>
</g>
</g>
<!-- Node4&#45;&gt;Node6 -->
<g id="edge6_Node000004_Node000006" class="edge">
<title>Node4&#45;&gt;Node6</title>
<g id="a_edge6_Node000004_Node000006"><a xlink:title=" ">
<path fill="none" stroke="#63b8ff" d="M201.39,-227.65C273.2,-225.23 392.51,-216.32 420,-184 447.51,-151.67 419.74,-95.62 407.33,-74.18"/>
<polygon fill="#63b8ff" stroke="#63b8ff" points="201.05,-224.16 191.16,-227.96 201.26,-231.15 201.05,-224.16"/>
</a>
</g>
</g>
<!-- Node7 -->
<g id="Node000007" class="node">
<title>Node7</title>
<g id="a_Node000007"><a xlink:href="telemetry_8h.html" target="_top" xlink:title="Functions for packaging and queuing telemetry packets for sending.">
<polygon fill="white" stroke="#666666" points="411,-184 339,-184 339,-165 411,-165 411,-184"/>
<text text-anchor="middle" x="375" y="-172" font-family="Helvetica,sans-Serif" font-size="10.00">telemetry.h</text>
</a>
</g>
</g>
<!-- Node4&#45;&gt;Node7 -->
<g id="edge7_Node000004_Node000007" class="edge">
<title>Node4&#45;&gt;Node7</title>
<g id="a_edge7_Node000004_Node000007"><a xlink:title=" ">
<path fill="none" stroke="#63b8ff" d="M192.77,-217.68C235.95,-207.68 299.18,-193.05 338.68,-183.91"/>
<polygon fill="#63b8ff" stroke="#63b8ff" points="191.75,-214.32 182.79,-219.98 193.32,-221.14 191.75,-214.32"/>
</a>
</g>
</g>
<!-- Node7&#45;&gt;Node3 -->
<g id="edge8_Node000007_Node000003" class="edge">
<title>Node7&#45;&gt;Node3</title>
<g id="a_edge8_Node000007_Node000003"><a xlink:title=" ">
<path fill="none" stroke="#63b8ff" d="M362.95,-156.38C346.5,-133.01 317.63,-91.97 305.09,-74.16"/>
<polygon fill="#63b8ff" stroke="#63b8ff" points="360.16,-158.5 368.78,-164.66 365.89,-154.47 360.16,-158.5"/>
</a>
</g>
</g>
<!-- Node7&#45;&gt;Node5 -->
<g id="edge9_Node000007_Node000005" class="edge">
<title>Node7&#45;&gt;Node5</title>
<g id="a_edge9_Node000007_Node000005"><a xlink:title=" ">
<path fill="none" stroke="#63b8ff" d="M350.25,-160C308.91,-137.45 226.97,-92.75 192.67,-74.05"/>
<polygon fill="#63b8ff" stroke="#63b8ff" points="348.68,-163.13 359.13,-164.84 352.03,-156.98 348.68,-163.13"/>
</a>
</g>
</g>
<!-- Node7&#45;&gt;Node6 -->
<g id="edge47_Node000007_Node000006" class="edge">
<title>Node7&#45;&gt;Node6</title>
<g id="a_edge47_Node000007_Node000006"><a xlink:title=" ">
<path fill="none" stroke="#63b8ff" d="M379.67,-154.8C385.57,-131.2 395.48,-91.58 399.84,-74.16"/>
<polygon fill="#63b8ff" stroke="#63b8ff" points="376.24,-154.11 377.21,-164.66 383.03,-155.81 376.24,-154.11"/>
</a>
</g>
</g>
<!-- Node8 -->
<g id="Node000008" class="node">
<title>Node8</title>
<g id="a_Node000008"><a xlink:href="hb__tlm__log_8h.html" target="_top" xlink:title=" ">
<polygon fill="white" stroke="#666666" points="183,-129 103,-129 103,-110 183,-110 183,-129"/>
<text text-anchor="middle" x="143" y="-117" font-family="Helvetica,sans-Serif" font-size="10.00">hb_tlm_log.h</text>
</a>
</g>
</g>
<!-- Node7&#45;&gt;Node8 -->
<g id="edge10_Node000007_Node000008" class="edge">
<title>Node7&#45;&gt;Node8</title>
<g id="a_edge10_Node000007_Node000008"><a xlink:title=" ">
<path fill="none" stroke="#63b8ff" d="M328.99,-162.99C285.48,-153.05 221.01,-138.32 180.53,-129.07"/>
<polygon fill="#63b8ff" stroke="#63b8ff" points="328.22,-166.4 338.75,-165.22 329.78,-159.58 328.22,-166.4"/>
</a>
</g>
</g>
<!-- Node7&#45;&gt;Node10 -->
<g id="edge14_Node000007_Node000010" class="edge">
<title>Node7&#45;&gt;Node10</title>
<g id="a_edge14_Node000007_Node000010"><a xlink:title=" ">
<path fill="none" stroke="#63b8ff" d="M400.53,-160.23C432.99,-142.74 489.99,-109.96 533,-74 553.62,-56.76 573.92,-32.37 584.15,-19.41"/>
<polygon fill="#63b8ff" stroke="#63b8ff" points="398.85,-157.16 391.67,-164.95 402.14,-163.33 398.85,-157.16"/>
</a>
</g>
</g>
<!-- Node11 -->
<g id="Node000011" class="node">
<title>Node11</title>
<g id="a_Node000011"><a xlink:href="log_8h.html" target="_top" xlink:title=" ">
<polygon fill="white" stroke="#666666" points="1308.5,-129 1267.5,-129 1267.5,-110 1308.5,-110 1308.5,-129"/>
<text text-anchor="middle" x="1288" y="-117" font-family="Helvetica,sans-Serif" font-size="10.00">log.h</text>
</a>
</g>
</g>
<!-- Node7&#45;&gt;Node11 -->
<g id="edge15_Node000007_Node000011" class="edge">
<title>Node7&#45;&gt;Node11</title>
<g id="a_edge15_Node000007_Node000011"><a xlink:title=" ">
<path fill="none" stroke="#63b8ff" d="M421.47,-170.8C588.17,-161.13 1152.34,-128.37 1267.41,-121.7"/>
<polygon fill="#63b8ff" stroke="#63b8ff" points="420.85,-167.33 411.07,-171.41 421.26,-174.32 420.85,-167.33"/>
</a>
</g>
</g>
<!-- Node30 -->
<g id="Node000030" class="node">
<title>Node30</title>
<g id="a_Node000030"><a xlink:href="telemetry_8c.html" target="_top" xlink:title=" ">
<polygon fill="white" stroke="#666666" points="2596.5,-74 2525.5,-74 2525.5,-55 2596.5,-55 2596.5,-74"/>
<text text-anchor="middle" x="2561" y="-62" font-family="Helvetica,sans-Serif" font-size="10.00">telemetry.c</text>
</a>
</g>
</g>
<!-- Node7&#45;&gt;Node30 -->
<g id="edge48_Node000007_Node000030" class="edge">
<title>Node7&#45;&gt;Node30</title>
<g id="a_edge48_Node000007_Node000030"><a xlink:title=" ">
<path fill="none" stroke="#63b8ff" d="M421.42,-173.75C650.18,-174.47 1680.16,-171.87 2516,-74 2519,-73.65 2522.1,-73.21 2525.21,-72.73"/>
<polygon fill="#63b8ff" stroke="#63b8ff" points="421.15,-170.25 411.13,-173.71 421.12,-177.25 421.15,-170.25"/>
</a>
</g>
</g>
<!-- Node8&#45;&gt;Node2 -->
<g id="edge11_Node000008_Node000002" class="edge">
<title>Node8&#45;&gt;Node2</title>
<g id="a_edge11_Node000008_Node000002"><a xlink:title=" ">
<path fill="none" stroke="#63b8ff" d="M117,-105.5C97.5,-95.75 71.35,-82.68 54.34,-74.17"/>
<polygon fill="#63b8ff" stroke="#63b8ff" points="115.46,-108.64 125.97,-109.98 118.59,-102.38 115.46,-108.64"/>
</a>
</g>
</g>
<!-- Node8&#45;&gt;Node9 -->
<g id="edge12_Node000008_Node000009" class="edge">
<title>Node8&#45;&gt;Node9</title>
<g id="a_edge12_Node000008_Node000009"><a xlink:title=" ">
<path fill="none" stroke="#63b8ff" d="M193.4,-111.17C251.82,-102.61 350.96,-87.83 436,-74 439.07,-73.5 442.24,-72.97 445.43,-72.44"/>
<polygon fill="#63b8ff" stroke="#63b8ff" points="192.71,-107.74 183.33,-112.65 193.73,-114.66 192.71,-107.74"/>
</a>
</g>
</g>
<!-- Node8&#45;&gt;Node10 -->
<g id="edge13_Node000008_Node000010" class="edge">
<title>Node8&#45;&gt;Node10</title>
<g id="a_edge13_Node000008_Node000010"><a xlink:title=" ">
<path fill="none" stroke="#63b8ff" d="M129.73,-101.71C120.32,-87.67 111.26,-67.91 123,-55 151.04,-24.17 432.25,-14.21 544.8,-11.44"/>
<polygon fill="#63b8ff" stroke="#63b8ff" points="127.04,-103.96 135.75,-109.99 132.7,-99.84 127.04,-103.96"/>
</a>
</g>
</g>
<!-- Node11&#45;&gt;Node2 -->
<g id="edge17_Node000011_Node000002" class="edge">
<title>Node11&#45;&gt;Node2</title>
<g id="a_edge17_Node000011_Node000002"><a xlink:title=" ">
<path fill="none" stroke="#63b8ff" d="M1256.89,-118C1121.81,-115.69 572.78,-104.79 123,-74 106.98,-72.9 89.33,-71.24 74.21,-69.67"/>
<polygon fill="#63b8ff" stroke="#63b8ff" points="1257.23,-121.51 1267.29,-118.18 1257.35,-114.51 1257.23,-121.51"/>
</a>
</g>
</g>
<!-- Node11&#45;&gt;Node3 -->
<g id="edge18_Node000011_Node000003" class="edge">
<title>Node11&#45;&gt;Node3</title>
<g id="a_edge18_Node000011_Node000003"><a xlink:title=" ">
<path fill="none" stroke="#63b8ff" d="M1256.9,-117.83C1140.02,-115.15 716.05,-103.81 368,-74 365.11,-73.75 362.16,-73.48 359.18,-73.18"/>
<polygon fill="#63b8ff" stroke="#63b8ff" points="1257.16,-121.34 1267.23,-118.07 1257.32,-114.34 1257.16,-121.34"/>
</a>
</g>
</g>
<!-- Node11&#45;&gt;Node5 -->
<g id="edge20_Node000011_Node000005" class="edge">
<title>Node11&#45;&gt;Node5</title>
<g id="a_edge20_Node000011_Node000005"><a xlink:title=" ">
<path fill="none" stroke="#63b8ff" d="M1257.27,-118.52C1130.36,-118.32 634.79,-114.83 230,-74 227.31,-73.73 224.55,-73.41 221.77,-73.06"/>
<polygon fill="#63b8ff" stroke="#63b8ff" points="1257.41,-122.02 1267.41,-118.53 1257.41,-115.02 1257.41,-122.02"/>
</a>
</g>
</g>
<!-- Node11&#45;&gt;Node6 -->
<g id="edge34_Node000011_Node000006" class="edge">
<title>Node11&#45;&gt;Node6</title>
<g id="a_edge34_Node000011_Node000006"><a xlink:title=" ">
<path fill="none" stroke="#63b8ff" d="M1257.24,-119.02C1145.99,-120.47 754.26,-121.64 436,-74 433.11,-73.57 430.11,-73 427.14,-72.36"/>
<polygon fill="#63b8ff" stroke="#63b8ff" points="1257.46,-122.52 1267.41,-118.88 1257.36,-115.52 1257.46,-122.52"/>
</a>
</g>
</g>
<!-- Node11&#45;&gt;Node9 -->
<g id="edge23_Node000011_Node000009" class="edge">
<title>Node11&#45;&gt;Node9</title>
<g id="a_edge23_Node000011_Node000009"><a xlink:title=" ">
<path fill="none" stroke="#63b8ff" d="M1257.34,-116.48C1132.72,-108.25 664.18,-77.33 524.52,-68.11"/>
<polygon fill="#63b8ff" stroke="#63b8ff" points="1257.13,-119.97 1267.34,-117.14 1257.6,-112.99 1257.13,-119.97"/>
</a>
</g>
</g>
<!-- Node12 -->
<g id="Node000012" class="node">
<title>Node12</title>
<g id="a_Node000012"><a xlink:href="antenna__deploy__job_8c.html" target="_top" xlink:title=" ">
<polygon fill="white" stroke="#666666" points="1201.5,-74 1078.5,-74 1078.5,-55 1201.5,-55 1201.5,-74"/>
<text text-anchor="middle" x="1140" y="-62" font-family="Helvetica,sans-Serif" font-size="10.00">antenna_deploy_job.c</text>
</a>
</g>
</g>
<!-- Node11&#45;&gt;Node12 -->
<g id="edge16_Node000011_Node000012" class="edge">
<title>Node11&#45;&gt;Node12</title>
<g id="a_edge16_Node000011_Node000012"><a xlink:title=" ">
<path fill="none" stroke="#63b8ff" d="M1257.82,-107.69C1230.04,-97.75 1189.39,-83.19 1163.83,-74.03"/>
<polygon fill="#63b8ff" stroke="#63b8ff" points="1256.83,-111.05 1267.42,-111.13 1259.19,-104.46 1256.83,-111.05"/>
</a>
</g>
</g>
<!-- Node13 -->
<g id="Node000013" class="node">
<title>Node13</title>
<g id="a_Node000013"><a xlink:href="ds18b20_8c.html" target="_top" xlink:title=" ">
<polygon fill="white" stroke="#666666" points="1286,-74 1220,-74 1220,-55 1286,-55 1286,-74"/>
<text text-anchor="middle" x="1253" y="-62" font-family="Helvetica,sans-Serif" font-size="10.00">ds18b20.c</text>
</a>
</g>
</g>
<!-- Node11&#45;&gt;Node13 -->
<g id="edge19_Node000011_Node000013" class="edge">
<title>Node11&#45;&gt;Node13</title>
<g id="a_edge19_Node000011_Node000013"><a xlink:title=" ">
<path fill="none" stroke="#63b8ff" d="M1276.7,-101.39C1270.68,-92.27 1263.53,-81.45 1258.67,-74.09"/>
<polygon fill="#63b8ff" stroke="#63b8ff" points="1273.79,-103.33 1282.22,-109.75 1279.63,-99.47 1273.79,-103.33"/>
</a>
</g>
</g>
<!-- Node11&#45;&gt;Node14 -->
<g id="edge21_Node000011_Node000014" class="edge">
<title>Node11&#45;&gt;Node14</title>
<g id="a_edge21_Node000011_Node000014"><a xlink:title=" ">
<path fill="none" stroke="#63b8ff" d="M1318.52,-110.72C1320.03,-110.45 1321.53,-110.21 1323,-110 1683.73,-58.77 1779.91,-114.51 2142,-74 2144.88,-73.68 2147.86,-73.28 2150.84,-72.85"/>
<polygon fill="#63b8ff" stroke="#63b8ff" points="1317.67,-107.32 1308.6,-112.79 1319.1,-114.18 1317.67,-107.32"/>
</a>
</g>
</g>
<!-- Node15 -->
<g id="Node000015" class="node">
<title>Node15</title>
<g id="a_Node000015"><a xlink:href="gse_8c.html" target="_top" xlink:title=" ">
<polygon fill="white" stroke="#666666" points="699,-74 657,-74 657,-55 699,-55 699,-74"/>
<text text-anchor="middle" x="678" y="-62" font-family="Helvetica,sans-Serif" font-size="10.00">gse.c</text>
</a>
</g>
</g>
<!-- Node11&#45;&gt;Node15 -->
<g id="edge22_Node000011_Node000015" class="edge">
<title>Node11&#45;&gt;Node15</title>
<g id="a_edge22_Node000011_Node000015"><a xlink:title=" ">
<path fill="none" stroke="#63b8ff" d="M1257.02,-118.29C1169.85,-117.23 915.38,-110.95 708,-74 705.12,-73.49 702.12,-72.81 699.18,-72.07"/>
<polygon fill="#63b8ff" stroke="#63b8ff" points="1257.23,-121.79 1267.26,-118.4 1257.3,-114.79 1257.23,-121.79"/>
</a>
</g>
</g>
<!-- Node16 -->
<g id="Node000016" class="node">
<title>Node16</title>
<g id="a_Node000016"><a xlink:href="i2c_8c.html" target="_top" xlink:title=" ">
<polygon fill="white" stroke="#666666" points="1343.5,-74 1304.5,-74 1304.5,-55 1343.5,-55 1343.5,-74"/>
<text text-anchor="middle" x="1324" y="-62" font-family="Helvetica,sans-Serif" font-size="10.00">i2c.c</text>
</a>
</g>
</g>
<!-- Node11&#45;&gt;Node16 -->
<g id="edge24_Node000011_Node000016" class="edge">
<title>Node11&#45;&gt;Node16</title>
<g id="a_edge24_Node000011_Node000016"><a xlink:title=" ">
<path fill="none" stroke="#63b8ff" d="M1299.62,-101.39C1305.82,-92.27 1313.17,-81.45 1318.17,-74.09"/>
<polygon fill="#63b8ff" stroke="#63b8ff" points="1296.67,-99.51 1293.94,-109.75 1302.46,-103.44 1296.67,-99.51"/>
</a>
</g>
</g>
<!-- Node17 -->
<g id="Node000017" class="node">
<title>Node17</title>
<g id="a_Node000017"><a xlink:href="ina219_8c.html" target="_top" xlink:title=" ">
<polygon fill="white" stroke="#666666" points="1420,-74 1362,-74 1362,-55 1420,-55 1420,-74"/>
<text text-anchor="middle" x="1391" y="-62" font-family="Helvetica,sans-Serif" font-size="10.00">ina219.c</text>
</a>
</g>
</g>
<!-- Node11&#45;&gt;Node17 -->
<g id="edge25_Node000011_Node000017" class="edge">
<title>Node11&#45;&gt;Node17</title>
<g id="a_edge25_Node000011_Node000017"><a xlink:title=" ">
<path fill="none" stroke="#63b8ff" d="M1313.52,-105.37C1332.44,-95.63 1357.7,-82.64 1374.15,-74.17"/>
<polygon fill="#63b8ff" stroke="#63b8ff" points="1311.84,-102.3 1304.55,-109.98 1315.04,-108.52 1311.84,-102.3"/>
</a>
</g>
</g>
<!-- Node18 -->
<g id="Node000018" class="node">
<title>Node18</title>
<g id="a_Node000018"><a xlink:href="test_2unit_2utilities_2log_8c.html" target="_top" xlink:title=" ">
<polygon fill="white" stroke="#666666" points="1478,-74 1438,-74 1438,-55 1478,-55 1478,-74"/>
<text text-anchor="middle" x="1458" y="-62" font-family="Helvetica,sans-Serif" font-size="10.00">log.c</text>
</a>
</g>
</g>
<!-- Node11&#45;&gt;Node18 -->
<g id="edge26_Node000011_Node000018" class="edge">
<title>Node11&#45;&gt;Node18</title>
<g id="a_edge26_Node000011_Node000018"><a xlink:title=" ">
<path fill="none" stroke="#63b8ff" d="M1318.07,-109.13C1352.61,-98.36 1408.31,-80.99 1437.95,-71.75"/>
<polygon fill="#63b8ff" stroke="#63b8ff" points="1317.01,-105.79 1308.51,-112.11 1319.09,-112.47 1317.01,-105.79"/>
</a>
</g>
</g>
<!-- Node11&#45;&gt;Node19 -->
<g id="edge27_Node000011_Node000019" class="edge">
<title>Node11&#45;&gt;Node19</title>
<g id="a_edge27_Node000011_Node000019"><a xlink:title=" ">
<path fill="none" stroke="#63b8ff" d="M1319,-114.37C1331.96,-112.78 1347.19,-111.09 1361,-110 1749.02,-79.47 1851.95,-137.21 2236,-74 2238.9,-73.52 2241.92,-72.85 2244.86,-72.08"/>
<polygon fill="#63b8ff" stroke="#63b8ff" points="1318.21,-110.94 1308.73,-115.67 1319.09,-117.89 1318.21,-110.94"/>
</a>
</g>
</g>
<!-- Node11&#45;&gt;Node20 -->
<g id="edge28_Node000011_Node000020" class="edge">
<title>Node11&#45;&gt;Node20</title>
<g id="a_edge28_Node000011_Node000020"><a xlink:title=" ">
<path fill="none" stroke="#63b8ff" d="M1319.04,-115.82C1341.29,-113.97 1371.97,-111.58 1399,-110 1796.42,-86.8 1897.41,-108.65 2294,-74 2297.08,-73.73 2300.24,-73.42 2303.42,-73.08"/>
<polygon fill="#63b8ff" stroke="#63b8ff" points="1318.52,-112.35 1308.85,-116.68 1319.11,-119.33 1318.52,-112.35"/>
</a>
</g>
</g>
<!-- Node21 -->
<g id="Node000021" class="node">
<title>Node21</title>
<g id="a_Node000021"><a xlink:href="mag__lis3mdltr_8c.html" target="_top" xlink:title=" ">
<polygon fill="white" stroke="#666666" points="988.5,-19 893.5,-19 893.5,0 988.5,0 988.5,-19"/>
<text text-anchor="middle" x="941" y="-7" font-family="Helvetica,sans-Serif" font-size="10.00">mag_lis3mdltr.c</text>
</a>
</g>
</g>
<!-- Node11&#45;&gt;Node21 -->
<g id="edge29_Node000011_Node000021" class="edge">
<title>Node11&#45;&gt;Node21</title>
<g id="a_edge29_Node000011_Node000021"><a xlink:title=" ">
<path fill="none" stroke="#63b8ff" d="M1257.18,-116.05C1211.1,-111.66 1122.06,-100.31 1051,-74 1012.74,-59.84 972.33,-32.98 952.86,-19.18"/>
<polygon fill="#63b8ff" stroke="#63b8ff" points="1257.13,-119.56 1267.41,-116.98 1257.76,-112.59 1257.13,-119.56"/>
</a>
</g>
</g>
<!-- Node22 -->
<g id="Node000022" class="node">
<title>Node22</title>
<g id="a_Node000022"><a xlink:href="mag__lis3mdltr_8h.html" target="_top" xlink:title="Magnetometer Driver (LIS3MDLTR)">
<polygon fill="white" stroke="#666666" points="983.5,-74 888.5,-74 888.5,-55 983.5,-55 983.5,-74"/>
<text text-anchor="middle" x="936" y="-62" font-family="Helvetica,sans-Serif" font-size="10.00">mag_lis3mdltr.h</text>
</a>
</g>
</g>
<!-- Node11&#45;&gt;Node22 -->
<g id="edge30_Node000011_Node000022" class="edge">
<title>Node11&#45;&gt;Node22</title>
<g id="a_edge30_Node000011_Node000022"><a xlink:title=" ">
<path fill="none" stroke="#63b8ff" d="M1257.05,-113.84C1195.38,-104.55 1056.81,-83.69 983.53,-72.66"/>
<polygon fill="#63b8ff" stroke="#63b8ff" points="1256.89,-117.35 1267.29,-115.38 1257.93,-110.43 1256.89,-117.35"/>
</a>
</g>
</g>
<!-- Node23 -->
<g id="Node000023" class="node">
<title>Node23</title>
<g id="a_Node000023"><a xlink:href="steve_8c.html" target="_top" xlink:title=" ">
<polygon fill="white" stroke="#666666" points="1070,-19 1018,-19 1018,0 1070,0 1070,-19"/>
<text text-anchor="middle" x="1044" y="-7" font-family="Helvetica,sans-Serif" font-size="10.00">steve.c</text>
</a>
</g>
</g>
<!-- Node11&#45;&gt;Node23 -->
<g id="edge41_Node000011_Node000023" class="edge">
<title>Node11&#45;&gt;Node23</title>
<g id="a_edge41_Node000011_Node000023"><a xlink:title=" ">
<path fill="none" stroke="#63b8ff" d="M1257,-115.83C1203.57,-110.65 1097.15,-97.62 1069,-74 1052.3,-59.99 1046.69,-33.31 1044.86,-19.42"/>
<polygon fill="#63b8ff" stroke="#63b8ff" points="1256.96,-119.34 1267.25,-116.79 1257.62,-112.37 1256.96,-119.34"/>
</a>
</g>
</g>
<!-- Node24 -->
<g id="Node000024" class="node">
<title>Node24</title>
<g id="a_Node000024"><a xlink:href="max17048_8c.html" target="_top" xlink:title=" ">
<polygon fill="white" stroke="#666666" points="1573.5,-74 1496.5,-74 1496.5,-55 1573.5,-55 1573.5,-74"/>
<text text-anchor="middle" x="1535" y="-62" font-family="Helvetica,sans-Serif" font-size="10.00">max17048.c</text>
</a>
</g>
</g>
<!-- Node11&#45;&gt;Node24 -->
<g id="edge35_Node000011_Node000024" class="edge">
<title>Node11&#45;&gt;Node24</title>
<g id="a_edge35_Node000011_Node000024"><a xlink:title=" ">
<path fill="none" stroke="#63b8ff" d="M1318.58,-111.02C1320.07,-110.67 1321.55,-110.33 1323,-110 1383.34,-96.34 1453.67,-81.86 1496.24,-73.26"/>
<polygon fill="#63b8ff" stroke="#63b8ff" points="1317.62,-107.64 1308.7,-113.36 1319.24,-114.45 1317.62,-107.64"/>
</a>
</g>
</g>
<!-- Node25 -->
<g id="Node000025" class="node">
<title>Node25</title>
<g id="a_Node000025"><a xlink:href="miscellaneous__jobs_8c.html" target="_top" xlink:title=" ">
<polygon fill="white" stroke="#666666" points="1712.5,-74 1591.5,-74 1591.5,-55 1712.5,-55 1712.5,-74"/>
<text text-anchor="middle" x="1652" y="-62" font-family="Helvetica,sans-Serif" font-size="10.00">miscellaneous_jobs.c</text>
</a>
</g>
</g>
<!-- Node11&#45;&gt;Node25 -->
<g id="edge36_Node000011_Node000025" class="edge">
<title>Node11&#45;&gt;Node25</title>
<g id="a_edge36_Node000011_Node000025"><a xlink:title=" ">
<path fill="none" stroke="#63b8ff" d="M1318.55,-110.89C1320.05,-110.57 1321.54,-110.28 1323,-110 1348.7,-105.15 1503.33,-84.81 1591.16,-73.38"/>
<polygon fill="#63b8ff" stroke="#63b8ff" points="1317.64,-107.5 1308.65,-113.11 1319.18,-114.33 1317.64,-107.5"/>
</a>
</g>
</g>
<!-- Node26 -->
<g id="Node000026" class="node">
<title>Node26</title>
<g id="a_Node000026"><a xlink:href="mram_8c.html" target="_top" xlink:title=" ">
<polygon fill="white" stroke="#666666" points="1785,-74 1731,-74 1731,-55 1785,-55 1785,-74"/>
<text text-anchor="middle" x="1758" y="-62" font-family="Helvetica,sans-Serif" font-size="10.00">mram.c</text>
</a>
</g>
</g>
<!-- Node11&#45;&gt;Node26 -->
<g id="edge37_Node000011_Node000026" class="edge">
<title>Node11&#45;&gt;Node26</title>
<g id="a_edge37_Node000011_Node000026"><a xlink:title=" ">
<path fill="none" stroke="#63b8ff" d="M1318.53,-110.81C1320.04,-110.51 1321.53,-110.24 1323,-110 1498.66,-80.91 1546.25,-102.53 1722,-74 1724.92,-73.53 1727.95,-72.95 1730.96,-72.32"/>
<polygon fill="#63b8ff" stroke="#63b8ff" points="1317.65,-107.41 1308.62,-112.95 1319.14,-114.26 1317.65,-107.41"/>
</a>
</g>
</g>
<!-- Node27 -->
<g id="Node000027" class="node">
<title>Node27</title>
<g id="a_Node000027"><a xlink:href="radio_8cpp.html" target="_top" xlink:title="Radio operations and the task handling them.">
<polygon fill="white" stroke="#666666" points="779,-74 717,-74 717,-55 779,-55 779,-74"/>
<text text-anchor="middle" x="748" y="-62" font-family="Helvetica,sans-Serif" font-size="10.00">radio.cpp</text>
</a>
</g>
</g>
<!-- Node11&#45;&gt;Node27 -->
<g id="edge38_Node000011_Node000027" class="edge">
<title>Node11&#45;&gt;Node27</title>
<g id="a_edge38_Node000011_Node000027"><a xlink:title=" ">
<path fill="none" stroke="#63b8ff" d="M1257.25,-117.06C1178.73,-113.09 964.56,-100.52 788,-74 785.19,-73.58 782.28,-73.08 779.38,-72.54"/>
<polygon fill="#63b8ff" stroke="#63b8ff" points="1257.25,-120.56 1267.42,-117.56 1257.6,-113.57 1257.25,-120.56"/>
</a>
</g>
</g>
<!-- Node28 -->
<g id="Node000028" class="node">
<title>Node28</title>
<g id="a_Node000028"><a xlink:href="rtc__ds3231_8c.html" target="_top" xlink:title=" ">
<polygon fill="white" stroke="#666666" points="1881,-74 1803,-74 1803,-55 1881,-55 1881,-74"/>
<text text-anchor="middle" x="1842" y="-62" font-family="Helvetica,sans-Serif" font-size="10.00">rtc_ds3231.c</text>
</a>
</g>
</g>
<!-- Node11&#45;&gt;Node28 -->
<g id="edge39_Node000011_Node000028" class="edge">
<title>Node11&#45;&gt;Node28</title>
<g id="a_edge39_Node000011_Node000028"><a xlink:title=" ">
<path fill="none" stroke="#63b8ff" d="M1318.53,-110.78C1320.04,-110.5 1321.53,-110.23 1323,-110 1530.35,-77.12 1585.71,-100.34 1794,-74 1796.85,-73.64 1799.8,-73.22 1802.76,-72.78"/>
<polygon fill="#63b8ff" stroke="#63b8ff" points="1317.66,-107.39 1308.62,-112.91 1319.13,-114.23 1317.66,-107.39"/>
</a>
</g>
</g>
<!-- Node11&#45;&gt;Node29 -->
<g id="edge40_Node000011_Node000029" class="edge">
<title>Node11&#45;&gt;Node29</title>
<g id="a_edge40_Node000011_Node000029"><a xlink:title=" ">
<path fill="none" stroke="#63b8ff" d="M1319.02,-116.55C1349.15,-114.69 1396.2,-111.91 1437,-110 1873.7,-89.55 1985.27,-120.23 2420,-74 2422.86,-73.7 2425.81,-73.32 2428.77,-72.9"/>
<polygon fill="#63b8ff" stroke="#63b8ff" points="1318.49,-113.07 1308.72,-117.18 1318.92,-120.06 1318.49,-113.07"/>
</a>
</g>
</g>
<!-- Node11&#45;&gt;Node30 -->
<g id="edge42_Node000011_Node000030" class="edge">
<title>Node11&#45;&gt;Node30</title>
<g id="a_edge42_Node000011_Node000030"><a xlink:title=" ">
<path fill="none" stroke="#63b8ff" d="M1319.08,-118.01C1485.62,-115.28 2273.78,-101.11 2516,-74 2519,-73.66 2522.11,-73.24 2525.21,-72.76"/>
<polygon fill="#63b8ff" stroke="#63b8ff" points="1318.54,-114.52 1308.6,-118.18 1318.66,-121.52 1318.54,-114.52"/>
</a>
</g>
</g>
<!-- Node31 -->
<g id="Node000031" class="node">
<title>Node31</title>
<g id="a_Node000031"><a xlink:href="timing_8c.html" target="_top" xlink:title=" ">
<polygon fill="white" stroke="#666666" points="1955,-74 1899,-74 1899,-55 1955,-55 1955,-74"/>
<text text-anchor="middle" x="1927" y="-62" font-family="Helvetica,sans-Serif" font-size="10.00">timing.c</text>
</a>
</g>
</g>
<!-- Node11&#45;&gt;Node31 -->
<g id="edge43_Node000011_Node000031" class="edge">
<title>Node11&#45;&gt;Node31</title>
<g id="a_edge43_Node000011_Node000031"><a xlink:title=" ">
<path fill="none" stroke="#63b8ff" d="M1318.53,-110.76C1320.03,-110.48 1321.53,-110.22 1323,-110 1572.64,-72.06 1640.13,-110.39 1890,-74 1892.87,-73.58 1895.85,-73.06 1898.81,-72.47"/>
<polygon fill="#63b8ff" stroke="#63b8ff" points="1317.66,-107.36 1308.61,-112.86 1319.12,-114.21 1317.66,-107.36"/>
</a>
</g>
</g>
<!-- Node32 -->
<g id="Node000032" class="node">
<title>Node32</title>
<g id="a_Node000032"><a xlink:href="user__auth_8c.html" target="_top" xlink:title=" ">
<polygon fill="white" stroke="#666666" points="870.5,-74 797.5,-74 797.5,-55 870.5,-55 870.5,-74"/>
<text text-anchor="middle" x="834" y="-62" font-family="Helvetica,sans-Serif" font-size="10.00">user_auth.c</text>
</a>
</g>
</g>
<!-- Node11&#45;&gt;Node32 -->
<g id="edge44_Node000011_Node000032" class="edge">
<title>Node11&#45;&gt;Node32</title>
<g id="a_edge44_Node000011_Node000032"><a xlink:title=" ">
<path fill="none" stroke="#63b8ff" d="M1257.46,-116C1189.32,-110.25 1019.83,-94.93 879,-74 876.33,-73.6 873.57,-73.16 870.8,-72.69"/>
<polygon fill="#63b8ff" stroke="#63b8ff" points="1257.24,-119.5 1267.5,-116.84 1257.83,-112.52 1257.24,-119.5"/>
</a>
</g>
</g>
<!-- Node33 -->
<g id="Node000033" class="node">
<title>Node33</title>
<g id="a_Node000033"><a xlink:href="vega__ant_8c.html" target="_top" xlink:title=" ">
<polygon fill="white" stroke="#666666" points="2043,-74 1973,-74 1973,-55 2043,-55 2043,-74"/>
<text text-anchor="middle" x="2008" y="-62" font-family="Helvetica,sans-Serif" font-size="10.00">vega_ant.c</text>
</a>
</g>
</g>
<!-- Node11&#45;&gt;Node33 -->
<g id="edge45_Node000011_Node000033" class="edge">
<title>Node11&#45;&gt;Node33</title>
<g id="a_edge45_Node000011_Node000033"><a xlink:title=" ">
<path fill="none" stroke="#63b8ff" d="M1318.52,-110.74C1320.03,-110.47 1321.53,-110.22 1323,-110 1605.25,-68.16 1680.83,-109.14 1964,-74 1966.78,-73.66 1969.65,-73.24 1972.52,-72.78"/>
<polygon fill="#63b8ff" stroke="#63b8ff" points="1317.67,-107.35 1308.61,-112.84 1319.11,-114.2 1317.67,-107.35"/>
</a>
</g>
</g>
<!-- Node34 -->
<g id="Node000034" class="node">
<title>Node34</title>
<g id="a_Node000034"><a xlink:href="watchdog_8c.html" target="_top" xlink:title=" ">
<polygon fill="white" stroke="#666666" points="2133,-74 2061,-74 2061,-55 2133,-55 2133,-74"/>
<text text-anchor="middle" x="2097" y="-62" font-family="Helvetica,sans-Serif" font-size="10.00">watchdog.c</text>
</a>
</g>
</g>
<!-- Node11&#45;&gt;Node34 -->
<g id="edge46_Node000011_Node000034" class="edge">
<title>Node11&#45;&gt;Node34</title>
<g id="a_edge46_Node000011_Node000034"><a xlink:title=" ">
<path fill="none" stroke="#63b8ff" d="M1318.52,-110.73C1320.03,-110.46 1321.53,-110.21 1323,-110 1644.05,-63.51 1729.86,-112.19 2052,-74 2054.84,-73.66 2057.78,-73.25 2060.72,-72.8"/>
<polygon fill="#63b8ff" stroke="#63b8ff" points="1317.67,-107.33 1308.6,-112.81 1319.11,-114.18 1317.67,-107.33"/>
</a>
</g>
</g>
<!-- Node22&#45;&gt;Node10 -->
<g id="edge31_Node000022_Node000010" class="edge">
<title>Node22&#45;&gt;Node10</title>
<g id="a_edge31_Node000022_Node000010"><a xlink:title=" ">
<path fill="none" stroke="#63b8ff" d="M878.3,-54.64C810.49,-44.22 699.32,-27.14 637.02,-17.57"/>
<polygon fill="#63b8ff" stroke="#63b8ff" points="877.98,-58.13 888.39,-56.19 879.04,-51.21 877.98,-58.13"/>
</a>
</g>
</g>
<!-- Node22&#45;&gt;Node21 -->
<g id="edge32_Node000022_Node000021" class="edge">
<title>Node22&#45;&gt;Node21</title>
<g id="a_edge32_Node000022_Node000021"><a xlink:title=" ">
<path fill="none" stroke="#63b8ff" d="M937.78,-44.66C938.6,-35.93 939.54,-25.99 940.19,-19.09"/>
<polygon fill="#63b8ff" stroke="#63b8ff" points="934.28,-44.46 936.83,-54.75 941.25,-45.12 934.28,-44.46"/>
</a>
</g>
</g>
<!-- Node22&#45;&gt;Node23 -->
<g id="edge33_Node000022_Node000023" class="edge">
<title>Node22&#45;&gt;Node23</title>
<g id="a_edge33_Node000022_Node000023"><a xlink:title=" ">
<path fill="none" stroke="#63b8ff" d="M962.49,-50.5C982.36,-40.75 1009,-27.68 1026.33,-19.17"/>
<polygon fill="#63b8ff" stroke="#63b8ff" points="960.79,-47.44 953.35,-54.98 963.87,-53.72 960.79,-47.44"/>
</a>
</g>
</g>
<!-- Node36&#45;&gt;Node32 -->
<g id="edge66_Node000036_Node000032" class="edge">
<title>Node36&#45;&gt;Node32</title>
<g id="a_edge66_Node000036_Node000032"><a xlink:title=" ">
<path fill="none" stroke="#63b8ff" d="M416.94,-217.27C479.42,-200.47 598.66,-166.74 697,-129 741.54,-111.91 792,-87.02 817.44,-74.07"/>
<polygon fill="#63b8ff" stroke="#63b8ff" points="415.8,-213.95 407.05,-219.91 417.61,-220.71 415.8,-213.95"/>
</a>
</g>
</g>
<!-- Node37 -->
<g id="Node000037" class="node">
<title>Node37</title>
<g id="a_Node000037"><a xlink:href="command_8h.html" target="_top" xlink:title="Handles decoding and triggering responses to received commands.">
<polygon fill="white" stroke="#666666" points="321,-184 247,-184 247,-165 321,-165 321,-184"/>
<text text-anchor="middle" x="284" y="-172" font-family="Helvetica,sans-Serif" font-size="10.00">command.h</text>
</a>
</g>
</g>
<!-- Node36&#45;&gt;Node37 -->
<g id="edge58_Node000036_Node000037" class="edge">
<title>Node36&#45;&gt;Node37</title>
<g id="a_edge58_Node000036_Node000037"><a xlink:title=" ">
<path fill="none" stroke="#63b8ff" d="M350.56,-214.7C334.16,-205.04 312.77,-192.44 298.72,-184.17"/>
<polygon fill="#63b8ff" stroke="#63b8ff" points="349.15,-217.93 359.54,-219.98 352.7,-211.89 349.15,-217.93"/>
</a>
</g>
</g>
<!-- Node37&#45;&gt;Node2 -->
<g id="edge59_Node000037_Node000002" class="edge">
<title>Node37&#45;&gt;Node2</title>
<g id="a_edge59_Node000037_Node000002"><a xlink:title=" ">
<path fill="none" stroke="#63b8ff" d="M236.81,-170.37C196.46,-165.91 138.11,-155.12 94,-129 70.55,-115.11 51.36,-88.38 42.42,-74.45"/>
<polygon fill="#63b8ff" stroke="#63b8ff" points="236.61,-173.87 246.91,-171.39 237.32,-166.9 236.61,-173.87"/>
</a>
</g>
</g>
<!-- Node37&#45;&gt;Node3 -->
<g id="edge60_Node000037_Node000003" class="edge">
<title>Node37&#45;&gt;Node3</title>
<g id="a_edge60_Node000037_Node000003"><a xlink:title=" ">
<path fill="none" stroke="#63b8ff" d="M286.64,-154.48C289.92,-130.84 295.39,-91.5 297.8,-74.16"/>
<polygon fill="#63b8ff" stroke="#63b8ff" points="283.14,-154.28 285.23,-164.66 290.07,-155.24 283.14,-154.28"/>
</a>
</g>
</g>
<!-- Node37&#45;&gt;Node6 -->
<g id="edge64_Node000037_Node000006" class="edge">
<title>Node37&#45;&gt;Node6</title>
<g id="a_edge64_Node000037_Node000006"><a xlink:title=" ">
<path fill="none" stroke="#63b8ff" d="M301.04,-157.91C326.25,-134.83 372.65,-92.37 392.54,-74.16"/>
<polygon fill="#63b8ff" stroke="#63b8ff" points="298.67,-155.33 293.66,-164.66 303.4,-160.49 298.67,-155.33"/>
</a>
</g>
</g>
<!-- Node37&#45;&gt;Node8 -->
<g id="edge62_Node000037_Node000008" class="edge">
<title>Node37&#45;&gt;Node8</title>
<g id="a_edge62_Node000037_Node000008"><a xlink:title=" ">
<path fill="none" stroke="#63b8ff" d="M251.86,-161.42C225.71,-151.59 189.41,-137.95 166.07,-129.17"/>
<polygon fill="#63b8ff" stroke="#63b8ff" points="250.75,-164.74 261.35,-164.98 253.22,-158.19 250.75,-164.74"/>
</a>
</g>
</g>
<!-- Node37&#45;&gt;Node10 -->
<g id="edge63_Node000037_Node000010" class="edge">
<title>Node37&#45;&gt;Node10</title>
<g id="a_edge63_Node000037_Node000010"><a xlink:title=" ">
<path fill="none" stroke="#63b8ff" d="M328.65,-162.25C380.9,-147.67 468.45,-118.68 533,-74 555.59,-58.37 575.67,-32.4 585.18,-19.03"/>
<polygon fill="#63b8ff" stroke="#63b8ff" points="327.73,-158.88 319.01,-164.89 329.58,-165.63 327.73,-158.88"/>
</a>
</g>
</g>
<!-- Node37&#45;&gt;Node15 -->
<g id="edge61_Node000037_Node000015" class="edge">
<title>Node37&#45;&gt;Node15</title>
<g id="a_edge61_Node000037_Node000015"><a xlink:title=" ">
<path fill="none" stroke="#63b8ff" d="M331.26,-165.09C414.25,-155.64 587.24,-166.4 643,-129 662.45,-115.96 672.11,-88.35 675.94,-74.22"/>
<polygon fill="#63b8ff" stroke="#63b8ff" points="330.58,-161.65 321.12,-166.42 331.49,-168.59 330.58,-161.65"/>
</a>
</g>
</g>
<!-- Node37&#45;&gt;Node27 -->
<g id="edge65_Node000037_Node000027" class="edge">
<title>Node37&#45;&gt;Node27</title>
<g id="a_edge65_Node000037_Node000027"><a xlink:title=" ">
<path fill="none" stroke="#63b8ff" d="M331.12,-164.99C480.73,-145.09 529.68,-183.9 666,-129 697.07,-116.49 726.28,-88.64 739.93,-74.34"/>
<polygon fill="#63b8ff" stroke="#63b8ff" points="330.54,-161.54 321.12,-166.39 331.51,-168.47 330.54,-161.54"/>
</a>
</g>
</g>
</g>
</svg>

<g id="navigator" transform="translate(0 0)" fill="#404254">
  <rect fill="#f2f5e9" fill-opacity="0.5" stroke="#606060" stroke-width=".5" x="0" y="0" width="60" height="60"/>
  <use id="zoomplus" xlink:href="#zoomPlus" x="17" y="9" onmousedown="handleZoom(evt,'in')"/>
  <use id="zoomminus" xlink:href="#zoomMin" x="42" y="9" onmousedown="handleZoom(evt,'out')"/>
  <use id="reset" xlink:href="#resetDef" x="30" y="36" onmousedown="handleReset()"/>
   <use id="arrowup" xlink:href="#arrowUp" x="0" y="0" onmousedown="handlePan(0,-1)"/>
  <use id="arrowright" xlink:href="#arrowRight" x="0" y="0" onmousedown="handlePan(1,0)"/>
  <use id="arrowdown" xlink:href="#arrowDown" x="0" y="0" onmousedown="handlePan(0,1)"/>
  <use id="arrowleft" xlink:href="#arrowLeft" x="0" y="0" onmousedown="handlePan(-1,0)"/>
</g>
<svg viewBox="0 0 15 15" width="100%" height="30px" preserveAspectRatio="xMaxYMin meet">
 <g id="arrow_out" transform="scale(0.3 0.3)">
  <a xlink:href="filesystem_8h__dep__incl_org.svg" target="_base">
   <rect id="button" ry="5" rx="5" y="6" x="6" height="38" width="38"
        fill="#f2f5e9" fill-opacity="0.5" stroke="#606060" stroke-width="1.0"/>
   <path id="arrow"
     d="M 11.500037,31.436501 C 11.940474,20.09759 22.043105,11.32322 32.158766,21.979434 L 37.068811,17.246167 C 37.068811,17.246167 37.088388,32 37.088388,32 L 22.160133,31.978069 C 22.160133,31.978069 26.997745,27.140456 26.997745,27.140456 C 18.528582,18.264221 13.291696,25.230495 11.500037,31.436501 z"
     style="fill:#404040;"/>
  </a>
 </g>
</svg>

<style type='text/css'>
<![CDATA[
[data-mouse-over-selected='false'] { opacity: 0.7; }
[data-mouse-over-selected='true']  { opacity: 1.0; }
]]>
</style>
<script type="application/ecmascript"><![CDATA[
document.addEventListener('DOMContentLoaded', (event) => {
  highlightEdges();
  highlightAdjacentNodes();
});
]]></script>
</svg>
