<?xml version="1.0" encoding="UTF-8" standalone="no"?>
<!DOCTYPE svg PUBLIC "-//W3C//DTD SVG 1.1//EN"
 "http://www.w3.org/Graphics/SVG/1.1/DTD/svg11.dtd">
<!-- Generated by graphviz version 2.43.0 (0)
 -->
<!-- Title: file_downlink.h Pages: 1 -->
<!--zoomable 247 -->

<svg id="main" version="1.1" xmlns="http://www.w3.org/2000/svg" xmlns:xlink="http://www.w3.org/1999/xlink" xml:space="preserve" onload="init(evt)">

<style type="text/css"><![CDATA[
.node, .edge {opacity: 0.7;}
.node.selected, .edge.selected {opacity: 1;}
.edge:hover path { stroke: red; }
.edge:hover polygon { stroke: red; fill: red; }
]]></style>

<defs>
  <circle id="rim" cx="0" cy="0" r="7"/>
  <circle id="rim2" cx="0" cy="0" r="3.5"/>
  <g id="zoomPlus">
    <use xlink:href="#rim" fill="#404040"><set attributeName="fill" to="#808080" begin="zoomplus.mouseover" end="zoomplus.mouseout"/></use>
    <path d="M-4,0h8M0,-4v8" fill="none" stroke="white" stroke-width="1.5" pointer-events="none"/>
  </g>
  <g id="zoomMin">
    <use xlink:href="#rim" fill="#404040"><set attributeName="fill" to="#808080" begin="zoomminus.mouseover" end="zoomminus.mouseout"/></use>
    <path d="M-4,0h8" fill="none" stroke="white" stroke-width="1.5" pointer-events="none"/>
  </g>
  <g id="arrowUp" transform="translate(30 24)">
    <use xlink:href="#rim"/>
    <path pointer-events="none" fill="none" stroke="white" stroke-width="1.5" d="M0,-3.0v7 M-2.5,-0.5L0,-3.0L2.5,-0.5"/>
  </g>
  <g id="arrowRight" transform="rotate(90) translate(36 -43)">
    <use xlink:href="#rim"/>
    <path pointer-events="none" fill="none" stroke="white" stroke-width="1.5" d="M0,-3.0v7 M-2.5,-0.5L0,-3.0L2.5,-0.5"/>
  </g>
  <g id="arrowDown" transform="rotate(180) translate(-30 -48)">
    <use xlink:href="#rim"/>
    <path pointer-events="none" fill="none" stroke="white" stroke-width="1.5" d="M0,-3.0v7 M-2.5,-0.5L0,-3.0L2.5,-0.5"/>
  </g>
  <g id="arrowLeft" transform="rotate(270) translate(-36 17)">
    <use xlink:href="#rim"/>
    <path pointer-events="none" fill="none" stroke="white" stroke-width="1.5" d="M0,-3.0v7 M-2.5,-0.5L0,-3.0L2.5,-0.5"/>
  </g>
  <g id="resetDef">
    <use xlink:href="#rim2" fill="#404040"><set attributeName="fill" to="#808080" begin="reset.mouseover" end="reset.mouseout"/></use>
  </g>
</defs>
<script type="application/ecmascript">
var viewWidth = 2531;
var viewHeight = 247;
var sectionId = 'dynsection-1';
</script>
<script type="application/ecmascript" xlink:href="svg.min.js"/>
<svg id="graph" class="graph">
<g id="viewport">
<title>file_downlink.h</title>
<!-- Node1 -->
<g id="Node000001" class="node">
<title>Node1</title>
<g id="a_Node000001"><a xlink:title=" ">
<polygon fill="#999999" stroke="#666666" points="1523.5,-239 1432.5,-239 1432.5,-220 1523.5,-220 1523.5,-239"/>
<text text-anchor="middle" x="1478" y="-227" font-family="Helvetica,sans-Serif" font-size="10.00">file_downlink.h</text>
</a>
</g>
</g>
<!-- Node2 -->
<g id="Node000002" class="node">
<title>Node2</title>
<g id="a_Node000002"><a xlink:href="command_8c.html" target="_top" xlink:title=" ">
<polygon fill="white" stroke="#666666" points="74,-74 0,-74 0,-55 74,-55 74,-74"/>
<text text-anchor="middle" x="37" y="-62" font-family="Helvetica,sans-Serif" font-size="10.00">command.c</text>
</a>
</g>
</g>
<!-- Node1&#45;&gt;Node2 -->
<g id="edge1_Node000001_Node000002" class="edge">
<title>Node1&#45;&gt;Node2</title>
<g id="a_edge1_Node000001_Node000002"><a xlink:title=" ">
<path fill="none" stroke="#63b8ff" d="M1421.87,-228.4C1170.93,-227.47 159.52,-218.14 53,-129 36.78,-115.43 35.69,-88.06 36.3,-74.1"/>
<polygon fill="#63b8ff" stroke="#63b8ff" points="1422.2,-231.9 1432.21,-228.44 1422.22,-224.9 1422.2,-231.9"/>
</a>
</g>
</g>
<!-- Node3 -->
<g id="Node000003" class="node">
<title>Node3</title>
<g id="a_Node000003"><a xlink:href="file__downlink_8c.html" target="_top" xlink:title=" ">
<polygon fill="white" stroke="#666666" points="2455,-74 2365,-74 2365,-55 2455,-55 2455,-74"/>
<text text-anchor="middle" x="2410" y="-62" font-family="Helvetica,sans-Serif" font-size="10.00">file_downlink.c</text>
</a>
</g>
</g>
<!-- Node1&#45;&gt;Node3 -->
<g id="edge2_Node000001_Node000003" class="edge">
<title>Node1&#45;&gt;Node3</title>
<g id="a_edge2_Node000001_Node000003"><a xlink:title=" ">
<path fill="none" stroke="#63b8ff" d="M1533.53,-218.79C1702.8,-189.18 2210.16,-100.45 2364.78,-73.41"/>
<polygon fill="#63b8ff" stroke="#63b8ff" points="1532.83,-215.36 1523.58,-220.53 1534.04,-222.25 1532.83,-215.36"/>
</a>
</g>
</g>
<!-- Node4 -->
<g id="Node000004" class="node">
<title>Node4</title>
<g id="a_Node000004"><a xlink:href="main_8c.html" target="_top" xlink:title=" ">
<polygon fill="white" stroke="#666666" points="2523,-74 2473,-74 2473,-55 2523,-55 2523,-74"/>
<text text-anchor="middle" x="2498" y="-62" font-family="Helvetica,sans-Serif" font-size="10.00">main.c</text>
</a>
</g>
</g>
<!-- Node1&#45;&gt;Node4 -->
<g id="edge3_Node000001_Node000004" class="edge">
<title>Node1&#45;&gt;Node4</title>
<g id="a_edge3_Node000001_Node000004"><a xlink:title=" ">
<path fill="none" stroke="#63b8ff" d="M1533.46,-221.33C1597.86,-212.9 1707.24,-198.23 1801,-184 2096.31,-139.17 2171.54,-134.72 2464,-74 2466.86,-73.41 2469.84,-72.74 2472.8,-72.04"/>
<polygon fill="#63b8ff" stroke="#63b8ff" points="1532.99,-217.86 1523.52,-222.63 1533.89,-224.8 1532.99,-217.86"/>
</a>
</g>
</g>
<!-- Node5 -->
<g id="Node000005" class="node">
<title>Node5</title>
<g id="a_Node000005"><a xlink:href="telemetry_8h.html" target="_top" xlink:title="Functions for packaging and queuing telemetry packets for sending.">
<polygon fill="white" stroke="#666666" points="1014,-184 942,-184 942,-165 1014,-165 1014,-184"/>
<text text-anchor="middle" x="978" y="-172" font-family="Helvetica,sans-Serif" font-size="10.00">telemetry.h</text>
</a>
</g>
</g>
<!-- Node1&#45;&gt;Node5 -->
<g id="edge4_Node000001_Node000005" class="edge">
<title>Node1&#45;&gt;Node5</title>
<g id="a_edge4_Node000001_Node000005"><a xlink:title=" ">
<path fill="none" stroke="#63b8ff" d="M1422.07,-222.57C1318.67,-211.61 1100.33,-188.47 1014.12,-179.33"/>
<polygon fill="#63b8ff" stroke="#63b8ff" points="1421.99,-226.08 1432.3,-223.66 1422.73,-219.12 1421.99,-226.08"/>
</a>
</g>
</g>
<!-- Node5&#45;&gt;Node3 -->
<g id="edge6_Node000005_Node000003" class="edge">
<title>Node5&#45;&gt;Node3</title>
<g id="a_edge6_Node000005_Node000003"><a xlink:title=" ">
<path fill="none" stroke="#63b8ff" d="M1024.37,-169.36C1144.82,-158.67 1477.55,-129.64 1755,-110 2021.92,-91.1 2089.97,-102.84 2356,-74 2358.92,-73.68 2361.93,-73.32 2364.96,-72.92"/>
<polygon fill="#63b8ff" stroke="#63b8ff" points="1024.04,-165.87 1014.39,-170.24 1024.66,-172.84 1024.04,-165.87"/>
</a>
</g>
</g>
<!-- Node5&#45;&gt;Node4 -->
<g id="edge44_Node000005_Node000004" class="edge">
<title>Node5&#45;&gt;Node4</title>
<g id="a_edge44_Node000005_Node000004"><a xlink:title=" ">
<path fill="none" stroke="#63b8ff" d="M1024.12,-170.48C1133.13,-163.32 1415.3,-144.77 1651,-129 2012.35,-104.83 2106.25,-130.36 2464,-74 2466.88,-73.55 2469.88,-72.96 2472.85,-72.32"/>
<polygon fill="#63b8ff" stroke="#63b8ff" points="1023.86,-166.98 1014.11,-171.13 1024.32,-173.97 1023.86,-166.98"/>
</a>
</g>
</g>
<!-- Node6 -->
<g id="Node000006" class="node">
<title>Node6</title>
<g id="a_Node000006"><a xlink:href="command__fuzzer_8cpp.html" target="_top" xlink:title=" ">
<polygon fill="white" stroke="#666666" points="475.5,-74 354.5,-74 354.5,-55 475.5,-55 475.5,-74"/>
<text text-anchor="middle" x="415" y="-62" font-family="Helvetica,sans-Serif" font-size="10.00">command_fuzzer.cpp</text>
</a>
</g>
</g>
<!-- Node5&#45;&gt;Node6 -->
<g id="edge5_Node000005_Node000006" class="edge">
<title>Node5&#45;&gt;Node6</title>
<g id="a_edge5_Node000005_Node000006"><a xlink:title=" ">
<path fill="none" stroke="#63b8ff" d="M931.83,-164.64C825.46,-144.24 564.28,-94.14 459.53,-74.04"/>
<polygon fill="#63b8ff" stroke="#63b8ff" points="931.45,-168.13 941.93,-166.58 932.76,-161.26 931.45,-168.13"/>
</a>
</g>
</g>
<!-- Node7 -->
<g id="Node000007" class="node">
<title>Node7</title>
<g id="a_Node000007"><a xlink:href="hb__tlm__log_8h.html" target="_top" xlink:title=" ">
<polygon fill="white" stroke="#666666" points="142,-129 62,-129 62,-110 142,-110 142,-129"/>
<text text-anchor="middle" x="102" y="-117" font-family="Helvetica,sans-Serif" font-size="10.00">hb_tlm_log.h</text>
</a>
</g>
</g>
<!-- Node5&#45;&gt;Node7 -->
<g id="edge7_Node000005_Node000007" class="edge">
<title>Node5&#45;&gt;Node7</title>
<g id="a_edge7_Node000005_Node000007"><a xlink:title=" ">
<path fill="none" stroke="#63b8ff" d="M931.84,-172.65C806.67,-169.99 450.46,-160.06 156,-129 151.47,-128.52 146.74,-127.92 142.04,-127.27"/>
<polygon fill="#63b8ff" stroke="#63b8ff" points="931.77,-176.15 941.84,-172.86 931.91,-169.15 931.77,-176.15"/>
</a>
</g>
</g>
<!-- Node9 -->
<g id="Node000009" class="node">
<title>Node9</title>
<g id="a_Node000009"><a xlink:href="heartbeat__job_8c.html" target="_top" xlink:title=" ">
<polygon fill="white" stroke="#666666" points="186,-19 94,-19 94,0 186,0 186,-19"/>
<text text-anchor="middle" x="140" y="-7" font-family="Helvetica,sans-Serif" font-size="10.00">heartbeat_job.c</text>
</a>
</g>
</g>
<!-- Node5&#45;&gt;Node9 -->
<g id="edge11_Node000005_Node000009" class="edge">
<title>Node5&#45;&gt;Node9</title>
<g id="a_edge11_Node000005_Node000009"><a xlink:title=" ">
<path fill="none" stroke="#63b8ff" d="M931.67,-170.86C767.18,-161.07 217.94,-124.83 159,-74 142.79,-60.02 140.11,-32.83 139.85,-19.01"/>
<polygon fill="#63b8ff" stroke="#63b8ff" points="931.75,-174.37 941.94,-171.46 932.16,-167.38 931.75,-174.37"/>
</a>
</g>
</g>
<!-- Node10 -->
<g id="Node000010" class="node">
<title>Node10</title>
<g id="a_Node000010"><a xlink:href="log_8h.html" target="_top" xlink:title=" ">
<polygon fill="white" stroke="#666666" points="1311.5,-129 1270.5,-129 1270.5,-110 1311.5,-110 1311.5,-129"/>
<text text-anchor="middle" x="1291" y="-117" font-family="Helvetica,sans-Serif" font-size="10.00">log.h</text>
</a>
</g>
</g>
<!-- Node5&#45;&gt;Node10 -->
<g id="edge12_Node000005_Node000010" class="edge">
<title>Node5&#45;&gt;Node10</title>
<g id="a_edge12_Node000005_Node000010"><a xlink:title=" ">
<path fill="none" stroke="#63b8ff" d="M1024.37,-165.65C1093.44,-153.95 1220.54,-132.43 1270.28,-124.01"/>
<polygon fill="#63b8ff" stroke="#63b8ff" points="1023.49,-162.25 1014.21,-167.37 1024.65,-169.15 1023.49,-162.25"/>
</a>
</g>
</g>
<!-- Node29 -->
<g id="Node000029" class="node">
<title>Node29</title>
<g id="a_Node000029"><a xlink:href="telemetry_8c.html" target="_top" xlink:title=" ">
<polygon fill="white" stroke="#666666" points="336.5,-74 265.5,-74 265.5,-55 336.5,-55 336.5,-74"/>
<text text-anchor="middle" x="301" y="-62" font-family="Helvetica,sans-Serif" font-size="10.00">telemetry.c</text>
</a>
</g>
</g>
<!-- Node5&#45;&gt;Node29 -->
<g id="edge45_Node000005_Node000029" class="edge">
<title>Node5&#45;&gt;Node29</title>
<g id="a_edge45_Node000005_Node000029"><a xlink:title=" ">
<path fill="none" stroke="#63b8ff" d="M931.67,-167.59C869.36,-159.53 755.16,-144.31 658,-129 518.91,-107.08 484.51,-99.29 346,-74 343.03,-73.46 339.95,-72.89 336.85,-72.31"/>
<polygon fill="#63b8ff" stroke="#63b8ff" points="931.58,-171.11 941.94,-168.92 932.47,-164.17 931.58,-171.11"/>
</a>
</g>
</g>
<!-- Node7&#45;&gt;Node2 -->
<g id="edge8_Node000007_Node000002" class="edge">
<title>Node7&#45;&gt;Node2</title>
<g id="a_edge8_Node000007_Node000002"><a xlink:title=" ">
<path fill="none" stroke="#63b8ff" d="M83.73,-103.6C72.08,-94.11 57.4,-82.13 47.63,-74.17"/>
<polygon fill="#63b8ff" stroke="#63b8ff" points="81.59,-106.38 91.56,-109.98 86.02,-100.95 81.59,-106.38"/>
</a>
</g>
</g>
<!-- Node8 -->
<g id="Node000008" class="node">
<title>Node8</title>
<g id="a_Node000008"><a xlink:href="hb__tlm__log_8c.html" target="_top" xlink:title=" ">
<polygon fill="white" stroke="#666666" points="247.5,-74 168.5,-74 168.5,-55 247.5,-55 247.5,-74"/>
<text text-anchor="middle" x="208" y="-62" font-family="Helvetica,sans-Serif" font-size="10.00">hb_tlm_log.c</text>
</a>
</g>
</g>
<!-- Node7&#45;&gt;Node8 -->
<g id="edge9_Node000007_Node000008" class="edge">
<title>Node7&#45;&gt;Node8</title>
<g id="a_edge9_Node000007_Node000008"><a xlink:title=" ">
<path fill="none" stroke="#63b8ff" d="M128,-105.5C147.5,-95.75 173.65,-82.68 190.66,-74.17"/>
<polygon fill="#63b8ff" stroke="#63b8ff" points="126.41,-102.38 119.03,-109.98 129.54,-108.64 126.41,-102.38"/>
</a>
</g>
</g>
<!-- Node7&#45;&gt;Node9 -->
<g id="edge10_Node000007_Node000009" class="edge">
<title>Node7&#45;&gt;Node9</title>
<g id="a_edge10_Node000007_Node000009"><a xlink:title=" ">
<path fill="none" stroke="#63b8ff" d="M108.47,-100.12C116.76,-76.56 130.8,-36.66 136.95,-19.16"/>
<polygon fill="#63b8ff" stroke="#63b8ff" points="105.13,-99.07 105.11,-109.66 111.73,-101.39 105.13,-99.07"/>
</a>
</g>
</g>
<!-- Node10&#45;&gt;Node2 -->
<g id="edge14_Node000010_Node000002" class="edge">
<title>Node10&#45;&gt;Node2</title>
<g id="a_edge14_Node000010_Node000002"><a xlink:title=" ">
<path fill="none" stroke="#63b8ff" d="M1259.92,-117.62C1127.29,-113.81 595.48,-97.78 159,-74 130.49,-72.45 98.26,-70.18 74.09,-68.38"/>
<polygon fill="#63b8ff" stroke="#63b8ff" points="1260.06,-121.13 1270.15,-117.92 1260.26,-114.13 1260.06,-121.13"/>
</a>
</g>
</g>
<!-- Node10&#45;&gt;Node3 -->
<g id="edge17_Node000010_Node000003" class="edge">
<title>Node10&#45;&gt;Node3</title>
<g id="a_edge17_Node000010_Node000003"><a xlink:title=" ">
<path fill="none" stroke="#63b8ff" d="M1321.73,-117.69C1473.87,-113.62 2147.39,-94.71 2356,-74 2358.93,-73.71 2361.94,-73.36 2364.97,-72.98"/>
<polygon fill="#63b8ff" stroke="#63b8ff" points="1321.6,-114.19 1311.69,-117.96 1321.78,-121.19 1321.6,-114.19"/>
</a>
</g>
</g>
<!-- Node10&#45;&gt;Node4 -->
<g id="edge31_Node000010_Node000004" class="edge">
<title>Node10&#45;&gt;Node4</title>
<g id="a_edge31_Node000010_Node000004"><a xlink:title=" ">
<path fill="none" stroke="#63b8ff" d="M1321.95,-117.71C1495.9,-113.21 2348.15,-90.5 2464,-74 2466.89,-73.59 2469.89,-73.03 2472.86,-72.4"/>
<polygon fill="#63b8ff" stroke="#63b8ff" points="1321.83,-114.21 1311.93,-117.97 1322.02,-121.21 1321.83,-114.21"/>
</a>
</g>
</g>
<!-- Node10&#45;&gt;Node6 -->
<g id="edge15_Node000010_Node000006" class="edge">
<title>Node10&#45;&gt;Node6</title>
<g id="a_edge15_Node000010_Node000006"><a xlink:title=" ">
<path fill="none" stroke="#63b8ff" d="M1260.16,-117.42C1153.37,-113.56 789.55,-99.27 490,-74 485.3,-73.6 480.44,-73.15 475.55,-72.66"/>
<polygon fill="#63b8ff" stroke="#63b8ff" points="1260.12,-120.92 1270.24,-117.79 1260.37,-113.93 1260.12,-120.92"/>
</a>
</g>
</g>
<!-- Node10&#45;&gt;Node8 -->
<g id="edge20_Node000010_Node000008" class="edge">
<title>Node10&#45;&gt;Node8</title>
<g id="a_edge20_Node000010_Node000008"><a xlink:title=" ">
<path fill="none" stroke="#63b8ff" d="M1260.13,-118.66C1134.65,-119 650.82,-117.25 256,-74 253.31,-73.71 250.54,-73.35 247.75,-72.96"/>
<polygon fill="#63b8ff" stroke="#63b8ff" points="1260.51,-122.16 1270.5,-118.62 1260.48,-115.16 1260.51,-122.16"/>
</a>
</g>
</g>
<!-- Node11 -->
<g id="Node000011" class="node">
<title>Node11</title>
<g id="a_Node000011"><a xlink:href="antenna__deploy__job_8c.html" target="_top" xlink:title=" ">
<polygon fill="white" stroke="#666666" points="1730.5,-74 1607.5,-74 1607.5,-55 1730.5,-55 1730.5,-74"/>
<text text-anchor="middle" x="1669" y="-62" font-family="Helvetica,sans-Serif" font-size="10.00">antenna_deploy_job.c</text>
</a>
</g>
</g>
<!-- Node10&#45;&gt;Node11 -->
<g id="edge13_Node000010_Node000011" class="edge">
<title>Node10&#45;&gt;Node11</title>
<g id="a_edge13_Node000010_Node000011"><a xlink:title=" ">
<path fill="none" stroke="#63b8ff" d="M1321.56,-114.21C1383.83,-105.48 1526.38,-85.5 1608.23,-74.02"/>
<polygon fill="#63b8ff" stroke="#63b8ff" points="1321.01,-110.76 1311.59,-115.61 1321.98,-117.69 1321.01,-110.76"/>
</a>
</g>
</g>
<!-- Node12 -->
<g id="Node000012" class="node">
<title>Node12</title>
<g id="a_Node000012"><a xlink:href="ds18b20_8c.html" target="_top" xlink:title=" ">
<polygon fill="white" stroke="#666666" points="1815,-74 1749,-74 1749,-55 1815,-55 1815,-74"/>
<text text-anchor="middle" x="1782" y="-62" font-family="Helvetica,sans-Serif" font-size="10.00">ds18b20.c</text>
</a>
</g>
</g>
<!-- Node10&#45;&gt;Node12 -->
<g id="edge16_Node000010_Node000012" class="edge">
<title>Node10&#45;&gt;Node12</title>
<g id="a_edge16_Node000010_Node000012"><a xlink:title=" ">
<path fill="none" stroke="#63b8ff" d="M1322,-116.51C1395.09,-111.58 1583.8,-97.49 1740,-74 1742.8,-73.58 1745.69,-73.1 1748.58,-72.58"/>
<polygon fill="#63b8ff" stroke="#63b8ff" points="1321.42,-113.04 1311.68,-117.2 1321.89,-120.03 1321.42,-113.04"/>
</a>
</g>
</g>
<!-- Node13 -->
<g id="Node000013" class="node">
<title>Node13</title>
<g id="a_Node000013"><a xlink:href="filesystem_8c.html" target="_top" xlink:title=" ">
<polygon fill="white" stroke="#666666" points="1910.5,-74 1833.5,-74 1833.5,-55 1910.5,-55 1910.5,-74"/>
<text text-anchor="middle" x="1872" y="-62" font-family="Helvetica,sans-Serif" font-size="10.00">filesystem.c</text>
</a>
</g>
</g>
<!-- Node10&#45;&gt;Node13 -->
<g id="edge18_Node000010_Node000013" class="edge">
<title>Node10&#45;&gt;Node13</title>
<g id="a_edge18_Node000010_Node000013"><a xlink:title=" ">
<path fill="none" stroke="#63b8ff" d="M1321.77,-116.92C1403.7,-112.51 1633.87,-98.72 1824,-74 1827.02,-73.61 1830.14,-73.16 1833.27,-72.67"/>
<polygon fill="#63b8ff" stroke="#63b8ff" points="1321.45,-113.44 1311.65,-117.46 1321.82,-120.43 1321.45,-113.44"/>
</a>
</g>
</g>
<!-- Node14 -->
<g id="Node000014" class="node">
<title>Node14</title>
<g id="a_Node000014"><a xlink:href="gse_8c.html" target="_top" xlink:title=" ">
<polygon fill="white" stroke="#666666" points="1971,-74 1929,-74 1929,-55 1971,-55 1971,-74"/>
<text text-anchor="middle" x="1950" y="-62" font-family="Helvetica,sans-Serif" font-size="10.00">gse.c</text>
</a>
</g>
</g>
<!-- Node10&#45;&gt;Node14 -->
<g id="edge19_Node000010_Node000014" class="edge">
<title>Node10&#45;&gt;Node14</title>
<g id="a_edge19_Node000010_Node000014"><a xlink:title=" ">
<path fill="none" stroke="#63b8ff" d="M1321.8,-117.16C1431.5,-112.26 1802.86,-94.51 1920,-74 1922.88,-73.5 1925.88,-72.83 1928.82,-72.08"/>
<polygon fill="#63b8ff" stroke="#63b8ff" points="1321.56,-113.67 1311.73,-117.61 1321.87,-120.66 1321.56,-113.67"/>
</a>
</g>
</g>
<!-- Node15 -->
<g id="Node000015" class="node">
<title>Node15</title>
<g id="a_Node000015"><a xlink:href="i2c_8c.html" target="_top" xlink:title=" ">
<polygon fill="white" stroke="#666666" points="2028.5,-74 1989.5,-74 1989.5,-55 2028.5,-55 2028.5,-74"/>
<text text-anchor="middle" x="2009" y="-62" font-family="Helvetica,sans-Serif" font-size="10.00">i2c.c</text>
</a>
</g>
</g>
<!-- Node10&#45;&gt;Node15 -->
<g id="edge21_Node000010_Node000015" class="edge">
<title>Node10&#45;&gt;Node15</title>
<g id="a_edge21_Node000010_Node000015"><a xlink:title=" ">
<path fill="none" stroke="#63b8ff" d="M1322.02,-117.41C1438.64,-113.16 1850.78,-96.82 1980,-74 1983.1,-73.45 1986.34,-72.69 1989.48,-71.86"/>
<polygon fill="#63b8ff" stroke="#63b8ff" points="1321.54,-113.92 1311.67,-117.78 1321.79,-120.92 1321.54,-113.92"/>
</a>
</g>
</g>
<!-- Node16 -->
<g id="Node000016" class="node">
<title>Node16</title>
<g id="a_Node000016"><a xlink:href="ina219_8c.html" target="_top" xlink:title=" ">
<polygon fill="white" stroke="#666666" points="2105,-74 2047,-74 2047,-55 2105,-55 2105,-74"/>
<text text-anchor="middle" x="2076" y="-62" font-family="Helvetica,sans-Serif" font-size="10.00">ina219.c</text>
</a>
</g>
</g>
<!-- Node10&#45;&gt;Node16 -->
<g id="edge22_Node000010_Node000016" class="edge">
<title>Node10&#45;&gt;Node16</title>
<g id="a_edge22_Node000010_Node000016"><a xlink:title=" ">
<path fill="none" stroke="#63b8ff" d="M1321.77,-117.33C1444.1,-112.56 1896.1,-93.96 2038,-74 2040.81,-73.6 2043.72,-73.11 2046.63,-72.56"/>
<polygon fill="#63b8ff" stroke="#63b8ff" points="1321.47,-113.84 1311.62,-117.72 1321.75,-120.83 1321.47,-113.84"/>
</a>
</g>
</g>
<!-- Node17 -->
<g id="Node000017" class="node">
<title>Node17</title>
<g id="a_Node000017"><a xlink:href="test_2unit_2utilities_2log_8c.html" target="_top" xlink:title=" ">
<polygon fill="white" stroke="#666666" points="2163,-74 2123,-74 2123,-55 2163,-55 2163,-74"/>
<text text-anchor="middle" x="2143" y="-62" font-family="Helvetica,sans-Serif" font-size="10.00">log.c</text>
</a>
</g>
</g>
<!-- Node10&#45;&gt;Node17 -->
<g id="edge23_Node000010_Node000017" class="edge">
<title>Node10&#45;&gt;Node17</title>
<g id="a_edge23_Node000010_Node000017"><a xlink:title=" ">
<path fill="none" stroke="#63b8ff" d="M1321.54,-117.79C1451.26,-114.65 1957.1,-100.86 2114,-74 2116.9,-73.5 2119.91,-72.82 2122.86,-72.05"/>
<polygon fill="#63b8ff" stroke="#63b8ff" points="1321.42,-114.29 1311.51,-118.03 1321.59,-121.29 1321.42,-114.29"/>
</a>
</g>
</g>
<!-- Node18 -->
<g id="Node000018" class="node">
<title>Node18</title>
<g id="a_Node000018"><a xlink:href="utilities_2src_2log_8c.html" target="_top" xlink:title=" ">
<polygon fill="white" stroke="#666666" points="2221,-74 2181,-74 2181,-55 2221,-55 2221,-74"/>
<text text-anchor="middle" x="2201" y="-62" font-family="Helvetica,sans-Serif" font-size="10.00">log.c</text>
</a>
</g>
</g>
<!-- Node10&#45;&gt;Node18 -->
<g id="edge24_Node000010_Node000018" class="edge">
<title>Node10&#45;&gt;Node18</title>
<g id="a_edge24_Node000010_Node000018"><a xlink:title=" ">
<path fill="none" stroke="#63b8ff" d="M1321.71,-117.38C1467.56,-111.99 2086.84,-88.43 2172,-74 2174.9,-73.51 2177.91,-72.83 2180.86,-72.06"/>
<polygon fill="#63b8ff" stroke="#63b8ff" points="1321.53,-113.88 1311.66,-117.75 1321.79,-120.88 1321.53,-113.88"/>
</a>
</g>
</g>
<!-- Node19 -->
<g id="Node000019" class="node">
<title>Node19</title>
<g id="a_Node000019"><a xlink:href="log__test__unittest_8c.html" target="_top" xlink:title=" ">
<polygon fill="white" stroke="#666666" points="2346.5,-74 2239.5,-74 2239.5,-55 2346.5,-55 2346.5,-74"/>
<text text-anchor="middle" x="2293" y="-62" font-family="Helvetica,sans-Serif" font-size="10.00">log_test_unittest.c</text>
</a>
</g>
</g>
<!-- Node10&#45;&gt;Node19 -->
<g id="edge25_Node000010_Node000019" class="edge">
<title>Node10&#45;&gt;Node19</title>
<g id="a_edge25_Node000010_Node000019"><a xlink:title=" ">
<path fill="none" stroke="#63b8ff" d="M1321.59,-117.41C1462.2,-112.34 2047.44,-90.61 2230,-74 2233.08,-73.72 2236.24,-73.4 2239.42,-73.05"/>
<polygon fill="#63b8ff" stroke="#63b8ff" points="1321.39,-113.91 1311.52,-117.77 1321.64,-120.91 1321.39,-113.91"/>
</a>
</g>
</g>
<!-- Node20 -->
<g id="Node000020" class="node">
<title>Node20</title>
<g id="a_Node000020"><a xlink:href="mag__lis3mdltr_8c.html" target="_top" xlink:title=" ">
<polygon fill="white" stroke="#666666" points="566.5,-19 471.5,-19 471.5,0 566.5,0 566.5,-19"/>
<text text-anchor="middle" x="519" y="-7" font-family="Helvetica,sans-Serif" font-size="10.00">mag_lis3mdltr.c</text>
</a>
</g>
</g>
<!-- Node10&#45;&gt;Node20 -->
<g id="edge26_Node000010_Node000020" class="edge">
<title>Node10&#45;&gt;Node20</title>
<g id="a_edge26_Node000010_Node000020"><a xlink:title=" ">
<path fill="none" stroke="#63b8ff" d="M1260.46,-117.85C1120.92,-114.75 549.59,-100.45 523,-74 508.59,-59.66 512.83,-33.13 516.35,-19.34"/>
<polygon fill="#63b8ff" stroke="#63b8ff" points="1260.4,-121.35 1270.47,-118.07 1260.55,-114.35 1260.4,-121.35"/>
</a>
</g>
</g>
<!-- Node21 -->
<g id="Node000021" class="node">
<title>Node21</title>
<g id="a_Node000021"><a xlink:href="mag__lis3mdltr_8h.html" target="_top" xlink:title="Magnetometer Driver (LIS3MDLTR).">
<polygon fill="white" stroke="#666666" points="628,-74 532,-74 532,-55 628,-55 628,-74"/>
<text text-anchor="middle" x="580" y="-62" font-family="Helvetica,sans-Serif" font-size="10.00">mag_lis3mdltr.h</text>
</a>
</g>
</g>
<!-- Node10&#45;&gt;Node21 -->
<g id="edge27_Node000010_Node000021" class="edge">
<title>Node10&#45;&gt;Node21</title>
<g id="a_edge27_Node000010_Node000021"><a xlink:title=" ">
<path fill="none" stroke="#63b8ff" d="M1260.37,-117.14C1167.26,-112.84 879.48,-98.39 642,-74 637.46,-73.53 632.74,-72.99 628.03,-72.41"/>
<polygon fill="#63b8ff" stroke="#63b8ff" points="1260.35,-120.64 1270.5,-117.6 1260.67,-113.65 1260.35,-120.64"/>
</a>
</g>
</g>
<!-- Node22 -->
<g id="Node000022" class="node">
<title>Node22</title>
<g id="a_Node000022"><a xlink:href="steve_8c.html" target="_top" xlink:title=" ">
<polygon fill="white" stroke="#666666" points="667,-19 615,-19 615,0 667,0 667,-19"/>
<text text-anchor="middle" x="641" y="-7" font-family="Helvetica,sans-Serif" font-size="10.00">steve.c</text>
</a>
</g>
</g>
<!-- Node10&#45;&gt;Node22 -->
<g id="edge38_Node000010_Node000022" class="edge">
<title>Node10&#45;&gt;Node22</title>
<g id="a_edge38_Node000010_Node000022"><a xlink:title=" ">
<path fill="none" stroke="#63b8ff" d="M1260.31,-117.98C1142.78,-115.76 725.5,-105.7 676,-74 656.28,-61.37 646.74,-33.57 643,-19.31"/>
<polygon fill="#63b8ff" stroke="#63b8ff" points="1260.35,-121.48 1270.42,-118.17 1260.48,-114.48 1260.35,-121.48"/>
</a>
</g>
</g>
<!-- Node23 -->
<g id="Node000023" class="node">
<title>Node23</title>
<g id="a_Node000023"><a xlink:href="max17048_8c.html" target="_top" xlink:title=" ">
<polygon fill="white" stroke="#666666" points="761.5,-74 684.5,-74 684.5,-55 761.5,-55 761.5,-74"/>
<text text-anchor="middle" x="723" y="-62" font-family="Helvetica,sans-Serif" font-size="10.00">max17048.c</text>
</a>
</g>
</g>
<!-- Node10&#45;&gt;Node23 -->
<g id="edge32_Node000010_Node000023" class="edge">
<title>Node10&#45;&gt;Node23</title>
<g id="a_edge32_Node000010_Node000023"><a xlink:title=" ">
<path fill="none" stroke="#63b8ff" d="M1259.64,-116.8C1178.57,-112.2 955.48,-98.18 771,-74 767.98,-73.6 764.86,-73.15 761.73,-72.67"/>
<polygon fill="#63b8ff" stroke="#63b8ff" points="1259.94,-120.32 1270.12,-117.39 1260.33,-113.34 1259.94,-120.32"/>
</a>
</g>
</g>
<!-- Node24 -->
<g id="Node000024" class="node">
<title>Node24</title>
<g id="a_Node000024"><a xlink:href="miscellaneous__jobs_8c.html" target="_top" xlink:title=" ">
<polygon fill="white" stroke="#666666" points="900.5,-74 779.5,-74 779.5,-55 900.5,-55 900.5,-74"/>
<text text-anchor="middle" x="840" y="-62" font-family="Helvetica,sans-Serif" font-size="10.00">miscellaneous_jobs.c</text>
</a>
</g>
</g>
<!-- Node10&#45;&gt;Node24 -->
<g id="edge33_Node000010_Node000024" class="edge">
<title>Node10&#45;&gt;Node24</title>
<g id="a_edge33_Node000010_Node000024"><a xlink:title=" ">
<path fill="none" stroke="#63b8ff" d="M1260.41,-114.97C1195.72,-107.51 1040.29,-89.52 910,-74 906.96,-73.64 903.85,-73.27 900.7,-72.89"/>
<polygon fill="#63b8ff" stroke="#63b8ff" points="1260.01,-118.45 1270.35,-116.12 1260.81,-111.5 1260.01,-118.45"/>
</a>
</g>
</g>
<!-- Node25 -->
<g id="Node000025" class="node">
<title>Node25</title>
<g id="a_Node000025"><a xlink:href="mram_8c.html" target="_top" xlink:title=" ">
<polygon fill="white" stroke="#666666" points="973,-74 919,-74 919,-55 973,-55 973,-74"/>
<text text-anchor="middle" x="946" y="-62" font-family="Helvetica,sans-Serif" font-size="10.00">mram.c</text>
</a>
</g>
</g>
<!-- Node10&#45;&gt;Node25 -->
<g id="edge34_Node000010_Node000025" class="edge">
<title>Node10&#45;&gt;Node25</title>
<g id="a_edge34_Node000010_Node000025"><a xlink:title=" ">
<path fill="none" stroke="#63b8ff" d="M1260.01,-114.96C1204.18,-108.38 1083.09,-93.17 982,-74 979.1,-73.45 976.08,-72.82 973.07,-72.16"/>
<polygon fill="#63b8ff" stroke="#63b8ff" points="1259.94,-118.48 1270.28,-116.16 1260.76,-111.53 1259.94,-118.48"/>
</a>
</g>
</g>
<!-- Node26 -->
<g id="Node000026" class="node">
<title>Node26</title>
<g id="a_Node000026"><a xlink:href="radio_8cpp.html" target="_top" xlink:title="Radio operations and the task handling them.">
<polygon fill="white" stroke="#666666" points="1053,-74 991,-74 991,-55 1053,-55 1053,-74"/>
<text text-anchor="middle" x="1022" y="-62" font-family="Helvetica,sans-Serif" font-size="10.00">radio.cpp</text>
</a>
</g>
</g>
<!-- Node10&#45;&gt;Node26 -->
<g id="edge35_Node000010_Node000026" class="edge">
<title>Node10&#45;&gt;Node26</title>
<g id="a_edge35_Node000010_Node000026"><a xlink:title=" ">
<path fill="none" stroke="#63b8ff" d="M1260.42,-112.73C1216.47,-104.41 1132.95,-88.43 1062,-74 1059.22,-73.43 1056.33,-72.84 1053.43,-72.23"/>
<polygon fill="#63b8ff" stroke="#63b8ff" points="1259.97,-116.21 1270.45,-114.63 1261.27,-109.33 1259.97,-116.21"/>
</a>
</g>
</g>
<!-- Node27 -->
<g id="Node000027" class="node">
<title>Node27</title>
<g id="a_Node000027"><a xlink:href="rtc__ds3231_8c.html" target="_top" xlink:title=" ">
<polygon fill="white" stroke="#666666" points="1149,-74 1071,-74 1071,-55 1149,-55 1149,-74"/>
<text text-anchor="middle" x="1110" y="-62" font-family="Helvetica,sans-Serif" font-size="10.00">rtc_ds3231.c</text>
</a>
</g>
</g>
<!-- Node10&#45;&gt;Node27 -->
<g id="edge36_Node000010_Node000027" class="edge">
<title>Node10&#45;&gt;Node27</title>
<g id="a_edge36_Node000010_Node000027"><a xlink:title=" ">
<path fill="none" stroke="#63b8ff" d="M1260.43,-109.55C1226.59,-99.64 1172.43,-83.78 1139.16,-74.04"/>
<polygon fill="#63b8ff" stroke="#63b8ff" points="1259.66,-112.97 1270.24,-112.42 1261.62,-106.25 1259.66,-112.97"/>
</a>
</g>
</g>
<!-- Node28 -->
<g id="Node000028" class="node">
<title>Node28</title>
<g id="a_Node000028"><a xlink:href="set__rtc__job_8c.html" target="_top" xlink:title=" ">
<polygon fill="white" stroke="#666666" points="1245,-74 1167,-74 1167,-55 1245,-55 1245,-74"/>
<text text-anchor="middle" x="1206" y="-62" font-family="Helvetica,sans-Serif" font-size="10.00">set_rtc_job.c</text>
</a>
</g>
</g>
<!-- Node10&#45;&gt;Node28 -->
<g id="edge37_Node000010_Node000028" class="edge">
<title>Node10&#45;&gt;Node28</title>
<g id="a_edge37_Node000010_Node000028"><a xlink:title=" ">
<path fill="none" stroke="#63b8ff" d="M1268.43,-104.42C1253,-94.81 1233.05,-82.37 1219.91,-74.17"/>
<polygon fill="#63b8ff" stroke="#63b8ff" points="1267.01,-107.66 1277.34,-109.98 1270.71,-101.72 1267.01,-107.66"/>
</a>
</g>
</g>
<!-- Node10&#45;&gt;Node29 -->
<g id="edge39_Node000010_Node000029" class="edge">
<title>Node10&#45;&gt;Node29</title>
<g id="a_edge39_Node000010_Node000029"><a xlink:title=" ">
<path fill="none" stroke="#63b8ff" d="M1260.13,-118.61C1141.47,-118.69 703.5,-115.97 346,-74 343,-73.65 339.9,-73.21 336.79,-72.73"/>
<polygon fill="#63b8ff" stroke="#63b8ff" points="1260.3,-122.11 1270.3,-118.59 1260.29,-115.11 1260.3,-122.11"/>
</a>
</g>
</g>
<!-- Node30 -->
<g id="Node000030" class="node">
<title>Node30</title>
<g id="a_Node000030"><a xlink:href="timing_8c.html" target="_top" xlink:title=" ">
<polygon fill="white" stroke="#666666" points="1319,-74 1263,-74 1263,-55 1319,-55 1319,-74"/>
<text text-anchor="middle" x="1291" y="-62" font-family="Helvetica,sans-Serif" font-size="10.00">timing.c</text>
</a>
</g>
</g>
<!-- Node10&#45;&gt;Node30 -->
<g id="edge40_Node000010_Node000030" class="edge">
<title>Node10&#45;&gt;Node30</title>
<g id="a_edge40_Node000010_Node000030"><a xlink:title=" ">
<path fill="none" stroke="#63b8ff" d="M1291,-99.66C1291,-90.93 1291,-80.99 1291,-74.09"/>
<polygon fill="#63b8ff" stroke="#63b8ff" points="1287.5,-99.75 1291,-109.75 1294.5,-99.75 1287.5,-99.75"/>
</a>
</g>
</g>
<!-- Node31 -->
<g id="Node000031" class="node">
<title>Node31</title>
<g id="a_Node000031"><a xlink:href="user__auth_8c.html" target="_top" xlink:title=" ">
<polygon fill="white" stroke="#666666" points="1410.5,-74 1337.5,-74 1337.5,-55 1410.5,-55 1410.5,-74"/>
<text text-anchor="middle" x="1374" y="-62" font-family="Helvetica,sans-Serif" font-size="10.00">user_auth.c</text>
</a>
</g>
</g>
<!-- Node10&#45;&gt;Node31 -->
<g id="edge41_Node000010_Node000031" class="edge">
<title>Node10&#45;&gt;Node31</title>
<g id="a_edge41_Node000010_Node000031"><a xlink:title=" ">
<path fill="none" stroke="#63b8ff" d="M1313.04,-104.42C1328.11,-94.81 1347.59,-82.37 1360.42,-74.17"/>
<polygon fill="#63b8ff" stroke="#63b8ff" points="1310.88,-101.65 1304.34,-109.98 1314.65,-107.55 1310.88,-101.65"/>
</a>
</g>
</g>
<!-- Node32 -->
<g id="Node000032" class="node">
<title>Node32</title>
<g id="a_Node000032"><a xlink:href="vega__ant_8c.html" target="_top" xlink:title=" ">
<polygon fill="white" stroke="#666666" points="1499,-74 1429,-74 1429,-55 1499,-55 1499,-74"/>
<text text-anchor="middle" x="1464" y="-62" font-family="Helvetica,sans-Serif" font-size="10.00">vega_ant.c</text>
</a>
</g>
</g>
<!-- Node10&#45;&gt;Node32 -->
<g id="edge42_Node000010_Node000032" class="edge">
<title>Node10&#45;&gt;Node32</title>
<g id="a_edge42_Node000010_Node000032"><a xlink:title=" ">
<path fill="none" stroke="#63b8ff" d="M1321.34,-109.2C1353.74,-99.28 1404.64,-83.69 1436.08,-74.05"/>
<polygon fill="#63b8ff" stroke="#63b8ff" points="1320.06,-105.94 1311.52,-112.21 1322.11,-112.63 1320.06,-105.94"/>
</a>
</g>
</g>
<!-- Node33 -->
<g id="Node000033" class="node">
<title>Node33</title>
<g id="a_Node000033"><a xlink:href="watchdog_8c.html" target="_top" xlink:title=" ">
<polygon fill="white" stroke="#666666" points="1589,-74 1517,-74 1517,-55 1589,-55 1589,-74"/>
<text text-anchor="middle" x="1553" y="-62" font-family="Helvetica,sans-Serif" font-size="10.00">watchdog.c</text>
</a>
</g>
</g>
<!-- Node10&#45;&gt;Node33 -->
<g id="edge43_Node000010_Node000033" class="edge">
<title>Node10&#45;&gt;Node33</title>
<g id="a_edge43_Node000010_Node000033"><a xlink:title=" ">
<path fill="none" stroke="#63b8ff" d="M1321.48,-112.33C1370.12,-102.5 1465.07,-83.29 1516.98,-72.79"/>
<polygon fill="#63b8ff" stroke="#63b8ff" points="1320.67,-108.93 1311.56,-114.34 1322.05,-115.79 1320.67,-108.93"/>
</a>
</g>
</g>
<!-- Node21&#45;&gt;Node9 -->
<g id="edge28_Node000021_Node000009" class="edge">
<title>Node21&#45;&gt;Node9</title>
<g id="a_edge28_Node000021_Node000009"><a xlink:title=" ">
<path fill="none" stroke="#63b8ff" d="M521.51,-56.45C432.96,-45.79 266.68,-25.76 186.1,-16.05"/>
<polygon fill="#63b8ff" stroke="#63b8ff" points="521.31,-59.96 531.65,-57.68 522.14,-53.01 521.31,-59.96"/>
</a>
</g>
</g>
<!-- Node21&#45;&gt;Node20 -->
<g id="edge29_Node000021_Node000020" class="edge">
<title>Node21&#45;&gt;Node20</title>
<g id="a_edge29_Node000021_Node000020"><a xlink:title=" ">
<path fill="none" stroke="#63b8ff" d="M562.53,-48.32C551.66,-38.87 538.06,-27.06 528.98,-19.17"/>
<polygon fill="#63b8ff" stroke="#63b8ff" points="560.35,-51.07 570.2,-54.98 564.95,-45.78 560.35,-51.07"/>
</a>
</g>
</g>
<!-- Node21&#45;&gt;Node22 -->
<g id="edge30_Node000021_Node000022" class="edge">
<title>Node21&#45;&gt;Node22</title>
<g id="a_edge30_Node000021_Node000022"><a xlink:title=" ">
<path fill="none" stroke="#63b8ff" d="M597.47,-48.32C608.34,-38.87 621.94,-27.06 631.02,-19.17"/>
<polygon fill="#63b8ff" stroke="#63b8ff" points="595.05,-45.78 589.8,-54.98 599.65,-51.07 595.05,-45.78"/>
</a>
</g>
</g>
</g>
</svg>

<g id="navigator" transform="translate(0 0)" fill="#404254">
  <rect fill="#f2f5e9" fill-opacity="0.5" stroke="#606060" stroke-width=".5" x="0" y="0" width="60" height="60"/>
  <use id="zoomplus" xlink:href="#zoomPlus" x="17" y="9" onmousedown="handleZoom(evt,'in')"/>
  <use id="zoomminus" xlink:href="#zoomMin" x="42" y="9" onmousedown="handleZoom(evt,'out')"/>
  <use id="reset" xlink:href="#resetDef" x="30" y="36" onmousedown="handleReset()"/>
   <use id="arrowup" xlink:href="#arrowUp" x="0" y="0" onmousedown="handlePan(0,-1)"/>
  <use id="arrowright" xlink:href="#arrowRight" x="0" y="0" onmousedown="handlePan(1,0)"/>
  <use id="arrowdown" xlink:href="#arrowDown" x="0" y="0" onmousedown="handlePan(0,1)"/>
  <use id="arrowleft" xlink:href="#arrowLeft" x="0" y="0" onmousedown="handlePan(-1,0)"/>
</g>
<svg viewBox="0 0 15 15" width="100%" height="30px" preserveAspectRatio="xMaxYMin meet">
 <g id="arrow_out" transform="scale(0.3 0.3)">
  <a xlink:href="file__downlink_8h__dep__incl_org.svg" target="_base">
   <rect id="button" ry="5" rx="5" y="6" x="6" height="38" width="38"
        fill="#f2f5e9" fill-opacity="0.5" stroke="#606060" stroke-width="1.0"/>
   <path id="arrow"
     d="M 11.500037,31.436501 C 11.940474,20.09759 22.043105,11.32322 32.158766,21.979434 L 37.068811,17.246167 C 37.068811,17.246167 37.088388,32 37.088388,32 L 22.160133,31.978069 C 22.160133,31.978069 26.997745,27.140456 26.997745,27.140456 C 18.528582,18.264221 13.291696,25.230495 11.500037,31.436501 z"
     style="fill:#404040;"/>
  </a>
 </g>
</svg>

<style type='text/css'>
<![CDATA[
[data-mouse-over-selected='false'] { opacity: 0.7; }
[data-mouse-over-selected='true']  { opacity: 1.0; }
]]>
</style>
<script type="application/ecmascript"><![CDATA[
document.addEventListener('DOMContentLoaded', (event) => {
  highlightEdges();
  highlightAdjacentNodes();
});
]]></script>
</svg>
