<?xml version="1.0" encoding="UTF-8" standalone="no"?>
<!DOCTYPE svg PUBLIC "-//W3C//DTD SVG 1.1//EN"
 "http://www.w3.org/Graphics/SVG/1.1/DTD/svg11.dtd">
<!-- Generated by graphviz version 12.1.2 (20240928.0832)
 -->
<!-- Title: filesystem.h Pages: 1 -->
<svg width="768pt" height="252pt"
 viewBox="0.00 0.00 767.62 252.00" xmlns="http://www.w3.org/2000/svg" xmlns:xlink="http://www.w3.org/1999/xlink">
<g id="graph0" class="graph" transform="scale(1 1) rotate(0) translate(4 248)">
<title>filesystem.h</title>
<!-- Node1 -->
<g id="Node000001" class="node">
<title>Node1</title>
<g id="a_Node000001"><a xlink:title=" ">
<polygon fill="#999999" stroke="#666666" points="505.12,-244 435.88,-244 435.88,-224 505.12,-224 505.12,-244"/>
<text text-anchor="middle" x="470.5" y="-230.5" font-family="Helvetica,sans-Serif" font-size="10.00">filesystem.h</text>
</a>
</g>
</g>
<!-- Node2 -->
<g id="Node000002" class="node">
<title>Node2</title>
<g id="a_Node000002"><a xlink:href="command_8c.html" target="_top" xlink:title=" ">
<polygon fill="white" stroke="#666666" points="67,-20 0,-20 0,0 67,0 67,-20"/>
<text text-anchor="middle" x="33.5" y="-6.5" font-family="Helvetica,sans-Serif" font-size="10.00">command.c</text>
</a>
</g>
</g>
<!-- Node1&#45;&gt;Node2 -->
<g id="edge1_Node000001_Node000002" class="edge">
<title>Node1&#45;&gt;Node2</title>
<g id="a_edge1_Node000001_Node000002"><a xlink:title=" ">
<path fill="none" stroke="#63b8ff" d="M424.31,-222.73C390.01,-214.61 342.3,-202.3 301.5,-188 184.68,-147.07 124.06,-172.47 46.5,-76 33.38,-59.68 32.34,-33.71 32.84,-20.06"/>
<polygon fill="#63b8ff" stroke="#63b8ff" points="423.39,-226.11 433.92,-224.97 424.98,-219.29 423.39,-226.11"/>
</a>
</g>
</g>
<!-- Node3 -->
<g id="Node000003" class="node">
<title>Node3</title>
<g id="a_Node000003"><a xlink:href="command__fuzzer_8cpp.html" target="_top" xlink:title=" ">
<polygon fill="white" stroke="#666666" points="408.38,-76 298.62,-76 298.62,-56 408.38,-56 408.38,-76"/>
<text text-anchor="middle" x="353.5" y="-62.5" font-family="Helvetica,sans-Serif" font-size="10.00">command_fuzzer.cpp</text>
</a>
</g>
</g>
<!-- Node1&#45;&gt;Node3 -->
<g id="edge2_Node000001_Node000003" class="edge">
<title>Node1&#45;&gt;Node3</title>
<g id="a_edge2_Node000001_Node000003"><a xlink:title=" ">
<path fill="none" stroke="#63b8ff" d="M457.69,-214.23C441.35,-190.35 412.12,-147.9 386.5,-112 377.61,-99.54 367.12,-85.32 360.4,-76.26"/>
<polygon fill="#63b8ff" stroke="#63b8ff" points="454.66,-216 463.19,-222.28 460.44,-212.05 454.66,-216"/>
</a>
</g>
</g>
<!-- Node4 -->
<g id="Node000004" class="node">
<title>Node4</title>
<g id="a_Node000004"><a xlink:href="filesystem_8c.html" target="_top" xlink:title=" ">
<polygon fill="white" stroke="#666666" points="590.12,-188 520.88,-188 520.88,-168 590.12,-168 590.12,-188"/>
<text text-anchor="middle" x="555.5" y="-174.5" font-family="Helvetica,sans-Serif" font-size="10.00">filesystem.c</text>
</a>
</g>
</g>
<!-- Node1&#45;&gt;Node4 -->
<g id="edge3_Node000001_Node000004" class="edge">
<title>Node1&#45;&gt;Node4</title>
<g id="a_edge3_Node000001_Node000004"><a xlink:title=" ">
<path fill="none" stroke="#63b8ff" d="M494.83,-217.54C509.59,-208.17 527.94,-196.51 540.58,-188.48"/>
<polygon fill="#63b8ff" stroke="#63b8ff" points="493.15,-214.47 486.58,-222.78 496.9,-220.37 493.15,-214.47"/>
</a>
</g>
</g>
<!-- Node5 -->
<g id="Node000005" class="node">
<title>Node5</title>
<g id="a_Node000005"><a xlink:href="hb__tlm__log_8c.html" target="_top" xlink:title=" ">
<polygon fill="white" stroke="#666666" points="403.25,-20 331.75,-20 331.75,0 403.25,0 403.25,-20"/>
<text text-anchor="middle" x="367.5" y="-6.5" font-family="Helvetica,sans-Serif" font-size="10.00">hb_tlm_log.c</text>
</a>
</g>
</g>
<!-- Node1&#45;&gt;Node5 -->
<g id="edge4_Node000001_Node000005" class="edge">
<title>Node1&#45;&gt;Node5</title>
<g id="a_edge4_Node000001_Node000005"><a xlink:title=" ">
<path fill="none" stroke="#63b8ff" d="M478.78,-213.67C492.3,-178.8 514.49,-104.48 481.5,-56 464.2,-30.58 430.11,-19.52 403.7,-14.71"/>
<polygon fill="#63b8ff" stroke="#63b8ff" points="475.72,-211.91 475.19,-222.49 482.2,-214.55 475.72,-211.91"/>
</a>
</g>
</g>
<!-- Node6 -->
<g id="Node000006" class="node">
<title>Node6</title>
<g id="a_Node000006"><a xlink:href="utilities_2src_2log_8c.html" target="_top" xlink:title=" ">
<polygon fill="white" stroke="#666666" points="645,-188 608,-188 608,-168 645,-168 645,-188"/>
<text text-anchor="middle" x="626.5" y="-174.5" font-family="Helvetica,sans-Serif" font-size="10.00">log.c</text>
</a>
</g>
</g>
<!-- Node1&#45;&gt;Node6 -->
<g id="edge5_Node000001_Node000006" class="edge">
<title>Node1&#45;&gt;Node6</title>
<g id="a_edge5_Node000001_Node000006"><a xlink:title=" ">
<path fill="none" stroke="#63b8ff" d="M508.28,-219.92C539.83,-209 583.47,-193.89 607.94,-185.42"/>
<polygon fill="#63b8ff" stroke="#63b8ff" points="507.41,-216.52 499.1,-223.1 509.7,-223.14 507.41,-216.52"/>
</a>
</g>
</g>
<!-- Node7 -->
<g id="Node000007" class="node">
<title>Node7</title>
<g id="a_Node000007"><a xlink:href="log__test__unittest_8c.html" target="_top" xlink:title=" ">
<polygon fill="white" stroke="#666666" points="759.62,-188 663.38,-188 663.38,-168 759.62,-168 759.62,-188"/>
<text text-anchor="middle" x="711.5" y="-174.5" font-family="Helvetica,sans-Serif" font-size="10.00">log_test_unittest.c</text>
</a>
</g>
</g>
<!-- Node1&#45;&gt;Node7 -->
<g id="edge6_Node000001_Node000007" class="edge">
<title>Node1&#45;&gt;Node7</title>
<g id="a_edge6_Node000001_Node000007"><a xlink:title=" ">
<path fill="none" stroke="#63b8ff" d="M516.51,-222.69C560.52,-212.83 626.34,-198.08 669.1,-188.5"/>
<polygon fill="#63b8ff" stroke="#63b8ff" points="516.01,-219.22 507.02,-224.82 517.54,-226.05 516.01,-219.22"/>
</a>
</g>
</g>
<!-- Node8 -->
<g id="Node000008" class="node">
<title>Node8</title>
<g id="a_Node000008"><a xlink:href="main_8c.html" target="_top" xlink:title=" ">
<polygon fill="white" stroke="#666666" points="472.12,-76 426.88,-76 426.88,-56 472.12,-56 472.12,-76"/>
<text text-anchor="middle" x="449.5" y="-62.5" font-family="Helvetica,sans-Serif" font-size="10.00">main.c</text>
</a>
</g>
</g>
<!-- Node1&#45;&gt;Node8 -->
<g id="edge7_Node000001_Node000008" class="edge">
<title>Node1&#45;&gt;Node8</title>
<g id="a_edge7_Node000001_Node000008"><a xlink:title=" ">
<path fill="none" stroke="#63b8ff" d="M467.91,-212.5C463.32,-176.27 453.97,-102.31 450.68,-76.3"/>
<polygon fill="#63b8ff" stroke="#63b8ff" points="464.39,-212.62 469.12,-222.1 471.34,-211.74 464.39,-212.62"/>
</a>
</g>
</g>
<!-- Node9 -->
<g id="Node000009" class="node">
<title>Node9</title>
<g id="a_Node000009"><a xlink:href="user__auth_8h.html" target="_top" xlink:title=" ">
<polygon fill="white" stroke="#666666" points="377,-188 310,-188 310,-168 377,-168 377,-188"/>
<text text-anchor="middle" x="343.5" y="-174.5" font-family="Helvetica,sans-Serif" font-size="10.00">user_auth.h</text>
</a>
</g>
</g>
<!-- Node1&#45;&gt;Node9 -->
<g id="edge8_Node000001_Node000009" class="edge">
<title>Node1&#45;&gt;Node9</title>
<g id="a_edge8_Node000001_Node000009"><a xlink:title=" ">
<path fill="none" stroke="#63b8ff" d="M437.9,-219.14C415.29,-209.52 385.76,-196.97 365.79,-188.48"/>
<polygon fill="#63b8ff" stroke="#63b8ff" points="436.41,-222.31 446.99,-223 439.15,-215.87 436.41,-222.31"/>
</a>
</g>
</g>
<!-- Node10 -->
<g id="Node000010" class="node">
<title>Node10</title>
<g id="a_Node000010"><a xlink:href="command_8h.html" target="_top" xlink:title=" ">
<polygon fill="white" stroke="#666666" points="286,-132 219,-132 219,-112 286,-112 286,-132"/>
<text text-anchor="middle" x="252.5" y="-118.5" font-family="Helvetica,sans-Serif" font-size="10.00">command.h</text>
</a>
</g>
</g>
<!-- Node9&#45;&gt;Node10 -->
<g id="edge9_Node000009_Node000010" class="edge">
<title>Node9&#45;&gt;Node10</title>
<g id="a_edge9_Node000009_Node000010"><a xlink:title=" ">
<path fill="none" stroke="#63b8ff" d="M317.9,-161.81C302.03,-152.39 282.13,-140.58 268.47,-132.48"/>
<polygon fill="#63b8ff" stroke="#63b8ff" points="315.96,-164.73 326.35,-166.82 319.53,-158.71 315.96,-164.73"/>
</a>
</g>
</g>
<!-- Node15 -->
<g id="Node000015" class="node">
<title>Node15</title>
<g id="a_Node000015"><a xlink:href="user__auth_8c.html" target="_top" xlink:title=" ">
<polygon fill="white" stroke="#666666" points="377,-132 310,-132 310,-112 377,-112 377,-132"/>
<text text-anchor="middle" x="343.5" y="-118.5" font-family="Helvetica,sans-Serif" font-size="10.00">user_auth.c</text>
</a>
</g>
</g>
<!-- Node9&#45;&gt;Node15 -->
<g id="edge19_Node000009_Node000015" class="edge">
<title>Node9&#45;&gt;Node15</title>
<g id="a_edge19_Node000009_Node000015"><a xlink:title=" ">
<path fill="none" stroke="#63b8ff" d="M343.5,-156.13C343.5,-147.9 343.5,-138.85 343.5,-132.3"/>
<polygon fill="#63b8ff" stroke="#63b8ff" points="340,-156.08 343.5,-166.08 347,-156.08 340,-156.08"/>
</a>
</g>
</g>
<!-- Node10&#45;&gt;Node2 -->
<g id="edge10_Node000010_Node000002" class="edge">
<title>Node10&#45;&gt;Node2</title>
<g id="a_edge10_Node000010_Node000002"><a xlink:title=" ">
<path fill="none" stroke="#63b8ff" d="M207.11,-120.21C166.61,-117.31 107.67,-107.42 67.5,-76 49.04,-61.56 39.55,-34.3 35.68,-20.11"/>
<polygon fill="#63b8ff" stroke="#63b8ff" points="206.83,-123.7 217.01,-120.79 207.24,-116.71 206.83,-123.7"/>
</a>
</g>
</g>
<!-- Node10&#45;&gt;Node3 -->
<g id="edge11_Node000010_Node000003" class="edge">
<title>Node10&#45;&gt;Node3</title>
<g id="a_edge11_Node000010_Node000003"><a xlink:title=" ">
<path fill="none" stroke="#63b8ff" d="M279.91,-106.35C297.68,-96.84 320.33,-84.74 335.77,-76.48"/>
<polygon fill="#63b8ff" stroke="#63b8ff" points="278.6,-103.08 271.43,-110.88 281.9,-109.25 278.6,-103.08"/>
</a>
</g>
</g>
<!-- Node10&#45;&gt;Node8 -->
<g id="edge17_Node000010_Node000008" class="edge">
<title>Node10&#45;&gt;Node8</title>
<g id="a_edge17_Node000010_Node000008"><a xlink:title=" ">
<path fill="none" stroke="#63b8ff" d="M297.06,-108.95C330.28,-99.94 376.75,-87.29 417.5,-76 420.39,-75.2 423.43,-74.35 426.43,-73.51"/>
<polygon fill="#63b8ff" stroke="#63b8ff" points="296.53,-105.47 287.8,-111.46 298.36,-112.22 296.53,-105.47"/>
</a>
</g>
</g>
<!-- Node11 -->
<g id="Node000011" class="node">
<title>Node11</title>
<g id="a_Node000011"><a xlink:href="gse_8c.html" target="_top" xlink:title=" ">
<polygon fill="white" stroke="#666666" points="206.5,-76 166.5,-76 166.5,-56 206.5,-56 206.5,-76"/>
<text text-anchor="middle" x="186.5" y="-62.5" font-family="Helvetica,sans-Serif" font-size="10.00">gse.c</text>
</a>
</g>
</g>
<!-- Node10&#45;&gt;Node11 -->
<g id="edge12_Node000010_Node000011" class="edge">
<title>Node10&#45;&gt;Node11</title>
<g id="a_edge12_Node000010_Node000011"><a xlink:title=" ">
<path fill="none" stroke="#63b8ff" d="M232.21,-104.4C220.92,-95.17 207.29,-84.01 197.86,-76.3"/>
<polygon fill="#63b8ff" stroke="#63b8ff" points="229.88,-107.01 239.83,-110.64 234.31,-101.59 229.88,-107.01"/>
</a>
</g>
</g>
<!-- Node12 -->
<g id="Node000012" class="node">
<title>Node12</title>
<g id="a_Node000012"><a xlink:href="hb__tlm__log_8h.html" target="_top" xlink:title=" ">
<polygon fill="white" stroke="#666666" points="148.25,-76 76.75,-76 76.75,-56 148.25,-56 148.25,-76"/>
<text text-anchor="middle" x="112.5" y="-62.5" font-family="Helvetica,sans-Serif" font-size="10.00">hb_tlm_log.h</text>
</a>
</g>
</g>
<!-- Node10&#45;&gt;Node12 -->
<g id="edge13_Node000010_Node000012" class="edge">
<title>Node10&#45;&gt;Node12</title>
<g id="a_edge13_Node000010_Node000012"><a xlink:title=" ">
<path fill="none" stroke="#63b8ff" d="M217.58,-107.53C192.53,-97.87 159.39,-85.08 137.08,-76.48"/>
<polygon fill="#63b8ff" stroke="#63b8ff" points="216.11,-110.72 226.7,-111.05 218.63,-104.18 216.11,-110.72"/>
</a>
</g>
</g>
<!-- Node14 -->
<g id="Node000014" class="node">
<title>Node14</title>
<g id="a_Node000014"><a xlink:href="radio_8cpp.html" target="_top" xlink:title=" ">
<polygon fill="white" stroke="#666666" points="280.38,-76 224.62,-76 224.62,-56 280.38,-56 280.38,-76"/>
<text text-anchor="middle" x="252.5" y="-62.5" font-family="Helvetica,sans-Serif" font-size="10.00">radio.cpp</text>
</a>
</g>
</g>
<!-- Node10&#45;&gt;Node14 -->
<g id="edge18_Node000010_Node000014" class="edge">
<title>Node10&#45;&gt;Node14</title>
<g id="a_edge18_Node000010_Node000014"><a xlink:title=" ">
<path fill="none" stroke="#63b8ff" d="M252.5,-100.13C252.5,-91.9 252.5,-82.85 252.5,-76.3"/>
<polygon fill="#63b8ff" stroke="#63b8ff" points="249,-100.08 252.5,-110.08 256,-100.08 249,-100.08"/>
</a>
</g>
</g>
<!-- Node12&#45;&gt;Node2 -->
<g id="edge14_Node000012_Node000002" class="edge">
<title>Node12&#45;&gt;Node2</title>
<g id="a_edge14_Node000012_Node000002"><a xlink:title=" ">
<path fill="none" stroke="#63b8ff" d="M89.49,-49.27C75.84,-39.94 59,-28.43 47.37,-20.48"/>
<polygon fill="#63b8ff" stroke="#63b8ff" points="87.26,-51.99 97.49,-54.74 91.21,-46.21 87.26,-51.99"/>
</a>
</g>
</g>
<!-- Node12&#45;&gt;Node5 -->
<g id="edge15_Node000012_Node000005" class="edge">
<title>Node12&#45;&gt;Node5</title>
<g id="a_edge15_Node000012_Node000005"><a xlink:title=" ">
<path fill="none" stroke="#63b8ff" d="M159.56,-55.04C209.15,-44.53 286.21,-28.21 331.28,-18.67"/>
<polygon fill="#63b8ff" stroke="#63b8ff" points="159.03,-51.57 149.98,-57.06 160.48,-58.42 159.03,-51.57"/>
</a>
</g>
</g>
<!-- Node13 -->
<g id="Node000013" class="node">
<title>Node13</title>
<g id="a_Node000013"><a xlink:href="heartbeat__job_8c.html" target="_top" xlink:title=" ">
<polygon fill="white" stroke="#666666" points="167.88,-20 85.12,-20 85.12,0 167.88,0 167.88,-20"/>
<text text-anchor="middle" x="126.5" y="-6.5" font-family="Helvetica,sans-Serif" font-size="10.00">heartbeat_job.c</text>
</a>
</g>
</g>
<!-- Node12&#45;&gt;Node13 -->
<g id="edge16_Node000012_Node000013" class="edge">
<title>Node12&#45;&gt;Node13</title>
<g id="a_edge16_Node000012_Node000013"><a xlink:title=" ">
<path fill="none" stroke="#63b8ff" d="M117.76,-44.71C119.93,-36.32 122.35,-27.01 124.09,-20.3"/>
<polygon fill="#63b8ff" stroke="#63b8ff" points="114.44,-43.57 115.32,-54.13 121.22,-45.33 114.44,-43.57"/>
</a>
</g>
</g>
</g>
</svg>
