<?xml version="1.0" encoding="UTF-8" standalone="no"?>
<!DOCTYPE svg PUBLIC "-//W3C//DTD SVG 1.1//EN"
 "http://www.w3.org/Graphics/SVG/1.1/DTD/svg11.dtd">
<!-- Generated by graphviz version 2.43.0 (0)
 -->
<!-- Title: file_downlink_task Pages: 1 -->
<svg width="769pt" height="178pt"
 viewBox="0.00 0.00 769.00 178.00" xmlns="http://www.w3.org/2000/svg" xmlns:xlink="http://www.w3.org/1999/xlink">
<g id="graph0" class="graph" transform="scale(1 1) rotate(0) translate(4 174)">
<title>file_downlink_task</title>
<!-- Node1 -->
<g id="Node000001" class="node">
<title>Node1</title>
<g id="a_Node000001"><a xlink:title=" ">
<polygon fill="#999999" stroke="#666666" points="108,-113 0,-113 0,-94 108,-94 108,-113"/>
<text text-anchor="middle" x="54" y="-101" font-family="Helvetica,sans-Serif" font-size="10.00">file_downlink_task</text>
</a>
</g>
</g>
<!-- Node2 -->
<g id="Node000002" class="node">
<title>Node2</title>
<g id="a_Node000002"><a xlink:href="file__downlink_8c.html#add5ce8361f61818d2e39c0e40d4edf2f" target="_top" xlink:title=" ">
<polygon fill="white" stroke="#666666" points="267,-170 144,-170 144,-151 267,-151 267,-170"/>
<text text-anchor="middle" x="205.5" y="-158" font-family="Helvetica,sans-Serif" font-size="10.00">initialize_file_transfer</text>
</a>
</g>
</g>
<!-- Node1&#45;&gt;Node2 -->
<g id="edge1_Node000001_Node000002" class="edge">
<title>Node1&#45;&gt;Node2</title>
<g id="a_edge1_Node000001_Node000002"><a xlink:title=" ">
<path fill="none" stroke="#63b8ff" d="M80.02,-113.04C104.6,-122.41 142.31,-136.79 169.78,-147.26"/>
<polygon fill="#63b8ff" stroke="#63b8ff" points="168.8,-150.64 179.4,-150.93 171.3,-144.1 168.8,-150.64"/>
</a>
</g>
</g>
<!-- Node3 -->
<g id="Node000003" class="node">
<title>Node3</title>
<g id="a_Node000003"><a xlink:href="timing_8c.html#a93ea9223224ba909811375fceada6a08" target="_top" xlink:title=" ">
<polygon fill="white" stroke="#666666" points="412,-132 303,-132 303,-113 412,-113 412,-132"/>
<text text-anchor="middle" x="357.5" y="-120" font-family="Helvetica,sans-Serif" font-size="10.00">tick_uptime_in_ms</text>
</a>
</g>
</g>
<!-- Node1&#45;&gt;Node3 -->
<g id="edge11_Node000001_Node000003" class="edge">
<title>Node1&#45;&gt;Node3</title>
<g id="a_edge11_Node000001_Node000003"><a xlink:title=" ">
<path fill="none" stroke="#63b8ff" d="M108.21,-106.85C159.66,-110.1 237.69,-115.01 292.51,-118.47"/>
<polygon fill="#63b8ff" stroke="#63b8ff" points="292.61,-121.98 302.81,-119.12 293.05,-114.99 292.61,-121.98"/>
</a>
</g>
</g>
<!-- Node4 -->
<g id="Node000004" class="node">
<title>Node4</title>
<g id="a_Node000004"><a xlink:href="timing_8c.html#afc667ef1e53f787d5e61e758dc1bd7b2" target="_top" xlink:title=" ">
<polygon fill="white" stroke="#666666" points="523,-113 448,-113 448,-94 523,-94 523,-113"/>
<text text-anchor="middle" x="485.5" y="-101" font-family="Helvetica,sans-Serif" font-size="10.00">ticks_to_ms</text>
</a>
</g>
</g>
<!-- Node1&#45;&gt;Node4 -->
<g id="edge12_Node000001_Node000004" class="edge">
<title>Node1&#45;&gt;Node4</title>
<g id="a_edge12_Node000001_Node000004"><a xlink:title=" ">
<path fill="none" stroke="#63b8ff" d="M108.1,-103.5C192.73,-103.5 356.86,-103.5 437.49,-103.5"/>
<polygon fill="#63b8ff" stroke="#63b8ff" points="437.83,-107 447.83,-103.5 437.83,-100 437.83,-107"/>
</a>
</g>
</g>
<!-- Node5 -->
<g id="Node000005" class="node">
<title>Node5</title>
<g id="a_Node000005"><a xlink:href="file__downlink_8c.html#a9aedf39b0c42ec6c58f0c06b5e11d46c" target="_top" xlink:title=" ">
<polygon fill="white" stroke="#666666" points="250,-56 161,-56 161,-37 250,-37 250,-56"/>
<text text-anchor="middle" x="205.5" y="-44" font-family="Helvetica,sans-Serif" font-size="10.00">send_n_packet</text>
</a>
</g>
</g>
<!-- Node1&#45;&gt;Node5 -->
<g id="edge4_Node000001_Node000005" class="edge">
<title>Node1&#45;&gt;Node5</title>
<g id="a_edge4_Node000001_Node000005"><a xlink:title=" ">
<path fill="none" stroke="#63b8ff" d="M80.02,-93.96C104.6,-84.59 142.31,-70.21 169.78,-59.74"/>
<polygon fill="#63b8ff" stroke="#63b8ff" points="171.3,-62.9 179.4,-56.07 168.8,-56.36 171.3,-62.9"/>
</a>
</g>
</g>
<!-- Node2&#45;&gt;Node3 -->
<g id="edge2_Node000002_Node000003" class="edge">
<title>Node2&#45;&gt;Node3</title>
<g id="a_edge2_Node000002_Node000003"><a xlink:title=" ">
<path fill="none" stroke="#63b8ff" d="M244.35,-150.91C263.97,-145.94 288.12,-139.82 308.98,-134.54"/>
<polygon fill="#63b8ff" stroke="#63b8ff" points="310.09,-137.87 318.92,-132.02 308.37,-131.08 310.09,-137.87"/>
</a>
</g>
</g>
<!-- Node3&#45;&gt;Node4 -->
<g id="edge3_Node000003_Node000004" class="edge">
<title>Node3&#45;&gt;Node4</title>
<g id="a_edge3_Node000003_Node000004"><a xlink:title=" ">
<path fill="none" stroke="#63b8ff" d="M412.3,-114.39C420.86,-113.1 429.65,-111.77 438.02,-110.51"/>
<polygon fill="#63b8ff" stroke="#63b8ff" points="438.62,-113.96 447.98,-109.01 437.57,-107.04 438.62,-113.96"/>
</a>
</g>
</g>
<!-- Node6 -->
<g id="Node000006" class="node">
<title>Node6</title>
<g id="a_Node000006"><a xlink:href="filesystem_8c.html#ae0599d66eddc7fdf656fca874aa5f1d1" target="_top" xlink:title=" ">
<polygon fill="white" stroke="#666666" points="404,-56 311,-56 311,-37 404,-37 404,-56"/>
<text text-anchor="middle" x="357.5" y="-44" font-family="Helvetica,sans-Serif" font-size="10.00">read_file_offset</text>
</a>
</g>
</g>
<!-- Node5&#45;&gt;Node6 -->
<g id="edge5_Node000005_Node000006" class="edge">
<title>Node5&#45;&gt;Node6</title>
<g id="a_edge5_Node000005_Node000006"><a xlink:title=" ">
<path fill="none" stroke="#63b8ff" d="M250.29,-46.5C266.04,-46.5 284.03,-46.5 300.68,-46.5"/>
<polygon fill="#63b8ff" stroke="#63b8ff" points="300.83,-50 310.83,-46.5 300.83,-43 300.83,-50"/>
</a>
</g>
</g>
<!-- Node10 -->
<g id="Node000010" class="node">
<title>Node10</title>
<g id="a_Node000010"><a xlink:href="telemetry_8c.html#a6dbf6c6cfd75451e5642ca0b64bf7f5a" target="_top" xlink:title=" ">
<polygon fill="white" stroke="#666666" points="404,-19 311,-19 311,0 404,0 404,-19"/>
<text text-anchor="middle" x="357.5" y="-7" font-family="Helvetica,sans-Serif" font-size="10.00">send_telemetry</text>
</a>
</g>
</g>
<!-- Node5&#45;&gt;Node10 -->
<g id="edge10_Node000005_Node000010" class="edge">
<title>Node5&#45;&gt;Node10</title>
<g id="a_edge10_Node000005_Node000010"><a xlink:title=" ">
<path fill="none" stroke="#63b8ff" d="M245.13,-36.97C264.3,-32.24 287.66,-26.48 308.02,-21.46"/>
<polygon fill="#63b8ff" stroke="#63b8ff" points="308.87,-24.85 317.74,-19.06 307.19,-18.06 308.87,-24.85"/>
</a>
</g>
</g>
<!-- Node7 -->
<g id="Node000007" class="node">
<title>Node7</title>
<g id="a_Node000007"><a xlink:href="filesystem_8c.html#a07610d3a6787ca02aa3d340759bcb8c9" target="_top" xlink:title=" ">
<polygon fill="white" stroke="#666666" points="519,-76 452,-76 452,-57 519,-57 519,-76"/>
<text text-anchor="middle" x="485.5" y="-64" font-family="Helvetica,sans-Serif" font-size="10.00">file_exists</text>
</a>
</g>
</g>
<!-- Node6&#45;&gt;Node7 -->
<g id="edge6_Node000006_Node000007" class="edge">
<title>Node6&#45;&gt;Node7</title>
<g id="a_edge6_Node000006_Node000007"><a xlink:title=" ">
<path fill="none" stroke="#63b8ff" d="M404.35,-53.78C416.54,-55.71 429.65,-57.79 441.68,-59.7"/>
<polygon fill="#63b8ff" stroke="#63b8ff" points="441.48,-63.22 451.91,-61.33 442.58,-56.3 441.48,-63.22"/>
</a>
</g>
</g>
<!-- Node9 -->
<g id="Node000009" class="node">
<title>Node9</title>
<g id="a_Node000009"><a xlink:href="utilities_2src_2log_8c.html#a4b048be24c6c7f622a6bc6c6bf8ac435" target="_top" xlink:title=" ">
<polygon fill="white" stroke="#666666" points="761,-57 630,-57 630,-38 761,-38 761,-57"/>
<text text-anchor="middle" x="695.5" y="-45" font-family="Helvetica,sans-Serif" font-size="10.00">get_current_task_name</text>
</a>
</g>
</g>
<!-- Node6&#45;&gt;Node9 -->
<g id="edge9_Node000006_Node000009" class="edge">
<title>Node6&#45;&gt;Node9</title>
<g id="a_edge9_Node000006_Node000009"><a xlink:title=" ">
<path fill="none" stroke="#63b8ff" d="M404.16,-46.64C459.52,-46.8 553.57,-47.08 619.59,-47.28"/>
<polygon fill="#63b8ff" stroke="#63b8ff" points="619.93,-50.78 629.94,-47.31 619.95,-43.78 619.93,-50.78"/>
</a>
</g>
</g>
<!-- Node8 -->
<g id="Node000008" class="node">
<title>Node8</title>
<g id="a_Node000008"><a xlink:href="filesystem_8c.html#aa109ff29a72d1beadda58bb3a54185b6" target="_top" xlink:title=" ">
<polygon fill="white" stroke="#666666" points="594,-76 559,-76 559,-57 594,-57 594,-76"/>
<text text-anchor="middle" x="576.5" y="-64" font-family="Helvetica,sans-Serif" font-size="10.00">stat</text>
</a>
</g>
</g>
<!-- Node7&#45;&gt;Node8 -->
<g id="edge7_Node000007_Node000008" class="edge">
<title>Node7&#45;&gt;Node8</title>
<g id="a_edge7_Node000007_Node000008"><a xlink:title=" ">
<path fill="none" stroke="#63b8ff" d="M519.13,-66.5C528.83,-66.5 539.34,-66.5 548.63,-66.5"/>
<polygon fill="#63b8ff" stroke="#63b8ff" points="548.85,-70 558.85,-66.5 548.85,-63 548.85,-70"/>
</a>
</g>
</g>
<!-- Node8&#45;&gt;Node9 -->
<g id="edge8_Node000008_Node000009" class="edge">
<title>Node8&#45;&gt;Node9</title>
<g id="a_edge8_Node000008_Node000009"><a xlink:title=" ">
<path fill="none" stroke="#63b8ff" d="M594.02,-63.82C602.68,-62.41 613.93,-60.58 625.77,-58.66"/>
<polygon fill="#63b8ff" stroke="#63b8ff" points="626.49,-62.09 635.8,-57.03 625.36,-55.18 626.49,-62.09"/>
</a>
</g>
</g>
</g>
</svg>
