<?xml version="1.0" encoding="UTF-8" standalone="no"?>
<!DOCTYPE svg PUBLIC "-//W3C//DTD SVG 1.1//EN"
 "http://www.w3.org/Graphics/SVG/1.1/DTD/svg11.dtd">
<!-- Generated by graphviz version 12.1.2 (20240928.0832)
 -->
<!-- Title: gpio.h Pages: 1 -->
<svg width="508pt" height="196pt"
 viewBox="0.00 0.00 507.62 196.00" xmlns="http://www.w3.org/2000/svg" xmlns:xlink="http://www.w3.org/1999/xlink">
<g id="graph0" class="graph" transform="scale(1 1) rotate(0) translate(4 192)">
<title>gpio.h</title>
<!-- Node1 -->
<g id="Node000001" class="node">
<title>Node1</title>
<g id="a_Node000001"><a xlink:title=" ">
<polygon fill="#999999" stroke="#666666" points="315.62,-188 273.38,-188 273.38,-168 315.62,-168 315.62,-188"/>
<text text-anchor="middle" x="294.5" y="-174.5" font-family="Helvetica,sans-Serif" font-size="10.00">gpio.h</text>
</a>
</g>
</g>
<!-- Node2 -->
<g id="Node000002" class="node">
<title>Node2</title>
<g id="a_Node000002"><a xlink:href="drivers_2include_2i2c_8h.html" target="_top" xlink:title=" ">
<polygon fill="white" stroke="#666666" points="239,-132 202,-132 202,-112 239,-112 239,-132"/>
<text text-anchor="middle" x="220.5" y="-118.5" font-family="Helvetica,sans-Serif" font-size="10.00">i2c.h</text>
</a>
</g>
</g>
<!-- Node1&#45;&gt;Node2 -->
<g id="edge1_Node000001_Node000002" class="edge">
<title>Node1&#45;&gt;Node2</title>
<g id="a_edge1_Node000001_Node000002"><a xlink:title=" ">
<path fill="none" stroke="#63b8ff" d="M272.51,-160.95C259.71,-151.61 244.02,-140.16 233.24,-132.3"/>
<polygon fill="#63b8ff" stroke="#63b8ff" points="270.25,-163.63 280.39,-166.7 274.37,-157.98 270.25,-163.63"/>
</a>
</g>
</g>
<!-- Node3 -->
<g id="Node000003" class="node">
<title>Node3</title>
<g id="a_Node000003"><a xlink:href="mag__lis3mdltr_8h.html" target="_top" xlink:title=" ">
<polygon fill="white" stroke="#666666" points="168,-76 83,-76 83,-56 168,-56 168,-76"/>
<text text-anchor="middle" x="125.5" y="-62.5" font-family="Helvetica,sans-Serif" font-size="10.00">mag_lis3mdltr.h</text>
</a>
</g>
</g>
<!-- Node1&#45;&gt;Node3 -->
<g id="edge11_Node000001_Node000003" class="edge">
<title>Node1&#45;&gt;Node3</title>
<g id="a_edge11_Node000001_Node000003"><a xlink:title=" ">
<path fill="none" stroke="#63b8ff" d="M262.17,-165.87C241.59,-158.02 214.89,-146.35 193.5,-132 169.09,-115.62 145.39,-90.14 133.47,-76.45"/>
<polygon fill="#63b8ff" stroke="#63b8ff" points="260.89,-169.13 271.48,-169.31 263.32,-162.56 260.89,-169.13"/>
</a>
</g>
</g>
<!-- Node8 -->
<g id="Node000008" class="node">
<title>Node8</title>
<g id="a_Node000008"><a xlink:href="vega__ant_8h.html" target="_top" xlink:title=" ">
<polygon fill="white" stroke="#666666" points="337.5,-76 273.5,-76 273.5,-56 337.5,-56 337.5,-76"/>
<text text-anchor="middle" x="305.5" y="-62.5" font-family="Helvetica,sans-Serif" font-size="10.00">vega_ant.h</text>
</a>
</g>
</g>
<!-- Node1&#45;&gt;Node8 -->
<g id="edge13_Node000001_Node000008" class="edge">
<title>Node1&#45;&gt;Node8</title>
<g id="a_edge13_Node000001_Node000008"><a xlink:title=" ">
<path fill="none" stroke="#63b8ff" d="M288.68,-156.78C285.79,-143.88 283.49,-126.86 286.5,-112 289.13,-99.03 295.61,-85.16 300.27,-76.3"/>
<polygon fill="#63b8ff" stroke="#63b8ff" points="285.22,-157.39 291.1,-166.2 292,-155.65 285.22,-157.39"/>
</a>
</g>
</g>
<!-- Node10 -->
<g id="Node000010" class="node">
<title>Node10</title>
<g id="a_Node000010"><a xlink:href="ina219_8c.html" target="_top" xlink:title=" ">
<polygon fill="white" stroke="#666666" points="347.88,-132 295.12,-132 295.12,-112 347.88,-112 347.88,-132"/>
<text text-anchor="middle" x="321.5" y="-118.5" font-family="Helvetica,sans-Serif" font-size="10.00">ina219.c</text>
</a>
</g>
</g>
<!-- Node1&#45;&gt;Node10 -->
<g id="edge10_Node000001_Node000010" class="edge">
<title>Node1&#45;&gt;Node10</title>
<g id="a_edge10_Node000001_Node000010"><a xlink:title=" ">
<path fill="none" stroke="#63b8ff" d="M304.21,-157.58C308.52,-148.97 313.38,-139.24 316.85,-132.3"/>
<polygon fill="#63b8ff" stroke="#63b8ff" points="301.22,-155.73 299.88,-166.24 307.48,-158.86 301.22,-155.73"/>
</a>
</g>
</g>
<!-- Node11 -->
<g id="Node000011" class="node">
<title>Node11</title>
<g id="a_Node000011"><a xlink:href="mram_8c.html" target="_top" xlink:title=" ">
<polygon fill="white" stroke="#666666" points="415,-132 366,-132 366,-112 415,-112 415,-132"/>
<text text-anchor="middle" x="390.5" y="-118.5" font-family="Helvetica,sans-Serif" font-size="10.00">mram.c</text>
</a>
</g>
</g>
<!-- Node1&#45;&gt;Node11 -->
<g id="edge12_Node000001_Node000011" class="edge">
<title>Node1&#45;&gt;Node11</title>
<g id="a_edge12_Node000001_Node000011"><a xlink:title=" ">
<path fill="none" stroke="#63b8ff" d="M321.02,-162.08C337.85,-152.62 359.1,-140.66 373.65,-132.48"/>
<polygon fill="#63b8ff" stroke="#63b8ff" points="319.54,-158.9 312.54,-166.85 322.97,-165 319.54,-158.9"/>
</a>
</g>
</g>
<!-- Node12 -->
<g id="Node000012" class="node">
<title>Node12</title>
<g id="a_Node000012"><a xlink:href="watchdog_8c.html" target="_top" xlink:title=" ">
<polygon fill="white" stroke="#666666" points="499.62,-132 433.38,-132 433.38,-112 499.62,-112 499.62,-132"/>
<text text-anchor="middle" x="466.5" y="-118.5" font-family="Helvetica,sans-Serif" font-size="10.00">watchdog.c</text>
</a>
</g>
</g>
<!-- Node1&#45;&gt;Node12 -->
<g id="edge14_Node000001_Node000012" class="edge">
<title>Node1&#45;&gt;Node12</title>
<g id="a_edge14_Node000001_Node000012"><a xlink:title=" ">
<path fill="none" stroke="#63b8ff" d="M326.74,-166.88C358.2,-157 405.68,-142.09 436.39,-132.45"/>
<polygon fill="#63b8ff" stroke="#63b8ff" points="325.87,-163.48 317.38,-169.82 327.97,-170.16 325.87,-163.48"/>
</a>
</g>
</g>
<!-- Node2&#45;&gt;Node3 -->
<g id="edge2_Node000002_Node000003" class="edge">
<title>Node2&#45;&gt;Node3</title>
<g id="a_edge2_Node000002_Node000003"><a xlink:title=" ">
<path fill="none" stroke="#63b8ff" d="M194.25,-106.08C177.6,-96.62 156.57,-84.66 142.18,-76.48"/>
<polygon fill="#63b8ff" stroke="#63b8ff" points="192.21,-108.95 202.64,-110.85 195.67,-102.86 192.21,-108.95"/>
</a>
</g>
</g>
<!-- Node7 -->
<g id="Node000007" class="node">
<title>Node7</title>
<g id="a_Node000007"><a xlink:href="drivers_2include_2max17048_8h.html" target="_top" xlink:title=" ">
<polygon fill="white" stroke="#666666" points="255.12,-76 185.88,-76 185.88,-56 255.12,-56 255.12,-76"/>
<text text-anchor="middle" x="220.5" y="-62.5" font-family="Helvetica,sans-Serif" font-size="10.00">max17048.h</text>
</a>
</g>
</g>
<!-- Node2&#45;&gt;Node7 -->
<g id="edge6_Node000002_Node000007" class="edge">
<title>Node2&#45;&gt;Node7</title>
<g id="a_edge6_Node000002_Node000007"><a xlink:title=" ">
<path fill="none" stroke="#63b8ff" d="M220.5,-100.13C220.5,-91.9 220.5,-82.85 220.5,-76.3"/>
<polygon fill="#63b8ff" stroke="#63b8ff" points="217,-100.08 220.5,-110.08 224,-100.08 217,-100.08"/>
</a>
</g>
</g>
<!-- Node2&#45;&gt;Node8 -->
<g id="edge7_Node000002_Node000008" class="edge">
<title>Node2&#45;&gt;Node8</title>
<g id="a_edge7_Node000002_Node000008"><a xlink:title=" ">
<path fill="none" stroke="#63b8ff" d="M244.83,-105.54C259.59,-96.17 277.94,-84.51 290.58,-76.48"/>
<polygon fill="#63b8ff" stroke="#63b8ff" points="243.15,-102.47 236.58,-110.78 246.9,-108.37 243.15,-102.47"/>
</a>
</g>
</g>
<!-- Node4 -->
<g id="Node000004" class="node">
<title>Node4</title>
<g id="a_Node000004"><a xlink:href="heartbeat__job_8c.html" target="_top" xlink:title=" ">
<polygon fill="white" stroke="#666666" points="254.88,-20 172.12,-20 172.12,0 254.88,0 254.88,-20"/>
<text text-anchor="middle" x="213.5" y="-6.5" font-family="Helvetica,sans-Serif" font-size="10.00">heartbeat_job.c</text>
</a>
</g>
</g>
<!-- Node3&#45;&gt;Node4 -->
<g id="edge3_Node000003_Node000004" class="edge">
<title>Node3&#45;&gt;Node4</title>
<g id="a_edge3_Node000003_Node000004"><a xlink:title=" ">
<path fill="none" stroke="#63b8ff" d="M150.25,-49.81C165.6,-40.39 184.85,-28.58 198.05,-20.48"/>
<polygon fill="#63b8ff" stroke="#63b8ff" points="148.81,-46.59 142.12,-54.8 152.47,-52.56 148.81,-46.59"/>
</a>
</g>
</g>
<!-- Node5 -->
<g id="Node000005" class="node">
<title>Node5</title>
<g id="a_Node000005"><a xlink:href="mag__lis3mdltr_8c.html" target="_top" xlink:title=" ">
<polygon fill="white" stroke="#666666" points="85,-20 0,-20 0,0 85,0 85,-20"/>
<text text-anchor="middle" x="42.5" y="-6.5" font-family="Helvetica,sans-Serif" font-size="10.00">mag_lis3mdltr.c</text>
</a>
</g>
</g>
<!-- Node3&#45;&gt;Node5 -->
<g id="edge4_Node000003_Node000005" class="edge">
<title>Node3&#45;&gt;Node5</title>
<g id="a_edge4_Node000003_Node000005"><a xlink:title=" ">
<path fill="none" stroke="#63b8ff" d="M101.74,-49.54C87.33,-40.17 69.41,-28.51 57.07,-20.48"/>
<polygon fill="#63b8ff" stroke="#63b8ff" points="99.48,-52.25 109.77,-54.77 103.3,-46.38 99.48,-52.25"/>
</a>
</g>
</g>
<!-- Node6 -->
<g id="Node000006" class="node">
<title>Node6</title>
<g id="a_Node000006"><a xlink:href="steve_8c.html" target="_top" xlink:title=" ">
<polygon fill="white" stroke="#666666" points="151.62,-20 103.38,-20 103.38,0 151.62,0 151.62,-20"/>
<text text-anchor="middle" x="127.5" y="-6.5" font-family="Helvetica,sans-Serif" font-size="10.00">steve.c</text>
</a>
</g>
</g>
<!-- Node3&#45;&gt;Node6 -->
<g id="edge5_Node000003_Node000006" class="edge">
<title>Node3&#45;&gt;Node6</title>
<g id="a_edge5_Node000003_Node000006"><a xlink:title=" ">
<path fill="none" stroke="#63b8ff" d="M126.27,-44.13C126.58,-35.9 126.91,-26.85 127.16,-20.3"/>
<polygon fill="#63b8ff" stroke="#63b8ff" points="122.78,-43.96 125.9,-54.08 129.77,-44.22 122.78,-43.96"/>
</a>
</g>
</g>
<!-- Node8&#45;&gt;Node4 -->
<g id="edge8_Node000008_Node000004" class="edge">
<title>Node8&#45;&gt;Node4</title>
<g id="a_edge8_Node000008_Node000004"><a xlink:title=" ">
<path fill="none" stroke="#63b8ff" d="M279.62,-49.81C263.57,-40.39 243.46,-28.58 229.65,-20.48"/>
<polygon fill="#63b8ff" stroke="#63b8ff" points="277.77,-52.78 288.17,-54.83 281.32,-46.75 277.77,-52.78"/>
</a>
</g>
</g>
<!-- Node9 -->
<g id="Node000009" class="node">
<title>Node9</title>
<g id="a_Node000009"><a xlink:href="vega__ant_8c.html" target="_top" xlink:title=" ">
<polygon fill="white" stroke="#666666" points="337.5,-20 273.5,-20 273.5,0 337.5,0 337.5,-20"/>
<text text-anchor="middle" x="305.5" y="-6.5" font-family="Helvetica,sans-Serif" font-size="10.00">vega_ant.c</text>
</a>
</g>
</g>
<!-- Node8&#45;&gt;Node9 -->
<g id="edge9_Node000008_Node000009" class="edge">
<title>Node8&#45;&gt;Node9</title>
<g id="a_edge9_Node000008_Node000009"><a xlink:title=" ">
<path fill="none" stroke="#63b8ff" d="M305.5,-44.13C305.5,-35.9 305.5,-26.85 305.5,-20.3"/>
<polygon fill="#63b8ff" stroke="#63b8ff" points="302,-44.08 305.5,-54.08 309,-44.08 302,-44.08"/>
</a>
</g>
</g>
</g>
</svg>
