<?xml version="1.0" encoding="UTF-8" standalone="no"?>
<!DOCTYPE svg PUBLIC "-//W3C//DTD SVG 1.1//EN"
 "http://www.w3.org/Graphics/SVG/1.1/DTD/svg11.dtd">
<!-- Generated by graphviz version 2.43.0 (0)
 -->
<!-- Title: gpio.h Pages: 1 -->
<svg width="698pt" height="192pt"
 viewBox="0.00 0.00 697.50 192.00" xmlns="http://www.w3.org/2000/svg" xmlns:xlink="http://www.w3.org/1999/xlink">
<g id="graph0" class="graph" transform="scale(1 1) rotate(0) translate(4 188)">
<title>gpio.h</title>
<!-- Node1 -->
<g id="Node000001" class="node">
<title>Node1</title>
<g id="a_Node000001"><a xlink:title=" ">
<polygon fill="#999999" stroke="#666666" points="382,-184 335,-184 335,-165 382,-165 382,-184"/>
<text text-anchor="middle" x="358.5" y="-172" font-family="Helvetica,sans-Serif" font-size="10.00">gpio.h</text>
</a>
</g>
</g>
<!-- Node2 -->
<g id="Node000002" class="node">
<title>Node2</title>
<g id="a_Node000002"><a xlink:href="drivers_2include_2i2c_8h.html" target="_top" xlink:title="Drivers for i2c peripheral devices.">
<polygon fill="white" stroke="#666666" points="273.5,-129 233.5,-129 233.5,-110 273.5,-110 273.5,-129"/>
<text text-anchor="middle" x="253.5" y="-117" font-family="Helvetica,sans-Serif" font-size="10.00">i2c.h</text>
</a>
</g>
</g>
<!-- Node1&#45;&gt;Node2 -->
<g id="edge1_Node000001_Node000002" class="edge">
<title>Node1&#45;&gt;Node2</title>
<g id="a_edge1_Node000001_Node000002"><a xlink:title=" ">
<path fill="none" stroke="#63b8ff" d="M332.48,-160.37C313.2,-150.63 287.45,-137.64 270.68,-129.17"/>
<polygon fill="#63b8ff" stroke="#63b8ff" points="331.13,-163.6 341.63,-164.98 334.28,-157.35 331.13,-163.6"/>
</a>
</g>
</g>
<!-- Node3 -->
<g id="Node000003" class="node">
<title>Node3</title>
<g id="a_Node000003"><a xlink:href="mag__lis3mdltr_8h.html" target="_top" xlink:title="Magnetometer Driver (LIS3MDLTR)">
<polygon fill="white" stroke="#666666" points="197,-74 102,-74 102,-55 197,-55 197,-74"/>
<text text-anchor="middle" x="149.5" y="-62" font-family="Helvetica,sans-Serif" font-size="10.00">mag_lis3mdltr.h</text>
</a>
</g>
</g>
<!-- Node1&#45;&gt;Node3 -->
<g id="edge12_Node000001_Node000003" class="edge">
<title>Node1&#45;&gt;Node3</title>
<g id="a_edge12_Node000001_Node000003"><a xlink:title=" ">
<path fill="none" stroke="#63b8ff" d="M324.88,-166.14C296.85,-159.12 256.48,-146.96 224.5,-129 197.13,-113.63 170.36,-87.55 157.47,-74.1"/>
<polygon fill="#63b8ff" stroke="#63b8ff" points="324.07,-169.54 334.61,-168.49 325.72,-162.74 324.07,-169.54"/>
</a>
</g>
</g>
<!-- Node8 -->
<g id="Node000008" class="node">
<title>Node8</title>
<g id="a_Node000008"><a xlink:href="vega__ant_8h.html" target="_top" xlink:title="Vega Antenna Board Driver.">
<polygon fill="white" stroke="#666666" points="381,-74 310,-74 310,-55 381,-55 381,-74"/>
<text text-anchor="middle" x="345.5" y="-62" font-family="Helvetica,sans-Serif" font-size="10.00">vega_ant.h</text>
</a>
</g>
</g>
<!-- Node1&#45;&gt;Node8 -->
<g id="edge15_Node000001_Node000008" class="edge">
<title>Node1&#45;&gt;Node8</title>
<g id="a_edge15_Node000001_Node000008"><a xlink:title=" ">
<path fill="none" stroke="#63b8ff" d="M340.4,-157.95C332.69,-150.14 324.56,-140.01 320.5,-129 313.2,-109.21 328.14,-86.24 337.92,-74.08"/>
<polygon fill="#63b8ff" stroke="#63b8ff" points="338.11,-160.61 347.79,-164.93 342.92,-155.52 338.11,-160.61"/>
</a>
</g>
</g>
<!-- Node11 -->
<g id="Node000011" class="node">
<title>Node11</title>
<g id="a_Node000011"><a xlink:href="ina219_8c.html" target="_top" xlink:title=" ">
<polygon fill="white" stroke="#666666" points="387.5,-129 329.5,-129 329.5,-110 387.5,-110 387.5,-129"/>
<text text-anchor="middle" x="358.5" y="-117" font-family="Helvetica,sans-Serif" font-size="10.00">ina219.c</text>
</a>
</g>
</g>
<!-- Node1&#45;&gt;Node11 -->
<g id="edge11_Node000001_Node000011" class="edge">
<title>Node1&#45;&gt;Node11</title>
<g id="a_edge11_Node000001_Node000011"><a xlink:title=" ">
<path fill="none" stroke="#63b8ff" d="M358.5,-154.66C358.5,-145.93 358.5,-135.99 358.5,-129.09"/>
<polygon fill="#63b8ff" stroke="#63b8ff" points="355,-154.75 358.5,-164.75 362,-154.75 355,-154.75"/>
</a>
</g>
</g>
<!-- Node12 -->
<g id="Node000012" class="node">
<title>Node12</title>
<g id="a_Node000012"><a xlink:href="miscellaneous__jobs_8c.html" target="_top" xlink:title=" ">
<polygon fill="white" stroke="#666666" points="527,-129 406,-129 406,-110 527,-110 527,-129"/>
<text text-anchor="middle" x="466.5" y="-117" font-family="Helvetica,sans-Serif" font-size="10.00">miscellaneous_jobs.c</text>
</a>
</g>
</g>
<!-- Node1&#45;&gt;Node12 -->
<g id="edge13_Node000001_Node000012" class="edge">
<title>Node1&#45;&gt;Node12</title>
<g id="a_edge13_Node000001_Node000012"><a xlink:title=" ">
<path fill="none" stroke="#63b8ff" d="M384.99,-160.5C404.86,-150.75 431.5,-137.68 448.83,-129.17"/>
<polygon fill="#63b8ff" stroke="#63b8ff" points="383.29,-157.44 375.85,-164.98 386.37,-163.72 383.29,-157.44"/>
</a>
</g>
</g>
<!-- Node13 -->
<g id="Node000013" class="node">
<title>Node13</title>
<g id="a_Node000013"><a xlink:href="mram_8c.html" target="_top" xlink:title=" ">
<polygon fill="white" stroke="#666666" points="599.5,-129 545.5,-129 545.5,-110 599.5,-110 599.5,-129"/>
<text text-anchor="middle" x="572.5" y="-117" font-family="Helvetica,sans-Serif" font-size="10.00">mram.c</text>
</a>
</g>
</g>
<!-- Node1&#45;&gt;Node13 -->
<g id="edge14_Node000001_Node000013" class="edge">
<title>Node1&#45;&gt;Node13</title>
<g id="a_edge14_Node000001_Node000013"><a xlink:title=" ">
<path fill="none" stroke="#63b8ff" d="M392.04,-165.19C434.35,-154.71 506.26,-136.9 545.32,-127.23"/>
<polygon fill="#63b8ff" stroke="#63b8ff" points="391.08,-161.82 382.22,-167.63 392.77,-168.62 391.08,-161.82"/>
</a>
</g>
</g>
<!-- Node14 -->
<g id="Node000014" class="node">
<title>Node14</title>
<g id="a_Node000014"><a xlink:href="watchdog_8c.html" target="_top" xlink:title=" ">
<polygon fill="white" stroke="#666666" points="689.5,-129 617.5,-129 617.5,-110 689.5,-110 689.5,-129"/>
<text text-anchor="middle" x="653.5" y="-117" font-family="Helvetica,sans-Serif" font-size="10.00">watchdog.c</text>
</a>
</g>
</g>
<!-- Node1&#45;&gt;Node14 -->
<g id="edge16_Node000001_Node000014" class="edge">
<title>Node1&#45;&gt;Node14</title>
<g id="a_edge16_Node000001_Node000014"><a xlink:title=" ">
<path fill="none" stroke="#63b8ff" d="M392.16,-167.63C440.18,-159.22 531.14,-143.19 608.5,-129 611.32,-128.48 614.23,-127.94 617.16,-127.4"/>
<polygon fill="#63b8ff" stroke="#63b8ff" points="391.55,-164.18 382.3,-169.35 392.75,-171.07 391.55,-164.18"/>
</a>
</g>
</g>
<!-- Node2&#45;&gt;Node3 -->
<g id="edge2_Node000002_Node000003" class="edge">
<title>Node2&#45;&gt;Node3</title>
<g id="a_edge2_Node000002_Node000003"><a xlink:title=" ">
<path fill="none" stroke="#63b8ff" d="M227.73,-105.37C208.63,-95.63 183.13,-82.64 166.51,-74.17"/>
<polygon fill="#63b8ff" stroke="#63b8ff" points="226.29,-108.56 236.79,-109.98 229.47,-102.33 226.29,-108.56"/>
</a>
</g>
</g>
<!-- Node7 -->
<g id="Node000007" class="node">
<title>Node7</title>
<g id="a_Node000007"><a xlink:href="drivers_2include_2max17048_8h.html" target="_top" xlink:title="MAX17048 Driver.">
<polygon fill="white" stroke="#666666" points="292,-74 215,-74 215,-55 292,-55 292,-74"/>
<text text-anchor="middle" x="253.5" y="-62" font-family="Helvetica,sans-Serif" font-size="10.00">max17048.h</text>
</a>
</g>
</g>
<!-- Node2&#45;&gt;Node7 -->
<g id="edge6_Node000002_Node000007" class="edge">
<title>Node2&#45;&gt;Node7</title>
<g id="a_edge6_Node000002_Node000007"><a xlink:title=" ">
<path fill="none" stroke="#63b8ff" d="M253.5,-99.66C253.5,-90.93 253.5,-80.99 253.5,-74.09"/>
<polygon fill="#63b8ff" stroke="#63b8ff" points="250,-99.75 253.5,-109.75 257,-99.75 250,-99.75"/>
</a>
</g>
</g>
<!-- Node2&#45;&gt;Node8 -->
<g id="edge7_Node000002_Node000008" class="edge">
<title>Node2&#45;&gt;Node8</title>
<g id="a_edge7_Node000002_Node000008"><a xlink:title=" ">
<path fill="none" stroke="#63b8ff" d="M276.99,-104.97C293.81,-95.28 315.95,-82.52 330.45,-74.17"/>
<polygon fill="#63b8ff" stroke="#63b8ff" points="275.2,-101.96 268.28,-109.98 278.69,-108.03 275.2,-101.96"/>
</a>
</g>
</g>
<!-- Node4 -->
<g id="Node000004" class="node">
<title>Node4</title>
<g id="a_Node000004"><a xlink:href="heartbeat__job_8c.html" target="_top" xlink:title=" ">
<polygon fill="white" stroke="#666666" points="275.5,-19 183.5,-19 183.5,0 275.5,0 275.5,-19"/>
<text text-anchor="middle" x="229.5" y="-7" font-family="Helvetica,sans-Serif" font-size="10.00">heartbeat_job.c</text>
</a>
</g>
</g>
<!-- Node3&#45;&gt;Node4 -->
<g id="edge3_Node000003_Node000004" class="edge">
<title>Node3&#45;&gt;Node4</title>
<g id="a_edge3_Node000003_Node000004"><a xlink:title=" ">
<path fill="none" stroke="#63b8ff" d="M170.75,-49.42C185.26,-39.81 204.04,-27.37 216.41,-19.17"/>
<polygon fill="#63b8ff" stroke="#63b8ff" points="168.76,-46.54 162.35,-54.98 172.62,-52.38 168.76,-46.54"/>
</a>
</g>
</g>
<!-- Node5 -->
<g id="Node000005" class="node">
<title>Node5</title>
<g id="a_Node000005"><a xlink:href="mag__lis3mdltr_8c.html" target="_top" xlink:title=" ">
<polygon fill="white" stroke="#666666" points="95,-19 0,-19 0,0 95,0 95,-19"/>
<text text-anchor="middle" x="47.5" y="-7" font-family="Helvetica,sans-Serif" font-size="10.00">mag_lis3mdltr.c</text>
</a>
</g>
</g>
<!-- Node3&#45;&gt;Node5 -->
<g id="edge4_Node000003_Node000005" class="edge">
<title>Node3&#45;&gt;Node5</title>
<g id="a_edge4_Node000003_Node000005"><a xlink:title=" ">
<path fill="none" stroke="#63b8ff" d="M124.23,-50.37C105.49,-40.63 80.48,-27.64 64.19,-19.17"/>
<polygon fill="#63b8ff" stroke="#63b8ff" points="122.62,-53.48 133.11,-54.98 125.85,-47.27 122.62,-53.48"/>
</a>
</g>
</g>
<!-- Node6 -->
<g id="Node000006" class="node">
<title>Node6</title>
<g id="a_Node000006"><a xlink:href="steve_8c.html" target="_top" xlink:title=" ">
<polygon fill="white" stroke="#666666" points="165.5,-19 113.5,-19 113.5,0 165.5,0 165.5,-19"/>
<text text-anchor="middle" x="139.5" y="-7" font-family="Helvetica,sans-Serif" font-size="10.00">steve.c</text>
</a>
</g>
</g>
<!-- Node3&#45;&gt;Node6 -->
<g id="edge5_Node000003_Node000006" class="edge">
<title>Node3&#45;&gt;Node6</title>
<g id="a_edge5_Node000003_Node000006"><a xlink:title=" ">
<path fill="none" stroke="#63b8ff" d="M145.95,-44.66C144.3,-35.93 142.42,-25.99 141.12,-19.09"/>
<polygon fill="#63b8ff" stroke="#63b8ff" points="142.56,-45.57 147.85,-54.75 149.43,-44.27 142.56,-45.57"/>
</a>
</g>
</g>
<!-- Node8&#45;&gt;Node4 -->
<g id="edge9_Node000008_Node000004" class="edge">
<title>Node8&#45;&gt;Node4</title>
<g id="a_edge9_Node000008_Node000004"><a xlink:title=" ">
<path fill="none" stroke="#63b8ff" d="M317.63,-50.77C296.23,-40.99 267.26,-27.75 248.48,-19.17"/>
<polygon fill="#63b8ff" stroke="#63b8ff" points="316.31,-54.01 326.86,-54.98 319.22,-47.65 316.31,-54.01"/>
</a>
</g>
</g>
<!-- Node9 -->
<g id="Node000009" class="node">
<title>Node9</title>
<g id="a_Node000009"><a xlink:href="antenna__deploy__job_8c.html" target="_top" xlink:title=" ">
<polygon fill="white" stroke="#666666" points="417,-19 294,-19 294,0 417,0 417,-19"/>
<text text-anchor="middle" x="355.5" y="-7" font-family="Helvetica,sans-Serif" font-size="10.00">antenna_deploy_job.c</text>
</a>
</g>
</g>
<!-- Node8&#45;&gt;Node9 -->
<g id="edge8_Node000008_Node000009" class="edge">
<title>Node8&#45;&gt;Node9</title>
<g id="a_edge8_Node000008_Node000009"><a xlink:title=" ">
<path fill="none" stroke="#63b8ff" d="M349.05,-44.66C350.7,-35.93 352.58,-25.99 353.88,-19.09"/>
<polygon fill="#63b8ff" stroke="#63b8ff" points="345.57,-44.27 347.15,-54.75 352.44,-45.57 345.57,-44.27"/>
</a>
</g>
</g>
<!-- Node10 -->
<g id="Node000010" class="node">
<title>Node10</title>
<g id="a_Node000010"><a xlink:href="vega__ant_8c.html" target="_top" xlink:title=" ">
<polygon fill="white" stroke="#666666" points="505.5,-19 435.5,-19 435.5,0 505.5,0 505.5,-19"/>
<text text-anchor="middle" x="470.5" y="-7" font-family="Helvetica,sans-Serif" font-size="10.00">vega_ant.c</text>
</a>
</g>
</g>
<!-- Node8&#45;&gt;Node10 -->
<g id="edge10_Node000008_Node000010" class="edge">
<title>Node8&#45;&gt;Node10</title>
<g id="a_edge10_Node000008_Node000010"><a xlink:title=" ">
<path fill="none" stroke="#63b8ff" d="M374.91,-51.03C398.03,-41.23 429.63,-27.83 450.05,-19.17"/>
<polygon fill="#63b8ff" stroke="#63b8ff" points="373.42,-47.86 365.58,-54.98 376.16,-54.3 373.42,-47.86"/>
</a>
</g>
</g>
</g>
</svg>
