<?xml version="1.0" encoding="UTF-8" standalone="no"?>
<!DOCTYPE svg PUBLIC "-//W3C//DTD SVG 1.1//EN"
 "http://www.w3.org/Graphics/SVG/1.1/DTD/svg11.dtd">
<!-- Generated by graphviz version 2.43.0 (0)
 -->
<!-- Title: radio_task_cpp Pages: 1 -->
<svg width="941pt" height="550pt"
 viewBox="0.00 0.00 941.00 550.00" xmlns="http://www.w3.org/2000/svg" xmlns:xlink="http://www.w3.org/1999/xlink">
<g id="graph0" class="graph" transform="scale(1 1) rotate(0) translate(4 546)">
<title>radio_task_cpp</title>
<!-- Node1 -->
<g id="Node000001" class="node">
<title>Node1</title>
<g id="a_Node000001"><a xlink:title="The implementation of the radio task function (Linked to C by radio_task())">
<polygon fill="#999999" stroke="#666666" points="90,-207 0,-207 0,-188 90,-188 90,-207"/>
<text text-anchor="middle" x="45" y="-195" font-family="Helvetica,sans-Serif" font-size="10.00">radio_task_cpp</text>
</a>
</g>
</g>
<!-- Node2 -->
<g id="Node000002" class="node">
<title>Node2</title>
<g id="a_Node000002"><a xlink:href="group__Radio.html#ga3b310022c5395a420f9a4d65a3950d60" target="_top" xlink:title="Get the radio last received time with mutex protection.">
<polygon fill="white" stroke="#666666" points="462,-542 301,-542 301,-523 462,-523 462,-542"/>
<text text-anchor="middle" x="381.5" y="-530" font-family="Helvetica,sans-Serif" font-size="10.00">get_radio_last_received_time</text>
</a>
</g>
</g>
<!-- Node1&#45;&gt;Node2 -->
<g id="edge1_Node000001_Node000002" class="edge">
<title>Node1&#45;&gt;Node2</title>
<g id="a_edge1_Node000001_Node000002"><a xlink:title=" ">
<path fill="none" stroke="#63b8ff" d="M46.93,-207.36C50.61,-241.41 67.01,-355.66 126,-423.5 174.3,-479.05 255.89,-507.14 313.65,-520.75"/>
<polygon fill="#63b8ff" stroke="#63b8ff" points="312.9,-524.17 323.43,-522.97 314.45,-517.34 312.9,-524.17"/>
</a>
</g>
</g>
<!-- Node3 -->
<g id="Node000003" class="node">
<title>Node3</title>
<g id="a_Node000003"><a xlink:href="group__Radio.html#gad6a879966c96e3220276583110fde2eb" target="_top" xlink:title="Initializes necessary peripherals/settings for the radio task.">
<polygon fill="white" stroke="#666666" points="226.5,-355 164.5,-355 164.5,-336 226.5,-336 226.5,-355"/>
<text text-anchor="middle" x="195.5" y="-343" font-family="Helvetica,sans-Serif" font-size="10.00">init_radio</text>
</a>
</g>
</g>
<!-- Node1&#45;&gt;Node3 -->
<g id="edge2_Node000001_Node000003" class="edge">
<title>Node1&#45;&gt;Node3</title>
<g id="a_edge2_Node000001_Node000003"><a xlink:title=" ">
<path fill="none" stroke="#63b8ff" d="M53.76,-207.1C67.6,-224 97.73,-259.9 126,-287.5 141.42,-302.55 160.17,-318.27 174.15,-329.54"/>
<polygon fill="#63b8ff" stroke="#63b8ff" points="172.17,-332.43 182.17,-335.94 176.54,-326.96 172.17,-332.43"/>
</a>
</g>
</g>
<!-- Node7 -->
<g id="Node000007" class="node">
<title>Node7</title>
<g id="a_Node000007"><a xlink:href="group__Radio.html#gae7b8fc4ccc09bb7acd7b803ecad3caca" target="_top" xlink:title=" ">
<polygon fill="white" stroke="#666666" points="451,-505 312,-505 312,-486 451,-486 451,-505"/>
<text text-anchor="middle" x="381.5" y="-493" font-family="Helvetica,sans-Serif" font-size="10.00">radio_cad_detected_RFM</text>
</a>
</g>
</g>
<!-- Node1&#45;&gt;Node7 -->
<g id="edge19_Node000001_Node000007" class="edge">
<title>Node1&#45;&gt;Node7</title>
<g id="a_edge19_Node000001_Node000007"><a xlink:title=" ">
<path fill="none" stroke="#63b8ff" d="M48.55,-207.28C56.15,-234.88 80.97,-314.63 126,-364.5 187.09,-432.17 217.8,-434.24 301,-471.5 310.77,-475.88 321.57,-479.73 331.96,-483"/>
<polygon fill="#63b8ff" stroke="#63b8ff" points="331.18,-486.42 341.77,-485.96 333.2,-479.72 331.18,-486.42"/>
</a>
</g>
</g>
<!-- Node8 -->
<g id="Node000008" class="node">
<title>Node8</title>
<g id="a_Node000008"><a xlink:href="group__Radio.html#ga9cc461d365bd6aa5037aa79b50a4ab70" target="_top" xlink:title=" ">
<polygon fill="white" stroke="#666666" points="444,-281 319,-281 319,-262 444,-262 444,-281"/>
<text text-anchor="middle" x="381.5" y="-269" font-family="Helvetica,sans-Serif" font-size="10.00">radio_general_flag_SX</text>
</a>
</g>
</g>
<!-- Node1&#45;&gt;Node8 -->
<g id="edge20_Node000001_Node000008" class="edge">
<title>Node1&#45;&gt;Node8</title>
<g id="a_edge20_Node000001_Node000008"><a xlink:title=" ">
<path fill="none" stroke="#63b8ff" d="M64.24,-207.12C80.13,-215.09 104.01,-226.12 126,-232.5 186.37,-250.01 257.21,-260.05 308.8,-265.54"/>
<polygon fill="#63b8ff" stroke="#63b8ff" points="308.55,-269.04 318.86,-266.58 309.27,-262.07 308.55,-269.04"/>
</a>
</g>
</g>
<!-- Node9 -->
<g id="Node000009" class="node">
<title>Node9</title>
<g id="a_Node000009"><a xlink:href="group__Radio.html#gabb38d1447d7bbd825a1514d39e9889f3" target="_top" xlink:title="Handle hardware switches between radios.">
<polygon fill="white" stroke="#666666" points="453.5,-244 309.5,-244 309.5,-225 453.5,-225 453.5,-244"/>
<text text-anchor="middle" x="381.5" y="-232" font-family="Helvetica,sans-Serif" font-size="10.00">radio_hardware_switch_to</text>
</a>
</g>
</g>
<!-- Node1&#45;&gt;Node9 -->
<g id="edge21_Node000001_Node000009" class="edge">
<title>Node1&#45;&gt;Node9</title>
<g id="a_edge21_Node000001_Node000009"><a xlink:title=" ">
<path fill="none" stroke="#63b8ff" d="M90.33,-205.93C101.91,-207.95 114.4,-209.96 126,-211.5 183.71,-219.14 249.12,-224.99 299.17,-228.88"/>
<polygon fill="#63b8ff" stroke="#63b8ff" points="299.05,-232.38 309.29,-229.66 299.59,-225.4 299.05,-232.38"/>
</a>
</g>
</g>
<!-- Node10 -->
<g id="Node000010" class="node">
<title>Node10</title>
<g id="a_Node000010"><a xlink:href="group__Radio.html#ga69267b1b554b36d584cbc4322534266f" target="_top" xlink:title=" ">
<polygon fill="white" stroke="#666666" points="456,-207 307,-207 307,-188 456,-188 456,-207"/>
<text text-anchor="middle" x="381.5" y="-195" font-family="Helvetica,sans-Serif" font-size="10.00">radio_operation_done_RFM</text>
</a>
</g>
</g>
<!-- Node1&#45;&gt;Node10 -->
<g id="edge22_Node000001_Node000010" class="edge">
<title>Node1&#45;&gt;Node10</title>
<g id="a_edge22_Node000001_Node000010"><a xlink:title=" ">
<path fill="none" stroke="#63b8ff" d="M90.07,-197.5C142.45,-197.5 230.97,-197.5 296.55,-197.5"/>
<polygon fill="#63b8ff" stroke="#63b8ff" points="296.87,-201 306.87,-197.5 296.87,-194 296.87,-201"/>
</a>
</g>
</g>
<!-- Node17 -->
<g id="Node000017" class="node">
<title>Node17</title>
<g id="a_Node000017"><a xlink:href="command_8c.html#ac090b79f5dfeeaa73978dc9df75fe1a0" target="_top" xlink:title=" ">
<polygon fill="white" stroke="#666666" points="265,-93 126,-93 126,-74 265,-74 265,-93"/>
<text text-anchor="middle" x="195.5" y="-81" font-family="Helvetica,sans-Serif" font-size="10.00">receive_command_bytes</text>
</a>
</g>
</g>
<!-- Node1&#45;&gt;Node17 -->
<g id="edge23_Node000001_Node000017" class="edge">
<title>Node1&#45;&gt;Node17</title>
<g id="a_edge23_Node000001_Node000017"><a xlink:title=" ">
<path fill="none" stroke="#63b8ff" d="M52.06,-187.91C64.04,-169.71 92.49,-129.97 126,-107.5 132.26,-103.3 139.33,-99.76 146.5,-96.79"/>
<polygon fill="#63b8ff" stroke="#63b8ff" points="148.15,-99.9 156.26,-93.09 145.67,-93.36 148.15,-99.9"/>
</a>
</g>
</g>
<!-- Node19 -->
<g id="Node000019" class="node">
<title>Node19</title>
<g id="a_Node000019"><a xlink:href="telemetry_8c.html#a6dbf6c6cfd75451e5642ca0b64bf7f5a" target="_top" xlink:title=" ">
<polygon fill="white" stroke="#666666" points="242,-56 149,-56 149,-37 242,-37 242,-56"/>
<text text-anchor="middle" x="195.5" y="-44" font-family="Helvetica,sans-Serif" font-size="10.00">send_telemetry</text>
</a>
</g>
</g>
<!-- Node1&#45;&gt;Node19 -->
<g id="edge25_Node000001_Node000019" class="edge">
<title>Node1&#45;&gt;Node19</title>
<g id="a_edge25_Node000001_Node000019"><a xlink:title=" ">
<path fill="none" stroke="#63b8ff" d="M49,-187.71C57.09,-162.99 81.8,-97.63 126,-64.5 130.08,-61.44 134.63,-58.91 139.4,-56.8"/>
<polygon fill="#63b8ff" stroke="#63b8ff" points="140.65,-60.07 148.76,-53.25 138.17,-53.52 140.65,-60.07"/>
</a>
</g>
</g>
<!-- Node20 -->
<g id="Node000020" class="node">
<title>Node20</title>
<g id="a_Node000020"><a xlink:href="group__Radio.html#ga74c252dc0de25701a447a67c039e9804" target="_top" xlink:title=" ">
<polygon fill="white" stroke="#666666" points="247.5,-19 143.5,-19 143.5,0 247.5,0 247.5,-19"/>
<text text-anchor="middle" x="195.5" y="-7" font-family="Helvetica,sans-Serif" font-size="10.00">set_power_output</text>
</a>
</g>
</g>
<!-- Node1&#45;&gt;Node20 -->
<g id="edge26_Node000001_Node000020" class="edge">
<title>Node1&#45;&gt;Node20</title>
<g id="a_edge26_Node000001_Node000020"><a xlink:title=" ">
<path fill="none" stroke="#63b8ff" d="M47.64,-187.67C53.05,-158.46 73.09,-71.52 126,-27.5 128.55,-25.38 131.33,-23.5 134.25,-21.84"/>
<polygon fill="#63b8ff" stroke="#63b8ff" points="135.86,-24.95 143.39,-17.5 132.86,-18.63 135.86,-24.95"/>
</a>
</g>
</g>
<!-- Node21 -->
<g id="Node000021" class="node">
<title>Node21</title>
<g id="a_Node000021"><a xlink:href="timing_8c.html#a194bf95f7b8c4bde3816deac81a9fb20" target="_top" xlink:title=" ">
<polygon fill="white" stroke="#666666" points="424.5,-131 338.5,-131 338.5,-112 424.5,-112 424.5,-131"/>
<text text-anchor="middle" x="381.5" y="-119" font-family="Helvetica,sans-Serif" font-size="10.00">time_between</text>
</a>
</g>
</g>
<!-- Node1&#45;&gt;Node21 -->
<g id="edge27_Node000001_Node000021" class="edge">
<title>Node1&#45;&gt;Node21</title>
<g id="a_edge27_Node000001_Node000021"><a xlink:title=" ">
<path fill="none" stroke="#63b8ff" d="M55.84,-187.91C70.01,-174.79 97.6,-151.69 126,-141.5 192.68,-117.57 275.31,-115.73 327.98,-117.72"/>
<polygon fill="#63b8ff" stroke="#63b8ff" points="327.95,-121.22 338.1,-118.16 328.26,-114.23 327.95,-121.22"/>
</a>
</g>
</g>
<!-- Node22 -->
<g id="Node000022" class="node">
<title>Node22</title>
<g id="a_Node000022"><a xlink:href="timing_8c.html#ab12969269737f49ad7d6b46da54da52e" target="_top" xlink:title=" ">
<polygon fill="white" stroke="#666666" points="240.5,-169 150.5,-169 150.5,-150 240.5,-150 240.5,-169"/>
<text text-anchor="middle" x="195.5" y="-157" font-family="Helvetica,sans-Serif" font-size="10.00">time_since_ms</text>
</a>
</g>
</g>
<!-- Node1&#45;&gt;Node22 -->
<g id="edge28_Node000001_Node000022" class="edge">
<title>Node1&#45;&gt;Node22</title>
<g id="a_edge28_Node000001_Node000022"><a xlink:title=" ">
<path fill="none" stroke="#63b8ff" d="M83.47,-187.91C102.89,-182.94 126.8,-176.82 147.45,-171.54"/>
<polygon fill="#63b8ff" stroke="#63b8ff" points="148.48,-174.89 157.3,-169.02 146.74,-168.11 148.48,-174.89"/>
</a>
</g>
</g>
<!-- Node3&#45;&gt;Node2 -->
<g id="edge6_Node000003_Node000002" class="edge">
<title>Node3&#45;&gt;Node2</title>
<g id="a_edge6_Node000003_Node000002"><a xlink:title=" ">
<path fill="none" stroke="#63b8ff" d="M199.56,-355.41C209.18,-384.83 241.75,-472.22 301,-514.5 302.92,-515.87 304.92,-517.14 307,-518.31"/>
<polygon fill="#63b8ff" stroke="#63b8ff" points="305.93,-521.68 316.46,-522.87 308.97,-515.37 305.93,-521.68"/>
</a>
</g>
</g>
<!-- Node4 -->
<g id="Node000004" class="node">
<title>Node4</title>
<g id="a_Node000004"><a xlink:href="filesystem_8c.html#a07610d3a6787ca02aa3d340759bcb8c9" target="_top" xlink:title=" ">
<polygon fill="white" stroke="#666666" points="695,-448 629,-448 629,-429 695,-429 695,-448"/>
<text text-anchor="middle" x="662" y="-436" font-family="Helvetica,sans-Serif" font-size="10.00">file_exists</text>
</a>
</g>
</g>
<!-- Node3&#45;&gt;Node4 -->
<g id="edge3_Node000003_Node000004" class="edge">
<title>Node3&#45;&gt;Node4</title>
<g id="a_edge3_Node000003_Node000004"><a xlink:title=" ">
<path fill="none" stroke="#63b8ff" d="M226.71,-346.25C239.67,-347.95 254.28,-351.88 265,-360.5 294.76,-384.42 268.84,-417.92 301,-438.5 401.61,-502.87 552.62,-471.14 622.72,-450.91"/>
<polygon fill="#63b8ff" stroke="#63b8ff" points="623.87,-454.22 632.46,-448.02 621.88,-447.51 623.87,-454.22"/>
</a>
</g>
</g>
<!-- Node3&#45;&gt;Node7 -->
<g id="edge7_Node000003_Node000007" class="edge">
<title>Node3&#45;&gt;Node7</title>
<g id="a_edge7_Node000003_Node000007"><a xlink:title=" ">
<path fill="none" stroke="#63b8ff" d="M205.13,-355.07C218.31,-369.77 244.12,-398.89 265,-424.5 281.63,-444.89 279.36,-456.53 301,-471.5 307.42,-475.94 314.68,-479.58 322.14,-482.55"/>
<polygon fill="#63b8ff" stroke="#63b8ff" points="321.05,-485.88 331.64,-485.97 323.42,-479.29 321.05,-485.88"/>
</a>
</g>
</g>
<!-- Node3&#45;&gt;Node8 -->
<g id="edge8_Node000003_Node000008" class="edge">
<title>Node3&#45;&gt;Node8</title>
<g id="a_edge8_Node000003_Node000008"><a xlink:title=" ">
<path fill="none" stroke="#63b8ff" d="M211.86,-335.84C231.75,-323.71 267.8,-302.98 301,-290.5 307.76,-287.96 314.97,-285.68 322.19,-283.65"/>
<polygon fill="#63b8ff" stroke="#63b8ff" points="323.23,-287 331.99,-281.05 321.43,-280.23 323.23,-287"/>
</a>
</g>
</g>
<!-- Node3&#45;&gt;Node9 -->
<g id="edge9_Node000003_Node000009" class="edge">
<title>Node3&#45;&gt;Node9</title>
<g id="a_edge9_Node000003_Node000009"><a xlink:title=" ">
<path fill="none" stroke="#63b8ff" d="M204.59,-335.72C220.82,-316.79 259.37,-275.08 301,-253.5 305.53,-251.15 310.36,-249.09 315.3,-247.28"/>
<polygon fill="#63b8ff" stroke="#63b8ff" points="316.53,-250.56 324.93,-244.09 314.33,-243.91 316.53,-250.56"/>
</a>
</g>
</g>
<!-- Node3&#45;&gt;Node10 -->
<g id="edge10_Node000003_Node000010" class="edge">
<title>Node3&#45;&gt;Node10</title>
<g id="a_edge10_Node000003_Node000010"><a xlink:title=" ">
<path fill="none" stroke="#63b8ff" d="M201.34,-335.93C214.07,-311.77 251.01,-248 301,-216.5 304.35,-214.39 307.91,-212.51 311.6,-210.85"/>
<polygon fill="#63b8ff" stroke="#63b8ff" points="312.99,-214.06 320.99,-207.12 310.4,-207.56 312.99,-214.06"/>
</a>
</g>
</g>
<!-- Node11 -->
<g id="Node000011" class="node">
<title>Node11</title>
<g id="a_Node000011"><a xlink:href="filesystem_8c.html#ab92b1f0beb3be903677f3293d0430b62" target="_top" xlink:title=" ">
<polygon fill="white" stroke="#666666" points="411,-392 352,-392 352,-373 411,-373 411,-392"/>
<text text-anchor="middle" x="381.5" y="-380" font-family="Helvetica,sans-Serif" font-size="10.00">read_file</text>
</a>
</g>
</g>
<!-- Node3&#45;&gt;Node11 -->
<g id="edge11_Node000003_Node000011" class="edge">
<title>Node3&#45;&gt;Node11</title>
<g id="a_edge11_Node000003_Node000011"><a xlink:title=" ">
<path fill="none" stroke="#63b8ff" d="M226.88,-351.61C258.33,-357.93 307.57,-367.83 341.79,-374.72"/>
<polygon fill="#63b8ff" stroke="#63b8ff" points="341.4,-378.21 351.89,-376.75 342.78,-371.34 341.4,-378.21"/>
</a>
</g>
</g>
<!-- Node13 -->
<g id="Node000013" class="node">
<title>Node13</title>
<g id="a_Node000013"><a xlink:href="group__Radio.html#ga11abd7a01d0c8cbbc256e93bb0ed75e4" target="_top" xlink:title="Set the radio last received time with mutex protection.">
<polygon fill="white" stroke="#666666" points="461.5,-429 301.5,-429 301.5,-410 461.5,-410 461.5,-429"/>
<text text-anchor="middle" x="381.5" y="-417" font-family="Helvetica,sans-Serif" font-size="10.00">set_radio_last_received_time</text>
</a>
</g>
</g>
<!-- Node3&#45;&gt;Node13 -->
<g id="edge15_Node000003_Node000013" class="edge">
<title>Node3&#45;&gt;Node13</title>
<g id="a_edge15_Node000003_Node000013"><a xlink:title=" ">
<path fill="none" stroke="#63b8ff" d="M211.47,-355.2C231.23,-367.6 267.45,-388.97 301,-401.5 306.83,-403.68 313,-405.64 319.23,-407.39"/>
<polygon fill="#63b8ff" stroke="#63b8ff" points="318.45,-410.8 329.01,-409.98 320.24,-404.04 318.45,-410.8"/>
</a>
</g>
</g>
<!-- Node14 -->
<g id="Node000014" class="node">
<title>Node14</title>
<g id="a_Node000014"><a xlink:href="timing_8c.html#a0fcff89befd0e9d8e5284516631a96b1" target="_top" xlink:title=" ">
<polygon fill="white" stroke="#666666" points="418.5,-318 344.5,-318 344.5,-299 418.5,-299 418.5,-318"/>
<text text-anchor="middle" x="381.5" y="-306" font-family="Helvetica,sans-Serif" font-size="10.00">timing_now</text>
</a>
</g>
</g>
<!-- Node3&#45;&gt;Node14 -->
<g id="edge16_Node000003_Node000014" class="edge">
<title>Node3&#45;&gt;Node14</title>
<g id="a_edge16_Node000003_Node000014"><a xlink:title=" ">
<path fill="none" stroke="#63b8ff" d="M226.88,-339.39C256.11,-333.51 300.7,-324.55 334.33,-317.78"/>
<polygon fill="#63b8ff" stroke="#63b8ff" points="335.27,-321.17 344.38,-315.76 333.89,-314.3 335.27,-321.17"/>
</a>
</g>
</g>
<!-- Node16 -->
<g id="Node000016" class="node">
<title>Node16</title>
<g id="a_Node000016"><a xlink:href="filesystem_8c.html#a8e5a51c709e9d6229c1974435475292a" target="_top" xlink:title=" ">
<polygon fill="white" stroke="#666666" points="412.5,-355 350.5,-355 350.5,-336 412.5,-336 412.5,-355"/>
<text text-anchor="middle" x="381.5" y="-343" font-family="Helvetica,sans-Serif" font-size="10.00">write_file</text>
</a>
</g>
</g>
<!-- Node3&#45;&gt;Node16 -->
<g id="edge18_Node000003_Node000016" class="edge">
<title>Node3&#45;&gt;Node16</title>
<g id="a_edge18_Node000003_Node000016"><a xlink:title=" ">
<path fill="none" stroke="#63b8ff" d="M226.88,-345.5C257.87,-345.5 306.12,-345.5 340.27,-345.5"/>
<polygon fill="#63b8ff" stroke="#63b8ff" points="340.38,-349 350.38,-345.5 340.38,-342 340.38,-349"/>
</a>
</g>
</g>
<!-- Node5 -->
<g id="Node000005" class="node">
<title>Node5</title>
<g id="a_Node000005"><a xlink:href="filesystem_8c.html#aa109ff29a72d1beadda58bb3a54185b6" target="_top" xlink:title=" ">
<polygon fill="white" stroke="#666666" points="766,-448 731,-448 731,-429 766,-429 766,-448"/>
<text text-anchor="middle" x="748.5" y="-436" font-family="Helvetica,sans-Serif" font-size="10.00">stat</text>
</a>
</g>
</g>
<!-- Node4&#45;&gt;Node5 -->
<g id="edge4_Node000004_Node000005" class="edge">
<title>Node4&#45;&gt;Node5</title>
<g id="a_edge4_Node000004_Node000005"><a xlink:title=" ">
<path fill="none" stroke="#63b8ff" d="M695.43,-438.5C703.75,-438.5 712.6,-438.5 720.61,-438.5"/>
<polygon fill="#63b8ff" stroke="#63b8ff" points="720.87,-442 730.87,-438.5 720.87,-435 720.87,-442"/>
</a>
</g>
</g>
<!-- Node6 -->
<g id="Node000006" class="node">
<title>Node6</title>
<g id="a_Node000006"><a xlink:href="utilities_2src_2log_8c.html#a4b048be24c6c7f622a6bc6c6bf8ac435" target="_top" xlink:title=" ">
<polygon fill="white" stroke="#666666" points="933,-429 802,-429 802,-410 933,-410 933,-429"/>
<text text-anchor="middle" x="867.5" y="-417" font-family="Helvetica,sans-Serif" font-size="10.00">get_current_task_name</text>
</a>
</g>
</g>
<!-- Node5&#45;&gt;Node6 -->
<g id="edge5_Node000005_Node000006" class="edge">
<title>Node5&#45;&gt;Node6</title>
<g id="a_edge5_Node000005_Node000006"><a xlink:title=" ">
<path fill="none" stroke="#63b8ff" d="M766.02,-435.82C774.68,-434.41 785.93,-432.58 797.77,-430.66"/>
<polygon fill="#63b8ff" stroke="#63b8ff" points="798.49,-434.09 807.8,-429.03 797.36,-427.18 798.49,-434.09"/>
</a>
</g>
</g>
<!-- Node12 -->
<g id="Node000012" class="node">
<title>Node12</title>
<g id="a_Node000012"><a xlink:href="filesystem_8c.html#ae0599d66eddc7fdf656fca874aa5f1d1" target="_top" xlink:title=" ">
<polygon fill="white" stroke="#666666" points="591.5,-410 499.5,-410 499.5,-391 591.5,-391 591.5,-410"/>
<text text-anchor="middle" x="545.5" y="-398" font-family="Helvetica,sans-Serif" font-size="10.00">read_file_offset</text>
</a>
</g>
</g>
<!-- Node11&#45;&gt;Node12 -->
<g id="edge12_Node000011_Node000012" class="edge">
<title>Node11&#45;&gt;Node12</title>
<g id="a_edge12_Node000011_Node000012"><a xlink:title=" ">
<path fill="none" stroke="#63b8ff" d="M411.09,-385.68C432.66,-388.07 462.92,-391.44 489.17,-394.35"/>
<polygon fill="#63b8ff" stroke="#63b8ff" points="489.06,-397.86 499.38,-395.49 489.83,-390.9 489.06,-397.86"/>
</a>
</g>
</g>
<!-- Node12&#45;&gt;Node4 -->
<g id="edge13_Node000012_Node000004" class="edge">
<title>Node12&#45;&gt;Node4</title>
<g id="a_edge13_Node000012_Node000004"><a xlink:title=" ">
<path fill="none" stroke="#63b8ff" d="M575.39,-410.09C589.63,-414.81 607,-420.58 622.36,-425.68"/>
<polygon fill="#63b8ff" stroke="#63b8ff" points="621.52,-429.09 632.12,-428.91 623.73,-422.44 621.52,-429.09"/>
</a>
</g>
</g>
<!-- Node12&#45;&gt;Node6 -->
<g id="edge14_Node000012_Node000006" class="edge">
<title>Node12&#45;&gt;Node6</title>
<g id="a_edge14_Node000012_Node000006"><a xlink:title=" ">
<path fill="none" stroke="#63b8ff" d="M591.67,-403.18C643.65,-406.27 729.8,-411.38 791.8,-415.06"/>
<polygon fill="#63b8ff" stroke="#63b8ff" points="791.73,-418.57 801.92,-415.67 792.15,-411.58 791.73,-418.57"/>
</a>
</g>
</g>
<!-- Node15 -->
<g id="Node000015" class="node">
<title>Node15</title>
<g id="a_Node000015"><a xlink:href="timing_8c.html#a8a218128fb890d92682a233464ee5cdb" target="_top" xlink:title=" ">
<polygon fill="white" stroke="#666666" points="593,-244 498,-244 498,-225 593,-225 593,-244"/>
<text text-anchor="middle" x="545.5" y="-232" font-family="Helvetica,sans-Serif" font-size="10.00">get_epoch_time</text>
</a>
</g>
</g>
<!-- Node14&#45;&gt;Node15 -->
<g id="edge17_Node000014_Node000015" class="edge">
<title>Node14&#45;&gt;Node15</title>
<g id="a_edge17_Node000014_Node000015"><a xlink:title=" ">
<path fill="none" stroke="#63b8ff" d="M418.62,-303.28C432.55,-300.51 448.37,-296.42 462,-290.5 485.45,-280.32 509.29,-263.26 525.28,-250.63"/>
<polygon fill="#63b8ff" stroke="#63b8ff" points="527.72,-253.16 533.29,-244.15 523.32,-247.71 527.72,-253.16"/>
</a>
</g>
</g>
<!-- Node18 -->
<g id="Node000018" class="node">
<title>Node18</title>
<g id="a_Node000018"><a xlink:href="command_8c.html#a4f5fb387e54e9f86c0201fff500341a7" target="_top" xlink:title=" ">
<polygon fill="white" stroke="#666666" points="448.5,-93 314.5,-93 314.5,-74 448.5,-74 448.5,-93"/>
<text text-anchor="middle" x="381.5" y="-81" font-family="Helvetica,sans-Serif" font-size="10.00">receive_command_byte</text>
</a>
</g>
</g>
<!-- Node17&#45;&gt;Node18 -->
<g id="edge24_Node000017_Node000018" class="edge">
<title>Node17&#45;&gt;Node18</title>
<g id="a_edge24_Node000017_Node000018"><a xlink:title=" ">
<path fill="none" stroke="#63b8ff" d="M265.01,-83.5C277.75,-83.5 291.14,-83.5 304.09,-83.5"/>
<polygon fill="#63b8ff" stroke="#63b8ff" points="304.37,-87 314.37,-83.5 304.37,-80 304.37,-87"/>
</a>
</g>
</g>
<!-- Node22&#45;&gt;Node15 -->
<g id="edge29_Node000022_Node000015" class="edge">
<title>Node22&#45;&gt;Node15</title>
<g id="a_edge29_Node000022_Node000015"><a xlink:title=" ">
<path fill="none" stroke="#63b8ff" d="M240.63,-156.12C294.45,-153.49 387.48,-153.84 462,-179.5 486.17,-187.82 510.06,-205 525.86,-217.95"/>
<polygon fill="#63b8ff" stroke="#63b8ff" points="523.86,-220.85 533.76,-224.63 528.38,-215.5 523.86,-220.85"/>
</a>
</g>
</g>
<!-- Node22&#45;&gt;Node21 -->
<g id="edge30_Node000022_Node000021" class="edge">
<title>Node22&#45;&gt;Node21</title>
<g id="a_edge30_Node000022_Node000021"><a xlink:title=" ">
<path fill="none" stroke="#63b8ff" d="M240.57,-150.4C266.99,-144.94 300.72,-137.98 328.45,-132.25"/>
<polygon fill="#63b8ff" stroke="#63b8ff" points="329.28,-135.65 338.37,-130.2 327.87,-128.8 329.28,-135.65"/>
</a>
</g>
</g>
</g>
</svg>
