<?xml version="1.0" encoding="UTF-8" standalone="no"?>
<!DOCTYPE svg PUBLIC "-//W3C//DTD SVG 1.1//EN"
 "http://www.w3.org/Graphics/SVG/1.1/DTD/svg11.dtd">
<!-- Generated by graphviz version 2.43.0 (0)
 -->
<!-- Title: radio_task_cpp Pages: 1 -->
<svg width="628pt" height="380pt"
 viewBox="0.00 0.00 628.00 380.16" xmlns="http://www.w3.org/2000/svg" xmlns:xlink="http://www.w3.org/1999/xlink">
<g id="graph0" class="graph" transform="scale(1 1) rotate(0) translate(4 376.16)">
<title>radio_task_cpp</title>
<!-- Node1 -->
<g id="Node000001" class="node">
<title>Node1</title>
<g id="a_Node000001"><a xlink:title="The implementation of the radio task function (Linked to C by radio_task())">
<polygon fill="#999999" stroke="#666666" points="90,-169 0,-169 0,-150 90,-150 90,-169"/>
<text text-anchor="middle" x="45" y="-157" font-family="Helvetica,sans-Serif" font-size="10.00">radio_task_cpp</text>
</a>
</g>
</g>
<!-- Node2 -->
<g id="Node000002" class="node">
<title>Node2</title>
<g id="a_Node000002"><a xlink:href="group__Radio.html#gad6a879966c96e3220276583110fde2eb" target="_top" xlink:title="Initializes necessary peripherals/settings for the radio task.">
<polygon fill="white" stroke="#666666" points="226.5,-264 164.5,-264 164.5,-245 226.5,-245 226.5,-264"/>
<text text-anchor="middle" x="195.5" y="-252" font-family="Helvetica,sans-Serif" font-size="10.00">init_radio</text>
</a>
</g>
</g>
<!-- Node1&#45;&gt;Node2 -->
<g id="edge1_Node000001_Node000002" class="edge">
<title>Node1&#45;&gt;Node2</title>
<g id="a_edge1_Node000001_Node000002"><a xlink:title=" ">
<path fill="none" stroke="#63b8ff" d="M56.85,-169.11C71.75,-182.02 99.7,-205.23 126,-221.5 137.4,-228.55 150.54,-235.21 162.24,-240.66"/>
<polygon fill="#63b8ff" stroke="#63b8ff" points="161.11,-243.99 171.66,-244.95 164,-237.62 161.11,-243.99"/>
</a>
</g>
</g>
<!-- Node3 -->
<g id="Node000003" class="node">
<title>Node3</title>
<g id="a_Node000003"><a xlink:href="group__Radio.html#gae7b8fc4ccc09bb7acd7b803ecad3caca" target="_top" xlink:title=" ">
<polygon fill="white" stroke="#666666" points="615,-359 476,-359 476,-340 615,-340 615,-359"/>
<text text-anchor="middle" x="545.5" y="-347" font-family="Helvetica,sans-Serif" font-size="10.00">radio_cad_detected_RFM</text>
</a>
</g>
</g>
<!-- Node1&#45;&gt;Node3 -->
<g id="edge11_Node000001_Node000003" class="edge">
<title>Node1&#45;&gt;Node3</title>
<g id="a_edge11_Node000001_Node000003"><a xlink:title=" ">
<path fill="none" stroke="#63b8ff" d="M48.03,-169.21C54.27,-196.45 75.88,-274 126,-310.5 234.51,-389.53 403.19,-375.11 489.52,-360.75"/>
<polygon fill="#63b8ff" stroke="#63b8ff" points="490.12,-364.19 499.38,-359.05 488.93,-357.3 490.12,-364.19"/>
</a>
</g>
</g>
<!-- Node4 -->
<g id="Node000004" class="node">
<title>Node4</title>
<g id="a_Node000004"><a xlink:href="group__Radio.html#ga9cc461d365bd6aa5037aa79b50a4ab70" target="_top" xlink:title=" ">
<polygon fill="white" stroke="#666666" points="608,-207 483,-207 483,-188 608,-188 608,-207"/>
<text text-anchor="middle" x="545.5" y="-195" font-family="Helvetica,sans-Serif" font-size="10.00">radio_general_flag_SX</text>
</a>
</g>
</g>
<!-- Node1&#45;&gt;Node4 -->
<g id="edge12_Node000001_Node000004" class="edge">
<title>Node1&#45;&gt;Node4</title>
<g id="a_edge12_Node000001_Node000004"><a xlink:title=" ">
<path fill="none" stroke="#63b8ff" d="M90.14,-150.68C162.99,-137.72 312.54,-117.9 435,-145.5 466.48,-152.59 499.52,-169.84 520.97,-182.54"/>
<polygon fill="#63b8ff" stroke="#63b8ff" points="519.32,-185.63 529.69,-187.83 522.96,-179.65 519.32,-185.63"/>
</a>
</g>
</g>
<!-- Node5 -->
<g id="Node000005" class="node">
<title>Node5</title>
<g id="a_Node000005"><a xlink:href="group__Radio.html#gabb38d1447d7bbd825a1514d39e9889f3" target="_top" xlink:title="Handle hardware switches between radios.">
<polygon fill="white" stroke="#666666" points="617.5,-321 473.5,-321 473.5,-302 617.5,-302 617.5,-321"/>
<text text-anchor="middle" x="545.5" y="-309" font-family="Helvetica,sans-Serif" font-size="10.00">radio_hardware_switch_to</text>
</a>
</g>
</g>
<!-- Node1&#45;&gt;Node5 -->
<g id="edge13_Node000001_Node000005" class="edge">
<title>Node1&#45;&gt;Node5</title>
<g id="a_edge13_Node000001_Node000005"><a xlink:title=" ">
<path fill="none" stroke="#63b8ff" d="M49.6,-169.2C58.57,-191.84 84.23,-248.19 126,-273.5 235.38,-339.78 391.21,-333.1 478.58,-322.31"/>
<polygon fill="#63b8ff" stroke="#63b8ff" points="479.16,-325.76 488.63,-321.01 478.26,-318.82 479.16,-325.76"/>
</a>
</g>
</g>
<!-- Node6 -->
<g id="Node000006" class="node">
<title>Node6</title>
<g id="a_Node000006"><a xlink:href="group__Radio.html#ga69267b1b554b36d584cbc4322534266f" target="_top" xlink:title=" ">
<polygon fill="white" stroke="#666666" points="620,-245 471,-245 471,-226 620,-226 620,-245"/>
<text text-anchor="middle" x="545.5" y="-233" font-family="Helvetica,sans-Serif" font-size="10.00">radio_operation_done_RFM</text>
</a>
</g>
</g>
<!-- Node1&#45;&gt;Node6 -->
<g id="edge14_Node000001_Node000006" class="edge">
<title>Node1&#45;&gt;Node6</title>
<g id="a_edge14_Node000001_Node000006"><a xlink:title=" ">
<path fill="none" stroke="#63b8ff" d="M90.23,-161.24C134.6,-163.38 204.79,-167.85 265,-176.5 347.26,-188.32 441.58,-209.95 496.94,-223.48"/>
<polygon fill="#63b8ff" stroke="#63b8ff" points="496.26,-226.91 506.81,-225.9 497.93,-220.12 496.26,-226.91"/>
</a>
</g>
</g>
<!-- Node7 -->
<g id="Node000007" class="node">
<title>Node7</title>
<g id="a_Node000007"><a xlink:href="group__Radio.html#ga39fef0e9987217c6be69bcc9ca1af791" target="_top" xlink:title=" ">
<polygon fill="white" stroke="#666666" points="404.5,-245 331.5,-245 331.5,-226 404.5,-226 404.5,-245"/>
<text text-anchor="middle" x="368" y="-233" font-family="Helvetica,sans-Serif" font-size="10.00">radio_panic</text>
</a>
</g>
</g>
<!-- Node1&#45;&gt;Node7 -->
<g id="edge15_Node000001_Node000007" class="edge">
<title>Node1&#45;&gt;Node7</title>
<g id="a_edge15_Node000001_Node000007"><a xlink:title=" ">
<path fill="none" stroke="#63b8ff" d="M86.33,-169.05C146.14,-183.21 258.06,-209.71 320.99,-224.61"/>
<polygon fill="#63b8ff" stroke="#63b8ff" points="320.49,-228.09 331.03,-226.98 322.11,-221.27 320.49,-228.09"/>
</a>
</g>
</g>
<!-- Node8 -->
<g id="Node000008" class="node">
<title>Node8</title>
<g id="a_Node000008"><a xlink:href="command_8c.html#ac090b79f5dfeeaa73978dc9df75fe1a0" target="_top" xlink:title=" ">
<polygon fill="white" stroke="#666666" points="265,-93 126,-93 126,-74 265,-74 265,-93"/>
<text text-anchor="middle" x="195.5" y="-81" font-family="Helvetica,sans-Serif" font-size="10.00">receive_command_bytes</text>
</a>
</g>
</g>
<!-- Node1&#45;&gt;Node8 -->
<g id="edge16_Node000001_Node000008" class="edge">
<title>Node1&#45;&gt;Node8</title>
<g id="a_edge16_Node000001_Node000008"><a xlink:title=" ">
<path fill="none" stroke="#63b8ff" d="M58.73,-149.84C74.06,-138.55 100.87,-119.85 126,-107.5 134.39,-103.38 143.67,-99.63 152.61,-96.39"/>
<polygon fill="#63b8ff" stroke="#63b8ff" points="153.84,-99.66 162.14,-93.07 151.54,-93.05 153.84,-99.66"/>
</a>
</g>
</g>
<!-- Node10 -->
<g id="Node000010" class="node">
<title>Node10</title>
<g id="a_Node000010"><a xlink:href="telemetry_8c.html#a6dbf6c6cfd75451e5642ca0b64bf7f5a" target="_top" xlink:title=" ">
<polygon fill="white" stroke="#666666" points="242,-56 149,-56 149,-37 242,-37 242,-56"/>
<text text-anchor="middle" x="195.5" y="-44" font-family="Helvetica,sans-Serif" font-size="10.00">send_telemetry</text>
</a>
</g>
</g>
<!-- Node1&#45;&gt;Node10 -->
<g id="edge18_Node000001_Node000010" class="edge">
<title>Node1&#45;&gt;Node10</title>
<g id="a_edge18_Node000001_Node000010"><a xlink:title=" ">
<path fill="none" stroke="#63b8ff" d="M51.41,-149.72C62.65,-130.33 90.46,-86.97 126,-64.5 130.07,-61.92 134.5,-59.72 139.09,-57.82"/>
<polygon fill="#63b8ff" stroke="#63b8ff" points="140.44,-61.06 148.65,-54.36 138.05,-54.47 140.44,-61.06"/>
</a>
</g>
</g>
<!-- Node11 -->
<g id="Node000011" class="node">
<title>Node11</title>
<g id="a_Node000011"><a xlink:href="group__Radio.html#ga74c252dc0de25701a447a67c039e9804" target="_top" xlink:title=" ">
<polygon fill="white" stroke="#666666" points="247.5,-19 143.5,-19 143.5,0 247.5,0 247.5,-19"/>
<text text-anchor="middle" x="195.5" y="-7" font-family="Helvetica,sans-Serif" font-size="10.00">set_power_output</text>
</a>
</g>
</g>
<!-- Node1&#45;&gt;Node11 -->
<g id="edge19_Node000001_Node000011" class="edge">
<title>Node1&#45;&gt;Node11</title>
<g id="a_edge19_Node000001_Node000011"><a xlink:title=" ">
<path fill="none" stroke="#63b8ff" d="M49.02,-149.78C57.16,-125.24 81.99,-60.37 126,-27.5 128.53,-25.61 131.24,-23.92 134.07,-22.41"/>
<polygon fill="#63b8ff" stroke="#63b8ff" points="135.79,-25.47 143.44,-18.15 132.89,-19.1 135.79,-25.47"/>
</a>
</g>
</g>
<!-- Node2&#45;&gt;Node3 -->
<g id="edge2_Node000002_Node000003" class="edge">
<title>Node2&#45;&gt;Node3</title>
<g id="a_edge2_Node000002_Node000003"><a xlink:title=" ">
<path fill="none" stroke="#63b8ff" d="M217.34,-264.09C238.17,-273.38 271.28,-287.36 301,-296.5 359.81,-314.58 428.42,-328.93 477.79,-338.11"/>
<polygon fill="#63b8ff" stroke="#63b8ff" points="477.25,-341.57 487.71,-339.93 478.51,-334.68 477.25,-341.57"/>
</a>
</g>
</g>
<!-- Node2&#45;&gt;Node4 -->
<g id="edge3_Node000002_Node000004" class="edge">
<title>Node2&#45;&gt;Node4</title>
<g id="a_edge3_Node000002_Node000004"><a xlink:title=" ">
<path fill="none" stroke="#63b8ff" d="M218.44,-244.85C239.26,-236.15 271.64,-223.79 301,-217.5 357.92,-205.3 423.79,-200.43 472.66,-198.54"/>
<polygon fill="#63b8ff" stroke="#63b8ff" points="472.95,-202.04 482.82,-198.18 472.7,-195.04 472.95,-202.04"/>
</a>
</g>
</g>
<!-- Node2&#45;&gt;Node5 -->
<g id="edge4_Node000002_Node000005" class="edge">
<title>Node2&#45;&gt;Node5</title>
<g id="a_edge4_Node000002_Node000005"><a xlink:title=" ">
<path fill="none" stroke="#63b8ff" d="M226.77,-259.46C282.09,-268.52 400.73,-287.95 476.35,-300.34"/>
<polygon fill="#63b8ff" stroke="#63b8ff" points="475.83,-303.8 486.27,-301.96 476.96,-296.89 475.83,-303.8"/>
</a>
</g>
</g>
<!-- Node2&#45;&gt;Node6 -->
<g id="edge5_Node000002_Node000006" class="edge">
<title>Node2&#45;&gt;Node6</title>
<g id="a_edge5_Node000002_Node000006"><a xlink:title=" ">
<path fill="none" stroke="#63b8ff" d="M226.69,-256.16C272.02,-258.27 360.33,-260.93 435,-254.5 453,-252.95 472.48,-249.99 489.95,-246.86"/>
<polygon fill="#63b8ff" stroke="#63b8ff" points="490.78,-250.27 499.97,-245.01 489.51,-243.39 490.78,-250.27"/>
</a>
</g>
</g>
<!-- Node2&#45;&gt;Node7 -->
<g id="edge6_Node000002_Node000007" class="edge">
<title>Node2&#45;&gt;Node7</title>
<g id="a_edge6_Node000002_Node000007"><a xlink:title=" ">
<path fill="none" stroke="#63b8ff" d="M226.59,-251.15C252.76,-248.23 291.08,-243.96 321.08,-240.62"/>
<polygon fill="#63b8ff" stroke="#63b8ff" points="321.76,-244.06 331.31,-239.48 320.98,-237.11 321.76,-244.06"/>
</a>
</g>
</g>
<!-- Node7&#45;&gt;Node3 -->
<g id="edge7_Node000007_Node000003" class="edge">
<title>Node7&#45;&gt;Node3</title>
<g id="a_edge7_Node000007_Node000003"><a xlink:title=" ">
<path fill="none" stroke="#63b8ff" d="M376.57,-245.25C392.1,-264.57 429.62,-307.82 471,-330.5 475.19,-332.79 479.66,-334.82 484.25,-336.61"/>
<polygon fill="#63b8ff" stroke="#63b8ff" points="483.21,-339.95 493.8,-339.95 485.52,-333.34 483.21,-339.95"/>
</a>
</g>
</g>
<!-- Node7&#45;&gt;Node4 -->
<g id="edge8_Node000007_Node000004" class="edge">
<title>Node7&#45;&gt;Node4</title>
<g id="a_edge8_Node000007_Node000004"><a xlink:title=" ">
<path fill="none" stroke="#63b8ff" d="M404.52,-227.81C429.14,-222.48 462.38,-215.28 490.3,-209.24"/>
<polygon fill="#63b8ff" stroke="#63b8ff" points="491.28,-212.6 500.31,-207.07 489.8,-205.76 491.28,-212.6"/>
</a>
</g>
</g>
<!-- Node7&#45;&gt;Node5 -->
<g id="edge9_Node000007_Node000005" class="edge">
<title>Node7&#45;&gt;Node5</title>
<g id="a_edge9_Node000007_Node000005"><a xlink:title=" ">
<path fill="none" stroke="#63b8ff" d="M391.23,-245.13C422.08,-258.49 478.06,-282.73 513.15,-297.92"/>
<polygon fill="#63b8ff" stroke="#63b8ff" points="511.89,-301.19 522.45,-301.95 514.67,-294.77 511.89,-301.19"/>
</a>
</g>
</g>
<!-- Node7&#45;&gt;Node6 -->
<g id="edge10_Node000007_Node000006" class="edge">
<title>Node7&#45;&gt;Node6</title>
<g id="a_edge10_Node000007_Node000006"><a xlink:title=" ">
<path fill="none" stroke="#63b8ff" d="M404.52,-235.5C420.88,-235.5 441.06,-235.5 460.95,-235.5"/>
<polygon fill="#63b8ff" stroke="#63b8ff" points="460.98,-239 470.98,-235.5 460.98,-232 460.98,-239"/>
</a>
</g>
</g>
<!-- Node9 -->
<g id="Node000009" class="node">
<title>Node9</title>
<g id="a_Node000009"><a xlink:href="command_8c.html#a4f5fb387e54e9f86c0201fff500341a7" target="_top" xlink:title=" ">
<polygon fill="white" stroke="#666666" points="435,-93 301,-93 301,-74 435,-74 435,-93"/>
<text text-anchor="middle" x="368" y="-81" font-family="Helvetica,sans-Serif" font-size="10.00">receive_command_byte</text>
</a>
</g>
</g>
<!-- Node8&#45;&gt;Node9 -->
<g id="edge17_Node000008_Node000009" class="edge">
<title>Node8&#45;&gt;Node9</title>
<g id="a_edge17_Node000008_Node000009"><a xlink:title=" ">
<path fill="none" stroke="#63b8ff" d="M265.36,-83.5C273.7,-83.5 282.26,-83.5 290.71,-83.5"/>
<polygon fill="#63b8ff" stroke="#63b8ff" points="290.93,-87 300.93,-83.5 290.93,-80 290.93,-87"/>
</a>
</g>
</g>
</g>
</svg>
