<?xml version="1.0" encoding="UTF-8" standalone="no"?>
<!DOCTYPE svg PUBLIC "-//W3C//DTD SVG 1.1//EN"
 "http://www.w3.org/Graphics/SVG/1.1/DTD/svg11.dtd">
<!-- Generated by graphviz version 2.43.0 (0)
 -->
<!-- Title: init_radio Pages: 1 -->
<svg width="364pt" height="163pt"
 viewBox="0.00 0.00 364.00 163.00" xmlns="http://www.w3.org/2000/svg" xmlns:xlink="http://www.w3.org/1999/xlink">

<svg id="main" version="1.1" xmlns="http://www.w3.org/2000/svg" xmlns:xlink="http://www.w3.org/1999/xlink" xml:space="preserve">

<style type="text/css"><![CDATA[
.node, .edge {opacity: 0.7;}
.node.selected, .edge.selected {opacity: 1;}
.edge:hover path { stroke: red; }
.edge:hover polygon { stroke: red; fill: red; }
]]></style>
<script type="application/ecmascript" xlink:href="svg.min.js"/>
<svg id="graph" class="graph">
<g id="graph0" class="graph" transform="scale(1 1) rotate(0) translate(4 159)">
<title>init_radio</title>
<!-- Node1 -->
<g id="Node000001" class="node">
<title>Node1</title>
<g id="a_Node000001"><a xlink:title="Initializes necessary peripherals/settings for the radio task.">
<polygon fill="#999999" stroke="#666666" points="62,-89 0,-89 0,-70 62,-70 62,-89"/>
<text text-anchor="middle" x="31" y="-77" font-family="Helvetica,sans-Serif" font-size="10.00">init_radio</text>
</a>
</g>
</g>
<!-- Node2 -->
<g id="Node000002" class="node">
<title>Node2</title>
<g id="a_Node000002"><a xlink:href="group__Radio.html#gae7b8fc4ccc09bb7acd7b803ecad3caca" target="_top" xlink:title=" ">
<polygon fill="white" stroke="#666666" points="351,-155 212,-155 212,-136 351,-136 351,-155"/>
<text text-anchor="middle" x="281.5" y="-143" font-family="Helvetica,sans-Serif" font-size="10.00">radio_cad_detected_RFM</text>
</a>
</g>
</g>
<!-- Node1&#45;&gt;Node2 -->
<g id="edge1_Node000001_Node000002" class="edge">
<title>Node1&#45;&gt;Node2</title>
<g id="a_edge1_Node000001_Node000002"><a xlink:title=" ">
<path fill="none" stroke="#63b8ff" d="M47.41,-89.14C60.43,-96.86 79.8,-107.37 98,-113.5 131.15,-124.66 169.07,-132.11 201.73,-136.99"/>
<polygon fill="#63b8ff" stroke="#63b8ff" points="201.29,-140.46 211.68,-138.43 202.28,-133.54 201.29,-140.46"/>
</a>
</g>
</g>
<!-- Node3 -->
<g id="Node000003" class="node">
<title>Node3</title>
<g id="a_Node000003"><a xlink:href="group__Radio.html#ga9cc461d365bd6aa5037aa79b50a4ab70" target="_top" xlink:title=" ">
<polygon fill="white" stroke="#666666" points="344,-99 219,-99 219,-80 344,-80 344,-99"/>
<text text-anchor="middle" x="281.5" y="-87" font-family="Helvetica,sans-Serif" font-size="10.00">radio_general_flag_SX</text>
</a>
</g>
</g>
<!-- Node1&#45;&gt;Node3 -->
<g id="edge2_Node000001_Node000003" class="edge">
<title>Node1&#45;&gt;Node3</title>
<g id="a_edge2_Node000001_Node000003"><a xlink:title=" ">
<path fill="none" stroke="#63b8ff" d="M58.6,-89C70.49,-92.76 84.78,-96.63 98,-98.5 134.3,-103.62 175.01,-102.28 208.75,-99.28"/>
<polygon fill="#63b8ff" stroke="#63b8ff" points="209.37,-102.74 218.99,-98.3 208.7,-95.77 209.37,-102.74"/>
</a>
</g>
</g>
<!-- Node4 -->
<g id="Node000004" class="node">
<title>Node4</title>
<g id="a_Node000004"><a xlink:href="group__Radio.html#gabb38d1447d7bbd825a1514d39e9889f3" target="_top" xlink:title="Handle hardware switches between radios.">
<polygon fill="white" stroke="#666666" points="353.5,-56 209.5,-56 209.5,-37 353.5,-37 353.5,-56"/>
<text text-anchor="middle" x="281.5" y="-44" font-family="Helvetica,sans-Serif" font-size="10.00">radio_hardware_switch_to</text>
</a>
</g>
</g>
<!-- Node1&#45;&gt;Node4 -->
<g id="edge3_Node000001_Node000004" class="edge">
<title>Node1&#45;&gt;Node4</title>
<g id="a_edge3_Node000001_Node000004"><a xlink:title=" ">
<path fill="none" stroke="#63b8ff" d="M62.29,-69.98C73.42,-66.82 86.19,-63.58 98,-61.5 130.91,-55.71 167.57,-52.15 199.35,-49.96"/>
<polygon fill="#63b8ff" stroke="#63b8ff" points="199.73,-53.44 209.48,-49.29 199.27,-46.45 199.73,-53.44"/>
</a>
</g>
</g>
<!-- Node5 -->
<g id="Node000005" class="node">
<title>Node5</title>
<g id="a_Node000005"><a xlink:href="group__Radio.html#ga69267b1b554b36d584cbc4322534266f" target="_top" xlink:title=" ">
<polygon fill="white" stroke="#666666" points="356,-19 207,-19 207,0 356,0 356,-19"/>
<text text-anchor="middle" x="281.5" y="-7" font-family="Helvetica,sans-Serif" font-size="10.00">radio_operation_done_RFM</text>
</a>
</g>
</g>
<!-- Node1&#45;&gt;Node5 -->
<g id="edge4_Node000001_Node000005" class="edge">
<title>Node1&#45;&gt;Node5</title>
<g id="a_edge4_Node000001_Node000005"><a xlink:title=" ">
<path fill="none" stroke="#63b8ff" d="M48.88,-69.88C61.93,-62.8 80.64,-53.41 98,-47.5 132.43,-35.77 171.79,-27.02 205.13,-20.89"/>
<polygon fill="#63b8ff" stroke="#63b8ff" points="206.05,-24.28 215.27,-19.07 204.81,-17.39 206.05,-24.28"/>
</a>
</g>
</g>
<!-- Node6 -->
<g id="Node000006" class="node">
<title>Node6</title>
<g id="a_Node000006"><a xlink:href="group__Radio.html#ga39fef0e9987217c6be69bcc9ca1af791" target="_top" xlink:title=" ">
<polygon fill="white" stroke="#666666" points="171,-89 98,-89 98,-70 171,-70 171,-89"/>
<text text-anchor="middle" x="134.5" y="-77" font-family="Helvetica,sans-Serif" font-size="10.00">radio_panic</text>
</a>
</g>
</g>
<!-- Node1&#45;&gt;Node6 -->
<g id="edge5_Node000001_Node000006" class="edge">
<title>Node1&#45;&gt;Node6</title>
<g id="a_edge5_Node000001_Node000006"><a xlink:title=" ">
<path fill="none" stroke="#63b8ff" d="M62.18,-79.5C70.24,-79.5 79.14,-79.5 87.84,-79.5"/>
<polygon fill="#63b8ff" stroke="#63b8ff" points="87.89,-83 97.89,-79.5 87.89,-76 87.89,-83"/>
</a>
</g>
</g>
<!-- Node6&#45;&gt;Node2 -->
<g id="edge6_Node000006_Node000002" class="edge">
<title>Node6&#45;&gt;Node2</title>
<g id="a_edge6_Node000006_Node000002"><a xlink:title=" ">
<path fill="none" stroke="#63b8ff" d="M156.58,-89.1C181.18,-100.29 222.03,-118.88 250.06,-131.64"/>
<polygon fill="#63b8ff" stroke="#63b8ff" points="248.84,-134.93 259.39,-135.89 251.74,-128.56 248.84,-134.93"/>
</a>
</g>
</g>
<!-- Node6&#45;&gt;Node3 -->
<g id="edge7_Node000006_Node000003" class="edge">
<title>Node6&#45;&gt;Node3</title>
<g id="a_edge7_Node000006_Node000003"><a xlink:title=" ">
<path fill="none" stroke="#63b8ff" d="M171.34,-81.97C182.66,-82.75 195.59,-83.64 208.5,-84.53"/>
<polygon fill="#63b8ff" stroke="#63b8ff" points="208.6,-88.05 218.82,-85.25 209.09,-81.07 208.6,-88.05"/>
</a>
</g>
</g>
<!-- Node6&#45;&gt;Node4 -->
<g id="edge8_Node000006_Node000004" class="edge">
<title>Node6&#45;&gt;Node4</title>
<g id="a_edge8_Node000006_Node000004"><a xlink:title=" ">
<path fill="none" stroke="#63b8ff" d="M171.34,-71.34C188.62,-67.41 209.66,-62.62 228.64,-58.3"/>
<polygon fill="#63b8ff" stroke="#63b8ff" points="229.67,-61.66 238.64,-56.03 228.12,-54.83 229.67,-61.66"/>
</a>
</g>
</g>
<!-- Node6&#45;&gt;Node5 -->
<g id="edge9_Node000006_Node000005" class="edge">
<title>Node6&#45;&gt;Node5</title>
<g id="a_edge9_Node000006_Node000005"><a xlink:title=" ">
<path fill="none" stroke="#63b8ff" d="M145.81,-69.97C159.01,-58.27 183.05,-38.61 207,-27.5 211.32,-25.5 215.88,-23.7 220.54,-22.09"/>
<polygon fill="#63b8ff" stroke="#63b8ff" points="221.7,-25.4 230.18,-19.05 219.59,-18.72 221.7,-25.4"/>
</a>
</g>
</g>
</g>
</svg>
</svg>

<style type='text/css'>
<![CDATA[
[data-mouse-over-selected='false'] { opacity: 0.7; }
[data-mouse-over-selected='true']  { opacity: 1.0; }
]]>
</style>
<script type="application/ecmascript"><![CDATA[
document.addEventListener('DOMContentLoaded', (event) => {
  highlightEdges();
  highlightAdjacentNodes();
});
]]></script>
</svg>
