<?xml version="1.0" encoding="UTF-8" standalone="no"?>
<!DOCTYPE svg PUBLIC "-//W3C//DTD SVG 1.1//EN"
 "http://www.w3.org/Graphics/SVG/1.1/DTD/svg11.dtd">
<!-- Generated by graphviz version 2.43.0 (0)
 -->
<!-- Title: init_radio Pages: 1 -->
<svg width="739pt" height="360pt"
 viewBox="0.00 0.00 739.00 359.52" xmlns="http://www.w3.org/2000/svg" xmlns:xlink="http://www.w3.org/1999/xlink">
<g id="graph0" class="graph" transform="scale(1 1) rotate(0) translate(4 355.52)">
<title>init_radio</title>
<!-- Node1 -->
<g id="Node000001" class="node">
<title>Node1</title>
<g id="a_Node000001"><a xlink:title="Initializes necessary peripherals/settings for the radio task.">
<polygon fill="#999999" stroke="#666666" points="62,-185 0,-185 0,-166 62,-166 62,-185"/>
<text text-anchor="middle" x="31" y="-173" font-family="Helvetica,sans-Serif" font-size="10.00">init_radio</text>
</a>
</g>
</g>
<!-- Node2 -->
<g id="Node000002" class="node">
<title>Node2</title>
<g id="a_Node000002"><a xlink:href="filesystem_8c.html#a07610d3a6787ca02aa3d340759bcb8c9" target="_top" xlink:title=" ">
<polygon fill="white" stroke="#666666" points="493,-260 426,-260 426,-241 493,-241 493,-260"/>
<text text-anchor="middle" x="459.5" y="-248" font-family="Helvetica,sans-Serif" font-size="10.00">file_exists</text>
</a>
</g>
</g>
<!-- Node1&#45;&gt;Node2 -->
<g id="edge1_Node000001_Node000002" class="edge">
<title>Node1&#45;&gt;Node2</title>
<g id="a_edge1_Node000001_Node000002"><a xlink:title=" ">
<path fill="none" stroke="#63b8ff" d="M32.8,-185.06C35.69,-212.59 48.2,-292.09 98,-324.5 208.56,-396.45 375.26,-304.22 435.64,-265.83"/>
<polygon fill="#63b8ff" stroke="#63b8ff" points="437.9,-268.53 444.39,-260.16 434.1,-262.66 437.9,-268.53"/>
</a>
</g>
</g>
<!-- Node5 -->
<g id="Node000005" class="node">
<title>Node5</title>
<g id="a_Node000005"><a xlink:href="group__Radio.html#ga3b310022c5395a420f9a4d65a3950d60" target="_top" xlink:title="Get the radio last received time with mutex protection.">
<polygon fill="white" stroke="#666666" points="259,-315 98,-315 98,-296 259,-296 259,-315"/>
<text text-anchor="middle" x="178.5" y="-303" font-family="Helvetica,sans-Serif" font-size="10.00">get_radio_last_received_time</text>
</a>
</g>
</g>
<!-- Node1&#45;&gt;Node5 -->
<g id="edge4_Node000001_Node000005" class="edge">
<title>Node1&#45;&gt;Node5</title>
<g id="a_edge4_Node000001_Node000005"><a xlink:title=" ">
<path fill="none" stroke="#63b8ff" d="M34.76,-185.08C41.57,-206.96 61.36,-260.76 98,-287.5 99.9,-288.89 101.9,-290.17 103.96,-291.36"/>
<polygon fill="#63b8ff" stroke="#63b8ff" points="102.86,-294.72 113.38,-295.98 105.94,-288.43 102.86,-294.72"/>
</a>
</g>
</g>
<!-- Node6 -->
<g id="Node000006" class="node">
<title>Node6</title>
<g id="a_Node000006"><a xlink:href="group__Radio.html#gae7b8fc4ccc09bb7acd7b803ecad3caca" target="_top" xlink:title=" ">
<polygon fill="white" stroke="#666666" points="248,-278 109,-278 109,-259 248,-259 248,-278"/>
<text text-anchor="middle" x="178.5" y="-266" font-family="Helvetica,sans-Serif" font-size="10.00">radio_cad_detected_RFM</text>
</a>
</g>
</g>
<!-- Node1&#45;&gt;Node6 -->
<g id="edge5_Node000001_Node000006" class="edge">
<title>Node1&#45;&gt;Node6</title>
<g id="a_edge5_Node000001_Node000006"><a xlink:title=" ">
<path fill="none" stroke="#63b8ff" d="M37.56,-185.04C47.51,-201.21 69.96,-233.85 98,-250.5 100.86,-252.2 103.86,-253.74 106.96,-255.13"/>
<polygon fill="#63b8ff" stroke="#63b8ff" points="105.9,-258.47 116.49,-258.89 108.47,-251.96 105.9,-258.47"/>
</a>
</g>
</g>
<!-- Node7 -->
<g id="Node000007" class="node">
<title>Node7</title>
<g id="a_Node000007"><a xlink:href="group__Radio.html#ga9cc461d365bd6aa5037aa79b50a4ab70" target="_top" xlink:title=" ">
<polygon fill="white" stroke="#666666" points="241,-241 116,-241 116,-222 241,-222 241,-241"/>
<text text-anchor="middle" x="178.5" y="-229" font-family="Helvetica,sans-Serif" font-size="10.00">radio_general_flag_SX</text>
</a>
</g>
</g>
<!-- Node1&#45;&gt;Node7 -->
<g id="edge6_Node000001_Node000007" class="edge">
<title>Node1&#45;&gt;Node7</title>
<g id="a_edge6_Node000001_Node000007"><a xlink:title=" ">
<path fill="none" stroke="#63b8ff" d="M45.8,-185.09C58.74,-193.68 78.91,-206.04 98,-213.5 103.49,-215.64 109.29,-217.57 115.17,-219.29"/>
<polygon fill="#63b8ff" stroke="#63b8ff" points="114.51,-222.73 125.08,-221.98 116.35,-215.98 114.51,-222.73"/>
</a>
</g>
</g>
<!-- Node8 -->
<g id="Node000008" class="node">
<title>Node8</title>
<g id="a_Node000008"><a xlink:href="group__Radio.html#gabb38d1447d7bbd825a1514d39e9889f3" target="_top" xlink:title="Handle hardware switches between radios.">
<polygon fill="white" stroke="#666666" points="250.5,-204 106.5,-204 106.5,-185 250.5,-185 250.5,-204"/>
<text text-anchor="middle" x="178.5" y="-192" font-family="Helvetica,sans-Serif" font-size="10.00">radio_hardware_switch_to</text>
</a>
</g>
</g>
<!-- Node1&#45;&gt;Node8 -->
<g id="edge7_Node000001_Node000008" class="edge">
<title>Node1&#45;&gt;Node8</title>
<g id="a_edge7_Node000001_Node000008"><a xlink:title=" ">
<path fill="none" stroke="#63b8ff" d="M62.15,-179.44C72.23,-180.75 83.99,-182.29 96.08,-183.87"/>
<polygon fill="#63b8ff" stroke="#63b8ff" points="95.91,-187.38 106.28,-185.2 96.82,-180.43 95.91,-187.38"/>
</a>
</g>
</g>
<!-- Node9 -->
<g id="Node000009" class="node">
<title>Node9</title>
<g id="a_Node000009"><a xlink:href="group__Radio.html#ga69267b1b554b36d584cbc4322534266f" target="_top" xlink:title=" ">
<polygon fill="white" stroke="#666666" points="253,-167 104,-167 104,-148 253,-148 253,-167"/>
<text text-anchor="middle" x="178.5" y="-155" font-family="Helvetica,sans-Serif" font-size="10.00">radio_operation_done_RFM</text>
</a>
</g>
</g>
<!-- Node1&#45;&gt;Node9 -->
<g id="edge8_Node000001_Node000009" class="edge">
<title>Node1&#45;&gt;Node9</title>
<g id="a_edge8_Node000001_Node000009"><a xlink:title=" ">
<path fill="none" stroke="#63b8ff" d="M62.15,-171.77C71.61,-170.6 82.56,-169.25 93.87,-167.85"/>
<polygon fill="#63b8ff" stroke="#63b8ff" points="94.37,-171.31 103.87,-166.61 93.52,-164.36 94.37,-171.31"/>
</a>
</g>
</g>
<!-- Node10 -->
<g id="Node000010" class="node">
<title>Node10</title>
<g id="a_Node000010"><a xlink:href="filesystem_8c.html#ab92b1f0beb3be903677f3293d0430b62" target="_top" xlink:title=" ">
<polygon fill="white" stroke="#666666" points="208,-130 149,-130 149,-111 208,-111 208,-130"/>
<text text-anchor="middle" x="178.5" y="-118" font-family="Helvetica,sans-Serif" font-size="10.00">read_file</text>
</a>
</g>
</g>
<!-- Node1&#45;&gt;Node10 -->
<g id="edge9_Node000001_Node000010" class="edge">
<title>Node1&#45;&gt;Node10</title>
<g id="a_edge9_Node000001_Node000010"><a xlink:title=" ">
<path fill="none" stroke="#63b8ff" d="M46.92,-165.87C59.95,-157.83 79.6,-146.57 98,-139.5 111.09,-134.47 125.92,-130.49 139.19,-127.5"/>
<polygon fill="#63b8ff" stroke="#63b8ff" points="139.94,-130.92 148.99,-125.41 138.48,-124.08 139.94,-130.92"/>
</a>
</g>
</g>
<!-- Node12 -->
<g id="Node000012" class="node">
<title>Node12</title>
<g id="a_Node000012"><a xlink:href="group__Radio.html#ga11abd7a01d0c8cbbc256e93bb0ed75e4" target="_top" xlink:title="Set the radio last received time with mutex protection.">
<polygon fill="white" stroke="#666666" points="258.5,-93 98.5,-93 98.5,-74 258.5,-74 258.5,-93"/>
<text text-anchor="middle" x="178.5" y="-81" font-family="Helvetica,sans-Serif" font-size="10.00">set_radio_last_received_time</text>
</a>
</g>
</g>
<!-- Node1&#45;&gt;Node12 -->
<g id="edge13_Node000001_Node000012" class="edge">
<title>Node1&#45;&gt;Node12</title>
<g id="a_edge13_Node000001_Node000012"><a xlink:title=" ">
<path fill="none" stroke="#63b8ff" d="M37.97,-165.75C48.21,-149.9 70.66,-118.71 98,-102.5 101.71,-100.3 105.65,-98.36 109.73,-96.64"/>
<polygon fill="#63b8ff" stroke="#63b8ff" points="111.29,-99.79 119.43,-93.02 108.84,-93.24 111.29,-99.79"/>
</a>
</g>
</g>
<!-- Node13 -->
<g id="Node000013" class="node">
<title>Node13</title>
<g id="a_Node000013"><a xlink:href="timing_8c.html#a0fcff89befd0e9d8e5284516631a96b1" target="_top" xlink:title=" ">
<polygon fill="white" stroke="#666666" points="215.5,-56 141.5,-56 141.5,-37 215.5,-37 215.5,-56"/>
<text text-anchor="middle" x="178.5" y="-44" font-family="Helvetica,sans-Serif" font-size="10.00">timing_now</text>
</a>
</g>
</g>
<!-- Node1&#45;&gt;Node13 -->
<g id="edge14_Node000001_Node000013" class="edge">
<title>Node1&#45;&gt;Node13</title>
<g id="a_edge14_Node000001_Node000013"><a xlink:title=" ">
<path fill="none" stroke="#63b8ff" d="M34.78,-166C41.65,-144.31 61.55,-91 98,-64.5 107.65,-57.49 119.57,-53.14 131.21,-50.46"/>
<polygon fill="#63b8ff" stroke="#63b8ff" points="132.15,-53.85 141.31,-48.52 130.83,-46.97 132.15,-53.85"/>
</a>
</g>
</g>
<!-- Node15 -->
<g id="Node000015" class="node">
<title>Node15</title>
<g id="a_Node000015"><a xlink:href="filesystem_8c.html#a8e5a51c709e9d6229c1974435475292a" target="_top" xlink:title=" ">
<polygon fill="white" stroke="#666666" points="209.5,-19 147.5,-19 147.5,0 209.5,0 209.5,-19"/>
<text text-anchor="middle" x="178.5" y="-7" font-family="Helvetica,sans-Serif" font-size="10.00">write_file</text>
</a>
</g>
</g>
<!-- Node1&#45;&gt;Node15 -->
<g id="edge16_Node000001_Node000015" class="edge">
<title>Node1&#45;&gt;Node15</title>
<g id="a_edge16_Node000001_Node000015"><a xlink:title=" ">
<path fill="none" stroke="#63b8ff" d="M33.32,-165.76C37.46,-139.12 52.76,-64.61 98,-27.5 108.99,-18.49 123.58,-13.78 137.27,-11.38"/>
<polygon fill="#63b8ff" stroke="#63b8ff" points="138.06,-14.8 147.48,-9.96 137.1,-7.87 138.06,-14.8"/>
</a>
</g>
</g>
<!-- Node3 -->
<g id="Node000003" class="node">
<title>Node3</title>
<g id="a_Node000003"><a xlink:href="filesystem_8c.html#aa109ff29a72d1beadda58bb3a54185b6" target="_top" xlink:title=" ">
<polygon fill="white" stroke="#666666" points="564,-260 529,-260 529,-241 564,-241 564,-260"/>
<text text-anchor="middle" x="546.5" y="-248" font-family="Helvetica,sans-Serif" font-size="10.00">stat</text>
</a>
</g>
</g>
<!-- Node2&#45;&gt;Node3 -->
<g id="edge2_Node000002_Node000003" class="edge">
<title>Node2&#45;&gt;Node3</title>
<g id="a_edge2_Node000002_Node000003"><a xlink:title=" ">
<path fill="none" stroke="#63b8ff" d="M493.12,-250.5C501.58,-250.5 510.6,-250.5 518.73,-250.5"/>
<polygon fill="#63b8ff" stroke="#63b8ff" points="518.77,-254 528.77,-250.5 518.77,-247 518.77,-254"/>
</a>
</g>
</g>
<!-- Node4 -->
<g id="Node000004" class="node">
<title>Node4</title>
<g id="a_Node000004"><a xlink:href="utilities_2src_2log_8c.html#a4b048be24c6c7f622a6bc6c6bf8ac435" target="_top" xlink:title=" ">
<polygon fill="white" stroke="#666666" points="731,-241 600,-241 600,-222 731,-222 731,-241"/>
<text text-anchor="middle" x="665.5" y="-229" font-family="Helvetica,sans-Serif" font-size="10.00">get_current_task_name</text>
</a>
</g>
</g>
<!-- Node3&#45;&gt;Node4 -->
<g id="edge3_Node000003_Node000004" class="edge">
<title>Node3&#45;&gt;Node4</title>
<g id="a_edge3_Node000003_Node000004"><a xlink:title=" ">
<path fill="none" stroke="#63b8ff" d="M564.02,-247.82C572.68,-246.41 583.93,-244.58 595.77,-242.66"/>
<polygon fill="#63b8ff" stroke="#63b8ff" points="596.49,-246.09 605.8,-241.03 595.36,-239.18 596.49,-246.09"/>
</a>
</g>
</g>
<!-- Node11 -->
<g id="Node000011" class="node">
<title>Node11</title>
<g id="a_Node000011"><a xlink:href="filesystem_8c.html#ae0599d66eddc7fdf656fca874aa5f1d1" target="_top" xlink:title=" ">
<polygon fill="white" stroke="#666666" points="389,-222 296,-222 296,-203 389,-203 389,-222"/>
<text text-anchor="middle" x="342.5" y="-210" font-family="Helvetica,sans-Serif" font-size="10.00">read_file_offset</text>
</a>
</g>
</g>
<!-- Node10&#45;&gt;Node11 -->
<g id="edge10_Node000010_Node000011" class="edge">
<title>Node10&#45;&gt;Node11</title>
<g id="a_edge10_Node000010_Node000011"><a xlink:title=" ">
<path fill="none" stroke="#63b8ff" d="M208.28,-123.91C223.94,-126.6 243.26,-131.32 259,-139.5 286.12,-153.6 311.54,-178.55 326.81,-195.31"/>
<polygon fill="#63b8ff" stroke="#63b8ff" points="324.19,-197.64 333.45,-202.79 329.43,-192.99 324.19,-197.64"/>
</a>
</g>
</g>
<!-- Node11&#45;&gt;Node2 -->
<g id="edge11_Node000011_Node000002" class="edge">
<title>Node11&#45;&gt;Node2</title>
<g id="a_edge11_Node000011_Node000002"><a xlink:title=" ">
<path fill="none" stroke="#63b8ff" d="M372.52,-222.09C386.82,-226.81 404.26,-232.58 419.69,-237.68"/>
<polygon fill="#63b8ff" stroke="#63b8ff" points="418.9,-241.1 429.49,-240.91 421.09,-234.45 418.9,-241.1"/>
</a>
</g>
</g>
<!-- Node11&#45;&gt;Node4 -->
<g id="edge12_Node000011_Node000004" class="edge">
<title>Node11&#45;&gt;Node4</title>
<g id="a_edge12_Node000011_Node000004"><a xlink:title=" ">
<path fill="none" stroke="#63b8ff" d="M389.15,-215.2C441.37,-218.29 527.66,-223.4 589.73,-227.07"/>
<polygon fill="#63b8ff" stroke="#63b8ff" points="589.67,-230.58 599.86,-227.67 590.09,-223.59 589.67,-230.58"/>
</a>
</g>
</g>
<!-- Node14 -->
<g id="Node000014" class="node">
<title>Node14</title>
<g id="a_Node000014"><a xlink:href="timing_8c.html#a8a218128fb890d92682a233464ee5cdb" target="_top" xlink:title=" ">
<polygon fill="white" stroke="#666666" points="390,-56 295,-56 295,-37 390,-37 390,-56"/>
<text text-anchor="middle" x="342.5" y="-44" font-family="Helvetica,sans-Serif" font-size="10.00">get_epoch_time</text>
</a>
</g>
</g>
<!-- Node13&#45;&gt;Node14 -->
<g id="edge15_Node000013_Node000014" class="edge">
<title>Node13&#45;&gt;Node14</title>
<g id="a_edge15_Node000013_Node000014"><a xlink:title=" ">
<path fill="none" stroke="#63b8ff" d="M215.86,-46.5C236.08,-46.5 261.7,-46.5 284.53,-46.5"/>
<polygon fill="#63b8ff" stroke="#63b8ff" points="284.79,-50 294.79,-46.5 284.79,-43 284.79,-50"/>
</a>
</g>
</g>
</g>
</svg>
