<?xml version="1.0" encoding="UTF-8" standalone="no"?>
<!DOCTYPE svg PUBLIC "-//W3C//DTD SVG 1.1//EN"
 "http://www.w3.org/Graphics/SVG/1.1/DTD/svg11.dtd">
<!-- Generated by graphviz version 2.43.0 (0)
 -->
<!-- Title: radio_task Pages: 1 -->
<svg width="1045pt" height="550pt"
 viewBox="0.00 0.00 1045.00 550.00" xmlns="http://www.w3.org/2000/svg" xmlns:xlink="http://www.w3.org/1999/xlink">
<g id="graph0" class="graph" transform="scale(1 1) rotate(0) translate(4 546)">
<title>radio_task</title>
<!-- Node1 -->
<g id="Node000001" class="node">
<title>Node1</title>
<g id="a_Node000001"><a xlink:title="C Linkage for radio task function (cpp version is radio_task_cpp())">
<polygon fill="#999999" stroke="#666666" points="68,-207 0,-207 0,-188 68,-188 68,-207"/>
<text text-anchor="middle" x="34" y="-195" font-family="Helvetica,sans-Serif" font-size="10.00">radio_task</text>
</a>
</g>
</g>
<!-- Node2 -->
<g id="Node000002" class="node">
<title>Node2</title>
<g id="a_Node000002"><a xlink:href="group__Radio.html#gaa62d7d3a4530934e87199d4741b365d1" target="_top" xlink:title="The implementation of the radio task function (Linked to C by radio_task())">
<polygon fill="white" stroke="#666666" points="194,-207 104,-207 104,-188 194,-188 194,-207"/>
<text text-anchor="middle" x="149" y="-195" font-family="Helvetica,sans-Serif" font-size="10.00">radio_task_cpp</text>
</a>
</g>
</g>
<!-- Node1&#45;&gt;Node2 -->
<g id="edge1_Node000001_Node000002" class="edge">
<title>Node1&#45;&gt;Node2</title>
<g id="a_edge1_Node000001_Node000002"><a xlink:title=" ">
<path fill="none" stroke="#63b8ff" d="M68.29,-197.5C76.25,-197.5 84.94,-197.5 93.58,-197.5"/>
<polygon fill="#63b8ff" stroke="#63b8ff" points="93.63,-201 103.63,-197.5 93.63,-194 93.63,-201"/>
</a>
</g>
</g>
<!-- Node3 -->
<g id="Node000003" class="node">
<title>Node3</title>
<g id="a_Node000003"><a xlink:href="group__Radio.html#ga3b310022c5395a420f9a4d65a3950d60" target="_top" xlink:title="Get the radio last received time with mutex protection.">
<polygon fill="white" stroke="#666666" points="566,-542 405,-542 405,-523 566,-523 566,-542"/>
<text text-anchor="middle" x="485.5" y="-530" font-family="Helvetica,sans-Serif" font-size="10.00">get_radio_last_received_time</text>
</a>
</g>
</g>
<!-- Node2&#45;&gt;Node3 -->
<g id="edge2_Node000002_Node000003" class="edge">
<title>Node2&#45;&gt;Node3</title>
<g id="a_edge2_Node000002_Node000003"><a xlink:title=" ">
<path fill="none" stroke="#63b8ff" d="M150.93,-207.36C154.61,-241.41 171.01,-355.66 230,-423.5 278.3,-479.05 359.89,-507.14 417.65,-520.75"/>
<polygon fill="#63b8ff" stroke="#63b8ff" points="416.9,-524.17 427.43,-522.97 418.45,-517.34 416.9,-524.17"/>
</a>
</g>
</g>
<!-- Node4 -->
<g id="Node000004" class="node">
<title>Node4</title>
<g id="a_Node000004"><a xlink:href="group__Radio.html#gad6a879966c96e3220276583110fde2eb" target="_top" xlink:title="Initializes necessary peripherals/settings for the radio task.">
<polygon fill="white" stroke="#666666" points="330.5,-355 268.5,-355 268.5,-336 330.5,-336 330.5,-355"/>
<text text-anchor="middle" x="299.5" y="-343" font-family="Helvetica,sans-Serif" font-size="10.00">init_radio</text>
</a>
</g>
</g>
<!-- Node2&#45;&gt;Node4 -->
<g id="edge3_Node000002_Node000004" class="edge">
<title>Node2&#45;&gt;Node4</title>
<g id="a_edge3_Node000002_Node000004"><a xlink:title=" ">
<path fill="none" stroke="#63b8ff" d="M157.76,-207.1C171.6,-224 201.73,-259.9 230,-287.5 245.42,-302.55 264.17,-318.27 278.15,-329.54"/>
<polygon fill="#63b8ff" stroke="#63b8ff" points="276.17,-332.43 286.17,-335.94 280.54,-326.96 276.17,-332.43"/>
</a>
</g>
</g>
<!-- Node8 -->
<g id="Node000008" class="node">
<title>Node8</title>
<g id="a_Node000008"><a xlink:href="group__Radio.html#gae7b8fc4ccc09bb7acd7b803ecad3caca" target="_top" xlink:title=" ">
<polygon fill="white" stroke="#666666" points="555,-505 416,-505 416,-486 555,-486 555,-505"/>
<text text-anchor="middle" x="485.5" y="-493" font-family="Helvetica,sans-Serif" font-size="10.00">radio_cad_detected_RFM</text>
</a>
</g>
</g>
<!-- Node2&#45;&gt;Node8 -->
<g id="edge20_Node000002_Node000008" class="edge">
<title>Node2&#45;&gt;Node8</title>
<g id="a_edge20_Node000002_Node000008"><a xlink:title=" ">
<path fill="none" stroke="#63b8ff" d="M152.55,-207.28C160.15,-234.88 184.97,-314.63 230,-364.5 291.09,-432.17 321.8,-434.24 405,-471.5 414.77,-475.88 425.57,-479.73 435.96,-483"/>
<polygon fill="#63b8ff" stroke="#63b8ff" points="435.18,-486.42 445.77,-485.96 437.2,-479.72 435.18,-486.42"/>
</a>
</g>
</g>
<!-- Node9 -->
<g id="Node000009" class="node">
<title>Node9</title>
<g id="a_Node000009"><a xlink:href="group__Radio.html#ga9cc461d365bd6aa5037aa79b50a4ab70" target="_top" xlink:title=" ">
<polygon fill="white" stroke="#666666" points="548,-281 423,-281 423,-262 548,-262 548,-281"/>
<text text-anchor="middle" x="485.5" y="-269" font-family="Helvetica,sans-Serif" font-size="10.00">radio_general_flag_SX</text>
</a>
</g>
</g>
<!-- Node2&#45;&gt;Node9 -->
<g id="edge21_Node000002_Node000009" class="edge">
<title>Node2&#45;&gt;Node9</title>
<g id="a_edge21_Node000002_Node000009"><a xlink:title=" ">
<path fill="none" stroke="#63b8ff" d="M168.24,-207.12C184.13,-215.09 208.01,-226.12 230,-232.5 290.37,-250.01 361.21,-260.05 412.8,-265.54"/>
<polygon fill="#63b8ff" stroke="#63b8ff" points="412.55,-269.04 422.86,-266.58 413.27,-262.07 412.55,-269.04"/>
</a>
</g>
</g>
<!-- Node10 -->
<g id="Node000010" class="node">
<title>Node10</title>
<g id="a_Node000010"><a xlink:href="group__Radio.html#gabb38d1447d7bbd825a1514d39e9889f3" target="_top" xlink:title="Handle hardware switches between radios.">
<polygon fill="white" stroke="#666666" points="557.5,-244 413.5,-244 413.5,-225 557.5,-225 557.5,-244"/>
<text text-anchor="middle" x="485.5" y="-232" font-family="Helvetica,sans-Serif" font-size="10.00">radio_hardware_switch_to</text>
</a>
</g>
</g>
<!-- Node2&#45;&gt;Node10 -->
<g id="edge22_Node000002_Node000010" class="edge">
<title>Node2&#45;&gt;Node10</title>
<g id="a_edge22_Node000002_Node000010"><a xlink:title=" ">
<path fill="none" stroke="#63b8ff" d="M194.33,-205.93C205.91,-207.95 218.4,-209.96 230,-211.5 287.71,-219.14 353.12,-224.99 403.17,-228.88"/>
<polygon fill="#63b8ff" stroke="#63b8ff" points="403.05,-232.38 413.29,-229.66 403.59,-225.4 403.05,-232.38"/>
</a>
</g>
</g>
<!-- Node11 -->
<g id="Node000011" class="node">
<title>Node11</title>
<g id="a_Node000011"><a xlink:href="group__Radio.html#ga69267b1b554b36d584cbc4322534266f" target="_top" xlink:title=" ">
<polygon fill="white" stroke="#666666" points="560,-207 411,-207 411,-188 560,-188 560,-207"/>
<text text-anchor="middle" x="485.5" y="-195" font-family="Helvetica,sans-Serif" font-size="10.00">radio_operation_done_RFM</text>
</a>
</g>
</g>
<!-- Node2&#45;&gt;Node11 -->
<g id="edge23_Node000002_Node000011" class="edge">
<title>Node2&#45;&gt;Node11</title>
<g id="a_edge23_Node000002_Node000011"><a xlink:title=" ">
<path fill="none" stroke="#63b8ff" d="M194.07,-197.5C246.45,-197.5 334.97,-197.5 400.55,-197.5"/>
<polygon fill="#63b8ff" stroke="#63b8ff" points="400.87,-201 410.87,-197.5 400.87,-194 400.87,-201"/>
</a>
</g>
</g>
<!-- Node18 -->
<g id="Node000018" class="node">
<title>Node18</title>
<g id="a_Node000018"><a xlink:href="command_8c.html#ac090b79f5dfeeaa73978dc9df75fe1a0" target="_top" xlink:title=" ">
<polygon fill="white" stroke="#666666" points="369,-93 230,-93 230,-74 369,-74 369,-93"/>
<text text-anchor="middle" x="299.5" y="-81" font-family="Helvetica,sans-Serif" font-size="10.00">receive_command_bytes</text>
</a>
</g>
</g>
<!-- Node2&#45;&gt;Node18 -->
<g id="edge24_Node000002_Node000018" class="edge">
<title>Node2&#45;&gt;Node18</title>
<g id="a_edge24_Node000002_Node000018"><a xlink:title=" ">
<path fill="none" stroke="#63b8ff" d="M156.06,-187.91C168.04,-169.71 196.49,-129.97 230,-107.5 236.26,-103.3 243.33,-99.76 250.5,-96.79"/>
<polygon fill="#63b8ff" stroke="#63b8ff" points="252.15,-99.9 260.26,-93.09 249.67,-93.36 252.15,-99.9"/>
</a>
</g>
</g>
<!-- Node20 -->
<g id="Node000020" class="node">
<title>Node20</title>
<g id="a_Node000020"><a xlink:href="telemetry_8c.html#a6dbf6c6cfd75451e5642ca0b64bf7f5a" target="_top" xlink:title=" ">
<polygon fill="white" stroke="#666666" points="346,-56 253,-56 253,-37 346,-37 346,-56"/>
<text text-anchor="middle" x="299.5" y="-44" font-family="Helvetica,sans-Serif" font-size="10.00">send_telemetry</text>
</a>
</g>
</g>
<!-- Node2&#45;&gt;Node20 -->
<g id="edge26_Node000002_Node000020" class="edge">
<title>Node2&#45;&gt;Node20</title>
<g id="a_edge26_Node000002_Node000020"><a xlink:title=" ">
<path fill="none" stroke="#63b8ff" d="M153,-187.71C161.09,-162.99 185.8,-97.63 230,-64.5 234.08,-61.44 238.63,-58.91 243.4,-56.8"/>
<polygon fill="#63b8ff" stroke="#63b8ff" points="244.65,-60.07 252.76,-53.25 242.17,-53.52 244.65,-60.07"/>
</a>
</g>
</g>
<!-- Node21 -->
<g id="Node000021" class="node">
<title>Node21</title>
<g id="a_Node000021"><a xlink:href="group__Radio.html#ga74c252dc0de25701a447a67c039e9804" target="_top" xlink:title=" ">
<polygon fill="white" stroke="#666666" points="351.5,-19 247.5,-19 247.5,0 351.5,0 351.5,-19"/>
<text text-anchor="middle" x="299.5" y="-7" font-family="Helvetica,sans-Serif" font-size="10.00">set_power_output</text>
</a>
</g>
</g>
<!-- Node2&#45;&gt;Node21 -->
<g id="edge27_Node000002_Node000021" class="edge">
<title>Node2&#45;&gt;Node21</title>
<g id="a_edge27_Node000002_Node000021"><a xlink:title=" ">
<path fill="none" stroke="#63b8ff" d="M151.64,-187.67C157.05,-158.46 177.09,-71.52 230,-27.5 232.55,-25.38 235.33,-23.5 238.25,-21.84"/>
<polygon fill="#63b8ff" stroke="#63b8ff" points="239.86,-24.95 247.39,-17.5 236.86,-18.63 239.86,-24.95"/>
</a>
</g>
</g>
<!-- Node22 -->
<g id="Node000022" class="node">
<title>Node22</title>
<g id="a_Node000022"><a xlink:href="timing_8c.html#a194bf95f7b8c4bde3816deac81a9fb20" target="_top" xlink:title=" ">
<polygon fill="white" stroke="#666666" points="528.5,-131 442.5,-131 442.5,-112 528.5,-112 528.5,-131"/>
<text text-anchor="middle" x="485.5" y="-119" font-family="Helvetica,sans-Serif" font-size="10.00">time_between</text>
</a>
</g>
</g>
<!-- Node2&#45;&gt;Node22 -->
<g id="edge28_Node000002_Node000022" class="edge">
<title>Node2&#45;&gt;Node22</title>
<g id="a_edge28_Node000002_Node000022"><a xlink:title=" ">
<path fill="none" stroke="#63b8ff" d="M159.84,-187.91C174.01,-174.79 201.6,-151.69 230,-141.5 296.68,-117.57 379.31,-115.73 431.98,-117.72"/>
<polygon fill="#63b8ff" stroke="#63b8ff" points="431.95,-121.22 442.1,-118.16 432.26,-114.23 431.95,-121.22"/>
</a>
</g>
</g>
<!-- Node23 -->
<g id="Node000023" class="node">
<title>Node23</title>
<g id="a_Node000023"><a xlink:href="timing_8c.html#ab12969269737f49ad7d6b46da54da52e" target="_top" xlink:title=" ">
<polygon fill="white" stroke="#666666" points="344.5,-169 254.5,-169 254.5,-150 344.5,-150 344.5,-169"/>
<text text-anchor="middle" x="299.5" y="-157" font-family="Helvetica,sans-Serif" font-size="10.00">time_since_ms</text>
</a>
</g>
</g>
<!-- Node2&#45;&gt;Node23 -->
<g id="edge29_Node000002_Node000023" class="edge">
<title>Node2&#45;&gt;Node23</title>
<g id="a_edge29_Node000002_Node000023"><a xlink:title=" ">
<path fill="none" stroke="#63b8ff" d="M187.47,-187.91C206.89,-182.94 230.8,-176.82 251.45,-171.54"/>
<polygon fill="#63b8ff" stroke="#63b8ff" points="252.48,-174.89 261.3,-169.02 250.74,-168.11 252.48,-174.89"/>
</a>
</g>
</g>
<!-- Node4&#45;&gt;Node3 -->
<g id="edge7_Node000004_Node000003" class="edge">
<title>Node4&#45;&gt;Node3</title>
<g id="a_edge7_Node000004_Node000003"><a xlink:title=" ">
<path fill="none" stroke="#63b8ff" d="M303.56,-355.41C313.18,-384.83 345.75,-472.22 405,-514.5 406.92,-515.87 408.92,-517.14 411,-518.31"/>
<polygon fill="#63b8ff" stroke="#63b8ff" points="409.93,-521.68 420.46,-522.87 412.97,-515.37 409.93,-521.68"/>
</a>
</g>
</g>
<!-- Node5 -->
<g id="Node000005" class="node">
<title>Node5</title>
<g id="a_Node000005"><a xlink:href="filesystem_8c.html#a07610d3a6787ca02aa3d340759bcb8c9" target="_top" xlink:title=" ">
<polygon fill="white" stroke="#666666" points="799,-448 733,-448 733,-429 799,-429 799,-448"/>
<text text-anchor="middle" x="766" y="-436" font-family="Helvetica,sans-Serif" font-size="10.00">file_exists</text>
</a>
</g>
</g>
<!-- Node4&#45;&gt;Node5 -->
<g id="edge4_Node000004_Node000005" class="edge">
<title>Node4&#45;&gt;Node5</title>
<g id="a_edge4_Node000004_Node000005"><a xlink:title=" ">
<path fill="none" stroke="#63b8ff" d="M330.71,-346.25C343.67,-347.95 358.28,-351.88 369,-360.5 398.76,-384.42 372.84,-417.92 405,-438.5 505.61,-502.87 656.62,-471.14 726.72,-450.91"/>
<polygon fill="#63b8ff" stroke="#63b8ff" points="727.87,-454.22 736.46,-448.02 725.88,-447.51 727.87,-454.22"/>
</a>
</g>
</g>
<!-- Node4&#45;&gt;Node8 -->
<g id="edge8_Node000004_Node000008" class="edge">
<title>Node4&#45;&gt;Node8</title>
<g id="a_edge8_Node000004_Node000008"><a xlink:title=" ">
<path fill="none" stroke="#63b8ff" d="M309.13,-355.07C322.31,-369.77 348.12,-398.89 369,-424.5 385.63,-444.89 383.36,-456.53 405,-471.5 411.42,-475.94 418.68,-479.58 426.14,-482.55"/>
<polygon fill="#63b8ff" stroke="#63b8ff" points="425.05,-485.88 435.64,-485.97 427.42,-479.29 425.05,-485.88"/>
</a>
</g>
</g>
<!-- Node4&#45;&gt;Node9 -->
<g id="edge9_Node000004_Node000009" class="edge">
<title>Node4&#45;&gt;Node9</title>
<g id="a_edge9_Node000004_Node000009"><a xlink:title=" ">
<path fill="none" stroke="#63b8ff" d="M315.86,-335.84C335.75,-323.71 371.8,-302.98 405,-290.5 411.76,-287.96 418.97,-285.68 426.19,-283.65"/>
<polygon fill="#63b8ff" stroke="#63b8ff" points="427.23,-287 435.99,-281.05 425.43,-280.23 427.23,-287"/>
</a>
</g>
</g>
<!-- Node4&#45;&gt;Node10 -->
<g id="edge10_Node000004_Node000010" class="edge">
<title>Node4&#45;&gt;Node10</title>
<g id="a_edge10_Node000004_Node000010"><a xlink:title=" ">
<path fill="none" stroke="#63b8ff" d="M308.59,-335.72C324.82,-316.79 363.37,-275.08 405,-253.5 409.53,-251.15 414.36,-249.09 419.3,-247.28"/>
<polygon fill="#63b8ff" stroke="#63b8ff" points="420.53,-250.56 428.93,-244.09 418.33,-243.91 420.53,-250.56"/>
</a>
</g>
</g>
<!-- Node4&#45;&gt;Node11 -->
<g id="edge11_Node000004_Node000011" class="edge">
<title>Node4&#45;&gt;Node11</title>
<g id="a_edge11_Node000004_Node000011"><a xlink:title=" ">
<path fill="none" stroke="#63b8ff" d="M305.34,-335.93C318.07,-311.77 355.01,-248 405,-216.5 408.35,-214.39 411.91,-212.51 415.6,-210.85"/>
<polygon fill="#63b8ff" stroke="#63b8ff" points="416.99,-214.06 424.99,-207.12 414.4,-207.56 416.99,-214.06"/>
</a>
</g>
</g>
<!-- Node12 -->
<g id="Node000012" class="node">
<title>Node12</title>
<g id="a_Node000012"><a xlink:href="filesystem_8c.html#ab92b1f0beb3be903677f3293d0430b62" target="_top" xlink:title=" ">
<polygon fill="white" stroke="#666666" points="515,-392 456,-392 456,-373 515,-373 515,-392"/>
<text text-anchor="middle" x="485.5" y="-380" font-family="Helvetica,sans-Serif" font-size="10.00">read_file</text>
</a>
</g>
</g>
<!-- Node4&#45;&gt;Node12 -->
<g id="edge12_Node000004_Node000012" class="edge">
<title>Node4&#45;&gt;Node12</title>
<g id="a_edge12_Node000004_Node000012"><a xlink:title=" ">
<path fill="none" stroke="#63b8ff" d="M330.88,-351.61C362.33,-357.93 411.57,-367.83 445.79,-374.72"/>
<polygon fill="#63b8ff" stroke="#63b8ff" points="445.4,-378.21 455.89,-376.75 446.78,-371.34 445.4,-378.21"/>
</a>
</g>
</g>
<!-- Node14 -->
<g id="Node000014" class="node">
<title>Node14</title>
<g id="a_Node000014"><a xlink:href="group__Radio.html#ga11abd7a01d0c8cbbc256e93bb0ed75e4" target="_top" xlink:title="Set the radio last received time with mutex protection.">
<polygon fill="white" stroke="#666666" points="565.5,-429 405.5,-429 405.5,-410 565.5,-410 565.5,-429"/>
<text text-anchor="middle" x="485.5" y="-417" font-family="Helvetica,sans-Serif" font-size="10.00">set_radio_last_received_time</text>
</a>
</g>
</g>
<!-- Node4&#45;&gt;Node14 -->
<g id="edge16_Node000004_Node000014" class="edge">
<title>Node4&#45;&gt;Node14</title>
<g id="a_edge16_Node000004_Node000014"><a xlink:title=" ">
<path fill="none" stroke="#63b8ff" d="M315.47,-355.2C335.23,-367.6 371.45,-388.97 405,-401.5 410.83,-403.68 417,-405.64 423.23,-407.39"/>
<polygon fill="#63b8ff" stroke="#63b8ff" points="422.45,-410.8 433.01,-409.98 424.24,-404.04 422.45,-410.8"/>
</a>
</g>
</g>
<!-- Node15 -->
<g id="Node000015" class="node">
<title>Node15</title>
<g id="a_Node000015"><a xlink:href="timing_8c.html#a0fcff89befd0e9d8e5284516631a96b1" target="_top" xlink:title=" ">
<polygon fill="white" stroke="#666666" points="522.5,-318 448.5,-318 448.5,-299 522.5,-299 522.5,-318"/>
<text text-anchor="middle" x="485.5" y="-306" font-family="Helvetica,sans-Serif" font-size="10.00">timing_now</text>
</a>
</g>
</g>
<!-- Node4&#45;&gt;Node15 -->
<g id="edge17_Node000004_Node000015" class="edge">
<title>Node4&#45;&gt;Node15</title>
<g id="a_edge17_Node000004_Node000015"><a xlink:title=" ">
<path fill="none" stroke="#63b8ff" d="M330.88,-339.39C360.11,-333.51 404.7,-324.55 438.33,-317.78"/>
<polygon fill="#63b8ff" stroke="#63b8ff" points="439.27,-321.17 448.38,-315.76 437.89,-314.3 439.27,-321.17"/>
</a>
</g>
</g>
<!-- Node17 -->
<g id="Node000017" class="node">
<title>Node17</title>
<g id="a_Node000017"><a xlink:href="filesystem_8c.html#a8e5a51c709e9d6229c1974435475292a" target="_top" xlink:title=" ">
<polygon fill="white" stroke="#666666" points="516.5,-355 454.5,-355 454.5,-336 516.5,-336 516.5,-355"/>
<text text-anchor="middle" x="485.5" y="-343" font-family="Helvetica,sans-Serif" font-size="10.00">write_file</text>
</a>
</g>
</g>
<!-- Node4&#45;&gt;Node17 -->
<g id="edge19_Node000004_Node000017" class="edge">
<title>Node4&#45;&gt;Node17</title>
<g id="a_edge19_Node000004_Node000017"><a xlink:title=" ">
<path fill="none" stroke="#63b8ff" d="M330.88,-345.5C361.87,-345.5 410.12,-345.5 444.27,-345.5"/>
<polygon fill="#63b8ff" stroke="#63b8ff" points="444.38,-349 454.38,-345.5 444.38,-342 444.38,-349"/>
</a>
</g>
</g>
<!-- Node6 -->
<g id="Node000006" class="node">
<title>Node6</title>
<g id="a_Node000006"><a xlink:href="filesystem_8c.html#aa109ff29a72d1beadda58bb3a54185b6" target="_top" xlink:title=" ">
<polygon fill="white" stroke="#666666" points="870,-448 835,-448 835,-429 870,-429 870,-448"/>
<text text-anchor="middle" x="852.5" y="-436" font-family="Helvetica,sans-Serif" font-size="10.00">stat</text>
</a>
</g>
</g>
<!-- Node5&#45;&gt;Node6 -->
<g id="edge5_Node000005_Node000006" class="edge">
<title>Node5&#45;&gt;Node6</title>
<g id="a_edge5_Node000005_Node000006"><a xlink:title=" ">
<path fill="none" stroke="#63b8ff" d="M799.43,-438.5C807.75,-438.5 816.6,-438.5 824.61,-438.5"/>
<polygon fill="#63b8ff" stroke="#63b8ff" points="824.87,-442 834.87,-438.5 824.87,-435 824.87,-442"/>
</a>
</g>
</g>
<!-- Node7 -->
<g id="Node000007" class="node">
<title>Node7</title>
<g id="a_Node000007"><a xlink:href="utilities_2src_2log_8c.html#a4b048be24c6c7f622a6bc6c6bf8ac435" target="_top" xlink:title=" ">
<polygon fill="white" stroke="#666666" points="1037,-429 906,-429 906,-410 1037,-410 1037,-429"/>
<text text-anchor="middle" x="971.5" y="-417" font-family="Helvetica,sans-Serif" font-size="10.00">get_current_task_name</text>
</a>
</g>
</g>
<!-- Node6&#45;&gt;Node7 -->
<g id="edge6_Node000006_Node000007" class="edge">
<title>Node6&#45;&gt;Node7</title>
<g id="a_edge6_Node000006_Node000007"><a xlink:title=" ">
<path fill="none" stroke="#63b8ff" d="M870.02,-435.82C878.68,-434.41 889.93,-432.58 901.77,-430.66"/>
<polygon fill="#63b8ff" stroke="#63b8ff" points="902.49,-434.09 911.8,-429.03 901.36,-427.18 902.49,-434.09"/>
</a>
</g>
</g>
<!-- Node13 -->
<g id="Node000013" class="node">
<title>Node13</title>
<g id="a_Node000013"><a xlink:href="filesystem_8c.html#ae0599d66eddc7fdf656fca874aa5f1d1" target="_top" xlink:title=" ">
<polygon fill="white" stroke="#666666" points="695.5,-410 603.5,-410 603.5,-391 695.5,-391 695.5,-410"/>
<text text-anchor="middle" x="649.5" y="-398" font-family="Helvetica,sans-Serif" font-size="10.00">read_file_offset</text>
</a>
</g>
</g>
<!-- Node12&#45;&gt;Node13 -->
<g id="edge13_Node000012_Node000013" class="edge">
<title>Node12&#45;&gt;Node13</title>
<g id="a_edge13_Node000012_Node000013"><a xlink:title=" ">
<path fill="none" stroke="#63b8ff" d="M515.09,-385.68C536.66,-388.07 566.92,-391.44 593.17,-394.35"/>
<polygon fill="#63b8ff" stroke="#63b8ff" points="593.06,-397.86 603.38,-395.49 593.83,-390.9 593.06,-397.86"/>
</a>
</g>
</g>
<!-- Node13&#45;&gt;Node5 -->
<g id="edge14_Node000013_Node000005" class="edge">
<title>Node13&#45;&gt;Node5</title>
<g id="a_edge14_Node000013_Node000005"><a xlink:title=" ">
<path fill="none" stroke="#63b8ff" d="M679.39,-410.09C693.63,-414.81 711,-420.58 726.36,-425.68"/>
<polygon fill="#63b8ff" stroke="#63b8ff" points="725.52,-429.09 736.12,-428.91 727.73,-422.44 725.52,-429.09"/>
</a>
</g>
</g>
<!-- Node13&#45;&gt;Node7 -->
<g id="edge15_Node000013_Node000007" class="edge">
<title>Node13&#45;&gt;Node7</title>
<g id="a_edge15_Node000013_Node000007"><a xlink:title=" ">
<path fill="none" stroke="#63b8ff" d="M695.67,-403.18C747.65,-406.27 833.8,-411.38 895.8,-415.06"/>
<polygon fill="#63b8ff" stroke="#63b8ff" points="895.73,-418.57 905.92,-415.67 896.15,-411.58 895.73,-418.57"/>
</a>
</g>
</g>
<!-- Node16 -->
<g id="Node000016" class="node">
<title>Node16</title>
<g id="a_Node000016"><a xlink:href="timing_8c.html#a8a218128fb890d92682a233464ee5cdb" target="_top" xlink:title=" ">
<polygon fill="white" stroke="#666666" points="697,-244 602,-244 602,-225 697,-225 697,-244"/>
<text text-anchor="middle" x="649.5" y="-232" font-family="Helvetica,sans-Serif" font-size="10.00">get_epoch_time</text>
</a>
</g>
</g>
<!-- Node15&#45;&gt;Node16 -->
<g id="edge18_Node000015_Node000016" class="edge">
<title>Node15&#45;&gt;Node16</title>
<g id="a_edge18_Node000015_Node000016"><a xlink:title=" ">
<path fill="none" stroke="#63b8ff" d="M522.62,-303.28C536.55,-300.51 552.37,-296.42 566,-290.5 589.45,-280.32 613.29,-263.26 629.28,-250.63"/>
<polygon fill="#63b8ff" stroke="#63b8ff" points="631.72,-253.16 637.29,-244.15 627.32,-247.71 631.72,-253.16"/>
</a>
</g>
</g>
<!-- Node19 -->
<g id="Node000019" class="node">
<title>Node19</title>
<g id="a_Node000019"><a xlink:href="command_8c.html#a4f5fb387e54e9f86c0201fff500341a7" target="_top" xlink:title=" ">
<polygon fill="white" stroke="#666666" points="552.5,-93 418.5,-93 418.5,-74 552.5,-74 552.5,-93"/>
<text text-anchor="middle" x="485.5" y="-81" font-family="Helvetica,sans-Serif" font-size="10.00">receive_command_byte</text>
</a>
</g>
</g>
<!-- Node18&#45;&gt;Node19 -->
<g id="edge25_Node000018_Node000019" class="edge">
<title>Node18&#45;&gt;Node19</title>
<g id="a_edge25_Node000018_Node000019"><a xlink:title=" ">
<path fill="none" stroke="#63b8ff" d="M369.01,-83.5C381.75,-83.5 395.14,-83.5 408.09,-83.5"/>
<polygon fill="#63b8ff" stroke="#63b8ff" points="408.37,-87 418.37,-83.5 408.37,-80 408.37,-87"/>
</a>
</g>
</g>
<!-- Node23&#45;&gt;Node16 -->
<g id="edge30_Node000023_Node000016" class="edge">
<title>Node23&#45;&gt;Node16</title>
<g id="a_edge30_Node000023_Node000016"><a xlink:title=" ">
<path fill="none" stroke="#63b8ff" d="M344.63,-156.12C398.45,-153.49 491.48,-153.84 566,-179.5 590.17,-187.82 614.06,-205 629.86,-217.95"/>
<polygon fill="#63b8ff" stroke="#63b8ff" points="627.86,-220.85 637.76,-224.63 632.38,-215.5 627.86,-220.85"/>
</a>
</g>
</g>
<!-- Node23&#45;&gt;Node22 -->
<g id="edge31_Node000023_Node000022" class="edge">
<title>Node23&#45;&gt;Node22</title>
<g id="a_edge31_Node000023_Node000022"><a xlink:title=" ">
<path fill="none" stroke="#63b8ff" d="M344.57,-150.4C370.99,-144.94 404.72,-137.98 432.45,-132.25"/>
<polygon fill="#63b8ff" stroke="#63b8ff" points="433.28,-135.65 442.37,-130.2 431.87,-128.8 433.28,-135.65"/>
</a>
</g>
</g>
</g>
</svg>
