<?xml version="1.0" encoding="UTF-8" standalone="no"?>
<!DOCTYPE svg PUBLIC "-//W3C//DTD SVG 1.1//EN"
 "http://www.w3.org/Graphics/SVG/1.1/DTD/svg11.dtd">
<!-- Generated by graphviz version 2.43.0 (0)
 -->
<!-- Title: gse.c Pages: 1 -->
<svg width="925pt" height="302pt"
 viewBox="0.00 0.00 925.00 302.00" xmlns="http://www.w3.org/2000/svg" xmlns:xlink="http://www.w3.org/1999/xlink">
<g id="graph0" class="graph" transform="scale(1 1) rotate(0) translate(4 298)">
<title>gse.c</title>
<!-- Node1 -->
<g id="Node000001" class="node">
<title>Node1</title>
<g id="a_Node000001"><a xlink:title=" ">
<polygon fill="#999999" stroke="#666666" points="630.5,-294 588.5,-294 588.5,-275 630.5,-275 630.5,-294"/>
<text text-anchor="middle" x="609.5" y="-282" font-family="Helvetica,sans-Serif" font-size="10.00">gse.c</text>
</a>
</g>
</g>
<!-- Node2 -->
<g id="Node000002" class="node">
<title>Node2</title>
<g id="a_Node000002"><a xlink:title=" ">
<polygon fill="#e0e0e0" stroke="#999999" points="53,-239 0,-239 0,-220 53,-220 53,-239"/>
<text text-anchor="middle" x="26.5" y="-227" font-family="Helvetica,sans-Serif" font-size="10.00">string.h</text>
</a>
</g>
</g>
<!-- Node1&#45;&gt;Node2 -->
<g id="edge1_Node000001_Node000002" class="edge">
<title>Node1&#45;&gt;Node2</title>
<g id="a_edge1_Node000001_Node000002"><a xlink:title=" ">
<path fill="none" stroke="#63b8ff" d="M588.47,-282.7C515.86,-279.75 269.11,-268.06 67.5,-239 66.2,-238.81 64.89,-238.61 63.56,-238.4"/>
<polygon fill="#63b8ff" stroke="#63b8ff" points="63.79,-234.88 53.32,-236.55 62.54,-241.77 63.79,-234.88"/>
</a>
</g>
</g>
<!-- Node3 -->
<g id="Node000003" class="node">
<title>Node3</title>
<g id="a_Node000003"><a xlink:title=" ">
<polygon fill="#e0e0e0" stroke="#999999" points="199.5,-19 127.5,-19 127.5,0 199.5,0 199.5,-19"/>
<text text-anchor="middle" x="163.5" y="-7" font-family="Helvetica,sans-Serif" font-size="10.00">FreeRTOS.h</text>
</a>
</g>
</g>
<!-- Node1&#45;&gt;Node3 -->
<g id="edge2_Node000001_Node000003" class="edge">
<title>Node1&#45;&gt;Node3</title>
<g id="a_edge2_Node000001_Node000003"><a xlink:title=" ">
<path fill="none" stroke="#63b8ff" d="M588.36,-283.61C526.17,-282.87 341.13,-272.88 227.5,-184 201.48,-163.65 191.2,-159.06 177.5,-129 162.58,-96.28 161.46,-53.44 162.28,-29.26"/>
<polygon fill="#63b8ff" stroke="#63b8ff" points="165.79,-29.17 162.79,-19.01 158.8,-28.83 165.79,-29.17"/>
</a>
</g>
</g>
<!-- Node4 -->
<g id="Node000004" class="node">
<title>Node4</title>
<g id="a_Node000004"><a xlink:title=" ">
<polygon fill="#e0e0e0" stroke="#999999" points="109.5,-19 53.5,-19 53.5,0 109.5,0 109.5,-19"/>
<text text-anchor="middle" x="81.5" y="-7" font-family="Helvetica,sans-Serif" font-size="10.00">queue.h</text>
</a>
</g>
</g>
<!-- Node1&#45;&gt;Node4 -->
<g id="edge3_Node000001_Node000004" class="edge">
<title>Node1&#45;&gt;Node4</title>
<g id="a_edge3_Node000001_Node000004"><a xlink:title=" ">
<path fill="none" stroke="#63b8ff" d="M588.48,-283.76C490.27,-284.43 81.5,-280.88 81.5,-175.5 81.5,-175.5 81.5,-175.5 81.5,-118.5 81.5,-87.19 81.5,-50.77 81.5,-29.23"/>
<polygon fill="#63b8ff" stroke="#63b8ff" points="85,-29.18 81.5,-19.18 78,-29.18 85,-29.18"/>
</a>
</g>
</g>
<!-- Node5 -->
<g id="Node000005" class="node">
<title>Node5</title>
<g id="a_Node000005"><a xlink:href="stdio_8h.html" target="_top" xlink:title=" ">
<polygon fill="white" stroke="#666666" points="917,-184 844,-184 844,-165 917,-165 917,-184"/>
<text text-anchor="middle" x="880.5" y="-172" font-family="Helvetica,sans-Serif" font-size="10.00">pico/stdio.h</text>
</a>
</g>
</g>
<!-- Node1&#45;&gt;Node5 -->
<g id="edge4_Node000001_Node000005" class="edge">
<title>Node1&#45;&gt;Node5</title>
<g id="a_edge4_Node000001_Node000005"><a xlink:title=" ">
<path fill="none" stroke="#63b8ff" d="M630.71,-283.14C670.46,-281.6 757.79,-274.14 820.5,-239 840.88,-227.58 858.46,-206.91 869.23,-192.26"/>
<polygon fill="#63b8ff" stroke="#63b8ff" points="872.11,-194.24 875.02,-184.05 866.39,-190.21 872.11,-194.24"/>
</a>
</g>
</g>
<!-- Node6 -->
<g id="Node000006" class="node">
<title>Node6</title>
<g id="a_Node000006"><a xlink:href="usb__uart_8h.html" target="_top" xlink:title="Serial Communication Driver (USB/UART)">
<polygon fill="white" stroke="#666666" points="811.5,-239 743.5,-239 743.5,-220 811.5,-220 811.5,-239"/>
<text text-anchor="middle" x="777.5" y="-227" font-family="Helvetica,sans-Serif" font-size="10.00">usb_uart.h</text>
</a>
</g>
</g>
<!-- Node1&#45;&gt;Node6 -->
<g id="edge5_Node000001_Node000006" class="edge">
<title>Node1&#45;&gt;Node6</title>
<g id="a_edge5_Node000001_Node000006"><a xlink:title=" ">
<path fill="none" stroke="#63b8ff" d="M630.78,-276.79C658.3,-268.1 706.7,-252.83 740.36,-242.22"/>
<polygon fill="#63b8ff" stroke="#63b8ff" points="741.8,-245.43 750.29,-239.09 739.7,-238.76 741.8,-245.43"/>
</a>
</g>
</g>
<!-- Node9 -->
<g id="Node000009" class="node">
<title>Node9</title>
<g id="a_Node000009"><a xlink:href="command_8h.html" target="_top" xlink:title="Handles decoding and triggering responses to received commands.">
<polygon fill="white" stroke="#666666" points="571.5,-184 497.5,-184 497.5,-165 571.5,-165 571.5,-184"/>
<text text-anchor="middle" x="534.5" y="-172" font-family="Helvetica,sans-Serif" font-size="10.00">command.h</text>
</a>
</g>
</g>
<!-- Node1&#45;&gt;Node9 -->
<g id="edge9_Node000001_Node000009" class="edge">
<title>Node1&#45;&gt;Node9</title>
<g id="a_edge9_Node000001_Node000009"><a xlink:title=" ">
<path fill="none" stroke="#63b8ff" d="M603.36,-274.66C590.88,-256.69 562.38,-215.64 546.22,-192.38"/>
<polygon fill="#63b8ff" stroke="#63b8ff" points="549.09,-190.38 540.51,-184.16 543.34,-194.37 549.09,-190.38"/>
</a>
</g>
</g>
<!-- Node18 -->
<g id="Node000018" class="node">
<title>Node18</title>
<g id="a_Node000018"><a xlink:href="rtc__ds3231_8h.html" target="_top" xlink:title="DS3231 Real Time Clock Driver.">
<polygon fill="white" stroke="#666666" points="701,-129 622,-129 622,-110 701,-110 701,-129"/>
<text text-anchor="middle" x="661.5" y="-117" font-family="Helvetica,sans-Serif" font-size="10.00">rtc_ds3231.h</text>
</a>
</g>
</g>
<!-- Node1&#45;&gt;Node18 -->
<g id="edge25_Node000001_Node000018" class="edge">
<title>Node1&#45;&gt;Node18</title>
<g id="a_edge25_Node000001_Node000018"><a xlink:title=" ">
<path fill="none" stroke="#63b8ff" d="M612.3,-274.74C620.44,-249.2 644.3,-174.43 655.52,-139.23"/>
<polygon fill="#63b8ff" stroke="#63b8ff" points="658.99,-139.9 658.69,-129.31 652.32,-137.77 658.99,-139.9"/>
</a>
</g>
</g>
<!-- Node20 -->
<g id="Node000020" class="node">
<title>Node20</title>
<g id="a_Node000020"><a xlink:href="ina219_8h.html" target="_top" xlink:title="INA219 Driver.">
<polygon fill="white" stroke="#666666" points="747,-184 688,-184 688,-165 747,-165 747,-184"/>
<text text-anchor="middle" x="717.5" y="-172" font-family="Helvetica,sans-Serif" font-size="10.00">ina219.h</text>
</a>
</g>
</g>
<!-- Node1&#45;&gt;Node20 -->
<g id="edge31_Node000001_Node000020" class="edge">
<title>Node1&#45;&gt;Node20</title>
<g id="a_edge31_Node000001_Node000020"><a xlink:title=" ">
<path fill="none" stroke="#63b8ff" d="M618.34,-274.66C636.54,-256.46 678.45,-214.55 701.53,-191.47"/>
<polygon fill="#63b8ff" stroke="#63b8ff" points="704.25,-193.7 708.84,-184.16 699.3,-188.75 704.25,-193.7"/>
</a>
</g>
</g>
<!-- Node21 -->
<g id="Node000021" class="node">
<title>Node21</title>
<g id="a_Node000021"><a xlink:href="log_8h.html" target="_top" xlink:title=" ">
<polygon fill="white" stroke="#666666" points="380,-239 339,-239 339,-220 380,-220 380,-239"/>
<text text-anchor="middle" x="359.5" y="-227" font-family="Helvetica,sans-Serif" font-size="10.00">log.h</text>
</a>
</g>
</g>
<!-- Node1&#45;&gt;Node21 -->
<g id="edge33_Node000001_Node000021" class="edge">
<title>Node1&#45;&gt;Node21</title>
<g id="a_edge33_Node000001_Node000021"><a xlink:title=" ">
<path fill="none" stroke="#63b8ff" d="M588.19,-278.98C543.78,-269.57 441.22,-247.82 389.9,-236.94"/>
<polygon fill="#63b8ff" stroke="#63b8ff" points="390.57,-233.51 380.06,-234.86 389.11,-240.36 390.57,-233.51"/>
</a>
</g>
</g>
<!-- Node24 -->
<g id="Node000024" class="node">
<title>Node24</title>
<g id="a_Node000024"><a xlink:href="gse_8h.html" target="_top" xlink:title="Handles hardline communication over USB.">
<polygon fill="white" stroke="#666666" points="911,-239 868,-239 868,-220 911,-220 911,-239"/>
<text text-anchor="middle" x="889.5" y="-227" font-family="Helvetica,sans-Serif" font-size="10.00">gse.h</text>
</a>
</g>
</g>
<!-- Node1&#45;&gt;Node24 -->
<g id="edge42_Node000001_Node000024" class="edge">
<title>Node1&#45;&gt;Node24</title>
<g id="a_edge42_Node000001_Node000024"><a xlink:title=" ">
<path fill="none" stroke="#63b8ff" d="M630.79,-280C673.26,-272.92 771.52,-256.14 853.5,-239 854.95,-238.7 856.44,-238.38 857.94,-238.05"/>
<polygon fill="#63b8ff" stroke="#63b8ff" points="858.86,-241.43 867.84,-235.81 857.31,-234.6 858.86,-241.43"/>
</a>
</g>
</g>
<!-- Node6&#45;&gt;Node5 -->
<g id="edge8_Node000006_Node000005" class="edge">
<title>Node6&#45;&gt;Node5</title>
<g id="a_edge8_Node000006_Node000005"><a xlink:title=" ">
<path fill="none" stroke="#63b8ff" d="M794.05,-219.98C810.39,-211.57 835.63,-198.59 854.63,-188.81"/>
<polygon fill="#63b8ff" stroke="#63b8ff" points="856.36,-191.86 863.65,-184.17 853.16,-185.63 856.36,-191.86"/>
</a>
</g>
</g>
<!-- Node7 -->
<g id="Node000007" class="node">
<title>Node7</title>
<g id="a_Node000007"><a xlink:title=" ">
<polygon fill="#e0e0e0" stroke="#999999" points="749.5,-19 693.5,-19 693.5,0 749.5,0 749.5,-19"/>
<text text-anchor="middle" x="721.5" y="-7" font-family="Helvetica,sans-Serif" font-size="10.00">stddef.h</text>
</a>
</g>
</g>
<!-- Node6&#45;&gt;Node7 -->
<g id="edge6_Node000006_Node000007" class="edge">
<title>Node6&#45;&gt;Node7</title>
<g id="a_edge6_Node000006_Node000007"><a xlink:title=" ">
<path fill="none" stroke="#63b8ff" d="M781.33,-219.86C792.5,-193.29 822.34,-111.15 791.5,-55 783.73,-40.85 769.33,-30.56 755.61,-23.46"/>
<polygon fill="#63b8ff" stroke="#63b8ff" points="756.84,-20.17 746.31,-19.05 753.84,-26.49 756.84,-20.17"/>
</a>
</g>
</g>
<!-- Node8 -->
<g id="Node000008" class="node">
<title>Node8</title>
<g id="a_Node000008"><a xlink:title=" ">
<polygon fill="#e0e0e0" stroke="#999999" points="675,-19 622,-19 622,0 675,0 675,-19"/>
<text text-anchor="middle" x="648.5" y="-7" font-family="Helvetica,sans-Serif" font-size="10.00">stdint.h</text>
</a>
</g>
</g>
<!-- Node6&#45;&gt;Node8 -->
<g id="edge7_Node000006_Node000008" class="edge">
<title>Node6&#45;&gt;Node8</title>
<g id="a_edge7_Node000006_Node000008"><a xlink:title=" ">
<path fill="none" stroke="#63b8ff" d="M779.37,-219.82C784.74,-192.4 797.44,-106.47 758.5,-55 749.19,-42.69 713.09,-29.55 684.76,-20.76"/>
<polygon fill="#63b8ff" stroke="#63b8ff" points="685.7,-17.39 675.12,-17.84 683.67,-24.09 685.7,-17.39"/>
</a>
</g>
</g>
<!-- Node9&#45;&gt;Node8 -->
<g id="edge10_Node000009_Node000008" class="edge">
<title>Node9&#45;&gt;Node8</title>
<g id="a_edge10_Node000009_Node000008"><a xlink:title=" ">
<path fill="none" stroke="#63b8ff" d="M543.26,-164.69C551.71,-155.99 564.63,-142.11 574.5,-129 600.15,-94.92 625.49,-51.73 638.83,-28.04"/>
<polygon fill="#63b8ff" stroke="#63b8ff" points="641.97,-29.6 643.78,-19.17 635.85,-26.19 641.97,-29.6"/>
</a>
</g>
</g>
<!-- Node10 -->
<g id="Node000010" class="node">
<title>Node10</title>
<g id="a_Node000010"><a xlink:title=" ">
<polygon fill="#e0e0e0" stroke="#999999" points="565.5,-129 479.5,-129 479.5,-110 565.5,-110 565.5,-129"/>
<text text-anchor="middle" x="522.5" y="-117" font-family="Helvetica,sans-Serif" font-size="10.00">spacepacket.h</text>
</a>
</g>
</g>
<!-- Node9&#45;&gt;Node10 -->
<g id="edge11_Node000009_Node000010" class="edge">
<title>Node9&#45;&gt;Node10</title>
<g id="a_edge11_Node000009_Node000010"><a xlink:title=" ">
<path fill="none" stroke="#63b8ff" d="M532.52,-164.75C530.93,-157.72 528.64,-147.62 526.65,-138.84"/>
<polygon fill="#63b8ff" stroke="#63b8ff" points="530.07,-138.07 524.44,-129.09 523.24,-139.62 530.07,-138.07"/>
</a>
</g>
</g>
<!-- Node11 -->
<g id="Node000011" class="node">
<title>Node11</title>
<g id="a_Node000011"><a xlink:href="user__auth_8h.html" target="_top" xlink:title=" ">
<polygon fill="white" stroke="#666666" points="461.5,-129 387.5,-129 387.5,-110 461.5,-110 461.5,-129"/>
<text text-anchor="middle" x="424.5" y="-117" font-family="Helvetica,sans-Serif" font-size="10.00">user_auth.h</text>
</a>
</g>
</g>
<!-- Node9&#45;&gt;Node11 -->
<g id="edge12_Node000009_Node000011" class="edge">
<title>Node9&#45;&gt;Node11</title>
<g id="a_edge12_Node000009_Node000011"><a xlink:title=" ">
<path fill="none" stroke="#63b8ff" d="M516.83,-164.98C499.21,-156.5 471.92,-143.35 451.57,-133.54"/>
<polygon fill="#63b8ff" stroke="#63b8ff" points="453.02,-130.36 442.49,-129.17 449.98,-136.66 453.02,-130.36"/>
</a>
</g>
</g>
<!-- Node11&#45;&gt;Node8 -->
<g id="edge14_Node000011_Node000008" class="edge">
<title>Node11&#45;&gt;Node8</title>
<g id="a_edge14_Node000011_Node000008"><a xlink:title=" ">
<path fill="none" stroke="#63b8ff" d="M442.45,-109.84C481.71,-90.92 575.35,-45.77 621.65,-23.45"/>
<polygon fill="#63b8ff" stroke="#63b8ff" points="623.29,-26.54 630.77,-19.05 620.25,-20.24 623.29,-26.54"/>
</a>
</g>
</g>
<!-- Node12 -->
<g id="Node000012" class="node">
<title>Node12</title>
<g id="a_Node000012"><a xlink:title=" ">
<polygon fill="#e0e0e0" stroke="#999999" points="603.5,-19 541.5,-19 541.5,0 603.5,0 603.5,-19"/>
<text text-anchor="middle" x="572.5" y="-7" font-family="Helvetica,sans-Serif" font-size="10.00">stdbool.h</text>
</a>
</g>
</g>
<!-- Node11&#45;&gt;Node12 -->
<g id="edge13_Node000011_Node000012" class="edge">
<title>Node11&#45;&gt;Node12</title>
<g id="a_edge13_Node000011_Node000012"><a xlink:title=" ">
<path fill="none" stroke="#63b8ff" d="M436.36,-109.84C461.58,-91.44 520.79,-48.23 552.17,-25.34"/>
<polygon fill="#63b8ff" stroke="#63b8ff" points="554.57,-27.92 560.58,-19.2 550.44,-22.26 554.57,-27.92"/>
</a>
</g>
</g>
<!-- Node13 -->
<g id="Node000013" class="node">
<title>Node13</title>
<g id="a_Node000013"><a xlink:href="filesystem_8h.html" target="_top" xlink:title="Handles file system operations and management.">
<polygon fill="white" stroke="#666666" points="410,-74 333,-74 333,-55 410,-55 410,-74"/>
<text text-anchor="middle" x="371.5" y="-62" font-family="Helvetica,sans-Serif" font-size="10.00">filesystem.h</text>
</a>
</g>
</g>
<!-- Node11&#45;&gt;Node13 -->
<g id="edge15_Node000011_Node000013" class="edge">
<title>Node11&#45;&gt;Node13</title>
<g id="a_edge15_Node000011_Node000013"><a xlink:title=" ">
<path fill="none" stroke="#63b8ff" d="M415.75,-109.75C408.03,-102.03 396.6,-90.6 387.28,-81.28"/>
<polygon fill="#63b8ff" stroke="#63b8ff" points="389.64,-78.69 380.09,-74.09 384.69,-83.64 389.64,-78.69"/>
</a>
</g>
</g>
<!-- Node13&#45;&gt;Node3 -->
<g id="edge16_Node000013_Node000003" class="edge">
<title>Node13&#45;&gt;Node3</title>
<g id="a_edge16_Node000013_Node000003"><a xlink:title=" ">
<path fill="none" stroke="#63b8ff" d="M338.08,-54.98C302.56,-45.93 246.23,-31.58 207.2,-21.64"/>
<polygon fill="#63b8ff" stroke="#63b8ff" points="207.74,-18.16 197.18,-19.08 206.01,-24.94 207.74,-18.16"/>
</a>
</g>
</g>
<!-- Node13&#45;&gt;Node4 -->
<g id="edge17_Node000013_Node000004" class="edge">
<title>Node13&#45;&gt;Node4</title>
<g id="a_edge17_Node000013_Node000004"><a xlink:title=" ">
<path fill="none" stroke="#63b8ff" d="M332.81,-57.33C285.02,-49.58 201.01,-35.48 119.65,-19.15"/>
<polygon fill="#63b8ff" stroke="#63b8ff" points="120.24,-15.7 109.75,-17.15 118.86,-22.56 120.24,-15.7"/>
</a>
</g>
</g>
<!-- Node13&#45;&gt;Node7 -->
<g id="edge22_Node000013_Node000007" class="edge">
<title>Node13&#45;&gt;Node7</title>
<g id="a_edge22_Node000013_Node000007"><a xlink:title=" ">
<path fill="none" stroke="#63b8ff" d="M410.22,-59.06C467.67,-52.25 579.04,-38.15 683.21,-19.1"/>
<polygon fill="#63b8ff" stroke="#63b8ff" points="684.07,-22.5 693.27,-17.24 682.8,-15.62 684.07,-22.5"/>
</a>
</g>
</g>
<!-- Node13&#45;&gt;Node8 -->
<g id="edge23_Node000013_Node000008" class="edge">
<title>Node13&#45;&gt;Node8</title>
<g id="a_edge23_Node000013_Node000008"><a xlink:title=" ">
<path fill="none" stroke="#63b8ff" d="M410.02,-56.99C455.73,-49.13 534.5,-35.17 611.88,-19.04"/>
<polygon fill="#63b8ff" stroke="#63b8ff" points="612.73,-22.44 621.8,-16.96 611.29,-15.59 612.73,-22.44"/>
</a>
</g>
</g>
<!-- Node13&#45;&gt;Node12 -->
<g id="edge24_Node000013_Node000012" class="edge">
<title>Node13&#45;&gt;Node12</title>
<g id="a_edge24_Node000013_Node000012"><a xlink:title=" ">
<path fill="none" stroke="#63b8ff" d="M403.79,-54.98C438.53,-45.82 493.85,-31.24 531.61,-21.28"/>
<polygon fill="#63b8ff" stroke="#63b8ff" points="532.5,-24.67 541.28,-18.73 530.72,-17.9 532.5,-24.67"/>
</a>
</g>
</g>
<!-- Node14 -->
<g id="Node000014" class="node">
<title>Node14</title>
<g id="a_Node000014"><a xlink:title=" ">
<polygon fill="#e0e0e0" stroke="#999999" points="345,-19 298,-19 298,0 345,0 345,-19"/>
<text text-anchor="middle" x="321.5" y="-7" font-family="Helvetica,sans-Serif" font-size="10.00">task.h</text>
</a>
</g>
</g>
<!-- Node13&#45;&gt;Node14 -->
<g id="edge18_Node000013_Node000014" class="edge">
<title>Node13&#45;&gt;Node14</title>
<g id="a_edge18_Node000013_Node000014"><a xlink:title=" ">
<path fill="none" stroke="#63b8ff" d="M363.24,-54.75C356.04,-47.11 345.39,-35.82 336.65,-26.56"/>
<polygon fill="#63b8ff" stroke="#63b8ff" points="339.01,-23.96 329.6,-19.09 333.92,-28.76 339.01,-23.96"/>
</a>
</g>
</g>
<!-- Node15 -->
<g id="Node000015" class="node">
<title>Node15</title>
<g id="a_Node000015"><a xlink:title=" ">
<polygon fill="#e0e0e0" stroke="#999999" points="395.5,-19 363.5,-19 363.5,0 395.5,0 395.5,-19"/>
<text text-anchor="middle" x="379.5" y="-7" font-family="Helvetica,sans-Serif" font-size="10.00">ff.h</text>
</a>
</g>
</g>
<!-- Node13&#45;&gt;Node15 -->
<g id="edge19_Node000013_Node000015" class="edge">
<title>Node13&#45;&gt;Node15</title>
<g id="a_edge19_Node000013_Node000015"><a xlink:title=" ">
<path fill="none" stroke="#63b8ff" d="M372.82,-54.75C373.87,-47.8 375.37,-37.85 376.69,-29.13"/>
<polygon fill="#63b8ff" stroke="#63b8ff" points="380.17,-29.5 378.2,-19.09 373.25,-28.45 380.17,-29.5"/>
</a>
</g>
</g>
<!-- Node16 -->
<g id="Node000016" class="node">
<title>Node16</title>
<g id="a_Node000016"><a xlink:href="filesystem__errors_8h.html" target="_top" xlink:title=" ">
<polygon fill="white" stroke="#666666" points="523.5,-19 413.5,-19 413.5,0 523.5,0 523.5,-19"/>
<text text-anchor="middle" x="468.5" y="-7" font-family="Helvetica,sans-Serif" font-size="10.00">filesystem_errors.h</text>
</a>
</g>
</g>
<!-- Node13&#45;&gt;Node16 -->
<g id="edge20_Node000013_Node000016" class="edge">
<title>Node13&#45;&gt;Node16</title>
<g id="a_edge20_Node000013_Node000016"><a xlink:title=" ">
<path fill="none" stroke="#63b8ff" d="M387.08,-54.98C402.27,-46.69 425.6,-33.94 443.4,-24.22"/>
<polygon fill="#63b8ff" stroke="#63b8ff" points="445.53,-27.04 452.63,-19.17 442.18,-20.89 445.53,-27.04"/>
</a>
</g>
</g>
<!-- Node17 -->
<g id="Node000017" class="node">
<title>Node17</title>
<g id="a_Node000017"><a xlink:title=" ">
<polygon fill="#e0e0e0" stroke="#999999" points="279.5,-19 217.5,-19 217.5,0 279.5,0 279.5,-19"/>
<text text-anchor="middle" x="248.5" y="-7" font-family="Helvetica,sans-Serif" font-size="10.00">semphr.h</text>
</a>
</g>
</g>
<!-- Node13&#45;&gt;Node17 -->
<g id="edge21_Node000013_Node000017" class="edge">
<title>Node13&#45;&gt;Node17</title>
<g id="a_edge21_Node000013_Node000017"><a xlink:title=" ">
<path fill="none" stroke="#63b8ff" d="M351.74,-54.98C331.77,-46.38 300.7,-32.99 277.85,-23.15"/>
<polygon fill="#63b8ff" stroke="#63b8ff" points="279.19,-19.91 268.62,-19.17 276.42,-26.34 279.19,-19.91"/>
</a>
</g>
</g>
<!-- Node18&#45;&gt;Node8 -->
<g id="edge30_Node000018_Node000008" class="edge">
<title>Node18&#45;&gt;Node8</title>
<g id="a_edge30_Node000018_Node000008"><a xlink:title=" ">
<path fill="none" stroke="#63b8ff" d="M659.05,-109.72C656.68,-100.8 653.19,-86.56 651.5,-74 649.49,-59.09 648.77,-42.06 648.53,-29.39"/>
<polygon fill="#63b8ff" stroke="#63b8ff" points="652.03,-29.14 648.43,-19.17 645.03,-29.2 652.03,-29.14"/>
</a>
</g>
</g>
<!-- Node19 -->
<g id="Node000019" class="node">
<title>Node19</title>
<g id="a_Node000019"><a xlink:href="simulator_2pico-sdk_2hardware_2i2c_8h.html" target="_top" xlink:title=" ">
<polygon fill="white" stroke="#666666" points="749,-74 660,-74 660,-55 749,-55 749,-74"/>
<text text-anchor="middle" x="704.5" y="-62" font-family="Helvetica,sans-Serif" font-size="10.00">hardware/i2c.h</text>
</a>
</g>
</g>
<!-- Node18&#45;&gt;Node19 -->
<g id="edge26_Node000018_Node000019" class="edge">
<title>Node18&#45;&gt;Node19</title>
<g id="a_edge26_Node000018_Node000019"><a xlink:title=" ">
<path fill="none" stroke="#63b8ff" d="M668.6,-109.75C674.67,-102.26 683.59,-91.28 691.01,-82.13"/>
<polygon fill="#63b8ff" stroke="#63b8ff" points="693.95,-84.06 697.53,-74.09 688.51,-79.65 693.95,-84.06"/>
</a>
</g>
</g>
<!-- Node19&#45;&gt;Node7 -->
<g id="edge28_Node000019_Node000007" class="edge">
<title>Node19&#45;&gt;Node7</title>
<g id="a_edge28_Node000019_Node000007"><a xlink:title=" ">
<path fill="none" stroke="#63b8ff" d="M707.31,-54.75C709.56,-47.72 712.8,-37.62 715.62,-28.84"/>
<polygon fill="#63b8ff" stroke="#63b8ff" points="719.02,-29.68 718.75,-19.09 712.36,-27.54 719.02,-29.68"/>
</a>
</g>
</g>
<!-- Node19&#45;&gt;Node8 -->
<g id="edge27_Node000019_Node000008" class="edge">
<title>Node19&#45;&gt;Node8</title>
<g id="a_edge27_Node000019_Node000008"><a xlink:title=" ">
<path fill="none" stroke="#63b8ff" d="M695.5,-54.98C687.31,-47.23 674.99,-35.58 665.03,-26.14"/>
<polygon fill="#63b8ff" stroke="#63b8ff" points="667.33,-23.5 657.66,-19.17 662.52,-28.59 667.33,-23.5"/>
</a>
</g>
</g>
<!-- Node19&#45;&gt;Node12 -->
<g id="edge29_Node000019_Node000012" class="edge">
<title>Node19&#45;&gt;Node12</title>
<g id="a_edge29_Node000019_Node000012"><a xlink:title=" ">
<path fill="none" stroke="#63b8ff" d="M683.29,-54.98C661.77,-46.34 628.22,-32.87 603.67,-23.02"/>
<polygon fill="#63b8ff" stroke="#63b8ff" points="604.68,-19.65 594.09,-19.17 602.07,-26.14 604.68,-19.65"/>
</a>
</g>
</g>
<!-- Node20&#45;&gt;Node19 -->
<g id="edge32_Node000020_Node000019" class="edge">
<title>Node20&#45;&gt;Node19</title>
<g id="a_edge32_Node000020_Node000019"><a xlink:title=" ">
<path fill="none" stroke="#63b8ff" d="M716.62,-164.86C715.35,-152.64 712.9,-129.6 710.5,-110 709.46,-101.48 708.2,-92.06 707.11,-84.08"/>
<polygon fill="#63b8ff" stroke="#63b8ff" points="710.55,-83.45 705.71,-74.02 703.62,-84.41 710.55,-83.45"/>
</a>
</g>
</g>
<!-- Node21&#45;&gt;Node12 -->
<g id="edge41_Node000021_Node000012" class="edge">
<title>Node21&#45;&gt;Node12</title>
<g id="a_edge41_Node000021_Node000012"><a xlink:title=" ">
<path fill="none" stroke="#63b8ff" d="M358.41,-219.77C356.26,-198.69 353.65,-144.23 378.5,-110 399.03,-81.71 490.91,-42.45 540.51,-22.78"/>
<polygon fill="#63b8ff" stroke="#63b8ff" points="541.8,-26.03 549.83,-19.11 539.24,-19.51 541.8,-26.03"/>
</a>
</g>
</g>
<!-- Node22 -->
<g id="Node000022" class="node">
<title>Node22</title>
<g id="a_Node000022"><a xlink:href="telemetry_8h.html" target="_top" xlink:title="Functions for packaging and queuing telemetry packets for sending.">
<polygon fill="white" stroke="#666666" points="308.5,-184 236.5,-184 236.5,-165 308.5,-165 308.5,-184"/>
<text text-anchor="middle" x="272.5" y="-172" font-family="Helvetica,sans-Serif" font-size="10.00">telemetry.h</text>
</a>
</g>
</g>
<!-- Node21&#45;&gt;Node22 -->
<g id="edge34_Node000021_Node000022" class="edge">
<title>Node21&#45;&gt;Node22</title>
<g id="a_edge34_Node000021_Node000022"><a xlink:title=" ">
<path fill="none" stroke="#63b8ff" d="M345.52,-219.98C332.03,-211.77 311.37,-199.18 295.46,-189.49"/>
<polygon fill="#63b8ff" stroke="#63b8ff" points="297.09,-186.38 286.73,-184.17 293.45,-192.36 297.09,-186.38"/>
</a>
</g>
</g>
<!-- Node22&#45;&gt;Node3 -->
<g id="edge35_Node000022_Node000003" class="edge">
<title>Node22&#45;&gt;Node3</title>
<g id="a_edge35_Node000022_Node000003"><a xlink:title=" ">
<path fill="none" stroke="#63b8ff" d="M277.35,-164.96C283.77,-152.46 293.42,-128.64 285.5,-110 267.95,-68.69 222.71,-39.43 192.53,-23.77"/>
<polygon fill="#63b8ff" stroke="#63b8ff" points="193.82,-20.5 183.31,-19.16 190.69,-26.76 193.82,-20.5"/>
</a>
</g>
</g>
<!-- Node22&#45;&gt;Node4 -->
<g id="edge36_Node000022_Node000004" class="edge">
<title>Node22&#45;&gt;Node4</title>
<g id="a_edge36_Node000022_Node000004"><a xlink:title=" ">
<path fill="none" stroke="#63b8ff" d="M246.55,-164.99C226.4,-157.56 198.44,-145.39 177.5,-129 139.95,-99.61 107.72,-52.93 91.91,-27.83"/>
<polygon fill="#63b8ff" stroke="#63b8ff" points="94.74,-25.74 86.51,-19.06 88.78,-29.41 94.74,-25.74"/>
</a>
</g>
</g>
<!-- Node23 -->
<g id="Node000023" class="node">
<title>Node23</title>
<g id="a_Node000023"><a xlink:href="file__downlink_8h.html" target="_top" xlink:title=" ">
<polygon fill="white" stroke="#666666" points="276.5,-129 186.5,-129 186.5,-110 276.5,-110 276.5,-129"/>
<text text-anchor="middle" x="231.5" y="-117" font-family="Helvetica,sans-Serif" font-size="10.00">file_downlink.h</text>
</a>
</g>
</g>
<!-- Node22&#45;&gt;Node23 -->
<g id="edge37_Node000022_Node000023" class="edge">
<title>Node22&#45;&gt;Node23</title>
<g id="a_edge37_Node000022_Node000023"><a xlink:title=" ">
<path fill="none" stroke="#63b8ff" d="M265.73,-164.75C259.94,-157.26 251.44,-146.28 244.36,-137.13"/>
<polygon fill="#63b8ff" stroke="#63b8ff" points="247.03,-134.86 238.14,-129.09 241.49,-139.14 247.03,-134.86"/>
</a>
</g>
</g>
<!-- Node23&#45;&gt;Node3 -->
<g id="edge38_Node000023_Node000003" class="edge">
<title>Node23&#45;&gt;Node3</title>
<g id="a_edge38_Node000023_Node000003"><a xlink:title=" ">
<path fill="none" stroke="#63b8ff" d="M229.82,-109.71C227.08,-96.91 220.79,-72.71 209.5,-55 202.46,-43.95 192.14,-33.64 183.07,-25.73"/>
<polygon fill="#63b8ff" stroke="#63b8ff" points="185.13,-22.9 175.21,-19.19 180.65,-28.28 185.13,-22.9"/>
</a>
</g>
</g>
<!-- Node23&#45;&gt;Node4 -->
<g id="edge39_Node000023_Node000004" class="edge">
<title>Node23&#45;&gt;Node4</title>
<g id="a_edge39_Node000023_Node000004"><a xlink:title=" ">
<path fill="none" stroke="#63b8ff" d="M219.48,-109.84C193.81,-91.36 133.39,-47.86 101.7,-25.05"/>
<polygon fill="#63b8ff" stroke="#63b8ff" points="103.74,-22.2 93.58,-19.2 99.65,-27.88 103.74,-22.2"/>
</a>
</g>
</g>
<!-- Node23&#45;&gt;Node13 -->
<g id="edge40_Node000023_Node000013" class="edge">
<title>Node23&#45;&gt;Node13</title>
<g id="a_edge40_Node000023_Node000013"><a xlink:title=" ">
<path fill="none" stroke="#63b8ff" d="M253.99,-109.98C277.02,-101.27 313.04,-87.63 339.13,-77.75"/>
<polygon fill="#63b8ff" stroke="#63b8ff" points="340.48,-80.98 348.6,-74.17 338.01,-74.44 340.48,-80.98"/>
</a>
</g>
</g>
</g>
</svg>
