<?xml version="1.0" encoding="UTF-8" standalone="no"?>
<!DOCTYPE svg PUBLIC "-//W3C//DTD SVG 1.1//EN"
 "http://www.w3.org/Graphics/SVG/1.1/DTD/svg11.dtd">
<!-- Generated by graphviz version 2.43.0 (0)
 -->
<!-- Title: gse.c Pages: 1 -->
<svg width="928pt" height="302pt"
 viewBox="0.00 0.00 928.00 302.00" xmlns="http://www.w3.org/2000/svg" xmlns:xlink="http://www.w3.org/1999/xlink">
<g id="graph0" class="graph" transform="scale(1 1) rotate(0) translate(4 298)">
<title>gse.c</title>
<!-- Node1 -->
<g id="Node000001" class="node">
<title>Node1</title>
<g id="a_Node000001"><a xlink:title=" ">
<polygon fill="#999999" stroke="#666666" points="633.5,-294 591.5,-294 591.5,-275 633.5,-275 633.5,-294"/>
<text text-anchor="middle" x="612.5" y="-282" font-family="Helvetica,sans-Serif" font-size="10.00">gse.c</text>
</a>
</g>
</g>
<!-- Node2 -->
<g id="Node000002" class="node">
<title>Node2</title>
<g id="a_Node000002"><a xlink:title=" ">
<polygon fill="#e0e0e0" stroke="#999999" points="53,-239 0,-239 0,-220 53,-220 53,-239"/>
<text text-anchor="middle" x="26.5" y="-227" font-family="Helvetica,sans-Serif" font-size="10.00">string.h</text>
</a>
</g>
</g>
<!-- Node1&#45;&gt;Node2 -->
<g id="edge1_Node000001_Node000002" class="edge">
<title>Node1&#45;&gt;Node2</title>
<g id="a_edge1_Node000001_Node000002"><a xlink:title=" ">
<path fill="none" stroke="#63b8ff" d="M591.35,-282.71C518.34,-279.78 270.23,-268.18 67.5,-239 66.2,-238.81 64.89,-238.61 63.56,-238.4"/>
<polygon fill="#63b8ff" stroke="#63b8ff" points="63.78,-234.88 53.32,-236.55 62.54,-241.77 63.78,-234.88"/>
</a>
</g>
</g>
<!-- Node3 -->
<g id="Node000003" class="node">
<title>Node3</title>
<g id="a_Node000003"><a xlink:title=" ">
<polygon fill="#e0e0e0" stroke="#999999" points="201,-19 128,-19 128,0 201,0 201,-19"/>
<text text-anchor="middle" x="164.5" y="-7" font-family="Helvetica,sans-Serif" font-size="10.00">FreeRTOS.h</text>
</a>
</g>
</g>
<!-- Node1&#45;&gt;Node3 -->
<g id="edge2_Node000001_Node000003" class="edge">
<title>Node1&#45;&gt;Node3</title>
<g id="a_edge2_Node000001_Node000003"><a xlink:title=" ">
<path fill="none" stroke="#63b8ff" d="M591.21,-282.52C543.63,-279.83 425.59,-270.27 332.5,-239 283.31,-222.48 270.75,-215.49 229.5,-184 202.76,-163.59 191.62,-159.53 177.5,-129 162.41,-96.39 161.81,-53.52 162.98,-29.3"/>
<polygon fill="#63b8ff" stroke="#63b8ff" points="166.5,-29.23 163.65,-19.03 159.51,-28.78 166.5,-29.23"/>
</a>
</g>
</g>
<!-- Node4 -->
<g id="Node000004" class="node">
<title>Node4</title>
<g id="a_Node000004"><a xlink:title=" ">
<polygon fill="#e0e0e0" stroke="#999999" points="109.5,-19 53.5,-19 53.5,0 109.5,0 109.5,-19"/>
<text text-anchor="middle" x="81.5" y="-7" font-family="Helvetica,sans-Serif" font-size="10.00">queue.h</text>
</a>
</g>
</g>
<!-- Node1&#45;&gt;Node4 -->
<g id="edge3_Node000001_Node000004" class="edge">
<title>Node1&#45;&gt;Node4</title>
<g id="a_edge3_Node000001_Node000004"><a xlink:title=" ">
<path fill="none" stroke="#63b8ff" d="M591.36,-283.79C492.6,-284.57 81.5,-281.45 81.5,-175.5 81.5,-175.5 81.5,-175.5 81.5,-118.5 81.5,-87.19 81.5,-50.77 81.5,-29.23"/>
<polygon fill="#63b8ff" stroke="#63b8ff" points="85,-29.18 81.5,-19.18 78,-29.18 85,-29.18"/>
</a>
</g>
</g>
<!-- Node5 -->
<g id="Node000005" class="node">
<title>Node5</title>
<g id="a_Node000005"><a xlink:href="stdio_8h.html" target="_top" xlink:title=" ">
<polygon fill="white" stroke="#666666" points="920,-184 847,-184 847,-165 920,-165 920,-184"/>
<text text-anchor="middle" x="883.5" y="-172" font-family="Helvetica,sans-Serif" font-size="10.00">pico/stdio.h</text>
</a>
</g>
</g>
<!-- Node1&#45;&gt;Node5 -->
<g id="edge4_Node000001_Node000005" class="edge">
<title>Node1&#45;&gt;Node5</title>
<g id="a_edge4_Node000001_Node000005"><a xlink:title=" ">
<path fill="none" stroke="#63b8ff" d="M633.71,-283.14C673.46,-281.6 760.79,-274.14 823.5,-239 843.88,-227.58 861.46,-206.91 872.23,-192.26"/>
<polygon fill="#63b8ff" stroke="#63b8ff" points="875.11,-194.24 878.02,-184.05 869.39,-190.21 875.11,-194.24"/>
</a>
</g>
</g>
<!-- Node6 -->
<g id="Node000006" class="node">
<title>Node6</title>
<g id="a_Node000006"><a xlink:href="usb__uart_8h.html" target="_top" xlink:title="Serial Communication Driver (USB/UART).">
<polygon fill="white" stroke="#666666" points="814.5,-239 746.5,-239 746.5,-220 814.5,-220 814.5,-239"/>
<text text-anchor="middle" x="780.5" y="-227" font-family="Helvetica,sans-Serif" font-size="10.00">usb_uart.h</text>
</a>
</g>
</g>
<!-- Node1&#45;&gt;Node6 -->
<g id="edge5_Node000001_Node000006" class="edge">
<title>Node1&#45;&gt;Node6</title>
<g id="a_edge5_Node000001_Node000006"><a xlink:title=" ">
<path fill="none" stroke="#63b8ff" d="M633.78,-276.79C661.3,-268.1 709.7,-252.83 743.36,-242.22"/>
<polygon fill="#63b8ff" stroke="#63b8ff" points="744.8,-245.43 753.29,-239.09 742.7,-238.76 744.8,-245.43"/>
</a>
</g>
</g>
<!-- Node9 -->
<g id="Node000009" class="node">
<title>Node9</title>
<g id="a_Node000009"><a xlink:href="command_8h.html" target="_top" xlink:title="Handles decoding and triggering responses to received commands.">
<polygon fill="white" stroke="#666666" points="574.5,-184 500.5,-184 500.5,-165 574.5,-165 574.5,-184"/>
<text text-anchor="middle" x="537.5" y="-172" font-family="Helvetica,sans-Serif" font-size="10.00">command.h</text>
</a>
</g>
</g>
<!-- Node1&#45;&gt;Node9 -->
<g id="edge9_Node000001_Node000009" class="edge">
<title>Node1&#45;&gt;Node9</title>
<g id="a_edge9_Node000001_Node000009"><a xlink:title=" ">
<path fill="none" stroke="#63b8ff" d="M606.36,-274.66C593.88,-256.69 565.38,-215.64 549.22,-192.38"/>
<polygon fill="#63b8ff" stroke="#63b8ff" points="552.09,-190.38 543.51,-184.16 546.34,-194.37 552.09,-190.38"/>
</a>
</g>
</g>
<!-- Node18 -->
<g id="Node000018" class="node">
<title>Node18</title>
<g id="a_Node000018"><a xlink:href="rtc__ds3231_8h.html" target="_top" xlink:title="DS3231 Real Time Clock Driver.">
<polygon fill="white" stroke="#666666" points="704,-129 625,-129 625,-110 704,-110 704,-129"/>
<text text-anchor="middle" x="664.5" y="-117" font-family="Helvetica,sans-Serif" font-size="10.00">rtc_ds3231.h</text>
</a>
</g>
</g>
<!-- Node1&#45;&gt;Node18 -->
<g id="edge25_Node000001_Node000018" class="edge">
<title>Node1&#45;&gt;Node18</title>
<g id="a_edge25_Node000001_Node000018"><a xlink:title=" ">
<path fill="none" stroke="#63b8ff" d="M615.3,-274.74C623.44,-249.2 647.3,-174.43 658.52,-139.23"/>
<polygon fill="#63b8ff" stroke="#63b8ff" points="661.99,-139.9 661.69,-129.31 655.32,-137.77 661.99,-139.9"/>
</a>
</g>
</g>
<!-- Node20 -->
<g id="Node000020" class="node">
<title>Node20</title>
<g id="a_Node000020"><a xlink:href="ina219_8h.html" target="_top" xlink:title="INA219 Driver.">
<polygon fill="white" stroke="#666666" points="750,-184 691,-184 691,-165 750,-165 750,-184"/>
<text text-anchor="middle" x="720.5" y="-172" font-family="Helvetica,sans-Serif" font-size="10.00">ina219.h</text>
</a>
</g>
</g>
<!-- Node1&#45;&gt;Node20 -->
<g id="edge31_Node000001_Node000020" class="edge">
<title>Node1&#45;&gt;Node20</title>
<g id="a_edge31_Node000001_Node000020"><a xlink:title=" ">
<path fill="none" stroke="#63b8ff" d="M621.34,-274.66C639.54,-256.46 681.45,-214.55 704.53,-191.47"/>
<polygon fill="#63b8ff" stroke="#63b8ff" points="707.25,-193.7 711.84,-184.16 702.3,-188.75 707.25,-193.7"/>
</a>
</g>
</g>
<!-- Node21 -->
<g id="Node000021" class="node">
<title>Node21</title>
<g id="a_Node000021"><a xlink:href="log_8h.html" target="_top" xlink:title=" ">
<polygon fill="white" stroke="#666666" points="383,-239 342,-239 342,-220 383,-220 383,-239"/>
<text text-anchor="middle" x="362.5" y="-227" font-family="Helvetica,sans-Serif" font-size="10.00">log.h</text>
</a>
</g>
</g>
<!-- Node1&#45;&gt;Node21 -->
<g id="edge33_Node000001_Node000021" class="edge">
<title>Node1&#45;&gt;Node21</title>
<g id="a_edge33_Node000001_Node000021"><a xlink:title=" ">
<path fill="none" stroke="#63b8ff" d="M591.19,-278.98C546.78,-269.57 444.22,-247.82 392.9,-236.94"/>
<polygon fill="#63b8ff" stroke="#63b8ff" points="393.57,-233.51 383.06,-234.86 392.11,-240.36 393.57,-233.51"/>
</a>
</g>
</g>
<!-- Node24 -->
<g id="Node000024" class="node">
<title>Node24</title>
<g id="a_Node000024"><a xlink:href="gse_8h.html" target="_top" xlink:title="Handles hardline communication over USB.">
<polygon fill="white" stroke="#666666" points="914,-239 871,-239 871,-220 914,-220 914,-239"/>
<text text-anchor="middle" x="892.5" y="-227" font-family="Helvetica,sans-Serif" font-size="10.00">gse.h</text>
</a>
</g>
</g>
<!-- Node1&#45;&gt;Node24 -->
<g id="edge42_Node000001_Node000024" class="edge">
<title>Node1&#45;&gt;Node24</title>
<g id="a_edge42_Node000001_Node000024"><a xlink:title=" ">
<path fill="none" stroke="#63b8ff" d="M633.79,-280C676.26,-272.92 774.52,-256.14 856.5,-239 857.95,-238.7 859.44,-238.38 860.94,-238.05"/>
<polygon fill="#63b8ff" stroke="#63b8ff" points="861.86,-241.43 870.84,-235.81 860.31,-234.6 861.86,-241.43"/>
</a>
</g>
</g>
<!-- Node6&#45;&gt;Node5 -->
<g id="edge8_Node000006_Node000005" class="edge">
<title>Node6&#45;&gt;Node5</title>
<g id="a_edge8_Node000006_Node000005"><a xlink:title=" ">
<path fill="none" stroke="#63b8ff" d="M797.05,-219.98C813.39,-211.57 838.63,-198.59 857.63,-188.81"/>
<polygon fill="#63b8ff" stroke="#63b8ff" points="859.36,-191.86 866.65,-184.17 856.16,-185.63 859.36,-191.86"/>
</a>
</g>
</g>
<!-- Node7 -->
<g id="Node000007" class="node">
<title>Node7</title>
<g id="a_Node000007"><a xlink:title=" ">
<polygon fill="#e0e0e0" stroke="#999999" points="753.5,-19 697.5,-19 697.5,0 753.5,0 753.5,-19"/>
<text text-anchor="middle" x="725.5" y="-7" font-family="Helvetica,sans-Serif" font-size="10.00">stddef.h</text>
</a>
</g>
</g>
<!-- Node6&#45;&gt;Node7 -->
<g id="edge6_Node000006_Node000007" class="edge">
<title>Node6&#45;&gt;Node7</title>
<g id="a_edge6_Node000006_Node000007"><a xlink:title=" ">
<path fill="none" stroke="#63b8ff" d="M784.32,-219.87C795.44,-193.32 825.16,-111.25 794.5,-55 786.85,-40.97 772.67,-30.69 759.14,-23.57"/>
<polygon fill="#63b8ff" stroke="#63b8ff" points="760.49,-20.34 749.97,-19.14 757.45,-26.64 760.49,-20.34"/>
</a>
</g>
</g>
<!-- Node8 -->
<g id="Node000008" class="node">
<title>Node8</title>
<g id="a_Node000008"><a xlink:title=" ">
<polygon fill="#e0e0e0" stroke="#999999" points="679,-19 626,-19 626,0 679,0 679,-19"/>
<text text-anchor="middle" x="652.5" y="-7" font-family="Helvetica,sans-Serif" font-size="10.00">stdint.h</text>
</a>
</g>
</g>
<!-- Node6&#45;&gt;Node8 -->
<g id="edge7_Node000006_Node000008" class="edge">
<title>Node6&#45;&gt;Node8</title>
<g id="a_edge7_Node000006_Node000008"><a xlink:title=" ">
<path fill="none" stroke="#63b8ff" d="M782.36,-219.82C787.71,-192.42 800.36,-106.53 761.5,-55 752.35,-42.86 717.04,-29.81 689.05,-21"/>
<polygon fill="#63b8ff" stroke="#63b8ff" points="689.72,-17.54 679.14,-17.95 687.67,-24.24 689.72,-17.54"/>
</a>
</g>
</g>
<!-- Node9&#45;&gt;Node8 -->
<g id="edge10_Node000009_Node000008" class="edge">
<title>Node9&#45;&gt;Node8</title>
<g id="a_edge10_Node000009_Node000008"><a xlink:title=" ">
<path fill="none" stroke="#63b8ff" d="M546.24,-164.68C554.68,-155.97 567.59,-142.08 577.5,-129 603.35,-94.87 629.08,-51.7 642.66,-28.03"/>
<polygon fill="#63b8ff" stroke="#63b8ff" points="645.8,-29.58 647.69,-19.16 639.71,-26.12 645.8,-29.58"/>
</a>
</g>
</g>
<!-- Node10 -->
<g id="Node000010" class="node">
<title>Node10</title>
<g id="a_Node000010"><a xlink:title=" ">
<polygon fill="#e0e0e0" stroke="#999999" points="568.5,-129 482.5,-129 482.5,-110 568.5,-110 568.5,-129"/>
<text text-anchor="middle" x="525.5" y="-117" font-family="Helvetica,sans-Serif" font-size="10.00">spacepacket.h</text>
</a>
</g>
</g>
<!-- Node9&#45;&gt;Node10 -->
<g id="edge11_Node000009_Node000010" class="edge">
<title>Node9&#45;&gt;Node10</title>
<g id="a_edge11_Node000009_Node000010"><a xlink:title=" ">
<path fill="none" stroke="#63b8ff" d="M535.52,-164.75C533.93,-157.72 531.64,-147.62 529.65,-138.84"/>
<polygon fill="#63b8ff" stroke="#63b8ff" points="533.07,-138.07 527.44,-129.09 526.24,-139.62 533.07,-138.07"/>
</a>
</g>
</g>
<!-- Node11 -->
<g id="Node000011" class="node">
<title>Node11</title>
<g id="a_Node000011"><a xlink:href="user__auth_8h.html" target="_top" xlink:title=" ">
<polygon fill="white" stroke="#666666" points="464.5,-129 390.5,-129 390.5,-110 464.5,-110 464.5,-129"/>
<text text-anchor="middle" x="427.5" y="-117" font-family="Helvetica,sans-Serif" font-size="10.00">user_auth.h</text>
</a>
</g>
</g>
<!-- Node9&#45;&gt;Node11 -->
<g id="edge12_Node000009_Node000011" class="edge">
<title>Node9&#45;&gt;Node11</title>
<g id="a_edge12_Node000009_Node000011"><a xlink:title=" ">
<path fill="none" stroke="#63b8ff" d="M519.83,-164.98C502.21,-156.5 474.92,-143.35 454.57,-133.54"/>
<polygon fill="#63b8ff" stroke="#63b8ff" points="456.02,-130.36 445.49,-129.17 452.98,-136.66 456.02,-130.36"/>
</a>
</g>
</g>
<!-- Node11&#45;&gt;Node8 -->
<g id="edge14_Node000011_Node000008" class="edge">
<title>Node11&#45;&gt;Node8</title>
<g id="a_edge14_Node000011_Node000008"><a xlink:title=" ">
<path fill="none" stroke="#63b8ff" d="M445.53,-109.84C484.96,-90.92 579.03,-45.77 625.53,-23.45"/>
<polygon fill="#63b8ff" stroke="#63b8ff" points="627.19,-26.53 634.69,-19.05 624.16,-20.22 627.19,-26.53"/>
</a>
</g>
</g>
<!-- Node12 -->
<g id="Node000012" class="node">
<title>Node12</title>
<g id="a_Node000012"><a xlink:title=" ">
<polygon fill="#e0e0e0" stroke="#999999" points="607.5,-19 545.5,-19 545.5,0 607.5,0 607.5,-19"/>
<text text-anchor="middle" x="576.5" y="-7" font-family="Helvetica,sans-Serif" font-size="10.00">stdbool.h</text>
</a>
</g>
</g>
<!-- Node11&#45;&gt;Node12 -->
<g id="edge13_Node000011_Node000012" class="edge">
<title>Node11&#45;&gt;Node12</title>
<g id="a_edge13_Node000011_Node000012"><a xlink:title=" ">
<path fill="none" stroke="#63b8ff" d="M439.44,-109.84C464.83,-91.44 524.44,-48.23 556.03,-25.34"/>
<polygon fill="#63b8ff" stroke="#63b8ff" points="558.46,-27.9 564.5,-19.2 554.35,-22.23 558.46,-27.9"/>
</a>
</g>
</g>
<!-- Node13 -->
<g id="Node000013" class="node">
<title>Node13</title>
<g id="a_Node000013"><a xlink:href="filesystem_8h.html" target="_top" xlink:title="Handles file system operations and management.">
<polygon fill="white" stroke="#666666" points="412,-74 335,-74 335,-55 412,-55 412,-74"/>
<text text-anchor="middle" x="373.5" y="-62" font-family="Helvetica,sans-Serif" font-size="10.00">filesystem.h</text>
</a>
</g>
</g>
<!-- Node11&#45;&gt;Node13 -->
<g id="edge15_Node000011_Node000013" class="edge">
<title>Node11&#45;&gt;Node13</title>
<g id="a_edge15_Node000011_Node000013"><a xlink:title=" ">
<path fill="none" stroke="#63b8ff" d="M418.58,-109.75C410.72,-102.03 399.07,-90.6 389.58,-81.28"/>
<polygon fill="#63b8ff" stroke="#63b8ff" points="391.84,-78.6 382.25,-74.09 386.94,-83.59 391.84,-78.6"/>
</a>
</g>
</g>
<!-- Node13&#45;&gt;Node3 -->
<g id="edge16_Node000013_Node000003" class="edge">
<title>Node13&#45;&gt;Node3</title>
<g id="a_edge16_Node000013_Node000003"><a xlink:title=" ">
<path fill="none" stroke="#63b8ff" d="M339.92,-54.98C304.15,-45.91 247.38,-31.52 208.16,-21.57"/>
<polygon fill="#63b8ff" stroke="#63b8ff" points="208.9,-18.15 198.34,-19.08 207.18,-24.93 208.9,-18.15"/>
</a>
</g>
</g>
<!-- Node13&#45;&gt;Node4 -->
<g id="edge17_Node000013_Node000004" class="edge">
<title>Node13&#45;&gt;Node4</title>
<g id="a_edge17_Node000013_Node000004"><a xlink:title=" ">
<path fill="none" stroke="#63b8ff" d="M334.93,-57.42C286.84,-49.7 201.89,-35.59 119.75,-19.17"/>
<polygon fill="#63b8ff" stroke="#63b8ff" points="120.24,-15.7 109.75,-17.15 118.86,-22.56 120.24,-15.7"/>
</a>
</g>
</g>
<!-- Node13&#45;&gt;Node7 -->
<g id="edge22_Node000013_Node000007" class="edge">
<title>Node13&#45;&gt;Node7</title>
<g id="a_edge22_Node000013_Node000007"><a xlink:title=" ">
<path fill="none" stroke="#63b8ff" d="M412.47,-59.08C470.28,-52.29 582.37,-38.22 687.15,-19.11"/>
<polygon fill="#63b8ff" stroke="#63b8ff" points="688.07,-22.5 697.27,-17.25 686.8,-15.62 688.07,-22.5"/>
</a>
</g>
</g>
<!-- Node13&#45;&gt;Node8 -->
<g id="edge23_Node000013_Node000008" class="edge">
<title>Node13&#45;&gt;Node8</title>
<g id="a_edge23_Node000013_Node000008"><a xlink:title=" ">
<path fill="none" stroke="#63b8ff" d="M412.34,-57.01C458.44,-49.18 537.86,-35.24 615.81,-19.05"/>
<polygon fill="#63b8ff" stroke="#63b8ff" points="616.73,-22.44 625.8,-16.96 615.29,-15.58 616.73,-22.44"/>
</a>
</g>
</g>
<!-- Node13&#45;&gt;Node12 -->
<g id="edge24_Node000013_Node000012" class="edge">
<title>Node13&#45;&gt;Node12</title>
<g id="a_edge24_Node000013_Node000012"><a xlink:title=" ">
<path fill="none" stroke="#63b8ff" d="M406.12,-54.98C441.3,-45.8 497.4,-31.15 535.53,-21.2"/>
<polygon fill="#63b8ff" stroke="#63b8ff" points="536.51,-24.56 545.3,-18.65 534.74,-17.79 536.51,-24.56"/>
</a>
</g>
</g>
<!-- Node14 -->
<g id="Node000014" class="node">
<title>Node14</title>
<g id="a_Node000014"><a xlink:title=" ">
<polygon fill="#e0e0e0" stroke="#999999" points="347,-19 300,-19 300,0 347,0 347,-19"/>
<text text-anchor="middle" x="323.5" y="-7" font-family="Helvetica,sans-Serif" font-size="10.00">task.h</text>
</a>
</g>
</g>
<!-- Node13&#45;&gt;Node14 -->
<g id="edge18_Node000013_Node000014" class="edge">
<title>Node13&#45;&gt;Node14</title>
<g id="a_edge18_Node000013_Node000014"><a xlink:title=" ">
<path fill="none" stroke="#63b8ff" d="M365.24,-54.75C358.04,-47.11 347.39,-35.82 338.65,-26.56"/>
<polygon fill="#63b8ff" stroke="#63b8ff" points="341.01,-23.96 331.6,-19.09 335.92,-28.76 341.01,-23.96"/>
</a>
</g>
</g>
<!-- Node15 -->
<g id="Node000015" class="node">
<title>Node15</title>
<g id="a_Node000015"><a xlink:title=" ">
<polygon fill="#e0e0e0" stroke="#999999" points="397.5,-19 365.5,-19 365.5,0 397.5,0 397.5,-19"/>
<text text-anchor="middle" x="381.5" y="-7" font-family="Helvetica,sans-Serif" font-size="10.00">ff.h</text>
</a>
</g>
</g>
<!-- Node13&#45;&gt;Node15 -->
<g id="edge19_Node000013_Node000015" class="edge">
<title>Node13&#45;&gt;Node15</title>
<g id="a_edge19_Node000013_Node000015"><a xlink:title=" ">
<path fill="none" stroke="#63b8ff" d="M374.82,-54.75C375.87,-47.8 377.37,-37.85 378.69,-29.13"/>
<polygon fill="#63b8ff" stroke="#63b8ff" points="382.17,-29.5 380.2,-19.09 375.25,-28.45 382.17,-29.5"/>
</a>
</g>
</g>
<!-- Node16 -->
<g id="Node000016" class="node">
<title>Node16</title>
<g id="a_Node000016"><a xlink:href="filesystem__errors_8h.html" target="_top" xlink:title=" ">
<polygon fill="white" stroke="#666666" points="527,-19 416,-19 416,0 527,0 527,-19"/>
<text text-anchor="middle" x="471.5" y="-7" font-family="Helvetica,sans-Serif" font-size="10.00">filesystem_errors.h</text>
</a>
</g>
</g>
<!-- Node13&#45;&gt;Node16 -->
<g id="edge20_Node000013_Node000016" class="edge">
<title>Node13&#45;&gt;Node16</title>
<g id="a_edge20_Node000013_Node000016"><a xlink:title=" ">
<path fill="none" stroke="#63b8ff" d="M389.25,-54.98C404.73,-46.61 428.59,-33.7 446.64,-23.95"/>
<polygon fill="#63b8ff" stroke="#63b8ff" points="448.34,-27.01 455.47,-19.17 445.01,-20.85 448.34,-27.01"/>
</a>
</g>
</g>
<!-- Node17 -->
<g id="Node000017" class="node">
<title>Node17</title>
<g id="a_Node000017"><a xlink:title=" ">
<polygon fill="#e0e0e0" stroke="#999999" points="281.5,-19 219.5,-19 219.5,0 281.5,0 281.5,-19"/>
<text text-anchor="middle" x="250.5" y="-7" font-family="Helvetica,sans-Serif" font-size="10.00">semphr.h</text>
</a>
</g>
</g>
<!-- Node13&#45;&gt;Node17 -->
<g id="edge21_Node000013_Node000017" class="edge">
<title>Node13&#45;&gt;Node17</title>
<g id="a_edge21_Node000013_Node000017"><a xlink:title=" ">
<path fill="none" stroke="#63b8ff" d="M353.74,-54.98C333.77,-46.38 302.7,-32.99 279.85,-23.15"/>
<polygon fill="#63b8ff" stroke="#63b8ff" points="281.19,-19.91 270.62,-19.17 278.42,-26.34 281.19,-19.91"/>
</a>
</g>
</g>
<!-- Node18&#45;&gt;Node8 -->
<g id="edge30_Node000018_Node000008" class="edge">
<title>Node18&#45;&gt;Node8</title>
<g id="a_edge30_Node000018_Node000008"><a xlink:title=" ">
<path fill="none" stroke="#63b8ff" d="M662.01,-109.72C659.6,-100.81 656.1,-86.57 654.5,-74 652.61,-59.09 652.16,-42.06 652.16,-29.39"/>
<polygon fill="#63b8ff" stroke="#63b8ff" points="655.66,-29.2 652.26,-19.17 648.66,-29.14 655.66,-29.2"/>
</a>
</g>
</g>
<!-- Node19 -->
<g id="Node000019" class="node">
<title>Node19</title>
<g id="a_Node000019"><a xlink:href="simulator_2pico-sdk_2hardware_2i2c_8h.html" target="_top" xlink:title=" ">
<polygon fill="white" stroke="#666666" points="752,-74 663,-74 663,-55 752,-55 752,-74"/>
<text text-anchor="middle" x="707.5" y="-62" font-family="Helvetica,sans-Serif" font-size="10.00">hardware/i2c.h</text>
</a>
</g>
</g>
<!-- Node18&#45;&gt;Node19 -->
<g id="edge26_Node000018_Node000019" class="edge">
<title>Node18&#45;&gt;Node19</title>
<g id="a_edge26_Node000018_Node000019"><a xlink:title=" ">
<path fill="none" stroke="#63b8ff" d="M671.6,-109.75C677.67,-102.26 686.59,-91.28 694.01,-82.13"/>
<polygon fill="#63b8ff" stroke="#63b8ff" points="696.95,-84.06 700.53,-74.09 691.51,-79.65 696.95,-84.06"/>
</a>
</g>
</g>
<!-- Node19&#45;&gt;Node7 -->
<g id="edge28_Node000019_Node000007" class="edge">
<title>Node19&#45;&gt;Node7</title>
<g id="a_edge28_Node000019_Node000007"><a xlink:title=" ">
<path fill="none" stroke="#63b8ff" d="M710.47,-54.75C712.86,-47.72 716.29,-37.62 719.27,-28.84"/>
<polygon fill="#63b8ff" stroke="#63b8ff" points="722.68,-29.68 722.58,-19.09 716.05,-27.43 722.68,-29.68"/>
</a>
</g>
</g>
<!-- Node19&#45;&gt;Node8 -->
<g id="edge27_Node000019_Node000008" class="edge">
<title>Node19&#45;&gt;Node8</title>
<g id="a_edge27_Node000019_Node000008"><a xlink:title=" ">
<path fill="none" stroke="#63b8ff" d="M698.42,-54.75C690.41,-47.03 678.54,-35.6 668.88,-26.28"/>
<polygon fill="#63b8ff" stroke="#63b8ff" points="671.04,-23.51 661.41,-19.09 666.19,-28.55 671.04,-23.51"/>
</a>
</g>
</g>
<!-- Node19&#45;&gt;Node12 -->
<g id="edge29_Node000019_Node000012" class="edge">
<title>Node19&#45;&gt;Node12</title>
<g id="a_edge29_Node000019_Node000012"><a xlink:title=" ">
<path fill="none" stroke="#63b8ff" d="M686.45,-54.98C665.09,-46.34 631.8,-32.87 607.44,-23.02"/>
<polygon fill="#63b8ff" stroke="#63b8ff" points="608.51,-19.68 597.93,-19.17 605.89,-26.17 608.51,-19.68"/>
</a>
</g>
</g>
<!-- Node20&#45;&gt;Node19 -->
<g id="edge32_Node000020_Node000019" class="edge">
<title>Node20&#45;&gt;Node19</title>
<g id="a_edge32_Node000020_Node000019"><a xlink:title=" ">
<path fill="none" stroke="#63b8ff" d="M719.62,-164.86C718.35,-152.64 715.9,-129.6 713.5,-110 712.46,-101.48 711.2,-92.06 710.11,-84.08"/>
<polygon fill="#63b8ff" stroke="#63b8ff" points="713.55,-83.45 708.71,-74.02 706.62,-84.41 713.55,-83.45"/>
</a>
</g>
</g>
<!-- Node21&#45;&gt;Node12 -->
<g id="edge41_Node000021_Node000012" class="edge">
<title>Node21&#45;&gt;Node12</title>
<g id="a_edge41_Node000021_Node000012"><a xlink:title=" ">
<path fill="none" stroke="#63b8ff" d="M361.41,-219.76C359.25,-198.67 356.62,-144.2 381.5,-110 402.15,-81.62 494.5,-42.4 544.34,-22.75"/>
<polygon fill="#63b8ff" stroke="#63b8ff" points="545.67,-25.99 553.71,-19.1 543.12,-19.47 545.67,-25.99"/>
</a>
</g>
</g>
<!-- Node22 -->
<g id="Node000022" class="node">
<title>Node22</title>
<g id="a_Node000022"><a xlink:href="telemetry_8h.html" target="_top" xlink:title="Functions for packaging and queuing telemetry packets for sending.">
<polygon fill="white" stroke="#666666" points="310.5,-184 238.5,-184 238.5,-165 310.5,-165 310.5,-184"/>
<text text-anchor="middle" x="274.5" y="-172" font-family="Helvetica,sans-Serif" font-size="10.00">telemetry.h</text>
</a>
</g>
</g>
<!-- Node21&#45;&gt;Node22 -->
<g id="edge34_Node000021_Node000022" class="edge">
<title>Node21&#45;&gt;Node22</title>
<g id="a_edge34_Node000021_Node000022"><a xlink:title=" ">
<path fill="none" stroke="#63b8ff" d="M348.36,-219.98C334.71,-211.77 313.81,-199.18 297.72,-189.49"/>
<polygon fill="#63b8ff" stroke="#63b8ff" points="299.27,-186.33 288.9,-184.17 295.66,-192.33 299.27,-186.33"/>
</a>
</g>
</g>
<!-- Node22&#45;&gt;Node3 -->
<g id="edge35_Node000022_Node000003" class="edge">
<title>Node22&#45;&gt;Node3</title>
<g id="a_edge35_Node000022_Node000003"><a xlink:title=" ">
<path fill="none" stroke="#63b8ff" d="M279.15,-164.94C285.3,-152.41 294.48,-128.55 286.5,-110 268.77,-68.76 223.58,-39.49 193.46,-23.79"/>
<polygon fill="#63b8ff" stroke="#63b8ff" points="194.77,-20.54 184.26,-19.18 191.63,-26.79 194.77,-20.54"/>
</a>
</g>
</g>
<!-- Node22&#45;&gt;Node4 -->
<g id="edge36_Node000022_Node000004" class="edge">
<title>Node22&#45;&gt;Node4</title>
<g id="a_edge36_Node000022_Node000004"><a xlink:title=" ">
<path fill="none" stroke="#63b8ff" d="M247.58,-164.95C227.02,-157.56 198.72,-145.47 177.5,-129 139.83,-99.76 107.65,-53.02 91.88,-27.87"/>
<polygon fill="#63b8ff" stroke="#63b8ff" points="94.7,-25.78 86.49,-19.08 88.74,-29.44 94.7,-25.78"/>
</a>
</g>
</g>
<!-- Node23 -->
<g id="Node000023" class="node">
<title>Node23</title>
<g id="a_Node000023"><a xlink:href="file__downlink_8h.html" target="_top" xlink:title=" ">
<polygon fill="white" stroke="#666666" points="278,-129 187,-129 187,-110 278,-110 278,-129"/>
<text text-anchor="middle" x="232.5" y="-117" font-family="Helvetica,sans-Serif" font-size="10.00">file_downlink.h</text>
</a>
</g>
</g>
<!-- Node22&#45;&gt;Node23 -->
<g id="edge37_Node000022_Node000023" class="edge">
<title>Node22&#45;&gt;Node23</title>
<g id="a_edge37_Node000022_Node000023"><a xlink:title=" ">
<path fill="none" stroke="#63b8ff" d="M267.56,-164.75C261.63,-157.26 252.93,-146.28 245.68,-137.13"/>
<polygon fill="#63b8ff" stroke="#63b8ff" points="248.26,-134.75 239.31,-129.09 242.77,-139.1 248.26,-134.75"/>
</a>
</g>
</g>
<!-- Node23&#45;&gt;Node3 -->
<g id="edge38_Node000023_Node000003" class="edge">
<title>Node23&#45;&gt;Node3</title>
<g id="a_edge38_Node000023_Node000003"><a xlink:title=" ">
<path fill="none" stroke="#63b8ff" d="M230.63,-109.73C227.63,-96.95 220.88,-72.78 209.5,-55 202.52,-44.09 192.42,-33.79 183.56,-25.85"/>
<polygon fill="#63b8ff" stroke="#63b8ff" points="185.76,-23.13 175.9,-19.28 181.21,-28.44 185.76,-23.13"/>
</a>
</g>
</g>
<!-- Node23&#45;&gt;Node4 -->
<g id="edge39_Node000023_Node000004" class="edge">
<title>Node23&#45;&gt;Node4</title>
<g id="a_edge39_Node000023_Node000004"><a xlink:title=" ">
<path fill="none" stroke="#63b8ff" d="M220.4,-109.84C194.55,-91.36 133.73,-47.86 101.84,-25.05"/>
<polygon fill="#63b8ff" stroke="#63b8ff" points="103.83,-22.17 93.66,-19.2 99.76,-27.86 103.83,-22.17"/>
</a>
</g>
</g>
<!-- Node23&#45;&gt;Node13 -->
<g id="edge40_Node000023_Node000013" class="edge">
<title>Node23&#45;&gt;Node13</title>
<g id="a_edge40_Node000023_Node000013"><a xlink:title=" ">
<path fill="none" stroke="#63b8ff" d="M255.15,-109.98C278.35,-101.27 314.62,-87.63 340.9,-77.75"/>
<polygon fill="#63b8ff" stroke="#63b8ff" points="342.3,-80.97 350.43,-74.17 339.84,-74.41 342.3,-80.97"/>
</a>
</g>
</g>
</g>
</svg>
