<?xml version="1.0" encoding="UTF-8" standalone="no"?>
<!DOCTYPE svg PUBLIC "-//W3C//DTD SVG 1.1//EN"
 "http://www.w3.org/Graphics/SVG/1.1/DTD/svg11.dtd">
<!-- Generated by graphviz version 2.43.0 (0)
 -->
<!-- Title: hb_tlm_log.c Pages: 1 -->
<svg width="821pt" height="302pt"
 viewBox="0.00 0.00 821.00 302.00" xmlns="http://www.w3.org/2000/svg" xmlns:xlink="http://www.w3.org/1999/xlink">
<g id="graph0" class="graph" transform="scale(1 1) rotate(0) translate(4 298)">
<title>hb_tlm_log.c</title>
<!-- Node1 -->
<g id="Node000001" class="node">
<title>Node1</title>
<g id="a_Node000001"><a xlink:title=" ">
<polygon fill="#999999" stroke="#666666" points="678,-294 599,-294 599,-275 678,-275 678,-294"/>
<text text-anchor="middle" x="638.5" y="-282" font-family="Helvetica,sans-Serif" font-size="10.00">hb_tlm_log.c</text>
</a>
</g>
</g>
<!-- Node2 -->
<g id="Node000002" class="node">
<title>Node2</title>
<g id="a_Node000002"><a xlink:href="hb__tlm__log_8h.html" target="_top" xlink:title=" ">
<polygon fill="white" stroke="#666666" points="306.5,-239 226.5,-239 226.5,-220 306.5,-220 306.5,-239"/>
<text text-anchor="middle" x="266.5" y="-227" font-family="Helvetica,sans-Serif" font-size="10.00">hb_tlm_log.h</text>
</a>
</g>
</g>
<!-- Node1&#45;&gt;Node2 -->
<g id="edge1_Node000001_Node000002" class="edge">
<title>Node1&#45;&gt;Node2</title>
<g id="a_edge1_Node000001_Node000002"><a xlink:title=" ">
<path fill="none" stroke="#63b8ff" d="M598.69,-277.83C530.49,-268.11 391.44,-248.3 316.69,-237.65"/>
<polygon fill="#63b8ff" stroke="#63b8ff" points="316.98,-234.16 306.59,-236.21 315.99,-241.09 316.98,-234.16"/>
</a>
</g>
</g>
<!-- Node7 -->
<g id="Node000007" class="node">
<title>Node7</title>
<g id="a_Node000007"><a xlink:href="filesystem_8h.html" target="_top" xlink:title="Handles file system operations and management.">
<polygon fill="white" stroke="#666666" points="392,-74 315,-74 315,-55 392,-55 392,-74"/>
<text text-anchor="middle" x="353.5" y="-62" font-family="Helvetica,sans-Serif" font-size="10.00">filesystem.h</text>
</a>
</g>
</g>
<!-- Node1&#45;&gt;Node7 -->
<g id="edge29_Node000001_Node000007" class="edge">
<title>Node1&#45;&gt;Node7</title>
<g id="a_edge29_Node000001_Node000007"><a xlink:title=" ">
<path fill="none" stroke="#63b8ff" d="M614.89,-274.88C565.71,-255.82 451.32,-205.64 384.5,-129 372.92,-115.72 364.58,-97.36 359.48,-83.79"/>
<polygon fill="#63b8ff" stroke="#63b8ff" points="362.71,-82.41 356.1,-74.13 356.1,-84.73 362.71,-82.41"/>
</a>
</g>
</g>
<!-- Node14 -->
<g id="Node000014" class="node">
<title>Node14</title>
<g id="a_Node000014"><a xlink:title=" ">
<polygon fill="#e0e0e0" stroke="#999999" points="695.5,-19 633.5,-19 633.5,0 695.5,0 695.5,-19"/>
<text text-anchor="middle" x="664.5" y="-7" font-family="Helvetica,sans-Serif" font-size="10.00">stdbool.h</text>
</a>
</g>
</g>
<!-- Node1&#45;&gt;Node14 -->
<g id="edge30_Node000001_Node000014" class="edge">
<title>Node1&#45;&gt;Node14</title>
<g id="a_edge30_Node000001_Node000014"><a xlink:title=" ">
<path fill="none" stroke="#63b8ff" d="M641.87,-274.98C648.7,-256.93 663.5,-213.41 663.5,-175.5 663.5,-175.5 663.5,-175.5 663.5,-118.5 663.5,-87.19 663.93,-50.77 664.22,-29.23"/>
<polygon fill="#63b8ff" stroke="#63b8ff" points="667.72,-29.23 664.37,-19.18 660.72,-29.13 667.72,-29.23"/>
</a>
</g>
</g>
<!-- Node18 -->
<g id="Node000018" class="node">
<title>Node18</title>
<g id="a_Node000018"><a xlink:href="log_8h.html" target="_top" xlink:title=" ">
<polygon fill="white" stroke="#666666" points="635,-239 594,-239 594,-220 635,-220 635,-239"/>
<text text-anchor="middle" x="614.5" y="-227" font-family="Helvetica,sans-Serif" font-size="10.00">log.h</text>
</a>
</g>
</g>
<!-- Node1&#45;&gt;Node18 -->
<g id="edge26_Node000001_Node000018" class="edge">
<title>Node1&#45;&gt;Node18</title>
<g id="a_edge26_Node000001_Node000018"><a xlink:title=" ">
<path fill="none" stroke="#63b8ff" d="M634.54,-274.75C631.29,-267.57 626.58,-257.18 622.55,-248.27"/>
<polygon fill="#63b8ff" stroke="#63b8ff" points="625.7,-246.75 618.39,-239.09 619.33,-249.64 625.7,-246.75"/>
</a>
</g>
</g>
<!-- Node19 -->
<g id="Node000019" class="node">
<title>Node19</title>
<g id="a_Node000019"><a xlink:href="stdio_8h.html" target="_top" xlink:title=" ">
<polygon fill="white" stroke="#666666" points="741.5,-239 691.5,-239 691.5,-220 741.5,-220 741.5,-239"/>
<text text-anchor="middle" x="716.5" y="-227" font-family="Helvetica,sans-Serif" font-size="10.00">stdio.h</text>
</a>
</g>
</g>
<!-- Node1&#45;&gt;Node19 -->
<g id="edge31_Node000001_Node000019" class="edge">
<title>Node1&#45;&gt;Node19</title>
<g id="a_edge31_Node000001_Node000019"><a xlink:title=" ">
<path fill="none" stroke="#63b8ff" d="M651.03,-274.98C662.9,-266.92 680.96,-254.65 695.11,-245.03"/>
<polygon fill="#63b8ff" stroke="#63b8ff" points="697.44,-247.69 703.74,-239.17 693.5,-241.9 697.44,-247.69"/>
</a>
</g>
</g>
<!-- Node20 -->
<g id="Node000020" class="node">
<title>Node20</title>
<g id="a_Node000020"><a xlink:title=" ">
<polygon fill="#e0e0e0" stroke="#999999" points="813,-239 760,-239 760,-220 813,-220 813,-239"/>
<text text-anchor="middle" x="786.5" y="-227" font-family="Helvetica,sans-Serif" font-size="10.00">string.h</text>
</a>
</g>
</g>
<!-- Node1&#45;&gt;Node20 -->
<g id="edge32_Node000001_Node000020" class="edge">
<title>Node1&#45;&gt;Node20</title>
<g id="a_edge32_Node000001_Node000020"><a xlink:title=" ">
<path fill="none" stroke="#63b8ff" d="M662.28,-274.98C686.73,-266.23 725.03,-252.51 752.65,-242.62"/>
<polygon fill="#63b8ff" stroke="#63b8ff" points="754.05,-245.84 762.29,-239.17 751.69,-239.25 754.05,-245.84"/>
</a>
</g>
</g>
<!-- Node3 -->
<g id="Node000003" class="node">
<title>Node3</title>
<g id="a_Node000003"><a xlink:href="telemetry_8h.html" target="_top" xlink:title="Functions for packaging and queuing telemetry packets for sending.">
<polygon fill="white" stroke="#666666" points="547.5,-184 475.5,-184 475.5,-165 547.5,-165 547.5,-184"/>
<text text-anchor="middle" x="511.5" y="-172" font-family="Helvetica,sans-Serif" font-size="10.00">telemetry.h</text>
</a>
</g>
</g>
<!-- Node2&#45;&gt;Node3 -->
<g id="edge2_Node000002_Node000003" class="edge">
<title>Node2&#45;&gt;Node3</title>
<g id="a_edge2_Node000002_Node000003"><a xlink:title=" ">
<path fill="none" stroke="#63b8ff" d="M305.86,-219.98C349.37,-210.57 419.38,-195.43 465.42,-185.47"/>
<polygon fill="#63b8ff" stroke="#63b8ff" points="466.39,-188.84 475.43,-183.3 464.91,-182 466.39,-188.84"/>
</a>
</g>
</g>
<!-- Node13 -->
<g id="Node000013" class="node">
<title>Node13</title>
<g id="a_Node000013"><a xlink:title=" ">
<polygon fill="#e0e0e0" stroke="#999999" points="53,-19 0,-19 0,0 53,0 53,-19"/>
<text text-anchor="middle" x="26.5" y="-7" font-family="Helvetica,sans-Serif" font-size="10.00">stdint.h</text>
</a>
</g>
</g>
<!-- Node2&#45;&gt;Node13 -->
<g id="edge18_Node000002_Node000013" class="edge">
<title>Node2&#45;&gt;Node13</title>
<g id="a_edge18_Node000002_Node000013"><a xlink:title=" ">
<path fill="none" stroke="#63b8ff" d="M248.87,-219.88C218.63,-204.52 155.95,-170.15 112.5,-129 79.57,-97.81 50.77,-52.54 36.34,-27.96"/>
<polygon fill="#63b8ff" stroke="#63b8ff" points="39.24,-25.99 31.21,-19.07 33.17,-29.48 39.24,-25.99"/>
</a>
</g>
</g>
<!-- Node15 -->
<g id="Node000015" class="node">
<title>Node15</title>
<g id="a_Node000015"><a xlink:href="command_8h.html" target="_top" xlink:title="Handles decoding and triggering responses to received commands.">
<polygon fill="white" stroke="#666666" points="287.5,-184 213.5,-184 213.5,-165 287.5,-165 287.5,-184"/>
<text text-anchor="middle" x="250.5" y="-172" font-family="Helvetica,sans-Serif" font-size="10.00">command.h</text>
</a>
</g>
</g>
<!-- Node2&#45;&gt;Node15 -->
<g id="edge19_Node000002_Node000015" class="edge">
<title>Node2&#45;&gt;Node15</title>
<g id="a_edge19_Node000002_Node000015"><a xlink:title=" ">
<path fill="none" stroke="#63b8ff" d="M263.86,-219.75C261.74,-212.72 258.69,-202.62 256.04,-193.84"/>
<polygon fill="#63b8ff" stroke="#63b8ff" points="259.33,-192.65 253.09,-184.09 252.63,-194.67 259.33,-192.65"/>
</a>
</g>
</g>
<!-- Node4 -->
<g id="Node000004" class="node">
<title>Node4</title>
<g id="a_Node000004"><a xlink:title=" ">
<polygon fill="#e0e0e0" stroke="#999999" points="541.5,-19 469.5,-19 469.5,0 541.5,0 541.5,-19"/>
<text text-anchor="middle" x="505.5" y="-7" font-family="Helvetica,sans-Serif" font-size="10.00">FreeRTOS.h</text>
</a>
</g>
</g>
<!-- Node3&#45;&gt;Node4 -->
<g id="edge3_Node000003_Node000004" class="edge">
<title>Node3&#45;&gt;Node4</title>
<g id="a_edge3_Node000003_Node000004"><a xlink:title=" ">
<path fill="none" stroke="#63b8ff" d="M511.18,-164.74C510.24,-139.31 507.51,-65.08 506.21,-29.69"/>
<polygon fill="#63b8ff" stroke="#63b8ff" points="509.69,-29.17 505.82,-19.31 502.69,-29.43 509.69,-29.17"/>
</a>
</g>
</g>
<!-- Node5 -->
<g id="Node000005" class="node">
<title>Node5</title>
<g id="a_Node000005"><a xlink:title=" ">
<polygon fill="#e0e0e0" stroke="#999999" points="615.5,-19 559.5,-19 559.5,0 615.5,0 615.5,-19"/>
<text text-anchor="middle" x="587.5" y="-7" font-family="Helvetica,sans-Serif" font-size="10.00">queue.h</text>
</a>
</g>
</g>
<!-- Node3&#45;&gt;Node5 -->
<g id="edge4_Node000003_Node000005" class="edge">
<title>Node3&#45;&gt;Node5</title>
<g id="a_edge4_Node000003_Node000005"><a xlink:title=" ">
<path fill="none" stroke="#63b8ff" d="M515.59,-164.74C527.55,-139.09 562.66,-63.78 578.98,-28.78"/>
<polygon fill="#63b8ff" stroke="#63b8ff" points="582.34,-29.85 583.39,-19.31 576,-26.89 582.34,-29.85"/>
</a>
</g>
</g>
<!-- Node6 -->
<g id="Node000006" class="node">
<title>Node6</title>
<g id="a_Node000006"><a xlink:href="file__downlink_8h.html" target="_top" xlink:title=" ">
<polygon fill="white" stroke="#666666" points="483.5,-129 393.5,-129 393.5,-110 483.5,-110 483.5,-129"/>
<text text-anchor="middle" x="438.5" y="-117" font-family="Helvetica,sans-Serif" font-size="10.00">file_downlink.h</text>
</a>
</g>
</g>
<!-- Node3&#45;&gt;Node6 -->
<g id="edge5_Node000003_Node000006" class="edge">
<title>Node3&#45;&gt;Node6</title>
<g id="a_edge5_Node000003_Node000006"><a xlink:title=" ">
<path fill="none" stroke="#63b8ff" d="M499.77,-164.98C488.77,-157 472.08,-144.88 458.9,-135.31"/>
<polygon fill="#63b8ff" stroke="#63b8ff" points="460.59,-132.21 450.44,-129.17 456.48,-137.88 460.59,-132.21"/>
</a>
</g>
</g>
<!-- Node6&#45;&gt;Node4 -->
<g id="edge6_Node000006_Node000004" class="edge">
<title>Node6&#45;&gt;Node4</title>
<g id="a_edge6_Node000006_Node000004"><a xlink:title=" ">
<path fill="none" stroke="#63b8ff" d="M440.01,-109.71C442.52,-96.9 448.39,-72.7 459.5,-55 466.47,-43.9 476.77,-33.59 485.87,-25.69"/>
<polygon fill="#63b8ff" stroke="#63b8ff" points="488.28,-28.24 493.75,-19.16 483.81,-22.85 488.28,-28.24"/>
</a>
</g>
</g>
<!-- Node6&#45;&gt;Node5 -->
<g id="edge7_Node000006_Node000005" class="edge">
<title>Node6&#45;&gt;Node5</title>
<g id="a_edge7_Node000006_Node000005"><a xlink:title=" ">
<path fill="none" stroke="#63b8ff" d="M450.44,-109.84C475.83,-91.44 535.44,-48.23 567.03,-25.34"/>
<polygon fill="#63b8ff" stroke="#63b8ff" points="569.46,-27.9 575.5,-19.2 565.35,-22.23 569.46,-27.9"/>
</a>
</g>
</g>
<!-- Node6&#45;&gt;Node7 -->
<g id="edge8_Node000006_Node000007" class="edge">
<title>Node6&#45;&gt;Node7</title>
<g id="a_edge8_Node000006_Node000007"><a xlink:title=" ">
<path fill="none" stroke="#63b8ff" d="M424.84,-109.98C411.66,-101.77 391.47,-89.18 375.93,-79.49"/>
<polygon fill="#63b8ff" stroke="#63b8ff" points="377.74,-76.49 367.41,-74.17 374.04,-82.43 377.74,-76.49"/>
</a>
</g>
</g>
<!-- Node7&#45;&gt;Node4 -->
<g id="edge9_Node000007_Node000004" class="edge">
<title>Node7&#45;&gt;Node4</title>
<g id="a_edge9_Node000007_Node000004"><a xlink:title=" ">
<path fill="none" stroke="#63b8ff" d="M377.92,-54.98C403.22,-46.16 442.95,-32.31 471.36,-22.41"/>
<polygon fill="#63b8ff" stroke="#63b8ff" points="472.6,-25.68 480.89,-19.08 470.29,-19.07 472.6,-25.68"/>
</a>
</g>
</g>
<!-- Node7&#45;&gt;Node5 -->
<g id="edge10_Node000007_Node000005" class="edge">
<title>Node7&#45;&gt;Node5</title>
<g id="a_edge10_Node000007_Node000005"><a xlink:title=" ">
<path fill="none" stroke="#63b8ff" d="M391.64,-54.93C429.24,-46.47 488.61,-33.08 549.11,-19.31"/>
<polygon fill="#63b8ff" stroke="#63b8ff" points="550.25,-22.64 559.22,-17.01 548.69,-15.82 550.25,-22.64"/>
</a>
</g>
</g>
<!-- Node8 -->
<g id="Node000008" class="node">
<title>Node8</title>
<g id="a_Node000008"><a xlink:title=" ">
<polygon fill="#e0e0e0" stroke="#999999" points="273,-19 226,-19 226,0 273,0 273,-19"/>
<text text-anchor="middle" x="249.5" y="-7" font-family="Helvetica,sans-Serif" font-size="10.00">task.h</text>
</a>
</g>
</g>
<!-- Node7&#45;&gt;Node8 -->
<g id="edge11_Node000007_Node000008" class="edge">
<title>Node7&#45;&gt;Node8</title>
<g id="a_edge11_Node000007_Node000008"><a xlink:title=" ">
<path fill="none" stroke="#63b8ff" d="M336.79,-54.98C320.29,-46.57 294.8,-33.59 275.62,-23.81"/>
<polygon fill="#63b8ff" stroke="#63b8ff" points="277.01,-20.59 266.51,-19.17 273.83,-26.83 277.01,-20.59"/>
</a>
</g>
</g>
<!-- Node9 -->
<g id="Node000009" class="node">
<title>Node9</title>
<g id="a_Node000009"><a xlink:title=" ">
<polygon fill="#e0e0e0" stroke="#999999" points="323.5,-19 291.5,-19 291.5,0 323.5,0 323.5,-19"/>
<text text-anchor="middle" x="307.5" y="-7" font-family="Helvetica,sans-Serif" font-size="10.00">ff.h</text>
</a>
</g>
</g>
<!-- Node7&#45;&gt;Node9 -->
<g id="edge12_Node000007_Node000009" class="edge">
<title>Node7&#45;&gt;Node9</title>
<g id="a_edge12_Node000007_Node000009"><a xlink:title=" ">
<path fill="none" stroke="#63b8ff" d="M345.9,-54.75C339.34,-47.18 329.68,-36.05 321.69,-26.84"/>
<polygon fill="#63b8ff" stroke="#63b8ff" points="324.15,-24.35 314.95,-19.09 318.87,-28.94 324.15,-24.35"/>
</a>
</g>
</g>
<!-- Node10 -->
<g id="Node000010" class="node">
<title>Node10</title>
<g id="a_Node000010"><a xlink:href="filesystem__errors_8h.html" target="_top" xlink:title=" ">
<polygon fill="white" stroke="#666666" points="451.5,-19 341.5,-19 341.5,0 451.5,0 451.5,-19"/>
<text text-anchor="middle" x="396.5" y="-7" font-family="Helvetica,sans-Serif" font-size="10.00">filesystem_errors.h</text>
</a>
</g>
</g>
<!-- Node7&#45;&gt;Node10 -->
<g id="edge13_Node000007_Node000010" class="edge">
<title>Node7&#45;&gt;Node10</title>
<g id="a_edge13_Node000007_Node000010"><a xlink:title=" ">
<path fill="none" stroke="#63b8ff" d="M360.6,-54.75C366.67,-47.26 375.59,-36.28 383.01,-27.13"/>
<polygon fill="#63b8ff" stroke="#63b8ff" points="385.95,-29.06 389.53,-19.09 380.51,-24.65 385.95,-29.06"/>
</a>
</g>
</g>
<!-- Node11 -->
<g id="Node000011" class="node">
<title>Node11</title>
<g id="a_Node000011"><a xlink:title=" ">
<polygon fill="#e0e0e0" stroke="#999999" points="133.5,-19 71.5,-19 71.5,0 133.5,0 133.5,-19"/>
<text text-anchor="middle" x="102.5" y="-7" font-family="Helvetica,sans-Serif" font-size="10.00">semphr.h</text>
</a>
</g>
</g>
<!-- Node7&#45;&gt;Node11 -->
<g id="edge14_Node000007_Node000011" class="edge">
<title>Node7&#45;&gt;Node11</title>
<g id="a_edge14_Node000007_Node000011"><a xlink:title=" ">
<path fill="none" stroke="#63b8ff" d="M314.99,-55.4C274.76,-46.93 209.51,-33.18 143.65,-19.24"/>
<polygon fill="#63b8ff" stroke="#63b8ff" points="144.02,-15.74 133.51,-17.09 142.57,-22.59 144.02,-15.74"/>
</a>
</g>
</g>
<!-- Node12 -->
<g id="Node000012" class="node">
<title>Node12</title>
<g id="a_Node000012"><a xlink:title=" ">
<polygon fill="#e0e0e0" stroke="#999999" points="207.5,-19 151.5,-19 151.5,0 207.5,0 207.5,-19"/>
<text text-anchor="middle" x="179.5" y="-7" font-family="Helvetica,sans-Serif" font-size="10.00">stddef.h</text>
</a>
</g>
</g>
<!-- Node7&#45;&gt;Node12 -->
<g id="edge15_Node000007_Node000012" class="edge">
<title>Node7&#45;&gt;Node12</title>
<g id="a_edge15_Node000007_Node000012"><a xlink:title=" ">
<path fill="none" stroke="#63b8ff" d="M325.54,-54.98C296.2,-46.05 249.9,-31.94 217.31,-22.02"/>
<polygon fill="#63b8ff" stroke="#63b8ff" points="218.26,-18.65 207.68,-19.08 216.22,-25.34 218.26,-18.65"/>
</a>
</g>
</g>
<!-- Node7&#45;&gt;Node13 -->
<g id="edge16_Node000007_Node000013" class="edge">
<title>Node7&#45;&gt;Node13</title>
<g id="a_edge16_Node000007_Node000013"><a xlink:title=" ">
<path fill="none" stroke="#63b8ff" d="M314.84,-57.77C247.14,-47.7 110.49,-27.26 63.19,-18.9"/>
<polygon fill="#63b8ff" stroke="#63b8ff" points="63.65,-15.43 53.18,-17.05 62.38,-22.31 63.65,-15.43"/>
</a>
</g>
</g>
<!-- Node7&#45;&gt;Node14 -->
<g id="edge17_Node000007_Node000014" class="edge">
<title>Node7&#45;&gt;Node14</title>
<g id="a_edge17_Node000007_Node000014"><a xlink:title=" ">
<path fill="none" stroke="#63b8ff" d="M392.19,-57.73C442.97,-50.02 535.07,-35.61 623.19,-19.18"/>
<polygon fill="#63b8ff" stroke="#63b8ff" points="623.9,-22.61 633.08,-17.32 622.61,-15.73 623.9,-22.61"/>
</a>
</g>
</g>
<!-- Node15&#45;&gt;Node13 -->
<g id="edge20_Node000015_Node000013" class="edge">
<title>Node15&#45;&gt;Node13</title>
<g id="a_edge20_Node000015_Node000013"><a xlink:title=" ">
<path fill="none" stroke="#63b8ff" d="M247.67,-164.67C243.03,-151.36 232.67,-126.02 216.5,-110 172.15,-66.06 104.39,-36.99 62.91,-22.17"/>
<polygon fill="#63b8ff" stroke="#63b8ff" points="63.81,-18.77 53.21,-18.79 61.5,-25.38 63.81,-18.77"/>
</a>
</g>
</g>
<!-- Node16 -->
<g id="Node000016" class="node">
<title>Node16</title>
<g id="a_Node000016"><a xlink:title=" ">
<polygon fill="#e0e0e0" stroke="#999999" points="207.5,-129 121.5,-129 121.5,-110 207.5,-110 207.5,-129"/>
<text text-anchor="middle" x="164.5" y="-117" font-family="Helvetica,sans-Serif" font-size="10.00">spacepacket.h</text>
</a>
</g>
</g>
<!-- Node15&#45;&gt;Node16 -->
<g id="edge21_Node000015_Node000016" class="edge">
<title>Node15&#45;&gt;Node16</title>
<g id="a_edge21_Node000015_Node000016"><a xlink:title=" ">
<path fill="none" stroke="#63b8ff" d="M236.68,-164.98C223.35,-156.77 202.92,-144.18 187.19,-134.49"/>
<polygon fill="#63b8ff" stroke="#63b8ff" points="188.92,-131.44 178.57,-129.17 185.25,-137.4 188.92,-131.44"/>
</a>
</g>
</g>
<!-- Node17 -->
<g id="Node000017" class="node">
<title>Node17</title>
<g id="a_Node000017"><a xlink:href="user__auth_8h.html" target="_top" xlink:title=" ">
<polygon fill="white" stroke="#666666" points="337.5,-129 263.5,-129 263.5,-110 337.5,-110 337.5,-129"/>
<text text-anchor="middle" x="300.5" y="-117" font-family="Helvetica,sans-Serif" font-size="10.00">user_auth.h</text>
</a>
</g>
</g>
<!-- Node15&#45;&gt;Node17 -->
<g id="edge22_Node000015_Node000017" class="edge">
<title>Node15&#45;&gt;Node17</title>
<g id="a_edge22_Node000015_Node000017"><a xlink:title=" ">
<path fill="none" stroke="#63b8ff" d="M258.76,-164.75C265.96,-157.11 276.61,-145.82 285.35,-136.56"/>
<polygon fill="#63b8ff" stroke="#63b8ff" points="288.08,-138.76 292.4,-129.09 282.99,-133.96 288.08,-138.76"/>
</a>
</g>
</g>
<!-- Node17&#45;&gt;Node7 -->
<g id="edge25_Node000017_Node000007" class="edge">
<title>Node17&#45;&gt;Node7</title>
<g id="a_edge25_Node000017_Node000007"><a xlink:title=" ">
<path fill="none" stroke="#63b8ff" d="M309.25,-109.75C316.97,-102.03 328.4,-90.6 337.72,-81.28"/>
<polygon fill="#63b8ff" stroke="#63b8ff" points="340.31,-83.64 344.91,-74.09 335.36,-78.69 340.31,-83.64"/>
</a>
</g>
</g>
<!-- Node17&#45;&gt;Node13 -->
<g id="edge24_Node000017_Node000013" class="edge">
<title>Node17&#45;&gt;Node13</title>
<g id="a_edge24_Node000017_Node000013"><a xlink:title=" ">
<path fill="none" stroke="#63b8ff" d="M296.2,-109.9C288.74,-95.94 272.03,-68.57 249.5,-55 179.69,-12.95 147.67,-34.94 63.21,-18.96"/>
<polygon fill="#63b8ff" stroke="#63b8ff" points="63.7,-15.49 53.21,-16.94 62.32,-22.35 63.7,-15.49"/>
</a>
</g>
</g>
<!-- Node17&#45;&gt;Node14 -->
<g id="edge23_Node000017_Node000014" class="edge">
<title>Node17&#45;&gt;Node14</title>
<g id="a_edge23_Node000017_Node000014"><a xlink:title=" ">
<path fill="none" stroke="#63b8ff" d="M329.37,-109.94C394.41,-90.64 552.45,-43.74 625.85,-21.97"/>
<polygon fill="#63b8ff" stroke="#63b8ff" points="627.04,-25.27 635.63,-19.07 625.05,-18.55 627.04,-25.27"/>
</a>
</g>
</g>
<!-- Node18&#45;&gt;Node3 -->
<g id="edge27_Node000018_Node000003" class="edge">
<title>Node18&#45;&gt;Node3</title>
<g id="a_edge27_Node000018_Node000003"><a xlink:title=" ">
<path fill="none" stroke="#63b8ff" d="M597.95,-219.98C581.61,-211.57 556.37,-198.59 537.37,-188.81"/>
<polygon fill="#63b8ff" stroke="#63b8ff" points="538.84,-185.63 528.35,-184.17 535.64,-191.86 538.84,-185.63"/>
</a>
</g>
</g>
<!-- Node18&#45;&gt;Node14 -->
<g id="edge28_Node000018_Node000014" class="edge">
<title>Node18&#45;&gt;Node14</title>
<g id="a_edge28_Node000018_Node000014"><a xlink:title=" ">
<path fill="none" stroke="#63b8ff" d="M615.86,-219.74C619.94,-194.15 632.78,-117.33 649.5,-55 651.85,-46.24 654.99,-36.69 657.79,-28.69"/>
<polygon fill="#63b8ff" stroke="#63b8ff" points="661.09,-29.86 661.18,-19.26 654.5,-27.49 661.09,-29.86"/>
</a>
</g>
</g>
</g>
</svg>
