<?xml version="1.0" encoding="UTF-8" standalone="no"?>
<!DOCTYPE svg PUBLIC "-//W3C//DTD SVG 1.1//EN"
 "http://www.w3.org/Graphics/SVG/1.1/DTD/svg11.dtd">
<!-- Generated by graphviz version 2.43.0 (0)
 -->
<!-- Title: hb_tlm_playback Pages: 1 -->
<svg width="705pt" height="102pt"
 viewBox="0.00 0.00 705.00 102.00" xmlns="http://www.w3.org/2000/svg" xmlns:xlink="http://www.w3.org/1999/xlink">
<g id="graph0" class="graph" transform="scale(1 1) rotate(0) translate(4 98)">
<title>hb_tlm_playback</title>
<!-- Node1 -->
<g id="Node000001" class="node">
<title>Node1</title>
<g id="a_Node000001"><a xlink:title=" ">
<polygon fill="#999999" stroke="#666666" points="100,-56 0,-56 0,-37 100,-37 100,-56"/>
<text text-anchor="middle" x="50" y="-44" font-family="Helvetica,sans-Serif" font-size="10.00">hb_tlm_playback</text>
</a>
</g>
</g>
<!-- Node2 -->
<g id="Node000002" class="node">
<title>Node2</title>
<g id="a_Node000002"><a xlink:href="filesystem_8c.html#a6c3bed1f355bd1952d7ffa87405828c6" target="_top" xlink:title=" ">
<polygon fill="white" stroke="#666666" points="343,-94 279,-94 279,-75 343,-75 343,-94"/>
<text text-anchor="middle" x="311" y="-82" font-family="Helvetica,sans-Serif" font-size="10.00">dir_exists</text>
</a>
</g>
</g>
<!-- Node1&#45;&gt;Node2 -->
<g id="edge1_Node000001_Node000002" class="edge">
<title>Node1&#45;&gt;Node2</title>
<g id="a_edge1_Node000001_Node000002"><a xlink:title=" ">
<path fill="none" stroke="#63b8ff" d="M92.36,-56.07C106.18,-59.06 121.71,-62.17 136,-64.5 181.01,-71.84 233.01,-77.44 268.35,-80.83"/>
<polygon fill="#63b8ff" stroke="#63b8ff" points="268.48,-84.35 278.76,-81.8 269.13,-77.38 268.48,-84.35"/>
</a>
</g>
</g>
<!-- Node5 -->
<g id="Node000005" class="node">
<title>Node5</title>
<g id="a_Node000005"><a xlink:href="filesystem_8c.html#ab92b1f0beb3be903677f3293d0430b62" target="_top" xlink:title=" ">
<polygon fill="white" stroke="#666666" points="212,-56 153,-56 153,-37 212,-37 212,-56"/>
<text text-anchor="middle" x="182.5" y="-44" font-family="Helvetica,sans-Serif" font-size="10.00">read_file</text>
</a>
</g>
</g>
<!-- Node1&#45;&gt;Node5 -->
<g id="edge4_Node000001_Node000005" class="edge">
<title>Node1&#45;&gt;Node5</title>
<g id="a_edge4_Node000001_Node000005"><a xlink:title=" ">
<path fill="none" stroke="#63b8ff" d="M100.34,-46.5C114.35,-46.5 129.4,-46.5 142.69,-46.5"/>
<polygon fill="#63b8ff" stroke="#63b8ff" points="142.92,-50 152.92,-46.5 142.92,-43 142.92,-50"/>
</a>
</g>
</g>
<!-- Node8 -->
<g id="Node000008" class="node">
<title>Node8</title>
<g id="a_Node000008"><a xlink:href="telemetry_8c.html#a6dbf6c6cfd75451e5642ca0b64bf7f5a" target="_top" xlink:title=" ">
<polygon fill="white" stroke="#666666" points="229,-19 136,-19 136,0 229,0 229,-19"/>
<text text-anchor="middle" x="182.5" y="-7" font-family="Helvetica,sans-Serif" font-size="10.00">send_telemetry</text>
</a>
</g>
</g>
<!-- Node1&#45;&gt;Node8 -->
<g id="edge9_Node000001_Node000008" class="edge">
<title>Node1&#45;&gt;Node8</title>
<g id="a_edge9_Node000001_Node000008"><a xlink:title=" ">
<path fill="none" stroke="#63b8ff" d="M84.61,-36.97C100.77,-32.39 120.35,-26.84 137.66,-21.93"/>
<polygon fill="#63b8ff" stroke="#63b8ff" points="138.89,-25.22 147.55,-19.12 136.98,-18.49 138.89,-25.22"/>
</a>
</g>
</g>
<!-- Node3 -->
<g id="Node000003" class="node">
<title>Node3</title>
<g id="a_Node000003"><a xlink:href="filesystem_8c.html#aa109ff29a72d1beadda58bb3a54185b6" target="_top" xlink:title=" ">
<polygon fill="white" stroke="#666666" points="530,-56 495,-56 495,-37 530,-37 530,-56"/>
<text text-anchor="middle" x="512.5" y="-44" font-family="Helvetica,sans-Serif" font-size="10.00">stat</text>
</a>
</g>
</g>
<!-- Node2&#45;&gt;Node3 -->
<g id="edge2_Node000002_Node000003" class="edge">
<title>Node2&#45;&gt;Node3</title>
<g id="a_edge2_Node000002_Node000003"><a xlink:title=" ">
<path fill="none" stroke="#63b8ff" d="M343.01,-82.05C372.98,-79.27 419.53,-73.86 459,-64.5 467.67,-62.45 476.92,-59.53 485.2,-56.64"/>
<polygon fill="#63b8ff" stroke="#63b8ff" points="486.51,-59.89 494.72,-53.19 484.13,-53.31 486.51,-59.89"/>
</a>
</g>
</g>
<!-- Node4 -->
<g id="Node000004" class="node">
<title>Node4</title>
<g id="a_Node000004"><a xlink:href="utilities_2src_2log_8c.html#a4b048be24c6c7f622a6bc6c6bf8ac435" target="_top" xlink:title=" ">
<polygon fill="white" stroke="#666666" points="697,-37 566,-37 566,-18 697,-18 697,-37"/>
<text text-anchor="middle" x="631.5" y="-25" font-family="Helvetica,sans-Serif" font-size="10.00">get_current_task_name</text>
</a>
</g>
</g>
<!-- Node3&#45;&gt;Node4 -->
<g id="edge3_Node000003_Node000004" class="edge">
<title>Node3&#45;&gt;Node4</title>
<g id="a_edge3_Node000003_Node000004"><a xlink:title=" ">
<path fill="none" stroke="#63b8ff" d="M530.02,-43.82C538.68,-42.41 549.93,-40.58 561.77,-38.66"/>
<polygon fill="#63b8ff" stroke="#63b8ff" points="562.49,-42.09 571.8,-37.03 561.36,-35.18 562.49,-42.09"/>
</a>
</g>
</g>
<!-- Node6 -->
<g id="Node000006" class="node">
<title>Node6</title>
<g id="a_Node000006"><a xlink:href="filesystem_8c.html#ae0599d66eddc7fdf656fca874aa5f1d1" target="_top" xlink:title=" ">
<polygon fill="white" stroke="#666666" points="357,-56 265,-56 265,-37 357,-37 357,-56"/>
<text text-anchor="middle" x="311" y="-44" font-family="Helvetica,sans-Serif" font-size="10.00">read_file_offset</text>
</a>
</g>
</g>
<!-- Node5&#45;&gt;Node6 -->
<g id="edge5_Node000005_Node000006" class="edge">
<title>Node5&#45;&gt;Node6</title>
<g id="a_edge5_Node000005_Node000006"><a xlink:title=" ">
<path fill="none" stroke="#63b8ff" d="M212.2,-46.5C224.64,-46.5 239.65,-46.5 254.13,-46.5"/>
<polygon fill="#63b8ff" stroke="#63b8ff" points="254.54,-50 264.54,-46.5 254.54,-43 254.54,-50"/>
</a>
</g>
</g>
<!-- Node6&#45;&gt;Node4 -->
<g id="edge8_Node000006_Node000004" class="edge">
<title>Node6&#45;&gt;Node4</title>
<g id="a_edge8_Node000006_Node000004"><a xlink:title=" ">
<path fill="none" stroke="#63b8ff" d="M344.8,-36.99C359.42,-33.23 376.93,-29.36 393,-27.5 447.19,-21.23 508.79,-21.44 555.68,-23.11"/>
<polygon fill="#63b8ff" stroke="#63b8ff" points="555.63,-26.61 565.76,-23.5 555.9,-19.61 555.63,-26.61"/>
</a>
</g>
</g>
<!-- Node7 -->
<g id="Node000007" class="node">
<title>Node7</title>
<g id="a_Node000007"><a xlink:href="filesystem_8c.html#a07610d3a6787ca02aa3d340759bcb8c9" target="_top" xlink:title=" ">
<polygon fill="white" stroke="#666666" points="459,-56 393,-56 393,-37 459,-37 459,-56"/>
<text text-anchor="middle" x="426" y="-44" font-family="Helvetica,sans-Serif" font-size="10.00">file_exists</text>
</a>
</g>
</g>
<!-- Node6&#45;&gt;Node7 -->
<g id="edge6_Node000006_Node000007" class="edge">
<title>Node6&#45;&gt;Node7</title>
<g id="a_edge6_Node000006_Node000007"><a xlink:title=" ">
<path fill="none" stroke="#63b8ff" d="M357.31,-46.5C365.69,-46.5 374.4,-46.5 382.69,-46.5"/>
<polygon fill="#63b8ff" stroke="#63b8ff" points="382.89,-50 392.89,-46.5 382.89,-43 382.89,-50"/>
</a>
</g>
</g>
<!-- Node7&#45;&gt;Node3 -->
<g id="edge7_Node000007_Node000003" class="edge">
<title>Node7&#45;&gt;Node3</title>
<g id="a_edge7_Node000007_Node000003"><a xlink:title=" ">
<path fill="none" stroke="#63b8ff" d="M459.43,-46.5C467.75,-46.5 476.6,-46.5 484.61,-46.5"/>
<polygon fill="#63b8ff" stroke="#63b8ff" points="484.87,-50 494.87,-46.5 484.87,-43 484.87,-50"/>
</a>
</g>
</g>
</g>
</svg>
