<?xml version="1.0" encoding="UTF-8" standalone="no"?>
<!DOCTYPE svg PUBLIC "-//W3C//DTD SVG 1.1//EN"
 "http://www.w3.org/Graphics/SVG/1.1/DTD/svg11.dtd">
<!-- Generated by graphviz version 12.1.2 (20240928.0832)
 -->
<!-- Title: hb_tlm_log.h Pages: 1 -->
<svg width="265pt" height="84pt"
 viewBox="0.00 0.00 264.88 84.00" xmlns="http://www.w3.org/2000/svg" xmlns:xlink="http://www.w3.org/1999/xlink">
<g id="graph0" class="graph" transform="scale(1 1) rotate(0) translate(4 80)">
<title>hb_tlm_log.h</title>
<!-- Node1 -->
<g id="Node000001" class="node">
<title>Node1</title>
<g id="a_Node000001"><a xlink:title=" ">
<polygon fill="#999999" stroke="#666666" points="156.25,-76 84.75,-76 84.75,-56 156.25,-56 156.25,-76"/>
<text text-anchor="middle" x="120.5" y="-62.5" font-family="Helvetica,sans-Serif" font-size="10.00">hb_tlm_log.h</text>
</a>
</g>
</g>
<!-- Node2 -->
<g id="Node000002" class="node">
<title>Node2</title>
<g id="a_Node000002"><a xlink:href="command_8c.html" target="_top" xlink:title=" ">
<polygon fill="white" stroke="#666666" points="67,-20 0,-20 0,0 67,0 67,-20"/>
<text text-anchor="middle" x="33.5" y="-6.5" font-family="Helvetica,sans-Serif" font-size="10.00">command.c</text>
</a>
</g>
</g>
<!-- Node1&#45;&gt;Node2 -->
<g id="edge1_Node000001_Node000002" class="edge">
<title>Node1&#45;&gt;Node2</title>
<g id="a_edge1_Node000001_Node000002"><a xlink:title=" ">
<path fill="none" stroke="#63b8ff" d="M95.6,-49.54C80.49,-40.17 61.7,-28.51 48.77,-20.48"/>
<polygon fill="#63b8ff" stroke="#63b8ff" points="93.72,-52.5 104.06,-54.8 97.41,-46.55 93.72,-52.5"/>
</a>
</g>
</g>
<!-- Node3 -->
<g id="Node000003" class="node">
<title>Node3</title>
<g id="a_Node000003"><a xlink:href="hb__tlm__log_8c.html" target="_top" xlink:title=" ">
<polygon fill="white" stroke="#666666" points="156.25,-20 84.75,-20 84.75,0 156.25,0 156.25,-20"/>
<text text-anchor="middle" x="120.5" y="-6.5" font-family="Helvetica,sans-Serif" font-size="10.00">hb_tlm_log.c</text>
</a>
</g>
</g>
<!-- Node1&#45;&gt;Node3 -->
<g id="edge2_Node000001_Node000003" class="edge">
<title>Node1&#45;&gt;Node3</title>
<g id="a_edge2_Node000001_Node000003"><a xlink:title=" ">
<path fill="none" stroke="#63b8ff" d="M120.5,-44.13C120.5,-35.9 120.5,-26.85 120.5,-20.3"/>
<polygon fill="#63b8ff" stroke="#63b8ff" points="117,-44.08 120.5,-54.08 124,-44.08 117,-44.08"/>
</a>
</g>
</g>
<!-- Node4 -->
<g id="Node000004" class="node">
<title>Node4</title>
<g id="a_Node000004"><a xlink:href="heartbeat__job_8c.html" target="_top" xlink:title=" ">
<polygon fill="white" stroke="#666666" points="256.88,-20 174.12,-20 174.12,0 256.88,0 256.88,-20"/>
<text text-anchor="middle" x="215.5" y="-6.5" font-family="Helvetica,sans-Serif" font-size="10.00">heartbeat_job.c</text>
</a>
</g>
</g>
<!-- Node1&#45;&gt;Node4 -->
<g id="edge3_Node000001_Node000004" class="edge">
<title>Node1&#45;&gt;Node4</title>
<g id="a_edge3_Node000001_Node000004"><a xlink:title=" ">
<path fill="none" stroke="#63b8ff" d="M146.75,-50.08C163.4,-40.62 184.43,-28.66 198.82,-20.48"/>
<polygon fill="#63b8ff" stroke="#63b8ff" points="145.33,-46.86 138.36,-54.85 148.79,-52.95 145.33,-46.86"/>
</a>
</g>
</g>
</g>
</svg>
