<?xml version="1.0" encoding="UTF-8" standalone="no"?>
<!DOCTYPE svg PUBLIC "-//W3C//DTD SVG 1.1//EN"
 "http://www.w3.org/Graphics/SVG/1.1/DTD/svg11.dtd">
<!-- Generated by graphviz version 2.43.0 (0)
 -->
<!-- Title: hb_tlm_log.c Pages: 1 -->
<!--zoomable 302 -->

<svg id="main" version="1.1" xmlns="http://www.w3.org/2000/svg" xmlns:xlink="http://www.w3.org/1999/xlink" xml:space="preserve" onload="init(evt)">

<style type="text/css"><![CDATA[
.node, .edge {opacity: 0.7;}
.node.selected, .edge.selected {opacity: 1;}
.edge:hover path { stroke: red; }
.edge:hover polygon { stroke: red; fill: red; }
]]></style>

<defs>
  <circle id="rim" cx="0" cy="0" r="7"/>
  <circle id="rim2" cx="0" cy="0" r="3.5"/>
  <g id="zoomPlus">
    <use xlink:href="#rim" fill="#404040"><set attributeName="fill" to="#808080" begin="zoomplus.mouseover" end="zoomplus.mouseout"/></use>
    <path d="M-4,0h8M0,-4v8" fill="none" stroke="white" stroke-width="1.5" pointer-events="none"/>
  </g>
  <g id="zoomMin">
    <use xlink:href="#rim" fill="#404040"><set attributeName="fill" to="#808080" begin="zoomminus.mouseover" end="zoomminus.mouseout"/></use>
    <path d="M-4,0h8" fill="none" stroke="white" stroke-width="1.5" pointer-events="none"/>
  </g>
  <g id="arrowUp" transform="translate(30 24)">
    <use xlink:href="#rim"/>
    <path pointer-events="none" fill="none" stroke="white" stroke-width="1.5" d="M0,-3.0v7 M-2.5,-0.5L0,-3.0L2.5,-0.5"/>
  </g>
  <g id="arrowRight" transform="rotate(90) translate(36 -43)">
    <use xlink:href="#rim"/>
    <path pointer-events="none" fill="none" stroke="white" stroke-width="1.5" d="M0,-3.0v7 M-2.5,-0.5L0,-3.0L2.5,-0.5"/>
  </g>
  <g id="arrowDown" transform="rotate(180) translate(-30 -48)">
    <use xlink:href="#rim"/>
    <path pointer-events="none" fill="none" stroke="white" stroke-width="1.5" d="M0,-3.0v7 M-2.5,-0.5L0,-3.0L2.5,-0.5"/>
  </g>
  <g id="arrowLeft" transform="rotate(270) translate(-36 17)">
    <use xlink:href="#rim"/>
    <path pointer-events="none" fill="none" stroke="white" stroke-width="1.5" d="M0,-3.0v7 M-2.5,-0.5L0,-3.0L2.5,-0.5"/>
  </g>
  <g id="resetDef">
    <use xlink:href="#rim2" fill="#404040"><set attributeName="fill" to="#808080" begin="reset.mouseover" end="reset.mouseout"/></use>
  </g>
</defs>
<script type="application/ecmascript">
var viewWidth = 824;
var viewHeight = 302;
var sectionId = 'dynsection-0';
</script>
<script type="application/ecmascript" xlink:href="svg.min.js"/>
<svg id="graph" class="graph">
<g id="viewport">
<title>hb_tlm_log.c</title>
<!-- Node1 -->
<g id="Node000001" class="node">
<title>Node1</title>
<g id="a_Node000001"><a xlink:title=" ">
<polygon fill="#999999" stroke="#666666" points="681,-294 602,-294 602,-275 681,-275 681,-294"/>
<text text-anchor="middle" x="641.5" y="-282" font-family="Helvetica,sans-Serif" font-size="10.00">hb_tlm_log.c</text>
</a>
</g>
</g>
<!-- Node2 -->
<g id="Node000002" class="node">
<title>Node2</title>
<g id="a_Node000002"><a xlink:href="hb__tlm__log_8h.html" target="_top" xlink:title=" ">
<polygon fill="white" stroke="#666666" points="307.5,-239 227.5,-239 227.5,-220 307.5,-220 307.5,-239"/>
<text text-anchor="middle" x="267.5" y="-227" font-family="Helvetica,sans-Serif" font-size="10.00">hb_tlm_log.h</text>
</a>
</g>
</g>
<!-- Node1&#45;&gt;Node2 -->
<g id="edge1_Node000001_Node000002" class="edge">
<title>Node1&#45;&gt;Node2</title>
<g id="a_edge1_Node000001_Node000002"><a xlink:title=" ">
<path fill="none" stroke="#63b8ff" d="M601.83,-277.88C533.33,-268.17 393.01,-248.29 317.78,-237.63"/>
<polygon fill="#63b8ff" stroke="#63b8ff" points="318,-234.12 307.61,-236.18 317.02,-241.05 318,-234.12"/>
</a>
</g>
</g>
<!-- Node7 -->
<g id="Node000007" class="node">
<title>Node7</title>
<g id="a_Node000007"><a xlink:href="filesystem_8h.html" target="_top" xlink:title="Handles file system operations and management.">
<polygon fill="white" stroke="#666666" points="393,-74 316,-74 316,-55 393,-55 393,-74"/>
<text text-anchor="middle" x="354.5" y="-62" font-family="Helvetica,sans-Serif" font-size="10.00">filesystem.h</text>
</a>
</g>
</g>
<!-- Node1&#45;&gt;Node7 -->
<g id="edge29_Node000001_Node000007" class="edge">
<title>Node1&#45;&gt;Node7</title>
<g id="a_edge29_Node000001_Node000007"><a xlink:title=" ">
<path fill="none" stroke="#63b8ff" d="M617.75,-274.89C568.27,-255.85 453.13,-205.71 385.5,-129 373.85,-115.79 365.51,-97.41 360.44,-83.83"/>
<polygon fill="#63b8ff" stroke="#63b8ff" points="363.67,-82.45 357.07,-74.15 357.05,-84.75 363.67,-82.45"/>
</a>
</g>
</g>
<!-- Node14 -->
<g id="Node000014" class="node">
<title>Node14</title>
<g id="a_Node000014"><a xlink:title=" ">
<polygon fill="#e0e0e0" stroke="#999999" points="698.5,-19 636.5,-19 636.5,0 698.5,0 698.5,-19"/>
<text text-anchor="middle" x="667.5" y="-7" font-family="Helvetica,sans-Serif" font-size="10.00">stdbool.h</text>
</a>
</g>
</g>
<!-- Node1&#45;&gt;Node14 -->
<g id="edge30_Node000001_Node000014" class="edge">
<title>Node1&#45;&gt;Node14</title>
<g id="a_edge30_Node000001_Node000014"><a xlink:title=" ">
<path fill="none" stroke="#63b8ff" d="M644.87,-274.98C651.7,-256.93 666.5,-213.41 666.5,-175.5 666.5,-175.5 666.5,-175.5 666.5,-118.5 666.5,-87.19 666.93,-50.77 667.22,-29.23"/>
<polygon fill="#63b8ff" stroke="#63b8ff" points="670.72,-29.23 667.37,-19.18 663.72,-29.13 670.72,-29.23"/>
</a>
</g>
</g>
<!-- Node18 -->
<g id="Node000018" class="node">
<title>Node18</title>
<g id="a_Node000018"><a xlink:href="log_8h.html" target="_top" xlink:title=" ">
<polygon fill="white" stroke="#666666" points="638,-239 597,-239 597,-220 638,-220 638,-239"/>
<text text-anchor="middle" x="617.5" y="-227" font-family="Helvetica,sans-Serif" font-size="10.00">log.h</text>
</a>
</g>
</g>
<!-- Node1&#45;&gt;Node18 -->
<g id="edge26_Node000001_Node000018" class="edge">
<title>Node1&#45;&gt;Node18</title>
<g id="a_edge26_Node000001_Node000018"><a xlink:title=" ">
<path fill="none" stroke="#63b8ff" d="M637.54,-274.75C634.29,-267.57 629.58,-257.18 625.55,-248.27"/>
<polygon fill="#63b8ff" stroke="#63b8ff" points="628.7,-246.75 621.39,-239.09 622.33,-249.64 628.7,-246.75"/>
</a>
</g>
</g>
<!-- Node19 -->
<g id="Node000019" class="node">
<title>Node19</title>
<g id="a_Node000019"><a xlink:href="stdio_8h.html" target="_top" xlink:title=" ">
<polygon fill="white" stroke="#666666" points="744.5,-239 694.5,-239 694.5,-220 744.5,-220 744.5,-239"/>
<text text-anchor="middle" x="719.5" y="-227" font-family="Helvetica,sans-Serif" font-size="10.00">stdio.h</text>
</a>
</g>
</g>
<!-- Node1&#45;&gt;Node19 -->
<g id="edge31_Node000001_Node000019" class="edge">
<title>Node1&#45;&gt;Node19</title>
<g id="a_edge31_Node000001_Node000019"><a xlink:title=" ">
<path fill="none" stroke="#63b8ff" d="M654.03,-274.98C665.9,-266.92 683.96,-254.65 698.11,-245.03"/>
<polygon fill="#63b8ff" stroke="#63b8ff" points="700.44,-247.69 706.74,-239.17 696.5,-241.9 700.44,-247.69"/>
</a>
</g>
</g>
<!-- Node20 -->
<g id="Node000020" class="node">
<title>Node20</title>
<g id="a_Node000020"><a xlink:title=" ">
<polygon fill="#e0e0e0" stroke="#999999" points="816,-239 763,-239 763,-220 816,-220 816,-239"/>
<text text-anchor="middle" x="789.5" y="-227" font-family="Helvetica,sans-Serif" font-size="10.00">string.h</text>
</a>
</g>
</g>
<!-- Node1&#45;&gt;Node20 -->
<g id="edge32_Node000001_Node000020" class="edge">
<title>Node1&#45;&gt;Node20</title>
<g id="a_edge32_Node000001_Node000020"><a xlink:title=" ">
<path fill="none" stroke="#63b8ff" d="M665.28,-274.98C689.73,-266.23 728.03,-252.51 755.65,-242.62"/>
<polygon fill="#63b8ff" stroke="#63b8ff" points="757.05,-245.84 765.29,-239.17 754.69,-239.25 757.05,-245.84"/>
</a>
</g>
</g>
<!-- Node3 -->
<g id="Node000003" class="node">
<title>Node3</title>
<g id="a_Node000003"><a xlink:href="telemetry_8h.html" target="_top" xlink:title="Functions for packaging and queuing telemetry packets for sending.">
<polygon fill="white" stroke="#666666" points="550.5,-184 478.5,-184 478.5,-165 550.5,-165 550.5,-184"/>
<text text-anchor="middle" x="514.5" y="-172" font-family="Helvetica,sans-Serif" font-size="10.00">telemetry.h</text>
</a>
</g>
</g>
<!-- Node2&#45;&gt;Node3 -->
<g id="edge2_Node000002_Node000003" class="edge">
<title>Node2&#45;&gt;Node3</title>
<g id="a_edge2_Node000002_Node000003"><a xlink:title=" ">
<path fill="none" stroke="#63b8ff" d="M307.18,-219.98C351.14,-210.55 421.93,-195.36 468.33,-185.41"/>
<polygon fill="#63b8ff" stroke="#63b8ff" points="469.09,-188.82 478.13,-183.3 467.62,-181.98 469.09,-188.82"/>
</a>
</g>
</g>
<!-- Node13 -->
<g id="Node000013" class="node">
<title>Node13</title>
<g id="a_Node000013"><a xlink:title=" ">
<polygon fill="#e0e0e0" stroke="#999999" points="53,-19 0,-19 0,0 53,0 53,-19"/>
<text text-anchor="middle" x="26.5" y="-7" font-family="Helvetica,sans-Serif" font-size="10.00">stdint.h</text>
</a>
</g>
</g>
<!-- Node2&#45;&gt;Node13 -->
<g id="edge18_Node000002_Node000013" class="edge">
<title>Node2&#45;&gt;Node13</title>
<g id="a_edge18_Node000002_Node000013"><a xlink:title=" ">
<path fill="none" stroke="#63b8ff" d="M249.9,-219.85C219.69,-204.46 157.06,-170.03 113.5,-129 80.35,-97.78 51.15,-52.52 36.5,-27.95"/>
<polygon fill="#63b8ff" stroke="#63b8ff" points="39.37,-25.93 31.29,-19.07 33.33,-29.46 39.37,-25.93"/>
</a>
</g>
</g>
<!-- Node15 -->
<g id="Node000015" class="node">
<title>Node15</title>
<g id="a_Node000015"><a xlink:href="command_8h.html" target="_top" xlink:title="Handles decoding and triggering responses to received commands.">
<polygon fill="white" stroke="#666666" points="288.5,-184 214.5,-184 214.5,-165 288.5,-165 288.5,-184"/>
<text text-anchor="middle" x="251.5" y="-172" font-family="Helvetica,sans-Serif" font-size="10.00">command.h</text>
</a>
</g>
</g>
<!-- Node2&#45;&gt;Node15 -->
<g id="edge19_Node000002_Node000015" class="edge">
<title>Node2&#45;&gt;Node15</title>
<g id="a_edge19_Node000002_Node000015"><a xlink:title=" ">
<path fill="none" stroke="#63b8ff" d="M264.86,-219.75C262.74,-212.72 259.69,-202.62 257.04,-193.84"/>
<polygon fill="#63b8ff" stroke="#63b8ff" points="260.33,-192.65 254.09,-184.09 253.63,-194.67 260.33,-192.65"/>
</a>
</g>
</g>
<!-- Node4 -->
<g id="Node000004" class="node">
<title>Node4</title>
<g id="a_Node000004"><a xlink:title=" ">
<polygon fill="#e0e0e0" stroke="#999999" points="544,-19 471,-19 471,0 544,0 544,-19"/>
<text text-anchor="middle" x="507.5" y="-7" font-family="Helvetica,sans-Serif" font-size="10.00">FreeRTOS.h</text>
</a>
</g>
</g>
<!-- Node3&#45;&gt;Node4 -->
<g id="edge3_Node000003_Node000004" class="edge">
<title>Node3&#45;&gt;Node4</title>
<g id="a_edge3_Node000003_Node000004"><a xlink:title=" ">
<path fill="none" stroke="#63b8ff" d="M514.12,-164.74C513.03,-139.31 509.84,-65.08 508.32,-29.69"/>
<polygon fill="#63b8ff" stroke="#63b8ff" points="511.8,-29.15 507.88,-19.31 504.81,-29.45 511.8,-29.15"/>
</a>
</g>
</g>
<!-- Node5 -->
<g id="Node000005" class="node">
<title>Node5</title>
<g id="a_Node000005"><a xlink:title=" ">
<polygon fill="#e0e0e0" stroke="#999999" points="618.5,-19 562.5,-19 562.5,0 618.5,0 618.5,-19"/>
<text text-anchor="middle" x="590.5" y="-7" font-family="Helvetica,sans-Serif" font-size="10.00">queue.h</text>
</a>
</g>
</g>
<!-- Node3&#45;&gt;Node5 -->
<g id="edge4_Node000003_Node000005" class="edge">
<title>Node3&#45;&gt;Node5</title>
<g id="a_edge4_Node000003_Node000005"><a xlink:title=" ">
<path fill="none" stroke="#63b8ff" d="M518.59,-164.74C530.55,-139.09 565.66,-63.78 581.98,-28.78"/>
<polygon fill="#63b8ff" stroke="#63b8ff" points="585.34,-29.85 586.39,-19.31 579,-26.89 585.34,-29.85"/>
</a>
</g>
</g>
<!-- Node6 -->
<g id="Node000006" class="node">
<title>Node6</title>
<g id="a_Node000006"><a xlink:href="file__downlink_8h.html" target="_top" xlink:title=" ">
<polygon fill="white" stroke="#666666" points="486,-129 395,-129 395,-110 486,-110 486,-129"/>
<text text-anchor="middle" x="440.5" y="-117" font-family="Helvetica,sans-Serif" font-size="10.00">file_downlink.h</text>
</a>
</g>
</g>
<!-- Node3&#45;&gt;Node6 -->
<g id="edge5_Node000003_Node000006" class="edge">
<title>Node3&#45;&gt;Node6</title>
<g id="a_edge5_Node000003_Node000006"><a xlink:title=" ">
<path fill="none" stroke="#63b8ff" d="M502.61,-164.98C491.35,-156.92 474.21,-144.65 460.79,-135.03"/>
<polygon fill="#63b8ff" stroke="#63b8ff" points="462.77,-132.15 452.61,-129.17 458.7,-137.84 462.77,-132.15"/>
</a>
</g>
</g>
<!-- Node6&#45;&gt;Node4 -->
<g id="edge6_Node000006_Node000004" class="edge">
<title>Node6&#45;&gt;Node4</title>
<g id="a_edge6_Node000006_Node000004"><a xlink:title=" ">
<path fill="none" stroke="#63b8ff" d="M442.21,-109.73C444.98,-96.94 451.3,-72.77 462.5,-55 469.41,-44.04 479.5,-33.74 488.37,-25.81"/>
<polygon fill="#63b8ff" stroke="#63b8ff" points="490.73,-28.4 496.06,-19.25 486.18,-23.08 490.73,-28.4"/>
</a>
</g>
</g>
<!-- Node6&#45;&gt;Node5 -->
<g id="edge7_Node000006_Node000005" class="edge">
<title>Node6&#45;&gt;Node5</title>
<g id="a_edge7_Node000006_Node000005"><a xlink:title=" ">
<path fill="none" stroke="#63b8ff" d="M452.52,-109.84C478.19,-91.36 538.61,-47.86 570.3,-25.05"/>
<polygon fill="#63b8ff" stroke="#63b8ff" points="572.35,-27.88 578.42,-19.2 568.26,-22.2 572.35,-27.88"/>
</a>
</g>
</g>
<!-- Node6&#45;&gt;Node7 -->
<g id="edge8_Node000006_Node000007" class="edge">
<title>Node6&#45;&gt;Node7</title>
<g id="a_edge8_Node000006_Node000007"><a xlink:title=" ">
<path fill="none" stroke="#63b8ff" d="M426.68,-109.98C413.35,-101.77 392.92,-89.18 377.19,-79.49"/>
<polygon fill="#63b8ff" stroke="#63b8ff" points="378.92,-76.44 368.57,-74.17 375.25,-82.4 378.92,-76.44"/>
</a>
</g>
</g>
<!-- Node7&#45;&gt;Node4 -->
<g id="edge9_Node000007_Node000004" class="edge">
<title>Node7&#45;&gt;Node4</title>
<g id="a_edge9_Node000007_Node000004"><a xlink:title=" ">
<path fill="none" stroke="#63b8ff" d="M379.08,-54.98C404.55,-46.16 444.54,-32.31 473.13,-22.41"/>
<polygon fill="#63b8ff" stroke="#63b8ff" points="474.42,-25.66 482.73,-19.08 472.13,-19.05 474.42,-25.66"/>
</a>
</g>
</g>
<!-- Node7&#45;&gt;Node5 -->
<g id="edge10_Node000007_Node000005" class="edge">
<title>Node7&#45;&gt;Node5</title>
<g id="a_edge10_Node000007_Node000005"><a xlink:title=" ">
<path fill="none" stroke="#63b8ff" d="M393.04,-54.95C431.1,-46.49 491.24,-33.09 552.4,-19.24"/>
<polygon fill="#63b8ff" stroke="#63b8ff" points="553.24,-22.64 562.22,-17.01 551.7,-15.81 553.24,-22.64"/>
</a>
</g>
</g>
<!-- Node8 -->
<g id="Node000008" class="node">
<title>Node8</title>
<g id="a_Node000008"><a xlink:title=" ">
<polygon fill="#e0e0e0" stroke="#999999" points="273,-19 226,-19 226,0 273,0 273,-19"/>
<text text-anchor="middle" x="249.5" y="-7" font-family="Helvetica,sans-Serif" font-size="10.00">task.h</text>
</a>
</g>
</g>
<!-- Node7&#45;&gt;Node8 -->
<g id="edge11_Node000007_Node000008" class="edge">
<title>Node7&#45;&gt;Node8</title>
<g id="a_edge11_Node000007_Node000008"><a xlink:title=" ">
<path fill="none" stroke="#63b8ff" d="M337.63,-54.98C320.89,-46.54 295,-33.47 275.61,-23.68"/>
<polygon fill="#63b8ff" stroke="#63b8ff" points="277.18,-20.55 266.68,-19.17 274.03,-26.8 277.18,-20.55"/>
</a>
</g>
</g>
<!-- Node9 -->
<g id="Node000009" class="node">
<title>Node9</title>
<g id="a_Node000009"><a xlink:title=" ">
<polygon fill="#e0e0e0" stroke="#999999" points="323.5,-19 291.5,-19 291.5,0 323.5,0 323.5,-19"/>
<text text-anchor="middle" x="307.5" y="-7" font-family="Helvetica,sans-Serif" font-size="10.00">ff.h</text>
</a>
</g>
</g>
<!-- Node7&#45;&gt;Node9 -->
<g id="edge12_Node000007_Node000009" class="edge">
<title>Node7&#45;&gt;Node9</title>
<g id="a_edge12_Node000007_Node000009"><a xlink:title=" ">
<path fill="none" stroke="#63b8ff" d="M346.74,-54.75C340.03,-47.18 330.16,-36.05 321.99,-26.84"/>
<polygon fill="#63b8ff" stroke="#63b8ff" points="324.37,-24.25 315.12,-19.09 319.13,-28.89 324.37,-24.25"/>
</a>
</g>
</g>
<!-- Node10 -->
<g id="Node000010" class="node">
<title>Node10</title>
<g id="a_Node000010"><a xlink:href="filesystem__errors_8h.html" target="_top" xlink:title=" ">
<polygon fill="white" stroke="#666666" points="453,-19 342,-19 342,0 453,0 453,-19"/>
<text text-anchor="middle" x="397.5" y="-7" font-family="Helvetica,sans-Serif" font-size="10.00">filesystem_errors.h</text>
</a>
</g>
</g>
<!-- Node7&#45;&gt;Node10 -->
<g id="edge13_Node000007_Node000010" class="edge">
<title>Node7&#45;&gt;Node10</title>
<g id="a_edge13_Node000007_Node000010"><a xlink:title=" ">
<path fill="none" stroke="#63b8ff" d="M361.6,-54.75C367.67,-47.26 376.59,-36.28 384.01,-27.13"/>
<polygon fill="#63b8ff" stroke="#63b8ff" points="386.95,-29.06 390.53,-19.09 381.51,-24.65 386.95,-29.06"/>
</a>
</g>
</g>
<!-- Node11 -->
<g id="Node000011" class="node">
<title>Node11</title>
<g id="a_Node000011"><a xlink:title=" ">
<polygon fill="#e0e0e0" stroke="#999999" points="133.5,-19 71.5,-19 71.5,0 133.5,0 133.5,-19"/>
<text text-anchor="middle" x="102.5" y="-7" font-family="Helvetica,sans-Serif" font-size="10.00">semphr.h</text>
</a>
</g>
</g>
<!-- Node7&#45;&gt;Node11 -->
<g id="edge14_Node000007_Node000011" class="edge">
<title>Node7&#45;&gt;Node11</title>
<g id="a_edge14_Node000007_Node000011"><a xlink:title=" ">
<path fill="none" stroke="#63b8ff" d="M315.81,-55.41C275.38,-46.95 209.83,-33.21 143.69,-19.25"/>
<polygon fill="#63b8ff" stroke="#63b8ff" points="144.01,-15.74 133.51,-17.1 142.57,-22.59 144.01,-15.74"/>
</a>
</g>
</g>
<!-- Node12 -->
<g id="Node000012" class="node">
<title>Node12</title>
<g id="a_Node000012"><a xlink:title=" ">
<polygon fill="#e0e0e0" stroke="#999999" points="207.5,-19 151.5,-19 151.5,0 207.5,0 207.5,-19"/>
<text text-anchor="middle" x="179.5" y="-7" font-family="Helvetica,sans-Serif" font-size="10.00">stddef.h</text>
</a>
</g>
</g>
<!-- Node7&#45;&gt;Node12 -->
<g id="edge15_Node000007_Node000012" class="edge">
<title>Node7&#45;&gt;Node12</title>
<g id="a_edge15_Node000007_Node000012"><a xlink:title=" ">
<path fill="none" stroke="#63b8ff" d="M326.38,-54.98C296.79,-46.02 250.03,-31.86 217.24,-21.93"/>
<polygon fill="#63b8ff" stroke="#63b8ff" points="218.13,-18.54 207.55,-18.99 216.1,-25.24 218.13,-18.54"/>
</a>
</g>
</g>
<!-- Node7&#45;&gt;Node13 -->
<g id="edge16_Node000007_Node000013" class="edge">
<title>Node7&#45;&gt;Node13</title>
<g id="a_edge16_Node000007_Node000013"><a xlink:title=" ">
<path fill="none" stroke="#63b8ff" d="M316,-57.81C248.16,-47.76 110.74,-27.29 63.23,-18.91"/>
<polygon fill="#63b8ff" stroke="#63b8ff" points="63.65,-15.43 53.18,-17.05 62.38,-22.31 63.65,-15.43"/>
</a>
</g>
</g>
<!-- Node7&#45;&gt;Node14 -->
<g id="edge17_Node000007_Node000014" class="edge">
<title>Node7&#45;&gt;Node14</title>
<g id="a_edge17_Node000007_Node000014"><a xlink:title=" ">
<path fill="none" stroke="#63b8ff" d="M393.03,-57.81C444.08,-50.15 537.16,-35.72 626.1,-19.19"/>
<polygon fill="#63b8ff" stroke="#63b8ff" points="626.9,-22.6 636.09,-17.32 625.61,-15.72 626.9,-22.6"/>
</a>
</g>
</g>
<!-- Node15&#45;&gt;Node13 -->
<g id="edge20_Node000015_Node000013" class="edge">
<title>Node15&#45;&gt;Node13</title>
<g id="a_edge20_Node000015_Node000013"><a xlink:title=" ">
<path fill="none" stroke="#63b8ff" d="M248.68,-164.66C244.04,-151.35 233.68,-126 217.5,-110 172.7,-65.71 104.13,-36.62 62.49,-21.9"/>
<polygon fill="#63b8ff" stroke="#63b8ff" points="63.62,-18.59 53.02,-18.64 61.34,-25.21 63.62,-18.59"/>
</a>
</g>
</g>
<!-- Node16 -->
<g id="Node000016" class="node">
<title>Node16</title>
<g id="a_Node000016"><a xlink:title=" ">
<polygon fill="#e0e0e0" stroke="#999999" points="208.5,-129 122.5,-129 122.5,-110 208.5,-110 208.5,-129"/>
<text text-anchor="middle" x="165.5" y="-117" font-family="Helvetica,sans-Serif" font-size="10.00">spacepacket.h</text>
</a>
</g>
</g>
<!-- Node15&#45;&gt;Node16 -->
<g id="edge21_Node000015_Node000016" class="edge">
<title>Node15&#45;&gt;Node16</title>
<g id="a_edge21_Node000015_Node000016"><a xlink:title=" ">
<path fill="none" stroke="#63b8ff" d="M237.68,-164.98C224.35,-156.77 203.92,-144.18 188.19,-134.49"/>
<polygon fill="#63b8ff" stroke="#63b8ff" points="189.92,-131.44 179.57,-129.17 186.25,-137.4 189.92,-131.44"/>
</a>
</g>
</g>
<!-- Node17 -->
<g id="Node000017" class="node">
<title>Node17</title>
<g id="a_Node000017"><a xlink:href="user__auth_8h.html" target="_top" xlink:title=" ">
<polygon fill="white" stroke="#666666" points="338.5,-129 264.5,-129 264.5,-110 338.5,-110 338.5,-129"/>
<text text-anchor="middle" x="301.5" y="-117" font-family="Helvetica,sans-Serif" font-size="10.00">user_auth.h</text>
</a>
</g>
</g>
<!-- Node15&#45;&gt;Node17 -->
<g id="edge22_Node000015_Node000017" class="edge">
<title>Node15&#45;&gt;Node17</title>
<g id="a_edge22_Node000015_Node000017"><a xlink:title=" ">
<path fill="none" stroke="#63b8ff" d="M259.76,-164.75C266.96,-157.11 277.61,-145.82 286.35,-136.56"/>
<polygon fill="#63b8ff" stroke="#63b8ff" points="289.08,-138.76 293.4,-129.09 283.99,-133.96 289.08,-138.76"/>
</a>
</g>
</g>
<!-- Node17&#45;&gt;Node7 -->
<g id="edge25_Node000017_Node000007" class="edge">
<title>Node17&#45;&gt;Node7</title>
<g id="a_edge25_Node000017_Node000007"><a xlink:title=" ">
<path fill="none" stroke="#63b8ff" d="M310.25,-109.75C317.97,-102.03 329.4,-90.6 338.72,-81.28"/>
<polygon fill="#63b8ff" stroke="#63b8ff" points="341.31,-83.64 345.91,-74.09 336.36,-78.69 341.31,-83.64"/>
</a>
</g>
</g>
<!-- Node17&#45;&gt;Node13 -->
<g id="edge24_Node000017_Node000013" class="edge">
<title>Node17&#45;&gt;Node13</title>
<g id="a_edge24_Node000017_Node000013"><a xlink:title=" ">
<path fill="none" stroke="#63b8ff" d="M297.2,-109.89C289.75,-95.94 273.04,-68.56 250.5,-55 180.31,-12.77 148.12,-34.97 63.26,-18.97"/>
<polygon fill="#63b8ff" stroke="#63b8ff" points="63.7,-15.49 53.21,-16.94 62.32,-22.35 63.7,-15.49"/>
</a>
</g>
</g>
<!-- Node17&#45;&gt;Node14 -->
<g id="edge23_Node000017_Node000014" class="edge">
<title>Node17&#45;&gt;Node14</title>
<g id="a_edge23_Node000017_Node000014"><a xlink:title=" ">
<path fill="none" stroke="#63b8ff" d="M330.53,-109.94C395.92,-90.64 554.84,-43.74 628.64,-21.97"/>
<polygon fill="#63b8ff" stroke="#63b8ff" points="629.87,-25.25 638.47,-19.07 627.89,-18.54 629.87,-25.25"/>
</a>
</g>
</g>
<!-- Node18&#45;&gt;Node3 -->
<g id="edge27_Node000018_Node000003" class="edge">
<title>Node18&#45;&gt;Node3</title>
<g id="a_edge27_Node000018_Node000003"><a xlink:title=" ">
<path fill="none" stroke="#63b8ff" d="M600.95,-219.98C584.61,-211.57 559.37,-198.59 540.37,-188.81"/>
<polygon fill="#63b8ff" stroke="#63b8ff" points="541.84,-185.63 531.35,-184.17 538.64,-191.86 541.84,-185.63"/>
</a>
</g>
</g>
<!-- Node18&#45;&gt;Node14 -->
<g id="edge28_Node000018_Node000014" class="edge">
<title>Node18&#45;&gt;Node14</title>
<g id="a_edge28_Node000018_Node000014"><a xlink:title=" ">
<path fill="none" stroke="#63b8ff" d="M618.86,-219.74C622.94,-194.15 635.78,-117.33 652.5,-55 654.85,-46.24 657.99,-36.69 660.79,-28.69"/>
<polygon fill="#63b8ff" stroke="#63b8ff" points="664.09,-29.86 664.18,-19.26 657.5,-27.49 664.09,-29.86"/>
</a>
</g>
</g>
</g>
</svg>

<g id="navigator" transform="translate(0 0)" fill="#404254">
  <rect fill="#f2f5e9" fill-opacity="0.5" stroke="#606060" stroke-width=".5" x="0" y="0" width="60" height="60"/>
  <use id="zoomplus" xlink:href="#zoomPlus" x="17" y="9" onmousedown="handleZoom(evt,'in')"/>
  <use id="zoomminus" xlink:href="#zoomMin" x="42" y="9" onmousedown="handleZoom(evt,'out')"/>
  <use id="reset" xlink:href="#resetDef" x="30" y="36" onmousedown="handleReset()"/>
   <use id="arrowup" xlink:href="#arrowUp" x="0" y="0" onmousedown="handlePan(0,-1)"/>
  <use id="arrowright" xlink:href="#arrowRight" x="0" y="0" onmousedown="handlePan(1,0)"/>
  <use id="arrowdown" xlink:href="#arrowDown" x="0" y="0" onmousedown="handlePan(0,1)"/>
  <use id="arrowleft" xlink:href="#arrowLeft" x="0" y="0" onmousedown="handlePan(-1,0)"/>
</g>
<svg viewBox="0 0 15 15" width="100%" height="30px" preserveAspectRatio="xMaxYMin meet">
 <g id="arrow_out" transform="scale(0.3 0.3)">
  <a xlink:href="hb__tlm__log_8c__incl_org.svg" target="_base">
   <rect id="button" ry="5" rx="5" y="6" x="6" height="38" width="38"
        fill="#f2f5e9" fill-opacity="0.5" stroke="#606060" stroke-width="1.0"/>
   <path id="arrow"
     d="M 11.500037,31.436501 C 11.940474,20.09759 22.043105,11.32322 32.158766,21.979434 L 37.068811,17.246167 C 37.068811,17.246167 37.088388,32 37.088388,32 L 22.160133,31.978069 C 22.160133,31.978069 26.997745,27.140456 26.997745,27.140456 C 18.528582,18.264221 13.291696,25.230495 11.500037,31.436501 z"
     style="fill:#404040;"/>
  </a>
 </g>
</svg>

<style type='text/css'>
<![CDATA[
[data-mouse-over-selected='false'] { opacity: 0.7; }
[data-mouse-over-selected='true']  { opacity: 1.0; }
]]>
</style>
<script type="application/ecmascript"><![CDATA[
document.addEventListener('DOMContentLoaded', (event) => {
  highlightEdges();
  highlightAdjacentNodes();
});
]]></script>
</svg>
