<?xml version="1.0" encoding="UTF-8" standalone="no"?>
<!DOCTYPE svg PUBLIC "-//W3C//DTD SVG 1.1//EN"
 "http://www.w3.org/Graphics/SVG/1.1/DTD/svg11.dtd">
<!-- Generated by graphviz version 2.43.0 (0)
 -->
<!-- Title: heartbeat_telemetry_job Pages: 1 -->
<svg width="812pt" height="1087pt"
 viewBox="0.00 0.00 812.00 1087.00" xmlns="http://www.w3.org/2000/svg" xmlns:xlink="http://www.w3.org/1999/xlink">
<g id="graph0" class="graph" transform="scale(1 1) rotate(0) translate(4 1083)">
<title>heartbeat_telemetry_job</title>
<!-- Node1 -->
<g id="Node000001" class="node">
<title>Node1</title>
<g id="a_Node000001"><a xlink:title="Collects sensor information and transmits it as a heartbeat packet.">
<polygon fill="#999999" stroke="#666666" points="137,-543 0,-543 0,-524 137,-524 137,-543"/>
<text text-anchor="middle" x="68.5" y="-531" font-family="Helvetica,sans-Serif" font-size="10.00">heartbeat_telemetry_job</text>
</a>
</g>
</g>
<!-- Node2 -->
<g id="Node000002" class="node">
<title>Node2</title>
<g id="a_Node000002"><a xlink:href="ina219_8c.html#a9ffe93da633c2f6008fac2f2da36ab72" target="_top" xlink:title="Configures the EPS by writing to the configuration register (0x00) Config register value taken from A...">
<polygon fill="white" stroke="#666666" points="440.5,-1061 394.5,-1061 394.5,-1042 440.5,-1042 440.5,-1061"/>
<text text-anchor="middle" x="417.5" y="-1049" font-family="Helvetica,sans-Serif" font-size="10.00">config</text>
</a>
</g>
</g>
<!-- Node1&#45;&gt;Node2 -->
<g id="edge1_Node000001_Node000002" class="edge">
<title>Node1&#45;&gt;Node2</title>
<g id="a_edge1_Node000001_Node000002"><a xlink:title=" ">
<path fill="none" stroke="#63b8ff" d="M69.98,-543.23C73.31,-607.07 95.38,-965.39 173,-1033.5 232.02,-1085.29 333.12,-1071.56 384.5,-1060.01"/>
<polygon fill="#63b8ff" stroke="#63b8ff" points="385.45,-1063.38 394.38,-1057.67 383.84,-1056.56 385.45,-1063.38"/>
</a>
</g>
</g>
<!-- Node4 -->
<g id="Node000004" class="node">
<title>Node4</title>
<g id="a_Node000004"><a xlink:href="filesystem_8c.html#a02c1e03f51146617a18f5bcc96099220" target="_top" xlink:title=" ">
<polygon fill="white" stroke="#666666" points="451.5,-392 383.5,-392 383.5,-373 451.5,-373 451.5,-392"/>
<text text-anchor="middle" x="417.5" y="-380" font-family="Helvetica,sans-Serif" font-size="10.00">delete_file</text>
</a>
</g>
</g>
<!-- Node1&#45;&gt;Node4 -->
<g id="edge4_Node000001_Node000004" class="edge">
<title>Node1&#45;&gt;Node4</title>
<g id="a_edge4_Node000001_Node000004"><a xlink:title=" ">
<path fill="none" stroke="#63b8ff" d="M71.25,-523.56C77.68,-490.51 103.33,-383.99 173,-342.5 243.42,-300.56 344.58,-343.65 391.21,-368.1"/>
<polygon fill="#63b8ff" stroke="#63b8ff" points="389.58,-371.19 400.04,-372.85 392.89,-365.03 389.58,-371.19"/>
</a>
</g>
</g>
<!-- Node5 -->
<g id="Node000005" class="node">
<title>Node5</title>
<g id="a_Node000005"><a xlink:href="ds18b20_8c.html#a5f77a33a7d9243a4c2035db0e66a7eb7" target="_top" xlink:title="Reads the temperature from a ds18b20 This requires waiting for that conversion to finish,...">
<polygon fill="white" stroke="#666666" points="303,-167 187,-167 187,-148 303,-148 303,-167"/>
<text text-anchor="middle" x="245" y="-155" font-family="Helvetica,sans-Serif" font-size="10.00">ds18b20_read_temp</text>
</a>
</g>
</g>
<!-- Node1&#45;&gt;Node5 -->
<g id="edge5_Node000001_Node000005" class="edge">
<title>Node1&#45;&gt;Node5</title>
<g id="a_edge5_Node000001_Node000005"><a xlink:title=" ">
<path fill="none" stroke="#63b8ff" d="M69.32,-523.81C69,-478.44 73.7,-284.85 173,-181.5 176.68,-177.67 180.99,-174.45 185.64,-171.74"/>
<polygon fill="#63b8ff" stroke="#63b8ff" points="187.51,-174.72 194.92,-167.15 184.41,-168.45 187.51,-174.72"/>
</a>
</g>
</g>
<!-- Node9 -->
<g id="Node000009" class="node">
<title>Node9</title>
<g id="a_Node000009"><a xlink:href="ds18b20_8c.html#ac28489af27a9b70d2c7a03eb35617bea" target="_top" xlink:title="Triggers a temperature conversion on all ds18b20 devices on the onewire line. This can take up to 750...">
<polygon fill="white" stroke="#666666" points="317,-130 173,-130 173,-111 317,-111 317,-130"/>
<text text-anchor="middle" x="245" y="-118" font-family="Helvetica,sans-Serif" font-size="10.00">ds18b20_start_conversion</text>
</a>
</g>
</g>
<!-- Node1&#45;&gt;Node9 -->
<g id="edge9_Node000001_Node000009" class="edge">
<title>Node1&#45;&gt;Node9</title>
<g id="a_edge9_Node000001_Node000009"><a xlink:title=" ">
<path fill="none" stroke="#63b8ff" d="M70.71,-523.92C77.8,-469.24 115.62,-197.14 173,-139.5 174.42,-138.08 175.93,-136.75 177.52,-135.53"/>
<polygon fill="#63b8ff" stroke="#63b8ff" points="179.43,-138.46 186.03,-130.17 175.7,-132.54 179.43,-138.46"/>
</a>
</g>
</g>
<!-- Node10 -->
<g id="Node000010" class="node">
<title>Node10</title>
<g id="a_Node000010"><a xlink:href="filesystem_8c.html#a07610d3a6787ca02aa3d340759bcb8c9" target="_top" xlink:title=" ">
<polygon fill="white" stroke="#666666" points="450.5,-429 384.5,-429 384.5,-410 450.5,-410 450.5,-429"/>
<text text-anchor="middle" x="417.5" y="-417" font-family="Helvetica,sans-Serif" font-size="10.00">file_exists</text>
</a>
</g>
</g>
<!-- Node1&#45;&gt;Node10 -->
<g id="edge12_Node000001_Node000010" class="edge">
<title>Node1&#45;&gt;Node10</title>
<g id="a_edge12_Node000001_Node000010"><a xlink:title=" ">
<path fill="none" stroke="#63b8ff" d="M71.93,-523.99C80.1,-494.21 109.75,-402.6 173,-367.5 228.96,-336.44 257.53,-343.86 317,-367.5 337.45,-375.63 333.86,-390.63 353,-401.5 359.65,-405.28 367.15,-408.31 374.6,-410.73"/>
<polygon fill="#63b8ff" stroke="#63b8ff" points="373.72,-414.11 384.3,-413.56 375.69,-407.4 373.72,-414.11"/>
</a>
</g>
</g>
<!-- Node13 -->
<g id="Node000013" class="node">
<title>Node13</title>
<g id="a_Node000013"><a xlink:href="command_8c.html#a635f0068a737eb2a03b2fb101c9e025e" target="_top" xlink:title=" ">
<polygon fill="white" stroke="#666666" points="304.5,-93 185.5,-93 185.5,-74 304.5,-74 304.5,-93"/>
<text text-anchor="middle" x="245" y="-81" font-family="Helvetica,sans-Serif" font-size="10.00">get_command_count</text>
</a>
</g>
</g>
<!-- Node1&#45;&gt;Node13 -->
<g id="edge15_Node000001_Node000013" class="edge">
<title>Node1&#45;&gt;Node13</title>
<g id="a_edge15_Node000001_Node000013"><a xlink:title=" ">
<path fill="none" stroke="#63b8ff" d="M70.48,-523.76C76.51,-465.63 110.43,-164.9 173,-101.5 174.12,-100.37 175.29,-99.3 176.52,-98.3"/>
<polygon fill="#63b8ff" stroke="#63b8ff" points="178.83,-100.98 185.29,-92.59 175,-95.12 178.83,-100.98"/>
</a>
</g>
</g>
<!-- Node14 -->
<g id="Node000014" class="node">
<title>Node14</title>
<g id="a_Node000014"><a xlink:href="timing_8c.html#a7cef17ffb0e9db503a077191e1a4b013" target="_top" xlink:title=" ">
<polygon fill="white" stroke="#666666" points="281,-56 209,-56 209,-37 281,-37 281,-56"/>
<text text-anchor="middle" x="245" y="-44" font-family="Helvetica,sans-Serif" font-size="10.00">get_uptime</text>
</a>
</g>
</g>
<!-- Node1&#45;&gt;Node14 -->
<g id="edge16_Node000001_Node000014" class="edge">
<title>Node1&#45;&gt;Node14</title>
<g id="a_edge16_Node000001_Node000014"><a xlink:title=" ">
<path fill="none" stroke="#63b8ff" d="M70.28,-523.74C75.37,-462.71 105.68,-133.95 173,-64.5 179.9,-57.38 189.18,-52.93 198.74,-50.18"/>
<polygon fill="#63b8ff" stroke="#63b8ff" points="199.77,-53.54 208.73,-47.89 198.21,-46.72 199.77,-53.54"/>
</a>
</g>
</g>
<!-- Node15 -->
<g id="Node000015" class="node">
<title>Node15</title>
<g id="a_Node000015"><a xlink:href="ina219_8c.html#a7a37de137b1bb2ec0149be505ec84ffe" target="_top" xlink:title="Reads from Current register (0x04) writes it to [output_buf] unprocessed.">
<polygon fill="white" stroke="#666666" points="291,-987 199,-987 199,-968 291,-968 291,-987"/>
<text text-anchor="middle" x="245" y="-975" font-family="Helvetica,sans-Serif" font-size="10.00">getCurrent_raw</text>
</a>
</g>
</g>
<!-- Node1&#45;&gt;Node15 -->
<g id="edge17_Node000001_Node000015" class="edge">
<title>Node1&#45;&gt;Node15</title>
<g id="a_edge17_Node000001_Node000015"><a xlink:title=" ">
<path fill="none" stroke="#63b8ff" d="M70.5,-543.11C76.65,-600.44 111.15,-897.03 173,-959.5 177.58,-964.13 183.17,-967.62 189.17,-970.25"/>
<polygon fill="#63b8ff" stroke="#63b8ff" points="188.28,-973.65 198.88,-973.72 190.64,-967.06 188.28,-973.65"/>
</a>
</g>
</g>
<!-- Node18 -->
<g id="Node000018" class="node">
<title>Node18</title>
<g id="a_Node000018"><a xlink:href="ina219_8c.html#aeb76d9007b107e997adfd60ab4d3bae0" target="_top" xlink:title="Reads from Power register (0x03), writes it to [output_bef] unprocessed.">
<polygon fill="white" stroke="#666666" points="288,-1024 202,-1024 202,-1005 288,-1005 288,-1024"/>
<text text-anchor="middle" x="245" y="-1012" font-family="Helvetica,sans-Serif" font-size="10.00">getPower_raw</text>
</a>
</g>
</g>
<!-- Node1&#45;&gt;Node18 -->
<g id="edge21_Node000001_Node000018" class="edge">
<title>Node1&#45;&gt;Node18</title>
<g id="a_edge21_Node000001_Node000018"><a xlink:title=" ">
<path fill="none" stroke="#63b8ff" d="M70.3,-543.14C75.51,-603.4 106.4,-927.99 173,-996.5 178.24,-1001.89 184.85,-1005.75 191.91,-1008.5"/>
<polygon fill="#63b8ff" stroke="#63b8ff" points="191.15,-1011.93 201.74,-1011.6 193.26,-1005.26 191.15,-1011.93"/>
</a>
</g>
</g>
<!-- Node19 -->
<g id="Node000019" class="node">
<title>Node19</title>
<g id="a_Node000019"><a xlink:href="ina219_8c.html#acc82e6e7a3a8b48efe1ad86f421dcad0" target="_top" xlink:title="Reads from VBus register (0x02), writes it to [output_buf] unprocessed.">
<polygon fill="white" stroke="#666666" points="285,-580 205,-580 205,-561 285,-561 285,-580"/>
<text text-anchor="middle" x="245" y="-568" font-family="Helvetica,sans-Serif" font-size="10.00">getVBus_raw</text>
</a>
</g>
</g>
<!-- Node1&#45;&gt;Node19 -->
<g id="edge24_Node000001_Node000019" class="edge">
<title>Node1&#45;&gt;Node19</title>
<g id="a_edge24_Node000001_Node000019"><a xlink:title=" ">
<path fill="none" stroke="#63b8ff" d="M114.44,-543.03C139.02,-548.24 169.52,-554.71 194.75,-560.06"/>
<polygon fill="#63b8ff" stroke="#63b8ff" points="194.34,-563.55 204.85,-562.2 195.79,-556.7 194.34,-563.55"/>
</a>
</g>
</g>
<!-- Node20 -->
<g id="Node000020" class="node">
<title>Node20</title>
<g id="a_Node000020"><a xlink:href="ina219_8c.html#a0ef96929110f3bf77d9da6940841b7a3" target="_top" xlink:title="Reads from the VShunt register(0x01), writes it to [output_buf] unprocessed.">
<polygon fill="white" stroke="#666666" points="290,-543 200,-543 200,-524 290,-524 290,-543"/>
<text text-anchor="middle" x="245" y="-531" font-family="Helvetica,sans-Serif" font-size="10.00">getVShunt_raw</text>
</a>
</g>
</g>
<!-- Node1&#45;&gt;Node20 -->
<g id="edge26_Node000001_Node000020" class="edge">
<title>Node1&#45;&gt;Node20</title>
<g id="a_edge26_Node000001_Node000020"><a xlink:title=" ">
<path fill="none" stroke="#63b8ff" d="M137.47,-533.5C154.82,-533.5 173.25,-533.5 189.81,-533.5"/>
<polygon fill="#63b8ff" stroke="#63b8ff" points="189.86,-537 199.86,-533.5 189.86,-530 189.86,-537"/>
</a>
</g>
</g>
<!-- Node21 -->
<g id="Node000021" class="node">
<title>Node21</title>
<g id="a_Node000021"><a xlink:href="hb__tlm__log_8c.html#a06d9003c959538dac30ed99c0f01db0f" target="_top" xlink:title=" ">
<polygon fill="white" stroke="#666666" points="298,-281 192,-281 192,-262 298,-262 298,-281"/>
<text text-anchor="middle" x="245" y="-269" font-family="Helvetica,sans-Serif" font-size="10.00">log_heartbeat_tlm</text>
</a>
</g>
</g>
<!-- Node1&#45;&gt;Node21 -->
<g id="edge28_Node000001_Node000021" class="edge">
<title>Node1&#45;&gt;Node21</title>
<g id="a_edge28_Node000001_Node000021"><a xlink:title=" ">
<path fill="none" stroke="#63b8ff" d="M70.88,-523.72C76.48,-487.82 100.68,-361.97 173,-295.5 177.42,-291.44 182.55,-288.06 187.99,-285.25"/>
<polygon fill="#63b8ff" stroke="#63b8ff" points="189.69,-288.33 197.38,-281.05 186.82,-281.94 189.69,-288.33"/>
</a>
</g>
</g>
<!-- Node24 -->
<g id="Node000024" class="node">
<title>Node24</title>
<g id="a_Node000024"><a xlink:href="filesystem_8c.html#ab92b1f0beb3be903677f3293d0430b62" target="_top" xlink:title=" ">
<polygon fill="white" stroke="#666666" points="447,-205 388,-205 388,-186 447,-186 447,-205"/>
<text text-anchor="middle" x="417.5" y="-193" font-family="Helvetica,sans-Serif" font-size="10.00">read_file</text>
</a>
</g>
</g>
<!-- Node1&#45;&gt;Node24 -->
<g id="edge49_Node000001_Node000024" class="edge">
<title>Node1&#45;&gt;Node24</title>
<g id="a_edge49_Node000001_Node000024"><a xlink:title=" ">
<path fill="none" stroke="#63b8ff" d="M69.13,-523.84C68.04,-479.52 69.92,-294.48 173,-213.5 231.91,-167.22 325.52,-176.26 377.85,-186.29"/>
<polygon fill="#63b8ff" stroke="#63b8ff" points="377.25,-189.74 387.75,-188.3 378.64,-182.88 377.25,-189.74"/>
</a>
</g>
</g>
<!-- Node25 -->
<g id="Node000025" class="node">
<title>Node25</title>
<g id="a_Node000025"><a xlink:href="filesystem_8c.html#a8e5a51c709e9d6229c1974435475292a" target="_top" xlink:title=" ">
<polygon fill="white" stroke="#666666" points="448.5,-242 386.5,-242 386.5,-223 448.5,-223 448.5,-242"/>
<text text-anchor="middle" x="417.5" y="-230" font-family="Helvetica,sans-Serif" font-size="10.00">write_file</text>
</a>
</g>
</g>
<!-- Node1&#45;&gt;Node25 -->
<g id="edge67_Node000001_Node000025" class="edge">
<title>Node1&#45;&gt;Node25</title>
<g id="a_edge67_Node000001_Node000025"><a xlink:title=" ">
<path fill="none" stroke="#63b8ff" d="M69.64,-523.96C70.82,-483.31 81.3,-323.41 173,-253.5 232,-208.52 323.99,-215.19 376.39,-223.93"/>
<polygon fill="#63b8ff" stroke="#63b8ff" points="375.86,-227.39 386.32,-225.69 377.08,-220.5 375.86,-227.39"/>
</a>
</g>
</g>
<!-- Node26 -->
<g id="Node000026" class="node">
<title>Node26</title>
<g id="a_Node000026"><a xlink:href="mag__lis3mdltr_8c.html#a7701b495ff94874c5d3bbd940b8f99ff" target="_top" xlink:title="Writes the temperature output in Celsius to [output].">
<polygon fill="white" stroke="#666666" points="290,-506 200,-506 200,-487 290,-487 290,-506"/>
<text text-anchor="middle" x="245" y="-494" font-family="Helvetica,sans-Serif" font-size="10.00">mag_get_temp</text>
</a>
</g>
</g>
<!-- Node1&#45;&gt;Node26 -->
<g id="edge37_Node000001_Node000026" class="edge">
<title>Node1&#45;&gt;Node26</title>
<g id="a_edge37_Node000001_Node000026"><a xlink:title=" ">
<path fill="none" stroke="#63b8ff" d="M114.44,-523.97C137.41,-519.1 165.55,-513.13 189.73,-508.01"/>
<polygon fill="#63b8ff" stroke="#63b8ff" points="190.76,-511.37 199.82,-505.87 189.31,-504.52 190.76,-511.37"/>
</a>
</g>
</g>
<!-- Node27 -->
<g id="Node000027" class="node">
<title>Node27</title>
<g id="a_Node000027"><a xlink:href="mag__lis3mdltr_8c.html#a38a61bd16b9dfb232231f3518d803b65" target="_top" xlink:title="Writes the x output to [output].">
<polygon fill="white" stroke="#666666" points="280.5,-469 209.5,-469 209.5,-450 280.5,-450 280.5,-469"/>
<text text-anchor="middle" x="245" y="-457" font-family="Helvetica,sans-Serif" font-size="10.00">mag_get_x</text>
</a>
</g>
</g>
<!-- Node1&#45;&gt;Node27 -->
<g id="edge39_Node000001_Node000027" class="edge">
<title>Node1&#45;&gt;Node27</title>
<g id="a_edge39_Node000001_Node000027"><a xlink:title=" ">
<path fill="none" stroke="#63b8ff" d="M84.75,-523.97C104.49,-511.98 140.24,-491.39 173,-478.5 181.37,-475.21 190.51,-472.29 199.36,-469.78"/>
<polygon fill="#63b8ff" stroke="#63b8ff" points="200.44,-473.12 209.18,-467.14 198.62,-466.36 200.44,-473.12"/>
</a>
</g>
</g>
<!-- Node28 -->
<g id="Node000028" class="node">
<title>Node28</title>
<g id="a_Node000028"><a xlink:href="mag__lis3mdltr_8c.html#a47dbf866e595e1b959c9da3b594dcc7d" target="_top" xlink:title="Writes the y output to [output].">
<polygon fill="white" stroke="#666666" points="280.5,-432 209.5,-432 209.5,-413 280.5,-413 280.5,-432"/>
<text text-anchor="middle" x="245" y="-420" font-family="Helvetica,sans-Serif" font-size="10.00">mag_get_y</text>
</a>
</g>
</g>
<!-- Node1&#45;&gt;Node28 -->
<g id="edge41_Node000001_Node000028" class="edge">
<title>Node1&#45;&gt;Node28</title>
<g id="a_edge41_Node000001_Node000028"><a xlink:title=" ">
<path fill="none" stroke="#63b8ff" d="M77.55,-523.82C93.67,-505.05 131.94,-463.62 173,-441.5 181.17,-437.1 190.42,-433.67 199.49,-431.01"/>
<polygon fill="#63b8ff" stroke="#63b8ff" points="200.43,-434.38 209.19,-428.41 198.63,-427.61 200.43,-434.38"/>
</a>
</g>
</g>
<!-- Node29 -->
<g id="Node000029" class="node">
<title>Node29</title>
<g id="a_Node000029"><a xlink:href="mag__lis3mdltr_8c.html#ae8775374a424d7f7cce47046c180954d" target="_top" xlink:title="Writes the z output to [output].">
<polygon fill="white" stroke="#666666" points="280,-395 210,-395 210,-376 280,-376 280,-395"/>
<text text-anchor="middle" x="245" y="-383" font-family="Helvetica,sans-Serif" font-size="10.00">mag_get_z</text>
</a>
</g>
</g>
<!-- Node1&#45;&gt;Node29 -->
<g id="edge43_Node000001_Node000029" class="edge">
<title>Node1&#45;&gt;Node29</title>
<g id="a_edge43_Node000001_Node000029"><a xlink:title=" ">
<path fill="none" stroke="#63b8ff" d="M74.5,-523.66C87.35,-499.42 123.94,-436.51 173,-404.5 181.01,-399.28 190.4,-395.48 199.7,-392.73"/>
<polygon fill="#63b8ff" stroke="#63b8ff" points="200.87,-396.04 209.67,-390.13 199.11,-389.27 200.87,-396.04"/>
</a>
</g>
</g>
<!-- Node30 -->
<g id="Node000030" class="node">
<title>Node30</title>
<g id="a_Node000030"><a xlink:href="simulator_2drivers_2include_2max17048_8h.html#ad9a75a9c9fa941599b507163dc5c223a" target="_top" xlink:title="Get cell percentage.">
<polygon fill="white" stroke="#666666" points="316,-950 174,-950 174,-931 316,-931 316,-950"/>
<text text-anchor="middle" x="245" y="-938" font-family="Helvetica,sans-Serif" font-size="10.00">max17048CellPercentage</text>
</a>
</g>
</g>
<!-- Node1&#45;&gt;Node30 -->
<g id="edge45_Node000001_Node000030" class="edge">
<title>Node1&#45;&gt;Node30</title>
<g id="a_edge45_Node000001_Node000030"><a xlink:title=" ">
<path fill="none" stroke="#63b8ff" d="M70.76,-543.33C78.01,-598.2 115.96,-866.13 173,-922.5 173.97,-923.46 174.98,-924.36 176.02,-925.22"/>
<polygon fill="#63b8ff" stroke="#63b8ff" points="174.43,-928.37 184.71,-930.96 178.29,-922.53 174.43,-928.37"/>
</a>
</g>
</g>
<!-- Node31 -->
<g id="Node000031" class="node">
<title>Node31</title>
<g id="a_Node000031"><a xlink:href="max17048_8c.html#adf384268b2363eadca0fdb81281a1a6f" target="_top" xlink:title="Read voltage of battery.">
<polygon fill="white" stroke="#666666" points="307,-913 183,-913 183,-894 307,-894 307,-913"/>
<text text-anchor="middle" x="245" y="-901" font-family="Helvetica,sans-Serif" font-size="10.00">max17048CellVoltage</text>
</a>
</g>
</g>
<!-- Node1&#45;&gt;Node31 -->
<g id="edge47_Node000001_Node000031" class="edge">
<title>Node1&#45;&gt;Node31</title>
<g id="a_edge47_Node000001_Node000031"><a xlink:title=" ">
<path fill="none" stroke="#63b8ff" d="M69.15,-543.06C68.04,-588.64 69.54,-785.86 173,-885.5 173.98,-886.44 175,-887.34 176.06,-888.19"/>
<polygon fill="#63b8ff" stroke="#63b8ff" points="174.51,-891.35 184.8,-893.86 178.32,-885.48 174.51,-891.35"/>
</a>
</g>
</g>
<!-- Node32 -->
<g id="Node000032" class="node">
<title>Node32</title>
<g id="a_Node000032"><a xlink:href="rtc__ds3231_8c.html#a4d9ecc8e912cc84cd50c842a8d69e70e" target="_top" xlink:title=" ">
<polygon fill="white" stroke="#666666" points="283.5,-876 206.5,-876 206.5,-857 283.5,-857 283.5,-876"/>
<text text-anchor="middle" x="245" y="-864" font-family="Helvetica,sans-Serif" font-size="10.00">rtc_get_date</text>
</a>
</g>
</g>
<!-- Node1&#45;&gt;Node32 -->
<g id="edge50_Node000001_Node000032" class="edge">
<title>Node1&#45;&gt;Node32</title>
<g id="a_edge50_Node000001_Node000032"><a xlink:title=" ">
<path fill="none" stroke="#63b8ff" d="M69.53,-543.2C70.23,-586.12 78.94,-760.73 173,-848.5 179.55,-854.61 187.88,-858.73 196.5,-861.47"/>
<polygon fill="#63b8ff" stroke="#63b8ff" points="195.73,-864.89 206.29,-864.03 197.5,-858.12 195.73,-864.89"/>
</a>
</g>
</g>
<!-- Node33 -->
<g id="Node000033" class="node">
<title>Node33</title>
<g id="a_Node000033"><a xlink:href="rtc__ds3231_8c.html#a50130551fb17b3228d45e86ff7b634c3" target="_top" xlink:title=" ">
<polygon fill="white" stroke="#666666" points="283.5,-839 206.5,-839 206.5,-820 283.5,-820 283.5,-839"/>
<text text-anchor="middle" x="245" y="-827" font-family="Helvetica,sans-Serif" font-size="10.00">rtc_get_hour</text>
</a>
</g>
</g>
<!-- Node1&#45;&gt;Node33 -->
<g id="edge52_Node000001_Node000033" class="edge">
<title>Node1&#45;&gt;Node33</title>
<g id="a_edge52_Node000001_Node000033"><a xlink:title=" ">
<path fill="none" stroke="#63b8ff" d="M70.01,-543.14C72.63,-582.85 88.1,-735.31 173,-811.5 179.67,-817.49 188.05,-821.54 196.69,-824.27"/>
<polygon fill="#63b8ff" stroke="#63b8ff" points="195.92,-827.69 206.48,-826.83 197.69,-820.92 195.92,-827.69"/>
</a>
</g>
</g>
<!-- Node34 -->
<g id="Node000034" class="node">
<title>Node34</title>
<g id="a_Node000034"><a xlink:href="rtc__ds3231_8c.html#a37b2be869bea794d2fdfa8869baaa26d" target="_top" xlink:title=" ">
<polygon fill="white" stroke="#666666" points="290,-802 200,-802 200,-783 290,-783 290,-802"/>
<text text-anchor="middle" x="245" y="-790" font-family="Helvetica,sans-Serif" font-size="10.00">rtc_get_minute</text>
</a>
</g>
</g>
<!-- Node1&#45;&gt;Node34 -->
<g id="edge54_Node000001_Node000034" class="edge">
<title>Node1&#45;&gt;Node34</title>
<g id="a_edge54_Node000001_Node000034"><a xlink:title=" ">
<path fill="none" stroke="#63b8ff" d="M70.61,-543.09C75.33,-579.41 97.16,-709.75 173,-774.5 177.95,-778.73 183.76,-781.98 189.89,-784.49"/>
<polygon fill="#63b8ff" stroke="#63b8ff" points="189.1,-787.92 199.7,-787.84 191.36,-781.29 189.1,-787.92"/>
</a>
</g>
</g>
<!-- Node35 -->
<g id="Node000035" class="node">
<title>Node35</title>
<g id="a_Node000035"><a xlink:href="rtc__ds3231_8c.html#a21b982cbe42fb3a2a10755cc9cb1f3f8" target="_top" xlink:title=" ">
<polygon fill="white" stroke="#666666" points="288.5,-765 201.5,-765 201.5,-746 288.5,-746 288.5,-765"/>
<text text-anchor="middle" x="245" y="-753" font-family="Helvetica,sans-Serif" font-size="10.00">rtc_get_month</text>
</a>
</g>
</g>
<!-- Node1&#45;&gt;Node35 -->
<g id="edge56_Node000001_Node000035" class="edge">
<title>Node1&#45;&gt;Node35</title>
<g id="a_edge56_Node000001_Node000035"><a xlink:title=" ">
<path fill="none" stroke="#63b8ff" d="M71.48,-543.42C78.64,-576.52 106.33,-684.16 173,-737.5 178.47,-741.88 184.87,-745.2 191.56,-747.73"/>
<polygon fill="#63b8ff" stroke="#63b8ff" points="190.88,-751.19 201.47,-750.89 193,-744.52 190.88,-751.19"/>
</a>
</g>
</g>
<!-- Node36 -->
<g id="Node000036" class="node">
<title>Node36</title>
<g id="a_Node000036"><a xlink:href="rtc__ds3231_8c.html#a663d94e64990cdf62b9f4f740b94bfab" target="_top" xlink:title=" ">
<polygon fill="white" stroke="#666666" points="290,-728 200,-728 200,-709 290,-709 290,-728"/>
<text text-anchor="middle" x="245" y="-716" font-family="Helvetica,sans-Serif" font-size="10.00">rtc_get_second</text>
</a>
</g>
</g>
<!-- Node1&#45;&gt;Node36 -->
<g id="edge58_Node000001_Node000036" class="edge">
<title>Node1&#45;&gt;Node36</title>
<g id="a_edge58_Node000001_Node000036"><a xlink:title=" ">
<path fill="none" stroke="#63b8ff" d="M72.59,-543.22C82.28,-572.1 114.94,-657.97 173,-700.5 178.18,-704.3 184.09,-707.3 190.23,-709.66"/>
<polygon fill="#63b8ff" stroke="#63b8ff" points="189.4,-713.08 199.99,-712.89 191.6,-706.43 189.4,-713.08"/>
</a>
</g>
</g>
<!-- Node37 -->
<g id="Node000037" class="node">
<title>Node37</title>
<g id="a_Node000037"><a xlink:href="rtc__ds3231_8c.html#a787d50004f6b318e952f813800188f89" target="_top" xlink:title="Reads temp (C) from RTC and writes it to [output].">
<polygon fill="white" stroke="#666666" points="285.5,-691 204.5,-691 204.5,-672 285.5,-672 285.5,-691"/>
<text text-anchor="middle" x="245" y="-679" font-family="Helvetica,sans-Serif" font-size="10.00">rtc_get_temp</text>
</a>
</g>
</g>
<!-- Node1&#45;&gt;Node37 -->
<g id="edge60_Node000001_Node000037" class="edge">
<title>Node1&#45;&gt;Node37</title>
<g id="a_edge60_Node000001_Node000037"><a xlink:title=" ">
<path fill="none" stroke="#63b8ff" d="M74.27,-543.1C86.83,-567.36 123.32,-631.42 173,-663.5 179.46,-667.67 186.83,-670.88 194.33,-673.34"/>
<polygon fill="#63b8ff" stroke="#63b8ff" points="193.6,-676.77 204.18,-676.17 195.53,-670.05 193.6,-676.77"/>
</a>
</g>
</g>
<!-- Node38 -->
<g id="Node000038" class="node">
<title>Node38</title>
<g id="a_Node000038"><a xlink:href="rtc__ds3231_8c.html#ab763e064ad555e3e2b0f21d4e78c0d76" target="_top" xlink:title=" ">
<polygon fill="white" stroke="#666666" points="283.5,-654 206.5,-654 206.5,-635 283.5,-635 283.5,-654"/>
<text text-anchor="middle" x="245" y="-642" font-family="Helvetica,sans-Serif" font-size="10.00">rtc_get_year</text>
</a>
</g>
</g>
<!-- Node1&#45;&gt;Node38 -->
<g id="edge62_Node000001_Node000038" class="edge">
<title>Node1&#45;&gt;Node38</title>
<g id="a_edge62_Node000001_Node000038"><a xlink:title=" ">
<path fill="none" stroke="#63b8ff" d="M77.25,-543.05C93.14,-561.97 131.44,-604.32 173,-626.5 180.26,-630.37 188.38,-633.44 196.47,-635.86"/>
<polygon fill="#63b8ff" stroke="#63b8ff" points="195.69,-639.27 206.26,-638.5 197.52,-632.51 195.69,-639.27"/>
</a>
</g>
</g>
<!-- Node39 -->
<g id="Node000039" class="node">
<title>Node39</title>
<g id="a_Node000039"><a xlink:href="telemetry_8c.html#a6dbf6c6cfd75451e5642ca0b64bf7f5a" target="_top" xlink:title=" ">
<polygon fill="white" stroke="#666666" points="291.5,-19 198.5,-19 198.5,0 291.5,0 291.5,-19"/>
<text text-anchor="middle" x="245" y="-7" font-family="Helvetica,sans-Serif" font-size="10.00">send_telemetry</text>
</a>
</g>
</g>
<!-- Node1&#45;&gt;Node39 -->
<g id="edge64_Node000001_Node000039" class="edge">
<title>Node1&#45;&gt;Node39</title>
<g id="a_edge64_Node000001_Node000039"><a xlink:title=" ">
<path fill="none" stroke="#63b8ff" d="M70.11,-523.81C74.3,-460.24 100.87,-103.06 173,-27.5 177.44,-22.85 182.89,-19.34 188.78,-16.69"/>
<polygon fill="#63b8ff" stroke="#63b8ff" points="190.13,-19.92 198.32,-13.21 187.73,-13.35 190.13,-19.92"/>
</a>
</g>
</g>
<!-- Node40 -->
<g id="Node000040" class="node">
<title>Node40</title>
<g id="a_Node000040"><a xlink:href="vega__ant_8c.html#a6377b53e9c676bceaa38ec9ddeb7fd28" target="_top" xlink:title="Gets deployment status of antennas.">
<polygon fill="white" stroke="#666666" points="293.5,-617 196.5,-617 196.5,-598 293.5,-598 293.5,-617"/>
<text text-anchor="middle" x="245" y="-605" font-family="Helvetica,sans-Serif" font-size="10.00">vega_ant_status</text>
</a>
</g>
</g>
<!-- Node1&#45;&gt;Node40 -->
<g id="edge65_Node000001_Node000040" class="edge">
<title>Node1&#45;&gt;Node40</title>
<g id="a_edge65_Node000001_Node000040"><a xlink:title=" ">
<path fill="none" stroke="#63b8ff" d="M84.36,-543.08C103.97,-555.35 139.88,-576.57 173,-589.5 178.18,-591.52 183.67,-593.38 189.2,-595.07"/>
<polygon fill="#63b8ff" stroke="#63b8ff" points="188.58,-598.53 199.15,-597.93 190.51,-591.8 188.58,-598.53"/>
</a>
</g>
</g>
<!-- Node2&#45;&gt;Node2 -->
<g id="edge2_Node000002_Node000002" class="edge">
<title>Node2&#45;&gt;Node2</title>
<g id="a_edge2_Node000002_Node000002"><a xlink:title=" ">
<path fill="none" stroke="#63b8ff" d="M394.09,-1060.23C380.32,-1069.11 388.12,-1079 417.5,-1079 438.15,-1079 448.14,-1074.11 447.47,-1068.12"/>
<polygon fill="#63b8ff" stroke="#63b8ff" points="449.99,-1065.68 440.91,-1060.23 444.61,-1070.16 449.99,-1065.68"/>
</a>
</g>
</g>
<!-- Node3 -->
<g id="Node000003" class="node">
<title>Node3</title>
<g id="a_Node000003"><a xlink:href="i2c_8c.html#a73f9c3581b5d48d5db9c6c445034a970" target="_top" xlink:title="Write [reg] and [buf] to i2c device, [reg] is just inserted before [buf].">
<polygon fill="white" stroke="#666666" points="637,-1042 518,-1042 518,-1023 637,-1023 637,-1042"/>
<text text-anchor="middle" x="577.5" y="-1030" font-family="Helvetica,sans-Serif" font-size="10.00">i2c_write_to_register</text>
</a>
</g>
</g>
<!-- Node2&#45;&gt;Node3 -->
<g id="edge3_Node000002_Node000003" class="edge">
<title>Node2&#45;&gt;Node3</title>
<g id="a_edge3_Node000002_Node000003"><a xlink:title=" ">
<path fill="none" stroke="#63b8ff" d="M440.8,-1048.82C458.29,-1046.71 483.62,-1043.67 507.67,-1040.78"/>
<polygon fill="#63b8ff" stroke="#63b8ff" points="508.36,-1044.22 517.87,-1039.55 507.53,-1037.27 508.36,-1044.22"/>
</a>
</g>
</g>
<!-- Node6 -->
<g id="Node000006" class="node">
<title>Node6</title>
<g id="a_Node000006"><a xlink:href="onewire__library_8h.html#adaf73c76a41dc4bd34ff4e4a2b17781f" target="_top" xlink:title=" ">
<polygon fill="white" stroke="#666666" points="446.5,-168 388.5,-168 388.5,-149 446.5,-149 446.5,-168"/>
<text text-anchor="middle" x="417.5" y="-156" font-family="Helvetica,sans-Serif" font-size="10.00">ow_read</text>
</a>
</g>
</g>
<!-- Node5&#45;&gt;Node6 -->
<g id="edge6_Node000005_Node000006" class="edge">
<title>Node5&#45;&gt;Node6</title>
<g id="a_edge6_Node000005_Node000006"><a xlink:title=" ">
<path fill="none" stroke="#63b8ff" d="M303.25,-157.84C327.97,-157.98 356.22,-158.15 378.33,-158.28"/>
<polygon fill="#63b8ff" stroke="#63b8ff" points="378.31,-161.78 388.33,-158.33 378.35,-154.78 378.31,-161.78"/>
</a>
</g>
</g>
<!-- Node7 -->
<g id="Node000007" class="node">
<title>Node7</title>
<g id="a_Node000007"><a xlink:href="onewire__library_8h.html#aaefd21819e57b6063ff29519a48c76f8" target="_top" xlink:title=" ">
<polygon fill="white" stroke="#666666" points="448,-131 387,-131 387,-112 448,-112 448,-131"/>
<text text-anchor="middle" x="417.5" y="-119" font-family="Helvetica,sans-Serif" font-size="10.00">ow_reset</text>
</a>
</g>
</g>
<!-- Node5&#45;&gt;Node7 -->
<g id="edge7_Node000005_Node000007" class="edge">
<title>Node5&#45;&gt;Node7</title>
<g id="a_edge7_Node000005_Node000007"><a xlink:title=" ">
<path fill="none" stroke="#63b8ff" d="M291.24,-147.95C317.86,-142.33 351.21,-135.28 376.81,-129.88"/>
<polygon fill="#63b8ff" stroke="#63b8ff" points="377.84,-133.24 386.91,-127.75 376.4,-126.39 377.84,-133.24"/>
</a>
</g>
</g>
<!-- Node8 -->
<g id="Node000008" class="node">
<title>Node8</title>
<g id="a_Node000008"><a xlink:href="onewire__library_8h.html#ab92be9bb3fe3a2d3ca76272733888739" target="_top" xlink:title=" ">
<polygon fill="white" stroke="#666666" points="447,-94 388,-94 388,-75 447,-75 447,-94"/>
<text text-anchor="middle" x="417.5" y="-82" font-family="Helvetica,sans-Serif" font-size="10.00">ow_send</text>
</a>
</g>
</g>
<!-- Node5&#45;&gt;Node8 -->
<g id="edge8_Node000005_Node000008" class="edge">
<title>Node5&#45;&gt;Node8</title>
<g id="a_edge8_Node000005_Node000008"><a xlink:title=" ">
<path fill="none" stroke="#63b8ff" d="M297.75,-147.98C304.46,-145.72 311.05,-142.93 317,-139.5 336.87,-128.03 333.29,-114.25 353,-102.5 360.57,-97.99 369.32,-94.56 377.86,-91.98"/>
<polygon fill="#63b8ff" stroke="#63b8ff" points="378.97,-95.3 387.71,-89.31 377.14,-88.55 378.97,-95.3"/>
</a>
</g>
</g>
<!-- Node9&#45;&gt;Node7 -->
<g id="edge10_Node000009_Node000007" class="edge">
<title>Node9&#45;&gt;Node7</title>
<g id="a_edge10_Node000009_Node000007"><a xlink:title=" ">
<path fill="none" stroke="#63b8ff" d="M317.32,-120.92C337.42,-121.04 358.58,-121.16 376.17,-121.26"/>
<polygon fill="#63b8ff" stroke="#63b8ff" points="376.6,-124.77 386.62,-121.32 376.65,-117.77 376.6,-124.77"/>
</a>
</g>
</g>
<!-- Node9&#45;&gt;Node8 -->
<g id="edge11_Node000009_Node000008" class="edge">
<title>Node9&#45;&gt;Node8</title>
<g id="a_edge11_Node000009_Node000008"><a xlink:title=" ">
<path fill="none" stroke="#63b8ff" d="M291.24,-110.95C318.33,-105.23 352.38,-98.04 378.15,-92.6"/>
<polygon fill="#63b8ff" stroke="#63b8ff" points="378.87,-96.02 387.93,-90.53 377.42,-89.17 378.87,-96.02"/>
</a>
</g>
</g>
<!-- Node11 -->
<g id="Node000011" class="node">
<title>Node11</title>
<g id="a_Node000011"><a xlink:href="filesystem_8c.html#aa109ff29a72d1beadda58bb3a54185b6" target="_top" xlink:title=" ">
<polygon fill="white" stroke="#666666" points="595,-335 560,-335 560,-316 595,-316 595,-335"/>
<text text-anchor="middle" x="577.5" y="-323" font-family="Helvetica,sans-Serif" font-size="10.00">stat</text>
</a>
</g>
</g>
<!-- Node10&#45;&gt;Node11 -->
<g id="edge13_Node000010_Node000011" class="edge">
<title>Node10&#45;&gt;Node11</title>
<g id="a_edge13_Node000010_Node000011"><a xlink:title=" ">
<path fill="none" stroke="#63b8ff" d="M450.78,-413.02C461.09,-410.26 472.33,-406.5 482,-401.5 512.33,-385.83 542.16,-359.52 559.94,-342.33"/>
<polygon fill="#63b8ff" stroke="#63b8ff" points="562.57,-344.66 567.23,-335.15 557.65,-339.68 562.57,-344.66"/>
</a>
</g>
</g>
<!-- Node12 -->
<g id="Node000012" class="node">
<title>Node12</title>
<g id="a_Node000012"><a xlink:href="utilities_2src_2log_8c.html#a4b048be24c6c7f622a6bc6c6bf8ac435" target="_top" xlink:title=" ">
<polygon fill="white" stroke="#666666" points="804,-280 673,-280 673,-261 804,-261 804,-280"/>
<text text-anchor="middle" x="738.5" y="-268" font-family="Helvetica,sans-Serif" font-size="10.00">get_current_task_name</text>
</a>
</g>
</g>
<!-- Node11&#45;&gt;Node12 -->
<g id="edge14_Node000011_Node000012" class="edge">
<title>Node11&#45;&gt;Node12</title>
<g id="a_edge14_Node000011_Node000012"><a xlink:title=" ">
<path fill="none" stroke="#63b8ff" d="M595.22,-319.72C619.93,-311.17 666.86,-294.94 700.06,-283.45"/>
<polygon fill="#63b8ff" stroke="#63b8ff" points="701.57,-286.63 709.88,-280.06 699.28,-280.02 701.57,-286.63"/>
</a>
</g>
</g>
<!-- Node16 -->
<g id="Node000016" class="node">
<title>Node16</title>
<g id="a_Node000016"><a xlink:href="ina219_8c.html#a75d20b3960f7d7688d27f264f02eb98a" target="_top" xlink:title="Calibrates the EPS by writing to the calibration register (0x05) Currently set up for a max current o...">
<polygon fill="white" stroke="#666666" points="447,-1024 388,-1024 388,-1005 447,-1005 447,-1024"/>
<text text-anchor="middle" x="417.5" y="-1012" font-family="Helvetica,sans-Serif" font-size="10.00">calibrate</text>
</a>
</g>
</g>
<!-- Node15&#45;&gt;Node16 -->
<g id="edge18_Node000015_Node000016" class="edge">
<title>Node15&#45;&gt;Node16</title>
<g id="a_edge18_Node000015_Node000016"><a xlink:title=" ">
<path fill="none" stroke="#63b8ff" d="M289.91,-987.03C317.17,-992.94 351.88,-1000.48 378.06,-1006.16"/>
<polygon fill="#63b8ff" stroke="#63b8ff" points="377.48,-1009.61 387.99,-1008.31 378.96,-1002.77 377.48,-1009.61"/>
</a>
</g>
</g>
<!-- Node17 -->
<g id="Node000017" class="node">
<title>Node17</title>
<g id="a_Node000017"><a xlink:href="i2c_8c.html#afd489cf93d14a907e09132068de8e1c9" target="_top" xlink:title="Write [reg] byte to i2c device and then read [nbytes] from it. Read bytes are stored in [buf].">
<polygon fill="white" stroke="#666666" points="482,-709 353,-709 353,-690 482,-690 482,-709"/>
<text text-anchor="middle" x="417.5" y="-697" font-family="Helvetica,sans-Serif" font-size="10.00">i2c_read_from_register</text>
</a>
</g>
</g>
<!-- Node15&#45;&gt;Node17 -->
<g id="edge20_Node000015_Node000017" class="edge">
<title>Node15&#45;&gt;Node17</title>
<g id="a_edge20_Node000015_Node000017"><a xlink:title=" ">
<path fill="none" stroke="#63b8ff" d="M291.23,-972.84C300.59,-970.12 309.78,-965.92 317,-959.5 390.73,-893.94 410.14,-767.62 414.98,-719.12"/>
<polygon fill="#63b8ff" stroke="#63b8ff" points="418.48,-719.3 415.89,-709.03 411.51,-718.68 418.48,-719.3"/>
</a>
</g>
</g>
<!-- Node16&#45;&gt;Node3 -->
<g id="edge19_Node000016_Node000003" class="edge">
<title>Node16&#45;&gt;Node3</title>
<g id="a_edge19_Node000016_Node000003"><a xlink:title=" ">
<path fill="none" stroke="#63b8ff" d="M447.11,-1017.76C464.16,-1019.7 486.57,-1022.25 507.94,-1024.69"/>
<polygon fill="#63b8ff" stroke="#63b8ff" points="507.66,-1028.18 517.99,-1025.83 508.46,-1021.23 507.66,-1028.18"/>
</a>
</g>
</g>
<!-- Node18&#45;&gt;Node16 -->
<g id="edge22_Node000018_Node000016" class="edge">
<title>Node18&#45;&gt;Node16</title>
<g id="a_edge22_Node000018_Node000016"><a xlink:title=" ">
<path fill="none" stroke="#63b8ff" d="M288.15,-1014.5C315.57,-1014.5 351.07,-1014.5 377.78,-1014.5"/>
<polygon fill="#63b8ff" stroke="#63b8ff" points="377.91,-1018 387.91,-1014.5 377.91,-1011 377.91,-1018"/>
</a>
</g>
</g>
<!-- Node18&#45;&gt;Node17 -->
<g id="edge23_Node000018_Node000017" class="edge">
<title>Node18&#45;&gt;Node17</title>
<g id="a_edge23_Node000018_Node000017"><a xlink:title=" ">
<path fill="none" stroke="#63b8ff" d="M288.11,-1010.98C298.59,-1008.31 309.08,-1003.85 317,-996.5 399.64,-919.84 413.69,-772.6 416.04,-719.34"/>
<polygon fill="#63b8ff" stroke="#63b8ff" points="419.54,-719.31 416.39,-709.2 412.55,-719.07 419.54,-719.31"/>
</a>
</g>
</g>
<!-- Node19&#45;&gt;Node17 -->
<g id="edge25_Node000019_Node000017" class="edge">
<title>Node19&#45;&gt;Node17</title>
<g id="a_edge25_Node000019_Node000017"><a xlink:title=" ">
<path fill="none" stroke="#63b8ff" d="M285.22,-576.74C296.03,-579.57 307.42,-583.65 317,-589.5 355.97,-613.31 388.7,-656.92 405.13,-681.47"/>
<polygon fill="#63b8ff" stroke="#63b8ff" points="402.21,-683.41 410.61,-689.87 408.07,-679.58 402.21,-683.41"/>
</a>
</g>
</g>
<!-- Node20&#45;&gt;Node17 -->
<g id="edge27_Node000020_Node000017" class="edge">
<title>Node20&#45;&gt;Node17</title>
<g id="a_edge27_Node000020_Node000017"><a xlink:title=" ">
<path fill="none" stroke="#63b8ff" d="M290.23,-540.13C299.63,-542.92 309.1,-546.88 317,-552.5 363.92,-585.9 395.36,-648.87 408.92,-680.44"/>
<polygon fill="#63b8ff" stroke="#63b8ff" points="405.76,-681.96 412.83,-689.85 412.22,-679.28 405.76,-681.96"/>
</a>
</g>
</g>
<!-- Node21&#45;&gt;Node4 -->
<g id="edge29_Node000021_Node000004" class="edge">
<title>Node21&#45;&gt;Node4</title>
<g id="a_edge29_Node000021_Node000004"><a xlink:title=" ">
<path fill="none" stroke="#63b8ff" d="M290.62,-281.09C300.01,-284.55 309.37,-289.21 317,-295.5 341.9,-316 328.47,-337.56 353,-358.5 359.05,-363.66 366.33,-367.77 373.76,-371.03"/>
<polygon fill="#63b8ff" stroke="#63b8ff" points="372.59,-374.33 383.18,-374.7 375.13,-367.81 372.59,-374.33"/>
</a>
</g>
</g>
<!-- Node21&#45;&gt;Node11 -->
<g id="edge35_Node000021_Node000011" class="edge">
<title>Node21&#45;&gt;Node11</title>
<g id="a_edge35_Node000021_Node000011"><a xlink:title=" ">
<path fill="none" stroke="#63b8ff" d="M282.86,-281.11C294.18,-284.81 306.44,-289.59 317,-295.5 335.17,-305.67 333.42,-318.41 353,-325.5 420.44,-349.92 507,-339.07 549.92,-331.16"/>
<polygon fill="#63b8ff" stroke="#63b8ff" points="550.7,-334.57 559.86,-329.23 549.37,-327.7 550.7,-334.57"/>
</a>
</g>
</g>
<!-- Node22 -->
<g id="Node000022" class="node">
<title>Node22</title>
<g id="a_Node000022"><a xlink:href="filesystem_8c.html#a6c3bed1f355bd1952d7ffa87405828c6" target="_top" xlink:title=" ">
<polygon fill="white" stroke="#666666" points="449.5,-316 385.5,-316 385.5,-297 449.5,-297 449.5,-316"/>
<text text-anchor="middle" x="417.5" y="-304" font-family="Helvetica,sans-Serif" font-size="10.00">dir_exists</text>
</a>
</g>
</g>
<!-- Node21&#45;&gt;Node22 -->
<g id="edge30_Node000021_Node000022" class="edge">
<title>Node21&#45;&gt;Node22</title>
<g id="a_edge30_Node000021_Node000022"><a xlink:title=" ">
<path fill="none" stroke="#63b8ff" d="M292.59,-281.06C318.5,-286.38 350.46,-292.94 375.43,-298.07"/>
<polygon fill="#63b8ff" stroke="#63b8ff" points="374.81,-301.52 385.31,-300.1 376.22,-294.66 374.81,-301.52"/>
</a>
</g>
</g>
<!-- Node23 -->
<g id="Node000023" class="node">
<title>Node23</title>
<g id="a_Node000023"><a xlink:href="filesystem_8c.html#a20ca64a89158ccc1eb3f714b3d8725f5" target="_top" xlink:title=" ">
<polygon fill="white" stroke="#666666" points="448.5,-279 386.5,-279 386.5,-260 448.5,-260 448.5,-279"/>
<text text-anchor="middle" x="417.5" y="-267" font-family="Helvetica,sans-Serif" font-size="10.00">make_dir</text>
</a>
</g>
</g>
<!-- Node21&#45;&gt;Node23 -->
<g id="edge32_Node000021_Node000023" class="edge">
<title>Node21&#45;&gt;Node23</title>
<g id="a_edge32_Node000021_Node000023"><a xlink:title=" ">
<path fill="none" stroke="#63b8ff" d="M298.08,-270.89C323.05,-270.6 352.51,-270.25 375.81,-269.98"/>
<polygon fill="#63b8ff" stroke="#63b8ff" points="376.08,-273.47 386.04,-269.86 376,-266.47 376.08,-273.47"/>
</a>
</g>
</g>
<!-- Node21&#45;&gt;Node24 -->
<g id="edge33_Node000021_Node000024" class="edge">
<title>Node21&#45;&gt;Node24</title>
<g id="a_edge33_Node000021_Node000024"><a xlink:title=" ">
<path fill="none" stroke="#63b8ff" d="M261.48,-261.99C281.87,-249.75 319.13,-228.43 353,-214.5 361.03,-211.2 369.85,-208.19 378.28,-205.59"/>
<polygon fill="#63b8ff" stroke="#63b8ff" points="379.35,-208.93 387.95,-202.74 377.37,-202.21 379.35,-208.93"/>
</a>
</g>
</g>
<!-- Node21&#45;&gt;Node25 -->
<g id="edge36_Node000021_Node000025" class="edge">
<title>Node21&#45;&gt;Node25</title>
<g id="a_edge36_Node000021_Node000025"><a xlink:title=" ">
<path fill="none" stroke="#63b8ff" d="M287.71,-261.96C314.81,-255.76 349.93,-247.73 376.65,-241.61"/>
<polygon fill="#63b8ff" stroke="#63b8ff" points="377.48,-245.02 386.45,-239.37 375.92,-238.19 377.48,-245.02"/>
</a>
</g>
</g>
<!-- Node22&#45;&gt;Node11 -->
<g id="edge31_Node000022_Node000011" class="edge">
<title>Node22&#45;&gt;Node11</title>
<g id="a_edge31_Node000022_Node000011"><a xlink:title=" ">
<path fill="none" stroke="#63b8ff" d="M449.72,-310.25C478.93,-313.77 522.12,-318.96 549.78,-322.29"/>
<polygon fill="#63b8ff" stroke="#63b8ff" points="549.56,-325.79 559.91,-323.5 550.4,-318.84 549.56,-325.79"/>
</a>
</g>
</g>
<!-- Node24&#45;&gt;Node12 -->
<g id="edge34_Node000024_Node000012" class="edge">
<title>Node24&#45;&gt;Node12</title>
<g id="a_edge34_Node000024_Node000012"><a xlink:title=" ">
<path fill="none" stroke="#63b8ff" d="M447.09,-202.22C501.2,-214.94 619.22,-242.69 686.97,-258.62"/>
<polygon fill="#63b8ff" stroke="#63b8ff" points="686.46,-262.1 696.99,-260.98 688.06,-255.28 686.46,-262.1"/>
</a>
</g>
</g>
<!-- Node26&#45;&gt;Node17 -->
<g id="edge38_Node000026_Node000017" class="edge">
<title>Node26&#45;&gt;Node17</title>
<g id="a_edge38_Node000026_Node000017"><a xlink:title=" ">
<path fill="none" stroke="#63b8ff" d="M290.28,-502.45C299.79,-505.27 309.29,-509.41 317,-515.5 372.26,-559.12 400.89,-642.2 411.53,-679.95"/>
<polygon fill="#63b8ff" stroke="#63b8ff" points="408.18,-680.98 414.16,-689.73 414.94,-679.16 408.18,-680.98"/>
</a>
</g>
</g>
<!-- Node27&#45;&gt;Node17 -->
<g id="edge40_Node000027_Node000017" class="edge">
<title>Node27&#45;&gt;Node17</title>
<g id="a_edge40_Node000027_Node000017"><a xlink:title=" ">
<path fill="none" stroke="#63b8ff" d="M280.67,-462.55C293.28,-465.16 306.89,-469.9 317,-478.5 380.86,-532.79 405.58,-636.4 413.41,-679.71"/>
<polygon fill="#63b8ff" stroke="#63b8ff" points="410,-680.52 415.12,-689.79 416.9,-679.35 410,-680.52"/>
</a>
</g>
</g>
<!-- Node28&#45;&gt;Node17 -->
<g id="edge42_Node000028_Node000017" class="edge">
<title>Node28&#45;&gt;Node17</title>
<g id="a_edge42_Node000028_Node000017"><a xlink:title=" ">
<path fill="none" stroke="#63b8ff" d="M280.56,-425.19C293.3,-427.74 307.03,-432.54 317,-441.5 389.72,-506.86 409.71,-631.52 414.84,-679.76"/>
<polygon fill="#63b8ff" stroke="#63b8ff" points="411.37,-680.2 415.81,-689.82 418.34,-679.53 411.37,-680.2"/>
</a>
</g>
</g>
<!-- Node29&#45;&gt;Node17 -->
<g id="edge44_Node000029_Node000017" class="edge">
<title>Node29&#45;&gt;Node17</title>
<g id="a_edge44_Node000029_Node000017"><a xlink:title=" ">
<path fill="none" stroke="#63b8ff" d="M280.04,-387.82C293.01,-390.31 307.04,-395.16 317,-404.5 398.71,-481.16 413.33,-627.09 415.94,-679.85"/>
<polygon fill="#63b8ff" stroke="#63b8ff" points="412.44,-680.04 416.34,-689.89 419.44,-679.76 412.44,-680.04"/>
</a>
</g>
</g>
<!-- Node30&#45;&gt;Node17 -->
<g id="edge46_Node000030_Node000017" class="edge">
<title>Node30&#45;&gt;Node17</title>
<g id="a_edge46_Node000030_Node000017"><a xlink:title=" ">
<path fill="none" stroke="#63b8ff" d="M303.68,-930.84C308.48,-928.6 313.01,-925.86 317,-922.5 381.74,-868 406.02,-762.9 413.57,-719.25"/>
<polygon fill="#63b8ff" stroke="#63b8ff" points="417.03,-719.76 415.18,-709.32 410.12,-718.64 417.03,-719.76"/>
</a>
</g>
</g>
<!-- Node31&#45;&gt;Node17 -->
<g id="edge48_Node000031_Node000017" class="edge">
<title>Node31&#45;&gt;Node17</title>
<g id="a_edge48_Node000031_Node000017"><a xlink:title=" ">
<path fill="none" stroke="#63b8ff" d="M302.72,-893.85C307.83,-891.61 312.69,-888.87 317,-885.5 372.91,-841.75 401.2,-757.6 411.64,-719.32"/>
<polygon fill="#63b8ff" stroke="#63b8ff" points="415.09,-719.97 414.22,-709.41 408.32,-718.21 415.09,-719.97"/>
</a>
</g>
</g>
<!-- Node32&#45;&gt;Node17 -->
<g id="edge51_Node000032_Node000017" class="edge">
<title>Node32&#45;&gt;Node17</title>
<g id="a_edge51_Node000032_Node000017"><a xlink:title=" ">
<path fill="none" stroke="#63b8ff" d="M283.58,-862.29C295.07,-859.66 307.24,-855.4 317,-848.5 364.47,-814.95 395.66,-750.99 409.04,-718.89"/>
<polygon fill="#63b8ff" stroke="#63b8ff" points="412.4,-719.9 412.89,-709.31 405.91,-717.28 412.4,-719.9"/>
</a>
</g>
</g>
<!-- Node33&#45;&gt;Node17 -->
<g id="edge53_Node000033_Node000017" class="edge">
<title>Node33&#45;&gt;Node17</title>
<g id="a_edge53_Node000033_Node000017"><a xlink:title=" ">
<path fill="none" stroke="#63b8ff" d="M283.77,-824.29C295.02,-821.61 307,-817.58 317,-811.5 356.61,-787.41 389.29,-742.58 405.5,-717.56"/>
<polygon fill="#63b8ff" stroke="#63b8ff" points="408.51,-719.35 410.88,-709.03 402.58,-715.62 408.51,-719.35"/>
</a>
</g>
</g>
<!-- Node34&#45;&gt;Node17 -->
<g id="edge55_Node000034_Node000017" class="edge">
<title>Node34&#45;&gt;Node17</title>
<g id="a_edge55_Node000034_Node000017"><a xlink:title=" ">
<path fill="none" stroke="#63b8ff" d="M290.14,-784.21C299.26,-781.7 308.63,-778.51 317,-774.5 348.77,-759.27 380.4,-733.05 399.2,-716"/>
<polygon fill="#63b8ff" stroke="#63b8ff" points="401.7,-718.46 406.66,-709.1 396.94,-713.32 401.7,-718.46"/>
</a>
</g>
</g>
<!-- Node35&#45;&gt;Node17 -->
<g id="edge57_Node000035_Node000017" class="edge">
<title>Node35&#45;&gt;Node17</title>
<g id="a_edge57_Node000035_Node000017"><a xlink:title=" ">
<path fill="none" stroke="#63b8ff" d="M287.15,-745.93C296.99,-743.41 307.42,-740.53 317,-737.5 339.82,-730.28 365,-720.64 384.32,-712.88"/>
<polygon fill="#63b8ff" stroke="#63b8ff" points="385.89,-716.02 393.85,-709.02 383.26,-709.54 385.89,-716.02"/>
</a>
</g>
</g>
<!-- Node36&#45;&gt;Node17 -->
<g id="edge59_Node000036_Node000017" class="edge">
<title>Node36&#45;&gt;Node17</title>
<g id="a_edge59_Node000036_Node000017"><a xlink:title=" ">
<path fill="none" stroke="#63b8ff" d="M290.35,-713.56C306.27,-711.78 324.68,-709.73 342.44,-707.75"/>
<polygon fill="#63b8ff" stroke="#63b8ff" points="343.24,-711.19 352.79,-706.6 342.46,-704.23 343.24,-711.19"/>
</a>
</g>
</g>
<!-- Node37&#45;&gt;Node17 -->
<g id="edge61_Node000037_Node000017" class="edge">
<title>Node37&#45;&gt;Node17</title>
<g id="a_edge61_Node000037_Node000017"><a xlink:title=" ">
<path fill="none" stroke="#63b8ff" d="M285.54,-685.67C302.55,-687.47 323,-689.63 342.63,-691.7"/>
<polygon fill="#63b8ff" stroke="#63b8ff" points="342.49,-695.21 352.8,-692.78 343.22,-688.24 342.49,-695.21"/>
</a>
</g>
</g>
<!-- Node38&#45;&gt;Node17 -->
<g id="edge63_Node000038_Node000017" class="edge">
<title>Node38&#45;&gt;Node17</title>
<g id="a_edge63_Node000038_Node000017"><a xlink:title=" ">
<path fill="none" stroke="#63b8ff" d="M283.76,-653.96C294.55,-656.84 306.29,-660.14 317,-663.5 338.94,-670.39 363.21,-679.15 382.29,-686.3"/>
<polygon fill="#63b8ff" stroke="#63b8ff" points="381.17,-689.62 391.76,-689.88 383.64,-683.07 381.17,-689.62"/>
</a>
</g>
</g>
<!-- Node40&#45;&gt;Node17 -->
<g id="edge66_Node000040_Node000017" class="edge">
<title>Node40&#45;&gt;Node17</title>
<g id="a_edge66_Node000040_Node000017"><a xlink:title=" ">
<path fill="none" stroke="#63b8ff" d="M291.6,-617.01C300.24,-619.56 309.06,-622.69 317,-626.5 348.3,-641.51 379.84,-666.76 398.77,-683.28"/>
<polygon fill="#63b8ff" stroke="#63b8ff" points="396.51,-685.95 406.31,-689.98 401.16,-680.72 396.51,-685.95"/>
</a>
</g>
</g>
</g>
</svg>
