<?xml version="1.0" encoding="UTF-8" standalone="no"?>
<!DOCTYPE svg PUBLIC "-//W3C//DTD SVG 1.1//EN"
 "http://www.w3.org/Graphics/SVG/1.1/DTD/svg11.dtd">
<!-- Generated by graphviz version 2.43.0 (0)
 -->
<!-- Title: heartbeat_telemetry_job Pages: 1 -->
<!--zoomable 878 -->

<svg id="main" version="1.1" xmlns="http://www.w3.org/2000/svg" xmlns:xlink="http://www.w3.org/1999/xlink" xml:space="preserve" onload="init(evt)">

<style type="text/css"><![CDATA[
.node, .edge {opacity: 0.7;}
.node.selected, .edge.selected {opacity: 1;}
.edge:hover path { stroke: red; }
.edge:hover polygon { stroke: red; fill: red; }
]]></style>

<defs>
  <circle id="rim" cx="0" cy="0" r="7"/>
  <circle id="rim2" cx="0" cy="0" r="3.5"/>
  <g id="zoomPlus">
    <use xlink:href="#rim" fill="#404040"><set attributeName="fill" to="#808080" begin="zoomplus.mouseover" end="zoomplus.mouseout"/></use>
    <path d="M-4,0h8M0,-4v8" fill="none" stroke="white" stroke-width="1.5" pointer-events="none"/>
  </g>
  <g id="zoomMin">
    <use xlink:href="#rim" fill="#404040"><set attributeName="fill" to="#808080" begin="zoomminus.mouseover" end="zoomminus.mouseout"/></use>
    <path d="M-4,0h8" fill="none" stroke="white" stroke-width="1.5" pointer-events="none"/>
  </g>
  <g id="arrowUp" transform="translate(30 24)">
    <use xlink:href="#rim"/>
    <path pointer-events="none" fill="none" stroke="white" stroke-width="1.5" d="M0,-3.0v7 M-2.5,-0.5L0,-3.0L2.5,-0.5"/>
  </g>
  <g id="arrowRight" transform="rotate(90) translate(36 -43)">
    <use xlink:href="#rim"/>
    <path pointer-events="none" fill="none" stroke="white" stroke-width="1.5" d="M0,-3.0v7 M-2.5,-0.5L0,-3.0L2.5,-0.5"/>
  </g>
  <g id="arrowDown" transform="rotate(180) translate(-30 -48)">
    <use xlink:href="#rim"/>
    <path pointer-events="none" fill="none" stroke="white" stroke-width="1.5" d="M0,-3.0v7 M-2.5,-0.5L0,-3.0L2.5,-0.5"/>
  </g>
  <g id="arrowLeft" transform="rotate(270) translate(-36 17)">
    <use xlink:href="#rim"/>
    <path pointer-events="none" fill="none" stroke="white" stroke-width="1.5" d="M0,-3.0v7 M-2.5,-0.5L0,-3.0L2.5,-0.5"/>
  </g>
  <g id="resetDef">
    <use xlink:href="#rim2" fill="#404040"><set attributeName="fill" to="#808080" begin="reset.mouseover" end="reset.mouseout"/></use>
  </g>
</defs>
<script type="application/ecmascript">
var viewWidth = 810;
var viewHeight = 878;
var sectionId = 'dynsection-1';
</script>
<script type="application/ecmascript" xlink:href="svg.min.js"/>
<svg id="graph" class="graph">
<g id="viewport">
<title>heartbeat_telemetry_job</title>
<!-- Node1 -->
<g id="Node000001" class="node">
<title>Node1</title>
<g id="a_Node000001"><a xlink:title=" ">
<polygon fill="#999999" stroke="#666666" points="137,-462.7 0,-462.7 0,-443.7 137,-443.7 137,-462.7"/>
<text text-anchor="middle" x="68.5" y="-450.7" font-family="Helvetica,sans-Serif" font-size="10.00">heartbeat_telemetry_job</text>
</a>
</g>
</g>
<!-- Node2 -->
<g id="Node000002" class="node">
<title>Node2</title>
<g id="a_Node000002"><a xlink:href="ina219_8c.html#a9ffe93da633c2f6008fac2f2da36ab72" target="_top" xlink:title=" ">
<polygon fill="white" stroke="#666666" points="438.5,-851.7 392.5,-851.7 392.5,-832.7 438.5,-832.7 438.5,-851.7"/>
<text text-anchor="middle" x="415.5" y="-839.7" font-family="Helvetica,sans-Serif" font-size="10.00">config</text>
</a>
</g>
</g>
<!-- Node1&#45;&gt;Node2 -->
<g id="edge1_Node000001_Node000002" class="edge">
<title>Node1&#45;&gt;Node2</title>
<g id="a_edge1_Node000001_Node000002"><a xlink:title=" ">
<path fill="none" stroke="#63b8ff" d="M70.69,-462.74C77.53,-515.97 113.65,-775.56 173,-824.2 232.96,-873.34 331.83,-861.03 382.45,-850.3"/>
<polygon fill="#63b8ff" stroke="#63b8ff" points="383.5,-853.65 392.49,-848.06 381.97,-846.82 383.5,-853.65"/>
</a>
</g>
</g>
<!-- Node4 -->
<g id="Node000004" class="node">
<title>Node4</title>
<g id="a_Node000004"><a xlink:href="timing_8c.html#a7cef17ffb0e9db503a077191e1a4b013" target="_top" xlink:title=" ">
<polygon fill="white" stroke="#666666" points="280,-148.7 208,-148.7 208,-129.7 280,-129.7 280,-148.7"/>
<text text-anchor="middle" x="244" y="-136.7" font-family="Helvetica,sans-Serif" font-size="10.00">get_uptime</text>
</a>
</g>
</g>
<!-- Node1&#45;&gt;Node4 -->
<g id="edge4_Node000001_Node000004" class="edge">
<title>Node1&#45;&gt;Node4</title>
<g id="a_edge4_Node000001_Node000004"><a xlink:title=" ">
<path fill="none" stroke="#63b8ff" d="M69.81,-443.59C71.67,-402.57 84.57,-240.45 173,-158.2 179.91,-151.78 188.76,-147.49 197.84,-144.63"/>
<polygon fill="#63b8ff" stroke="#63b8ff" points="198.9,-147.97 207.69,-142.06 197.13,-141.2 198.9,-147.97"/>
</a>
</g>
</g>
<!-- Node5 -->
<g id="Node000005" class="node">
<title>Node5</title>
<g id="a_Node000005"><a xlink:href="ina219_8c.html#a7a37de137b1bb2ec0149be505ec84ffe" target="_top" xlink:title=" ">
<polygon fill="white" stroke="#666666" points="290,-777.7 198,-777.7 198,-758.7 290,-758.7 290,-777.7"/>
<text text-anchor="middle" x="244" y="-765.7" font-family="Helvetica,sans-Serif" font-size="10.00">getCurrent_raw</text>
</a>
</g>
</g>
<!-- Node1&#45;&gt;Node5 -->
<g id="edge5_Node000001_Node000005" class="edge">
<title>Node1&#45;&gt;Node5</title>
<g id="a_edge5_Node000001_Node000005"><a xlink:title=" ">
<path fill="none" stroke="#63b8ff" d="M69.76,-462.9C71.41,-504.32 83.57,-667.96 173,-750.2 177.44,-754.28 182.68,-757.47 188.26,-759.95"/>
<polygon fill="#63b8ff" stroke="#63b8ff" points="187.3,-763.32 197.89,-763.49 189.71,-756.75 187.3,-763.32"/>
</a>
</g>
</g>
<!-- Node8 -->
<g id="Node000008" class="node">
<title>Node8</title>
<g id="a_Node000008"><a xlink:href="ina219_8c.html#aeb76d9007b107e997adfd60ab4d3bae0" target="_top" xlink:title=" ">
<polygon fill="white" stroke="#666666" points="287,-814.7 201,-814.7 201,-795.7 287,-795.7 287,-814.7"/>
<text text-anchor="middle" x="244" y="-802.7" font-family="Helvetica,sans-Serif" font-size="10.00">getPower_raw</text>
</a>
</g>
</g>
<!-- Node1&#45;&gt;Node8 -->
<g id="edge9_Node000001_Node000008" class="edge">
<title>Node1&#45;&gt;Node8</title>
<g id="a_edge9_Node000001_Node000008"><a xlink:title=" ">
<path fill="none" stroke="#63b8ff" d="M69.33,-462.86C69.12,-507.21 74.31,-693.21 173,-787.2 178.07,-792.03 184.25,-795.61 190.82,-798.25"/>
<polygon fill="#63b8ff" stroke="#63b8ff" points="190.04,-801.68 200.64,-801.49 192.24,-795.03 190.04,-801.68"/>
</a>
</g>
</g>
<!-- Node9 -->
<g id="Node000009" class="node">
<title>Node9</title>
<g id="a_Node000009"><a xlink:href="ina219_8c.html#acc82e6e7a3a8b48efe1ad86f421dcad0" target="_top" xlink:title=" ">
<polygon fill="white" stroke="#666666" points="284,-666.7 204,-666.7 204,-647.7 284,-647.7 284,-666.7"/>
<text text-anchor="middle" x="244" y="-654.7" font-family="Helvetica,sans-Serif" font-size="10.00">getVBus_raw</text>
</a>
</g>
</g>
<!-- Node1&#45;&gt;Node9 -->
<g id="edge12_Node000001_Node000009" class="edge">
<title>Node1&#45;&gt;Node9</title>
<g id="a_edge12_Node000001_Node000009"><a xlink:title=" ">
<path fill="none" stroke="#63b8ff" d="M72.01,-463.11C80.42,-494.28 110.69,-591.11 173,-639.2 179.22,-644 186.58,-647.53 194.15,-650.12"/>
<polygon fill="#63b8ff" stroke="#63b8ff" points="193.21,-653.49 203.79,-652.93 195.16,-646.77 193.21,-653.49"/>
</a>
</g>
</g>
<!-- Node10 -->
<g id="Node000010" class="node">
<title>Node10</title>
<g id="a_Node000010"><a xlink:href="ina219_8c.html#a0ef96929110f3bf77d9da6940841b7a3" target="_top" xlink:title=" ">
<polygon fill="white" stroke="#666666" points="289,-629.7 199,-629.7 199,-610.7 289,-610.7 289,-629.7"/>
<text text-anchor="middle" x="244" y="-617.7" font-family="Helvetica,sans-Serif" font-size="10.00">getVShunt_raw</text>
</a>
</g>
</g>
<!-- Node1&#45;&gt;Node10 -->
<g id="edge14_Node000001_Node000010" class="edge">
<title>Node1&#45;&gt;Node10</title>
<g id="a_edge14_Node000001_Node000010"><a xlink:title=" ">
<path fill="none" stroke="#63b8ff" d="M73.38,-463.01C84.5,-489.81 119.22,-564.8 173,-602.2 177.88,-605.6 183.36,-608.35 189.04,-610.59"/>
<polygon fill="#63b8ff" stroke="#63b8ff" points="188.13,-613.98 198.72,-613.88 190.38,-607.35 188.13,-613.98"/>
</a>
</g>
</g>
<!-- Node11 -->
<g id="Node000011" class="node">
<title>Node11</title>
<g id="a_Node000011"><a xlink:href="hb__tlm__log_8c.html#a06d9003c959538dac30ed99c0f01db0f" target="_top" xlink:title=" ">
<polygon fill="white" stroke="#666666" points="297,-111.7 191,-111.7 191,-92.7 297,-92.7 297,-111.7"/>
<text text-anchor="middle" x="244" y="-99.7" font-family="Helvetica,sans-Serif" font-size="10.00">log_heartbeat_tlm</text>
</a>
</g>
</g>
<!-- Node1&#45;&gt;Node11 -->
<g id="edge16_Node000001_Node000011" class="edge">
<title>Node1&#45;&gt;Node11</title>
<g id="a_edge16_Node000001_Node000011"><a xlink:title=" ">
<path fill="none" stroke="#63b8ff" d="M69.38,-443.63C69.38,-399.67 75.39,-215.25 173,-121.2 175.7,-118.6 178.71,-116.35 181.94,-114.4"/>
<polygon fill="#63b8ff" stroke="#63b8ff" points="183.51,-117.53 190.88,-109.91 180.37,-111.27 183.51,-117.53"/>
</a>
</g>
</g>
<!-- Node19 -->
<g id="Node000019" class="node">
<title>Node19</title>
<g id="a_Node000019"><a xlink:href="mag__lis3mdltr_8c.html#a7701b495ff94874c5d3bbd940b8f99ff" target="_top" xlink:title=" ">
<polygon fill="white" stroke="#666666" points="289,-592.7 199,-592.7 199,-573.7 289,-573.7 289,-592.7"/>
<text text-anchor="middle" x="244" y="-580.7" font-family="Helvetica,sans-Serif" font-size="10.00">mag_get_temp</text>
</a>
</g>
</g>
<!-- Node1&#45;&gt;Node19 -->
<g id="edge26_Node000001_Node000019" class="edge">
<title>Node1&#45;&gt;Node19</title>
<g id="a_edge26_Node000001_Node000019"><a xlink:title=" ">
<path fill="none" stroke="#63b8ff" d="M75.45,-462.71C89.56,-484.44 127.31,-537.92 173,-565.2 178.04,-568.21 183.57,-570.72 189.25,-572.81"/>
<polygon fill="#63b8ff" stroke="#63b8ff" points="188.29,-576.18 198.89,-575.96 190.47,-569.53 188.29,-576.18"/>
</a>
</g>
</g>
<!-- Node20 -->
<g id="Node000020" class="node">
<title>Node20</title>
<g id="a_Node000020"><a xlink:href="mag__lis3mdltr_8c.html#a38a61bd16b9dfb232231f3518d803b65" target="_top" xlink:title=" ">
<polygon fill="white" stroke="#666666" points="279.5,-555.7 208.5,-555.7 208.5,-536.7 279.5,-536.7 279.5,-555.7"/>
<text text-anchor="middle" x="244" y="-543.7" font-family="Helvetica,sans-Serif" font-size="10.00">mag_get_x</text>
</a>
</g>
</g>
<!-- Node1&#45;&gt;Node20 -->
<g id="edge28_Node000001_Node000020" class="edge">
<title>Node1&#45;&gt;Node20</title>
<g id="a_edge28_Node000001_Node000020"><a xlink:title=" ">
<path fill="none" stroke="#63b8ff" d="M79.82,-462.76C97.53,-478.67 135.45,-510.55 173,-528.2 180.92,-531.92 189.71,-534.95 198.32,-537.39"/>
<polygon fill="#63b8ff" stroke="#63b8ff" points="197.72,-540.85 208.28,-539.99 199.49,-534.08 197.72,-540.85"/>
</a>
</g>
</g>
<!-- Node21 -->
<g id="Node000021" class="node">
<title>Node21</title>
<g id="a_Node000021"><a xlink:href="mag__lis3mdltr_8c.html#a47dbf866e595e1b959c9da3b594dcc7d" target="_top" xlink:title=" ">
<polygon fill="white" stroke="#666666" points="279.5,-518.7 208.5,-518.7 208.5,-499.7 279.5,-499.7 279.5,-518.7"/>
<text text-anchor="middle" x="244" y="-506.7" font-family="Helvetica,sans-Serif" font-size="10.00">mag_get_y</text>
</a>
</g>
</g>
<!-- Node1&#45;&gt;Node21 -->
<g id="edge30_Node000001_Node000021" class="edge">
<title>Node1&#45;&gt;Node21</title>
<g id="a_edge30_Node000001_Node000021"><a xlink:title=" ">
<path fill="none" stroke="#63b8ff" d="M93.52,-462.8C114.35,-470.93 145.4,-482.61 173,-491.2 181.18,-493.75 189.98,-496.22 198.48,-498.47"/>
<polygon fill="#63b8ff" stroke="#63b8ff" points="197.71,-501.89 208.27,-501 199.47,-495.11 197.71,-501.89"/>
</a>
</g>
</g>
<!-- Node22 -->
<g id="Node000022" class="node">
<title>Node22</title>
<g id="a_Node000022"><a xlink:href="mag__lis3mdltr_8c.html#ae8775374a424d7f7cce47046c180954d" target="_top" xlink:title=" ">
<polygon fill="white" stroke="#666666" points="279,-481.7 209,-481.7 209,-462.7 279,-462.7 279,-481.7"/>
<text text-anchor="middle" x="244" y="-469.7" font-family="Helvetica,sans-Serif" font-size="10.00">mag_get_z</text>
</a>
</g>
</g>
<!-- Node1&#45;&gt;Node22 -->
<g id="edge32_Node000001_Node000022" class="edge">
<title>Node1&#45;&gt;Node22</title>
<g id="a_edge32_Node000001_Node000022"><a xlink:title=" ">
<path fill="none" stroke="#63b8ff" d="M137.08,-460.6C157.79,-462.87 180.04,-465.31 198.77,-467.36"/>
<polygon fill="#63b8ff" stroke="#63b8ff" points="198.46,-470.85 208.78,-468.46 199.22,-463.89 198.46,-470.85"/>
</a>
</g>
</g>
<!-- Node23 -->
<g id="Node000023" class="node">
<title>Node23</title>
<g id="a_Node000023"><a xlink:href="simulator_2drivers_2include_2max17048_8h.html#ad9a75a9c9fa941599b507163dc5c223a" target="_top" xlink:title=" ">
<polygon fill="white" stroke="#666666" points="315,-444.7 173,-444.7 173,-425.7 315,-425.7 315,-444.7"/>
<text text-anchor="middle" x="244" y="-432.7" font-family="Helvetica,sans-Serif" font-size="10.00">max17048CellPercentage</text>
</a>
</g>
</g>
<!-- Node1&#45;&gt;Node23 -->
<g id="edge34_Node000001_Node000023" class="edge">
<title>Node1&#45;&gt;Node23</title>
<g id="a_edge34_Node000001_Node000023"><a xlink:title=" ">
<path fill="none" stroke="#63b8ff" d="M137.08,-446.19C145.49,-445.32 154.15,-444.42 162.73,-443.53"/>
<polygon fill="#63b8ff" stroke="#63b8ff" points="163.16,-447 172.75,-442.49 162.44,-440.04 163.16,-447"/>
</a>
</g>
</g>
<!-- Node24 -->
<g id="Node000024" class="node">
<title>Node24</title>
<g id="a_Node000024"><a xlink:href="max17048_8c.html#adf384268b2363eadca0fdb81281a1a6f" target="_top" xlink:title=" ">
<polygon fill="white" stroke="#666666" points="306,-407.7 182,-407.7 182,-388.7 306,-388.7 306,-407.7"/>
<text text-anchor="middle" x="244" y="-395.7" font-family="Helvetica,sans-Serif" font-size="10.00">max17048CellVoltage</text>
</a>
</g>
</g>
<!-- Node1&#45;&gt;Node24 -->
<g id="edge36_Node000001_Node000024" class="edge">
<title>Node1&#45;&gt;Node24</title>
<g id="a_edge36_Node000001_Node000024"><a xlink:title=" ">
<path fill="none" stroke="#63b8ff" d="M95.28,-443.67C116.12,-436.11 146.28,-425.46 173,-417.2 180.44,-414.9 188.38,-412.6 196.13,-410.44"/>
<polygon fill="#63b8ff" stroke="#63b8ff" points="197.09,-413.8 205.81,-407.78 195.24,-407.06 197.09,-413.8"/>
</a>
</g>
</g>
<!-- Node25 -->
<g id="Node000025" class="node">
<title>Node25</title>
<g id="a_Node000025"><a xlink:href="rtc__ds3231_8c.html#a4d9ecc8e912cc84cd50c842a8d69e70e" target="_top" xlink:title=" ">
<polygon fill="white" stroke="#666666" points="282.5,-370.7 205.5,-370.7 205.5,-351.7 282.5,-351.7 282.5,-370.7"/>
<text text-anchor="middle" x="244" y="-358.7" font-family="Helvetica,sans-Serif" font-size="10.00">rtc_get_date</text>
</a>
</g>
</g>
<!-- Node1&#45;&gt;Node25 -->
<g id="edge38_Node000001_Node000025" class="edge">
<title>Node1&#45;&gt;Node25</title>
<g id="a_edge38_Node000001_Node000025"><a xlink:title=" ">
<path fill="none" stroke="#63b8ff" d="M80.47,-443.47C98.53,-427.93 136.19,-397.52 173,-380.2 180.13,-376.85 187.96,-374 195.72,-371.61"/>
<polygon fill="#63b8ff" stroke="#63b8ff" points="196.8,-374.94 205.45,-368.82 194.87,-368.21 196.8,-374.94"/>
</a>
</g>
</g>
<!-- Node26 -->
<g id="Node000026" class="node">
<title>Node26</title>
<g id="a_Node000026"><a xlink:href="rtc__ds3231_8c.html#a50130551fb17b3228d45e86ff7b634c3" target="_top" xlink:title=" ">
<polygon fill="white" stroke="#666666" points="282.5,-333.7 205.5,-333.7 205.5,-314.7 282.5,-314.7 282.5,-333.7"/>
<text text-anchor="middle" x="244" y="-321.7" font-family="Helvetica,sans-Serif" font-size="10.00">rtc_get_hour</text>
</a>
</g>
</g>
<!-- Node1&#45;&gt;Node26 -->
<g id="edge40_Node000001_Node000026" class="edge">
<title>Node1&#45;&gt;Node26</title>
<g id="a_edge40_Node000001_Node000026"><a xlink:title=" ">
<path fill="none" stroke="#63b8ff" d="M75.74,-443.59C90.15,-422.15 128.03,-370.19 173,-343.2 179.99,-339.01 187.91,-335.72 195.86,-333.15"/>
<polygon fill="#63b8ff" stroke="#63b8ff" points="196.86,-336.51 205.49,-330.36 194.91,-329.78 196.86,-336.51"/>
</a>
</g>
</g>
<!-- Node27 -->
<g id="Node000027" class="node">
<title>Node27</title>
<g id="a_Node000027"><a xlink:href="rtc__ds3231_8c.html#a37b2be869bea794d2fdfa8869baaa26d" target="_top" xlink:title=" ">
<polygon fill="white" stroke="#666666" points="289,-296.7 199,-296.7 199,-277.7 289,-277.7 289,-296.7"/>
<text text-anchor="middle" x="244" y="-284.7" font-family="Helvetica,sans-Serif" font-size="10.00">rtc_get_minute</text>
</a>
</g>
</g>
<!-- Node1&#45;&gt;Node27 -->
<g id="edge42_Node000001_Node000027" class="edge">
<title>Node1&#45;&gt;Node27</title>
<g id="a_edge42_Node000001_Node000027"><a xlink:title=" ">
<path fill="none" stroke="#63b8ff" d="M73.44,-443.57C84.74,-417.22 119.83,-343.46 173,-306.2 177.89,-302.78 183.37,-299.97 189.05,-297.67"/>
<polygon fill="#63b8ff" stroke="#63b8ff" points="190.47,-300.88 198.74,-294.25 188.14,-294.27 190.47,-300.88"/>
</a>
</g>
</g>
<!-- Node28 -->
<g id="Node000028" class="node">
<title>Node28</title>
<g id="a_Node000028"><a xlink:href="rtc__ds3231_8c.html#a21b982cbe42fb3a2a10755cc9cb1f3f8" target="_top" xlink:title=" ">
<polygon fill="white" stroke="#666666" points="287.5,-259.7 200.5,-259.7 200.5,-240.7 287.5,-240.7 287.5,-259.7"/>
<text text-anchor="middle" x="244" y="-247.7" font-family="Helvetica,sans-Serif" font-size="10.00">rtc_get_month</text>
</a>
</g>
</g>
<!-- Node1&#45;&gt;Node28 -->
<g id="edge44_Node000001_Node000028" class="edge">
<title>Node1&#45;&gt;Node28</title>
<g id="a_edge44_Node000001_Node000028"><a xlink:title=" ">
<path fill="none" stroke="#63b8ff" d="M72.07,-443.43C80.66,-412.7 111.41,-317.17 173,-269.2 178.15,-265.19 184.09,-262.02 190.28,-259.53"/>
<polygon fill="#63b8ff" stroke="#63b8ff" points="191.83,-262.69 200.14,-256.12 189.54,-256.08 191.83,-262.69"/>
</a>
</g>
</g>
<!-- Node29 -->
<g id="Node000029" class="node">
<title>Node29</title>
<g id="a_Node000029"><a xlink:href="rtc__ds3231_8c.html#a663d94e64990cdf62b9f4f740b94bfab" target="_top" xlink:title=" ">
<polygon fill="white" stroke="#666666" points="289,-222.7 199,-222.7 199,-203.7 289,-203.7 289,-222.7"/>
<text text-anchor="middle" x="244" y="-210.7" font-family="Helvetica,sans-Serif" font-size="10.00">rtc_get_second</text>
</a>
</g>
</g>
<!-- Node1&#45;&gt;Node29 -->
<g id="edge46_Node000001_Node000029" class="edge">
<title>Node1&#45;&gt;Node29</title>
<g id="a_edge46_Node000001_Node000029"><a xlink:title=" ">
<path fill="none" stroke="#63b8ff" d="M71.07,-443.5C77.19,-409.02 102.62,-291.35 173,-232.2 177.81,-228.16 183.4,-224.97 189.29,-222.46"/>
<polygon fill="#63b8ff" stroke="#63b8ff" points="190.51,-225.74 198.71,-219.04 188.12,-219.16 190.51,-225.74"/>
</a>
</g>
</g>
<!-- Node30 -->
<g id="Node000030" class="node">
<title>Node30</title>
<g id="a_Node000030"><a xlink:href="rtc__ds3231_8c.html#a787d50004f6b318e952f813800188f89" target="_top" xlink:title=" ">
<polygon fill="white" stroke="#666666" points="284.5,-185.7 203.5,-185.7 203.5,-166.7 284.5,-166.7 284.5,-185.7"/>
<text text-anchor="middle" x="244" y="-173.7" font-family="Helvetica,sans-Serif" font-size="10.00">rtc_get_temp</text>
</a>
</g>
</g>
<!-- Node1&#45;&gt;Node30 -->
<g id="edge48_Node000001_Node000030" class="edge">
<title>Node1&#45;&gt;Node30</title>
<g id="a_edge48_Node000001_Node000030"><a xlink:title=" ">
<path fill="none" stroke="#63b8ff" d="M70.36,-443.52C74.25,-405.59 93.68,-265.78 173,-195.2 178.89,-189.96 186.08,-186.15 193.59,-183.38"/>
<polygon fill="#63b8ff" stroke="#63b8ff" points="194.68,-186.71 203.19,-180.4 192.6,-180.02 194.68,-186.71"/>
</a>
</g>
</g>
<!-- Node31 -->
<g id="Node000031" class="node">
<title>Node31</title>
<g id="a_Node000031"><a xlink:href="rtc__ds3231_8c.html#ab763e064ad555e3e2b0f21d4e78c0d76" target="_top" xlink:title=" ">
<polygon fill="white" stroke="#666666" points="282.5,-740.7 205.5,-740.7 205.5,-721.7 282.5,-721.7 282.5,-740.7"/>
<text text-anchor="middle" x="244" y="-728.7" font-family="Helvetica,sans-Serif" font-size="10.00">rtc_get_year</text>
</a>
</g>
</g>
<!-- Node1&#45;&gt;Node31 -->
<g id="edge50_Node000001_Node000031" class="edge">
<title>Node1&#45;&gt;Node31</title>
<g id="a_edge50_Node000001_Node000031"><a xlink:title=" ">
<path fill="none" stroke="#63b8ff" d="M70.28,-462.73C73.91,-500.68 92.59,-642.42 173,-713.2 179.43,-718.86 187.41,-722.79 195.66,-725.49"/>
<polygon fill="#63b8ff" stroke="#63b8ff" points="194.81,-728.89 205.38,-728.15 196.66,-722.14 194.81,-728.89"/>
</a>
</g>
</g>
<!-- Node32 -->
<g id="Node000032" class="node">
<title>Node32</title>
<g id="a_Node000032"><a xlink:href="telemetry_8c.html#a6dbf6c6cfd75451e5642ca0b64bf7f5a" target="_top" xlink:title=" ">
<polygon fill="white" stroke="#666666" points="290.5,-74.7 197.5,-74.7 197.5,-55.7 290.5,-55.7 290.5,-74.7"/>
<text text-anchor="middle" x="244" y="-62.7" font-family="Helvetica,sans-Serif" font-size="10.00">send_telemetry</text>
</a>
</g>
</g>
<!-- Node1&#45;&gt;Node32 -->
<g id="edge52_Node000001_Node000032" class="edge">
<title>Node1&#45;&gt;Node32</title>
<g id="a_edge52_Node000001_Node000032"><a xlink:title=" ">
<path fill="none" stroke="#63b8ff" d="M69.03,-443.55C67.31,-396.6 66.23,-190.08 173,-84.2 177.24,-80 182.31,-76.7 187.76,-74.12"/>
<polygon fill="#63b8ff" stroke="#63b8ff" points="189.17,-77.32 197.2,-70.41 186.61,-70.81 189.17,-77.32"/>
</a>
</g>
</g>
<!-- Node33 -->
<g id="Node000033" class="node">
<title>Node33</title>
<g id="a_Node000033"><a xlink:href="vega__ant_8c.html#a6377b53e9c676bceaa38ec9ddeb7fd28" target="_top" xlink:title=" ">
<polygon fill="white" stroke="#666666" points="292.5,-703.7 195.5,-703.7 195.5,-684.7 292.5,-684.7 292.5,-703.7"/>
<text text-anchor="middle" x="244" y="-691.7" font-family="Helvetica,sans-Serif" font-size="10.00">vega_ant_status</text>
</a>
</g>
</g>
<!-- Node1&#45;&gt;Node33 -->
<g id="edge53_Node000001_Node000033" class="edge">
<title>Node1&#45;&gt;Node33</title>
<g id="a_edge53_Node000001_Node000033"><a xlink:title=" ">
<path fill="none" stroke="#63b8ff" d="M71.02,-463.03C76.94,-497.92 101.8,-616.96 173,-676.2 176.94,-679.48 181.4,-682.17 186.12,-684.37"/>
<polygon fill="#63b8ff" stroke="#63b8ff" points="184.86,-687.64 195.44,-688.05 187.42,-681.13 184.86,-687.64"/>
</a>
</g>
</g>
<!-- Node2&#45;&gt;Node2 -->
<g id="edge2_Node000002_Node000002" class="edge">
<title>Node2&#45;&gt;Node2</title>
<g id="a_edge2_Node000002_Node000002"><a xlink:title=" ">
<path fill="none" stroke="#63b8ff" d="M392.09,-850.93C378.32,-859.82 386.12,-869.7 415.5,-869.7 436.15,-869.7 446.14,-864.81 445.47,-858.82"/>
<polygon fill="#63b8ff" stroke="#63b8ff" points="447.99,-856.39 438.91,-850.93 442.61,-860.86 447.99,-856.39"/>
</a>
</g>
</g>
<!-- Node3 -->
<g id="Node000003" class="node">
<title>Node3</title>
<g id="a_Node000003"><a xlink:href="i2c_8c.html#a73f9c3581b5d48d5db9c6c445034a970" target="_top" xlink:title=" ">
<polygon fill="white" stroke="#666666" points="635,-832.7 516,-832.7 516,-813.7 635,-813.7 635,-832.7"/>
<text text-anchor="middle" x="575.5" y="-820.7" font-family="Helvetica,sans-Serif" font-size="10.00">i2c_write_to_register</text>
</a>
</g>
</g>
<!-- Node2&#45;&gt;Node3 -->
<g id="edge3_Node000002_Node000003" class="edge">
<title>Node2&#45;&gt;Node3</title>
<g id="a_edge3_Node000002_Node000003"><a xlink:title=" ">
<path fill="none" stroke="#63b8ff" d="M438.8,-839.52C456.29,-837.42 481.62,-834.37 505.67,-831.48"/>
<polygon fill="#63b8ff" stroke="#63b8ff" points="506.36,-834.92 515.87,-830.25 505.53,-827.97 506.36,-834.92"/>
</a>
</g>
</g>
<!-- Node6 -->
<g id="Node000006" class="node">
<title>Node6</title>
<g id="a_Node000006"><a xlink:href="ina219_8c.html#a75d20b3960f7d7688d27f264f02eb98a" target="_top" xlink:title=" ">
<polygon fill="white" stroke="#666666" points="445,-814.7 386,-814.7 386,-795.7 445,-795.7 445,-814.7"/>
<text text-anchor="middle" x="415.5" y="-802.7" font-family="Helvetica,sans-Serif" font-size="10.00">calibrate</text>
</a>
</g>
</g>
<!-- Node5&#45;&gt;Node6 -->
<g id="edge6_Node000005_Node000006" class="edge">
<title>Node5&#45;&gt;Node6</title>
<g id="a_edge6_Node000005_Node000006"><a xlink:title=" ">
<path fill="none" stroke="#63b8ff" d="M288.65,-777.73C315.67,-783.63 350.04,-791.13 376.03,-796.8"/>
<polygon fill="#63b8ff" stroke="#63b8ff" points="375.39,-800.25 385.9,-798.96 376.88,-793.41 375.39,-800.25"/>
</a>
</g>
</g>
<!-- Node7 -->
<g id="Node000007" class="node">
<title>Node7</title>
<g id="a_Node000007"><a xlink:href="i2c_8c.html#afd489cf93d14a907e09132068de8e1c9" target="_top" xlink:title=" ">
<polygon fill="white" stroke="#666666" points="480,-499.7 351,-499.7 351,-480.7 480,-480.7 480,-499.7"/>
<text text-anchor="middle" x="415.5" y="-487.7" font-family="Helvetica,sans-Serif" font-size="10.00">i2c_read_from_register</text>
</a>
</g>
</g>
<!-- Node5&#45;&gt;Node7 -->
<g id="edge8_Node000005_Node000007" class="edge">
<title>Node5&#45;&gt;Node7</title>
<g id="a_edge8_Node000005_Node000007"><a xlink:title=" ">
<path fill="none" stroke="#63b8ff" d="M290.33,-763.22C299.3,-760.5 308.07,-756.38 315,-750.2 388.62,-684.52 408.1,-558.27 412.97,-509.81"/>
<polygon fill="#63b8ff" stroke="#63b8ff" points="416.46,-510 413.88,-499.72 409.49,-509.37 416.46,-510"/>
</a>
</g>
</g>
<!-- Node6&#45;&gt;Node3 -->
<g id="edge7_Node000006_Node000003" class="edge">
<title>Node6&#45;&gt;Node3</title>
<g id="a_edge7_Node000006_Node000003"><a xlink:title=" ">
<path fill="none" stroke="#63b8ff" d="M445.11,-808.46C462.16,-810.4 484.57,-812.96 505.94,-815.39"/>
<polygon fill="#63b8ff" stroke="#63b8ff" points="505.66,-818.88 515.99,-816.54 506.46,-811.93 505.66,-818.88"/>
</a>
</g>
</g>
<!-- Node8&#45;&gt;Node6 -->
<g id="edge10_Node000008_Node000006" class="edge">
<title>Node8&#45;&gt;Node6</title>
<g id="a_edge10_Node000008_Node000006"><a xlink:title=" ">
<path fill="none" stroke="#63b8ff" d="M287.33,-805.2C314.52,-805.2 349.54,-805.2 375.95,-805.2"/>
<polygon fill="#63b8ff" stroke="#63b8ff" points="375.97,-808.7 385.97,-805.2 375.97,-801.7 375.97,-808.7"/>
</a>
</g>
</g>
<!-- Node8&#45;&gt;Node7 -->
<g id="edge11_Node000008_Node000007" class="edge">
<title>Node8&#45;&gt;Node7</title>
<g id="a_edge11_Node000008_Node000007"><a xlink:title=" ">
<path fill="none" stroke="#63b8ff" d="M287.25,-801.37C297.34,-798.69 307.38,-794.3 315,-787.2 397.51,-710.4 411.64,-563.24 414.03,-510.03"/>
<polygon fill="#63b8ff" stroke="#63b8ff" points="417.53,-510.01 414.38,-499.89 410.53,-509.76 417.53,-510.01"/>
</a>
</g>
</g>
<!-- Node9&#45;&gt;Node7 -->
<g id="edge13_Node000009_Node000007" class="edge">
<title>Node9&#45;&gt;Node7</title>
<g id="a_edge13_Node000009_Node000007"><a xlink:title=" ">
<path fill="none" stroke="#63b8ff" d="M284.23,-652.37C294.91,-649.71 305.99,-645.59 315,-639.2 362.42,-605.58 393.63,-541.65 407.03,-509.57"/>
<polygon fill="#63b8ff" stroke="#63b8ff" points="410.39,-510.59 410.88,-500.01 403.9,-507.97 410.39,-510.59"/>
</a>
</g>
</g>
<!-- Node10&#45;&gt;Node7 -->
<g id="edge15_Node000010_Node000007" class="edge">
<title>Node10&#45;&gt;Node7</title>
<g id="a_edge15_Node000010_Node000007"><a xlink:title=" ">
<path fill="none" stroke="#63b8ff" d="M289.18,-613.08C298.13,-610.49 307.18,-606.98 315,-602.2 354.57,-578.05 387.27,-533.24 403.49,-508.24"/>
<polygon fill="#63b8ff" stroke="#63b8ff" points="406.49,-510.04 408.87,-499.72 400.57,-506.3 406.49,-510.04"/>
</a>
</g>
</g>
<!-- Node12 -->
<g id="Node000012" class="node">
<title>Node12</title>
<g id="a_Node000012"><a xlink:href="filesystem_8c.html#a02c1e03f51146617a18f5bcc96099220" target="_top" xlink:title=" ">
<polygon fill="white" stroke="#666666" points="449.5,-93.7 381.5,-93.7 381.5,-74.7 449.5,-74.7 449.5,-93.7"/>
<text text-anchor="middle" x="415.5" y="-81.7" font-family="Helvetica,sans-Serif" font-size="10.00">delete_file</text>
</a>
</g>
</g>
<!-- Node11&#45;&gt;Node12 -->
<g id="edge17_Node000011_Node000012" class="edge">
<title>Node11&#45;&gt;Node12</title>
<g id="a_edge17_Node000011_Node000012"><a xlink:title=" ">
<path fill="none" stroke="#63b8ff" d="M297.24,-96.65C321.03,-94.13 348.84,-91.17 371.41,-88.78"/>
<polygon fill="#63b8ff" stroke="#63b8ff" points="371.8,-92.26 381.38,-87.72 371.06,-85.3 371.8,-92.26"/>
</a>
</g>
</g>
<!-- Node13 -->
<g id="Node000013" class="node">
<title>Node13</title>
<g id="a_Node000013"><a xlink:href="filesystem_8c.html#a6c3bed1f355bd1952d7ffa87405828c6" target="_top" xlink:title=" ">
<polygon fill="white" stroke="#666666" points="447.5,-56.7 383.5,-56.7 383.5,-37.7 447.5,-37.7 447.5,-56.7"/>
<text text-anchor="middle" x="415.5" y="-44.7" font-family="Helvetica,sans-Serif" font-size="10.00">dir_exists</text>
</a>
</g>
</g>
<!-- Node11&#45;&gt;Node13 -->
<g id="edge18_Node000011_Node000013" class="edge">
<title>Node11&#45;&gt;Node13</title>
<g id="a_edge18_Node000011_Node000013"><a xlink:title=" ">
<path fill="none" stroke="#63b8ff" d="M288.02,-92.67C297.04,-90.25 306.42,-87.41 315,-84.2 331.76,-77.94 334.37,-72.79 351,-66.2 358.22,-63.34 366.04,-60.67 373.64,-58.29"/>
<polygon fill="#63b8ff" stroke="#63b8ff" points="374.89,-61.57 383.45,-55.33 372.87,-54.87 374.89,-61.57"/>
</a>
</g>
</g>
<!-- Node14 -->
<g id="Node000014" class="node">
<title>Node14</title>
<g id="a_Node000014"><a xlink:href="filesystem_8c.html#aa109ff29a72d1beadda58bb3a54185b6" target="_top" xlink:title=" ">
<polygon fill="white" stroke="#666666" points="593,-56.7 558,-56.7 558,-37.7 593,-37.7 593,-56.7"/>
<text text-anchor="middle" x="575.5" y="-44.7" font-family="Helvetica,sans-Serif" font-size="10.00">stat</text>
</a>
</g>
</g>
<!-- Node11&#45;&gt;Node14 -->
<g id="edge24_Node000011_Node000014" class="edge">
<title>Node11&#45;&gt;Node14</title>
<g id="a_edge24_Node000011_Node000014"><a xlink:title=" ">
<path fill="none" stroke="#63b8ff" d="M297.09,-111.66C303.46,-114.13 309.62,-117.26 315,-121.2 338.87,-138.69 325.03,-163.02 351,-177.2 401.32,-204.68 428.91,-203.22 480,-177.2 526.04,-153.75 554.92,-96.21 567.37,-66.17"/>
<polygon fill="#63b8ff" stroke="#63b8ff" points="570.66,-67.37 571.1,-56.79 564.15,-64.79 570.66,-67.37"/>
</a>
</g>
</g>
<!-- Node16 -->
<g id="Node000016" class="node">
<title>Node16</title>
<g id="a_Node000016"><a xlink:href="filesystem_8c.html#a20ca64a89158ccc1eb3f714b3d8725f5" target="_top" xlink:title=" ">
<polygon fill="white" stroke="#666666" points="446.5,-167.7 384.5,-167.7 384.5,-148.7 446.5,-148.7 446.5,-167.7"/>
<text text-anchor="middle" x="415.5" y="-155.7" font-family="Helvetica,sans-Serif" font-size="10.00">make_dir</text>
</a>
</g>
</g>
<!-- Node11&#45;&gt;Node16 -->
<g id="edge21_Node000011_Node000016" class="edge">
<title>Node11&#45;&gt;Node16</title>
<g id="a_edge21_Node000011_Node000016"><a xlink:title=" ">
<path fill="none" stroke="#63b8ff" d="M286.21,-111.76C295.79,-114.43 305.86,-117.6 315,-121.2 331.83,-127.83 334.21,-133.48 351,-140.2 358.48,-143.2 366.64,-145.91 374.54,-148.26"/>
<polygon fill="#63b8ff" stroke="#63b8ff" points="373.77,-151.68 384.35,-151.04 375.68,-144.94 373.77,-151.68"/>
</a>
</g>
</g>
<!-- Node17 -->
<g id="Node000017" class="node">
<title>Node17</title>
<g id="a_Node000017"><a xlink:href="filesystem_8c.html#ab92b1f0beb3be903677f3293d0430b62" target="_top" xlink:title=" ">
<polygon fill="white" stroke="#666666" points="605,-19.7 546,-19.7 546,-0.7 605,-0.7 605,-19.7"/>
<text text-anchor="middle" x="575.5" y="-7.7" font-family="Helvetica,sans-Serif" font-size="10.00">read_file</text>
</a>
</g>
</g>
<!-- Node11&#45;&gt;Node17 -->
<g id="edge22_Node000011_Node000017" class="edge">
<title>Node11&#45;&gt;Node17</title>
<g id="a_edge22_Node000011_Node000017"><a xlink:title=" ">
<path fill="none" stroke="#63b8ff" d="M297.04,-93.5C303.42,-91.11 309.59,-88.07 315,-84.2 338.75,-67.19 325.91,-44.17 351,-29.2 408.05,4.84 488.32,1.95 535.52,-3.77"/>
<polygon fill="#63b8ff" stroke="#63b8ff" points="535.27,-7.27 545.64,-5.1 536.18,-0.33 535.27,-7.27"/>
</a>
</g>
</g>
<!-- Node18 -->
<g id="Node000018" class="node">
<title>Node18</title>
<g id="a_Node000018"><a xlink:href="filesystem_8c.html#a8e5a51c709e9d6229c1974435475292a" target="_top" xlink:title=" ">
<polygon fill="white" stroke="#666666" points="446.5,-130.7 384.5,-130.7 384.5,-111.7 446.5,-111.7 446.5,-130.7"/>
<text text-anchor="middle" x="415.5" y="-118.7" font-family="Helvetica,sans-Serif" font-size="10.00">write_file</text>
</a>
</g>
</g>
<!-- Node11&#45;&gt;Node18 -->
<g id="edge25_Node000011_Node000018" class="edge">
<title>Node11&#45;&gt;Node18</title>
<g id="a_edge25_Node000011_Node000018"><a xlink:title=" ">
<path fill="none" stroke="#63b8ff" d="M297.24,-108.06C322.04,-110.84 351.22,-114.11 374.26,-116.69"/>
<polygon fill="#63b8ff" stroke="#63b8ff" points="374.05,-120.19 384.38,-117.83 374.83,-113.23 374.05,-120.19"/>
</a>
</g>
</g>
<!-- Node13&#45;&gt;Node14 -->
<g id="edge19_Node000013_Node000014" class="edge">
<title>Node13&#45;&gt;Node14</title>
<g id="a_edge19_Node000013_Node000014"><a xlink:title=" ">
<path fill="none" stroke="#63b8ff" d="M447.72,-47.2C476.93,-47.2 520.12,-47.2 547.78,-47.2"/>
<polygon fill="#63b8ff" stroke="#63b8ff" points="547.91,-50.7 557.91,-47.2 547.91,-43.7 547.91,-50.7"/>
</a>
</g>
</g>
<!-- Node15 -->
<g id="Node000015" class="node">
<title>Node15</title>
<g id="a_Node000015"><a xlink:href="utilities_2src_2log_8c.html#a4b048be24c6c7f622a6bc6c6bf8ac435" target="_top" xlink:title=" ">
<polygon fill="white" stroke="#666666" points="802,-37.7 671,-37.7 671,-18.7 802,-18.7 802,-37.7"/>
<text text-anchor="middle" x="736.5" y="-25.7" font-family="Helvetica,sans-Serif" font-size="10.00">get_current_task_name</text>
</a>
</g>
</g>
<!-- Node14&#45;&gt;Node15 -->
<g id="edge20_Node000014_Node000015" class="edge">
<title>Node14&#45;&gt;Node15</title>
<g id="a_edge20_Node000014_Node000015"><a xlink:title=" ">
<path fill="none" stroke="#63b8ff" d="M593.22,-45.2C609.55,-43.25 635.58,-40.14 660.94,-37.11"/>
<polygon fill="#63b8ff" stroke="#63b8ff" points="661.47,-40.57 670.98,-35.91 660.63,-33.62 661.47,-40.57"/>
</a>
</g>
</g>
<!-- Node17&#45;&gt;Node15 -->
<g id="edge23_Node000017_Node000015" class="edge">
<title>Node17&#45;&gt;Node15</title>
<g id="a_edge23_Node000017_Node000015"><a xlink:title=" ">
<path fill="none" stroke="#63b8ff" d="M605.29,-13.46C620.99,-15.24 641.21,-17.53 661.01,-19.77"/>
<polygon fill="#63b8ff" stroke="#63b8ff" points="660.66,-23.25 670.99,-20.9 661.44,-16.3 660.66,-23.25"/>
</a>
</g>
</g>
<!-- Node19&#45;&gt;Node7 -->
<g id="edge27_Node000019_Node000007" class="edge">
<title>Node19&#45;&gt;Node7</title>
<g id="a_edge27_Node000019_Node000007"><a xlink:title=" ">
<path fill="none" stroke="#63b8ff" d="M289.26,-574.64C298.01,-572.17 306.97,-569.07 315,-565.2 346.75,-549.91 378.38,-523.71 397.19,-506.68"/>
<polygon fill="#63b8ff" stroke="#63b8ff" points="399.68,-509.14 404.65,-499.79 394.93,-504 399.68,-509.14"/>
</a>
</g>
</g>
<!-- Node20&#45;&gt;Node7 -->
<g id="edge29_Node000020_Node000007" class="edge">
<title>Node20&#45;&gt;Node7</title>
<g id="a_edge29_Node000020_Node000007"><a xlink:title=" ">
<path fill="none" stroke="#63b8ff" d="M279.76,-538.09C291.07,-535.23 303.64,-531.82 315,-528.2 337.66,-520.99 362.66,-511.43 381.93,-503.71"/>
<polygon fill="#63b8ff" stroke="#63b8ff" points="383.49,-506.86 391.44,-499.86 380.86,-500.37 383.49,-506.86"/>
</a>
</g>
</g>
<!-- Node21&#45;&gt;Node7 -->
<g id="edge31_Node000021_Node000007" class="edge">
<title>Node21&#45;&gt;Node7</title>
<g id="a_edge31_Node000021_Node000007"><a xlink:title=" ">
<path fill="none" stroke="#63b8ff" d="M279.71,-505.31C297.35,-503.33 319.5,-500.85 340.72,-498.47"/>
<polygon fill="#63b8ff" stroke="#63b8ff" points="341.16,-501.95 350.71,-497.35 340.38,-494.99 341.16,-501.95"/>
</a>
</g>
</g>
<!-- Node22&#45;&gt;Node7 -->
<g id="edge33_Node000022_Node000007" class="edge">
<title>Node22&#45;&gt;Node7</title>
<g id="a_edge33_Node000022_Node000007"><a xlink:title=" ">
<path fill="none" stroke="#63b8ff" d="M279.3,-475.84C297,-477.73 319.33,-480.1 340.7,-482.37"/>
<polygon fill="#63b8ff" stroke="#63b8ff" points="340.45,-485.86 350.77,-483.43 341.19,-478.9 340.45,-485.86"/>
</a>
</g>
</g>
<!-- Node23&#45;&gt;Node7 -->
<g id="edge35_Node000023_Node000007" class="edge">
<title>Node23&#45;&gt;Node7</title>
<g id="a_edge35_Node000023_Node000007"><a xlink:title=" ">
<path fill="none" stroke="#63b8ff" d="M282.58,-444.79C293.12,-447.65 304.55,-450.9 315,-454.2 336.93,-461.13 361.2,-469.89 380.28,-477.04"/>
<polygon fill="#63b8ff" stroke="#63b8ff" points="379.16,-480.35 389.75,-480.61 381.63,-473.8 379.16,-480.35"/>
</a>
</g>
</g>
<!-- Node24&#45;&gt;Node7 -->
<g id="edge37_Node000024_Node000007" class="edge">
<title>Node24&#45;&gt;Node7</title>
<g id="a_edge37_Node000024_Node000007"><a xlink:title=" ">
<path fill="none" stroke="#63b8ff" d="M289.96,-407.77C298.48,-410.31 307.17,-413.43 315,-417.2 346.27,-432.27 377.82,-457.51 396.76,-474"/>
<polygon fill="#63b8ff" stroke="#63b8ff" points="394.5,-476.68 404.3,-480.69 399.14,-471.44 394.5,-476.68"/>
</a>
</g>
</g>
<!-- Node25&#45;&gt;Node7 -->
<g id="edge39_Node000025_Node000007" class="edge">
<title>Node25&#45;&gt;Node7</title>
<g id="a_edge39_Node000025_Node000007"><a xlink:title=" ">
<path fill="none" stroke="#63b8ff" d="M282.58,-367.24C293.56,-370.08 305.23,-374.21 315,-380.2 353.93,-404.08 386.67,-447.67 403.12,-472.19"/>
<polygon fill="#63b8ff" stroke="#63b8ff" points="400.2,-474.13 408.6,-480.58 406.06,-470.3 400.2,-474.13"/>
</a>
</g>
</g>
<!-- Node26&#45;&gt;Node7 -->
<g id="edge41_Node000026_Node000007" class="edge">
<title>Node26&#45;&gt;Node7</title>
<g id="a_edge41_Node000026_Node000007"><a xlink:title=" ">
<path fill="none" stroke="#63b8ff" d="M282.77,-329.31C293.88,-332.12 305.57,-336.47 315,-343.2 361.86,-376.68 393.33,-439.62 406.9,-471.16"/>
<polygon fill="#63b8ff" stroke="#63b8ff" points="403.74,-472.68 410.82,-480.57 410.21,-469.99 403.74,-472.68"/>
</a>
</g>
</g>
<!-- Node27&#45;&gt;Node7 -->
<g id="edge43_Node000027_Node000007" class="edge">
<title>Node27&#45;&gt;Node7</title>
<g id="a_edge43_Node000027_Node000007"><a xlink:title=" ">
<path fill="none" stroke="#63b8ff" d="M289.03,-293.36C298.28,-296.17 307.5,-300.26 315,-306.2 370.18,-349.93 398.85,-432.95 409.51,-470.67"/>
<polygon fill="#63b8ff" stroke="#63b8ff" points="406.16,-471.7 412.15,-480.44 412.92,-469.87 406.16,-471.7"/>
</a>
</g>
</g>
<!-- Node28&#45;&gt;Node7 -->
<g id="edge45_Node000028_Node000007" class="edge">
<title>Node28&#45;&gt;Node7</title>
<g id="a_edge45_Node000028_Node000007"><a xlink:title=" ">
<path fill="none" stroke="#63b8ff" d="M287.53,-255.42C297.38,-258.25 307.24,-262.58 315,-269.2 378.76,-323.61 403.54,-427.16 411.4,-470.43"/>
<polygon fill="#63b8ff" stroke="#63b8ff" points="407.98,-471.23 413.11,-480.5 414.88,-470.06 407.98,-471.23"/>
</a>
</g>
</g>
<!-- Node29&#45;&gt;Node7 -->
<g id="edge47_Node000029_Node000007" class="edge">
<title>Node29&#45;&gt;Node7</title>
<g id="a_edge47_Node000029_Node000007"><a xlink:title=" ">
<path fill="none" stroke="#63b8ff" d="M289.25,-218.55C298.6,-221.4 307.8,-225.71 315,-232.2 387.61,-297.69 407.66,-422.28 412.83,-470.48"/>
<polygon fill="#63b8ff" stroke="#63b8ff" points="409.35,-470.91 413.8,-480.53 416.32,-470.24 409.35,-470.91"/>
</a>
</g>
</g>
<!-- Node30&#45;&gt;Node7 -->
<g id="edge49_Node000030_Node000007" class="edge">
<title>Node30&#45;&gt;Node7</title>
<g id="a_edge49_Node000030_Node000007"><a xlink:title=" ">
<path fill="none" stroke="#63b8ff" d="M284.72,-180.01C295.65,-182.78 306.75,-187.43 315,-195.2 396.58,-272 411.28,-417.85 413.92,-470.57"/>
<polygon fill="#63b8ff" stroke="#63b8ff" points="410.43,-470.76 414.33,-480.6 417.42,-470.47 410.43,-470.76"/>
</a>
</g>
</g>
<!-- Node31&#45;&gt;Node7 -->
<g id="edge51_Node000031_Node000007" class="edge">
<title>Node31&#45;&gt;Node7</title>
<g id="a_edge51_Node000031_Node000007"><a xlink:title=" ">
<path fill="none" stroke="#63b8ff" d="M282.79,-727.84C294.16,-725.26 305.99,-720.81 315,-713.2 379.65,-658.59 403.98,-553.55 411.56,-509.94"/>
<polygon fill="#63b8ff" stroke="#63b8ff" points="415.02,-510.45 413.17,-500.02 408.11,-509.33 415.02,-510.45"/>
</a>
</g>
</g>
<!-- Node33&#45;&gt;Node7 -->
<g id="edge54_Node000033_Node000007" class="edge">
<title>Node33&#45;&gt;Node7</title>
<g id="a_edge54_Node000033_Node000007"><a xlink:title=" ">
<path fill="none" stroke="#63b8ff" d="M292.68,-687.63C300.68,-684.99 308.49,-681.32 315,-676.2 370.84,-632.36 399.17,-548.25 409.63,-510.01"/>
<polygon fill="#63b8ff" stroke="#63b8ff" points="413.07,-510.67 412.21,-500.11 406.3,-508.9 413.07,-510.67"/>
</a>
</g>
</g>
</g>
</svg>

<g id="navigator" transform="translate(0 0)" fill="#404254">
  <rect fill="#f2f5e9" fill-opacity="0.5" stroke="#606060" stroke-width=".5" x="0" y="0" width="60" height="60"/>
  <use id="zoomplus" xlink:href="#zoomPlus" x="17" y="9" onmousedown="handleZoom(evt,'in')"/>
  <use id="zoomminus" xlink:href="#zoomMin" x="42" y="9" onmousedown="handleZoom(evt,'out')"/>
  <use id="reset" xlink:href="#resetDef" x="30" y="36" onmousedown="handleReset()"/>
   <use id="arrowup" xlink:href="#arrowUp" x="0" y="0" onmousedown="handlePan(0,-1)"/>
  <use id="arrowright" xlink:href="#arrowRight" x="0" y="0" onmousedown="handlePan(1,0)"/>
  <use id="arrowdown" xlink:href="#arrowDown" x="0" y="0" onmousedown="handlePan(0,1)"/>
  <use id="arrowleft" xlink:href="#arrowLeft" x="0" y="0" onmousedown="handlePan(-1,0)"/>
</g>
<svg viewBox="0 0 15 15" width="100%" height="30px" preserveAspectRatio="xMaxYMin meet">
 <g id="arrow_out" transform="scale(0.3 0.3)">
  <a xlink:href="heartbeat__job_8c_a5a39a53ceb61fec283d89fcb0032a24b_cgraph_org.svg" target="_base">
   <rect id="button" ry="5" rx="5" y="6" x="6" height="38" width="38"
        fill="#f2f5e9" fill-opacity="0.5" stroke="#606060" stroke-width="1.0"/>
   <path id="arrow"
     d="M 11.500037,31.436501 C 11.940474,20.09759 22.043105,11.32322 32.158766,21.979434 L 37.068811,17.246167 C 37.068811,17.246167 37.088388,32 37.088388,32 L 22.160133,31.978069 C 22.160133,31.978069 26.997745,27.140456 26.997745,27.140456 C 18.528582,18.264221 13.291696,25.230495 11.500037,31.436501 z"
     style="fill:#404040;"/>
  </a>
 </g>
</svg>

<style type='text/css'>
<![CDATA[
[data-mouse-over-selected='false'] { opacity: 0.7; }
[data-mouse-over-selected='true']  { opacity: 1.0; }
]]>
</style>
<script type="application/ecmascript"><![CDATA[
document.addEventListener('DOMContentLoaded', (event) => {
  highlightEdges();
  highlightAdjacentNodes();
});
]]></script>
</svg>
