<?xml version="1.0" encoding="UTF-8" standalone="no"?>
<!DOCTYPE svg PUBLIC "-//W3C//DTD SVG 1.1//EN"
 "http://www.w3.org/Graphics/SVG/1.1/DTD/svg11.dtd">
<!-- Generated by graphviz version 2.43.0 (0)
 -->
<!-- Title: heartbeat_job.c Pages: 1 -->
<svg width="1487pt" height="357pt"
 viewBox="0.00 0.00 1486.99 357.00" xmlns="http://www.w3.org/2000/svg" xmlns:xlink="http://www.w3.org/1999/xlink">
<g id="graph0" class="graph" transform="scale(1 1) rotate(0) translate(4 353)">
<title>heartbeat_job.c</title>
<!-- Node1 -->
<g id="Node000001" class="node">
<title>Node1</title>
<g id="a_Node000001"><a xlink:title=" ">
<polygon fill="#999999" stroke="#666666" points="682.99,-349 590.99,-349 590.99,-330 682.99,-330 682.99,-349"/>
<text text-anchor="middle" x="636.99" y="-337" font-family="Helvetica,sans-Serif" font-size="10.00">heartbeat_job.c</text>
</a>
</g>
</g>
<!-- Node2 -->
<g id="Node000002" class="node">
<title>Node2</title>
<g id="a_Node000002"><a xlink:title=" ">
<polygon fill="#e0e0e0" stroke="#999999" points="920.49,-19 867.49,-19 867.49,0 920.49,0 920.49,-19"/>
<text text-anchor="middle" x="893.99" y="-7" font-family="Helvetica,sans-Serif" font-size="10.00">stdint.h</text>
</a>
</g>
</g>
<!-- Node1&#45;&gt;Node2 -->
<g id="edge1_Node000001_Node000002" class="edge">
<title>Node1&#45;&gt;Node2</title>
<g id="a_edge1_Node000001_Node000002"><a xlink:title=" ">
<path fill="none" stroke="#63b8ff" d="M683.28,-338.64C794.06,-338.31 1071.38,-333.46 1153.99,-294 1189.31,-277.13 1214.99,-269.63 1214.99,-230.5 1214.99,-230.5 1214.99,-230.5 1214.99,-118.5 1214.99,-59.08 1014.92,-26.17 930.69,-14.94"/>
<polygon fill="#63b8ff" stroke="#63b8ff" points="930.91,-11.44 920.54,-13.62 930,-18.38 930.91,-11.44"/>
</a>
</g>
</g>
<!-- Node3 -->
<g id="Node000003" class="node">
<title>Node3</title>
<g id="a_Node000003"><a xlink:href="stdio_8h.html" target="_top" xlink:title=" ">
<polygon fill="white" stroke="#666666" points="78.99,-294 28.99,-294 28.99,-275 78.99,-275 78.99,-294"/>
<text text-anchor="middle" x="53.99" y="-282" font-family="Helvetica,sans-Serif" font-size="10.00">stdio.h</text>
</a>
</g>
</g>
<!-- Node1&#45;&gt;Node3 -->
<g id="edge2_Node000001_Node000003" class="edge">
<title>Node1&#45;&gt;Node3</title>
<g id="a_edge2_Node000001_Node000003"><a xlink:title=" ">
<path fill="none" stroke="#63b8ff" d="M590.91,-336.8C496.86,-332.87 276.22,-321.34 92.99,-294 91.72,-293.81 90.43,-293.6 89.13,-293.38"/>
<polygon fill="#63b8ff" stroke="#63b8ff" points="89.56,-289.9 79.08,-291.48 88.25,-296.78 89.56,-289.9"/>
</a>
</g>
</g>
<!-- Node4 -->
<g id="Node000004" class="node">
<title>Node4</title>
<g id="a_Node000004"><a xlink:title=" ">
<polygon fill="#e0e0e0" stroke="#999999" points="253.49,-19 180.49,-19 180.49,0 253.49,0 253.49,-19"/>
<text text-anchor="middle" x="216.99" y="-7" font-family="Helvetica,sans-Serif" font-size="10.00">FreeRTOS.h</text>
</a>
</g>
</g>
<!-- Node1&#45;&gt;Node4 -->
<g id="edge3_Node000001_Node000004" class="edge">
<title>Node1&#45;&gt;Node4</title>
<g id="a_edge3_Node000001_Node000004"><a xlink:title=" ">
<path fill="none" stroke="#63b8ff" d="M590.71,-338.11C468.23,-335.83 144.99,-321.23 144.99,-230.5 144.99,-230.5 144.99,-230.5 144.99,-118.5 144.99,-80.1 176.89,-44.98 198.22,-25.78"/>
<polygon fill="#63b8ff" stroke="#63b8ff" points="200.78,-28.19 206.06,-19 196.21,-22.89 200.78,-28.19"/>
</a>
</g>
</g>
<!-- Node5 -->
<g id="Node000005" class="node">
<title>Node5</title>
<g id="a_Node000005"><a xlink:title=" ">
<polygon fill="#e0e0e0" stroke="#999999" points="96.99,-19 40.99,-19 40.99,0 96.99,0 96.99,-19"/>
<text text-anchor="middle" x="68.99" y="-7" font-family="Helvetica,sans-Serif" font-size="10.00">queue.h</text>
</a>
</g>
</g>
<!-- Node1&#45;&gt;Node5 -->
<g id="edge4_Node000001_Node000005" class="edge">
<title>Node1&#45;&gt;Node5</title>
<g id="a_edge4_Node000001_Node000005"><a xlink:title=" ">
<path fill="none" stroke="#63b8ff" d="M590.6,-338.14C454.68,-336.69 64.19,-329.45 19.99,-294 -2.98,-275.57 0.99,-259.96 0.99,-230.5 0.99,-230.5 0.99,-230.5 0.99,-118.5 0.99,-80.75 31.12,-45.41 51.26,-25.99"/>
<polygon fill="#63b8ff" stroke="#63b8ff" points="53.71,-28.5 58.67,-19.13 48.95,-23.36 53.71,-28.5"/>
</a>
</g>
</g>
<!-- Node6 -->
<g id="Node000006" class="node">
<title>Node6</title>
<g id="a_Node000006"><a xlink:title=" ">
<polygon fill="#e0e0e0" stroke="#999999" points="162.49,-19 115.49,-19 115.49,0 162.49,0 162.49,-19"/>
<text text-anchor="middle" x="138.99" y="-7" font-family="Helvetica,sans-Serif" font-size="10.00">task.h</text>
</a>
</g>
</g>
<!-- Node1&#45;&gt;Node6 -->
<g id="edge5_Node000001_Node000006" class="edge">
<title>Node1&#45;&gt;Node6</title>
<g id="a_edge5_Node000001_Node000006"><a xlink:title=" ">
<path fill="none" stroke="#63b8ff" d="M590.89,-337.8C489.11,-335.65 248.45,-327.12 174.99,-294 137.3,-277 106.99,-271.85 106.99,-230.5 106.99,-230.5 106.99,-230.5 106.99,-118.5 106.99,-85.71 120.72,-49.54 130.2,-28.49"/>
<polygon fill="#63b8ff" stroke="#63b8ff" points="133.47,-29.74 134.55,-19.2 127.13,-26.77 133.47,-29.74"/>
</a>
</g>
</g>
<!-- Node7 -->
<g id="Node000007" class="node">
<title>Node7</title>
<g id="a_Node000007"><a xlink:href="state_8h.html" target="_top" xlink:title=" ">
<polygon fill="white" stroke="#666666" points="348.99,-294 298.99,-294 298.99,-275 348.99,-275 348.99,-294"/>
<text text-anchor="middle" x="323.99" y="-282" font-family="Helvetica,sans-Serif" font-size="10.00">state.h</text>
</a>
</g>
</g>
<!-- Node1&#45;&gt;Node7 -->
<g id="edge6_Node000001_Node000007" class="edge">
<title>Node1&#45;&gt;Node7</title>
<g id="a_edge6_Node000001_Node000007"><a xlink:title=" ">
<path fill="none" stroke="#63b8ff" d="M590.81,-331.77C536.24,-323.64 442.77,-309.16 362.99,-294 361.73,-293.76 360.45,-293.51 359.15,-293.25"/>
<polygon fill="#63b8ff" stroke="#63b8ff" points="359.63,-289.78 349.13,-291.19 358.22,-296.63 359.63,-289.78"/>
</a>
</g>
</g>
<!-- Node8 -->
<g id="Node000008" class="node">
<title>Node8</title>
<g id="a_Node000008"><a xlink:href="telemetry_8h.html" target="_top" xlink:title="Functions for packaging and queuing telemetry packets for sending.">
<polygon fill="white" stroke="#666666" points="322.99,-184 250.99,-184 250.99,-165 322.99,-165 322.99,-184"/>
<text text-anchor="middle" x="286.99" y="-172" font-family="Helvetica,sans-Serif" font-size="10.00">telemetry.h</text>
</a>
</g>
</g>
<!-- Node1&#45;&gt;Node8 -->
<g id="edge7_Node000001_Node000008" class="edge">
<title>Node1&#45;&gt;Node8</title>
<g id="a_edge7_Node000001_Node000008"><a xlink:title=" ">
<path fill="none" stroke="#63b8ff" d="M590.66,-335.87C500.78,-330.29 309.83,-315.98 289.99,-294 265.26,-266.6 273.72,-219.42 280.99,-193.63"/>
<polygon fill="#63b8ff" stroke="#63b8ff" points="284.36,-194.59 283.94,-184.01 277.66,-192.54 284.36,-194.59"/>
</a>
</g>
</g>
<!-- Node10 -->
<g id="Node000010" class="node">
<title>Node10</title>
<g id="a_Node000010"><a xlink:href="filesystem_8h.html" target="_top" xlink:title="Handles file system operations and management.">
<polygon fill="white" stroke="#666666" points="491.49,-74 414.49,-74 414.49,-55 491.49,-55 491.49,-74"/>
<text text-anchor="middle" x="452.99" y="-62" font-family="Helvetica,sans-Serif" font-size="10.00">filesystem.h</text>
</a>
</g>
</g>
<!-- Node1&#45;&gt;Node10 -->
<g id="edge72_Node000001_Node000010" class="edge">
<title>Node1&#45;&gt;Node10</title>
<g id="a_edge72_Node000001_Node000010"><a xlink:title=" ">
<path fill="none" stroke="#63b8ff" d="M590.52,-332.84C533.69,-323.02 444.99,-297.05 444.99,-230.5 444.99,-230.5 444.99,-230.5 444.99,-173.5 444.99,-142.1 448.4,-105.71 450.77,-84.2"/>
<polygon fill="#63b8ff" stroke="#63b8ff" points="454.26,-84.5 451.92,-74.16 447.3,-83.7 454.26,-84.5"/>
</a>
</g>
</g>
<!-- Node16 -->
<g id="Node000016" class="node">
<title>Node16</title>
<g id="a_Node000016"><a xlink:href="ina219_8h.html" target="_top" xlink:title="INA219 Driver.">
<polygon fill="white" stroke="#666666" points="570.49,-184 511.49,-184 511.49,-165 570.49,-165 570.49,-184"/>
<text text-anchor="middle" x="540.99" y="-172" font-family="Helvetica,sans-Serif" font-size="10.00">ina219.h</text>
</a>
</g>
</g>
<!-- Node1&#45;&gt;Node16 -->
<g id="edge23_Node000001_Node000016" class="edge">
<title>Node1&#45;&gt;Node16</title>
<g id="a_edge23_Node000001_Node000016"><a xlink:title=" ">
<path fill="none" stroke="#63b8ff" d="M621.34,-329.85C608.54,-322.03 590.83,-309.4 579.99,-294 558.16,-262.95 547.94,-218.88 543.67,-194.17"/>
<polygon fill="#63b8ff" stroke="#63b8ff" points="547.08,-193.34 542.07,-184.01 540.17,-194.43 547.08,-193.34"/>
</a>
</g>
</g>
<!-- Node18 -->
<g id="Node000018" class="node">
<title>Node18</title>
<g id="a_Node000018"><a xlink:href="mag__lis3mdltr_8h.html" target="_top" xlink:title="Magnetometer Driver (LIS3MDLTR).">
<polygon fill="white" stroke="#666666" points="684.99,-294 588.99,-294 588.99,-275 684.99,-275 684.99,-294"/>
<text text-anchor="middle" x="636.99" y="-282" font-family="Helvetica,sans-Serif" font-size="10.00">mag_lis3mdltr.h</text>
</a>
</g>
</g>
<!-- Node1&#45;&gt;Node18 -->
<g id="edge28_Node000001_Node000018" class="edge">
<title>Node1&#45;&gt;Node18</title>
<g id="a_edge28_Node000001_Node000018"><a xlink:title=" ">
<path fill="none" stroke="#63b8ff" d="M636.99,-329.75C636.99,-322.8 636.99,-312.85 636.99,-304.13"/>
<polygon fill="#63b8ff" stroke="#63b8ff" points="640.49,-304.09 636.99,-294.09 633.49,-304.09 640.49,-304.09"/>
</a>
</g>
</g>
<!-- Node22 -->
<g id="Node000022" class="node">
<title>Node22</title>
<g id="a_Node000022"><a xlink:href="rtc__ds3231_8h.html" target="_top" xlink:title="DS3231 Real Time Clock Driver.">
<polygon fill="white" stroke="#666666" points="876.49,-129 797.49,-129 797.49,-110 876.49,-110 876.49,-129"/>
<text text-anchor="middle" x="836.99" y="-117" font-family="Helvetica,sans-Serif" font-size="10.00">rtc_ds3231.h</text>
</a>
</g>
</g>
<!-- Node1&#45;&gt;Node22 -->
<g id="edge40_Node000001_Node000022" class="edge">
<title>Node1&#45;&gt;Node22</title>
<g id="a_edge40_Node000001_Node000022"><a xlink:title=" ">
<path fill="none" stroke="#63b8ff" d="M655.98,-329.97C672.06,-322.14 695.13,-309.43 711.99,-294 764.87,-245.63 809.08,-171.56 827.62,-138.05"/>
<polygon fill="#63b8ff" stroke="#63b8ff" points="830.83,-139.48 832.54,-129.02 824.68,-136.13 830.83,-139.48"/>
</a>
</g>
</g>
<!-- Node23 -->
<g id="Node000023" class="node">
<title>Node23</title>
<g id="a_Node000023"><a xlink:href="timing_8h.html" target="_top" xlink:title=" ">
<polygon fill="white" stroke="#666666" points="396.49,-74 339.49,-74 339.49,-55 396.49,-55 396.49,-74"/>
<text text-anchor="middle" x="367.99" y="-62" font-family="Helvetica,sans-Serif" font-size="10.00">timing.h</text>
</a>
</g>
</g>
<!-- Node1&#45;&gt;Node23 -->
<g id="edge43_Node000001_Node000023" class="edge">
<title>Node1&#45;&gt;Node23</title>
<g id="a_edge43_Node000001_Node000023"><a xlink:title=" ">
<path fill="none" stroke="#63b8ff" d="M590.89,-338.34C551.21,-335.82 494.72,-326.19 457.99,-294 393.24,-237.25 374.64,-127.83 369.68,-84.16"/>
<polygon fill="#63b8ff" stroke="#63b8ff" points="373.15,-83.71 368.65,-74.12 366.18,-84.42 373.15,-83.71"/>
</a>
</g>
</g>
<!-- Node25 -->
<g id="Node000025" class="node">
<title>Node25</title>
<g id="a_Node000025"><a xlink:href="vega__ant_8h.html" target="_top" xlink:title="Vega Antenna Board Driver.">
<polygon fill="white" stroke="#666666" points="736.49,-184 665.49,-184 665.49,-165 736.49,-165 736.49,-184"/>
<text text-anchor="middle" x="700.99" y="-172" font-family="Helvetica,sans-Serif" font-size="10.00">vega_ant.h</text>
</a>
</g>
</g>
<!-- Node1&#45;&gt;Node25 -->
<g id="edge48_Node000001_Node000025" class="edge">
<title>Node1&#45;&gt;Node25</title>
<g id="a_edge48_Node000001_Node000025"><a xlink:title=" ">
<path fill="none" stroke="#63b8ff" d="M654.8,-329.9C668.13,-322.42 685.47,-310.23 693.99,-294 710.7,-262.18 707.9,-218.73 704.41,-194.25"/>
<polygon fill="#63b8ff" stroke="#63b8ff" points="707.83,-193.48 702.78,-184.17 700.92,-194.6 707.83,-193.48"/>
</a>
</g>
</g>
<!-- Node26 -->
<g id="Node000026" class="node">
<title>Node26</title>
<g id="a_Node000026"><a xlink:href="heartbeat__job_8h.html" target="_top" xlink:title=" ">
<polygon fill="white" stroke="#666666" points="962.49,-294 869.49,-294 869.49,-275 962.49,-275 962.49,-294"/>
<text text-anchor="middle" x="915.99" y="-282" font-family="Helvetica,sans-Serif" font-size="10.00">heartbeat_job.h</text>
</a>
</g>
</g>
<!-- Node1&#45;&gt;Node26 -->
<g id="edge54_Node000001_Node000026" class="edge">
<title>Node1&#45;&gt;Node26</title>
<g id="a_edge54_Node000001_Node000026"><a xlink:title=" ">
<path fill="none" stroke="#63b8ff" d="M681.82,-329.98C730.49,-320.74 808.26,-305.97 860.69,-296.01"/>
<polygon fill="#63b8ff" stroke="#63b8ff" points="861.65,-299.39 870.82,-294.08 860.34,-292.51 861.65,-299.39"/>
</a>
</g>
</g>
<!-- Node27 -->
<g id="Node000027" class="node">
<title>Node27</title>
<g id="a_Node000027"><a xlink:title=" ">
<polygon fill="#e0e0e0" stroke="#999999" points="1030.99,-294 980.99,-294 980.99,-275 1030.99,-275 1030.99,-294"/>
<text text-anchor="middle" x="1005.99" y="-282" font-family="Helvetica,sans-Serif" font-size="10.00">radio.h</text>
</a>
</g>
</g>
<!-- Node1&#45;&gt;Node27 -->
<g id="edge55_Node000001_Node000027" class="edge">
<title>Node1&#45;&gt;Node27</title>
<g id="a_edge55_Node000001_Node000027"><a xlink:title=" ">
<path fill="none" stroke="#63b8ff" d="M683.16,-333.91C747.84,-327.13 868.94,-313.14 970.99,-294 971.09,-293.98 971.19,-293.96 971.29,-293.94"/>
<polygon fill="#63b8ff" stroke="#63b8ff" points="971.76,-297.42 980.83,-291.95 970.32,-290.57 971.76,-297.42"/>
</a>
</g>
</g>
<!-- Node28 -->
<g id="Node000028" class="node">
<title>Node28</title>
<g id="a_Node000028"><a xlink:title=" ">
<polygon fill="#e0e0e0" stroke="#999999" points="1126.49,-294 1049.49,-294 1049.49,-275 1126.49,-275 1126.49,-294"/>
<text text-anchor="middle" x="1087.99" y="-282" font-family="Helvetica,sans-Serif" font-size="10.00">max17048.h</text>
</a>
</g>
</g>
<!-- Node1&#45;&gt;Node28 -->
<g id="edge56_Node000001_Node000028" class="edge">
<title>Node1&#45;&gt;Node28</title>
<g id="a_edge56_Node000001_Node000028"><a xlink:title=" ">
<path fill="none" stroke="#63b8ff" d="M683.05,-334.4C756.21,-327.67 903.67,-313.24 1039.11,-294.03"/>
<polygon fill="#63b8ff" stroke="#63b8ff" points="1039.85,-297.46 1049.26,-292.58 1038.86,-290.53 1039.85,-297.46"/>
</a>
</g>
</g>
<!-- Node29 -->
<g id="Node000029" class="node">
<title>Node29</title>
<g id="a_Node000029"><a xlink:href="hb__tlm__log_8h.html" target="_top" xlink:title=" ">
<polygon fill="white" stroke="#666666" points="992.99,-239 912.99,-239 912.99,-220 992.99,-220 992.99,-239"/>
<text text-anchor="middle" x="952.99" y="-227" font-family="Helvetica,sans-Serif" font-size="10.00">hb_tlm_log.h</text>
</a>
</g>
</g>
<!-- Node1&#45;&gt;Node29 -->
<g id="edge57_Node000001_Node000029" class="edge">
<title>Node1&#45;&gt;Node29</title>
<g id="a_edge57_Node000001_Node000029"><a xlink:title=" ">
<path fill="none" stroke="#63b8ff" d="M681.71,-329.97C718.57,-322.35 771.92,-309.92 816.99,-294 827.96,-290.13 889.78,-260.77 926.19,-243.36"/>
<polygon fill="#63b8ff" stroke="#63b8ff" points="927.78,-246.48 935.29,-239 924.76,-240.16 927.78,-246.48"/>
</a>
</g>
</g>
<!-- Node30 -->
<g id="Node000030" class="node">
<title>Node30</title>
<g id="a_Node000030"><a xlink:href="command_8h.html" target="_top" xlink:title="Handles decoding and triggering responses to received commands.">
<polygon fill="white" stroke="#666666" points="1136.99,-184 1062.99,-184 1062.99,-165 1136.99,-165 1136.99,-184"/>
<text text-anchor="middle" x="1099.99" y="-172" font-family="Helvetica,sans-Serif" font-size="10.00">command.h</text>
</a>
</g>
</g>
<!-- Node1&#45;&gt;Node30 -->
<g id="edge71_Node000001_Node000030" class="edge">
<title>Node1&#45;&gt;Node30</title>
<g id="a_edge71_Node000001_Node000030"><a xlink:title=" ">
<path fill="none" stroke="#63b8ff" d="M683.11,-337.85C800.74,-335.7 1104.82,-326.99 1134.99,-294 1161.3,-265.24 1132.64,-217.61 1113.78,-192.39"/>
<polygon fill="#63b8ff" stroke="#63b8ff" points="1116.3,-189.93 1107.4,-184.18 1110.78,-194.23 1116.3,-189.93"/>
</a>
</g>
</g>
<!-- Node33 -->
<g id="Node000033" class="node">
<title>Node33</title>
<g id="a_Node000033"><a xlink:href="ds18b20_8h.html" target="_top" xlink:title="Driver for PIO Onewire DS18B20 Temperature Sensors.">
<polygon fill="white" stroke="#666666" points="1338.49,-294 1271.49,-294 1271.49,-275 1338.49,-275 1338.49,-294"/>
<text text-anchor="middle" x="1304.99" y="-282" font-family="Helvetica,sans-Serif" font-size="10.00">ds18b20.h</text>
</a>
</g>
</g>
<!-- Node1&#45;&gt;Node33 -->
<g id="edge67_Node000001_Node000033" class="edge">
<title>Node1&#45;&gt;Node33</title>
<g id="a_edge67_Node000001_Node000033"><a xlink:title=" ">
<path fill="none" stroke="#63b8ff" d="M683.1,-335.61C782.79,-329.23 1025.81,-312.99 1228.99,-294 1239.4,-293.03 1250.6,-291.85 1261.12,-290.68"/>
<polygon fill="#63b8ff" stroke="#63b8ff" points="1261.81,-294.13 1271.35,-289.53 1261.02,-287.17 1261.81,-294.13"/>
</a>
</g>
</g>
<!-- Node8&#45;&gt;Node4 -->
<g id="edge8_Node000008_Node000004" class="edge">
<title>Node8&#45;&gt;Node4</title>
<g id="a_edge8_Node000008_Node000004"><a xlink:title=" ">
<path fill="none" stroke="#63b8ff" d="M274.1,-164.85C263.24,-156.85 248.22,-143.97 239.99,-129 222.4,-96.97 218.11,-53.59 217.15,-29.19"/>
<polygon fill="#63b8ff" stroke="#63b8ff" points="220.65,-29.05 216.91,-19.14 213.65,-29.22 220.65,-29.05"/>
</a>
</g>
</g>
<!-- Node8&#45;&gt;Node5 -->
<g id="edge9_Node000008_Node000005" class="edge">
<title>Node8&#45;&gt;Node5</title>
<g id="a_edge9_Node000008_Node000005"><a xlink:title=" ">
<path fill="none" stroke="#63b8ff" d="M275.58,-164.97C240.42,-138.68 133.44,-58.69 88.84,-25.34"/>
<polygon fill="#63b8ff" stroke="#63b8ff" points="90.66,-22.33 80.56,-19.15 86.47,-27.94 90.66,-22.33"/>
</a>
</g>
</g>
<!-- Node9 -->
<g id="Node000009" class="node">
<title>Node9</title>
<g id="a_Node000009"><a xlink:href="file__downlink_8h.html" target="_top" xlink:title=" ">
<polygon fill="white" stroke="#666666" points="340.49,-129 249.49,-129 249.49,-110 340.49,-110 340.49,-129"/>
<text text-anchor="middle" x="294.99" y="-117" font-family="Helvetica,sans-Serif" font-size="10.00">file_downlink.h</text>
</a>
</g>
</g>
<!-- Node8&#45;&gt;Node9 -->
<g id="edge10_Node000008_Node000009" class="edge">
<title>Node8&#45;&gt;Node9</title>
<g id="a_edge10_Node000008_Node000009"><a xlink:title=" ">
<path fill="none" stroke="#63b8ff" d="M288.32,-164.75C289.36,-157.8 290.87,-147.85 292.18,-139.13"/>
<polygon fill="#63b8ff" stroke="#63b8ff" points="295.67,-139.5 293.7,-129.09 288.75,-138.45 295.67,-139.5"/>
</a>
</g>
</g>
<!-- Node9&#45;&gt;Node4 -->
<g id="edge11_Node000009_Node000004" class="edge">
<title>Node9&#45;&gt;Node4</title>
<g id="a_edge11_Node000009_Node000004"><a xlink:title=" ">
<path fill="none" stroke="#63b8ff" d="M288.61,-109.66C275.64,-91.69 245.99,-50.64 229.19,-27.38"/>
<polygon fill="#63b8ff" stroke="#63b8ff" points="231.94,-25.22 223.25,-19.16 226.27,-29.31 231.94,-25.22"/>
</a>
</g>
</g>
<!-- Node9&#45;&gt;Node5 -->
<g id="edge12_Node000009_Node000005" class="edge">
<title>Node9&#45;&gt;Node5</title>
<g id="a_edge12_Node000009_Node000005"><a xlink:title=" ">
<path fill="none" stroke="#63b8ff" d="M276.88,-109.84C237.28,-90.92 142.79,-45.77 96.09,-23.45"/>
<polygon fill="#63b8ff" stroke="#63b8ff" points="97.41,-20.2 86.88,-19.05 94.39,-26.52 97.41,-20.2"/>
</a>
</g>
</g>
<!-- Node9&#45;&gt;Node10 -->
<g id="edge13_Node000009_Node000010" class="edge">
<title>Node9&#45;&gt;Node10</title>
<g id="a_edge13_Node000009_Node000010"><a xlink:title=" ">
<path fill="none" stroke="#63b8ff" d="M320.38,-109.98C346.79,-101.13 388.34,-87.19 417.89,-77.28"/>
<polygon fill="#63b8ff" stroke="#63b8ff" points="419.04,-80.58 427.41,-74.08 416.82,-73.94 419.04,-80.58"/>
</a>
</g>
</g>
<!-- Node10&#45;&gt;Node2 -->
<g id="edge21_Node000010_Node000002" class="edge">
<title>Node10&#45;&gt;Node2</title>
<g id="a_edge21_Node000010_Node000002"><a xlink:title=" ">
<path fill="none" stroke="#63b8ff" d="M491.74,-58.84C576.01,-48.72 774.96,-24.81 857.31,-14.91"/>
<polygon fill="#63b8ff" stroke="#63b8ff" points="857.94,-18.36 867.45,-13.69 857.1,-11.41 857.94,-18.36"/>
</a>
</g>
</g>
<!-- Node10&#45;&gt;Node4 -->
<g id="edge14_Node000010_Node000004" class="edge">
<title>Node10&#45;&gt;Node4</title>
<g id="a_edge14_Node000010_Node000004"><a xlink:title=" ">
<path fill="none" stroke="#63b8ff" d="M415.08,-54.98C373.86,-45.73 307.95,-30.93 263.6,-20.97"/>
<polygon fill="#63b8ff" stroke="#63b8ff" points="264.18,-17.51 253.65,-18.73 262.64,-24.34 264.18,-17.51"/>
</a>
</g>
</g>
<!-- Node10&#45;&gt;Node5 -->
<g id="edge15_Node000010_Node000005" class="edge">
<title>Node10&#45;&gt;Node5</title>
<g id="a_edge15_Node000010_Node000005"><a xlink:title=" ">
<path fill="none" stroke="#63b8ff" d="M414.25,-56.45C411.12,-55.94 408.01,-55.45 404.99,-55 275.83,-35.8 239.6,-41.71 107.33,-19.06"/>
<polygon fill="#63b8ff" stroke="#63b8ff" points="107.67,-15.57 97.21,-17.31 106.47,-22.46 107.67,-15.57"/>
</a>
</g>
</g>
<!-- Node10&#45;&gt;Node6 -->
<g id="edge16_Node000010_Node000006" class="edge">
<title>Node10&#45;&gt;Node6</title>
<g id="a_edge16_Node000010_Node000006"><a xlink:title=" ">
<path fill="none" stroke="#63b8ff" d="M414.24,-56.56C411.11,-56.02 408,-55.5 404.99,-55 304.33,-38.34 275.71,-40.39 172.57,-19.16"/>
<polygon fill="#63b8ff" stroke="#63b8ff" points="173.2,-15.71 162.69,-17.1 171.77,-22.56 173.2,-15.71"/>
</a>
</g>
</g>
<!-- Node11 -->
<g id="Node000011" class="node">
<title>Node11</title>
<g id="a_Node000011"><a xlink:title=" ">
<polygon fill="#e0e0e0" stroke="#999999" points="602.99,-19 570.99,-19 570.99,0 602.99,0 602.99,-19"/>
<text text-anchor="middle" x="586.99" y="-7" font-family="Helvetica,sans-Serif" font-size="10.00">ff.h</text>
</a>
</g>
</g>
<!-- Node10&#45;&gt;Node11 -->
<g id="edge17_Node000010_Node000011" class="edge">
<title>Node10&#45;&gt;Node11</title>
<g id="a_edge17_Node000010_Node000011"><a xlink:title=" ">
<path fill="none" stroke="#63b8ff" d="M474.52,-54.98C498.19,-45.62 536.2,-30.59 561.38,-20.63"/>
<polygon fill="#63b8ff" stroke="#63b8ff" points="562.97,-23.76 570.99,-16.83 560.4,-17.26 562.97,-23.76"/>
</a>
</g>
</g>
<!-- Node12 -->
<g id="Node000012" class="node">
<title>Node12</title>
<g id="a_Node000012"><a xlink:href="filesystem__errors_8h.html" target="_top" xlink:title=" ">
<polygon fill="white" stroke="#666666" points="552.49,-19 441.49,-19 441.49,0 552.49,0 552.49,-19"/>
<text text-anchor="middle" x="496.99" y="-7" font-family="Helvetica,sans-Serif" font-size="10.00">filesystem_errors.h</text>
</a>
</g>
</g>
<!-- Node10&#45;&gt;Node12 -->
<g id="edge18_Node000010_Node000012" class="edge">
<title>Node10&#45;&gt;Node12</title>
<g id="a_edge18_Node000010_Node000012"><a xlink:title=" ">
<path fill="none" stroke="#63b8ff" d="M460.26,-54.75C466.54,-47.18 475.78,-36.05 483.43,-26.84"/>
<polygon fill="#63b8ff" stroke="#63b8ff" points="486.17,-29.02 489.86,-19.09 480.78,-24.55 486.17,-29.02"/>
</a>
</g>
</g>
<!-- Node13 -->
<g id="Node000013" class="node">
<title>Node13</title>
<g id="a_Node000013"><a xlink:title=" ">
<polygon fill="#e0e0e0" stroke="#999999" points="422.99,-19 360.99,-19 360.99,0 422.99,0 422.99,-19"/>
<text text-anchor="middle" x="391.99" y="-7" font-family="Helvetica,sans-Serif" font-size="10.00">semphr.h</text>
</a>
</g>
</g>
<!-- Node10&#45;&gt;Node13 -->
<g id="edge19_Node000010_Node000013" class="edge">
<title>Node10&#45;&gt;Node13</title>
<g id="a_edge19_Node000010_Node000013"><a xlink:title=" ">
<path fill="none" stroke="#63b8ff" d="M443.19,-54.98C434.18,-47.15 420.59,-35.34 409.68,-25.86"/>
<polygon fill="#63b8ff" stroke="#63b8ff" points="411.82,-23.09 401.97,-19.17 407.23,-28.37 411.82,-23.09"/>
</a>
</g>
</g>
<!-- Node14 -->
<g id="Node000014" class="node">
<title>Node14</title>
<g id="a_Node000014"><a xlink:title=" ">
<polygon fill="#e0e0e0" stroke="#999999" points="676.99,-19 620.99,-19 620.99,0 676.99,0 676.99,-19"/>
<text text-anchor="middle" x="648.99" y="-7" font-family="Helvetica,sans-Serif" font-size="10.00">stddef.h</text>
</a>
</g>
</g>
<!-- Node10&#45;&gt;Node14 -->
<g id="edge20_Node000010_Node000014" class="edge">
<title>Node10&#45;&gt;Node14</title>
<g id="a_edge20_Node000010_Node000014"><a xlink:title=" ">
<path fill="none" stroke="#63b8ff" d="M484.49,-54.98C518.91,-45.68 574.06,-30.76 610.89,-20.8"/>
<polygon fill="#63b8ff" stroke="#63b8ff" points="612.02,-24.12 620.76,-18.13 610.2,-17.37 612.02,-24.12"/>
</a>
</g>
</g>
<!-- Node15 -->
<g id="Node000015" class="node">
<title>Node15</title>
<g id="a_Node000015"><a xlink:title=" ">
<polygon fill="#e0e0e0" stroke="#999999" points="756.99,-19 694.99,-19 694.99,0 756.99,0 756.99,-19"/>
<text text-anchor="middle" x="725.99" y="-7" font-family="Helvetica,sans-Serif" font-size="10.00">stdbool.h</text>
</a>
</g>
</g>
<!-- Node10&#45;&gt;Node15 -->
<g id="edge22_Node000010_Node000015" class="edge">
<title>Node10&#45;&gt;Node15</title>
<g id="a_edge22_Node000010_Node000015"><a xlink:title=" ">
<path fill="none" stroke="#63b8ff" d="M491.8,-56.34C536.09,-48.12 610.98,-34.04 684.65,-19.24"/>
<polygon fill="#63b8ff" stroke="#63b8ff" points="685.45,-22.65 694.56,-17.24 684.07,-15.79 685.45,-22.65"/>
</a>
</g>
</g>
<!-- Node17 -->
<g id="Node000017" class="node">
<title>Node17</title>
<g id="a_Node000017"><a xlink:href="simulator_2pico-sdk_2hardware_2i2c_8h.html" target="_top" xlink:title=" ">
<polygon fill="white" stroke="#666666" points="637.49,-74 548.49,-74 548.49,-55 637.49,-55 637.49,-74"/>
<text text-anchor="middle" x="592.99" y="-62" font-family="Helvetica,sans-Serif" font-size="10.00">hardware/i2c.h</text>
</a>
</g>
</g>
<!-- Node16&#45;&gt;Node17 -->
<g id="edge24_Node000016_Node000017" class="edge">
<title>Node16&#45;&gt;Node17</title>
<g id="a_edge24_Node000016_Node000017"><a xlink:title=" ">
<path fill="none" stroke="#63b8ff" d="M539.59,-164.78C537.96,-152.06 536.47,-127.96 544.99,-110 550.65,-98.09 561.03,-87.83 570.7,-80.18"/>
<polygon fill="#63b8ff" stroke="#63b8ff" points="572.91,-82.9 578.88,-74.15 568.76,-77.27 572.91,-82.9"/>
</a>
</g>
</g>
<!-- Node17&#45;&gt;Node2 -->
<g id="edge25_Node000017_Node000002" class="edge">
<title>Node17&#45;&gt;Node2</title>
<g id="a_edge25_Node000017_Node000002"><a xlink:title=" ">
<path fill="none" stroke="#63b8ff" d="M637.73,-55.62C697.43,-45.11 802.01,-26.7 857.31,-16.96"/>
<polygon fill="#63b8ff" stroke="#63b8ff" points="858.12,-20.37 867.36,-15.19 856.91,-13.48 858.12,-20.37"/>
</a>
</g>
</g>
<!-- Node17&#45;&gt;Node14 -->
<g id="edge26_Node000017_Node000014" class="edge">
<title>Node17&#45;&gt;Node14</title>
<g id="a_edge26_Node000017_Node000014"><a xlink:title=" ">
<path fill="none" stroke="#63b8ff" d="M601.99,-54.98C610.19,-47.23 622.5,-35.58 632.47,-26.14"/>
<polygon fill="#63b8ff" stroke="#63b8ff" points="634.98,-28.59 639.83,-19.17 630.16,-23.5 634.98,-28.59"/>
</a>
</g>
</g>
<!-- Node17&#45;&gt;Node15 -->
<g id="edge27_Node000017_Node000015" class="edge">
<title>Node17&#45;&gt;Node15</title>
<g id="a_edge27_Node000017_Node000015"><a xlink:title=" ">
<path fill="none" stroke="#63b8ff" d="M614.36,-54.98C636.14,-46.3 670.16,-32.75 694.92,-22.88"/>
<polygon fill="#63b8ff" stroke="#63b8ff" points="696.24,-26.12 704.24,-19.17 693.65,-19.62 696.24,-26.12"/>
</a>
</g>
</g>
<!-- Node18&#45;&gt;Node2 -->
<g id="edge32_Node000018_Node000002" class="edge">
<title>Node18&#45;&gt;Node2</title>
<g id="a_edge32_Node000018_Node000002"><a xlink:title=" ">
<path fill="none" stroke="#63b8ff" d="M685.16,-277.9C762.56,-266.03 912.57,-230.46 977.99,-129 1002.85,-90.45 949.98,-46.86 917.28,-24.85"/>
<polygon fill="#63b8ff" stroke="#63b8ff" points="918.97,-21.77 908.68,-19.24 915.14,-27.63 918.97,-21.77"/>
</a>
</g>
</g>
<!-- Node18&#45;&gt;Node17 -->
<g id="edge29_Node000018_Node000017" class="edge">
<title>Node18&#45;&gt;Node17</title>
<g id="a_edge29_Node000018_Node000017"><a xlink:title=" ">
<path fill="none" stroke="#63b8ff" d="M634.65,-274.85C628.38,-251.5 611.04,-185.12 600.99,-129 598.33,-114.09 596.23,-97.06 594.86,-84.39"/>
<polygon fill="#63b8ff" stroke="#63b8ff" points="598.31,-83.76 593.8,-74.17 591.35,-84.48 598.31,-83.76"/>
</a>
</g>
</g>
<!-- Node19 -->
<g id="Node000019" class="node">
<title>Node19</title>
<g id="a_Node000019"><a xlink:href="gpio_8h.html" target="_top" xlink:title=" ">
<polygon fill="white" stroke="#666666" points="789.49,-74 694.49,-74 694.49,-55 789.49,-55 789.49,-74"/>
<text text-anchor="middle" x="741.99" y="-62" font-family="Helvetica,sans-Serif" font-size="10.00">hardware/gpio.h</text>
</a>
</g>
</g>
<!-- Node18&#45;&gt;Node19 -->
<g id="edge30_Node000018_Node000019" class="edge">
<title>Node18&#45;&gt;Node19</title>
<g id="a_edge30_Node000018_Node000019"><a xlink:title=" ">
<path fill="none" stroke="#63b8ff" d="M647.14,-274.97C673,-253.13 739.72,-196.02 744.99,-184 759.4,-151.13 752.79,-108.06 747.11,-83.93"/>
<polygon fill="#63b8ff" stroke="#63b8ff" points="750.44,-82.83 744.57,-74.01 743.66,-84.57 750.44,-82.83"/>
</a>
</g>
</g>
<!-- Node20 -->
<g id="Node000020" class="node">
<title>Node20</title>
<g id="a_Node000020"><a xlink:href="log_8h.html" target="_top" xlink:title=" ">
<polygon fill="white" stroke="#666666" points="514.49,-239 473.49,-239 473.49,-220 514.49,-220 514.49,-239"/>
<text text-anchor="middle" x="493.99" y="-227" font-family="Helvetica,sans-Serif" font-size="10.00">log.h</text>
</a>
</g>
</g>
<!-- Node18&#45;&gt;Node20 -->
<g id="edge33_Node000018_Node000020" class="edge">
<title>Node18&#45;&gt;Node20</title>
<g id="a_edge33_Node000018_Node000020"><a xlink:title=" ">
<path fill="none" stroke="#63b8ff" d="M614.02,-274.98C589.66,-265.96 551.06,-251.65 524.24,-241.71"/>
<polygon fill="#63b8ff" stroke="#63b8ff" points="525.19,-238.33 514.59,-238.13 522.75,-244.89 525.19,-238.33"/>
</a>
</g>
</g>
<!-- Node21 -->
<g id="Node000021" class="node">
<title>Node21</title>
<g id="a_Node000021"><a xlink:href="drivers_2include_2i2c_8h.html" target="_top" xlink:title="Drivers for i2c peripheral devices.">
<polygon fill="white" stroke="#666666" points="664.99,-129 624.99,-129 624.99,-110 664.99,-110 664.99,-129"/>
<text text-anchor="middle" x="644.99" y="-117" font-family="Helvetica,sans-Serif" font-size="10.00">i2c.h</text>
</a>
</g>
</g>
<!-- Node18&#45;&gt;Node21 -->
<g id="edge36_Node000018_Node000021" class="edge">
<title>Node18&#45;&gt;Node21</title>
<g id="a_edge36_Node000018_Node000021"><a xlink:title=" ">
<path fill="none" stroke="#63b8ff" d="M637.42,-274.74C638.67,-249.31 642.32,-175.08 644.05,-139.69"/>
<polygon fill="#63b8ff" stroke="#63b8ff" points="647.57,-139.47 644.56,-129.31 640.58,-139.12 647.57,-139.47"/>
</a>
</g>
</g>
<!-- Node19&#45;&gt;Node2 -->
<g id="edge31_Node000019_Node000002" class="edge">
<title>Node19&#45;&gt;Node2</title>
<g id="a_edge31_Node000019_Node000002"><a xlink:title=" ">
<path fill="none" stroke="#63b8ff" d="M766.42,-54.98C791.71,-46.16 831.45,-32.31 859.85,-22.41"/>
<polygon fill="#63b8ff" stroke="#63b8ff" points="861.09,-25.68 869.38,-19.08 858.79,-19.07 861.09,-25.68"/>
</a>
</g>
</g>
<!-- Node20&#45;&gt;Node8 -->
<g id="edge34_Node000020_Node000008" class="edge">
<title>Node20&#45;&gt;Node8</title>
<g id="a_edge34_Node000020_Node000008"><a xlink:title=" ">
<path fill="none" stroke="#63b8ff" d="M473.39,-223.22C440.18,-214.72 374.13,-197.81 330.24,-186.57"/>
<polygon fill="#63b8ff" stroke="#63b8ff" points="330.97,-183.15 320.42,-184.06 329.24,-189.93 330.97,-183.15"/>
</a>
</g>
</g>
<!-- Node20&#45;&gt;Node15 -->
<g id="edge35_Node000020_Node000015" class="edge">
<title>Node20&#45;&gt;Node15</title>
<g id="a_edge35_Node000020_Node000015"><a xlink:title=" ">
<path fill="none" stroke="#63b8ff" d="M493.26,-219.65C491.41,-190.97 489.82,-99.9 538.99,-55 541.73,-52.5 630.63,-32.06 684.85,-19.77"/>
<polygon fill="#63b8ff" stroke="#63b8ff" points="685.89,-23.12 694.87,-17.5 684.35,-16.3 685.89,-23.12"/>
</a>
</g>
</g>
<!-- Node21&#45;&gt;Node2 -->
<g id="edge39_Node000021_Node000002" class="edge">
<title>Node21&#45;&gt;Node2</title>
<g id="a_edge39_Node000021_Node000002"><a xlink:title=" ">
<path fill="none" stroke="#63b8ff" d="M647.87,-109.96C653.01,-96.11 665.12,-68.87 684.99,-55 736.96,-18.74 812.62,-11.06 857.23,-9.96"/>
<polygon fill="#63b8ff" stroke="#63b8ff" points="857.38,-13.46 867.33,-9.81 857.28,-6.46 857.38,-13.46"/>
</a>
</g>
</g>
<!-- Node21&#45;&gt;Node17 -->
<g id="edge37_Node000021_Node000017" class="edge">
<title>Node21&#45;&gt;Node17</title>
<g id="a_edge37_Node000021_Node000017"><a xlink:title=" ">
<path fill="none" stroke="#63b8ff" d="M636.41,-109.75C628.84,-102.03 617.62,-90.6 608.48,-81.28"/>
<polygon fill="#63b8ff" stroke="#63b8ff" points="610.92,-78.78 601.42,-74.09 605.93,-83.68 610.92,-78.78"/>
</a>
</g>
</g>
<!-- Node21&#45;&gt;Node19 -->
<g id="edge38_Node000021_Node000019" class="edge">
<title>Node21&#45;&gt;Node19</title>
<g id="a_edge38_Node000021_Node000019"><a xlink:title=" ">
<path fill="none" stroke="#63b8ff" d="M660.58,-109.98C675.76,-101.69 699.09,-88.94 716.89,-79.22"/>
<polygon fill="#63b8ff" stroke="#63b8ff" points="719.03,-82.04 726.13,-74.17 715.67,-75.89 719.03,-82.04"/>
</a>
</g>
</g>
<!-- Node22&#45;&gt;Node2 -->
<g id="edge42_Node000022_Node000002" class="edge">
<title>Node22&#45;&gt;Node2</title>
<g id="a_edge42_Node000022_Node000002"><a xlink:title=" ">
<path fill="none" stroke="#63b8ff" d="M844.6,-109.79C851.85,-101.16 862.71,-87.34 869.99,-74 877.94,-59.45 884.4,-41.73 888.6,-28.7"/>
<polygon fill="#63b8ff" stroke="#63b8ff" points="891.98,-29.63 891.59,-19.04 885.29,-27.56 891.98,-29.63"/>
</a>
</g>
</g>
<!-- Node22&#45;&gt;Node17 -->
<g id="edge41_Node000022_Node000017" class="edge">
<title>Node22&#45;&gt;Node17</title>
<g id="a_edge41_Node000022_Node000017"><a xlink:title=" ">
<path fill="none" stroke="#63b8ff" d="M797.79,-109.98C755.59,-100.82 688.35,-86.21 642.52,-76.26"/>
<polygon fill="#63b8ff" stroke="#63b8ff" points="643.02,-72.78 632.5,-74.08 641.53,-79.63 643.02,-72.78"/>
</a>
</g>
</g>
<!-- Node23&#45;&gt;Node2 -->
<g id="edge45_Node000023_Node000002" class="edge">
<title>Node23&#45;&gt;Node2</title>
<g id="a_edge45_Node000023_Node000002"><a xlink:title=" ">
<path fill="none" stroke="#63b8ff" d="M396.6,-56.53C399.43,-55.96 402.26,-55.44 404.99,-55 492.31,-41.06 759.2,-20.49 857.31,-13.19"/>
<polygon fill="#63b8ff" stroke="#63b8ff" points="857.63,-16.68 867.35,-12.45 857.12,-9.7 857.63,-16.68"/>
</a>
</g>
</g>
<!-- Node23&#45;&gt;Node4 -->
<g id="edge44_Node000023_Node000004" class="edge">
<title>Node23&#45;&gt;Node4</title>
<g id="a_edge44_Node000023_Node000004"><a xlink:title=" ">
<path fill="none" stroke="#63b8ff" d="M343.73,-54.98C318.68,-46.19 279.36,-32.39 251.17,-22.49"/>
<polygon fill="#63b8ff" stroke="#63b8ff" points="252.29,-19.18 241.7,-19.17 249.97,-25.78 252.29,-19.18"/>
</a>
</g>
</g>
<!-- Node23&#45;&gt;Node13 -->
<g id="edge46_Node000023_Node000013" class="edge">
<title>Node23&#45;&gt;Node13</title>
<g id="a_edge46_Node000023_Node000013"><a xlink:title=" ">
<path fill="none" stroke="#63b8ff" d="M371.96,-54.75C375.21,-47.57 379.91,-37.18 383.95,-28.27"/>
<polygon fill="#63b8ff" stroke="#63b8ff" points="387.17,-29.64 388.11,-19.09 380.79,-26.75 387.17,-29.64"/>
</a>
</g>
</g>
<!-- Node24 -->
<g id="Node000024" class="node">
<title>Node24</title>
<g id="a_Node000024"><a xlink:title=" ">
<polygon fill="#e0e0e0" stroke="#999999" points="342.49,-19 271.49,-19 271.49,0 342.49,0 342.49,-19"/>
<text text-anchor="middle" x="306.99" y="-7" font-family="Helvetica,sans-Serif" font-size="10.00">pico/time.h</text>
</a>
</g>
</g>
<!-- Node23&#45;&gt;Node24 -->
<g id="edge47_Node000023_Node000024" class="edge">
<title>Node23&#45;&gt;Node24</title>
<g id="a_edge47_Node000023_Node000024"><a xlink:title=" ">
<path fill="none" stroke="#63b8ff" d="M358.19,-54.98C349.18,-47.15 335.59,-35.34 324.68,-25.86"/>
<polygon fill="#63b8ff" stroke="#63b8ff" points="326.82,-23.09 316.97,-19.17 322.23,-28.37 326.82,-23.09"/>
</a>
</g>
</g>
<!-- Node25&#45;&gt;Node2 -->
<g id="edge51_Node000025_Node000002" class="edge">
<title>Node25&#45;&gt;Node2</title>
<g id="a_edge51_Node000025_Node000002"><a xlink:title=" ">
<path fill="none" stroke="#63b8ff" d="M711.1,-164.97C742.03,-138.85 835.71,-59.72 875.65,-26"/>
<polygon fill="#63b8ff" stroke="#63b8ff" points="878.14,-28.47 883.52,-19.34 873.62,-23.12 878.14,-28.47"/>
</a>
</g>
</g>
<!-- Node25&#45;&gt;Node4 -->
<g id="edge53_Node000025_Node000004" class="edge">
<title>Node25&#45;&gt;Node4</title>
<g id="a_edge53_Node000025_Node000004"><a xlink:title=" ">
<path fill="none" stroke="#63b8ff" d="M665.26,-167.01C597.97,-154.13 448.56,-122.32 329.99,-74 296.44,-60.33 260.4,-38.74 238.27,-24.59"/>
<polygon fill="#63b8ff" stroke="#63b8ff" points="239.98,-21.53 229.68,-19.04 236.17,-27.41 239.98,-21.53"/>
</a>
</g>
</g>
<!-- Node25&#45;&gt;Node17 -->
<g id="edge49_Node000025_Node000017" class="edge">
<title>Node25&#45;&gt;Node17</title>
<g id="a_edge49_Node000025_Node000017"><a xlink:title=" ">
<path fill="none" stroke="#63b8ff" d="M673.1,-164.89C654.64,-157.89 631.12,-146.31 615.99,-129 605.03,-116.44 599.15,-98.25 596.09,-84.55"/>
<polygon fill="#63b8ff" stroke="#63b8ff" points="599.45,-83.49 594.13,-74.32 592.57,-84.8 599.45,-83.49"/>
</a>
</g>
</g>
<!-- Node25&#45;&gt;Node19 -->
<g id="edge50_Node000025_Node000019" class="edge">
<title>Node25&#45;&gt;Node19</title>
<g id="a_edge50_Node000025_Node000019"><a xlink:title=" ">
<path fill="none" stroke="#63b8ff" d="M702.46,-164.64C704.69,-152.15 709.5,-128.8 716.99,-110 720.73,-100.64 726.08,-90.81 730.87,-82.78"/>
<polygon fill="#63b8ff" stroke="#63b8ff" points="734.01,-84.37 736.3,-74.02 728.06,-80.68 734.01,-84.37"/>
</a>
</g>
</g>
<!-- Node25&#45;&gt;Node21 -->
<g id="edge52_Node000025_Node000021" class="edge">
<title>Node25&#45;&gt;Node21</title>
<g id="a_edge52_Node000025_Node000021"><a xlink:title=" ">
<path fill="none" stroke="#63b8ff" d="M692,-164.98C683.8,-157.23 671.49,-145.58 661.52,-136.14"/>
<polygon fill="#63b8ff" stroke="#63b8ff" points="663.82,-133.5 654.16,-129.17 659.01,-138.59 663.82,-133.5"/>
</a>
</g>
</g>
<!-- Node29&#45;&gt;Node2 -->
<g id="edge59_Node000029_Node000002" class="edge">
<title>Node29&#45;&gt;Node2</title>
<g id="a_edge59_Node000029_Node000002"><a xlink:title=" ">
<path fill="none" stroke="#63b8ff" d="M960.93,-219.8C984.36,-193.04 1049.22,-110.43 1010.99,-55 993.05,-28.98 957.74,-18.16 930.58,-13.67"/>
<polygon fill="#63b8ff" stroke="#63b8ff" points="931.02,-10.2 920.63,-12.24 930.03,-17.13 931.02,-10.2"/>
</a>
</g>
</g>
<!-- Node29&#45;&gt;Node8 -->
<g id="edge58_Node000029_Node000008" class="edge">
<title>Node29&#45;&gt;Node8</title>
<g id="a_edge58_Node000029_Node000008"><a xlink:title=" ">
<path fill="none" stroke="#63b8ff" d="M912.83,-225.3C796.15,-216.02 457.6,-189.08 333.39,-179.19"/>
<polygon fill="#63b8ff" stroke="#63b8ff" points="333.33,-175.68 323.09,-178.37 332.78,-182.65 333.33,-175.68"/>
</a>
</g>
</g>
<!-- Node29&#45;&gt;Node30 -->
<g id="edge60_Node000029_Node000030" class="edge">
<title>Node29&#45;&gt;Node30</title>
<g id="a_edge60_Node000029_Node000030"><a xlink:title=" ">
<path fill="none" stroke="#63b8ff" d="M976.61,-219.98C1000.9,-211.23 1038.94,-197.51 1066.37,-187.62"/>
<polygon fill="#63b8ff" stroke="#63b8ff" points="1067.73,-190.85 1075.95,-184.17 1065.35,-184.27 1067.73,-190.85"/>
</a>
</g>
</g>
<!-- Node30&#45;&gt;Node2 -->
<g id="edge61_Node000030_Node000002" class="edge">
<title>Node30&#45;&gt;Node2</title>
<g id="a_edge61_Node000030_Node000002"><a xlink:title=" ">
<path fill="none" stroke="#63b8ff" d="M1098.83,-164.88C1095.43,-143.08 1083.45,-85.34 1048.99,-55 1015.96,-25.91 965.03,-15.77 930.65,-12.27"/>
<polygon fill="#63b8ff" stroke="#63b8ff" points="930.82,-8.77 920.55,-11.38 930.21,-15.74 930.82,-8.77"/>
</a>
</g>
</g>
<!-- Node31 -->
<g id="Node000031" class="node">
<title>Node31</title>
<g id="a_Node000031"><a xlink:title=" ">
<polygon fill="#e0e0e0" stroke="#999999" points="1186.99,-129 1100.99,-129 1100.99,-110 1186.99,-110 1186.99,-129"/>
<text text-anchor="middle" x="1143.99" y="-117" font-family="Helvetica,sans-Serif" font-size="10.00">spacepacket.h</text>
</a>
</g>
</g>
<!-- Node30&#45;&gt;Node31 -->
<g id="edge62_Node000030_Node000031" class="edge">
<title>Node30&#45;&gt;Node31</title>
<g id="a_edge62_Node000030_Node000031"><a xlink:title=" ">
<path fill="none" stroke="#63b8ff" d="M1107.26,-164.75C1113.54,-157.18 1122.78,-146.05 1130.43,-136.84"/>
<polygon fill="#63b8ff" stroke="#63b8ff" points="1133.17,-139.02 1136.86,-129.09 1127.78,-134.55 1133.17,-139.02"/>
</a>
</g>
</g>
<!-- Node32 -->
<g id="Node000032" class="node">
<title>Node32</title>
<g id="a_Node000032"><a xlink:href="user__auth_8h.html" target="_top" xlink:title=" ">
<polygon fill="white" stroke="#666666" points="968.99,-129 894.99,-129 894.99,-110 968.99,-110 968.99,-129"/>
<text text-anchor="middle" x="931.99" y="-117" font-family="Helvetica,sans-Serif" font-size="10.00">user_auth.h</text>
</a>
</g>
</g>
<!-- Node30&#45;&gt;Node32 -->
<g id="edge63_Node000030_Node000032" class="edge">
<title>Node30&#45;&gt;Node32</title>
<g id="a_edge63_Node000030_Node000032"><a xlink:title=" ">
<path fill="none" stroke="#63b8ff" d="M1073,-164.98C1044.8,-156.09 1000.36,-142.07 968.91,-132.15"/>
<polygon fill="#63b8ff" stroke="#63b8ff" points="969.79,-128.75 959.2,-129.08 967.68,-135.43 969.79,-128.75"/>
</a>
</g>
</g>
<!-- Node32&#45;&gt;Node2 -->
<g id="edge65_Node000032_Node000002" class="edge">
<title>Node32&#45;&gt;Node2</title>
<g id="a_edge65_Node000032_Node000002"><a xlink:title=" ">
<path fill="none" stroke="#63b8ff" d="M928.89,-109.66C922.68,-92.01 908.63,-52.09 900.38,-28.64"/>
<polygon fill="#63b8ff" stroke="#63b8ff" points="903.66,-27.43 897.04,-19.16 897.06,-29.75 903.66,-27.43"/>
</a>
</g>
</g>
<!-- Node32&#45;&gt;Node10 -->
<g id="edge66_Node000032_Node000010" class="edge">
<title>Node32&#45;&gt;Node10</title>
<g id="a_edge66_Node000032_Node000010"><a xlink:title=" ">
<path fill="none" stroke="#63b8ff" d="M894.84,-111.51C891.51,-110.97 888.2,-110.45 884.99,-110 847.79,-104.73 606.54,-80.68 501.61,-70.3"/>
<polygon fill="#63b8ff" stroke="#63b8ff" points="501.89,-66.81 491.6,-69.31 501.2,-73.77 501.89,-66.81"/>
</a>
</g>
</g>
<!-- Node32&#45;&gt;Node15 -->
<g id="edge64_Node000032_Node000015" class="edge">
<title>Node32&#45;&gt;Node15</title>
<g id="a_edge64_Node000032_Node000015"><a xlink:title=" ">
<path fill="none" stroke="#63b8ff" d="M915.49,-109.84C879.54,-91 793.98,-46.14 751.22,-23.73"/>
<polygon fill="#63b8ff" stroke="#63b8ff" points="752.78,-20.59 742.3,-19.05 749.53,-26.79 752.78,-20.59"/>
</a>
</g>
</g>
<!-- Node33&#45;&gt;Node2 -->
<g id="edge70_Node000033_Node000002" class="edge">
<title>Node33&#45;&gt;Node2</title>
<g id="a_edge70_Node000033_Node000002"><a xlink:title=" ">
<path fill="none" stroke="#63b8ff" d="M1297.18,-274.9C1289.78,-266.35 1278.8,-252.59 1271.99,-239 1258.8,-212.66 1252.99,-204.96 1252.99,-175.5 1252.99,-175.5 1252.99,-175.5 1252.99,-118.5 1252.99,-88.33 1252.63,-73.75 1228.99,-55 1183.51,-18.91 1008.09,-12.02 930.85,-10.76"/>
<polygon fill="#63b8ff" stroke="#63b8ff" points="930.68,-7.26 920.63,-10.62 930.58,-14.26 930.68,-7.26"/>
</a>
</g>
</g>
<!-- Node34 -->
<g id="Node000034" class="node">
<title>Node34</title>
<g id="a_Node000034"><a xlink:href="stdlib_8h.html" target="_top" xlink:title=" ">
<polygon fill="white" stroke="#666666" points="1478.99,-239 1402.99,-239 1402.99,-220 1478.99,-220 1478.99,-239"/>
<text text-anchor="middle" x="1440.99" y="-227" font-family="Helvetica,sans-Serif" font-size="10.00">pico/stdlib.h</text>
</a>
</g>
</g>
<!-- Node33&#45;&gt;Node34 -->
<g id="edge68_Node000033_Node000034" class="edge">
<title>Node33&#45;&gt;Node34</title>
<g id="a_edge68_Node000033_Node000034"><a xlink:title=" ">
<path fill="none" stroke="#63b8ff" d="M1326.85,-274.98C1349.12,-266.3 1383.9,-252.75 1409.22,-242.88"/>
<polygon fill="#63b8ff" stroke="#63b8ff" points="1410.7,-246.06 1418.75,-239.17 1408.16,-239.54 1410.7,-246.06"/>
</a>
</g>
</g>
<!-- Node35 -->
<g id="Node000035" class="node">
<title>Node35</title>
<g id="a_Node000035"><a xlink:href="binary__info_8h.html" target="_top" xlink:title=" ">
<polygon fill="white" stroke="#666666" points="1384.99,-239 1280.99,-239 1280.99,-220 1384.99,-220 1384.99,-239"/>
<text text-anchor="middle" x="1332.99" y="-227" font-family="Helvetica,sans-Serif" font-size="10.00">pico/binary_info.h</text>
</a>
</g>
</g>
<!-- Node33&#45;&gt;Node35 -->
<g id="edge69_Node000033_Node000035" class="edge">
<title>Node33&#45;&gt;Node35</title>
<g id="a_edge69_Node000033_Node000035"><a xlink:title=" ">
<path fill="none" stroke="#63b8ff" d="M1309.62,-274.75C1313.45,-267.49 1319.02,-256.95 1323.76,-247.98"/>
<polygon fill="#63b8ff" stroke="#63b8ff" points="1326.88,-249.57 1328.46,-239.09 1320.69,-246.3 1326.88,-249.57"/>
</a>
</g>
</g>
</g>
</svg>
