<?xml version="1.0" encoding="UTF-8" standalone="no"?>
<!DOCTYPE svg PUBLIC "-//W3C//DTD SVG 1.1//EN"
 "http://www.w3.org/Graphics/SVG/1.1/DTD/svg11.dtd">
<!-- Generated by graphviz version 2.43.0 (0)
 -->
<!-- Title: heartbeat_job.c Pages: 1 -->
<svg width="1236pt" height="302pt"
 viewBox="0.00 0.00 1235.55 302.00" xmlns="http://www.w3.org/2000/svg" xmlns:xlink="http://www.w3.org/1999/xlink">
<g id="graph0" class="graph" transform="scale(1 1) rotate(0) translate(4 298)">
<title>heartbeat_job.c</title>
<!-- Node1 -->
<g id="Node000001" class="node">
<title>Node1</title>
<g id="a_Node000001"><a xlink:title=" ">
<polygon fill="#999999" stroke="#666666" points="713,-294 621,-294 621,-275 713,-275 713,-294"/>
<text text-anchor="middle" x="667" y="-282" font-family="Helvetica,sans-Serif" font-size="10.00">heartbeat_job.c</text>
</a>
</g>
</g>
<!-- Node2 -->
<g id="Node000002" class="node">
<title>Node2</title>
<g id="a_Node000002"><a xlink:title=" ">
<polygon fill="#e0e0e0" stroke="#999999" points="794.5,-19 741.5,-19 741.5,0 794.5,0 794.5,-19"/>
<text text-anchor="middle" x="768" y="-7" font-family="Helvetica,sans-Serif" font-size="10.00">stdint.h</text>
</a>
</g>
</g>
<!-- Node1&#45;&gt;Node2 -->
<g id="edge1_Node000001_Node000002" class="edge">
<title>Node1&#45;&gt;Node2</title>
<g id="a_edge1_Node000001_Node000002"><a xlink:title=" ">
<path fill="none" stroke="#63b8ff" d="M667,-274.82C667,-256.48 667,-212.44 667,-175.5 667,-175.5 667,-175.5 667,-118.5 667,-74.76 711.74,-41.41 741.66,-23.99"/>
<polygon fill="#63b8ff" stroke="#63b8ff" points="743.39,-27.03 750.41,-19.1 739.97,-20.92 743.39,-27.03"/>
</a>
</g>
</g>
<!-- Node3 -->
<g id="Node000003" class="node">
<title>Node3</title>
<g id="a_Node000003"><a xlink:href="stdio_8h.html" target="_top" xlink:title=" ">
<polygon fill="white" stroke="#666666" points="79,-239 29,-239 29,-220 79,-220 79,-239"/>
<text text-anchor="middle" x="54" y="-227" font-family="Helvetica,sans-Serif" font-size="10.00">stdio.h</text>
</a>
</g>
</g>
<!-- Node1&#45;&gt;Node3 -->
<g id="edge2_Node000001_Node000003" class="edge">
<title>Node1&#45;&gt;Node3</title>
<g id="a_edge2_Node000001_Node000003"><a xlink:title=" ">
<path fill="none" stroke="#63b8ff" d="M620.63,-282.06C522.71,-278.55 287.81,-267.64 93,-239 91.73,-238.81 90.44,-238.61 89.13,-238.39"/>
<polygon fill="#63b8ff" stroke="#63b8ff" points="89.56,-234.91 79.08,-236.5 88.26,-241.79 89.56,-234.91"/>
</a>
</g>
</g>
<!-- Node4 -->
<g id="Node000004" class="node">
<title>Node4</title>
<g id="a_Node000004"><a xlink:title=" ">
<polygon fill="#e0e0e0" stroke="#999999" points="247,-19 175,-19 175,0 247,0 247,-19"/>
<text text-anchor="middle" x="211" y="-7" font-family="Helvetica,sans-Serif" font-size="10.00">FreeRTOS.h</text>
</a>
</g>
</g>
<!-- Node1&#45;&gt;Node4 -->
<g id="edge3_Node000001_Node000004" class="edge">
<title>Node1&#45;&gt;Node4</title>
<g id="a_edge3_Node000001_Node000004"><a xlink:title=" ">
<path fill="none" stroke="#63b8ff" d="M620.71,-284.26C514.77,-285.22 258.26,-282.79 186,-239 157.27,-221.59 145,-209.09 145,-175.5 145,-175.5 145,-175.5 145,-118.5 145,-89.04 148.56,-80.09 164,-55 170.95,-43.72 181.46,-33.39 190.79,-25.53"/>
<polygon fill="#63b8ff" stroke="#63b8ff" points="193.27,-28.03 198.88,-19.05 188.89,-22.56 193.27,-28.03"/>
</a>
</g>
</g>
<!-- Node5 -->
<g id="Node000005" class="node">
<title>Node5</title>
<g id="a_Node000005"><a xlink:title=" ">
<polygon fill="#e0e0e0" stroke="#999999" points="157,-19 101,-19 101,0 157,0 157,-19"/>
<text text-anchor="middle" x="129" y="-7" font-family="Helvetica,sans-Serif" font-size="10.00">queue.h</text>
</a>
</g>
</g>
<!-- Node1&#45;&gt;Node5 -->
<g id="edge4_Node000001_Node000005" class="edge">
<title>Node1&#45;&gt;Node5</title>
<g id="a_edge4_Node000001_Node000005"><a xlink:title=" ">
<path fill="none" stroke="#63b8ff" d="M620.86,-283.31C480.71,-282.34 66.67,-276.3 20,-239 -3.01,-220.61 1,-204.96 1,-175.5 1,-175.5 1,-175.5 1,-118.5 1,-69.92 55.52,-38.75 93.4,-22.96"/>
<polygon fill="#63b8ff" stroke="#63b8ff" points="95.11,-26.04 103.1,-19.09 92.51,-19.54 95.11,-26.04"/>
</a>
</g>
</g>
<!-- Node6 -->
<g id="Node000006" class="node">
<title>Node6</title>
<g id="a_Node000006"><a xlink:title=" ">
<polygon fill="#e0e0e0" stroke="#999999" points="324.5,-19 277.5,-19 277.5,0 324.5,0 324.5,-19"/>
<text text-anchor="middle" x="301" y="-7" font-family="Helvetica,sans-Serif" font-size="10.00">task.h</text>
</a>
</g>
</g>
<!-- Node1&#45;&gt;Node6 -->
<g id="edge5_Node000001_Node000006" class="edge">
<title>Node1&#45;&gt;Node6</title>
<g id="a_edge5_Node000001_Node000006"><a xlink:title=" ">
<path fill="none" stroke="#63b8ff" d="M620.95,-281.47C535.25,-274.88 353.17,-246.97 278,-129 257.91,-97.47 277,-52.33 290.41,-27.87"/>
<polygon fill="#63b8ff" stroke="#63b8ff" points="293.55,-29.43 295.51,-19.02 287.48,-25.93 293.55,-29.43"/>
</a>
</g>
</g>
<!-- Node7 -->
<g id="Node000007" class="node">
<title>Node7</title>
<g id="a_Node000007"><a xlink:href="state_8h.html" target="_top" xlink:title=" ">
<polygon fill="white" stroke="#666666" points="261,-239 211,-239 211,-220 261,-220 261,-239"/>
<text text-anchor="middle" x="236" y="-227" font-family="Helvetica,sans-Serif" font-size="10.00">state.h</text>
</a>
</g>
</g>
<!-- Node1&#45;&gt;Node7 -->
<g id="edge6_Node000001_Node000007" class="edge">
<title>Node1&#45;&gt;Node7</title>
<g id="a_edge6_Node000001_Node000007"><a xlink:title=" ">
<path fill="none" stroke="#63b8ff" d="M620.93,-279.8C547.45,-273.55 399.34,-259.55 275,-239 273.73,-238.79 272.44,-238.57 271.14,-238.33"/>
<polygon fill="#63b8ff" stroke="#63b8ff" points="271.59,-234.85 261.11,-236.36 270.25,-241.72 271.59,-234.85"/>
</a>
</g>
</g>
<!-- Node8 -->
<g id="Node000008" class="node">
<title>Node8</title>
<g id="a_Node000008"><a xlink:href="telemetry_8h.html" target="_top" xlink:title="Functions for packaging and queuing telemetry packets for sending.">
<polygon fill="white" stroke="#666666" points="245,-74 173,-74 173,-55 245,-55 245,-74"/>
<text text-anchor="middle" x="209" y="-62" font-family="Helvetica,sans-Serif" font-size="10.00">telemetry.h</text>
</a>
</g>
</g>
<!-- Node1&#45;&gt;Node8 -->
<g id="edge7_Node000001_Node000008" class="edge">
<title>Node1&#45;&gt;Node8</title>
<g id="a_edge7_Node000001_Node000008"><a xlink:title=" ">
<path fill="none" stroke="#63b8ff" d="M620.68,-282.53C508.58,-279.69 229.82,-269.61 202,-239 162.68,-195.74 186.95,-118.45 201.03,-83.52"/>
<polygon fill="#63b8ff" stroke="#63b8ff" points="204.34,-84.7 205,-74.12 197.89,-81.98 204.34,-84.7"/>
</a>
</g>
</g>
<!-- Node9 -->
<g id="Node000009" class="node">
<title>Node9</title>
<g id="a_Node000009"><a xlink:href="ina219_8h.html" target="_top" xlink:title="INA219 Driver.">
<polygon fill="white" stroke="#666666" points="795.5,-184 736.5,-184 736.5,-165 795.5,-165 795.5,-184"/>
<text text-anchor="middle" x="766" y="-172" font-family="Helvetica,sans-Serif" font-size="10.00">ina219.h</text>
</a>
</g>
</g>
<!-- Node1&#45;&gt;Node9 -->
<g id="edge10_Node000001_Node000009" class="edge">
<title>Node1&#45;&gt;Node9</title>
<g id="a_edge10_Node000001_Node000009"><a xlink:title=" ">
<path fill="none" stroke="#63b8ff" d="M678.4,-274.97C689.4,-266.47 706.2,-252.74 719,-239 732.55,-224.47 745.81,-206.05 754.77,-192.8"/>
<polygon fill="#63b8ff" stroke="#63b8ff" points="757.87,-194.46 760.48,-184.19 752.04,-190.59 757.87,-194.46"/>
</a>
</g>
</g>
<!-- Node13 -->
<g id="Node000013" class="node">
<title>Node13</title>
<g id="a_Node000013"><a xlink:href="mag__lis3mdltr_8h.html" target="_top" xlink:title="Magnetometer Driver (LIS3MDLTR)">
<polygon fill="white" stroke="#666666" points="909.5,-184 814.5,-184 814.5,-165 909.5,-165 909.5,-184"/>
<text text-anchor="middle" x="862" y="-172" font-family="Helvetica,sans-Serif" font-size="10.00">mag_lis3mdltr.h</text>
</a>
</g>
</g>
<!-- Node1&#45;&gt;Node13 -->
<g id="edge15_Node000001_Node000013" class="edge">
<title>Node1&#45;&gt;Node13</title>
<g id="a_edge15_Node000001_Node000013"><a xlink:title=" ">
<path fill="none" stroke="#63b8ff" d="M682.63,-274.84C716.52,-256.08 796.97,-211.52 837.61,-189.01"/>
<polygon fill="#63b8ff" stroke="#63b8ff" points="839.52,-191.95 846.57,-184.05 836.13,-185.83 839.52,-191.95"/>
</a>
</g>
</g>
<!-- Node17 -->
<g id="Node000017" class="node">
<title>Node17</title>
<g id="a_Node000017"><a xlink:href="rtc__ds3231_8h.html" target="_top" xlink:title="DS3231 Real Time Clock Driver.">
<polygon fill="white" stroke="#666666" points="774.5,-129 695.5,-129 695.5,-110 774.5,-110 774.5,-129"/>
<text text-anchor="middle" x="735" y="-117" font-family="Helvetica,sans-Serif" font-size="10.00">rtc_ds3231.h</text>
</a>
</g>
</g>
<!-- Node1&#45;&gt;Node17 -->
<g id="edge27_Node000001_Node000017" class="edge">
<title>Node1&#45;&gt;Node17</title>
<g id="a_edge27_Node000001_Node000017"><a xlink:title=" ">
<path fill="none" stroke="#63b8ff" d="M670.66,-274.74C681.36,-249.09 712.77,-173.78 727.38,-138.78"/>
<polygon fill="#63b8ff" stroke="#63b8ff" points="730.71,-139.88 731.33,-129.31 724.25,-137.19 730.71,-139.88"/>
</a>
</g>
</g>
<!-- Node18 -->
<g id="Node000018" class="node">
<title>Node18</title>
<g id="a_Node000018"><a xlink:href="timing_8h.html" target="_top" xlink:title=" ">
<polygon fill="white" stroke="#666666" points="116.5,-74 59.5,-74 59.5,-55 116.5,-55 116.5,-74"/>
<text text-anchor="middle" x="88" y="-62" font-family="Helvetica,sans-Serif" font-size="10.00">timing.h</text>
</a>
</g>
</g>
<!-- Node1&#45;&gt;Node18 -->
<g id="edge30_Node000001_Node000018" class="edge">
<title>Node1&#45;&gt;Node18</title>
<g id="a_edge30_Node000001_Node000018"><a xlink:title=" ">
<path fill="none" stroke="#63b8ff" d="M620.99,-282.7C497.92,-280.16 167.93,-270.44 131,-239 85.16,-199.97 84.11,-120.45 86.28,-84.23"/>
<polygon fill="#63b8ff" stroke="#63b8ff" points="89.78,-84.33 87.05,-74.1 82.8,-83.8 89.78,-84.33"/>
</a>
</g>
</g>
<!-- Node19 -->
<g id="Node000019" class="node">
<title>Node19</title>
<g id="a_Node000019"><a xlink:href="vega__ant_8h.html" target="_top" xlink:title="Vega Antenna Board Driver.">
<polygon fill="white" stroke="#666666" points="999.5,-184 928.5,-184 928.5,-165 999.5,-165 999.5,-184"/>
<text text-anchor="middle" x="964" y="-172" font-family="Helvetica,sans-Serif" font-size="10.00">vega_ant.h</text>
</a>
</g>
</g>
<!-- Node1&#45;&gt;Node19 -->
<g id="edge32_Node000001_Node000019" class="edge">
<title>Node1&#45;&gt;Node19</title>
<g id="a_edge32_Node000001_Node000019"><a xlink:title=" ">
<path fill="none" stroke="#63b8ff" d="M713.23,-281.87C814.98,-277.79 1051.19,-265.56 1075,-239 1098.69,-212.58 1049.54,-194.4 1009.26,-184.47"/>
<polygon fill="#63b8ff" stroke="#63b8ff" points="1010.06,-181.06 999.53,-182.18 1008.46,-187.88 1010.06,-181.06"/>
</a>
</g>
</g>
<!-- Node20 -->
<g id="Node000020" class="node">
<title>Node20</title>
<g id="a_Node000020"><a xlink:href="heartbeat__job_8h.html" target="_top" xlink:title=" ">
<polygon fill="white" stroke="#666666" points="902.5,-239 809.5,-239 809.5,-220 902.5,-220 902.5,-239"/>
<text text-anchor="middle" x="856" y="-227" font-family="Helvetica,sans-Serif" font-size="10.00">heartbeat_job.h</text>
</a>
</g>
</g>
<!-- Node1&#45;&gt;Node20 -->
<g id="edge38_Node000001_Node000020" class="edge">
<title>Node1&#45;&gt;Node20</title>
<g id="a_edge38_Node000001_Node000020"><a xlink:title=" ">
<path fill="none" stroke="#63b8ff" d="M697.37,-274.98C729.37,-266.01 779.96,-251.82 815.38,-241.89"/>
<polygon fill="#63b8ff" stroke="#63b8ff" points="816.71,-245.15 825.4,-239.08 814.82,-238.41 816.71,-245.15"/>
</a>
</g>
</g>
<!-- Node21 -->
<g id="Node000021" class="node">
<title>Node21</title>
<g id="a_Node000021"><a xlink:title=" ">
<polygon fill="#e0e0e0" stroke="#999999" points="971,-239 921,-239 921,-220 971,-220 971,-239"/>
<text text-anchor="middle" x="946" y="-227" font-family="Helvetica,sans-Serif" font-size="10.00">radio.h</text>
</a>
</g>
</g>
<!-- Node1&#45;&gt;Node21 -->
<g id="edge39_Node000001_Node000021" class="edge">
<title>Node1&#45;&gt;Node21</title>
<g id="a_edge39_Node000001_Node000021"><a xlink:title=" ">
<path fill="none" stroke="#63b8ff" d="M713.03,-275.92C762.2,-267.64 842.35,-253.58 911,-239 911.1,-238.98 911.2,-238.96 911.3,-238.94"/>
<polygon fill="#63b8ff" stroke="#63b8ff" points="911.82,-242.41 920.81,-236.8 910.28,-235.58 911.82,-242.41"/>
</a>
</g>
</g>
<!-- Node22 -->
<g id="Node000022" class="node">
<title>Node22</title>
<g id="a_Node000022"><a xlink:title=" ">
<polygon fill="#e0e0e0" stroke="#999999" points="1066.5,-239 989.5,-239 989.5,-220 1066.5,-220 1066.5,-239"/>
<text text-anchor="middle" x="1028" y="-227" font-family="Helvetica,sans-Serif" font-size="10.00">max17048.h</text>
</a>
</g>
</g>
<!-- Node1&#45;&gt;Node22 -->
<g id="edge40_Node000001_Node000022" class="edge">
<title>Node1&#45;&gt;Node22</title>
<g id="a_edge40_Node000001_Node000022"><a xlink:title=" ">
<path fill="none" stroke="#63b8ff" d="M713.22,-277.43C772.38,-269.55 878.31,-255.07 979.19,-239.08"/>
<polygon fill="#63b8ff" stroke="#63b8ff" points="979.92,-242.51 989.25,-237.48 978.82,-235.6 979.92,-242.51"/>
</a>
</g>
</g>
<!-- Node23 -->
<g id="Node000023" class="node">
<title>Node23</title>
<g id="a_Node000023"><a xlink:href="hb__tlm__log_8h.html" target="_top" xlink:title=" ">
<polygon fill="white" stroke="#666666" points="603,-239 523,-239 523,-220 603,-220 603,-239"/>
<text text-anchor="middle" x="563" y="-227" font-family="Helvetica,sans-Serif" font-size="10.00">hb_tlm_log.h</text>
</a>
</g>
</g>
<!-- Node1&#45;&gt;Node23 -->
<g id="edge41_Node000001_Node000023" class="edge">
<title>Node1&#45;&gt;Node23</title>
<g id="a_edge41_Node000001_Node000023"><a xlink:title=" ">
<path fill="none" stroke="#63b8ff" d="M650.29,-274.98C633.79,-266.57 608.3,-253.59 589.12,-243.81"/>
<polygon fill="#63b8ff" stroke="#63b8ff" points="590.51,-240.59 580.02,-239.17 587.34,-246.83 590.51,-240.59"/>
</a>
</g>
</g>
<!-- Node30 -->
<g id="Node000030" class="node">
<title>Node30</title>
<g id="a_Node000030"><a xlink:href="ds18b20_8h.html" target="_top" xlink:title="Driver for PIO Onewire DS18B20 Temperature Sensors.">
<polygon fill="white" stroke="#666666" points="1198.5,-239 1131.5,-239 1131.5,-220 1198.5,-220 1198.5,-239"/>
<text text-anchor="middle" x="1165" y="-227" font-family="Helvetica,sans-Serif" font-size="10.00">ds18b20.h</text>
</a>
</g>
</g>
<!-- Node1&#45;&gt;Node30 -->
<g id="edge59_Node000001_Node000030" class="edge">
<title>Node1&#45;&gt;Node30</title>
<g id="a_edge59_Node000001_Node000030"><a xlink:title=" ">
<path fill="none" stroke="#63b8ff" d="M713.22,-279.62C793.75,-272.68 964.96,-257.17 1109,-239 1112.95,-238.5 1117.05,-237.95 1121.15,-237.37"/>
<polygon fill="#63b8ff" stroke="#63b8ff" points="1121.89,-240.8 1131.28,-235.9 1120.88,-233.87 1121.89,-240.8"/>
</a>
</g>
</g>
<!-- Node8&#45;&gt;Node4 -->
<g id="edge8_Node000008_Node000004" class="edge">
<title>Node8&#45;&gt;Node4</title>
<g id="a_edge8_Node000008_Node000004"><a xlink:title=" ">
<path fill="none" stroke="#63b8ff" d="M209.33,-54.75C209.59,-47.8 209.97,-37.85 210.3,-29.13"/>
<polygon fill="#63b8ff" stroke="#63b8ff" points="213.8,-29.21 210.68,-19.09 206.8,-28.95 213.8,-29.21"/>
</a>
</g>
</g>
<!-- Node8&#45;&gt;Node5 -->
<g id="edge9_Node000008_Node000005" class="edge">
<title>Node8&#45;&gt;Node5</title>
<g id="a_edge9_Node000008_Node000005"><a xlink:title=" ">
<path fill="none" stroke="#63b8ff" d="M196.15,-54.98C183.86,-46.84 165.1,-34.41 150.53,-24.76"/>
<polygon fill="#63b8ff" stroke="#63b8ff" points="152.36,-21.78 142.09,-19.17 148.49,-27.61 152.36,-21.78"/>
</a>
</g>
</g>
<!-- Node10 -->
<g id="Node000010" class="node">
<title>Node10</title>
<g id="a_Node000010"><a xlink:href="simulator_2pico-sdk_2hardware_2i2c_8h.html" target="_top" xlink:title=" ">
<polygon fill="white" stroke="#666666" points="849.5,-74 760.5,-74 760.5,-55 849.5,-55 849.5,-74"/>
<text text-anchor="middle" x="805" y="-62" font-family="Helvetica,sans-Serif" font-size="10.00">hardware/i2c.h</text>
</a>
</g>
</g>
<!-- Node9&#45;&gt;Node10 -->
<g id="edge11_Node000009_Node000010" class="edge">
<title>Node9&#45;&gt;Node10</title>
<g id="a_edge11_Node000009_Node000010"><a xlink:title=" ">
<path fill="none" stroke="#63b8ff" d="M769.34,-165C772.83,-156.07 778.42,-141.59 783,-129 788.5,-113.91 794.45,-96.68 798.77,-83.98"/>
<polygon fill="#63b8ff" stroke="#63b8ff" points="802.2,-84.75 802.1,-74.16 795.57,-82.51 802.2,-84.75"/>
</a>
</g>
</g>
<!-- Node10&#45;&gt;Node2 -->
<g id="edge12_Node000010_Node000002" class="edge">
<title>Node10&#45;&gt;Node2</title>
<g id="a_edge12_Node000010_Node000002"><a xlink:title=" ">
<path fill="none" stroke="#63b8ff" d="M798.89,-54.75C793.72,-47.34 786.16,-36.5 779.81,-27.41"/>
<polygon fill="#63b8ff" stroke="#63b8ff" points="782.59,-25.29 774,-19.09 776.85,-29.29 782.59,-25.29"/>
</a>
</g>
</g>
<!-- Node11 -->
<g id="Node000011" class="node">
<title>Node11</title>
<g id="a_Node000011"><a xlink:title=" ">
<polygon fill="#e0e0e0" stroke="#999999" points="691,-19 635,-19 635,0 691,0 691,-19"/>
<text text-anchor="middle" x="663" y="-7" font-family="Helvetica,sans-Serif" font-size="10.00">stddef.h</text>
</a>
</g>
</g>
<!-- Node10&#45;&gt;Node11 -->
<g id="edge13_Node000010_Node000011" class="edge">
<title>Node10&#45;&gt;Node11</title>
<g id="a_edge13_Node000010_Node000011"><a xlink:title=" ">
<path fill="none" stroke="#63b8ff" d="M782.19,-54.98C758.83,-46.27 722.3,-32.63 695.83,-22.75"/>
<polygon fill="#63b8ff" stroke="#63b8ff" points="696.83,-19.39 686.23,-19.17 694.38,-25.95 696.83,-19.39"/>
</a>
</g>
</g>
<!-- Node12 -->
<g id="Node000012" class="node">
<title>Node12</title>
<g id="a_Node000012"><a xlink:title=" ">
<polygon fill="#e0e0e0" stroke="#999999" points="544,-19 482,-19 482,0 544,0 544,-19"/>
<text text-anchor="middle" x="513" y="-7" font-family="Helvetica,sans-Serif" font-size="10.00">stdbool.h</text>
</a>
</g>
</g>
<!-- Node10&#45;&gt;Node12 -->
<g id="edge14_Node000010_Node000012" class="edge">
<title>Node10&#45;&gt;Node12</title>
<g id="a_edge14_Node000010_Node000012"><a xlink:title=" ">
<path fill="none" stroke="#63b8ff" d="M760.34,-55.39C704.2,-45.2 608.64,-27.86 554.19,-17.98"/>
<polygon fill="#63b8ff" stroke="#63b8ff" points="554.66,-14.5 544.2,-16.16 553.41,-21.39 554.66,-14.5"/>
</a>
</g>
</g>
<!-- Node13&#45;&gt;Node2 -->
<g id="edge19_Node000013_Node000002" class="edge">
<title>Node13&#45;&gt;Node2</title>
<g id="a_edge19_Node000013_Node000002"><a xlink:title=" ">
<path fill="none" stroke="#63b8ff" d="M864.47,-164.88C869.89,-144.05 880.65,-90.12 858,-55 846.02,-36.41 823.8,-25.32 804.45,-18.86"/>
<polygon fill="#63b8ff" stroke="#63b8ff" points="805.24,-15.44 794.65,-15.88 803.2,-22.14 805.24,-15.44"/>
</a>
</g>
</g>
<!-- Node13&#45;&gt;Node10 -->
<g id="edge16_Node000013_Node000010" class="edge">
<title>Node13&#45;&gt;Node10</title>
<g id="a_edge16_Node000013_Node000010"><a xlink:title=" ">
<path fill="none" stroke="#63b8ff" d="M857.34,-164.66C847.94,-146.85 826.57,-106.37 814.24,-83.01"/>
<polygon fill="#63b8ff" stroke="#63b8ff" points="817.34,-81.37 809.57,-74.16 811.14,-84.64 817.34,-81.37"/>
</a>
</g>
</g>
<!-- Node14 -->
<g id="Node000014" class="node">
<title>Node14</title>
<g id="a_Node000014"><a xlink:href="gpio_8h.html" target="_top" xlink:title=" ">
<polygon fill="white" stroke="#666666" points="1060.5,-74 965.5,-74 965.5,-55 1060.5,-55 1060.5,-74"/>
<text text-anchor="middle" x="1013" y="-62" font-family="Helvetica,sans-Serif" font-size="10.00">hardware/gpio.h</text>
</a>
</g>
</g>
<!-- Node13&#45;&gt;Node14 -->
<g id="edge17_Node000013_Node000014" class="edge">
<title>Node13&#45;&gt;Node14</title>
<g id="a_edge17_Node000013_Node000014"><a xlink:title=" ">
<path fill="none" stroke="#63b8ff" d="M899.39,-164.97C933.56,-156.47 980.73,-142.74 994,-129 1005.61,-116.98 1010.16,-98.17 1011.93,-84.14"/>
<polygon fill="#63b8ff" stroke="#63b8ff" points="1015.42,-84.4 1012.83,-74.13 1008.45,-83.78 1015.42,-84.4"/>
</a>
</g>
</g>
<!-- Node15 -->
<g id="Node000015" class="node">
<title>Node15</title>
<g id="a_Node000015"><a xlink:href="log_8h.html" target="_top" xlink:title=" ">
<polygon fill="white" stroke="#666666" points="432.5,-129 391.5,-129 391.5,-110 432.5,-110 432.5,-129"/>
<text text-anchor="middle" x="412" y="-117" font-family="Helvetica,sans-Serif" font-size="10.00">log.h</text>
</a>
</g>
</g>
<!-- Node13&#45;&gt;Node15 -->
<g id="edge20_Node000013_Node000015" class="edge">
<title>Node13&#45;&gt;Node15</title>
<g id="a_edge20_Node000013_Node000015"><a xlink:title=" ">
<path fill="none" stroke="#63b8ff" d="M814.23,-166.33C810.77,-165.86 807.34,-165.41 804,-165 645.74,-145.43 604.19,-155.88 447,-129 445.54,-128.75 444.05,-128.47 442.54,-128.18"/>
<polygon fill="#63b8ff" stroke="#63b8ff" points="443.15,-124.73 432.63,-126.01 441.65,-131.56 443.15,-124.73"/>
</a>
</g>
</g>
<!-- Node16 -->
<g id="Node000016" class="node">
<title>Node16</title>
<g id="a_Node000016"><a xlink:href="drivers_2include_2i2c_8h.html" target="_top" xlink:title="Drivers for i2c peripheral devices.">
<polygon fill="white" stroke="#666666" points="985,-129 945,-129 945,-110 985,-110 985,-129"/>
<text text-anchor="middle" x="965" y="-117" font-family="Helvetica,sans-Serif" font-size="10.00">i2c.h</text>
</a>
</g>
</g>
<!-- Node13&#45;&gt;Node16 -->
<g id="edge23_Node000013_Node000016" class="edge">
<title>Node13&#45;&gt;Node16</title>
<g id="a_edge23_Node000013_Node000016"><a xlink:title=" ">
<path fill="none" stroke="#63b8ff" d="M878.55,-164.98C894.9,-156.57 920.14,-143.59 939.13,-133.81"/>
<polygon fill="#63b8ff" stroke="#63b8ff" points="940.86,-136.86 948.15,-129.17 937.66,-130.63 940.86,-136.86"/>
</a>
</g>
</g>
<!-- Node14&#45;&gt;Node2 -->
<g id="edge18_Node000014_Node000002" class="edge">
<title>Node14&#45;&gt;Node2</title>
<g id="a_edge18_Node000014_Node000002"><a xlink:title=" ">
<path fill="none" stroke="#63b8ff" d="M973.64,-54.98C927.08,-44.91 850.19,-28.28 804.79,-18.46"/>
<polygon fill="#63b8ff" stroke="#63b8ff" points="805.3,-14.99 794.78,-16.29 803.82,-21.83 805.3,-14.99"/>
</a>
</g>
</g>
<!-- Node15&#45;&gt;Node8 -->
<g id="edge21_Node000015_Node000008" class="edge">
<title>Node15&#45;&gt;Node8</title>
<g id="a_edge21_Node000015_Node000008"><a xlink:title=" ">
<path fill="none" stroke="#63b8ff" d="M391.36,-112.58C388.23,-111.7 385.03,-110.82 382,-110 338.27,-98.18 288.11,-85.36 253.11,-76.53"/>
<polygon fill="#63b8ff" stroke="#63b8ff" points="253.76,-73.08 243.21,-74.04 252.05,-79.87 253.76,-73.08"/>
</a>
</g>
</g>
<!-- Node15&#45;&gt;Node12 -->
<g id="edge22_Node000015_Node000012" class="edge">
<title>Node15&#45;&gt;Node12</title>
<g id="a_edge22_Node000015_Node000012"><a xlink:title=" ">
<path fill="none" stroke="#63b8ff" d="M421.15,-109.81C430.37,-100.97 444.93,-86.78 457,-74 471.74,-58.4 487.88,-39.93 499.04,-26.95"/>
<polygon fill="#63b8ff" stroke="#63b8ff" points="501.74,-29.17 505.58,-19.3 496.42,-24.62 501.74,-29.17"/>
</a>
</g>
</g>
<!-- Node16&#45;&gt;Node2 -->
<g id="edge26_Node000016_Node000002" class="edge">
<title>Node16&#45;&gt;Node2</title>
<g id="a_edge26_Node000016_Node000002"><a xlink:title=" ">
<path fill="none" stroke="#63b8ff" d="M960.14,-109.72C952.11,-96.02 934.77,-69.61 913,-55 880,-32.85 835.51,-21.35 804.55,-15.64"/>
<polygon fill="#63b8ff" stroke="#63b8ff" points="805.05,-12.18 794.6,-13.92 803.86,-19.07 805.05,-12.18"/>
</a>
</g>
</g>
<!-- Node16&#45;&gt;Node10 -->
<g id="edge24_Node000016_Node000010" class="edge">
<title>Node16&#45;&gt;Node10</title>
<g id="a_edge24_Node000016_Node000010"><a xlink:title=" ">
<path fill="none" stroke="#63b8ff" d="M944.74,-111.79C918.64,-103.14 872.82,-87.97 840.79,-77.36"/>
<polygon fill="#63b8ff" stroke="#63b8ff" points="841.51,-73.91 830.92,-74.09 839.31,-80.55 841.51,-73.91"/>
</a>
</g>
</g>
<!-- Node16&#45;&gt;Node14 -->
<g id="edge25_Node000016_Node000014" class="edge">
<title>Node16&#45;&gt;Node14</title>
<g id="a_edge25_Node000016_Node000014"><a xlink:title=" ">
<path fill="none" stroke="#63b8ff" d="M972.93,-109.75C979.85,-102.11 990.07,-90.82 998.45,-81.56"/>
<polygon fill="#63b8ff" stroke="#63b8ff" points="1001.11,-83.85 1005.22,-74.09 995.92,-79.15 1001.11,-83.85"/>
</a>
</g>
</g>
<!-- Node17&#45;&gt;Node2 -->
<g id="edge29_Node000017_Node000002" class="edge">
<title>Node17&#45;&gt;Node2</title>
<g id="a_edge29_Node000017_Node000002"><a xlink:title=" ">
<path fill="none" stroke="#63b8ff" d="M736.86,-109.78C739.55,-97.46 744.91,-74.3 751,-55 753.77,-46.23 757.35,-36.67 760.5,-28.68"/>
<polygon fill="#63b8ff" stroke="#63b8ff" points="763.81,-29.84 764.3,-19.26 757.32,-27.22 763.81,-29.84"/>
</a>
</g>
</g>
<!-- Node17&#45;&gt;Node10 -->
<g id="edge28_Node000017_Node000010" class="edge">
<title>Node17&#45;&gt;Node10</title>
<g id="a_edge28_Node000017_Node000010"><a xlink:title=" ">
<path fill="none" stroke="#63b8ff" d="M746.25,-109.98C756.8,-102 772.8,-89.88 785.44,-80.31"/>
<polygon fill="#63b8ff" stroke="#63b8ff" points="787.69,-83 793.55,-74.17 783.47,-77.42 787.69,-83"/>
</a>
</g>
</g>
<!-- Node18&#45;&gt;Node4 -->
<g id="edge31_Node000018_Node000004" class="edge">
<title>Node18&#45;&gt;Node4</title>
<g id="a_edge31_Node000018_Node000004"><a xlink:title=" ">
<path fill="none" stroke="#63b8ff" d="M107.76,-54.98C127.73,-46.38 158.81,-32.99 181.65,-23.15"/>
<polygon fill="#63b8ff" stroke="#63b8ff" points="183.08,-26.34 190.88,-19.17 180.31,-19.91 183.08,-26.34"/>
</a>
</g>
</g>
<!-- Node19&#45;&gt;Node2 -->
<g id="edge35_Node000019_Node000002" class="edge">
<title>Node19&#45;&gt;Node2</title>
<g id="a_edge35_Node000019_Node000002"><a xlink:title=" ">
<path fill="none" stroke="#63b8ff" d="M987.27,-164.93C1004.49,-157.6 1027.56,-145.59 1043,-129 1066.76,-103.49 1091.78,-81.39 1069,-55 1035.28,-15.93 877.69,-10.58 804.96,-10.23"/>
<polygon fill="#63b8ff" stroke="#63b8ff" points="804.88,-6.73 794.87,-10.21 804.86,-13.73 804.88,-6.73"/>
</a>
</g>
</g>
<!-- Node19&#45;&gt;Node4 -->
<g id="edge37_Node000019_Node000004" class="edge">
<title>Node19&#45;&gt;Node4</title>
<g id="a_edge37_Node000019_Node000004"><a xlink:title=" ">
<path fill="none" stroke="#63b8ff" d="M928.4,-166.56C924.89,-165.98 921.38,-165.45 918,-165 724.39,-139.22 668.37,-180.66 480,-129 461.41,-123.9 458.52,-118.05 441,-110 369.89,-77.31 285.14,-41.43 241.04,-22.99"/>
<polygon fill="#63b8ff" stroke="#63b8ff" points="242.33,-19.73 231.76,-19.11 239.64,-26.19 242.33,-19.73"/>
</a>
</g>
</g>
<!-- Node19&#45;&gt;Node10 -->
<g id="edge33_Node000019_Node000010" class="edge">
<title>Node19&#45;&gt;Node10</title>
<g id="a_edge33_Node000019_Node000010"><a xlink:title=" ">
<path fill="none" stroke="#63b8ff" d="M951.26,-164.84C924.05,-146.36 860,-102.86 826.42,-80.05"/>
<polygon fill="#63b8ff" stroke="#63b8ff" points="828.04,-76.92 817.81,-74.2 824.11,-82.71 828.04,-76.92"/>
</a>
</g>
</g>
<!-- Node19&#45;&gt;Node14 -->
<g id="edge34_Node000019_Node000014" class="edge">
<title>Node19&#45;&gt;Node14</title>
<g id="a_edge34_Node000019_Node000014"><a xlink:title=" ">
<path fill="none" stroke="#63b8ff" d="M985.15,-164.93C999.83,-157.73 1018.26,-145.88 1027,-129 1034.45,-114.62 1029.16,-96.42 1023.06,-83.19"/>
<polygon fill="#63b8ff" stroke="#63b8ff" points="1026.12,-81.49 1018.44,-74.2 1019.9,-84.69 1026.12,-81.49"/>
</a>
</g>
</g>
<!-- Node19&#45;&gt;Node16 -->
<g id="edge36_Node000019_Node000016" class="edge">
<title>Node19&#45;&gt;Node16</title>
<g id="a_edge36_Node000019_Node000016"><a xlink:title=" ">
<path fill="none" stroke="#63b8ff" d="M964.17,-164.75C964.3,-157.8 964.49,-147.85 964.65,-139.13"/>
<polygon fill="#63b8ff" stroke="#63b8ff" points="968.15,-139.15 964.84,-129.09 961.15,-139.02 968.15,-139.15"/>
</a>
</g>
</g>
<!-- Node23&#45;&gt;Node2 -->
<g id="edge43_Node000023_Node000002" class="edge">
<title>Node23&#45;&gt;Node2</title>
<g id="a_edge43_Node000023_Node000002"><a xlink:title=" ">
<path fill="none" stroke="#63b8ff" d="M568.62,-219.77C574.26,-210.9 583.07,-196.69 590,-184 620.58,-128 606.01,-98.16 653,-55 674.9,-34.89 706.88,-23.5 731.56,-17.29"/>
<polygon fill="#63b8ff" stroke="#63b8ff" points="732.36,-20.7 741.3,-15.01 730.77,-13.89 732.36,-20.7"/>
</a>
</g>
</g>
<!-- Node23&#45;&gt;Node8 -->
<g id="edge42_Node000023_Node000008" class="edge">
<title>Node23&#45;&gt;Node8</title>
<g id="a_edge42_Node000023_Node000008"><a xlink:title=" ">
<path fill="none" stroke="#63b8ff" d="M523,-220C465.75,-206.66 358.47,-177.22 278,-129 256.52,-116.13 235.95,-95.8 222.94,-81.62"/>
<polygon fill="#63b8ff" stroke="#63b8ff" points="225.48,-79.21 216.21,-74.09 220.26,-83.88 225.48,-79.21"/>
</a>
</g>
</g>
<!-- Node24 -->
<g id="Node000024" class="node">
<title>Node24</title>
<g id="a_Node000024"><a xlink:href="command_8h.html" target="_top" xlink:title="Handles decoding and triggering responses to received commands.">
<polygon fill="white" stroke="#666666" points="581,-184 507,-184 507,-165 581,-165 581,-184"/>
<text text-anchor="middle" x="544" y="-172" font-family="Helvetica,sans-Serif" font-size="10.00">command.h</text>
</a>
</g>
</g>
<!-- Node23&#45;&gt;Node24 -->
<g id="edge44_Node000023_Node000024" class="edge">
<title>Node23&#45;&gt;Node24</title>
<g id="a_edge44_Node000023_Node000024"><a xlink:title=" ">
<path fill="none" stroke="#63b8ff" d="M559.87,-219.75C557.32,-212.65 553.65,-202.4 550.48,-193.56"/>
<polygon fill="#63b8ff" stroke="#63b8ff" points="553.75,-192.32 547.08,-184.09 547.16,-194.68 553.75,-192.32"/>
</a>
</g>
</g>
<!-- Node24&#45;&gt;Node2 -->
<g id="edge45_Node000024_Node000002" class="edge">
<title>Node24&#45;&gt;Node2</title>
<g id="a_edge45_Node000024_Node000002"><a xlink:title=" ">
<path fill="none" stroke="#63b8ff" d="M549.67,-164.69C555.4,-155.75 564.44,-141.5 572,-129 591.69,-96.45 585.04,-78.43 615,-55 633.11,-40.84 692.16,-26.32 731.38,-17.86"/>
<polygon fill="#63b8ff" stroke="#63b8ff" points="732.32,-21.24 741.38,-15.75 730.87,-14.4 732.32,-21.24"/>
</a>
</g>
</g>
<!-- Node25 -->
<g id="Node000025" class="node">
<title>Node25</title>
<g id="a_Node000025"><a xlink:title=" ">
<polygon fill="#e0e0e0" stroke="#999999" points="373,-129 287,-129 287,-110 373,-110 373,-129"/>
<text text-anchor="middle" x="330" y="-117" font-family="Helvetica,sans-Serif" font-size="10.00">spacepacket.h</text>
</a>
</g>
</g>
<!-- Node24&#45;&gt;Node25 -->
<g id="edge46_Node000024_Node000025" class="edge">
<title>Node24&#45;&gt;Node25</title>
<g id="a_edge46_Node000024_Node000025"><a xlink:title=" ">
<path fill="none" stroke="#63b8ff" d="M509.62,-164.98C472.91,-155.89 414.62,-141.46 374.45,-131.51"/>
<polygon fill="#63b8ff" stroke="#63b8ff" points="375.2,-128.09 364.65,-129.08 373.52,-134.88 375.2,-128.09"/>
</a>
</g>
</g>
<!-- Node26 -->
<g id="Node000026" class="node">
<title>Node26</title>
<g id="a_Node000026"><a xlink:href="user__auth_8h.html" target="_top" xlink:title=" ">
<polygon fill="white" stroke="#666666" points="563,-129 489,-129 489,-110 563,-110 563,-129"/>
<text text-anchor="middle" x="526" y="-117" font-family="Helvetica,sans-Serif" font-size="10.00">user_auth.h</text>
</a>
</g>
</g>
<!-- Node24&#45;&gt;Node26 -->
<g id="edge47_Node000024_Node000026" class="edge">
<title>Node24&#45;&gt;Node26</title>
<g id="a_edge47_Node000024_Node000026"><a xlink:title=" ">
<path fill="none" stroke="#63b8ff" d="M541.03,-164.75C538.64,-157.72 535.21,-147.62 532.23,-138.84"/>
<polygon fill="#63b8ff" stroke="#63b8ff" points="535.45,-137.43 528.92,-129.09 528.82,-139.68 535.45,-137.43"/>
</a>
</g>
</g>
<!-- Node26&#45;&gt;Node2 -->
<g id="edge49_Node000026_Node000002" class="edge">
<title>Node26&#45;&gt;Node2</title>
<g id="a_edge49_Node000026_Node000002"><a xlink:title=" ">
<path fill="none" stroke="#63b8ff" d="M530.36,-109.99C537.91,-96.18 554.74,-69 577,-55 602.38,-39.04 683.2,-23.98 731.2,-16.14"/>
<polygon fill="#63b8ff" stroke="#63b8ff" points="731.88,-19.57 741.2,-14.53 730.77,-12.66 731.88,-19.57"/>
</a>
</g>
</g>
<!-- Node26&#45;&gt;Node12 -->
<g id="edge48_Node000026_Node000012" class="edge">
<title>Node26&#45;&gt;Node12</title>
<g id="a_edge48_Node000026_Node000012"><a xlink:title=" ">
<path fill="none" stroke="#63b8ff" d="M524.94,-109.66C522.83,-92.17 518.09,-52.8 515.26,-29.27"/>
<polygon fill="#63b8ff" stroke="#63b8ff" points="518.71,-28.67 514.04,-19.16 511.76,-29.51 518.71,-28.67"/>
</a>
</g>
</g>
<!-- Node27 -->
<g id="Node000027" class="node">
<title>Node27</title>
<g id="a_Node000027"><a xlink:href="filesystem_8h.html" target="_top" xlink:title="Handles file system operations and management.">
<polygon fill="white" stroke="#666666" points="448.5,-74 371.5,-74 371.5,-55 448.5,-55 448.5,-74"/>
<text text-anchor="middle" x="410" y="-62" font-family="Helvetica,sans-Serif" font-size="10.00">filesystem.h</text>
</a>
</g>
</g>
<!-- Node26&#45;&gt;Node27 -->
<g id="edge50_Node000026_Node000027" class="edge">
<title>Node26&#45;&gt;Node27</title>
<g id="a_edge50_Node000026_Node000027"><a xlink:title=" ">
<path fill="none" stroke="#63b8ff" d="M507.37,-109.98C488.7,-101.46 459.75,-88.23 438.26,-78.41"/>
<polygon fill="#63b8ff" stroke="#63b8ff" points="439.53,-75.14 428.98,-74.17 436.62,-81.51 439.53,-75.14"/>
</a>
</g>
</g>
<!-- Node27&#45;&gt;Node2 -->
<g id="edge57_Node000027_Node000002" class="edge">
<title>Node27&#45;&gt;Node2</title>
<g id="a_edge57_Node000027_Node000002"><a xlink:title=" ">
<path fill="none" stroke="#63b8ff" d="M448.65,-57.78C517.99,-47.51 662.61,-26.1 730.85,-16"/>
<polygon fill="#63b8ff" stroke="#63b8ff" points="731.74,-19.41 741.12,-14.48 730.71,-12.48 731.74,-19.41"/>
</a>
</g>
</g>
<!-- Node27&#45;&gt;Node4 -->
<g id="edge51_Node000027_Node000004" class="edge">
<title>Node27&#45;&gt;Node4</title>
<g id="a_edge51_Node000027_Node000004"><a xlink:title=" ">
<path fill="none" stroke="#63b8ff" d="M378.03,-54.98C344.19,-45.97 290.61,-31.7 253.29,-21.76"/>
<polygon fill="#63b8ff" stroke="#63b8ff" points="253.79,-18.27 243.23,-19.08 251.99,-25.04 253.79,-18.27"/>
</a>
</g>
</g>
<!-- Node27&#45;&gt;Node5 -->
<g id="edge52_Node000027_Node000005" class="edge">
<title>Node27&#45;&gt;Node5</title>
<g id="a_edge52_Node000027_Node000005"><a xlink:title=" ">
<path fill="none" stroke="#63b8ff" d="M371.44,-57.02C325.23,-49.14 245.24,-35.11 167.25,-19.18"/>
<polygon fill="#63b8ff" stroke="#63b8ff" points="167.76,-15.71 157.26,-17.13 166.35,-22.57 167.76,-15.71"/>
</a>
</g>
</g>
<!-- Node27&#45;&gt;Node6 -->
<g id="edge53_Node000027_Node000006" class="edge">
<title>Node27&#45;&gt;Node6</title>
<g id="a_edge53_Node000027_Node000006"><a xlink:title=" ">
<path fill="none" stroke="#63b8ff" d="M392.49,-54.98C375.03,-46.5 347.99,-33.35 327.83,-23.54"/>
<polygon fill="#63b8ff" stroke="#63b8ff" points="329.36,-20.4 318.83,-19.17 326.3,-26.69 329.36,-20.4"/>
</a>
</g>
</g>
<!-- Node27&#45;&gt;Node11 -->
<g id="edge56_Node000027_Node000011" class="edge">
<title>Node27&#45;&gt;Node11</title>
<g id="a_edge56_Node000027_Node000011"><a xlink:title=" ">
<path fill="none" stroke="#63b8ff" d="M448.7,-55.39C496.55,-45.37 577.46,-28.42 624.98,-18.46"/>
<polygon fill="#63b8ff" stroke="#63b8ff" points="625.81,-21.87 634.88,-16.39 624.38,-15.02 625.81,-21.87"/>
</a>
</g>
</g>
<!-- Node27&#45;&gt;Node12 -->
<g id="edge58_Node000027_Node000012" class="edge">
<title>Node27&#45;&gt;Node12</title>
<g id="a_edge58_Node000027_Node000012"><a xlink:title=" ">
<path fill="none" stroke="#63b8ff" d="M426.55,-54.98C442.9,-46.57 468.14,-33.59 487.13,-23.81"/>
<polygon fill="#63b8ff" stroke="#63b8ff" points="488.86,-26.86 496.15,-19.17 485.66,-20.63 488.86,-26.86"/>
</a>
</g>
</g>
<!-- Node28 -->
<g id="Node000028" class="node">
<title>Node28</title>
<g id="a_Node000028"><a xlink:title=" ">
<polygon fill="#e0e0e0" stroke="#999999" points="381,-19 349,-19 349,0 381,0 381,-19"/>
<text text-anchor="middle" x="365" y="-7" font-family="Helvetica,sans-Serif" font-size="10.00">ff.h</text>
</a>
</g>
</g>
<!-- Node27&#45;&gt;Node28 -->
<g id="edge54_Node000027_Node000028" class="edge">
<title>Node27&#45;&gt;Node28</title>
<g id="a_edge54_Node000027_Node000028"><a xlink:title=" ">
<path fill="none" stroke="#63b8ff" d="M402.57,-54.75C396.15,-47.18 386.7,-36.05 378.88,-26.84"/>
<polygon fill="#63b8ff" stroke="#63b8ff" points="381.44,-24.45 372.3,-19.09 376.1,-28.98 381.44,-24.45"/>
</a>
</g>
</g>
<!-- Node29 -->
<g id="Node000029" class="node">
<title>Node29</title>
<g id="a_Node000029"><a xlink:title=" ">
<polygon fill="#e0e0e0" stroke="#999999" points="461,-19 399,-19 399,0 461,0 461,-19"/>
<text text-anchor="middle" x="430" y="-7" font-family="Helvetica,sans-Serif" font-size="10.00">semphr.h</text>
</a>
</g>
</g>
<!-- Node27&#45;&gt;Node29 -->
<g id="edge55_Node000027_Node000029" class="edge">
<title>Node27&#45;&gt;Node29</title>
<g id="a_edge55_Node000027_Node000029"><a xlink:title=" ">
<path fill="none" stroke="#63b8ff" d="M413.31,-54.75C415.98,-47.65 419.85,-37.4 423.19,-28.56"/>
<polygon fill="#63b8ff" stroke="#63b8ff" points="426.51,-29.68 426.76,-19.09 419.96,-27.21 426.51,-29.68"/>
</a>
</g>
</g>
<!-- Node30&#45;&gt;Node2 -->
<g id="edge62_Node000030_Node000002" class="edge">
<title>Node30&#45;&gt;Node2</title>
<g id="a_edge62_Node000030_Node000002"><a xlink:title=" ">
<path fill="none" stroke="#63b8ff" d="M1184.16,-219.88C1205.68,-208.86 1236.22,-188.39 1225,-165 1191.24,-94.59 1159.7,-85.94 1088,-55 1037.69,-33.29 877.76,-18.8 804.86,-13.15"/>
<polygon fill="#63b8ff" stroke="#63b8ff" points="804.99,-9.65 794.76,-12.38 804.46,-16.63 804.99,-9.65"/>
</a>
</g>
</g>
<!-- Node31 -->
<g id="Node000031" class="node">
<title>Node31</title>
<g id="a_Node000031"><a xlink:href="stdlib_8h.html" target="_top" xlink:title=" ">
<polygon fill="white" stroke="#666666" points="1216,-184 1140,-184 1140,-165 1216,-165 1216,-184"/>
<text text-anchor="middle" x="1178" y="-172" font-family="Helvetica,sans-Serif" font-size="10.00">pico/stdlib.h</text>
</a>
</g>
</g>
<!-- Node30&#45;&gt;Node31 -->
<g id="edge60_Node000030_Node000031" class="edge">
<title>Node30&#45;&gt;Node31</title>
<g id="a_edge60_Node000030_Node000031"><a xlink:title=" ">
<path fill="none" stroke="#63b8ff" d="M1167.15,-219.75C1168.87,-212.72 1171.35,-202.62 1173.5,-193.84"/>
<polygon fill="#63b8ff" stroke="#63b8ff" points="1176.91,-194.63 1175.9,-184.09 1170.11,-192.97 1176.91,-194.63"/>
</a>
</g>
</g>
<!-- Node32 -->
<g id="Node000032" class="node">
<title>Node32</title>
<g id="a_Node000032"><a xlink:title=" ">
<polygon fill="#e0e0e0" stroke="#999999" points="1122,-184 1018,-184 1018,-165 1122,-165 1122,-184"/>
<text text-anchor="middle" x="1070" y="-172" font-family="Helvetica,sans-Serif" font-size="10.00">pico/binary_info.h</text>
</a>
</g>
</g>
<!-- Node30&#45;&gt;Node32 -->
<g id="edge61_Node000030_Node000032" class="edge">
<title>Node30&#45;&gt;Node32</title>
<g id="a_edge61_Node000030_Node000032"><a xlink:title=" ">
<path fill="none" stroke="#63b8ff" d="M1149.74,-219.98C1134.87,-211.69 1112.02,-198.94 1094.59,-189.22"/>
<polygon fill="#63b8ff" stroke="#63b8ff" points="1095.98,-185.99 1085.54,-184.17 1092.57,-192.1 1095.98,-185.99"/>
</a>
</g>
</g>
</g>
</svg>
