<?xml version="1.0" encoding="UTF-8" standalone="no"?>
<!DOCTYPE svg PUBLIC "-//W3C//DTD SVG 1.1//EN"
 "http://www.w3.org/Graphics/SVG/1.1/DTD/svg11.dtd">
<!-- Generated by graphviz version 12.1.2 (20240928.0832)
 -->
<!-- Title: heartbeat_job.c Pages: 1 -->
<!--zoomable 308 -->

<svg id="main" version="1.1" xmlns="http://www.w3.org/2000/svg" xmlns:xlink="http://www.w3.org/1999/xlink" xml:space="preserve" onload="init(evt)">

<style type="text/css"><![CDATA[
.node, .edge {opacity: 0.7;}
.node.selected, .edge.selected {opacity: 1;}
.edge:hover path { stroke: red; }
.edge:hover polygon { stroke: red; fill: red; }
]]></style>

<defs>
  <circle id="rim" cx="0" cy="0" r="7"/>
  <circle id="rim2" cx="0" cy="0" r="3.5"/>
  <g id="zoomPlus">
    <use xlink:href="#rim" fill="#404040"><set attributeName="fill" to="#808080" begin="zoomplus.mouseover" end="zoomplus.mouseout"/></use>
    <path d="M-4,0h8M0,-4v8" fill="none" stroke="white" stroke-width="1.5" pointer-events="none"/>
  </g>
  <g id="zoomMin">
    <use xlink:href="#rim" fill="#404040"><set attributeName="fill" to="#808080" begin="zoomminus.mouseover" end="zoomminus.mouseout"/></use>
    <path d="M-4,0h8" fill="none" stroke="white" stroke-width="1.5" pointer-events="none"/>
  </g>
  <g id="arrowUp" transform="translate(30 24)">
    <use xlink:href="#rim"/>
    <path pointer-events="none" fill="none" stroke="white" stroke-width="1.5" d="M0,-3.0v7 M-2.5,-0.5L0,-3.0L2.5,-0.5"/>
  </g>
  <g id="arrowRight" transform="rotate(90) translate(36 -43)">
    <use xlink:href="#rim"/>
    <path pointer-events="none" fill="none" stroke="white" stroke-width="1.5" d="M0,-3.0v7 M-2.5,-0.5L0,-3.0L2.5,-0.5"/>
  </g>
  <g id="arrowDown" transform="rotate(180) translate(-30 -48)">
    <use xlink:href="#rim"/>
    <path pointer-events="none" fill="none" stroke="white" stroke-width="1.5" d="M0,-3.0v7 M-2.5,-0.5L0,-3.0L2.5,-0.5"/>
  </g>
  <g id="arrowLeft" transform="rotate(270) translate(-36 17)">
    <use xlink:href="#rim"/>
    <path pointer-events="none" fill="none" stroke="white" stroke-width="1.5" d="M0,-3.0v7 M-2.5,-0.5L0,-3.0L2.5,-0.5"/>
  </g>
  <g id="resetDef">
    <use xlink:href="#rim2" fill="#404040"><set attributeName="fill" to="#808080" begin="reset.mouseover" end="reset.mouseout"/></use>
  </g>
</defs>
<script type="application/ecmascript">
var viewWidth = 1390;
var viewHeight = 308;
var sectionId = 'dynsection-0';
</script>
<script type="application/ecmascript" xlink:href="svg.min.js"/>
<svg id="graph" class="graph">
<g id="viewport">
<title>heartbeat_job.c</title>
<!-- Node1 -->
<g id="Node000001" class="node">
<title>Node1</title>
<g id="a_Node000001"><a xlink:title=" ">
<polygon fill="#999999" stroke="#666666" points="938.38,-300 855.62,-300 855.62,-280 938.38,-280 938.38,-300"/>
<text text-anchor="middle" x="897" y="-286.5" font-family="Helvetica,sans-Serif" font-size="10.00">heartbeat_job.c</text>
</a>
</g>
</g>
<!-- Node2 -->
<g id="Node000002" class="node">
<title>Node2</title>
<g id="a_Node000002"><a xlink:title=" ">
<polygon fill="#e0e0e0" stroke="#999999" points="310.12,-20 261.88,-20 261.88,0 310.12,0 310.12,-20"/>
<text text-anchor="middle" x="286" y="-6.5" font-family="Helvetica,sans-Serif" font-size="10.00">stdint.h</text>
</a>
</g>
</g>
<!-- Node1&#45;&gt;Node2 -->
<g id="edge1_Node000001_Node000002" class="edge">
<title>Node1&#45;&gt;Node2</title>
<g id="a_edge1_Node000001_Node000002"><a xlink:title=" ">
<path fill="none" stroke="#63b8ff" d="M855.24,-288.33C678.36,-284.96 0,-266.32 0,-179 0,-179 0,-179 0,-121 0,-85.86 15.51,-75.11 45,-56 78.42,-34.35 191.73,-20.31 250.3,-14.32"/>
<polygon fill="#63b8ff" stroke="#63b8ff" points="250.47,-17.82 260.07,-13.35 249.77,-10.85 250.47,-17.82"/>
</a>
</g>
</g>
<!-- Node3 -->
<g id="Node000003" class="node">
<title>Node3</title>
<g id="a_Node000003"><a xlink:href="stdio_8h.html" target="_top" xlink:title=" ">
<polygon fill="white" stroke="#666666" points="1066.62,-244 1021.38,-244 1021.38,-224 1066.62,-224 1066.62,-244"/>
<text text-anchor="middle" x="1044" y="-230.5" font-family="Helvetica,sans-Serif" font-size="10.00">stdio.h</text>
</a>
</g>
</g>
<!-- Node1&#45;&gt;Node3 -->
<g id="edge2_Node000001_Node000003" class="edge">
<title>Node1&#45;&gt;Node3</title>
<g id="a_edge2_Node000001_Node000003"><a xlink:title=" ">
<path fill="none" stroke="#63b8ff" d="M922.61,-279.59C946.93,-270.66 983.66,-257.17 1010.35,-247.36"/>
<polygon fill="#63b8ff" stroke="#63b8ff" points="1011.5,-250.67 1019.68,-243.93 1009.09,-244.1 1011.5,-250.67"/>
</a>
</g>
</g>
<!-- Node4 -->
<g id="Node000004" class="node">
<title>Node4</title>
<g id="a_Node000004"><a xlink:title=" ">
<polygon fill="#e0e0e0" stroke="#999999" points="843.38,-20 772.62,-20 772.62,0 843.38,0 843.38,-20"/>
<text text-anchor="middle" x="808" y="-6.5" font-family="Helvetica,sans-Serif" font-size="10.00">FreeRTOS.h</text>
</a>
</g>
</g>
<!-- Node1&#45;&gt;Node4 -->
<g id="edge3_Node000001_Node000004" class="edge">
<title>Node1&#45;&gt;Node4</title>
<g id="a_edge3_Node000001_Node000004"><a xlink:title=" ">
<path fill="none" stroke="#63b8ff" d="M899.87,-279.69C905.4,-260.86 917,-216.85 917,-179 917,-179 917,-179 917,-121 917,-76.36 871.15,-43.36 838.93,-25.67"/>
<polygon fill="#63b8ff" stroke="#63b8ff" points="840.84,-22.72 830.36,-21.17 837.59,-28.92 840.84,-22.72"/>
</a>
</g>
</g>
<!-- Node5 -->
<g id="Node000005" class="node">
<title>Node5</title>
<g id="a_Node000005"><a xlink:title=" ">
<polygon fill="#e0e0e0" stroke="#999999" points="912.25,-20 861.75,-20 861.75,0 912.25,0 912.25,-20"/>
<text text-anchor="middle" x="887" y="-6.5" font-family="Helvetica,sans-Serif" font-size="10.00">queue.h</text>
</a>
</g>
</g>
<!-- Node1&#45;&gt;Node5 -->
<g id="edge4_Node000001_Node000005" class="edge">
<title>Node1&#45;&gt;Node5</title>
<g id="a_edge4_Node000001_Node000005"><a xlink:title=" ">
<path fill="none" stroke="#63b8ff" d="M906.06,-279.58C922.38,-261.6 955,-220.45 955,-179 955,-179 955,-179 955,-121 955,-90.2 947.46,-82.03 931,-56 924.48,-45.69 915.28,-35.82 906.98,-27.96"/>
<polygon fill="#63b8ff" stroke="#63b8ff" points="909.38,-25.41 899.61,-21.31 904.69,-30.61 909.38,-25.41"/>
</a>
</g>
</g>
<!-- Node6 -->
<g id="Node000006" class="node">
<title>Node6</title>
<g id="a_Node000006"><a xlink:title=" ">
<polygon fill="#e0e0e0" stroke="#999999" points="993.5,-20 950.5,-20 950.5,0 993.5,0 993.5,-20"/>
<text text-anchor="middle" x="972" y="-6.5" font-family="Helvetica,sans-Serif" font-size="10.00">task.h</text>
</a>
</g>
</g>
<!-- Node1&#45;&gt;Node6 -->
<g id="edge5_Node000001_Node000006" class="edge">
<title>Node1&#45;&gt;Node6</title>
<g id="a_edge5_Node000001_Node000006"><a xlink:title=" ">
<path fill="none" stroke="#63b8ff" d="M914.16,-279.66C941.78,-263.25 993,-226.4 993,-179 993,-179 993,-179 993,-121 993,-89.16 984.41,-53.04 978.21,-31.15"/>
<polygon fill="#63b8ff" stroke="#63b8ff" points="981.63,-30.35 975.44,-21.75 974.92,-32.34 981.63,-30.35"/>
</a>
</g>
</g>
<!-- Node7 -->
<g id="Node000007" class="node">
<title>Node7</title>
<g id="a_Node000007"><a xlink:href="state_8h.html" target="_top" xlink:title=" ">
<polygon fill="white" stroke="#666666" points="1131,-244 1085,-244 1085,-224 1131,-224 1131,-244"/>
<text text-anchor="middle" x="1108" y="-230.5" font-family="Helvetica,sans-Serif" font-size="10.00">state.h</text>
</a>
</g>
</g>
<!-- Node1&#45;&gt;Node7 -->
<g id="edge6_Node000001_Node000007" class="edge">
<title>Node1&#45;&gt;Node7</title>
<g id="a_edge6_Node000001_Node000007"><a xlink:title=" ">
<path fill="none" stroke="#63b8ff" d="M935.84,-279.57C969.81,-271.24 1020.75,-258.59 1073.65,-244.58"/>
<polygon fill="#63b8ff" stroke="#63b8ff" points="1074.37,-248 1083.14,-242.05 1072.58,-241.24 1074.37,-248"/>
</a>
</g>
</g>
<!-- Node8 -->
<g id="Node000008" class="node">
<title>Node8</title>
<g id="a_Node000008"><a xlink:href="telemetry_8h.html" target="_top" xlink:title=" ">
<polygon fill="white" stroke="#666666" points="840,-76 776,-76 776,-56 840,-56 840,-76"/>
<text text-anchor="middle" x="808" y="-62.5" font-family="Helvetica,sans-Serif" font-size="10.00">telemetry.h</text>
</a>
</g>
</g>
<!-- Node1&#45;&gt;Node8 -->
<g id="edge7_Node000001_Node000008" class="edge">
<title>Node1&#45;&gt;Node8</title>
<g id="a_edge7_Node000001_Node000008"><a xlink:title=" ">
<path fill="none" stroke="#63b8ff" d="M888.91,-279.72C874.61,-262.76 844.93,-225.09 830,-188 816.49,-154.44 811.22,-112.29 809.21,-87.63"/>
<polygon fill="#63b8ff" stroke="#63b8ff" points="812.72,-87.7 808.53,-77.97 805.74,-88.19 812.72,-87.7"/>
</a>
</g>
</g>
<!-- Node9 -->
<g id="Node000009" class="node">
<title>Node9</title>
<g id="a_Node000009"><a xlink:href="ina219_8h.html" target="_top" xlink:title=" ">
<polygon fill="white" stroke="#666666" points="428.38,-188 375.62,-188 375.62,-168 428.38,-168 428.38,-188"/>
<text text-anchor="middle" x="402" y="-174.5" font-family="Helvetica,sans-Serif" font-size="10.00">ina219.h</text>
</a>
</g>
</g>
<!-- Node1&#45;&gt;Node9 -->
<g id="edge10_Node000001_Node000009" class="edge">
<title>Node1&#45;&gt;Node9</title>
<g id="a_edge10_Node000001_Node000009"><a xlink:title=" ">
<path fill="none" stroke="#63b8ff" d="M855.15,-282.69C804.79,-274.84 717.81,-260.44 644,-244 571.04,-227.74 486.99,-204.03 439.62,-190.19"/>
<polygon fill="#63b8ff" stroke="#63b8ff" points="440.7,-186.86 430.12,-187.4 438.73,-193.58 440.7,-186.86"/>
</a>
</g>
</g>
<!-- Node13 -->
<g id="Node000013" class="node">
<title>Node13</title>
<g id="a_Node000013"><a xlink:href="mag__lis3mdltr_8h.html" target="_top" xlink:title=" ">
<polygon fill="white" stroke="#666666" points="211.5,-188 126.5,-188 126.5,-168 211.5,-168 211.5,-188"/>
<text text-anchor="middle" x="169" y="-174.5" font-family="Helvetica,sans-Serif" font-size="10.00">mag_lis3mdltr.h</text>
</a>
</g>
</g>
<!-- Node1&#45;&gt;Node13 -->
<g id="edge15_Node000001_Node000013" class="edge">
<title>Node1&#45;&gt;Node13</title>
<g id="a_edge15_Node000001_Node000013"><a xlink:title=" ">
<path fill="none" stroke="#63b8ff" d="M855.33,-287.85C738.3,-284.29 408.33,-272 304,-244 263.15,-233.04 219.73,-209.78 193.49,-194.27"/>
<polygon fill="#63b8ff" stroke="#63b8ff" points="195.33,-191.29 184.96,-189.13 191.72,-197.29 195.33,-191.29"/>
</a>
</g>
</g>
<!-- Node17 -->
<g id="Node000017" class="node">
<title>Node17</title>
<g id="a_Node000017"><a xlink:href="rtc__ds3231_8h.html" target="_top" xlink:title=" ">
<polygon fill="white" stroke="#666666" points="384.12,-132 311.88,-132 311.88,-112 384.12,-112 384.12,-132"/>
<text text-anchor="middle" x="348" y="-118.5" font-family="Helvetica,sans-Serif" font-size="10.00">rtc_ds3231.h</text>
</a>
</g>
</g>
<!-- Node1&#45;&gt;Node17 -->
<g id="edge27_Node000001_Node000017" class="edge">
<title>Node1&#45;&gt;Node17</title>
<g id="a_edge27_Node000001_Node000017"><a xlink:title=" ">
<path fill="none" stroke="#63b8ff" d="M855.36,-286.94C742.74,-280.48 435.95,-256.82 367,-188 355.29,-176.31 350.71,-157.82 348.96,-143.55"/>
<polygon fill="#63b8ff" stroke="#63b8ff" points="352.48,-143.55 348.17,-133.87 345.5,-144.13 352.48,-143.55"/>
</a>
</g>
</g>
<!-- Node18 -->
<g id="Node000018" class="node">
<title>Node18</title>
<g id="a_Node000018"><a xlink:href="timing_8h.html" target="_top" xlink:title=" ">
<polygon fill="white" stroke="#666666" points="889.25,-188 838.75,-188 838.75,-168 889.25,-168 889.25,-188"/>
<text text-anchor="middle" x="864" y="-174.5" font-family="Helvetica,sans-Serif" font-size="10.00">timing.h</text>
</a>
</g>
</g>
<!-- Node1&#45;&gt;Node18 -->
<g id="edge30_Node000001_Node000018" class="edge">
<title>Node1&#45;&gt;Node18</title>
<g id="a_edge30_Node000001_Node000018"><a xlink:title=" ">
<path fill="none" stroke="#63b8ff" d="M894.19,-279.62C888.88,-261.92 877.27,-223.24 870.1,-199.32"/>
<polygon fill="#63b8ff" stroke="#63b8ff" points="873.47,-198.38 867.24,-189.8 866.76,-200.39 873.47,-198.38"/>
</a>
</g>
</g>
<!-- Node19 -->
<g id="Node000019" class="node">
<title>Node19</title>
<g id="a_Node000019"><a xlink:href="vega__ant_8h.html" target="_top" xlink:title=" ">
<polygon fill="white" stroke="#666666" points="309,-188 245,-188 245,-168 309,-168 309,-188"/>
<text text-anchor="middle" x="277" y="-174.5" font-family="Helvetica,sans-Serif" font-size="10.00">vega_ant.h</text>
</a>
</g>
</g>
<!-- Node1&#45;&gt;Node19 -->
<g id="edge32_Node000001_Node000019" class="edge">
<title>Node1&#45;&gt;Node19</title>
<g id="a_edge32_Node000001_Node000019"><a xlink:title=" ">
<path fill="none" stroke="#63b8ff" d="M855.48,-289.66C741.36,-290.87 425.35,-289.87 334,-244 313.73,-233.82 297.53,-213.01 287.65,-197.66"/>
<polygon fill="#63b8ff" stroke="#63b8ff" points="290.82,-196.14 282.64,-189.41 284.84,-199.77 290.82,-196.14"/>
</a>
</g>
</g>
<!-- Node20 -->
<g id="Node000020" class="node">
<title>Node20</title>
<g id="a_Node000020"><a xlink:href="heartbeat__job_8h.html" target="_top" xlink:title=" ">
<polygon fill="white" stroke="#666666" points="1231.38,-244 1148.62,-244 1148.62,-224 1231.38,-224 1231.38,-244"/>
<text text-anchor="middle" x="1190" y="-230.5" font-family="Helvetica,sans-Serif" font-size="10.00">heartbeat_job.h</text>
</a>
</g>
</g>
<!-- Node1&#45;&gt;Node20 -->
<g id="edge38_Node000001_Node000020" class="edge">
<title>Node1&#45;&gt;Node20</title>
<g id="a_edge38_Node000001_Node000020"><a xlink:title=" ">
<path fill="none" stroke="#63b8ff" d="M938.67,-281.32C990.85,-271.7 1080.28,-255.22 1137.2,-244.73"/>
<polygon fill="#63b8ff" stroke="#63b8ff" points="1137.79,-248.18 1146.99,-242.93 1136.52,-241.3 1137.79,-248.18"/>
</a>
</g>
</g>
<!-- Node21 -->
<g id="Node000021" class="node">
<title>Node21</title>
<g id="a_Node000021"><a xlink:title=" ">
<polygon fill="#e0e0e0" stroke="#999999" points="1294.62,-244 1249.38,-244 1249.38,-224 1294.62,-224 1294.62,-244"/>
<text text-anchor="middle" x="1272" y="-230.5" font-family="Helvetica,sans-Serif" font-size="10.00">radio.h</text>
</a>
</g>
</g>
<!-- Node1&#45;&gt;Node21 -->
<g id="edge39_Node000001_Node000021" class="edge">
<title>Node1&#45;&gt;Node21</title>
<g id="a_edge39_Node000001_Node000021"><a xlink:title=" ">
<path fill="none" stroke="#63b8ff" d="M938.77,-285.47C1001.65,-279.74 1124.49,-266.89 1238.07,-244.12"/>
<polygon fill="#63b8ff" stroke="#63b8ff" points="1238.44,-247.62 1247.54,-242.19 1237.04,-240.76 1238.44,-247.62"/>
</a>
</g>
</g>
<!-- Node22 -->
<g id="Node000022" class="node">
<title>Node22</title>
<g id="a_Node000022"><a xlink:title=" ">
<polygon fill="#e0e0e0" stroke="#999999" points="1381.62,-244 1312.38,-244 1312.38,-224 1381.62,-224 1381.62,-244"/>
<text text-anchor="middle" x="1347" y="-230.5" font-family="Helvetica,sans-Serif" font-size="10.00">max17048.h</text>
</a>
</g>
</g>
<!-- Node1&#45;&gt;Node22 -->
<g id="edge40_Node000001_Node000022" class="edge">
<title>Node1&#45;&gt;Node22</title>
<g id="a_edge40_Node000001_Node000022"><a xlink:title=" ">
<path fill="none" stroke="#63b8ff" d="M938.78,-285.72C1010.76,-279.77 1163.01,-265.93 1301.13,-244.33"/>
<polygon fill="#63b8ff" stroke="#63b8ff" points="1301.49,-247.82 1310.82,-242.79 1300.4,-240.9 1301.49,-247.82"/>
</a>
</g>
</g>
<!-- Node23 -->
<g id="Node000023" class="node">
<title>Node23</title>
<g id="a_Node000023"><a xlink:href="hb__tlm__log_8h.html" target="_top" xlink:title=" ">
<polygon fill="white" stroke="#666666" points="724.75,-244 653.25,-244 653.25,-224 724.75,-224 724.75,-244"/>
<text text-anchor="middle" x="689" y="-230.5" font-family="Helvetica,sans-Serif" font-size="10.00">hb_tlm_log.h</text>
</a>
</g>
</g>
<!-- Node1&#45;&gt;Node23 -->
<g id="edge41_Node000001_Node000023" class="edge">
<title>Node1&#45;&gt;Node23</title>
<g id="a_edge41_Node000001_Node000023"><a xlink:title=" ">
<path fill="none" stroke="#63b8ff" d="M860.77,-279.59C826.13,-270.6 773.72,-256.99 735.9,-247.18"/>
<polygon fill="#63b8ff" stroke="#63b8ff" points="737.19,-243.89 726.63,-244.77 735.43,-250.67 737.19,-243.89"/>
</a>
</g>
</g>
<!-- Node8&#45;&gt;Node4 -->
<g id="edge8_Node000008_Node000004" class="edge">
<title>Node8&#45;&gt;Node4</title>
<g id="a_edge8_Node000008_Node000004"><a xlink:title=" ">
<path fill="none" stroke="#63b8ff" d="M808,-55.59C808,-49.01 808,-39.96 808,-31.73"/>
<polygon fill="#63b8ff" stroke="#63b8ff" points="811.5,-31.81 808,-21.81 804.5,-31.81 811.5,-31.81"/>
</a>
</g>
</g>
<!-- Node8&#45;&gt;Node5 -->
<g id="edge9_Node000008_Node000005" class="edge">
<title>Node8&#45;&gt;Node5</title>
<g id="a_edge9_Node000008_Node000005"><a xlink:title=" ">
<path fill="none" stroke="#63b8ff" d="M821.76,-55.59C833.36,-47.67 850.2,-36.16 863.86,-26.82"/>
<polygon fill="#63b8ff" stroke="#63b8ff" points="865.6,-29.87 871.88,-21.33 861.65,-24.09 865.6,-29.87"/>
</a>
</g>
</g>
<!-- Node10 -->
<g id="Node000010" class="node">
<title>Node10</title>
<g id="a_Node000010"><a xlink:href="simulator_2pico-sdk_2hardware_2i2c_8h.html" target="_top" xlink:title=" ">
<polygon fill="white" stroke="#666666" points="325.88,-76 246.12,-76 246.12,-56 325.88,-56 325.88,-76"/>
<text text-anchor="middle" x="286" y="-62.5" font-family="Helvetica,sans-Serif" font-size="10.00">hardware/i2c.h</text>
</a>
</g>
</g>
<!-- Node9&#45;&gt;Node10 -->
<g id="edge11_Node000009_Node000010" class="edge">
<title>Node9&#45;&gt;Node10</title>
<g id="a_edge11_Node000009_Node000010"><a xlink:title=" ">
<path fill="none" stroke="#63b8ff" d="M403.39,-167.51C404.87,-153.79 405.49,-128.26 393,-112 379.37,-94.26 357.43,-83.44 336.95,-76.88"/>
<polygon fill="#63b8ff" stroke="#63b8ff" points="338.15,-73.58 327.57,-74.16 336.2,-80.3 338.15,-73.58"/>
</a>
</g>
</g>
<!-- Node10&#45;&gt;Node2 -->
<g id="edge12_Node000010_Node000002" class="edge">
<title>Node10&#45;&gt;Node2</title>
<g id="a_edge12_Node000010_Node000002"><a xlink:title=" ">
<path fill="none" stroke="#63b8ff" d="M286,-55.59C286,-49.01 286,-39.96 286,-31.73"/>
<polygon fill="#63b8ff" stroke="#63b8ff" points="289.5,-31.81 286,-21.81 282.5,-31.81 289.5,-31.81"/>
</a>
</g>
</g>
<!-- Node11 -->
<g id="Node000011" class="node">
<title>Node11</title>
<g id="a_Node000011"><a xlink:title=" ">
<polygon fill="#e0e0e0" stroke="#999999" points="632.62,-20 581.38,-20 581.38,0 632.62,0 632.62,-20"/>
<text text-anchor="middle" x="607" y="-6.5" font-family="Helvetica,sans-Serif" font-size="10.00">stddef.h</text>
</a>
</g>
</g>
<!-- Node10&#45;&gt;Node11 -->
<g id="edge13_Node000010_Node000011" class="edge">
<title>Node10&#45;&gt;Node11</title>
<g id="a_edge13_Node000010_Node000011"><a xlink:title=" ">
<path fill="none" stroke="#63b8ff" d="M326.01,-59.93C379.39,-52.91 477.07,-39.12 570.05,-20.23"/>
<polygon fill="#63b8ff" stroke="#63b8ff" points="570.5,-23.71 579.59,-18.27 569.09,-16.85 570.5,-23.71"/>
</a>
</g>
</g>
<!-- Node12 -->
<g id="Node000012" class="node">
<title>Node12</title>
<g id="a_Node000012"><a xlink:title=" ">
<polygon fill="#e0e0e0" stroke="#999999" points="562.88,-20 507.12,-20 507.12,0 562.88,0 562.88,-20"/>
<text text-anchor="middle" x="535" y="-6.5" font-family="Helvetica,sans-Serif" font-size="10.00">stdbool.h</text>
</a>
</g>
</g>
<!-- Node10&#45;&gt;Node12 -->
<g id="edge14_Node000010_Node000012" class="edge">
<title>Node10&#45;&gt;Node12</title>
<g id="a_edge14_Node000010_Node000012"><a xlink:title=" ">
<path fill="none" stroke="#63b8ff" d="M326.28,-56.26C372.98,-46.14 449.43,-29.56 495.7,-19.52"/>
<polygon fill="#63b8ff" stroke="#63b8ff" points="496.27,-22.98 505.3,-17.44 494.78,-16.14 496.27,-22.98"/>
</a>
</g>
</g>
<!-- Node13&#45;&gt;Node2 -->
<g id="edge19_Node000013_Node000002" class="edge">
<title>Node13&#45;&gt;Node2</title>
<g id="a_edge19_Node000013_Node000002"><a xlink:title=" ">
<path fill="none" stroke="#63b8ff" d="M148.19,-167.62C106.81,-147.73 21.18,-99.55 57,-56 81.08,-26.73 192.29,-16.21 250.41,-12.66"/>
<polygon fill="#63b8ff" stroke="#63b8ff" points="250.32,-16.17 260.1,-12.11 249.92,-9.18 250.32,-16.17"/>
</a>
</g>
</g>
<!-- Node13&#45;&gt;Node10 -->
<g id="edge16_Node000013_Node000010" class="edge">
<title>Node13&#45;&gt;Node10</title>
<g id="a_edge16_Node000013_Node000010"><a xlink:title=" ">
<path fill="none" stroke="#63b8ff" d="M178.98,-167.62C198.66,-149.11 242.77,-107.65 267.78,-84.13"/>
<polygon fill="#63b8ff" stroke="#63b8ff" points="270.06,-86.79 274.95,-77.39 265.26,-81.69 270.06,-86.79"/>
</a>
</g>
</g>
<!-- Node14 -->
<g id="Node000014" class="node">
<title>Node14</title>
<g id="a_Node000014"><a xlink:href="gpio_8h.html" target="_top" xlink:title=" ">
<polygon fill="white" stroke="#666666" points="151.5,-76 66.5,-76 66.5,-56 151.5,-56 151.5,-76"/>
<text text-anchor="middle" x="109" y="-62.5" font-family="Helvetica,sans-Serif" font-size="10.00">hardware/gpio.h</text>
</a>
</g>
</g>
<!-- Node13&#45;&gt;Node14 -->
<g id="edge17_Node000013_Node000014" class="edge">
<title>Node13&#45;&gt;Node14</title>
<g id="a_edge17_Node000013_Node000014"><a xlink:title=" ">
<path fill="none" stroke="#63b8ff" d="M143.14,-167.56C127.61,-160.39 109.13,-148.85 100,-132 92.53,-118.21 95.7,-100.45 100.22,-86.98"/>
<polygon fill="#63b8ff" stroke="#63b8ff" points="103.4,-88.46 103.76,-77.87 96.88,-85.92 103.4,-88.46"/>
</a>
</g>
</g>
<!-- Node15 -->
<g id="Node000015" class="node">
<title>Node15</title>
<g id="a_Node000015"><a xlink:href="log_8h.html" target="_top" xlink:title=" ">
<polygon fill="white" stroke="#666666" points="638.5,-132 601.5,-132 601.5,-112 638.5,-112 638.5,-132"/>
<text text-anchor="middle" x="620" y="-118.5" font-family="Helvetica,sans-Serif" font-size="10.00">log.h</text>
</a>
</g>
</g>
<!-- Node13&#45;&gt;Node15 -->
<g id="edge20_Node000013_Node000015" class="edge">
<title>Node13&#45;&gt;Node15</title>
<g id="a_edge20_Node000013_Node000015"><a xlink:title=" ">
<path fill="none" stroke="#63b8ff" d="M211.86,-171.03C219.88,-169.97 228.19,-168.92 236,-168 390.82,-149.8 435.09,-164.72 590.38,-132.16"/>
<polygon fill="#63b8ff" stroke="#63b8ff" points="590.73,-135.66 599.78,-130.15 589.27,-128.81 590.73,-135.66"/>
</a>
</g>
</g>
<!-- Node16 -->
<g id="Node000016" class="node">
<title>Node16</title>
<g id="a_Node000016"><a xlink:href="drivers_2include_2i2c_8h.html" target="_top" xlink:title=" ">
<polygon fill="white" stroke="#666666" points="179.5,-132 142.5,-132 142.5,-112 179.5,-112 179.5,-132"/>
<text text-anchor="middle" x="161" y="-118.5" font-family="Helvetica,sans-Serif" font-size="10.00">i2c.h</text>
</a>
</g>
</g>
<!-- Node13&#45;&gt;Node16 -->
<g id="edge23_Node000013_Node000016" class="edge">
<title>Node13&#45;&gt;Node16</title>
<g id="a_edge23_Node000013_Node000016"><a xlink:title=" ">
<path fill="none" stroke="#63b8ff" d="M167.61,-167.59C166.62,-160.93 165.26,-151.75 164.03,-143.44"/>
<polygon fill="#63b8ff" stroke="#63b8ff" points="167.53,-143.17 162.6,-133.8 160.6,-144.2 167.53,-143.17"/>
</a>
</g>
</g>
<!-- Node14&#45;&gt;Node2 -->
<g id="edge18_Node000014_Node000002" class="edge">
<title>Node14&#45;&gt;Node2</title>
<g id="a_edge18_Node000014_Node000002"><a xlink:title=" ">
<path fill="none" stroke="#63b8ff" d="M139.83,-55.59C170.75,-46.16 218.31,-31.65 250.72,-21.76"/>
<polygon fill="#63b8ff" stroke="#63b8ff" points="251.51,-25.18 260.05,-18.92 249.47,-18.49 251.51,-25.18"/>
</a>
</g>
</g>
<!-- Node15&#45;&gt;Node8 -->
<g id="edge21_Node000015_Node000008" class="edge">
<title>Node15&#45;&gt;Node8</title>
<g id="a_edge21_Node000015_Node000008"><a xlink:title=" ">
<path fill="none" stroke="#63b8ff" d="M638.71,-115.62C667.85,-107.25 724.86,-90.88 764.63,-79.46"/>
<polygon fill="#63b8ff" stroke="#63b8ff" points="765.5,-82.85 774.15,-76.72 763.57,-76.12 765.5,-82.85"/>
</a>
</g>
</g>
<!-- Node15&#45;&gt;Node12 -->
<g id="edge22_Node000015_Node000012" class="edge">
<title>Node15&#45;&gt;Node12</title>
<g id="a_edge22_Node000015_Node000012"><a xlink:title=" ">
<path fill="none" stroke="#63b8ff" d="M612.75,-111.62C598.7,-93.44 567.53,-53.09 549.21,-29.38"/>
<polygon fill="#63b8ff" stroke="#63b8ff" points="552.04,-27.33 543.15,-21.55 546.5,-31.61 552.04,-27.33"/>
</a>
</g>
</g>
<!-- Node16&#45;&gt;Node2 -->
<g id="edge26_Node000016_Node000002" class="edge">
<title>Node16&#45;&gt;Node2</title>
<g id="a_edge26_Node000016_Node000002"><a xlink:title=" ">
<path fill="none" stroke="#63b8ff" d="M165.38,-111.58C172.1,-97.93 186.08,-72.5 204,-56 217.88,-43.22 236.05,-32.77 251.76,-25.17"/>
<polygon fill="#63b8ff" stroke="#63b8ff" points="253.17,-28.37 260.79,-21 250.24,-22.02 253.17,-28.37"/>
</a>
</g>
</g>
<!-- Node16&#45;&gt;Node10 -->
<g id="edge24_Node000016_Node000010" class="edge">
<title>Node16&#45;&gt;Node10</title>
<g id="a_edge24_Node000016_Node000010"><a xlink:title=" ">
<path fill="none" stroke="#63b8ff" d="M179.98,-112.8C199.56,-104.34 230.44,-91 253.83,-80.9"/>
<polygon fill="#63b8ff" stroke="#63b8ff" points="255.13,-84.15 262.92,-76.97 252.35,-77.72 255.13,-84.15"/>
</a>
</g>
</g>
<!-- Node16&#45;&gt;Node14 -->
<g id="edge25_Node000016_Node000014" class="edge">
<title>Node16&#45;&gt;Node14</title>
<g id="a_edge25_Node000016_Node000014"><a xlink:title=" ">
<path fill="none" stroke="#63b8ff" d="M151.94,-111.59C144.78,-104.16 134.59,-93.58 125.93,-84.58"/>
<polygon fill="#63b8ff" stroke="#63b8ff" points="128.46,-82.16 119,-77.39 123.42,-87.02 128.46,-82.16"/>
</a>
</g>
</g>
<!-- Node17&#45;&gt;Node2 -->
<g id="edge29_Node000017_Node000002" class="edge">
<title>Node17&#45;&gt;Node2</title>
<g id="a_edge29_Node000017_Node000002"><a xlink:title=" ">
<path fill="none" stroke="#63b8ff" d="M347.91,-111.55C347.41,-98.3 345.05,-73.85 335,-56 328.71,-44.83 318.66,-34.88 309.3,-27.2"/>
<polygon fill="#63b8ff" stroke="#63b8ff" points="311.59,-24.55 301.53,-21.24 307.33,-30.1 311.59,-24.55"/>
</a>
</g>
</g>
<!-- Node17&#45;&gt;Node10 -->
<g id="edge28_Node000017_Node000010" class="edge">
<title>Node17&#45;&gt;Node10</title>
<g id="a_edge28_Node000017_Node000010"><a xlink:title=" ">
<path fill="none" stroke="#63b8ff" d="M337.2,-111.59C328.4,-103.93 315.75,-92.91 305.23,-83.75"/>
<polygon fill="#63b8ff" stroke="#63b8ff" points="307.66,-81.22 297.82,-77.29 303.06,-86.5 307.66,-81.22"/>
</a>
</g>
</g>
<!-- Node18&#45;&gt;Node4 -->
<g id="edge31_Node000018_Node000004" class="edge">
<title>Node18&#45;&gt;Node4</title>
<g id="a_edge31_Node000018_Node000004"><a xlink:title=" ">
<path fill="none" stroke="#63b8ff" d="M864.7,-167.68C865.9,-146.68 866.69,-94.46 849,-56 844.19,-45.54 836.04,-35.83 828.27,-28.12"/>
<polygon fill="#63b8ff" stroke="#63b8ff" points="830.69,-25.59 820.97,-21.38 825.94,-30.73 830.69,-25.59"/>
</a>
</g>
</g>
<!-- Node19&#45;&gt;Node2 -->
<g id="edge35_Node000019_Node000002" class="edge">
<title>Node19&#45;&gt;Node2</title>
<g id="a_edge35_Node000019_Node000002"><a xlink:title=" ">
<path fill="none" stroke="#63b8ff" d="M269.3,-167.67C253.28,-147.07 219.29,-96.31 237,-56 242.09,-44.42 251.79,-34.51 261.22,-26.97"/>
<polygon fill="#63b8ff" stroke="#63b8ff" points="263.18,-29.87 269.17,-21.13 259.04,-24.23 263.18,-29.87"/>
</a>
</g>
</g>
<!-- Node19&#45;&gt;Node4 -->
<g id="edge37_Node000019_Node000004" class="edge">
<title>Node19&#45;&gt;Node4</title>
<g id="a_edge37_Node000019_Node000004"><a xlink:title=" ">
<path fill="none" stroke="#63b8ff" d="M309.27,-173.55C396.65,-164.14 632.34,-138.33 648,-132 678.97,-119.48 753.39,-57.77 788.73,-27.63"/>
<polygon fill="#63b8ff" stroke="#63b8ff" points="790.75,-30.51 796.06,-21.34 786.19,-25.19 790.75,-30.51"/>
</a>
</g>
</g>
<!-- Node19&#45;&gt;Node10 -->
<g id="edge33_Node000019_Node000010" class="edge">
<title>Node19&#45;&gt;Node10</title>
<g id="a_edge33_Node000019_Node000010"><a xlink:title=" ">
<path fill="none" stroke="#63b8ff" d="M277.77,-167.62C279.21,-150.01 282.35,-111.59 284.31,-87.65"/>
<polygon fill="#63b8ff" stroke="#63b8ff" points="287.78,-88.12 285.11,-77.86 280.81,-87.54 287.78,-88.12"/>
</a>
</g>
</g>
<!-- Node19&#45;&gt;Node14 -->
<g id="edge34_Node000019_Node000014" class="edge">
<title>Node19&#45;&gt;Node14</title>
<g id="a_edge34_Node000019_Node000014"><a xlink:title=" ">
<path fill="none" stroke="#63b8ff" d="M244.63,-170.37C207.34,-162.15 149.14,-147.34 133,-132 120.73,-120.33 114.69,-101.84 111.75,-87.56"/>
<polygon fill="#63b8ff" stroke="#63b8ff" points="115.23,-87.15 110.13,-77.87 108.33,-88.31 115.23,-87.15"/>
</a>
</g>
</g>
<!-- Node19&#45;&gt;Node16 -->
<g id="edge36_Node000019_Node000016" class="edge">
<title>Node19&#45;&gt;Node16</title>
<g id="a_edge36_Node000019_Node000016"><a xlink:title=" ">
<path fill="none" stroke="#63b8ff" d="M256.79,-167.59C238.33,-159 210.82,-146.19 190.01,-136.5"/>
<polygon fill="#63b8ff" stroke="#63b8ff" points="191.74,-133.45 181.19,-132.4 188.78,-139.79 191.74,-133.45"/>
</a>
</g>
</g>
<!-- Node23&#45;&gt;Node2 -->
<g id="edge43_Node000023_Node000002" class="edge">
<title>Node23&#45;&gt;Node2</title>
<g id="a_edge43_Node000023_Node000002"><a xlink:title=" ">
<path fill="none" stroke="#63b8ff" d="M666.49,-223.54C646.05,-214.8 615.18,-201.19 589,-188 482.08,-134.13 360.76,-58.66 310.15,-26.5"/>
<polygon fill="#63b8ff" stroke="#63b8ff" points="312.05,-23.56 301.73,-21.13 308.28,-29.46 312.05,-23.56"/>
</a>
</g>
</g>
<!-- Node23&#45;&gt;Node8 -->
<g id="edge42_Node000023_Node000008" class="edge">
<title>Node23&#45;&gt;Node8</title>
<g id="a_edge42_Node000023_Node000008"><a xlink:title=" ">
<path fill="none" stroke="#63b8ff" d="M700.51,-223.55C720.11,-206.91 760.18,-170.48 784,-132 792.63,-118.06 798.87,-100.54 802.82,-87.2"/>
<polygon fill="#63b8ff" stroke="#63b8ff" points="806.13,-88.38 805.41,-77.81 799.38,-86.53 806.13,-88.38"/>
</a>
</g>
</g>
<!-- Node24 -->
<g id="Node000024" class="node">
<title>Node24</title>
<g id="a_Node000024"><a xlink:href="command_8h.html" target="_top" xlink:title=" ">
<polygon fill="white" stroke="#666666" points="664.5,-188 597.5,-188 597.5,-168 664.5,-168 664.5,-188"/>
<text text-anchor="middle" x="631" y="-174.5" font-family="Helvetica,sans-Serif" font-size="10.00">command.h</text>
</a>
</g>
</g>
<!-- Node23&#45;&gt;Node24 -->
<g id="edge44_Node000023_Node000024" class="edge">
<title>Node23&#45;&gt;Node24</title>
<g id="a_edge44_Node000023_Node000024"><a xlink:title=" ">
<path fill="none" stroke="#63b8ff" d="M678.9,-223.59C670.75,-216.01 659.07,-205.13 649.28,-196.02"/>
<polygon fill="#63b8ff" stroke="#63b8ff" points="651.8,-193.58 642.09,-189.33 647.03,-198.71 651.8,-193.58"/>
</a>
</g>
</g>
<!-- Node24&#45;&gt;Node2 -->
<g id="edge45_Node000024_Node000002" class="edge">
<title>Node24&#45;&gt;Node2</title>
<g id="a_edge45_Node000024_Node000002"><a xlink:title=" ">
<path fill="none" stroke="#63b8ff" d="M597.02,-171.16C570.36,-165.14 533.6,-153.49 508,-132 478.11,-106.9 495.15,-79.52 464,-56 422.14,-24.38 360.53,-14.82 321.87,-12.02"/>
<polygon fill="#63b8ff" stroke="#63b8ff" points="322.12,-8.53 311.93,-11.43 321.7,-15.52 322.12,-8.53"/>
</a>
</g>
</g>
<!-- Node25 -->
<g id="Node000025" class="node">
<title>Node25</title>
<g id="a_Node000025"><a xlink:title=" ">
<polygon fill="#e0e0e0" stroke="#999999" points="774.88,-132 695.12,-132 695.12,-112 774.88,-112 774.88,-132"/>
<text text-anchor="middle" x="735" y="-118.5" font-family="Helvetica,sans-Serif" font-size="10.00">spacepacket.h</text>
</a>
</g>
</g>
<!-- Node24&#45;&gt;Node25 -->
<g id="edge46_Node000024_Node000025" class="edge">
<title>Node24&#45;&gt;Node25</title>
<g id="a_edge46_Node000024_Node000025"><a xlink:title=" ">
<path fill="none" stroke="#63b8ff" d="M649.12,-167.59C664.97,-159.36 688.28,-147.26 706.62,-137.74"/>
<polygon fill="#63b8ff" stroke="#63b8ff" points="708.14,-140.89 715.4,-133.18 704.91,-134.68 708.14,-140.89"/>
</a>
</g>
</g>
<!-- Node26 -->
<g id="Node000026" class="node">
<title>Node26</title>
<g id="a_Node000026"><a xlink:href="user__auth_8h.html" target="_top" xlink:title=" ">
<polygon fill="white" stroke="#666666" points="583.5,-132 516.5,-132 516.5,-112 583.5,-112 583.5,-132"/>
<text text-anchor="middle" x="550" y="-118.5" font-family="Helvetica,sans-Serif" font-size="10.00">user_auth.h</text>
</a>
</g>
</g>
<!-- Node24&#45;&gt;Node26 -->
<g id="edge47_Node000024_Node000026" class="edge">
<title>Node24&#45;&gt;Node26</title>
<g id="a_edge47_Node000024_Node000026"><a xlink:title=" ">
<path fill="none" stroke="#63b8ff" d="M616.89,-167.59C605,-159.67 587.73,-148.16 573.72,-138.82"/>
<polygon fill="#63b8ff" stroke="#63b8ff" points="575.74,-135.95 565.48,-133.32 571.86,-141.78 575.74,-135.95"/>
</a>
</g>
</g>
<!-- Node26&#45;&gt;Node2 -->
<g id="edge49_Node000026_Node000002" class="edge">
<title>Node26&#45;&gt;Node2</title>
<g id="a_edge49_Node000026_Node000002"><a xlink:title=" ">
<path fill="none" stroke="#63b8ff" d="M545.9,-111.77C539.02,-97.41 523.73,-69.93 502,-56 446.2,-20.23 367.15,-12.26 321.77,-10.84"/>
<polygon fill="#63b8ff" stroke="#63b8ff" points="322.04,-7.35 311.97,-10.64 321.89,-14.35 322.04,-7.35"/>
</a>
</g>
</g>
<!-- Node26&#45;&gt;Node12 -->
<g id="edge48_Node000026_Node000012" class="edge">
<title>Node26&#45;&gt;Node12</title>
<g id="a_edge48_Node000026_Node000012"><a xlink:title=" ">
<path fill="none" stroke="#63b8ff" d="M548.72,-111.62C546.32,-94.01 541.08,-55.59 537.82,-31.65"/>
<polygon fill="#63b8ff" stroke="#63b8ff" points="541.3,-31.29 536.48,-21.85 534.36,-32.24 541.3,-31.29"/>
</a>
</g>
</g>
<!-- Node27 -->
<g id="Node000027" class="node">
<title>Node27</title>
<g id="a_Node000027"><a xlink:href="filesystem_8h.html" target="_top" xlink:title=" ">
<polygon fill="white" stroke="#666666" points="699.62,-76 630.38,-76 630.38,-56 699.62,-56 699.62,-76"/>
<text text-anchor="middle" x="665" y="-62.5" font-family="Helvetica,sans-Serif" font-size="10.00">filesystem.h</text>
</a>
</g>
</g>
<!-- Node26&#45;&gt;Node27 -->
<g id="edge50_Node000026_Node000027" class="edge">
<title>Node26&#45;&gt;Node27</title>
<g id="a_edge50_Node000026_Node000027"><a xlink:title=" ">
<path fill="none" stroke="#63b8ff" d="M570.03,-111.59C587.81,-103.24 614.07,-90.92 634.46,-81.34"/>
<polygon fill="#63b8ff" stroke="#63b8ff" points="635.88,-84.54 643.44,-77.12 632.9,-78.21 635.88,-84.54"/>
</a>
</g>
</g>
<!-- Node27&#45;&gt;Node2 -->
<g id="edge57_Node000027_Node000002" class="edge">
<title>Node27&#45;&gt;Node2</title>
<g id="a_edge57_Node000027_Node000002"><a xlink:title=" ">
<path fill="none" stroke="#63b8ff" d="M630.02,-60.02C557.99,-49.75 393.76,-26.35 321.38,-16.04"/>
<polygon fill="#63b8ff" stroke="#63b8ff" points="322.07,-12.6 311.67,-14.66 321.08,-19.53 322.07,-12.6"/>
</a>
</g>
</g>
<!-- Node27&#45;&gt;Node4 -->
<g id="edge51_Node000027_Node000004" class="edge">
<title>Node27&#45;&gt;Node4</title>
<g id="a_edge51_Node000027_Node000004"><a xlink:title=" ">
<path fill="none" stroke="#63b8ff" d="M689.91,-55.59C712.73,-46.97 746.78,-34.12 772.46,-24.42"/>
<polygon fill="#63b8ff" stroke="#63b8ff" points="773.36,-27.82 781.48,-21.01 770.89,-21.27 773.36,-27.82"/>
</a>
</g>
</g>
<!-- Node27&#45;&gt;Node5 -->
<g id="edge52_Node000027_Node000005" class="edge">
<title>Node27&#45;&gt;Node5</title>
<g id="a_edge52_Node000027_Node000005"><a xlink:title=" ">
<path fill="none" stroke="#63b8ff" d="M699.85,-56.78C735.23,-48.41 791.89,-34.89 850.45,-20.36"/>
<polygon fill="#63b8ff" stroke="#63b8ff" points="851.07,-23.81 859.93,-18 849.38,-17.02 851.07,-23.81"/>
</a>
</g>
</g>
<!-- Node27&#45;&gt;Node6 -->
<g id="edge53_Node000027_Node000006" class="edge">
<title>Node27&#45;&gt;Node6</title>
<g id="a_edge53_Node000027_Node000006"><a xlink:title=" ">
<path fill="none" stroke="#63b8ff" d="M699.78,-58.89C749.03,-50.25 841.89,-33.93 921,-20 926.83,-18.97 933.03,-17.88 939.03,-16.82"/>
<polygon fill="#63b8ff" stroke="#63b8ff" points="939.43,-20.31 948.67,-15.12 938.21,-13.41 939.43,-20.31"/>
</a>
</g>
</g>
<!-- Node27&#45;&gt;Node11 -->
<g id="edge56_Node000027_Node000011" class="edge">
<title>Node27&#45;&gt;Node11</title>
<g id="a_edge56_Node000027_Node000011"><a xlink:title=" ">
<path fill="none" stroke="#63b8ff" d="M654.9,-55.59C646.75,-48.01 635.07,-37.13 625.28,-28.02"/>
<polygon fill="#63b8ff" stroke="#63b8ff" points="627.8,-25.58 618.09,-21.33 623.03,-30.71 627.8,-25.58"/>
</a>
</g>
</g>
<!-- Node27&#45;&gt;Node12 -->
<g id="edge58_Node000027_Node000012" class="edge">
<title>Node27&#45;&gt;Node12</title>
<g id="a_edge58_Node000027_Node000012"><a xlink:title=" ">
<path fill="none" stroke="#63b8ff" d="M642.36,-55.59C621.88,-47.09 591.48,-34.46 568.25,-24.81"/>
<polygon fill="#63b8ff" stroke="#63b8ff" points="569.8,-21.66 559.22,-21.06 567.11,-28.13 569.8,-21.66"/>
</a>
</g>
</g>
<!-- Node28 -->
<g id="Node000028" class="node">
<title>Node28</title>
<g id="a_Node000028"><a xlink:title=" ">
<polygon fill="#e0e0e0" stroke="#999999" points="679.75,-20 650.25,-20 650.25,0 679.75,0 679.75,-20"/>
<text text-anchor="middle" x="665" y="-6.5" font-family="Helvetica,sans-Serif" font-size="10.00">ff.h</text>
</a>
</g>
</g>
<!-- Node27&#45;&gt;Node28 -->
<g id="edge54_Node000027_Node000028" class="edge">
<title>Node27&#45;&gt;Node28</title>
<g id="a_edge54_Node000027_Node000028"><a xlink:title=" ">
<path fill="none" stroke="#63b8ff" d="M665,-55.59C665,-49.01 665,-39.96 665,-31.73"/>
<polygon fill="#63b8ff" stroke="#63b8ff" points="668.5,-31.81 665,-21.81 661.5,-31.81 668.5,-31.81"/>
</a>
</g>
</g>
<!-- Node29 -->
<g id="Node000029" class="node">
<title>Node29</title>
<g id="a_Node000029"><a xlink:title=" ">
<polygon fill="#e0e0e0" stroke="#999999" points="754.25,-20 697.75,-20 697.75,0 754.25,0 754.25,-20"/>
<text text-anchor="middle" x="726" y="-6.5" font-family="Helvetica,sans-Serif" font-size="10.00">semphr.h</text>
</a>
</g>
</g>
<!-- Node27&#45;&gt;Node29 -->
<g id="edge55_Node000027_Node000029" class="edge">
<title>Node27&#45;&gt;Node29</title>
<g id="a_edge55_Node000027_Node000029"><a xlink:title=" ">
<path fill="none" stroke="#63b8ff" d="M675.63,-55.59C684.28,-47.93 696.73,-36.91 707.08,-27.75"/>
<polygon fill="#63b8ff" stroke="#63b8ff" points="709.2,-30.55 714.36,-21.3 704.56,-25.31 709.2,-30.55"/>
</a>
</g>
</g>
</g>
</svg>

<g id="navigator" transform="translate(0 0)" fill="#404254">
  <rect fill="#f2f5e9" fill-opacity="0.5" stroke="#606060" stroke-width=".5" x="0" y="0" width="60" height="60"/>
  <use id="zoomplus" xlink:href="#zoomPlus" x="17" y="9" onmousedown="handleZoom(evt,'in')"/>
  <use id="zoomminus" xlink:href="#zoomMin" x="42" y="9" onmousedown="handleZoom(evt,'out')"/>
  <use id="reset" xlink:href="#resetDef" x="30" y="36" onmousedown="handleReset()"/>
   <use id="arrowup" xlink:href="#arrowUp" x="0" y="0" onmousedown="handlePan(0,-1)"/>
  <use id="arrowright" xlink:href="#arrowRight" x="0" y="0" onmousedown="handlePan(1,0)"/>
  <use id="arrowdown" xlink:href="#arrowDown" x="0" y="0" onmousedown="handlePan(0,1)"/>
  <use id="arrowleft" xlink:href="#arrowLeft" x="0" y="0" onmousedown="handlePan(-1,0)"/>
</g>
<svg viewBox="0 0 15 15" width="100%" height="30px" preserveAspectRatio="xMaxYMin meet">
 <g id="arrow_out" transform="scale(0.3 0.3)">
  <a xlink:href="heartbeat__job_8c__incl_org.svg" target="_base">
   <rect id="button" ry="5" rx="5" y="6" x="6" height="38" width="38"
        fill="#f2f5e9" fill-opacity="0.5" stroke="#606060" stroke-width="1.0"/>
   <path id="arrow"
     d="M 11.500037,31.436501 C 11.940474,20.09759 22.043105,11.32322 32.158766,21.979434 L 37.068811,17.246167 C 37.068811,17.246167 37.088388,32 37.088388,32 L 22.160133,31.978069 C 22.160133,31.978069 26.997745,27.140456 26.997745,27.140456 C 18.528582,18.264221 13.291696,25.230495 11.500037,31.436501 z"
     style="fill:#404040;"/>
  </a>
 </g>
</svg>

<style type='text/css'>
<![CDATA[
[data-mouse-over-selected='false'] { opacity: 0.7; }
[data-mouse-over-selected='true']  { opacity: 1.0; }
]]>
</style>
<script type="application/ecmascript"><![CDATA[
document.addEventListener('DOMContentLoaded', (event) => {
  highlightEdges();
  highlightAdjacentNodes();
});
]]></script>
</svg>
