<?xml version="1.0" encoding="UTF-8" standalone="no"?>
<!DOCTYPE svg PUBLIC "-//W3C//DTD SVG 1.1//EN"
 "http://www.w3.org/Graphics/SVG/1.1/DTD/svg11.dtd">
<!-- Generated by graphviz version 2.43.0 (0)
 -->
<!-- Title: heartbeat_job.c Pages: 1 -->
<svg width="1485pt" height="357pt"
 viewBox="0.00 0.00 1484.99 357.00" xmlns="http://www.w3.org/2000/svg" xmlns:xlink="http://www.w3.org/1999/xlink">
<g id="graph0" class="graph" transform="scale(1 1) rotate(0) translate(4 353)">
<title>heartbeat_job.c</title>
<!-- Node1 -->
<g id="Node000001" class="node">
<title>Node1</title>
<g id="a_Node000001"><a xlink:title=" ">
<polygon fill="#999999" stroke="#666666" points="680.99,-349 588.99,-349 588.99,-330 680.99,-330 680.99,-349"/>
<text text-anchor="middle" x="634.99" y="-337" font-family="Helvetica,sans-Serif" font-size="10.00">heartbeat_job.c</text>
</a>
</g>
</g>
<!-- Node2 -->
<g id="Node000002" class="node">
<title>Node2</title>
<g id="a_Node000002"><a xlink:title=" ">
<polygon fill="#e0e0e0" stroke="#999999" points="918.49,-19 865.49,-19 865.49,0 918.49,0 918.49,-19"/>
<text text-anchor="middle" x="891.99" y="-7" font-family="Helvetica,sans-Serif" font-size="10.00">stdint.h</text>
</a>
</g>
</g>
<!-- Node1&#45;&gt;Node2 -->
<g id="edge1_Node000001_Node000002" class="edge">
<title>Node1&#45;&gt;Node2</title>
<g id="a_edge1_Node000001_Node000002"><a xlink:title=" ">
<path fill="none" stroke="#63b8ff" d="M681.28,-338.64C792.06,-338.31 1069.38,-333.46 1151.99,-294 1187.31,-277.13 1212.99,-269.63 1212.99,-230.5 1212.99,-230.5 1212.99,-230.5 1212.99,-118.5 1212.99,-59.08 1012.92,-26.17 928.68,-14.94"/>
<polygon fill="#63b8ff" stroke="#63b8ff" points="928.9,-11.44 918.54,-13.62 928,-18.38 928.9,-11.44"/>
</a>
</g>
</g>
<!-- Node3 -->
<g id="Node000003" class="node">
<title>Node3</title>
<g id="a_Node000003"><a xlink:href="stdio_8h.html" target="_top" xlink:title=" ">
<polygon fill="white" stroke="#666666" points="78.99,-294 28.99,-294 28.99,-275 78.99,-275 78.99,-294"/>
<text text-anchor="middle" x="53.99" y="-282" font-family="Helvetica,sans-Serif" font-size="10.00">stdio.h</text>
</a>
</g>
</g>
<!-- Node1&#45;&gt;Node3 -->
<g id="edge2_Node000001_Node000003" class="edge">
<title>Node1&#45;&gt;Node3</title>
<g id="a_edge2_Node000001_Node000003"><a xlink:title=" ">
<path fill="none" stroke="#63b8ff" d="M588.72,-336.77C494.81,-332.81 275.32,-321.23 92.99,-294 91.72,-293.81 90.43,-293.6 89.13,-293.38"/>
<polygon fill="#63b8ff" stroke="#63b8ff" points="89.56,-289.9 79.08,-291.48 88.25,-296.78 89.56,-289.9"/>
</a>
</g>
</g>
<!-- Node4 -->
<g id="Node000004" class="node">
<title>Node4</title>
<g id="a_Node000004"><a xlink:title=" ">
<polygon fill="#e0e0e0" stroke="#999999" points="252.99,-19 180.99,-19 180.99,0 252.99,0 252.99,-19"/>
<text text-anchor="middle" x="216.99" y="-7" font-family="Helvetica,sans-Serif" font-size="10.00">FreeRTOS.h</text>
</a>
</g>
</g>
<!-- Node1&#45;&gt;Node4 -->
<g id="edge3_Node000001_Node000004" class="edge">
<title>Node1&#45;&gt;Node4</title>
<g id="a_edge3_Node000001_Node000004"><a xlink:title=" ">
<path fill="none" stroke="#63b8ff" d="M588.9,-338.07C466.92,-335.7 144.99,-320.88 144.99,-230.5 144.99,-230.5 144.99,-230.5 144.99,-118.5 144.99,-80.1 176.89,-44.98 198.22,-25.78"/>
<polygon fill="#63b8ff" stroke="#63b8ff" points="200.78,-28.19 206.06,-19 196.2,-22.89 200.78,-28.19"/>
</a>
</g>
</g>
<!-- Node5 -->
<g id="Node000005" class="node">
<title>Node5</title>
<g id="a_Node000005"><a xlink:title=" ">
<polygon fill="#e0e0e0" stroke="#999999" points="96.99,-19 40.99,-19 40.99,0 96.99,0 96.99,-19"/>
<text text-anchor="middle" x="68.99" y="-7" font-family="Helvetica,sans-Serif" font-size="10.00">queue.h</text>
</a>
</g>
</g>
<!-- Node1&#45;&gt;Node5 -->
<g id="edge4_Node000001_Node000005" class="edge">
<title>Node1&#45;&gt;Node5</title>
<g id="a_edge4_Node000001_Node000005"><a xlink:title=" ">
<path fill="none" stroke="#63b8ff" d="M588.75,-338.13C453.27,-336.65 64.04,-329.34 19.99,-294 -2.98,-275.57 0.99,-259.96 0.99,-230.5 0.99,-230.5 0.99,-230.5 0.99,-118.5 0.99,-80.75 31.12,-45.41 51.26,-25.99"/>
<polygon fill="#63b8ff" stroke="#63b8ff" points="53.71,-28.5 58.67,-19.13 48.95,-23.36 53.71,-28.5"/>
</a>
</g>
</g>
<!-- Node6 -->
<g id="Node000006" class="node">
<title>Node6</title>
<g id="a_Node000006"><a xlink:title=" ">
<polygon fill="#e0e0e0" stroke="#999999" points="162.49,-19 115.49,-19 115.49,0 162.49,0 162.49,-19"/>
<text text-anchor="middle" x="138.99" y="-7" font-family="Helvetica,sans-Serif" font-size="10.00">task.h</text>
</a>
</g>
</g>
<!-- Node1&#45;&gt;Node6 -->
<g id="edge5_Node000001_Node000006" class="edge">
<title>Node1&#45;&gt;Node6</title>
<g id="a_edge5_Node000001_Node000006"><a xlink:title=" ">
<path fill="none" stroke="#63b8ff" d="M588.71,-337.77C487.15,-335.57 248.04,-326.95 174.99,-294 137.3,-276.99 106.99,-271.85 106.99,-230.5 106.99,-230.5 106.99,-230.5 106.99,-118.5 106.99,-85.71 120.72,-49.54 130.19,-28.49"/>
<polygon fill="#63b8ff" stroke="#63b8ff" points="133.47,-29.74 134.54,-19.2 127.13,-26.77 133.47,-29.74"/>
</a>
</g>
</g>
<!-- Node7 -->
<g id="Node000007" class="node">
<title>Node7</title>
<g id="a_Node000007"><a xlink:href="state_8h.html" target="_top" xlink:title=" ">
<polygon fill="white" stroke="#666666" points="347.99,-294 297.99,-294 297.99,-275 347.99,-275 347.99,-294"/>
<text text-anchor="middle" x="322.99" y="-282" font-family="Helvetica,sans-Serif" font-size="10.00">state.h</text>
</a>
</g>
</g>
<!-- Node1&#45;&gt;Node7 -->
<g id="edge6_Node000001_Node000007" class="edge">
<title>Node1&#45;&gt;Node7</title>
<g id="a_edge6_Node000001_Node000007"><a xlink:title=" ">
<path fill="none" stroke="#63b8ff" d="M588.98,-331.76C534.6,-323.62 441.48,-309.13 361.99,-294 360.73,-293.76 359.45,-293.51 358.15,-293.25"/>
<polygon fill="#63b8ff" stroke="#63b8ff" points="358.63,-289.78 348.13,-291.18 357.22,-296.63 358.63,-289.78"/>
</a>
</g>
</g>
<!-- Node8 -->
<g id="Node000008" class="node">
<title>Node8</title>
<g id="a_Node000008"><a xlink:href="telemetry_8h.html" target="_top" xlink:title="Functions for packaging and queuing telemetry packets for sending.">
<polygon fill="white" stroke="#666666" points="321.99,-184 249.99,-184 249.99,-165 321.99,-165 321.99,-184"/>
<text text-anchor="middle" x="285.99" y="-172" font-family="Helvetica,sans-Serif" font-size="10.00">telemetry.h</text>
</a>
</g>
</g>
<!-- Node1&#45;&gt;Node8 -->
<g id="edge7_Node000001_Node000008" class="edge">
<title>Node1&#45;&gt;Node8</title>
<g id="a_edge7_Node000001_Node000008"><a xlink:title=" ">
<path fill="none" stroke="#63b8ff" d="M588.79,-335.86C499.17,-330.27 308.77,-315.92 288.99,-294 264.26,-266.59 272.72,-219.42 279.99,-193.63"/>
<polygon fill="#63b8ff" stroke="#63b8ff" points="283.36,-194.59 282.94,-184.01 276.66,-192.54 283.36,-194.59"/>
</a>
</g>
</g>
<!-- Node10 -->
<g id="Node000010" class="node">
<title>Node10</title>
<g id="a_Node000010"><a xlink:href="filesystem_8h.html" target="_top" xlink:title="Handles file system operations and management.">
<polygon fill="white" stroke="#666666" points="489.49,-74 412.49,-74 412.49,-55 489.49,-55 489.49,-74"/>
<text text-anchor="middle" x="450.99" y="-62" font-family="Helvetica,sans-Serif" font-size="10.00">filesystem.h</text>
</a>
</g>
</g>
<!-- Node1&#45;&gt;Node10 -->
<g id="edge72_Node000001_Node000010" class="edge">
<title>Node1&#45;&gt;Node10</title>
<g id="a_edge72_Node000001_Node000010"><a xlink:title=" ">
<path fill="none" stroke="#63b8ff" d="M588.52,-332.84C531.69,-323.02 442.99,-297.05 442.99,-230.5 442.99,-230.5 442.99,-230.5 442.99,-173.5 442.99,-142.1 446.4,-105.71 448.77,-84.2"/>
<polygon fill="#63b8ff" stroke="#63b8ff" points="452.25,-84.5 449.92,-74.16 445.3,-83.7 452.25,-84.5"/>
</a>
</g>
</g>
<!-- Node16 -->
<g id="Node000016" class="node">
<title>Node16</title>
<g id="a_Node000016"><a xlink:href="ina219_8h.html" target="_top" xlink:title="INA219 Driver.">
<polygon fill="white" stroke="#666666" points="568.49,-184 509.49,-184 509.49,-165 568.49,-165 568.49,-184"/>
<text text-anchor="middle" x="538.99" y="-172" font-family="Helvetica,sans-Serif" font-size="10.00">ina219.h</text>
</a>
</g>
</g>
<!-- Node1&#45;&gt;Node16 -->
<g id="edge23_Node000001_Node000016" class="edge">
<title>Node1&#45;&gt;Node16</title>
<g id="a_edge23_Node000001_Node000016"><a xlink:title=" ">
<path fill="none" stroke="#63b8ff" d="M619.34,-329.85C606.54,-322.03 588.83,-309.4 577.99,-294 556.16,-262.95 545.94,-218.88 541.67,-194.17"/>
<polygon fill="#63b8ff" stroke="#63b8ff" points="545.08,-193.34 540.06,-184.01 538.17,-194.43 545.08,-193.34"/>
</a>
</g>
</g>
<!-- Node18 -->
<g id="Node000018" class="node">
<title>Node18</title>
<g id="a_Node000018"><a xlink:href="mag__lis3mdltr_8h.html" target="_top" xlink:title="Magnetometer Driver (LIS3MDLTR)">
<polygon fill="white" stroke="#666666" points="682.49,-294 587.49,-294 587.49,-275 682.49,-275 682.49,-294"/>
<text text-anchor="middle" x="634.99" y="-282" font-family="Helvetica,sans-Serif" font-size="10.00">mag_lis3mdltr.h</text>
</a>
</g>
</g>
<!-- Node1&#45;&gt;Node18 -->
<g id="edge28_Node000001_Node000018" class="edge">
<title>Node1&#45;&gt;Node18</title>
<g id="a_edge28_Node000001_Node000018"><a xlink:title=" ">
<path fill="none" stroke="#63b8ff" d="M634.99,-329.75C634.99,-322.8 634.99,-312.85 634.99,-304.13"/>
<polygon fill="#63b8ff" stroke="#63b8ff" points="638.49,-304.09 634.99,-294.09 631.49,-304.09 638.49,-304.09"/>
</a>
</g>
</g>
<!-- Node22 -->
<g id="Node000022" class="node">
<title>Node22</title>
<g id="a_Node000022"><a xlink:href="rtc__ds3231_8h.html" target="_top" xlink:title="DS3231 Real Time Clock Driver.">
<polygon fill="white" stroke="#666666" points="874.49,-129 795.49,-129 795.49,-110 874.49,-110 874.49,-129"/>
<text text-anchor="middle" x="834.99" y="-117" font-family="Helvetica,sans-Serif" font-size="10.00">rtc_ds3231.h</text>
</a>
</g>
</g>
<!-- Node1&#45;&gt;Node22 -->
<g id="edge40_Node000001_Node000022" class="edge">
<title>Node1&#45;&gt;Node22</title>
<g id="a_edge40_Node000001_Node000022"><a xlink:title=" ">
<path fill="none" stroke="#63b8ff" d="M653.71,-329.9C669.56,-322.03 692.31,-309.3 708.99,-294 761.96,-245.44 806.69,-171.47 825.49,-138.01"/>
<polygon fill="#63b8ff" stroke="#63b8ff" points="828.69,-139.45 830.47,-129.01 822.57,-136.06 828.69,-139.45"/>
</a>
</g>
</g>
<!-- Node23 -->
<g id="Node000023" class="node">
<title>Node23</title>
<g id="a_Node000023"><a xlink:href="timing_8h.html" target="_top" xlink:title=" ">
<polygon fill="white" stroke="#666666" points="394.49,-74 337.49,-74 337.49,-55 394.49,-55 394.49,-74"/>
<text text-anchor="middle" x="365.99" y="-62" font-family="Helvetica,sans-Serif" font-size="10.00">timing.h</text>
</a>
</g>
</g>
<!-- Node1&#45;&gt;Node23 -->
<g id="edge43_Node000001_Node000023" class="edge">
<title>Node1&#45;&gt;Node23</title>
<g id="a_edge43_Node000001_Node000023"><a xlink:title=" ">
<path fill="none" stroke="#63b8ff" d="M588.89,-338.34C549.21,-335.82 492.72,-326.19 455.99,-294 391.24,-237.25 372.64,-127.83 367.68,-84.16"/>
<polygon fill="#63b8ff" stroke="#63b8ff" points="371.15,-83.71 366.65,-74.12 364.18,-84.42 371.15,-83.71"/>
</a>
</g>
</g>
<!-- Node25 -->
<g id="Node000025" class="node">
<title>Node25</title>
<g id="a_Node000025"><a xlink:href="vega__ant_8h.html" target="_top" xlink:title="Vega Antenna Board Driver.">
<polygon fill="white" stroke="#666666" points="734.49,-184 663.49,-184 663.49,-165 734.49,-165 734.49,-184"/>
<text text-anchor="middle" x="698.99" y="-172" font-family="Helvetica,sans-Serif" font-size="10.00">vega_ant.h</text>
</a>
</g>
</g>
<!-- Node1&#45;&gt;Node25 -->
<g id="edge48_Node000001_Node000025" class="edge">
<title>Node1&#45;&gt;Node25</title>
<g id="a_edge48_Node000001_Node000025"><a xlink:title=" ">
<path fill="none" stroke="#63b8ff" d="M652.19,-329.96C665.3,-322.44 682.51,-310.16 690.99,-294 707.71,-262.16 705.36,-218.71 702.17,-194.25"/>
<polygon fill="#63b8ff" stroke="#63b8ff" points="705.6,-193.54 700.66,-184.17 698.68,-194.58 705.6,-193.54"/>
</a>
</g>
</g>
<!-- Node26 -->
<g id="Node000026" class="node">
<title>Node26</title>
<g id="a_Node000026"><a xlink:href="heartbeat__job_8h.html" target="_top" xlink:title=" ">
<polygon fill="white" stroke="#666666" points="960.49,-294 867.49,-294 867.49,-275 960.49,-275 960.49,-294"/>
<text text-anchor="middle" x="913.99" y="-282" font-family="Helvetica,sans-Serif" font-size="10.00">heartbeat_job.h</text>
</a>
</g>
</g>
<!-- Node1&#45;&gt;Node26 -->
<g id="edge54_Node000001_Node000026" class="edge">
<title>Node1&#45;&gt;Node26</title>
<g id="a_edge54_Node000001_Node000026"><a xlink:title=" ">
<path fill="none" stroke="#63b8ff" d="M679.82,-329.98C728.49,-320.74 806.26,-305.97 858.69,-296.01"/>
<polygon fill="#63b8ff" stroke="#63b8ff" points="859.65,-299.39 868.82,-294.08 858.34,-292.51 859.65,-299.39"/>
</a>
</g>
</g>
<!-- Node27 -->
<g id="Node000027" class="node">
<title>Node27</title>
<g id="a_Node000027"><a xlink:title=" ">
<polygon fill="#e0e0e0" stroke="#999999" points="1028.99,-294 978.99,-294 978.99,-275 1028.99,-275 1028.99,-294"/>
<text text-anchor="middle" x="1003.99" y="-282" font-family="Helvetica,sans-Serif" font-size="10.00">radio.h</text>
</a>
</g>
</g>
<!-- Node1&#45;&gt;Node27 -->
<g id="edge55_Node000001_Node000027" class="edge">
<title>Node1&#45;&gt;Node27</title>
<g id="a_edge55_Node000001_Node000027"><a xlink:title=" ">
<path fill="none" stroke="#63b8ff" d="M681.16,-333.91C745.84,-327.13 866.94,-313.14 968.99,-294 969.09,-293.98 969.19,-293.96 969.29,-293.94"/>
<polygon fill="#63b8ff" stroke="#63b8ff" points="969.76,-297.42 978.83,-291.95 968.32,-290.57 969.76,-297.42"/>
</a>
</g>
</g>
<!-- Node28 -->
<g id="Node000028" class="node">
<title>Node28</title>
<g id="a_Node000028"><a xlink:title=" ">
<polygon fill="#e0e0e0" stroke="#999999" points="1124.49,-294 1047.49,-294 1047.49,-275 1124.49,-275 1124.49,-294"/>
<text text-anchor="middle" x="1085.99" y="-282" font-family="Helvetica,sans-Serif" font-size="10.00">max17048.h</text>
</a>
</g>
</g>
<!-- Node1&#45;&gt;Node28 -->
<g id="edge56_Node000001_Node000028" class="edge">
<title>Node1&#45;&gt;Node28</title>
<g id="a_edge56_Node000001_Node000028"><a xlink:title=" ">
<path fill="none" stroke="#63b8ff" d="M681.05,-334.4C754.2,-327.67 901.67,-313.24 1037.11,-294.03"/>
<polygon fill="#63b8ff" stroke="#63b8ff" points="1037.85,-297.46 1047.26,-292.58 1036.86,-290.53 1037.85,-297.46"/>
</a>
</g>
</g>
<!-- Node29 -->
<g id="Node000029" class="node">
<title>Node29</title>
<g id="a_Node000029"><a xlink:href="hb__tlm__log_8h.html" target="_top" xlink:title=" ">
<polygon fill="white" stroke="#666666" points="990.99,-239 910.99,-239 910.99,-220 990.99,-220 990.99,-239"/>
<text text-anchor="middle" x="950.99" y="-227" font-family="Helvetica,sans-Serif" font-size="10.00">hb_tlm_log.h</text>
</a>
</g>
</g>
<!-- Node1&#45;&gt;Node29 -->
<g id="edge57_Node000001_Node000029" class="edge">
<title>Node1&#45;&gt;Node29</title>
<g id="a_edge57_Node000001_Node000029"><a xlink:title=" ">
<path fill="none" stroke="#63b8ff" d="M679.71,-329.97C716.57,-322.35 769.92,-309.92 814.99,-294 825.96,-290.13 887.78,-260.77 924.19,-243.36"/>
<polygon fill="#63b8ff" stroke="#63b8ff" points="925.78,-246.48 933.29,-239 922.76,-240.16 925.78,-246.48"/>
</a>
</g>
</g>
<!-- Node30 -->
<g id="Node000030" class="node">
<title>Node30</title>
<g id="a_Node000030"><a xlink:href="command_8h.html" target="_top" xlink:title="Handles decoding and triggering responses to received commands.">
<polygon fill="white" stroke="#666666" points="1134.99,-184 1060.99,-184 1060.99,-165 1134.99,-165 1134.99,-184"/>
<text text-anchor="middle" x="1097.99" y="-172" font-family="Helvetica,sans-Serif" font-size="10.00">command.h</text>
</a>
</g>
</g>
<!-- Node1&#45;&gt;Node30 -->
<g id="edge71_Node000001_Node000030" class="edge">
<title>Node1&#45;&gt;Node30</title>
<g id="a_edge71_Node000001_Node000030"><a xlink:title=" ">
<path fill="none" stroke="#63b8ff" d="M681.11,-337.85C798.74,-335.7 1102.82,-326.99 1132.99,-294 1159.3,-265.24 1130.64,-217.61 1111.78,-192.39"/>
<polygon fill="#63b8ff" stroke="#63b8ff" points="1114.3,-189.93 1105.4,-184.18 1108.77,-194.23 1114.3,-189.93"/>
</a>
</g>
</g>
<!-- Node33 -->
<g id="Node000033" class="node">
<title>Node33</title>
<g id="a_Node000033"><a xlink:href="ds18b20_8h.html" target="_top" xlink:title="Driver for PIO Onewire DS18B20 Temperature Sensors.">
<polygon fill="white" stroke="#666666" points="1336.49,-294 1269.49,-294 1269.49,-275 1336.49,-275 1336.49,-294"/>
<text text-anchor="middle" x="1302.99" y="-282" font-family="Helvetica,sans-Serif" font-size="10.00">ds18b20.h</text>
</a>
</g>
</g>
<!-- Node1&#45;&gt;Node33 -->
<g id="edge67_Node000001_Node000033" class="edge">
<title>Node1&#45;&gt;Node33</title>
<g id="a_edge67_Node000001_Node000033"><a xlink:title=" ">
<path fill="none" stroke="#63b8ff" d="M681.1,-335.61C780.79,-329.23 1023.81,-312.99 1226.99,-294 1237.4,-293.03 1248.6,-291.85 1259.12,-290.68"/>
<polygon fill="#63b8ff" stroke="#63b8ff" points="1259.8,-294.13 1269.35,-289.53 1259.02,-287.17 1259.8,-294.13"/>
</a>
</g>
</g>
<!-- Node8&#45;&gt;Node4 -->
<g id="edge8_Node000008_Node000004" class="edge">
<title>Node8&#45;&gt;Node4</title>
<g id="a_edge8_Node000008_Node000004"><a xlink:title=" ">
<path fill="none" stroke="#63b8ff" d="M273.37,-164.79C262.75,-156.75 248.04,-143.85 239.99,-129 222.58,-96.87 218.21,-53.53 217.21,-29.16"/>
<polygon fill="#63b8ff" stroke="#63b8ff" points="220.7,-29.03 216.94,-19.13 213.71,-29.22 220.7,-29.03"/>
</a>
</g>
</g>
<!-- Node8&#45;&gt;Node5 -->
<g id="edge9_Node000008_Node000005" class="edge">
<title>Node8&#45;&gt;Node5</title>
<g id="a_edge9_Node000008_Node000005"><a xlink:title=" ">
<path fill="none" stroke="#63b8ff" d="M274.63,-164.97C239.63,-138.68 133.14,-58.69 88.75,-25.34"/>
<polygon fill="#63b8ff" stroke="#63b8ff" points="90.6,-22.35 80.5,-19.15 86.4,-27.95 90.6,-22.35"/>
</a>
</g>
</g>
<!-- Node9 -->
<g id="Node000009" class="node">
<title>Node9</title>
<g id="a_Node000009"><a xlink:href="file__downlink_8h.html" target="_top" xlink:title=" ">
<polygon fill="white" stroke="#666666" points="338.99,-129 248.99,-129 248.99,-110 338.99,-110 338.99,-129"/>
<text text-anchor="middle" x="293.99" y="-117" font-family="Helvetica,sans-Serif" font-size="10.00">file_downlink.h</text>
</a>
</g>
</g>
<!-- Node8&#45;&gt;Node9 -->
<g id="edge10_Node000008_Node000009" class="edge">
<title>Node8&#45;&gt;Node9</title>
<g id="a_edge10_Node000008_Node000009"><a xlink:title=" ">
<path fill="none" stroke="#63b8ff" d="M287.32,-164.75C288.36,-157.8 289.87,-147.85 291.18,-139.13"/>
<polygon fill="#63b8ff" stroke="#63b8ff" points="294.67,-139.5 292.7,-129.09 287.74,-138.45 294.67,-139.5"/>
</a>
</g>
</g>
<!-- Node9&#45;&gt;Node4 -->
<g id="edge11_Node000009_Node000004" class="edge">
<title>Node9&#45;&gt;Node4</title>
<g id="a_edge11_Node000009_Node000004"><a xlink:title=" ">
<path fill="none" stroke="#63b8ff" d="M287.69,-109.66C274.88,-91.69 245.61,-50.64 229.03,-27.38"/>
<polygon fill="#63b8ff" stroke="#63b8ff" points="231.82,-25.27 223.17,-19.16 226.12,-29.33 231.82,-25.27"/>
</a>
</g>
</g>
<!-- Node9&#45;&gt;Node5 -->
<g id="edge12_Node000009_Node000005" class="edge">
<title>Node9&#45;&gt;Node5</title>
<g id="a_edge12_Node000009_Node000005"><a xlink:title=" ">
<path fill="none" stroke="#63b8ff" d="M275.96,-109.84C236.53,-90.92 142.47,-45.77 95.96,-23.45"/>
<polygon fill="#63b8ff" stroke="#63b8ff" points="97.33,-20.22 86.8,-19.05 94.3,-26.53 97.33,-20.22"/>
</a>
</g>
</g>
<!-- Node9&#45;&gt;Node10 -->
<g id="edge13_Node000009_Node000010" class="edge">
<title>Node9&#45;&gt;Node10</title>
<g id="a_edge13_Node000009_Node000010"><a xlink:title=" ">
<path fill="none" stroke="#63b8ff" d="M319.22,-109.98C345.35,-101.16 386.39,-87.31 415.73,-77.41"/>
<polygon fill="#63b8ff" stroke="#63b8ff" points="417.22,-80.6 425.57,-74.08 414.98,-73.96 417.22,-80.6"/>
</a>
</g>
</g>
<!-- Node10&#45;&gt;Node2 -->
<g id="edge21_Node000010_Node000002" class="edge">
<title>Node10&#45;&gt;Node2</title>
<g id="a_edge21_Node000010_Node000002"><a xlink:title=" ">
<path fill="none" stroke="#63b8ff" d="M489.74,-58.84C574.01,-48.72 772.96,-24.81 855.31,-14.91"/>
<polygon fill="#63b8ff" stroke="#63b8ff" points="855.94,-18.36 865.45,-13.69 855.1,-11.41 855.94,-18.36"/>
</a>
</g>
</g>
<!-- Node10&#45;&gt;Node4 -->
<g id="edge14_Node000010_Node000004" class="edge">
<title>Node10&#45;&gt;Node4</title>
<g id="a_edge14_Node000010_Node000004"><a xlink:title=" ">
<path fill="none" stroke="#63b8ff" d="M413.4,-54.98C372.53,-45.73 307.18,-30.93 263.21,-20.97"/>
<polygon fill="#63b8ff" stroke="#63b8ff" points="263.87,-17.53 253.34,-18.73 262.32,-24.36 263.87,-17.53"/>
</a>
</g>
</g>
<!-- Node10&#45;&gt;Node5 -->
<g id="edge15_Node000010_Node000005" class="edge">
<title>Node10&#45;&gt;Node5</title>
<g id="a_edge15_Node000010_Node000005"><a xlink:title=" ">
<path fill="none" stroke="#63b8ff" d="M412.25,-56.45C409.12,-55.94 406.01,-55.45 402.99,-55 274.69,-35.88 238.71,-41.61 107.26,-19.05"/>
<polygon fill="#63b8ff" stroke="#63b8ff" points="107.67,-15.57 97.21,-17.3 106.47,-22.47 107.67,-15.57"/>
</a>
</g>
</g>
<!-- Node10&#45;&gt;Node6 -->
<g id="edge16_Node000010_Node000006" class="edge">
<title>Node10&#45;&gt;Node6</title>
<g id="a_edge16_Node000010_Node000006"><a xlink:title=" ">
<path fill="none" stroke="#63b8ff" d="M412.49,-56.61C409.28,-56.06 406.08,-55.51 402.99,-55 303.6,-38.46 275.45,-39.88 172.58,-18.93"/>
<polygon fill="#63b8ff" stroke="#63b8ff" points="173.22,-15.49 162.72,-16.91 171.81,-22.35 173.22,-15.49"/>
</a>
</g>
</g>
<!-- Node11 -->
<g id="Node000011" class="node">
<title>Node11</title>
<g id="a_Node000011"><a xlink:title=" ">
<polygon fill="#e0e0e0" stroke="#999999" points="600.99,-19 568.99,-19 568.99,0 600.99,0 600.99,-19"/>
<text text-anchor="middle" x="584.99" y="-7" font-family="Helvetica,sans-Serif" font-size="10.00">ff.h</text>
</a>
</g>
</g>
<!-- Node10&#45;&gt;Node11 -->
<g id="edge17_Node000010_Node000011" class="edge">
<title>Node10&#45;&gt;Node11</title>
<g id="a_edge17_Node000010_Node000011"><a xlink:title=" ">
<path fill="none" stroke="#63b8ff" d="M472.52,-54.98C496.19,-45.62 534.19,-30.59 559.38,-20.63"/>
<polygon fill="#63b8ff" stroke="#63b8ff" points="560.97,-23.76 568.98,-16.83 558.4,-17.26 560.97,-23.76"/>
</a>
</g>
</g>
<!-- Node12 -->
<g id="Node000012" class="node">
<title>Node12</title>
<g id="a_Node000012"><a xlink:href="filesystem__errors_8h.html" target="_top" xlink:title=" ">
<polygon fill="white" stroke="#666666" points="550.99,-19 440.99,-19 440.99,0 550.99,0 550.99,-19"/>
<text text-anchor="middle" x="495.99" y="-7" font-family="Helvetica,sans-Serif" font-size="10.00">filesystem_errors.h</text>
</a>
</g>
</g>
<!-- Node10&#45;&gt;Node12 -->
<g id="edge18_Node000010_Node000012" class="edge">
<title>Node10&#45;&gt;Node12</title>
<g id="a_edge18_Node000010_Node000012"><a xlink:title=" ">
<path fill="none" stroke="#63b8ff" d="M458.43,-54.75C464.85,-47.18 474.3,-36.05 482.12,-26.84"/>
<polygon fill="#63b8ff" stroke="#63b8ff" points="484.9,-28.98 488.7,-19.09 479.56,-24.45 484.9,-28.98"/>
</a>
</g>
</g>
<!-- Node13 -->
<g id="Node000013" class="node">
<title>Node13</title>
<g id="a_Node000013"><a xlink:title=" ">
<polygon fill="#e0e0e0" stroke="#999999" points="422.99,-19 360.99,-19 360.99,0 422.99,0 422.99,-19"/>
<text text-anchor="middle" x="391.99" y="-7" font-family="Helvetica,sans-Serif" font-size="10.00">semphr.h</text>
</a>
</g>
</g>
<!-- Node10&#45;&gt;Node13 -->
<g id="edge19_Node000010_Node000013" class="edge">
<title>Node10&#45;&gt;Node13</title>
<g id="a_edge19_Node000010_Node000013"><a xlink:title=" ">
<path fill="none" stroke="#63b8ff" d="M441.51,-54.98C432.79,-47.15 419.65,-35.34 409.1,-25.86"/>
<polygon fill="#63b8ff" stroke="#63b8ff" points="411.42,-23.25 401.65,-19.17 406.75,-28.46 411.42,-23.25"/>
</a>
</g>
</g>
<!-- Node14 -->
<g id="Node000014" class="node">
<title>Node14</title>
<g id="a_Node000014"><a xlink:title=" ">
<polygon fill="#e0e0e0" stroke="#999999" points="674.99,-19 618.99,-19 618.99,0 674.99,0 674.99,-19"/>
<text text-anchor="middle" x="646.99" y="-7" font-family="Helvetica,sans-Serif" font-size="10.00">stddef.h</text>
</a>
</g>
</g>
<!-- Node10&#45;&gt;Node14 -->
<g id="edge20_Node000010_Node000014" class="edge">
<title>Node10&#45;&gt;Node14</title>
<g id="a_edge20_Node000010_Node000014"><a xlink:title=" ">
<path fill="none" stroke="#63b8ff" d="M482.49,-54.98C516.91,-45.68 572.06,-30.76 608.89,-20.8"/>
<polygon fill="#63b8ff" stroke="#63b8ff" points="610.02,-24.12 618.76,-18.13 608.2,-17.37 610.02,-24.12"/>
</a>
</g>
</g>
<!-- Node15 -->
<g id="Node000015" class="node">
<title>Node15</title>
<g id="a_Node000015"><a xlink:title=" ">
<polygon fill="#e0e0e0" stroke="#999999" points="754.99,-19 692.99,-19 692.99,0 754.99,0 754.99,-19"/>
<text text-anchor="middle" x="723.99" y="-7" font-family="Helvetica,sans-Serif" font-size="10.00">stdbool.h</text>
</a>
</g>
</g>
<!-- Node10&#45;&gt;Node15 -->
<g id="edge22_Node000010_Node000015" class="edge">
<title>Node10&#45;&gt;Node15</title>
<g id="a_edge22_Node000010_Node000015"><a xlink:title=" ">
<path fill="none" stroke="#63b8ff" d="M489.8,-56.34C534.09,-48.12 608.98,-34.04 682.65,-19.24"/>
<polygon fill="#63b8ff" stroke="#63b8ff" points="683.45,-22.65 692.56,-17.24 682.07,-15.79 683.45,-22.65"/>
</a>
</g>
</g>
<!-- Node17 -->
<g id="Node000017" class="node">
<title>Node17</title>
<g id="a_Node000017"><a xlink:href="simulator_2pico-sdk_2hardware_2i2c_8h.html" target="_top" xlink:title=" ">
<polygon fill="white" stroke="#666666" points="635.49,-74 546.49,-74 546.49,-55 635.49,-55 635.49,-74"/>
<text text-anchor="middle" x="590.99" y="-62" font-family="Helvetica,sans-Serif" font-size="10.00">hardware/i2c.h</text>
</a>
</g>
</g>
<!-- Node16&#45;&gt;Node17 -->
<g id="edge24_Node000016_Node000017" class="edge">
<title>Node16&#45;&gt;Node17</title>
<g id="a_edge24_Node000016_Node000017"><a xlink:title=" ">
<path fill="none" stroke="#63b8ff" d="M537.59,-164.78C535.96,-152.06 534.47,-127.96 542.99,-110 548.65,-98.09 559.03,-87.83 568.7,-80.18"/>
<polygon fill="#63b8ff" stroke="#63b8ff" points="570.91,-82.9 576.88,-74.15 566.75,-77.27 570.91,-82.9"/>
</a>
</g>
</g>
<!-- Node17&#45;&gt;Node2 -->
<g id="edge25_Node000017_Node000002" class="edge">
<title>Node17&#45;&gt;Node2</title>
<g id="a_edge25_Node000017_Node000002"><a xlink:title=" ">
<path fill="none" stroke="#63b8ff" d="M635.73,-55.62C695.43,-45.11 800.01,-26.7 855.31,-16.96"/>
<polygon fill="#63b8ff" stroke="#63b8ff" points="856.12,-20.37 865.36,-15.19 854.91,-13.48 856.12,-20.37"/>
</a>
</g>
</g>
<!-- Node17&#45;&gt;Node14 -->
<g id="edge26_Node000017_Node000014" class="edge">
<title>Node17&#45;&gt;Node14</title>
<g id="a_edge26_Node000017_Node000014"><a xlink:title=" ">
<path fill="none" stroke="#63b8ff" d="M599.99,-54.98C608.19,-47.23 620.5,-35.58 630.47,-26.14"/>
<polygon fill="#63b8ff" stroke="#63b8ff" points="632.98,-28.59 637.83,-19.17 628.16,-23.5 632.98,-28.59"/>
</a>
</g>
</g>
<!-- Node17&#45;&gt;Node15 -->
<g id="edge27_Node000017_Node000015" class="edge">
<title>Node17&#45;&gt;Node15</title>
<g id="a_edge27_Node000017_Node000015"><a xlink:title=" ">
<path fill="none" stroke="#63b8ff" d="M612.36,-54.98C634.14,-46.3 668.16,-32.75 692.92,-22.88"/>
<polygon fill="#63b8ff" stroke="#63b8ff" points="694.24,-26.12 702.24,-19.17 691.65,-19.62 694.24,-26.12"/>
</a>
</g>
</g>
<!-- Node18&#45;&gt;Node2 -->
<g id="edge32_Node000018_Node000002" class="edge">
<title>Node18&#45;&gt;Node2</title>
<g id="a_edge32_Node000018_Node000002"><a xlink:title=" ">
<path fill="none" stroke="#63b8ff" d="M682.53,-278C759.75,-266.22 910.4,-230.74 975.99,-129 1000.85,-90.45 947.98,-46.86 915.28,-24.85"/>
<polygon fill="#63b8ff" stroke="#63b8ff" points="916.97,-21.77 906.68,-19.24 913.14,-27.63 916.97,-21.77"/>
</a>
</g>
</g>
<!-- Node18&#45;&gt;Node17 -->
<g id="edge29_Node000018_Node000017" class="edge">
<title>Node18&#45;&gt;Node17</title>
<g id="a_edge29_Node000018_Node000017"><a xlink:title=" ">
<path fill="none" stroke="#63b8ff" d="M632.65,-274.85C626.38,-251.5 609.04,-185.12 598.99,-129 596.33,-114.09 594.23,-97.06 592.86,-84.39"/>
<polygon fill="#63b8ff" stroke="#63b8ff" points="596.31,-83.76 591.8,-74.17 589.35,-84.48 596.31,-83.76"/>
</a>
</g>
</g>
<!-- Node19 -->
<g id="Node000019" class="node">
<title>Node19</title>
<g id="a_Node000019"><a xlink:href="gpio_8h.html" target="_top" xlink:title=" ">
<polygon fill="white" stroke="#666666" points="787.49,-74 692.49,-74 692.49,-55 787.49,-55 787.49,-74"/>
<text text-anchor="middle" x="739.99" y="-62" font-family="Helvetica,sans-Serif" font-size="10.00">hardware/gpio.h</text>
</a>
</g>
</g>
<!-- Node18&#45;&gt;Node19 -->
<g id="edge30_Node000018_Node000019" class="edge">
<title>Node18&#45;&gt;Node19</title>
<g id="a_edge30_Node000018_Node000019"><a xlink:title=" ">
<path fill="none" stroke="#63b8ff" d="M645.14,-274.97C671,-253.13 737.72,-196.02 742.99,-184 757.4,-151.13 750.79,-108.06 745.11,-83.93"/>
<polygon fill="#63b8ff" stroke="#63b8ff" points="748.44,-82.83 742.57,-74.01 741.66,-84.57 748.44,-82.83"/>
</a>
</g>
</g>
<!-- Node20 -->
<g id="Node000020" class="node">
<title>Node20</title>
<g id="a_Node000020"><a xlink:href="log_8h.html" target="_top" xlink:title=" ">
<polygon fill="white" stroke="#666666" points="512.49,-239 471.49,-239 471.49,-220 512.49,-220 512.49,-239"/>
<text text-anchor="middle" x="491.99" y="-227" font-family="Helvetica,sans-Serif" font-size="10.00">log.h</text>
</a>
</g>
</g>
<!-- Node18&#45;&gt;Node20 -->
<g id="edge33_Node000018_Node000020" class="edge">
<title>Node18&#45;&gt;Node20</title>
<g id="a_edge33_Node000018_Node000020"><a xlink:title=" ">
<path fill="none" stroke="#63b8ff" d="M612.02,-274.98C587.66,-265.96 549.06,-251.65 522.24,-241.71"/>
<polygon fill="#63b8ff" stroke="#63b8ff" points="523.19,-238.33 512.59,-238.13 520.75,-244.89 523.19,-238.33"/>
</a>
</g>
</g>
<!-- Node21 -->
<g id="Node000021" class="node">
<title>Node21</title>
<g id="a_Node000021"><a xlink:href="drivers_2include_2i2c_8h.html" target="_top" xlink:title="Drivers for i2c peripheral devices.">
<polygon fill="white" stroke="#666666" points="662.99,-129 622.99,-129 622.99,-110 662.99,-110 662.99,-129"/>
<text text-anchor="middle" x="642.99" y="-117" font-family="Helvetica,sans-Serif" font-size="10.00">i2c.h</text>
</a>
</g>
</g>
<!-- Node18&#45;&gt;Node21 -->
<g id="edge36_Node000018_Node000021" class="edge">
<title>Node18&#45;&gt;Node21</title>
<g id="a_edge36_Node000018_Node000021"><a xlink:title=" ">
<path fill="none" stroke="#63b8ff" d="M635.42,-274.74C636.67,-249.31 640.32,-175.08 642.05,-139.69"/>
<polygon fill="#63b8ff" stroke="#63b8ff" points="645.57,-139.47 642.56,-129.31 638.58,-139.12 645.57,-139.47"/>
</a>
</g>
</g>
<!-- Node19&#45;&gt;Node2 -->
<g id="edge31_Node000019_Node000002" class="edge">
<title>Node19&#45;&gt;Node2</title>
<g id="a_edge31_Node000019_Node000002"><a xlink:title=" ">
<path fill="none" stroke="#63b8ff" d="M764.42,-54.98C789.71,-46.16 829.45,-32.31 857.85,-22.41"/>
<polygon fill="#63b8ff" stroke="#63b8ff" points="859.09,-25.68 867.38,-19.08 856.79,-19.07 859.09,-25.68"/>
</a>
</g>
</g>
<!-- Node20&#45;&gt;Node8 -->
<g id="edge34_Node000020_Node000008" class="edge">
<title>Node20&#45;&gt;Node8</title>
<g id="a_edge34_Node000020_Node000008"><a xlink:title=" ">
<path fill="none" stroke="#63b8ff" d="M471.49,-223.22C438.44,-214.72 372.71,-197.81 329.03,-186.57"/>
<polygon fill="#63b8ff" stroke="#63b8ff" points="329.81,-183.16 319.26,-184.06 328.07,-189.94 329.81,-183.16"/>
</a>
</g>
</g>
<!-- Node20&#45;&gt;Node15 -->
<g id="edge35_Node000020_Node000015" class="edge">
<title>Node20&#45;&gt;Node15</title>
<g id="a_edge35_Node000020_Node000015"><a xlink:title=" ">
<path fill="none" stroke="#63b8ff" d="M491.26,-219.65C489.41,-190.97 487.82,-99.9 536.99,-55 539.73,-52.5 628.63,-32.06 682.85,-19.77"/>
<polygon fill="#63b8ff" stroke="#63b8ff" points="683.89,-23.12 692.87,-17.5 682.34,-16.3 683.89,-23.12"/>
</a>
</g>
</g>
<!-- Node21&#45;&gt;Node2 -->
<g id="edge39_Node000021_Node000002" class="edge">
<title>Node21&#45;&gt;Node2</title>
<g id="a_edge39_Node000021_Node000002"><a xlink:title=" ">
<path fill="none" stroke="#63b8ff" d="M645.87,-109.96C651.01,-96.11 663.12,-68.87 682.99,-55 734.96,-18.74 810.62,-11.06 855.23,-9.96"/>
<polygon fill="#63b8ff" stroke="#63b8ff" points="855.38,-13.46 865.33,-9.81 855.28,-6.46 855.38,-13.46"/>
</a>
</g>
</g>
<!-- Node21&#45;&gt;Node17 -->
<g id="edge37_Node000021_Node000017" class="edge">
<title>Node21&#45;&gt;Node17</title>
<g id="a_edge37_Node000021_Node000017"><a xlink:title=" ">
<path fill="none" stroke="#63b8ff" d="M634.41,-109.75C626.84,-102.03 615.62,-90.6 606.48,-81.28"/>
<polygon fill="#63b8ff" stroke="#63b8ff" points="608.92,-78.78 599.42,-74.09 603.93,-83.68 608.92,-78.78"/>
</a>
</g>
</g>
<!-- Node21&#45;&gt;Node19 -->
<g id="edge38_Node000021_Node000019" class="edge">
<title>Node21&#45;&gt;Node19</title>
<g id="a_edge38_Node000021_Node000019"><a xlink:title=" ">
<path fill="none" stroke="#63b8ff" d="M658.58,-109.98C673.76,-101.69 697.09,-88.94 714.89,-79.22"/>
<polygon fill="#63b8ff" stroke="#63b8ff" points="717.03,-82.04 724.13,-74.17 713.67,-75.89 717.03,-82.04"/>
</a>
</g>
</g>
<!-- Node22&#45;&gt;Node2 -->
<g id="edge42_Node000022_Node000002" class="edge">
<title>Node22&#45;&gt;Node2</title>
<g id="a_edge42_Node000022_Node000002"><a xlink:title=" ">
<path fill="none" stroke="#63b8ff" d="M842.6,-109.79C849.85,-101.16 860.71,-87.34 867.99,-74 875.94,-59.45 882.39,-41.73 886.6,-28.7"/>
<polygon fill="#63b8ff" stroke="#63b8ff" points="889.98,-29.63 889.59,-19.04 883.29,-27.56 889.98,-29.63"/>
</a>
</g>
</g>
<!-- Node22&#45;&gt;Node17 -->
<g id="edge41_Node000022_Node000017" class="edge">
<title>Node22&#45;&gt;Node17</title>
<g id="a_edge41_Node000022_Node000017"><a xlink:title=" ">
<path fill="none" stroke="#63b8ff" d="M795.79,-109.98C753.59,-100.82 686.35,-86.21 640.52,-76.26"/>
<polygon fill="#63b8ff" stroke="#63b8ff" points="641.02,-72.78 630.5,-74.08 639.53,-79.63 641.02,-72.78"/>
</a>
</g>
</g>
<!-- Node23&#45;&gt;Node2 -->
<g id="edge45_Node000023_Node000002" class="edge">
<title>Node23&#45;&gt;Node2</title>
<g id="a_edge45_Node000023_Node000002"><a xlink:title=" ">
<path fill="none" stroke="#63b8ff" d="M394.6,-56.53C397.43,-55.96 400.26,-55.44 402.99,-55 490.31,-41.06 757.2,-20.49 855.31,-13.19"/>
<polygon fill="#63b8ff" stroke="#63b8ff" points="855.63,-16.68 865.35,-12.45 855.12,-9.7 855.63,-16.68"/>
</a>
</g>
</g>
<!-- Node23&#45;&gt;Node4 -->
<g id="edge44_Node000023_Node000004" class="edge">
<title>Node23&#45;&gt;Node4</title>
<g id="a_edge44_Node000023_Node000004"><a xlink:title=" ">
<path fill="none" stroke="#63b8ff" d="M342.05,-54.98C317.44,-46.23 278.87,-32.51 251.08,-22.62"/>
<polygon fill="#63b8ff" stroke="#63b8ff" points="251.96,-19.22 241.37,-19.17 249.62,-25.82 251.96,-19.22"/>
</a>
</g>
</g>
<!-- Node23&#45;&gt;Node13 -->
<g id="edge46_Node000023_Node000013" class="edge">
<title>Node23&#45;&gt;Node13</title>
<g id="a_edge46_Node000023_Node000013"><a xlink:title=" ">
<path fill="none" stroke="#63b8ff" d="M370.29,-54.75C373.81,-47.57 378.91,-37.18 383.28,-28.27"/>
<polygon fill="#63b8ff" stroke="#63b8ff" points="386.52,-29.61 387.78,-19.09 380.23,-26.53 386.52,-29.61"/>
</a>
</g>
</g>
<!-- Node24 -->
<g id="Node000024" class="node">
<title>Node24</title>
<g id="a_Node000024"><a xlink:title=" ">
<polygon fill="#e0e0e0" stroke="#999999" points="342.49,-19 271.49,-19 271.49,0 342.49,0 342.49,-19"/>
<text text-anchor="middle" x="306.99" y="-7" font-family="Helvetica,sans-Serif" font-size="10.00">pico/time.h</text>
</a>
</g>
</g>
<!-- Node23&#45;&gt;Node24 -->
<g id="edge47_Node000023_Node000024" class="edge">
<title>Node23&#45;&gt;Node24</title>
<g id="a_edge47_Node000023_Node000024"><a xlink:title=" ">
<path fill="none" stroke="#63b8ff" d="M356.51,-54.98C347.79,-47.15 334.65,-35.34 324.1,-25.86"/>
<polygon fill="#63b8ff" stroke="#63b8ff" points="326.42,-23.25 316.65,-19.17 321.75,-28.46 326.42,-23.25"/>
</a>
</g>
</g>
<!-- Node25&#45;&gt;Node2 -->
<g id="edge51_Node000025_Node000002" class="edge">
<title>Node25&#45;&gt;Node2</title>
<g id="a_edge51_Node000025_Node000002"><a xlink:title=" ">
<path fill="none" stroke="#63b8ff" d="M709.1,-164.97C740.03,-138.85 833.71,-59.72 873.65,-26"/>
<polygon fill="#63b8ff" stroke="#63b8ff" points="876.14,-28.47 881.52,-19.34 871.62,-23.12 876.14,-28.47"/>
</a>
</g>
</g>
<!-- Node25&#45;&gt;Node4 -->
<g id="edge53_Node000025_Node000004" class="edge">
<title>Node25&#45;&gt;Node4</title>
<g id="a_edge53_Node000025_Node000004"><a xlink:title=" ">
<path fill="none" stroke="#63b8ff" d="M663.48,-167.15C596.26,-154.44 446.53,-122.84 327.99,-74 294.95,-60.38 259.56,-38.78 237.85,-24.62"/>
<polygon fill="#63b8ff" stroke="#63b8ff" points="239.71,-21.65 229.43,-19.05 235.84,-27.49 239.71,-21.65"/>
</a>
</g>
</g>
<!-- Node25&#45;&gt;Node17 -->
<g id="edge49_Node000025_Node000017" class="edge">
<title>Node25&#45;&gt;Node17</title>
<g id="a_edge49_Node000025_Node000017"><a xlink:title=" ">
<path fill="none" stroke="#63b8ff" d="M671.1,-164.89C652.64,-157.89 629.12,-146.31 613.99,-129 603.03,-116.44 597.15,-98.25 594.09,-84.55"/>
<polygon fill="#63b8ff" stroke="#63b8ff" points="597.45,-83.49 592.13,-74.32 590.57,-84.8 597.45,-83.49"/>
</a>
</g>
</g>
<!-- Node25&#45;&gt;Node19 -->
<g id="edge50_Node000025_Node000019" class="edge">
<title>Node25&#45;&gt;Node19</title>
<g id="a_edge50_Node000025_Node000019"><a xlink:title=" ">
<path fill="none" stroke="#63b8ff" d="M700.46,-164.64C702.69,-152.15 707.5,-128.8 714.99,-110 718.73,-100.64 724.08,-90.81 728.87,-82.78"/>
<polygon fill="#63b8ff" stroke="#63b8ff" points="732.01,-84.37 734.3,-74.02 726.06,-80.68 732.01,-84.37"/>
</a>
</g>
</g>
<!-- Node25&#45;&gt;Node21 -->
<g id="edge52_Node000025_Node000021" class="edge">
<title>Node25&#45;&gt;Node21</title>
<g id="a_edge52_Node000025_Node000021"><a xlink:title=" ">
<path fill="none" stroke="#63b8ff" d="M690,-164.98C681.8,-157.23 669.49,-145.58 659.52,-136.14"/>
<polygon fill="#63b8ff" stroke="#63b8ff" points="661.82,-133.5 652.16,-129.17 657.01,-138.59 661.82,-133.5"/>
</a>
</g>
</g>
<!-- Node29&#45;&gt;Node2 -->
<g id="edge59_Node000029_Node000002" class="edge">
<title>Node29&#45;&gt;Node2</title>
<g id="a_edge59_Node000029_Node000002"><a xlink:title=" ">
<path fill="none" stroke="#63b8ff" d="M958.93,-219.8C982.36,-193.04 1047.22,-110.43 1008.99,-55 991.05,-28.98 955.74,-18.16 928.58,-13.67"/>
<polygon fill="#63b8ff" stroke="#63b8ff" points="929.02,-10.2 918.63,-12.24 928.03,-17.13 929.02,-10.2"/>
</a>
</g>
</g>
<!-- Node29&#45;&gt;Node8 -->
<g id="edge58_Node000029_Node000008" class="edge">
<title>Node29&#45;&gt;Node8</title>
<g id="a_edge58_Node000029_Node000008"><a xlink:title=" ">
<path fill="none" stroke="#63b8ff" d="M910.89,-225.3C794.38,-216.02 456.34,-189.08 332.32,-179.19"/>
<polygon fill="#63b8ff" stroke="#63b8ff" points="332.28,-175.68 322.03,-178.37 331.72,-182.66 332.28,-175.68"/>
</a>
</g>
</g>
<!-- Node29&#45;&gt;Node30 -->
<g id="edge60_Node000029_Node000030" class="edge">
<title>Node29&#45;&gt;Node30</title>
<g id="a_edge60_Node000029_Node000030"><a xlink:title=" ">
<path fill="none" stroke="#63b8ff" d="M974.61,-219.98C998.9,-211.23 1036.94,-197.51 1064.37,-187.62"/>
<polygon fill="#63b8ff" stroke="#63b8ff" points="1065.73,-190.85 1073.95,-184.17 1063.35,-184.27 1065.73,-190.85"/>
</a>
</g>
</g>
<!-- Node30&#45;&gt;Node2 -->
<g id="edge61_Node000030_Node000002" class="edge">
<title>Node30&#45;&gt;Node2</title>
<g id="a_edge61_Node000030_Node000002"><a xlink:title=" ">
<path fill="none" stroke="#63b8ff" d="M1096.83,-164.88C1093.43,-143.08 1081.45,-85.34 1046.99,-55 1013.96,-25.91 963.03,-15.77 928.65,-12.27"/>
<polygon fill="#63b8ff" stroke="#63b8ff" points="928.82,-8.77 918.55,-11.38 928.21,-15.74 928.82,-8.77"/>
</a>
</g>
</g>
<!-- Node31 -->
<g id="Node000031" class="node">
<title>Node31</title>
<g id="a_Node000031"><a xlink:title=" ">
<polygon fill="#e0e0e0" stroke="#999999" points="1184.99,-129 1098.99,-129 1098.99,-110 1184.99,-110 1184.99,-129"/>
<text text-anchor="middle" x="1141.99" y="-117" font-family="Helvetica,sans-Serif" font-size="10.00">spacepacket.h</text>
</a>
</g>
</g>
<!-- Node30&#45;&gt;Node31 -->
<g id="edge62_Node000030_Node000031" class="edge">
<title>Node30&#45;&gt;Node31</title>
<g id="a_edge62_Node000030_Node000031"><a xlink:title=" ">
<path fill="none" stroke="#63b8ff" d="M1105.26,-164.75C1111.54,-157.18 1120.78,-146.05 1128.43,-136.84"/>
<polygon fill="#63b8ff" stroke="#63b8ff" points="1131.17,-139.02 1134.86,-129.09 1125.78,-134.55 1131.17,-139.02"/>
</a>
</g>
</g>
<!-- Node32 -->
<g id="Node000032" class="node">
<title>Node32</title>
<g id="a_Node000032"><a xlink:href="user__auth_8h.html" target="_top" xlink:title=" ">
<polygon fill="white" stroke="#666666" points="966.99,-129 892.99,-129 892.99,-110 966.99,-110 966.99,-129"/>
<text text-anchor="middle" x="929.99" y="-117" font-family="Helvetica,sans-Serif" font-size="10.00">user_auth.h</text>
</a>
</g>
</g>
<!-- Node30&#45;&gt;Node32 -->
<g id="edge63_Node000030_Node000032" class="edge">
<title>Node30&#45;&gt;Node32</title>
<g id="a_edge63_Node000030_Node000032"><a xlink:title=" ">
<path fill="none" stroke="#63b8ff" d="M1071,-164.98C1042.8,-156.09 998.36,-142.07 966.91,-132.15"/>
<polygon fill="#63b8ff" stroke="#63b8ff" points="967.79,-128.75 957.2,-129.08 965.68,-135.43 967.79,-128.75"/>
</a>
</g>
</g>
<!-- Node32&#45;&gt;Node2 -->
<g id="edge65_Node000032_Node000002" class="edge">
<title>Node32&#45;&gt;Node2</title>
<g id="a_edge65_Node000032_Node000002"><a xlink:title=" ">
<path fill="none" stroke="#63b8ff" d="M926.88,-109.66C920.67,-92.01 906.63,-52.09 898.38,-28.64"/>
<polygon fill="#63b8ff" stroke="#63b8ff" points="901.66,-27.43 895.04,-19.16 895.06,-29.75 901.66,-27.43"/>
</a>
</g>
</g>
<!-- Node32&#45;&gt;Node10 -->
<g id="edge66_Node000032_Node000010" class="edge">
<title>Node32&#45;&gt;Node10</title>
<g id="a_edge66_Node000032_Node000010"><a xlink:title=" ">
<path fill="none" stroke="#63b8ff" d="M892.84,-111.51C889.51,-110.97 886.2,-110.45 882.99,-110 845.79,-104.73 604.54,-80.68 499.61,-70.3"/>
<polygon fill="#63b8ff" stroke="#63b8ff" points="499.89,-66.81 489.6,-69.31 499.2,-73.77 499.89,-66.81"/>
</a>
</g>
</g>
<!-- Node32&#45;&gt;Node15 -->
<g id="edge64_Node000032_Node000015" class="edge">
<title>Node32&#45;&gt;Node15</title>
<g id="a_edge64_Node000032_Node000015"><a xlink:title=" ">
<path fill="none" stroke="#63b8ff" d="M913.48,-109.84C877.54,-91 791.98,-46.14 749.22,-23.73"/>
<polygon fill="#63b8ff" stroke="#63b8ff" points="750.78,-20.59 740.3,-19.05 747.53,-26.79 750.78,-20.59"/>
</a>
</g>
</g>
<!-- Node33&#45;&gt;Node2 -->
<g id="edge70_Node000033_Node000002" class="edge">
<title>Node33&#45;&gt;Node2</title>
<g id="a_edge70_Node000033_Node000002"><a xlink:title=" ">
<path fill="none" stroke="#63b8ff" d="M1295.18,-274.9C1287.78,-266.35 1276.8,-252.59 1269.99,-239 1256.8,-212.66 1250.99,-204.96 1250.99,-175.5 1250.99,-175.5 1250.99,-175.5 1250.99,-118.5 1250.99,-88.33 1250.63,-73.75 1226.99,-55 1181.51,-18.91 1006.08,-12.02 928.85,-10.76"/>
<polygon fill="#63b8ff" stroke="#63b8ff" points="928.68,-7.26 918.63,-10.62 928.58,-14.26 928.68,-7.26"/>
</a>
</g>
</g>
<!-- Node34 -->
<g id="Node000034" class="node">
<title>Node34</title>
<g id="a_Node000034"><a xlink:href="stdlib_8h.html" target="_top" xlink:title=" ">
<polygon fill="white" stroke="#666666" points="1476.99,-239 1400.99,-239 1400.99,-220 1476.99,-220 1476.99,-239"/>
<text text-anchor="middle" x="1438.99" y="-227" font-family="Helvetica,sans-Serif" font-size="10.00">pico/stdlib.h</text>
</a>
</g>
</g>
<!-- Node33&#45;&gt;Node34 -->
<g id="edge68_Node000033_Node000034" class="edge">
<title>Node33&#45;&gt;Node34</title>
<g id="a_edge68_Node000033_Node000034"><a xlink:title=" ">
<path fill="none" stroke="#63b8ff" d="M1324.85,-274.98C1347.12,-266.3 1381.9,-252.75 1407.21,-242.88"/>
<polygon fill="#63b8ff" stroke="#63b8ff" points="1408.7,-246.06 1416.75,-239.17 1406.16,-239.54 1408.7,-246.06"/>
</a>
</g>
</g>
<!-- Node35 -->
<g id="Node000035" class="node">
<title>Node35</title>
<g id="a_Node000035"><a xlink:href="binary__info_8h.html" target="_top" xlink:title=" ">
<polygon fill="white" stroke="#666666" points="1382.99,-239 1278.99,-239 1278.99,-220 1382.99,-220 1382.99,-239"/>
<text text-anchor="middle" x="1330.99" y="-227" font-family="Helvetica,sans-Serif" font-size="10.00">pico/binary_info.h</text>
</a>
</g>
</g>
<!-- Node33&#45;&gt;Node35 -->
<g id="edge69_Node000033_Node000035" class="edge">
<title>Node33&#45;&gt;Node35</title>
<g id="a_edge69_Node000033_Node000035"><a xlink:title=" ">
<path fill="none" stroke="#63b8ff" d="M1307.62,-274.75C1311.45,-267.49 1317.02,-256.95 1321.76,-247.98"/>
<polygon fill="#63b8ff" stroke="#63b8ff" points="1324.88,-249.57 1326.46,-239.09 1318.69,-246.3 1324.88,-249.57"/>
</a>
</g>
</g>
</g>
</svg>
