<?xml version="1.0" encoding="UTF-8" standalone="no"?>
<!DOCTYPE svg PUBLIC "-//W3C//DTD SVG 1.1//EN"
 "http://www.w3.org/Graphics/SVG/1.1/DTD/svg11.dtd">
<!-- Generated by graphviz version 2.43.0 (0)
 -->
<!-- Title: heartbeat_telemetry_job Pages: 1 -->
<!--zoomable 952 -->

<svg id="main" version="1.1" xmlns="http://www.w3.org/2000/svg" xmlns:xlink="http://www.w3.org/1999/xlink" xml:space="preserve" onload="init(evt)">

<style type="text/css"><![CDATA[
.node, .edge {opacity: 0.7;}
.node.selected, .edge.selected {opacity: 1;}
.edge:hover path { stroke: red; }
.edge:hover polygon { stroke: red; fill: red; }
]]></style>

<defs>
  <circle id="rim" cx="0" cy="0" r="7"/>
  <circle id="rim2" cx="0" cy="0" r="3.5"/>
  <g id="zoomPlus">
    <use xlink:href="#rim" fill="#404040"><set attributeName="fill" to="#808080" begin="zoomplus.mouseover" end="zoomplus.mouseout"/></use>
    <path d="M-4,0h8M0,-4v8" fill="none" stroke="white" stroke-width="1.5" pointer-events="none"/>
  </g>
  <g id="zoomMin">
    <use xlink:href="#rim" fill="#404040"><set attributeName="fill" to="#808080" begin="zoomminus.mouseover" end="zoomminus.mouseout"/></use>
    <path d="M-4,0h8" fill="none" stroke="white" stroke-width="1.5" pointer-events="none"/>
  </g>
  <g id="arrowUp" transform="translate(30 24)">
    <use xlink:href="#rim"/>
    <path pointer-events="none" fill="none" stroke="white" stroke-width="1.5" d="M0,-3.0v7 M-2.5,-0.5L0,-3.0L2.5,-0.5"/>
  </g>
  <g id="arrowRight" transform="rotate(90) translate(36 -43)">
    <use xlink:href="#rim"/>
    <path pointer-events="none" fill="none" stroke="white" stroke-width="1.5" d="M0,-3.0v7 M-2.5,-0.5L0,-3.0L2.5,-0.5"/>
  </g>
  <g id="arrowDown" transform="rotate(180) translate(-30 -48)">
    <use xlink:href="#rim"/>
    <path pointer-events="none" fill="none" stroke="white" stroke-width="1.5" d="M0,-3.0v7 M-2.5,-0.5L0,-3.0L2.5,-0.5"/>
  </g>
  <g id="arrowLeft" transform="rotate(270) translate(-36 17)">
    <use xlink:href="#rim"/>
    <path pointer-events="none" fill="none" stroke="white" stroke-width="1.5" d="M0,-3.0v7 M-2.5,-0.5L0,-3.0L2.5,-0.5"/>
  </g>
  <g id="resetDef">
    <use xlink:href="#rim2" fill="#404040"><set attributeName="fill" to="#808080" begin="reset.mouseover" end="reset.mouseout"/></use>
  </g>
</defs>
<script type="application/ecmascript">
var viewWidth = 812;
var viewHeight = 952;
var sectionId = 'dynsection-1';
</script>
<script type="application/ecmascript" xlink:href="svg.min.js"/>
<svg id="graph" class="graph">
<g id="viewport">
<title>heartbeat_telemetry_job</title>
<!-- Node1 -->
<g id="Node000001" class="node">
<title>Node1</title>
<g id="a_Node000001"><a xlink:title="Collects sensor information and transmits it as a heartbeat packet.">
<polygon fill="#999999" stroke="#666666" points="137,-499.7 0,-499.7 0,-480.7 137,-480.7 137,-499.7"/>
<text text-anchor="middle" x="68.5" y="-487.7" font-family="Helvetica,sans-Serif" font-size="10.00">heartbeat_telemetry_job</text>
</a>
</g>
</g>
<!-- Node2 -->
<g id="Node000002" class="node">
<title>Node2</title>
<g id="a_Node000002"><a xlink:href="ina219_8c.html#a9ffe93da633c2f6008fac2f2da36ab72" target="_top" xlink:title="Configures the EPS by writing to the configuration register (0x00) Config register value taken from A...">
<polygon fill="white" stroke="#666666" points="440.5,-925.7 394.5,-925.7 394.5,-906.7 440.5,-906.7 440.5,-925.7"/>
<text text-anchor="middle" x="417.5" y="-913.7" font-family="Helvetica,sans-Serif" font-size="10.00">config</text>
</a>
</g>
</g>
<!-- Node1&#45;&gt;Node2 -->
<g id="edge1_Node000001_Node000002" class="edge">
<title>Node1&#45;&gt;Node2</title>
<g id="a_edge1_Node000001_Node000002"><a xlink:title=" ">
<path fill="none" stroke="#63b8ff" d="M70.46,-499.93C76.24,-556.65 108.48,-844.07 173,-898.2 233,-948.54 333.24,-935.59 384.37,-924.49"/>
<polygon fill="#63b8ff" stroke="#63b8ff" points="385.24,-927.88 394.21,-922.24 383.68,-921.06 385.24,-927.88"/>
</a>
</g>
</g>
<!-- Node4 -->
<g id="Node000004" class="node">
<title>Node4</title>
<g id="a_Node000004"><a xlink:href="ds18b20_8c.html#a5f77a33a7d9243a4c2035db0e66a7eb7" target="_top" xlink:title="Reads the temperature from a ds18b20 This requires waiting for that conversion to finish,...">
<polygon fill="white" stroke="#666666" points="303,-222.7 187,-222.7 187,-203.7 303,-203.7 303,-222.7"/>
<text text-anchor="middle" x="245" y="-210.7" font-family="Helvetica,sans-Serif" font-size="10.00">ds18b20_read_temp</text>
</a>
</g>
</g>
<!-- Node1&#45;&gt;Node4 -->
<g id="edge4_Node000001_Node000004" class="edge">
<title>Node1&#45;&gt;Node4</title>
<g id="a_edge4_Node000001_Node000004"><a xlink:title=" ">
<path fill="none" stroke="#63b8ff" d="M70.35,-480.51C74.22,-442.55 93.55,-302.64 173,-232.2 174.92,-230.5 176.98,-228.95 179.14,-227.53"/>
<polygon fill="#63b8ff" stroke="#63b8ff" points="180.83,-230.6 187.92,-222.72 177.47,-224.46 180.83,-230.6"/>
</a>
</g>
</g>
<!-- Node5 -->
<g id="Node000005" class="node">
<title>Node5</title>
<g id="a_Node000005"><a xlink:href="ds18b20_8c.html#ac28489af27a9b70d2c7a03eb35617bea" target="_top" xlink:title="Triggers a temperature conversion on all ds18b20 devices on the onewire line. This can take up to 750...">
<polygon fill="white" stroke="#666666" points="317,-185.7 173,-185.7 173,-166.7 317,-166.7 317,-185.7"/>
<text text-anchor="middle" x="245" y="-173.7" font-family="Helvetica,sans-Serif" font-size="10.00">ds18b20_start_conversion</text>
</a>
</g>
</g>
<!-- Node1&#45;&gt;Node5 -->
<g id="edge5_Node000001_Node000005" class="edge">
<title>Node1&#45;&gt;Node5</title>
<g id="a_edge5_Node000001_Node000005"><a xlink:title=" ">
<path fill="none" stroke="#63b8ff" d="M69.8,-480.59C71.63,-439.53 84.43,-277.29 173,-195.2 174.67,-193.65 176.46,-192.23 178.33,-190.91"/>
<polygon fill="#63b8ff" stroke="#63b8ff" points="180.15,-193.91 187.04,-185.86 176.64,-187.85 180.15,-193.91"/>
</a>
</g>
</g>
<!-- Node6 -->
<g id="Node000006" class="node">
<title>Node6</title>
<g id="a_Node000006"><a xlink:href="timing_8c.html#a7cef17ffb0e9db503a077191e1a4b013" target="_top" xlink:title=" ">
<polygon fill="white" stroke="#666666" points="281,-148.7 209,-148.7 209,-129.7 281,-129.7 281,-148.7"/>
<text text-anchor="middle" x="245" y="-136.7" font-family="Helvetica,sans-Serif" font-size="10.00">get_uptime</text>
</a>
</g>
</g>
<!-- Node1&#45;&gt;Node6 -->
<g id="edge6_Node000001_Node000006" class="edge">
<title>Node1&#45;&gt;Node6</title>
<g id="a_edge6_Node000001_Node000006"><a xlink:title=" ">
<path fill="none" stroke="#63b8ff" d="M69.37,-480.62C69.34,-436.63 75.23,-252.07 173,-158.2 180.1,-151.38 189.38,-146.95 198.87,-144.08"/>
<polygon fill="#63b8ff" stroke="#63b8ff" points="199.9,-147.43 208.76,-141.62 198.21,-140.64 199.9,-147.43"/>
</a>
</g>
</g>
<!-- Node7 -->
<g id="Node000007" class="node">
<title>Node7</title>
<g id="a_Node000007"><a xlink:href="ina219_8c.html#a7a37de137b1bb2ec0149be505ec84ffe" target="_top" xlink:title="Reads from Current register (0x04) writes it to [output_buf] unprocessed.">
<polygon fill="white" stroke="#666666" points="291,-888.7 199,-888.7 199,-869.7 291,-869.7 291,-888.7"/>
<text text-anchor="middle" x="245" y="-876.7" font-family="Helvetica,sans-Serif" font-size="10.00">getCurrent_raw</text>
</a>
</g>
</g>
<!-- Node1&#45;&gt;Node7 -->
<g id="edge7_Node000001_Node000007" class="edge">
<title>Node1&#45;&gt;Node7</title>
<g id="a_edge7_Node000001_Node000007"><a xlink:title=" ">
<path fill="none" stroke="#63b8ff" d="M70.88,-499.93C78.63,-553.05 118.22,-807.71 173,-861.2 177.6,-865.69 183.15,-869.11 189.09,-871.71"/>
<polygon fill="#63b8ff" stroke="#63b8ff" points="188.09,-875.06 198.68,-875.14 190.45,-868.47 188.09,-875.06"/>
</a>
</g>
</g>
<!-- Node10 -->
<g id="Node000010" class="node">
<title>Node10</title>
<g id="a_Node000010"><a xlink:href="ina219_8c.html#aeb76d9007b107e997adfd60ab4d3bae0" target="_top" xlink:title="Reads from Power register (0x03), writes it to [output_bef] unprocessed.">
<polygon fill="white" stroke="#666666" points="288,-851.7 202,-851.7 202,-832.7 288,-832.7 288,-851.7"/>
<text text-anchor="middle" x="245" y="-839.7" font-family="Helvetica,sans-Serif" font-size="10.00">getPower_raw</text>
</a>
</g>
</g>
<!-- Node1&#45;&gt;Node10 -->
<g id="edge11_Node000001_Node000010" class="edge">
<title>Node1&#45;&gt;Node10</title>
<g id="a_edge11_Node000001_Node000010"><a xlink:title=" ">
<path fill="none" stroke="#63b8ff" d="M69.33,-499.87C69.08,-544.25 74.15,-730.38 173,-824.2 178.39,-829.32 185.02,-833.04 192.04,-835.73"/>
<polygon fill="#63b8ff" stroke="#63b8ff" points="191.19,-839.13 201.78,-838.8 193.29,-832.45 191.19,-839.13"/>
</a>
</g>
</g>
<!-- Node11 -->
<g id="Node000011" class="node">
<title>Node11</title>
<g id="a_Node000011"><a xlink:href="ina219_8c.html#acc82e6e7a3a8b48efe1ad86f421dcad0" target="_top" xlink:title="Reads from VBus register (0x02), writes it to [output_buf] unprocessed.">
<polygon fill="white" stroke="#666666" points="285,-518.7 205,-518.7 205,-499.7 285,-499.7 285,-518.7"/>
<text text-anchor="middle" x="245" y="-506.7" font-family="Helvetica,sans-Serif" font-size="10.00">getVBus_raw</text>
</a>
</g>
</g>
<!-- Node1&#45;&gt;Node11 -->
<g id="edge14_Node000001_Node000011" class="edge">
<title>Node1&#45;&gt;Node11</title>
<g id="a_edge14_Node000001_Node000011"><a xlink:title=" ">
<path fill="none" stroke="#63b8ff" d="M137.47,-497.6C156.59,-499.68 177,-501.91 194.8,-503.85"/>
<polygon fill="#63b8ff" stroke="#63b8ff" points="194.62,-507.35 204.94,-504.95 195.38,-500.39 194.62,-507.35"/>
</a>
</g>
</g>
<!-- Node12 -->
<g id="Node000012" class="node">
<title>Node12</title>
<g id="a_Node000012"><a xlink:href="ina219_8c.html#a0ef96929110f3bf77d9da6940841b7a3" target="_top" xlink:title="Reads from the VShunt register(0x01), writes it to [output_buf] unprocessed.">
<polygon fill="white" stroke="#666666" points="290,-481.7 200,-481.7 200,-462.7 290,-462.7 290,-481.7"/>
<text text-anchor="middle" x="245" y="-469.7" font-family="Helvetica,sans-Serif" font-size="10.00">getVShunt_raw</text>
</a>
</g>
</g>
<!-- Node1&#45;&gt;Node12 -->
<g id="edge16_Node000001_Node000012" class="edge">
<title>Node1&#45;&gt;Node12</title>
<g id="a_edge16_Node000001_Node000012"><a xlink:title=" ">
<path fill="none" stroke="#63b8ff" d="M137.47,-483.19C154.82,-481.4 173.25,-479.5 189.81,-477.79"/>
<polygon fill="#63b8ff" stroke="#63b8ff" points="190.27,-481.26 199.86,-476.76 189.55,-474.3 190.27,-481.26"/>
</a>
</g>
</g>
<!-- Node13 -->
<g id="Node000013" class="node">
<title>Node13</title>
<g id="a_Node000013"><a xlink:href="hb__tlm__log_8c.html#a06d9003c959538dac30ed99c0f01db0f" target="_top" xlink:title=" ">
<polygon fill="white" stroke="#666666" points="298,-111.7 192,-111.7 192,-92.7 298,-92.7 298,-111.7"/>
<text text-anchor="middle" x="245" y="-99.7" font-family="Helvetica,sans-Serif" font-size="10.00">log_heartbeat_tlm</text>
</a>
</g>
</g>
<!-- Node1&#45;&gt;Node13 -->
<g id="edge18_Node000001_Node000013" class="edge">
<title>Node1&#45;&gt;Node13</title>
<g id="a_edge18_Node000001_Node000013"><a xlink:title=" ">
<path fill="none" stroke="#63b8ff" d="M69.02,-480.54C67.27,-433.56 66.04,-226.89 173,-121.2 175.88,-118.36 179.13,-115.93 182.63,-113.85"/>
<polygon fill="#63b8ff" stroke="#63b8ff" points="184.29,-116.93 191.73,-109.38 181.21,-110.65 184.29,-116.93"/>
</a>
</g>
</g>
<!-- Node21 -->
<g id="Node000021" class="node">
<title>Node21</title>
<g id="a_Node000021"><a xlink:href="mag__lis3mdltr_8c.html#a7701b495ff94874c5d3bbd940b8f99ff" target="_top" xlink:title="Writes the temperature output in Celsius to [output].">
<polygon fill="white" stroke="#666666" points="290,-444.7 200,-444.7 200,-425.7 290,-425.7 290,-444.7"/>
<text text-anchor="middle" x="245" y="-432.7" font-family="Helvetica,sans-Serif" font-size="10.00">mag_get_temp</text>
</a>
</g>
</g>
<!-- Node1&#45;&gt;Node21 -->
<g id="edge28_Node000001_Node000021" class="edge">
<title>Node1&#45;&gt;Node21</title>
<g id="a_edge28_Node000001_Node000021"><a xlink:title=" ">
<path fill="none" stroke="#63b8ff" d="M95.27,-480.65C116.11,-473.07 146.27,-462.42 173,-454.2 180.55,-451.88 188.59,-449.58 196.46,-447.41"/>
<polygon fill="#63b8ff" stroke="#63b8ff" points="197.53,-450.74 206.27,-444.75 195.7,-443.99 197.53,-450.74"/>
</a>
</g>
</g>
<!-- Node22 -->
<g id="Node000022" class="node">
<title>Node22</title>
<g id="a_Node000022"><a xlink:href="mag__lis3mdltr_8c.html#a38a61bd16b9dfb232231f3518d803b65" target="_top" xlink:title="Writes the x output to [output].">
<polygon fill="white" stroke="#666666" points="280.5,-407.7 209.5,-407.7 209.5,-388.7 280.5,-388.7 280.5,-407.7"/>
<text text-anchor="middle" x="245" y="-395.7" font-family="Helvetica,sans-Serif" font-size="10.00">mag_get_x</text>
</a>
</g>
</g>
<!-- Node1&#45;&gt;Node22 -->
<g id="edge30_Node000001_Node000022" class="edge">
<title>Node1&#45;&gt;Node22</title>
<g id="a_edge30_Node000001_Node000022"><a xlink:title=" ">
<path fill="none" stroke="#63b8ff" d="M80.47,-480.45C98.51,-464.89 136.16,-434.45 173,-417.2 181.23,-413.35 190.37,-410.17 199.29,-407.59"/>
<polygon fill="#63b8ff" stroke="#63b8ff" points="200.44,-410.9 209.19,-404.92 198.62,-404.14 200.44,-410.9"/>
</a>
</g>
</g>
<!-- Node23 -->
<g id="Node000023" class="node">
<title>Node23</title>
<g id="a_Node000023"><a xlink:href="mag__lis3mdltr_8c.html#a47dbf866e595e1b959c9da3b594dcc7d" target="_top" xlink:title="Writes the y output to [output].">
<polygon fill="white" stroke="#666666" points="280.5,-370.7 209.5,-370.7 209.5,-351.7 280.5,-351.7 280.5,-370.7"/>
<text text-anchor="middle" x="245" y="-358.7" font-family="Helvetica,sans-Serif" font-size="10.00">mag_get_y</text>
</a>
</g>
</g>
<!-- Node1&#45;&gt;Node23 -->
<g id="edge32_Node000001_Node000023" class="edge">
<title>Node1&#45;&gt;Node23</title>
<g id="a_edge32_Node000001_Node000023"><a xlink:title=" ">
<path fill="none" stroke="#63b8ff" d="M75.73,-480.58C90.13,-459.11 127.98,-407.11 173,-380.2 181.04,-375.4 190.32,-371.78 199.45,-369.07"/>
<polygon fill="#63b8ff" stroke="#63b8ff" points="200.47,-372.42 209.24,-366.48 198.68,-365.66 200.47,-372.42"/>
</a>
</g>
</g>
<!-- Node24 -->
<g id="Node000024" class="node">
<title>Node24</title>
<g id="a_Node000024"><a xlink:href="mag__lis3mdltr_8c.html#ae8775374a424d7f7cce47046c180954d" target="_top" xlink:title="Writes the z output to [output].">
<polygon fill="white" stroke="#666666" points="280,-333.7 210,-333.7 210,-314.7 280,-314.7 280,-333.7"/>
<text text-anchor="middle" x="245" y="-321.7" font-family="Helvetica,sans-Serif" font-size="10.00">mag_get_z</text>
</a>
</g>
</g>
<!-- Node1&#45;&gt;Node24 -->
<g id="edge34_Node000001_Node000024" class="edge">
<title>Node1&#45;&gt;Node24</title>
<g id="a_edge34_Node000001_Node000024"><a xlink:title=" ">
<path fill="none" stroke="#63b8ff" d="M73.44,-480.56C84.71,-454.18 119.77,-380.36 173,-343.2 181,-337.62 190.55,-333.68 200.02,-330.89"/>
<polygon fill="#63b8ff" stroke="#63b8ff" points="200.96,-334.26 209.78,-328.39 199.22,-327.48 200.96,-334.26"/>
</a>
</g>
</g>
<!-- Node25 -->
<g id="Node000025" class="node">
<title>Node25</title>
<g id="a_Node000025"><a xlink:href="simulator_2drivers_2include_2max17048_8h.html#ad9a75a9c9fa941599b507163dc5c223a" target="_top" xlink:title="Get cell percentage.">
<polygon fill="white" stroke="#666666" points="316,-296.7 174,-296.7 174,-277.7 316,-277.7 316,-296.7"/>
<text text-anchor="middle" x="245" y="-284.7" font-family="Helvetica,sans-Serif" font-size="10.00">max17048CellPercentage</text>
</a>
</g>
</g>
<!-- Node1&#45;&gt;Node25 -->
<g id="edge36_Node000001_Node000025" class="edge">
<title>Node1&#45;&gt;Node25</title>
<g id="a_edge36_Node000001_Node000025"><a xlink:title=" ">
<path fill="none" stroke="#63b8ff" d="M72.06,-480.42C80.63,-449.66 111.32,-354.06 173,-306.2 175.44,-304.31 178.06,-302.6 180.79,-301.07"/>
<polygon fill="#63b8ff" stroke="#63b8ff" points="182.36,-304.2 189.86,-296.71 179.33,-297.88 182.36,-304.2"/>
</a>
</g>
</g>
<!-- Node26 -->
<g id="Node000026" class="node">
<title>Node26</title>
<g id="a_Node000026"><a xlink:href="max17048_8c.html#adf384268b2363eadca0fdb81281a1a6f" target="_top" xlink:title="Read voltage of battery.">
<polygon fill="white" stroke="#666666" points="307,-259.7 183,-259.7 183,-240.7 307,-240.7 307,-259.7"/>
<text text-anchor="middle" x="245" y="-247.7" font-family="Helvetica,sans-Serif" font-size="10.00">max17048CellVoltage</text>
</a>
</g>
</g>
<!-- Node1&#45;&gt;Node26 -->
<g id="edge38_Node000001_Node000026" class="edge">
<title>Node1&#45;&gt;Node26</title>
<g id="a_edge38_Node000001_Node000026"><a xlink:title=" ">
<path fill="none" stroke="#63b8ff" d="M71.07,-480.49C77.16,-445.98 102.51,-328.23 173,-269.2 175.01,-267.52 177.16,-265.98 179.4,-264.58"/>
<polygon fill="#63b8ff" stroke="#63b8ff" points="181.26,-267.56 188.49,-259.82 178.01,-261.36 181.26,-267.56"/>
</a>
</g>
</g>
<!-- Node27 -->
<g id="Node000027" class="node">
<title>Node27</title>
<g id="a_Node000027"><a xlink:href="rtc__ds3231_8c.html#a4d9ecc8e912cc84cd50c842a8d69e70e" target="_top" xlink:title=" ">
<polygon fill="white" stroke="#666666" points="283.5,-814.7 206.5,-814.7 206.5,-795.7 283.5,-795.7 283.5,-814.7"/>
<text text-anchor="middle" x="245" y="-802.7" font-family="Helvetica,sans-Serif" font-size="10.00">rtc_get_date</text>
</a>
</g>
</g>
<!-- Node1&#45;&gt;Node27 -->
<g id="edge40_Node000001_Node000027" class="edge">
<title>Node1&#45;&gt;Node27</title>
<g id="a_edge40_Node000001_Node000027"><a xlink:title=" ">
<path fill="none" stroke="#63b8ff" d="M69.75,-499.91C71.37,-541.36 83.44,-705.11 173,-787.2 179.61,-793.26 187.96,-797.34 196.59,-800.08"/>
<polygon fill="#63b8ff" stroke="#63b8ff" points="195.82,-803.5 206.38,-802.64 197.59,-796.73 195.82,-803.5"/>
</a>
</g>
</g>
<!-- Node28 -->
<g id="Node000028" class="node">
<title>Node28</title>
<g id="a_Node000028"><a xlink:href="rtc__ds3231_8c.html#a50130551fb17b3228d45e86ff7b634c3" target="_top" xlink:title=" ">
<polygon fill="white" stroke="#666666" points="283.5,-777.7 206.5,-777.7 206.5,-758.7 283.5,-758.7 283.5,-777.7"/>
<text text-anchor="middle" x="245" y="-765.7" font-family="Helvetica,sans-Serif" font-size="10.00">rtc_get_hour</text>
</a>
</g>
</g>
<!-- Node1&#45;&gt;Node28 -->
<g id="edge42_Node000001_Node000028" class="edge">
<title>Node1&#45;&gt;Node28</title>
<g id="a_edge42_Node000001_Node000028"><a xlink:title=" ">
<path fill="none" stroke="#63b8ff" d="M70.27,-499.74C73.88,-537.72 92.47,-679.55 173,-750.2 179.67,-756.05 187.97,-760.05 196.53,-762.77"/>
<polygon fill="#63b8ff" stroke="#63b8ff" points="195.66,-766.16 206.22,-765.33 197.44,-759.39 195.66,-766.16"/>
</a>
</g>
</g>
<!-- Node29 -->
<g id="Node000029" class="node">
<title>Node29</title>
<g id="a_Node000029"><a xlink:href="rtc__ds3231_8c.html#a37b2be869bea794d2fdfa8869baaa26d" target="_top" xlink:title=" ">
<polygon fill="white" stroke="#666666" points="290,-740.7 200,-740.7 200,-721.7 290,-721.7 290,-740.7"/>
<text text-anchor="middle" x="245" y="-728.7" font-family="Helvetica,sans-Serif" font-size="10.00">rtc_get_minute</text>
</a>
</g>
</g>
<!-- Node1&#45;&gt;Node29 -->
<g id="edge44_Node000001_Node000029" class="edge">
<title>Node1&#45;&gt;Node29</title>
<g id="a_edge44_Node000001_Node000029"><a xlink:title=" ">
<path fill="none" stroke="#63b8ff" d="M71.01,-500.04C76.91,-534.96 101.7,-654.08 173,-713.2 178.01,-717.36 183.86,-720.57 190,-723.05"/>
<polygon fill="#63b8ff" stroke="#63b8ff" points="189.24,-726.49 199.83,-726.38 191.48,-719.86 189.24,-726.49"/>
</a>
</g>
</g>
<!-- Node30 -->
<g id="Node000030" class="node">
<title>Node30</title>
<g id="a_Node000030"><a xlink:href="rtc__ds3231_8c.html#a21b982cbe42fb3a2a10755cc9cb1f3f8" target="_top" xlink:title=" ">
<polygon fill="white" stroke="#666666" points="288.5,-703.7 201.5,-703.7 201.5,-684.7 288.5,-684.7 288.5,-703.7"/>
<text text-anchor="middle" x="245" y="-691.7" font-family="Helvetica,sans-Serif" font-size="10.00">rtc_get_month</text>
</a>
</g>
</g>
<!-- Node1&#45;&gt;Node30 -->
<g id="edge46_Node000001_Node000030" class="edge">
<title>Node1&#45;&gt;Node30</title>
<g id="a_edge46_Node000001_Node000030"><a xlink:title=" ">
<path fill="none" stroke="#63b8ff" d="M72,-500.12C80.39,-531.32 110.61,-628.21 173,-676.2 178.49,-680.42 184.85,-683.66 191.47,-686.14"/>
<polygon fill="#63b8ff" stroke="#63b8ff" points="190.68,-689.57 201.27,-689.27 192.81,-682.9 190.68,-689.57"/>
</a>
</g>
</g>
<!-- Node31 -->
<g id="Node000031" class="node">
<title>Node31</title>
<g id="a_Node000031"><a xlink:href="rtc__ds3231_8c.html#a663d94e64990cdf62b9f4f740b94bfab" target="_top" xlink:title=" ">
<polygon fill="white" stroke="#666666" points="290,-666.7 200,-666.7 200,-647.7 290,-647.7 290,-666.7"/>
<text text-anchor="middle" x="245" y="-654.7" font-family="Helvetica,sans-Serif" font-size="10.00">rtc_get_second</text>
</a>
</g>
</g>
<!-- Node1&#45;&gt;Node31 -->
<g id="edge48_Node000001_Node000031" class="edge">
<title>Node1&#45;&gt;Node31</title>
<g id="a_edge48_Node000001_Node000031"><a xlink:title=" ">
<path fill="none" stroke="#63b8ff" d="M73.37,-500.02C84.48,-526.85 119.15,-601.89 173,-639.2 178.21,-642.81 184.09,-645.7 190.17,-648.01"/>
<polygon fill="#63b8ff" stroke="#63b8ff" points="189.25,-651.39 199.84,-651.18 191.43,-644.74 189.25,-651.39"/>
</a>
</g>
</g>
<!-- Node32 -->
<g id="Node000032" class="node">
<title>Node32</title>
<g id="a_Node000032"><a xlink:href="rtc__ds3231_8c.html#a787d50004f6b318e952f813800188f89" target="_top" xlink:title="Reads temp (C) from RTC and writes it to [output].">
<polygon fill="white" stroke="#666666" points="285.5,-629.7 204.5,-629.7 204.5,-610.7 285.5,-610.7 285.5,-629.7"/>
<text text-anchor="middle" x="245" y="-617.7" font-family="Helvetica,sans-Serif" font-size="10.00">rtc_get_temp</text>
</a>
</g>
</g>
<!-- Node1&#45;&gt;Node32 -->
<g id="edge50_Node000001_Node000032" class="edge">
<title>Node1&#45;&gt;Node32</title>
<g id="a_edge50_Node000001_Node000032"><a xlink:title=" ">
<path fill="none" stroke="#63b8ff" d="M75.45,-499.72C89.54,-521.47 127.26,-575 173,-602.2 179.61,-606.13 187.06,-609.21 194.59,-611.62"/>
<polygon fill="#63b8ff" stroke="#63b8ff" points="193.88,-615.06 204.46,-614.42 195.79,-608.33 193.88,-615.06"/>
</a>
</g>
</g>
<!-- Node33 -->
<g id="Node000033" class="node">
<title>Node33</title>
<g id="a_Node000033"><a xlink:href="rtc__ds3231_8c.html#ab763e064ad555e3e2b0f21d4e78c0d76" target="_top" xlink:title=" ">
<polygon fill="white" stroke="#666666" points="283.5,-592.7 206.5,-592.7 206.5,-573.7 283.5,-573.7 283.5,-592.7"/>
<text text-anchor="middle" x="245" y="-580.7" font-family="Helvetica,sans-Serif" font-size="10.00">rtc_get_year</text>
</a>
</g>
</g>
<!-- Node1&#45;&gt;Node33 -->
<g id="edge52_Node000001_Node000033" class="edge">
<title>Node1&#45;&gt;Node33</title>
<g id="a_edge52_Node000001_Node000033"><a xlink:title=" ">
<path fill="none" stroke="#63b8ff" d="M79.81,-499.78C97.51,-515.7 135.42,-547.61 173,-565.2 180.37,-568.65 188.49,-571.5 196.53,-573.83"/>
<polygon fill="#63b8ff" stroke="#63b8ff" points="195.67,-577.23 206.23,-576.43 197.48,-570.46 195.67,-577.23"/>
</a>
</g>
</g>
<!-- Node34 -->
<g id="Node000034" class="node">
<title>Node34</title>
<g id="a_Node000034"><a xlink:href="telemetry_8c.html#a6dbf6c6cfd75451e5642ca0b64bf7f5a" target="_top" xlink:title=" ">
<polygon fill="white" stroke="#666666" points="291.5,-74.7 198.5,-74.7 198.5,-55.7 291.5,-55.7 291.5,-74.7"/>
<text text-anchor="middle" x="245" y="-62.7" font-family="Helvetica,sans-Serif" font-size="10.00">send_telemetry</text>
</a>
</g>
</g>
<!-- Node1&#45;&gt;Node34 -->
<g id="edge54_Node000001_Node000034" class="edge">
<title>Node1&#45;&gt;Node34</title>
<g id="a_edge54_Node000001_Node000034"><a xlink:title=" ">
<path fill="none" stroke="#63b8ff" d="M70.62,-480.69C77.35,-425.23 114.07,-143.83 173,-84.2 177.47,-79.68 182.9,-76.19 188.73,-73.52"/>
<polygon fill="#63b8ff" stroke="#63b8ff" points="190.06,-76.76 198.17,-69.94 187.58,-70.21 190.06,-76.76"/>
</a>
</g>
</g>
<!-- Node35 -->
<g id="Node000035" class="node">
<title>Node35</title>
<g id="a_Node000035"><a xlink:href="vega__ant_8c.html#a6377b53e9c676bceaa38ec9ddeb7fd28" target="_top" xlink:title="Gets deployment status of antennas.">
<polygon fill="white" stroke="#666666" points="293.5,-555.7 196.5,-555.7 196.5,-536.7 293.5,-536.7 293.5,-555.7"/>
<text text-anchor="middle" x="245" y="-543.7" font-family="Helvetica,sans-Serif" font-size="10.00">vega_ant_status</text>
</a>
</g>
</g>
<!-- Node1&#45;&gt;Node35 -->
<g id="edge55_Node000001_Node000035" class="edge">
<title>Node1&#45;&gt;Node35</title>
<g id="a_edge55_Node000001_Node000035"><a xlink:title=" ">
<path fill="none" stroke="#63b8ff" d="M93.52,-499.82C114.34,-507.97 145.39,-519.66 173,-528.2 179.53,-530.22 186.45,-532.19 193.3,-534.03"/>
<polygon fill="#63b8ff" stroke="#63b8ff" points="192.69,-537.49 203.25,-536.64 194.46,-530.72 192.69,-537.49"/>
</a>
</g>
</g>
<!-- Node2&#45;&gt;Node2 -->
<g id="edge2_Node000002_Node000002" class="edge">
<title>Node2&#45;&gt;Node2</title>
<g id="a_edge2_Node000002_Node000002"><a xlink:title=" ">
<path fill="none" stroke="#63b8ff" d="M394.09,-924.93C380.32,-933.82 388.12,-943.7 417.5,-943.7 438.15,-943.7 448.14,-938.81 447.47,-932.82"/>
<polygon fill="#63b8ff" stroke="#63b8ff" points="449.99,-930.39 440.91,-924.93 444.61,-934.86 449.99,-930.39"/>
</a>
</g>
</g>
<!-- Node3 -->
<g id="Node000003" class="node">
<title>Node3</title>
<g id="a_Node000003"><a xlink:href="i2c_8c.html#a73f9c3581b5d48d5db9c6c445034a970" target="_top" xlink:title="Write [reg] and [buf] to i2c device, [reg] is just inserted before [buf].">
<polygon fill="white" stroke="#666666" points="637,-906.7 518,-906.7 518,-887.7 637,-887.7 637,-906.7"/>
<text text-anchor="middle" x="577.5" y="-894.7" font-family="Helvetica,sans-Serif" font-size="10.00">i2c_write_to_register</text>
</a>
</g>
</g>
<!-- Node2&#45;&gt;Node3 -->
<g id="edge3_Node000002_Node000003" class="edge">
<title>Node2&#45;&gt;Node3</title>
<g id="a_edge3_Node000002_Node000003"><a xlink:title=" ">
<path fill="none" stroke="#63b8ff" d="M440.8,-913.52C458.29,-911.42 483.62,-908.37 507.67,-905.48"/>
<polygon fill="#63b8ff" stroke="#63b8ff" points="508.36,-908.92 517.87,-904.25 507.53,-901.97 508.36,-908.92"/>
</a>
</g>
</g>
<!-- Node8 -->
<g id="Node000008" class="node">
<title>Node8</title>
<g id="a_Node000008"><a xlink:href="ina219_8c.html#a75d20b3960f7d7688d27f264f02eb98a" target="_top" xlink:title="Calibrates the EPS by writing to the calibration register (0x05) Currently set up for a max current o...">
<polygon fill="white" stroke="#666666" points="447,-888.7 388,-888.7 388,-869.7 447,-869.7 447,-888.7"/>
<text text-anchor="middle" x="417.5" y="-876.7" font-family="Helvetica,sans-Serif" font-size="10.00">calibrate</text>
</a>
</g>
</g>
<!-- Node7&#45;&gt;Node8 -->
<g id="edge8_Node000007_Node000008" class="edge">
<title>Node7&#45;&gt;Node8</title>
<g id="a_edge8_Node000007_Node000008"><a xlink:title=" ">
<path fill="none" stroke="#63b8ff" d="M291.24,-879.2C318.21,-879.2 352.08,-879.2 377.8,-879.2"/>
<polygon fill="#63b8ff" stroke="#63b8ff" points="377.93,-882.7 387.93,-879.2 377.93,-875.7 377.93,-882.7"/>
</a>
</g>
</g>
<!-- Node9 -->
<g id="Node000009" class="node">
<title>Node9</title>
<g id="a_Node000009"><a xlink:href="i2c_8c.html#afd489cf93d14a907e09132068de8e1c9" target="_top" xlink:title="Write [reg] byte to i2c device and then read [nbytes] from it. Read bytes are stored in [buf].">
<polygon fill="white" stroke="#666666" points="482,-573.7 353,-573.7 353,-554.7 482,-554.7 482,-573.7"/>
<text text-anchor="middle" x="417.5" y="-561.7" font-family="Helvetica,sans-Serif" font-size="10.00">i2c_read_from_register</text>
</a>
</g>
</g>
<!-- Node7&#45;&gt;Node9 -->
<g id="edge10_Node000007_Node000009" class="edge">
<title>Node7&#45;&gt;Node9</title>
<g id="a_edge10_Node000007_Node000009"><a xlink:title=" ">
<path fill="none" stroke="#63b8ff" d="M291.07,-874.88C300.54,-872.14 309.82,-867.86 317,-861.2 399.64,-784.54 413.69,-637.3 416.04,-584.04"/>
<polygon fill="#63b8ff" stroke="#63b8ff" points="419.54,-584.02 416.39,-573.9 412.55,-583.77 419.54,-584.02"/>
</a>
</g>
</g>
<!-- Node8&#45;&gt;Node3 -->
<g id="edge9_Node000008_Node000003" class="edge">
<title>Node8&#45;&gt;Node3</title>
<g id="a_edge9_Node000008_Node000003"><a xlink:title=" ">
<path fill="none" stroke="#63b8ff" d="M447.11,-882.46C464.16,-884.4 486.57,-886.96 507.94,-889.39"/>
<polygon fill="#63b8ff" stroke="#63b8ff" points="507.66,-892.88 517.99,-890.54 508.46,-885.93 507.66,-892.88"/>
</a>
</g>
</g>
<!-- Node10&#45;&gt;Node8 -->
<g id="edge12_Node000010_Node000008" class="edge">
<title>Node10&#45;&gt;Node8</title>
<g id="a_edge12_Node000010_Node000008"><a xlink:title=" ">
<path fill="none" stroke="#63b8ff" d="M288.15,-851.35C315.69,-857.33 351.38,-865.07 378.13,-870.88"/>
<polygon fill="#63b8ff" stroke="#63b8ff" points="377.4,-874.3 387.91,-873 378.88,-867.46 377.4,-874.3"/>
</a>
</g>
</g>
<!-- Node10&#45;&gt;Node9 -->
<g id="edge13_Node000010_Node000009" class="edge">
<title>Node10&#45;&gt;Node9</title>
<g id="a_edge13_Node000010_Node000009"><a xlink:title=" ">
<path fill="none" stroke="#63b8ff" d="M288.27,-838.36C298.63,-835.68 309.02,-831.3 317,-824.2 390.73,-758.64 410.14,-632.32 414.98,-583.82"/>
<polygon fill="#63b8ff" stroke="#63b8ff" points="418.48,-584 415.89,-573.73 411.51,-583.38 418.48,-584"/>
</a>
</g>
</g>
<!-- Node11&#45;&gt;Node9 -->
<g id="edge15_Node000011_Node000009" class="edge">
<title>Node11&#45;&gt;Node9</title>
<g id="a_edge15_Node000011_Node000009"><a xlink:title=" ">
<path fill="none" stroke="#63b8ff" d="M284.13,-518.76C294.82,-521.62 306.41,-524.88 317,-528.2 338.94,-535.09 363.21,-543.85 382.29,-551.01"/>
<polygon fill="#63b8ff" stroke="#63b8ff" points="381.17,-554.32 391.76,-554.58 383.64,-547.77 381.17,-554.32"/>
</a>
</g>
</g>
<!-- Node12&#45;&gt;Node9 -->
<g id="edge17_Node000012_Node000009" class="edge">
<title>Node12&#45;&gt;Node9</title>
<g id="a_edge17_Node000012_Node000009"><a xlink:title=" ">
<path fill="none" stroke="#63b8ff" d="M290.1,-481.27C299.22,-483.9 308.6,-487.17 317,-491.2 348.3,-506.21 379.84,-531.47 398.77,-547.98"/>
<polygon fill="#63b8ff" stroke="#63b8ff" points="396.51,-550.65 406.31,-554.68 401.16,-545.42 396.51,-550.65"/>
</a>
</g>
</g>
<!-- Node14 -->
<g id="Node000014" class="node">
<title>Node14</title>
<g id="a_Node000014"><a xlink:href="filesystem_8c.html#a02c1e03f51146617a18f5bcc96099220" target="_top" xlink:title=" ">
<polygon fill="white" stroke="#666666" points="451.5,-93.7 383.5,-93.7 383.5,-74.7 451.5,-74.7 451.5,-93.7"/>
<text text-anchor="middle" x="417.5" y="-81.7" font-family="Helvetica,sans-Serif" font-size="10.00">delete_file</text>
</a>
</g>
</g>
<!-- Node13&#45;&gt;Node14 -->
<g id="edge19_Node000013_Node000014" class="edge">
<title>Node13&#45;&gt;Node14</title>
<g id="a_edge19_Node000013_Node000014"><a xlink:title=" ">
<path fill="none" stroke="#63b8ff" d="M298.08,-96.7C322.12,-94.17 350.32,-91.19 373.17,-88.78"/>
<polygon fill="#63b8ff" stroke="#63b8ff" points="373.68,-92.24 383.26,-87.71 372.94,-85.28 373.68,-92.24"/>
</a>
</g>
</g>
<!-- Node15 -->
<g id="Node000015" class="node">
<title>Node15</title>
<g id="a_Node000015"><a xlink:href="filesystem_8c.html#a6c3bed1f355bd1952d7ffa87405828c6" target="_top" xlink:title=" ">
<polygon fill="white" stroke="#666666" points="449.5,-56.7 385.5,-56.7 385.5,-37.7 449.5,-37.7 449.5,-56.7"/>
<text text-anchor="middle" x="417.5" y="-44.7" font-family="Helvetica,sans-Serif" font-size="10.00">dir_exists</text>
</a>
</g>
</g>
<!-- Node13&#45;&gt;Node15 -->
<g id="edge20_Node000013_Node000015" class="edge">
<title>Node13&#45;&gt;Node15</title>
<g id="a_edge20_Node000013_Node000015"><a xlink:title=" ">
<path fill="none" stroke="#63b8ff" d="M290.01,-92.62C299.05,-90.21 308.42,-87.39 317,-84.2 333.77,-77.97 336.37,-72.79 353,-66.2 360.22,-63.34 368.04,-60.67 375.64,-58.29"/>
<polygon fill="#63b8ff" stroke="#63b8ff" points="376.89,-61.57 385.45,-55.33 374.87,-54.87 376.89,-61.57"/>
</a>
</g>
</g>
<!-- Node16 -->
<g id="Node000016" class="node">
<title>Node16</title>
<g id="a_Node000016"><a xlink:href="filesystem_8c.html#aa109ff29a72d1beadda58bb3a54185b6" target="_top" xlink:title=" ">
<polygon fill="white" stroke="#666666" points="595,-56.7 560,-56.7 560,-37.7 595,-37.7 595,-56.7"/>
<text text-anchor="middle" x="577.5" y="-44.7" font-family="Helvetica,sans-Serif" font-size="10.00">stat</text>
</a>
</g>
</g>
<!-- Node13&#45;&gt;Node16 -->
<g id="edge26_Node000013_Node000016" class="edge">
<title>Node13&#45;&gt;Node16</title>
<g id="a_edge26_Node000013_Node000016"><a xlink:title=" ">
<path fill="none" stroke="#63b8ff" d="M298.09,-111.3C304.82,-113.83 311.33,-117.07 317,-121.2 340.9,-138.65 327.03,-163.02 353,-177.2 403.32,-204.68 430.91,-203.22 482,-177.2 528.04,-153.75 556.92,-96.21 569.37,-66.17"/>
<polygon fill="#63b8ff" stroke="#63b8ff" points="572.66,-67.37 573.1,-56.79 566.15,-64.79 572.66,-67.37"/>
</a>
</g>
</g>
<!-- Node18 -->
<g id="Node000018" class="node">
<title>Node18</title>
<g id="a_Node000018"><a xlink:href="filesystem_8c.html#a20ca64a89158ccc1eb3f714b3d8725f5" target="_top" xlink:title=" ">
<polygon fill="white" stroke="#666666" points="448.5,-167.7 386.5,-167.7 386.5,-148.7 448.5,-148.7 448.5,-167.7"/>
<text text-anchor="middle" x="417.5" y="-155.7" font-family="Helvetica,sans-Serif" font-size="10.00">make_dir</text>
</a>
</g>
</g>
<!-- Node13&#45;&gt;Node18 -->
<g id="edge23_Node000013_Node000018" class="edge">
<title>Node13&#45;&gt;Node18</title>
<g id="a_edge23_Node000013_Node000018"><a xlink:title=" ">
<path fill="none" stroke="#63b8ff" d="M287.8,-111.72C297.52,-114.39 307.73,-117.57 317,-121.2 333.84,-127.8 336.21,-133.48 353,-140.2 360.48,-143.2 368.64,-145.91 376.54,-148.26"/>
<polygon fill="#63b8ff" stroke="#63b8ff" points="375.77,-151.68 386.35,-151.04 377.68,-144.94 375.77,-151.68"/>
</a>
</g>
</g>
<!-- Node19 -->
<g id="Node000019" class="node">
<title>Node19</title>
<g id="a_Node000019"><a xlink:href="filesystem_8c.html#ab92b1f0beb3be903677f3293d0430b62" target="_top" xlink:title=" ">
<polygon fill="white" stroke="#666666" points="607,-19.7 548,-19.7 548,-0.7 607,-0.7 607,-19.7"/>
<text text-anchor="middle" x="577.5" y="-7.7" font-family="Helvetica,sans-Serif" font-size="10.00">read_file</text>
</a>
</g>
</g>
<!-- Node13&#45;&gt;Node19 -->
<g id="edge24_Node000013_Node000019" class="edge">
<title>Node13&#45;&gt;Node19</title>
<g id="a_edge24_Node000013_Node000019"><a xlink:title=" ">
<path fill="none" stroke="#63b8ff" d="M298.05,-93.85C304.78,-91.41 311.31,-88.26 317,-84.2 340.78,-67.23 327.91,-44.17 353,-29.2 410.05,4.84 490.32,1.95 537.52,-3.77"/>
<polygon fill="#63b8ff" stroke="#63b8ff" points="537.27,-7.27 547.64,-5.1 538.18,-0.33 537.27,-7.27"/>
</a>
</g>
</g>
<!-- Node20 -->
<g id="Node000020" class="node">
<title>Node20</title>
<g id="a_Node000020"><a xlink:href="filesystem_8c.html#a8e5a51c709e9d6229c1974435475292a" target="_top" xlink:title=" ">
<polygon fill="white" stroke="#666666" points="448.5,-130.7 386.5,-130.7 386.5,-111.7 448.5,-111.7 448.5,-130.7"/>
<text text-anchor="middle" x="417.5" y="-118.7" font-family="Helvetica,sans-Serif" font-size="10.00">write_file</text>
</a>
</g>
</g>
<!-- Node13&#45;&gt;Node20 -->
<g id="edge27_Node000013_Node000020" class="edge">
<title>Node13&#45;&gt;Node20</title>
<g id="a_edge27_Node000013_Node000020"><a xlink:title=" ">
<path fill="none" stroke="#63b8ff" d="M298.08,-108.01C323.05,-110.79 352.51,-114.07 375.81,-116.67"/>
<polygon fill="#63b8ff" stroke="#63b8ff" points="375.71,-120.18 386.04,-117.81 376.49,-113.22 375.71,-120.18"/>
</a>
</g>
</g>
<!-- Node15&#45;&gt;Node16 -->
<g id="edge21_Node000015_Node000016" class="edge">
<title>Node15&#45;&gt;Node16</title>
<g id="a_edge21_Node000015_Node000016"><a xlink:title=" ">
<path fill="none" stroke="#63b8ff" d="M449.72,-47.2C478.93,-47.2 522.12,-47.2 549.78,-47.2"/>
<polygon fill="#63b8ff" stroke="#63b8ff" points="549.91,-50.7 559.91,-47.2 549.91,-43.7 549.91,-50.7"/>
</a>
</g>
</g>
<!-- Node17 -->
<g id="Node000017" class="node">
<title>Node17</title>
<g id="a_Node000017"><a xlink:href="utilities_2src_2log_8c.html#a4b048be24c6c7f622a6bc6c6bf8ac435" target="_top" xlink:title=" ">
<polygon fill="white" stroke="#666666" points="804,-37.7 673,-37.7 673,-18.7 804,-18.7 804,-37.7"/>
<text text-anchor="middle" x="738.5" y="-25.7" font-family="Helvetica,sans-Serif" font-size="10.00">get_current_task_name</text>
</a>
</g>
</g>
<!-- Node16&#45;&gt;Node17 -->
<g id="edge22_Node000016_Node000017" class="edge">
<title>Node16&#45;&gt;Node17</title>
<g id="a_edge22_Node000016_Node000017"><a xlink:title=" ">
<path fill="none" stroke="#63b8ff" d="M595.22,-45.2C611.55,-43.25 637.58,-40.14 662.94,-37.11"/>
<polygon fill="#63b8ff" stroke="#63b8ff" points="663.47,-40.57 672.98,-35.91 662.63,-33.62 663.47,-40.57"/>
</a>
</g>
</g>
<!-- Node19&#45;&gt;Node17 -->
<g id="edge25_Node000019_Node000017" class="edge">
<title>Node19&#45;&gt;Node17</title>
<g id="a_edge25_Node000019_Node000017"><a xlink:title=" ">
<path fill="none" stroke="#63b8ff" d="M607.29,-13.46C622.99,-15.24 643.21,-17.53 663.01,-19.77"/>
<polygon fill="#63b8ff" stroke="#63b8ff" points="662.66,-23.25 672.99,-20.9 663.44,-16.3 662.66,-23.25"/>
</a>
</g>
</g>
<!-- Node21&#45;&gt;Node9 -->
<g id="edge29_Node000021_Node000009" class="edge">
<title>Node21&#45;&gt;Node9</title>
<g id="a_edge29_Node000021_Node000009"><a xlink:title=" ">
<path fill="none" stroke="#63b8ff" d="M290.04,-442.78C299.36,-445.52 308.83,-449.21 317,-454.2 355.97,-478.01 388.7,-521.62 405.13,-546.17"/>
<polygon fill="#63b8ff" stroke="#63b8ff" points="402.21,-548.11 410.61,-554.57 408.07,-544.28 402.21,-548.11"/>
</a>
</g>
</g>
<!-- Node22&#45;&gt;Node9 -->
<g id="edge31_Node000022_Node000009" class="edge">
<title>Node22&#45;&gt;Node9</title>
<g id="a_edge31_Node000022_Node000009"><a xlink:title=" ">
<path fill="none" stroke="#63b8ff" d="M280.66,-402.36C292.97,-405.11 306.4,-409.65 317,-417.2 363.92,-450.6 395.36,-513.57 408.92,-545.14"/>
<polygon fill="#63b8ff" stroke="#63b8ff" points="405.76,-546.66 412.83,-554.56 412.22,-543.98 405.76,-546.66"/>
</a>
</g>
</g>
<!-- Node23&#45;&gt;Node9 -->
<g id="edge33_Node000023_Node000009" class="edge">
<title>Node23&#45;&gt;Node9</title>
<g id="a_edge33_Node000023_Node000009"><a xlink:title=" ">
<path fill="none" stroke="#63b8ff" d="M280.71,-364.72C293.18,-367.39 306.68,-372.06 317,-380.2 372.26,-423.83 400.89,-506.9 411.53,-544.65"/>
<polygon fill="#63b8ff" stroke="#63b8ff" points="408.18,-545.68 414.16,-554.43 414.94,-543.86 408.18,-545.68"/>
</a>
</g>
</g>
<!-- Node24&#45;&gt;Node9 -->
<g id="edge35_Node000024_Node000009" class="edge">
<title>Node24&#45;&gt;Node9</title>
<g id="a_edge35_Node000024_Node000009"><a xlink:title=" ">
<path fill="none" stroke="#63b8ff" d="M280.31,-327.18C293.01,-329.77 306.79,-334.52 317,-343.2 380.86,-397.49 405.58,-501.1 413.41,-544.41"/>
<polygon fill="#63b8ff" stroke="#63b8ff" points="410,-545.22 415.12,-554.5 416.9,-544.05 410,-545.22"/>
</a>
</g>
</g>
<!-- Node25&#45;&gt;Node9 -->
<g id="edge37_Node000025_Node000009" class="edge">
<title>Node25&#45;&gt;Node9</title>
<g id="a_edge37_Node000025_Node000009"><a xlink:title=" ">
<path fill="none" stroke="#63b8ff" d="M302.49,-296.83C307.77,-299.29 312.73,-302.36 317,-306.2 389.72,-371.56 409.71,-496.23 414.84,-544.46"/>
<polygon fill="#63b8ff" stroke="#63b8ff" points="411.37,-544.9 415.81,-554.52 418.34,-544.23 411.37,-544.9"/>
</a>
</g>
</g>
<!-- Node26&#45;&gt;Node9 -->
<g id="edge39_Node000026_Node000009" class="edge">
<title>Node26&#45;&gt;Node9</title>
<g id="a_edge39_Node000026_Node000009"><a xlink:title=" ">
<path fill="none" stroke="#63b8ff" d="M303,-259.81C308.12,-262.28 312.91,-265.36 317,-269.2 398.71,-345.86 413.33,-491.79 415.94,-544.55"/>
<polygon fill="#63b8ff" stroke="#63b8ff" points="412.44,-544.74 416.34,-554.6 419.44,-544.46 412.44,-544.74"/>
</a>
</g>
</g>
<!-- Node27&#45;&gt;Node9 -->
<g id="edge41_Node000027_Node000009" class="edge">
<title>Node27&#45;&gt;Node9</title>
<g id="a_edge41_Node000027_Node000009"><a xlink:title=" ">
<path fill="none" stroke="#63b8ff" d="M283.59,-802.11C295.34,-799.56 307.66,-795.06 317,-787.2 381.74,-732.7 406.02,-627.6 413.57,-583.95"/>
<polygon fill="#63b8ff" stroke="#63b8ff" points="417.03,-584.46 415.18,-574.03 410.12,-583.34 417.03,-584.46"/>
</a>
</g>
</g>
<!-- Node28&#45;&gt;Node9 -->
<g id="edge43_Node000028_Node000009" class="edge">
<title>Node28&#45;&gt;Node9</title>
<g id="a_edge43_Node000028_Node000009"><a xlink:title=" ">
<path fill="none" stroke="#63b8ff" d="M283.63,-764.63C295.26,-762.04 307.49,-757.65 317,-750.2 372.91,-706.45 401.2,-622.3 411.64,-584.02"/>
<polygon fill="#63b8ff" stroke="#63b8ff" points="415.09,-584.67 414.22,-574.11 408.32,-582.91 415.09,-584.67"/>
</a>
</g>
</g>
<!-- Node29&#45;&gt;Node9 -->
<g id="edge45_Node000029_Node000009" class="edge">
<title>Node29&#45;&gt;Node9</title>
<g id="a_edge45_Node000029_Node000009"><a xlink:title=" ">
<path fill="none" stroke="#63b8ff" d="M290.24,-725.29C299.64,-722.63 309.11,-718.78 317,-713.2 364.47,-679.66 395.66,-615.69 409.04,-583.59"/>
<polygon fill="#63b8ff" stroke="#63b8ff" points="412.4,-584.6 412.89,-574.01 405.91,-581.99 412.4,-584.6"/>
</a>
</g>
</g>
<!-- Node30&#45;&gt;Node9 -->
<g id="edge47_Node000030_Node000009" class="edge">
<title>Node30&#45;&gt;Node9</title>
<g id="a_edge47_Node000030_Node000009"><a xlink:title=" ">
<path fill="none" stroke="#63b8ff" d="M288.58,-687.77C298.37,-685.13 308.42,-681.42 317,-676.2 356.61,-652.12 389.29,-607.28 405.5,-582.26"/>
<polygon fill="#63b8ff" stroke="#63b8ff" points="408.51,-584.05 410.88,-573.73 402.58,-580.32 408.51,-584.05"/>
</a>
</g>
</g>
<!-- Node31&#45;&gt;Node9 -->
<g id="edge49_Node000031_Node000009" class="edge">
<title>Node31&#45;&gt;Node9</title>
<g id="a_edge49_Node000031_Node000009"><a xlink:title=" ">
<path fill="none" stroke="#63b8ff" d="M290.14,-648.91C299.26,-646.4 308.63,-643.22 317,-639.2 348.77,-623.97 380.4,-597.75 399.2,-580.7"/>
<polygon fill="#63b8ff" stroke="#63b8ff" points="401.7,-583.16 406.66,-573.8 396.94,-578.02 401.7,-583.16"/>
</a>
</g>
</g>
<!-- Node32&#45;&gt;Node9 -->
<g id="edge51_Node000032_Node000009" class="edge">
<title>Node32&#45;&gt;Node9</title>
<g id="a_edge51_Node000032_Node000009"><a xlink:title=" ">
<path fill="none" stroke="#63b8ff" d="M285.66,-611.02C295.94,-608.4 306.94,-605.39 317,-602.2 339.82,-594.98 365,-585.35 384.32,-577.59"/>
<polygon fill="#63b8ff" stroke="#63b8ff" points="385.89,-580.72 393.85,-573.72 383.26,-574.24 385.89,-580.72"/>
</a>
</g>
</g>
<!-- Node33&#45;&gt;Node9 -->
<g id="edge53_Node000033_Node000009" class="edge">
<title>Node33&#45;&gt;Node9</title>
<g id="a_edge53_Node000033_Node000009"><a xlink:title=" ">
<path fill="none" stroke="#63b8ff" d="M283.84,-578.99C301.21,-577.05 322.44,-574.68 342.77,-572.42"/>
<polygon fill="#63b8ff" stroke="#63b8ff" points="343.43,-575.87 352.98,-571.28 342.65,-568.91 343.43,-575.87"/>
</a>
</g>
</g>
<!-- Node35&#45;&gt;Node9 -->
<g id="edge56_Node000035_Node000009" class="edge">
<title>Node35&#45;&gt;Node9</title>
<g id="a_edge56_Node000035_Node000009"><a xlink:title=" ">
<path fill="none" stroke="#63b8ff" d="M293.95,-551.26C309.12,-552.87 326.25,-554.67 342.8,-556.42"/>
<polygon fill="#63b8ff" stroke="#63b8ff" points="342.69,-559.93 353,-557.5 343.42,-552.97 342.69,-559.93"/>
</a>
</g>
</g>
</g>
</svg>

<g id="navigator" transform="translate(0 0)" fill="#404254">
  <rect fill="#f2f5e9" fill-opacity="0.5" stroke="#606060" stroke-width=".5" x="0" y="0" width="60" height="60"/>
  <use id="zoomplus" xlink:href="#zoomPlus" x="17" y="9" onmousedown="handleZoom(evt,'in')"/>
  <use id="zoomminus" xlink:href="#zoomMin" x="42" y="9" onmousedown="handleZoom(evt,'out')"/>
  <use id="reset" xlink:href="#resetDef" x="30" y="36" onmousedown="handleReset()"/>
   <use id="arrowup" xlink:href="#arrowUp" x="0" y="0" onmousedown="handlePan(0,-1)"/>
  <use id="arrowright" xlink:href="#arrowRight" x="0" y="0" onmousedown="handlePan(1,0)"/>
  <use id="arrowdown" xlink:href="#arrowDown" x="0" y="0" onmousedown="handlePan(0,1)"/>
  <use id="arrowleft" xlink:href="#arrowLeft" x="0" y="0" onmousedown="handlePan(-1,0)"/>
</g>
<svg viewBox="0 0 15 15" width="100%" height="30px" preserveAspectRatio="xMaxYMin meet">
 <g id="arrow_out" transform="scale(0.3 0.3)">
  <a xlink:href="heartbeat__job_8c_a5a39a53ceb61fec283d89fcb0032a24b_cgraph_org.svg" target="_base">
   <rect id="button" ry="5" rx="5" y="6" x="6" height="38" width="38"
        fill="#f2f5e9" fill-opacity="0.5" stroke="#606060" stroke-width="1.0"/>
   <path id="arrow"
     d="M 11.500037,31.436501 C 11.940474,20.09759 22.043105,11.32322 32.158766,21.979434 L 37.068811,17.246167 C 37.068811,17.246167 37.088388,32 37.088388,32 L 22.160133,31.978069 C 22.160133,31.978069 26.997745,27.140456 26.997745,27.140456 C 18.528582,18.264221 13.291696,25.230495 11.500037,31.436501 z"
     style="fill:#404040;"/>
  </a>
 </g>
</svg>

<style type='text/css'>
<![CDATA[
[data-mouse-over-selected='false'] { opacity: 0.7; }
[data-mouse-over-selected='true']  { opacity: 1.0; }
]]>
</style>
<script type="application/ecmascript"><![CDATA[
document.addEventListener('DOMContentLoaded', (event) => {
  highlightEdges();
  highlightAdjacentNodes();
});
]]></script>
</svg>
