<?xml version="1.0" encoding="UTF-8" standalone="no"?>
<!DOCTYPE svg PUBLIC "-//W3C//DTD SVG 1.1//EN"
 "http://www.w3.org/Graphics/SVG/1.1/DTD/svg11.dtd">
<!-- Generated by graphviz version 2.43.0 (0)
 -->
<!-- Title: i2c.c Pages: 1 -->
<svg width="708pt" height="302pt"
 viewBox="0.00 0.00 707.50 302.00" xmlns="http://www.w3.org/2000/svg" xmlns:xlink="http://www.w3.org/1999/xlink">
<g id="graph0" class="graph" transform="scale(1 1) rotate(0) translate(4 298)">
<title>i2c.c</title>
<!-- Node1 -->
<g id="Node000001" class="node">
<title>Node1</title>
<g id="a_Node000001"><a xlink:title=" ">
<polygon fill="#999999" stroke="#666666" points="312,-294 273,-294 273,-275 312,-275 312,-294"/>
<text text-anchor="middle" x="292.5" y="-282" font-family="Helvetica,sans-Serif" font-size="10.00">i2c.c</text>
</a>
</g>
</g>
<!-- Node2 -->
<g id="Node000002" class="node">
<title>Node2</title>
<g id="a_Node000002"><a xlink:title=" ">
<polygon fill="#e0e0e0" stroke="#999999" points="283.5,-239 243.5,-239 243.5,-220 283.5,-220 283.5,-239"/>
<text text-anchor="middle" x="263.5" y="-227" font-family="Helvetica,sans-Serif" font-size="10.00">i2c.h</text>
</a>
</g>
</g>
<!-- Node1&#45;&gt;Node2 -->
<g id="edge1_Node000001_Node000002" class="edge">
<title>Node1&#45;&gt;Node2</title>
<g id="a_edge1_Node000001_Node000002"><a xlink:title=" ">
<path fill="none" stroke="#63b8ff" d="M287.71,-274.75C283.74,-267.49 277.97,-256.95 273.07,-247.98"/>
<polygon fill="#63b8ff" stroke="#63b8ff" points="276.07,-246.18 268.2,-239.09 269.93,-249.54 276.07,-246.18"/>
</a>
</g>
</g>
<!-- Node3 -->
<g id="Node000003" class="node">
<title>Node3</title>
<g id="a_Node000003"><a xlink:href="log_8h.html" target="_top" xlink:title=" ">
<polygon fill="white" stroke="#666666" points="343,-239 302,-239 302,-220 343,-220 343,-239"/>
<text text-anchor="middle" x="322.5" y="-227" font-family="Helvetica,sans-Serif" font-size="10.00">log.h</text>
</a>
</g>
</g>
<!-- Node1&#45;&gt;Node3 -->
<g id="edge2_Node000001_Node000003" class="edge">
<title>Node1&#45;&gt;Node3</title>
<g id="a_edge2_Node000001_Node000003"><a xlink:title=" ">
<path fill="none" stroke="#63b8ff" d="M297.45,-274.75C301.56,-267.49 307.53,-256.95 312.6,-247.98"/>
<polygon fill="#63b8ff" stroke="#63b8ff" points="315.76,-249.52 317.64,-239.09 309.67,-246.07 315.76,-249.52"/>
</a>
</g>
</g>
<!-- Node4 -->
<g id="Node000004" class="node">
<title>Node4</title>
<g id="a_Node000004"><a xlink:href="telemetry_8h.html" target="_top" xlink:title="Functions for packaging and queuing telemetry packets for sending.">
<polygon fill="white" stroke="#666666" points="189.5,-184 117.5,-184 117.5,-165 189.5,-165 189.5,-184"/>
<text text-anchor="middle" x="153.5" y="-172" font-family="Helvetica,sans-Serif" font-size="10.00">telemetry.h</text>
</a>
</g>
</g>
<!-- Node3&#45;&gt;Node4 -->
<g id="edge3_Node000003_Node000004" class="edge">
<title>Node3&#45;&gt;Node4</title>
<g id="a_edge3_Node000003_Node000004"><a xlink:title=" ">
<path fill="none" stroke="#63b8ff" d="M301.78,-222C274.1,-213.32 224.6,-197.8 190.46,-187.09"/>
<polygon fill="#63b8ff" stroke="#63b8ff" points="191.42,-183.72 180.83,-184.07 189.32,-190.4 191.42,-183.72"/>
</a>
</g>
</g>
<!-- Node15 -->
<g id="Node000015" class="node">
<title>Node15</title>
<g id="a_Node000015"><a xlink:title=" ">
<polygon fill="#e0e0e0" stroke="#999999" points="699.5,-19 637.5,-19 637.5,0 699.5,0 699.5,-19"/>
<text text-anchor="middle" x="668.5" y="-7" font-family="Helvetica,sans-Serif" font-size="10.00">stdbool.h</text>
</a>
</g>
</g>
<!-- Node3&#45;&gt;Node15 -->
<g id="edge19_Node000003_Node000015" class="edge">
<title>Node3&#45;&gt;Node15</title>
<g id="a_edge19_Node000003_Node000015"><a xlink:title=" ">
<path fill="none" stroke="#63b8ff" d="M336.06,-219.95C388.7,-186.79 579.78,-66.4 645.85,-24.77"/>
<polygon fill="#63b8ff" stroke="#63b8ff" points="648.06,-27.52 654.65,-19.22 644.33,-21.59 648.06,-27.52"/>
</a>
</g>
</g>
<!-- Node5 -->
<g id="Node000005" class="node">
<title>Node5</title>
<g id="a_Node000005"><a xlink:title=" ">
<polygon fill="#e0e0e0" stroke="#999999" points="73,-19 0,-19 0,0 73,0 73,-19"/>
<text text-anchor="middle" x="36.5" y="-7" font-family="Helvetica,sans-Serif" font-size="10.00">FreeRTOS.h</text>
</a>
</g>
</g>
<!-- Node4&#45;&gt;Node5 -->
<g id="edge4_Node000004_Node000005" class="edge">
<title>Node4&#45;&gt;Node5</title>
<g id="a_edge4_Node000004_Node000005"><a xlink:title=" ">
<path fill="none" stroke="#63b8ff" d="M147.21,-164.74C128.56,-138.76 73.34,-61.83 48.66,-27.44"/>
<polygon fill="#63b8ff" stroke="#63b8ff" points="51.5,-25.39 42.82,-19.31 45.81,-29.47 51.5,-25.39"/>
</a>
</g>
</g>
<!-- Node6 -->
<g id="Node000006" class="node">
<title>Node6</title>
<g id="a_Node000006"><a xlink:title=" ">
<polygon fill="#e0e0e0" stroke="#999999" points="147.5,-19 91.5,-19 91.5,0 147.5,0 147.5,-19"/>
<text text-anchor="middle" x="119.5" y="-7" font-family="Helvetica,sans-Serif" font-size="10.00">queue.h</text>
</a>
</g>
</g>
<!-- Node4&#45;&gt;Node6 -->
<g id="edge5_Node000004_Node000006" class="edge">
<title>Node4&#45;&gt;Node6</title>
<g id="a_edge5_Node000004_Node000006"><a xlink:title=" ">
<path fill="none" stroke="#63b8ff" d="M149.25,-164.86C145.1,-156.05 138.92,-141.89 135.5,-129 126.35,-94.51 122.28,-52.92 120.58,-29.31"/>
<polygon fill="#63b8ff" stroke="#63b8ff" points="124.07,-29.02 119.93,-19.27 117.09,-29.47 124.07,-29.02"/>
</a>
</g>
</g>
<!-- Node7 -->
<g id="Node000007" class="node">
<title>Node7</title>
<g id="a_Node000007"><a xlink:href="file__downlink_8h.html" target="_top" xlink:title=" ">
<polygon fill="white" stroke="#666666" points="236,-129 145,-129 145,-110 236,-110 236,-129"/>
<text text-anchor="middle" x="190.5" y="-117" font-family="Helvetica,sans-Serif" font-size="10.00">file_downlink.h</text>
</a>
</g>
</g>
<!-- Node4&#45;&gt;Node7 -->
<g id="edge6_Node000004_Node000007" class="edge">
<title>Node4&#45;&gt;Node7</title>
<g id="a_edge6_Node000004_Node000007"><a xlink:title=" ">
<path fill="none" stroke="#63b8ff" d="M159.61,-164.75C164.78,-157.34 172.35,-146.5 178.69,-137.41"/>
<polygon fill="#63b8ff" stroke="#63b8ff" points="181.65,-139.29 184.5,-129.09 175.91,-135.29 181.65,-139.29"/>
</a>
</g>
</g>
<!-- Node7&#45;&gt;Node5 -->
<g id="edge7_Node000007_Node000005" class="edge">
<title>Node7&#45;&gt;Node5</title>
<g id="a_edge7_Node000007_Node000005"><a xlink:title=" ">
<path fill="none" stroke="#63b8ff" d="M178.16,-109.84C151.8,-91.36 89.77,-47.86 57.24,-25.05"/>
<polygon fill="#63b8ff" stroke="#63b8ff" points="59.1,-22.07 48.9,-19.2 55.08,-27.8 59.1,-22.07"/>
</a>
</g>
</g>
<!-- Node7&#45;&gt;Node6 -->
<g id="edge8_Node000007_Node000006" class="edge">
<title>Node7&#45;&gt;Node6</title>
<g id="a_edge8_Node000007_Node000006"><a xlink:title=" ">
<path fill="none" stroke="#63b8ff" d="M184.69,-109.66C172.93,-91.77 146.13,-51 130.8,-27.69"/>
<polygon fill="#63b8ff" stroke="#63b8ff" points="133.61,-25.59 125.19,-19.16 127.76,-29.44 133.61,-25.59"/>
</a>
</g>
</g>
<!-- Node8 -->
<g id="Node000008" class="node">
<title>Node8</title>
<g id="a_Node000008"><a xlink:href="filesystem_8h.html" target="_top" xlink:title="Handles file system operations and management.">
<polygon fill="white" stroke="#666666" points="297,-74 220,-74 220,-55 297,-55 297,-74"/>
<text text-anchor="middle" x="258.5" y="-62" font-family="Helvetica,sans-Serif" font-size="10.00">filesystem.h</text>
</a>
</g>
</g>
<!-- Node7&#45;&gt;Node8 -->
<g id="edge9_Node000007_Node000008" class="edge">
<title>Node7&#45;&gt;Node8</title>
<g id="a_edge9_Node000007_Node000008"><a xlink:title=" ">
<path fill="none" stroke="#63b8ff" d="M201.43,-109.98C211.58,-102.07 226.92,-90.11 239.15,-80.58"/>
<polygon fill="#63b8ff" stroke="#63b8ff" points="241.64,-83.08 247.38,-74.17 237.34,-77.56 241.64,-83.08"/>
</a>
</g>
</g>
<!-- Node8&#45;&gt;Node5 -->
<g id="edge10_Node000008_Node000005" class="edge">
<title>Node8&#45;&gt;Node5</title>
<g id="a_edge10_Node000008_Node000005"><a xlink:title=" ">
<path fill="none" stroke="#63b8ff" d="M222.83,-54.98C184.67,-45.87 124.03,-31.4 82.35,-21.45"/>
<polygon fill="#63b8ff" stroke="#63b8ff" points="82.99,-18 72.45,-19.08 81.36,-24.81 82.99,-18"/>
</a>
</g>
</g>
<!-- Node8&#45;&gt;Node6 -->
<g id="edge11_Node000008_Node000006" class="edge">
<title>Node8&#45;&gt;Node6</title>
<g id="a_edge11_Node000008_Node000006"><a xlink:title=" ">
<path fill="none" stroke="#63b8ff" d="M236.17,-54.98C213.3,-46.27 177.54,-32.63 151.64,-22.75"/>
<polygon fill="#63b8ff" stroke="#63b8ff" points="152.83,-19.46 142.24,-19.17 150.34,-26 152.83,-19.46"/>
</a>
</g>
</g>
<!-- Node9 -->
<g id="Node000009" class="node">
<title>Node9</title>
<g id="a_Node000009"><a xlink:title=" ">
<polygon fill="#e0e0e0" stroke="#999999" points="213,-19 166,-19 166,0 213,0 213,-19"/>
<text text-anchor="middle" x="189.5" y="-7" font-family="Helvetica,sans-Serif" font-size="10.00">task.h</text>
</a>
</g>
</g>
<!-- Node8&#45;&gt;Node9 -->
<g id="edge12_Node000008_Node000009" class="edge">
<title>Node8&#45;&gt;Node9</title>
<g id="a_edge12_Node000008_Node000009"><a xlink:title=" ">
<path fill="none" stroke="#63b8ff" d="M247.41,-54.98C237.01,-47 221.24,-34.88 208.78,-25.31"/>
<polygon fill="#63b8ff" stroke="#63b8ff" points="210.85,-22.49 200.79,-19.17 206.59,-28.04 210.85,-22.49"/>
</a>
</g>
</g>
<!-- Node10 -->
<g id="Node000010" class="node">
<title>Node10</title>
<g id="a_Node000010"><a xlink:title=" ">
<polygon fill="#e0e0e0" stroke="#999999" points="263.5,-19 231.5,-19 231.5,0 263.5,0 263.5,-19"/>
<text text-anchor="middle" x="247.5" y="-7" font-family="Helvetica,sans-Serif" font-size="10.00">ff.h</text>
</a>
</g>
</g>
<!-- Node8&#45;&gt;Node10 -->
<g id="edge13_Node000008_Node000010" class="edge">
<title>Node8&#45;&gt;Node10</title>
<g id="a_edge13_Node000008_Node000010"><a xlink:title=" ">
<path fill="none" stroke="#63b8ff" d="M256.68,-54.75C255.24,-47.8 253.18,-37.85 251.37,-29.13"/>
<polygon fill="#63b8ff" stroke="#63b8ff" points="254.74,-28.17 249.28,-19.09 247.89,-29.59 254.74,-28.17"/>
</a>
</g>
</g>
<!-- Node11 -->
<g id="Node000011" class="node">
<title>Node11</title>
<g id="a_Node000011"><a xlink:href="filesystem__errors_8h.html" target="_top" xlink:title=" ">
<polygon fill="white" stroke="#666666" points="393,-19 282,-19 282,0 393,0 393,-19"/>
<text text-anchor="middle" x="337.5" y="-7" font-family="Helvetica,sans-Serif" font-size="10.00">filesystem_errors.h</text>
</a>
</g>
</g>
<!-- Node8&#45;&gt;Node11 -->
<g id="edge14_Node000008_Node000011" class="edge">
<title>Node8&#45;&gt;Node11</title>
<g id="a_edge14_Node000008_Node000011"><a xlink:title=" ">
<path fill="none" stroke="#63b8ff" d="M271.19,-54.98C283.33,-46.84 301.86,-34.41 316.25,-24.76"/>
<polygon fill="#63b8ff" stroke="#63b8ff" points="318.22,-27.65 324.58,-19.17 314.32,-21.84 318.22,-27.65"/>
</a>
</g>
</g>
<!-- Node12 -->
<g id="Node000012" class="node">
<title>Node12</title>
<g id="a_Node000012"><a xlink:title=" ">
<polygon fill="#e0e0e0" stroke="#999999" points="473.5,-19 411.5,-19 411.5,0 473.5,0 473.5,-19"/>
<text text-anchor="middle" x="442.5" y="-7" font-family="Helvetica,sans-Serif" font-size="10.00">semphr.h</text>
</a>
</g>
</g>
<!-- Node8&#45;&gt;Node12 -->
<g id="edge15_Node000008_Node000012" class="edge">
<title>Node8&#45;&gt;Node12</title>
<g id="a_edge15_Node000008_Node000012"><a xlink:title=" ">
<path fill="none" stroke="#63b8ff" d="M288.06,-54.98C319.22,-46.01 368.47,-31.82 402.96,-21.89"/>
<polygon fill="#63b8ff" stroke="#63b8ff" points="404.07,-25.21 412.71,-19.08 402.13,-18.49 404.07,-25.21"/>
</a>
</g>
</g>
<!-- Node13 -->
<g id="Node000013" class="node">
<title>Node13</title>
<g id="a_Node000013"><a xlink:title=" ">
<polygon fill="#e0e0e0" stroke="#999999" points="547.5,-19 491.5,-19 491.5,0 547.5,0 547.5,-19"/>
<text text-anchor="middle" x="519.5" y="-7" font-family="Helvetica,sans-Serif" font-size="10.00">stddef.h</text>
</a>
</g>
</g>
<!-- Node8&#45;&gt;Node13 -->
<g id="edge16_Node000008_Node000013" class="edge">
<title>Node8&#45;&gt;Node13</title>
<g id="a_edge16_Node000008_Node000013"><a xlink:title=" ">
<path fill="none" stroke="#63b8ff" d="M297.02,-56.21C339.7,-48.05 410.81,-34.22 481.3,-19.21"/>
<polygon fill="#63b8ff" stroke="#63b8ff" points="482.19,-22.6 491.24,-17.08 480.73,-15.75 482.19,-22.6"/>
</a>
</g>
</g>
<!-- Node14 -->
<g id="Node000014" class="node">
<title>Node14</title>
<g id="a_Node000014"><a xlink:title=" ">
<polygon fill="#e0e0e0" stroke="#999999" points="619,-19 566,-19 566,0 619,0 619,-19"/>
<text text-anchor="middle" x="592.5" y="-7" font-family="Helvetica,sans-Serif" font-size="10.00">stdint.h</text>
</a>
</g>
</g>
<!-- Node8&#45;&gt;Node14 -->
<g id="edge17_Node000008_Node000014" class="edge">
<title>Node8&#45;&gt;Node14</title>
<g id="a_edge17_Node000008_Node000014"><a xlink:title=" ">
<path fill="none" stroke="#63b8ff" d="M297.25,-58.77C352.44,-51.79 457.02,-37.73 555.95,-18.95"/>
<polygon fill="#63b8ff" stroke="#63b8ff" points="556.66,-22.38 565.82,-17.06 555.34,-15.51 556.66,-22.38"/>
</a>
</g>
</g>
<!-- Node8&#45;&gt;Node15 -->
<g id="edge18_Node000008_Node000015" class="edge">
<title>Node8&#45;&gt;Node15</title>
<g id="a_edge18_Node000008_Node000015"><a xlink:title=" ">
<path fill="none" stroke="#63b8ff" d="M297.17,-59.92C362.81,-53.61 500.4,-39.37 627.32,-18.88"/>
<polygon fill="#63b8ff" stroke="#63b8ff" points="627.91,-22.33 637.21,-17.27 626.78,-15.43 627.91,-22.33"/>
</a>
</g>
</g>
</g>
</svg>
