<?xml version="1.0" encoding="UTF-8" standalone="no"?>
<!DOCTYPE svg PUBLIC "-//W3C//DTD SVG 1.1//EN"
 "http://www.w3.org/Graphics/SVG/1.1/DTD/svg11.dtd">
<!-- Generated by graphviz version 2.43.0 (0)
 -->
<!-- Title: ina219.c Pages: 1 -->
<svg width="801pt" height="302pt"
 viewBox="0.00 0.00 800.50 302.00" xmlns="http://www.w3.org/2000/svg" xmlns:xlink="http://www.w3.org/1999/xlink">
<g id="graph0" class="graph" transform="scale(1 1) rotate(0) translate(4 298)">
<title>ina219.c</title>
<!-- Node1 -->
<g id="Node000001" class="node">
<title>Node1</title>
<g id="a_Node000001"><a xlink:title=" ">
<polygon fill="#999999" stroke="#666666" points="225.5,-294 167.5,-294 167.5,-275 225.5,-275 225.5,-294"/>
<text text-anchor="middle" x="196.5" y="-282" font-family="Helvetica,sans-Serif" font-size="10.00">ina219.c</text>
</a>
</g>
</g>
<!-- Node2 -->
<g id="Node000002" class="node">
<title>Node2</title>
<g id="a_Node000002"><a xlink:href="ina219_8h.html" target="_top" xlink:title="INA219 Driver.">
<polygon fill="white" stroke="#666666" points="226,-239 167,-239 167,-220 226,-220 226,-239"/>
<text text-anchor="middle" x="196.5" y="-227" font-family="Helvetica,sans-Serif" font-size="10.00">ina219.h</text>
</a>
</g>
</g>
<!-- Node1&#45;&gt;Node2 -->
<g id="edge1_Node000001_Node000002" class="edge">
<title>Node1&#45;&gt;Node2</title>
<g id="a_edge1_Node000001_Node000002"><a xlink:title=" ">
<path fill="none" stroke="#63b8ff" d="M196.5,-274.75C196.5,-267.8 196.5,-257.85 196.5,-249.13"/>
<polygon fill="#63b8ff" stroke="#63b8ff" points="200,-249.09 196.5,-239.09 193,-249.09 200,-249.09"/>
</a>
</g>
</g>
<!-- Node4 -->
<g id="Node000004" class="node">
<title>Node4</title>
<g id="a_Node000004"><a xlink:title=" ">
<polygon fill="#e0e0e0" stroke="#999999" points="146,-19 93,-19 93,0 146,0 146,-19"/>
<text text-anchor="middle" x="119.5" y="-7" font-family="Helvetica,sans-Serif" font-size="10.00">stdint.h</text>
</a>
</g>
</g>
<!-- Node1&#45;&gt;Node4 -->
<g id="edge26_Node000001_Node000004" class="edge">
<title>Node1&#45;&gt;Node4</title>
<g id="a_edge26_Node000001_Node000004"><a xlink:title=" ">
<path fill="none" stroke="#63b8ff" d="M185.09,-274.77C164.56,-257.98 123.5,-218.95 123.5,-175.5 123.5,-175.5 123.5,-175.5 123.5,-118.5 123.5,-87.17 121.8,-50.76 120.61,-29.23"/>
<polygon fill="#63b8ff" stroke="#63b8ff" points="124.1,-28.96 120.04,-19.18 117.12,-29.36 124.1,-28.96"/>
</a>
</g>
</g>
<!-- Node7 -->
<g id="Node000007" class="node">
<title>Node7</title>
<g id="a_Node000007"><a xlink:href="gpio_8h.html" target="_top" xlink:title=" ">
<polygon fill="white" stroke="#666666" points="95,-184 0,-184 0,-165 95,-165 95,-184"/>
<text text-anchor="middle" x="47.5" y="-172" font-family="Helvetica,sans-Serif" font-size="10.00">hardware/gpio.h</text>
</a>
</g>
</g>
<!-- Node1&#45;&gt;Node7 -->
<g id="edge6_Node000001_Node000007" class="edge">
<title>Node1&#45;&gt;Node7</title>
<g id="a_edge6_Node000001_Node000007"><a xlink:title=" ">
<path fill="none" stroke="#63b8ff" d="M175.01,-274.85C156.69,-266.95 130.12,-254.2 109.5,-239 90.81,-225.22 72.63,-205.66 60.85,-191.9"/>
<polygon fill="#63b8ff" stroke="#63b8ff" points="63.49,-189.6 54.39,-184.18 58.12,-194.09 63.49,-189.6"/>
</a>
</g>
</g>
<!-- Node8 -->
<g id="Node000008" class="node">
<title>Node8</title>
<g id="a_Node000008"><a xlink:href="log_8h.html" target="_top" xlink:title=" ">
<polygon fill="white" stroke="#666666" points="288,-239 247,-239 247,-220 288,-220 288,-239"/>
<text text-anchor="middle" x="267.5" y="-227" font-family="Helvetica,sans-Serif" font-size="10.00">log.h</text>
</a>
</g>
</g>
<!-- Node1&#45;&gt;Node8 -->
<g id="edge8_Node000001_Node000008" class="edge">
<title>Node1&#45;&gt;Node8</title>
<g id="a_edge8_Node000001_Node000008"><a xlink:title=" ">
<path fill="none" stroke="#63b8ff" d="M207.91,-274.98C218.61,-267 234.84,-254.88 247.66,-245.31"/>
<polygon fill="#63b8ff" stroke="#63b8ff" points="249.97,-247.96 255.89,-239.17 245.78,-242.35 249.97,-247.96"/>
</a>
</g>
</g>
<!-- Node18 -->
<g id="Node000018" class="node">
<title>Node18</title>
<g id="a_Node000018"><a xlink:title=" ">
<polygon fill="#e0e0e0" stroke="#999999" points="346.5,-239 306.5,-239 306.5,-220 346.5,-220 346.5,-239"/>
<text text-anchor="middle" x="326.5" y="-227" font-family="Helvetica,sans-Serif" font-size="10.00">i2c.h</text>
</a>
</g>
</g>
<!-- Node1&#45;&gt;Node18 -->
<g id="edge27_Node000001_Node000018" class="edge">
<title>Node1&#45;&gt;Node18</title>
<g id="a_edge27_Node000001_Node000018"><a xlink:title=" ">
<path fill="none" stroke="#63b8ff" d="M217.39,-274.98C238.83,-266.24 272.42,-252.55 296.66,-242.67"/>
<polygon fill="#63b8ff" stroke="#63b8ff" points="298.16,-245.84 306.09,-238.82 295.51,-239.35 298.16,-245.84"/>
</a>
</g>
</g>
<!-- Node3 -->
<g id="Node000003" class="node">
<title>Node3</title>
<g id="a_Node000003"><a xlink:href="simulator_2pico-sdk_2hardware_2i2c_8h.html" target="_top" xlink:title=" ">
<polygon fill="white" stroke="#666666" points="241,-74 152,-74 152,-55 241,-55 241,-74"/>
<text text-anchor="middle" x="196.5" y="-62" font-family="Helvetica,sans-Serif" font-size="10.00">hardware/i2c.h</text>
</a>
</g>
</g>
<!-- Node2&#45;&gt;Node3 -->
<g id="edge2_Node000002_Node000003" class="edge">
<title>Node2&#45;&gt;Node3</title>
<g id="a_edge2_Node000002_Node000003"><a xlink:title=" ">
<path fill="none" stroke="#63b8ff" d="M196.5,-219.74C196.5,-194.31 196.5,-120.08 196.5,-84.69"/>
<polygon fill="#63b8ff" stroke="#63b8ff" points="200,-84.31 196.5,-74.31 193,-84.31 200,-84.31"/>
</a>
</g>
</g>
<!-- Node3&#45;&gt;Node4 -->
<g id="edge3_Node000003_Node000004" class="edge">
<title>Node3&#45;&gt;Node4</title>
<g id="a_edge3_Node000003_Node000004"><a xlink:title=" ">
<path fill="none" stroke="#63b8ff" d="M184.13,-54.98C172.41,-46.92 154.58,-34.65 140.61,-25.03"/>
<polygon fill="#63b8ff" stroke="#63b8ff" points="142.32,-21.96 132.1,-19.17 138.35,-27.72 142.32,-21.96"/>
</a>
</g>
</g>
<!-- Node5 -->
<g id="Node000005" class="node">
<title>Node5</title>
<g id="a_Node000005"><a xlink:title=" ">
<polygon fill="#e0e0e0" stroke="#999999" points="220.5,-19 164.5,-19 164.5,0 220.5,0 220.5,-19"/>
<text text-anchor="middle" x="192.5" y="-7" font-family="Helvetica,sans-Serif" font-size="10.00">stddef.h</text>
</a>
</g>
</g>
<!-- Node3&#45;&gt;Node5 -->
<g id="edge4_Node000003_Node000005" class="edge">
<title>Node3&#45;&gt;Node5</title>
<g id="a_edge4_Node000003_Node000005"><a xlink:title=" ">
<path fill="none" stroke="#63b8ff" d="M195.84,-54.75C195.32,-47.8 194.56,-37.85 193.91,-29.13"/>
<polygon fill="#63b8ff" stroke="#63b8ff" points="197.39,-28.8 193.15,-19.09 190.41,-29.32 197.39,-28.8"/>
</a>
</g>
</g>
<!-- Node6 -->
<g id="Node000006" class="node">
<title>Node6</title>
<g id="a_Node000006"><a xlink:title=" ">
<polygon fill="#e0e0e0" stroke="#999999" points="300.5,-19 238.5,-19 238.5,0 300.5,0 300.5,-19"/>
<text text-anchor="middle" x="269.5" y="-7" font-family="Helvetica,sans-Serif" font-size="10.00">stdbool.h</text>
</a>
</g>
</g>
<!-- Node3&#45;&gt;Node6 -->
<g id="edge5_Node000003_Node000006" class="edge">
<title>Node3&#45;&gt;Node6</title>
<g id="a_edge5_Node000003_Node000006"><a xlink:title=" ">
<path fill="none" stroke="#63b8ff" d="M208.23,-54.98C219.23,-47 235.92,-34.88 249.1,-25.31"/>
<polygon fill="#63b8ff" stroke="#63b8ff" points="251.52,-27.88 257.56,-19.17 247.41,-22.21 251.52,-27.88"/>
</a>
</g>
</g>
<!-- Node7&#45;&gt;Node4 -->
<g id="edge7_Node000007_Node000004" class="edge">
<title>Node7&#45;&gt;Node4</title>
<g id="a_edge7_Node000007_Node000004"><a xlink:title=" ">
<path fill="none" stroke="#63b8ff" d="M51.37,-164.74C62.7,-139.09 95.96,-63.78 111.43,-28.78"/>
<polygon fill="#63b8ff" stroke="#63b8ff" points="114.77,-29.87 115.61,-19.31 108.37,-27.04 114.77,-29.87"/>
</a>
</g>
</g>
<!-- Node8&#45;&gt;Node6 -->
<g id="edge25_Node000008_Node000006" class="edge">
<title>Node8&#45;&gt;Node6</title>
<g id="a_edge25_Node000008_Node000006"><a xlink:title=" ">
<path fill="none" stroke="#63b8ff" d="M267.58,-219.95C267.87,-187.95 268.91,-74.68 269.33,-29.4"/>
<polygon fill="#63b8ff" stroke="#63b8ff" points="272.83,-29.26 269.42,-19.22 265.83,-29.19 272.83,-29.26"/>
</a>
</g>
</g>
<!-- Node9 -->
<g id="Node000009" class="node">
<title>Node9</title>
<g id="a_Node000009"><a xlink:href="telemetry_8h.html" target="_top" xlink:title="Functions for packaging and queuing telemetry packets for sending.">
<polygon fill="white" stroke="#666666" points="682.5,-184 610.5,-184 610.5,-165 682.5,-165 682.5,-184"/>
<text text-anchor="middle" x="646.5" y="-172" font-family="Helvetica,sans-Serif" font-size="10.00">telemetry.h</text>
</a>
</g>
</g>
<!-- Node8&#45;&gt;Node9 -->
<g id="edge9_Node000008_Node000009" class="edge">
<title>Node8&#45;&gt;Node9</title>
<g id="a_edge9_Node000008_Node000009"><a xlink:title=" ">
<path fill="none" stroke="#63b8ff" d="M288.06,-222.24C291.2,-221.41 294.42,-220.63 297.5,-220 404.72,-198.1 532.81,-185.06 600.03,-179.2"/>
<polygon fill="#63b8ff" stroke="#63b8ff" points="600.62,-182.66 610.29,-178.32 600.02,-175.69 600.62,-182.66"/>
</a>
</g>
</g>
<!-- Node10 -->
<g id="Node000010" class="node">
<title>Node10</title>
<g id="a_Node000010"><a xlink:title=" ">
<polygon fill="#e0e0e0" stroke="#999999" points="718,-19 645,-19 645,0 718,0 718,-19"/>
<text text-anchor="middle" x="681.5" y="-7" font-family="Helvetica,sans-Serif" font-size="10.00">FreeRTOS.h</text>
</a>
</g>
</g>
<!-- Node9&#45;&gt;Node10 -->
<g id="edge10_Node000009_Node000010" class="edge">
<title>Node9&#45;&gt;Node10</title>
<g id="a_edge10_Node000009_Node000010"><a xlink:title=" ">
<path fill="none" stroke="#63b8ff" d="M641.13,-164.92C634.19,-152.76 623.56,-129.79 628.5,-110 636.32,-78.67 656.08,-46.39 669.14,-27.4"/>
<polygon fill="#63b8ff" stroke="#63b8ff" points="672.01,-29.4 674.93,-19.21 666.3,-25.36 672.01,-29.4"/>
</a>
</g>
</g>
<!-- Node11 -->
<g id="Node000011" class="node">
<title>Node11</title>
<g id="a_Node000011"><a xlink:title=" ">
<polygon fill="#e0e0e0" stroke="#999999" points="792.5,-19 736.5,-19 736.5,0 792.5,0 792.5,-19"/>
<text text-anchor="middle" x="764.5" y="-7" font-family="Helvetica,sans-Serif" font-size="10.00">queue.h</text>
</a>
</g>
</g>
<!-- Node9&#45;&gt;Node11 -->
<g id="edge11_Node000009_Node000011" class="edge">
<title>Node9&#45;&gt;Node11</title>
<g id="a_edge11_Node000009_Node000011"><a xlink:title=" ">
<path fill="none" stroke="#63b8ff" d="M680.17,-164.95C699.7,-158.29 723.19,-147.06 737.5,-129 760.68,-99.74 764.72,-54.33 765,-29.07"/>
<polygon fill="#63b8ff" stroke="#63b8ff" points="768.5,-28.98 764.92,-19.01 761.5,-29.03 768.5,-28.98"/>
</a>
</g>
</g>
<!-- Node12 -->
<g id="Node000012" class="node">
<title>Node12</title>
<g id="a_Node000012"><a xlink:href="file__downlink_8h.html" target="_top" xlink:title=" ">
<polygon fill="white" stroke="#666666" points="729,-129 638,-129 638,-110 729,-110 729,-129"/>
<text text-anchor="middle" x="683.5" y="-117" font-family="Helvetica,sans-Serif" font-size="10.00">file_downlink.h</text>
</a>
</g>
</g>
<!-- Node9&#45;&gt;Node12 -->
<g id="edge12_Node000009_Node000012" class="edge">
<title>Node9&#45;&gt;Node12</title>
<g id="a_edge12_Node000009_Node000012"><a xlink:title=" ">
<path fill="none" stroke="#63b8ff" d="M652.61,-164.75C657.78,-157.34 665.35,-146.5 671.69,-137.41"/>
<polygon fill="#63b8ff" stroke="#63b8ff" points="674.65,-139.29 677.5,-129.09 668.91,-135.29 674.65,-139.29"/>
</a>
</g>
</g>
<!-- Node12&#45;&gt;Node10 -->
<g id="edge13_Node000012_Node000010" class="edge">
<title>Node12&#45;&gt;Node10</title>
<g id="a_edge13_Node000012_Node000010"><a xlink:title=" ">
<path fill="none" stroke="#63b8ff" d="M683.34,-109.66C683.01,-92.17 682.28,-52.8 681.85,-29.27"/>
<polygon fill="#63b8ff" stroke="#63b8ff" points="685.34,-29.09 681.66,-19.16 678.35,-29.22 685.34,-29.09"/>
</a>
</g>
</g>
<!-- Node12&#45;&gt;Node11 -->
<g id="edge14_Node000012_Node000011" class="edge">
<title>Node12&#45;&gt;Node11</title>
<g id="a_edge14_Node000012_Node000011"><a xlink:title=" ">
<path fill="none" stroke="#63b8ff" d="M690.13,-109.66C703.6,-91.69 734.39,-50.64 751.84,-27.38"/>
<polygon fill="#63b8ff" stroke="#63b8ff" points="754.81,-29.26 758.01,-19.16 749.21,-25.06 754.81,-29.26"/>
</a>
</g>
</g>
<!-- Node13 -->
<g id="Node000013" class="node">
<title>Node13</title>
<g id="a_Node000013"><a xlink:href="filesystem_8h.html" target="_top" xlink:title="Handles file system operations and management.">
<polygon fill="white" stroke="#666666" points="549,-74 472,-74 472,-55 549,-55 549,-74"/>
<text text-anchor="middle" x="510.5" y="-62" font-family="Helvetica,sans-Serif" font-size="10.00">filesystem.h</text>
</a>
</g>
</g>
<!-- Node12&#45;&gt;Node13 -->
<g id="edge15_Node000012_Node000013" class="edge">
<title>Node12&#45;&gt;Node13</title>
<g id="a_edge15_Node000012_Node000013"><a xlink:title=" ">
<path fill="none" stroke="#63b8ff" d="M655.7,-109.98C626.53,-101.05 580.5,-86.94 548.1,-77.02"/>
<polygon fill="#63b8ff" stroke="#63b8ff" points="549.1,-73.66 538.51,-74.08 547.05,-80.36 549.1,-73.66"/>
</a>
</g>
</g>
<!-- Node13&#45;&gt;Node4 -->
<g id="edge23_Node000013_Node000004" class="edge">
<title>Node13&#45;&gt;Node4</title>
<g id="a_edge23_Node000013_Node000004"><a xlink:title=" ">
<path fill="none" stroke="#63b8ff" d="M471.95,-60.03C408.33,-54.02 277.24,-40.37 156.34,-18.96"/>
<polygon fill="#63b8ff" stroke="#63b8ff" points="156.63,-15.45 146.17,-17.13 155.39,-22.34 156.63,-15.45"/>
</a>
</g>
</g>
<!-- Node13&#45;&gt;Node5 -->
<g id="edge22_Node000013_Node000005" class="edge">
<title>Node13&#45;&gt;Node5</title>
<g id="a_edge22_Node000013_Node000005"><a xlink:title=" ">
<path fill="none" stroke="#63b8ff" d="M471.72,-58.22C419.29,-50.89 322.67,-36.72 230.76,-19.13"/>
<polygon fill="#63b8ff" stroke="#63b8ff" points="231.22,-15.66 220.74,-17.2 229.89,-22.53 231.22,-15.66"/>
</a>
</g>
</g>
<!-- Node13&#45;&gt;Node6 -->
<g id="edge24_Node000013_Node000006" class="edge">
<title>Node13&#45;&gt;Node6</title>
<g id="a_edge24_Node000013_Node000006"><a xlink:title=" ">
<path fill="none" stroke="#63b8ff" d="M471.78,-54.98C427.71,-45.29 356.01,-29.53 310.87,-19.6"/>
<polygon fill="#63b8ff" stroke="#63b8ff" points="311.35,-16.12 300.83,-17.39 309.85,-22.96 311.35,-16.12"/>
</a>
</g>
</g>
<!-- Node13&#45;&gt;Node10 -->
<g id="edge16_Node000013_Node000010" class="edge">
<title>Node13&#45;&gt;Node10</title>
<g id="a_edge16_Node000013_Node000010"><a xlink:title=" ">
<path fill="none" stroke="#63b8ff" d="M537.97,-54.98C566.68,-46.09 611.92,-32.07 643.92,-22.15"/>
<polygon fill="#63b8ff" stroke="#63b8ff" points="645.3,-25.39 653.81,-19.08 643.22,-18.7 645.3,-25.39"/>
</a>
</g>
</g>
<!-- Node13&#45;&gt;Node11 -->
<g id="edge17_Node000013_Node000011" class="edge">
<title>Node13&#45;&gt;Node11</title>
<g id="a_edge17_Node000013_Node000011"><a xlink:title=" ">
<path fill="none" stroke="#63b8ff" d="M549.17,-55.74C592.42,-47.01 664.55,-32.31 726.5,-19 726.6,-18.98 726.7,-18.96 726.8,-18.94"/>
<polygon fill="#63b8ff" stroke="#63b8ff" points="727.27,-22.42 736.29,-16.87 725.77,-15.58 727.27,-22.42"/>
</a>
</g>
</g>
<!-- Node14 -->
<g id="Node000014" class="node">
<title>Node14</title>
<g id="a_Node000014"><a xlink:title=" ">
<polygon fill="#e0e0e0" stroke="#999999" points="576,-19 529,-19 529,0 576,0 576,-19"/>
<text text-anchor="middle" x="552.5" y="-7" font-family="Helvetica,sans-Serif" font-size="10.00">task.h</text>
</a>
</g>
</g>
<!-- Node13&#45;&gt;Node14 -->
<g id="edge18_Node000013_Node000014" class="edge">
<title>Node13&#45;&gt;Node14</title>
<g id="a_edge18_Node000013_Node000014"><a xlink:title=" ">
<path fill="none" stroke="#63b8ff" d="M517.44,-54.75C523.37,-47.26 532.07,-36.28 539.32,-27.13"/>
<polygon fill="#63b8ff" stroke="#63b8ff" points="542.23,-29.1 545.69,-19.09 536.74,-24.75 542.23,-29.1"/>
</a>
</g>
</g>
<!-- Node15 -->
<g id="Node000015" class="node">
<title>Node15</title>
<g id="a_Node000015"><a xlink:title=" ">
<polygon fill="#e0e0e0" stroke="#999999" points="626.5,-19 594.5,-19 594.5,0 626.5,0 626.5,-19"/>
<text text-anchor="middle" x="610.5" y="-7" font-family="Helvetica,sans-Serif" font-size="10.00">ff.h</text>
</a>
</g>
</g>
<!-- Node13&#45;&gt;Node15 -->
<g id="edge19_Node000013_Node000015" class="edge">
<title>Node13&#45;&gt;Node15</title>
<g id="a_edge19_Node000013_Node000015"><a xlink:title=" ">
<path fill="none" stroke="#63b8ff" d="M526.57,-54.98C542.46,-46.56 567.01,-33.55 585.46,-23.77"/>
<polygon fill="#63b8ff" stroke="#63b8ff" points="587.28,-26.77 594.47,-18.99 584,-20.58 587.28,-26.77"/>
</a>
</g>
</g>
<!-- Node16 -->
<g id="Node000016" class="node">
<title>Node16</title>
<g id="a_Node000016"><a xlink:href="filesystem__errors_8h.html" target="_top" xlink:title=" ">
<polygon fill="white" stroke="#666666" points="430,-19 319,-19 319,0 430,0 430,-19"/>
<text text-anchor="middle" x="374.5" y="-7" font-family="Helvetica,sans-Serif" font-size="10.00">filesystem_errors.h</text>
</a>
</g>
</g>
<!-- Node13&#45;&gt;Node16 -->
<g id="edge20_Node000013_Node000016" class="edge">
<title>Node13&#45;&gt;Node16</title>
<g id="a_edge20_Node000013_Node000016"><a xlink:title=" ">
<path fill="none" stroke="#63b8ff" d="M488.65,-54.98C466.38,-46.3 431.6,-32.75 406.28,-22.88"/>
<polygon fill="#63b8ff" stroke="#63b8ff" points="407.34,-19.54 396.75,-19.17 404.79,-26.06 407.34,-19.54"/>
</a>
</g>
</g>
<!-- Node17 -->
<g id="Node000017" class="node">
<title>Node17</title>
<g id="a_Node000017"><a xlink:title=" ">
<polygon fill="#e0e0e0" stroke="#999999" points="510.5,-19 448.5,-19 448.5,0 510.5,0 510.5,-19"/>
<text text-anchor="middle" x="479.5" y="-7" font-family="Helvetica,sans-Serif" font-size="10.00">semphr.h</text>
</a>
</g>
</g>
<!-- Node13&#45;&gt;Node17 -->
<g id="edge21_Node000013_Node000017" class="edge">
<title>Node13&#45;&gt;Node17</title>
<g id="a_edge21_Node000013_Node000017"><a xlink:title=" ">
<path fill="none" stroke="#63b8ff" d="M505.38,-54.75C501.14,-47.49 494.97,-36.95 489.72,-27.98"/>
<polygon fill="#63b8ff" stroke="#63b8ff" points="492.59,-25.95 484.52,-19.09 486.55,-29.49 492.59,-25.95"/>
</a>
</g>
</g>
</g>
</svg>
