<?xml version="1.0" encoding="UTF-8" standalone="no"?>
<!DOCTYPE svg PUBLIC "-//W3C//DTD SVG 1.1//EN"
 "http://www.w3.org/Graphics/SVG/1.1/DTD/svg11.dtd">
<!-- Generated by graphviz version 12.1.2 (20240928.0832)
 -->
<!-- Title: getPower Pages: 1 -->
<svg width="358pt" height="66pt"
 viewBox="0.00 0.00 358.25 66.00" xmlns="http://www.w3.org/2000/svg" xmlns:xlink="http://www.w3.org/1999/xlink">
<g id="graph0" class="graph" transform="scale(1 1) rotate(0) translate(4 62)">
<title>getPower</title>
<!-- Node1 -->
<g id="Node000001" class="node">
<title>Node1</title>
<g id="a_Node000001"><a xlink:title=" ">
<polygon fill="#999999" stroke="#666666" points="57.25,-39 0,-39 0,-19 57.25,-19 57.25,-39"/>
<text text-anchor="middle" x="28.62" y="-25.5" font-family="Helvetica,sans-Serif" font-size="10.00">getPower</text>
</a>
</g>
</g>
<!-- Node2 -->
<g id="Node000002" class="node">
<title>Node2</title>
<g id="a_Node000002"><a xlink:href="ina219_8c.html#a75d20b3960f7d7688d27f264f02eb98a" target="_top" xlink:title=" ">
<polygon fill="white" stroke="#666666" points="177.12,-58 124.38,-58 124.38,-38 177.12,-38 177.12,-58"/>
<text text-anchor="middle" x="150.75" y="-44.5" font-family="Helvetica,sans-Serif" font-size="10.00">calibrate</text>
</a>
</g>
</g>
<!-- Node1&#45;&gt;Node2 -->
<g id="edge1_Node000001_Node000002" class="edge">
<title>Node1&#45;&gt;Node2</title>
<g id="a_edge1_Node000001_Node000002"><a xlink:title=" ">
<path fill="none" stroke="#63b8ff" d="M57.49,-33.41C73.97,-36.01 95.06,-39.35 112.91,-42.17"/>
<polygon fill="#63b8ff" stroke="#63b8ff" points="112.17,-45.6 122.6,-43.71 113.27,-38.69 112.17,-45.6"/>
</a>
</g>
</g>
<!-- Node4 -->
<g id="Node000004" class="node">
<title>Node4</title>
<g id="a_Node000004"><a xlink:href="i2c_8c.html#afd489cf93d14a907e09132068de8e1c9" target="_top" xlink:title=" ">
<polygon fill="white" stroke="#666666" points="208.25,-20 93.25,-20 93.25,0 208.25,0 208.25,-20"/>
<text text-anchor="middle" x="150.75" y="-6.5" font-family="Helvetica,sans-Serif" font-size="10.00">i2c_read_from_register</text>
</a>
</g>
</g>
<!-- Node1&#45;&gt;Node4 -->
<g id="edge3_Node000001_Node000004" class="edge">
<title>Node1&#45;&gt;Node4</title>
<g id="a_edge3_Node000001_Node000004"><a xlink:title=" ">
<path fill="none" stroke="#63b8ff" d="M57.49,-24.59C64.91,-23.42 73.26,-22.1 81.83,-20.74"/>
<polygon fill="#63b8ff" stroke="#63b8ff" points="82.34,-24.21 91.67,-19.19 81.24,-17.29 82.34,-24.21"/>
</a>
</g>
</g>
<!-- Node3 -->
<g id="Node000003" class="node">
<title>Node3</title>
<g id="a_Node000003"><a xlink:href="i2c_8c.html#a73f9c3581b5d48d5db9c6c445034a970" target="_top" xlink:title=" ">
<polygon fill="white" stroke="#666666" points="350.25,-58 244.25,-58 244.25,-38 350.25,-38 350.25,-58"/>
<text text-anchor="middle" x="297.25" y="-44.5" font-family="Helvetica,sans-Serif" font-size="10.00">i2c_write_to_register</text>
</a>
</g>
</g>
<!-- Node2&#45;&gt;Node3 -->
<g id="edge2_Node000002_Node000003" class="edge">
<title>Node2&#45;&gt;Node3</title>
<g id="a_edge2_Node000002_Node000003"><a xlink:title=" ">
<path fill="none" stroke="#63b8ff" d="M177.58,-48C192.99,-48 213.27,-48 232.71,-48"/>
<polygon fill="#63b8ff" stroke="#63b8ff" points="232.49,-51.5 242.49,-48 232.49,-44.5 232.49,-51.5"/>
</a>
</g>
</g>
</g>
</svg>
