<?xml version="1.0" encoding="UTF-8" standalone="no"?>
<!DOCTYPE svg PUBLIC "-//W3C//DTD SVG 1.1//EN"
 "http://www.w3.org/Graphics/SVG/1.1/DTD/svg11.dtd">
<!-- Generated by graphviz version 12.1.2 (20240928.0832)
 -->
<!-- Title: getCurrent Pages: 1 -->
<svg width="363pt" height="66pt"
 viewBox="0.00 0.00 362.75 66.00" xmlns="http://www.w3.org/2000/svg" xmlns:xlink="http://www.w3.org/1999/xlink">

<svg id="main" version="1.1" xmlns="http://www.w3.org/2000/svg" xmlns:xlink="http://www.w3.org/1999/xlink" xml:space="preserve">

<style type="text/css"><![CDATA[
.node, .edge {opacity: 0.7;}
.node.selected, .edge.selected {opacity: 1;}
.edge:hover path { stroke: red; }
.edge:hover polygon { stroke: red; fill: red; }
]]></style>
<script type="application/ecmascript" xlink:href="svg.min.js"/>
<svg id="graph" class="graph">
<g id="graph0" class="graph" transform="scale(1 1) rotate(0) translate(4 62)">
<title>getCurrent</title>
<!-- Node1 -->
<g id="Node000001" class="node">
<title>Node1</title>
<g id="a_Node000001"><a xlink:title=" ">
<polygon fill="#999999" stroke="#666666" points="61.75,-39 0,-39 0,-19 61.75,-19 61.75,-39"/>
<text text-anchor="middle" x="30.88" y="-25.5" font-family="Helvetica,sans-Serif" font-size="10.00">getCurrent</text>
</a>
</g>
</g>
<!-- Node2 -->
<g id="Node000002" class="node">
<title>Node2</title>
<g id="a_Node000002"><a xlink:href="ina219_8c.html#a75d20b3960f7d7688d27f264f02eb98a" target="_top" xlink:title=" ">
<polygon fill="white" stroke="#666666" points="181.62,-58 128.88,-58 128.88,-38 181.62,-38 181.62,-58"/>
<text text-anchor="middle" x="155.25" y="-44.5" font-family="Helvetica,sans-Serif" font-size="10.00">calibrate</text>
</a>
</g>
</g>
<!-- Node1&#45;&gt;Node2 -->
<g id="edge1_Node000001_Node000002" class="edge">
<title>Node1&#45;&gt;Node2</title>
<g id="a_edge1_Node000001_Node000002"><a xlink:title=" ">
<path fill="none" stroke="#63b8ff" d="M62.13,-33.7C78.77,-36.28 99.55,-39.51 117.17,-42.24"/>
<polygon fill="#63b8ff" stroke="#63b8ff" points="116.57,-45.69 126.99,-43.77 117.64,-38.77 116.57,-45.69"/>
</a>
</g>
</g>
<!-- Node4 -->
<g id="Node000004" class="node">
<title>Node4</title>
<g id="a_Node000004"><a xlink:href="i2c_8c.html#afd489cf93d14a907e09132068de8e1c9" target="_top" xlink:title=" ">
<polygon fill="white" stroke="#666666" points="212.75,-20 97.75,-20 97.75,0 212.75,0 212.75,-20"/>
<text text-anchor="middle" x="155.25" y="-6.5" font-family="Helvetica,sans-Serif" font-size="10.00">i2c_read_from_register</text>
</a>
</g>
</g>
<!-- Node1&#45;&gt;Node4 -->
<g id="edge3_Node000001_Node000004" class="edge">
<title>Node1&#45;&gt;Node4</title>
<g id="a_edge3_Node000001_Node000004"><a xlink:title=" ">
<path fill="none" stroke="#63b8ff" d="M62.13,-24.3C69.61,-23.14 77.92,-21.85 86.41,-20.53"/>
<polygon fill="#63b8ff" stroke="#63b8ff" points="86.78,-24.02 96.12,-19.02 85.7,-17.1 86.78,-24.02"/>
</a>
</g>
</g>
<!-- Node3 -->
<g id="Node000003" class="node">
<title>Node3</title>
<g id="a_Node000003"><a xlink:href="i2c_8c.html#a73f9c3581b5d48d5db9c6c445034a970" target="_top" xlink:title=" ">
<polygon fill="white" stroke="#666666" points="354.75,-58 248.75,-58 248.75,-38 354.75,-38 354.75,-58"/>
<text text-anchor="middle" x="301.75" y="-44.5" font-family="Helvetica,sans-Serif" font-size="10.00">i2c_write_to_register</text>
</a>
</g>
</g>
<!-- Node2&#45;&gt;Node3 -->
<g id="edge2_Node000002_Node000003" class="edge">
<title>Node2&#45;&gt;Node3</title>
<g id="a_edge2_Node000002_Node000003"><a xlink:title=" ">
<path fill="none" stroke="#63b8ff" d="M182.08,-48C197.49,-48 217.77,-48 237.21,-48"/>
<polygon fill="#63b8ff" stroke="#63b8ff" points="236.99,-51.5 246.99,-48 236.99,-44.5 236.99,-51.5"/>
</a>
</g>
</g>
</g>
</svg>
</svg>

<style type='text/css'>
<![CDATA[
[data-mouse-over-selected='false'] { opacity: 0.7; }
[data-mouse-over-selected='true']  { opacity: 1.0; }
]]>
</style>
<script type="application/ecmascript"><![CDATA[
document.addEventListener('DOMContentLoaded', (event) => {
  highlightEdges();
  highlightAdjacentNodes();
});
]]></script>
</svg>
