<?xml version="1.0" encoding="UTF-8" standalone="no"?>
<!DOCTYPE svg PUBLIC "-//W3C//DTD SVG 1.1//EN"
 "http://www.w3.org/Graphics/SVG/1.1/DTD/svg11.dtd">
<!-- Generated by graphviz version 12.1.2 (20240928.0832)
 -->
<!-- Title: eps_test Pages: 1 -->
<svg width="292pt" height="84pt"
 viewBox="0.00 0.00 292.25 84.00" xmlns="http://www.w3.org/2000/svg" xmlns:xlink="http://www.w3.org/1999/xlink">

<svg id="main" version="1.1" xmlns="http://www.w3.org/2000/svg" xmlns:xlink="http://www.w3.org/1999/xlink" xml:space="preserve">

<style type="text/css"><![CDATA[
.node, .edge {opacity: 0.7;}
.node.selected, .edge.selected {opacity: 1;}
.edge:hover path { stroke: red; }
.edge:hover polygon { stroke: red; fill: red; }
]]></style>
<script type="application/ecmascript" xlink:href="svg.min.js"/>
<svg id="graph" class="graph">
<g id="graph0" class="graph" transform="scale(1 1) rotate(0) translate(4 80)">
<title>eps_test</title>
<!-- Node1 -->
<g id="Node000001" class="node">
<title>Node1</title>
<g id="a_Node000001"><a xlink:title=" ">
<polygon fill="#999999" stroke="#666666" points="53.5,-48 0,-48 0,-28 53.5,-28 53.5,-48"/>
<text text-anchor="middle" x="26.75" y="-34.5" font-family="Helvetica,sans-Serif" font-size="10.00">eps_test</text>
</a>
</g>
</g>
<!-- Node2 -->
<g id="Node000002" class="node">
<title>Node2</title>
<g id="a_Node000002"><a xlink:href="ina219_8c.html#a75d20b3960f7d7688d27f264f02eb98a" target="_top" xlink:title=" ">
<polygon fill="white" stroke="#666666" points="142.25,-76 89.5,-76 89.5,-56 142.25,-56 142.25,-76"/>
<text text-anchor="middle" x="115.88" y="-62.5" font-family="Helvetica,sans-Serif" font-size="10.00">calibrate</text>
</a>
</g>
</g>
<!-- Node1&#45;&gt;Node2 -->
<g id="edge1_Node000001_Node000002" class="edge">
<title>Node1&#45;&gt;Node2</title>
<g id="a_edge1_Node000001_Node000002"><a xlink:title=" ">
<path fill="none" stroke="#63b8ff" d="M53.89,-46.4C61.54,-48.86 70.05,-51.59 78.22,-54.22"/>
<polygon fill="#63b8ff" stroke="#63b8ff" points="77.02,-57.51 87.61,-57.24 79.16,-50.85 77.02,-57.51"/>
</a>
</g>
</g>
<!-- Node4 -->
<g id="Node000004" class="node">
<title>Node4</title>
<g id="a_Node000004"><a xlink:href="ina219_8c.html#a9ffe93da633c2f6008fac2f2da36ab72" target="_top" xlink:title=" ">
<polygon fill="white" stroke="#666666" points="137,-20 94.75,-20 94.75,0 137,0 137,-20"/>
<text text-anchor="middle" x="115.88" y="-6.5" font-family="Helvetica,sans-Serif" font-size="10.00">config</text>
</a>
</g>
</g>
<!-- Node1&#45;&gt;Node4 -->
<g id="edge3_Node000001_Node000004" class="edge">
<title>Node1&#45;&gt;Node4</title>
<g id="a_edge3_Node000001_Node000004"><a xlink:title=" ">
<path fill="none" stroke="#63b8ff" d="M53.89,-29.6C63.19,-26.61 73.75,-23.22 83.44,-20.1"/>
<polygon fill="#63b8ff" stroke="#63b8ff" points="84.4,-23.47 92.85,-17.08 82.26,-16.81 84.4,-23.47"/>
</a>
</g>
</g>
<!-- Node3 -->
<g id="Node000003" class="node">
<title>Node3</title>
<g id="a_Node000003"><a xlink:href="i2c_8c.html#a73f9c3581b5d48d5db9c6c445034a970" target="_top" xlink:title=" ">
<polygon fill="white" stroke="#666666" points="284.25,-48 178.25,-48 178.25,-28 284.25,-28 284.25,-48"/>
<text text-anchor="middle" x="231.25" y="-34.5" font-family="Helvetica,sans-Serif" font-size="10.00">i2c_write_to_register</text>
</a>
</g>
</g>
<!-- Node2&#45;&gt;Node3 -->
<g id="edge2_Node000002_Node000003" class="edge">
<title>Node2&#45;&gt;Node3</title>
<g id="a_edge2_Node000002_Node000003"><a xlink:title=" ">
<path fill="none" stroke="#63b8ff" d="M142.6,-59.65C152.91,-57.1 165.18,-54.07 177.23,-51.09"/>
<polygon fill="#63b8ff" stroke="#63b8ff" points="177.83,-54.55 186.7,-48.75 176.15,-47.75 177.83,-54.55"/>
</a>
</g>
</g>
<!-- Node4&#45;&gt;Node3 -->
<g id="edge5_Node000004_Node000003" class="edge">
<title>Node4&#45;&gt;Node3</title>
<g id="a_edge5_Node000004_Node000003"><a xlink:title=" ">
<path fill="none" stroke="#63b8ff" d="M137.41,-15.07C148.48,-17.81 162.72,-21.32 176.71,-24.78"/>
<polygon fill="#63b8ff" stroke="#63b8ff" points="175.78,-28.15 186.33,-27.15 177.46,-21.36 175.78,-28.15"/>
</a>
</g>
</g>
<!-- Node4&#45;&gt;Node4 -->
<g id="edge4_Node000004_Node000004" class="edge">
<title>Node4&#45;&gt;Node4</title>
<g id="a_edge4_Node000004_Node000004"><a xlink:title=" ">
<path fill="none" stroke="#63b8ff" d="M101.71,-20.34C95.66,-28.98 100.38,-38 115.88,-38 124.35,-38 129.6,-35.3 131.63,-31.44"/>
<polygon fill="#63b8ff" stroke="#63b8ff" points="135.13,-31.24 130.25,-21.84 128.2,-32.23 135.13,-31.24"/>
</a>
</g>
</g>
</g>
</svg>
</svg>

<style type='text/css'>
<![CDATA[
[data-mouse-over-selected='false'] { opacity: 0.7; }
[data-mouse-over-selected='true']  { opacity: 1.0; }
]]>
</style>
<script type="application/ecmascript"><![CDATA[
document.addEventListener('DOMContentLoaded', (event) => {
  highlightEdges();
  highlightAdjacentNodes();
});
]]></script>
</svg>
