<?xml version="1.0" encoding="UTF-8" standalone="no"?>
<!DOCTYPE svg PUBLIC "-//W3C//DTD SVG 1.1//EN"
 "http://www.w3.org/Graphics/SVG/1.1/DTD/svg11.dtd">
<!-- Generated by graphviz version 2.43.0 (0)
 -->
<!-- Title: config Pages: 1 -->
<svg width="209pt" height="45pt"
 viewBox="0.00 0.00 209.00 45.00" xmlns="http://www.w3.org/2000/svg" xmlns:xlink="http://www.w3.org/1999/xlink">
<g id="graph0" class="graph" transform="scale(1 1) rotate(0) translate(4 41)">
<title>config</title>
<!-- Node1 -->
<g id="Node000001" class="node">
<title>Node1</title>
<g id="a_Node000001"><a xlink:title="Configures the EPS by writing to the configuration register (0x00) Config register value taken from A...">
<polygon fill="#999999" stroke="#666666" points="46,-19 0,-19 0,0 46,0 46,-19"/>
<text text-anchor="middle" x="23" y="-7" font-family="Helvetica,sans-Serif" font-size="10.00">config</text>
</a>
</g>
</g>
<!-- Node1&#45;&gt;Node1 -->
<g id="edge1_Node000001_Node000001" class="edge">
<title>Node1&#45;&gt;Node1</title>
<g id="a_edge1_Node000001_Node000001"><a xlink:title=" ">
<path fill="none" stroke="#63b8ff" d="M4.81,-19.08C-4.04,-27.73 2.03,-37 23,-37 36.11,-37 43.39,-33.38 44.85,-28.55"/>
<polygon fill="#63b8ff" stroke="#63b8ff" points="48.06,-27.15 41.19,-19.08 41.53,-29.67 48.06,-27.15"/>
</a>
</g>
</g>
<!-- Node2 -->
<g id="Node000002" class="node">
<title>Node2</title>
<g id="a_Node000002"><a xlink:href="i2c_8c.html#a73f9c3581b5d48d5db9c6c445034a970" target="_top" xlink:title="Write [reg] and [buf] to i2c device, [reg] is just inserted before [buf].">
<polygon fill="white" stroke="#666666" points="201,-19 82,-19 82,0 201,0 201,-19"/>
<text text-anchor="middle" x="141.5" y="-7" font-family="Helvetica,sans-Serif" font-size="10.00">i2c_write_to_register</text>
</a>
</g>
</g>
<!-- Node1&#45;&gt;Node2 -->
<g id="edge2_Node000001_Node000002" class="edge">
<title>Node1&#45;&gt;Node2</title>
<g id="a_edge2_Node000001_Node000002"><a xlink:title=" ">
<path fill="none" stroke="#63b8ff" d="M46.19,-9.5C53.65,-9.5 62.42,-9.5 71.56,-9.5"/>
<polygon fill="#63b8ff" stroke="#63b8ff" points="71.56,-13 81.56,-9.5 71.56,-6 71.56,-13"/>
</a>
</g>
</g>
</g>
</svg>
