<?xml version="1.0" encoding="UTF-8" standalone="no"?>
<!DOCTYPE svg PUBLIC "-//W3C//DTD SVG 1.1//EN"
 "http://www.w3.org/Graphics/SVG/1.1/DTD/svg11.dtd">
<!-- Generated by graphviz version 12.1.2 (20240928.0832)
 -->
<!-- Title: getCurrent_raw Pages: 1 -->
<svg width="384pt" height="66pt"
 viewBox="0.00 0.00 383.75 66.00" xmlns="http://www.w3.org/2000/svg" xmlns:xlink="http://www.w3.org/1999/xlink">
<g id="graph0" class="graph" transform="scale(1 1) rotate(0) translate(4 62)">
<title>getCurrent_raw</title>
<!-- Node1 -->
<g id="Node000001" class="node">
<title>Node1</title>
<g id="a_Node000001"><a xlink:title=" ">
<polygon fill="#999999" stroke="#666666" points="82.75,-39 0,-39 0,-19 82.75,-19 82.75,-39"/>
<text text-anchor="middle" x="41.38" y="-25.5" font-family="Helvetica,sans-Serif" font-size="10.00">getCurrent_raw</text>
</a>
</g>
</g>
<!-- Node2 -->
<g id="Node000002" class="node">
<title>Node2</title>
<g id="a_Node000002"><a xlink:href="ina219_8c.html#a75d20b3960f7d7688d27f264f02eb98a" target="_top" xlink:title=" ">
<polygon fill="white" stroke="#666666" points="202.62,-58 149.88,-58 149.88,-38 202.62,-38 202.62,-58"/>
<text text-anchor="middle" x="176.25" y="-44.5" font-family="Helvetica,sans-Serif" font-size="10.00">calibrate</text>
</a>
</g>
</g>
<!-- Node1&#45;&gt;Node2 -->
<g id="edge1_Node000001_Node000002" class="edge">
<title>Node1&#45;&gt;Node2</title>
<g id="a_edge1_Node000001_Node000002"><a xlink:title=" ">
<path fill="none" stroke="#63b8ff" d="M82.96,-34.8C100.57,-37.32 121.06,-40.25 138.24,-42.71"/>
<polygon fill="#63b8ff" stroke="#63b8ff" points="137.65,-46.16 148.04,-44.11 138.64,-39.23 137.65,-46.16"/>
</a>
</g>
</g>
<!-- Node4 -->
<g id="Node000004" class="node">
<title>Node4</title>
<g id="a_Node000004"><a xlink:href="i2c_8c.html#afd489cf93d14a907e09132068de8e1c9" target="_top" xlink:title=" ">
<polygon fill="white" stroke="#666666" points="233.75,-20 118.75,-20 118.75,0 233.75,0 233.75,-20"/>
<text text-anchor="middle" x="176.25" y="-6.5" font-family="Helvetica,sans-Serif" font-size="10.00">i2c_read_from_register</text>
</a>
</g>
</g>
<!-- Node1&#45;&gt;Node4 -->
<g id="edge3_Node000001_Node000004" class="edge">
<title>Node1&#45;&gt;Node4</title>
<g id="a_edge3_Node000001_Node000004"><a xlink:title=" ">
<path fill="none" stroke="#63b8ff" d="M82.96,-23.2C90.62,-22.1 98.83,-20.93 107.07,-19.75"/>
<polygon fill="#63b8ff" stroke="#63b8ff" points="107.38,-23.24 116.78,-18.36 106.39,-16.31 107.38,-23.24"/>
</a>
</g>
</g>
<!-- Node3 -->
<g id="Node000003" class="node">
<title>Node3</title>
<g id="a_Node000003"><a xlink:href="i2c_8c.html#a73f9c3581b5d48d5db9c6c445034a970" target="_top" xlink:title=" ">
<polygon fill="white" stroke="#666666" points="375.75,-58 269.75,-58 269.75,-38 375.75,-38 375.75,-58"/>
<text text-anchor="middle" x="322.75" y="-44.5" font-family="Helvetica,sans-Serif" font-size="10.00">i2c_write_to_register</text>
</a>
</g>
</g>
<!-- Node2&#45;&gt;Node3 -->
<g id="edge2_Node000002_Node000003" class="edge">
<title>Node2&#45;&gt;Node3</title>
<g id="a_edge2_Node000002_Node000003"><a xlink:title=" ">
<path fill="none" stroke="#63b8ff" d="M203.08,-48C218.49,-48 238.77,-48 258.21,-48"/>
<polygon fill="#63b8ff" stroke="#63b8ff" points="257.99,-51.5 267.99,-48 257.99,-44.5 257.99,-51.5"/>
</a>
</g>
</g>
</g>
</svg>
