<?xml version="1.0" encoding="UTF-8" standalone="no"?>
<!DOCTYPE svg PUBLIC "-//W3C//DTD SVG 1.1//EN"
 "http://www.w3.org/Graphics/SVG/1.1/DTD/svg11.dtd">
<!-- Generated by graphviz version 2.43.0 (0)
 -->
<!-- Title: getCurrent_raw Pages: 1 -->
<svg width="420pt" height="64pt"
 viewBox="0.00 0.00 420.00 64.00" xmlns="http://www.w3.org/2000/svg" xmlns:xlink="http://www.w3.org/1999/xlink">
<g id="graph0" class="graph" transform="scale(1 1) rotate(0) translate(4 60)">
<title>getCurrent_raw</title>
<!-- Node1 -->
<g id="Node000001" class="node">
<title>Node1</title>
<g id="a_Node000001"><a xlink:title="Reads from Current register (0x04) writes it to [output_buf] unprocessed.">
<polygon fill="#999999" stroke="#666666" points="92,-37 0,-37 0,-18 92,-18 92,-37"/>
<text text-anchor="middle" x="46" y="-25" font-family="Helvetica,sans-Serif" font-size="10.00">getCurrent_raw</text>
</a>
</g>
</g>
<!-- Node2 -->
<g id="Node000002" class="node">
<title>Node2</title>
<g id="a_Node000002"><a xlink:href="ina219_8c.html#a75d20b3960f7d7688d27f264f02eb98a" target="_top" xlink:title="Calibrates the EPS by writing to the calibration register (0x05) Currently set up for a max current o...">
<polygon fill="white" stroke="#666666" points="222,-56 163,-56 163,-37 222,-37 222,-56"/>
<text text-anchor="middle" x="192.5" y="-44" font-family="Helvetica,sans-Serif" font-size="10.00">calibrate</text>
</a>
</g>
</g>
<!-- Node1&#45;&gt;Node2 -->
<g id="edge1_Node000001_Node000002" class="edge">
<title>Node1&#45;&gt;Node2</title>
<g id="a_edge1_Node000001_Node000002"><a xlink:title=" ">
<path fill="none" stroke="#63b8ff" d="M92.32,-33.46C111.65,-36 133.97,-38.94 152.54,-41.38"/>
<polygon fill="#63b8ff" stroke="#63b8ff" points="152.34,-44.88 162.71,-42.71 153.25,-37.94 152.34,-44.88"/>
</a>
</g>
</g>
<!-- Node4 -->
<g id="Node000004" class="node">
<title>Node4</title>
<g id="a_Node000004"><a xlink:href="i2c_8c.html#afd489cf93d14a907e09132068de8e1c9" target="_top" xlink:title="Write [reg] byte to i2c device and then read [nbytes] from it. Read bytes are stored in [buf].">
<polygon fill="white" stroke="#666666" points="257,-19 128,-19 128,0 257,0 257,-19"/>
<text text-anchor="middle" x="192.5" y="-7" font-family="Helvetica,sans-Serif" font-size="10.00">i2c_read_from_register</text>
</a>
</g>
</g>
<!-- Node1&#45;&gt;Node4 -->
<g id="edge3_Node000001_Node000004" class="edge">
<title>Node1&#45;&gt;Node4</title>
<g id="a_edge3_Node000001_Node000004"><a xlink:title=" ">
<path fill="none" stroke="#63b8ff" d="M92.32,-21.85C100.41,-20.85 109.03,-19.77 117.68,-18.7"/>
<polygon fill="#63b8ff" stroke="#63b8ff" points="118.32,-22.14 127.81,-17.43 117.46,-15.2 118.32,-22.14"/>
</a>
</g>
</g>
<!-- Node3 -->
<g id="Node000003" class="node">
<title>Node3</title>
<g id="a_Node000003"><a xlink:href="i2c_8c.html#a73f9c3581b5d48d5db9c6c445034a970" target="_top" xlink:title="Write [reg] and [buf] to i2c device, [reg] is just inserted before [buf].">
<polygon fill="white" stroke="#666666" points="412,-56 293,-56 293,-37 412,-37 412,-56"/>
<text text-anchor="middle" x="352.5" y="-44" font-family="Helvetica,sans-Serif" font-size="10.00">i2c_write_to_register</text>
</a>
</g>
</g>
<!-- Node2&#45;&gt;Node3 -->
<g id="edge2_Node000002_Node000003" class="edge">
<title>Node2&#45;&gt;Node3</title>
<g id="a_edge2_Node000002_Node000003"><a xlink:title=" ">
<path fill="none" stroke="#63b8ff" d="M222.11,-46.5C239.16,-46.5 261.57,-46.5 282.94,-46.5"/>
<polygon fill="#63b8ff" stroke="#63b8ff" points="282.99,-50 292.99,-46.5 282.99,-43 282.99,-50"/>
</a>
</g>
</g>
</g>
</svg>
