<?xml version="1.0" encoding="UTF-8" standalone="no"?>
<!DOCTYPE svg PUBLIC "-//W3C//DTD SVG 1.1//EN"
 "http://www.w3.org/Graphics/SVG/1.1/DTD/svg11.dtd">
<!-- Generated by graphviz version 2.43.0 (0)
 -->
<!-- Title: eps_test Pages: 1 -->
<svg width="316pt" height="82pt"
 viewBox="0.00 0.00 316.00 82.00" xmlns="http://www.w3.org/2000/svg" xmlns:xlink="http://www.w3.org/1999/xlink">

<svg id="main" version="1.1" xmlns="http://www.w3.org/2000/svg" xmlns:xlink="http://www.w3.org/1999/xlink" xml:space="preserve">

<style type="text/css"><![CDATA[
.node, .edge {opacity: 0.7;}
.node.selected, .edge.selected {opacity: 1;}
.edge:hover path { stroke: red; }
.edge:hover polygon { stroke: red; fill: red; }
]]></style>
<script type="application/ecmascript" xlink:href="svg.min.js"/>
<svg id="graph" class="graph">
<g id="graph0" class="graph" transform="scale(1 1) rotate(0) translate(4 78)">
<title>eps_test</title>
<!-- Node1 -->
<g id="Node000001" class="node">
<title>Node1</title>
<g id="a_Node000001"><a xlink:title="Tests EPS functions.">
<polygon fill="#999999" stroke="#666666" points="58,-46 0,-46 0,-27 58,-27 58,-46"/>
<text text-anchor="middle" x="29" y="-34" font-family="Helvetica,sans-Serif" font-size="10.00">eps_test</text>
</a>
</g>
</g>
<!-- Node2 -->
<g id="Node000002" class="node">
<title>Node2</title>
<g id="a_Node000002"><a xlink:href="ina219_8c.html#a75d20b3960f7d7688d27f264f02eb98a" target="_top" xlink:title="Calibrates the EPS by writing to the calibration register (0x05) Currently set up for a max current o...">
<polygon fill="white" stroke="#666666" points="153,-74 94,-74 94,-55 153,-55 153,-74"/>
<text text-anchor="middle" x="123.5" y="-62" font-family="Helvetica,sans-Serif" font-size="10.00">calibrate</text>
</a>
</g>
</g>
<!-- Node1&#45;&gt;Node2 -->
<g id="edge1_Node000001_Node000002" class="edge">
<title>Node1&#45;&gt;Node2</title>
<g id="a_edge1_Node000001_Node000002"><a xlink:title=" ">
<path fill="none" stroke="#63b8ff" d="M58,-44.98C66.27,-47.48 75.47,-50.26 84.26,-52.93"/>
<polygon fill="#63b8ff" stroke="#63b8ff" points="83.37,-56.31 93.95,-55.86 85.39,-49.61 83.37,-56.31"/>
</a>
</g>
</g>
<!-- Node4 -->
<g id="Node000004" class="node">
<title>Node4</title>
<g id="a_Node000004"><a xlink:href="ina219_8c.html#a9ffe93da633c2f6008fac2f2da36ab72" target="_top" xlink:title="Configures the EPS by writing to the configuration register (0x00) Config register value taken from A...">
<polygon fill="white" stroke="#666666" points="146.5,-19 100.5,-19 100.5,0 146.5,0 146.5,-19"/>
<text text-anchor="middle" x="123.5" y="-7" font-family="Helvetica,sans-Serif" font-size="10.00">config</text>
</a>
</g>
</g>
<!-- Node1&#45;&gt;Node4 -->
<g id="edge3_Node000001_Node000004" class="edge">
<title>Node1&#45;&gt;Node4</title>
<g id="a_edge3_Node000001_Node000004"><a xlink:title=" ">
<path fill="none" stroke="#63b8ff" d="M58,-28.33C68.32,-25.31 80.08,-21.88 90.7,-18.78"/>
<polygon fill="#63b8ff" stroke="#63b8ff" points="91.84,-22.09 100.46,-15.93 89.88,-15.38 91.84,-22.09"/>
</a>
</g>
</g>
<!-- Node3 -->
<g id="Node000003" class="node">
<title>Node3</title>
<g id="a_Node000003"><a xlink:href="i2c_8c.html#a73f9c3581b5d48d5db9c6c445034a970" target="_top" xlink:title="Write [reg] and [buf] to i2c device, [reg] is just inserted before [buf].">
<polygon fill="white" stroke="#666666" points="308,-46 189,-46 189,-27 308,-27 308,-46"/>
<text text-anchor="middle" x="248.5" y="-34" font-family="Helvetica,sans-Serif" font-size="10.00">i2c_write_to_register</text>
</a>
</g>
</g>
<!-- Node2&#45;&gt;Node3 -->
<g id="edge2_Node000002_Node000003" class="edge">
<title>Node2&#45;&gt;Node3</title>
<g id="a_edge2_Node000002_Node000003"><a xlink:title=" ">
<path fill="none" stroke="#63b8ff" d="M153.03,-58.01C165.71,-55.12 181.06,-51.63 195.65,-48.3"/>
<polygon fill="#63b8ff" stroke="#63b8ff" points="196.63,-51.67 205.6,-46.04 195.07,-44.85 196.63,-51.67"/>
</a>
</g>
</g>
<!-- Node4&#45;&gt;Node3 -->
<g id="edge5_Node000004_Node000003" class="edge">
<title>Node4&#45;&gt;Node3</title>
<g id="a_edge5_Node000004_Node000003"><a xlink:title=" ">
<path fill="none" stroke="#63b8ff" d="M146.77,-14.39C159.96,-17.28 177.28,-21.08 193.82,-24.72"/>
<polygon fill="#63b8ff" stroke="#63b8ff" points="193.46,-28.22 203.98,-26.95 194.97,-21.38 193.46,-28.22"/>
</a>
</g>
</g>
<!-- Node4&#45;&gt;Node4 -->
<g id="edge4_Node000004_Node000004" class="edge">
<title>Node4&#45;&gt;Node4</title>
<g id="a_edge4_Node000004_Node000004"><a xlink:title=" ">
<path fill="none" stroke="#63b8ff" d="M109.01,-19.08C101.96,-27.73 106.79,-37 123.5,-37 133.68,-37 139.45,-33.56 140.81,-28.91"/>
<polygon fill="#63b8ff" stroke="#63b8ff" points="144.11,-27.73 137.99,-19.08 137.38,-29.66 144.11,-27.73"/>
</a>
</g>
</g>
</g>
</svg>
</svg>

<style type='text/css'>
<![CDATA[
[data-mouse-over-selected='false'] { opacity: 0.7; }
[data-mouse-over-selected='true']  { opacity: 1.0; }
]]>
</style>
<script type="application/ecmascript"><![CDATA[
document.addEventListener('DOMContentLoaded', (event) => {
  highlightEdges();
  highlightAdjacentNodes();
});
]]></script>
</svg>
