<?xml version="1.0" encoding="UTF-8" standalone="no"?>
<!DOCTYPE svg PUBLIC "-//W3C//DTD SVG 1.1//EN"
 "http://www.w3.org/Graphics/SVG/1.1/DTD/svg11.dtd">
<!-- Generated by graphviz version 12.1.2 (20240928.0832)
 -->
<!-- Title: ina219.c Pages: 1 -->
<svg width="404pt" height="196pt"
 viewBox="0.00 0.00 404.43 196.00" xmlns="http://www.w3.org/2000/svg" xmlns:xlink="http://www.w3.org/1999/xlink">
<g id="graph0" class="graph" transform="scale(1 1) rotate(0) translate(4 192)">
<title>ina219.c</title>
<!-- Node1 -->
<g id="Node000001" class="node">
<title>Node1</title>
<g id="a_Node000001"><a xlink:title=" ">
<polygon fill="#999999" stroke="#666666" points="180.56,-188 127.81,-188 127.81,-168 180.56,-168 180.56,-188"/>
<text text-anchor="middle" x="154.18" y="-174.5" font-family="Helvetica,sans-Serif" font-size="10.00">ina219.c</text>
</a>
</g>
</g>
<!-- Node2 -->
<g id="Node000002" class="node">
<title>Node2</title>
<g id="a_Node000002"><a xlink:href="ina219_8h.html" target="_top" xlink:title=" ">
<polygon fill="white" stroke="#666666" points="180.56,-132 127.81,-132 127.81,-112 180.56,-112 180.56,-132"/>
<text text-anchor="middle" x="154.18" y="-118.5" font-family="Helvetica,sans-Serif" font-size="10.00">ina219.h</text>
</a>
</g>
</g>
<!-- Node1&#45;&gt;Node2 -->
<g id="edge1_Node000001_Node000002" class="edge">
<title>Node1&#45;&gt;Node2</title>
<g id="a_edge1_Node000001_Node000002"><a xlink:title=" ">
<path fill="none" stroke="#63b8ff" d="M154.18,-167.59C154.18,-161.01 154.18,-151.96 154.18,-143.73"/>
<polygon fill="#63b8ff" stroke="#63b8ff" points="157.68,-143.81 154.18,-133.81 150.68,-143.81 157.68,-143.81"/>
</a>
</g>
</g>
<!-- Node4 -->
<g id="Node000004" class="node">
<title>Node4</title>
<g id="a_Node000004"><a xlink:title=" ">
<polygon fill="#e0e0e0" stroke="#999999" points="78.31,-20 30.06,-20 30.06,0 78.31,0 78.31,-20"/>
<text text-anchor="middle" x="54.18" y="-6.5" font-family="Helvetica,sans-Serif" font-size="10.00">stdint.h</text>
</a>
</g>
</g>
<!-- Node1&#45;&gt;Node4 -->
<g id="edge13_Node000001_Node000004" class="edge">
<title>Node1&#45;&gt;Node4</title>
<g id="a_edge13_Node000001_Node000004"><a xlink:title=" ">
<path fill="none" stroke="#63b8ff" d="M127.44,-168.15C91.6,-154.67 29.49,-125.24 3.18,-76 -6.62,-57.64 11.08,-39.21 28.25,-26.68"/>
<polygon fill="#63b8ff" stroke="#63b8ff" points="29.99,-29.73 36.31,-21.22 26.07,-23.94 29.99,-29.73"/>
</a>
</g>
</g>
<!-- Node7 -->
<g id="Node000007" class="node">
<title>Node7</title>
<g id="a_Node000007"><a xlink:href="gpio_8h.html" target="_top" xlink:title=" ">
<polygon fill="white" stroke="#666666" points="96.68,-76 11.68,-76 11.68,-56 96.68,-56 96.68,-76"/>
<text text-anchor="middle" x="54.18" y="-62.5" font-family="Helvetica,sans-Serif" font-size="10.00">hardware/gpio.h</text>
</a>
</g>
</g>
<!-- Node1&#45;&gt;Node7 -->
<g id="edge6_Node000001_Node000007" class="edge">
<title>Node1&#45;&gt;Node7</title>
<g id="a_edge6_Node000001_Node000007"><a xlink:title=" ">
<path fill="none" stroke="#63b8ff" d="M145.66,-167.62C128.98,-149.27 91.8,-108.37 70.32,-84.75"/>
<polygon fill="#63b8ff" stroke="#63b8ff" points="73.02,-82.52 63.71,-77.47 67.84,-87.23 73.02,-82.52"/>
</a>
</g>
</g>
<!-- Node8 -->
<g id="Node000008" class="node">
<title>Node8</title>
<g id="a_Node000008"><a xlink:href="log_8h.html" target="_top" xlink:title=" ">
<polygon fill="white" stroke="#666666" points="237.68,-132 200.68,-132 200.68,-112 237.68,-112 237.68,-132"/>
<text text-anchor="middle" x="219.18" y="-118.5" font-family="Helvetica,sans-Serif" font-size="10.00">log.h</text>
</a>
</g>
</g>
<!-- Node1&#45;&gt;Node8 -->
<g id="edge8_Node000001_Node000008" class="edge">
<title>Node1&#45;&gt;Node8</title>
<g id="a_edge8_Node000001_Node000008"><a xlink:title=" ">
<path fill="none" stroke="#63b8ff" d="M165.51,-167.59C174.83,-159.85 188.26,-148.69 199.36,-139.47"/>
<polygon fill="#63b8ff" stroke="#63b8ff" points="201.37,-142.35 206.83,-133.27 196.9,-136.96 201.37,-142.35"/>
</a>
</g>
</g>
<!-- Node12 -->
<g id="Node000012" class="node">
<title>Node12</title>
<g id="a_Node000012"><a xlink:title=" ">
<polygon fill="#e0e0e0" stroke="#999999" points="292.68,-132 255.68,-132 255.68,-112 292.68,-112 292.68,-132"/>
<text text-anchor="middle" x="274.18" y="-118.5" font-family="Helvetica,sans-Serif" font-size="10.00">i2c.h</text>
</a>
</g>
</g>
<!-- Node1&#45;&gt;Node12 -->
<g id="edge14_Node000001_Node000012" class="edge">
<title>Node1&#45;&gt;Node12</title>
<g id="a_edge14_Node000001_Node000012"><a xlink:title=" ">
<path fill="none" stroke="#63b8ff" d="M175.09,-167.59C194.5,-158.86 223.59,-145.77 245.24,-136.02"/>
<polygon fill="#63b8ff" stroke="#63b8ff" points="246.43,-139.33 254.11,-132.03 243.56,-132.94 246.43,-139.33"/>
</a>
</g>
</g>
<!-- Node3 -->
<g id="Node000003" class="node">
<title>Node3</title>
<g id="a_Node000003"><a xlink:href="simulator_2pico-sdk_2hardware_2i2c_8h.html" target="_top" xlink:title=" ">
<polygon fill="white" stroke="#666666" points="194.06,-76 114.31,-76 114.31,-56 194.06,-56 194.06,-76"/>
<text text-anchor="middle" x="154.18" y="-62.5" font-family="Helvetica,sans-Serif" font-size="10.00">hardware/i2c.h</text>
</a>
</g>
</g>
<!-- Node2&#45;&gt;Node3 -->
<g id="edge2_Node000002_Node000003" class="edge">
<title>Node2&#45;&gt;Node3</title>
<g id="a_edge2_Node000002_Node000003"><a xlink:title=" ">
<path fill="none" stroke="#63b8ff" d="M154.18,-111.59C154.18,-105.01 154.18,-95.96 154.18,-87.73"/>
<polygon fill="#63b8ff" stroke="#63b8ff" points="157.68,-87.81 154.18,-77.81 150.68,-87.81 157.68,-87.81"/>
</a>
</g>
</g>
<!-- Node3&#45;&gt;Node4 -->
<g id="edge3_Node000003_Node000004" class="edge">
<title>Node3&#45;&gt;Node4</title>
<g id="a_edge3_Node000003_Node000004"><a xlink:title=" ">
<path fill="none" stroke="#63b8ff" d="M136.77,-55.59C121.52,-47.36 99.11,-35.26 81.48,-25.74"/>
<polygon fill="#63b8ff" stroke="#63b8ff" points="83.53,-22.87 73.07,-21.2 80.21,-29.03 83.53,-22.87"/>
</a>
</g>
</g>
<!-- Node5 -->
<g id="Node000005" class="node">
<title>Node5</title>
<g id="a_Node000005"><a xlink:title=" ">
<polygon fill="#e0e0e0" stroke="#999999" points="164.81,-20 113.56,-20 113.56,0 164.81,0 164.81,-20"/>
<text text-anchor="middle" x="139.18" y="-6.5" font-family="Helvetica,sans-Serif" font-size="10.00">stddef.h</text>
</a>
</g>
</g>
<!-- Node3&#45;&gt;Node5 -->
<g id="edge4_Node000003_Node000005" class="edge">
<title>Node3&#45;&gt;Node5</title>
<g id="a_edge4_Node000003_Node000005"><a xlink:title=" ">
<path fill="none" stroke="#63b8ff" d="M151.57,-55.59C149.7,-48.86 147.11,-39.53 144.78,-31.15"/>
<polygon fill="#63b8ff" stroke="#63b8ff" points="148.22,-30.46 142.17,-21.76 141.48,-32.33 148.22,-30.46"/>
</a>
</g>
</g>
<!-- Node6 -->
<g id="Node000006" class="node">
<title>Node6</title>
<g id="a_Node000006"><a xlink:title=" ">
<polygon fill="#e0e0e0" stroke="#999999" points="239.06,-20 183.31,-20 183.31,0 239.06,0 239.06,-20"/>
<text text-anchor="middle" x="211.18" y="-6.5" font-family="Helvetica,sans-Serif" font-size="10.00">stdbool.h</text>
</a>
</g>
</g>
<!-- Node3&#45;&gt;Node6 -->
<g id="edge5_Node000003_Node000006" class="edge">
<title>Node3&#45;&gt;Node6</title>
<g id="a_edge5_Node000003_Node000006"><a xlink:title=" ">
<path fill="none" stroke="#63b8ff" d="M164.11,-55.59C172.12,-48.01 183.6,-37.13 193.22,-28.02"/>
<polygon fill="#63b8ff" stroke="#63b8ff" points="195.42,-30.76 200.27,-21.34 190.6,-25.68 195.42,-30.76"/>
</a>
</g>
</g>
<!-- Node7&#45;&gt;Node4 -->
<g id="edge7_Node000007_Node000004" class="edge">
<title>Node7&#45;&gt;Node4</title>
<g id="a_edge7_Node000007_Node000004"><a xlink:title=" ">
<path fill="none" stroke="#63b8ff" d="M54.18,-55.59C54.18,-49.01 54.18,-39.96 54.18,-31.73"/>
<polygon fill="#63b8ff" stroke="#63b8ff" points="57.68,-31.81 54.18,-21.81 50.68,-31.81 57.68,-31.81"/>
</a>
</g>
</g>
<!-- Node8&#45;&gt;Node6 -->
<g id="edge12_Node000008_Node000006" class="edge">
<title>Node8&#45;&gt;Node6</title>
<g id="a_edge12_Node000008_Node000006"><a xlink:title=" ">
<path fill="none" stroke="#63b8ff" d="M218.5,-111.62C217.22,-94.01 214.43,-55.59 212.69,-31.65"/>
<polygon fill="#63b8ff" stroke="#63b8ff" points="216.19,-31.58 211.97,-21.86 209.21,-32.09 216.19,-31.58"/>
</a>
</g>
</g>
<!-- Node9 -->
<g id="Node000009" class="node">
<title>Node9</title>
<g id="a_Node000009"><a xlink:href="telemetry_8h.html" target="_top" xlink:title=" ">
<polygon fill="white" stroke="#666666" points="324.18,-76 260.18,-76 260.18,-56 324.18,-56 324.18,-76"/>
<text text-anchor="middle" x="292.18" y="-62.5" font-family="Helvetica,sans-Serif" font-size="10.00">telemetry.h</text>
</a>
</g>
</g>
<!-- Node8&#45;&gt;Node9 -->
<g id="edge9_Node000008_Node000009" class="edge">
<title>Node8&#45;&gt;Node9</title>
<g id="a_edge9_Node000008_Node000009"><a xlink:title=" ">
<path fill="none" stroke="#63b8ff" d="M231.9,-111.59C242.58,-103.7 258.06,-92.24 270.67,-82.92"/>
<polygon fill="#63b8ff" stroke="#63b8ff" points="272.44,-85.96 278.4,-77.2 268.28,-80.33 272.44,-85.96"/>
</a>
</g>
</g>
<!-- Node10 -->
<g id="Node000010" class="node">
<title>Node10</title>
<g id="a_Node000010"><a xlink:title=" ">
<polygon fill="#e0e0e0" stroke="#999999" points="327.56,-20 256.81,-20 256.81,0 327.56,0 327.56,-20"/>
<text text-anchor="middle" x="292.18" y="-6.5" font-family="Helvetica,sans-Serif" font-size="10.00">FreeRTOS.h</text>
</a>
</g>
</g>
<!-- Node9&#45;&gt;Node10 -->
<g id="edge10_Node000009_Node000010" class="edge">
<title>Node9&#45;&gt;Node10</title>
<g id="a_edge10_Node000009_Node000010"><a xlink:title=" ">
<path fill="none" stroke="#63b8ff" d="M292.18,-55.59C292.18,-49.01 292.18,-39.96 292.18,-31.73"/>
<polygon fill="#63b8ff" stroke="#63b8ff" points="295.68,-31.81 292.18,-21.81 288.68,-31.81 295.68,-31.81"/>
</a>
</g>
</g>
<!-- Node11 -->
<g id="Node000011" class="node">
<title>Node11</title>
<g id="a_Node000011"><a xlink:title=" ">
<polygon fill="#e0e0e0" stroke="#999999" points="396.43,-20 345.93,-20 345.93,0 396.43,0 396.43,-20"/>
<text text-anchor="middle" x="371.18" y="-6.5" font-family="Helvetica,sans-Serif" font-size="10.00">queue.h</text>
</a>
</g>
</g>
<!-- Node9&#45;&gt;Node11 -->
<g id="edge11_Node000009_Node000011" class="edge">
<title>Node9&#45;&gt;Node11</title>
<g id="a_edge11_Node000009_Node000011"><a xlink:title=" ">
<path fill="none" stroke="#63b8ff" d="M305.95,-55.59C317.54,-47.67 334.38,-36.16 348.05,-26.82"/>
<polygon fill="#63b8ff" stroke="#63b8ff" points="349.79,-29.87 356.07,-21.33 345.84,-24.09 349.79,-29.87"/>
</a>
</g>
</g>
</g>
</svg>
