<?xml version="1.0" encoding="UTF-8" standalone="no"?>
<!DOCTYPE svg PUBLIC "-//W3C//DTD SVG 1.1//EN"
 "http://www.w3.org/Graphics/SVG/1.1/DTD/svg11.dtd">
<!-- Generated by graphviz version 2.43.0 (0)
 -->
<!-- Title: getPower Pages: 1 -->
<svg width="390pt" height="64pt"
 viewBox="0.00 0.00 390.00 64.00" xmlns="http://www.w3.org/2000/svg" xmlns:xlink="http://www.w3.org/1999/xlink">
<g id="graph0" class="graph" transform="scale(1 1) rotate(0) translate(4 60)">
<title>getPower</title>
<!-- Node1 -->
<g id="Node000001" class="node">
<title>Node1</title>
<g id="a_Node000001"><a xlink:title="Reads from Power register [reg_p](0x03) of the device with i2c address [addr] and writes it to [outpu...">
<polygon fill="#999999" stroke="#666666" points="62,-37 0,-37 0,-18 62,-18 62,-37"/>
<text text-anchor="middle" x="31" y="-25" font-family="Helvetica,sans-Serif" font-size="10.00">getPower</text>
</a>
</g>
</g>
<!-- Node2 -->
<g id="Node000002" class="node">
<title>Node2</title>
<g id="a_Node000002"><a xlink:href="ina219_8c.html#a75d20b3960f7d7688d27f264f02eb98a" target="_top" xlink:title="Calibrates the EPS by writing to the calibration register (0x05) Currently set up for a max current o...">
<polygon fill="white" stroke="#666666" points="192,-56 133,-56 133,-37 192,-37 192,-56"/>
<text text-anchor="middle" x="162.5" y="-44" font-family="Helvetica,sans-Serif" font-size="10.00">calibrate</text>
</a>
</g>
</g>
<!-- Node1&#45;&gt;Node2 -->
<g id="edge1_Node000001_Node000002" class="edge">
<title>Node1&#45;&gt;Node2</title>
<g id="a_edge1_Node000001_Node000002"><a xlink:title=" ">
<path fill="none" stroke="#63b8ff" d="M62.04,-31.91C80.15,-34.56 103.41,-37.98 122.88,-40.83"/>
<polygon fill="#63b8ff" stroke="#63b8ff" points="122.56,-44.32 132.96,-42.31 123.57,-37.4 122.56,-44.32"/>
</a>
</g>
</g>
<!-- Node4 -->
<g id="Node000004" class="node">
<title>Node4</title>
<g id="a_Node000004"><a xlink:href="i2c_8c.html#afd489cf93d14a907e09132068de8e1c9" target="_top" xlink:title="Write [reg] byte to i2c device and then read [nbytes] from it. Read bytes are stored in [buf].">
<polygon fill="white" stroke="#666666" points="227,-19 98,-19 98,0 227,0 227,-19"/>
<text text-anchor="middle" x="162.5" y="-7" font-family="Helvetica,sans-Serif" font-size="10.00">i2c_read_from_register</text>
</a>
</g>
</g>
<!-- Node1&#45;&gt;Node4 -->
<g id="edge3_Node000001_Node000004" class="edge">
<title>Node1&#45;&gt;Node4</title>
<g id="a_edge3_Node000001_Node000004"><a xlink:title=" ">
<path fill="none" stroke="#63b8ff" d="M62.04,-23.33C69.94,-22.23 78.82,-20.99 87.94,-19.73"/>
<polygon fill="#63b8ff" stroke="#63b8ff" points="88.47,-23.19 97.89,-18.34 87.5,-16.25 88.47,-23.19"/>
</a>
</g>
</g>
<!-- Node3 -->
<g id="Node000003" class="node">
<title>Node3</title>
<g id="a_Node000003"><a xlink:href="i2c_8c.html#a73f9c3581b5d48d5db9c6c445034a970" target="_top" xlink:title="Write [reg] and [buf] to i2c device, [reg] is just inserted before [buf].">
<polygon fill="white" stroke="#666666" points="382,-56 263,-56 263,-37 382,-37 382,-56"/>
<text text-anchor="middle" x="322.5" y="-44" font-family="Helvetica,sans-Serif" font-size="10.00">i2c_write_to_register</text>
</a>
</g>
</g>
<!-- Node2&#45;&gt;Node3 -->
<g id="edge2_Node000002_Node000003" class="edge">
<title>Node2&#45;&gt;Node3</title>
<g id="a_edge2_Node000002_Node000003"><a xlink:title=" ">
<path fill="none" stroke="#63b8ff" d="M192.11,-46.5C209.16,-46.5 231.57,-46.5 252.94,-46.5"/>
<polygon fill="#63b8ff" stroke="#63b8ff" points="252.99,-50 262.99,-46.5 252.99,-43 252.99,-50"/>
</a>
</g>
</g>
</g>
</svg>
