<?xml version="1.0" encoding="UTF-8" standalone="no"?>
<!DOCTYPE svg PUBLIC "-//W3C//DTD SVG 1.1//EN"
 "http://www.w3.org/Graphics/SVG/1.1/DTD/svg11.dtd">
<!-- Generated by graphviz version 12.1.2 (20240928.0832)
 -->
<!-- Title: Graphical Class Hierarchy Pages: 1 -->
<svg width="173pt" height="66pt"
 viewBox="0.00 0.00 172.75 66.00" xmlns="http://www.w3.org/2000/svg" xmlns:xlink="http://www.w3.org/1999/xlink">
<g id="graph0" class="graph" transform="scale(1 1) rotate(0) translate(4 62)">
<title>Graphical Class Hierarchy</title>
<!-- Node0 -->
<g id="Node000000" class="node">
<title>Node0</title>
<g id="a_Node000000"><a xlink:title=" ">
<polygon fill="#e0e0e0" stroke="#999999" points="69.25,-39 0,-39 0,-19 69.25,-19 69.25,-39"/>
<text text-anchor="middle" x="34.62" y="-25.5" font-family="Helvetica,sans-Serif" font-size="10.00">RadioLibHal</text>
</a>
</g>
</g>
<!-- Node1 -->
<g id="Node000001" class="node">
<title>Node1</title>
<g id="a_Node000001"><a xlink:href="class_pi_pico_hal.html" target="_top" xlink:title=" ">
<polygon fill="white" stroke="#666666" points="164.75,-58 105.25,-58 105.25,-38 164.75,-38 164.75,-58"/>
<text text-anchor="middle" x="135" y="-44.5" font-family="Helvetica,sans-Serif" font-size="10.00">PiPicoHal</text>
</a>
</g>
</g>
<!-- Node0&#45;&gt;Node1 -->
<g id="edge1_Node000000_Node000001" class="edge">
<title>Node0&#45;&gt;Node1</title>
<g id="a_edge1_Node000000_Node000001"><a xlink:title=" ">
<path fill="none" stroke="#63b8ff" d="M80.6,-37.69C88.89,-39.29 97.34,-40.92 105,-42.4"/>
<polygon fill="#63b8ff" stroke="#63b8ff" points="81.45,-34.29 70.97,-35.83 80.12,-41.16 81.45,-34.29"/>
</a>
</g>
</g>
<!-- Node2 -->
<g id="Node000002" class="node">
<title>Node2</title>
<g id="a_Node000002"><a xlink:href="class_pico_hal.html" target="_top" xlink:title=" ">
<polygon fill="white" stroke="#666666" points="160.25,-20 109.75,-20 109.75,0 160.25,0 160.25,-20"/>
<text text-anchor="middle" x="135" y="-6.5" font-family="Helvetica,sans-Serif" font-size="10.00">PicoHal</text>
</a>
</g>
</g>
<!-- Node0&#45;&gt;Node2 -->
<g id="edge2_Node000000_Node000002" class="edge">
<title>Node0&#45;&gt;Node2</title>
<g id="a_edge2_Node000000_Node000002"><a xlink:title=" ">
<path fill="none" stroke="#63b8ff" d="M80.51,-20.33C90.45,-18.41 100.63,-16.44 109.4,-14.75"/>
<polygon fill="#63b8ff" stroke="#63b8ff" points="80.12,-16.84 70.97,-22.17 81.45,-23.71 80.12,-16.84"/>
</a>
</g>
</g>
</g>
</svg>
