<?xml version="1.0" encoding="UTF-8" standalone="no"?>
<!DOCTYPE svg PUBLIC "-//W3C//DTD SVG 1.1//EN"
 "http://www.w3.org/Graphics/SVG/1.1/DTD/svg11.dtd">
<!-- Generated by graphviz version 2.43.0 (0)
 -->
<!-- Title: log.h Pages: 1 -->
<!--zoomable 137 -->

<svg id="main" version="1.1" xmlns="http://www.w3.org/2000/svg" xmlns:xlink="http://www.w3.org/1999/xlink" xml:space="preserve" onload="init(evt)">

<style type="text/css"><![CDATA[
.node, .edge {opacity: 0.7;}
.node.selected, .edge.selected {opacity: 1;}
.edge:hover path { stroke: red; }
.edge:hover polygon { stroke: red; fill: red; }
]]></style>

<defs>
  <circle id="rim" cx="0" cy="0" r="7"/>
  <circle id="rim2" cx="0" cy="0" r="3.5"/>
  <g id="zoomPlus">
    <use xlink:href="#rim" fill="#404040"><set attributeName="fill" to="#808080" begin="zoomplus.mouseover" end="zoomplus.mouseout"/></use>
    <path d="M-4,0h8M0,-4v8" fill="none" stroke="white" stroke-width="1.5" pointer-events="none"/>
  </g>
  <g id="zoomMin">
    <use xlink:href="#rim" fill="#404040"><set attributeName="fill" to="#808080" begin="zoomminus.mouseover" end="zoomminus.mouseout"/></use>
    <path d="M-4,0h8" fill="none" stroke="white" stroke-width="1.5" pointer-events="none"/>
  </g>
  <g id="arrowUp" transform="translate(30 24)">
    <use xlink:href="#rim"/>
    <path pointer-events="none" fill="none" stroke="white" stroke-width="1.5" d="M0,-3.0v7 M-2.5,-0.5L0,-3.0L2.5,-0.5"/>
  </g>
  <g id="arrowRight" transform="rotate(90) translate(36 -43)">
    <use xlink:href="#rim"/>
    <path pointer-events="none" fill="none" stroke="white" stroke-width="1.5" d="M0,-3.0v7 M-2.5,-0.5L0,-3.0L2.5,-0.5"/>
  </g>
  <g id="arrowDown" transform="rotate(180) translate(-30 -48)">
    <use xlink:href="#rim"/>
    <path pointer-events="none" fill="none" stroke="white" stroke-width="1.5" d="M0,-3.0v7 M-2.5,-0.5L0,-3.0L2.5,-0.5"/>
  </g>
  <g id="arrowLeft" transform="rotate(270) translate(-36 17)">
    <use xlink:href="#rim"/>
    <path pointer-events="none" fill="none" stroke="white" stroke-width="1.5" d="M0,-3.0v7 M-2.5,-0.5L0,-3.0L2.5,-0.5"/>
  </g>
  <g id="resetDef">
    <use xlink:href="#rim2" fill="#404040"><set attributeName="fill" to="#808080" begin="reset.mouseover" end="reset.mouseout"/></use>
  </g>
</defs>
<script type="application/ecmascript">
var viewWidth = 2039;
var viewHeight = 137;
var sectionId = 'dynsection-1';
</script>
<script type="application/ecmascript" xlink:href="svg.min.js"/>
<svg id="graph" class="graph">
<g id="viewport">
<title>log.h</title>
<!-- Node1 -->
<g id="Node000001" class="node">
<title>Node1</title>
<g id="a_Node000001"><a xlink:title=" ">
<polygon fill="#999999" stroke="#666666" points="1009.5,-129 968.5,-129 968.5,-110 1009.5,-110 1009.5,-129"/>
<text text-anchor="middle" x="989" y="-117" font-family="Helvetica,sans-Serif" font-size="10.00">log.h</text>
</a>
</g>
</g>
<!-- Node2 -->
<g id="Node000002" class="node">
<title>Node2</title>
<g id="a_Node000002"><a xlink:href="command_8c.html" target="_top" xlink:title=" ">
<polygon fill="white" stroke="#666666" points="74,-74 0,-74 0,-55 74,-55 74,-74"/>
<text text-anchor="middle" x="37" y="-62" font-family="Helvetica,sans-Serif" font-size="10.00">command.c</text>
</a>
</g>
</g>
<!-- Node1&#45;&gt;Node2 -->
<g id="edge1_Node000001_Node000002" class="edge">
<title>Node1&#45;&gt;Node2</title>
<g id="a_edge1_Node000001_Node000002"><a xlink:title=" ">
<path fill="none" stroke="#63b8ff" d="M957.92,-118.48C842.04,-118.06 424.34,-113.74 83,-74 80.1,-73.66 77.1,-73.25 74.09,-72.79"/>
<polygon fill="#63b8ff" stroke="#63b8ff" points="958.17,-121.98 968.18,-118.5 958.19,-114.98 958.17,-121.98"/>
</a>
</g>
</g>
<!-- Node3 -->
<g id="Node000003" class="node">
<title>Node3</title>
<g id="a_Node000003"><a xlink:href="command__fuzzer_8cpp.html" target="_top" xlink:title=" ">
<polygon fill="white" stroke="#666666" points="212,-74 92,-74 92,-55 212,-55 212,-74"/>
<text text-anchor="middle" x="152" y="-62" font-family="Helvetica,sans-Serif" font-size="10.00">command_fuzzer.cpp</text>
</a>
</g>
</g>
<!-- Node1&#45;&gt;Node3 -->
<g id="edge2_Node000001_Node000003" class="edge">
<title>Node1&#45;&gt;Node3</title>
<g id="a_edge2_Node000001_Node000003"><a xlink:title=" ">
<path fill="none" stroke="#63b8ff" d="M958.42,-117.44C854.74,-113.69 507.16,-99.89 221,-74 218.12,-73.74 215.16,-73.45 212.19,-73.15"/>
<polygon fill="#63b8ff" stroke="#63b8ff" points="958.37,-120.94 968.49,-117.8 958.62,-113.94 958.37,-120.94"/>
</a>
</g>
</g>
<!-- Node4 -->
<g id="Node000004" class="node">
<title>Node4</title>
<g id="a_Node000004"><a xlink:href="ds18b20_8c.html" target="_top" xlink:title=" ">
<polygon fill="white" stroke="#666666" points="296,-74 230,-74 230,-55 296,-55 296,-74"/>
<text text-anchor="middle" x="263" y="-62" font-family="Helvetica,sans-Serif" font-size="10.00">ds18b20.c</text>
</a>
</g>
</g>
<!-- Node1&#45;&gt;Node4 -->
<g id="edge3_Node000001_Node000004" class="edge">
<title>Node1&#45;&gt;Node4</title>
<g id="a_edge3_Node000001_Node000004"><a xlink:title=" ">
<path fill="none" stroke="#63b8ff" d="M958.26,-117.97C861.65,-116.01 555.74,-107.37 305,-74 302.2,-73.63 299.3,-73.18 296.4,-72.68"/>
<polygon fill="#63b8ff" stroke="#63b8ff" points="958.41,-121.48 968.48,-118.17 958.55,-114.48 958.41,-121.48"/>
</a>
</g>
</g>
<!-- Node5 -->
<g id="Node000005" class="node">
<title>Node5</title>
<g id="a_Node000005"><a xlink:href="filesystem_8c.html" target="_top" xlink:title=" ">
<polygon fill="white" stroke="#666666" points="390,-74 314,-74 314,-55 390,-55 390,-74"/>
<text text-anchor="middle" x="352" y="-62" font-family="Helvetica,sans-Serif" font-size="10.00">filesystem.c</text>
</a>
</g>
</g>
<!-- Node1&#45;&gt;Node5 -->
<g id="edge4_Node000001_Node000005" class="edge">
<title>Node1&#45;&gt;Node5</title>
<g id="a_edge4_Node000001_Node000005"><a xlink:title=" ">
<path fill="none" stroke="#63b8ff" d="M958.22,-117.3C870.52,-113.66 611.99,-101.22 399,-74 396.12,-73.63 393.15,-73.21 390.17,-72.74"/>
<polygon fill="#63b8ff" stroke="#63b8ff" points="958.15,-120.8 968.28,-117.72 958.43,-113.81 958.15,-120.8"/>
</a>
</g>
</g>
<!-- Node6 -->
<g id="Node000006" class="node">
<title>Node6</title>
<g id="a_Node000006"><a xlink:href="gse_8c.html" target="_top" xlink:title=" ">
<polygon fill="white" stroke="#666666" points="450,-74 408,-74 408,-55 450,-55 450,-74"/>
<text text-anchor="middle" x="429" y="-62" font-family="Helvetica,sans-Serif" font-size="10.00">gse.c</text>
</a>
</g>
</g>
<!-- Node1&#45;&gt;Node6 -->
<g id="edge5_Node000001_Node000006" class="edge">
<title>Node1&#45;&gt;Node6</title>
<g id="a_edge5_Node000001_Node000006"><a xlink:title=" ">
<path fill="none" stroke="#63b8ff" d="M958.23,-117.98C876.36,-116.15 646.58,-108.12 459,-74 456.12,-73.48 453.13,-72.8 450.19,-72.05"/>
<polygon fill="#63b8ff" stroke="#63b8ff" points="958.28,-121.48 968.35,-118.19 958.43,-114.48 958.28,-121.48"/>
</a>
</g>
</g>
<!-- Node7 -->
<g id="Node000007" class="node">
<title>Node7</title>
<g id="a_Node000007"><a xlink:href="hb__tlm__log_8c.html" target="_top" xlink:title=" ">
<polygon fill="white" stroke="#666666" points="547.5,-74 468.5,-74 468.5,-55 547.5,-55 547.5,-74"/>
<text text-anchor="middle" x="508" y="-62" font-family="Helvetica,sans-Serif" font-size="10.00">hb_tlm_log.c</text>
</a>
</g>
</g>
<!-- Node1&#45;&gt;Node7 -->
<g id="edge6_Node000001_Node000007" class="edge">
<title>Node1&#45;&gt;Node7</title>
<g id="a_edge6_Node000001_Node000007"><a xlink:title=" ">
<path fill="none" stroke="#63b8ff" d="M958.14,-116.11C887.03,-110.42 706.21,-94.99 556,-74 553.23,-73.61 550.38,-73.19 547.52,-72.73"/>
<polygon fill="#63b8ff" stroke="#63b8ff" points="957.96,-119.6 968.2,-116.9 958.51,-112.62 957.96,-119.6"/>
</a>
</g>
</g>
<!-- Node8 -->
<g id="Node000008" class="node">
<title>Node8</title>
<g id="a_Node000008"><a xlink:href="i2c_8c.html" target="_top" xlink:title=" ">
<polygon fill="white" stroke="#666666" points="604.5,-74 565.5,-74 565.5,-55 604.5,-55 604.5,-74"/>
<text text-anchor="middle" x="585" y="-62" font-family="Helvetica,sans-Serif" font-size="10.00">i2c.c</text>
</a>
</g>
</g>
<!-- Node1&#45;&gt;Node8 -->
<g id="edge7_Node000001_Node000008" class="edge">
<title>Node1&#45;&gt;Node8</title>
<g id="a_edge7_Node000001_Node000008"><a xlink:title=" ">
<path fill="none" stroke="#63b8ff" d="M958.22,-116.59C893.81,-112.23 740.3,-99.81 614,-74 610.92,-73.37 607.68,-72.57 604.54,-71.71"/>
<polygon fill="#63b8ff" stroke="#63b8ff" points="958.28,-120.11 968.48,-117.27 958.74,-113.12 958.28,-120.11"/>
</a>
</g>
</g>
<!-- Node9 -->
<g id="Node000009" class="node">
<title>Node9</title>
<g id="a_Node000009"><a xlink:href="ina219_8c.html" target="_top" xlink:title=" ">
<polygon fill="white" stroke="#666666" points="681,-74 623,-74 623,-55 681,-55 681,-74"/>
<text text-anchor="middle" x="652" y="-62" font-family="Helvetica,sans-Serif" font-size="10.00">ina219.c</text>
</a>
</g>
</g>
<!-- Node1&#45;&gt;Node9 -->
<g id="edge8_Node000001_Node000009" class="edge">
<title>Node1&#45;&gt;Node9</title>
<g id="a_edge8_Node000001_Node000009"><a xlink:title=" ">
<path fill="none" stroke="#63b8ff" d="M958.24,-114.67C903.9,-107.73 787.47,-92.13 690,-74 687.08,-73.46 684.03,-72.85 681,-72.21"/>
<polygon fill="#63b8ff" stroke="#63b8ff" points="957.89,-118.15 968.25,-115.94 958.77,-111.21 957.89,-118.15"/>
</a>
</g>
</g>
<!-- Node10 -->
<g id="Node000010" class="node">
<title>Node10</title>
<g id="a_Node000010"><a xlink:href="test_2unit_2utilities_2log_8c.html" target="_top" xlink:title=" ">
<polygon fill="white" stroke="#666666" points="739,-74 699,-74 699,-55 739,-55 739,-74"/>
<text text-anchor="middle" x="719" y="-62" font-family="Helvetica,sans-Serif" font-size="10.00">log.c</text>
</a>
</g>
</g>
<!-- Node1&#45;&gt;Node10 -->
<g id="edge9_Node000001_Node000010" class="edge">
<title>Node1&#45;&gt;Node10</title>
<g id="a_edge9_Node000001_Node000010"><a xlink:title=" ">
<path fill="none" stroke="#63b8ff" d="M958.28,-113.86C912.28,-106.69 822.88,-91.84 748,-74 745.14,-73.32 742.15,-72.53 739.21,-71.71"/>
<polygon fill="#63b8ff" stroke="#63b8ff" points="957.8,-117.33 968.22,-115.4 958.87,-110.41 957.8,-117.33"/>
</a>
</g>
</g>
<!-- Node11 -->
<g id="Node000011" class="node">
<title>Node11</title>
<g id="a_Node000011"><a xlink:href="utilities_2src_2log_8c.html" target="_top" xlink:title=" ">
<polygon fill="white" stroke="#666666" points="797,-74 757,-74 757,-55 797,-55 797,-74"/>
<text text-anchor="middle" x="777" y="-62" font-family="Helvetica,sans-Serif" font-size="10.00">log.c</text>
</a>
</g>
</g>
<!-- Node1&#45;&gt;Node11 -->
<g id="edge10_Node000001_Node000011" class="edge">
<title>Node1&#45;&gt;Node11</title>
<g id="a_edge10_Node000001_Node000011"><a xlink:title=" ">
<path fill="none" stroke="#63b8ff" d="M958.35,-111.51C921.91,-103.09 859.32,-88.29 806,-74 803.16,-73.24 800.18,-72.4 797.25,-71.57"/>
<polygon fill="#63b8ff" stroke="#63b8ff" points="957.81,-114.97 968.34,-113.81 959.38,-108.15 957.81,-114.97"/>
</a>
</g>
</g>
<!-- Node12 -->
<g id="Node000012" class="node">
<title>Node12</title>
<g id="a_Node000012"><a xlink:href="log__test__unittest_8c.html" target="_top" xlink:title=" ">
<polygon fill="white" stroke="#666666" points="922.5,-74 815.5,-74 815.5,-55 922.5,-55 922.5,-74"/>
<text text-anchor="middle" x="869" y="-62" font-family="Helvetica,sans-Serif" font-size="10.00">log_test_unittest.c</text>
</a>
</g>
</g>
<!-- Node1&#45;&gt;Node12 -->
<g id="edge11_Node000001_Node000012" class="edge">
<title>Node1&#45;&gt;Node12</title>
<g id="a_edge11_Node000001_Node000012"><a xlink:title=" ">
<path fill="none" stroke="#63b8ff" d="M960.47,-105.9C938.3,-96.11 908.15,-82.79 888.63,-74.17"/>
<polygon fill="#63b8ff" stroke="#63b8ff" points="959.16,-109.15 969.72,-109.98 961.99,-102.74 959.16,-109.15"/>
</a>
</g>
</g>
<!-- Node13 -->
<g id="Node000013" class="node">
<title>Node13</title>
<g id="a_Node000013"><a xlink:href="mag__lis3mdltr_8c.html" target="_top" xlink:title=" ">
<polygon fill="white" stroke="#666666" points="962.5,-19 867.5,-19 867.5,0 962.5,0 962.5,-19"/>
<text text-anchor="middle" x="915" y="-7" font-family="Helvetica,sans-Serif" font-size="10.00">mag_lis3mdltr.c</text>
</a>
</g>
</g>
<!-- Node1&#45;&gt;Node13 -->
<g id="edge12_Node000001_Node000013" class="edge">
<title>Node1&#45;&gt;Node13</title>
<g id="a_edge12_Node000001_Node000013"><a xlink:title=" ">
<path fill="none" stroke="#63b8ff" d="M977.27,-101.38C961.25,-78.01 933.14,-36.97 920.93,-19.16"/>
<polygon fill="#63b8ff" stroke="#63b8ff" points="974.4,-103.39 982.94,-109.66 980.18,-99.43 974.4,-103.39"/>
</a>
</g>
</g>
<!-- Node14 -->
<g id="Node000014" class="node">
<title>Node14</title>
<g id="a_Node000014"><a xlink:href="mag__lis3mdltr_8h.html" target="_top" xlink:title="Magnetometer Driver (LIS3MDLTR)">
<polygon fill="white" stroke="#666666" points="1074.5,-74 979.5,-74 979.5,-55 1074.5,-55 1074.5,-74"/>
<text text-anchor="middle" x="1027" y="-62" font-family="Helvetica,sans-Serif" font-size="10.00">mag_lis3mdltr.h</text>
</a>
</g>
</g>
<!-- Node1&#45;&gt;Node14 -->
<g id="edge13_Node000001_Node000014" class="edge">
<title>Node1&#45;&gt;Node14</title>
<g id="a_edge13_Node000001_Node000014"><a xlink:title=" ">
<path fill="none" stroke="#63b8ff" d="M1001.27,-101.39C1007.81,-92.27 1015.57,-81.45 1020.84,-74.09"/>
<polygon fill="#63b8ff" stroke="#63b8ff" points="998.26,-99.58 995.27,-109.75 1003.95,-103.66 998.26,-99.58"/>
</a>
</g>
</g>
<!-- Node16 -->
<g id="Node000016" class="node">
<title>Node16</title>
<g id="a_Node000016"><a xlink:href="steve_8c.html" target="_top" xlink:title=" ">
<polygon fill="white" stroke="#666666" points="1143,-19 1091,-19 1091,0 1143,0 1143,-19"/>
<text text-anchor="middle" x="1117" y="-7" font-family="Helvetica,sans-Serif" font-size="10.00">steve.c</text>
</a>
</g>
</g>
<!-- Node1&#45;&gt;Node16 -->
<g id="edge24_Node000001_Node000016" class="edge">
<title>Node1&#45;&gt;Node16</title>
<g id="a_edge24_Node000001_Node000016"><a xlink:title=" ">
<path fill="none" stroke="#63b8ff" d="M1019.51,-109.9C1039.78,-102.93 1065.9,-91.37 1084,-74 1100.32,-58.34 1110.11,-32.85 1114.41,-19.43"/>
<polygon fill="#63b8ff" stroke="#63b8ff" points="1018.23,-106.64 1009.8,-113.05 1020.39,-113.3 1018.23,-106.64"/>
</a>
</g>
</g>
<!-- Node17 -->
<g id="Node000017" class="node">
<title>Node17</title>
<g id="a_Node000017"><a xlink:href="main_8c.html" target="_top" xlink:title=" ">
<polygon fill="white" stroke="#666666" points="1181,-74 1131,-74 1131,-55 1181,-55 1181,-74"/>
<text text-anchor="middle" x="1156" y="-62" font-family="Helvetica,sans-Serif" font-size="10.00">main.c</text>
</a>
</g>
</g>
<!-- Node1&#45;&gt;Node17 -->
<g id="edge17_Node000001_Node000017" class="edge">
<title>Node1&#45;&gt;Node17</title>
<g id="a_edge17_Node000001_Node000017"><a xlink:title=" ">
<path fill="none" stroke="#63b8ff" d="M1019.52,-108.81C1051.47,-98.68 1101.04,-82.94 1130.83,-73.49"/>
<polygon fill="#63b8ff" stroke="#63b8ff" points="1018.29,-105.53 1009.81,-111.89 1020.4,-112.21 1018.29,-105.53"/>
</a>
</g>
</g>
<!-- Node18 -->
<g id="Node000018" class="node">
<title>Node18</title>
<g id="a_Node000018"><a xlink:href="max17048_8c.html" target="_top" xlink:title=" ">
<polygon fill="white" stroke="#666666" points="1276.5,-74 1199.5,-74 1199.5,-55 1276.5,-55 1276.5,-74"/>
<text text-anchor="middle" x="1238" y="-62" font-family="Helvetica,sans-Serif" font-size="10.00">max17048.c</text>
</a>
</g>
</g>
<!-- Node1&#45;&gt;Node18 -->
<g id="edge18_Node000001_Node000018" class="edge">
<title>Node1&#45;&gt;Node18</title>
<g id="a_edge18_Node000001_Node000018"><a xlink:title=" ">
<path fill="none" stroke="#63b8ff" d="M1019.64,-111.98C1064.97,-102.33 1149.87,-84.26 1199.39,-73.72"/>
<polygon fill="#63b8ff" stroke="#63b8ff" points="1018.85,-108.57 1009.8,-114.07 1020.31,-115.41 1018.85,-108.57"/>
</a>
</g>
</g>
<!-- Node19 -->
<g id="Node000019" class="node">
<title>Node19</title>
<g id="a_Node000019"><a xlink:href="miscellaneous__jobs_8c.html" target="_top" xlink:title=" ">
<polygon fill="white" stroke="#666666" points="1415.5,-74 1294.5,-74 1294.5,-55 1415.5,-55 1415.5,-74"/>
<text text-anchor="middle" x="1355" y="-62" font-family="Helvetica,sans-Serif" font-size="10.00">miscellaneous_jobs.c</text>
</a>
</g>
</g>
<!-- Node1&#45;&gt;Node19 -->
<g id="edge19_Node000001_Node000019" class="edge">
<title>Node1&#45;&gt;Node19</title>
<g id="a_edge19_Node000001_Node000019"><a xlink:title=" ">
<path fill="none" stroke="#63b8ff" d="M1019.85,-114.03C1080.79,-105.21 1217.47,-85.42 1296.17,-74.02"/>
<polygon fill="#63b8ff" stroke="#63b8ff" points="1019.12,-110.6 1009.73,-115.5 1020.12,-117.53 1019.12,-110.6"/>
</a>
</g>
</g>
<!-- Node20 -->
<g id="Node000020" class="node">
<title>Node20</title>
<g id="a_Node000020"><a xlink:href="mram_8c.html" target="_top" xlink:title=" ">
<polygon fill="white" stroke="#666666" points="1488,-74 1434,-74 1434,-55 1488,-55 1488,-74"/>
<text text-anchor="middle" x="1461" y="-62" font-family="Helvetica,sans-Serif" font-size="10.00">mram.c</text>
</a>
</g>
</g>
<!-- Node1&#45;&gt;Node20 -->
<g id="edge20_Node000001_Node000020" class="edge">
<title>Node1&#45;&gt;Node20</title>
<g id="a_edge20_Node000001_Node000020"><a xlink:title=" ">
<path fill="none" stroke="#63b8ff" d="M1019.66,-116.75C1091.1,-112.36 1274.06,-99.41 1425,-74 1427.91,-73.51 1430.94,-72.92 1433.95,-72.29"/>
<polygon fill="#63b8ff" stroke="#63b8ff" points="1019.33,-113.26 1009.56,-117.36 1019.75,-120.25 1019.33,-113.26"/>
</a>
</g>
</g>
<!-- Node21 -->
<g id="Node000021" class="node">
<title>Node21</title>
<g id="a_Node000021"><a xlink:href="radio_8cpp.html" target="_top" xlink:title=" ">
<polygon fill="white" stroke="#666666" points="1568,-74 1506,-74 1506,-55 1568,-55 1568,-74"/>
<text text-anchor="middle" x="1537" y="-62" font-family="Helvetica,sans-Serif" font-size="10.00">radio.cpp</text>
</a>
</g>
</g>
<!-- Node1&#45;&gt;Node21 -->
<g id="edge21_Node000001_Node000021" class="edge">
<title>Node1&#45;&gt;Node21</title>
<g id="a_edge21_Node000001_Node000021"><a xlink:title=" ">
<path fill="none" stroke="#63b8ff" d="M1020.24,-117.09C1100.01,-113.21 1317.62,-100.81 1497,-74 1499.81,-73.58 1502.72,-73.08 1505.62,-72.55"/>
<polygon fill="#63b8ff" stroke="#63b8ff" points="1019.74,-113.61 1009.91,-117.58 1020.07,-120.6 1019.74,-113.61"/>
</a>
</g>
</g>
<!-- Node22 -->
<g id="Node000022" class="node">
<title>Node22</title>
<g id="a_Node000022"><a xlink:href="rtc__ds3231_8c.html" target="_top" xlink:title=" ">
<polygon fill="white" stroke="#666666" points="1664,-74 1586,-74 1586,-55 1664,-55 1664,-74"/>
<text text-anchor="middle" x="1625" y="-62" font-family="Helvetica,sans-Serif" font-size="10.00">rtc_ds3231.c</text>
</a>
</g>
</g>
<!-- Node1&#45;&gt;Node22 -->
<g id="edge22_Node000001_Node000022" class="edge">
<title>Node1&#45;&gt;Node22</title>
<g id="a_edge22_Node000001_Node000022"><a xlink:title=" ">
<path fill="none" stroke="#63b8ff" d="M1019.68,-117.26C1107.06,-113.49 1364.68,-100.77 1577,-74 1579.85,-73.64 1582.8,-73.23 1585.76,-72.78"/>
<polygon fill="#63b8ff" stroke="#63b8ff" points="1019.49,-113.76 1009.65,-117.68 1019.78,-120.76 1019.49,-113.76"/>
</a>
</g>
</g>
<!-- Node23 -->
<g id="Node000023" class="node">
<title>Node23</title>
<g id="a_Node000023"><a xlink:href="set__rtc__job_8c.html" target="_top" xlink:title=" ">
<polygon fill="white" stroke="#666666" points="1760,-74 1682,-74 1682,-55 1760,-55 1760,-74"/>
<text text-anchor="middle" x="1721" y="-62" font-family="Helvetica,sans-Serif" font-size="10.00">set_rtc_job.c</text>
</a>
</g>
</g>
<!-- Node1&#45;&gt;Node23 -->
<g id="edge23_Node000001_Node000023" class="edge">
<title>Node1&#45;&gt;Node23</title>
<g id="a_edge23_Node000001_Node000023"><a xlink:title=" ">
<path fill="none" stroke="#63b8ff" d="M1019.71,-117.71C1116.22,-114.97 1421.88,-104.31 1673,-74 1675.86,-73.66 1678.8,-73.25 1681.76,-72.81"/>
<polygon fill="#63b8ff" stroke="#63b8ff" points="1019.4,-114.22 1009.5,-117.99 1019.59,-121.21 1019.4,-114.22"/>
</a>
</g>
</g>
<!-- Node24 -->
<g id="Node000024" class="node">
<title>Node24</title>
<g id="a_Node000024"><a xlink:href="telemetry_8c.html" target="_top" xlink:title=" ">
<polygon fill="white" stroke="#666666" points="1849.5,-74 1778.5,-74 1778.5,-55 1849.5,-55 1849.5,-74"/>
<text text-anchor="middle" x="1814" y="-62" font-family="Helvetica,sans-Serif" font-size="10.00">telemetry.c</text>
</a>
</g>
</g>
<!-- Node1&#45;&gt;Node24 -->
<g id="edge25_Node000001_Node000024" class="edge">
<title>Node1&#45;&gt;Node24</title>
<g id="a_edge25_Node000001_Node000024"><a xlink:title=" ">
<path fill="none" stroke="#63b8ff" d="M1019.78,-118.18C1124.88,-116.77 1479.03,-109.51 1769,-74 1772,-73.63 1775.1,-73.19 1778.2,-72.69"/>
<polygon fill="#63b8ff" stroke="#63b8ff" points="1019.53,-114.68 1009.58,-118.3 1019.62,-121.68 1019.53,-114.68"/>
</a>
</g>
</g>
<!-- Node25 -->
<g id="Node000025" class="node">
<title>Node25</title>
<g id="a_Node000025"><a xlink:href="user__auth_8c.html" target="_top" xlink:title=" ">
<polygon fill="white" stroke="#666666" points="1940.5,-74 1867.5,-74 1867.5,-55 1940.5,-55 1940.5,-74"/>
<text text-anchor="middle" x="1904" y="-62" font-family="Helvetica,sans-Serif" font-size="10.00">user_auth.c</text>
</a>
</g>
</g>
<!-- Node1&#45;&gt;Node25 -->
<g id="edge26_Node000001_Node000025" class="edge">
<title>Node1&#45;&gt;Node25</title>
<g id="a_edge26_Node000001_Node000025"><a xlink:title=" ">
<path fill="none" stroke="#63b8ff" d="M1019.94,-118.43C1132.73,-117.86 1532.37,-113.02 1859,-74 1861.68,-73.68 1864.45,-73.29 1867.23,-72.87"/>
<polygon fill="#63b8ff" stroke="#63b8ff" points="1019.62,-114.93 1009.64,-118.47 1019.65,-121.93 1019.62,-114.93"/>
</a>
</g>
</g>
<!-- Node26 -->
<g id="Node000026" class="node">
<title>Node26</title>
<g id="a_Node000026"><a xlink:href="watchdog_8c.html" target="_top" xlink:title=" ">
<polygon fill="white" stroke="#666666" points="2031,-74 1959,-74 1959,-55 2031,-55 2031,-74"/>
<text text-anchor="middle" x="1995" y="-62" font-family="Helvetica,sans-Serif" font-size="10.00">watchdog.c</text>
</a>
</g>
</g>
<!-- Node1&#45;&gt;Node26 -->
<g id="edge27_Node000001_Node000026" class="edge">
<title>Node1&#45;&gt;Node26</title>
<g id="a_edge27_Node000001_Node000026"><a xlink:title=" ">
<path fill="none" stroke="#63b8ff" d="M1019.99,-118.64C1140.07,-118.86 1586.04,-116.59 1950,-74 1952.84,-73.67 1955.78,-73.26 1958.72,-72.81"/>
<polygon fill="#63b8ff" stroke="#63b8ff" points="1019.72,-115.14 1009.71,-118.62 1019.7,-122.14 1019.72,-115.14"/>
</a>
</g>
</g>
<!-- Node14&#45;&gt;Node13 -->
<g id="edge15_Node000014_Node000013" class="edge">
<title>Node14&#45;&gt;Node13</title>
<g id="a_edge15_Node000014_Node000013"><a xlink:title=" ">
<path fill="none" stroke="#63b8ff" d="M999.81,-50.63C979.18,-40.87 951.38,-27.71 933.32,-19.17"/>
<polygon fill="#63b8ff" stroke="#63b8ff" points="998.47,-53.87 1009.01,-54.98 1001.46,-47.54 998.47,-53.87"/>
</a>
</g>
</g>
<!-- Node15 -->
<g id="Node000015" class="node">
<title>Node15</title>
<g id="a_Node000015"><a xlink:href="heartbeat__job_8c.html" target="_top" xlink:title=" ">
<polygon fill="white" stroke="#666666" points="1073,-19 981,-19 981,0 1073,0 1073,-19"/>
<text text-anchor="middle" x="1027" y="-7" font-family="Helvetica,sans-Serif" font-size="10.00">heartbeat_job.c</text>
</a>
</g>
</g>
<!-- Node14&#45;&gt;Node15 -->
<g id="edge14_Node000014_Node000015" class="edge">
<title>Node14&#45;&gt;Node15</title>
<g id="a_edge14_Node000014_Node000015"><a xlink:title=" ">
<path fill="none" stroke="#63b8ff" d="M1027,-44.66C1027,-35.93 1027,-25.99 1027,-19.09"/>
<polygon fill="#63b8ff" stroke="#63b8ff" points="1023.5,-44.75 1027,-54.75 1030.5,-44.75 1023.5,-44.75"/>
</a>
</g>
</g>
<!-- Node14&#45;&gt;Node16 -->
<g id="edge16_Node000014_Node000016" class="edge">
<title>Node14&#45;&gt;Node16</title>
<g id="a_edge16_Node000014_Node000016"><a xlink:title=" ">
<path fill="none" stroke="#63b8ff" d="M1050.44,-49.7C1066.84,-40.04 1088.23,-27.44 1102.28,-19.17"/>
<polygon fill="#63b8ff" stroke="#63b8ff" points="1048.3,-46.89 1041.46,-54.98 1051.85,-52.93 1048.3,-46.89"/>
</a>
</g>
</g>
</g>
</svg>

<g id="navigator" transform="translate(0 0)" fill="#404254">
  <rect fill="#f2f5e9" fill-opacity="0.5" stroke="#606060" stroke-width=".5" x="0" y="0" width="60" height="60"/>
  <use id="zoomplus" xlink:href="#zoomPlus" x="17" y="9" onmousedown="handleZoom(evt,'in')"/>
  <use id="zoomminus" xlink:href="#zoomMin" x="42" y="9" onmousedown="handleZoom(evt,'out')"/>
  <use id="reset" xlink:href="#resetDef" x="30" y="36" onmousedown="handleReset()"/>
   <use id="arrowup" xlink:href="#arrowUp" x="0" y="0" onmousedown="handlePan(0,-1)"/>
  <use id="arrowright" xlink:href="#arrowRight" x="0" y="0" onmousedown="handlePan(1,0)"/>
  <use id="arrowdown" xlink:href="#arrowDown" x="0" y="0" onmousedown="handlePan(0,1)"/>
  <use id="arrowleft" xlink:href="#arrowLeft" x="0" y="0" onmousedown="handlePan(-1,0)"/>
</g>
<svg viewBox="0 0 15 15" width="100%" height="30px" preserveAspectRatio="xMaxYMin meet">
 <g id="arrow_out" transform="scale(0.3 0.3)">
  <a xlink:href="log_8h__dep__incl_org.svg" target="_base">
   <rect id="button" ry="5" rx="5" y="6" x="6" height="38" width="38"
        fill="#f2f5e9" fill-opacity="0.5" stroke="#606060" stroke-width="1.0"/>
   <path id="arrow"
     d="M 11.500037,31.436501 C 11.940474,20.09759 22.043105,11.32322 32.158766,21.979434 L 37.068811,17.246167 C 37.068811,17.246167 37.088388,32 37.088388,32 L 22.160133,31.978069 C 22.160133,31.978069 26.997745,27.140456 26.997745,27.140456 C 18.528582,18.264221 13.291696,25.230495 11.500037,31.436501 z"
     style="fill:#404040;"/>
  </a>
 </g>
</svg>

<style type='text/css'>
<![CDATA[
[data-mouse-over-selected='false'] { opacity: 0.7; }
[data-mouse-over-selected='true']  { opacity: 1.0; }
]]>
</style>
<script type="application/ecmascript"><![CDATA[
document.addEventListener('DOMContentLoaded', (event) => {
  highlightEdges();
  highlightAdjacentNodes();
});
]]></script>
</svg>
