<?xml version="1.0" encoding="UTF-8" standalone="no"?>
<!DOCTYPE svg PUBLIC "-//W3C//DTD SVG 1.1//EN"
 "http://www.w3.org/Graphics/SVG/1.1/DTD/svg11.dtd">
<!-- Generated by graphviz version 2.43.0 (0)
 -->
<!-- Title: log.h Pages: 1 -->
<!--zoomable 137 -->

<svg id="main" version="1.1" xmlns="http://www.w3.org/2000/svg" xmlns:xlink="http://www.w3.org/1999/xlink" xml:space="preserve" onload="init(evt)">

<style type="text/css"><![CDATA[
.node, .edge {opacity: 0.7;}
.node.selected, .edge.selected {opacity: 1;}
.edge:hover path { stroke: red; }
.edge:hover polygon { stroke: red; fill: red; }
]]></style>

<defs>
  <circle id="rim" cx="0" cy="0" r="7"/>
  <circle id="rim2" cx="0" cy="0" r="3.5"/>
  <g id="zoomPlus">
    <use xlink:href="#rim" fill="#404040"><set attributeName="fill" to="#808080" begin="zoomplus.mouseover" end="zoomplus.mouseout"/></use>
    <path d="M-4,0h8M0,-4v8" fill="none" stroke="white" stroke-width="1.5" pointer-events="none"/>
  </g>
  <g id="zoomMin">
    <use xlink:href="#rim" fill="#404040"><set attributeName="fill" to="#808080" begin="zoomminus.mouseover" end="zoomminus.mouseout"/></use>
    <path d="M-4,0h8" fill="none" stroke="white" stroke-width="1.5" pointer-events="none"/>
  </g>
  <g id="arrowUp" transform="translate(30 24)">
    <use xlink:href="#rim"/>
    <path pointer-events="none" fill="none" stroke="white" stroke-width="1.5" d="M0,-3.0v7 M-2.5,-0.5L0,-3.0L2.5,-0.5"/>
  </g>
  <g id="arrowRight" transform="rotate(90) translate(36 -43)">
    <use xlink:href="#rim"/>
    <path pointer-events="none" fill="none" stroke="white" stroke-width="1.5" d="M0,-3.0v7 M-2.5,-0.5L0,-3.0L2.5,-0.5"/>
  </g>
  <g id="arrowDown" transform="rotate(180) translate(-30 -48)">
    <use xlink:href="#rim"/>
    <path pointer-events="none" fill="none" stroke="white" stroke-width="1.5" d="M0,-3.0v7 M-2.5,-0.5L0,-3.0L2.5,-0.5"/>
  </g>
  <g id="arrowLeft" transform="rotate(270) translate(-36 17)">
    <use xlink:href="#rim"/>
    <path pointer-events="none" fill="none" stroke="white" stroke-width="1.5" d="M0,-3.0v7 M-2.5,-0.5L0,-3.0L2.5,-0.5"/>
  </g>
  <g id="resetDef">
    <use xlink:href="#rim2" fill="#404040"><set attributeName="fill" to="#808080" begin="reset.mouseover" end="reset.mouseout"/></use>
  </g>
</defs>
<script type="application/ecmascript">
var viewWidth = 2456;
var viewHeight = 137;
var sectionId = 'dynsection-1';
</script>
<script type="application/ecmascript" xlink:href="svg.min.js"/>
<svg id="graph" class="graph">
<g id="viewport">
<title>log.h</title>
<!-- Node1 -->
<g id="Node000001" class="node">
<title>Node1</title>
<g id="a_Node000001"><a xlink:title=" ">
<polygon fill="#999999" stroke="#666666" points="1263,-129 1222,-129 1222,-110 1263,-110 1263,-129"/>
<text text-anchor="middle" x="1242.5" y="-117" font-family="Helvetica,sans-Serif" font-size="10.00">log.h</text>
</a>
</g>
</g>
<!-- Node2 -->
<g id="Node000002" class="node">
<title>Node2</title>
<g id="a_Node000002"><a xlink:href="antenna__deploy__job_8c.html" target="_top" xlink:title=" ">
<polygon fill="white" stroke="#666666" points="123,-74 0,-74 0,-55 123,-55 123,-74"/>
<text text-anchor="middle" x="61.5" y="-62" font-family="Helvetica,sans-Serif" font-size="10.00">antenna_deploy_job.c</text>
</a>
</g>
</g>
<!-- Node1&#45;&gt;Node2 -->
<g id="edge1_Node000001_Node000002" class="edge">
<title>Node1&#45;&gt;Node2</title>
<g id="a_edge1_Node000001_Node000002"><a xlink:title=" ">
<path fill="none" stroke="#63b8ff" d="M1211.56,-118.16C1080.65,-116.51 559.32,-108.05 132.5,-74 129.41,-73.75 126.24,-73.47 123.04,-73.17"/>
<polygon fill="#63b8ff" stroke="#63b8ff" points="1211.63,-121.66 1221.67,-118.28 1211.71,-114.66 1211.63,-121.66"/>
</a>
</g>
</g>
<!-- Node3 -->
<g id="Node000003" class="node">
<title>Node3</title>
<g id="a_Node000003"><a xlink:href="command_8c.html" target="_top" xlink:title=" ">
<polygon fill="white" stroke="#666666" points="215.5,-74 141.5,-74 141.5,-55 215.5,-55 215.5,-74"/>
<text text-anchor="middle" x="178.5" y="-62" font-family="Helvetica,sans-Serif" font-size="10.00">command.c</text>
</a>
</g>
</g>
<!-- Node1&#45;&gt;Node3 -->
<g id="edge2_Node000001_Node000003" class="edge">
<title>Node1&#45;&gt;Node3</title>
<g id="a_edge2_Node000001_Node000003"><a xlink:title=" ">
<path fill="none" stroke="#63b8ff" d="M1211.72,-118.71C1087.63,-119.24 612.24,-118.08 224.5,-74 221.6,-73.67 218.6,-73.26 215.59,-72.81"/>
<polygon fill="#63b8ff" stroke="#63b8ff" points="1212,-122.21 1221.98,-118.66 1211.96,-115.21 1212,-122.21"/>
</a>
</g>
</g>
<!-- Node4 -->
<g id="Node000004" class="node">
<title>Node4</title>
<g id="a_Node000004"><a xlink:href="command__fuzzer_8cpp.html" target="_top" xlink:title=" ">
<polygon fill="white" stroke="#666666" points="355,-74 234,-74 234,-55 355,-55 355,-74"/>
<text text-anchor="middle" x="294.5" y="-62" font-family="Helvetica,sans-Serif" font-size="10.00">command_fuzzer.cpp</text>
</a>
</g>
</g>
<!-- Node1&#45;&gt;Node4 -->
<g id="edge3_Node000001_Node000004" class="edge">
<title>Node1&#45;&gt;Node4</title>
<g id="a_edge3_Node000001_Node000004"><a xlink:title=" ">
<path fill="none" stroke="#63b8ff" d="M1211.69,-117.72C1098.59,-114.7 695.59,-102.46 364.5,-74 361.45,-73.74 358.33,-73.45 355.18,-73.13"/>
<polygon fill="#63b8ff" stroke="#63b8ff" points="1211.63,-121.22 1221.72,-117.99 1211.82,-114.22 1211.63,-121.22"/>
</a>
</g>
</g>
<!-- Node5 -->
<g id="Node000005" class="node">
<title>Node5</title>
<g id="a_Node000005"><a xlink:href="ds18b20_8c.html" target="_top" xlink:title=" ">
<polygon fill="white" stroke="#666666" points="439.5,-74 373.5,-74 373.5,-55 439.5,-55 439.5,-74"/>
<text text-anchor="middle" x="406.5" y="-62" font-family="Helvetica,sans-Serif" font-size="10.00">ds18b20.c</text>
</a>
</g>
</g>
<!-- Node1&#45;&gt;Node5 -->
<g id="edge4_Node000001_Node000005" class="edge">
<title>Node1&#45;&gt;Node5</title>
<g id="a_edge4_Node000001_Node000005"><a xlink:title=" ">
<path fill="none" stroke="#63b8ff" d="M1211.83,-118.36C1105.65,-117.55 744.06,-111.99 448.5,-74 445.7,-73.64 442.8,-73.2 439.9,-72.71"/>
<polygon fill="#63b8ff" stroke="#63b8ff" points="1211.83,-121.86 1221.85,-118.43 1211.87,-114.86 1211.83,-121.86"/>
</a>
</g>
</g>
<!-- Node6 -->
<g id="Node000006" class="node">
<title>Node6</title>
<g id="a_Node000006"><a xlink:href="file__downlink_8c.html" target="_top" xlink:title=" ">
<polygon fill="white" stroke="#666666" points="547.5,-74 457.5,-74 457.5,-55 547.5,-55 547.5,-74"/>
<text text-anchor="middle" x="502.5" y="-62" font-family="Helvetica,sans-Serif" font-size="10.00">file_downlink.c</text>
</a>
</g>
</g>
<!-- Node1&#45;&gt;Node6 -->
<g id="edge5_Node000001_Node000006" class="edge">
<title>Node1&#45;&gt;Node6</title>
<g id="a_edge5_Node000001_Node000006"><a xlink:title=" ">
<path fill="none" stroke="#63b8ff" d="M1211.72,-117.51C1115.01,-114.17 808.64,-101.96 556.5,-74 553.58,-73.68 550.57,-73.31 547.54,-72.9"/>
<polygon fill="#63b8ff" stroke="#63b8ff" points="1211.84,-121.01 1221.96,-117.85 1212.08,-114.02 1211.84,-121.01"/>
</a>
</g>
</g>
<!-- Node7 -->
<g id="Node000007" class="node">
<title>Node7</title>
<g id="a_Node000007"><a xlink:href="filesystem_8c.html" target="_top" xlink:title=" ">
<polygon fill="white" stroke="#666666" points="643,-74 566,-74 566,-55 643,-55 643,-74"/>
<text text-anchor="middle" x="604.5" y="-62" font-family="Helvetica,sans-Serif" font-size="10.00">filesystem.c</text>
</a>
</g>
</g>
<!-- Node1&#45;&gt;Node7 -->
<g id="edge6_Node000001_Node000007" class="edge">
<title>Node1&#45;&gt;Node7</title>
<g id="a_edge6_Node000001_Node000007"><a xlink:title=" ">
<path fill="none" stroke="#63b8ff" d="M1211.72,-117.27C1124.04,-113.51 865.54,-100.83 652.5,-74 649.48,-73.62 646.36,-73.18 643.22,-72.7"/>
<polygon fill="#63b8ff" stroke="#63b8ff" points="1211.65,-120.77 1221.78,-117.69 1211.94,-113.77 1211.65,-120.77"/>
</a>
</g>
</g>
<!-- Node8 -->
<g id="Node000008" class="node">
<title>Node8</title>
<g id="a_Node000008"><a xlink:href="gse_8c.html" target="_top" xlink:title=" ">
<polygon fill="white" stroke="#666666" points="703.5,-74 661.5,-74 661.5,-55 703.5,-55 703.5,-74"/>
<text text-anchor="middle" x="682.5" y="-62" font-family="Helvetica,sans-Serif" font-size="10.00">gse.c</text>
</a>
</g>
</g>
<!-- Node1&#45;&gt;Node8 -->
<g id="edge7_Node000001_Node000008" class="edge">
<title>Node1&#45;&gt;Node8</title>
<g id="a_edge7_Node000001_Node000008"><a xlink:title=" ">
<path fill="none" stroke="#63b8ff" d="M1211.73,-117.98C1129.86,-116.15 900.08,-108.12 712.5,-74 709.62,-73.48 706.63,-72.8 703.69,-72.05"/>
<polygon fill="#63b8ff" stroke="#63b8ff" points="1211.78,-121.48 1221.85,-118.19 1211.93,-114.48 1211.78,-121.48"/>
</a>
</g>
</g>
<!-- Node9 -->
<g id="Node000009" class="node">
<title>Node9</title>
<g id="a_Node000009"><a xlink:href="hb__tlm__log_8c.html" target="_top" xlink:title=" ">
<polygon fill="white" stroke="#666666" points="801,-74 722,-74 722,-55 801,-55 801,-74"/>
<text text-anchor="middle" x="761.5" y="-62" font-family="Helvetica,sans-Serif" font-size="10.00">hb_tlm_log.c</text>
</a>
</g>
</g>
<!-- Node1&#45;&gt;Node9 -->
<g id="edge8_Node000001_Node000009" class="edge">
<title>Node1&#45;&gt;Node9</title>
<g id="a_edge8_Node000001_Node000009"><a xlink:title=" ">
<path fill="none" stroke="#63b8ff" d="M1211.64,-116.11C1140.53,-110.42 959.71,-94.99 809.5,-74 806.73,-73.61 803.88,-73.19 801.02,-72.73"/>
<polygon fill="#63b8ff" stroke="#63b8ff" points="1211.46,-119.6 1221.7,-116.9 1212.01,-112.62 1211.46,-119.6"/>
</a>
</g>
</g>
<!-- Node10 -->
<g id="Node000010" class="node">
<title>Node10</title>
<g id="a_Node000010"><a xlink:href="i2c_8c.html" target="_top" xlink:title=" ">
<polygon fill="white" stroke="#666666" points="858,-74 819,-74 819,-55 858,-55 858,-74"/>
<text text-anchor="middle" x="838.5" y="-62" font-family="Helvetica,sans-Serif" font-size="10.00">i2c.c</text>
</a>
</g>
</g>
<!-- Node1&#45;&gt;Node10 -->
<g id="edge9_Node000001_Node000010" class="edge">
<title>Node1&#45;&gt;Node10</title>
<g id="a_edge9_Node000001_Node000010"><a xlink:title=" ">
<path fill="none" stroke="#63b8ff" d="M1211.72,-116.59C1147.31,-112.23 993.8,-99.81 867.5,-74 864.42,-73.37 861.18,-72.57 858.04,-71.71"/>
<polygon fill="#63b8ff" stroke="#63b8ff" points="1211.78,-120.11 1221.98,-117.27 1212.24,-113.12 1211.78,-120.11"/>
</a>
</g>
</g>
<!-- Node11 -->
<g id="Node000011" class="node">
<title>Node11</title>
<g id="a_Node000011"><a xlink:href="ina219_8c.html" target="_top" xlink:title=" ">
<polygon fill="white" stroke="#666666" points="934.5,-74 876.5,-74 876.5,-55 934.5,-55 934.5,-74"/>
<text text-anchor="middle" x="905.5" y="-62" font-family="Helvetica,sans-Serif" font-size="10.00">ina219.c</text>
</a>
</g>
</g>
<!-- Node1&#45;&gt;Node11 -->
<g id="edge10_Node000001_Node000011" class="edge">
<title>Node1&#45;&gt;Node11</title>
<g id="a_edge10_Node000001_Node000011"><a xlink:title=" ">
<path fill="none" stroke="#63b8ff" d="M1211.74,-114.67C1157.4,-107.73 1040.97,-92.13 943.5,-74 940.58,-73.46 937.53,-72.85 934.5,-72.21"/>
<polygon fill="#63b8ff" stroke="#63b8ff" points="1211.39,-118.15 1221.75,-115.94 1212.27,-111.21 1211.39,-118.15"/>
</a>
</g>
</g>
<!-- Node12 -->
<g id="Node000012" class="node">
<title>Node12</title>
<g id="a_Node000012"><a xlink:href="test_2unit_2utilities_2log_8c.html" target="_top" xlink:title=" ">
<polygon fill="white" stroke="#666666" points="992.5,-74 952.5,-74 952.5,-55 992.5,-55 992.5,-74"/>
<text text-anchor="middle" x="972.5" y="-62" font-family="Helvetica,sans-Serif" font-size="10.00">log.c</text>
</a>
</g>
</g>
<!-- Node1&#45;&gt;Node12 -->
<g id="edge11_Node000001_Node000012" class="edge">
<title>Node1&#45;&gt;Node12</title>
<g id="a_edge11_Node000001_Node000012"><a xlink:title=" ">
<path fill="none" stroke="#63b8ff" d="M1211.78,-113.86C1165.78,-106.69 1076.38,-91.84 1001.5,-74 998.64,-73.32 995.65,-72.53 992.71,-71.71"/>
<polygon fill="#63b8ff" stroke="#63b8ff" points="1211.3,-117.33 1221.72,-115.4 1212.37,-110.41 1211.3,-117.33"/>
</a>
</g>
</g>
<!-- Node13 -->
<g id="Node000013" class="node">
<title>Node13</title>
<g id="a_Node000013"><a xlink:href="utilities_2src_2log_8c.html" target="_top" xlink:title=" ">
<polygon fill="white" stroke="#666666" points="1050.5,-74 1010.5,-74 1010.5,-55 1050.5,-55 1050.5,-74"/>
<text text-anchor="middle" x="1030.5" y="-62" font-family="Helvetica,sans-Serif" font-size="10.00">log.c</text>
</a>
</g>
</g>
<!-- Node1&#45;&gt;Node13 -->
<g id="edge12_Node000001_Node000013" class="edge">
<title>Node1&#45;&gt;Node13</title>
<g id="a_edge12_Node000001_Node000013"><a xlink:title=" ">
<path fill="none" stroke="#63b8ff" d="M1211.85,-111.51C1175.41,-103.09 1112.82,-88.29 1059.5,-74 1056.66,-73.24 1053.68,-72.4 1050.75,-71.57"/>
<polygon fill="#63b8ff" stroke="#63b8ff" points="1211.31,-114.97 1221.84,-113.81 1212.88,-108.15 1211.31,-114.97"/>
</a>
</g>
</g>
<!-- Node14 -->
<g id="Node000014" class="node">
<title>Node14</title>
<g id="a_Node000014"><a xlink:href="log__test__unittest_8c.html" target="_top" xlink:title=" ">
<polygon fill="white" stroke="#666666" points="1176,-74 1069,-74 1069,-55 1176,-55 1176,-74"/>
<text text-anchor="middle" x="1122.5" y="-62" font-family="Helvetica,sans-Serif" font-size="10.00">log_test_unittest.c</text>
</a>
</g>
</g>
<!-- Node1&#45;&gt;Node14 -->
<g id="edge13_Node000001_Node000014" class="edge">
<title>Node1&#45;&gt;Node14</title>
<g id="a_edge13_Node000001_Node000014"><a xlink:title=" ">
<path fill="none" stroke="#63b8ff" d="M1213.97,-105.9C1191.8,-96.11 1161.65,-82.79 1142.13,-74.17"/>
<polygon fill="#63b8ff" stroke="#63b8ff" points="1212.66,-109.15 1223.22,-109.98 1215.49,-102.74 1212.66,-109.15"/>
</a>
</g>
</g>
<!-- Node15 -->
<g id="Node000015" class="node">
<title>Node15</title>
<g id="a_Node000015"><a xlink:href="mag__lis3mdltr_8c.html" target="_top" xlink:title=" ">
<polygon fill="white" stroke="#666666" points="1216,-19 1121,-19 1121,0 1216,0 1216,-19"/>
<text text-anchor="middle" x="1168.5" y="-7" font-family="Helvetica,sans-Serif" font-size="10.00">mag_lis3mdltr.c</text>
</a>
</g>
</g>
<!-- Node1&#45;&gt;Node15 -->
<g id="edge14_Node000001_Node000015" class="edge">
<title>Node1&#45;&gt;Node15</title>
<g id="a_edge14_Node000001_Node000015"><a xlink:title=" ">
<path fill="none" stroke="#63b8ff" d="M1230.77,-101.38C1214.75,-78.01 1186.64,-36.97 1174.43,-19.16"/>
<polygon fill="#63b8ff" stroke="#63b8ff" points="1227.9,-103.39 1236.44,-109.66 1233.68,-99.43 1227.9,-103.39"/>
</a>
</g>
</g>
<!-- Node16 -->
<g id="Node000016" class="node">
<title>Node16</title>
<g id="a_Node000016"><a xlink:href="mag__lis3mdltr_8h.html" target="_top" xlink:title="Magnetometer Driver (LIS3MDLTR).">
<polygon fill="white" stroke="#666666" points="1328.5,-74 1232.5,-74 1232.5,-55 1328.5,-55 1328.5,-74"/>
<text text-anchor="middle" x="1280.5" y="-62" font-family="Helvetica,sans-Serif" font-size="10.00">mag_lis3mdltr.h</text>
</a>
</g>
</g>
<!-- Node1&#45;&gt;Node16 -->
<g id="edge15_Node000001_Node000016" class="edge">
<title>Node1&#45;&gt;Node16</title>
<g id="a_edge15_Node000001_Node000016"><a xlink:title=" ">
<path fill="none" stroke="#63b8ff" d="M1254.77,-101.39C1261.31,-92.27 1269.07,-81.45 1274.34,-74.09"/>
<polygon fill="#63b8ff" stroke="#63b8ff" points="1251.76,-99.58 1248.77,-109.75 1257.45,-103.66 1251.76,-99.58"/>
</a>
</g>
</g>
<!-- Node18 -->
<g id="Node000018" class="node">
<title>Node18</title>
<g id="a_Node000018"><a xlink:href="steve_8c.html" target="_top" xlink:title=" ">
<polygon fill="white" stroke="#666666" points="1396.5,-19 1344.5,-19 1344.5,0 1396.5,0 1396.5,-19"/>
<text text-anchor="middle" x="1370.5" y="-7" font-family="Helvetica,sans-Serif" font-size="10.00">steve.c</text>
</a>
</g>
</g>
<!-- Node1&#45;&gt;Node18 -->
<g id="edge26_Node000001_Node000018" class="edge">
<title>Node1&#45;&gt;Node18</title>
<g id="a_edge26_Node000001_Node000018"><a xlink:title=" ">
<path fill="none" stroke="#63b8ff" d="M1273.01,-109.9C1293.28,-102.93 1319.4,-91.37 1337.5,-74 1353.82,-58.34 1363.61,-32.85 1367.91,-19.43"/>
<polygon fill="#63b8ff" stroke="#63b8ff" points="1271.73,-106.64 1263.3,-113.05 1273.89,-113.3 1271.73,-106.64"/>
</a>
</g>
</g>
<!-- Node19 -->
<g id="Node000019" class="node">
<title>Node19</title>
<g id="a_Node000019"><a xlink:href="main_8c.html" target="_top" xlink:title=" ">
<polygon fill="white" stroke="#666666" points="1434.5,-74 1384.5,-74 1384.5,-55 1434.5,-55 1434.5,-74"/>
<text text-anchor="middle" x="1409.5" y="-62" font-family="Helvetica,sans-Serif" font-size="10.00">main.c</text>
</a>
</g>
</g>
<!-- Node1&#45;&gt;Node19 -->
<g id="edge19_Node000001_Node000019" class="edge">
<title>Node1&#45;&gt;Node19</title>
<g id="a_edge19_Node000001_Node000019"><a xlink:title=" ">
<path fill="none" stroke="#63b8ff" d="M1273.02,-108.81C1304.97,-98.68 1354.54,-82.94 1384.33,-73.49"/>
<polygon fill="#63b8ff" stroke="#63b8ff" points="1271.79,-105.53 1263.31,-111.89 1273.9,-112.21 1271.79,-105.53"/>
</a>
</g>
</g>
<!-- Node20 -->
<g id="Node000020" class="node">
<title>Node20</title>
<g id="a_Node000020"><a xlink:href="max17048_8c.html" target="_top" xlink:title=" ">
<polygon fill="white" stroke="#666666" points="1530,-74 1453,-74 1453,-55 1530,-55 1530,-74"/>
<text text-anchor="middle" x="1491.5" y="-62" font-family="Helvetica,sans-Serif" font-size="10.00">max17048.c</text>
</a>
</g>
</g>
<!-- Node1&#45;&gt;Node20 -->
<g id="edge20_Node000001_Node000020" class="edge">
<title>Node1&#45;&gt;Node20</title>
<g id="a_edge20_Node000001_Node000020"><a xlink:title=" ">
<path fill="none" stroke="#63b8ff" d="M1273.14,-111.98C1318.47,-102.33 1403.37,-84.26 1452.89,-73.72"/>
<polygon fill="#63b8ff" stroke="#63b8ff" points="1272.35,-108.57 1263.3,-114.07 1273.81,-115.41 1272.35,-108.57"/>
</a>
</g>
</g>
<!-- Node21 -->
<g id="Node000021" class="node">
<title>Node21</title>
<g id="a_Node000021"><a xlink:href="miscellaneous__jobs_8c.html" target="_top" xlink:title=" ">
<polygon fill="white" stroke="#666666" points="1669,-74 1548,-74 1548,-55 1669,-55 1669,-74"/>
<text text-anchor="middle" x="1608.5" y="-62" font-family="Helvetica,sans-Serif" font-size="10.00">miscellaneous_jobs.c</text>
</a>
</g>
</g>
<!-- Node1&#45;&gt;Node21 -->
<g id="edge21_Node000001_Node000021" class="edge">
<title>Node1&#45;&gt;Node21</title>
<g id="a_edge21_Node000001_Node000021"><a xlink:title=" ">
<path fill="none" stroke="#63b8ff" d="M1273.35,-114.03C1334.29,-105.21 1470.97,-85.42 1549.67,-74.02"/>
<polygon fill="#63b8ff" stroke="#63b8ff" points="1272.62,-110.6 1263.23,-115.5 1273.62,-117.53 1272.62,-110.6"/>
</a>
</g>
</g>
<!-- Node22 -->
<g id="Node000022" class="node">
<title>Node22</title>
<g id="a_Node000022"><a xlink:href="mram_8c.html" target="_top" xlink:title=" ">
<polygon fill="white" stroke="#666666" points="1741.5,-74 1687.5,-74 1687.5,-55 1741.5,-55 1741.5,-74"/>
<text text-anchor="middle" x="1714.5" y="-62" font-family="Helvetica,sans-Serif" font-size="10.00">mram.c</text>
</a>
</g>
</g>
<!-- Node1&#45;&gt;Node22 -->
<g id="edge22_Node000001_Node000022" class="edge">
<title>Node1&#45;&gt;Node22</title>
<g id="a_edge22_Node000001_Node000022"><a xlink:title=" ">
<path fill="none" stroke="#63b8ff" d="M1273.16,-116.75C1344.6,-112.36 1527.56,-99.41 1678.5,-74 1681.41,-73.51 1684.44,-72.92 1687.45,-72.29"/>
<polygon fill="#63b8ff" stroke="#63b8ff" points="1272.83,-113.26 1263.06,-117.36 1273.25,-120.25 1272.83,-113.26"/>
</a>
</g>
</g>
<!-- Node23 -->
<g id="Node000023" class="node">
<title>Node23</title>
<g id="a_Node000023"><a xlink:href="radio_8cpp.html" target="_top" xlink:title="Radio operations and the task handling them.">
<polygon fill="white" stroke="#666666" points="1821.5,-74 1759.5,-74 1759.5,-55 1821.5,-55 1821.5,-74"/>
<text text-anchor="middle" x="1790.5" y="-62" font-family="Helvetica,sans-Serif" font-size="10.00">radio.cpp</text>
</a>
</g>
</g>
<!-- Node1&#45;&gt;Node23 -->
<g id="edge23_Node000001_Node000023" class="edge">
<title>Node1&#45;&gt;Node23</title>
<g id="a_edge23_Node000001_Node000023"><a xlink:title=" ">
<path fill="none" stroke="#63b8ff" d="M1273.74,-117.09C1353.51,-113.21 1571.12,-100.81 1750.5,-74 1753.31,-73.58 1756.22,-73.08 1759.12,-72.55"/>
<polygon fill="#63b8ff" stroke="#63b8ff" points="1273.24,-113.61 1263.41,-117.58 1273.57,-120.6 1273.24,-113.61"/>
</a>
</g>
</g>
<!-- Node24 -->
<g id="Node000024" class="node">
<title>Node24</title>
<g id="a_Node000024"><a xlink:href="rtc__ds3231_8c.html" target="_top" xlink:title=" ">
<polygon fill="white" stroke="#666666" points="1917.5,-74 1839.5,-74 1839.5,-55 1917.5,-55 1917.5,-74"/>
<text text-anchor="middle" x="1878.5" y="-62" font-family="Helvetica,sans-Serif" font-size="10.00">rtc_ds3231.c</text>
</a>
</g>
</g>
<!-- Node1&#45;&gt;Node24 -->
<g id="edge24_Node000001_Node000024" class="edge">
<title>Node1&#45;&gt;Node24</title>
<g id="a_edge24_Node000001_Node000024"><a xlink:title=" ">
<path fill="none" stroke="#63b8ff" d="M1273.18,-117.26C1360.56,-113.49 1618.18,-100.77 1830.5,-74 1833.35,-73.64 1836.3,-73.23 1839.26,-72.78"/>
<polygon fill="#63b8ff" stroke="#63b8ff" points="1272.99,-113.76 1263.15,-117.68 1273.28,-120.76 1272.99,-113.76"/>
</a>
</g>
</g>
<!-- Node25 -->
<g id="Node000025" class="node">
<title>Node25</title>
<g id="a_Node000025"><a xlink:href="set__rtc__job_8c.html" target="_top" xlink:title=" ">
<polygon fill="white" stroke="#666666" points="2013.5,-74 1935.5,-74 1935.5,-55 2013.5,-55 2013.5,-74"/>
<text text-anchor="middle" x="1974.5" y="-62" font-family="Helvetica,sans-Serif" font-size="10.00">set_rtc_job.c</text>
</a>
</g>
</g>
<!-- Node1&#45;&gt;Node25 -->
<g id="edge25_Node000001_Node000025" class="edge">
<title>Node1&#45;&gt;Node25</title>
<g id="a_edge25_Node000001_Node000025"><a xlink:title=" ">
<path fill="none" stroke="#63b8ff" d="M1273.21,-117.71C1369.72,-114.97 1675.38,-104.31 1926.5,-74 1929.36,-73.66 1932.3,-73.25 1935.26,-72.81"/>
<polygon fill="#63b8ff" stroke="#63b8ff" points="1272.9,-114.22 1263,-117.99 1273.09,-121.21 1272.9,-114.22"/>
</a>
</g>
</g>
<!-- Node26 -->
<g id="Node000026" class="node">
<title>Node26</title>
<g id="a_Node000026"><a xlink:href="telemetry_8c.html" target="_top" xlink:title=" ">
<polygon fill="white" stroke="#666666" points="2103,-74 2032,-74 2032,-55 2103,-55 2103,-74"/>
<text text-anchor="middle" x="2067.5" y="-62" font-family="Helvetica,sans-Serif" font-size="10.00">telemetry.c</text>
</a>
</g>
</g>
<!-- Node1&#45;&gt;Node26 -->
<g id="edge27_Node000001_Node000026" class="edge">
<title>Node1&#45;&gt;Node26</title>
<g id="a_edge27_Node000001_Node000026"><a xlink:title=" ">
<path fill="none" stroke="#63b8ff" d="M1273.28,-118.18C1378.38,-116.77 1732.53,-109.51 2022.5,-74 2025.5,-73.63 2028.6,-73.19 2031.7,-72.69"/>
<polygon fill="#63b8ff" stroke="#63b8ff" points="1273.03,-114.68 1263.08,-118.3 1273.12,-121.68 1273.03,-114.68"/>
</a>
</g>
</g>
<!-- Node27 -->
<g id="Node000027" class="node">
<title>Node27</title>
<g id="a_Node000027"><a xlink:href="timing_8c.html" target="_top" xlink:title=" ">
<polygon fill="white" stroke="#666666" points="2177.5,-74 2121.5,-74 2121.5,-55 2177.5,-55 2177.5,-74"/>
<text text-anchor="middle" x="2149.5" y="-62" font-family="Helvetica,sans-Serif" font-size="10.00">timing.c</text>
</a>
</g>
</g>
<!-- Node1&#45;&gt;Node27 -->
<g id="edge28_Node000001_Node000027" class="edge">
<title>Node1&#45;&gt;Node27</title>
<g id="a_edge28_Node000001_Node000027"><a xlink:title=" ">
<path fill="none" stroke="#63b8ff" d="M1273.5,-118.86C1386.48,-119.78 1786.69,-119.4 2112.5,-74 2115.37,-73.6 2118.35,-73.09 2121.31,-72.51"/>
<polygon fill="#63b8ff" stroke="#63b8ff" points="1273.21,-115.36 1263.18,-118.77 1273.14,-122.36 1273.21,-115.36"/>
</a>
</g>
</g>
<!-- Node28 -->
<g id="Node000028" class="node">
<title>Node28</title>
<g id="a_Node000028"><a xlink:href="user__auth_8c.html" target="_top" xlink:title=" ">
<polygon fill="white" stroke="#666666" points="2269,-74 2196,-74 2196,-55 2269,-55 2269,-74"/>
<text text-anchor="middle" x="2232.5" y="-62" font-family="Helvetica,sans-Serif" font-size="10.00">user_auth.c</text>
</a>
</g>
</g>
<!-- Node1&#45;&gt;Node28 -->
<g id="edge29_Node000001_Node000028" class="edge">
<title>Node1&#45;&gt;Node28</title>
<g id="a_edge29_Node000001_Node000028"><a xlink:title=" ">
<path fill="none" stroke="#63b8ff" d="M1273.33,-118.56C1391.84,-118.48 1829.3,-115.23 2186.5,-74 2189.57,-73.65 2192.73,-73.21 2195.91,-72.72"/>
<polygon fill="#63b8ff" stroke="#63b8ff" points="1273.18,-115.06 1263.18,-118.56 1273.18,-122.06 1273.18,-115.06"/>
</a>
</g>
</g>
<!-- Node29 -->
<g id="Node000029" class="node">
<title>Node29</title>
<g id="a_Node000029"><a xlink:href="vega__ant_8c.html" target="_top" xlink:title=" ">
<polygon fill="white" stroke="#666666" points="2357.5,-74 2287.5,-74 2287.5,-55 2357.5,-55 2357.5,-74"/>
<text text-anchor="middle" x="2322.5" y="-62" font-family="Helvetica,sans-Serif" font-size="10.00">vega_ant.c</text>
</a>
</g>
</g>
<!-- Node1&#45;&gt;Node29 -->
<g id="edge30_Node000001_Node000029" class="edge">
<title>Node1&#45;&gt;Node29</title>
<g id="a_edge30_Node000001_Node000029"><a xlink:title=" ">
<path fill="none" stroke="#63b8ff" d="M1273.04,-118.83C1398.12,-119.85 1883.25,-120.41 2278.5,-74 2281.28,-73.67 2284.15,-73.27 2287.03,-72.82"/>
<polygon fill="#63b8ff" stroke="#63b8ff" points="1273.07,-115.33 1263.04,-118.74 1273.01,-122.33 1273.07,-115.33"/>
</a>
</g>
</g>
<!-- Node30 -->
<g id="Node000030" class="node">
<title>Node30</title>
<g id="a_Node000030"><a xlink:href="watchdog_8c.html" target="_top" xlink:title=" ">
<polygon fill="white" stroke="#666666" points="2447.5,-74 2375.5,-74 2375.5,-55 2447.5,-55 2447.5,-74"/>
<text text-anchor="middle" x="2411.5" y="-62" font-family="Helvetica,sans-Serif" font-size="10.00">watchdog.c</text>
</a>
</g>
</g>
<!-- Node1&#45;&gt;Node30 -->
<g id="edge31_Node000001_Node000030" class="edge">
<title>Node1&#45;&gt;Node30</title>
<g id="a_edge31_Node000001_Node000030"><a xlink:title=" ">
<path fill="none" stroke="#63b8ff" d="M1273.41,-117.89C1430.98,-114.7 2145.97,-99.05 2366.5,-74 2369.34,-73.68 2372.28,-73.28 2375.22,-72.83"/>
<polygon fill="#63b8ff" stroke="#63b8ff" points="1272.97,-114.4 1263.04,-118.1 1273.11,-121.4 1272.97,-114.4"/>
</a>
</g>
</g>
<!-- Node16&#45;&gt;Node15 -->
<g id="edge17_Node000016_Node000015" class="edge">
<title>Node16&#45;&gt;Node15</title>
<g id="a_edge17_Node000016_Node000015"><a xlink:title=" ">
<path fill="none" stroke="#63b8ff" d="M1253.31,-50.63C1232.68,-40.87 1204.88,-27.71 1186.82,-19.17"/>
<polygon fill="#63b8ff" stroke="#63b8ff" points="1251.97,-53.87 1262.51,-54.98 1254.96,-47.54 1251.97,-53.87"/>
</a>
</g>
</g>
<!-- Node17 -->
<g id="Node000017" class="node">
<title>Node17</title>
<g id="a_Node000017"><a xlink:href="heartbeat__job_8c.html" target="_top" xlink:title=" ">
<polygon fill="white" stroke="#666666" points="1326.5,-19 1234.5,-19 1234.5,0 1326.5,0 1326.5,-19"/>
<text text-anchor="middle" x="1280.5" y="-7" font-family="Helvetica,sans-Serif" font-size="10.00">heartbeat_job.c</text>
</a>
</g>
</g>
<!-- Node16&#45;&gt;Node17 -->
<g id="edge16_Node000016_Node000017" class="edge">
<title>Node16&#45;&gt;Node17</title>
<g id="a_edge16_Node000016_Node000017"><a xlink:title=" ">
<path fill="none" stroke="#63b8ff" d="M1280.5,-44.66C1280.5,-35.93 1280.5,-25.99 1280.5,-19.09"/>
<polygon fill="#63b8ff" stroke="#63b8ff" points="1277,-44.75 1280.5,-54.75 1284,-44.75 1277,-44.75"/>
</a>
</g>
</g>
<!-- Node16&#45;&gt;Node18 -->
<g id="edge18_Node000016_Node000018" class="edge">
<title>Node16&#45;&gt;Node18</title>
<g id="a_edge18_Node000016_Node000018"><a xlink:title=" ">
<path fill="none" stroke="#63b8ff" d="M1303.94,-49.7C1320.34,-40.04 1341.73,-27.44 1355.78,-19.17"/>
<polygon fill="#63b8ff" stroke="#63b8ff" points="1301.8,-46.89 1294.96,-54.98 1305.35,-52.93 1301.8,-46.89"/>
</a>
</g>
</g>
</g>
</svg>

<g id="navigator" transform="translate(0 0)" fill="#404254">
  <rect fill="#f2f5e9" fill-opacity="0.5" stroke="#606060" stroke-width=".5" x="0" y="0" width="60" height="60"/>
  <use id="zoomplus" xlink:href="#zoomPlus" x="17" y="9" onmousedown="handleZoom(evt,'in')"/>
  <use id="zoomminus" xlink:href="#zoomMin" x="42" y="9" onmousedown="handleZoom(evt,'out')"/>
  <use id="reset" xlink:href="#resetDef" x="30" y="36" onmousedown="handleReset()"/>
   <use id="arrowup" xlink:href="#arrowUp" x="0" y="0" onmousedown="handlePan(0,-1)"/>
  <use id="arrowright" xlink:href="#arrowRight" x="0" y="0" onmousedown="handlePan(1,0)"/>
  <use id="arrowdown" xlink:href="#arrowDown" x="0" y="0" onmousedown="handlePan(0,1)"/>
  <use id="arrowleft" xlink:href="#arrowLeft" x="0" y="0" onmousedown="handlePan(-1,0)"/>
</g>
<svg viewBox="0 0 15 15" width="100%" height="30px" preserveAspectRatio="xMaxYMin meet">
 <g id="arrow_out" transform="scale(0.3 0.3)">
  <a xlink:href="log_8h__dep__incl_org.svg" target="_base">
   <rect id="button" ry="5" rx="5" y="6" x="6" height="38" width="38"
        fill="#f2f5e9" fill-opacity="0.5" stroke="#606060" stroke-width="1.0"/>
   <path id="arrow"
     d="M 11.500037,31.436501 C 11.940474,20.09759 22.043105,11.32322 32.158766,21.979434 L 37.068811,17.246167 C 37.068811,17.246167 37.088388,32 37.088388,32 L 22.160133,31.978069 C 22.160133,31.978069 26.997745,27.140456 26.997745,27.140456 C 18.528582,18.264221 13.291696,25.230495 11.500037,31.436501 z"
     style="fill:#404040;"/>
  </a>
 </g>
</svg>

<style type='text/css'>
<![CDATA[
[data-mouse-over-selected='false'] { opacity: 0.7; }
[data-mouse-over-selected='true']  { opacity: 1.0; }
]]>
</style>
<script type="application/ecmascript"><![CDATA[
document.addEventListener('DOMContentLoaded', (event) => {
  highlightEdges();
  highlightAdjacentNodes();
});
]]></script>
</svg>
