<?xml version="1.0" encoding="UTF-8" standalone="no"?>
<!DOCTYPE svg PUBLIC "-//W3C//DTD SVG 1.1//EN"
 "http://www.w3.org/Graphics/SVG/1.1/DTD/svg11.dtd">
<!-- Generated by graphviz version 2.43.0 (0)
 -->
<!-- Title: log.h Pages: 1 -->
<!--zoomable 137 -->

<svg id="main" version="1.1" xmlns="http://www.w3.org/2000/svg" xmlns:xlink="http://www.w3.org/1999/xlink" xml:space="preserve" onload="init(evt)">

<style type="text/css"><![CDATA[
.node, .edge {opacity: 0.7;}
.node.selected, .edge.selected {opacity: 1;}
.edge:hover path { stroke: red; }
.edge:hover polygon { stroke: red; fill: red; }
]]></style>

<defs>
  <circle id="rim" cx="0" cy="0" r="7"/>
  <circle id="rim2" cx="0" cy="0" r="3.5"/>
  <g id="zoomPlus">
    <use xlink:href="#rim" fill="#404040"><set attributeName="fill" to="#808080" begin="zoomplus.mouseover" end="zoomplus.mouseout"/></use>
    <path d="M-4,0h8M0,-4v8" fill="none" stroke="white" stroke-width="1.5" pointer-events="none"/>
  </g>
  <g id="zoomMin">
    <use xlink:href="#rim" fill="#404040"><set attributeName="fill" to="#808080" begin="zoomminus.mouseover" end="zoomminus.mouseout"/></use>
    <path d="M-4,0h8" fill="none" stroke="white" stroke-width="1.5" pointer-events="none"/>
  </g>
  <g id="arrowUp" transform="translate(30 24)">
    <use xlink:href="#rim"/>
    <path pointer-events="none" fill="none" stroke="white" stroke-width="1.5" d="M0,-3.0v7 M-2.5,-0.5L0,-3.0L2.5,-0.5"/>
  </g>
  <g id="arrowRight" transform="rotate(90) translate(36 -43)">
    <use xlink:href="#rim"/>
    <path pointer-events="none" fill="none" stroke="white" stroke-width="1.5" d="M0,-3.0v7 M-2.5,-0.5L0,-3.0L2.5,-0.5"/>
  </g>
  <g id="arrowDown" transform="rotate(180) translate(-30 -48)">
    <use xlink:href="#rim"/>
    <path pointer-events="none" fill="none" stroke="white" stroke-width="1.5" d="M0,-3.0v7 M-2.5,-0.5L0,-3.0L2.5,-0.5"/>
  </g>
  <g id="arrowLeft" transform="rotate(270) translate(-36 17)">
    <use xlink:href="#rim"/>
    <path pointer-events="none" fill="none" stroke="white" stroke-width="1.5" d="M0,-3.0v7 M-2.5,-0.5L0,-3.0L2.5,-0.5"/>
  </g>
  <g id="resetDef">
    <use xlink:href="#rim2" fill="#404040"><set attributeName="fill" to="#808080" begin="reset.mouseover" end="reset.mouseout"/></use>
  </g>
</defs>
<script type="application/ecmascript">
var viewWidth = 2452;
var viewHeight = 137;
var sectionId = 'dynsection-1';
</script>
<script type="application/ecmascript" xlink:href="svg.min.js"/>
<svg id="graph" class="graph">
<g id="viewport">
<title>log.h</title>
<!-- Node1 -->
<g id="Node000001" class="node">
<title>Node1</title>
<g id="a_Node000001"><a xlink:title=" ">
<polygon fill="#999999" stroke="#666666" points="1259,-129 1218,-129 1218,-110 1259,-110 1259,-129"/>
<text text-anchor="middle" x="1238.5" y="-117" font-family="Helvetica,sans-Serif" font-size="10.00">log.h</text>
</a>
</g>
</g>
<!-- Node2 -->
<g id="Node000002" class="node">
<title>Node2</title>
<g id="a_Node000002"><a xlink:href="antenna__deploy__job_8c.html" target="_top" xlink:title=" ">
<polygon fill="white" stroke="#666666" points="123,-74 0,-74 0,-55 123,-55 123,-74"/>
<text text-anchor="middle" x="61.5" y="-62" font-family="Helvetica,sans-Serif" font-size="10.00">antenna_deploy_job.c</text>
</a>
</g>
</g>
<!-- Node1&#45;&gt;Node2 -->
<g id="edge1_Node000001_Node000002" class="edge">
<title>Node1&#45;&gt;Node2</title>
<g id="a_edge1_Node000001_Node000002"><a xlink:title=" ">
<path fill="none" stroke="#63b8ff" d="M1207.67,-118.15C1077.23,-116.49 557.78,-107.96 132.5,-74 129.41,-73.75 126.24,-73.47 123.04,-73.17"/>
<polygon fill="#63b8ff" stroke="#63b8ff" points="1207.7,-121.65 1217.74,-118.28 1207.79,-114.65 1207.7,-121.65"/>
</a>
</g>
</g>
<!-- Node3 -->
<g id="Node000003" class="node">
<title>Node3</title>
<g id="a_Node000003"><a xlink:href="command_8c.html" target="_top" xlink:title=" ">
<polygon fill="white" stroke="#666666" points="215.5,-74 141.5,-74 141.5,-55 215.5,-55 215.5,-74"/>
<text text-anchor="middle" x="178.5" y="-62" font-family="Helvetica,sans-Serif" font-size="10.00">command.c</text>
</a>
</g>
</g>
<!-- Node1&#45;&gt;Node3 -->
<g id="edge2_Node000001_Node000003" class="edge">
<title>Node1&#45;&gt;Node3</title>
<g id="a_edge2_Node000001_Node000003"><a xlink:title=" ">
<path fill="none" stroke="#63b8ff" d="M1207.43,-118.71C1083.2,-119.19 610.29,-117.89 224.5,-74 221.6,-73.67 218.6,-73.26 215.59,-72.81"/>
<polygon fill="#63b8ff" stroke="#63b8ff" points="1207.73,-122.2 1217.71,-118.66 1207.7,-115.2 1207.73,-122.2"/>
</a>
</g>
</g>
<!-- Node4 -->
<g id="Node000004" class="node">
<title>Node4</title>
<g id="a_Node000004"><a xlink:href="command__fuzzer_8cpp.html" target="_top" xlink:title=" ">
<polygon fill="white" stroke="#666666" points="353.5,-74 233.5,-74 233.5,-55 353.5,-55 353.5,-74"/>
<text text-anchor="middle" x="293.5" y="-62" font-family="Helvetica,sans-Serif" font-size="10.00">command_fuzzer.cpp</text>
</a>
</g>
</g>
<!-- Node1&#45;&gt;Node4 -->
<g id="edge3_Node000001_Node000004" class="edge">
<title>Node1&#45;&gt;Node4</title>
<g id="a_edge3_Node000001_Node000004"><a xlink:title=" ">
<path fill="none" stroke="#63b8ff" d="M1207.76,-117.74C1094.91,-114.77 692.81,-102.7 362.5,-74 359.61,-73.75 356.66,-73.47 353.68,-73.17"/>
<polygon fill="#63b8ff" stroke="#63b8ff" points="1207.68,-121.24 1217.77,-118 1207.86,-114.24 1207.68,-121.24"/>
</a>
</g>
</g>
<!-- Node5 -->
<g id="Node000005" class="node">
<title>Node5</title>
<g id="a_Node000005"><a xlink:href="ds18b20_8c.html" target="_top" xlink:title=" ">
<polygon fill="white" stroke="#666666" points="437.5,-74 371.5,-74 371.5,-55 437.5,-55 437.5,-74"/>
<text text-anchor="middle" x="404.5" y="-62" font-family="Helvetica,sans-Serif" font-size="10.00">ds18b20.c</text>
</a>
</g>
</g>
<!-- Node1&#45;&gt;Node5 -->
<g id="edge4_Node000001_Node000005" class="edge">
<title>Node1&#45;&gt;Node5</title>
<g id="a_edge4_Node000001_Node000005"><a xlink:title=" ">
<path fill="none" stroke="#63b8ff" d="M1207.58,-118.35C1101.26,-117.52 741.02,-111.88 446.5,-74 443.7,-73.64 440.8,-73.2 437.9,-72.71"/>
<polygon fill="#63b8ff" stroke="#63b8ff" points="1207.88,-121.86 1217.9,-118.43 1207.93,-114.86 1207.88,-121.86"/>
</a>
</g>
</g>
<!-- Node6 -->
<g id="Node000006" class="node">
<title>Node6</title>
<g id="a_Node000006"><a xlink:href="file__downlink_8c.html" target="_top" xlink:title=" ">
<polygon fill="white" stroke="#666666" points="545,-74 456,-74 456,-55 545,-55 545,-74"/>
<text text-anchor="middle" x="500.5" y="-62" font-family="Helvetica,sans-Serif" font-size="10.00">file_downlink.c</text>
</a>
</g>
</g>
<!-- Node1&#45;&gt;Node6 -->
<g id="edge5_Node000001_Node000006" class="edge">
<title>Node1&#45;&gt;Node6</title>
<g id="a_edge5_Node000001_Node000006"><a xlink:title=" ">
<path fill="none" stroke="#63b8ff" d="M1207.48,-117.49C1110.69,-114.12 805.62,-101.87 554.5,-74 551.48,-73.66 548.37,-73.28 545.25,-72.87"/>
<polygon fill="#63b8ff" stroke="#63b8ff" points="1207.62,-121 1217.73,-117.84 1207.86,-114 1207.62,-121"/>
</a>
</g>
</g>
<!-- Node7 -->
<g id="Node000007" class="node">
<title>Node7</title>
<g id="a_Node000007"><a xlink:href="filesystem_8c.html" target="_top" xlink:title=" ">
<polygon fill="white" stroke="#666666" points="639.5,-74 563.5,-74 563.5,-55 639.5,-55 639.5,-74"/>
<text text-anchor="middle" x="601.5" y="-62" font-family="Helvetica,sans-Serif" font-size="10.00">filesystem.c</text>
</a>
</g>
</g>
<!-- Node1&#45;&gt;Node7 -->
<g id="edge6_Node000001_Node000007" class="edge">
<title>Node1&#45;&gt;Node7</title>
<g id="a_edge6_Node000001_Node000007"><a xlink:title=" ">
<path fill="none" stroke="#63b8ff" d="M1207.72,-117.3C1120.02,-113.66 861.49,-101.22 648.5,-74 645.62,-73.63 642.65,-73.21 639.67,-72.74"/>
<polygon fill="#63b8ff" stroke="#63b8ff" points="1207.65,-120.8 1217.78,-117.72 1207.93,-113.81 1207.65,-120.8"/>
</a>
</g>
</g>
<!-- Node8 -->
<g id="Node000008" class="node">
<title>Node8</title>
<g id="a_Node000008"><a xlink:href="gse_8c.html" target="_top" xlink:title=" ">
<polygon fill="white" stroke="#666666" points="699.5,-74 657.5,-74 657.5,-55 699.5,-55 699.5,-74"/>
<text text-anchor="middle" x="678.5" y="-62" font-family="Helvetica,sans-Serif" font-size="10.00">gse.c</text>
</a>
</g>
</g>
<!-- Node1&#45;&gt;Node8 -->
<g id="edge7_Node000001_Node000008" class="edge">
<title>Node1&#45;&gt;Node8</title>
<g id="a_edge7_Node000001_Node000008"><a xlink:title=" ">
<path fill="none" stroke="#63b8ff" d="M1207.73,-117.98C1125.86,-116.15 896.08,-108.12 708.5,-74 705.62,-73.48 702.63,-72.8 699.69,-72.05"/>
<polygon fill="#63b8ff" stroke="#63b8ff" points="1207.78,-121.48 1217.85,-118.19 1207.93,-114.48 1207.78,-121.48"/>
</a>
</g>
</g>
<!-- Node9 -->
<g id="Node000009" class="node">
<title>Node9</title>
<g id="a_Node000009"><a xlink:href="hb__tlm__log_8c.html" target="_top" xlink:title=" ">
<polygon fill="white" stroke="#666666" points="797,-74 718,-74 718,-55 797,-55 797,-74"/>
<text text-anchor="middle" x="757.5" y="-62" font-family="Helvetica,sans-Serif" font-size="10.00">hb_tlm_log.c</text>
</a>
</g>
</g>
<!-- Node1&#45;&gt;Node9 -->
<g id="edge8_Node000001_Node000009" class="edge">
<title>Node1&#45;&gt;Node9</title>
<g id="a_edge8_Node000001_Node000009"><a xlink:title=" ">
<path fill="none" stroke="#63b8ff" d="M1207.64,-116.11C1136.53,-110.42 955.71,-94.99 805.5,-74 802.73,-73.61 799.88,-73.19 797.02,-72.73"/>
<polygon fill="#63b8ff" stroke="#63b8ff" points="1207.46,-119.6 1217.7,-116.9 1208.01,-112.62 1207.46,-119.6"/>
</a>
</g>
</g>
<!-- Node10 -->
<g id="Node000010" class="node">
<title>Node10</title>
<g id="a_Node000010"><a xlink:href="i2c_8c.html" target="_top" xlink:title=" ">
<polygon fill="white" stroke="#666666" points="854,-74 815,-74 815,-55 854,-55 854,-74"/>
<text text-anchor="middle" x="834.5" y="-62" font-family="Helvetica,sans-Serif" font-size="10.00">i2c.c</text>
</a>
</g>
</g>
<!-- Node1&#45;&gt;Node10 -->
<g id="edge9_Node000001_Node000010" class="edge">
<title>Node1&#45;&gt;Node10</title>
<g id="a_edge9_Node000001_Node000010"><a xlink:title=" ">
<path fill="none" stroke="#63b8ff" d="M1207.72,-116.59C1143.31,-112.23 989.8,-99.81 863.5,-74 860.42,-73.37 857.18,-72.57 854.04,-71.71"/>
<polygon fill="#63b8ff" stroke="#63b8ff" points="1207.78,-120.11 1217.98,-117.27 1208.24,-113.12 1207.78,-120.11"/>
</a>
</g>
</g>
<!-- Node11 -->
<g id="Node000011" class="node">
<title>Node11</title>
<g id="a_Node000011"><a xlink:href="ina219_8c.html" target="_top" xlink:title=" ">
<polygon fill="white" stroke="#666666" points="930.5,-74 872.5,-74 872.5,-55 930.5,-55 930.5,-74"/>
<text text-anchor="middle" x="901.5" y="-62" font-family="Helvetica,sans-Serif" font-size="10.00">ina219.c</text>
</a>
</g>
</g>
<!-- Node1&#45;&gt;Node11 -->
<g id="edge10_Node000001_Node000011" class="edge">
<title>Node1&#45;&gt;Node11</title>
<g id="a_edge10_Node000001_Node000011"><a xlink:title=" ">
<path fill="none" stroke="#63b8ff" d="M1207.74,-114.67C1153.4,-107.73 1036.97,-92.13 939.5,-74 936.58,-73.46 933.53,-72.85 930.5,-72.21"/>
<polygon fill="#63b8ff" stroke="#63b8ff" points="1207.39,-118.15 1217.75,-115.94 1208.27,-111.21 1207.39,-118.15"/>
</a>
</g>
</g>
<!-- Node12 -->
<g id="Node000012" class="node">
<title>Node12</title>
<g id="a_Node000012"><a xlink:href="test_2unit_2utilities_2log_8c.html" target="_top" xlink:title=" ">
<polygon fill="white" stroke="#666666" points="988.5,-74 948.5,-74 948.5,-55 988.5,-55 988.5,-74"/>
<text text-anchor="middle" x="968.5" y="-62" font-family="Helvetica,sans-Serif" font-size="10.00">log.c</text>
</a>
</g>
</g>
<!-- Node1&#45;&gt;Node12 -->
<g id="edge11_Node000001_Node000012" class="edge">
<title>Node1&#45;&gt;Node12</title>
<g id="a_edge11_Node000001_Node000012"><a xlink:title=" ">
<path fill="none" stroke="#63b8ff" d="M1207.78,-113.86C1161.78,-106.69 1072.38,-91.84 997.5,-74 994.64,-73.32 991.65,-72.53 988.71,-71.71"/>
<polygon fill="#63b8ff" stroke="#63b8ff" points="1207.3,-117.33 1217.72,-115.4 1208.37,-110.41 1207.3,-117.33"/>
</a>
</g>
</g>
<!-- Node13 -->
<g id="Node000013" class="node">
<title>Node13</title>
<g id="a_Node000013"><a xlink:href="utilities_2src_2log_8c.html" target="_top" xlink:title=" ">
<polygon fill="white" stroke="#666666" points="1046.5,-74 1006.5,-74 1006.5,-55 1046.5,-55 1046.5,-74"/>
<text text-anchor="middle" x="1026.5" y="-62" font-family="Helvetica,sans-Serif" font-size="10.00">log.c</text>
</a>
</g>
</g>
<!-- Node1&#45;&gt;Node13 -->
<g id="edge12_Node000001_Node000013" class="edge">
<title>Node1&#45;&gt;Node13</title>
<g id="a_edge12_Node000001_Node000013"><a xlink:title=" ">
<path fill="none" stroke="#63b8ff" d="M1207.85,-111.51C1171.41,-103.09 1108.82,-88.29 1055.5,-74 1052.66,-73.24 1049.68,-72.4 1046.75,-71.57"/>
<polygon fill="#63b8ff" stroke="#63b8ff" points="1207.31,-114.97 1217.84,-113.81 1208.88,-108.15 1207.31,-114.97"/>
</a>
</g>
</g>
<!-- Node14 -->
<g id="Node000014" class="node">
<title>Node14</title>
<g id="a_Node000014"><a xlink:href="log__test__unittest_8c.html" target="_top" xlink:title=" ">
<polygon fill="white" stroke="#666666" points="1172,-74 1065,-74 1065,-55 1172,-55 1172,-74"/>
<text text-anchor="middle" x="1118.5" y="-62" font-family="Helvetica,sans-Serif" font-size="10.00">log_test_unittest.c</text>
</a>
</g>
</g>
<!-- Node1&#45;&gt;Node14 -->
<g id="edge13_Node000001_Node000014" class="edge">
<title>Node1&#45;&gt;Node14</title>
<g id="a_edge13_Node000001_Node000014"><a xlink:title=" ">
<path fill="none" stroke="#63b8ff" d="M1209.97,-105.9C1187.8,-96.11 1157.65,-82.79 1138.13,-74.17"/>
<polygon fill="#63b8ff" stroke="#63b8ff" points="1208.66,-109.15 1219.22,-109.98 1211.49,-102.74 1208.66,-109.15"/>
</a>
</g>
</g>
<!-- Node15 -->
<g id="Node000015" class="node">
<title>Node15</title>
<g id="a_Node000015"><a xlink:href="mag__lis3mdltr_8c.html" target="_top" xlink:title=" ">
<polygon fill="white" stroke="#666666" points="1212,-19 1117,-19 1117,0 1212,0 1212,-19"/>
<text text-anchor="middle" x="1164.5" y="-7" font-family="Helvetica,sans-Serif" font-size="10.00">mag_lis3mdltr.c</text>
</a>
</g>
</g>
<!-- Node1&#45;&gt;Node15 -->
<g id="edge14_Node000001_Node000015" class="edge">
<title>Node1&#45;&gt;Node15</title>
<g id="a_edge14_Node000001_Node000015"><a xlink:title=" ">
<path fill="none" stroke="#63b8ff" d="M1226.77,-101.38C1210.75,-78.01 1182.64,-36.97 1170.43,-19.16"/>
<polygon fill="#63b8ff" stroke="#63b8ff" points="1223.9,-103.39 1232.44,-109.66 1229.68,-99.43 1223.9,-103.39"/>
</a>
</g>
</g>
<!-- Node16 -->
<g id="Node000016" class="node">
<title>Node16</title>
<g id="a_Node000016"><a xlink:href="mag__lis3mdltr_8h.html" target="_top" xlink:title="Magnetometer Driver (LIS3MDLTR)">
<polygon fill="white" stroke="#666666" points="1324,-74 1229,-74 1229,-55 1324,-55 1324,-74"/>
<text text-anchor="middle" x="1276.5" y="-62" font-family="Helvetica,sans-Serif" font-size="10.00">mag_lis3mdltr.h</text>
</a>
</g>
</g>
<!-- Node1&#45;&gt;Node16 -->
<g id="edge15_Node000001_Node000016" class="edge">
<title>Node1&#45;&gt;Node16</title>
<g id="a_edge15_Node000001_Node000016"><a xlink:title=" ">
<path fill="none" stroke="#63b8ff" d="M1250.77,-101.39C1257.31,-92.27 1265.07,-81.45 1270.34,-74.09"/>
<polygon fill="#63b8ff" stroke="#63b8ff" points="1247.76,-99.58 1244.77,-109.75 1253.45,-103.66 1247.76,-99.58"/>
</a>
</g>
</g>
<!-- Node18 -->
<g id="Node000018" class="node">
<title>Node18</title>
<g id="a_Node000018"><a xlink:href="steve_8c.html" target="_top" xlink:title=" ">
<polygon fill="white" stroke="#666666" points="1392.5,-19 1340.5,-19 1340.5,0 1392.5,0 1392.5,-19"/>
<text text-anchor="middle" x="1366.5" y="-7" font-family="Helvetica,sans-Serif" font-size="10.00">steve.c</text>
</a>
</g>
</g>
<!-- Node1&#45;&gt;Node18 -->
<g id="edge26_Node000001_Node000018" class="edge">
<title>Node1&#45;&gt;Node18</title>
<g id="a_edge26_Node000001_Node000018"><a xlink:title=" ">
<path fill="none" stroke="#63b8ff" d="M1269.01,-109.9C1289.28,-102.93 1315.4,-91.37 1333.5,-74 1349.82,-58.34 1359.61,-32.85 1363.91,-19.43"/>
<polygon fill="#63b8ff" stroke="#63b8ff" points="1267.73,-106.64 1259.3,-113.05 1269.89,-113.3 1267.73,-106.64"/>
</a>
</g>
</g>
<!-- Node19 -->
<g id="Node000019" class="node">
<title>Node19</title>
<g id="a_Node000019"><a xlink:href="main_8c.html" target="_top" xlink:title=" ">
<polygon fill="white" stroke="#666666" points="1430.5,-74 1380.5,-74 1380.5,-55 1430.5,-55 1430.5,-74"/>
<text text-anchor="middle" x="1405.5" y="-62" font-family="Helvetica,sans-Serif" font-size="10.00">main.c</text>
</a>
</g>
</g>
<!-- Node1&#45;&gt;Node19 -->
<g id="edge19_Node000001_Node000019" class="edge">
<title>Node1&#45;&gt;Node19</title>
<g id="a_edge19_Node000001_Node000019"><a xlink:title=" ">
<path fill="none" stroke="#63b8ff" d="M1269.02,-108.81C1300.97,-98.68 1350.54,-82.94 1380.33,-73.49"/>
<polygon fill="#63b8ff" stroke="#63b8ff" points="1267.79,-105.53 1259.31,-111.89 1269.9,-112.21 1267.79,-105.53"/>
</a>
</g>
</g>
<!-- Node20 -->
<g id="Node000020" class="node">
<title>Node20</title>
<g id="a_Node000020"><a xlink:href="max17048_8c.html" target="_top" xlink:title=" ">
<polygon fill="white" stroke="#666666" points="1526,-74 1449,-74 1449,-55 1526,-55 1526,-74"/>
<text text-anchor="middle" x="1487.5" y="-62" font-family="Helvetica,sans-Serif" font-size="10.00">max17048.c</text>
</a>
</g>
</g>
<!-- Node1&#45;&gt;Node20 -->
<g id="edge20_Node000001_Node000020" class="edge">
<title>Node1&#45;&gt;Node20</title>
<g id="a_edge20_Node000001_Node000020"><a xlink:title=" ">
<path fill="none" stroke="#63b8ff" d="M1269.14,-111.98C1314.47,-102.33 1399.37,-84.26 1448.89,-73.72"/>
<polygon fill="#63b8ff" stroke="#63b8ff" points="1268.35,-108.57 1259.3,-114.07 1269.81,-115.41 1268.35,-108.57"/>
</a>
</g>
</g>
<!-- Node21 -->
<g id="Node000021" class="node">
<title>Node21</title>
<g id="a_Node000021"><a xlink:href="miscellaneous__jobs_8c.html" target="_top" xlink:title=" ">
<polygon fill="white" stroke="#666666" points="1665,-74 1544,-74 1544,-55 1665,-55 1665,-74"/>
<text text-anchor="middle" x="1604.5" y="-62" font-family="Helvetica,sans-Serif" font-size="10.00">miscellaneous_jobs.c</text>
</a>
</g>
</g>
<!-- Node1&#45;&gt;Node21 -->
<g id="edge21_Node000001_Node000021" class="edge">
<title>Node1&#45;&gt;Node21</title>
<g id="a_edge21_Node000001_Node000021"><a xlink:title=" ">
<path fill="none" stroke="#63b8ff" d="M1269.35,-114.03C1330.29,-105.21 1466.97,-85.42 1545.67,-74.02"/>
<polygon fill="#63b8ff" stroke="#63b8ff" points="1268.62,-110.6 1259.23,-115.5 1269.62,-117.53 1268.62,-110.6"/>
</a>
</g>
</g>
<!-- Node22 -->
<g id="Node000022" class="node">
<title>Node22</title>
<g id="a_Node000022"><a xlink:href="mram_8c.html" target="_top" xlink:title=" ">
<polygon fill="white" stroke="#666666" points="1737.5,-74 1683.5,-74 1683.5,-55 1737.5,-55 1737.5,-74"/>
<text text-anchor="middle" x="1710.5" y="-62" font-family="Helvetica,sans-Serif" font-size="10.00">mram.c</text>
</a>
</g>
</g>
<!-- Node1&#45;&gt;Node22 -->
<g id="edge22_Node000001_Node000022" class="edge">
<title>Node1&#45;&gt;Node22</title>
<g id="a_edge22_Node000001_Node000022"><a xlink:title=" ">
<path fill="none" stroke="#63b8ff" d="M1269.16,-116.75C1340.6,-112.36 1523.56,-99.41 1674.5,-74 1677.41,-73.51 1680.44,-72.92 1683.45,-72.29"/>
<polygon fill="#63b8ff" stroke="#63b8ff" points="1268.83,-113.26 1259.06,-117.36 1269.25,-120.25 1268.83,-113.26"/>
</a>
</g>
</g>
<!-- Node23 -->
<g id="Node000023" class="node">
<title>Node23</title>
<g id="a_Node000023"><a xlink:href="radio_8cpp.html" target="_top" xlink:title="Radio operations and the task handling them.">
<polygon fill="white" stroke="#666666" points="1817.5,-74 1755.5,-74 1755.5,-55 1817.5,-55 1817.5,-74"/>
<text text-anchor="middle" x="1786.5" y="-62" font-family="Helvetica,sans-Serif" font-size="10.00">radio.cpp</text>
</a>
</g>
</g>
<!-- Node1&#45;&gt;Node23 -->
<g id="edge23_Node000001_Node000023" class="edge">
<title>Node1&#45;&gt;Node23</title>
<g id="a_edge23_Node000001_Node000023"><a xlink:title=" ">
<path fill="none" stroke="#63b8ff" d="M1269.74,-117.09C1349.51,-113.21 1567.12,-100.81 1746.5,-74 1749.31,-73.58 1752.22,-73.08 1755.12,-72.55"/>
<polygon fill="#63b8ff" stroke="#63b8ff" points="1269.24,-113.61 1259.41,-117.58 1269.57,-120.6 1269.24,-113.61"/>
</a>
</g>
</g>
<!-- Node24 -->
<g id="Node000024" class="node">
<title>Node24</title>
<g id="a_Node000024"><a xlink:href="rtc__ds3231_8c.html" target="_top" xlink:title=" ">
<polygon fill="white" stroke="#666666" points="1913.5,-74 1835.5,-74 1835.5,-55 1913.5,-55 1913.5,-74"/>
<text text-anchor="middle" x="1874.5" y="-62" font-family="Helvetica,sans-Serif" font-size="10.00">rtc_ds3231.c</text>
</a>
</g>
</g>
<!-- Node1&#45;&gt;Node24 -->
<g id="edge24_Node000001_Node000024" class="edge">
<title>Node1&#45;&gt;Node24</title>
<g id="a_edge24_Node000001_Node000024"><a xlink:title=" ">
<path fill="none" stroke="#63b8ff" d="M1269.18,-117.26C1356.56,-113.49 1614.18,-100.77 1826.5,-74 1829.35,-73.64 1832.3,-73.23 1835.26,-72.78"/>
<polygon fill="#63b8ff" stroke="#63b8ff" points="1268.99,-113.76 1259.15,-117.68 1269.28,-120.76 1268.99,-113.76"/>
</a>
</g>
</g>
<!-- Node25 -->
<g id="Node000025" class="node">
<title>Node25</title>
<g id="a_Node000025"><a xlink:href="set__rtc__job_8c.html" target="_top" xlink:title=" ">
<polygon fill="white" stroke="#666666" points="2009.5,-74 1931.5,-74 1931.5,-55 2009.5,-55 2009.5,-74"/>
<text text-anchor="middle" x="1970.5" y="-62" font-family="Helvetica,sans-Serif" font-size="10.00">set_rtc_job.c</text>
</a>
</g>
</g>
<!-- Node1&#45;&gt;Node25 -->
<g id="edge25_Node000001_Node000025" class="edge">
<title>Node1&#45;&gt;Node25</title>
<g id="a_edge25_Node000001_Node000025"><a xlink:title=" ">
<path fill="none" stroke="#63b8ff" d="M1269.21,-117.71C1365.72,-114.97 1671.38,-104.31 1922.5,-74 1925.36,-73.66 1928.3,-73.25 1931.26,-72.81"/>
<polygon fill="#63b8ff" stroke="#63b8ff" points="1268.9,-114.22 1259,-117.99 1269.09,-121.21 1268.9,-114.22"/>
</a>
</g>
</g>
<!-- Node26 -->
<g id="Node000026" class="node">
<title>Node26</title>
<g id="a_Node000026"><a xlink:href="telemetry_8c.html" target="_top" xlink:title=" ">
<polygon fill="white" stroke="#666666" points="2099,-74 2028,-74 2028,-55 2099,-55 2099,-74"/>
<text text-anchor="middle" x="2063.5" y="-62" font-family="Helvetica,sans-Serif" font-size="10.00">telemetry.c</text>
</a>
</g>
</g>
<!-- Node1&#45;&gt;Node26 -->
<g id="edge27_Node000001_Node000026" class="edge">
<title>Node1&#45;&gt;Node26</title>
<g id="a_edge27_Node000001_Node000026"><a xlink:title=" ">
<path fill="none" stroke="#63b8ff" d="M1269.28,-118.18C1374.38,-116.77 1728.53,-109.51 2018.5,-74 2021.5,-73.63 2024.6,-73.19 2027.7,-72.69"/>
<polygon fill="#63b8ff" stroke="#63b8ff" points="1269.03,-114.68 1259.08,-118.3 1269.12,-121.68 1269.03,-114.68"/>
</a>
</g>
</g>
<!-- Node27 -->
<g id="Node000027" class="node">
<title>Node27</title>
<g id="a_Node000027"><a xlink:href="timing_8c.html" target="_top" xlink:title=" ">
<polygon fill="white" stroke="#666666" points="2173.5,-74 2117.5,-74 2117.5,-55 2173.5,-55 2173.5,-74"/>
<text text-anchor="middle" x="2145.5" y="-62" font-family="Helvetica,sans-Serif" font-size="10.00">timing.c</text>
</a>
</g>
</g>
<!-- Node1&#45;&gt;Node27 -->
<g id="edge28_Node000001_Node000027" class="edge">
<title>Node1&#45;&gt;Node27</title>
<g id="a_edge28_Node000001_Node000027"><a xlink:title=" ">
<path fill="none" stroke="#63b8ff" d="M1269.5,-118.86C1382.48,-119.78 1782.69,-119.4 2108.5,-74 2111.37,-73.6 2114.35,-73.09 2117.31,-72.51"/>
<polygon fill="#63b8ff" stroke="#63b8ff" points="1269.21,-115.36 1259.18,-118.77 1269.14,-122.36 1269.21,-115.36"/>
</a>
</g>
</g>
<!-- Node28 -->
<g id="Node000028" class="node">
<title>Node28</title>
<g id="a_Node000028"><a xlink:href="user__auth_8c.html" target="_top" xlink:title=" ">
<polygon fill="white" stroke="#666666" points="2265,-74 2192,-74 2192,-55 2265,-55 2265,-74"/>
<text text-anchor="middle" x="2228.5" y="-62" font-family="Helvetica,sans-Serif" font-size="10.00">user_auth.c</text>
</a>
</g>
</g>
<!-- Node1&#45;&gt;Node28 -->
<g id="edge29_Node000001_Node000028" class="edge">
<title>Node1&#45;&gt;Node28</title>
<g id="a_edge29_Node000001_Node000028"><a xlink:title=" ">
<path fill="none" stroke="#63b8ff" d="M1269.33,-118.56C1387.84,-118.48 1825.3,-115.23 2182.5,-74 2185.57,-73.65 2188.73,-73.21 2191.91,-72.72"/>
<polygon fill="#63b8ff" stroke="#63b8ff" points="1269.18,-115.06 1259.18,-118.56 1269.18,-122.06 1269.18,-115.06"/>
</a>
</g>
</g>
<!-- Node29 -->
<g id="Node000029" class="node">
<title>Node29</title>
<g id="a_Node000029"><a xlink:href="vega__ant_8c.html" target="_top" xlink:title=" ">
<polygon fill="white" stroke="#666666" points="2353.5,-74 2283.5,-74 2283.5,-55 2353.5,-55 2353.5,-74"/>
<text text-anchor="middle" x="2318.5" y="-62" font-family="Helvetica,sans-Serif" font-size="10.00">vega_ant.c</text>
</a>
</g>
</g>
<!-- Node1&#45;&gt;Node29 -->
<g id="edge30_Node000001_Node000029" class="edge">
<title>Node1&#45;&gt;Node29</title>
<g id="a_edge30_Node000001_Node000029"><a xlink:title=" ">
<path fill="none" stroke="#63b8ff" d="M1269.04,-118.83C1394.12,-119.85 1879.25,-120.41 2274.5,-74 2277.28,-73.67 2280.15,-73.27 2283.03,-72.82"/>
<polygon fill="#63b8ff" stroke="#63b8ff" points="1269.07,-115.33 1259.04,-118.74 1269.01,-122.33 1269.07,-115.33"/>
</a>
</g>
</g>
<!-- Node30 -->
<g id="Node000030" class="node">
<title>Node30</title>
<g id="a_Node000030"><a xlink:href="watchdog_8c.html" target="_top" xlink:title=" ">
<polygon fill="white" stroke="#666666" points="2443.5,-74 2371.5,-74 2371.5,-55 2443.5,-55 2443.5,-74"/>
<text text-anchor="middle" x="2407.5" y="-62" font-family="Helvetica,sans-Serif" font-size="10.00">watchdog.c</text>
</a>
</g>
</g>
<!-- Node1&#45;&gt;Node30 -->
<g id="edge31_Node000001_Node000030" class="edge">
<title>Node1&#45;&gt;Node30</title>
<g id="a_edge31_Node000001_Node000030"><a xlink:title=" ">
<path fill="none" stroke="#63b8ff" d="M1269.41,-117.89C1426.98,-114.7 2141.97,-99.05 2362.5,-74 2365.34,-73.68 2368.28,-73.28 2371.22,-72.83"/>
<polygon fill="#63b8ff" stroke="#63b8ff" points="1268.97,-114.4 1259.04,-118.1 1269.11,-121.4 1268.97,-114.4"/>
</a>
</g>
</g>
<!-- Node16&#45;&gt;Node15 -->
<g id="edge17_Node000016_Node000015" class="edge">
<title>Node16&#45;&gt;Node15</title>
<g id="a_edge17_Node000016_Node000015"><a xlink:title=" ">
<path fill="none" stroke="#63b8ff" d="M1249.31,-50.63C1228.68,-40.87 1200.88,-27.71 1182.82,-19.17"/>
<polygon fill="#63b8ff" stroke="#63b8ff" points="1247.97,-53.87 1258.51,-54.98 1250.96,-47.54 1247.97,-53.87"/>
</a>
</g>
</g>
<!-- Node17 -->
<g id="Node000017" class="node">
<title>Node17</title>
<g id="a_Node000017"><a xlink:href="heartbeat__job_8c.html" target="_top" xlink:title=" ">
<polygon fill="white" stroke="#666666" points="1322.5,-19 1230.5,-19 1230.5,0 1322.5,0 1322.5,-19"/>
<text text-anchor="middle" x="1276.5" y="-7" font-family="Helvetica,sans-Serif" font-size="10.00">heartbeat_job.c</text>
</a>
</g>
</g>
<!-- Node16&#45;&gt;Node17 -->
<g id="edge16_Node000016_Node000017" class="edge">
<title>Node16&#45;&gt;Node17</title>
<g id="a_edge16_Node000016_Node000017"><a xlink:title=" ">
<path fill="none" stroke="#63b8ff" d="M1276.5,-44.66C1276.5,-35.93 1276.5,-25.99 1276.5,-19.09"/>
<polygon fill="#63b8ff" stroke="#63b8ff" points="1273,-44.75 1276.5,-54.75 1280,-44.75 1273,-44.75"/>
</a>
</g>
</g>
<!-- Node16&#45;&gt;Node18 -->
<g id="edge18_Node000016_Node000018" class="edge">
<title>Node16&#45;&gt;Node18</title>
<g id="a_edge18_Node000016_Node000018"><a xlink:title=" ">
<path fill="none" stroke="#63b8ff" d="M1299.94,-49.7C1316.34,-40.04 1337.73,-27.44 1351.78,-19.17"/>
<polygon fill="#63b8ff" stroke="#63b8ff" points="1297.8,-46.89 1290.96,-54.98 1301.35,-52.93 1297.8,-46.89"/>
</a>
</g>
</g>
</g>
</svg>

<g id="navigator" transform="translate(0 0)" fill="#404254">
  <rect fill="#f2f5e9" fill-opacity="0.5" stroke="#606060" stroke-width=".5" x="0" y="0" width="60" height="60"/>
  <use id="zoomplus" xlink:href="#zoomPlus" x="17" y="9" onmousedown="handleZoom(evt,'in')"/>
  <use id="zoomminus" xlink:href="#zoomMin" x="42" y="9" onmousedown="handleZoom(evt,'out')"/>
  <use id="reset" xlink:href="#resetDef" x="30" y="36" onmousedown="handleReset()"/>
   <use id="arrowup" xlink:href="#arrowUp" x="0" y="0" onmousedown="handlePan(0,-1)"/>
  <use id="arrowright" xlink:href="#arrowRight" x="0" y="0" onmousedown="handlePan(1,0)"/>
  <use id="arrowdown" xlink:href="#arrowDown" x="0" y="0" onmousedown="handlePan(0,1)"/>
  <use id="arrowleft" xlink:href="#arrowLeft" x="0" y="0" onmousedown="handlePan(-1,0)"/>
</g>
<svg viewBox="0 0 15 15" width="100%" height="30px" preserveAspectRatio="xMaxYMin meet">
 <g id="arrow_out" transform="scale(0.3 0.3)">
  <a xlink:href="log_8h__dep__incl_org.svg" target="_base">
   <rect id="button" ry="5" rx="5" y="6" x="6" height="38" width="38"
        fill="#f2f5e9" fill-opacity="0.5" stroke="#606060" stroke-width="1.0"/>
   <path id="arrow"
     d="M 11.500037,31.436501 C 11.940474,20.09759 22.043105,11.32322 32.158766,21.979434 L 37.068811,17.246167 C 37.068811,17.246167 37.088388,32 37.088388,32 L 22.160133,31.978069 C 22.160133,31.978069 26.997745,27.140456 26.997745,27.140456 C 18.528582,18.264221 13.291696,25.230495 11.500037,31.436501 z"
     style="fill:#404040;"/>
  </a>
 </g>
</svg>

<style type='text/css'>
<![CDATA[
[data-mouse-over-selected='false'] { opacity: 0.7; }
[data-mouse-over-selected='true']  { opacity: 1.0; }
]]>
</style>
<script type="application/ecmascript"><![CDATA[
document.addEventListener('DOMContentLoaded', (event) => {
  highlightEdges();
  highlightAdjacentNodes();
});
]]></script>
</svg>
