<?xml version="1.0" encoding="UTF-8" standalone="no"?>
<!DOCTYPE svg PUBLIC "-//W3C//DTD SVG 1.1//EN"
 "http://www.w3.org/Graphics/SVG/1.1/DTD/svg11.dtd">
<!-- Generated by graphviz version 12.1.2 (20240928.0832)
 -->
<!-- Title: log.h Pages: 1 -->
<svg width="1692pt" height="140pt"
 viewBox="0.00 0.00 1691.62 140.00" xmlns="http://www.w3.org/2000/svg" xmlns:xlink="http://www.w3.org/1999/xlink">
<g id="graph0" class="graph" transform="scale(1 1) rotate(0) translate(4 136)">
<title>log.h</title>
<!-- Node1 -->
<g id="Node000001" class="node">
<title>Node1</title>
<g id="a_Node000001"><a xlink:title=" ">
<polygon fill="#999999" stroke="#666666" points="862,-132 825,-132 825,-112 862,-112 862,-132"/>
<text text-anchor="middle" x="843.5" y="-118.5" font-family="Helvetica,sans-Serif" font-size="10.00">log.h</text>
</a>
</g>
</g>
<!-- Node2 -->
<g id="Node000002" class="node">
<title>Node2</title>
<g id="a_Node000002"><a xlink:href="command_8c.html" target="_top" xlink:title=" ">
<polygon fill="white" stroke="#666666" points="67,-76 0,-76 0,-56 67,-56 67,-76"/>
<text text-anchor="middle" x="33.5" y="-62.5" font-family="Helvetica,sans-Serif" font-size="10.00">command.c</text>
</a>
</g>
</g>
<!-- Node1&#45;&gt;Node2 -->
<g id="edge1_Node000001_Node000002" class="edge">
<title>Node1&#45;&gt;Node2</title>
<g id="a_edge1_Node000001_Node000002"><a xlink:title=" ">
<path fill="none" stroke="#63b8ff" d="M813.32,-120.88C709.93,-120.13 360.7,-114.68 75.5,-76 72.84,-75.64 70.1,-75.2 67.35,-74.72"/>
<polygon fill="#63b8ff" stroke="#63b8ff" points="813.15,-124.38 823.17,-120.94 813.19,-117.38 813.15,-124.38"/>
</a>
</g>
</g>
<!-- Node3 -->
<g id="Node000003" class="node">
<title>Node3</title>
<g id="a_Node000003"><a xlink:href="command__fuzzer_8cpp.html" target="_top" xlink:title=" ">
<polygon fill="white" stroke="#666666" points="194.38,-76 84.62,-76 84.62,-56 194.38,-56 194.38,-76"/>
<text text-anchor="middle" x="139.5" y="-62.5" font-family="Helvetica,sans-Serif" font-size="10.00">command_fuzzer.cpp</text>
</a>
</g>
</g>
<!-- Node1&#45;&gt;Node3 -->
<g id="edge2_Node000001_Node000003" class="edge">
<title>Node1&#45;&gt;Node3</title>
<g id="a_edge2_Node000001_Node000003"><a xlink:title=" ">
<path fill="none" stroke="#63b8ff" d="M813.17,-119.62C721.22,-115.27 437.55,-100.65 203.5,-76 200.6,-75.69 197.63,-75.36 194.63,-75"/>
<polygon fill="#63b8ff" stroke="#63b8ff" points="812.95,-123.11 823.1,-120.08 813.27,-116.12 812.95,-123.11"/>
</a>
</g>
</g>
<!-- Node4 -->
<g id="Node000004" class="node">
<title>Node4</title>
<g id="a_Node000004"><a xlink:href="filesystem_8c.html" target="_top" xlink:title=" ">
<polygon fill="white" stroke="#666666" points="282.12,-76 212.88,-76 212.88,-56 282.12,-56 282.12,-76"/>
<text text-anchor="middle" x="247.5" y="-62.5" font-family="Helvetica,sans-Serif" font-size="10.00">filesystem.c</text>
</a>
</g>
</g>
<!-- Node1&#45;&gt;Node4 -->
<g id="edge3_Node000001_Node000004" class="edge">
<title>Node1&#45;&gt;Node4</title>
<g id="a_edge3_Node000001_Node000004"><a xlink:title=" ">
<path fill="none" stroke="#63b8ff" d="M813.49,-119.83C730.26,-116.29 489.54,-104.22 291.5,-76 288.57,-75.58 285.53,-75.09 282.5,-74.55"/>
<polygon fill="#63b8ff" stroke="#63b8ff" points="813.18,-123.32 823.31,-120.23 813.47,-116.32 813.18,-123.32"/>
</a>
</g>
</g>
<!-- Node5 -->
<g id="Node000005" class="node">
<title>Node5</title>
<g id="a_Node000005"><a xlink:href="gse_8c.html" target="_top" xlink:title=" ">
<polygon fill="white" stroke="#666666" points="340.5,-76 300.5,-76 300.5,-56 340.5,-56 340.5,-76"/>
<text text-anchor="middle" x="320.5" y="-62.5" font-family="Helvetica,sans-Serif" font-size="10.00">gse.c</text>
</a>
</g>
</g>
<!-- Node1&#45;&gt;Node5 -->
<g id="edge4_Node000001_Node000005" class="edge">
<title>Node1&#45;&gt;Node5</title>
<g id="a_edge4_Node000001_Node000005"><a xlink:title=" ">
<path fill="none" stroke="#63b8ff" d="M813.69,-120.46C736.32,-118.59 523.1,-110.45 349.5,-76 346.71,-75.45 343.8,-74.73 340.96,-73.93"/>
<polygon fill="#63b8ff" stroke="#63b8ff" points="813.32,-123.95 823.4,-120.67 813.48,-116.95 813.32,-123.95"/>
</a>
</g>
</g>
<!-- Node6 -->
<g id="Node000006" class="node">
<title>Node6</title>
<g id="a_Node000006"><a xlink:href="hb__tlm__log_8c.html" target="_top" xlink:title=" ">
<polygon fill="white" stroke="#666666" points="430.25,-76 358.75,-76 358.75,-56 430.25,-56 430.25,-76"/>
<text text-anchor="middle" x="394.5" y="-62.5" font-family="Helvetica,sans-Serif" font-size="10.00">hb_tlm_log.c</text>
</a>
</g>
</g>
<!-- Node1&#45;&gt;Node6 -->
<g id="edge5_Node000001_Node000006" class="edge">
<title>Node1&#45;&gt;Node6</title>
<g id="a_edge5_Node000001_Node000006"><a xlink:title=" ">
<path fill="none" stroke="#63b8ff" d="M813.56,-118.56C746.39,-112.88 578.68,-97.63 439.5,-76 436.51,-75.54 433.41,-75.01 430.31,-74.45"/>
<polygon fill="#63b8ff" stroke="#63b8ff" points="813.14,-122.03 823.39,-119.38 813.72,-115.06 813.14,-122.03"/>
</a>
</g>
</g>
<!-- Node7 -->
<g id="Node000007" class="node">
<title>Node7</title>
<g id="a_Node000007"><a xlink:href="i2c_8c.html" target="_top" xlink:title=" ">
<polygon fill="white" stroke="#666666" points="485,-76 448,-76 448,-56 485,-56 485,-76"/>
<text text-anchor="middle" x="466.5" y="-62.5" font-family="Helvetica,sans-Serif" font-size="10.00">i2c.c</text>
</a>
</g>
</g>
<!-- Node1&#45;&gt;Node7 -->
<g id="edge6_Node000001_Node000007" class="edge">
<title>Node1&#45;&gt;Node7</title>
<g id="a_edge6_Node000001_Node000007"><a xlink:title=" ">
<path fill="none" stroke="#63b8ff" d="M813.36,-118.98C752.49,-114.49 610.8,-101.96 494.5,-76 491.51,-75.33 488.38,-74.48 485.35,-73.57"/>
<polygon fill="#63b8ff" stroke="#63b8ff" points="813.02,-122.46 823.24,-119.69 813.52,-115.48 813.02,-122.46"/>
</a>
</g>
</g>
<!-- Node8 -->
<g id="Node000008" class="node">
<title>Node8</title>
<g id="a_Node000008"><a xlink:href="ina219_8c.html" target="_top" xlink:title=" ">
<polygon fill="white" stroke="#666666" points="555.88,-76 503.12,-76 503.12,-56 555.88,-56 555.88,-76"/>
<text text-anchor="middle" x="529.5" y="-62.5" font-family="Helvetica,sans-Serif" font-size="10.00">ina219.c</text>
</a>
</g>
</g>
<!-- Node1&#45;&gt;Node8 -->
<g id="edge7_Node000001_Node000008" class="edge">
<title>Node1&#45;&gt;Node8</title>
<g id="a_edge7_Node000001_Node000008"><a xlink:title=" ">
<path fill="none" stroke="#63b8ff" d="M813.32,-116.97C762.12,-109.94 655.06,-94.41 565.5,-76 562.47,-75.38 559.31,-74.67 556.18,-73.94"/>
<polygon fill="#63b8ff" stroke="#63b8ff" points="812.64,-120.41 823.02,-118.29 813.59,-113.47 812.64,-120.41"/>
</a>
</g>
</g>
<!-- Node9 -->
<g id="Node000009" class="node">
<title>Node9</title>
<g id="a_Node000009"><a xlink:href="test_2unit_2utilities_2log_8c.html" target="_top" xlink:title=" ">
<polygon fill="white" stroke="#666666" points="611,-76 574,-76 574,-56 611,-56 611,-76"/>
<text text-anchor="middle" x="592.5" y="-62.5" font-family="Helvetica,sans-Serif" font-size="10.00">log.c</text>
</a>
</g>
</g>
<!-- Node1&#45;&gt;Node9 -->
<g id="edge8_Node000001_Node000009" class="edge">
<title>Node1&#45;&gt;Node9</title>
<g id="a_edge8_Node000001_Node000009"><a xlink:title=" ">
<path fill="none" stroke="#63b8ff" d="M813.46,-116.04C770.4,-108.68 688.8,-93.81 620.5,-76 617.54,-75.23 614.42,-74.32 611.39,-73.39"/>
<polygon fill="#63b8ff" stroke="#63b8ff" points="812.61,-119.44 823.05,-117.66 813.77,-112.54 812.61,-119.44"/>
</a>
</g>
</g>
<!-- Node10 -->
<g id="Node000010" class="node">
<title>Node10</title>
<g id="a_Node000010"><a xlink:href="utilities_2src_2log_8c.html" target="_top" xlink:title=" ">
<polygon fill="white" stroke="#666666" points="666,-76 629,-76 629,-56 666,-56 666,-76"/>
<text text-anchor="middle" x="647.5" y="-62.5" font-family="Helvetica,sans-Serif" font-size="10.00">log.c</text>
</a>
</g>
</g>
<!-- Node1&#45;&gt;Node10 -->
<g id="edge9_Node000001_Node000010" class="edge">
<title>Node1&#45;&gt;Node10</title>
<g id="a_edge9_Node000001_Node000010"><a xlink:title=" ">
<path fill="none" stroke="#63b8ff" d="M813.6,-113.46C779.9,-104.86 723.56,-90.15 675.5,-76 672.56,-75.13 669.46,-74.18 666.44,-73.23"/>
<polygon fill="#63b8ff" stroke="#63b8ff" points="812.5,-116.8 823.05,-115.87 814.22,-110.01 812.5,-116.8"/>
</a>
</g>
</g>
<!-- Node11 -->
<g id="Node000011" class="node">
<title>Node11</title>
<g id="a_Node000011"><a xlink:href="log__test__unittest_8c.html" target="_top" xlink:title=" ">
<polygon fill="white" stroke="#666666" points="780.62,-76 684.38,-76 684.38,-56 780.62,-56 780.62,-76"/>
<text text-anchor="middle" x="732.5" y="-62.5" font-family="Helvetica,sans-Serif" font-size="10.00">log_test_unittest.c</text>
</a>
</g>
</g>
<!-- Node1&#45;&gt;Node11 -->
<g id="edge10_Node000001_Node000011" class="edge">
<title>Node1&#45;&gt;Node11</title>
<g id="a_edge10_Node000001_Node000011"><a xlink:title=" ">
<path fill="none" stroke="#63b8ff" d="M814.38,-106.84C794.63,-97.23 769.06,-84.79 751.8,-76.39"/>
<polygon fill="#63b8ff" stroke="#63b8ff" points="812.79,-109.95 823.31,-111.18 815.85,-103.66 812.79,-109.95"/>
</a>
</g>
</g>
<!-- Node12 -->
<g id="Node000012" class="node">
<title>Node12</title>
<g id="a_Node000012"><a xlink:href="mag__lis3mdltr_8c.html" target="_top" xlink:title=" ">
<polygon fill="white" stroke="#666666" points="820,-20 735,-20 735,0 820,0 820,-20"/>
<text text-anchor="middle" x="777.5" y="-6.5" font-family="Helvetica,sans-Serif" font-size="10.00">mag_lis3mdltr.c</text>
</a>
</g>
</g>
<!-- Node1&#45;&gt;Node12 -->
<g id="edge11_Node000001_Node000012" class="edge">
<title>Node1&#45;&gt;Node12</title>
<g id="a_edge11_Node000001_Node000012"><a xlink:title=" ">
<path fill="none" stroke="#63b8ff" d="M832.07,-101.95C817.79,-78.14 793.91,-38.36 783.11,-20.35"/>
<polygon fill="#63b8ff" stroke="#63b8ff" points="828.95,-103.55 837.09,-110.32 834.95,-99.95 828.95,-103.55"/>
</a>
</g>
</g>
<!-- Node13 -->
<g id="Node000013" class="node">
<title>Node13</title>
<g id="a_Node000013"><a xlink:href="mag__lis3mdltr_8h.html" target="_top" xlink:title=" ">
<polygon fill="white" stroke="#666666" points="922,-76 837,-76 837,-56 922,-56 922,-76"/>
<text text-anchor="middle" x="879.5" y="-62.5" font-family="Helvetica,sans-Serif" font-size="10.00">mag_lis3mdltr.h</text>
</a>
</g>
</g>
<!-- Node1&#45;&gt;Node13 -->
<g id="edge12_Node000001_Node000013" class="edge">
<title>Node1&#45;&gt;Node13</title>
<g id="a_edge12_Node000001_Node000013"><a xlink:title=" ">
<path fill="none" stroke="#63b8ff" d="M856.07,-102.15C861.9,-93.4 868.57,-83.39 873.3,-76.3"/>
<polygon fill="#63b8ff" stroke="#63b8ff" points="853.25,-100.07 850.61,-110.33 859.07,-103.96 853.25,-100.07"/>
</a>
</g>
</g>
<!-- Node15 -->
<g id="Node000015" class="node">
<title>Node15</title>
<g id="a_Node000015"><a xlink:href="steve_8c.html" target="_top" xlink:title=" ">
<polygon fill="white" stroke="#666666" points="987.62,-20 939.38,-20 939.38,0 987.62,0 987.62,-20"/>
<text text-anchor="middle" x="963.5" y="-6.5" font-family="Helvetica,sans-Serif" font-size="10.00">steve.c</text>
</a>
</g>
</g>
<!-- Node1&#45;&gt;Node15 -->
<g id="edge22_Node000001_Node000015" class="edge">
<title>Node1&#45;&gt;Node15</title>
<g id="a_edge22_Node000001_Node000015"><a xlink:title=" ">
<path fill="none" stroke="#63b8ff" d="M873.09,-111.37C891.74,-104.08 915.27,-92.48 931.5,-76 947.56,-59.69 956.96,-33.72 961.05,-20.07"/>
<polygon fill="#63b8ff" stroke="#63b8ff" points="872.09,-108.01 863.91,-114.74 874.51,-114.58 872.09,-108.01"/>
</a>
</g>
</g>
<!-- Node16 -->
<g id="Node000016" class="node">
<title>Node16</title>
<g id="a_Node000016"><a xlink:href="main_8c.html" target="_top" xlink:title=" ">
<polygon fill="white" stroke="#666666" points="1024.12,-76 978.88,-76 978.88,-56 1024.12,-56 1024.12,-76"/>
<text text-anchor="middle" x="1001.5" y="-62.5" font-family="Helvetica,sans-Serif" font-size="10.00">main.c</text>
</a>
</g>
</g>
<!-- Node1&#45;&gt;Node16 -->
<g id="edge16_Node000001_Node000016" class="edge">
<title>Node1&#45;&gt;Node16</title>
<g id="a_edge16_Node000001_Node000016"><a xlink:title=" ">
<path fill="none" stroke="#63b8ff" d="M873.06,-110.9C903.58,-100.47 950.55,-84.41 978.43,-74.88"/>
<polygon fill="#63b8ff" stroke="#63b8ff" points="872.01,-107.56 863.68,-114.1 874.27,-114.18 872.01,-107.56"/>
</a>
</g>
</g>
<!-- Node17 -->
<g id="Node000017" class="node">
<title>Node17</title>
<g id="a_Node000017"><a xlink:href="max17048_8c.html" target="_top" xlink:title=" ">
<polygon fill="white" stroke="#666666" points="1111.12,-76 1041.88,-76 1041.88,-56 1111.12,-56 1111.12,-76"/>
<text text-anchor="middle" x="1076.5" y="-62.5" font-family="Helvetica,sans-Serif" font-size="10.00">max17048.c</text>
</a>
</g>
</g>
<!-- Node1&#45;&gt;Node17 -->
<g id="edge17_Node000001_Node000017" class="edge">
<title>Node1&#45;&gt;Node17</title>
<g id="a_edge17_Node000001_Node000017"><a xlink:title=" ">
<path fill="none" stroke="#63b8ff" d="M873.31,-114.09C916.42,-104.1 996.02,-85.65 1041.74,-75.06"/>
<polygon fill="#63b8ff" stroke="#63b8ff" points="872.6,-110.66 863.65,-116.33 874.18,-117.48 872.6,-110.66"/>
</a>
</g>
</g>
<!-- Node18 -->
<g id="Node000018" class="node">
<title>Node18</title>
<g id="a_Node000018"><a xlink:href="mram_8c.html" target="_top" xlink:title=" ">
<polygon fill="white" stroke="#666666" points="1178,-76 1129,-76 1129,-56 1178,-56 1178,-76"/>
<text text-anchor="middle" x="1153.5" y="-62.5" font-family="Helvetica,sans-Serif" font-size="10.00">mram.c</text>
</a>
</g>
</g>
<!-- Node1&#45;&gt;Node18 -->
<g id="edge18_Node000001_Node000018" class="edge">
<title>Node1&#45;&gt;Node18</title>
<g id="a_edge18_Node000001_Node000018"><a xlink:title=" ">
<path fill="none" stroke="#63b8ff" d="M873.61,-117.17C924.69,-110.43 1031.46,-95.32 1120.5,-76 1123.17,-75.42 1125.95,-74.76 1128.7,-74.06"/>
<polygon fill="#63b8ff" stroke="#63b8ff" points="873.4,-113.66 863.94,-118.43 874.31,-120.6 873.4,-113.66"/>
</a>
</g>
</g>
<!-- Node19 -->
<g id="Node000019" class="node">
<title>Node19</title>
<g id="a_Node000019"><a xlink:href="radio_8cpp.html" target="_top" xlink:title=" ">
<polygon fill="white" stroke="#666666" points="1251.38,-76 1195.62,-76 1195.62,-56 1251.38,-56 1251.38,-76"/>
<text text-anchor="middle" x="1223.5" y="-62.5" font-family="Helvetica,sans-Serif" font-size="10.00">radio.cpp</text>
</a>
</g>
</g>
<!-- Node1&#45;&gt;Node19 -->
<g id="edge19_Node000001_Node000019" class="edge">
<title>Node1&#45;&gt;Node19</title>
<g id="a_edge19_Node000001_Node000019"><a xlink:title=" ">
<path fill="none" stroke="#63b8ff" d="M873.51,-118.25C933.49,-112.48 1072.35,-97.85 1187.5,-76 1190.03,-75.52 1192.65,-74.97 1195.27,-74.38"/>
<polygon fill="#63b8ff" stroke="#63b8ff" points="873.4,-114.74 863.77,-119.17 874.06,-121.71 873.4,-114.74"/>
</a>
</g>
</g>
<!-- Node20 -->
<g id="Node000020" class="node">
<title>Node20</title>
<g id="a_Node000020"><a xlink:href="rtc__ds3231_8c.html" target="_top" xlink:title=" ">
<polygon fill="white" stroke="#666666" points="1341.62,-76 1269.38,-76 1269.38,-56 1341.62,-56 1341.62,-76"/>
<text text-anchor="middle" x="1305.5" y="-62.5" font-family="Helvetica,sans-Serif" font-size="10.00">rtc_ds3231.c</text>
</a>
</g>
</g>
<!-- Node1&#45;&gt;Node20 -->
<g id="edge20_Node000001_Node000020" class="edge">
<title>Node1&#45;&gt;Node20</title>
<g id="a_edge20_Node000001_Node000020"><a xlink:title=" ">
<path fill="none" stroke="#63b8ff" d="M873.49,-118.7C942.2,-113.21 1116.22,-98.17 1260.5,-76 1263.33,-75.56 1266.26,-75.07 1269.2,-74.55"/>
<polygon fill="#63b8ff" stroke="#63b8ff" points="873.48,-115.18 863.79,-119.46 874.03,-122.16 873.48,-115.18"/>
</a>
</g>
</g>
<!-- Node21 -->
<g id="Node000021" class="node">
<title>Node21</title>
<g id="a_Node000021"><a xlink:href="set__rtc__job_8c.html" target="_top" xlink:title=" ">
<polygon fill="white" stroke="#666666" points="1431.62,-76 1359.38,-76 1359.38,-56 1431.62,-56 1431.62,-76"/>
<text text-anchor="middle" x="1395.5" y="-62.5" font-family="Helvetica,sans-Serif" font-size="10.00">set_rtc_job.c</text>
</a>
</g>
</g>
<!-- Node1&#45;&gt;Node21 -->
<g id="edge21_Node000001_Node000021" class="edge">
<title>Node1&#45;&gt;Node21</title>
<g id="a_edge21_Node000001_Node000021"><a xlink:title=" ">
<path fill="none" stroke="#63b8ff" d="M873.91,-119.46C952.87,-115.21 1170.75,-101.87 1350.5,-76 1353.34,-75.59 1356.27,-75.12 1359.21,-74.61"/>
<polygon fill="#63b8ff" stroke="#63b8ff" points="873.77,-115.96 863.97,-119.98 874.14,-122.95 873.77,-115.96"/>
</a>
</g>
</g>
<!-- Node22 -->
<g id="Node000022" class="node">
<title>Node22</title>
<g id="a_Node000022"><a xlink:href="telemetry_8c.html" target="_top" xlink:title=" ">
<polygon fill="white" stroke="#666666" points="1513.5,-76 1449.5,-76 1449.5,-56 1513.5,-56 1513.5,-76"/>
<text text-anchor="middle" x="1481.5" y="-62.5" font-family="Helvetica,sans-Serif" font-size="10.00">telemetry.c</text>
</a>
</g>
</g>
<!-- Node1&#45;&gt;Node22 -->
<g id="edge23_Node000001_Node000022" class="edge">
<title>Node1&#45;&gt;Node22</title>
<g id="a_edge23_Node000001_Node000022"><a xlink:title=" ">
<path fill="none" stroke="#63b8ff" d="M873.9,-120.22C962,-117.63 1224.88,-107.63 1440.5,-76 1443.38,-75.58 1446.37,-75.07 1449.35,-74.51"/>
<polygon fill="#63b8ff" stroke="#63b8ff" points="873.84,-116.72 863.94,-120.5 874.03,-123.72 873.84,-116.72"/>
</a>
</g>
</g>
<!-- Node23 -->
<g id="Node000023" class="node">
<title>Node23</title>
<g id="a_Node000023"><a xlink:href="user__auth_8c.html" target="_top" xlink:title=" ">
<polygon fill="white" stroke="#666666" points="1599,-76 1532,-76 1532,-56 1599,-56 1599,-76"/>
<text text-anchor="middle" x="1565.5" y="-62.5" font-family="Helvetica,sans-Serif" font-size="10.00">user_auth.c</text>
</a>
</g>
</g>
<!-- Node1&#45;&gt;Node23 -->
<g id="edge24_Node000001_Node000023" class="edge">
<title>Node1&#45;&gt;Node23</title>
<g id="a_edge24_Node000001_Node000023"><a xlink:title=" ">
<path fill="none" stroke="#63b8ff" d="M873.87,-120.5C969.61,-118.61 1273.57,-110.13 1522.5,-76 1525.52,-75.59 1528.65,-75.08 1531.78,-74.52"/>
<polygon fill="#63b8ff" stroke="#63b8ff" points="873.95,-117 864.01,-120.69 874.08,-124 873.95,-117"/>
</a>
</g>
</g>
<!-- Node24 -->
<g id="Node000024" class="node">
<title>Node24</title>
<g id="a_Node000024"><a xlink:href="watchdog_8c.html" target="_top" xlink:title=" ">
<polygon fill="white" stroke="#666666" points="1683.62,-76 1617.38,-76 1617.38,-56 1683.62,-56 1683.62,-76"/>
<text text-anchor="middle" x="1650.5" y="-62.5" font-family="Helvetica,sans-Serif" font-size="10.00">watchdog.c</text>
</a>
</g>
</g>
<!-- Node1&#45;&gt;Node24 -->
<g id="edge25_Node000001_Node000024" class="edge">
<title>Node1&#45;&gt;Node24</title>
<g id="a_edge25_Node000001_Node000024"><a xlink:title=" ">
<path fill="none" stroke="#63b8ff" d="M873.56,-120.87C976.54,-120.09 1324.41,-114.56 1608.5,-76 1611.31,-75.62 1614.21,-75.15 1617.11,-74.63"/>
<polygon fill="#63b8ff" stroke="#63b8ff" points="873.73,-117.37 863.75,-120.94 873.78,-124.37 873.73,-117.37"/>
</a>
</g>
</g>
<!-- Node13&#45;&gt;Node12 -->
<g id="edge14_Node000013_Node000012" class="edge">
<title>Node13&#45;&gt;Node12</title>
<g id="a_edge14_Node000013_Node000012"><a xlink:title=" ">
<path fill="none" stroke="#63b8ff" d="M851.57,-50.21C833.66,-40.73 810.93,-28.7 795.41,-20.48"/>
<polygon fill="#63b8ff" stroke="#63b8ff" points="849.92,-53.3 860.4,-54.89 853.2,-47.11 849.92,-53.3"/>
</a>
</g>
</g>
<!-- Node14 -->
<g id="Node000014" class="node">
<title>Node14</title>
<g id="a_Node000014"><a xlink:href="heartbeat__job_8c.html" target="_top" xlink:title=" ">
<polygon fill="white" stroke="#666666" points="920.88,-20 838.12,-20 838.12,0 920.88,0 920.88,-20"/>
<text text-anchor="middle" x="879.5" y="-6.5" font-family="Helvetica,sans-Serif" font-size="10.00">heartbeat_job.c</text>
</a>
</g>
</g>
<!-- Node13&#45;&gt;Node14 -->
<g id="edge13_Node000013_Node000014" class="edge">
<title>Node13&#45;&gt;Node14</title>
<g id="a_edge13_Node000013_Node000014"><a xlink:title=" ">
<path fill="none" stroke="#63b8ff" d="M879.5,-44.13C879.5,-35.9 879.5,-26.85 879.5,-20.3"/>
<polygon fill="#63b8ff" stroke="#63b8ff" points="876,-44.08 879.5,-54.08 883,-44.08 876,-44.08"/>
</a>
</g>
</g>
<!-- Node13&#45;&gt;Node15 -->
<g id="edge15_Node000013_Node000015" class="edge">
<title>Node13&#45;&gt;Node15</title>
<g id="a_edge15_Node000013_Node000015"><a xlink:title=" ">
<path fill="none" stroke="#63b8ff" d="M903.55,-49.54C918.13,-40.17 936.27,-28.51 948.75,-20.48"/>
<polygon fill="#63b8ff" stroke="#63b8ff" points="901.92,-46.42 895.4,-54.78 905.71,-52.31 901.92,-46.42"/>
</a>
</g>
</g>
</g>
</svg>
