<?xml version="1.0" encoding="UTF-8" standalone="no"?>
<!DOCTYPE svg PUBLIC "-//W3C//DTD SVG 1.1//EN"
 "http://www.w3.org/Graphics/SVG/1.1/DTD/svg11.dtd">
<!-- Generated by graphviz version 12.1.2 (20240928.0832)
 -->
<!-- Title: write_error_log Pages: 1 -->
<svg width="425pt" height="142pt"
 viewBox="0.00 0.00 424.50 142.00" xmlns="http://www.w3.org/2000/svg" xmlns:xlink="http://www.w3.org/1999/xlink">

<svg id="main" version="1.1" xmlns="http://www.w3.org/2000/svg" xmlns:xlink="http://www.w3.org/1999/xlink" xml:space="preserve">

<style type="text/css"><![CDATA[
.node, .edge {opacity: 0.7;}
.node.selected, .edge.selected {opacity: 1;}
.edge:hover path { stroke: red; }
.edge:hover polygon { stroke: red; fill: red; }
]]></style>
<script type="application/ecmascript" xlink:href="svg.min.js"/>
<svg id="graph" class="graph">
<g id="graph0" class="graph" transform="scale(1 1) rotate(0) translate(4 138)">
<title>write_error_log</title>
<!-- Node1 -->
<g id="Node000001" class="node">
<title>Node1</title>
<g id="a_Node000001"><a xlink:title=" ">
<polygon fill="#999999" stroke="#666666" points="79.75,-77 0,-77 0,-57 79.75,-57 79.75,-77"/>
<text text-anchor="middle" x="39.88" y="-63.5" font-family="Helvetica,sans-Serif" font-size="10.00">write_error_log</text>
</a>
</g>
</g>
<!-- Node2 -->
<g id="Node000002" class="node">
<title>Node2</title>
<g id="a_Node000002"><a xlink:href="filesystem_8c.html#a6c3bed1f355bd1952d7ffa87405828c6" target="_top" xlink:title=" ">
<polygon fill="white" stroke="#666666" points="173.75,-134 115.75,-134 115.75,-114 173.75,-114 173.75,-134"/>
<text text-anchor="middle" x="144.75" y="-120.5" font-family="Helvetica,sans-Serif" font-size="10.00">dir_exists</text>
</a>
</g>
</g>
<!-- Node1&#45;&gt;Node2 -->
<g id="edge1_Node000001_Node000002" class="edge">
<title>Node1&#45;&gt;Node2</title>
<g id="a_edge1_Node000001_Node000002"><a xlink:title=" ">
<path fill="none" stroke="#63b8ff" d="M59.74,-77.45C75.26,-86.05 97.49,-98.37 115.19,-108.18"/>
<polygon fill="#63b8ff" stroke="#63b8ff" points="113.23,-111.09 123.68,-112.88 116.63,-104.97 113.23,-111.09"/>
</a>
</g>
</g>
<!-- Node5 -->
<g id="Node000005" class="node">
<title>Node5</title>
<g id="a_Node000005"><a xlink:href="filesystem_8c.html#a20ca64a89158ccc1eb3f714b3d8725f5" target="_top" xlink:title=" ">
<polygon fill="white" stroke="#666666" points="172.62,-96 116.88,-96 116.88,-76 172.62,-76 172.62,-96"/>
<text text-anchor="middle" x="144.75" y="-82.5" font-family="Helvetica,sans-Serif" font-size="10.00">make_dir</text>
</a>
</g>
</g>
<!-- Node1&#45;&gt;Node5 -->
<g id="edge4_Node000001_Node000005" class="edge">
<title>Node1&#45;&gt;Node5</title>
<g id="a_edge4_Node000001_Node000005"><a xlink:title=" ">
<path fill="none" stroke="#63b8ff" d="M80.06,-74.24C88.32,-75.76 97.03,-77.37 105.26,-78.89"/>
<polygon fill="#63b8ff" stroke="#63b8ff" points="104.53,-82.32 115,-80.69 105.8,-75.43 104.53,-82.32"/>
</a>
</g>
</g>
<!-- Node6 -->
<g id="Node000006" class="node">
<title>Node6</title>
<g id="a_Node000006"><a xlink:href="filesystem_8c.html#ab92b1f0beb3be903677f3293d0430b62" target="_top" xlink:title=" ">
<polygon fill="white" stroke="#666666" points="262.5,-77 209.75,-77 209.75,-57 262.5,-57 262.5,-77"/>
<text text-anchor="middle" x="236.12" y="-63.5" font-family="Helvetica,sans-Serif" font-size="10.00">read_file</text>
</a>
</g>
</g>
<!-- Node1&#45;&gt;Node6 -->
<g id="edge5_Node000001_Node000006" class="edge">
<title>Node1&#45;&gt;Node6</title>
<g id="a_edge5_Node000001_Node000006"><a xlink:title=" ">
<path fill="none" stroke="#63b8ff" d="M80.18,-67C114.69,-67 164.52,-67 198.27,-67"/>
<polygon fill="#63b8ff" stroke="#63b8ff" points="197.98,-70.5 207.98,-67 197.98,-63.5 197.98,-70.5"/>
</a>
</g>
</g>
<!-- Node7 -->
<g id="Node000007" class="node">
<title>Node7</title>
<g id="a_Node000007"><a xlink:href="filesystem_8c.html#a8e5a51c709e9d6229c1974435475292a" target="_top" xlink:title=" ">
<polygon fill="white" stroke="#666666" points="172.25,-20 117.25,-20 117.25,0 172.25,0 172.25,-20"/>
<text text-anchor="middle" x="144.75" y="-6.5" font-family="Helvetica,sans-Serif" font-size="10.00">write_file</text>
</a>
</g>
</g>
<!-- Node1&#45;&gt;Node7 -->
<g id="edge7_Node000001_Node000007" class="edge">
<title>Node1&#45;&gt;Node7</title>
<g id="a_edge7_Node000001_Node000007"><a xlink:title=" ">
<path fill="none" stroke="#63b8ff" d="M59.74,-56.55C75.26,-47.95 97.49,-35.63 115.19,-25.82"/>
<polygon fill="#63b8ff" stroke="#63b8ff" points="116.63,-29.03 123.68,-21.12 113.23,-22.91 116.63,-29.03"/>
</a>
</g>
</g>
<!-- Node3 -->
<g id="Node000003" class="node">
<title>Node3</title>
<g id="a_Node000003"><a xlink:href="filesystem_8c.html#aa109ff29a72d1beadda58bb3a54185b6" target="_top" xlink:title=" ">
<polygon fill="white" stroke="#666666" points="252.38,-124 219.88,-124 219.88,-104 252.38,-104 252.38,-124"/>
<text text-anchor="middle" x="236.12" y="-110.5" font-family="Helvetica,sans-Serif" font-size="10.00">stat</text>
</a>
</g>
</g>
<!-- Node2&#45;&gt;Node3 -->
<g id="edge2_Node000002_Node000003" class="edge">
<title>Node2&#45;&gt;Node3</title>
<g id="a_edge2_Node000002_Node000003"><a xlink:title=" ">
<path fill="none" stroke="#63b8ff" d="M174.03,-120.84C184.95,-119.61 197.4,-118.22 208.19,-117.01"/>
<polygon fill="#63b8ff" stroke="#63b8ff" points="208.45,-120.51 218,-115.92 207.67,-113.55 208.45,-120.51"/>
</a>
</g>
</g>
<!-- Node4 -->
<g id="Node000004" class="node">
<title>Node4</title>
<g id="a_Node000004"><a xlink:href="utilities_2src_2log_8c.html#a4b048be24c6c7f622a6bc6c6bf8ac435" target="_top" xlink:title=" ">
<polygon fill="white" stroke="#666666" points="416.5,-96 298.5,-96 298.5,-76 416.5,-76 416.5,-96"/>
<text text-anchor="middle" x="357.5" y="-82.5" font-family="Helvetica,sans-Serif" font-size="10.00">get_current_task_name</text>
</a>
</g>
</g>
<!-- Node3&#45;&gt;Node4 -->
<g id="edge3_Node000003_Node000004" class="edge">
<title>Node3&#45;&gt;Node4</title>
<g id="a_edge3_Node000003_Node000004"><a xlink:title=" ">
<path fill="none" stroke="#63b8ff" d="M252.73,-110.34C265.14,-107.43 283.28,-103.17 300.94,-99.03"/>
<polygon fill="#63b8ff" stroke="#63b8ff" points="301.4,-102.52 310.34,-96.83 299.8,-95.7 301.4,-102.52"/>
</a>
</g>
</g>
<!-- Node6&#45;&gt;Node4 -->
<g id="edge6_Node000006_Node000004" class="edge">
<title>Node6&#45;&gt;Node4</title>
<g id="a_edge6_Node000006_Node000004"><a xlink:title=" ">
<path fill="none" stroke="#63b8ff" d="M262.73,-71.08C269.97,-72.23 278.22,-73.54 286.75,-74.9"/>
<polygon fill="#63b8ff" stroke="#63b8ff" points="286.14,-78.35 296.57,-76.46 287.24,-71.43 286.14,-78.35"/>
</a>
</g>
</g>
</g>
</svg>
</svg>

<style type='text/css'>
<![CDATA[
[data-mouse-over-selected='false'] { opacity: 0.7; }
[data-mouse-over-selected='true']  { opacity: 1.0; }
]]>
</style>
<script type="application/ecmascript"><![CDATA[
document.addEventListener('DOMContentLoaded', (event) => {
  highlightEdges();
  highlightAdjacentNodes();
});
]]></script>
</svg>
