<?xml version="1.0" encoding="UTF-8" standalone="no"?>
<!DOCTYPE svg PUBLIC "-//W3C//DTD SVG 1.1//EN"
 "http://www.w3.org/Graphics/SVG/1.1/DTD/svg11.dtd">
<!-- Generated by graphviz version 12.1.2 (20240928.0832)
 -->
<!-- Title: mag_lis3mdltr.c Pages: 1 -->
<svg width="444pt" height="252pt"
 viewBox="0.00 0.00 444.27 252.00" xmlns="http://www.w3.org/2000/svg" xmlns:xlink="http://www.w3.org/1999/xlink">
<g id="graph0" class="graph" transform="scale(1 1) rotate(0) translate(4 248)">
<title>mag_lis3mdltr.c</title>
<!-- Node1 -->
<g id="Node000001" class="node">
<title>Node1</title>
<g id="a_Node000001"><a xlink:title=" ">
<polygon fill="#999999" stroke="#666666" points="185.52,-244 100.52,-244 100.52,-224 185.52,-224 185.52,-244"/>
<text text-anchor="middle" x="143.02" y="-230.5" font-family="Helvetica,sans-Serif" font-size="10.00">mag_lis3mdltr.c</text>
</a>
</g>
</g>
<!-- Node2 -->
<g id="Node000002" class="node">
<title>Node2</title>
<g id="a_Node000002"><a xlink:href="stdio_8h.html" target="_top" xlink:title=" ">
<polygon fill="white" stroke="#666666" points="82.65,-188 37.4,-188 37.4,-168 82.65,-168 82.65,-188"/>
<text text-anchor="middle" x="60.02" y="-174.5" font-family="Helvetica,sans-Serif" font-size="10.00">stdio.h</text>
</a>
</g>
</g>
<!-- Node1&#45;&gt;Node2 -->
<g id="edge1_Node000001_Node000002" class="edge">
<title>Node1&#45;&gt;Node2</title>
<g id="a_edge1_Node000001_Node000002"><a xlink:title=" ">
<path fill="none" stroke="#63b8ff" d="M128.57,-223.59C116.26,-215.59 98.35,-203.93 83.92,-194.54"/>
<polygon fill="#63b8ff" stroke="#63b8ff" points="86.15,-191.82 75.86,-189.3 82.34,-197.69 86.15,-191.82"/>
</a>
</g>
</g>
<!-- Node3 -->
<g id="Node000003" class="node">
<title>Node3</title>
<g id="a_Node000003"><a xlink:href="mag__lis3mdltr_8h.html" target="_top" xlink:title=" ">
<polygon fill="white" stroke="#666666" points="185.52,-188 100.52,-188 100.52,-168 185.52,-168 185.52,-188"/>
<text text-anchor="middle" x="143.02" y="-174.5" font-family="Helvetica,sans-Serif" font-size="10.00">mag_lis3mdltr.h</text>
</a>
</g>
</g>
<!-- Node1&#45;&gt;Node3 -->
<g id="edge2_Node000001_Node000003" class="edge">
<title>Node1&#45;&gt;Node3</title>
<g id="a_edge2_Node000001_Node000003"><a xlink:title=" ">
<path fill="none" stroke="#63b8ff" d="M143.02,-223.59C143.02,-217.01 143.02,-207.96 143.02,-199.73"/>
<polygon fill="#63b8ff" stroke="#63b8ff" points="146.52,-199.81 143.02,-189.81 139.52,-199.81 146.52,-199.81"/>
</a>
</g>
</g>
<!-- Node9 -->
<g id="Node000009" class="node">
<title>Node9</title>
<g id="a_Node000009"><a xlink:href="log_8h.html" target="_top" xlink:title=" ">
<polygon fill="white" stroke="#666666" points="269.52,-132 232.52,-132 232.52,-112 269.52,-112 269.52,-132"/>
<text text-anchor="middle" x="251.02" y="-118.5" font-family="Helvetica,sans-Serif" font-size="10.00">log.h</text>
</a>
</g>
</g>
<!-- Node1&#45;&gt;Node9 -->
<g id="edge19_Node000001_Node000009" class="edge">
<title>Node1&#45;&gt;Node9</title>
<g id="a_edge19_Node000001_Node000009"><a xlink:title=" ">
<path fill="none" stroke="#63b8ff" d="M154.61,-223.8C165.44,-215.01 181.87,-201.18 195.02,-188 210.09,-172.9 225.83,-154.35 236.77,-140.93"/>
<polygon fill="#63b8ff" stroke="#63b8ff" points="239.31,-143.36 242.86,-133.38 233.86,-138.97 239.31,-143.36"/>
</a>
</g>
</g>
<!-- Node4 -->
<g id="Node000004" class="node">
<title>Node4</title>
<g id="a_Node000004"><a xlink:href="simulator_2pico-sdk_2hardware_2i2c_8h.html" target="_top" xlink:title=" ">
<polygon fill="white" stroke="#666666" points="233.9,-76 154.15,-76 154.15,-56 233.9,-56 233.9,-76"/>
<text text-anchor="middle" x="194.02" y="-62.5" font-family="Helvetica,sans-Serif" font-size="10.00">hardware/i2c.h</text>
</a>
</g>
</g>
<!-- Node3&#45;&gt;Node4 -->
<g id="edge3_Node000003_Node000004" class="edge">
<title>Node3&#45;&gt;Node4</title>
<g id="a_edge3_Node000003_Node000004"><a xlink:title=" ">
<path fill="none" stroke="#63b8ff" d="M147.37,-167.62C155.65,-149.76 173.84,-110.53 184.9,-86.67"/>
<polygon fill="#63b8ff" stroke="#63b8ff" points="188.02,-88.27 189.05,-77.73 181.67,-85.33 188.02,-88.27"/>
</a>
</g>
</g>
<!-- Node5 -->
<g id="Node000005" class="node">
<title>Node5</title>
<g id="a_Node000005"><a xlink:title=" ">
<polygon fill="#e0e0e0" stroke="#999999" points="107.15,-20 58.9,-20 58.9,0 107.15,0 107.15,-20"/>
<text text-anchor="middle" x="83.02" y="-6.5" font-family="Helvetica,sans-Serif" font-size="10.00">stdint.h</text>
</a>
</g>
</g>
<!-- Node3&#45;&gt;Node5 -->
<g id="edge9_Node000003_Node000005" class="edge">
<title>Node3&#45;&gt;Node5</title>
<g id="a_edge9_Node000003_Node000005"><a xlink:title=" ">
<path fill="none" stroke="#63b8ff" d="M118.16,-167.57C84.86,-153.43 27.19,-123.23 3.02,-76 -9.42,-51.67 21.45,-33.23 48.39,-22.32"/>
<polygon fill="#63b8ff" stroke="#63b8ff" points="49.28,-25.73 57.39,-18.91 46.8,-19.18 49.28,-25.73"/>
</a>
</g>
</g>
<!-- Node8 -->
<g id="Node000008" class="node">
<title>Node8</title>
<g id="a_Node000008"><a xlink:href="gpio_8h.html" target="_top" xlink:title=" ">
<polygon fill="white" stroke="#666666" points="97.52,-76 12.52,-76 12.52,-56 97.52,-56 97.52,-76"/>
<text text-anchor="middle" x="55.02" y="-62.5" font-family="Helvetica,sans-Serif" font-size="10.00">hardware/gpio.h</text>
</a>
</g>
</g>
<!-- Node3&#45;&gt;Node8 -->
<g id="edge7_Node000003_Node000008" class="edge">
<title>Node3&#45;&gt;Node8</title>
<g id="a_edge7_Node000003_Node000008"><a xlink:title=" ">
<path fill="none" stroke="#63b8ff" d="M134.46,-167.51C126.43,-158.51 114.17,-144.54 104.02,-132 91.56,-116.59 78.05,-98.55 68.37,-85.4"/>
<polygon fill="#63b8ff" stroke="#63b8ff" points="71.43,-83.64 62.7,-77.63 65.77,-87.77 71.43,-83.64"/>
</a>
</g>
</g>
<!-- Node3&#45;&gt;Node9 -->
<g id="edge10_Node000003_Node000009" class="edge">
<title>Node3&#45;&gt;Node9</title>
<g id="a_edge10_Node000003_Node000009"><a xlink:title=" ">
<path fill="none" stroke="#63b8ff" d="M161.84,-167.59C178.38,-159.32 202.74,-147.14 221.82,-137.6"/>
<polygon fill="#63b8ff" stroke="#63b8ff" points="223.33,-140.76 230.71,-133.16 220.2,-134.5 223.33,-140.76"/>
</a>
</g>
</g>
<!-- Node13 -->
<g id="Node000013" class="node">
<title>Node13</title>
<g id="a_Node000013"><a xlink:href="drivers_2include_2i2c_8h.html" target="_top" xlink:title=" ">
<polygon fill="white" stroke="#666666" points="149.52,-132 112.52,-132 112.52,-112 149.52,-112 149.52,-132"/>
<text text-anchor="middle" x="131.02" y="-118.5" font-family="Helvetica,sans-Serif" font-size="10.00">i2c.h</text>
</a>
</g>
</g>
<!-- Node3&#45;&gt;Node13 -->
<g id="edge15_Node000003_Node000013" class="edge">
<title>Node3&#45;&gt;Node13</title>
<g id="a_edge15_Node000003_Node000013"><a xlink:title=" ">
<path fill="none" stroke="#63b8ff" d="M140.93,-167.59C139.45,-160.93 137.41,-151.75 135.57,-143.44"/>
<polygon fill="#63b8ff" stroke="#63b8ff" points="139,-142.78 133.42,-133.78 132.17,-144.3 139,-142.78"/>
</a>
</g>
</g>
<!-- Node4&#45;&gt;Node5 -->
<g id="edge4_Node000004_Node000005" class="edge">
<title>Node4&#45;&gt;Node5</title>
<g id="a_edge4_Node000004_Node000005"><a xlink:title=" ">
<path fill="none" stroke="#63b8ff" d="M174.69,-55.59C157.6,-47.28 132.42,-35.03 112.77,-25.47"/>
<polygon fill="#63b8ff" stroke="#63b8ff" points="114.39,-22.37 103.87,-21.14 111.33,-28.66 114.39,-22.37"/>
</a>
</g>
</g>
<!-- Node6 -->
<g id="Node000006" class="node">
<title>Node6</title>
<g id="a_Node000006"><a xlink:title=" ">
<polygon fill="#e0e0e0" stroke="#999999" points="204.65,-20 153.4,-20 153.4,0 204.65,0 204.65,-20"/>
<text text-anchor="middle" x="179.02" y="-6.5" font-family="Helvetica,sans-Serif" font-size="10.00">stddef.h</text>
</a>
</g>
</g>
<!-- Node4&#45;&gt;Node6 -->
<g id="edge5_Node000004_Node000006" class="edge">
<title>Node4&#45;&gt;Node6</title>
<g id="a_edge5_Node000004_Node000006"><a xlink:title=" ">
<path fill="none" stroke="#63b8ff" d="M191.41,-55.59C189.54,-48.86 186.95,-39.53 184.62,-31.15"/>
<polygon fill="#63b8ff" stroke="#63b8ff" points="188.06,-30.46 182.01,-21.76 181.32,-32.33 188.06,-30.46"/>
</a>
</g>
</g>
<!-- Node7 -->
<g id="Node000007" class="node">
<title>Node7</title>
<g id="a_Node000007"><a xlink:title=" ">
<polygon fill="#e0e0e0" stroke="#999999" points="278.9,-20 223.15,-20 223.15,0 278.9,0 278.9,-20"/>
<text text-anchor="middle" x="251.02" y="-6.5" font-family="Helvetica,sans-Serif" font-size="10.00">stdbool.h</text>
</a>
</g>
</g>
<!-- Node4&#45;&gt;Node7 -->
<g id="edge6_Node000004_Node000007" class="edge">
<title>Node4&#45;&gt;Node7</title>
<g id="a_edge6_Node000004_Node000007"><a xlink:title=" ">
<path fill="none" stroke="#63b8ff" d="M203.95,-55.59C211.96,-48.01 223.44,-37.13 233.05,-28.02"/>
<polygon fill="#63b8ff" stroke="#63b8ff" points="235.26,-30.76 240.11,-21.34 230.44,-25.68 235.26,-30.76"/>
</a>
</g>
</g>
<!-- Node8&#45;&gt;Node5 -->
<g id="edge8_Node000008_Node000005" class="edge">
<title>Node8&#45;&gt;Node5</title>
<g id="a_edge8_Node000008_Node000005"><a xlink:title=" ">
<path fill="none" stroke="#63b8ff" d="M59.9,-55.59C63.51,-48.63 68.56,-38.89 73.02,-30.29"/>
<polygon fill="#63b8ff" stroke="#63b8ff" points="76.01,-32.13 77.51,-21.64 69.8,-28.91 76.01,-32.13"/>
</a>
</g>
</g>
<!-- Node9&#45;&gt;Node7 -->
<g id="edge14_Node000009_Node000007" class="edge">
<title>Node9&#45;&gt;Node7</title>
<g id="a_edge14_Node000009_Node000007"><a xlink:title=" ">
<path fill="none" stroke="#63b8ff" d="M251.02,-111.62C251.02,-94.01 251.02,-55.59 251.02,-31.65"/>
<polygon fill="#63b8ff" stroke="#63b8ff" points="254.52,-31.87 251.02,-21.87 247.52,-31.87 254.52,-31.87"/>
</a>
</g>
</g>
<!-- Node10 -->
<g id="Node000010" class="node">
<title>Node10</title>
<g id="a_Node000010"><a xlink:href="telemetry_8h.html" target="_top" xlink:title=" ">
<polygon fill="white" stroke="#666666" points="364.02,-76 300.02,-76 300.02,-56 364.02,-56 364.02,-76"/>
<text text-anchor="middle" x="332.02" y="-62.5" font-family="Helvetica,sans-Serif" font-size="10.00">telemetry.h</text>
</a>
</g>
</g>
<!-- Node9&#45;&gt;Node10 -->
<g id="edge11_Node000009_Node000010" class="edge">
<title>Node9&#45;&gt;Node10</title>
<g id="a_edge11_Node000009_Node000010"><a xlink:title=" ">
<path fill="none" stroke="#63b8ff" d="M265.13,-111.59C277.02,-103.67 294.29,-92.16 308.3,-82.82"/>
<polygon fill="#63b8ff" stroke="#63b8ff" points="310.17,-85.78 316.55,-77.32 306.28,-79.95 310.17,-85.78"/>
</a>
</g>
</g>
<!-- Node11 -->
<g id="Node000011" class="node">
<title>Node11</title>
<g id="a_Node000011"><a xlink:title=" ">
<polygon fill="#e0e0e0" stroke="#999999" points="367.4,-20 296.65,-20 296.65,0 367.4,0 367.4,-20"/>
<text text-anchor="middle" x="332.02" y="-6.5" font-family="Helvetica,sans-Serif" font-size="10.00">FreeRTOS.h</text>
</a>
</g>
</g>
<!-- Node10&#45;&gt;Node11 -->
<g id="edge12_Node000010_Node000011" class="edge">
<title>Node10&#45;&gt;Node11</title>
<g id="a_edge12_Node000010_Node000011"><a xlink:title=" ">
<path fill="none" stroke="#63b8ff" d="M332.02,-55.59C332.02,-49.01 332.02,-39.96 332.02,-31.73"/>
<polygon fill="#63b8ff" stroke="#63b8ff" points="335.52,-31.81 332.02,-21.81 328.52,-31.81 335.52,-31.81"/>
</a>
</g>
</g>
<!-- Node12 -->
<g id="Node000012" class="node">
<title>Node12</title>
<g id="a_Node000012"><a xlink:title=" ">
<polygon fill="#e0e0e0" stroke="#999999" points="436.27,-20 385.77,-20 385.77,0 436.27,0 436.27,-20"/>
<text text-anchor="middle" x="411.02" y="-6.5" font-family="Helvetica,sans-Serif" font-size="10.00">queue.h</text>
</a>
</g>
</g>
<!-- Node10&#45;&gt;Node12 -->
<g id="edge13_Node000010_Node000012" class="edge">
<title>Node10&#45;&gt;Node12</title>
<g id="a_edge13_Node000010_Node000012"><a xlink:title=" ">
<path fill="none" stroke="#63b8ff" d="M345.78,-55.59C357.38,-47.67 374.22,-36.16 387.89,-26.82"/>
<polygon fill="#63b8ff" stroke="#63b8ff" points="389.63,-29.87 395.91,-21.33 385.68,-24.09 389.63,-29.87"/>
</a>
</g>
</g>
<!-- Node13&#45;&gt;Node4 -->
<g id="edge16_Node000013_Node000004" class="edge">
<title>Node13&#45;&gt;Node4</title>
<g id="a_edge16_Node000013_Node000004"><a xlink:title=" ">
<path fill="none" stroke="#63b8ff" d="M142,-111.59C150.94,-103.93 163.79,-92.91 174.49,-83.75"/>
<polygon fill="#63b8ff" stroke="#63b8ff" points="176.71,-86.45 182.03,-77.28 172.16,-81.13 176.71,-86.45"/>
</a>
</g>
</g>
<!-- Node13&#45;&gt;Node5 -->
<g id="edge18_Node000013_Node000005" class="edge">
<title>Node13&#45;&gt;Node5</title>
<g id="a_edge18_Node000013_Node000005"><a xlink:title=" ">
<path fill="none" stroke="#63b8ff" d="M128,-111.58C123.79,-98.8 115.69,-75.32 107.02,-56 103.18,-47.43 98.4,-38.25 94.13,-30.42"/>
<polygon fill="#63b8ff" stroke="#63b8ff" points="97.24,-28.81 89.3,-21.79 91.13,-32.22 97.24,-28.81"/>
</a>
</g>
</g>
<!-- Node13&#45;&gt;Node8 -->
<g id="edge17_Node000013_Node000008" class="edge">
<title>Node13&#45;&gt;Node8</title>
<g id="a_edge17_Node000013_Node000008"><a xlink:title=" ">
<path fill="none" stroke="#63b8ff" d="M117.79,-111.59C106.74,-103.74 90.74,-92.38 77.67,-83.09"/>
<polygon fill="#63b8ff" stroke="#63b8ff" points="79.78,-80.3 69.6,-77.36 75.72,-86 79.78,-80.3"/>
</a>
</g>
</g>
</g>
</svg>
