<?xml version="1.0" encoding="UTF-8" standalone="no"?>
<!DOCTYPE svg PUBLIC "-//W3C//DTD SVG 1.1//EN"
 "http://www.w3.org/Graphics/SVG/1.1/DTD/svg11.dtd">
<!-- Generated by graphviz version 2.43.0 (0)
 -->
<!-- Title: mag_lis3mdltr.c Pages: 1 -->
<svg width="474pt" height="247pt"
 viewBox="0.00 0.00 474.31 247.00" xmlns="http://www.w3.org/2000/svg" xmlns:xlink="http://www.w3.org/1999/xlink">

<svg id="main" version="1.1" xmlns="http://www.w3.org/2000/svg" xmlns:xlink="http://www.w3.org/1999/xlink" xml:space="preserve">

<style type="text/css"><![CDATA[
.node, .edge {opacity: 0.7;}
.node.selected, .edge.selected {opacity: 1;}
.edge:hover path { stroke: red; }
.edge:hover polygon { stroke: red; fill: red; }
]]></style>
<script type="application/ecmascript" xlink:href="svg.min.js"/>
<svg id="graph" class="graph">
<g id="graph0" class="graph" transform="scale(1 1) rotate(0) translate(4 243)">
<title>mag_lis3mdltr.c</title>
<!-- Node1 -->
<g id="Node000001" class="node">
<title>Node1</title>
<g id="a_Node000001"><a xlink:title=" ">
<polygon fill="#999999" stroke="#666666" points="201.81,-239 106.81,-239 106.81,-220 201.81,-220 201.81,-239"/>
<text text-anchor="middle" x="154.31" y="-227" font-family="Helvetica,sans-Serif" font-size="10.00">mag_lis3mdltr.c</text>
</a>
</g>
</g>
<!-- Node2 -->
<g id="Node000002" class="node">
<title>Node2</title>
<g id="a_Node000002"><a xlink:href="stdio_8h.html" target="_top" xlink:title=" ">
<polygon fill="white" stroke="#666666" points="88.31,-184 38.31,-184 38.31,-165 88.31,-165 88.31,-184"/>
<text text-anchor="middle" x="63.31" y="-172" font-family="Helvetica,sans-Serif" font-size="10.00">stdio.h</text>
</a>
</g>
</g>
<!-- Node1&#45;&gt;Node2 -->
<g id="edge1_Node000001_Node000002" class="edge">
<title>Node1&#45;&gt;Node2</title>
<g id="a_edge1_Node000001_Node000002"><a xlink:title=" ">
<path fill="none" stroke="#63b8ff" d="M139.68,-219.98C125.44,-211.69 103.55,-198.94 86.85,-189.22"/>
<polygon fill="#63b8ff" stroke="#63b8ff" points="88.59,-186.18 78.19,-184.17 85.07,-192.23 88.59,-186.18"/>
</a>
</g>
</g>
<!-- Node3 -->
<g id="Node000003" class="node">
<title>Node3</title>
<g id="a_Node000003"><a xlink:href="mag__lis3mdltr_8h.html" target="_top" xlink:title="Magnetometer Driver (LIS3MDLTR)">
<polygon fill="white" stroke="#666666" points="201.81,-184 106.81,-184 106.81,-165 201.81,-165 201.81,-184"/>
<text text-anchor="middle" x="154.31" y="-172" font-family="Helvetica,sans-Serif" font-size="10.00">mag_lis3mdltr.h</text>
</a>
</g>
</g>
<!-- Node1&#45;&gt;Node3 -->
<g id="edge2_Node000001_Node000003" class="edge">
<title>Node1&#45;&gt;Node3</title>
<g id="a_edge2_Node000001_Node000003"><a xlink:title=" ">
<path fill="none" stroke="#63b8ff" d="M154.31,-219.75C154.31,-212.8 154.31,-202.85 154.31,-194.13"/>
<polygon fill="#63b8ff" stroke="#63b8ff" points="157.81,-194.09 154.31,-184.09 150.81,-194.09 157.81,-194.09"/>
</a>
</g>
</g>
<!-- Node9 -->
<g id="Node000009" class="node">
<title>Node9</title>
<g id="a_Node000009"><a xlink:href="log_8h.html" target="_top" xlink:title=" ">
<polygon fill="white" stroke="#666666" points="284.81,-129 243.81,-129 243.81,-110 284.81,-110 284.81,-129"/>
<text text-anchor="middle" x="264.31" y="-117" font-family="Helvetica,sans-Serif" font-size="10.00">log.h</text>
</a>
</g>
</g>
<!-- Node1&#45;&gt;Node9 -->
<g id="edge19_Node000001_Node000009" class="edge">
<title>Node1&#45;&gt;Node9</title>
<g id="a_edge19_Node000001_Node000009"><a xlink:title=" ">
<path fill="none" stroke="#63b8ff" d="M166.44,-219.93C178.18,-211.39 196.2,-197.64 210.31,-184 225.52,-169.29 240.97,-150.66 251.43,-137.39"/>
<polygon fill="#63b8ff" stroke="#63b8ff" points="254.44,-139.22 257.8,-129.18 248.91,-134.93 254.44,-139.22"/>
</a>
</g>
</g>
<!-- Node4 -->
<g id="Node000004" class="node">
<title>Node4</title>
<g id="a_Node000004"><a xlink:href="simulator_2pico-sdk_2hardware_2i2c_8h.html" target="_top" xlink:title=" ">
<polygon fill="white" stroke="#666666" points="253.81,-74 164.81,-74 164.81,-55 253.81,-55 253.81,-74"/>
<text text-anchor="middle" x="209.31" y="-62" font-family="Helvetica,sans-Serif" font-size="10.00">hardware/i2c.h</text>
</a>
</g>
</g>
<!-- Node3&#45;&gt;Node4 -->
<g id="edge3_Node000003_Node000004" class="edge">
<title>Node3&#45;&gt;Node4</title>
<g id="a_edge3_Node000003_Node000004"><a xlink:title=" ">
<path fill="none" stroke="#63b8ff" d="M158.81,-164.66C167.84,-146.93 188.31,-106.73 200.23,-83.32"/>
<polygon fill="#63b8ff" stroke="#63b8ff" points="203.48,-84.66 204.9,-74.16 197.24,-81.48 203.48,-84.66"/>
</a>
</g>
</g>
<!-- Node5 -->
<g id="Node000005" class="node">
<title>Node5</title>
<g id="a_Node000005"><a xlink:title=" ">
<polygon fill="#e0e0e0" stroke="#999999" points="117.81,-19 64.81,-19 64.81,0 117.81,0 117.81,-19"/>
<text text-anchor="middle" x="91.31" y="-7" font-family="Helvetica,sans-Serif" font-size="10.00">stdint.h</text>
</a>
</g>
</g>
<!-- Node3&#45;&gt;Node5 -->
<g id="edge9_Node000003_Node000005" class="edge">
<title>Node3&#45;&gt;Node5</title>
<g id="a_edge9_Node000003_Node000005"><a xlink:title=" ">
<path fill="none" stroke="#63b8ff" d="M127.57,-164.9C91.75,-151.76 29.66,-122.92 3.31,-74 -10.58,-48.22 24.83,-30.34 54.8,-20.26"/>
<polygon fill="#63b8ff" stroke="#63b8ff" points="56.2,-23.49 64.68,-17.15 54.09,-16.82 56.2,-23.49"/>
</a>
</g>
</g>
<!-- Node8 -->
<g id="Node000008" class="node">
<title>Node8</title>
<g id="a_Node000008"><a xlink:href="gpio_8h.html" target="_top" xlink:title=" ">
<polygon fill="white" stroke="#666666" points="107.81,-74 12.81,-74 12.81,-55 107.81,-55 107.81,-74"/>
<text text-anchor="middle" x="60.31" y="-62" font-family="Helvetica,sans-Serif" font-size="10.00">hardware/gpio.h</text>
</a>
</g>
</g>
<!-- Node3&#45;&gt;Node8 -->
<g id="edge7_Node000003_Node000008" class="edge">
<title>Node3&#45;&gt;Node8</title>
<g id="a_edge7_Node000003_Node000008"><a xlink:title=" ">
<path fill="none" stroke="#63b8ff" d="M146.01,-164.75C137.63,-155.86 124.39,-141.64 113.31,-129 99.61,-113.39 84.47,-95.15 73.9,-82.23"/>
<polygon fill="#63b8ff" stroke="#63b8ff" points="76.41,-79.78 67.37,-74.24 70.98,-84.2 76.41,-79.78"/>
</a>
</g>
</g>
<!-- Node3&#45;&gt;Node9 -->
<g id="edge10_Node000003_Node000009" class="edge">
<title>Node3&#45;&gt;Node9</title>
<g id="a_edge10_Node000003_Node000009"><a xlink:title=" ">
<path fill="none" stroke="#63b8ff" d="M171.98,-164.98C189.59,-156.5 216.88,-143.35 237.23,-133.54"/>
<polygon fill="#63b8ff" stroke="#63b8ff" points="238.82,-136.66 246.31,-129.17 235.78,-130.36 238.82,-136.66"/>
</a>
</g>
</g>
<!-- Node13 -->
<g id="Node000013" class="node">
<title>Node13</title>
<g id="a_Node000013"><a xlink:href="drivers_2include_2i2c_8h.html" target="_top" xlink:title="Drivers for i2c peripheral devices.">
<polygon fill="white" stroke="#666666" points="162.31,-129 122.31,-129 122.31,-110 162.31,-110 162.31,-129"/>
<text text-anchor="middle" x="142.31" y="-117" font-family="Helvetica,sans-Serif" font-size="10.00">i2c.h</text>
</a>
</g>
</g>
<!-- Node3&#45;&gt;Node13 -->
<g id="edge15_Node000003_Node000013" class="edge">
<title>Node3&#45;&gt;Node13</title>
<g id="a_edge15_Node000003_Node000013"><a xlink:title=" ">
<path fill="none" stroke="#63b8ff" d="M152.32,-164.75C150.73,-157.72 148.45,-147.62 146.46,-138.84"/>
<polygon fill="#63b8ff" stroke="#63b8ff" points="149.87,-138.07 144.25,-129.09 143.04,-139.62 149.87,-138.07"/>
</a>
</g>
</g>
<!-- Node4&#45;&gt;Node5 -->
<g id="edge4_Node000004_Node000005" class="edge">
<title>Node4&#45;&gt;Node5</title>
<g id="a_edge4_Node000004_Node000005"><a xlink:title=" ">
<path fill="none" stroke="#63b8ff" d="M190.35,-54.98C171.28,-46.42 141.65,-33.11 119.76,-23.28"/>
<polygon fill="#63b8ff" stroke="#63b8ff" points="121.17,-20.07 110.61,-19.17 118.3,-26.46 121.17,-20.07"/>
</a>
</g>
</g>
<!-- Node6 -->
<g id="Node000006" class="node">
<title>Node6</title>
<g id="a_Node000006"><a xlink:title=" ">
<polygon fill="#e0e0e0" stroke="#999999" points="222.31,-19 166.31,-19 166.31,0 222.31,0 222.31,-19"/>
<text text-anchor="middle" x="194.31" y="-7" font-family="Helvetica,sans-Serif" font-size="10.00">stddef.h</text>
</a>
</g>
</g>
<!-- Node4&#45;&gt;Node6 -->
<g id="edge5_Node000004_Node000006" class="edge">
<title>Node4&#45;&gt;Node6</title>
<g id="a_edge5_Node000004_Node000006"><a xlink:title=" ">
<path fill="none" stroke="#63b8ff" d="M206.83,-54.75C204.84,-47.72 201.98,-37.62 199.5,-28.84"/>
<polygon fill="#63b8ff" stroke="#63b8ff" points="202.83,-27.76 196.74,-19.09 196.09,-29.66 202.83,-27.76"/>
</a>
</g>
</g>
<!-- Node7 -->
<g id="Node000007" class="node">
<title>Node7</title>
<g id="a_Node000007"><a xlink:title=" ">
<polygon fill="#e0e0e0" stroke="#999999" points="302.31,-19 240.31,-19 240.31,0 302.31,0 302.31,-19"/>
<text text-anchor="middle" x="271.31" y="-7" font-family="Helvetica,sans-Serif" font-size="10.00">stdbool.h</text>
</a>
</g>
</g>
<!-- Node4&#45;&gt;Node7 -->
<g id="edge6_Node000004_Node000007" class="edge">
<title>Node4&#45;&gt;Node7</title>
<g id="a_edge6_Node000004_Node000007"><a xlink:title=" ">
<path fill="none" stroke="#63b8ff" d="M219.27,-54.98C228.43,-47.15 242.24,-35.34 253.33,-25.86"/>
<polygon fill="#63b8ff" stroke="#63b8ff" points="255.84,-28.33 261.16,-19.17 251.29,-23.01 255.84,-28.33"/>
</a>
</g>
</g>
<!-- Node8&#45;&gt;Node5 -->
<g id="edge8_Node000008_Node000005" class="edge">
<title>Node8&#45;&gt;Node5</title>
<g id="a_edge8_Node000008_Node000005"><a xlink:title=" ">
<path fill="none" stroke="#63b8ff" d="M65.42,-54.75C69.67,-47.49 75.83,-36.95 81.08,-27.98"/>
<polygon fill="#63b8ff" stroke="#63b8ff" points="84.25,-29.49 86.28,-19.09 78.21,-25.95 84.25,-29.49"/>
</a>
</g>
</g>
<!-- Node9&#45;&gt;Node7 -->
<g id="edge14_Node000009_Node000007" class="edge">
<title>Node9&#45;&gt;Node7</title>
<g id="a_edge14_Node000009_Node000007"><a xlink:title=" ">
<path fill="none" stroke="#63b8ff" d="M264.88,-109.66C266.01,-92.17 268.56,-52.8 270.09,-29.27"/>
<polygon fill="#63b8ff" stroke="#63b8ff" points="273.59,-29.36 270.74,-19.16 266.6,-28.91 273.59,-29.36"/>
</a>
</g>
</g>
<!-- Node10 -->
<g id="Node000010" class="node">
<title>Node10</title>
<g id="a_Node000010"><a xlink:href="telemetry_8h.html" target="_top" xlink:title="Functions for packaging and queuing telemetry packets for sending.">
<polygon fill="white" stroke="#666666" points="392.31,-74 320.31,-74 320.31,-55 392.31,-55 392.31,-74"/>
<text text-anchor="middle" x="356.31" y="-62" font-family="Helvetica,sans-Serif" font-size="10.00">telemetry.h</text>
</a>
</g>
</g>
<!-- Node9&#45;&gt;Node10 -->
<g id="edge11_Node000009_Node000010" class="edge">
<title>Node9&#45;&gt;Node10</title>
<g id="a_edge11_Node000009_Node000010"><a xlink:title=" ">
<path fill="none" stroke="#63b8ff" d="M279.09,-109.98C293.49,-101.69 315.61,-88.94 332.5,-79.22"/>
<polygon fill="#63b8ff" stroke="#63b8ff" points="334.34,-82.19 341.26,-74.17 330.84,-76.13 334.34,-82.19"/>
</a>
</g>
</g>
<!-- Node11 -->
<g id="Node000011" class="node">
<title>Node11</title>
<g id="a_Node000011"><a xlink:title=" ">
<polygon fill="#e0e0e0" stroke="#999999" points="392.31,-19 320.31,-19 320.31,0 392.31,0 392.31,-19"/>
<text text-anchor="middle" x="356.31" y="-7" font-family="Helvetica,sans-Serif" font-size="10.00">FreeRTOS.h</text>
</a>
</g>
</g>
<!-- Node10&#45;&gt;Node11 -->
<g id="edge12_Node000010_Node000011" class="edge">
<title>Node10&#45;&gt;Node11</title>
<g id="a_edge12_Node000010_Node000011"><a xlink:title=" ">
<path fill="none" stroke="#63b8ff" d="M356.31,-54.75C356.31,-47.8 356.31,-37.85 356.31,-29.13"/>
<polygon fill="#63b8ff" stroke="#63b8ff" points="359.81,-29.09 356.31,-19.09 352.81,-29.09 359.81,-29.09"/>
</a>
</g>
</g>
<!-- Node12 -->
<g id="Node000012" class="node">
<title>Node12</title>
<g id="a_Node000012"><a xlink:title=" ">
<polygon fill="#e0e0e0" stroke="#999999" points="466.31,-19 410.31,-19 410.31,0 466.31,0 466.31,-19"/>
<text text-anchor="middle" x="438.31" y="-7" font-family="Helvetica,sans-Serif" font-size="10.00">queue.h</text>
</a>
</g>
</g>
<!-- Node10&#45;&gt;Node12 -->
<g id="edge13_Node000010_Node000012" class="edge">
<title>Node10&#45;&gt;Node12</title>
<g id="a_edge13_Node000010_Node000012"><a xlink:title=" ">
<path fill="none" stroke="#63b8ff" d="M369.48,-54.98C382.08,-46.84 401.31,-34.41 416.24,-24.76"/>
<polygon fill="#63b8ff" stroke="#63b8ff" points="418.39,-27.54 424.89,-19.17 414.59,-21.66 418.39,-27.54"/>
</a>
</g>
</g>
<!-- Node13&#45;&gt;Node4 -->
<g id="edge16_Node000013_Node000004" class="edge">
<title>Node13&#45;&gt;Node4</title>
<g id="a_edge16_Node000013_Node000004"><a xlink:title=" ">
<path fill="none" stroke="#63b8ff" d="M153.07,-109.98C163.07,-102.07 178.19,-90.11 190.24,-80.58"/>
<polygon fill="#63b8ff" stroke="#63b8ff" points="192.67,-83.12 198.34,-74.17 188.33,-77.63 192.67,-83.12"/>
</a>
</g>
</g>
<!-- Node13&#45;&gt;Node5 -->
<g id="edge18_Node000013_Node000005" class="edge">
<title>Node13&#45;&gt;Node5</title>
<g id="a_edge18_Node000013_Node000005"><a xlink:title=" ">
<path fill="none" stroke="#63b8ff" d="M139.11,-109.72C134.5,-97.33 125.53,-74.09 116.31,-55 111.92,-45.92 106.49,-36.13 101.82,-28.04"/>
<polygon fill="#63b8ff" stroke="#63b8ff" points="104.7,-26.04 96.61,-19.19 98.67,-29.59 104.7,-26.04"/>
</a>
</g>
</g>
<!-- Node13&#45;&gt;Node8 -->
<g id="edge17_Node000013_Node000008" class="edge">
<title>Node13&#45;&gt;Node8</title>
<g id="a_edge17_Node000013_Node000008"><a xlink:title=" ">
<path fill="none" stroke="#63b8ff" d="M129.13,-109.98C116.53,-101.84 97.3,-89.41 82.37,-79.76"/>
<polygon fill="#63b8ff" stroke="#63b8ff" points="84.02,-76.66 73.72,-74.17 80.22,-82.54 84.02,-76.66"/>
</a>
</g>
</g>
</g>
</svg>
</svg>

<style type='text/css'>
<![CDATA[
[data-mouse-over-selected='false'] { opacity: 0.7; }
[data-mouse-over-selected='true']  { opacity: 1.0; }
]]>
</style>
<script type="application/ecmascript"><![CDATA[
document.addEventListener('DOMContentLoaded', (event) => {
  highlightEdges();
  highlightAdjacentNodes();
});
]]></script>
</svg>
