<?xml version="1.0" encoding="UTF-8" standalone="no"?>
<!DOCTYPE svg PUBLIC "-//W3C//DTD SVG 1.1//EN"
 "http://www.w3.org/Graphics/SVG/1.1/DTD/svg11.dtd">
<!-- Generated by graphviz version 12.1.2 (20240928.0832)
 -->
<!-- Title: mag_test Pages: 1 -->
<svg width="332pt" height="218pt"
 viewBox="0.00 0.00 332.00 218.00" xmlns="http://www.w3.org/2000/svg" xmlns:xlink="http://www.w3.org/1999/xlink">
<g id="graph0" class="graph" transform="scale(1 1) rotate(0) translate(4 214)">
<title>mag_test</title>
<!-- Node1 -->
<g id="Node000001" class="node">
<title>Node1</title>
<g id="a_Node000001"><a xlink:title=" ">
<polygon fill="#999999" stroke="#666666" points="56.5,-115 0,-115 0,-95 56.5,-95 56.5,-115"/>
<text text-anchor="middle" x="28.25" y="-101.5" font-family="Helvetica,sans-Serif" font-size="10.00">mag_test</text>
</a>
</g>
</g>
<!-- Node2 -->
<g id="Node000002" class="node">
<title>Node2</title>
<g id="a_Node000002"><a xlink:href="i2c_8c.html#a5d09de7ed47b30c0948eb1f363cb836c" target="_top" xlink:title=" ">
<polygon fill="white" stroke="#666666" points="165.5,-210 100,-210 100,-190 165.5,-190 165.5,-210"/>
<text text-anchor="middle" x="132.75" y="-196.5" font-family="Helvetica,sans-Serif" font-size="10.00">config_i2c1</text>
</a>
</g>
</g>
<!-- Node1&#45;&gt;Node2 -->
<g id="edge1_Node000001_Node000002" class="edge">
<title>Node1&#45;&gt;Node2</title>
<g id="a_edge1_Node000001_Node000002"><a xlink:title=" ">
<path fill="none" stroke="#63b8ff" d="M35.71,-115.29C46.07,-131.13 67.76,-161.65 92.5,-181 93.8,-182.02 95.17,-183 96.58,-183.95"/>
<polygon fill="#63b8ff" stroke="#63b8ff" points="94.61,-186.85 105,-188.89 98.15,-180.81 94.61,-186.85"/>
</a>
</g>
</g>
<!-- Node3 -->
<g id="Node000003" class="node">
<title>Node3</title>
<g id="a_Node000003"><a xlink:href="mag__lis3mdltr_8c.html#ad2342b17e572d323f49fcd1ddad36652" target="_top" xlink:title=" ">
<polygon fill="white" stroke="#666666" points="165.88,-172 99.62,-172 99.62,-152 165.88,-152 165.88,-172"/>
<text text-anchor="middle" x="132.75" y="-158.5" font-family="Helvetica,sans-Serif" font-size="10.00">mag_config</text>
</a>
</g>
</g>
<!-- Node1&#45;&gt;Node3 -->
<g id="edge2_Node000001_Node000003" class="edge">
<title>Node1&#45;&gt;Node3</title>
<g id="a_edge2_Node000001_Node000003"><a xlink:title=" ">
<path fill="none" stroke="#63b8ff" d="M45.66,-115.42C58.29,-123.3 76.28,-134.22 92.5,-143 94.72,-144.2 97.02,-145.41 99.36,-146.61"/>
<polygon fill="#63b8ff" stroke="#63b8ff" points="97.7,-149.69 108.21,-151.02 100.82,-143.43 97.7,-149.69"/>
</a>
</g>
</g>
<!-- Node6 -->
<g id="Node000006" class="node">
<title>Node6</title>
<g id="a_Node000006"><a xlink:href="mag__lis3mdltr_8c.html#a7701b495ff94874c5d3bbd940b8f99ff" target="_top" xlink:title=" ">
<polygon fill="white" stroke="#666666" points="173,-134 92.5,-134 92.5,-114 173,-114 173,-134"/>
<text text-anchor="middle" x="132.75" y="-120.5" font-family="Helvetica,sans-Serif" font-size="10.00">mag_get_temp</text>
</a>
</g>
</g>
<!-- Node1&#45;&gt;Node6 -->
<g id="edge5_Node000001_Node000006" class="edge">
<title>Node1&#45;&gt;Node6</title>
<g id="a_edge5_Node000001_Node000006"><a xlink:title=" ">
<path fill="none" stroke="#63b8ff" d="M56.99,-110.14C64.41,-111.52 72.66,-113.05 80.91,-114.58"/>
<polygon fill="#63b8ff" stroke="#63b8ff" points="80.1,-117.99 90.57,-116.37 81.38,-111.1 80.1,-117.99"/>
</a>
</g>
</g>
<!-- Node7 -->
<g id="Node000007" class="node">
<title>Node7</title>
<g id="a_Node000007"><a xlink:href="mag__lis3mdltr_8c.html#a38a61bd16b9dfb232231f3518d803b65" target="_top" xlink:title=" ">
<polygon fill="white" stroke="#666666" points="164.75,-96 100.75,-96 100.75,-76 164.75,-76 164.75,-96"/>
<text text-anchor="middle" x="132.75" y="-82.5" font-family="Helvetica,sans-Serif" font-size="10.00">mag_get_x</text>
</a>
</g>
</g>
<!-- Node1&#45;&gt;Node7 -->
<g id="edge7_Node000001_Node000007" class="edge">
<title>Node1&#45;&gt;Node7</title>
<g id="a_edge7_Node000001_Node000007"><a xlink:title=" ">
<path fill="none" stroke="#63b8ff" d="M56.99,-99.86C66.93,-98.01 78.39,-95.89 89.29,-93.87"/>
<polygon fill="#63b8ff" stroke="#63b8ff" points="89.69,-97.36 98.88,-92.09 88.41,-90.47 89.69,-97.36"/>
</a>
</g>
</g>
<!-- Node8 -->
<g id="Node000008" class="node">
<title>Node8</title>
<g id="a_Node000008"><a xlink:href="mag__lis3mdltr_8c.html#a47dbf866e595e1b959c9da3b594dcc7d" target="_top" xlink:title=" ">
<polygon fill="white" stroke="#666666" points="164.75,-58 100.75,-58 100.75,-38 164.75,-38 164.75,-58"/>
<text text-anchor="middle" x="132.75" y="-44.5" font-family="Helvetica,sans-Serif" font-size="10.00">mag_get_y</text>
</a>
</g>
</g>
<!-- Node1&#45;&gt;Node8 -->
<g id="edge9_Node000001_Node000008" class="edge">
<title>Node1&#45;&gt;Node8</title>
<g id="a_edge9_Node000001_Node000008"><a xlink:title=" ">
<path fill="none" stroke="#63b8ff" d="M45.66,-94.58C58.29,-86.7 76.28,-75.78 92.5,-67 94.72,-65.8 97.02,-64.59 99.36,-63.39"/>
<polygon fill="#63b8ff" stroke="#63b8ff" points="100.82,-66.57 108.21,-58.98 97.7,-60.31 100.82,-66.57"/>
</a>
</g>
</g>
<!-- Node9 -->
<g id="Node000009" class="node">
<title>Node9</title>
<g id="a_Node000009"><a xlink:href="mag__lis3mdltr_8c.html#ae8775374a424d7f7cce47046c180954d" target="_top" xlink:title=" ">
<polygon fill="white" stroke="#666666" points="164.75,-20 100.75,-20 100.75,0 164.75,0 164.75,-20"/>
<text text-anchor="middle" x="132.75" y="-6.5" font-family="Helvetica,sans-Serif" font-size="10.00">mag_get_z</text>
</a>
</g>
</g>
<!-- Node1&#45;&gt;Node9 -->
<g id="edge11_Node000001_Node000009" class="edge">
<title>Node1&#45;&gt;Node9</title>
<g id="a_edge11_Node000001_Node000009"><a xlink:title=" ">
<path fill="none" stroke="#63b8ff" d="M35.71,-94.71C46.07,-78.87 67.76,-48.35 92.5,-29 93.8,-27.98 95.17,-27 96.58,-26.05"/>
<polygon fill="#63b8ff" stroke="#63b8ff" points="98.15,-29.19 105,-21.11 94.61,-23.15 98.15,-29.19"/>
</a>
</g>
</g>
<!-- Node4 -->
<g id="Node000004" class="node">
<title>Node4</title>
<g id="a_Node000004"><a xlink:href="i2c_8c.html#afd489cf93d14a907e09132068de8e1c9" target="_top" xlink:title=" ">
<polygon fill="white" stroke="#666666" points="324,-96 209,-96 209,-76 324,-76 324,-96"/>
<text text-anchor="middle" x="266.5" y="-82.5" font-family="Helvetica,sans-Serif" font-size="10.00">i2c_read_from_register</text>
</a>
</g>
</g>
<!-- Node3&#45;&gt;Node4 -->
<g id="edge3_Node000003_Node000004" class="edge">
<title>Node3&#45;&gt;Node4</title>
<g id="a_edge3_Node000003_Node000004"><a xlink:title=" ">
<path fill="none" stroke="#63b8ff" d="M156.37,-151.54C161.86,-148.86 167.69,-145.91 173,-143 196.2,-130.28 221.74,-114.39 240.1,-102.62"/>
<polygon fill="#63b8ff" stroke="#63b8ff" points="241.98,-105.57 248.48,-97.21 238.18,-99.69 241.98,-105.57"/>
</a>
</g>
</g>
<!-- Node5 -->
<g id="Node000005" class="node">
<title>Node5</title>
<g id="a_Node000005"><a xlink:href="i2c_8c.html#a73f9c3581b5d48d5db9c6c445034a970" target="_top" xlink:title=" ">
<polygon fill="white" stroke="#666666" points="319.5,-172 213.5,-172 213.5,-152 319.5,-152 319.5,-172"/>
<text text-anchor="middle" x="266.5" y="-158.5" font-family="Helvetica,sans-Serif" font-size="10.00">i2c_write_to_register</text>
</a>
</g>
</g>
<!-- Node3&#45;&gt;Node5 -->
<g id="edge4_Node000003_Node000005" class="edge">
<title>Node3&#45;&gt;Node5</title>
<g id="a_edge4_Node000003_Node000005"><a xlink:title=" ">
<path fill="none" stroke="#63b8ff" d="M166.32,-162C177.11,-162 189.52,-162 201.83,-162"/>
<polygon fill="#63b8ff" stroke="#63b8ff" points="201.54,-165.5 211.54,-162 201.54,-158.5 201.54,-165.5"/>
</a>
</g>
</g>
<!-- Node6&#45;&gt;Node4 -->
<g id="edge6_Node000006_Node000004" class="edge">
<title>Node6&#45;&gt;Node4</title>
<g id="a_edge6_Node000006_Node000004"><a xlink:title=" ">
<path fill="none" stroke="#63b8ff" d="M170.1,-113.52C185.08,-109.2 202.62,-104.14 218.55,-99.54"/>
<polygon fill="#63b8ff" stroke="#63b8ff" points="219.18,-103 227.81,-96.87 217.24,-96.28 219.18,-103"/>
</a>
</g>
</g>
<!-- Node7&#45;&gt;Node4 -->
<g id="edge8_Node000007_Node000004" class="edge">
<title>Node7&#45;&gt;Node4</title>
<g id="a_edge8_Node000007_Node000004"><a xlink:title=" ">
<path fill="none" stroke="#63b8ff" d="M164.97,-86C174.79,-86 186.04,-86 197.38,-86"/>
<polygon fill="#63b8ff" stroke="#63b8ff" points="197.19,-89.5 207.19,-86 197.19,-82.5 197.19,-89.5"/>
</a>
</g>
</g>
<!-- Node8&#45;&gt;Node4 -->
<g id="edge10_Node000008_Node000004" class="edge">
<title>Node8&#45;&gt;Node4</title>
<g id="a_edge10_Node000008_Node000004"><a xlink:title=" ">
<path fill="none" stroke="#63b8ff" d="M164.97,-57.01C180.9,-61.6 200.61,-67.29 218.35,-72.4"/>
<polygon fill="#63b8ff" stroke="#63b8ff" points="217.34,-75.75 227.92,-75.16 219.28,-69.03 217.34,-75.75"/>
</a>
</g>
</g>
<!-- Node9&#45;&gt;Node4 -->
<g id="edge12_Node000009_Node000004" class="edge">
<title>Node9&#45;&gt;Node4</title>
<g id="a_edge12_Node000009_Node000004"><a xlink:title=" ">
<path fill="none" stroke="#63b8ff" d="M156.37,-20.46C161.86,-23.14 167.69,-26.09 173,-29 196.2,-41.72 221.74,-57.61 240.1,-69.38"/>
<polygon fill="#63b8ff" stroke="#63b8ff" points="238.18,-72.31 248.48,-74.79 241.98,-66.43 238.18,-72.31"/>
</a>
</g>
</g>
</g>
</svg>
