<?xml version="1.0" encoding="UTF-8" standalone="no"?>
<!DOCTYPE svg PUBLIC "-//W3C//DTD SVG 1.1//EN"
 "http://www.w3.org/Graphics/SVG/1.1/DTD/svg11.dtd">
<!-- Generated by graphviz version 2.43.0 (0)
 -->
<!-- Title: mag_lis3mdltr.h Pages: 1 -->
<!--zoomable 302 -->

<svg id="main" version="1.1" xmlns="http://www.w3.org/2000/svg" xmlns:xlink="http://www.w3.org/1999/xlink" xml:space="preserve" onload="init(evt)">

<style type="text/css"><![CDATA[
.node, .edge {opacity: 0.7;}
.node.selected, .edge.selected {opacity: 1;}
.edge:hover path { stroke: red; }
.edge:hover polygon { stroke: red; fill: red; }
]]></style>

<defs>
  <circle id="rim" cx="0" cy="0" r="7"/>
  <circle id="rim2" cx="0" cy="0" r="3.5"/>
  <g id="zoomPlus">
    <use xlink:href="#rim" fill="#404040"><set attributeName="fill" to="#808080" begin="zoomplus.mouseover" end="zoomplus.mouseout"/></use>
    <path d="M-4,0h8M0,-4v8" fill="none" stroke="white" stroke-width="1.5" pointer-events="none"/>
  </g>
  <g id="zoomMin">
    <use xlink:href="#rim" fill="#404040"><set attributeName="fill" to="#808080" begin="zoomminus.mouseover" end="zoomminus.mouseout"/></use>
    <path d="M-4,0h8" fill="none" stroke="white" stroke-width="1.5" pointer-events="none"/>
  </g>
  <g id="arrowUp" transform="translate(30 24)">
    <use xlink:href="#rim"/>
    <path pointer-events="none" fill="none" stroke="white" stroke-width="1.5" d="M0,-3.0v7 M-2.5,-0.5L0,-3.0L2.5,-0.5"/>
  </g>
  <g id="arrowRight" transform="rotate(90) translate(36 -43)">
    <use xlink:href="#rim"/>
    <path pointer-events="none" fill="none" stroke="white" stroke-width="1.5" d="M0,-3.0v7 M-2.5,-0.5L0,-3.0L2.5,-0.5"/>
  </g>
  <g id="arrowDown" transform="rotate(180) translate(-30 -48)">
    <use xlink:href="#rim"/>
    <path pointer-events="none" fill="none" stroke="white" stroke-width="1.5" d="M0,-3.0v7 M-2.5,-0.5L0,-3.0L2.5,-0.5"/>
  </g>
  <g id="arrowLeft" transform="rotate(270) translate(-36 17)">
    <use xlink:href="#rim"/>
    <path pointer-events="none" fill="none" stroke="white" stroke-width="1.5" d="M0,-3.0v7 M-2.5,-0.5L0,-3.0L2.5,-0.5"/>
  </g>
  <g id="resetDef">
    <use xlink:href="#rim2" fill="#404040"><set attributeName="fill" to="#808080" begin="reset.mouseover" end="reset.mouseout"/></use>
  </g>
</defs>
<script type="application/ecmascript">
var viewWidth = 789;
var viewHeight = 302;
var sectionId = 'dynsection-0';
</script>
<script type="application/ecmascript" xlink:href="svg.min.js"/>
<svg id="graph" class="graph">
<g id="viewport">
<title>mag_lis3mdltr.h</title>
<!-- Node1 -->
<g id="Node000001" class="node">
<title>Node1</title>
<g id="a_Node000001"><a xlink:title="Magnetometer Driver (LIS3MDLTR)">
<polygon fill="#999999" stroke="#666666" points="199.54,-294 104.54,-294 104.54,-275 199.54,-275 199.54,-294"/>
<text text-anchor="middle" x="152.04" y="-282" font-family="Helvetica,sans-Serif" font-size="10.00">mag_lis3mdltr.h</text>
</a>
</g>
</g>
<!-- Node2 -->
<g id="Node000002" class="node">
<title>Node2</title>
<g id="a_Node000002"><a xlink:href="simulator_2pico-sdk_2hardware_2i2c_8h.html" target="_top" xlink:title=" ">
<polygon fill="white" stroke="#666666" points="269.54,-74 180.54,-74 180.54,-55 269.54,-55 269.54,-74"/>
<text text-anchor="middle" x="225.04" y="-62" font-family="Helvetica,sans-Serif" font-size="10.00">hardware/i2c.h</text>
</a>
</g>
</g>
<!-- Node1&#45;&gt;Node2 -->
<g id="edge1_Node000001_Node000002" class="edge">
<title>Node1&#45;&gt;Node2</title>
<g id="a_edge1_Node000001_Node000002"><a xlink:title=" ">
<path fill="none" stroke="#63b8ff" d="M154.9,-274.95C165.66,-242.81 203.87,-128.72 218.9,-83.83"/>
<polygon fill="#63b8ff" stroke="#63b8ff" points="222.26,-84.82 222.12,-74.22 215.62,-82.59 222.26,-84.82"/>
</a>
</g>
</g>
<!-- Node3 -->
<g id="Node000003" class="node">
<title>Node3</title>
<g id="a_Node000003"><a xlink:title=" ">
<polygon fill="#e0e0e0" stroke="#999999" points="138.54,-19 85.54,-19 85.54,0 138.54,0 138.54,-19"/>
<text text-anchor="middle" x="112.04" y="-7" font-family="Helvetica,sans-Serif" font-size="10.00">stdint.h</text>
</a>
</g>
</g>
<!-- Node1&#45;&gt;Node3 -->
<g id="edge7_Node000001_Node000003" class="edge">
<title>Node1&#45;&gt;Node3</title>
<g id="a_edge7_Node000001_Node000003"><a xlink:title=" ">
<path fill="none" stroke="#63b8ff" d="M116.02,-274.92C71.07,-261.82 0.04,-232.15 0.04,-175.5 0.04,-175.5 0.04,-175.5 0.04,-118.5 0.04,-89.04 -0.11,-77.39 19.04,-55 33.6,-37.97 56.16,-26.96 75.41,-20.15"/>
<polygon fill="#63b8ff" stroke="#63b8ff" points="76.71,-23.4 85.12,-16.96 74.52,-16.75 76.71,-23.4"/>
</a>
</g>
</g>
<!-- Node6 -->
<g id="Node000006" class="node">
<title>Node6</title>
<g id="a_Node000006"><a xlink:href="gpio_8h.html" target="_top" xlink:title=" ">
<polygon fill="white" stroke="#666666" points="123.54,-74 28.54,-74 28.54,-55 123.54,-55 123.54,-74"/>
<text text-anchor="middle" x="76.04" y="-62" font-family="Helvetica,sans-Serif" font-size="10.00">hardware/gpio.h</text>
</a>
</g>
</g>
<!-- Node1&#45;&gt;Node6 -->
<g id="edge5_Node000001_Node000006" class="edge">
<title>Node1&#45;&gt;Node6</title>
<g id="a_edge5_Node000001_Node000006"><a xlink:title=" ">
<path fill="none" stroke="#63b8ff" d="M149.06,-274.95C137.85,-242.81 98.08,-128.72 82.43,-83.83"/>
<polygon fill="#63b8ff" stroke="#63b8ff" points="85.68,-82.51 79.08,-74.22 79.07,-84.82 85.68,-82.51"/>
</a>
</g>
</g>
<!-- Node7 -->
<g id="Node000007" class="node">
<title>Node7</title>
<g id="a_Node000007"><a xlink:href="log_8h.html" target="_top" xlink:title=" ">
<polygon fill="white" stroke="#666666" points="318.54,-239 277.54,-239 277.54,-220 318.54,-220 318.54,-239"/>
<text text-anchor="middle" x="298.04" y="-227" font-family="Helvetica,sans-Serif" font-size="10.00">log.h</text>
</a>
</g>
</g>
<!-- Node1&#45;&gt;Node7 -->
<g id="edge8_Node000001_Node000007" class="edge">
<title>Node1&#45;&gt;Node7</title>
<g id="a_edge8_Node000001_Node000007"><a xlink:title=" ">
<path fill="none" stroke="#63b8ff" d="M175.49,-274.98C200.62,-265.86 240.58,-251.36 267.99,-241.41"/>
<polygon fill="#63b8ff" stroke="#63b8ff" points="269.26,-244.67 277.47,-237.97 266.88,-238.09 269.26,-244.67"/>
</a>
</g>
</g>
<!-- Node17 -->
<g id="Node000017" class="node">
<title>Node17</title>
<g id="a_Node000017"><a xlink:href="drivers_2include_2i2c_8h.html" target="_top" xlink:title="Drivers for i2c peripheral devices.">
<polygon fill="white" stroke="#666666" points="172.04,-129 132.04,-129 132.04,-110 172.04,-110 172.04,-129"/>
<text text-anchor="middle" x="152.04" y="-117" font-family="Helvetica,sans-Serif" font-size="10.00">i2c.h</text>
</a>
</g>
</g>
<!-- Node1&#45;&gt;Node17 -->
<g id="edge26_Node000001_Node000017" class="edge">
<title>Node1&#45;&gt;Node17</title>
<g id="a_edge26_Node000001_Node000017"><a xlink:title=" ">
<path fill="none" stroke="#63b8ff" d="M152.04,-274.74C152.04,-249.31 152.04,-175.08 152.04,-139.69"/>
<polygon fill="#63b8ff" stroke="#63b8ff" points="155.54,-139.31 152.04,-129.31 148.54,-139.31 155.54,-139.31"/>
</a>
</g>
</g>
<!-- Node2&#45;&gt;Node3 -->
<g id="edge2_Node000002_Node000003" class="edge">
<title>Node2&#45;&gt;Node3</title>
<g id="a_edge2_Node000002_Node000003"><a xlink:title=" ">
<path fill="none" stroke="#63b8ff" d="M206.88,-54.98C188.79,-46.5 160.75,-33.35 139.85,-23.54"/>
<polygon fill="#63b8ff" stroke="#63b8ff" points="141.06,-20.25 130.52,-19.17 138.09,-26.59 141.06,-20.25"/>
</a>
</g>
</g>
<!-- Node4 -->
<g id="Node000004" class="node">
<title>Node4</title>
<g id="a_Node000004"><a xlink:title=" ">
<polygon fill="#e0e0e0" stroke="#999999" points="293.04,-19 237.04,-19 237.04,0 293.04,0 293.04,-19"/>
<text text-anchor="middle" x="265.04" y="-7" font-family="Helvetica,sans-Serif" font-size="10.00">stddef.h</text>
</a>
</g>
</g>
<!-- Node2&#45;&gt;Node4 -->
<g id="edge3_Node000002_Node000004" class="edge">
<title>Node2&#45;&gt;Node4</title>
<g id="a_edge3_Node000002_Node000004"><a xlink:title=" ">
<path fill="none" stroke="#63b8ff" d="M231.64,-54.75C237.29,-47.26 245.58,-36.28 252.49,-27.13"/>
<polygon fill="#63b8ff" stroke="#63b8ff" points="255.32,-29.18 258.55,-19.09 249.74,-24.96 255.32,-29.18"/>
</a>
</g>
</g>
<!-- Node5 -->
<g id="Node000005" class="node">
<title>Node5</title>
<g id="a_Node000005"><a xlink:title=" ">
<polygon fill="#e0e0e0" stroke="#999999" points="219.04,-19 157.04,-19 157.04,0 219.04,0 219.04,-19"/>
<text text-anchor="middle" x="188.04" y="-7" font-family="Helvetica,sans-Serif" font-size="10.00">stdbool.h</text>
</a>
</g>
</g>
<!-- Node2&#45;&gt;Node5 -->
<g id="edge4_Node000002_Node000005" class="edge">
<title>Node2&#45;&gt;Node5</title>
<g id="a_edge4_Node000002_Node000005"><a xlink:title=" ">
<path fill="none" stroke="#63b8ff" d="M218.93,-54.75C213.75,-47.34 206.19,-36.5 199.84,-27.41"/>
<polygon fill="#63b8ff" stroke="#63b8ff" points="202.63,-25.29 194.03,-19.09 196.89,-29.29 202.63,-25.29"/>
</a>
</g>
</g>
<!-- Node6&#45;&gt;Node3 -->
<g id="edge6_Node000006_Node000003" class="edge">
<title>Node6&#45;&gt;Node3</title>
<g id="a_edge6_Node000006_Node000003"><a xlink:title=" ">
<path fill="none" stroke="#63b8ff" d="M81.98,-54.75C87.01,-47.34 94.37,-36.5 100.55,-27.41"/>
<polygon fill="#63b8ff" stroke="#63b8ff" points="103.48,-29.33 106.2,-19.09 97.69,-25.39 103.48,-29.33"/>
</a>
</g>
</g>
<!-- Node7&#45;&gt;Node5 -->
<g id="edge25_Node000007_Node000005" class="edge">
<title>Node7&#45;&gt;Node5</title>
<g id="a_edge25_Node000007_Node000005"><a xlink:title=" ">
<path fill="none" stroke="#63b8ff" d="M299.68,-219.93C304.37,-192.85 315.2,-107.82 278.04,-55 266.44,-38.52 246.97,-27.85 229.1,-21.1"/>
<polygon fill="#63b8ff" stroke="#63b8ff" points="229.99,-17.71 219.39,-17.75 227.7,-24.32 229.99,-17.71"/>
</a>
</g>
</g>
<!-- Node8 -->
<g id="Node000008" class="node">
<title>Node8</title>
<g id="a_Node000008"><a xlink:href="telemetry_8h.html" target="_top" xlink:title="Functions for packaging and queuing telemetry packets for sending.">
<polygon fill="white" stroke="#666666" points="673.04,-184 601.04,-184 601.04,-165 673.04,-165 673.04,-184"/>
<text text-anchor="middle" x="637.04" y="-172" font-family="Helvetica,sans-Serif" font-size="10.00">telemetry.h</text>
</a>
</g>
</g>
<!-- Node7&#45;&gt;Node8 -->
<g id="edge9_Node000007_Node000008" class="edge">
<title>Node7&#45;&gt;Node8</title>
<g id="a_edge9_Node000007_Node000008"><a xlink:title=" ">
<path fill="none" stroke="#63b8ff" d="M318.73,-225.26C372.28,-216.89 516.38,-194.36 590.94,-182.71"/>
<polygon fill="#63b8ff" stroke="#63b8ff" points="591.64,-186.14 600.98,-181.14 590.56,-179.22 591.64,-186.14"/>
</a>
</g>
</g>
<!-- Node9 -->
<g id="Node000009" class="node">
<title>Node9</title>
<g id="a_Node000009"><a xlink:title=" ">
<polygon fill="#e0e0e0" stroke="#999999" points="781.04,-19 709.04,-19 709.04,0 781.04,0 781.04,-19"/>
<text text-anchor="middle" x="745.04" y="-7" font-family="Helvetica,sans-Serif" font-size="10.00">FreeRTOS.h</text>
</a>
</g>
</g>
<!-- Node8&#45;&gt;Node9 -->
<g id="edge10_Node000008_Node000009" class="edge">
<title>Node8&#45;&gt;Node9</title>
<g id="a_edge10_Node000008_Node000009"><a xlink:title=" ">
<path fill="none" stroke="#63b8ff" d="M643.55,-164.73C650.12,-155.83 660.48,-141.59 669.04,-129 693.08,-93.62 719.76,-51.24 734.25,-27.96"/>
<polygon fill="#63b8ff" stroke="#63b8ff" points="737.37,-29.57 739.66,-19.23 731.42,-25.88 737.37,-29.57"/>
</a>
</g>
</g>
<!-- Node10 -->
<g id="Node000010" class="node">
<title>Node10</title>
<g id="a_Node000010"><a xlink:title=" ">
<polygon fill="#e0e0e0" stroke="#999999" points="691.04,-19 635.04,-19 635.04,0 691.04,0 691.04,-19"/>
<text text-anchor="middle" x="663.04" y="-7" font-family="Helvetica,sans-Serif" font-size="10.00">queue.h</text>
</a>
</g>
</g>
<!-- Node8&#45;&gt;Node10 -->
<g id="edge11_Node000008_Node000010" class="edge">
<title>Node8&#45;&gt;Node10</title>
<g id="a_edge11_Node000008_Node000010"><a xlink:title=" ">
<path fill="none" stroke="#63b8ff" d="M640.92,-164.83C644.69,-156.01 650.24,-141.83 653.04,-129 660.6,-94.33 662.51,-52.8 662.96,-29.25"/>
<polygon fill="#63b8ff" stroke="#63b8ff" points="666.46,-29.28 663.07,-19.24 659.46,-29.2 666.46,-29.28"/>
</a>
</g>
</g>
<!-- Node11 -->
<g id="Node000011" class="node">
<title>Node11</title>
<g id="a_Node000011"><a xlink:href="file__downlink_8h.html" target="_top" xlink:title=" ">
<polygon fill="white" stroke="#666666" points="644.04,-129 554.04,-129 554.04,-110 644.04,-110 644.04,-129"/>
<text text-anchor="middle" x="599.04" y="-117" font-family="Helvetica,sans-Serif" font-size="10.00">file_downlink.h</text>
</a>
</g>
</g>
<!-- Node8&#45;&gt;Node11 -->
<g id="edge12_Node000008_Node000011" class="edge">
<title>Node8&#45;&gt;Node11</title>
<g id="a_edge12_Node000008_Node000011"><a xlink:title=" ">
<path fill="none" stroke="#63b8ff" d="M630.76,-164.75C625.45,-157.34 617.68,-146.5 611.16,-137.41"/>
<polygon fill="#63b8ff" stroke="#63b8ff" points="613.87,-135.18 605.2,-129.09 608.18,-139.26 613.87,-135.18"/>
</a>
</g>
</g>
<!-- Node11&#45;&gt;Node9 -->
<g id="edge13_Node000011_Node000009" class="edge">
<title>Node11&#45;&gt;Node9</title>
<g id="a_edge13_Node000011_Node000009"><a xlink:title=" ">
<path fill="none" stroke="#63b8ff" d="M610.74,-109.84C635.62,-91.44 694.03,-48.23 724.98,-25.34"/>
<polygon fill="#63b8ff" stroke="#63b8ff" points="727.32,-27.96 733.28,-19.2 723.16,-22.33 727.32,-27.96"/>
</a>
</g>
</g>
<!-- Node11&#45;&gt;Node10 -->
<g id="edge14_Node000011_Node000010" class="edge">
<title>Node11&#45;&gt;Node10</title>
<g id="a_edge14_Node000011_Node000010"><a xlink:title=" ">
<path fill="none" stroke="#63b8ff" d="M601.02,-109.8C604.16,-97.1 611.08,-73.04 622.04,-55 628.42,-44.5 637.53,-34.3 645.55,-26.32"/>
<polygon fill="#63b8ff" stroke="#63b8ff" points="648.24,-28.59 653.05,-19.15 643.4,-23.53 648.24,-28.59"/>
</a>
</g>
</g>
<!-- Node12 -->
<g id="Node000012" class="node">
<title>Node12</title>
<g id="a_Node000012"><a xlink:href="filesystem_8h.html" target="_top" xlink:title="Handles file system operations and management.">
<polygon fill="white" stroke="#666666" points="480.54,-74 403.54,-74 403.54,-55 480.54,-55 480.54,-74"/>
<text text-anchor="middle" x="442.04" y="-62" font-family="Helvetica,sans-Serif" font-size="10.00">filesystem.h</text>
</a>
</g>
</g>
<!-- Node11&#45;&gt;Node12 -->
<g id="edge15_Node000011_Node000012" class="edge">
<title>Node11&#45;&gt;Node12</title>
<g id="a_edge15_Node000011_Node000012"><a xlink:title=" ">
<path fill="none" stroke="#63b8ff" d="M573.81,-109.98C547.68,-101.16 506.64,-87.31 477.3,-77.41"/>
<polygon fill="#63b8ff" stroke="#63b8ff" points="478.05,-73.96 467.46,-74.08 475.81,-80.6 478.05,-73.96"/>
</a>
</g>
</g>
<!-- Node12&#45;&gt;Node3 -->
<g id="edge23_Node000012_Node000003" class="edge">
<title>Node12&#45;&gt;Node3</title>
<g id="a_edge23_Node000012_Node000003"><a xlink:title=" ">
<path fill="none" stroke="#63b8ff" d="M403.34,-58.67C348.83,-51.64 246.13,-37.57 148.73,-18.99"/>
<polygon fill="#63b8ff" stroke="#63b8ff" points="149.2,-15.51 138.72,-17.06 147.88,-22.39 149.2,-15.51"/>
</a>
</g>
</g>
<!-- Node12&#45;&gt;Node4 -->
<g id="edge22_Node000012_Node000004" class="edge">
<title>Node12&#45;&gt;Node4</title>
<g id="a_edge22_Node000012_Node000004"><a xlink:title=" ">
<path fill="none" stroke="#63b8ff" d="M413.6,-54.98C383.58,-45.99 336.09,-31.78 302.92,-21.84"/>
<polygon fill="#63b8ff" stroke="#63b8ff" points="303.7,-18.42 293.11,-18.91 301.69,-25.13 303.7,-18.42"/>
</a>
</g>
</g>
<!-- Node12&#45;&gt;Node5 -->
<g id="edge24_Node000012_Node000005" class="edge">
<title>Node12&#45;&gt;Node5</title>
<g id="a_edge24_Node000012_Node000005"><a xlink:title=" ">
<path fill="none" stroke="#63b8ff" d="M403.37,-55.51C362.51,-47.06 295.92,-33.25 228.93,-19.18"/>
<polygon fill="#63b8ff" stroke="#63b8ff" points="229.55,-15.73 219.04,-17.1 228.11,-22.58 229.55,-15.73"/>
</a>
</g>
</g>
<!-- Node12&#45;&gt;Node9 -->
<g id="edge16_Node000012_Node000009" class="edge">
<title>Node12&#45;&gt;Node9</title>
<g id="a_edge16_Node000012_Node000009"><a xlink:title=" ">
<path fill="none" stroke="#63b8ff" d="M480.97,-56.98C529.59,-48.8 615.57,-34.19 698.82,-19.2"/>
<polygon fill="#63b8ff" stroke="#63b8ff" points="699.48,-22.64 708.7,-17.42 698.23,-15.75 699.48,-22.64"/>
</a>
</g>
</g>
<!-- Node12&#45;&gt;Node10 -->
<g id="edge17_Node000012_Node000010" class="edge">
<title>Node12&#45;&gt;Node10</title>
<g id="a_edge17_Node000012_Node000010"><a xlink:title=" ">
<path fill="none" stroke="#63b8ff" d="M477.54,-54.98C517.93,-45.3 583.61,-29.55 625.01,-19.62"/>
<polygon fill="#63b8ff" stroke="#63b8ff" points="626.07,-22.96 634.98,-17.23 624.44,-16.16 626.07,-22.96"/>
</a>
</g>
</g>
<!-- Node13 -->
<g id="Node000013" class="node">
<title>Node13</title>
<g id="a_Node000013"><a xlink:title=" ">
<polygon fill="#e0e0e0" stroke="#999999" points="358.54,-19 311.54,-19 311.54,0 358.54,0 358.54,-19"/>
<text text-anchor="middle" x="335.04" y="-7" font-family="Helvetica,sans-Serif" font-size="10.00">task.h</text>
</a>
</g>
</g>
<!-- Node12&#45;&gt;Node13 -->
<g id="edge18_Node000012_Node000013" class="edge">
<title>Node12&#45;&gt;Node13</title>
<g id="a_edge18_Node000012_Node000013"><a xlink:title=" ">
<path fill="none" stroke="#63b8ff" d="M424.85,-54.98C407.79,-46.54 381.41,-33.47 361.64,-23.68"/>
<polygon fill="#63b8ff" stroke="#63b8ff" points="363.06,-20.47 352.54,-19.17 359.95,-26.75 363.06,-20.47"/>
</a>
</g>
</g>
<!-- Node14 -->
<g id="Node000014" class="node">
<title>Node14</title>
<g id="a_Node000014"><a xlink:title=" ">
<polygon fill="#e0e0e0" stroke="#999999" points="409.04,-19 377.04,-19 377.04,0 409.04,0 409.04,-19"/>
<text text-anchor="middle" x="393.04" y="-7" font-family="Helvetica,sans-Serif" font-size="10.00">ff.h</text>
</a>
</g>
</g>
<!-- Node12&#45;&gt;Node14 -->
<g id="edge19_Node000012_Node000014" class="edge">
<title>Node12&#45;&gt;Node14</title>
<g id="a_edge19_Node000012_Node000014"><a xlink:title=" ">
<path fill="none" stroke="#63b8ff" d="M433.95,-54.75C426.88,-47.11 416.45,-35.82 407.89,-26.56"/>
<polygon fill="#63b8ff" stroke="#63b8ff" points="410.34,-24.06 400.98,-19.09 405.2,-28.81 410.34,-24.06"/>
</a>
</g>
</g>
<!-- Node15 -->
<g id="Node000015" class="node">
<title>Node15</title>
<g id="a_Node000015"><a xlink:href="filesystem__errors_8h.html" target="_top" xlink:title=" ">
<polygon fill="white" stroke="#666666" points="537.04,-19 427.04,-19 427.04,0 537.04,0 537.04,-19"/>
<text text-anchor="middle" x="482.04" y="-7" font-family="Helvetica,sans-Serif" font-size="10.00">filesystem_errors.h</text>
</a>
</g>
</g>
<!-- Node12&#45;&gt;Node15 -->
<g id="edge20_Node000012_Node000015" class="edge">
<title>Node12&#45;&gt;Node15</title>
<g id="a_edge20_Node000012_Node000015"><a xlink:title=" ">
<path fill="none" stroke="#63b8ff" d="M448.64,-54.75C454.29,-47.26 462.58,-36.28 469.49,-27.13"/>
<polygon fill="#63b8ff" stroke="#63b8ff" points="472.32,-29.18 475.55,-19.09 466.74,-24.96 472.32,-29.18"/>
</a>
</g>
</g>
<!-- Node16 -->
<g id="Node000016" class="node">
<title>Node16</title>
<g id="a_Node000016"><a xlink:title=" ">
<polygon fill="#e0e0e0" stroke="#999999" points="617.04,-19 555.04,-19 555.04,0 617.04,0 617.04,-19"/>
<text text-anchor="middle" x="586.04" y="-7" font-family="Helvetica,sans-Serif" font-size="10.00">semphr.h</text>
</a>
</g>
</g>
<!-- Node12&#45;&gt;Node16 -->
<g id="edge21_Node000012_Node000016" class="edge">
<title>Node12&#45;&gt;Node16</title>
<g id="a_edge21_Node000012_Node000016"><a xlink:title=" ">
<path fill="none" stroke="#63b8ff" d="M465.17,-54.98C488.86,-46.27 525.91,-32.63 552.74,-22.75"/>
<polygon fill="#63b8ff" stroke="#63b8ff" points="554.3,-25.91 562.48,-19.17 551.89,-19.34 554.3,-25.91"/>
</a>
</g>
</g>
<!-- Node17&#45;&gt;Node2 -->
<g id="edge27_Node000017_Node000002" class="edge">
<title>Node17&#45;&gt;Node2</title>
<g id="a_edge27_Node000017_Node000002"><a xlink:title=" ">
<path fill="none" stroke="#63b8ff" d="M163.77,-109.98C174.77,-102 191.46,-89.88 204.64,-80.31"/>
<polygon fill="#63b8ff" stroke="#63b8ff" points="207.06,-82.88 213.1,-74.17 202.95,-77.21 207.06,-82.88"/>
</a>
</g>
</g>
<!-- Node17&#45;&gt;Node3 -->
<g id="edge29_Node000017_Node000003" class="edge">
<title>Node17&#45;&gt;Node3</title>
<g id="a_edge29_Node000017_Node000003"><a xlink:title=" ">
<path fill="none" stroke="#63b8ff" d="M149.64,-109.76C146.17,-97.42 139.36,-74.23 132.04,-55 128.65,-46.09 124.37,-36.42 120.65,-28.38"/>
<polygon fill="#63b8ff" stroke="#63b8ff" points="123.77,-26.78 116.33,-19.24 117.44,-29.77 123.77,-26.78"/>
</a>
</g>
</g>
<!-- Node17&#45;&gt;Node6 -->
<g id="edge28_Node000017_Node000006" class="edge">
<title>Node17&#45;&gt;Node6</title>
<g id="a_edge28_Node000017_Node000006"><a xlink:title=" ">
<path fill="none" stroke="#63b8ff" d="M139.83,-109.98C128.26,-101.92 110.66,-89.65 96.88,-80.03"/>
<polygon fill="#63b8ff" stroke="#63b8ff" points="98.67,-77.02 88.47,-74.17 94.67,-82.76 98.67,-77.02"/>
</a>
</g>
</g>
</g>
</svg>

<g id="navigator" transform="translate(0 0)" fill="#404254">
  <rect fill="#f2f5e9" fill-opacity="0.5" stroke="#606060" stroke-width=".5" x="0" y="0" width="60" height="60"/>
  <use id="zoomplus" xlink:href="#zoomPlus" x="17" y="9" onmousedown="handleZoom(evt,'in')"/>
  <use id="zoomminus" xlink:href="#zoomMin" x="42" y="9" onmousedown="handleZoom(evt,'out')"/>
  <use id="reset" xlink:href="#resetDef" x="30" y="36" onmousedown="handleReset()"/>
   <use id="arrowup" xlink:href="#arrowUp" x="0" y="0" onmousedown="handlePan(0,-1)"/>
  <use id="arrowright" xlink:href="#arrowRight" x="0" y="0" onmousedown="handlePan(1,0)"/>
  <use id="arrowdown" xlink:href="#arrowDown" x="0" y="0" onmousedown="handlePan(0,1)"/>
  <use id="arrowleft" xlink:href="#arrowLeft" x="0" y="0" onmousedown="handlePan(-1,0)"/>
</g>
<svg viewBox="0 0 15 15" width="100%" height="30px" preserveAspectRatio="xMaxYMin meet">
 <g id="arrow_out" transform="scale(0.3 0.3)">
  <a xlink:href="mag__lis3mdltr_8h__incl_org.svg" target="_base">
   <rect id="button" ry="5" rx="5" y="6" x="6" height="38" width="38"
        fill="#f2f5e9" fill-opacity="0.5" stroke="#606060" stroke-width="1.0"/>
   <path id="arrow"
     d="M 11.500037,31.436501 C 11.940474,20.09759 22.043105,11.32322 32.158766,21.979434 L 37.068811,17.246167 C 37.068811,17.246167 37.088388,32 37.088388,32 L 22.160133,31.978069 C 22.160133,31.978069 26.997745,27.140456 26.997745,27.140456 C 18.528582,18.264221 13.291696,25.230495 11.500037,31.436501 z"
     style="fill:#404040;"/>
  </a>
 </g>
</svg>

<style type='text/css'>
<![CDATA[
[data-mouse-over-selected='false'] { opacity: 0.7; }
[data-mouse-over-selected='true']  { opacity: 1.0; }
]]>
</style>
<script type="application/ecmascript"><![CDATA[
document.addEventListener('DOMContentLoaded', (event) => {
  highlightEdges();
  highlightAdjacentNodes();
});
]]></script>
</svg>
