<?xml version="1.0" encoding="UTF-8" standalone="no"?>
<!DOCTYPE svg PUBLIC "-//W3C//DTD SVG 1.1//EN"
 "http://www.w3.org/Graphics/SVG/1.1/DTD/svg11.dtd">
<!-- Generated by graphviz version 12.1.2 (20240928.0832)
 -->
<!-- Title: mag_config Pages: 1 -->
<svg width="225pt" height="66pt"
 viewBox="0.00 0.00 225.25 66.00" xmlns="http://www.w3.org/2000/svg" xmlns:xlink="http://www.w3.org/1999/xlink">
<g id="graph0" class="graph" transform="scale(1 1) rotate(0) translate(4 62)">
<title>mag_config</title>
<!-- Node1 -->
<g id="Node000001" class="node">
<title>Node1</title>
<g id="a_Node000001"><a xlink:title=" ">
<polygon fill="#999999" stroke="#666666" points="66.25,-39 0,-39 0,-19 66.25,-19 66.25,-39"/>
<text text-anchor="middle" x="33.12" y="-25.5" font-family="Helvetica,sans-Serif" font-size="10.00">mag_config</text>
</a>
</g>
</g>
<!-- Node2 -->
<g id="Node000002" class="node">
<title>Node2</title>
<g id="a_Node000002"><a xlink:href="i2c_8c.html#afd489cf93d14a907e09132068de8e1c9" target="_top" xlink:title=" ">
<polygon fill="white" stroke="#666666" points="217.25,-58 102.25,-58 102.25,-38 217.25,-38 217.25,-58"/>
<text text-anchor="middle" x="159.75" y="-44.5" font-family="Helvetica,sans-Serif" font-size="10.00">i2c_read_from_register</text>
</a>
</g>
</g>
<!-- Node1&#45;&gt;Node2 -->
<g id="edge1_Node000001_Node000002" class="edge">
<title>Node1&#45;&gt;Node2</title>
<g id="a_edge1_Node000001_Node000002"><a xlink:title=" ">
<path fill="none" stroke="#63b8ff" d="M66.54,-33.94C74.07,-35.09 82.35,-36.35 90.77,-37.64"/>
<polygon fill="#63b8ff" stroke="#63b8ff" points="89.96,-41.05 100.38,-39.1 91.02,-34.13 89.96,-41.05"/>
</a>
</g>
</g>
<!-- Node3 -->
<g id="Node000003" class="node">
<title>Node3</title>
<g id="a_Node000003"><a xlink:href="i2c_8c.html#a73f9c3581b5d48d5db9c6c445034a970" target="_top" xlink:title=" ">
<polygon fill="white" stroke="#666666" points="212.75,-20 106.75,-20 106.75,0 212.75,0 212.75,-20"/>
<text text-anchor="middle" x="159.75" y="-6.5" font-family="Helvetica,sans-Serif" font-size="10.00">i2c_write_to_register</text>
</a>
</g>
</g>
<!-- Node1&#45;&gt;Node3 -->
<g id="edge2_Node000001_Node000003" class="edge">
<title>Node1&#45;&gt;Node3</title>
<g id="a_edge2_Node000001_Node000003"><a xlink:title=" ">
<path fill="none" stroke="#63b8ff" d="M66.54,-24.06C75.45,-22.7 85.43,-21.18 95.44,-19.65"/>
<polygon fill="#63b8ff" stroke="#63b8ff" points="95.85,-23.13 105.2,-18.16 94.79,-16.21 95.85,-23.13"/>
</a>
</g>
</g>
</g>
</svg>
