<?xml version="1.0" encoding="UTF-8" standalone="no"?>
<!DOCTYPE svg PUBLIC "-//W3C//DTD SVG 1.1//EN"
 "http://www.w3.org/Graphics/SVG/1.1/DTD/svg11.dtd">
<!-- Generated by graphviz version 2.43.0 (0)
 -->
<!-- Title: mag_lis3mdltr.h Pages: 1 -->
<svg width="474pt" height="192pt"
 viewBox="0.00 0.00 473.99 192.00" xmlns="http://www.w3.org/2000/svg" xmlns:xlink="http://www.w3.org/1999/xlink">
<g id="graph0" class="graph" transform="scale(1 1) rotate(0) translate(4 188)">
<title>mag_lis3mdltr.h</title>
<!-- Node1 -->
<g id="Node000001" class="node">
<title>Node1</title>
<g id="a_Node000001"><a xlink:title="Magnetometer Driver (LIS3MDLTR)">
<polygon fill="#999999" stroke="#666666" points="183.49,-184 88.49,-184 88.49,-165 183.49,-165 183.49,-184"/>
<text text-anchor="middle" x="135.99" y="-172" font-family="Helvetica,sans-Serif" font-size="10.00">mag_lis3mdltr.h</text>
</a>
</g>
</g>
<!-- Node2 -->
<g id="Node000002" class="node">
<title>Node2</title>
<g id="a_Node000002"><a xlink:href="simulator_2pico-sdk_2hardware_2i2c_8h.html" target="_top" xlink:title=" ">
<polygon fill="white" stroke="#666666" points="253.49,-74 164.49,-74 164.49,-55 253.49,-55 253.49,-74"/>
<text text-anchor="middle" x="208.99" y="-62" font-family="Helvetica,sans-Serif" font-size="10.00">hardware/i2c.h</text>
</a>
</g>
</g>
<!-- Node1&#45;&gt;Node2 -->
<g id="edge1_Node000001_Node000002" class="edge">
<title>Node1&#45;&gt;Node2</title>
<g id="a_edge1_Node000001_Node000002"><a xlink:title=" ">
<path fill="none" stroke="#63b8ff" d="M141.96,-164.66C154.05,-146.77 181.61,-106 197.37,-82.69"/>
<polygon fill="#63b8ff" stroke="#63b8ff" points="200.44,-84.4 203.14,-74.16 194.64,-80.48 200.44,-84.4"/>
</a>
</g>
</g>
<!-- Node3 -->
<g id="Node000003" class="node">
<title>Node3</title>
<g id="a_Node000003"><a xlink:title=" ">
<polygon fill="#e0e0e0" stroke="#999999" points="117.49,-19 64.49,-19 64.49,0 117.49,0 117.49,-19"/>
<text text-anchor="middle" x="90.99" y="-7" font-family="Helvetica,sans-Serif" font-size="10.00">stdint.h</text>
</a>
</g>
</g>
<!-- Node1&#45;&gt;Node3 -->
<g id="edge7_Node000001_Node000003" class="edge">
<title>Node1&#45;&gt;Node3</title>
<g id="a_edge7_Node000001_Node000003"><a xlink:title=" ">
<path fill="none" stroke="#63b8ff" d="M114.45,-164.9C83.17,-151.09 26.36,-120.67 2.99,-74 -10.08,-47.89 24.92,-30.12 54.59,-20.16"/>
<polygon fill="#63b8ff" stroke="#63b8ff" points="55.88,-23.43 64.37,-17.09 53.78,-16.75 55.88,-23.43"/>
</a>
</g>
</g>
<!-- Node6 -->
<g id="Node000006" class="node">
<title>Node6</title>
<g id="a_Node000006"><a xlink:href="gpio_8h.html" target="_top" xlink:title=" ">
<polygon fill="white" stroke="#666666" points="107.49,-74 12.49,-74 12.49,-55 107.49,-55 107.49,-74"/>
<text text-anchor="middle" x="59.99" y="-62" font-family="Helvetica,sans-Serif" font-size="10.00">hardware/gpio.h</text>
</a>
</g>
</g>
<!-- Node1&#45;&gt;Node6 -->
<g id="edge5_Node000001_Node000006" class="edge">
<title>Node1&#45;&gt;Node6</title>
<g id="a_edge5_Node000001_Node000006"><a xlink:title=" ">
<path fill="none" stroke="#63b8ff" d="M129.77,-164.66C117.13,-146.69 88.24,-105.64 71.87,-82.38"/>
<polygon fill="#63b8ff" stroke="#63b8ff" points="74.7,-80.32 66.08,-74.16 68.97,-84.35 74.7,-80.32"/>
</a>
</g>
</g>
<!-- Node7 -->
<g id="Node000007" class="node">
<title>Node7</title>
<g id="a_Node000007"><a xlink:href="log_8h.html" target="_top" xlink:title=" ">
<polygon fill="white" stroke="#666666" points="302.49,-129 261.49,-129 261.49,-110 302.49,-110 302.49,-129"/>
<text text-anchor="middle" x="281.99" y="-117" font-family="Helvetica,sans-Serif" font-size="10.00">log.h</text>
</a>
</g>
</g>
<!-- Node1&#45;&gt;Node7 -->
<g id="edge8_Node000001_Node000007" class="edge">
<title>Node1&#45;&gt;Node7</title>
<g id="a_edge8_Node000001_Node000007"><a xlink:title=" ">
<path fill="none" stroke="#63b8ff" d="M159.45,-164.98C184.57,-155.86 224.53,-141.36 251.94,-131.41"/>
<polygon fill="#63b8ff" stroke="#63b8ff" points="253.22,-134.67 261.42,-127.97 250.83,-128.09 253.22,-134.67"/>
</a>
</g>
</g>
<!-- Node11 -->
<g id="Node000011" class="node">
<title>Node11</title>
<g id="a_Node000011"><a xlink:href="drivers_2include_2i2c_8h.html" target="_top" xlink:title="Drivers for i2c peripheral devices.">
<polygon fill="white" stroke="#666666" points="155.99,-129 115.99,-129 115.99,-110 155.99,-110 155.99,-129"/>
<text text-anchor="middle" x="135.99" y="-117" font-family="Helvetica,sans-Serif" font-size="10.00">i2c.h</text>
</a>
</g>
</g>
<!-- Node1&#45;&gt;Node11 -->
<g id="edge13_Node000001_Node000011" class="edge">
<title>Node1&#45;&gt;Node11</title>
<g id="a_edge13_Node000001_Node000011"><a xlink:title=" ">
<path fill="none" stroke="#63b8ff" d="M135.99,-164.75C135.99,-157.8 135.99,-147.85 135.99,-139.13"/>
<polygon fill="#63b8ff" stroke="#63b8ff" points="139.49,-139.09 135.99,-129.09 132.49,-139.09 139.49,-139.09"/>
</a>
</g>
</g>
<!-- Node2&#45;&gt;Node3 -->
<g id="edge2_Node000002_Node000003" class="edge">
<title>Node2&#45;&gt;Node3</title>
<g id="a_edge2_Node000002_Node000003"><a xlink:title=" ">
<path fill="none" stroke="#63b8ff" d="M190.03,-54.98C170.96,-46.42 141.33,-33.11 119.44,-23.28"/>
<polygon fill="#63b8ff" stroke="#63b8ff" points="120.85,-20.07 110.29,-19.17 117.98,-26.46 120.85,-20.07"/>
</a>
</g>
</g>
<!-- Node4 -->
<g id="Node000004" class="node">
<title>Node4</title>
<g id="a_Node000004"><a xlink:title=" ">
<polygon fill="#e0e0e0" stroke="#999999" points="221.99,-19 165.99,-19 165.99,0 221.99,0 221.99,-19"/>
<text text-anchor="middle" x="193.99" y="-7" font-family="Helvetica,sans-Serif" font-size="10.00">stddef.h</text>
</a>
</g>
</g>
<!-- Node2&#45;&gt;Node4 -->
<g id="edge3_Node000002_Node000004" class="edge">
<title>Node2&#45;&gt;Node4</title>
<g id="a_edge3_Node000002_Node000004"><a xlink:title=" ">
<path fill="none" stroke="#63b8ff" d="M206.51,-54.75C204.52,-47.72 201.67,-37.62 199.18,-28.84"/>
<polygon fill="#63b8ff" stroke="#63b8ff" points="202.51,-27.76 196.42,-19.09 195.78,-29.66 202.51,-27.76"/>
</a>
</g>
</g>
<!-- Node5 -->
<g id="Node000005" class="node">
<title>Node5</title>
<g id="a_Node000005"><a xlink:title=" ">
<polygon fill="#e0e0e0" stroke="#999999" points="301.99,-19 239.99,-19 239.99,0 301.99,0 301.99,-19"/>
<text text-anchor="middle" x="270.99" y="-7" font-family="Helvetica,sans-Serif" font-size="10.00">stdbool.h</text>
</a>
</g>
</g>
<!-- Node2&#45;&gt;Node5 -->
<g id="edge4_Node000002_Node000005" class="edge">
<title>Node2&#45;&gt;Node5</title>
<g id="a_edge4_Node000002_Node000005"><a xlink:title=" ">
<path fill="none" stroke="#63b8ff" d="M218.95,-54.98C228.12,-47.15 241.93,-35.34 253.02,-25.86"/>
<polygon fill="#63b8ff" stroke="#63b8ff" points="255.52,-28.33 260.85,-19.17 250.97,-23.01 255.52,-28.33"/>
</a>
</g>
</g>
<!-- Node6&#45;&gt;Node3 -->
<g id="edge6_Node000006_Node000003" class="edge">
<title>Node6&#45;&gt;Node3</title>
<g id="a_edge6_Node000006_Node000003"><a xlink:title=" ">
<path fill="none" stroke="#63b8ff" d="M65.11,-54.75C69.35,-47.49 75.52,-36.95 80.76,-27.98"/>
<polygon fill="#63b8ff" stroke="#63b8ff" points="83.94,-29.49 85.97,-19.09 77.9,-25.95 83.94,-29.49"/>
</a>
</g>
</g>
<!-- Node7&#45;&gt;Node5 -->
<g id="edge12_Node000007_Node000005" class="edge">
<title>Node7&#45;&gt;Node5</title>
<g id="a_edge12_Node000007_Node000005"><a xlink:title=" ">
<path fill="none" stroke="#63b8ff" d="M281.09,-109.66C279.31,-92.17 275.3,-52.8 272.9,-29.27"/>
<polygon fill="#63b8ff" stroke="#63b8ff" points="276.37,-28.75 271.87,-19.16 269.4,-29.46 276.37,-28.75"/>
</a>
</g>
</g>
<!-- Node8 -->
<g id="Node000008" class="node">
<title>Node8</title>
<g id="a_Node000008"><a xlink:href="telemetry_8h.html" target="_top" xlink:title=" ">
<polygon fill="white" stroke="#666666" points="391.99,-74 319.99,-74 319.99,-55 391.99,-55 391.99,-74"/>
<text text-anchor="middle" x="355.99" y="-62" font-family="Helvetica,sans-Serif" font-size="10.00">telemetry.h</text>
</a>
</g>
</g>
<!-- Node7&#45;&gt;Node8 -->
<g id="edge9_Node000007_Node000008" class="edge">
<title>Node7&#45;&gt;Node8</title>
<g id="a_edge9_Node000007_Node000008"><a xlink:title=" ">
<path fill="none" stroke="#63b8ff" d="M293.88,-109.98C305.14,-101.92 322.28,-89.65 335.7,-80.03"/>
<polygon fill="#63b8ff" stroke="#63b8ff" points="337.79,-82.84 343.88,-74.17 333.72,-77.15 337.79,-82.84"/>
</a>
</g>
</g>
<!-- Node9 -->
<g id="Node000009" class="node">
<title>Node9</title>
<g id="a_Node000009"><a xlink:title=" ">
<polygon fill="#e0e0e0" stroke="#999999" points="391.99,-19 319.99,-19 319.99,0 391.99,0 391.99,-19"/>
<text text-anchor="middle" x="355.99" y="-7" font-family="Helvetica,sans-Serif" font-size="10.00">FreeRTOS.h</text>
</a>
</g>
</g>
<!-- Node8&#45;&gt;Node9 -->
<g id="edge10_Node000008_Node000009" class="edge">
<title>Node8&#45;&gt;Node9</title>
<g id="a_edge10_Node000008_Node000009"><a xlink:title=" ">
<path fill="none" stroke="#63b8ff" d="M355.99,-54.75C355.99,-47.8 355.99,-37.85 355.99,-29.13"/>
<polygon fill="#63b8ff" stroke="#63b8ff" points="359.49,-29.09 355.99,-19.09 352.49,-29.09 359.49,-29.09"/>
</a>
</g>
</g>
<!-- Node10 -->
<g id="Node000010" class="node">
<title>Node10</title>
<g id="a_Node000010"><a xlink:title=" ">
<polygon fill="#e0e0e0" stroke="#999999" points="465.99,-19 409.99,-19 409.99,0 465.99,0 465.99,-19"/>
<text text-anchor="middle" x="437.99" y="-7" font-family="Helvetica,sans-Serif" font-size="10.00">queue.h</text>
</a>
</g>
</g>
<!-- Node8&#45;&gt;Node10 -->
<g id="edge11_Node000008_Node000010" class="edge">
<title>Node8&#45;&gt;Node10</title>
<g id="a_edge11_Node000008_Node000010"><a xlink:title=" ">
<path fill="none" stroke="#63b8ff" d="M369.16,-54.98C381.76,-46.84 400.99,-34.41 415.93,-24.76"/>
<polygon fill="#63b8ff" stroke="#63b8ff" points="418.08,-27.54 424.57,-19.17 414.28,-21.66 418.08,-27.54"/>
</a>
</g>
</g>
<!-- Node11&#45;&gt;Node2 -->
<g id="edge14_Node000011_Node000002" class="edge">
<title>Node11&#45;&gt;Node2</title>
<g id="a_edge14_Node000011_Node000002"><a xlink:title=" ">
<path fill="none" stroke="#63b8ff" d="M147.72,-109.98C158.72,-102 175.41,-89.88 188.59,-80.31"/>
<polygon fill="#63b8ff" stroke="#63b8ff" points="191.01,-82.88 197.05,-74.17 186.9,-77.21 191.01,-82.88"/>
</a>
</g>
</g>
<!-- Node11&#45;&gt;Node3 -->
<g id="edge16_Node000011_Node000003" class="edge">
<title>Node11&#45;&gt;Node3</title>
<g id="a_edge16_Node000011_Node000003"><a xlink:title=" ">
<path fill="none" stroke="#63b8ff" d="M133.83,-109.67C130.64,-97.21 124.16,-73.88 115.99,-55 111.99,-45.75 106.6,-35.93 101.86,-27.88"/>
<polygon fill="#63b8ff" stroke="#63b8ff" points="104.7,-25.82 96.52,-19.09 98.72,-29.46 104.7,-25.82"/>
</a>
</g>
</g>
<!-- Node11&#45;&gt;Node6 -->
<g id="edge15_Node000011_Node000006" class="edge">
<title>Node11&#45;&gt;Node6</title>
<g id="a_edge15_Node000011_Node000006"><a xlink:title=" ">
<path fill="none" stroke="#63b8ff" d="M123.78,-109.98C112.21,-101.92 94.61,-89.65 80.83,-80.03"/>
<polygon fill="#63b8ff" stroke="#63b8ff" points="82.63,-77.02 72.42,-74.17 78.62,-82.76 82.63,-77.02"/>
</a>
</g>
</g>
</g>
</svg>
