<?xml version="1.0" encoding="UTF-8" standalone="no"?>
<!DOCTYPE svg PUBLIC "-//W3C//DTD SVG 1.1//EN"
 "http://www.w3.org/Graphics/SVG/1.1/DTD/svg11.dtd">
<!-- Generated by graphviz version 2.43.0 (0)
 -->
<!-- Title: mag_lis3mdltr.c Pages: 1 -->
<svg width="821pt" height="357pt"
 viewBox="0.00 0.00 821.00 357.00" xmlns="http://www.w3.org/2000/svg" xmlns:xlink="http://www.w3.org/1999/xlink">
<g id="graph0" class="graph" transform="scale(1 1) rotate(0) translate(4 353)">
<title>mag_lis3mdltr.c</title>
<!-- Node1 -->
<g id="Node000001" class="node">
<title>Node1</title>
<g id="a_Node000001"><a xlink:title=" ">
<polygon fill="#999999" stroke="#666666" points="218,-349 123,-349 123,-330 218,-330 218,-349"/>
<text text-anchor="middle" x="170.5" y="-337" font-family="Helvetica,sans-Serif" font-size="10.00">mag_lis3mdltr.c</text>
</a>
</g>
</g>
<!-- Node2 -->
<g id="Node000002" class="node">
<title>Node2</title>
<g id="a_Node000002"><a xlink:href="stdio_8h.html" target="_top" xlink:title=" ">
<polygon fill="white" stroke="#666666" points="104.5,-294 54.5,-294 54.5,-275 104.5,-275 104.5,-294"/>
<text text-anchor="middle" x="79.5" y="-282" font-family="Helvetica,sans-Serif" font-size="10.00">stdio.h</text>
</a>
</g>
</g>
<!-- Node1&#45;&gt;Node2 -->
<g id="edge1_Node000001_Node000002" class="edge">
<title>Node1&#45;&gt;Node2</title>
<g id="a_edge1_Node000001_Node000002"><a xlink:title=" ">
<path fill="none" stroke="#63b8ff" d="M155.88,-329.98C141.64,-321.69 119.75,-308.94 103.05,-299.22"/>
<polygon fill="#63b8ff" stroke="#63b8ff" points="104.79,-296.18 94.39,-294.17 101.27,-302.23 104.79,-296.18"/>
</a>
</g>
</g>
<!-- Node3 -->
<g id="Node000003" class="node">
<title>Node3</title>
<g id="a_Node000003"><a xlink:href="mag__lis3mdltr_8h.html" target="_top" xlink:title="Magnetometer Driver (LIS3MDLTR).">
<polygon fill="white" stroke="#666666" points="218.5,-294 122.5,-294 122.5,-275 218.5,-275 218.5,-294"/>
<text text-anchor="middle" x="170.5" y="-282" font-family="Helvetica,sans-Serif" font-size="10.00">mag_lis3mdltr.h</text>
</a>
</g>
</g>
<!-- Node1&#45;&gt;Node3 -->
<g id="edge2_Node000001_Node000003" class="edge">
<title>Node1&#45;&gt;Node3</title>
<g id="a_edge2_Node000001_Node000003"><a xlink:title=" ">
<path fill="none" stroke="#63b8ff" d="M170.5,-329.75C170.5,-322.8 170.5,-312.85 170.5,-304.13"/>
<polygon fill="#63b8ff" stroke="#63b8ff" points="174,-304.09 170.5,-294.09 167,-304.09 174,-304.09"/>
</a>
</g>
</g>
<!-- Node9 -->
<g id="Node000009" class="node">
<title>Node9</title>
<g id="a_Node000009"><a xlink:href="log_8h.html" target="_top" xlink:title=" ">
<polygon fill="white" stroke="#666666" points="319,-239 278,-239 278,-220 319,-220 319,-239"/>
<text text-anchor="middle" x="298.5" y="-227" font-family="Helvetica,sans-Serif" font-size="10.00">log.h</text>
</a>
</g>
</g>
<!-- Node1&#45;&gt;Node9 -->
<g id="edge32_Node000001_Node000009" class="edge">
<title>Node1&#45;&gt;Node9</title>
<g id="a_edge32_Node000001_Node000009"><a xlink:title=" ">
<path fill="none" stroke="#63b8ff" d="M182.03,-329.86C193.68,-321.05 212.09,-306.88 227.5,-294 246.38,-278.22 267.3,-259.33 281.51,-246.28"/>
<polygon fill="#63b8ff" stroke="#63b8ff" points="284.06,-248.69 289.03,-239.33 279.31,-243.54 284.06,-248.69"/>
</a>
</g>
</g>
<!-- Node4 -->
<g id="Node000004" class="node">
<title>Node4</title>
<g id="a_Node000004"><a xlink:href="simulator_2pico-sdk_2hardware_2i2c_8h.html" target="_top" xlink:title=" ">
<polygon fill="white" stroke="#666666" points="279,-74 190,-74 190,-55 279,-55 279,-74"/>
<text text-anchor="middle" x="234.5" y="-62" font-family="Helvetica,sans-Serif" font-size="10.00">hardware/i2c.h</text>
</a>
</g>
</g>
<!-- Node3&#45;&gt;Node4 -->
<g id="edge3_Node000003_Node000004" class="edge">
<title>Node3&#45;&gt;Node4</title>
<g id="a_edge3_Node000003_Node000004"><a xlink:title=" ">
<path fill="none" stroke="#63b8ff" d="M173.01,-274.95C182.45,-242.81 215.94,-128.72 229.12,-83.83"/>
<polygon fill="#63b8ff" stroke="#63b8ff" points="232.48,-84.8 231.94,-74.22 225.76,-82.83 232.48,-84.8"/>
</a>
</g>
</g>
<!-- Node5 -->
<g id="Node000005" class="node">
<title>Node5</title>
<g id="a_Node000005"><a xlink:title=" ">
<polygon fill="#e0e0e0" stroke="#999999" points="167,-19 114,-19 114,0 167,0 167,-19"/>
<text text-anchor="middle" x="140.5" y="-7" font-family="Helvetica,sans-Serif" font-size="10.00">stdint.h</text>
</a>
</g>
</g>
<!-- Node3&#45;&gt;Node5 -->
<g id="edge9_Node000003_Node000005" class="edge">
<title>Node3&#45;&gt;Node5</title>
<g id="a_edge9_Node000003_Node000005"><a xlink:title=" ">
<path fill="none" stroke="#63b8ff" d="M169.29,-274.84C166.83,-256.54 161.5,-212.57 161.5,-175.5 161.5,-175.5 161.5,-175.5 161.5,-118.5 161.5,-86.46 152.48,-50.03 146.27,-28.73"/>
<polygon fill="#63b8ff" stroke="#63b8ff" points="149.59,-27.62 143.33,-19.07 142.89,-29.65 149.59,-27.62"/>
</a>
</g>
</g>
<!-- Node8 -->
<g id="Node000008" class="node">
<title>Node8</title>
<g id="a_Node000008"><a xlink:href="gpio_8h.html" target="_top" xlink:title=" ">
<polygon fill="white" stroke="#666666" points="95,-74 0,-74 0,-55 95,-55 95,-74"/>
<text text-anchor="middle" x="47.5" y="-62" font-family="Helvetica,sans-Serif" font-size="10.00">hardware/gpio.h</text>
</a>
</g>
</g>
<!-- Node3&#45;&gt;Node8 -->
<g id="edge7_Node000003_Node000008" class="edge">
<title>Node3&#45;&gt;Node8</title>
<g id="a_edge7_Node000003_Node000008"><a xlink:title=" ">
<path fill="none" stroke="#63b8ff" d="M163.5,-274.93C156.5,-266.17 145.65,-252.05 137.5,-239 103.42,-184.44 70.46,-115.55 55.65,-83.46"/>
<polygon fill="#63b8ff" stroke="#63b8ff" points="58.7,-81.7 51.35,-74.07 52.33,-84.62 58.7,-81.7"/>
</a>
</g>
</g>
<!-- Node3&#45;&gt;Node9 -->
<g id="edge10_Node000003_Node000009" class="edge">
<title>Node3&#45;&gt;Node9</title>
<g id="a_edge10_Node000003_Node000009"><a xlink:title=" ">
<path fill="none" stroke="#63b8ff" d="M191.07,-274.98C212.06,-266.29 244.86,-252.71 268.7,-242.84"/>
<polygon fill="#63b8ff" stroke="#63b8ff" points="270.09,-246.05 277.99,-238.99 267.41,-239.59 270.09,-246.05"/>
</a>
</g>
</g>
<!-- Node19 -->
<g id="Node000019" class="node">
<title>Node19</title>
<g id="a_Node000019"><a xlink:href="drivers_2include_2i2c_8h.html" target="_top" xlink:title="Drivers for i2c peripheral devices.">
<polygon fill="white" stroke="#666666" points="133.5,-129 93.5,-129 93.5,-110 133.5,-110 133.5,-129"/>
<text text-anchor="middle" x="113.5" y="-117" font-family="Helvetica,sans-Serif" font-size="10.00">i2c.h</text>
</a>
</g>
</g>
<!-- Node3&#45;&gt;Node19 -->
<g id="edge28_Node000003_Node000019" class="edge">
<title>Node3&#45;&gt;Node19</title>
<g id="a_edge28_Node000003_Node000019"><a xlink:title=" ">
<path fill="none" stroke="#63b8ff" d="M165.39,-274.88C160.34,-266.08 152.64,-251.93 147.5,-239 133.85,-204.64 123.14,-162.7 117.62,-139.05"/>
<polygon fill="#63b8ff" stroke="#63b8ff" points="120.97,-138 115.33,-129.02 114.14,-139.55 120.97,-138"/>
</a>
</g>
</g>
<!-- Node4&#45;&gt;Node5 -->
<g id="edge4_Node000004_Node000005" class="edge">
<title>Node4&#45;&gt;Node5</title>
<g id="a_edge4_Node000004_Node000005"><a xlink:title=" ">
<path fill="none" stroke="#63b8ff" d="M219.4,-54.98C204.68,-46.69 182.08,-33.94 164.83,-24.22"/>
<polygon fill="#63b8ff" stroke="#63b8ff" points="166.31,-21.03 155.88,-19.17 162.87,-27.13 166.31,-21.03"/>
</a>
</g>
</g>
<!-- Node6 -->
<g id="Node000006" class="node">
<title>Node6</title>
<g id="a_Node000006"><a xlink:title=" ">
<polygon fill="#e0e0e0" stroke="#999999" points="321.5,-19 265.5,-19 265.5,0 321.5,0 321.5,-19"/>
<text text-anchor="middle" x="293.5" y="-7" font-family="Helvetica,sans-Serif" font-size="10.00">stddef.h</text>
</a>
</g>
</g>
<!-- Node4&#45;&gt;Node6 -->
<g id="edge5_Node000004_Node000006" class="edge">
<title>Node4&#45;&gt;Node6</title>
<g id="a_edge5_Node000004_Node000006"><a xlink:title=" ">
<path fill="none" stroke="#63b8ff" d="M243.98,-54.98C252.7,-47.15 265.84,-35.34 276.4,-25.86"/>
<polygon fill="#63b8ff" stroke="#63b8ff" points="278.75,-28.46 283.85,-19.17 274.07,-23.25 278.75,-28.46"/>
</a>
</g>
</g>
<!-- Node7 -->
<g id="Node000007" class="node">
<title>Node7</title>
<g id="a_Node000007"><a xlink:title=" ">
<polygon fill="#e0e0e0" stroke="#999999" points="247.5,-19 185.5,-19 185.5,0 247.5,0 247.5,-19"/>
<text text-anchor="middle" x="216.5" y="-7" font-family="Helvetica,sans-Serif" font-size="10.00">stdbool.h</text>
</a>
</g>
</g>
<!-- Node4&#45;&gt;Node7 -->
<g id="edge6_Node000004_Node000007" class="edge">
<title>Node4&#45;&gt;Node7</title>
<g id="a_edge6_Node000004_Node000007"><a xlink:title=" ">
<path fill="none" stroke="#63b8ff" d="M231.53,-54.75C229.14,-47.72 225.71,-37.62 222.73,-28.84"/>
<polygon fill="#63b8ff" stroke="#63b8ff" points="225.95,-27.43 219.42,-19.09 219.32,-29.68 225.95,-27.43"/>
</a>
</g>
</g>
<!-- Node8&#45;&gt;Node5 -->
<g id="edge8_Node000008_Node000005" class="edge">
<title>Node8&#45;&gt;Node5</title>
<g id="a_edge8_Node000008_Node000005"><a xlink:title=" ">
<path fill="none" stroke="#63b8ff" d="M62.44,-54.98C77,-46.69 99.37,-33.94 116.43,-24.22"/>
<polygon fill="#63b8ff" stroke="#63b8ff" points="118.33,-27.16 125.29,-19.17 114.86,-21.08 118.33,-27.16"/>
</a>
</g>
</g>
<!-- Node9&#45;&gt;Node7 -->
<g id="edge27_Node000009_Node000007" class="edge">
<title>Node9&#45;&gt;Node7</title>
<g id="a_edge27_Node000009_Node000007"><a xlink:title=" ">
<path fill="none" stroke="#63b8ff" d="M300.54,-219.76C306.3,-192.88 320.24,-109.98 287.5,-55 279.09,-40.88 264.29,-30.56 250.36,-23.43"/>
<polygon fill="#63b8ff" stroke="#63b8ff" points="251.49,-20.1 240.95,-19 248.51,-26.43 251.49,-20.1"/>
</a>
</g>
</g>
<!-- Node10 -->
<g id="Node000010" class="node">
<title>Node10</title>
<g id="a_Node000010"><a xlink:href="telemetry_8h.html" target="_top" xlink:title="Functions for packaging and queuing telemetry packets for sending.">
<polygon fill="white" stroke="#666666" points="703.5,-184 631.5,-184 631.5,-165 703.5,-165 703.5,-184"/>
<text text-anchor="middle" x="667.5" y="-172" font-family="Helvetica,sans-Serif" font-size="10.00">telemetry.h</text>
</a>
</g>
</g>
<!-- Node9&#45;&gt;Node10 -->
<g id="edge11_Node000009_Node000010" class="edge">
<title>Node9&#45;&gt;Node10</title>
<g id="a_edge11_Node000009_Node000010"><a xlink:title=" ">
<path fill="none" stroke="#63b8ff" d="M319.13,-225.54C376.65,-217.28 539.89,-193.83 620.83,-182.2"/>
<polygon fill="#63b8ff" stroke="#63b8ff" points="621.81,-185.6 631.21,-180.71 620.82,-178.67 621.81,-185.6"/>
</a>
</g>
</g>
<!-- Node11 -->
<g id="Node000011" class="node">
<title>Node11</title>
<g id="a_Node000011"><a xlink:title=" ">
<polygon fill="#e0e0e0" stroke="#999999" points="813,-19 740,-19 740,0 813,0 813,-19"/>
<text text-anchor="middle" x="776.5" y="-7" font-family="Helvetica,sans-Serif" font-size="10.00">FreeRTOS.h</text>
</a>
</g>
</g>
<!-- Node10&#45;&gt;Node11 -->
<g id="edge12_Node000010_Node000011" class="edge">
<title>Node10&#45;&gt;Node11</title>
<g id="a_edge12_Node000010_Node000011"><a xlink:title=" ">
<path fill="none" stroke="#63b8ff" d="M674,-164.72C680.55,-155.81 690.91,-141.57 699.5,-129 723.74,-93.56 750.82,-51.2 765.53,-27.94"/>
<polygon fill="#63b8ff" stroke="#63b8ff" points="768.66,-29.54 771.03,-19.22 762.74,-25.81 768.66,-29.54"/>
</a>
</g>
</g>
<!-- Node12 -->
<g id="Node000012" class="node">
<title>Node12</title>
<g id="a_Node000012"><a xlink:title=" ">
<polygon fill="#e0e0e0" stroke="#999999" points="721.5,-19 665.5,-19 665.5,0 721.5,0 721.5,-19"/>
<text text-anchor="middle" x="693.5" y="-7" font-family="Helvetica,sans-Serif" font-size="10.00">queue.h</text>
</a>
</g>
</g>
<!-- Node10&#45;&gt;Node12 -->
<g id="edge13_Node000010_Node000012" class="edge">
<title>Node10&#45;&gt;Node12</title>
<g id="a_edge13_Node000010_Node000012"><a xlink:title=" ">
<path fill="none" stroke="#63b8ff" d="M671.66,-164.87C675.69,-156.07 681.61,-141.91 684.5,-129 692.25,-94.4 693.65,-52.84 693.73,-29.27"/>
<polygon fill="#63b8ff" stroke="#63b8ff" points="697.23,-29.23 693.69,-19.25 690.23,-29.26 697.23,-29.23"/>
</a>
</g>
</g>
<!-- Node13 -->
<g id="Node000013" class="node">
<title>Node13</title>
<g id="a_Node000013"><a xlink:href="file__downlink_8h.html" target="_top" xlink:title=" ">
<polygon fill="white" stroke="#666666" points="675,-129 584,-129 584,-110 675,-110 675,-129"/>
<text text-anchor="middle" x="629.5" y="-117" font-family="Helvetica,sans-Serif" font-size="10.00">file_downlink.h</text>
</a>
</g>
</g>
<!-- Node10&#45;&gt;Node13 -->
<g id="edge14_Node000010_Node000013" class="edge">
<title>Node10&#45;&gt;Node13</title>
<g id="a_edge14_Node000010_Node000013"><a xlink:title=" ">
<path fill="none" stroke="#63b8ff" d="M661.23,-164.75C655.91,-157.34 648.14,-146.5 641.62,-137.41"/>
<polygon fill="#63b8ff" stroke="#63b8ff" points="644.33,-135.18 635.66,-129.09 638.64,-139.26 644.33,-135.18"/>
</a>
</g>
</g>
<!-- Node13&#45;&gt;Node11 -->
<g id="edge15_Node000013_Node000011" class="edge">
<title>Node13&#45;&gt;Node11</title>
<g id="a_edge15_Node000013_Node000011"><a xlink:title=" ">
<path fill="none" stroke="#63b8ff" d="M641.28,-109.84C666.33,-91.44 725.14,-48.23 756.3,-25.34"/>
<polygon fill="#63b8ff" stroke="#63b8ff" points="758.68,-27.94 764.66,-19.2 754.53,-22.3 758.68,-27.94"/>
</a>
</g>
</g>
<!-- Node13&#45;&gt;Node12 -->
<g id="edge16_Node000013_Node000012" class="edge">
<title>Node13&#45;&gt;Node12</title>
<g id="a_edge16_Node000013_Node000012"><a xlink:title=" ">
<path fill="none" stroke="#63b8ff" d="M631.48,-109.8C634.62,-97.1 641.54,-73.04 652.5,-55 658.88,-44.5 667.99,-34.3 676.01,-26.32"/>
<polygon fill="#63b8ff" stroke="#63b8ff" points="678.7,-28.59 683.51,-19.15 673.86,-23.53 678.7,-28.59"/>
</a>
</g>
</g>
<!-- Node14 -->
<g id="Node000014" class="node">
<title>Node14</title>
<g id="a_Node000014"><a xlink:href="filesystem_8h.html" target="_top" xlink:title="Handles file system operations and management.">
<polygon fill="white" stroke="#666666" points="505,-74 428,-74 428,-55 505,-55 505,-74"/>
<text text-anchor="middle" x="466.5" y="-62" font-family="Helvetica,sans-Serif" font-size="10.00">filesystem.h</text>
</a>
</g>
</g>
<!-- Node13&#45;&gt;Node14 -->
<g id="edge17_Node000013_Node000014" class="edge">
<title>Node13&#45;&gt;Node14</title>
<g id="a_edge17_Node000013_Node000014"><a xlink:title=" ">
<path fill="none" stroke="#63b8ff" d="M603.31,-109.98C576.06,-101.13 533.2,-87.19 502.72,-77.28"/>
<polygon fill="#63b8ff" stroke="#63b8ff" points="503.49,-73.85 492.89,-74.08 501.32,-80.5 503.49,-73.85"/>
</a>
</g>
</g>
<!-- Node14&#45;&gt;Node5 -->
<g id="edge25_Node000014_Node000005" class="edge">
<title>Node14&#45;&gt;Node5</title>
<g id="a_edge25_Node000014_Node000005"><a xlink:title=" ">
<path fill="none" stroke="#63b8ff" d="M427.87,-58.57C373.97,-51.47 272.99,-37.38 177.05,-18.96"/>
<polygon fill="#63b8ff" stroke="#63b8ff" points="177.67,-15.52 167.19,-17.05 176.34,-22.39 177.67,-15.52"/>
</a>
</g>
</g>
<!-- Node14&#45;&gt;Node6 -->
<g id="edge24_Node000014_Node000006" class="edge">
<title>Node14&#45;&gt;Node6</title>
<g id="a_edge24_Node000014_Node000006"><a xlink:title=" ">
<path fill="none" stroke="#63b8ff" d="M438.7,-54.98C409.53,-46.05 363.5,-31.94 331.1,-22.02"/>
<polygon fill="#63b8ff" stroke="#63b8ff" points="332.1,-18.66 321.51,-19.08 330.05,-25.36 332.1,-18.66"/>
</a>
</g>
</g>
<!-- Node14&#45;&gt;Node7 -->
<g id="edge26_Node000014_Node000007" class="edge">
<title>Node14&#45;&gt;Node7</title>
<g id="a_edge26_Node000014_Node000007"><a xlink:title=" ">
<path fill="none" stroke="#63b8ff" d="M427.79,-55.3C387.71,-46.82 323,-33.11 257.58,-19.23"/>
<polygon fill="#63b8ff" stroke="#63b8ff" points="258.02,-15.74 247.51,-17.09 256.56,-22.59 258.02,-15.74"/>
</a>
</g>
</g>
<!-- Node14&#45;&gt;Node11 -->
<g id="edge18_Node000014_Node000011" class="edge">
<title>Node14&#45;&gt;Node11</title>
<g id="a_edge18_Node000014_Node000011"><a xlink:title=" ">
<path fill="none" stroke="#63b8ff" d="M505.01,-57.2C554.54,-49.06 643.49,-34.3 729.88,-19.09"/>
<polygon fill="#63b8ff" stroke="#63b8ff" points="730.61,-22.51 739.85,-17.33 729.39,-15.62 730.61,-22.51"/>
</a>
</g>
</g>
<!-- Node14&#45;&gt;Node12 -->
<g id="edge19_Node000014_Node000012" class="edge">
<title>Node14&#45;&gt;Node12</title>
<g id="a_edge19_Node000014_Node000012"><a xlink:title=" ">
<path fill="none" stroke="#63b8ff" d="M502.97,-54.98C544.77,-45.23 612.95,-29.31 655.42,-19.39"/>
<polygon fill="#63b8ff" stroke="#63b8ff" points="656.42,-22.75 665.36,-17.07 654.83,-15.93 656.42,-22.75"/>
</a>
</g>
</g>
<!-- Node15 -->
<g id="Node000015" class="node">
<title>Node15</title>
<g id="a_Node000015"><a xlink:title=" ">
<polygon fill="#e0e0e0" stroke="#999999" points="387,-19 340,-19 340,0 387,0 387,-19"/>
<text text-anchor="middle" x="363.5" y="-7" font-family="Helvetica,sans-Serif" font-size="10.00">task.h</text>
</a>
</g>
</g>
<!-- Node14&#45;&gt;Node15 -->
<g id="edge20_Node000014_Node000015" class="edge">
<title>Node14&#45;&gt;Node15</title>
<g id="a_edge20_Node000014_Node000015"><a xlink:title=" ">
<path fill="none" stroke="#63b8ff" d="M449.95,-54.98C433.61,-46.57 408.37,-33.59 389.37,-23.81"/>
<polygon fill="#63b8ff" stroke="#63b8ff" points="390.84,-20.63 380.35,-19.17 387.64,-26.86 390.84,-20.63"/>
</a>
</g>
</g>
<!-- Node16 -->
<g id="Node000016" class="node">
<title>Node16</title>
<g id="a_Node000016"><a xlink:title=" ">
<polygon fill="#e0e0e0" stroke="#999999" points="437.5,-19 405.5,-19 405.5,0 437.5,0 437.5,-19"/>
<text text-anchor="middle" x="421.5" y="-7" font-family="Helvetica,sans-Serif" font-size="10.00">ff.h</text>
</a>
</g>
</g>
<!-- Node14&#45;&gt;Node16 -->
<g id="edge21_Node000014_Node000016" class="edge">
<title>Node14&#45;&gt;Node16</title>
<g id="a_edge21_Node000014_Node000016"><a xlink:title=" ">
<path fill="none" stroke="#63b8ff" d="M459.07,-54.75C452.65,-47.18 443.19,-36.05 435.38,-26.84"/>
<polygon fill="#63b8ff" stroke="#63b8ff" points="437.93,-24.45 428.79,-19.09 432.6,-28.98 437.93,-24.45"/>
</a>
</g>
</g>
<!-- Node17 -->
<g id="Node000017" class="node">
<title>Node17</title>
<g id="a_Node000017"><a xlink:href="filesystem__errors_8h.html" target="_top" xlink:title=" ">
<polygon fill="white" stroke="#666666" points="567,-19 456,-19 456,0 567,0 567,-19"/>
<text text-anchor="middle" x="511.5" y="-7" font-family="Helvetica,sans-Serif" font-size="10.00">filesystem_errors.h</text>
</a>
</g>
</g>
<!-- Node14&#45;&gt;Node17 -->
<g id="edge22_Node000014_Node000017" class="edge">
<title>Node14&#45;&gt;Node17</title>
<g id="a_edge22_Node000014_Node000017"><a xlink:title=" ">
<path fill="none" stroke="#63b8ff" d="M473.93,-54.75C480.35,-47.18 489.81,-36.05 497.62,-26.84"/>
<polygon fill="#63b8ff" stroke="#63b8ff" points="500.4,-28.98 504.21,-19.09 495.07,-24.45 500.4,-28.98"/>
</a>
</g>
</g>
<!-- Node18 -->
<g id="Node000018" class="node">
<title>Node18</title>
<g id="a_Node000018"><a xlink:title=" ">
<polygon fill="#e0e0e0" stroke="#999999" points="647.5,-19 585.5,-19 585.5,0 647.5,0 647.5,-19"/>
<text text-anchor="middle" x="616.5" y="-7" font-family="Helvetica,sans-Serif" font-size="10.00">semphr.h</text>
</a>
</g>
</g>
<!-- Node14&#45;&gt;Node18 -->
<g id="edge23_Node000014_Node000018" class="edge">
<title>Node14&#45;&gt;Node18</title>
<g id="a_edge23_Node000014_Node000018"><a xlink:title=" ">
<path fill="none" stroke="#63b8ff" d="M490.6,-54.98C515.38,-46.23 554.2,-32.51 582.19,-22.62"/>
<polygon fill="#63b8ff" stroke="#63b8ff" points="583.7,-25.8 591.96,-19.17 581.37,-19.2 583.7,-25.8"/>
</a>
</g>
</g>
<!-- Node19&#45;&gt;Node4 -->
<g id="edge29_Node000019_Node000004" class="edge">
<title>Node19&#45;&gt;Node4</title>
<g id="a_edge29_Node000019_Node000004"><a xlink:title=" ">
<path fill="none" stroke="#63b8ff" d="M132.94,-109.98C152.49,-101.42 182.88,-88.11 205.32,-78.28"/>
<polygon fill="#63b8ff" stroke="#63b8ff" points="206.95,-81.39 214.71,-74.17 204.14,-74.98 206.95,-81.39"/>
</a>
</g>
</g>
<!-- Node19&#45;&gt;Node5 -->
<g id="edge31_Node000019_Node000005" class="edge">
<title>Node19&#45;&gt;Node5</title>
<g id="a_edge31_Node000019_Node000005"><a xlink:title=" ">
<path fill="none" stroke="#63b8ff" d="M115.71,-109.66C120.1,-92.09 130.01,-52.45 135.89,-28.95"/>
<polygon fill="#63b8ff" stroke="#63b8ff" points="139.31,-29.71 138.34,-19.16 132.51,-28.01 139.31,-29.71"/>
</a>
</g>
</g>
<!-- Node19&#45;&gt;Node8 -->
<g id="edge30_Node000019_Node000008" class="edge">
<title>Node19&#45;&gt;Node8</title>
<g id="a_edge30_Node000019_Node000008"><a xlink:title=" ">
<path fill="none" stroke="#63b8ff" d="M102.9,-109.98C93.04,-102.07 78.15,-90.11 66.28,-80.58"/>
<polygon fill="#63b8ff" stroke="#63b8ff" points="68.29,-77.7 58.3,-74.17 63.9,-83.16 68.29,-77.7"/>
</a>
</g>
</g>
</g>
</svg>
