<?xml version="1.0" encoding="UTF-8" standalone="no"?>
<!DOCTYPE svg PUBLIC "-//W3C//DTD SVG 1.1//EN"
 "http://www.w3.org/Graphics/SVG/1.1/DTD/svg11.dtd">
<!-- Generated by graphviz version 2.43.0 (0)
 -->
<!-- Title: main.c Pages: 1 -->
<svg width="1384pt" height="302pt"
 viewBox="0.00 0.00 1384.00 302.00" xmlns="http://www.w3.org/2000/svg" xmlns:xlink="http://www.w3.org/1999/xlink">
<g id="graph0" class="graph" transform="scale(1 1) rotate(0) translate(4 298)">
<title>main.c</title>
<!-- Node1 -->
<g id="Node000001" class="node">
<title>Node1</title>
<g id="a_Node000001"><a xlink:title=" ">
<polygon fill="#999999" stroke="#666666" points="782,-294 732,-294 732,-275 782,-275 782,-294"/>
<text text-anchor="middle" x="757" y="-282" font-family="Helvetica,sans-Serif" font-size="10.00">main.c</text>
</a>
</g>
</g>
<!-- Node2 -->
<g id="Node000002" class="node">
<title>Node2</title>
<g id="a_Node000002"><a xlink:title=" ">
<polygon fill="#e0e0e0" stroke="#999999" points="107,-19 45,-19 45,0 107,0 107,-19"/>
<text text-anchor="middle" x="76" y="-7" font-family="Helvetica,sans-Serif" font-size="10.00">stdbool.h</text>
</a>
</g>
</g>
<!-- Node1&#45;&gt;Node2 -->
<g id="edge1_Node000001_Node000002" class="edge">
<title>Node1&#45;&gt;Node2</title>
<g id="a_edge1_Node000001_Node000002"><a xlink:title=" ">
<path fill="none" stroke="#63b8ff" d="M731.81,-282.62C600.46,-277.72 0,-251.17 0,-175.5 0,-175.5 0,-175.5 0,-118.5 0,-79.47 33.61,-44.58 56.13,-25.6"/>
<polygon fill="#63b8ff" stroke="#63b8ff" points="58.56,-28.14 64.12,-19.12 54.15,-22.7 58.56,-28.14"/>
</a>
</g>
</g>
<!-- Node3 -->
<g id="Node000003" class="node">
<title>Node3</title>
<g id="a_Node000003"><a xlink:href="stdlib_8h.html" target="_top" xlink:title=" ">
<polygon fill="white" stroke="#666666" points="914.5,-239 861.5,-239 861.5,-220 914.5,-220 914.5,-239"/>
<text text-anchor="middle" x="888" y="-227" font-family="Helvetica,sans-Serif" font-size="10.00">stdlib.h</text>
</a>
</g>
</g>
<!-- Node1&#45;&gt;Node3 -->
<g id="edge2_Node000001_Node000003" class="edge">
<title>Node1&#45;&gt;Node3</title>
<g id="a_edge2_Node000001_Node000003"><a xlink:title=" ">
<path fill="none" stroke="#63b8ff" d="M778.05,-274.98C799.41,-266.34 832.7,-252.87 857.06,-243.02"/>
<polygon fill="#63b8ff" stroke="#63b8ff" points="858.61,-246.17 866.57,-239.17 855.99,-239.68 858.61,-246.17"/>
</a>
</g>
</g>
<!-- Node4 -->
<g id="Node000004" class="node">
<title>Node4</title>
<g id="a_Node000004"><a xlink:title=" ">
<polygon fill="#e0e0e0" stroke="#999999" points="985.5,-239 932.5,-239 932.5,-220 985.5,-220 985.5,-239"/>
<text text-anchor="middle" x="959" y="-227" font-family="Helvetica,sans-Serif" font-size="10.00">string.h</text>
</a>
</g>
</g>
<!-- Node1&#45;&gt;Node4 -->
<g id="edge3_Node000001_Node000004" class="edge">
<title>Node1&#45;&gt;Node4</title>
<g id="a_edge3_Node000001_Node000004"><a xlink:title=" ">
<path fill="none" stroke="#63b8ff" d="M782.18,-276.89C817.47,-267.63 881.88,-250.74 922.45,-240.09"/>
<polygon fill="#63b8ff" stroke="#63b8ff" points="923.44,-243.45 932.22,-237.53 921.66,-236.68 923.44,-243.45"/>
</a>
</g>
</g>
<!-- Node5 -->
<g id="Node000005" class="node">
<title>Node5</title>
<g id="a_Node000005"><a xlink:title=" ">
<polygon fill="#e0e0e0" stroke="#999999" points="1052,-239 1004,-239 1004,-220 1052,-220 1052,-239"/>
<text text-anchor="middle" x="1028" y="-227" font-family="Helvetica,sans-Serif" font-size="10.00">time.h</text>
</a>
</g>
</g>
<!-- Node1&#45;&gt;Node5 -->
<g id="edge4_Node000001_Node000005" class="edge">
<title>Node1&#45;&gt;Node5</title>
<g id="a_edge4_Node000001_Node000005"><a xlink:title=" ">
<path fill="none" stroke="#63b8ff" d="M782.13,-279.37C824,-272.38 910.9,-257.33 994.04,-239.09"/>
<polygon fill="#63b8ff" stroke="#63b8ff" points="994.89,-242.49 1003.89,-236.91 993.37,-235.65 994.89,-242.49"/>
</a>
</g>
</g>
<!-- Node6 -->
<g id="Node000006" class="node">
<title>Node6</title>
<g id="a_Node000006"><a xlink:title=" ">
<polygon fill="#e0e0e0" stroke="#999999" points="657,-19 585,-19 585,0 657,0 657,-19"/>
<text text-anchor="middle" x="621" y="-7" font-family="Helvetica,sans-Serif" font-size="10.00">FreeRTOS.h</text>
</a>
</g>
</g>
<!-- Node1&#45;&gt;Node6 -->
<g id="edge5_Node000001_Node000006" class="edge">
<title>Node1&#45;&gt;Node6</title>
<g id="a_edge5_Node000001_Node000006"><a xlink:title=" ">
<path fill="none" stroke="#63b8ff" d="M752.85,-274.72C738.38,-244.19 688.66,-139.86 645,-55 640.43,-46.12 635.19,-36.35 630.76,-28.23"/>
<polygon fill="#63b8ff" stroke="#63b8ff" points="633.76,-26.4 625.88,-19.31 627.62,-29.76 633.76,-26.4"/>
</a>
</g>
</g>
<!-- Node7 -->
<g id="Node000007" class="node">
<title>Node7</title>
<g id="a_Node000007"><a xlink:title=" ">
<polygon fill="#e0e0e0" stroke="#999999" points="891.5,-19 844.5,-19 844.5,0 891.5,0 891.5,-19"/>
<text text-anchor="middle" x="868" y="-7" font-family="Helvetica,sans-Serif" font-size="10.00">task.h</text>
</a>
</g>
</g>
<!-- Node1&#45;&gt;Node7 -->
<g id="edge6_Node000001_Node000007" class="edge">
<title>Node1&#45;&gt;Node7</title>
<g id="a_edge6_Node000001_Node000007"><a xlink:title=" ">
<path fill="none" stroke="#63b8ff" d="M767.9,-274.85C777.95,-266.47 792.8,-253.01 803,-239 851.07,-172.95 865.52,-153.58 884,-74 887.58,-58.6 882.55,-41.19 877.2,-28.5"/>
<polygon fill="#63b8ff" stroke="#63b8ff" points="880.22,-26.69 872.83,-19.1 873.87,-29.65 880.22,-26.69"/>
</a>
</g>
</g>
<!-- Node8 -->
<g id="Node000008" class="node">
<title>Node8</title>
<g id="a_Node000008"><a xlink:title=" ">
<polygon fill="#e0e0e0" stroke="#999999" points="532,-19 476,-19 476,0 532,0 532,-19"/>
<text text-anchor="middle" x="504" y="-7" font-family="Helvetica,sans-Serif" font-size="10.00">queue.h</text>
</a>
</g>
</g>
<!-- Node1&#45;&gt;Node8 -->
<g id="edge7_Node000001_Node000008" class="edge">
<title>Node1&#45;&gt;Node8</title>
<g id="a_edge7_Node000001_Node000008"><a xlink:title=" ">
<path fill="none" stroke="#63b8ff" d="M731.71,-283.11C687.73,-281.48 595.31,-273.8 527,-239 490.15,-220.23 459,-216.85 459,-175.5 459,-175.5 459,-175.5 459,-118.5 459,-84.31 478.46,-48.38 491.78,-27.79"/>
<polygon fill="#63b8ff" stroke="#63b8ff" points="494.87,-29.48 497.55,-19.23 489.06,-25.57 494.87,-29.48"/>
</a>
</g>
</g>
<!-- Node9 -->
<g id="Node000009" class="node">
<title>Node9</title>
<g id="a_Node000009"><a xlink:href="timing_8h.html" target="_top" xlink:title=" ">
<polygon fill="white" stroke="#666666" points="744.5,-74 687.5,-74 687.5,-55 744.5,-55 744.5,-74"/>
<text text-anchor="middle" x="716" y="-62" font-family="Helvetica,sans-Serif" font-size="10.00">timing.h</text>
</a>
</g>
</g>
<!-- Node1&#45;&gt;Node9 -->
<g id="edge8_Node000001_Node000009" class="edge">
<title>Node1&#45;&gt;Node9</title>
<g id="a_edge8_Node000001_Node000009"><a xlink:title=" ">
<path fill="none" stroke="#63b8ff" d="M755.39,-274.95C749.36,-242.88 727.98,-129.2 719.5,-84.12"/>
<polygon fill="#63b8ff" stroke="#63b8ff" points="722.93,-83.4 717.64,-74.22 716.05,-84.7 722.93,-83.4"/>
</a>
</g>
</g>
<!-- Node13 -->
<g id="Node000013" class="node">
<title>Node13</title>
<g id="a_Node000013"><a xlink:href="gse_8h.html" target="_top" xlink:title="Handles hardline communication over USB.">
<polygon fill="white" stroke="#666666" points="1113.5,-239 1070.5,-239 1070.5,-220 1113.5,-220 1113.5,-239"/>
<text text-anchor="middle" x="1092" y="-227" font-family="Helvetica,sans-Serif" font-size="10.00">gse.h</text>
</a>
</g>
</g>
<!-- Node1&#45;&gt;Node13 -->
<g id="edge13_Node000001_Node000013" class="edge">
<title>Node1&#45;&gt;Node13</title>
<g id="a_edge13_Node000001_Node000013"><a xlink:title=" ">
<path fill="none" stroke="#63b8ff" d="M782.01,-280.89C832.67,-275.37 951.2,-261.34 1060.53,-238.84"/>
<polygon fill="#63b8ff" stroke="#63b8ff" points="1061.33,-242.25 1070.4,-236.78 1059.9,-235.4 1061.33,-242.25"/>
</a>
</g>
</g>
<!-- Node14 -->
<g id="Node000014" class="node">
<title>Node14</title>
<g id="a_Node000014"><a xlink:href="command_8h.html" target="_top" xlink:title="Handles decoding and triggering responses to received commands.">
<polygon fill="white" stroke="#666666" points="350,-184 276,-184 276,-165 350,-165 350,-184"/>
<text text-anchor="middle" x="313" y="-172" font-family="Helvetica,sans-Serif" font-size="10.00">command.h</text>
</a>
</g>
</g>
<!-- Node1&#45;&gt;Node14 -->
<g id="edge14_Node000001_Node000014" class="edge">
<title>Node1&#45;&gt;Node14</title>
<g id="a_edge14_Node000001_Node000014"><a xlink:title=" ">
<path fill="none" stroke="#63b8ff" d="M731.87,-284.22C673.02,-285.1 522.5,-282.51 407,-239 377.38,-227.84 347.91,-205.67 330.07,-190.71"/>
<polygon fill="#63b8ff" stroke="#63b8ff" points="332.16,-187.89 322.29,-184.02 327.59,-193.2 332.16,-187.89"/>
</a>
</g>
</g>
<!-- Node17 -->
<g id="Node000017" class="node">
<title>Node17</title>
<g id="a_Node000017"><a xlink:href="filesystem_8h.html" target="_top" xlink:title="Handles file system operations and management.">
<polygon fill="white" stroke="#666666" points="430.5,-74 353.5,-74 353.5,-55 430.5,-55 430.5,-74"/>
<text text-anchor="middle" x="392" y="-62" font-family="Helvetica,sans-Serif" font-size="10.00">filesystem.h</text>
</a>
</g>
</g>
<!-- Node1&#45;&gt;Node17 -->
<g id="edge42_Node000001_Node000017" class="edge">
<title>Node1&#45;&gt;Node17</title>
<g id="a_edge42_Node000001_Node000017"><a xlink:title=" ">
<path fill="none" stroke="#63b8ff" d="M731.81,-283.28C665.46,-282.19 488.02,-275.83 445,-239 432.92,-228.66 406.92,-126.66 396.47,-84.05"/>
<polygon fill="#63b8ff" stroke="#63b8ff" points="399.83,-83.05 394.07,-74.16 393.03,-84.7 399.83,-83.05"/>
</a>
</g>
</g>
<!-- Node21 -->
<g id="Node000021" class="node">
<title>Node21</title>
<g id="a_Node000021"><a xlink:href="telemetry_8h.html" target="_top" xlink:title="Functions for packaging and queuing telemetry packets for sending.">
<polygon fill="white" stroke="#666666" points="606,-184 534,-184 534,-165 606,-165 606,-184"/>
<text text-anchor="middle" x="570" y="-172" font-family="Helvetica,sans-Serif" font-size="10.00">telemetry.h</text>
</a>
</g>
</g>
<!-- Node1&#45;&gt;Node21 -->
<g id="edge30_Node000001_Node000021" class="edge">
<title>Node1&#45;&gt;Node21</title>
<g id="a_edge30_Node000001_Node000021"><a xlink:title=" ">
<path fill="none" stroke="#63b8ff" d="M731.81,-278.56C704.75,-272.42 661.31,-260.09 629,-239 609.98,-226.58 592.88,-206.73 582.04,-192.53"/>
<polygon fill="#63b8ff" stroke="#63b8ff" points="584.62,-190.13 575.87,-184.15 578.98,-194.28 584.62,-190.13"/>
</a>
</g>
</g>
<!-- Node22 -->
<g id="Node000022" class="node">
<title>Node22</title>
<g id="a_Node000022"><a xlink:href="file__downlink_8h.html" target="_top" xlink:title=" ">
<polygon fill="white" stroke="#666666" points="615,-129 525,-129 525,-110 615,-110 615,-129"/>
<text text-anchor="middle" x="570" y="-117" font-family="Helvetica,sans-Serif" font-size="10.00">file_downlink.h</text>
</a>
</g>
</g>
<!-- Node1&#45;&gt;Node22 -->
<g id="edge46_Node000001_Node000022" class="edge">
<title>Node1&#45;&gt;Node22</title>
<g id="a_edge46_Node000001_Node000022"><a xlink:title=" ">
<path fill="none" stroke="#63b8ff" d="M731.73,-274.93C712.51,-267.54 686.19,-255.45 667,-239 636.48,-212.84 640.95,-195.7 615,-165 606.42,-154.85 595.9,-144.36 587.19,-136.11"/>
<polygon fill="#63b8ff" stroke="#63b8ff" points="589.51,-133.49 579.81,-129.24 584.75,-138.62 589.51,-133.49"/>
</a>
</g>
</g>
<!-- Node23 -->
<g id="Node000023" class="node">
<title>Node23</title>
<g id="a_Node000023"><a xlink:href="log_8h.html" target="_top" xlink:title=" ">
<polygon fill="white" stroke="#666666" points="576.5,-239 535.5,-239 535.5,-220 576.5,-220 576.5,-239"/>
<text text-anchor="middle" x="556" y="-227" font-family="Helvetica,sans-Serif" font-size="10.00">log.h</text>
</a>
</g>
</g>
<!-- Node1&#45;&gt;Node23 -->
<g id="edge37_Node000001_Node000023" class="edge">
<title>Node1&#45;&gt;Node23</title>
<g id="a_edge37_Node000001_Node000023"><a xlink:title=" ">
<path fill="none" stroke="#63b8ff" d="M731.95,-276.89C695.06,-267.17 626.23,-249.02 586.47,-238.53"/>
<polygon fill="#63b8ff" stroke="#63b8ff" points="587.35,-235.15 576.79,-235.98 585.56,-241.92 587.35,-235.15"/>
</a>
</g>
</g>
<!-- Node24 -->
<g id="Node000024" class="node">
<title>Node24</title>
<g id="a_Node000024"><a xlink:href="steve_8h.html" target="_top" xlink:title="S.T.E.V.E (Scheduler Task for Executing Vital Events)">
<polygon fill="white" stroke="#666666" points="800.5,-184 747.5,-184 747.5,-165 800.5,-165 800.5,-184"/>
<text text-anchor="middle" x="774" y="-172" font-family="Helvetica,sans-Serif" font-size="10.00">steve.h</text>
</a>
</g>
</g>
<!-- Node1&#45;&gt;Node24 -->
<g id="edge40_Node000001_Node000024" class="edge">
<title>Node1&#45;&gt;Node24</title>
<g id="a_edge40_Node000001_Node000024"><a xlink:title=" ">
<path fill="none" stroke="#63b8ff" d="M758.39,-274.66C761.14,-257.17 767.34,-217.8 771.04,-194.27"/>
<polygon fill="#63b8ff" stroke="#63b8ff" points="774.54,-194.58 772.64,-184.16 767.62,-193.49 774.54,-194.58"/>
</a>
</g>
</g>
<!-- Node25 -->
<g id="Node000025" class="node">
<title>Node25</title>
<g id="a_Node000025"><a xlink:href="watchdog_8h.html" target="_top" xlink:title="Watchdog management functions.">
<polygon fill="white" stroke="#666666" points="874.5,-74 801.5,-74 801.5,-55 874.5,-55 874.5,-74"/>
<text text-anchor="middle" x="838" y="-62" font-family="Helvetica,sans-Serif" font-size="10.00">watchdog.h</text>
</a>
</g>
</g>
<!-- Node1&#45;&gt;Node25 -->
<g id="edge43_Node000001_Node000025" class="edge">
<title>Node1&#45;&gt;Node25</title>
<g id="a_edge43_Node000001_Node000025"><a xlink:title=" ">
<path fill="none" stroke="#63b8ff" d="M762.63,-274.81C773.31,-257.95 796.67,-219.34 810,-184 822.89,-149.84 831.13,-107.82 835.13,-84.11"/>
<polygon fill="#63b8ff" stroke="#63b8ff" points="838.62,-84.48 836.75,-74.05 831.71,-83.37 838.62,-84.48"/>
</a>
</g>
</g>
<!-- Node26 -->
<g id="Node000026" class="node">
<title>Node26</title>
<g id="a_Node000026"><a xlink:title=" ">
<polygon fill="#e0e0e0" stroke="#999999" points="1172,-239 1132,-239 1132,-220 1172,-220 1172,-239"/>
<text text-anchor="middle" x="1152" y="-227" font-family="Helvetica,sans-Serif" font-size="10.00">i2c.h</text>
</a>
</g>
</g>
<!-- Node1&#45;&gt;Node26 -->
<g id="edge47_Node000001_Node000026" class="edge">
<title>Node1&#45;&gt;Node26</title>
<g id="a_edge47_Node000001_Node000026"><a xlink:title=" ">
<path fill="none" stroke="#63b8ff" d="M782.08,-281.88C840.24,-277.81 988.86,-265.69 1121.87,-238.91"/>
<polygon fill="#63b8ff" stroke="#63b8ff" points="1122.73,-242.31 1131.83,-236.87 1121.33,-235.45 1122.73,-242.31"/>
</a>
</g>
</g>
<!-- Node27 -->
<g id="Node000027" class="node">
<title>Node27</title>
<g id="a_Node000027"><a xlink:href="stdio_8h.html" target="_top" xlink:title=" ">
<polygon fill="white" stroke="#666666" points="1240,-239 1190,-239 1190,-220 1240,-220 1240,-239"/>
<text text-anchor="middle" x="1215" y="-227" font-family="Helvetica,sans-Serif" font-size="10.00">stdio.h</text>
</a>
</g>
</g>
<!-- Node1&#45;&gt;Node27 -->
<g id="edge48_Node000001_Node000027" class="edge">
<title>Node1&#45;&gt;Node27</title>
<g id="a_edge48_Node000001_Node000027"><a xlink:title=" ">
<path fill="none" stroke="#63b8ff" d="M782.02,-282.1C846.39,-278.26 1023.04,-266.05 1179.55,-239.01"/>
<polygon fill="#63b8ff" stroke="#63b8ff" points="1180.59,-242.38 1189.83,-237.21 1179.38,-235.49 1180.59,-242.38"/>
</a>
</g>
</g>
<!-- Node28 -->
<g id="Node000028" class="node">
<title>Node28</title>
<g id="a_Node000028"><a xlink:href="rtc__ds3231_8h.html" target="_top" xlink:title="DS3231 Real Time Clock Driver.">
<polygon fill="white" stroke="#666666" points="158.5,-129 79.5,-129 79.5,-110 158.5,-110 158.5,-129"/>
<text text-anchor="middle" x="119" y="-117" font-family="Helvetica,sans-Serif" font-size="10.00">rtc_ds3231.h</text>
</a>
</g>
</g>
<!-- Node1&#45;&gt;Node28 -->
<g id="edge49_Node000001_Node000028" class="edge">
<title>Node1&#45;&gt;Node28</title>
<g id="a_edge49_Node000001_Node000028"><a xlink:title=" ">
<path fill="none" stroke="#63b8ff" d="M731.87,-283.47C669.17,-282.77 501.31,-277.19 368,-239 279.64,-213.68 183.77,-159.7 141.35,-134.28"/>
<polygon fill="#63b8ff" stroke="#63b8ff" points="143.04,-131.21 132.67,-129.02 139.41,-137.19 143.04,-131.21"/>
</a>
</g>
</g>
<!-- Node30 -->
<g id="Node000030" class="node">
<title>Node30</title>
<g id="a_Node000030"><a xlink:title=" ">
<polygon fill="#e0e0e0" stroke="#999999" points="1308,-239 1258,-239 1258,-220 1308,-220 1308,-239"/>
<text text-anchor="middle" x="1283" y="-227" font-family="Helvetica,sans-Serif" font-size="10.00">radio.h</text>
</a>
</g>
</g>
<!-- Node1&#45;&gt;Node30 -->
<g id="edge55_Node000001_Node000030" class="edge">
<title>Node1&#45;&gt;Node30</title>
<g id="a_edge55_Node000001_Node000030"><a xlink:title=" ">
<path fill="none" stroke="#63b8ff" d="M782.01,-282.61C853.31,-279.77 1063.83,-269.39 1247.72,-238.95"/>
<polygon fill="#63b8ff" stroke="#63b8ff" points="1248.56,-242.36 1257.84,-237.25 1247.4,-235.46 1248.56,-242.36"/>
</a>
</g>
</g>
<!-- Node31 -->
<g id="Node000031" class="node">
<title>Node31</title>
<g id="a_Node000031"><a xlink:href="main_8h.html" target="_top" xlink:title=" ">
<polygon fill="white" stroke="#666666" points="1376,-239 1326,-239 1326,-220 1376,-220 1376,-239"/>
<text text-anchor="middle" x="1351" y="-227" font-family="Helvetica,sans-Serif" font-size="10.00">main.h</text>
</a>
</g>
</g>
<!-- Node1&#45;&gt;Node31 -->
<g id="edge56_Node000001_Node000031" class="edge">
<title>Node1&#45;&gt;Node31</title>
<g id="a_edge56_Node000001_Node000031"><a xlink:title=" ">
<path fill="none" stroke="#63b8ff" d="M782.02,-282.99C859.81,-281.08 1104.42,-272.76 1315.81,-238.91"/>
<polygon fill="#63b8ff" stroke="#63b8ff" points="1316.54,-242.34 1325.85,-237.28 1315.41,-235.43 1316.54,-242.34"/>
</a>
</g>
</g>
<!-- Node9&#45;&gt;Node6 -->
<g id="edge9_Node000009_Node000006" class="edge">
<title>Node9&#45;&gt;Node6</title>
<g id="a_edge9_Node000009_Node000006"><a xlink:title=" ">
<path fill="none" stroke="#63b8ff" d="M700.74,-54.98C685.87,-46.69 663.02,-33.94 645.58,-24.22"/>
<polygon fill="#63b8ff" stroke="#63b8ff" points="646.98,-20.99 636.54,-19.17 643.57,-27.1 646.98,-20.99"/>
</a>
</g>
</g>
<!-- Node10 -->
<g id="Node000010" class="node">
<title>Node10</title>
<g id="a_Node000010"><a xlink:title=" ">
<polygon fill="#e0e0e0" stroke="#999999" points="279.5,-19 226.5,-19 226.5,0 279.5,0 279.5,-19"/>
<text text-anchor="middle" x="253" y="-7" font-family="Helvetica,sans-Serif" font-size="10.00">stdint.h</text>
</a>
</g>
</g>
<!-- Node9&#45;&gt;Node10 -->
<g id="edge10_Node000009_Node000010" class="edge">
<title>Node9&#45;&gt;Node10</title>
<g id="a_edge10_Node000009_Node000010"><a xlink:title=" ">
<path fill="none" stroke="#63b8ff" d="M687.35,-61.79C619.86,-57.48 445.52,-44.78 289.88,-18.92"/>
<polygon fill="#63b8ff" stroke="#63b8ff" points="290.1,-15.41 279.66,-17.2 288.94,-22.31 290.1,-15.41"/>
</a>
</g>
</g>
<!-- Node11 -->
<g id="Node000011" class="node">
<title>Node11</title>
<g id="a_Node000011"><a xlink:title=" ">
<polygon fill="#e0e0e0" stroke="#999999" points="737,-19 675,-19 675,0 737,0 737,-19"/>
<text text-anchor="middle" x="706" y="-7" font-family="Helvetica,sans-Serif" font-size="10.00">semphr.h</text>
</a>
</g>
</g>
<!-- Node9&#45;&gt;Node11 -->
<g id="edge11_Node000009_Node000011" class="edge">
<title>Node9&#45;&gt;Node11</title>
<g id="a_edge11_Node000009_Node000011"><a xlink:title=" ">
<path fill="none" stroke="#63b8ff" d="M714.35,-54.75C713.04,-47.8 711.16,-37.85 709.52,-29.13"/>
<polygon fill="#63b8ff" stroke="#63b8ff" points="712.91,-28.27 707.62,-19.09 706.04,-29.56 712.91,-28.27"/>
</a>
</g>
</g>
<!-- Node12 -->
<g id="Node000012" class="node">
<title>Node12</title>
<g id="a_Node000012"><a xlink:title=" ">
<polygon fill="#e0e0e0" stroke="#999999" points="826.5,-19 755.5,-19 755.5,0 826.5,0 826.5,-19"/>
<text text-anchor="middle" x="791" y="-7" font-family="Helvetica,sans-Serif" font-size="10.00">pico/time.h</text>
</a>
</g>
</g>
<!-- Node9&#45;&gt;Node12 -->
<g id="edge12_Node000009_Node000012" class="edge">
<title>Node9&#45;&gt;Node12</title>
<g id="a_edge12_Node000009_Node000012"><a xlink:title=" ">
<path fill="none" stroke="#63b8ff" d="M728.05,-54.98C739.46,-46.92 756.83,-34.65 770.43,-25.03"/>
<polygon fill="#63b8ff" stroke="#63b8ff" points="772.58,-27.8 778.73,-19.17 768.54,-22.08 772.58,-27.8"/>
</a>
</g>
</g>
<!-- Node14&#45;&gt;Node10 -->
<g id="edge15_Node000014_Node000010" class="edge">
<title>Node14&#45;&gt;Node10</title>
<g id="a_edge15_Node000014_Node000010"><a xlink:title=" ">
<path fill="none" stroke="#63b8ff" d="M275.84,-168.63C251.51,-163.3 221.46,-152.18 206,-129 201.31,-121.98 203.88,-118.17 206,-110 210.59,-92.28 217.96,-90.44 226,-74 233.31,-59.03 240.65,-41.59 245.82,-28.78"/>
<polygon fill="#63b8ff" stroke="#63b8ff" points="249.17,-29.84 249.62,-19.26 242.66,-27.25 249.17,-29.84"/>
</a>
</g>
</g>
<!-- Node15 -->
<g id="Node000015" class="node">
<title>Node15</title>
<g id="a_Node000015"><a xlink:title=" ">
<polygon fill="#e0e0e0" stroke="#999999" points="301,-129 215,-129 215,-110 301,-110 301,-129"/>
<text text-anchor="middle" x="258" y="-117" font-family="Helvetica,sans-Serif" font-size="10.00">spacepacket.h</text>
</a>
</g>
</g>
<!-- Node14&#45;&gt;Node15 -->
<g id="edge16_Node000014_Node000015" class="edge">
<title>Node14&#45;&gt;Node15</title>
<g id="a_edge16_Node000014_Node000015"><a xlink:title=" ">
<path fill="none" stroke="#63b8ff" d="M303.92,-164.75C295.91,-157.03 284.04,-145.6 274.38,-136.28"/>
<polygon fill="#63b8ff" stroke="#63b8ff" points="276.54,-133.51 266.91,-129.09 271.69,-138.55 276.54,-133.51"/>
</a>
</g>
</g>
<!-- Node16 -->
<g id="Node000016" class="node">
<title>Node16</title>
<g id="a_Node000016"><a xlink:href="user__auth_8h.html" target="_top" xlink:title=" ">
<polygon fill="white" stroke="#666666" points="393,-129 319,-129 319,-110 393,-110 393,-129"/>
<text text-anchor="middle" x="356" y="-117" font-family="Helvetica,sans-Serif" font-size="10.00">user_auth.h</text>
</a>
</g>
</g>
<!-- Node14&#45;&gt;Node16 -->
<g id="edge17_Node000014_Node000016" class="edge">
<title>Node14&#45;&gt;Node16</title>
<g id="a_edge17_Node000014_Node000016"><a xlink:title=" ">
<path fill="none" stroke="#63b8ff" d="M320.1,-164.75C326.17,-157.26 335.09,-146.28 342.51,-137.13"/>
<polygon fill="#63b8ff" stroke="#63b8ff" points="345.45,-139.06 349.03,-129.09 340.01,-134.65 345.45,-139.06"/>
</a>
</g>
</g>
<!-- Node16&#45;&gt;Node2 -->
<g id="edge18_Node000016_Node000002" class="edge">
<title>Node16&#45;&gt;Node2</title>
<g id="a_edge18_Node000016_Node000002"><a xlink:title=" ">
<path fill="none" stroke="#63b8ff" d="M318.85,-111.58C315.86,-111.04 312.88,-110.51 310,-110 214.58,-93.2 167.65,-138.1 95,-74 82.47,-62.95 78.04,-44.01 76.56,-29.68"/>
<polygon fill="#63b8ff" stroke="#63b8ff" points="80.03,-29.17 75.9,-19.42 73.05,-29.62 80.03,-29.17"/>
</a>
</g>
</g>
<!-- Node16&#45;&gt;Node10 -->
<g id="edge19_Node000016_Node000010" class="edge">
<title>Node16&#45;&gt;Node10</title>
<g id="a_edge19_Node000016_Node000010"><a xlink:title=" ">
<path fill="none" stroke="#63b8ff" d="M347.57,-109.66C330.21,-91.46 290.24,-49.55 268.23,-26.47"/>
<polygon fill="#63b8ff" stroke="#63b8ff" points="270.69,-23.98 261.26,-19.16 265.63,-28.81 270.69,-23.98"/>
</a>
</g>
</g>
<!-- Node16&#45;&gt;Node17 -->
<g id="edge20_Node000016_Node000017" class="edge">
<title>Node16&#45;&gt;Node17</title>
<g id="a_edge20_Node000016_Node000017"><a xlink:title=" ">
<path fill="none" stroke="#63b8ff" d="M361.94,-109.75C366.98,-102.34 374.34,-91.5 380.51,-82.41"/>
<polygon fill="#63b8ff" stroke="#63b8ff" points="383.44,-84.33 386.17,-74.09 377.65,-80.39 383.44,-84.33"/>
</a>
</g>
</g>
<!-- Node17&#45;&gt;Node2 -->
<g id="edge29_Node000017_Node000002" class="edge">
<title>Node17&#45;&gt;Node2</title>
<g id="a_edge29_Node000017_Node000002"><a xlink:title=" ">
<path fill="none" stroke="#63b8ff" d="M353.25,-57C293.27,-46.94 178.47,-27.69 117.1,-17.39"/>
<polygon fill="#63b8ff" stroke="#63b8ff" points="117.44,-13.9 107,-15.7 116.28,-20.81 117.44,-13.9"/>
</a>
</g>
</g>
<!-- Node17&#45;&gt;Node6 -->
<g id="edge21_Node000017_Node000006" class="edge">
<title>Node17&#45;&gt;Node6</title>
<g id="a_edge21_Node000017_Node000006"><a xlink:title=" ">
<path fill="none" stroke="#63b8ff" d="M428.79,-54.98C468.47,-45.8 531.73,-31.16 574.74,-21.21"/>
<polygon fill="#63b8ff" stroke="#63b8ff" points="575.72,-24.57 584.68,-18.91 574.15,-17.75 575.72,-24.57"/>
</a>
</g>
</g>
<!-- Node17&#45;&gt;Node7 -->
<g id="edge23_Node000017_Node000007" class="edge">
<title>Node17&#45;&gt;Node7</title>
<g id="a_edge23_Node000017_Node000007"><a xlink:title=" ">
<path fill="none" stroke="#63b8ff" d="M430.6,-61.71C506.35,-57.75 679.89,-46.47 834.19,-19.07"/>
<polygon fill="#63b8ff" stroke="#63b8ff" points="835.11,-22.46 844.33,-17.24 833.87,-15.57 835.11,-22.46"/>
</a>
</g>
</g>
<!-- Node17&#45;&gt;Node8 -->
<g id="edge22_Node000017_Node000008" class="edge">
<title>Node17&#45;&gt;Node8</title>
<g id="a_edge22_Node000017_Node000008"><a xlink:title=" ">
<path fill="none" stroke="#63b8ff" d="M409.99,-54.98C427.93,-46.5 455.72,-33.35 476.43,-23.54"/>
<polygon fill="#63b8ff" stroke="#63b8ff" points="478.14,-26.61 485.68,-19.17 475.14,-20.28 478.14,-26.61"/>
</a>
</g>
</g>
<!-- Node17&#45;&gt;Node10 -->
<g id="edge28_Node000017_Node000010" class="edge">
<title>Node17&#45;&gt;Node10</title>
<g id="a_edge28_Node000017_Node000010"><a xlink:title=" ">
<path fill="none" stroke="#63b8ff" d="M369.67,-54.98C346.8,-46.27 311.04,-32.63 285.14,-22.75"/>
<polygon fill="#63b8ff" stroke="#63b8ff" points="286.33,-19.46 275.74,-19.17 283.84,-26 286.33,-19.46"/>
</a>
</g>
</g>
<!-- Node17&#45;&gt;Node11 -->
<g id="edge26_Node000017_Node000011" class="edge">
<title>Node17&#45;&gt;Node11</title>
<g id="a_edge26_Node000017_Node000011"><a xlink:title=" ">
<path fill="none" stroke="#63b8ff" d="M430.67,-57.82C481.91,-50.17 575.33,-35.75 664.57,-19.2"/>
<polygon fill="#63b8ff" stroke="#63b8ff" points="665.4,-22.6 674.59,-17.33 664.11,-15.72 665.4,-22.6"/>
</a>
</g>
</g>
<!-- Node18 -->
<g id="Node000018" class="node">
<title>Node18</title>
<g id="a_Node000018"><a xlink:title=" ">
<polygon fill="#e0e0e0" stroke="#999999" points="458,-19 426,-19 426,0 458,0 458,-19"/>
<text text-anchor="middle" x="442" y="-7" font-family="Helvetica,sans-Serif" font-size="10.00">ff.h</text>
</a>
</g>
</g>
<!-- Node17&#45;&gt;Node18 -->
<g id="edge24_Node000017_Node000018" class="edge">
<title>Node17&#45;&gt;Node18</title>
<g id="a_edge24_Node000017_Node000018"><a xlink:title=" ">
<path fill="none" stroke="#63b8ff" d="M400.26,-54.75C407.46,-47.11 418.11,-35.82 426.85,-26.56"/>
<polygon fill="#63b8ff" stroke="#63b8ff" points="429.58,-28.76 433.9,-19.09 424.49,-23.96 429.58,-28.76"/>
</a>
</g>
</g>
<!-- Node19 -->
<g id="Node000019" class="node">
<title>Node19</title>
<g id="a_Node000019"><a xlink:href="filesystem__errors_8h.html" target="_top" xlink:title=" ">
<polygon fill="white" stroke="#666666" points="408,-19 298,-19 298,0 408,0 408,-19"/>
<text text-anchor="middle" x="353" y="-7" font-family="Helvetica,sans-Serif" font-size="10.00">filesystem_errors.h</text>
</a>
</g>
</g>
<!-- Node17&#45;&gt;Node19 -->
<g id="edge25_Node000017_Node000019" class="edge">
<title>Node17&#45;&gt;Node19</title>
<g id="a_edge25_Node000017_Node000019"><a xlink:title=" ">
<path fill="none" stroke="#63b8ff" d="M385.56,-54.75C380.11,-47.34 372.14,-36.5 365.44,-27.41"/>
<polygon fill="#63b8ff" stroke="#63b8ff" points="368.07,-25.07 359.32,-19.09 362.43,-29.22 368.07,-25.07"/>
</a>
</g>
</g>
<!-- Node20 -->
<g id="Node000020" class="node">
<title>Node20</title>
<g id="a_Node000020"><a xlink:title=" ">
<polygon fill="#e0e0e0" stroke="#999999" points="198,-19 142,-19 142,0 198,0 198,-19"/>
<text text-anchor="middle" x="170" y="-7" font-family="Helvetica,sans-Serif" font-size="10.00">stddef.h</text>
</a>
</g>
</g>
<!-- Node17&#45;&gt;Node20 -->
<g id="edge27_Node000017_Node000020" class="edge">
<title>Node17&#45;&gt;Node20</title>
<g id="a_edge27_Node000017_Node000020"><a xlink:title=" ">
<path fill="none" stroke="#63b8ff" d="M356.33,-54.98C315.68,-45.28 249.51,-29.48 207.94,-19.56"/>
<polygon fill="#63b8ff" stroke="#63b8ff" points="208.72,-16.15 198.19,-17.23 207.1,-22.96 208.72,-16.15"/>
</a>
</g>
</g>
<!-- Node21&#45;&gt;Node6 -->
<g id="edge31_Node000021_Node000006" class="edge">
<title>Node21&#45;&gt;Node6</title>
<g id="a_edge31_Node000021_Node000006"><a xlink:title=" ">
<path fill="none" stroke="#63b8ff" d="M586.89,-164.95C599.71,-157.43 616.38,-145.15 624,-129 639.31,-96.54 632.37,-53.32 626.39,-29.06"/>
<polygon fill="#63b8ff" stroke="#63b8ff" points="629.68,-27.83 623.71,-19.07 622.92,-29.64 629.68,-27.83"/>
</a>
</g>
</g>
<!-- Node21&#45;&gt;Node8 -->
<g id="edge32_Node000021_Node000008" class="edge">
<title>Node21&#45;&gt;Node8</title>
<g id="a_edge32_Node000021_Node000008"><a xlink:title=" ">
<path fill="none" stroke="#63b8ff" d="M553.8,-164.89C541.2,-157.25 524.48,-144.85 516,-129 498.99,-97.2 499.59,-53.74 501.69,-29.26"/>
<polygon fill="#63b8ff" stroke="#63b8ff" points="505.19,-29.49 502.75,-19.18 498.23,-28.76 505.19,-29.49"/>
</a>
</g>
</g>
<!-- Node21&#45;&gt;Node22 -->
<g id="edge33_Node000021_Node000022" class="edge">
<title>Node21&#45;&gt;Node22</title>
<g id="a_edge33_Node000021_Node000022"><a xlink:title=" ">
<path fill="none" stroke="#63b8ff" d="M570,-164.75C570,-157.8 570,-147.85 570,-139.13"/>
<polygon fill="#63b8ff" stroke="#63b8ff" points="573.5,-139.09 570,-129.09 566.5,-139.09 573.5,-139.09"/>
</a>
</g>
</g>
<!-- Node22&#45;&gt;Node6 -->
<g id="edge34_Node000022_Node000006" class="edge">
<title>Node22&#45;&gt;Node6</title>
<g id="a_edge34_Node000022_Node000006"><a xlink:title=" ">
<path fill="none" stroke="#63b8ff" d="M574.17,-109.66C582.55,-91.93 601.53,-51.73 612.59,-28.32"/>
<polygon fill="#63b8ff" stroke="#63b8ff" points="615.81,-29.7 616.91,-19.16 609.48,-26.71 615.81,-29.7"/>
</a>
</g>
</g>
<!-- Node22&#45;&gt;Node8 -->
<g id="edge35_Node000022_Node000008" class="edge">
<title>Node22&#45;&gt;Node8</title>
<g id="a_edge35_Node000022_Node000008"><a xlink:title=" ">
<path fill="none" stroke="#63b8ff" d="M564.6,-109.66C553.67,-91.77 528.75,-51 514.51,-27.69"/>
<polygon fill="#63b8ff" stroke="#63b8ff" points="517.49,-25.87 509.29,-19.16 511.52,-29.52 517.49,-25.87"/>
</a>
</g>
</g>
<!-- Node22&#45;&gt;Node17 -->
<g id="edge36_Node000022_Node000017" class="edge">
<title>Node22&#45;&gt;Node17</title>
<g id="a_edge36_Node000022_Node000017"><a xlink:title=" ">
<path fill="none" stroke="#63b8ff" d="M541.4,-109.98C511.39,-101.05 464.02,-86.94 430.68,-77.02"/>
<polygon fill="#63b8ff" stroke="#63b8ff" points="431.41,-73.58 420.82,-74.08 429.41,-80.29 431.41,-73.58"/>
</a>
</g>
</g>
<!-- Node23&#45;&gt;Node2 -->
<g id="edge39_Node000023_Node000002" class="edge">
<title>Node23&#45;&gt;Node2</title>
<g id="a_edge39_Node000023_Node000002"><a xlink:title=" ">
<path fill="none" stroke="#63b8ff" d="M535.33,-227.72C450.1,-224.01 127.73,-205.06 70,-129 47.77,-99.71 59.46,-53.65 68.57,-28.45"/>
<polygon fill="#63b8ff" stroke="#63b8ff" points="71.87,-29.63 72.21,-19.04 65.34,-27.1 71.87,-29.63"/>
</a>
</g>
</g>
<!-- Node23&#45;&gt;Node21 -->
<g id="edge38_Node000023_Node000021" class="edge">
<title>Node23&#45;&gt;Node21</title>
<g id="a_edge38_Node000023_Node000021"><a xlink:title=" ">
<path fill="none" stroke="#63b8ff" d="M558.31,-219.75C560.17,-212.72 562.84,-202.62 565.15,-193.84"/>
<polygon fill="#63b8ff" stroke="#63b8ff" points="568.56,-194.65 567.73,-184.09 561.79,-192.86 568.56,-194.65"/>
</a>
</g>
</g>
<!-- Node24&#45;&gt;Node11 -->
<g id="edge41_Node000024_Node000011" class="edge">
<title>Node24&#45;&gt;Node11</title>
<g id="a_edge41_Node000024_Node000011"><a xlink:title=" ">
<path fill="none" stroke="#63b8ff" d="M774.38,-164.86C774.9,-144.42 774.03,-92.08 754,-55 747.65,-43.25 737.01,-32.9 727.36,-25.15"/>
<polygon fill="#63b8ff" stroke="#63b8ff" points="729.35,-22.27 719.27,-19.04 725.14,-27.86 729.35,-22.27"/>
</a>
</g>
</g>
<!-- Node25&#45;&gt;Node6 -->
<g id="edge44_Node000025_Node000006" class="edge">
<title>Node25&#45;&gt;Node6</title>
<g id="a_edge44_Node000025_Node000006"><a xlink:title=" ">
<path fill="none" stroke="#63b8ff" d="M803.14,-54.98C765.91,-45.89 706.8,-31.46 666.07,-21.51"/>
<polygon fill="#63b8ff" stroke="#63b8ff" points="666.68,-18.05 656.14,-19.08 665.02,-24.85 666.68,-18.05"/>
</a>
</g>
</g>
<!-- Node25&#45;&gt;Node7 -->
<g id="edge45_Node000025_Node000007" class="edge">
<title>Node25&#45;&gt;Node7</title>
<g id="a_edge45_Node000025_Node000007"><a xlink:title=" ">
<path fill="none" stroke="#63b8ff" d="M842.95,-54.75C847.06,-47.49 853.03,-36.95 858.1,-27.98"/>
<polygon fill="#63b8ff" stroke="#63b8ff" points="861.26,-29.52 863.14,-19.09 855.17,-26.07 861.26,-29.52"/>
</a>
</g>
</g>
<!-- Node28&#45;&gt;Node10 -->
<g id="edge54_Node000028_Node000010" class="edge">
<title>Node28&#45;&gt;Node10</title>
<g id="a_edge54_Node000028_Node000010"><a xlink:title=" ">
<path fill="none" stroke="#63b8ff" d="M140.2,-109.99C157.88,-102.26 183.13,-89.67 202,-74 218.08,-60.64 232.6,-41.53 242,-27.76"/>
<polygon fill="#63b8ff" stroke="#63b8ff" points="245.05,-29.5 247.64,-19.23 239.21,-25.64 245.05,-29.5"/>
</a>
</g>
</g>
<!-- Node29 -->
<g id="Node000029" class="node">
<title>Node29</title>
<g id="a_Node000029"><a xlink:href="simulator_2pico-sdk_2hardware_2i2c_8h.html" target="_top" xlink:title=" ">
<polygon fill="white" stroke="#666666" points="193.5,-74 104.5,-74 104.5,-55 193.5,-55 193.5,-74"/>
<text text-anchor="middle" x="149" y="-62" font-family="Helvetica,sans-Serif" font-size="10.00">hardware/i2c.h</text>
</a>
</g>
</g>
<!-- Node28&#45;&gt;Node29 -->
<g id="edge50_Node000028_Node000029" class="edge">
<title>Node28&#45;&gt;Node29</title>
<g id="a_edge50_Node000028_Node000029"><a xlink:title=" ">
<path fill="none" stroke="#63b8ff" d="M123.95,-109.75C128.06,-102.49 134.03,-91.95 139.1,-82.98"/>
<polygon fill="#63b8ff" stroke="#63b8ff" points="142.26,-84.52 144.14,-74.09 136.17,-81.07 142.26,-84.52"/>
</a>
</g>
</g>
<!-- Node29&#45;&gt;Node2 -->
<g id="edge53_Node000029_Node000002" class="edge">
<title>Node29&#45;&gt;Node2</title>
<g id="a_edge53_Node000029_Node000002"><a xlink:title=" ">
<path fill="none" stroke="#63b8ff" d="M137.27,-54.98C126.27,-47 109.58,-34.88 96.4,-25.31"/>
<polygon fill="#63b8ff" stroke="#63b8ff" points="98.09,-22.21 87.94,-19.17 93.98,-27.88 98.09,-22.21"/>
</a>
</g>
</g>
<!-- Node29&#45;&gt;Node10 -->
<g id="edge51_Node000029_Node000010" class="edge">
<title>Node29&#45;&gt;Node10</title>
<g id="a_edge51_Node000029_Node000010"><a xlink:title=" ">
<path fill="none" stroke="#63b8ff" d="M165.71,-54.98C182.21,-46.57 207.7,-33.59 226.88,-23.81"/>
<polygon fill="#63b8ff" stroke="#63b8ff" points="228.67,-26.83 235.99,-19.17 225.49,-20.59 228.67,-26.83"/>
</a>
</g>
</g>
<!-- Node29&#45;&gt;Node20 -->
<g id="edge52_Node000029_Node000020" class="edge">
<title>Node29&#45;&gt;Node20</title>
<g id="a_edge52_Node000029_Node000020"><a xlink:title=" ">
<path fill="none" stroke="#63b8ff" d="M152.47,-54.75C155.28,-47.65 159.34,-37.4 162.85,-28.56"/>
<polygon fill="#63b8ff" stroke="#63b8ff" points="166.17,-29.68 166.6,-19.09 159.66,-27.1 166.17,-29.68"/>
</a>
</g>
</g>
</g>
</svg>
