<?xml version="1.0" encoding="UTF-8" standalone="no"?>
<!DOCTYPE svg PUBLIC "-//W3C//DTD SVG 1.1//EN"
 "http://www.w3.org/Graphics/SVG/1.1/DTD/svg11.dtd">
<!-- Generated by graphviz version 12.1.2 (20240928.0832)
 -->
<!-- Title: main.c Pages: 1 -->
<svg width="922pt" height="252pt"
 viewBox="0.00 0.00 921.75 252.00" xmlns="http://www.w3.org/2000/svg" xmlns:xlink="http://www.w3.org/1999/xlink">
<g id="graph0" class="graph" transform="scale(1 1) rotate(0) translate(4 248)">
<title>main.c</title>
<!-- Node1 -->
<g id="Node000001" class="node">
<title>Node1</title>
<g id="a_Node000001"><a xlink:title=" ">
<polygon fill="#999999" stroke="#666666" points="490.75,-244 445.5,-244 445.5,-224 490.75,-224 490.75,-244"/>
<text text-anchor="middle" x="468.12" y="-230.5" font-family="Helvetica,sans-Serif" font-size="10.00">main.c</text>
</a>
</g>
</g>
<!-- Node2 -->
<g id="Node000002" class="node">
<title>Node2</title>
<g id="a_Node000002"><a xlink:title=" ">
<polygon fill="#e0e0e0" stroke="#999999" points="122,-20 66.25,-20 66.25,0 122,0 122,-20"/>
<text text-anchor="middle" x="94.12" y="-6.5" font-family="Helvetica,sans-Serif" font-size="10.00">stdbool.h</text>
</a>
</g>
</g>
<!-- Node1&#45;&gt;Node2 -->
<g id="edge1_Node000001_Node000002" class="edge">
<title>Node1&#45;&gt;Node2</title>
<g id="a_edge1_Node000001_Node000002"><a xlink:title=" ">
<path fill="none" stroke="#63b8ff" d="M445.1,-232.73C368.76,-231.51 124.99,-224.73 57.12,-188 22.4,-169.21 -2.19,-149.17 11.12,-112 23.54,-77.35 53.53,-46.07 73.85,-27.8"/>
<polygon fill="#63b8ff" stroke="#63b8ff" points="76.02,-30.55 81.26,-21.34 71.42,-25.27 76.02,-30.55"/>
</a>
</g>
</g>
<!-- Node3 -->
<g id="Node000003" class="node">
<title>Node3</title>
<g id="a_Node000003"><a xlink:href="stdlib_8h.html" target="_top" xlink:title=" ">
<polygon fill="white" stroke="#666666" points="600.88,-188 553.38,-188 553.38,-168 600.88,-168 600.88,-188"/>
<text text-anchor="middle" x="577.12" y="-174.5" font-family="Helvetica,sans-Serif" font-size="10.00">stdlib.h</text>
</a>
</g>
</g>
<!-- Node1&#45;&gt;Node3 -->
<g id="edge2_Node000001_Node000003" class="edge">
<title>Node1&#45;&gt;Node3</title>
<g id="a_edge2_Node000001_Node000003"><a xlink:title=" ">
<path fill="none" stroke="#63b8ff" d="M487.11,-223.59C503.89,-215.28 528.62,-203.03 547.91,-193.47"/>
<polygon fill="#63b8ff" stroke="#63b8ff" points="549.23,-196.73 556.63,-189.15 546.12,-190.45 549.23,-196.73"/>
</a>
</g>
</g>
<!-- Node4 -->
<g id="Node000004" class="node">
<title>Node4</title>
<g id="a_Node000004"><a xlink:title=" ">
<polygon fill="#e0e0e0" stroke="#999999" points="667.25,-188 619,-188 619,-168 667.25,-168 667.25,-188"/>
<text text-anchor="middle" x="643.12" y="-174.5" font-family="Helvetica,sans-Serif" font-size="10.00">string.h</text>
</a>
</g>
</g>
<!-- Node1&#45;&gt;Node4 -->
<g id="edge3_Node000001_Node000004" class="edge">
<title>Node1&#45;&gt;Node4</title>
<g id="a_edge3_Node000001_Node000004"><a xlink:title=" ">
<path fill="none" stroke="#63b8ff" d="M491,-225.94C520.76,-216.76 573.06,-200.62 607.9,-189.87"/>
<polygon fill="#63b8ff" stroke="#63b8ff" points="608.58,-193.32 617.1,-187.03 606.52,-186.63 608.58,-193.32"/>
</a>
</g>
</g>
<!-- Node5 -->
<g id="Node000005" class="node">
<title>Node5</title>
<g id="a_Node000005"><a xlink:title=" ">
<polygon fill="#e0e0e0" stroke="#999999" points="728.62,-188 685.62,-188 685.62,-168 728.62,-168 728.62,-188"/>
<text text-anchor="middle" x="707.12" y="-174.5" font-family="Helvetica,sans-Serif" font-size="10.00">time.h</text>
</a>
</g>
</g>
<!-- Node1&#45;&gt;Node5 -->
<g id="edge4_Node000001_Node000005" class="edge">
<title>Node1&#45;&gt;Node5</title>
<g id="a_edge4_Node000001_Node000005"><a xlink:title=" ">
<path fill="none" stroke="#63b8ff" d="M491.02,-228.59C527.58,-221.43 601.62,-206.46 674.03,-188.39"/>
<polygon fill="#63b8ff" stroke="#63b8ff" points="674.85,-191.79 683.69,-185.95 673.14,-185 674.85,-191.79"/>
</a>
</g>
</g>
<!-- Node6 -->
<g id="Node000006" class="node">
<title>Node6</title>
<g id="a_Node000006"><a xlink:title=" ">
<polygon fill="#e0e0e0" stroke="#999999" points="471.5,-20 400.75,-20 400.75,0 471.5,0 471.5,-20"/>
<text text-anchor="middle" x="436.12" y="-6.5" font-family="Helvetica,sans-Serif" font-size="10.00">FreeRTOS.h</text>
</a>
</g>
</g>
<!-- Node1&#45;&gt;Node6 -->
<g id="edge5_Node000001_Node000006" class="edge">
<title>Node1&#45;&gt;Node6</title>
<g id="a_edge5_Node000001_Node000006"><a xlink:title=" ">
<path fill="none" stroke="#63b8ff" d="M466.79,-223.74C462.03,-190.74 445.83,-78.31 439.1,-31.61"/>
<polygon fill="#63b8ff" stroke="#63b8ff" points="442.57,-31.19 437.68,-21.79 435.64,-32.19 442.57,-31.19"/>
</a>
</g>
</g>
<!-- Node7 -->
<g id="Node000007" class="node">
<title>Node7</title>
<g id="a_Node000007"><a xlink:title=" ">
<polygon fill="#e0e0e0" stroke="#999999" points="532.62,-20 489.62,-20 489.62,0 532.62,0 532.62,-20"/>
<text text-anchor="middle" x="511.12" y="-6.5" font-family="Helvetica,sans-Serif" font-size="10.00">task.h</text>
</a>
</g>
</g>
<!-- Node1&#45;&gt;Node7 -->
<g id="edge6_Node000001_Node000007" class="edge">
<title>Node1&#45;&gt;Node7</title>
<g id="a_edge6_Node000001_Node000007"><a xlink:title=" ">
<path fill="none" stroke="#63b8ff" d="M475.32,-223.8C492.9,-200.63 537.64,-137.38 552.12,-76 554.17,-67.35 555.33,-64.29 552.12,-56 548.02,-45.4 540.13,-35.77 532.36,-28.16"/>
<polygon fill="#63b8ff" stroke="#63b8ff" points="534.74,-25.59 524.97,-21.49 530.05,-30.79 534.74,-25.59"/>
</a>
</g>
</g>
<!-- Node8 -->
<g id="Node000008" class="node">
<title>Node8</title>
<g id="a_Node000008"><a xlink:title=" ">
<polygon fill="#e0e0e0" stroke="#999999" points="382.38,-20 331.88,-20 331.88,0 382.38,0 382.38,-20"/>
<text text-anchor="middle" x="357.12" y="-6.5" font-family="Helvetica,sans-Serif" font-size="10.00">queue.h</text>
</a>
</g>
</g>
<!-- Node1&#45;&gt;Node8 -->
<g id="edge7_Node000001_Node000008" class="edge">
<title>Node1&#45;&gt;Node8</title>
<g id="a_edge7_Node000001_Node000008"><a xlink:title=" ">
<path fill="none" stroke="#63b8ff" d="M465.1,-223.77C456.1,-196.84 427.83,-116.48 392.12,-56 386.62,-46.67 379.42,-37.09 372.98,-29.18"/>
<polygon fill="#63b8ff" stroke="#63b8ff" points="375.76,-27.05 366.65,-21.65 370.41,-31.55 375.76,-27.05"/>
</a>
</g>
</g>
<!-- Node9 -->
<g id="Node000009" class="node">
<title>Node9</title>
<g id="a_Node000009"><a xlink:href="gse_8h.html" target="_top" xlink:title=" ">
<polygon fill="white" stroke="#666666" points="787.12,-188 747.12,-188 747.12,-168 787.12,-168 787.12,-188"/>
<text text-anchor="middle" x="767.12" y="-174.5" font-family="Helvetica,sans-Serif" font-size="10.00">gse.h</text>
</a>
</g>
</g>
<!-- Node1&#45;&gt;Node9 -->
<g id="edge8_Node000001_Node000009" class="edge">
<title>Node1&#45;&gt;Node9</title>
<g id="a_edge8_Node000001_Node000009"><a xlink:title=" ">
<path fill="none" stroke="#63b8ff" d="M491.09,-230.24C536.2,-224.6 639.67,-210.55 735.57,-188.34"/>
<polygon fill="#63b8ff" stroke="#63b8ff" points="736.22,-191.79 745.15,-186.09 734.62,-184.97 736.22,-191.79"/>
</a>
</g>
</g>
<!-- Node10 -->
<g id="Node000010" class="node">
<title>Node10</title>
<g id="a_Node000010"><a xlink:href="command_8h.html" target="_top" xlink:title=" ">
<polygon fill="white" stroke="#666666" points="133.62,-188 66.62,-188 66.62,-168 133.62,-168 133.62,-188"/>
<text text-anchor="middle" x="100.12" y="-174.5" font-family="Helvetica,sans-Serif" font-size="10.00">command.h</text>
</a>
</g>
</g>
<!-- Node1&#45;&gt;Node10 -->
<g id="edge9_Node000001_Node000010" class="edge">
<title>Node1&#45;&gt;Node10</title>
<g id="a_edge9_Node000001_Node000010"><a xlink:title=" ">
<path fill="none" stroke="#63b8ff" d="M445.1,-229.62C385.26,-220.84 223.99,-197.18 144.98,-185.58"/>
<polygon fill="#63b8ff" stroke="#63b8ff" points="145.84,-182.17 135.44,-184.18 144.83,-189.1 145.84,-182.17"/>
</a>
</g>
</g>
<!-- Node14 -->
<g id="Node000014" class="node">
<title>Node14</title>
<g id="a_Node000014"><a xlink:href="filesystem_8h.html" target="_top" xlink:title=" ">
<polygon fill="white" stroke="#666666" points="247.75,-76 178.5,-76 178.5,-56 247.75,-56 247.75,-76"/>
<text text-anchor="middle" x="213.12" y="-62.5" font-family="Helvetica,sans-Serif" font-size="10.00">filesystem.h</text>
</a>
</g>
</g>
<!-- Node1&#45;&gt;Node14 -->
<g id="edge32_Node000001_Node000014" class="edge">
<title>Node1&#45;&gt;Node14</title>
<g id="a_edge32_Node000001_Node000014"><a xlink:title=" ">
<path fill="none" stroke="#63b8ff" d="M445.01,-229.35C412.83,-223.66 353.28,-210.88 307.12,-188 270.17,-169.68 256.78,-165.79 233.12,-132 223.79,-118.67 218.71,-100.86 216.01,-87.25"/>
<polygon fill="#63b8ff" stroke="#63b8ff" points="219.51,-86.95 214.4,-77.67 212.61,-88.12 219.51,-86.95"/>
</a>
</g>
</g>
<!-- Node18 -->
<g id="Node000018" class="node">
<title>Node18</title>
<g id="a_Node000018"><a xlink:href="telemetry_8h.html" target="_top" xlink:title=" ">
<polygon fill="white" stroke="#666666" points="383.12,-76 319.12,-76 319.12,-56 383.12,-56 383.12,-76"/>
<text text-anchor="middle" x="351.12" y="-62.5" font-family="Helvetica,sans-Serif" font-size="10.00">telemetry.h</text>
</a>
</g>
</g>
<!-- Node1&#45;&gt;Node18 -->
<g id="edge24_Node000001_Node000018" class="edge">
<title>Node1&#45;&gt;Node18</title>
<g id="a_edge24_Node000001_Node000018"><a xlink:title=" ">
<path fill="none" stroke="#63b8ff" d="M445.89,-223.57C430.35,-215.97 410.14,-203.94 397.12,-188 372.45,-157.78 360.09,-112.9 354.69,-87.15"/>
<polygon fill="#63b8ff" stroke="#63b8ff" points="358.19,-86.83 352.86,-77.67 351.32,-88.15 358.19,-86.83"/>
</a>
</g>
</g>
<!-- Node19 -->
<g id="Node000019" class="node">
<title>Node19</title>
<g id="a_Node000019"><a xlink:href="log_8h.html" target="_top" xlink:title=" ">
<polygon fill="white" stroke="#666666" points="278.62,-132 241.62,-132 241.62,-112 278.62,-112 278.62,-132"/>
<text text-anchor="middle" x="260.12" y="-118.5" font-family="Helvetica,sans-Serif" font-size="10.00">log.h</text>
</a>
</g>
</g>
<!-- Node1&#45;&gt;Node19 -->
<g id="edge27_Node000001_Node000019" class="edge">
<title>Node1&#45;&gt;Node19</title>
<g id="a_edge27_Node000001_Node000019"><a xlink:title=" ">
<path fill="none" stroke="#63b8ff" d="M445.19,-227.62C418.56,-220.8 373.86,-207.52 339.12,-188 315.57,-174.76 292.11,-154.3 276.95,-139.88"/>
<polygon fill="#63b8ff" stroke="#63b8ff" points="279.74,-137.71 270.13,-133.24 274.86,-142.72 279.74,-137.71"/>
</a>
</g>
</g>
<!-- Node20 -->
<g id="Node000020" class="node">
<title>Node20</title>
<g id="a_Node000020"><a xlink:href="steve_8h.html" target="_top" xlink:title=" ">
<polygon fill="white" stroke="#666666" points="345.25,-132 297,-132 297,-112 345.25,-112 345.25,-132"/>
<text text-anchor="middle" x="321.12" y="-118.5" font-family="Helvetica,sans-Serif" font-size="10.00">steve.h</text>
</a>
</g>
</g>
<!-- Node1&#45;&gt;Node20 -->
<g id="edge30_Node000001_Node000020" class="edge">
<title>Node1&#45;&gt;Node20</title>
<g id="a_edge30_Node000001_Node000020"><a xlink:title=" ">
<path fill="none" stroke="#63b8ff" d="M445.38,-228.18C421.6,-222.17 384.29,-209.92 359.12,-188 345.11,-175.79 334.94,-157.09 328.67,-142.88"/>
<polygon fill="#63b8ff" stroke="#63b8ff" points="331.91,-141.57 324.89,-133.64 325.44,-144.22 331.91,-141.57"/>
</a>
</g>
</g>
<!-- Node21 -->
<g id="Node000021" class="node">
<title>Node21</title>
<g id="a_Node000021"><a xlink:href="watchdog_8h.html" target="_top" xlink:title=" ">
<polygon fill="white" stroke="#666666" points="543.25,-76 477,-76 477,-56 543.25,-56 543.25,-76"/>
<text text-anchor="middle" x="510.12" y="-62.5" font-family="Helvetica,sans-Serif" font-size="10.00">watchdog.h</text>
</a>
</g>
</g>
<!-- Node1&#45;&gt;Node21 -->
<g id="edge33_Node000001_Node000021" class="edge">
<title>Node1&#45;&gt;Node21</title>
<g id="a_edge33_Node000001_Node000021"><a xlink:title=" ">
<path fill="none" stroke="#63b8ff" d="M470.5,-223.6C477.12,-197.46 495.83,-123.48 504.97,-87.36"/>
<polygon fill="#63b8ff" stroke="#63b8ff" points="508.34,-88.32 507.4,-77.76 501.56,-86.6 508.34,-88.32"/>
</a>
</g>
</g>
<!-- Node22 -->
<g id="Node000022" class="node">
<title>Node22</title>
<g id="a_Node000022"><a xlink:title=" ">
<polygon fill="#e0e0e0" stroke="#999999" points="850.75,-188 805.5,-188 805.5,-168 850.75,-168 850.75,-188"/>
<text text-anchor="middle" x="828.12" y="-174.5" font-family="Helvetica,sans-Serif" font-size="10.00">radio.h</text>
</a>
</g>
</g>
<!-- Node1&#45;&gt;Node22 -->
<g id="edge36_Node000001_Node000022" class="edge">
<title>Node1&#45;&gt;Node22</title>
<g id="a_edge36_Node000001_Node000022"><a xlink:title=" ">
<path fill="none" stroke="#63b8ff" d="M490.98,-230.96C543.01,-226.08 674.45,-212.46 793.99,-188.18"/>
<polygon fill="#63b8ff" stroke="#63b8ff" points="794.58,-191.63 803.66,-186.18 793.16,-184.77 794.58,-191.63"/>
</a>
</g>
</g>
<!-- Node23 -->
<g id="Node000023" class="node">
<title>Node23</title>
<g id="a_Node000023"><a xlink:href="main_8h.html" target="_top" xlink:title=" ">
<polygon fill="white" stroke="#666666" points="913.75,-188 868.5,-188 868.5,-168 913.75,-168 913.75,-188"/>
<text text-anchor="middle" x="891.12" y="-174.5" font-family="Helvetica,sans-Serif" font-size="10.00">main.h</text>
</a>
</g>
</g>
<!-- Node1&#45;&gt;Node23 -->
<g id="edge37_Node000001_Node000023" class="edge">
<title>Node1&#45;&gt;Node23</title>
<g id="a_edge37_Node000001_Node000023"><a xlink:title=" ">
<path fill="none" stroke="#63b8ff" d="M490.87,-231.73C549.89,-228.16 712.88,-216.5 856.99,-188.35"/>
<polygon fill="#63b8ff" stroke="#63b8ff" points="857.6,-191.8 866.72,-186.41 856.23,-184.93 857.6,-191.8"/>
</a>
</g>
</g>
<!-- Node11 -->
<g id="Node000011" class="node">
<title>Node11</title>
<g id="a_Node000011"><a xlink:title=" ">
<polygon fill="#e0e0e0" stroke="#999999" points="48.25,-20 0,-20 0,0 48.25,0 48.25,-20"/>
<text text-anchor="middle" x="24.12" y="-6.5" font-family="Helvetica,sans-Serif" font-size="10.00">stdint.h</text>
</a>
</g>
</g>
<!-- Node10&#45;&gt;Node11 -->
<g id="edge10_Node000010_Node000011" class="edge">
<title>Node10&#45;&gt;Node11</title>
<g id="a_edge10_Node000010_Node000011"><a xlink:title=" ">
<path fill="none" stroke="#63b8ff" d="M66.14,-169.26C46.39,-162.82 23.1,-151.47 11.12,-132 -8.08,-100.77 4.72,-56.29 14.97,-30.86"/>
<polygon fill="#63b8ff" stroke="#63b8ff" points="18.16,-32.3 18.9,-21.74 11.73,-29.53 18.16,-32.3"/>
</a>
</g>
</g>
<!-- Node12 -->
<g id="Node000012" class="node">
<title>Node12</title>
<g id="a_Node000012"><a xlink:title=" ">
<polygon fill="#e0e0e0" stroke="#999999" points="185,-132 105.25,-132 105.25,-112 185,-112 185,-132"/>
<text text-anchor="middle" x="145.12" y="-118.5" font-family="Helvetica,sans-Serif" font-size="10.00">spacepacket.h</text>
</a>
</g>
</g>
<!-- Node10&#45;&gt;Node12 -->
<g id="edge11_Node000010_Node000012" class="edge">
<title>Node10&#45;&gt;Node12</title>
<g id="a_edge11_Node000010_Node000012"><a xlink:title=" ">
<path fill="none" stroke="#63b8ff" d="M107.96,-167.59C114.09,-160.24 122.8,-149.8 130.24,-140.87"/>
<polygon fill="#63b8ff" stroke="#63b8ff" points="132.69,-143.38 136.41,-133.46 127.32,-138.9 132.69,-143.38"/>
</a>
</g>
</g>
<!-- Node13 -->
<g id="Node000013" class="node">
<title>Node13</title>
<g id="a_Node000013"><a xlink:href="user__auth_8h.html" target="_top" xlink:title=" ">
<polygon fill="white" stroke="#666666" points="87.62,-132 20.62,-132 20.62,-112 87.62,-112 87.62,-132"/>
<text text-anchor="middle" x="54.12" y="-118.5" font-family="Helvetica,sans-Serif" font-size="10.00">user_auth.h</text>
</a>
</g>
</g>
<!-- Node10&#45;&gt;Node13 -->
<g id="edge12_Node000010_Node000013" class="edge">
<title>Node10&#45;&gt;Node13</title>
<g id="a_edge12_Node000010_Node000013"><a xlink:title=" ">
<path fill="none" stroke="#63b8ff" d="M92.11,-167.59C85.85,-160.24 76.95,-149.8 69.34,-140.87"/>
<polygon fill="#63b8ff" stroke="#63b8ff" points="72.18,-138.79 63.03,-133.45 66.85,-143.33 72.18,-138.79"/>
</a>
</g>
</g>
<!-- Node13&#45;&gt;Node2 -->
<g id="edge13_Node000013_Node000002" class="edge">
<title>Node13&#45;&gt;Node2</title>
<g id="a_edge13_Node000013_Node000002"><a xlink:title=" ">
<path fill="none" stroke="#63b8ff" d="M57.54,-111.62C64,-93.84 78.17,-54.88 86.85,-31"/>
<polygon fill="#63b8ff" stroke="#63b8ff" points="90.08,-32.37 90.21,-21.78 83.5,-29.98 90.08,-32.37"/>
</a>
</g>
</g>
<!-- Node13&#45;&gt;Node11 -->
<g id="edge14_Node000013_Node000011" class="edge">
<title>Node13&#45;&gt;Node11</title>
<g id="a_edge14_Node000013_Node000011"><a xlink:title=" ">
<path fill="none" stroke="#63b8ff" d="M51.57,-111.62C46.74,-93.92 36.19,-55.24 29.67,-31.32"/>
<polygon fill="#63b8ff" stroke="#63b8ff" points="33.08,-30.54 27.07,-21.82 26.33,-32.38 33.08,-30.54"/>
</a>
</g>
</g>
<!-- Node13&#45;&gt;Node14 -->
<g id="edge15_Node000013_Node000014" class="edge">
<title>Node13&#45;&gt;Node14</title>
<g id="a_edge15_Node000013_Node000014"><a xlink:title=" ">
<path fill="none" stroke="#63b8ff" d="M81.82,-111.59C107.43,-102.9 145.73,-89.89 174.37,-80.16"/>
<polygon fill="#63b8ff" stroke="#63b8ff" points="175.44,-83.5 183.78,-76.97 173.19,-76.87 175.44,-83.5"/>
</a>
</g>
</g>
<!-- Node14&#45;&gt;Node2 -->
<g id="edge23_Node000014_Node000002" class="edge">
<title>Node14&#45;&gt;Node2</title>
<g id="a_edge23_Node000014_Node000002"><a xlink:title=" ">
<path fill="none" stroke="#63b8ff" d="M192.4,-55.59C173.91,-47.21 146.58,-34.8 125.43,-25.21"/>
<polygon fill="#63b8ff" stroke="#63b8ff" points="126.95,-22.05 116.39,-21.1 124.05,-28.42 126.95,-22.05"/>
</a>
</g>
</g>
<!-- Node14&#45;&gt;Node6 -->
<g id="edge16_Node000014_Node000006" class="edge">
<title>Node14&#45;&gt;Node6</title>
<g id="a_edge16_Node000014_Node000006"><a xlink:title=" ">
<path fill="none" stroke="#63b8ff" d="M247.97,-56.56C286.01,-47.35 347.12,-32.55 389.32,-22.33"/>
<polygon fill="#63b8ff" stroke="#63b8ff" points="390.05,-25.76 398.95,-20 388.41,-18.95 390.05,-25.76"/>
</a>
</g>
</g>
<!-- Node14&#45;&gt;Node7 -->
<g id="edge18_Node000014_Node000007" class="edge">
<title>Node14&#45;&gt;Node7</title>
<g id="a_edge18_Node000014_Node000007"><a xlink:title=" ">
<path fill="none" stroke="#63b8ff" d="M247.94,-60.44C297.1,-53.72 389.83,-40.01 478.16,-20.22"/>
<polygon fill="#63b8ff" stroke="#63b8ff" points="478.74,-23.67 487.72,-18.04 477.19,-16.85 478.74,-23.67"/>
</a>
</g>
</g>
<!-- Node14&#45;&gt;Node8 -->
<g id="edge17_Node000014_Node000008" class="edge">
<title>Node14&#45;&gt;Node8</title>
<g id="a_edge17_Node000014_Node000008"><a xlink:title=" ">
<path fill="none" stroke="#63b8ff" d="M238.21,-55.59C261.19,-46.97 295.48,-34.12 321.34,-24.42"/>
<polygon fill="#63b8ff" stroke="#63b8ff" points="322.29,-27.8 330.43,-21.01 319.84,-21.25 322.29,-27.8"/>
</a>
</g>
</g>
<!-- Node14&#45;&gt;Node11 -->
<g id="edge22_Node000014_Node000011" class="edge">
<title>Node14&#45;&gt;Node11</title>
<g id="a_edge22_Node000014_Node000011"><a xlink:title=" ">
<path fill="none" stroke="#63b8ff" d="M180.2,-55.59C146.47,-45.96 94.2,-31.02 59.57,-21.13"/>
<polygon fill="#63b8ff" stroke="#63b8ff" points="60.59,-17.78 50.02,-18.4 58.67,-24.51 60.59,-17.78"/>
</a>
</g>
</g>
<!-- Node15 -->
<g id="Node000015" class="node">
<title>Node15</title>
<g id="a_Node000015"><a xlink:title=" ">
<polygon fill="#e0e0e0" stroke="#999999" points="169.88,-20 140.38,-20 140.38,0 169.88,0 169.88,-20"/>
<text text-anchor="middle" x="155.12" y="-6.5" font-family="Helvetica,sans-Serif" font-size="10.00">ff.h</text>
</a>
</g>
</g>
<!-- Node14&#45;&gt;Node15 -->
<g id="edge19_Node000014_Node000015" class="edge">
<title>Node14&#45;&gt;Node15</title>
<g id="a_edge19_Node000014_Node000015"><a xlink:title=" ">
<path fill="none" stroke="#63b8ff" d="M203.02,-55.59C194.87,-48.01 183.19,-37.13 173.41,-28.02"/>
<polygon fill="#63b8ff" stroke="#63b8ff" points="175.92,-25.58 166.22,-21.33 171.15,-30.71 175.92,-25.58"/>
</a>
</g>
</g>
<!-- Node16 -->
<g id="Node000016" class="node">
<title>Node16</title>
<g id="a_Node000016"><a xlink:title=" ">
<polygon fill="#e0e0e0" stroke="#999999" points="313.38,-20 256.88,-20 256.88,0 313.38,0 313.38,-20"/>
<text text-anchor="middle" x="285.12" y="-6.5" font-family="Helvetica,sans-Serif" font-size="10.00">semphr.h</text>
</a>
</g>
</g>
<!-- Node14&#45;&gt;Node16 -->
<g id="edge20_Node000014_Node000016" class="edge">
<title>Node14&#45;&gt;Node16</title>
<g id="a_edge20_Node000014_Node000016"><a xlink:title=" ">
<path fill="none" stroke="#63b8ff" d="M225.67,-55.59C236.09,-47.77 251.17,-36.46 263.54,-27.19"/>
<polygon fill="#63b8ff" stroke="#63b8ff" points="265.62,-30.01 271.52,-21.21 261.42,-24.41 265.62,-30.01"/>
</a>
</g>
</g>
<!-- Node17 -->
<g id="Node000017" class="node">
<title>Node17</title>
<g id="a_Node000017"><a xlink:title=" ">
<polygon fill="#e0e0e0" stroke="#999999" points="238.75,-20 187.5,-20 187.5,0 238.75,0 238.75,-20"/>
<text text-anchor="middle" x="213.12" y="-6.5" font-family="Helvetica,sans-Serif" font-size="10.00">stddef.h</text>
</a>
</g>
</g>
<!-- Node14&#45;&gt;Node17 -->
<g id="edge21_Node000014_Node000017" class="edge">
<title>Node14&#45;&gt;Node17</title>
<g id="a_edge21_Node000014_Node000017"><a xlink:title=" ">
<path fill="none" stroke="#63b8ff" d="M213.12,-55.59C213.12,-49.01 213.12,-39.96 213.12,-31.73"/>
<polygon fill="#63b8ff" stroke="#63b8ff" points="216.63,-31.81 213.13,-21.81 209.63,-31.81 216.63,-31.81"/>
</a>
</g>
</g>
<!-- Node18&#45;&gt;Node6 -->
<g id="edge25_Node000018_Node000006" class="edge">
<title>Node18&#45;&gt;Node6</title>
<g id="a_edge25_Node000018_Node000006"><a xlink:title=" ">
<path fill="none" stroke="#63b8ff" d="M365.93,-55.59C378.53,-47.59 396.88,-35.93 411.66,-26.54"/>
<polygon fill="#63b8ff" stroke="#63b8ff" points="413.36,-29.61 419.93,-21.29 409.61,-23.7 413.36,-29.61"/>
</a>
</g>
</g>
<!-- Node18&#45;&gt;Node8 -->
<g id="edge26_Node000018_Node000008" class="edge">
<title>Node18&#45;&gt;Node8</title>
<g id="a_edge26_Node000018_Node000008"><a xlink:title=" ">
<path fill="none" stroke="#63b8ff" d="M352.17,-55.59C352.9,-49.01 353.91,-39.96 354.82,-31.73"/>
<polygon fill="#63b8ff" stroke="#63b8ff" points="358.3,-32.13 355.92,-21.8 351.34,-31.35 358.3,-32.13"/>
</a>
</g>
</g>
<!-- Node19&#45;&gt;Node2 -->
<g id="edge29_Node000019_Node000002" class="edge">
<title>Node19&#45;&gt;Node2</title>
<g id="a_edge29_Node000019_Node000002"><a xlink:title=" ">
<path fill="none" stroke="#63b8ff" d="M241.24,-113.35C222.29,-105.29 192.61,-91.61 169.12,-76 147.74,-61.78 125.83,-42.08 111.26,-28.11"/>
<polygon fill="#63b8ff" stroke="#63b8ff" points="113.89,-25.78 104.28,-21.3 109,-30.79 113.89,-25.78"/>
</a>
</g>
</g>
<!-- Node19&#45;&gt;Node18 -->
<g id="edge28_Node000019_Node000018" class="edge">
<title>Node19&#45;&gt;Node18</title>
<g id="a_edge28_Node000019_Node000018"><a xlink:title=" ">
<path fill="none" stroke="#63b8ff" d="M275.98,-111.59C289.59,-103.51 309.49,-91.71 325.39,-82.27"/>
<polygon fill="#63b8ff" stroke="#63b8ff" points="327.03,-85.37 333.85,-77.25 323.46,-79.35 327.03,-85.37"/>
</a>
</g>
</g>
<!-- Node20&#45;&gt;Node16 -->
<g id="edge31_Node000020_Node000016" class="edge">
<title>Node20&#45;&gt;Node16</title>
<g id="a_edge31_Node000020_Node000016"><a xlink:title=" ">
<path fill="none" stroke="#63b8ff" d="M318.06,-111.62C312.24,-93.84 299.49,-54.88 291.67,-31"/>
<polygon fill="#63b8ff" stroke="#63b8ff" points="295.09,-30.21 288.66,-21.79 288.44,-32.39 295.09,-30.21"/>
</a>
</g>
</g>
<!-- Node21&#45;&gt;Node6 -->
<g id="edge34_Node000021_Node000006" class="edge">
<title>Node21&#45;&gt;Node6</title>
<g id="a_edge34_Node000021_Node000006"><a xlink:title=" ">
<path fill="none" stroke="#63b8ff" d="M497.24,-55.59C486.41,-47.7 470.71,-36.24 457.94,-26.92"/>
<polygon fill="#63b8ff" stroke="#63b8ff" points="460.23,-24.26 450.09,-21.19 456.1,-29.91 460.23,-24.26"/>
</a>
</g>
</g>
<!-- Node21&#45;&gt;Node7 -->
<g id="edge35_Node000021_Node000007" class="edge">
<title>Node21&#45;&gt;Node7</title>
<g id="a_edge35_Node000021_Node000007"><a xlink:title=" ">
<path fill="none" stroke="#63b8ff" d="M510.3,-55.59C510.42,-49.01 510.59,-39.96 510.74,-31.73"/>
<polygon fill="#63b8ff" stroke="#63b8ff" points="514.24,-31.87 510.92,-21.81 507.24,-31.75 514.24,-31.87"/>
</a>
</g>
</g>
</g>
</svg>
