<?xml version="1.0" encoding="UTF-8" standalone="no"?>
<!DOCTYPE svg PUBLIC "-//W3C//DTD SVG 1.1//EN"
 "http://www.w3.org/Graphics/SVG/1.1/DTD/svg11.dtd">
<!-- Generated by graphviz version 2.43.0 (0)
 -->
<!-- Title: main.c Pages: 1 -->
<!--zoomable 302 -->

<svg id="main" version="1.1" xmlns="http://www.w3.org/2000/svg" xmlns:xlink="http://www.w3.org/1999/xlink" xml:space="preserve" onload="init(evt)">

<style type="text/css"><![CDATA[
.node, .edge {opacity: 0.7;}
.node.selected, .edge.selected {opacity: 1;}
.edge:hover path { stroke: red; }
.edge:hover polygon { stroke: red; fill: red; }
]]></style>

<defs>
  <circle id="rim" cx="0" cy="0" r="7"/>
  <circle id="rim2" cx="0" cy="0" r="3.5"/>
  <g id="zoomPlus">
    <use xlink:href="#rim" fill="#404040"><set attributeName="fill" to="#808080" begin="zoomplus.mouseover" end="zoomplus.mouseout"/></use>
    <path d="M-4,0h8M0,-4v8" fill="none" stroke="white" stroke-width="1.5" pointer-events="none"/>
  </g>
  <g id="zoomMin">
    <use xlink:href="#rim" fill="#404040"><set attributeName="fill" to="#808080" begin="zoomminus.mouseover" end="zoomminus.mouseout"/></use>
    <path d="M-4,0h8" fill="none" stroke="white" stroke-width="1.5" pointer-events="none"/>
  </g>
  <g id="arrowUp" transform="translate(30 24)">
    <use xlink:href="#rim"/>
    <path pointer-events="none" fill="none" stroke="white" stroke-width="1.5" d="M0,-3.0v7 M-2.5,-0.5L0,-3.0L2.5,-0.5"/>
  </g>
  <g id="arrowRight" transform="rotate(90) translate(36 -43)">
    <use xlink:href="#rim"/>
    <path pointer-events="none" fill="none" stroke="white" stroke-width="1.5" d="M0,-3.0v7 M-2.5,-0.5L0,-3.0L2.5,-0.5"/>
  </g>
  <g id="arrowDown" transform="rotate(180) translate(-30 -48)">
    <use xlink:href="#rim"/>
    <path pointer-events="none" fill="none" stroke="white" stroke-width="1.5" d="M0,-3.0v7 M-2.5,-0.5L0,-3.0L2.5,-0.5"/>
  </g>
  <g id="arrowLeft" transform="rotate(270) translate(-36 17)">
    <use xlink:href="#rim"/>
    <path pointer-events="none" fill="none" stroke="white" stroke-width="1.5" d="M0,-3.0v7 M-2.5,-0.5L0,-3.0L2.5,-0.5"/>
  </g>
  <g id="resetDef">
    <use xlink:href="#rim2" fill="#404040"><set attributeName="fill" to="#808080" begin="reset.mouseover" end="reset.mouseout"/></use>
  </g>
</defs>
<script type="application/ecmascript">
var viewWidth = 1387;
var viewHeight = 302;
var sectionId = 'dynsection-0';
</script>
<script type="application/ecmascript" xlink:href="svg.min.js"/>
<svg id="graph" class="graph">
<g id="viewport">
<title>main.c</title>
<!-- Node1 -->
<g id="Node000001" class="node">
<title>Node1</title>
<g id="a_Node000001"><a xlink:title=" ">
<polygon fill="#999999" stroke="#666666" points="785,-294 735,-294 735,-275 785,-275 785,-294"/>
<text text-anchor="middle" x="760" y="-282" font-family="Helvetica,sans-Serif" font-size="10.00">main.c</text>
</a>
</g>
</g>
<!-- Node2 -->
<g id="Node000002" class="node">
<title>Node2</title>
<g id="a_Node000002"><a xlink:title=" ">
<polygon fill="#e0e0e0" stroke="#999999" points="107,-19 45,-19 45,0 107,0 107,-19"/>
<text text-anchor="middle" x="76" y="-7" font-family="Helvetica,sans-Serif" font-size="10.00">stdbool.h</text>
</a>
</g>
</g>
<!-- Node1&#45;&gt;Node2 -->
<g id="edge1_Node000001_Node000002" class="edge">
<title>Node1&#45;&gt;Node2</title>
<g id="a_edge1_Node000001_Node000002"><a xlink:title=" ">
<path fill="none" stroke="#63b8ff" d="M734.71,-282.63C602.84,-277.78 0,-251.46 0,-175.5 0,-175.5 0,-175.5 0,-118.5 0,-79.47 33.61,-44.58 56.13,-25.6"/>
<polygon fill="#63b8ff" stroke="#63b8ff" points="58.56,-28.14 64.12,-19.12 54.15,-22.7 58.56,-28.14"/>
</a>
</g>
</g>
<!-- Node3 -->
<g id="Node000003" class="node">
<title>Node3</title>
<g id="a_Node000003"><a xlink:href="stdlib_8h.html" target="_top" xlink:title=" ">
<polygon fill="white" stroke="#666666" points="917.5,-239 864.5,-239 864.5,-220 917.5,-220 917.5,-239"/>
<text text-anchor="middle" x="891" y="-227" font-family="Helvetica,sans-Serif" font-size="10.00">stdlib.h</text>
</a>
</g>
</g>
<!-- Node1&#45;&gt;Node3 -->
<g id="edge2_Node000001_Node000003" class="edge">
<title>Node1&#45;&gt;Node3</title>
<g id="a_edge2_Node000001_Node000003"><a xlink:title=" ">
<path fill="none" stroke="#63b8ff" d="M781.05,-274.98C802.41,-266.34 835.7,-252.87 860.06,-243.02"/>
<polygon fill="#63b8ff" stroke="#63b8ff" points="861.61,-246.17 869.57,-239.17 858.99,-239.68 861.61,-246.17"/>
</a>
</g>
</g>
<!-- Node4 -->
<g id="Node000004" class="node">
<title>Node4</title>
<g id="a_Node000004"><a xlink:title=" ">
<polygon fill="#e0e0e0" stroke="#999999" points="988.5,-239 935.5,-239 935.5,-220 988.5,-220 988.5,-239"/>
<text text-anchor="middle" x="962" y="-227" font-family="Helvetica,sans-Serif" font-size="10.00">string.h</text>
</a>
</g>
</g>
<!-- Node1&#45;&gt;Node4 -->
<g id="edge3_Node000001_Node000004" class="edge">
<title>Node1&#45;&gt;Node4</title>
<g id="a_edge3_Node000001_Node000004"><a xlink:title=" ">
<path fill="none" stroke="#63b8ff" d="M785.18,-276.89C820.47,-267.63 884.88,-250.74 925.45,-240.09"/>
<polygon fill="#63b8ff" stroke="#63b8ff" points="926.44,-243.45 935.22,-237.53 924.66,-236.68 926.44,-243.45"/>
</a>
</g>
</g>
<!-- Node5 -->
<g id="Node000005" class="node">
<title>Node5</title>
<g id="a_Node000005"><a xlink:title=" ">
<polygon fill="#e0e0e0" stroke="#999999" points="1055,-239 1007,-239 1007,-220 1055,-220 1055,-239"/>
<text text-anchor="middle" x="1031" y="-227" font-family="Helvetica,sans-Serif" font-size="10.00">time.h</text>
</a>
</g>
</g>
<!-- Node1&#45;&gt;Node5 -->
<g id="edge4_Node000001_Node000005" class="edge">
<title>Node1&#45;&gt;Node5</title>
<g id="a_edge4_Node000001_Node000005"><a xlink:title=" ">
<path fill="none" stroke="#63b8ff" d="M785.13,-279.37C827,-272.38 913.9,-257.33 997.04,-239.09"/>
<polygon fill="#63b8ff" stroke="#63b8ff" points="997.89,-242.49 1006.89,-236.91 996.37,-235.65 997.89,-242.49"/>
</a>
</g>
</g>
<!-- Node6 -->
<g id="Node000006" class="node">
<title>Node6</title>
<g id="a_Node000006"><a xlink:title=" ">
<polygon fill="#e0e0e0" stroke="#999999" points="659.5,-19 586.5,-19 586.5,0 659.5,0 659.5,-19"/>
<text text-anchor="middle" x="623" y="-7" font-family="Helvetica,sans-Serif" font-size="10.00">FreeRTOS.h</text>
</a>
</g>
</g>
<!-- Node1&#45;&gt;Node6 -->
<g id="edge5_Node000001_Node000006" class="edge">
<title>Node1&#45;&gt;Node6</title>
<g id="a_edge5_Node000001_Node000006"><a xlink:title=" ">
<path fill="none" stroke="#63b8ff" d="M755.8,-274.73C741.16,-244.21 690.88,-139.93 647,-55 642.42,-46.13 637.17,-36.36 632.75,-28.23"/>
<polygon fill="#63b8ff" stroke="#63b8ff" points="635.74,-26.41 627.87,-19.32 629.6,-29.77 635.74,-26.41"/>
</a>
</g>
</g>
<!-- Node7 -->
<g id="Node000007" class="node">
<title>Node7</title>
<g id="a_Node000007"><a xlink:title=" ">
<polygon fill="#e0e0e0" stroke="#999999" points="894.5,-19 847.5,-19 847.5,0 894.5,0 894.5,-19"/>
<text text-anchor="middle" x="871" y="-7" font-family="Helvetica,sans-Serif" font-size="10.00">task.h</text>
</a>
</g>
</g>
<!-- Node1&#45;&gt;Node7 -->
<g id="edge6_Node000001_Node000007" class="edge">
<title>Node1&#45;&gt;Node7</title>
<g id="a_edge6_Node000001_Node000007"><a xlink:title=" ">
<path fill="none" stroke="#63b8ff" d="M770.92,-274.86C780.98,-266.49 795.83,-253.04 806,-239 853.8,-172.99 867.76,-153.43 886,-74 889.53,-58.65 884.79,-41.24 879.74,-28.53"/>
<polygon fill="#63b8ff" stroke="#63b8ff" points="882.82,-26.86 875.59,-19.12 876.42,-29.68 882.82,-26.86"/>
</a>
</g>
</g>
<!-- Node8 -->
<g id="Node000008" class="node">
<title>Node8</title>
<g id="a_Node000008"><a xlink:title=" ">
<polygon fill="#e0e0e0" stroke="#999999" points="533,-19 477,-19 477,0 533,0 533,-19"/>
<text text-anchor="middle" x="505" y="-7" font-family="Helvetica,sans-Serif" font-size="10.00">queue.h</text>
</a>
</g>
</g>
<!-- Node1&#45;&gt;Node8 -->
<g id="edge7_Node000001_Node000008" class="edge">
<title>Node1&#45;&gt;Node8</title>
<g id="a_edge7_Node000001_Node000008"><a xlink:title=" ">
<path fill="none" stroke="#63b8ff" d="M734.76,-283.01C690.86,-281.22 598.56,-273.31 530,-239 492.44,-220.2 460,-217.5 460,-175.5 460,-175.5 460,-175.5 460,-118.5 460,-84.31 479.46,-48.38 492.78,-27.79"/>
<polygon fill="#63b8ff" stroke="#63b8ff" points="495.87,-29.48 498.55,-19.23 490.06,-25.57 495.87,-29.48"/>
</a>
</g>
</g>
<!-- Node9 -->
<g id="Node000009" class="node">
<title>Node9</title>
<g id="a_Node000009"><a xlink:href="timing_8h.html" target="_top" xlink:title=" ">
<polygon fill="white" stroke="#666666" points="746.5,-74 689.5,-74 689.5,-55 746.5,-55 746.5,-74"/>
<text text-anchor="middle" x="718" y="-62" font-family="Helvetica,sans-Serif" font-size="10.00">timing.h</text>
</a>
</g>
</g>
<!-- Node1&#45;&gt;Node9 -->
<g id="edge8_Node000001_Node000009" class="edge">
<title>Node1&#45;&gt;Node9</title>
<g id="a_edge8_Node000001_Node000009"><a xlink:title=" ">
<path fill="none" stroke="#63b8ff" d="M758.35,-274.95C752.17,-242.88 730.27,-129.2 721.59,-84.12"/>
<polygon fill="#63b8ff" stroke="#63b8ff" points="725.01,-83.38 719.68,-74.22 718.14,-84.71 725.01,-83.38"/>
</a>
</g>
</g>
<!-- Node13 -->
<g id="Node000013" class="node">
<title>Node13</title>
<g id="a_Node000013"><a xlink:href="gse_8h.html" target="_top" xlink:title="Handles hardline communication over USB.">
<polygon fill="white" stroke="#666666" points="1116.5,-239 1073.5,-239 1073.5,-220 1116.5,-220 1116.5,-239"/>
<text text-anchor="middle" x="1095" y="-227" font-family="Helvetica,sans-Serif" font-size="10.00">gse.h</text>
</a>
</g>
</g>
<!-- Node1&#45;&gt;Node13 -->
<g id="edge13_Node000001_Node000013" class="edge">
<title>Node1&#45;&gt;Node13</title>
<g id="a_edge13_Node000001_Node000013"><a xlink:title=" ">
<path fill="none" stroke="#63b8ff" d="M785.01,-280.89C835.67,-275.37 954.2,-261.34 1063.53,-238.84"/>
<polygon fill="#63b8ff" stroke="#63b8ff" points="1064.33,-242.25 1073.4,-236.78 1062.9,-235.4 1064.33,-242.25"/>
</a>
</g>
</g>
<!-- Node14 -->
<g id="Node000014" class="node">
<title>Node14</title>
<g id="a_Node000014"><a xlink:href="command_8h.html" target="_top" xlink:title="Handles decoding and triggering responses to received commands.">
<polygon fill="white" stroke="#666666" points="351,-184 277,-184 277,-165 351,-165 351,-184"/>
<text text-anchor="middle" x="314" y="-172" font-family="Helvetica,sans-Serif" font-size="10.00">command.h</text>
</a>
</g>
</g>
<!-- Node1&#45;&gt;Node14 -->
<g id="edge14_Node000001_Node000014" class="edge">
<title>Node1&#45;&gt;Node14</title>
<g id="a_edge14_Node000001_Node000014"><a xlink:title=" ">
<path fill="none" stroke="#63b8ff" d="M734.73,-284.25C675.54,-285.18 524.17,-282.72 408,-239 378.38,-227.85 348.9,-205.68 331.07,-190.71"/>
<polygon fill="#63b8ff" stroke="#63b8ff" points="333.16,-187.89 323.29,-184.03 328.59,-193.2 333.16,-187.89"/>
</a>
</g>
</g>
<!-- Node17 -->
<g id="Node000017" class="node">
<title>Node17</title>
<g id="a_Node000017"><a xlink:href="filesystem_8h.html" target="_top" xlink:title="Handles file system operations and management.">
<polygon fill="white" stroke="#666666" points="431.5,-74 354.5,-74 354.5,-55 431.5,-55 431.5,-74"/>
<text text-anchor="middle" x="393" y="-62" font-family="Helvetica,sans-Serif" font-size="10.00">filesystem.h</text>
</a>
</g>
</g>
<!-- Node1&#45;&gt;Node17 -->
<g id="edge42_Node000001_Node000017" class="edge">
<title>Node1&#45;&gt;Node17</title>
<g id="a_edge42_Node000001_Node000017"><a xlink:title=" ">
<path fill="none" stroke="#63b8ff" d="M734.65,-283.3C667.88,-282.27 489.31,-276.04 446,-239 433.92,-228.66 407.91,-126.66 397.47,-84.05"/>
<polygon fill="#63b8ff" stroke="#63b8ff" points="400.83,-83.05 395.07,-74.16 394.03,-84.7 400.83,-83.05"/>
</a>
</g>
</g>
<!-- Node21 -->
<g id="Node000021" class="node">
<title>Node21</title>
<g id="a_Node000021"><a xlink:href="telemetry_8h.html" target="_top" xlink:title="Functions for packaging and queuing telemetry packets for sending.">
<polygon fill="white" stroke="#666666" points="608,-184 536,-184 536,-165 608,-165 608,-184"/>
<text text-anchor="middle" x="572" y="-172" font-family="Helvetica,sans-Serif" font-size="10.00">telemetry.h</text>
</a>
</g>
</g>
<!-- Node1&#45;&gt;Node21 -->
<g id="edge30_Node000001_Node000021" class="edge">
<title>Node1&#45;&gt;Node21</title>
<g id="a_edge30_Node000001_Node000021"><a xlink:title=" ">
<path fill="none" stroke="#63b8ff" d="M734.84,-278.51C707.82,-272.33 664.4,-259.96 632,-239 612.78,-226.57 595.36,-206.72 584.31,-192.52"/>
<polygon fill="#63b8ff" stroke="#63b8ff" points="586.82,-190.03 578.01,-184.15 581.22,-194.24 586.82,-190.03"/>
</a>
</g>
</g>
<!-- Node22 -->
<g id="Node000022" class="node">
<title>Node22</title>
<g id="a_Node000022"><a xlink:href="file__downlink_8h.html" target="_top" xlink:title=" ">
<polygon fill="white" stroke="#666666" points="617.5,-129 526.5,-129 526.5,-110 617.5,-110 617.5,-129"/>
<text text-anchor="middle" x="572" y="-117" font-family="Helvetica,sans-Serif" font-size="10.00">file_downlink.h</text>
</a>
</g>
</g>
<!-- Node1&#45;&gt;Node22 -->
<g id="edge46_Node000001_Node000022" class="edge">
<title>Node1&#45;&gt;Node22</title>
<g id="a_edge46_Node000001_Node000022"><a xlink:title=" ">
<path fill="none" stroke="#63b8ff" d="M734.78,-274.89C715.58,-267.47 689.26,-255.36 670,-239 639.17,-212.81 643.25,-195.78 617,-165 608.37,-154.89 597.85,-144.4 589.15,-136.14"/>
<polygon fill="#63b8ff" stroke="#63b8ff" points="591.48,-133.53 581.78,-129.26 586.71,-138.65 591.48,-133.53"/>
</a>
</g>
</g>
<!-- Node23 -->
<g id="Node000023" class="node">
<title>Node23</title>
<g id="a_Node000023"><a xlink:href="log_8h.html" target="_top" xlink:title=" ">
<polygon fill="white" stroke="#666666" points="579.5,-239 538.5,-239 538.5,-220 579.5,-220 579.5,-239"/>
<text text-anchor="middle" x="559" y="-227" font-family="Helvetica,sans-Serif" font-size="10.00">log.h</text>
</a>
</g>
</g>
<!-- Node1&#45;&gt;Node23 -->
<g id="edge37_Node000001_Node000023" class="edge">
<title>Node1&#45;&gt;Node23</title>
<g id="a_edge37_Node000001_Node000023"><a xlink:title=" ">
<path fill="none" stroke="#63b8ff" d="M734.95,-276.89C698.06,-267.17 629.23,-249.02 589.47,-238.53"/>
<polygon fill="#63b8ff" stroke="#63b8ff" points="590.35,-235.15 579.79,-235.98 588.56,-241.92 590.35,-235.15"/>
</a>
</g>
</g>
<!-- Node24 -->
<g id="Node000024" class="node">
<title>Node24</title>
<g id="a_Node000024"><a xlink:href="steve_8h.html" target="_top" xlink:title="S.T.E.V.E (Scheduler Task for Executing Vital Events).">
<polygon fill="white" stroke="#666666" points="803.5,-184 750.5,-184 750.5,-165 803.5,-165 803.5,-184"/>
<text text-anchor="middle" x="777" y="-172" font-family="Helvetica,sans-Serif" font-size="10.00">steve.h</text>
</a>
</g>
</g>
<!-- Node1&#45;&gt;Node24 -->
<g id="edge40_Node000001_Node000024" class="edge">
<title>Node1&#45;&gt;Node24</title>
<g id="a_edge40_Node000001_Node000024"><a xlink:title=" ">
<path fill="none" stroke="#63b8ff" d="M761.39,-274.66C764.14,-257.17 770.34,-217.8 774.04,-194.27"/>
<polygon fill="#63b8ff" stroke="#63b8ff" points="777.54,-194.58 775.64,-184.16 770.62,-193.49 777.54,-194.58"/>
</a>
</g>
</g>
<!-- Node25 -->
<g id="Node000025" class="node">
<title>Node25</title>
<g id="a_Node000025"><a xlink:href="watchdog_8h.html" target="_top" xlink:title="Watchdog management functions.">
<polygon fill="white" stroke="#666666" points="876.5,-74 803.5,-74 803.5,-55 876.5,-55 876.5,-74"/>
<text text-anchor="middle" x="840" y="-62" font-family="Helvetica,sans-Serif" font-size="10.00">watchdog.h</text>
</a>
</g>
</g>
<!-- Node1&#45;&gt;Node25 -->
<g id="edge43_Node000001_Node000025" class="edge">
<title>Node1&#45;&gt;Node25</title>
<g id="a_edge43_Node000001_Node000025"><a xlink:title=" ">
<path fill="none" stroke="#63b8ff" d="M765.65,-274.82C776.38,-257.97 799.81,-219.4 813,-184 825.73,-149.85 833.57,-107.83 837.33,-84.11"/>
<polygon fill="#63b8ff" stroke="#63b8ff" points="840.81,-84.47 838.85,-74.06 833.89,-83.42 840.81,-84.47"/>
</a>
</g>
</g>
<!-- Node26 -->
<g id="Node000026" class="node">
<title>Node26</title>
<g id="a_Node000026"><a xlink:title=" ">
<polygon fill="#e0e0e0" stroke="#999999" points="1175,-239 1135,-239 1135,-220 1175,-220 1175,-239"/>
<text text-anchor="middle" x="1155" y="-227" font-family="Helvetica,sans-Serif" font-size="10.00">i2c.h</text>
</a>
</g>
</g>
<!-- Node1&#45;&gt;Node26 -->
<g id="edge47_Node000001_Node000026" class="edge">
<title>Node1&#45;&gt;Node26</title>
<g id="a_edge47_Node000001_Node000026"><a xlink:title=" ">
<path fill="none" stroke="#63b8ff" d="M785.08,-281.88C843.24,-277.81 991.86,-265.69 1124.87,-238.91"/>
<polygon fill="#63b8ff" stroke="#63b8ff" points="1125.73,-242.31 1134.83,-236.87 1124.33,-235.45 1125.73,-242.31"/>
</a>
</g>
</g>
<!-- Node27 -->
<g id="Node000027" class="node">
<title>Node27</title>
<g id="a_Node000027"><a xlink:href="stdio_8h.html" target="_top" xlink:title=" ">
<polygon fill="white" stroke="#666666" points="1243,-239 1193,-239 1193,-220 1243,-220 1243,-239"/>
<text text-anchor="middle" x="1218" y="-227" font-family="Helvetica,sans-Serif" font-size="10.00">stdio.h</text>
</a>
</g>
</g>
<!-- Node1&#45;&gt;Node27 -->
<g id="edge48_Node000001_Node000027" class="edge">
<title>Node1&#45;&gt;Node27</title>
<g id="a_edge48_Node000001_Node000027"><a xlink:title=" ">
<path fill="none" stroke="#63b8ff" d="M785.02,-282.1C849.39,-278.26 1026.04,-266.05 1182.55,-239.01"/>
<polygon fill="#63b8ff" stroke="#63b8ff" points="1183.59,-242.38 1192.83,-237.21 1182.38,-235.49 1183.59,-242.38"/>
</a>
</g>
</g>
<!-- Node28 -->
<g id="Node000028" class="node">
<title>Node28</title>
<g id="a_Node000028"><a xlink:href="rtc__ds3231_8h.html" target="_top" xlink:title="DS3231 Real Time Clock Driver.">
<polygon fill="white" stroke="#666666" points="159.5,-129 80.5,-129 80.5,-110 159.5,-110 159.5,-129"/>
<text text-anchor="middle" x="120" y="-117" font-family="Helvetica,sans-Serif" font-size="10.00">rtc_ds3231.h</text>
</a>
</g>
</g>
<!-- Node1&#45;&gt;Node28 -->
<g id="edge49_Node000001_Node000028" class="edge">
<title>Node1&#45;&gt;Node28</title>
<g id="a_edge49_Node000001_Node000028"><a xlink:title=" ">
<path fill="none" stroke="#63b8ff" d="M734.74,-283.48C671.72,-282.84 502.99,-277.35 369,-239 280.64,-213.71 184.77,-159.71 142.35,-134.28"/>
<polygon fill="#63b8ff" stroke="#63b8ff" points="144.04,-131.21 133.67,-129.03 140.41,-137.2 144.04,-131.21"/>
</a>
</g>
</g>
<!-- Node30 -->
<g id="Node000030" class="node">
<title>Node30</title>
<g id="a_Node000030"><a xlink:title=" ">
<polygon fill="#e0e0e0" stroke="#999999" points="1311,-239 1261,-239 1261,-220 1311,-220 1311,-239"/>
<text text-anchor="middle" x="1286" y="-227" font-family="Helvetica,sans-Serif" font-size="10.00">radio.h</text>
</a>
</g>
</g>
<!-- Node1&#45;&gt;Node30 -->
<g id="edge55_Node000001_Node000030" class="edge">
<title>Node1&#45;&gt;Node30</title>
<g id="a_edge55_Node000001_Node000030"><a xlink:title=" ">
<path fill="none" stroke="#63b8ff" d="M785.01,-282.61C856.31,-279.77 1066.83,-269.39 1250.72,-238.95"/>
<polygon fill="#63b8ff" stroke="#63b8ff" points="1251.56,-242.36 1260.84,-237.25 1250.4,-235.46 1251.56,-242.36"/>
</a>
</g>
</g>
<!-- Node31 -->
<g id="Node000031" class="node">
<title>Node31</title>
<g id="a_Node000031"><a xlink:href="main_8h.html" target="_top" xlink:title=" ">
<polygon fill="white" stroke="#666666" points="1379,-239 1329,-239 1329,-220 1379,-220 1379,-239"/>
<text text-anchor="middle" x="1354" y="-227" font-family="Helvetica,sans-Serif" font-size="10.00">main.h</text>
</a>
</g>
</g>
<!-- Node1&#45;&gt;Node31 -->
<g id="edge56_Node000001_Node000031" class="edge">
<title>Node1&#45;&gt;Node31</title>
<g id="a_edge56_Node000001_Node000031"><a xlink:title=" ">
<path fill="none" stroke="#63b8ff" d="M785.02,-282.99C862.81,-281.08 1107.42,-272.76 1318.81,-238.91"/>
<polygon fill="#63b8ff" stroke="#63b8ff" points="1319.54,-242.34 1328.85,-237.28 1318.41,-235.43 1319.54,-242.34"/>
</a>
</g>
</g>
<!-- Node9&#45;&gt;Node6 -->
<g id="edge9_Node000009_Node000006" class="edge">
<title>Node9&#45;&gt;Node6</title>
<g id="a_edge9_Node000009_Node000006"><a xlink:title=" ">
<path fill="none" stroke="#63b8ff" d="M702.74,-54.98C687.87,-46.69 665.02,-33.94 647.58,-24.22"/>
<polygon fill="#63b8ff" stroke="#63b8ff" points="648.98,-20.99 638.54,-19.17 645.57,-27.1 648.98,-20.99"/>
</a>
</g>
</g>
<!-- Node10 -->
<g id="Node000010" class="node">
<title>Node10</title>
<g id="a_Node000010"><a xlink:title=" ">
<polygon fill="#e0e0e0" stroke="#999999" points="279.5,-19 226.5,-19 226.5,0 279.5,0 279.5,-19"/>
<text text-anchor="middle" x="253" y="-7" font-family="Helvetica,sans-Serif" font-size="10.00">stdint.h</text>
</a>
</g>
</g>
<!-- Node9&#45;&gt;Node10 -->
<g id="edge10_Node000009_Node000010" class="edge">
<title>Node9&#45;&gt;Node10</title>
<g id="a_edge10_Node000009_Node000010"><a xlink:title=" ">
<path fill="none" stroke="#63b8ff" d="M689.39,-61.88C621.59,-57.76 445.73,-45.39 289.91,-19.12"/>
<polygon fill="#63b8ff" stroke="#63b8ff" points="290.12,-15.61 279.68,-17.37 288.94,-22.51 290.12,-15.61"/>
</a>
</g>
</g>
<!-- Node11 -->
<g id="Node000011" class="node">
<title>Node11</title>
<g id="a_Node000011"><a xlink:title=" ">
<polygon fill="#e0e0e0" stroke="#999999" points="740,-19 678,-19 678,0 740,0 740,-19"/>
<text text-anchor="middle" x="709" y="-7" font-family="Helvetica,sans-Serif" font-size="10.00">semphr.h</text>
</a>
</g>
</g>
<!-- Node9&#45;&gt;Node11 -->
<g id="edge11_Node000009_Node000011" class="edge">
<title>Node9&#45;&gt;Node11</title>
<g id="a_edge11_Node000009_Node000011"><a xlink:title=" ">
<path fill="none" stroke="#63b8ff" d="M716.51,-54.75C715.33,-47.8 713.64,-37.85 712.16,-29.13"/>
<polygon fill="#63b8ff" stroke="#63b8ff" points="715.58,-28.36 710.46,-19.09 708.68,-29.53 715.58,-28.36"/>
</a>
</g>
</g>
<!-- Node12 -->
<g id="Node000012" class="node">
<title>Node12</title>
<g id="a_Node000012"><a xlink:title=" ">
<polygon fill="#e0e0e0" stroke="#999999" points="829.5,-19 758.5,-19 758.5,0 829.5,0 829.5,-19"/>
<text text-anchor="middle" x="794" y="-7" font-family="Helvetica,sans-Serif" font-size="10.00">pico/time.h</text>
</a>
</g>
</g>
<!-- Node9&#45;&gt;Node12 -->
<g id="edge12_Node000009_Node000012" class="edge">
<title>Node9&#45;&gt;Node12</title>
<g id="a_edge12_Node000009_Node000012"><a xlink:title=" ">
<path fill="none" stroke="#63b8ff" d="M730.21,-54.98C741.78,-46.92 759.38,-34.65 773.16,-25.03"/>
<polygon fill="#63b8ff" stroke="#63b8ff" points="775.37,-27.76 781.57,-19.17 771.36,-22.02 775.37,-27.76"/>
</a>
</g>
</g>
<!-- Node14&#45;&gt;Node10 -->
<g id="edge15_Node000014_Node000010" class="edge">
<title>Node14&#45;&gt;Node10</title>
<g id="a_edge15_Node000014_Node000010"><a xlink:title=" ">
<path fill="none" stroke="#63b8ff" d="M276.84,-168.63C252.51,-163.3 222.46,-152.18 207,-129 202.31,-121.98 204.97,-118.2 207,-110 211.35,-92.44 218.23,-90.34 226,-74 233.15,-58.96 240.5,-41.52 245.72,-28.73"/>
<polygon fill="#63b8ff" stroke="#63b8ff" points="249.06,-29.81 249.56,-19.23 242.57,-27.19 249.06,-29.81"/>
</a>
</g>
</g>
<!-- Node15 -->
<g id="Node000015" class="node">
<title>Node15</title>
<g id="a_Node000015"><a xlink:title=" ">
<polygon fill="#e0e0e0" stroke="#999999" points="302,-129 216,-129 216,-110 302,-110 302,-129"/>
<text text-anchor="middle" x="259" y="-117" font-family="Helvetica,sans-Serif" font-size="10.00">spacepacket.h</text>
</a>
</g>
</g>
<!-- Node14&#45;&gt;Node15 -->
<g id="edge16_Node000014_Node000015" class="edge">
<title>Node14&#45;&gt;Node15</title>
<g id="a_edge16_Node000014_Node000015"><a xlink:title=" ">
<path fill="none" stroke="#63b8ff" d="M304.92,-164.75C296.91,-157.03 285.04,-145.6 275.38,-136.28"/>
<polygon fill="#63b8ff" stroke="#63b8ff" points="277.54,-133.51 267.91,-129.09 272.69,-138.55 277.54,-133.51"/>
</a>
</g>
</g>
<!-- Node16 -->
<g id="Node000016" class="node">
<title>Node16</title>
<g id="a_Node000016"><a xlink:href="user__auth_8h.html" target="_top" xlink:title=" ">
<polygon fill="white" stroke="#666666" points="394,-129 320,-129 320,-110 394,-110 394,-129"/>
<text text-anchor="middle" x="357" y="-117" font-family="Helvetica,sans-Serif" font-size="10.00">user_auth.h</text>
</a>
</g>
</g>
<!-- Node14&#45;&gt;Node16 -->
<g id="edge17_Node000014_Node000016" class="edge">
<title>Node14&#45;&gt;Node16</title>
<g id="a_edge17_Node000014_Node000016"><a xlink:title=" ">
<path fill="none" stroke="#63b8ff" d="M321.1,-164.75C327.17,-157.26 336.09,-146.28 343.51,-137.13"/>
<polygon fill="#63b8ff" stroke="#63b8ff" points="346.45,-139.06 350.03,-129.09 341.01,-134.65 346.45,-139.06"/>
</a>
</g>
</g>
<!-- Node16&#45;&gt;Node2 -->
<g id="edge18_Node000016_Node000002" class="edge">
<title>Node16&#45;&gt;Node2</title>
<g id="a_edge18_Node000016_Node000002"><a xlink:title=" ">
<path fill="none" stroke="#63b8ff" d="M319.85,-111.58C316.86,-111.04 313.88,-110.51 311,-110 215.14,-93.16 168,-138.36 95,-74 82.47,-62.95 78.04,-44.01 76.55,-29.68"/>
<polygon fill="#63b8ff" stroke="#63b8ff" points="80.03,-29.18 75.89,-19.42 73.04,-29.62 80.03,-29.18"/>
</a>
</g>
</g>
<!-- Node16&#45;&gt;Node10 -->
<g id="edge19_Node000016_Node000010" class="edge">
<title>Node16&#45;&gt;Node10</title>
<g id="a_edge19_Node000016_Node000010"><a xlink:title=" ">
<path fill="none" stroke="#63b8ff" d="M348.49,-109.66C330.96,-91.46 290.6,-49.55 268.38,-26.47"/>
<polygon fill="#63b8ff" stroke="#63b8ff" points="270.8,-23.93 261.34,-19.16 265.75,-28.79 270.8,-23.93"/>
</a>
</g>
</g>
<!-- Node16&#45;&gt;Node17 -->
<g id="edge20_Node000016_Node000017" class="edge">
<title>Node16&#45;&gt;Node17</title>
<g id="a_edge20_Node000016_Node000017"><a xlink:title=" ">
<path fill="none" stroke="#63b8ff" d="M362.94,-109.75C367.98,-102.34 375.34,-91.5 381.51,-82.41"/>
<polygon fill="#63b8ff" stroke="#63b8ff" points="384.44,-84.33 387.17,-74.09 378.65,-80.39 384.44,-84.33"/>
</a>
</g>
</g>
<!-- Node17&#45;&gt;Node2 -->
<g id="edge29_Node000017_Node000002" class="edge">
<title>Node17&#45;&gt;Node2</title>
<g id="a_edge29_Node000017_Node000002"><a xlink:title=" ">
<path fill="none" stroke="#63b8ff" d="M354.45,-57.05C294.39,-47.01 179.02,-27.72 117.32,-17.41"/>
<polygon fill="#63b8ff" stroke="#63b8ff" points="117.61,-13.91 107.17,-15.71 116.46,-20.81 117.61,-13.91"/>
</a>
</g>
</g>
<!-- Node17&#45;&gt;Node6 -->
<g id="edge21_Node000017_Node000006" class="edge">
<title>Node17&#45;&gt;Node6</title>
<g id="a_edge21_Node000017_Node000006"><a xlink:title=" ">
<path fill="none" stroke="#63b8ff" d="M429.95,-54.98C469.69,-45.83 532.96,-31.25 576.16,-21.29"/>
<polygon fill="#63b8ff" stroke="#63b8ff" points="577.18,-24.65 586.14,-18.99 575.61,-17.83 577.18,-24.65"/>
</a>
</g>
</g>
<!-- Node17&#45;&gt;Node7 -->
<g id="edge23_Node000017_Node000007" class="edge">
<title>Node17&#45;&gt;Node7</title>
<g id="a_edge23_Node000017_Node000007"><a xlink:title=" ">
<path fill="none" stroke="#63b8ff" d="M431.77,-61.72C507.87,-57.79 682.19,-46.56 837.15,-19.07"/>
<polygon fill="#63b8ff" stroke="#63b8ff" points="838.11,-22.46 847.33,-17.24 836.87,-15.57 838.11,-22.46"/>
</a>
</g>
</g>
<!-- Node17&#45;&gt;Node8 -->
<g id="edge22_Node000017_Node000008" class="edge">
<title>Node17&#45;&gt;Node8</title>
<g id="a_edge22_Node000017_Node000008"><a xlink:title=" ">
<path fill="none" stroke="#63b8ff" d="M410.99,-54.98C428.93,-46.5 456.72,-33.35 477.43,-23.54"/>
<polygon fill="#63b8ff" stroke="#63b8ff" points="479.14,-26.61 486.68,-19.17 476.14,-20.28 479.14,-26.61"/>
</a>
</g>
</g>
<!-- Node17&#45;&gt;Node10 -->
<g id="edge28_Node000017_Node000010" class="edge">
<title>Node17&#45;&gt;Node10</title>
<g id="a_edge28_Node000017_Node000010"><a xlink:title=" ">
<path fill="none" stroke="#63b8ff" d="M370.51,-54.98C347.48,-46.27 311.46,-32.63 285.37,-22.75"/>
<polygon fill="#63b8ff" stroke="#63b8ff" points="286.49,-19.44 275.9,-19.17 284.02,-25.98 286.49,-19.44"/>
</a>
</g>
</g>
<!-- Node17&#45;&gt;Node11 -->
<g id="edge26_Node000017_Node000011" class="edge">
<title>Node17&#45;&gt;Node11</title>
<g id="a_edge26_Node000017_Node000011"><a xlink:title=" ">
<path fill="none" stroke="#63b8ff" d="M431.5,-57.91C483.06,-50.28 577.61,-35.83 667.75,-19.16"/>
<polygon fill="#63b8ff" stroke="#63b8ff" points="668.4,-22.6 677.59,-17.33 667.11,-15.72 668.4,-22.6"/>
</a>
</g>
</g>
<!-- Node18 -->
<g id="Node000018" class="node">
<title>Node18</title>
<g id="a_Node000018"><a xlink:title=" ">
<polygon fill="#e0e0e0" stroke="#999999" points="459,-19 427,-19 427,0 459,0 459,-19"/>
<text text-anchor="middle" x="443" y="-7" font-family="Helvetica,sans-Serif" font-size="10.00">ff.h</text>
</a>
</g>
</g>
<!-- Node17&#45;&gt;Node18 -->
<g id="edge24_Node000017_Node000018" class="edge">
<title>Node17&#45;&gt;Node18</title>
<g id="a_edge24_Node000017_Node000018"><a xlink:title=" ">
<path fill="none" stroke="#63b8ff" d="M401.26,-54.75C408.46,-47.11 419.11,-35.82 427.85,-26.56"/>
<polygon fill="#63b8ff" stroke="#63b8ff" points="430.58,-28.76 434.9,-19.09 425.49,-23.96 430.58,-28.76"/>
</a>
</g>
</g>
<!-- Node19 -->
<g id="Node000019" class="node">
<title>Node19</title>
<g id="a_Node000019"><a xlink:href="filesystem__errors_8h.html" target="_top" xlink:title=" ">
<polygon fill="white" stroke="#666666" points="408.5,-19 297.5,-19 297.5,0 408.5,0 408.5,-19"/>
<text text-anchor="middle" x="353" y="-7" font-family="Helvetica,sans-Serif" font-size="10.00">filesystem_errors.h</text>
</a>
</g>
</g>
<!-- Node17&#45;&gt;Node19 -->
<g id="edge25_Node000017_Node000019" class="edge">
<title>Node17&#45;&gt;Node19</title>
<g id="a_edge25_Node000017_Node000019"><a xlink:title=" ">
<path fill="none" stroke="#63b8ff" d="M386.39,-54.75C380.74,-47.26 372.46,-36.28 365.55,-27.13"/>
<polygon fill="#63b8ff" stroke="#63b8ff" points="368.3,-24.96 359.48,-19.09 362.71,-29.18 368.3,-24.96"/>
</a>
</g>
</g>
<!-- Node20 -->
<g id="Node000020" class="node">
<title>Node20</title>
<g id="a_Node000020"><a xlink:title=" ">
<polygon fill="#e0e0e0" stroke="#999999" points="198,-19 142,-19 142,0 198,0 198,-19"/>
<text text-anchor="middle" x="170" y="-7" font-family="Helvetica,sans-Serif" font-size="10.00">stddef.h</text>
</a>
</g>
</g>
<!-- Node17&#45;&gt;Node20 -->
<g id="edge27_Node000017_Node000020" class="edge">
<title>Node17&#45;&gt;Node20</title>
<g id="a_edge27_Node000017_Node000020"><a xlink:title=" ">
<path fill="none" stroke="#63b8ff" d="M357.17,-54.98C316.34,-45.28 249.87,-29.48 208.11,-19.56"/>
<polygon fill="#63b8ff" stroke="#63b8ff" points="208.85,-16.14 198.31,-17.23 207.23,-22.95 208.85,-16.14"/>
</a>
</g>
</g>
<!-- Node21&#45;&gt;Node6 -->
<g id="edge31_Node000021_Node000006" class="edge">
<title>Node21&#45;&gt;Node6</title>
<g id="a_edge31_Node000021_Node000006"><a xlink:title=" ">
<path fill="none" stroke="#63b8ff" d="M589.46,-164.88C602.47,-157.38 619.28,-145.18 627,-129 642.53,-96.46 634.93,-52.97 628.59,-28.75"/>
<polygon fill="#63b8ff" stroke="#63b8ff" points="631.94,-27.75 625.85,-19.08 625.21,-29.66 631.94,-27.75"/>
</a>
</g>
</g>
<!-- Node21&#45;&gt;Node8 -->
<g id="edge32_Node000021_Node000008" class="edge">
<title>Node21&#45;&gt;Node8</title>
<g id="a_edge32_Node000021_Node000008"><a xlink:title=" ">
<path fill="none" stroke="#63b8ff" d="M555.84,-164.87C543.26,-157.22 526.55,-144.82 518,-129 500.84,-97.25 501.03,-53.77 502.89,-29.27"/>
<polygon fill="#63b8ff" stroke="#63b8ff" points="506.39,-29.47 503.84,-19.18 499.42,-28.81 506.39,-29.47"/>
</a>
</g>
</g>
<!-- Node21&#45;&gt;Node22 -->
<g id="edge33_Node000021_Node000022" class="edge">
<title>Node21&#45;&gt;Node22</title>
<g id="a_edge33_Node000021_Node000022"><a xlink:title=" ">
<path fill="none" stroke="#63b8ff" d="M572,-164.75C572,-157.8 572,-147.85 572,-139.13"/>
<polygon fill="#63b8ff" stroke="#63b8ff" points="575.5,-139.09 572,-129.09 568.5,-139.09 575.5,-139.09"/>
</a>
</g>
</g>
<!-- Node22&#45;&gt;Node6 -->
<g id="edge34_Node000022_Node000006" class="edge">
<title>Node22&#45;&gt;Node6</title>
<g id="a_edge34_Node000022_Node000006"><a xlink:title=" ">
<path fill="none" stroke="#63b8ff" d="M576.17,-109.66C584.55,-91.93 603.53,-51.73 614.59,-28.32"/>
<polygon fill="#63b8ff" stroke="#63b8ff" points="617.81,-29.7 618.91,-19.16 611.48,-26.71 617.81,-29.7"/>
</a>
</g>
</g>
<!-- Node22&#45;&gt;Node8 -->
<g id="edge35_Node000022_Node000008" class="edge">
<title>Node22&#45;&gt;Node8</title>
<g id="a_edge35_Node000022_Node000008"><a xlink:title=" ">
<path fill="none" stroke="#63b8ff" d="M566.52,-109.66C555.42,-91.77 530.13,-51 515.67,-27.69"/>
<polygon fill="#63b8ff" stroke="#63b8ff" points="518.62,-25.81 510.37,-19.16 512.67,-29.5 518.62,-25.81"/>
</a>
</g>
</g>
<!-- Node22&#45;&gt;Node17 -->
<g id="edge36_Node000022_Node000017" class="edge">
<title>Node22&#45;&gt;Node17</title>
<g id="a_edge36_Node000022_Node000017"><a xlink:title=" ">
<path fill="none" stroke="#63b8ff" d="M543.24,-109.98C513.06,-101.05 465.43,-86.94 431.9,-77.02"/>
<polygon fill="#63b8ff" stroke="#63b8ff" points="432.57,-73.57 421.98,-74.08 430.58,-80.28 432.57,-73.57"/>
</a>
</g>
</g>
<!-- Node23&#45;&gt;Node2 -->
<g id="edge39_Node000023_Node000002" class="edge">
<title>Node23&#45;&gt;Node2</title>
<g id="a_edge39_Node000023_Node000002"><a xlink:title=" ">
<path fill="none" stroke="#63b8ff" d="M538.24,-227.73C452.67,-224.09 128.96,-205.36 71,-129 48.78,-99.72 59.98,-53.66 68.79,-28.46"/>
<polygon fill="#63b8ff" stroke="#63b8ff" points="72.09,-29.63 72.32,-19.04 65.53,-27.18 72.09,-29.63"/>
</a>
</g>
</g>
<!-- Node23&#45;&gt;Node21 -->
<g id="edge38_Node000023_Node000021" class="edge">
<title>Node23&#45;&gt;Node21</title>
<g id="a_edge38_Node000023_Node000021"><a xlink:title=" ">
<path fill="none" stroke="#63b8ff" d="M561.15,-219.75C562.87,-212.72 565.35,-202.62 567.5,-193.84"/>
<polygon fill="#63b8ff" stroke="#63b8ff" points="570.91,-194.63 569.89,-184.09 564.11,-192.97 570.91,-194.63"/>
</a>
</g>
</g>
<!-- Node24&#45;&gt;Node11 -->
<g id="edge41_Node000024_Node000011" class="edge">
<title>Node24&#45;&gt;Node11</title>
<g id="a_edge41_Node000024_Node000011"><a xlink:title=" ">
<path fill="none" stroke="#63b8ff" d="M777.26,-164.87C777.52,-144.46 776.01,-92.16 756,-55 749.74,-43.37 739.31,-33.04 729.87,-25.26"/>
<polygon fill="#63b8ff" stroke="#63b8ff" points="732,-22.49 721.96,-19.12 727.71,-28.02 732,-22.49"/>
</a>
</g>
</g>
<!-- Node25&#45;&gt;Node6 -->
<g id="edge44_Node000025_Node000006" class="edge">
<title>Node25&#45;&gt;Node6</title>
<g id="a_edge44_Node000025_Node000006"><a xlink:title=" ">
<path fill="none" stroke="#63b8ff" d="M805.14,-54.98C767.91,-45.89 708.8,-31.46 668.07,-21.51"/>
<polygon fill="#63b8ff" stroke="#63b8ff" points="668.68,-18.05 658.14,-19.08 667.02,-24.85 668.68,-18.05"/>
</a>
</g>
</g>
<!-- Node25&#45;&gt;Node7 -->
<g id="edge45_Node000025_Node000007" class="edge">
<title>Node25&#45;&gt;Node7</title>
<g id="a_edge45_Node000025_Node000007"><a xlink:title=" ">
<path fill="none" stroke="#63b8ff" d="M845.12,-54.75C849.36,-47.49 855.53,-36.95 860.78,-27.98"/>
<polygon fill="#63b8ff" stroke="#63b8ff" points="863.95,-29.49 865.98,-19.09 857.91,-25.95 863.95,-29.49"/>
</a>
</g>
</g>
<!-- Node28&#45;&gt;Node10 -->
<g id="edge54_Node000028_Node000010" class="edge">
<title>Node28&#45;&gt;Node10</title>
<g id="a_edge54_Node000028_Node000010"><a xlink:title=" ">
<path fill="none" stroke="#63b8ff" d="M140.94,-109.94C158.4,-102.17 183.35,-89.57 202,-74 218.05,-60.6 232.57,-41.49 241.98,-27.74"/>
<polygon fill="#63b8ff" stroke="#63b8ff" points="245.03,-29.49 247.63,-19.22 239.19,-25.62 245.03,-29.49"/>
</a>
</g>
</g>
<!-- Node29 -->
<g id="Node000029" class="node">
<title>Node29</title>
<g id="a_Node000029"><a xlink:href="simulator_2pico-sdk_2hardware_2i2c_8h.html" target="_top" xlink:title=" ">
<polygon fill="white" stroke="#666666" points="193.5,-74 104.5,-74 104.5,-55 193.5,-55 193.5,-74"/>
<text text-anchor="middle" x="149" y="-62" font-family="Helvetica,sans-Serif" font-size="10.00">hardware/i2c.h</text>
</a>
</g>
</g>
<!-- Node28&#45;&gt;Node29 -->
<g id="edge50_Node000028_Node000029" class="edge">
<title>Node28&#45;&gt;Node29</title>
<g id="a_edge50_Node000028_Node000029"><a xlink:title=" ">
<path fill="none" stroke="#63b8ff" d="M124.79,-109.75C128.76,-102.49 134.53,-91.95 139.43,-82.98"/>
<polygon fill="#63b8ff" stroke="#63b8ff" points="142.57,-84.54 144.3,-74.09 136.43,-81.18 142.57,-84.54"/>
</a>
</g>
</g>
<!-- Node29&#45;&gt;Node2 -->
<g id="edge53_Node000029_Node000002" class="edge">
<title>Node29&#45;&gt;Node2</title>
<g id="a_edge53_Node000029_Node000002"><a xlink:title=" ">
<path fill="none" stroke="#63b8ff" d="M137.27,-54.98C126.27,-47 109.58,-34.88 96.4,-25.31"/>
<polygon fill="#63b8ff" stroke="#63b8ff" points="98.09,-22.21 87.94,-19.17 93.98,-27.88 98.09,-22.21"/>
</a>
</g>
</g>
<!-- Node29&#45;&gt;Node10 -->
<g id="edge51_Node000029_Node000010" class="edge">
<title>Node29&#45;&gt;Node10</title>
<g id="a_edge51_Node000029_Node000010"><a xlink:title=" ">
<path fill="none" stroke="#63b8ff" d="M165.71,-54.98C182.21,-46.57 207.7,-33.59 226.88,-23.81"/>
<polygon fill="#63b8ff" stroke="#63b8ff" points="228.67,-26.83 235.99,-19.17 225.49,-20.59 228.67,-26.83"/>
</a>
</g>
</g>
<!-- Node29&#45;&gt;Node20 -->
<g id="edge52_Node000029_Node000020" class="edge">
<title>Node29&#45;&gt;Node20</title>
<g id="a_edge52_Node000029_Node000020"><a xlink:title=" ">
<path fill="none" stroke="#63b8ff" d="M152.47,-54.75C155.28,-47.65 159.34,-37.4 162.85,-28.56"/>
<polygon fill="#63b8ff" stroke="#63b8ff" points="166.17,-29.68 166.6,-19.09 159.66,-27.1 166.17,-29.68"/>
</a>
</g>
</g>
</g>
</svg>

<g id="navigator" transform="translate(0 0)" fill="#404254">
  <rect fill="#f2f5e9" fill-opacity="0.5" stroke="#606060" stroke-width=".5" x="0" y="0" width="60" height="60"/>
  <use id="zoomplus" xlink:href="#zoomPlus" x="17" y="9" onmousedown="handleZoom(evt,'in')"/>
  <use id="zoomminus" xlink:href="#zoomMin" x="42" y="9" onmousedown="handleZoom(evt,'out')"/>
  <use id="reset" xlink:href="#resetDef" x="30" y="36" onmousedown="handleReset()"/>
   <use id="arrowup" xlink:href="#arrowUp" x="0" y="0" onmousedown="handlePan(0,-1)"/>
  <use id="arrowright" xlink:href="#arrowRight" x="0" y="0" onmousedown="handlePan(1,0)"/>
  <use id="arrowdown" xlink:href="#arrowDown" x="0" y="0" onmousedown="handlePan(0,1)"/>
  <use id="arrowleft" xlink:href="#arrowLeft" x="0" y="0" onmousedown="handlePan(-1,0)"/>
</g>
<svg viewBox="0 0 15 15" width="100%" height="30px" preserveAspectRatio="xMaxYMin meet">
 <g id="arrow_out" transform="scale(0.3 0.3)">
  <a xlink:href="main_8c__incl_org.svg" target="_base">
   <rect id="button" ry="5" rx="5" y="6" x="6" height="38" width="38"
        fill="#f2f5e9" fill-opacity="0.5" stroke="#606060" stroke-width="1.0"/>
   <path id="arrow"
     d="M 11.500037,31.436501 C 11.940474,20.09759 22.043105,11.32322 32.158766,21.979434 L 37.068811,17.246167 C 37.068811,17.246167 37.088388,32 37.088388,32 L 22.160133,31.978069 C 22.160133,31.978069 26.997745,27.140456 26.997745,27.140456 C 18.528582,18.264221 13.291696,25.230495 11.500037,31.436501 z"
     style="fill:#404040;"/>
  </a>
 </g>
</svg>

<style type='text/css'>
<![CDATA[
[data-mouse-over-selected='false'] { opacity: 0.7; }
[data-mouse-over-selected='true']  { opacity: 1.0; }
]]>
</style>
<script type="application/ecmascript"><![CDATA[
document.addEventListener('DOMContentLoaded', (event) => {
  highlightEdges();
  highlightAdjacentNodes();
});
]]></script>
</svg>
