<?xml version="1.0" encoding="UTF-8" standalone="no"?>
<!DOCTYPE svg PUBLIC "-//W3C//DTD SVG 1.1//EN"
 "http://www.w3.org/Graphics/SVG/1.1/DTD/svg11.dtd">
<!-- Generated by graphviz version 12.1.2 (20240928.0832)
 -->
<!-- Title: max17048CellVoltageRaw Pages: 1 -->
<svg width="454pt" height="47pt"
 viewBox="0.00 0.00 454.25 47.00" xmlns="http://www.w3.org/2000/svg" xmlns:xlink="http://www.w3.org/1999/xlink">
<g id="graph0" class="graph" transform="scale(1 1) rotate(0) translate(4 43)">
<title>max17048CellVoltageRaw</title>
<!-- Node1 -->
<g id="Node000001" class="node">
<title>Node1</title>
<g id="a_Node000001"><a xlink:title=" ">
<polygon fill="#999999" stroke="#666666" points="130.75,-39 0,-39 0,-19 130.75,-19 130.75,-39"/>
<text text-anchor="middle" x="65.38" y="-25.5" font-family="Helvetica,sans-Serif" font-size="10.00">max17048CellVoltageRaw</text>
</a>
</g>
</g>
<!-- Node2 -->
<g id="Node000002" class="node">
<title>Node2</title>
<g id="a_Node000002"><a xlink:href="i2c_8c.html#afd489cf93d14a907e09132068de8e1c9" target="_top" xlink:title=" ">
<polygon fill="white" stroke="#666666" points="446.25,-39 331.25,-39 331.25,-19 446.25,-19 446.25,-39"/>
<text text-anchor="middle" x="388.75" y="-25.5" font-family="Helvetica,sans-Serif" font-size="10.00">i2c_read_from_register</text>
</a>
</g>
</g>
<!-- Node1&#45;&gt;Node2 -->
<g id="edge1_Node000001_Node000002" class="edge">
<title>Node1&#45;&gt;Node2</title>
<g id="a_edge1_Node000001_Node000002"><a xlink:title=" ">
<path fill="none" stroke="#63b8ff" d="M131.02,-29C185.81,-29 264.13,-29 319.83,-29"/>
<polygon fill="#63b8ff" stroke="#63b8ff" points="319.49,-32.5 329.49,-29 319.49,-25.5 319.49,-32.5"/>
</a>
</g>
</g>
<!-- Node3 -->
<g id="Node000003" class="node">
<title>Node3</title>
<g id="a_Node000003"><a xlink:href="max17048_8c.html#a4f5e94a7e81b4682c6489f4c07138bda" target="_top" xlink:title=" ">
<polygon fill="white" stroke="#666666" points="295.25,-20 166.75,-20 166.75,0 295.25,0 295.25,-20"/>
<text text-anchor="middle" x="231" y="-6.5" font-family="Helvetica,sans-Serif" font-size="10.00">max17048IsDeviceReady</text>
</a>
</g>
</g>
<!-- Node1&#45;&gt;Node3 -->
<g id="edge2_Node000001_Node000003" class="edge">
<title>Node1&#45;&gt;Node3</title>
<g id="a_edge2_Node000001_Node000003"><a xlink:title=" ">
<path fill="none" stroke="#63b8ff" d="M131.04,-21.49C138.94,-20.57 147.05,-19.63 155.08,-18.7"/>
<polygon fill="#63b8ff" stroke="#63b8ff" points="155.3,-22.2 164.83,-17.57 154.5,-15.24 155.3,-22.2"/>
</a>
</g>
</g>
<!-- Node3&#45;&gt;Node2 -->
<g id="edge3_Node000003_Node000002" class="edge">
<title>Node3&#45;&gt;Node2</title>
<g id="a_edge3_Node000003_Node000002"><a xlink:title=" ">
<path fill="none" stroke="#63b8ff" d="M295.35,-17.73C303.36,-18.71 311.59,-19.71 319.67,-20.7"/>
<polygon fill="#63b8ff" stroke="#63b8ff" points="319.12,-24.15 329.47,-21.89 319.96,-17.2 319.12,-24.15"/>
</a>
</g>
</g>
</g>
</svg>
