<?xml version="1.0" encoding="UTF-8" standalone="no"?>
<!DOCTYPE svg PUBLIC "-//W3C//DTD SVG 1.1//EN"
 "http://www.w3.org/Graphics/SVG/1.1/DTD/svg11.dtd">
<!-- Generated by graphviz version 12.1.2 (20240928.0832)
 -->
<!-- Title: max17048CellPercentageRaw Pages: 1 -->
<svg width="472pt" height="47pt"
 viewBox="0.00 0.00 471.50 47.00" xmlns="http://www.w3.org/2000/svg" xmlns:xlink="http://www.w3.org/1999/xlink">
<g id="graph0" class="graph" transform="scale(1 1) rotate(0) translate(4 43)">
<title>max17048CellPercentageRaw</title>
<!-- Node1 -->
<g id="Node000001" class="node">
<title>Node1</title>
<g id="a_Node000001"><a xlink:title=" ">
<polygon fill="#999999" stroke="#666666" points="148,-39 0,-39 0,-19 148,-19 148,-39"/>
<text text-anchor="middle" x="74" y="-25.5" font-family="Helvetica,sans-Serif" font-size="10.00">max17048CellPercentageRaw</text>
</a>
</g>
</g>
<!-- Node2 -->
<g id="Node000002" class="node">
<title>Node2</title>
<g id="a_Node000002"><a xlink:href="i2c_8c.html#afd489cf93d14a907e09132068de8e1c9" target="_top" xlink:title=" ">
<polygon fill="white" stroke="#666666" points="463.5,-39 348.5,-39 348.5,-19 463.5,-19 463.5,-39"/>
<text text-anchor="middle" x="406" y="-25.5" font-family="Helvetica,sans-Serif" font-size="10.00">i2c_read_from_register</text>
</a>
</g>
</g>
<!-- Node1&#45;&gt;Node2 -->
<g id="edge1_Node000001_Node000002" class="edge">
<title>Node1&#45;&gt;Node2</title>
<g id="a_edge1_Node000001_Node000002"><a xlink:title=" ">
<path fill="none" stroke="#63b8ff" d="M148.24,-29C204.52,-29 281.7,-29 336.71,-29"/>
<polygon fill="#63b8ff" stroke="#63b8ff" points="336.58,-32.5 346.58,-29 336.58,-25.5 336.58,-32.5"/>
</a>
</g>
</g>
<!-- Node3 -->
<g id="Node000003" class="node">
<title>Node3</title>
<g id="a_Node000003"><a xlink:href="max17048_8c.html#a4f5e94a7e81b4682c6489f4c07138bda" target="_top" xlink:title=" ">
<polygon fill="white" stroke="#666666" points="312.5,-20 184,-20 184,0 312.5,0 312.5,-20"/>
<text text-anchor="middle" x="248.25" y="-6.5" font-family="Helvetica,sans-Serif" font-size="10.00">max17048IsDeviceReady</text>
</a>
</g>
</g>
<!-- Node1&#45;&gt;Node3 -->
<g id="edge2_Node000001_Node000003" class="edge">
<title>Node1&#45;&gt;Node3</title>
<g id="a_edge2_Node000001_Node000003"><a xlink:title=" ">
<path fill="none" stroke="#63b8ff" d="M148.05,-20.94C156.09,-20.06 164.28,-19.15 172.35,-18.26"/>
<polygon fill="#63b8ff" stroke="#63b8ff" points="172.56,-21.76 182.12,-17.18 171.8,-14.8 172.56,-21.76"/>
</a>
</g>
</g>
<!-- Node3&#45;&gt;Node2 -->
<g id="edge3_Node000003_Node000002" class="edge">
<title>Node3&#45;&gt;Node2</title>
<g id="a_edge3_Node000003_Node000002"><a xlink:title=" ">
<path fill="none" stroke="#63b8ff" d="M312.6,-17.73C320.61,-18.71 328.84,-19.71 336.92,-20.7"/>
<polygon fill="#63b8ff" stroke="#63b8ff" points="336.37,-24.15 346.72,-21.89 337.21,-17.2 336.37,-24.15"/>
</a>
</g>
</g>
</g>
</svg>
