<?xml version="1.0" encoding="UTF-8" standalone="no"?>
<!DOCTYPE svg PUBLIC "-//W3C//DTD SVG 1.1//EN"
 "http://www.w3.org/Graphics/SVG/1.1/DTD/svg11.dtd">
<!-- Generated by graphviz version 2.43.0 (0)
 -->
<!-- Title: max17048CellPercentageRaw Pages: 1 -->
<svg width="513pt" height="46pt"
 viewBox="0.00 0.00 513.00 46.00" xmlns="http://www.w3.org/2000/svg" xmlns:xlink="http://www.w3.org/1999/xlink">
<g id="graph0" class="graph" transform="scale(1 1) rotate(0) translate(4 42)">
<title>max17048CellPercentageRaw</title>
<!-- Node1 -->
<g id="Node000001" class="node">
<title>Node1</title>
<g id="a_Node000001"><a xlink:title="Get cell percentage raw (2 bytes).">
<polygon fill="#999999" stroke="#666666" points="163,-38 0,-38 0,-19 163,-19 163,-38"/>
<text text-anchor="middle" x="81.5" y="-26" font-family="Helvetica,sans-Serif" font-size="10.00">max17048CellPercentageRaw</text>
</a>
</g>
</g>
<!-- Node2 -->
<g id="Node000002" class="node">
<title>Node2</title>
<g id="a_Node000002"><a xlink:href="i2c_8c.html#afd489cf93d14a907e09132068de8e1c9" target="_top" xlink:title="Write [reg] byte to i2c device and then read [nbytes] from it. Read bytes are stored in [buf].">
<polygon fill="white" stroke="#666666" points="505,-38 376,-38 376,-19 505,-19 505,-38"/>
<text text-anchor="middle" x="440.5" y="-26" font-family="Helvetica,sans-Serif" font-size="10.00">i2c_read_from_register</text>
</a>
</g>
</g>
<!-- Node1&#45;&gt;Node2 -->
<g id="edge1_Node000001_Node000002" class="edge">
<title>Node1&#45;&gt;Node2</title>
<g id="a_edge1_Node000001_Node000002"><a xlink:title=" ">
<path fill="none" stroke="#63b8ff" d="M163.06,-28.5C223.91,-28.5 306.75,-28.5 365.84,-28.5"/>
<polygon fill="#63b8ff" stroke="#63b8ff" points="365.85,-32 375.85,-28.5 365.85,-25 365.85,-32"/>
</a>
</g>
</g>
<!-- Node3 -->
<g id="Node000003" class="node">
<title>Node3</title>
<g id="a_Node000003"><a xlink:href="max17048_8c.html#a4f5e94a7e81b4682c6489f4c07138bda" target="_top" xlink:title=" ">
<polygon fill="white" stroke="#666666" points="340,-19 199,-19 199,0 340,0 340,-19"/>
<text text-anchor="middle" x="269.5" y="-7" font-family="Helvetica,sans-Serif" font-size="10.00">max17048IsDeviceReady</text>
</a>
</g>
</g>
<!-- Node1&#45;&gt;Node3 -->
<g id="edge2_Node000001_Node000003" class="edge">
<title>Node1&#45;&gt;Node3</title>
<g id="a_edge2_Node000001_Node000003"><a xlink:title=" ">
<path fill="none" stroke="#63b8ff" d="M163,-20.28C171.61,-19.4 180.36,-18.5 188.96,-17.62"/>
<polygon fill="#63b8ff" stroke="#63b8ff" points="189.37,-21.1 198.97,-16.6 188.66,-14.14 189.37,-21.1"/>
</a>
</g>
</g>
<!-- Node3&#45;&gt;Node2 -->
<g id="edge3_Node000003_Node000002" class="edge">
<title>Node3&#45;&gt;Node2</title>
<g id="a_edge3_Node000003_Node000002"><a xlink:title=" ">
<path fill="none" stroke="#63b8ff" d="M340.21,-17.34C348.71,-18.29 357.41,-19.27 365.96,-20.23"/>
<polygon fill="#63b8ff" stroke="#63b8ff" points="365.58,-23.71 375.91,-21.35 366.36,-16.75 365.58,-23.71"/>
</a>
</g>
</g>
</g>
</svg>
