<?xml version="1.0" encoding="UTF-8" standalone="no"?>
<!DOCTYPE svg PUBLIC "-//W3C//DTD SVG 1.1//EN"
 "http://www.w3.org/Graphics/SVG/1.1/DTD/svg11.dtd">
<!-- Generated by graphviz version 2.43.0 (0)
 -->
<!-- Title: miscellaneous_jobs.c Pages: 1 -->
<svg width="840pt" height="302pt"
 viewBox="0.00 0.00 839.50 302.00" xmlns="http://www.w3.org/2000/svg" xmlns:xlink="http://www.w3.org/1999/xlink">
<g id="graph0" class="graph" transform="scale(1 1) rotate(0) translate(4 298)">
<title>miscellaneous_jobs.c</title>
<!-- Node1 -->
<g id="Node000001" class="node">
<title>Node1</title>
<g id="a_Node000001"><a xlink:title=" ">
<polygon fill="#999999" stroke="#666666" points="652,-294 531,-294 531,-275 652,-275 652,-294"/>
<text text-anchor="middle" x="591.5" y="-282" font-family="Helvetica,sans-Serif" font-size="10.00">miscellaneous_jobs.c</text>
</a>
</g>
</g>
<!-- Node2 -->
<g id="Node000002" class="node">
<title>Node2</title>
<g id="a_Node000002"><a xlink:title=" ">
<polygon fill="#e0e0e0" stroke="#999999" points="73,-19 0,-19 0,0 73,0 73,-19"/>
<text text-anchor="middle" x="36.5" y="-7" font-family="Helvetica,sans-Serif" font-size="10.00">FreeRTOS.h</text>
</a>
</g>
</g>
<!-- Node1&#45;&gt;Node2 -->
<g id="edge1_Node000001_Node000002" class="edge">
<title>Node1&#45;&gt;Node2</title>
<g id="a_edge1_Node000001_Node000002"><a xlink:title=" ">
<path fill="none" stroke="#63b8ff" d="M530.8,-284.23C387.77,-284.32 41.5,-274.33 41.5,-175.5 41.5,-175.5 41.5,-175.5 41.5,-118.5 41.5,-87.16 39.37,-50.75 37.89,-29.22"/>
<polygon fill="#63b8ff" stroke="#63b8ff" points="41.38,-28.9 37.17,-19.17 34.4,-29.4 41.38,-28.9"/>
</a>
</g>
</g>
<!-- Node3 -->
<g id="Node000003" class="node">
<title>Node3</title>
<g id="a_Node000003"><a xlink:href="gpio_8h.html" target="_top" xlink:title=" ">
<polygon fill="white" stroke="#666666" points="639,-129 544,-129 544,-110 639,-110 639,-129"/>
<text text-anchor="middle" x="591.5" y="-117" font-family="Helvetica,sans-Serif" font-size="10.00">hardware/gpio.h</text>
</a>
</g>
</g>
<!-- Node1&#45;&gt;Node3 -->
<g id="edge2_Node000001_Node000003" class="edge">
<title>Node1&#45;&gt;Node3</title>
<g id="a_edge2_Node000001_Node000003"><a xlink:title=" ">
<path fill="none" stroke="#63b8ff" d="M591.5,-274.74C591.5,-249.31 591.5,-175.08 591.5,-139.69"/>
<polygon fill="#63b8ff" stroke="#63b8ff" points="595,-139.31 591.5,-129.31 588,-139.31 595,-139.31"/>
</a>
</g>
</g>
<!-- Node5 -->
<g id="Node000005" class="node">
<title>Node5</title>
<g id="a_Node000005"><a xlink:href="stdlib_8h.html" target="_top" xlink:title=" ">
<polygon fill="white" stroke="#666666" points="796.5,-184 720.5,-184 720.5,-165 796.5,-165 796.5,-184"/>
<text text-anchor="middle" x="758.5" y="-172" font-family="Helvetica,sans-Serif" font-size="10.00">pico/stdlib.h</text>
</a>
</g>
</g>
<!-- Node1&#45;&gt;Node5 -->
<g id="edge4_Node000001_Node000005" class="edge">
<title>Node1&#45;&gt;Node5</title>
<g id="a_edge4_Node000001_Node000005"><a xlink:title=" ">
<path fill="none" stroke="#63b8ff" d="M612.25,-274.88C630.97,-266.73 658.96,-253.58 681.5,-239 703.84,-224.54 727.08,-204.58 742.11,-190.92"/>
<polygon fill="#63b8ff" stroke="#63b8ff" points="744.58,-193.41 749.55,-184.06 739.83,-188.26 744.58,-193.41"/>
</a>
</g>
</g>
<!-- Node6 -->
<g id="Node000006" class="node">
<title>Node6</title>
<g id="a_Node000006"><a xlink:href="clocks_8h.html" target="_top" xlink:title=" ">
<polygon fill="white" stroke="#666666" points="725,-74 620,-74 620,-55 725,-55 725,-74"/>
<text text-anchor="middle" x="672.5" y="-62" font-family="Helvetica,sans-Serif" font-size="10.00">hardware/clocks.h</text>
</a>
</g>
</g>
<!-- Node1&#45;&gt;Node6 -->
<g id="edge5_Node000001_Node000006" class="edge">
<title>Node1&#45;&gt;Node6</title>
<g id="a_edge5_Node000001_Node000006"><a xlink:title=" ">
<path fill="none" stroke="#63b8ff" d="M594.68,-274.95C606.62,-242.81 649.01,-128.72 665.69,-83.83"/>
<polygon fill="#63b8ff" stroke="#63b8ff" points="669.06,-84.82 669.26,-74.22 662.49,-82.38 669.06,-84.82"/>
</a>
</g>
</g>
<!-- Node7 -->
<g id="Node000007" class="node">
<title>Node7</title>
<g id="a_Node000007"><a xlink:href="pwm_8h.html" target="_top" xlink:title=" ">
<polygon fill="white" stroke="#666666" points="831.5,-239 733.5,-239 733.5,-220 831.5,-220 831.5,-239"/>
<text text-anchor="middle" x="782.5" y="-227" font-family="Helvetica,sans-Serif" font-size="10.00">hardware/pwm.h</text>
</a>
</g>
</g>
<!-- Node1&#45;&gt;Node7 -->
<g id="edge7_Node000001_Node000007" class="edge">
<title>Node1&#45;&gt;Node7</title>
<g id="a_edge7_Node000001_Node000007"><a xlink:title=" ">
<path fill="none" stroke="#63b8ff" d="M622.19,-274.98C654.67,-265.97 706.1,-251.7 741.91,-241.76"/>
<polygon fill="#63b8ff" stroke="#63b8ff" points="742.87,-245.13 751.57,-239.08 741,-238.38 742.87,-245.13"/>
</a>
</g>
</g>
<!-- Node8 -->
<g id="Node000008" class="node">
<title>Node8</title>
<g id="a_Node000008"><a xlink:href="steve_8h.html" target="_top" xlink:title="S.T.E.V.E (Scheduler Task for Executing Vital Events).">
<polygon fill="white" stroke="#666666" points="553,-184 500,-184 500,-165 553,-165 553,-184"/>
<text text-anchor="middle" x="526.5" y="-172" font-family="Helvetica,sans-Serif" font-size="10.00">steve.h</text>
</a>
</g>
</g>
<!-- Node1&#45;&gt;Node8 -->
<g id="edge9_Node000001_Node000008" class="edge">
<title>Node1&#45;&gt;Node8</title>
<g id="a_edge9_Node000001_Node000008"><a xlink:title=" ">
<path fill="none" stroke="#63b8ff" d="M586.18,-274.66C575.46,-256.85 551.1,-216.37 537.04,-193.01"/>
<polygon fill="#63b8ff" stroke="#63b8ff" points="539.87,-190.92 531.71,-184.16 533.87,-194.53 539.87,-190.92"/>
</a>
</g>
</g>
<!-- Node10 -->
<g id="Node000010" class="node">
<title>Node10</title>
<g id="a_Node000010"><a xlink:href="log_8h.html" target="_top" xlink:title=" ">
<polygon fill="white" stroke="#666666" points="219,-239 178,-239 178,-220 219,-220 219,-239"/>
<text text-anchor="middle" x="198.5" y="-227" font-family="Helvetica,sans-Serif" font-size="10.00">log.h</text>
</a>
</g>
</g>
<!-- Node1&#45;&gt;Node10 -->
<g id="edge11_Node000001_Node000010" class="edge">
<title>Node1&#45;&gt;Node10</title>
<g id="a_edge11_Node000001_Node000010"><a xlink:title=" ">
<path fill="none" stroke="#63b8ff" d="M530.96,-275.33C445.9,-263.87 294.2,-243.41 229.32,-234.66"/>
<polygon fill="#63b8ff" stroke="#63b8ff" points="229.69,-231.18 219.32,-233.31 228.76,-238.11 229.69,-231.18"/>
</a>
</g>
</g>
<!-- Node4 -->
<g id="Node000004" class="node">
<title>Node4</title>
<g id="a_Node000004"><a xlink:title=" ">
<polygon fill="#e0e0e0" stroke="#999999" points="699,-19 646,-19 646,0 699,0 699,-19"/>
<text text-anchor="middle" x="672.5" y="-7" font-family="Helvetica,sans-Serif" font-size="10.00">stdint.h</text>
</a>
</g>
</g>
<!-- Node3&#45;&gt;Node4 -->
<g id="edge3_Node000003_Node000004" class="edge">
<title>Node3&#45;&gt;Node4</title>
<g id="a_edge3_Node000003_Node000004"><a xlink:title=" ">
<path fill="none" stroke="#63b8ff" d="M592.3,-109.92C593.87,-96.95 598.34,-72.05 610.5,-55 619.57,-42.28 633.44,-31.83 645.77,-24.27"/>
<polygon fill="#63b8ff" stroke="#63b8ff" points="647.88,-27.09 654.79,-19.05 644.38,-21.03 647.88,-27.09"/>
</a>
</g>
</g>
<!-- Node6&#45;&gt;Node4 -->
<g id="edge6_Node000006_Node000004" class="edge">
<title>Node6&#45;&gt;Node4</title>
<g id="a_edge6_Node000006_Node000004"><a xlink:title=" ">
<path fill="none" stroke="#63b8ff" d="M672.5,-54.75C672.5,-47.8 672.5,-37.85 672.5,-29.13"/>
<polygon fill="#63b8ff" stroke="#63b8ff" points="676,-29.09 672.5,-19.09 669,-29.09 676,-29.09"/>
</a>
</g>
</g>
<!-- Node7&#45;&gt;Node5 -->
<g id="edge8_Node000007_Node000005" class="edge">
<title>Node7&#45;&gt;Node5</title>
<g id="a_edge8_Node000007_Node000005"><a xlink:title=" ">
<path fill="none" stroke="#63b8ff" d="M778.54,-219.75C775.29,-212.57 770.58,-202.18 766.55,-193.27"/>
<polygon fill="#63b8ff" stroke="#63b8ff" points="769.7,-191.75 762.39,-184.09 763.33,-194.64 769.7,-191.75"/>
</a>
</g>
</g>
<!-- Node9 -->
<g id="Node000009" class="node">
<title>Node9</title>
<g id="a_Node000009"><a xlink:title=" ">
<polygon fill="#e0e0e0" stroke="#999999" points="627.5,-19 565.5,-19 565.5,0 627.5,0 627.5,-19"/>
<text text-anchor="middle" x="596.5" y="-7" font-family="Helvetica,sans-Serif" font-size="10.00">semphr.h</text>
</a>
</g>
</g>
<!-- Node8&#45;&gt;Node9 -->
<g id="edge10_Node000008_Node000009" class="edge">
<title>Node8&#45;&gt;Node9</title>
<g id="a_edge10_Node000008_Node000009"><a xlink:title=" ">
<path fill="none" stroke="#63b8ff" d="M526.43,-164.6C526.6,-152.06 527.88,-128.64 534.5,-110 545.79,-78.21 568.45,-45.87 583.03,-27.03"/>
<polygon fill="#63b8ff" stroke="#63b8ff" points="585.8,-29.16 589.26,-19.14 580.32,-24.81 585.8,-29.16"/>
</a>
</g>
</g>
<!-- Node11 -->
<g id="Node000011" class="node">
<title>Node11</title>
<g id="a_Node000011"><a xlink:href="telemetry_8h.html" target="_top" xlink:title="Functions for packaging and queuing telemetry packets for sending.">
<polygon fill="white" stroke="#666666" points="234.5,-184 162.5,-184 162.5,-165 234.5,-165 234.5,-184"/>
<text text-anchor="middle" x="198.5" y="-172" font-family="Helvetica,sans-Serif" font-size="10.00">telemetry.h</text>
</a>
</g>
</g>
<!-- Node10&#45;&gt;Node11 -->
<g id="edge12_Node000010_Node000011" class="edge">
<title>Node10&#45;&gt;Node11</title>
<g id="a_edge12_Node000010_Node000011"><a xlink:title=" ">
<path fill="none" stroke="#63b8ff" d="M198.5,-219.75C198.5,-212.8 198.5,-202.85 198.5,-194.13"/>
<polygon fill="#63b8ff" stroke="#63b8ff" points="202,-194.09 198.5,-184.09 195,-194.09 202,-194.09"/>
</a>
</g>
</g>
<!-- Node19 -->
<g id="Node000019" class="node">
<title>Node19</title>
<g id="a_Node000019"><a xlink:title=" ">
<polygon fill="#e0e0e0" stroke="#999999" points="153.5,-19 91.5,-19 91.5,0 153.5,0 153.5,-19"/>
<text text-anchor="middle" x="122.5" y="-7" font-family="Helvetica,sans-Serif" font-size="10.00">stdbool.h</text>
</a>
</g>
</g>
<!-- Node10&#45;&gt;Node19 -->
<g id="edge28_Node000010_Node000019" class="edge">
<title>Node10&#45;&gt;Node19</title>
<g id="a_edge28_Node000010_Node000019"><a xlink:title=" ">
<path fill="none" stroke="#63b8ff" d="M186.1,-219.75C175.68,-211.7 161.27,-198.78 153.5,-184 126.5,-132.63 122.49,-62.16 122.23,-29.08"/>
<polygon fill="#63b8ff" stroke="#63b8ff" points="125.73,-29.04 122.26,-19.03 118.73,-29.01 125.73,-29.04"/>
</a>
</g>
</g>
<!-- Node11&#45;&gt;Node2 -->
<g id="edge13_Node000011_Node000002" class="edge">
<title>Node11&#45;&gt;Node2</title>
<g id="a_edge13_Node000011_Node000002"><a xlink:title=" ">
<path fill="none" stroke="#63b8ff" d="M189.79,-164.74C163.75,-138.53 86.21,-60.51 52.47,-26.57"/>
<polygon fill="#63b8ff" stroke="#63b8ff" points="54.78,-23.93 45.25,-19.31 49.82,-28.87 54.78,-23.93"/>
</a>
</g>
</g>
<!-- Node12 -->
<g id="Node000012" class="node">
<title>Node12</title>
<g id="a_Node000012"><a xlink:title=" ">
<polygon fill="#e0e0e0" stroke="#999999" points="227.5,-19 171.5,-19 171.5,0 227.5,0 227.5,-19"/>
<text text-anchor="middle" x="199.5" y="-7" font-family="Helvetica,sans-Serif" font-size="10.00">queue.h</text>
</a>
</g>
</g>
<!-- Node11&#45;&gt;Node12 -->
<g id="edge14_Node000011_Node000012" class="edge">
<title>Node11&#45;&gt;Node12</title>
<g id="a_edge14_Node000011_Node000012"><a xlink:title=" ">
<path fill="none" stroke="#63b8ff" d="M198.55,-164.74C198.71,-139.31 199.17,-65.08 199.38,-29.69"/>
<polygon fill="#63b8ff" stroke="#63b8ff" points="202.88,-29.33 199.45,-19.31 195.88,-29.29 202.88,-29.33"/>
</a>
</g>
</g>
<!-- Node13 -->
<g id="Node000013" class="node">
<title>Node13</title>
<g id="a_Node000013"><a xlink:href="file__downlink_8h.html" target="_top" xlink:title=" ">
<polygon fill="white" stroke="#666666" points="319,-129 228,-129 228,-110 319,-110 319,-129"/>
<text text-anchor="middle" x="273.5" y="-117" font-family="Helvetica,sans-Serif" font-size="10.00">file_downlink.h</text>
</a>
</g>
</g>
<!-- Node11&#45;&gt;Node13 -->
<g id="edge15_Node000011_Node000013" class="edge">
<title>Node11&#45;&gt;Node13</title>
<g id="a_edge15_Node000011_Node000013"><a xlink:title=" ">
<path fill="none" stroke="#63b8ff" d="M210.55,-164.98C221.96,-156.92 239.33,-144.65 252.93,-135.03"/>
<polygon fill="#63b8ff" stroke="#63b8ff" points="255.08,-137.8 261.23,-129.17 251.04,-132.08 255.08,-137.8"/>
</a>
</g>
</g>
<!-- Node13&#45;&gt;Node2 -->
<g id="edge16_Node000013_Node000002" class="edge">
<title>Node13&#45;&gt;Node2</title>
<g id="a_edge16_Node000013_Node000002"><a xlink:title=" ">
<path fill="none" stroke="#63b8ff" d="M254.51,-109.84C212.89,-90.88 113.48,-45.58 64.6,-23.31"/>
<polygon fill="#63b8ff" stroke="#63b8ff" points="65.81,-20.01 55.26,-19.05 62.9,-26.38 65.81,-20.01"/>
</a>
</g>
</g>
<!-- Node13&#45;&gt;Node12 -->
<g id="edge17_Node000013_Node000012" class="edge">
<title>Node13&#45;&gt;Node12</title>
<g id="a_edge17_Node000013_Node000012"><a xlink:title=" ">
<path fill="none" stroke="#63b8ff" d="M271.78,-109.64C268.95,-96.73 262.42,-72.41 250.5,-55 242.62,-43.49 231.07,-33.08 220.96,-25.23"/>
<polygon fill="#63b8ff" stroke="#63b8ff" points="223.03,-22.41 212.92,-19.27 218.87,-28.03 223.03,-22.41"/>
</a>
</g>
</g>
<!-- Node14 -->
<g id="Node000014" class="node">
<title>Node14</title>
<g id="a_Node000014"><a xlink:href="filesystem_8h.html" target="_top" xlink:title="Handles file system operations and management.">
<polygon fill="white" stroke="#666666" points="385,-74 308,-74 308,-55 385,-55 385,-74"/>
<text text-anchor="middle" x="346.5" y="-62" font-family="Helvetica,sans-Serif" font-size="10.00">filesystem.h</text>
</a>
</g>
</g>
<!-- Node13&#45;&gt;Node14 -->
<g id="edge18_Node000013_Node000014" class="edge">
<title>Node13&#45;&gt;Node14</title>
<g id="a_edge18_Node000013_Node000014"><a xlink:title=" ">
<path fill="none" stroke="#63b8ff" d="M285.23,-109.98C296.23,-102 312.92,-89.88 326.1,-80.31"/>
<polygon fill="#63b8ff" stroke="#63b8ff" points="328.52,-82.88 334.56,-74.17 324.41,-77.21 328.52,-82.88"/>
</a>
</g>
</g>
<!-- Node14&#45;&gt;Node2 -->
<g id="edge19_Node000014_Node000002" class="edge">
<title>Node14&#45;&gt;Node2</title>
<g id="a_edge19_Node000014_Node000002"><a xlink:title=" ">
<path fill="none" stroke="#63b8ff" d="M307.99,-57.2C258.46,-49.06 169.51,-34.3 83.12,-19.09"/>
<polygon fill="#63b8ff" stroke="#63b8ff" points="83.61,-15.62 73.15,-17.33 82.39,-22.51 83.61,-15.62"/>
</a>
</g>
</g>
<!-- Node14&#45;&gt;Node4 -->
<g id="edge26_Node000014_Node000004" class="edge">
<title>Node14&#45;&gt;Node4</title>
<g id="a_edge26_Node000014_Node000004"><a xlink:title=" ">
<path fill="none" stroke="#63b8ff" d="M385.13,-58.57C439.03,-51.47 540.01,-37.38 635.95,-18.96"/>
<polygon fill="#63b8ff" stroke="#63b8ff" points="636.66,-22.39 645.81,-17.05 635.33,-15.52 636.66,-22.39"/>
</a>
</g>
</g>
<!-- Node14&#45;&gt;Node9 -->
<g id="edge24_Node000014_Node000009" class="edge">
<title>Node14&#45;&gt;Node9</title>
<g id="a_edge24_Node000014_Node000009"><a xlink:title=" ">
<path fill="none" stroke="#63b8ff" d="M385.01,-55.33C431.21,-45.54 508.31,-29.2 555.55,-19.18"/>
<polygon fill="#63b8ff" stroke="#63b8ff" points="556.39,-22.58 565.45,-17.08 554.94,-15.73 556.39,-22.58"/>
</a>
</g>
</g>
<!-- Node14&#45;&gt;Node12 -->
<g id="edge20_Node000014_Node000012" class="edge">
<title>Node14&#45;&gt;Node12</title>
<g id="a_edge20_Node000014_Node000012"><a xlink:title=" ">
<path fill="none" stroke="#63b8ff" d="M322.88,-54.98C298.6,-46.23 260.55,-32.51 233.13,-22.62"/>
<polygon fill="#63b8ff" stroke="#63b8ff" points="234.14,-19.27 223.55,-19.17 231.77,-25.85 234.14,-19.27"/>
</a>
</g>
</g>
<!-- Node15 -->
<g id="Node000015" class="node">
<title>Node15</title>
<g id="a_Node000015"><a xlink:title=" ">
<polygon fill="#e0e0e0" stroke="#999999" points="547,-19 500,-19 500,0 547,0 547,-19"/>
<text text-anchor="middle" x="523.5" y="-7" font-family="Helvetica,sans-Serif" font-size="10.00">task.h</text>
</a>
</g>
</g>
<!-- Node14&#45;&gt;Node15 -->
<g id="edge21_Node000014_Node000015" class="edge">
<title>Node14&#45;&gt;Node15</title>
<g id="a_edge21_Node000014_Node000015"><a xlink:title=" ">
<path fill="none" stroke="#63b8ff" d="M374.94,-54.98C406.38,-45.57 456.96,-30.42 490.22,-20.46"/>
<polygon fill="#63b8ff" stroke="#63b8ff" points="491.37,-23.77 499.95,-17.55 489.36,-17.07 491.37,-23.77"/>
</a>
</g>
</g>
<!-- Node16 -->
<g id="Node000016" class="node">
<title>Node16</title>
<g id="a_Node000016"><a xlink:title=" ">
<polygon fill="#e0e0e0" stroke="#999999" points="277.5,-19 245.5,-19 245.5,0 277.5,0 277.5,-19"/>
<text text-anchor="middle" x="261.5" y="-7" font-family="Helvetica,sans-Serif" font-size="10.00">ff.h</text>
</a>
</g>
</g>
<!-- Node14&#45;&gt;Node16 -->
<g id="edge22_Node000014_Node000016" class="edge">
<title>Node14&#45;&gt;Node16</title>
<g id="a_edge22_Node000014_Node000016"><a xlink:title=" ">
<path fill="none" stroke="#63b8ff" d="M332.84,-54.98C319.66,-46.77 299.47,-34.18 283.93,-24.49"/>
<polygon fill="#63b8ff" stroke="#63b8ff" points="285.74,-21.49 275.41,-19.17 282.04,-27.43 285.74,-21.49"/>
</a>
</g>
</g>
<!-- Node17 -->
<g id="Node000017" class="node">
<title>Node17</title>
<g id="a_Node000017"><a xlink:href="filesystem__errors_8h.html" target="_top" xlink:title=" ">
<polygon fill="white" stroke="#666666" points="407,-19 296,-19 296,0 407,0 407,-19"/>
<text text-anchor="middle" x="351.5" y="-7" font-family="Helvetica,sans-Serif" font-size="10.00">filesystem_errors.h</text>
</a>
</g>
</g>
<!-- Node14&#45;&gt;Node17 -->
<g id="edge23_Node000014_Node000017" class="edge">
<title>Node14&#45;&gt;Node17</title>
<g id="a_edge23_Node000014_Node000017"><a xlink:title=" ">
<path fill="none" stroke="#63b8ff" d="M347.33,-54.75C347.98,-47.8 348.92,-37.85 349.74,-29.13"/>
<polygon fill="#63b8ff" stroke="#63b8ff" points="353.23,-29.37 350.69,-19.09 346.27,-28.72 353.23,-29.37"/>
</a>
</g>
</g>
<!-- Node18 -->
<g id="Node000018" class="node">
<title>Node18</title>
<g id="a_Node000018"><a xlink:title=" ">
<polygon fill="#e0e0e0" stroke="#999999" points="481.5,-19 425.5,-19 425.5,0 481.5,0 481.5,-19"/>
<text text-anchor="middle" x="453.5" y="-7" font-family="Helvetica,sans-Serif" font-size="10.00">stddef.h</text>
</a>
</g>
</g>
<!-- Node14&#45;&gt;Node18 -->
<g id="edge25_Node000014_Node000018" class="edge">
<title>Node14&#45;&gt;Node18</title>
<g id="a_edge25_Node000014_Node000018"><a xlink:title=" ">
<path fill="none" stroke="#63b8ff" d="M363.69,-54.98C380.75,-46.54 407.13,-33.47 426.9,-23.68"/>
<polygon fill="#63b8ff" stroke="#63b8ff" points="428.59,-26.75 436,-19.17 425.48,-20.47 428.59,-26.75"/>
</a>
</g>
</g>
<!-- Node14&#45;&gt;Node19 -->
<g id="edge27_Node000014_Node000019" class="edge">
<title>Node14&#45;&gt;Node19</title>
<g id="a_edge27_Node000014_Node000019"><a xlink:title=" ">
<path fill="none" stroke="#63b8ff" d="M310.51,-54.98C270.41,-45.5 205.69,-30.18 163.62,-20.23"/>
<polygon fill="#63b8ff" stroke="#63b8ff" points="164.24,-16.78 153.7,-17.88 162.63,-23.59 164.24,-16.78"/>
</a>
</g>
</g>
</g>
</svg>
