<?xml version="1.0" encoding="UTF-8" standalone="no"?>
<!DOCTYPE svg PUBLIC "-//W3C//DTD SVG 1.1//EN"
 "http://www.w3.org/Graphics/SVG/1.1/DTD/svg11.dtd">
<!-- Generated by graphviz version 2.43.0 (0)
 -->
<!-- Title: miscellaneous_jobs.c Pages: 1 -->
<svg width="611pt" height="192pt"
 viewBox="0.00 0.00 610.70 192.00" xmlns="http://www.w3.org/2000/svg" xmlns:xlink="http://www.w3.org/1999/xlink">
<g id="graph0" class="graph" transform="scale(1 1) rotate(0) translate(4 188)">
<title>miscellaneous_jobs.c</title>
<!-- Node1 -->
<g id="Node000001" class="node">
<title>Node1</title>
<g id="a_Node000001"><a xlink:title=" ">
<polygon fill="#999999" stroke="#666666" points="327.2,-184 206.2,-184 206.2,-165 327.2,-165 327.2,-184"/>
<text text-anchor="middle" x="266.7" y="-172" font-family="Helvetica,sans-Serif" font-size="10.00">miscellaneous_jobs.c</text>
</a>
</g>
</g>
<!-- Node2 -->
<g id="Node000002" class="node">
<title>Node2</title>
<g id="a_Node000002"><a xlink:title=" ">
<polygon fill="#e0e0e0" stroke="#999999" points="242.7,-19 170.7,-19 170.7,0 242.7,0 242.7,-19"/>
<text text-anchor="middle" x="206.7" y="-7" font-family="Helvetica,sans-Serif" font-size="10.00">FreeRTOS.h</text>
</a>
</g>
</g>
<!-- Node1&#45;&gt;Node2 -->
<g id="edge1_Node000001_Node000002" class="edge">
<title>Node1&#45;&gt;Node2</title>
<g id="a_edge1_Node000001_Node000002"><a xlink:title=" ">
<path fill="none" stroke="#63b8ff" d="M206,-171.65C138.33,-168.16 35.17,-158.08 10.7,-129 -36.99,-72.3 88.59,-35.36 160.46,-19.45"/>
<polygon fill="#63b8ff" stroke="#63b8ff" points="161.61,-22.79 170.65,-17.26 160.14,-15.94 161.61,-22.79"/>
</a>
</g>
</g>
<!-- Node3 -->
<g id="Node000003" class="node">
<title>Node3</title>
<g id="a_Node000003"><a xlink:href="gpio_8h.html" target="_top" xlink:title=" ">
<polygon fill="white" stroke="#666666" points="115.2,-129 20.2,-129 20.2,-110 115.2,-110 115.2,-129"/>
<text text-anchor="middle" x="67.7" y="-117" font-family="Helvetica,sans-Serif" font-size="10.00">hardware/gpio.h</text>
</a>
</g>
</g>
<!-- Node1&#45;&gt;Node3 -->
<g id="edge2_Node000001_Node000003" class="edge">
<title>Node1&#45;&gt;Node3</title>
<g id="a_edge2_Node000001_Node000003"><a xlink:title=" ">
<path fill="none" stroke="#63b8ff" d="M234.73,-164.98C200.89,-155.97 147.31,-141.7 109.99,-131.76"/>
<polygon fill="#63b8ff" stroke="#63b8ff" points="110.49,-128.27 99.93,-129.08 108.69,-135.04 110.49,-128.27"/>
</a>
</g>
</g>
<!-- Node5 -->
<g id="Node000005" class="node">
<title>Node5</title>
<g id="a_Node000005"><a xlink:href="stdlib_8h.html" target="_top" xlink:title=" ">
<polygon fill="white" stroke="#666666" points="320.7,-74 244.7,-74 244.7,-55 320.7,-55 320.7,-74"/>
<text text-anchor="middle" x="282.7" y="-62" font-family="Helvetica,sans-Serif" font-size="10.00">pico/stdlib.h</text>
</a>
</g>
</g>
<!-- Node1&#45;&gt;Node5 -->
<g id="edge4_Node000001_Node000005" class="edge">
<title>Node1&#45;&gt;Node5</title>
<g id="a_edge4_Node000001_Node000005"><a xlink:title=" ">
<path fill="none" stroke="#63b8ff" d="M268.01,-164.66C270.6,-147.17 276.43,-107.8 279.92,-84.27"/>
<polygon fill="#63b8ff" stroke="#63b8ff" points="283.42,-84.56 281.42,-74.16 276.49,-83.54 283.42,-84.56"/>
</a>
</g>
</g>
<!-- Node6 -->
<g id="Node000006" class="node">
<title>Node6</title>
<g id="a_Node000006"><a xlink:href="clocks_8h.html" target="_top" xlink:title=" ">
<polygon fill="white" stroke="#666666" points="238.2,-129 133.2,-129 133.2,-110 238.2,-110 238.2,-129"/>
<text text-anchor="middle" x="185.7" y="-117" font-family="Helvetica,sans-Serif" font-size="10.00">hardware/clocks.h</text>
</a>
</g>
</g>
<!-- Node1&#45;&gt;Node6 -->
<g id="edge5_Node000001_Node000006" class="edge">
<title>Node1&#45;&gt;Node6</title>
<g id="a_edge5_Node000001_Node000006"><a xlink:title=" ">
<path fill="none" stroke="#63b8ff" d="M253.69,-164.98C241.24,-156.84 222.25,-144.41 207.49,-134.76"/>
<polygon fill="#63b8ff" stroke="#63b8ff" points="209.24,-131.72 198.95,-129.17 205.4,-137.57 209.24,-131.72"/>
</a>
</g>
</g>
<!-- Node7 -->
<g id="Node000007" class="node">
<title>Node7</title>
<g id="a_Node000007"><a xlink:href="pwm_8h.html" target="_top" xlink:title=" ">
<polygon fill="white" stroke="#666666" points="392.7,-129 294.7,-129 294.7,-110 392.7,-110 392.7,-129"/>
<text text-anchor="middle" x="343.7" y="-117" font-family="Helvetica,sans-Serif" font-size="10.00">hardware/pwm.h</text>
</a>
</g>
</g>
<!-- Node1&#45;&gt;Node7 -->
<g id="edge7_Node000001_Node000007" class="edge">
<title>Node1&#45;&gt;Node7</title>
<g id="a_edge7_Node000001_Node000007"><a xlink:title=" ">
<path fill="none" stroke="#63b8ff" d="M279.07,-164.98C290.79,-156.92 308.62,-144.65 322.59,-135.03"/>
<polygon fill="#63b8ff" stroke="#63b8ff" points="324.85,-137.72 331.11,-129.17 320.88,-131.96 324.85,-137.72"/>
</a>
</g>
</g>
<!-- Node8 -->
<g id="Node000008" class="node">
<title>Node8</title>
<g id="a_Node000008"><a xlink:href="steve_8h.html" target="_top" xlink:title="S.T.E.V.E (Scheduler Task for Executing Vital Events)">
<polygon fill="white" stroke="#666666" points="464.2,-129 411.2,-129 411.2,-110 464.2,-110 464.2,-129"/>
<text text-anchor="middle" x="437.7" y="-117" font-family="Helvetica,sans-Serif" font-size="10.00">steve.h</text>
</a>
</g>
</g>
<!-- Node1&#45;&gt;Node8 -->
<g id="edge9_Node000001_Node000008" class="edge">
<title>Node1&#45;&gt;Node8</title>
<g id="a_edge9_Node000001_Node000008"><a xlink:title=" ">
<path fill="none" stroke="#63b8ff" d="M294.18,-164.98C323.23,-155.98 369.2,-141.73 401.26,-131.8"/>
<polygon fill="#63b8ff" stroke="#63b8ff" points="402.62,-135.04 411.14,-128.73 400.55,-128.35 402.62,-135.04"/>
</a>
</g>
</g>
<!-- Node10 -->
<g id="Node000010" class="node">
<title>Node10</title>
<g id="a_Node000010"><a xlink:href="log_8h.html" target="_top" xlink:title=" ">
<polygon fill="white" stroke="#666666" points="523.2,-129 482.2,-129 482.2,-110 523.2,-110 523.2,-129"/>
<text text-anchor="middle" x="502.7" y="-117" font-family="Helvetica,sans-Serif" font-size="10.00">log.h</text>
</a>
</g>
</g>
<!-- Node1&#45;&gt;Node10 -->
<g id="edge11_Node000001_Node000010" class="edge">
<title>Node1&#45;&gt;Node10</title>
<g id="a_edge11_Node000001_Node000010"><a xlink:title=" ">
<path fill="none" stroke="#63b8ff" d="M310.94,-164.97C350.86,-157.05 411.4,-144.5 472.37,-129.2"/>
<polygon fill="#63b8ff" stroke="#63b8ff" points="473.32,-132.57 482.16,-126.72 471.6,-125.79 473.32,-132.57"/>
</a>
</g>
</g>
<!-- Node4 -->
<g id="Node000004" class="node">
<title>Node4</title>
<g id="a_Node000004"><a xlink:title=" ">
<polygon fill="#e0e0e0" stroke="#999999" points="152.2,-74 99.2,-74 99.2,-55 152.2,-55 152.2,-74"/>
<text text-anchor="middle" x="125.7" y="-62" font-family="Helvetica,sans-Serif" font-size="10.00">stdint.h</text>
</a>
</g>
</g>
<!-- Node3&#45;&gt;Node4 -->
<g id="edge3_Node000003_Node000004" class="edge">
<title>Node3&#45;&gt;Node4</title>
<g id="a_edge3_Node000003_Node000004"><a xlink:title=" ">
<path fill="none" stroke="#63b8ff" d="M77.02,-109.98C85.51,-102.23 98.26,-90.58 108.58,-81.14"/>
<polygon fill="#63b8ff" stroke="#63b8ff" points="111.19,-83.5 116.21,-74.17 106.47,-78.33 111.19,-83.5"/>
</a>
</g>
</g>
<!-- Node6&#45;&gt;Node4 -->
<g id="edge6_Node000006_Node000004" class="edge">
<title>Node6&#45;&gt;Node4</title>
<g id="a_edge6_Node000006_Node000004"><a xlink:title=" ">
<path fill="none" stroke="#63b8ff" d="M176.06,-109.98C167.19,-102.15 153.83,-90.34 143.09,-80.86"/>
<polygon fill="#63b8ff" stroke="#63b8ff" points="145.33,-78.17 135.52,-74.17 140.7,-83.41 145.33,-78.17"/>
</a>
</g>
</g>
<!-- Node7&#45;&gt;Node5 -->
<g id="edge8_Node000007_Node000005" class="edge">
<title>Node7&#45;&gt;Node5</title>
<g id="a_edge8_Node000007_Node000005"><a xlink:title=" ">
<path fill="none" stroke="#63b8ff" d="M333.9,-109.98C324.88,-102.15 311.3,-90.34 300.38,-80.86"/>
<polygon fill="#63b8ff" stroke="#63b8ff" points="302.53,-78.09 292.68,-74.17 297.93,-83.37 302.53,-78.09"/>
</a>
</g>
</g>
<!-- Node9 -->
<g id="Node000009" class="node">
<title>Node9</title>
<g id="a_Node000009"><a xlink:title=" ">
<polygon fill="#e0e0e0" stroke="#999999" points="432.7,-74 370.7,-74 370.7,-55 432.7,-55 432.7,-74"/>
<text text-anchor="middle" x="401.7" y="-62" font-family="Helvetica,sans-Serif" font-size="10.00">semphr.h</text>
</a>
</g>
</g>
<!-- Node8&#45;&gt;Node9 -->
<g id="edge10_Node000008_Node000009" class="edge">
<title>Node8&#45;&gt;Node9</title>
<g id="a_edge10_Node000008_Node000009"><a xlink:title=" ">
<path fill="none" stroke="#63b8ff" d="M431.76,-109.75C426.72,-102.34 419.37,-91.5 413.19,-82.41"/>
<polygon fill="#63b8ff" stroke="#63b8ff" points="416.05,-80.39 407.54,-74.09 410.26,-84.33 416.05,-80.39"/>
</a>
</g>
</g>
<!-- Node11 -->
<g id="Node000011" class="node">
<title>Node11</title>
<g id="a_Node000011"><a xlink:href="telemetry_8h.html" target="_top" xlink:title="Functions for packaging and queuing telemetry packets for sending.">
<polygon fill="white" stroke="#666666" points="522.7,-74 450.7,-74 450.7,-55 522.7,-55 522.7,-74"/>
<text text-anchor="middle" x="486.7" y="-62" font-family="Helvetica,sans-Serif" font-size="10.00">telemetry.h</text>
</a>
</g>
</g>
<!-- Node10&#45;&gt;Node11 -->
<g id="edge12_Node000010_Node000011" class="edge">
<title>Node10&#45;&gt;Node11</title>
<g id="a_edge12_Node000010_Node000011"><a xlink:title=" ">
<path fill="none" stroke="#63b8ff" d="M500.06,-109.75C497.94,-102.72 494.89,-92.62 492.24,-83.84"/>
<polygon fill="#63b8ff" stroke="#63b8ff" points="495.54,-82.65 489.29,-74.09 488.83,-84.67 495.54,-82.65"/>
</a>
</g>
</g>
<!-- Node13 -->
<g id="Node000013" class="node">
<title>Node13</title>
<g id="a_Node000013"><a xlink:title=" ">
<polygon fill="#e0e0e0" stroke="#999999" points="602.7,-74 540.7,-74 540.7,-55 602.7,-55 602.7,-74"/>
<text text-anchor="middle" x="571.7" y="-62" font-family="Helvetica,sans-Serif" font-size="10.00">stdbool.h</text>
</a>
</g>
</g>
<!-- Node10&#45;&gt;Node13 -->
<g id="edge15_Node000010_Node000013" class="edge">
<title>Node10&#45;&gt;Node13</title>
<g id="a_edge15_Node000010_Node000013"><a xlink:title=" ">
<path fill="none" stroke="#63b8ff" d="M513.79,-109.98C524.19,-102 539.96,-89.88 552.42,-80.31"/>
<polygon fill="#63b8ff" stroke="#63b8ff" points="554.62,-83.04 560.41,-74.17 550.35,-77.49 554.62,-83.04"/>
</a>
</g>
</g>
<!-- Node11&#45;&gt;Node2 -->
<g id="edge13_Node000011_Node000002" class="edge">
<title>Node11&#45;&gt;Node2</title>
<g id="a_edge13_Node000011_Node000002"><a xlink:title=" ">
<path fill="none" stroke="#63b8ff" d="M450.67,-56.68C400.2,-47.13 308.42,-29.75 252.95,-19.25"/>
<polygon fill="#63b8ff" stroke="#63b8ff" points="253.52,-15.8 243.04,-17.38 252.21,-22.68 253.52,-15.8"/>
</a>
</g>
</g>
<!-- Node12 -->
<g id="Node000012" class="node">
<title>Node12</title>
<g id="a_Node000012"><a xlink:title=" ">
<polygon fill="#e0e0e0" stroke="#999999" points="514.7,-19 458.7,-19 458.7,0 514.7,0 514.7,-19"/>
<text text-anchor="middle" x="486.7" y="-7" font-family="Helvetica,sans-Serif" font-size="10.00">queue.h</text>
</a>
</g>
</g>
<!-- Node11&#45;&gt;Node12 -->
<g id="edge14_Node000011_Node000012" class="edge">
<title>Node11&#45;&gt;Node12</title>
<g id="a_edge14_Node000011_Node000012"><a xlink:title=" ">
<path fill="none" stroke="#63b8ff" d="M486.7,-54.75C486.7,-47.8 486.7,-37.85 486.7,-29.13"/>
<polygon fill="#63b8ff" stroke="#63b8ff" points="490.2,-29.09 486.7,-19.09 483.2,-29.09 490.2,-29.09"/>
</a>
</g>
</g>
</g>
</svg>
