<?xml version="1.0" encoding="UTF-8" standalone="no"?>
<!DOCTYPE svg PUBLIC "-//W3C//DTD SVG 1.1//EN"
 "http://www.w3.org/Graphics/SVG/1.1/DTD/svg11.dtd">
<!-- Generated by graphviz version 2.43.0 (0)
 -->
<!-- Title: miscellaneous_jobs.c Pages: 1 -->
<svg width="637pt" height="192pt"
 viewBox="0.00 0.00 637.03 192.00" xmlns="http://www.w3.org/2000/svg" xmlns:xlink="http://www.w3.org/1999/xlink">
<g id="graph0" class="graph" transform="scale(1 1) rotate(0) translate(4 188)">
<title>miscellaneous_jobs.c</title>
<!-- Node1 -->
<g id="Node000001" class="node">
<title>Node1</title>
<g id="a_Node000001"><a xlink:title=" ">
<polygon fill="#999999" stroke="#666666" points="337.53,-184 216.53,-184 216.53,-165 337.53,-165 337.53,-184"/>
<text text-anchor="middle" x="277.03" y="-172" font-family="Helvetica,sans-Serif" font-size="10.00">miscellaneous_jobs.c</text>
</a>
</g>
</g>
<!-- Node2 -->
<g id="Node000002" class="node">
<title>Node2</title>
<g id="a_Node000002"><a xlink:title=" ">
<polygon fill="#e0e0e0" stroke="#999999" points="267.03,-19 195.03,-19 195.03,0 267.03,0 267.03,-19"/>
<text text-anchor="middle" x="231.03" y="-7" font-family="Helvetica,sans-Serif" font-size="10.00">FreeRTOS.h</text>
</a>
</g>
</g>
<!-- Node1&#45;&gt;Node2 -->
<g id="edge1_Node000001_Node000002" class="edge">
<title>Node1&#45;&gt;Node2</title>
<g id="a_edge1_Node000001_Node000002"><a xlink:title=" ">
<path fill="none" stroke="#63b8ff" d="M216.5,-172.3C145.28,-169.45 33.35,-160.01 7.03,-129 -9.6,-109.41 7.53,-72.65 28.03,-55 51.16,-35.08 132.41,-22.05 184.83,-15.51"/>
<polygon fill="#63b8ff" stroke="#63b8ff" points="185.4,-18.96 194.91,-14.28 184.56,-12.01 185.4,-18.96"/>
</a>
</g>
</g>
<!-- Node3 -->
<g id="Node000003" class="node">
<title>Node3</title>
<g id="a_Node000003"><a xlink:href="gpio_8h.html" target="_top" xlink:title=" ">
<polygon fill="white" stroke="#666666" points="111.53,-129 16.53,-129 16.53,-110 111.53,-110 111.53,-129"/>
<text text-anchor="middle" x="64.03" y="-117" font-family="Helvetica,sans-Serif" font-size="10.00">hardware/gpio.h</text>
</a>
</g>
</g>
<!-- Node1&#45;&gt;Node3 -->
<g id="edge2_Node000001_Node000003" class="edge">
<title>Node1&#45;&gt;Node3</title>
<g id="a_edge2_Node000001_Node000003"><a xlink:title=" ">
<path fill="none" stroke="#63b8ff" d="M242.81,-164.98C206.27,-155.89 148.25,-141.46 108.27,-131.51"/>
<polygon fill="#63b8ff" stroke="#63b8ff" points="109.07,-128.1 98.52,-129.08 107.38,-134.89 109.07,-128.1"/>
</a>
</g>
</g>
<!-- Node5 -->
<g id="Node000005" class="node">
<title>Node5</title>
<g id="a_Node000005"><a xlink:href="stdlib_8h.html" target="_top" xlink:title=" ">
<polygon fill="white" stroke="#666666" points="206.03,-129 130.03,-129 130.03,-110 206.03,-110 206.03,-129"/>
<text text-anchor="middle" x="168.03" y="-117" font-family="Helvetica,sans-Serif" font-size="10.00">pico/stdlib.h</text>
</a>
</g>
</g>
<!-- Node1&#45;&gt;Node5 -->
<g id="edge4_Node000001_Node000005" class="edge">
<title>Node1&#45;&gt;Node5</title>
<g id="a_edge4_Node000001_Node000005"><a xlink:title=" ">
<path fill="none" stroke="#63b8ff" d="M259.51,-164.98C242.06,-156.5 215.02,-143.35 194.86,-133.54"/>
<polygon fill="#63b8ff" stroke="#63b8ff" points="196.38,-130.4 185.86,-129.17 193.32,-136.69 196.38,-130.4"/>
</a>
</g>
</g>
<!-- Node6 -->
<g id="Node000006" class="node">
<title>Node6</title>
<g id="a_Node000006"><a xlink:title=" ">
<polygon fill="#e0e0e0" stroke="#999999" points="329.53,-129 224.53,-129 224.53,-110 329.53,-110 329.53,-129"/>
<text text-anchor="middle" x="277.03" y="-117" font-family="Helvetica,sans-Serif" font-size="10.00">hardware/clocks.h</text>
</a>
</g>
</g>
<!-- Node1&#45;&gt;Node6 -->
<g id="edge5_Node000001_Node000006" class="edge">
<title>Node1&#45;&gt;Node6</title>
<g id="a_edge5_Node000001_Node000006"><a xlink:title=" ">
<path fill="none" stroke="#63b8ff" d="M277.03,-164.75C277.03,-157.8 277.03,-147.85 277.03,-139.13"/>
<polygon fill="#63b8ff" stroke="#63b8ff" points="280.53,-139.09 277.03,-129.09 273.53,-139.09 280.53,-139.09"/>
</a>
</g>
</g>
<!-- Node7 -->
<g id="Node000007" class="node">
<title>Node7</title>
<g id="a_Node000007"><a xlink:title=" ">
<polygon fill="#e0e0e0" stroke="#999999" points="446.03,-129 348.03,-129 348.03,-110 446.03,-110 446.03,-129"/>
<text text-anchor="middle" x="397.03" y="-117" font-family="Helvetica,sans-Serif" font-size="10.00">hardware/pwm.h</text>
</a>
</g>
</g>
<!-- Node1&#45;&gt;Node7 -->
<g id="edge6_Node000001_Node000007" class="edge">
<title>Node1&#45;&gt;Node7</title>
<g id="a_edge6_Node000001_Node000007"><a xlink:title=" ">
<path fill="none" stroke="#63b8ff" d="M296.31,-164.98C315.7,-156.42 345.83,-143.11 368.09,-133.28"/>
<polygon fill="#63b8ff" stroke="#63b8ff" points="369.66,-136.41 377.4,-129.17 366.83,-130.01 369.66,-136.41"/>
</a>
</g>
</g>
<!-- Node8 -->
<g id="Node000008" class="node">
<title>Node8</title>
<g id="a_Node000008"><a xlink:href="steve_8h.html" target="_top" xlink:title="S.T.E.V.E (Scheduler Task for Executing Vital Events)">
<polygon fill="white" stroke="#666666" points="517.53,-129 464.53,-129 464.53,-110 517.53,-110 517.53,-129"/>
<text text-anchor="middle" x="491.03" y="-117" font-family="Helvetica,sans-Serif" font-size="10.00">steve.h</text>
</a>
</g>
</g>
<!-- Node1&#45;&gt;Node8 -->
<g id="edge7_Node000001_Node000008" class="edge">
<title>Node1&#45;&gt;Node8</title>
<g id="a_edge7_Node000001_Node000008"><a xlink:title=" ">
<path fill="none" stroke="#63b8ff" d="M311.41,-164.98C350.65,-155.27 414.55,-139.44 454.61,-129.52"/>
<polygon fill="#63b8ff" stroke="#63b8ff" points="455.64,-132.87 464.5,-127.07 453.95,-126.08 455.64,-132.87"/>
</a>
</g>
</g>
<!-- Node10 -->
<g id="Node000010" class="node">
<title>Node10</title>
<g id="a_Node000010"><a xlink:href="log_8h.html" target="_top" xlink:title=" ">
<polygon fill="white" stroke="#666666" points="576.53,-129 535.53,-129 535.53,-110 576.53,-110 576.53,-129"/>
<text text-anchor="middle" x="556.03" y="-117" font-family="Helvetica,sans-Serif" font-size="10.00">log.h</text>
</a>
</g>
</g>
<!-- Node1&#45;&gt;Node10 -->
<g id="edge9_Node000001_Node000010" class="edge">
<title>Node1&#45;&gt;Node10</title>
<g id="a_edge9_Node000001_Node000010"><a xlink:title=" ">
<path fill="none" stroke="#63b8ff" d="M335.24,-164.98C383.85,-157.45 455.14,-145.43 525.58,-129.14"/>
<polygon fill="#63b8ff" stroke="#63b8ff" points="526.57,-132.5 535.51,-126.82 524.97,-125.69 526.57,-132.5"/>
</a>
</g>
</g>
<!-- Node4 -->
<g id="Node000004" class="node">
<title>Node4</title>
<g id="a_Node000004"><a xlink:title=" ">
<polygon fill="#e0e0e0" stroke="#999999" points="90.53,-74 37.53,-74 37.53,-55 90.53,-55 90.53,-74"/>
<text text-anchor="middle" x="64.03" y="-62" font-family="Helvetica,sans-Serif" font-size="10.00">stdint.h</text>
</a>
</g>
</g>
<!-- Node3&#45;&gt;Node4 -->
<g id="edge3_Node000003_Node000004" class="edge">
<title>Node3&#45;&gt;Node4</title>
<g id="a_edge3_Node000003_Node000004"><a xlink:title=" ">
<path fill="none" stroke="#63b8ff" d="M64.03,-109.75C64.03,-102.8 64.03,-92.85 64.03,-84.13"/>
<polygon fill="#63b8ff" stroke="#63b8ff" points="67.53,-84.09 64.03,-74.09 60.53,-84.09 67.53,-84.09"/>
</a>
</g>
</g>
<!-- Node9 -->
<g id="Node000009" class="node">
<title>Node9</title>
<g id="a_Node000009"><a xlink:title=" ">
<polygon fill="#e0e0e0" stroke="#999999" points="459.03,-74 397.03,-74 397.03,-55 459.03,-55 459.03,-74"/>
<text text-anchor="middle" x="428.03" y="-62" font-family="Helvetica,sans-Serif" font-size="10.00">semphr.h</text>
</a>
</g>
</g>
<!-- Node8&#45;&gt;Node9 -->
<g id="edge8_Node000008_Node000009" class="edge">
<title>Node8&#45;&gt;Node9</title>
<g id="a_edge8_Node000008_Node000009"><a xlink:title=" ">
<path fill="none" stroke="#63b8ff" d="M480.91,-109.98C471.59,-102.15 457.56,-90.34 446.29,-80.86"/>
<polygon fill="#63b8ff" stroke="#63b8ff" points="448.24,-77.93 438.33,-74.17 443.73,-83.29 448.24,-77.93"/>
</a>
</g>
</g>
<!-- Node11 -->
<g id="Node000011" class="node">
<title>Node11</title>
<g id="a_Node000011"><a xlink:href="telemetry_8h.html" target="_top" xlink:title="Functions for packaging and queuing telemetry packets for sending.">
<polygon fill="white" stroke="#666666" points="549.03,-74 477.03,-74 477.03,-55 549.03,-55 549.03,-74"/>
<text text-anchor="middle" x="513.03" y="-62" font-family="Helvetica,sans-Serif" font-size="10.00">telemetry.h</text>
</a>
</g>
</g>
<!-- Node10&#45;&gt;Node11 -->
<g id="edge10_Node000010_Node000011" class="edge">
<title>Node10&#45;&gt;Node11</title>
<g id="a_edge10_Node000010_Node000011"><a xlink:title=" ">
<path fill="none" stroke="#63b8ff" d="M548.93,-109.75C542.85,-102.26 533.94,-91.28 526.52,-82.13"/>
<polygon fill="#63b8ff" stroke="#63b8ff" points="529.01,-79.65 520,-74.09 523.58,-84.06 529.01,-79.65"/>
</a>
</g>
</g>
<!-- Node13 -->
<g id="Node000013" class="node">
<title>Node13</title>
<g id="a_Node000013"><a xlink:title=" ">
<polygon fill="#e0e0e0" stroke="#999999" points="629.03,-74 567.03,-74 567.03,-55 629.03,-55 629.03,-74"/>
<text text-anchor="middle" x="598.03" y="-62" font-family="Helvetica,sans-Serif" font-size="10.00">stdbool.h</text>
</a>
</g>
</g>
<!-- Node10&#45;&gt;Node13 -->
<g id="edge13_Node000010_Node000013" class="edge">
<title>Node10&#45;&gt;Node13</title>
<g id="a_edge13_Node000010_Node000013"><a xlink:title=" ">
<path fill="none" stroke="#63b8ff" d="M562.96,-109.75C568.9,-102.26 577.6,-91.28 584.85,-82.13"/>
<polygon fill="#63b8ff" stroke="#63b8ff" points="587.75,-84.1 591.22,-74.09 582.27,-79.75 587.75,-84.1"/>
</a>
</g>
</g>
<!-- Node11&#45;&gt;Node2 -->
<g id="edge11_Node000011_Node000002" class="edge">
<title>Node11&#45;&gt;Node2</title>
<g id="a_edge11_Node000011_Node000002"><a xlink:title=" ">
<path fill="none" stroke="#63b8ff" d="M476.68,-56.63C473.75,-56.08 470.84,-55.53 468.03,-55 401.72,-42.51 324.96,-28.11 277.2,-19.15"/>
<polygon fill="#63b8ff" stroke="#63b8ff" points="277.64,-15.68 267.17,-17.27 276.35,-22.56 277.64,-15.68"/>
</a>
</g>
</g>
<!-- Node12 -->
<g id="Node000012" class="node">
<title>Node12</title>
<g id="a_Node000012"><a xlink:title=" ">
<polygon fill="#e0e0e0" stroke="#999999" points="541.03,-19 485.03,-19 485.03,0 541.03,0 541.03,-19"/>
<text text-anchor="middle" x="513.03" y="-7" font-family="Helvetica,sans-Serif" font-size="10.00">queue.h</text>
</a>
</g>
</g>
<!-- Node11&#45;&gt;Node12 -->
<g id="edge12_Node000011_Node000012" class="edge">
<title>Node11&#45;&gt;Node12</title>
<g id="a_edge12_Node000011_Node000012"><a xlink:title=" ">
<path fill="none" stroke="#63b8ff" d="M513.03,-54.75C513.03,-47.8 513.03,-37.85 513.03,-29.13"/>
<polygon fill="#63b8ff" stroke="#63b8ff" points="516.53,-29.09 513.03,-19.09 509.53,-29.09 516.53,-29.09"/>
</a>
</g>
</g>
</g>
</svg>
