<?xml version="1.0" encoding="UTF-8" standalone="no"?>
<!DOCTYPE svg PUBLIC "-//W3C//DTD SVG 1.1//EN"
 "http://www.w3.org/Graphics/SVG/1.1/DTD/svg11.dtd">
<!-- Generated by graphviz version 2.43.0 (0)
 -->
<!-- Title: mram.c Pages: 1 -->
<svg width="432pt" height="192pt"
 viewBox="0.00 0.00 431.50 192.00" xmlns="http://www.w3.org/2000/svg" xmlns:xlink="http://www.w3.org/1999/xlink">

<svg id="main" version="1.1" xmlns="http://www.w3.org/2000/svg" xmlns:xlink="http://www.w3.org/1999/xlink" xml:space="preserve">

<style type="text/css"><![CDATA[
.node, .edge {opacity: 0.7;}
.node.selected, .edge.selected {opacity: 1;}
.edge:hover path { stroke: red; }
.edge:hover polygon { stroke: red; fill: red; }
]]></style>
<script type="application/ecmascript" xlink:href="svg.min.js"/>
<svg id="graph" class="graph">
<g id="graph0" class="graph" transform="scale(1 1) rotate(0) translate(4 188)">
<title>mram.c</title>
<!-- Node1 -->
<g id="Node000001" class="node">
<title>Node1</title>
<g id="a_Node000001"><a xlink:title=" ">
<polygon fill="#999999" stroke="#666666" points="183.5,-184 129.5,-184 129.5,-165 183.5,-165 183.5,-184"/>
<text text-anchor="middle" x="156.5" y="-172" font-family="Helvetica,sans-Serif" font-size="10.00">mram.c</text>
</a>
</g>
</g>
<!-- Node2 -->
<g id="Node000002" class="node">
<title>Node2</title>
<g id="a_Node000002"><a xlink:href="mram_8h.html" target="_top" xlink:title="MRAM Driver.">
<polygon fill="white" stroke="#666666" points="55,-129 0,-129 0,-110 55,-110 55,-129"/>
<text text-anchor="middle" x="27.5" y="-117" font-family="Helvetica,sans-Serif" font-size="10.00">mram.h</text>
</a>
</g>
</g>
<!-- Node1&#45;&gt;Node2 -->
<g id="edge1_Node000001_Node000002" class="edge">
<title>Node1&#45;&gt;Node2</title>
<g id="a_edge1_Node000001_Node000002"><a xlink:title=" ">
<path fill="none" stroke="#63b8ff" d="M135.77,-164.98C114.74,-156.34 81.95,-142.87 57.96,-133.02"/>
<polygon fill="#63b8ff" stroke="#63b8ff" points="59.18,-129.73 48.6,-129.17 56.52,-136.21 59.18,-129.73"/>
</a>
</g>
</g>
<!-- Node4 -->
<g id="Node000004" class="node">
<title>Node4</title>
<g id="a_Node000004"><a xlink:title=" ">
<polygon fill="#e0e0e0" stroke="#999999" points="210.5,-19 138.5,-19 138.5,0 210.5,0 210.5,-19"/>
<text text-anchor="middle" x="174.5" y="-7" font-family="Helvetica,sans-Serif" font-size="10.00">FreeRTOS.h</text>
</a>
</g>
</g>
<!-- Node1&#45;&gt;Node4 -->
<g id="edge3_Node000001_Node000004" class="edge">
<title>Node1&#45;&gt;Node4</title>
<g id="a_edge3_Node000001_Node000004"><a xlink:title=" ">
<path fill="none" stroke="#63b8ff" d="M139.61,-164.95C126.79,-157.43 110.12,-145.15 102.5,-129 98.9,-121.36 99.9,-118.03 102.5,-110 113.32,-76.58 140.04,-44.96 157.71,-26.67"/>
<polygon fill="#63b8ff" stroke="#63b8ff" points="160.52,-28.8 165.1,-19.25 155.56,-23.86 160.52,-28.8"/>
</a>
</g>
</g>
<!-- Node5 -->
<g id="Node000005" class="node">
<title>Node5</title>
<g id="a_Node000005"><a xlink:href="spi_8h.html" target="_top" xlink:title=" ">
<polygon fill="white" stroke="#666666" points="201,-129 112,-129 112,-110 201,-110 201,-129"/>
<text text-anchor="middle" x="156.5" y="-117" font-family="Helvetica,sans-Serif" font-size="10.00">hardware/spi.h</text>
</a>
</g>
</g>
<!-- Node1&#45;&gt;Node5 -->
<g id="edge4_Node000001_Node000005" class="edge">
<title>Node1&#45;&gt;Node5</title>
<g id="a_edge4_Node000001_Node000005"><a xlink:title=" ">
<path fill="none" stroke="#63b8ff" d="M156.5,-164.75C156.5,-157.8 156.5,-147.85 156.5,-139.13"/>
<polygon fill="#63b8ff" stroke="#63b8ff" points="160,-139.09 156.5,-129.09 153,-139.09 160,-139.09"/>
</a>
</g>
</g>
<!-- Node6 -->
<g id="Node000006" class="node">
<title>Node6</title>
<g id="a_Node000006"><a xlink:href="gpio_8h.html" target="_top" xlink:title=" ">
<polygon fill="white" stroke="#666666" points="314,-129 219,-129 219,-110 314,-110 314,-129"/>
<text text-anchor="middle" x="266.5" y="-117" font-family="Helvetica,sans-Serif" font-size="10.00">hardware/gpio.h</text>
</a>
</g>
</g>
<!-- Node1&#45;&gt;Node6 -->
<g id="edge5_Node000001_Node000006" class="edge">
<title>Node1&#45;&gt;Node6</title>
<g id="a_edge5_Node000001_Node000006"><a xlink:title=" ">
<path fill="none" stroke="#63b8ff" d="M174.17,-164.98C191.79,-156.5 219.08,-143.35 239.43,-133.54"/>
<polygon fill="#63b8ff" stroke="#63b8ff" points="241.02,-136.66 248.51,-129.17 237.98,-130.36 241.02,-136.66"/>
</a>
</g>
</g>
<!-- Node8 -->
<g id="Node000008" class="node">
<title>Node8</title>
<g id="a_Node000008"><a xlink:href="log_8h.html" target="_top" xlink:title=" ">
<polygon fill="white" stroke="#666666" points="373,-129 332,-129 332,-110 373,-110 373,-129"/>
<text text-anchor="middle" x="352.5" y="-117" font-family="Helvetica,sans-Serif" font-size="10.00">log.h</text>
</a>
</g>
</g>
<!-- Node1&#45;&gt;Node8 -->
<g id="edge7_Node000001_Node000008" class="edge">
<title>Node1&#45;&gt;Node8</title>
<g id="a_edge7_Node000001_Node000008"><a xlink:title=" ">
<path fill="none" stroke="#63b8ff" d="M183.56,-166.37C214.58,-158.17 267.2,-144.18 321.97,-129.12"/>
<polygon fill="#63b8ff" stroke="#63b8ff" points="323.14,-132.42 331.85,-126.39 321.28,-125.67 323.14,-132.42"/>
</a>
</g>
</g>
<!-- Node3 -->
<g id="Node000003" class="node">
<title>Node3</title>
<g id="a_Node000003"><a xlink:href="stdlib_8h.html" target="_top" xlink:title=" ">
<polygon fill="white" stroke="#666666" points="54,-74 1,-74 1,-55 54,-55 54,-74"/>
<text text-anchor="middle" x="27.5" y="-62" font-family="Helvetica,sans-Serif" font-size="10.00">stdlib.h</text>
</a>
</g>
</g>
<!-- Node2&#45;&gt;Node3 -->
<g id="edge2_Node000002_Node000003" class="edge">
<title>Node2&#45;&gt;Node3</title>
<g id="a_edge2_Node000002_Node000003"><a xlink:title=" ">
<path fill="none" stroke="#63b8ff" d="M27.5,-109.75C27.5,-102.8 27.5,-92.85 27.5,-84.13"/>
<polygon fill="#63b8ff" stroke="#63b8ff" points="31,-84.09 27.5,-74.09 24,-84.09 31,-84.09"/>
</a>
</g>
</g>
<!-- Node7 -->
<g id="Node000007" class="node">
<title>Node7</title>
<g id="a_Node000007"><a xlink:title=" ">
<polygon fill="#e0e0e0" stroke="#999999" points="253,-74 200,-74 200,-55 253,-55 253,-74"/>
<text text-anchor="middle" x="226.5" y="-62" font-family="Helvetica,sans-Serif" font-size="10.00">stdint.h</text>
</a>
</g>
</g>
<!-- Node6&#45;&gt;Node7 -->
<g id="edge6_Node000006_Node000007" class="edge">
<title>Node6&#45;&gt;Node7</title>
<g id="a_edge6_Node000006_Node000007"><a xlink:title=" ">
<path fill="none" stroke="#63b8ff" d="M259.89,-109.75C254.24,-102.26 245.96,-91.28 239.05,-82.13"/>
<polygon fill="#63b8ff" stroke="#63b8ff" points="241.8,-79.96 232.98,-74.09 236.21,-84.18 241.8,-79.96"/>
</a>
</g>
</g>
<!-- Node9 -->
<g id="Node000009" class="node">
<title>Node9</title>
<g id="a_Node000009"><a xlink:href="telemetry_8h.html" target="_top" xlink:title=" ">
<polygon fill="white" stroke="#666666" points="343.5,-74 271.5,-74 271.5,-55 343.5,-55 343.5,-74"/>
<text text-anchor="middle" x="307.5" y="-62" font-family="Helvetica,sans-Serif" font-size="10.00">telemetry.h</text>
</a>
</g>
</g>
<!-- Node8&#45;&gt;Node9 -->
<g id="edge8_Node000008_Node000009" class="edge">
<title>Node8&#45;&gt;Node9</title>
<g id="a_edge8_Node000008_Node000009"><a xlink:title=" ">
<path fill="none" stroke="#63b8ff" d="M345.07,-109.75C338.65,-102.18 329.19,-91.05 321.38,-81.84"/>
<polygon fill="#63b8ff" stroke="#63b8ff" points="323.93,-79.45 314.79,-74.09 318.6,-83.98 323.93,-79.45"/>
</a>
</g>
</g>
<!-- Node11 -->
<g id="Node000011" class="node">
<title>Node11</title>
<g id="a_Node000011"><a xlink:title=" ">
<polygon fill="#e0e0e0" stroke="#999999" points="423.5,-74 361.5,-74 361.5,-55 423.5,-55 423.5,-74"/>
<text text-anchor="middle" x="392.5" y="-62" font-family="Helvetica,sans-Serif" font-size="10.00">stdbool.h</text>
</a>
</g>
</g>
<!-- Node8&#45;&gt;Node11 -->
<g id="edge11_Node000008_Node000011" class="edge">
<title>Node8&#45;&gt;Node11</title>
<g id="a_edge11_Node000008_Node000011"><a xlink:title=" ">
<path fill="none" stroke="#63b8ff" d="M359.11,-109.75C364.76,-102.26 373.04,-91.28 379.95,-82.13"/>
<polygon fill="#63b8ff" stroke="#63b8ff" points="382.79,-84.18 386.02,-74.09 377.2,-79.96 382.79,-84.18"/>
</a>
</g>
</g>
<!-- Node9&#45;&gt;Node4 -->
<g id="edge9_Node000009_Node000004" class="edge">
<title>Node9&#45;&gt;Node4</title>
<g id="a_edge9_Node000009_Node000004"><a xlink:title=" ">
<path fill="none" stroke="#63b8ff" d="M286.13,-54.98C264.35,-46.3 230.34,-32.75 205.58,-22.88"/>
<polygon fill="#63b8ff" stroke="#63b8ff" points="206.84,-19.62 196.26,-19.17 204.25,-26.12 206.84,-19.62"/>
</a>
</g>
</g>
<!-- Node10 -->
<g id="Node000010" class="node">
<title>Node10</title>
<g id="a_Node000010"><a xlink:title=" ">
<polygon fill="#e0e0e0" stroke="#999999" points="335.5,-19 279.5,-19 279.5,0 335.5,0 335.5,-19"/>
<text text-anchor="middle" x="307.5" y="-7" font-family="Helvetica,sans-Serif" font-size="10.00">queue.h</text>
</a>
</g>
</g>
<!-- Node9&#45;&gt;Node10 -->
<g id="edge10_Node000009_Node000010" class="edge">
<title>Node9&#45;&gt;Node10</title>
<g id="a_edge10_Node000009_Node000010"><a xlink:title=" ">
<path fill="none" stroke="#63b8ff" d="M307.5,-54.75C307.5,-47.8 307.5,-37.85 307.5,-29.13"/>
<polygon fill="#63b8ff" stroke="#63b8ff" points="311,-29.09 307.5,-19.09 304,-29.09 311,-29.09"/>
</a>
</g>
</g>
</g>
</svg>
</svg>

<style type='text/css'>
<![CDATA[
[data-mouse-over-selected='false'] { opacity: 0.7; }
[data-mouse-over-selected='true']  { opacity: 1.0; }
]]>
</style>
<script type="application/ecmascript"><![CDATA[
document.addEventListener('DOMContentLoaded', (event) => {
  highlightEdges();
  highlightAdjacentNodes();
});
]]></script>
</svg>
