<?xml version="1.0" encoding="UTF-8" standalone="no"?>
<!DOCTYPE svg PUBLIC "-//W3C//DTD SVG 1.1//EN"
 "http://www.w3.org/Graphics/SVG/1.1/DTD/svg11.dtd">
<!-- Generated by graphviz version 12.1.2 (20240928.0832)
 -->
<!-- Title: mram.c Pages: 1 -->
<svg width="396pt" height="196pt"
 viewBox="0.00 0.00 396.38 196.00" xmlns="http://www.w3.org/2000/svg" xmlns:xlink="http://www.w3.org/1999/xlink">
<g id="graph0" class="graph" transform="scale(1 1) rotate(0) translate(4 192)">
<title>mram.c</title>
<!-- Node1 -->
<g id="Node000001" class="node">
<title>Node1</title>
<g id="a_Node000001"><a xlink:title=" ">
<polygon fill="#999999" stroke="#666666" points="170,-188 121,-188 121,-168 170,-168 170,-188"/>
<text text-anchor="middle" x="145.5" y="-174.5" font-family="Helvetica,sans-Serif" font-size="10.00">mram.c</text>
</a>
</g>
</g>
<!-- Node2 -->
<g id="Node000002" class="node">
<title>Node2</title>
<g id="a_Node000002"><a xlink:href="mram_8h.html" target="_top" xlink:title=" ">
<polygon fill="white" stroke="#666666" points="49,-132 0,-132 0,-112 49,-112 49,-132"/>
<text text-anchor="middle" x="24.5" y="-118.5" font-family="Helvetica,sans-Serif" font-size="10.00">mram.h</text>
</a>
</g>
</g>
<!-- Node1&#45;&gt;Node2 -->
<g id="edge1_Node000001_Node000002" class="edge">
<title>Node1&#45;&gt;Node2</title>
<g id="a_edge1_Node000001_Node000002"><a xlink:title=" ">
<path fill="none" stroke="#63b8ff" d="M124.42,-167.59C105.54,-159.17 77.58,-146.69 56.04,-137.07"/>
<polygon fill="#63b8ff" stroke="#63b8ff" points="57.68,-133.98 47.12,-133.1 54.83,-140.37 57.68,-133.98"/>
</a>
</g>
</g>
<!-- Node4 -->
<g id="Node000004" class="node">
<title>Node4</title>
<g id="a_Node000004"><a xlink:title=" ">
<polygon fill="#e0e0e0" stroke="#999999" points="193.88,-20 123.12,-20 123.12,0 193.88,0 193.88,-20"/>
<text text-anchor="middle" x="158.5" y="-6.5" font-family="Helvetica,sans-Serif" font-size="10.00">FreeRTOS.h</text>
</a>
</g>
</g>
<!-- Node1&#45;&gt;Node4 -->
<g id="edge3_Node000001_Node000004" class="edge">
<title>Node1&#45;&gt;Node4</title>
<g id="a_edge3_Node000001_Node000004"><a xlink:title=" ">
<path fill="none" stroke="#63b8ff" d="M129.89,-167.77C118.27,-159.9 103.28,-147.44 96.5,-132 92.92,-123.86 94.08,-120.55 96.5,-112 105.5,-80.13 127.69,-48.41 142.93,-29.25"/>
<polygon fill="#63b8ff" stroke="#63b8ff" points="145.56,-31.56 149.19,-21.61 140.15,-27.12 145.56,-31.56"/>
</a>
</g>
</g>
<!-- Node5 -->
<g id="Node000005" class="node">
<title>Node5</title>
<g id="a_Node000005"><a xlink:href="spi_8h.html" target="_top" xlink:title=" ">
<polygon fill="white" stroke="#666666" points="185.38,-132 105.62,-132 105.62,-112 185.38,-112 185.38,-132"/>
<text text-anchor="middle" x="145.5" y="-118.5" font-family="Helvetica,sans-Serif" font-size="10.00">hardware/spi.h</text>
</a>
</g>
</g>
<!-- Node1&#45;&gt;Node5 -->
<g id="edge4_Node000001_Node000005" class="edge">
<title>Node1&#45;&gt;Node5</title>
<g id="a_edge4_Node000001_Node000005"><a xlink:title=" ">
<path fill="none" stroke="#63b8ff" d="M145.5,-167.59C145.5,-161.01 145.5,-151.96 145.5,-143.73"/>
<polygon fill="#63b8ff" stroke="#63b8ff" points="149,-143.81 145.5,-133.81 142,-143.81 149,-143.81"/>
</a>
</g>
</g>
<!-- Node6 -->
<g id="Node000006" class="node">
<title>Node6</title>
<g id="a_Node000006"><a xlink:href="gpio_8h.html" target="_top" xlink:title=" ">
<polygon fill="white" stroke="#666666" points="288,-132 203,-132 203,-112 288,-112 288,-132"/>
<text text-anchor="middle" x="245.5" y="-118.5" font-family="Helvetica,sans-Serif" font-size="10.00">hardware/gpio.h</text>
</a>
</g>
</g>
<!-- Node1&#45;&gt;Node6 -->
<g id="edge5_Node000001_Node000006" class="edge">
<title>Node1&#45;&gt;Node6</title>
<g id="a_edge5_Node000001_Node000006"><a xlink:title=" ">
<path fill="none" stroke="#63b8ff" d="M162.92,-167.59C178.17,-159.36 200.58,-147.26 218.21,-137.74"/>
<polygon fill="#63b8ff" stroke="#63b8ff" points="219.48,-141.03 226.61,-133.2 216.15,-134.87 219.48,-141.03"/>
</a>
</g>
</g>
<!-- Node8 -->
<g id="Node000008" class="node">
<title>Node8</title>
<g id="a_Node000008"><a xlink:href="log_8h.html" target="_top" xlink:title=" ">
<polygon fill="white" stroke="#666666" points="343,-132 306,-132 306,-112 343,-112 343,-132"/>
<text text-anchor="middle" x="324.5" y="-118.5" font-family="Helvetica,sans-Serif" font-size="10.00">log.h</text>
</a>
</g>
</g>
<!-- Node1&#45;&gt;Node8 -->
<g id="edge7_Node000001_Node000008" class="edge">
<title>Node1&#45;&gt;Node8</title>
<g id="a_edge7_Node000001_Node000008"><a xlink:title=" ">
<path fill="none" stroke="#63b8ff" d="M170.33,-169.93C198.42,-161.87 245.81,-148.09 294.83,-132.77"/>
<polygon fill="#63b8ff" stroke="#63b8ff" points="295.71,-136.17 304.2,-129.83 293.61,-129.49 295.71,-136.17"/>
</a>
</g>
</g>
<!-- Node3 -->
<g id="Node000003" class="node">
<title>Node3</title>
<g id="a_Node000003"><a xlink:href="stdlib_8h.html" target="_top" xlink:title=" ">
<polygon fill="white" stroke="#666666" points="48.25,-76 0.75,-76 0.75,-56 48.25,-56 48.25,-76"/>
<text text-anchor="middle" x="24.5" y="-62.5" font-family="Helvetica,sans-Serif" font-size="10.00">stdlib.h</text>
</a>
</g>
</g>
<!-- Node2&#45;&gt;Node3 -->
<g id="edge2_Node000002_Node000003" class="edge">
<title>Node2&#45;&gt;Node3</title>
<g id="a_edge2_Node000002_Node000003"><a xlink:title=" ">
<path fill="none" stroke="#63b8ff" d="M24.5,-111.59C24.5,-105.01 24.5,-95.96 24.5,-87.73"/>
<polygon fill="#63b8ff" stroke="#63b8ff" points="28,-87.81 24.5,-77.81 21,-87.81 28,-87.81"/>
</a>
</g>
</g>
<!-- Node7 -->
<g id="Node000007" class="node">
<title>Node7</title>
<g id="a_Node000007"><a xlink:title=" ">
<polygon fill="#e0e0e0" stroke="#999999" points="232.62,-76 184.38,-76 184.38,-56 232.62,-56 232.62,-76"/>
<text text-anchor="middle" x="208.5" y="-62.5" font-family="Helvetica,sans-Serif" font-size="10.00">stdint.h</text>
</a>
</g>
</g>
<!-- Node6&#45;&gt;Node7 -->
<g id="edge6_Node000006_Node000007" class="edge">
<title>Node6&#45;&gt;Node7</title>
<g id="a_edge6_Node000006_Node000007"><a xlink:title=" ">
<path fill="none" stroke="#63b8ff" d="M239.06,-111.59C234.17,-104.47 227.31,-94.45 221.32,-85.72"/>
<polygon fill="#63b8ff" stroke="#63b8ff" points="224.27,-83.82 215.73,-77.55 218.49,-87.77 224.27,-83.82"/>
</a>
</g>
</g>
<!-- Node9 -->
<g id="Node000009" class="node">
<title>Node9</title>
<g id="a_Node000009"><a xlink:href="telemetry_8h.html" target="_top" xlink:title=" ">
<polygon fill="white" stroke="#666666" points="314.5,-76 250.5,-76 250.5,-56 314.5,-56 314.5,-76"/>
<text text-anchor="middle" x="282.5" y="-62.5" font-family="Helvetica,sans-Serif" font-size="10.00">telemetry.h</text>
</a>
</g>
</g>
<!-- Node8&#45;&gt;Node9 -->
<g id="edge8_Node000008_Node000009" class="edge">
<title>Node8&#45;&gt;Node9</title>
<g id="a_edge8_Node000008_Node000009"><a xlink:title=" ">
<path fill="none" stroke="#63b8ff" d="M317.18,-111.59C311.52,-104.32 303.51,-94.02 296.61,-85.15"/>
<polygon fill="#63b8ff" stroke="#63b8ff" points="299.56,-83.24 290.66,-77.49 294.04,-87.54 299.56,-83.24"/>
</a>
</g>
</g>
<!-- Node11 -->
<g id="Node000011" class="node">
<title>Node11</title>
<g id="a_Node000011"><a xlink:title=" ">
<polygon fill="#e0e0e0" stroke="#999999" points="388.38,-76 332.62,-76 332.62,-56 388.38,-56 388.38,-76"/>
<text text-anchor="middle" x="360.5" y="-62.5" font-family="Helvetica,sans-Serif" font-size="10.00">stdbool.h</text>
</a>
</g>
</g>
<!-- Node8&#45;&gt;Node11 -->
<g id="edge11_Node000008_Node000011" class="edge">
<title>Node8&#45;&gt;Node11</title>
<g id="a_edge11_Node000008_Node000011"><a xlink:title=" ">
<path fill="none" stroke="#63b8ff" d="M330.77,-111.59C335.52,-104.47 342.2,-94.45 348.02,-85.72"/>
<polygon fill="#63b8ff" stroke="#63b8ff" points="350.83,-87.82 353.46,-77.56 345,-83.94 350.83,-87.82"/>
</a>
</g>
</g>
<!-- Node9&#45;&gt;Node4 -->
<g id="edge9_Node000009_Node000004" class="edge">
<title>Node9&#45;&gt;Node4</title>
<g id="a_edge9_Node000009_Node000004"><a xlink:title=" ">
<path fill="none" stroke="#63b8ff" d="M260.9,-55.59C241.55,-47.17 212.9,-34.69 190.82,-25.07"/>
<polygon fill="#63b8ff" stroke="#63b8ff" points="192.22,-21.87 181.66,-21.08 189.43,-28.29 192.22,-21.87"/>
</a>
</g>
</g>
<!-- Node10 -->
<g id="Node000010" class="node">
<title>Node10</title>
<g id="a_Node000010"><a xlink:title=" ">
<polygon fill="#e0e0e0" stroke="#999999" points="307.75,-20 257.25,-20 257.25,0 307.75,0 307.75,-20"/>
<text text-anchor="middle" x="282.5" y="-6.5" font-family="Helvetica,sans-Serif" font-size="10.00">queue.h</text>
</a>
</g>
</g>
<!-- Node9&#45;&gt;Node10 -->
<g id="edge10_Node000009_Node000010" class="edge">
<title>Node9&#45;&gt;Node10</title>
<g id="a_edge10_Node000009_Node000010"><a xlink:title=" ">
<path fill="none" stroke="#63b8ff" d="M282.5,-55.59C282.5,-49.01 282.5,-39.96 282.5,-31.73"/>
<polygon fill="#63b8ff" stroke="#63b8ff" points="286,-31.81 282.5,-21.81 279,-31.81 286,-31.81"/>
</a>
</g>
</g>
</g>
</svg>
