<?xml version="1.0" encoding="UTF-8" standalone="no"?>
<!DOCTYPE svg PUBLIC "-//W3C//DTD SVG 1.1//EN"
 "http://www.w3.org/Graphics/SVG/1.1/DTD/svg11.dtd">
<!-- Generated by graphviz version 12.1.2 (20240928.0832)
 -->
<!-- Title: mutator.cpp Pages: 1 -->
<svg width="200pt" height="84pt"
 viewBox="0.00 0.00 200.25 84.00" xmlns="http://www.w3.org/2000/svg" xmlns:xlink="http://www.w3.org/1999/xlink">
<g id="graph0" class="graph" transform="scale(1 1) rotate(0) translate(4 80)">
<title>mutator.cpp</title>
<!-- Node1 -->
<g id="Node000001" class="node">
<title>Node1</title>
<g id="a_Node000001"><a xlink:title=" ">
<polygon fill="#999999" stroke="#666666" points="126.12,-76 58.38,-76 58.38,-56 126.12,-56 126.12,-76"/>
<text text-anchor="middle" x="92.25" y="-62.5" font-family="Helvetica,sans-Serif" font-size="10.00">mutator.cpp</text>
</a>
</g>
</g>
<!-- Node2 -->
<g id="Node000002" class="node">
<title>Node2</title>
<g id="a_Node000002"><a xlink:title=" ">
<polygon fill="#e0e0e0" stroke="#999999" points="80.5,-20 0,-20 0,0 80.5,0 80.5,-20"/>
<text text-anchor="middle" x="40.25" y="-6.5" font-family="Helvetica,sans-Serif" font-size="10.00">command.pb.h</text>
</a>
</g>
</g>
<!-- Node1&#45;&gt;Node2 -->
<g id="edge1_Node000001_Node000002" class="edge">
<title>Node1&#45;&gt;Node2</title>
<g id="a_edge1_Node000001_Node000002"><a xlink:title=" ">
<path fill="none" stroke="#63b8ff" d="M83.19,-55.59C76.03,-48.16 65.84,-37.58 57.18,-28.58"/>
<polygon fill="#63b8ff" stroke="#63b8ff" points="59.71,-26.16 50.25,-21.39 54.67,-31.02 59.71,-26.16"/>
</a>
</g>
</g>
<!-- Node3 -->
<g id="Node000003" class="node">
<title>Node3</title>
<g id="a_Node000003"><a xlink:title=" ">
<polygon fill="#e0e0e0" stroke="#999999" points="192.25,-20 98.25,-20 98.25,0 192.25,0 192.25,-20"/>
<text text-anchor="middle" x="145.25" y="-6.5" font-family="Helvetica,sans-Serif" font-size="10.00">lpm_afl_mutator.h</text>
</a>
</g>
</g>
<!-- Node1&#45;&gt;Node3 -->
<g id="edge2_Node000001_Node000003" class="edge">
<title>Node1&#45;&gt;Node3</title>
<g id="a_edge2_Node000001_Node000003"><a xlink:title=" ">
<path fill="none" stroke="#63b8ff" d="M101.48,-55.59C108.85,-48.08 119.38,-37.35 128.27,-28.3"/>
<polygon fill="#63b8ff" stroke="#63b8ff" points="130.56,-30.97 135.06,-21.38 125.56,-26.06 130.56,-30.97"/>
</a>
</g>
</g>
</g>
</svg>
