<?xml version="1.0" encoding="UTF-8" standalone="no"?>
<!DOCTYPE svg PUBLIC "-//W3C//DTD SVG 1.1//EN"
 "http://www.w3.org/Graphics/SVG/1.1/DTD/svg11.dtd">
<!-- Generated by graphviz version 12.1.2 (20240928.0832)
 -->
<!-- Title: init_radio Pages: 1 -->
<svg width="336pt" height="165pt"
 viewBox="0.00 0.00 335.75 165.00" xmlns="http://www.w3.org/2000/svg" xmlns:xlink="http://www.w3.org/1999/xlink">

<svg id="main" version="1.1" xmlns="http://www.w3.org/2000/svg" xmlns:xlink="http://www.w3.org/1999/xlink" xml:space="preserve">

<style type="text/css"><![CDATA[
.node, .edge {opacity: 0.7;}
.node.selected, .edge.selected {opacity: 1;}
.edge:hover path { stroke: red; }
.edge:hover polygon { stroke: red; fill: red; }
]]></style>
<script type="application/ecmascript" xlink:href="svg.min.js"/>
<svg id="graph" class="graph">
<g id="graph0" class="graph" transform="scale(1 1) rotate(0) translate(4 161)">
<title>init_radio</title>
<!-- Node1 -->
<g id="Node000001" class="node">
<title>Node1</title>
<g id="a_Node000001"><a xlink:title=" ">
<polygon fill="#999999" stroke="#666666" points="55,-86 0,-86 0,-66 55,-66 55,-86"/>
<text text-anchor="middle" x="27.5" y="-72.5" font-family="Helvetica,sans-Serif" font-size="10.00">init_radio</text>
</a>
</g>
</g>
<!-- Node2 -->
<g id="Node000002" class="node">
<title>Node2</title>
<g id="a_Node000002"><a xlink:href="radio_8cpp.html#ae7b8fc4ccc09bb7acd7b803ecad3caca" target="_top" xlink:title=" ">
<polygon fill="white" stroke="#666666" points="324,-157 196.25,-157 196.25,-137 324,-137 324,-157"/>
<text text-anchor="middle" x="260.12" y="-143.5" font-family="Helvetica,sans-Serif" font-size="10.00">radio_cad_detected_RFM</text>
</a>
</g>
</g>
<!-- Node1&#45;&gt;Node2 -->
<g id="edge1_Node000001_Node000002" class="edge">
<title>Node1&#45;&gt;Node2</title>
<g id="a_edge1_Node000001_Node000002"><a xlink:title=" ">
<path fill="none" stroke="#63b8ff" d="M42.69,-86.29C54.92,-94.68 73.35,-106.21 91,-113 120.7,-124.42 154.9,-132.23 184.66,-137.45"/>
<polygon fill="#63b8ff" stroke="#63b8ff" points="183.9,-140.87 194.34,-139.08 185.06,-133.97 183.9,-140.87"/>
</a>
</g>
</g>
<!-- Node3 -->
<g id="Node000003" class="node">
<title>Node3</title>
<g id="a_Node000003"><a xlink:href="radio_8cpp.html#a9cc461d365bd6aa5037aa79b50a4ab70" target="_top" xlink:title=" ">
<polygon fill="white" stroke="#666666" points="316.88,-114 203.38,-114 203.38,-94 316.88,-94 316.88,-114"/>
<text text-anchor="middle" x="260.12" y="-100.5" font-family="Helvetica,sans-Serif" font-size="10.00">radio_general_flag_SX</text>
</a>
</g>
</g>
<!-- Node1&#45;&gt;Node3 -->
<g id="edge2_Node000001_Node000003" class="edge">
<title>Node1&#45;&gt;Node3</title>
<g id="a_edge2_Node000001_Node000003"><a xlink:title=" ">
<path fill="none" stroke="#63b8ff" d="M55.23,-85.68C66.17,-89.23 79.05,-92.9 91,-95 123.95,-100.8 161.04,-103.21 191.98,-104.11"/>
<polygon fill="#63b8ff" stroke="#63b8ff" points="191.49,-107.6 201.57,-104.34 191.66,-100.6 191.49,-107.6"/>
</a>
</g>
</g>
<!-- Node4 -->
<g id="Node000004" class="node">
<title>Node4</title>
<g id="a_Node000004"><a xlink:href="radio_8cpp.html#abb38d1447d7bbd825a1514d39e9889f3" target="_top" xlink:title="Handle hardware switches between radios.">
<polygon fill="white" stroke="#666666" points="324.75,-67 195.5,-67 195.5,-47 324.75,-47 324.75,-67"/>
<text text-anchor="middle" x="260.12" y="-53.5" font-family="Helvetica,sans-Serif" font-size="10.00">radio_hardware_switch_to</text>
</a>
</g>
</g>
<!-- Node1&#45;&gt;Node4 -->
<g id="edge3_Node000001_Node000004" class="edge">
<title>Node1&#45;&gt;Node4</title>
<g id="a_edge3_Node000001_Node000004"><a xlink:title=" ">
<path fill="none" stroke="#63b8ff" d="M55.48,-65.9C66.35,-62.33 79.11,-58.77 91,-57 121.2,-52.51 154.8,-51.69 183.97,-52.29"/>
<polygon fill="#63b8ff" stroke="#63b8ff" points="183.73,-55.78 193.82,-52.56 183.92,-48.79 183.73,-55.78"/>
</a>
</g>
</g>
<!-- Node5 -->
<g id="Node000005" class="node">
<title>Node5</title>
<g id="a_Node000005"><a xlink:href="radio_8cpp.html#a69267b1b554b36d584cbc4322534266f" target="_top" xlink:title=" ">
<polygon fill="white" stroke="#666666" points="327.75,-20 192.5,-20 192.5,0 327.75,0 327.75,-20"/>
<text text-anchor="middle" x="260.12" y="-6.5" font-family="Helvetica,sans-Serif" font-size="10.00">radio_operation_done_RFM</text>
</a>
</g>
</g>
<!-- Node1&#45;&gt;Node5 -->
<g id="edge4_Node000001_Node000005" class="edge">
<title>Node1&#45;&gt;Node5</title>
<g id="a_edge4_Node000001_Node000005"><a xlink:title=" ">
<path fill="none" stroke="#63b8ff" d="M48.92,-65.61C60.94,-59.81 76.56,-52.81 91,-48 122.48,-37.51 158.23,-28.98 188.65,-22.67"/>
<polygon fill="#63b8ff" stroke="#63b8ff" points="189.01,-26.17 198.11,-20.75 187.61,-19.31 189.01,-26.17"/>
</a>
</g>
</g>
<!-- Node6 -->
<g id="Node000006" class="node">
<title>Node6</title>
<g id="a_Node000006"><a xlink:href="radio_8cpp.html#a39fef0e9987217c6be69bcc9ca1af791" target="_top" xlink:title=" ">
<polygon fill="white" stroke="#666666" points="156.5,-86 91,-86 91,-66 156.5,-66 156.5,-86"/>
<text text-anchor="middle" x="123.75" y="-72.5" font-family="Helvetica,sans-Serif" font-size="10.00">radio_panic</text>
</a>
</g>
</g>
<!-- Node1&#45;&gt;Node6 -->
<g id="edge5_Node000001_Node000006" class="edge">
<title>Node1&#45;&gt;Node6</title>
<g id="a_edge5_Node000001_Node000006"><a xlink:title=" ">
<path fill="none" stroke="#63b8ff" d="M55.26,-76C62.73,-76 71.05,-76 79.22,-76"/>
<polygon fill="#63b8ff" stroke="#63b8ff" points="79.06,-79.5 89.06,-76 79.06,-72.5 79.06,-79.5"/>
</a>
</g>
</g>
<!-- Node6&#45;&gt;Node2 -->
<g id="edge6_Node000006_Node000002" class="edge">
<title>Node6&#45;&gt;Node2</title>
<g id="a_edge6_Node000006_Node000002"><a xlink:title=" ">
<path fill="none" stroke="#63b8ff" d="M137.6,-86.44C150.77,-96.77 172.14,-112.5 192.5,-123 199.33,-126.52 206.79,-129.75 214.17,-132.63"/>
<polygon fill="#63b8ff" stroke="#63b8ff" points="212.84,-135.86 223.43,-136.05 215.26,-129.3 212.84,-135.86"/>
</a>
</g>
</g>
<!-- Node6&#45;&gt;Node3 -->
<g id="edge7_Node000006_Node000003" class="edge">
<title>Node6&#45;&gt;Node3</title>
<g id="a_edge7_Node000006_Node000003"><a xlink:title=" ">
<path fill="none" stroke="#63b8ff" d="M156.94,-82.71C169.19,-85.26 183.6,-88.26 197.67,-91.19"/>
<polygon fill="#63b8ff" stroke="#63b8ff" points="196.85,-94.6 207.35,-93.21 198.27,-87.75 196.85,-94.6"/>
</a>
</g>
</g>
<!-- Node6&#45;&gt;Node4 -->
<g id="edge8_Node000006_Node000004" class="edge">
<title>Node6&#45;&gt;Node4</title>
<g id="a_edge8_Node000006_Node000004"><a xlink:title=" ">
<path fill="none" stroke="#63b8ff" d="M156.94,-71.45C165.2,-70.28 174.43,-68.97 183.89,-67.64"/>
<polygon fill="#63b8ff" stroke="#63b8ff" points="184.13,-71.14 193.54,-66.27 183.15,-64.21 184.13,-71.14"/>
</a>
</g>
</g>
<!-- Node6&#45;&gt;Node5 -->
<g id="edge9_Node000006_Node000005" class="edge">
<title>Node6&#45;&gt;Node5</title>
<g id="a_edge9_Node000006_Node000005"><a xlink:title=" ">
<path fill="none" stroke="#63b8ff" d="M142.01,-65.6C155.53,-57.64 174.93,-46.58 192.5,-38 201.84,-33.44 212.11,-28.9 221.73,-24.84"/>
<polygon fill="#63b8ff" stroke="#63b8ff" points="222.93,-28.13 230.83,-21.07 220.25,-21.66 222.93,-28.13"/>
</a>
</g>
</g>
</g>
</svg>
</svg>

<style type='text/css'>
<![CDATA[
[data-mouse-over-selected='false'] { opacity: 0.7; }
[data-mouse-over-selected='true']  { opacity: 1.0; }
]]>
</style>
<script type="application/ecmascript"><![CDATA[
document.addEventListener('DOMContentLoaded', (event) => {
  highlightEdges();
  highlightAdjacentNodes();
});
]]></script>
</svg>
