<?xml version="1.0" encoding="UTF-8" standalone="no"?>
<!DOCTYPE svg PUBLIC "-//W3C//DTD SVG 1.1//EN"
 "http://www.w3.org/Graphics/SVG/1.1/DTD/svg11.dtd">
<!-- Generated by graphviz version 12.1.2 (20240928.0832)
 -->
<!-- Title: radio.cpp Pages: 1 -->
<!--zoomable 252 -->

<svg id="main" version="1.1" xmlns="http://www.w3.org/2000/svg" xmlns:xlink="http://www.w3.org/1999/xlink" xml:space="preserve" onload="init(evt)">

<style type="text/css"><![CDATA[
.node, .edge {opacity: 0.7;}
.node.selected, .edge.selected {opacity: 1;}
.edge:hover path { stroke: red; }
.edge:hover polygon { stroke: red; fill: red; }
]]></style>

<defs>
  <circle id="rim" cx="0" cy="0" r="7"/>
  <circle id="rim2" cx="0" cy="0" r="3.5"/>
  <g id="zoomPlus">
    <use xlink:href="#rim" fill="#404040"><set attributeName="fill" to="#808080" begin="zoomplus.mouseover" end="zoomplus.mouseout"/></use>
    <path d="M-4,0h8M0,-4v8" fill="none" stroke="white" stroke-width="1.5" pointer-events="none"/>
  </g>
  <g id="zoomMin">
    <use xlink:href="#rim" fill="#404040"><set attributeName="fill" to="#808080" begin="zoomminus.mouseover" end="zoomminus.mouseout"/></use>
    <path d="M-4,0h8" fill="none" stroke="white" stroke-width="1.5" pointer-events="none"/>
  </g>
  <g id="arrowUp" transform="translate(30 24)">
    <use xlink:href="#rim"/>
    <path pointer-events="none" fill="none" stroke="white" stroke-width="1.5" d="M0,-3.0v7 M-2.5,-0.5L0,-3.0L2.5,-0.5"/>
  </g>
  <g id="arrowRight" transform="rotate(90) translate(36 -43)">
    <use xlink:href="#rim"/>
    <path pointer-events="none" fill="none" stroke="white" stroke-width="1.5" d="M0,-3.0v7 M-2.5,-0.5L0,-3.0L2.5,-0.5"/>
  </g>
  <g id="arrowDown" transform="rotate(180) translate(-30 -48)">
    <use xlink:href="#rim"/>
    <path pointer-events="none" fill="none" stroke="white" stroke-width="1.5" d="M0,-3.0v7 M-2.5,-0.5L0,-3.0L2.5,-0.5"/>
  </g>
  <g id="arrowLeft" transform="rotate(270) translate(-36 17)">
    <use xlink:href="#rim"/>
    <path pointer-events="none" fill="none" stroke="white" stroke-width="1.5" d="M0,-3.0v7 M-2.5,-0.5L0,-3.0L2.5,-0.5"/>
  </g>
  <g id="resetDef">
    <use xlink:href="#rim2" fill="#404040"><set attributeName="fill" to="#808080" begin="reset.mouseover" end="reset.mouseout"/></use>
  </g>
</defs>
<script type="application/ecmascript">
var viewWidth = 917;
var viewHeight = 252;
var sectionId = 'dynsection-0';
</script>
<script type="application/ecmascript" xlink:href="svg.min.js"/>
<svg id="graph" class="graph">
<g id="viewport">
<title>radio.cpp</title>
<!-- Node1 -->
<g id="Node000001" class="node">
<title>Node1</title>
<g id="a_Node000001"><a xlink:title=" ">
<polygon fill="#999999" stroke="#666666" points="545.12,-244 489.38,-244 489.38,-224 545.12,-224 545.12,-244"/>
<text text-anchor="middle" x="517.25" y="-230.5" font-family="Helvetica,sans-Serif" font-size="10.00">radio.cpp</text>
</a>
</g>
</g>
<!-- Node2 -->
<g id="Node000002" class="node">
<title>Node2</title>
<g id="a_Node000002"><a xlink:title=" ">
<polygon fill="#e0e0e0" stroke="#999999" points="62.5,-132 0,-132 0,-112 62.5,-112 62.5,-132"/>
<text text-anchor="middle" x="31.25" y="-118.5" font-family="Helvetica,sans-Serif" font-size="10.00">RadioLib.h</text>
</a>
</g>
</g>
<!-- Node1&#45;&gt;Node2 -->
<g id="edge1_Node000001_Node000002" class="edge">
<title>Node1&#45;&gt;Node2</title>
<g id="a_edge1_Node000001_Node000002"><a xlink:title=" ">
<path fill="none" stroke="#63b8ff" d="M489.24,-231.34C432.8,-227.5 301.67,-216.09 195.25,-188 146.56,-175.15 92.77,-151.99 60.51,-137.07"/>
<polygon fill="#63b8ff" stroke="#63b8ff" points="62.34,-134.06 51.8,-132.99 59.37,-140.4 62.34,-134.06"/>
</a>
</g>
</g>
<!-- Node3 -->
<g id="Node000003" class="node">
<title>Node3</title>
<g id="a_Node000003"><a xlink:href="tasks_2radio_2radio_8h.html" target="_top" xlink:title=" ">
<polygon fill="white" stroke="#666666" points="608.88,-76 563.62,-76 563.62,-56 608.88,-56 608.88,-76"/>
<text text-anchor="middle" x="586.25" y="-62.5" font-family="Helvetica,sans-Serif" font-size="10.00">radio.h</text>
</a>
</g>
</g>
<!-- Node1&#45;&gt;Node3 -->
<g id="edge2_Node000001_Node000003" class="edge">
<title>Node1&#45;&gt;Node3</title>
<g id="a_edge2_Node000001_Node000003"><a xlink:title=" ">
<path fill="none" stroke="#63b8ff" d="M521.16,-223.6C532.07,-197.35 563.04,-122.84 577.98,-86.89"/>
<polygon fill="#63b8ff" stroke="#63b8ff" points="581.2,-88.27 581.8,-77.7 574.73,-85.59 581.2,-88.27"/>
</a>
</g>
</g>
<!-- Node4 -->
<g id="Node000004" class="node">
<title>Node4</title>
<g id="a_Node000004"><a xlink:title=" ">
<polygon fill="#e0e0e0" stroke="#999999" points="445.62,-20 374.88,-20 374.88,0 445.62,0 445.62,-20"/>
<text text-anchor="middle" x="410.25" y="-6.5" font-family="Helvetica,sans-Serif" font-size="10.00">FreeRTOS.h</text>
</a>
</g>
</g>
<!-- Node1&#45;&gt;Node4 -->
<g id="edge6_Node000001_Node000004" class="edge">
<title>Node1&#45;&gt;Node4</title>
<g id="a_edge6_Node000001_Node000004"><a xlink:title=" ">
<path fill="none" stroke="#63b8ff" d="M511.75,-223.66C497.74,-199.67 460.02,-133.71 434.25,-76 427.64,-61.2 421.34,-43.97 416.85,-30.97"/>
<polygon fill="#63b8ff" stroke="#63b8ff" points="420.29,-30.2 413.77,-21.85 413.66,-32.44 420.29,-30.2"/>
</a>
</g>
</g>
<!-- Node7 -->
<g id="Node000007" class="node">
<title>Node7</title>
<g id="a_Node000007"><a xlink:href="_pico_hal_8h.html" target="_top" xlink:title=" ">
<polygon fill="white" stroke="#666666" points="315.62,-188 256.88,-188 256.88,-168 315.62,-168 315.62,-188"/>
<text text-anchor="middle" x="286.25" y="-174.5" font-family="Helvetica,sans-Serif" font-size="10.00">PicoHal.h</text>
</a>
</g>
</g>
<!-- Node1&#45;&gt;Node7 -->
<g id="edge7_Node000001_Node000007" class="edge">
<title>Node1&#45;&gt;Node7</title>
<g id="a_edge7_Node000001_Node000007"><a xlink:title=" ">
<path fill="none" stroke="#63b8ff" d="M488.92,-226.38C448.39,-216.9 373.59,-199.42 327.08,-188.54"/>
<polygon fill="#63b8ff" stroke="#63b8ff" points="327.91,-185.14 317.38,-186.28 326.32,-191.96 327.91,-185.14"/>
</a>
</g>
</g>
<!-- Node8 -->
<g id="Node000008" class="node">
<title>Node8</title>
<g id="a_Node000008"><a xlink:href="stdlib_8h.html" target="_top" xlink:title=" ">
<polygon fill="white" stroke="#666666" points="149.5,-132 81,-132 81,-112 149.5,-112 149.5,-132"/>
<text text-anchor="middle" x="115.25" y="-118.5" font-family="Helvetica,sans-Serif" font-size="10.00">pico/stdlib.h</text>
</a>
</g>
</g>
<!-- Node1&#45;&gt;Node8 -->
<g id="edge13_Node000001_Node000008" class="edge">
<title>Node1&#45;&gt;Node8</title>
<g id="a_edge13_Node000001_Node000008"><a xlink:title=" ">
<path fill="none" stroke="#63b8ff" d="M489.13,-230.98C439.48,-226.83 333.47,-215.31 248.25,-188 208.89,-175.38 166.49,-152.96 140.4,-138.04"/>
<polygon fill="#63b8ff" stroke="#63b8ff" points="142.31,-135.1 131.91,-133.1 138.8,-141.15 142.31,-135.1"/>
</a>
</g>
</g>
<!-- Node12 -->
<g id="Node000012" class="node">
<title>Node12</title>
<g id="a_Node000012"><a xlink:href="log_8h.html" target="_top" xlink:title=" ">
<polygon fill="white" stroke="#666666" points="535.75,-132 498.75,-132 498.75,-112 535.75,-112 535.75,-132"/>
<text text-anchor="middle" x="517.25" y="-118.5" font-family="Helvetica,sans-Serif" font-size="10.00">log.h</text>
</a>
</g>
</g>
<!-- Node1&#45;&gt;Node12 -->
<g id="edge14_Node000001_Node000012" class="edge">
<title>Node1&#45;&gt;Node12</title>
<g id="a_edge14_Node000001_Node000012"><a xlink:title=" ">
<path fill="none" stroke="#63b8ff" d="M517.25,-223.62C517.25,-206.01 517.25,-167.59 517.25,-143.65"/>
<polygon fill="#63b8ff" stroke="#63b8ff" points="520.75,-143.87 517.25,-133.87 513.75,-143.87 520.75,-143.87"/>
</a>
</g>
</g>
<!-- Node15 -->
<g id="Node000015" class="node">
<title>Node15</title>
<g id="a_Node000015"><a xlink:href="gse_8h.html" target="_top" xlink:title=" ">
<polygon fill="white" stroke="#666666" points="830.25,-188 790.25,-188 790.25,-168 830.25,-168 830.25,-188"/>
<text text-anchor="middle" x="810.25" y="-174.5" font-family="Helvetica,sans-Serif" font-size="10.00">gse.h</text>
</a>
</g>
</g>
<!-- Node1&#45;&gt;Node15 -->
<g id="edge19_Node000001_Node000015" class="edge">
<title>Node1&#45;&gt;Node15</title>
<g id="a_edge19_Node000001_Node000015"><a xlink:title=" ">
<path fill="none" stroke="#63b8ff" d="M545.38,-228.93C593.11,-221.84 692.88,-206.24 776.25,-188 777.08,-187.82 777.92,-187.63 778.76,-187.44"/>
<polygon fill="#63b8ff" stroke="#63b8ff" points="779.48,-190.86 788.35,-185.08 777.81,-184.07 779.48,-190.86"/>
</a>
</g>
</g>
<!-- Node16 -->
<g id="Node000016" class="node">
<title>Node16</title>
<g id="a_Node000016"><a xlink:title=" ">
<polygon fill="#e0e0e0" stroke="#999999" points="909.12,-132 829.38,-132 829.38,-112 909.12,-112 909.12,-132"/>
<text text-anchor="middle" x="869.25" y="-118.5" font-family="Helvetica,sans-Serif" font-size="10.00">spacepacket.h</text>
</a>
</g>
</g>
<!-- Node1&#45;&gt;Node16 -->
<g id="edge20_Node000001_Node000016" class="edge">
<title>Node1&#45;&gt;Node16</title>
<g id="a_edge20_Node000001_Node000016"><a xlink:title=" ">
<path fill="none" stroke="#63b8ff" d="M545.42,-230.03C588.88,-224.87 674.43,-212.38 743.25,-188 761.24,-181.63 764.31,-176.79 781.25,-168 801.05,-157.73 823.44,-146.28 840.68,-137.5"/>
<polygon fill="#63b8ff" stroke="#63b8ff" points="842,-140.76 849.33,-133.1 838.83,-134.52 842,-140.76"/>
</a>
</g>
</g>
<!-- Node17 -->
<g id="Node000017" class="node">
<title>Node17</title>
<g id="a_Node000017"><a xlink:href="command_8h.html" target="_top" xlink:title=" ">
<polygon fill="white" stroke="#666666" points="733.75,-188 666.75,-188 666.75,-168 733.75,-168 733.75,-188"/>
<text text-anchor="middle" x="700.25" y="-174.5" font-family="Helvetica,sans-Serif" font-size="10.00">command.h</text>
</a>
</g>
</g>
<!-- Node1&#45;&gt;Node17 -->
<g id="edge21_Node000001_Node000017" class="edge">
<title>Node1&#45;&gt;Node17</title>
<g id="a_edge21_Node000001_Node000017"><a xlink:title=" ">
<path fill="none" stroke="#63b8ff" d="M545.44,-224.68C575.39,-215.84 623.08,-201.77 657.62,-191.58"/>
<polygon fill="#63b8ff" stroke="#63b8ff" points="658.28,-195.03 666.88,-188.85 656.3,-188.32 658.28,-195.03"/>
</a>
</g>
</g>
<!-- Node3&#45;&gt;Node4 -->
<g id="edge3_Node000003_Node000004" class="edge">
<title>Node3&#45;&gt;Node4</title>
<g id="a_edge3_Node000003_Node000004"><a xlink:title=" ">
<path fill="none" stroke="#63b8ff" d="M563.24,-57.94C534.99,-49.27 486.55,-34.41 451.74,-23.73"/>
<polygon fill="#63b8ff" stroke="#63b8ff" points="452.99,-20.45 442.4,-20.87 450.94,-27.14 452.99,-20.45"/>
</a>
</g>
</g>
<!-- Node5 -->
<g id="Node000005" class="node">
<title>Node5</title>
<g id="a_Node000005"><a xlink:title=" ">
<polygon fill="#e0e0e0" stroke="#999999" points="514.5,-20 464,-20 464,0 514.5,0 514.5,-20"/>
<text text-anchor="middle" x="489.25" y="-6.5" font-family="Helvetica,sans-Serif" font-size="10.00">queue.h</text>
</a>
</g>
</g>
<!-- Node3&#45;&gt;Node5 -->
<g id="edge4_Node000003_Node000005" class="edge">
<title>Node3&#45;&gt;Node5</title>
<g id="a_edge4_Node000003_Node000005"><a xlink:title=" ">
<path fill="none" stroke="#63b8ff" d="M569.35,-55.59C554.7,-47.44 533.23,-35.48 516.2,-26"/>
<polygon fill="#63b8ff" stroke="#63b8ff" points="518.04,-23.02 507.6,-21.22 514.64,-29.14 518.04,-23.02"/>
</a>
</g>
</g>
<!-- Node6 -->
<g id="Node000006" class="node">
<title>Node6</title>
<g id="a_Node000006"><a xlink:title=" ">
<polygon fill="#e0e0e0" stroke="#999999" points="906.38,-20 858.12,-20 858.12,0 906.38,0 906.38,-20"/>
<text text-anchor="middle" x="882.25" y="-6.5" font-family="Helvetica,sans-Serif" font-size="10.00">stdint.h</text>
</a>
</g>
</g>
<!-- Node3&#45;&gt;Node6 -->
<g id="edge5_Node000003_Node000006" class="edge">
<title>Node3&#45;&gt;Node6</title>
<g id="a_edge5_Node000003_Node000006"><a xlink:title=" ">
<path fill="none" stroke="#63b8ff" d="M609.26,-61.83C653.42,-55.58 753.29,-40.67 846.74,-20.38"/>
<polygon fill="#63b8ff" stroke="#63b8ff" points="847.31,-23.84 856.33,-18.27 845.81,-17 847.31,-23.84"/>
</a>
</g>
</g>
<!-- Node7&#45;&gt;Node2 -->
<g id="edge8_Node000007_Node000002" class="edge">
<title>Node7&#45;&gt;Node2</title>
<g id="a_edge8_Node000007_Node000002"><a xlink:title=" ">
<path fill="none" stroke="#63b8ff" d="M256.46,-170.82C217.12,-162.65 145.4,-147.67 73.63,-132.28"/>
<polygon fill="#63b8ff" stroke="#63b8ff" points="74.57,-128.9 64.06,-130.23 73.1,-135.75 74.57,-128.9"/>
</a>
</g>
</g>
<!-- Node7&#45;&gt;Node8 -->
<g id="edge9_Node000007_Node000008" class="edge">
<title>Node7&#45;&gt;Node8</title>
<g id="a_edge9_Node000007_Node000008"><a xlink:title=" ">
<path fill="none" stroke="#63b8ff" d="M256.46,-167.59C228.68,-158.82 187,-145.66 156.11,-135.9"/>
<polygon fill="#63b8ff" stroke="#63b8ff" points="157.3,-132.61 146.71,-132.94 155.19,-139.28 157.3,-132.61"/>
</a>
</g>
</g>
<!-- Node9 -->
<g id="Node000009" class="node">
<title>Node9</title>
<g id="a_Node000009"><a xlink:href="spi_8h.html" target="_top" xlink:title=" ">
<polygon fill="white" stroke="#666666" points="247.12,-132 167.38,-132 167.38,-112 247.12,-112 247.12,-132"/>
<text text-anchor="middle" x="207.25" y="-118.5" font-family="Helvetica,sans-Serif" font-size="10.00">hardware/spi.h</text>
</a>
</g>
</g>
<!-- Node7&#45;&gt;Node9 -->
<g id="edge10_Node000007_Node000009" class="edge">
<title>Node7&#45;&gt;Node9</title>
<g id="a_edge10_Node000007_Node000009"><a xlink:title=" ">
<path fill="none" stroke="#63b8ff" d="M272.49,-167.59C260.89,-159.67 244.05,-148.16 230.39,-138.82"/>
<polygon fill="#63b8ff" stroke="#63b8ff" points="232.6,-136.09 222.37,-133.33 228.65,-141.87 232.6,-136.09"/>
</a>
</g>
</g>
<!-- Node10 -->
<g id="Node000010" class="node">
<title>Node10</title>
<g id="a_Node000010"><a xlink:title=" ">
<polygon fill="#e0e0e0" stroke="#999999" points="353.62,-132 264.88,-132 264.88,-112 353.62,-112 353.62,-132"/>
<text text-anchor="middle" x="309.25" y="-118.5" font-family="Helvetica,sans-Serif" font-size="10.00">hardware/timer.h</text>
</a>
</g>
</g>
<!-- Node7&#45;&gt;Node10 -->
<g id="edge11_Node000007_Node000010" class="edge">
<title>Node7&#45;&gt;Node10</title>
<g id="a_edge11_Node000007_Node000010"><a xlink:title=" ">
<path fill="none" stroke="#63b8ff" d="M290.26,-167.59C293.16,-160.78 297.19,-151.32 300.79,-142.86"/>
<polygon fill="#63b8ff" stroke="#63b8ff" points="304,-144.26 304.7,-133.69 297.56,-141.52 304,-144.26"/>
</a>
</g>
</g>
<!-- Node11 -->
<g id="Node000011" class="node">
<title>Node11</title>
<g id="a_Node000011"><a xlink:title=" ">
<polygon fill="#e0e0e0" stroke="#999999" points="406.62,-132 371.88,-132 371.88,-112 406.62,-112 406.62,-132"/>
<text text-anchor="middle" x="389.25" y="-118.5" font-family="Helvetica,sans-Serif" font-size="10.00">map</text>
</a>
</g>
</g>
<!-- Node7&#45;&gt;Node11 -->
<g id="edge12_Node000007_Node000011" class="edge">
<title>Node7&#45;&gt;Node11</title>
<g id="a_edge12_Node000007_Node000011"><a xlink:title=" ">
<path fill="none" stroke="#63b8ff" d="M304.19,-167.59C319.99,-159.31 343.27,-147.11 361.47,-137.56"/>
<polygon fill="#63b8ff" stroke="#63b8ff" points="362.94,-140.74 370.17,-133 359.69,-134.54 362.94,-140.74"/>
</a>
</g>
</g>
<!-- Node13 -->
<g id="Node000013" class="node">
<title>Node13</title>
<g id="a_Node000013"><a xlink:href="telemetry_8h.html" target="_top" xlink:title=" ">
<polygon fill="white" stroke="#666666" points="507.25,-76 443.25,-76 443.25,-56 507.25,-56 507.25,-76"/>
<text text-anchor="middle" x="475.25" y="-62.5" font-family="Helvetica,sans-Serif" font-size="10.00">telemetry.h</text>
</a>
</g>
</g>
<!-- Node12&#45;&gt;Node13 -->
<g id="edge15_Node000012_Node000013" class="edge">
<title>Node12&#45;&gt;Node13</title>
<g id="a_edge15_Node000012_Node000013"><a xlink:title=" ">
<path fill="none" stroke="#63b8ff" d="M509.93,-111.59C504.27,-104.32 496.26,-94.02 489.36,-85.15"/>
<polygon fill="#63b8ff" stroke="#63b8ff" points="492.31,-83.24 483.41,-77.49 486.79,-87.54 492.31,-83.24"/>
</a>
</g>
</g>
<!-- Node14 -->
<g id="Node000014" class="node">
<title>Node14</title>
<g id="a_Node000014"><a xlink:title=" ">
<polygon fill="#e0e0e0" stroke="#999999" points="588.12,-20 532.38,-20 532.38,0 588.12,0 588.12,-20"/>
<text text-anchor="middle" x="560.25" y="-6.5" font-family="Helvetica,sans-Serif" font-size="10.00">stdbool.h</text>
</a>
</g>
</g>
<!-- Node12&#45;&gt;Node14 -->
<g id="edge18_Node000012_Node000014" class="edge">
<title>Node12&#45;&gt;Node14</title>
<g id="a_edge18_Node000012_Node000014"><a xlink:title=" ">
<path fill="none" stroke="#63b8ff" d="M520.92,-111.62C527.87,-93.84 543.1,-54.88 552.43,-31"/>
<polygon fill="#63b8ff" stroke="#63b8ff" points="555.66,-32.35 556.04,-21.76 549.14,-29.8 555.66,-32.35"/>
</a>
</g>
</g>
<!-- Node13&#45;&gt;Node4 -->
<g id="edge16_Node000013_Node000004" class="edge">
<title>Node13&#45;&gt;Node4</title>
<g id="a_edge16_Node000013_Node000004"><a xlink:title=" ">
<path fill="none" stroke="#63b8ff" d="M463.93,-55.59C454.61,-47.85 441.17,-36.69 430.07,-27.47"/>
<polygon fill="#63b8ff" stroke="#63b8ff" points="432.54,-24.96 422.61,-21.27 428.06,-30.35 432.54,-24.96"/>
</a>
</g>
</g>
<!-- Node13&#45;&gt;Node5 -->
<g id="edge17_Node000013_Node000005" class="edge">
<title>Node13&#45;&gt;Node5</title>
<g id="a_edge17_Node000013_Node000005"><a xlink:title=" ">
<path fill="none" stroke="#63b8ff" d="M477.69,-55.59C479.42,-48.93 481.8,-39.75 483.95,-31.44"/>
<polygon fill="#63b8ff" stroke="#63b8ff" points="487.34,-32.32 486.46,-21.76 480.56,-30.56 487.34,-32.32"/>
</a>
</g>
</g>
<!-- Node17&#45;&gt;Node6 -->
<g id="edge22_Node000017_Node000006" class="edge">
<title>Node17&#45;&gt;Node6</title>
<g id="a_edge22_Node000017_Node000006"><a xlink:title=" ">
<path fill="none" stroke="#63b8ff" d="M710.56,-167.6C740.21,-140.55 826.05,-62.26 863.93,-27.71"/>
<polygon fill="#63b8ff" stroke="#63b8ff" points="865.91,-30.64 870.94,-21.32 861.19,-25.47 865.91,-30.64"/>
</a>
</g>
</g>
<!-- Node17&#45;&gt;Node16 -->
<g id="edge23_Node000017_Node000016" class="edge">
<title>Node17&#45;&gt;Node16</title>
<g id="a_edge23_Node000017_Node000016"><a xlink:title=" ">
<path fill="none" stroke="#63b8ff" d="M729.69,-167.59C757.15,-158.82 798.34,-145.66 828.87,-135.9"/>
<polygon fill="#63b8ff" stroke="#63b8ff" points="829.68,-139.32 838.14,-132.94 827.55,-132.65 829.68,-139.32"/>
</a>
</g>
</g>
<!-- Node18 -->
<g id="Node000018" class="node">
<title>Node18</title>
<g id="a_Node000018"><a xlink:href="user__auth_8h.html" target="_top" xlink:title=" ">
<polygon fill="white" stroke="#666666" points="733.75,-132 666.75,-132 666.75,-112 733.75,-112 733.75,-132"/>
<text text-anchor="middle" x="700.25" y="-118.5" font-family="Helvetica,sans-Serif" font-size="10.00">user_auth.h</text>
</a>
</g>
</g>
<!-- Node17&#45;&gt;Node18 -->
<g id="edge24_Node000017_Node000018" class="edge">
<title>Node17&#45;&gt;Node18</title>
<g id="a_edge24_Node000017_Node000018"><a xlink:title=" ">
<path fill="none" stroke="#63b8ff" d="M700.25,-167.59C700.25,-161.01 700.25,-151.96 700.25,-143.73"/>
<polygon fill="#63b8ff" stroke="#63b8ff" points="703.75,-143.81 700.25,-133.81 696.75,-143.81 703.75,-143.81"/>
</a>
</g>
</g>
<!-- Node18&#45;&gt;Node6 -->
<g id="edge26_Node000018_Node000006" class="edge">
<title>Node18&#45;&gt;Node6</title>
<g id="a_edge26_Node000018_Node000006"><a xlink:title=" ">
<path fill="none" stroke="#63b8ff" d="M711.28,-111.62C727.32,-98.25 758.34,-73.41 787.25,-56 806.85,-44.2 830.04,-33.16 848.61,-24.97"/>
<polygon fill="#63b8ff" stroke="#63b8ff" points="849.76,-28.28 857.55,-21.09 846.98,-21.86 849.76,-28.28"/>
</a>
</g>
</g>
<!-- Node18&#45;&gt;Node14 -->
<g id="edge25_Node000018_Node000014" class="edge">
<title>Node18&#45;&gt;Node14</title>
<g id="a_edge25_Node000018_Node000014"><a xlink:title=" ">
<path fill="none" stroke="#63b8ff" d="M688.6,-111.7C672.73,-99.05 643.41,-75.73 618.25,-56 605.99,-46.39 592.22,-35.7 581.18,-27.15"/>
<polygon fill="#63b8ff" stroke="#63b8ff" points="583.53,-24.54 573.47,-21.2 579.24,-30.08 583.53,-24.54"/>
</a>
</g>
</g>
<!-- Node19 -->
<g id="Node000019" class="node">
<title>Node19</title>
<g id="a_Node000019"><a xlink:href="filesystem_8h.html" target="_top" xlink:title=" ">
<polygon fill="white" stroke="#666666" points="734.88,-76 665.62,-76 665.62,-56 734.88,-56 734.88,-76"/>
<text text-anchor="middle" x="700.25" y="-62.5" font-family="Helvetica,sans-Serif" font-size="10.00">filesystem.h</text>
</a>
</g>
</g>
<!-- Node18&#45;&gt;Node19 -->
<g id="edge27_Node000018_Node000019" class="edge">
<title>Node18&#45;&gt;Node19</title>
<g id="a_edge27_Node000018_Node000019"><a xlink:title=" ">
<path fill="none" stroke="#63b8ff" d="M700.25,-111.59C700.25,-105.01 700.25,-95.96 700.25,-87.73"/>
<polygon fill="#63b8ff" stroke="#63b8ff" points="703.75,-87.81 700.25,-77.81 696.75,-87.81 703.75,-87.81"/>
</a>
</g>
</g>
<!-- Node19&#45;&gt;Node4 -->
<g id="edge28_Node000019_Node000004" class="edge">
<title>Node19&#45;&gt;Node4</title>
<g id="a_edge28_Node000019_Node000004"><a xlink:title=" ">
<path fill="none" stroke="#63b8ff" d="M665.33,-58.76C619.81,-50.6 537.47,-35.69 456.93,-20.3"/>
<polygon fill="#63b8ff" stroke="#63b8ff" points="458.07,-16.95 447.59,-18.51 456.75,-23.83 458.07,-16.95"/>
</a>
</g>
</g>
<!-- Node19&#45;&gt;Node5 -->
<g id="edge29_Node000019_Node000005" class="edge">
<title>Node19&#45;&gt;Node5</title>
<g id="a_edge29_Node000019_Node000005"><a xlink:title=" ">
<path fill="none" stroke="#63b8ff" d="M665.3,-56.22C631.88,-47.8 579.78,-34.62 526,-20.7"/>
<polygon fill="#63b8ff" stroke="#63b8ff" points="526.89,-17.31 516.33,-18.19 525.13,-24.09 526.89,-17.31"/>
</a>
</g>
</g>
<!-- Node19&#45;&gt;Node6 -->
<g id="edge34_Node000019_Node000006" class="edge">
<title>Node19&#45;&gt;Node6</title>
<g id="a_edge34_Node000019_Node000006"><a xlink:title=" ">
<path fill="none" stroke="#63b8ff" d="M731.95,-55.59C764.16,-46.04 813.92,-31.27 847.26,-21.38"/>
<polygon fill="#63b8ff" stroke="#63b8ff" points="847.85,-24.86 856.44,-18.66 845.86,-18.15 847.85,-24.86"/>
</a>
</g>
</g>
<!-- Node19&#45;&gt;Node14 -->
<g id="edge35_Node000019_Node000014" class="edge">
<title>Node19&#45;&gt;Node14</title>
<g id="a_edge35_Node000019_Node000014"><a xlink:title=" ">
<path fill="none" stroke="#63b8ff" d="M675.86,-55.59C653.62,-47.01 620.48,-34.23 595.38,-24.55"/>
<polygon fill="#63b8ff" stroke="#63b8ff" points="596.83,-21.36 586.24,-21.02 594.31,-27.89 596.83,-21.36"/>
</a>
</g>
</g>
<!-- Node20 -->
<g id="Node000020" class="node">
<title>Node20</title>
<g id="a_Node000020"><a xlink:title=" ">
<polygon fill="#e0e0e0" stroke="#999999" points="792.75,-20 749.75,-20 749.75,0 792.75,0 792.75,-20"/>
<text text-anchor="middle" x="771.25" y="-6.5" font-family="Helvetica,sans-Serif" font-size="10.00">task.h</text>
</a>
</g>
</g>
<!-- Node19&#45;&gt;Node20 -->
<g id="edge30_Node000019_Node000020" class="edge">
<title>Node19&#45;&gt;Node20</title>
<g id="a_edge30_Node000019_Node000020"><a xlink:title=" ">
<path fill="none" stroke="#63b8ff" d="M712.62,-55.59C722.9,-47.77 737.77,-36.46 749.96,-27.19"/>
<polygon fill="#63b8ff" stroke="#63b8ff" points="751.98,-30.05 757.82,-21.21 747.74,-24.48 751.98,-30.05"/>
</a>
</g>
</g>
<!-- Node21 -->
<g id="Node000021" class="node">
<title>Node21</title>
<g id="a_Node000021"><a xlink:title=" ">
<polygon fill="#e0e0e0" stroke="#999999" points="840,-20 810.5,-20 810.5,0 840,0 840,-20"/>
<text text-anchor="middle" x="825.25" y="-6.5" font-family="Helvetica,sans-Serif" font-size="10.00">ff.h</text>
</a>
</g>
</g>
<!-- Node19&#45;&gt;Node21 -->
<g id="edge31_Node000019_Node000021" class="edge">
<title>Node19&#45;&gt;Node21</title>
<g id="a_edge31_Node000019_Node000021"><a xlink:title=" ">
<path fill="none" stroke="#63b8ff" d="M722.02,-55.59C743.66,-46.25 776.84,-31.91 799.71,-22.03"/>
<polygon fill="#63b8ff" stroke="#63b8ff" points="800.83,-25.36 808.63,-18.18 798.06,-18.93 800.83,-25.36"/>
</a>
</g>
</g>
<!-- Node22 -->
<g id="Node000022" class="node">
<title>Node22</title>
<g id="a_Node000022"><a xlink:title=" ">
<polygon fill="#e0e0e0" stroke="#999999" points="662.5,-20 606,-20 606,0 662.5,0 662.5,-20"/>
<text text-anchor="middle" x="634.25" y="-6.5" font-family="Helvetica,sans-Serif" font-size="10.00">semphr.h</text>
</a>
</g>
</g>
<!-- Node19&#45;&gt;Node22 -->
<g id="edge32_Node000019_Node000022" class="edge">
<title>Node19&#45;&gt;Node22</title>
<g id="a_edge32_Node000019_Node000022"><a xlink:title=" ">
<path fill="none" stroke="#63b8ff" d="M688.75,-55.59C679.29,-47.85 665.65,-36.69 654.38,-27.47"/>
<polygon fill="#63b8ff" stroke="#63b8ff" points="656.74,-24.88 646.79,-21.26 652.31,-30.3 656.74,-24.88"/>
</a>
</g>
</g>
<!-- Node23 -->
<g id="Node000023" class="node">
<title>Node23</title>
<g id="a_Node000023"><a xlink:title=" ">
<polygon fill="#e0e0e0" stroke="#999999" points="731.88,-20 680.62,-20 680.62,0 731.88,0 731.88,-20"/>
<text text-anchor="middle" x="706.25" y="-6.5" font-family="Helvetica,sans-Serif" font-size="10.00">stddef.h</text>
</a>
</g>
</g>
<!-- Node19&#45;&gt;Node23 -->
<g id="edge33_Node000019_Node000023" class="edge">
<title>Node19&#45;&gt;Node23</title>
<g id="a_edge33_Node000019_Node000023"><a xlink:title=" ">
<path fill="none" stroke="#63b8ff" d="M701.3,-55.59C702.03,-49.01 703.03,-39.96 703.95,-31.73"/>
<polygon fill="#63b8ff" stroke="#63b8ff" points="707.42,-32.13 705.05,-21.8 700.47,-31.35 707.42,-32.13"/>
</a>
</g>
</g>
</g>
</svg>

<g id="navigator" transform="translate(0 0)" fill="#404254">
  <rect fill="#f2f5e9" fill-opacity="0.5" stroke="#606060" stroke-width=".5" x="0" y="0" width="60" height="60"/>
  <use id="zoomplus" xlink:href="#zoomPlus" x="17" y="9" onmousedown="handleZoom(evt,'in')"/>
  <use id="zoomminus" xlink:href="#zoomMin" x="42" y="9" onmousedown="handleZoom(evt,'out')"/>
  <use id="reset" xlink:href="#resetDef" x="30" y="36" onmousedown="handleReset()"/>
   <use id="arrowup" xlink:href="#arrowUp" x="0" y="0" onmousedown="handlePan(0,-1)"/>
  <use id="arrowright" xlink:href="#arrowRight" x="0" y="0" onmousedown="handlePan(1,0)"/>
  <use id="arrowdown" xlink:href="#arrowDown" x="0" y="0" onmousedown="handlePan(0,1)"/>
  <use id="arrowleft" xlink:href="#arrowLeft" x="0" y="0" onmousedown="handlePan(-1,0)"/>
</g>
<svg viewBox="0 0 15 15" width="100%" height="30px" preserveAspectRatio="xMaxYMin meet">
 <g id="arrow_out" transform="scale(0.3 0.3)">
  <a xlink:href="radio_8cpp__incl_org.svg" target="_base">
   <rect id="button" ry="5" rx="5" y="6" x="6" height="38" width="38"
        fill="#f2f5e9" fill-opacity="0.5" stroke="#606060" stroke-width="1.0"/>
   <path id="arrow"
     d="M 11.500037,31.436501 C 11.940474,20.09759 22.043105,11.32322 32.158766,21.979434 L 37.068811,17.246167 C 37.068811,17.246167 37.088388,32 37.088388,32 L 22.160133,31.978069 C 22.160133,31.978069 26.997745,27.140456 26.997745,27.140456 C 18.528582,18.264221 13.291696,25.230495 11.500037,31.436501 z"
     style="fill:#404040;"/>
  </a>
 </g>
</svg>

<style type='text/css'>
<![CDATA[
[data-mouse-over-selected='false'] { opacity: 0.7; }
[data-mouse-over-selected='true']  { opacity: 1.0; }
]]>
</style>
<script type="application/ecmascript"><![CDATA[
document.addEventListener('DOMContentLoaded', (event) => {
  highlightEdges();
  highlightAdjacentNodes();
});
]]></script>
</svg>
