<?xml version="1.0" encoding="UTF-8" standalone="no"?>
<!DOCTYPE svg PUBLIC "-//W3C//DTD SVG 1.1//EN"
 "http://www.w3.org/Graphics/SVG/1.1/DTD/svg11.dtd">
<!-- Generated by graphviz version 2.43.0 (0)
 -->
<!-- Title: radio.cpp Pages: 1 -->
<!--zoomable 302 -->

<svg id="main" version="1.1" xmlns="http://www.w3.org/2000/svg" xmlns:xlink="http://www.w3.org/1999/xlink" xml:space="preserve" onload="init(evt)">

<style type="text/css"><![CDATA[
.node, .edge {opacity: 0.7;}
.node.selected, .edge.selected {opacity: 1;}
.edge:hover path { stroke: red; }
.edge:hover polygon { stroke: red; fill: red; }
]]></style>

<defs>
  <circle id="rim" cx="0" cy="0" r="7"/>
  <circle id="rim2" cx="0" cy="0" r="3.5"/>
  <g id="zoomPlus">
    <use xlink:href="#rim" fill="#404040"><set attributeName="fill" to="#808080" begin="zoomplus.mouseover" end="zoomplus.mouseout"/></use>
    <path d="M-4,0h8M0,-4v8" fill="none" stroke="white" stroke-width="1.5" pointer-events="none"/>
  </g>
  <g id="zoomMin">
    <use xlink:href="#rim" fill="#404040"><set attributeName="fill" to="#808080" begin="zoomminus.mouseover" end="zoomminus.mouseout"/></use>
    <path d="M-4,0h8" fill="none" stroke="white" stroke-width="1.5" pointer-events="none"/>
  </g>
  <g id="arrowUp" transform="translate(30 24)">
    <use xlink:href="#rim"/>
    <path pointer-events="none" fill="none" stroke="white" stroke-width="1.5" d="M0,-3.0v7 M-2.5,-0.5L0,-3.0L2.5,-0.5"/>
  </g>
  <g id="arrowRight" transform="rotate(90) translate(36 -43)">
    <use xlink:href="#rim"/>
    <path pointer-events="none" fill="none" stroke="white" stroke-width="1.5" d="M0,-3.0v7 M-2.5,-0.5L0,-3.0L2.5,-0.5"/>
  </g>
  <g id="arrowDown" transform="rotate(180) translate(-30 -48)">
    <use xlink:href="#rim"/>
    <path pointer-events="none" fill="none" stroke="white" stroke-width="1.5" d="M0,-3.0v7 M-2.5,-0.5L0,-3.0L2.5,-0.5"/>
  </g>
  <g id="arrowLeft" transform="rotate(270) translate(-36 17)">
    <use xlink:href="#rim"/>
    <path pointer-events="none" fill="none" stroke="white" stroke-width="1.5" d="M0,-3.0v7 M-2.5,-0.5L0,-3.0L2.5,-0.5"/>
  </g>
  <g id="resetDef">
    <use xlink:href="#rim2" fill="#404040"><set attributeName="fill" to="#808080" begin="reset.mouseover" end="reset.mouseout"/></use>
  </g>
</defs>
<script type="application/ecmascript">
var viewWidth = 1037;
var viewHeight = 302;
var sectionId = 'dynsection-0';
</script>
<script type="application/ecmascript" xlink:href="svg.min.js"/>
<svg id="graph" class="graph">
<g id="viewport">
<title>radio.cpp</title>
<!-- Node1 -->
<g id="Node000001" class="node">
<title>Node1</title>
<g id="a_Node000001"><a xlink:title="Radio operations and the task handling them.">
<polygon fill="#999999" stroke="#666666" points="531.5,-294 469.5,-294 469.5,-275 531.5,-275 531.5,-294"/>
<text text-anchor="middle" x="500.5" y="-282" font-family="Helvetica,sans-Serif" font-size="10.00">radio.cpp</text>
</a>
</g>
</g>
<!-- Node2 -->
<g id="Node000002" class="node">
<title>Node2</title>
<g id="a_Node000002"><a xlink:title=" ">
<polygon fill="#e0e0e0" stroke="#999999" points="250.5,-19 178.5,-19 178.5,0 250.5,0 250.5,-19"/>
<text text-anchor="middle" x="214.5" y="-7" font-family="Helvetica,sans-Serif" font-size="10.00">FreeRTOS.h</text>
</a>
</g>
</g>
<!-- Node1&#45;&gt;Node2 -->
<g id="edge1_Node000001_Node000002" class="edge">
<title>Node1&#45;&gt;Node2</title>
<g id="a_edge1_Node000001_Node000002"><a xlink:title=" ">
<path fill="none" stroke="#63b8ff" d="M469.28,-280.48C384.35,-271.42 155.5,-240.93 155.5,-175.5 155.5,-175.5 155.5,-175.5 155.5,-118.5 155.5,-82.23 181.44,-46.58 198.92,-26.67"/>
<polygon fill="#63b8ff" stroke="#63b8ff" points="201.63,-28.89 205.79,-19.14 196.47,-24.17 201.63,-28.89"/>
</a>
</g>
</g>
<!-- Node3 -->
<g id="Node000003" class="node">
<title>Node3</title>
<g id="a_Node000003"><a xlink:href="stdlib_8h.html" target="_top" xlink:title=" ">
<polygon fill="white" stroke="#666666" points="660,-184 607,-184 607,-165 660,-165 660,-184"/>
<text text-anchor="middle" x="633.5" y="-172" font-family="Helvetica,sans-Serif" font-size="10.00">stdlib.h</text>
</a>
</g>
</g>
<!-- Node1&#45;&gt;Node3 -->
<g id="edge2_Node000001_Node000003" class="edge">
<title>Node1&#45;&gt;Node3</title>
<g id="a_edge2_Node000001_Node000003"><a xlink:title=" ">
<path fill="none" stroke="#63b8ff" d="M519.59,-274.88C536.12,-266.91 560.19,-254.04 578.5,-239 595.32,-225.18 611.23,-205.88 621.57,-192.2"/>
<polygon fill="#63b8ff" stroke="#63b8ff" points="624.4,-194.25 627.51,-184.13 618.76,-190.1 624.4,-194.25"/>
</a>
</g>
</g>
<!-- Node4 -->
<g id="Node000004" class="node">
<title>Node4</title>
<g id="a_Node000004"><a xlink:title=" ">
<polygon fill="#e0e0e0" stroke="#999999" points="746.5,-184 678.5,-184 678.5,-165 746.5,-165 746.5,-184"/>
<text text-anchor="middle" x="712.5" y="-172" font-family="Helvetica,sans-Serif" font-size="10.00">RadioLib.h</text>
</a>
</g>
</g>
<!-- Node1&#45;&gt;Node4 -->
<g id="edge3_Node000001_Node000004" class="edge">
<title>Node1&#45;&gt;Node4</title>
<g id="a_edge3_Node000001_Node000004"><a xlink:title=" ">
<path fill="none" stroke="#63b8ff" d="M521.92,-274.98C542.78,-266.48 575.25,-252.76 602.5,-239 633.68,-223.26 668.38,-202.69 690.31,-189.29"/>
<polygon fill="#63b8ff" stroke="#63b8ff" points="692.2,-192.24 698.88,-184.03 688.53,-186.28 692.2,-192.24"/>
</a>
</g>
</g>
<!-- Node5 -->
<g id="Node000005" class="node">
<title>Node5</title>
<g id="a_Node000005"><a xlink:title=" ">
<polygon fill="#e0e0e0" stroke="#999999" points="491.5,-129 405.5,-129 405.5,-110 491.5,-110 491.5,-129"/>
<text text-anchor="middle" x="448.5" y="-117" font-family="Helvetica,sans-Serif" font-size="10.00">spacepacket.h</text>
</a>
</g>
</g>
<!-- Node1&#45;&gt;Node5 -->
<g id="edge4_Node000001_Node000005" class="edge">
<title>Node1&#45;&gt;Node5</title>
<g id="a_edge4_Node000001_Node000005"><a xlink:title=" ">
<path fill="none" stroke="#63b8ff" d="M497.5,-274.74C491.59,-257.45 478.12,-217.67 467.5,-184 462.74,-168.89 457.6,-151.67 453.87,-138.97"/>
<polygon fill="#63b8ff" stroke="#63b8ff" points="457.17,-137.77 451,-129.15 450.45,-139.73 457.17,-137.77"/>
</a>
</g>
</g>
<!-- Node6 -->
<g id="Node000006" class="node">
<title>Node6</title>
<g id="a_Node000006"><a xlink:title=" ">
<polygon fill="#e0e0e0" stroke="#999999" points="151.5,-19 89.5,-19 89.5,0 151.5,0 151.5,-19"/>
<text text-anchor="middle" x="120.5" y="-7" font-family="Helvetica,sans-Serif" font-size="10.00">semphr.h</text>
</a>
</g>
</g>
<!-- Node1&#45;&gt;Node6 -->
<g id="edge5_Node000001_Node000006" class="edge">
<title>Node1&#45;&gt;Node6</title>
<g id="a_edge5_Node000001_Node000006"><a xlink:title=" ">
<path fill="none" stroke="#63b8ff" d="M469.31,-282.86C366,-279.9 41.5,-263.61 41.5,-175.5 41.5,-175.5 41.5,-175.5 41.5,-118.5 41.5,-89.04 43.58,-79.12 60.5,-55 69.34,-42.39 82.89,-31.91 94.88,-24.29"/>
<polygon fill="#63b8ff" stroke="#63b8ff" points="96.86,-27.18 103.63,-19.03 93.26,-21.18 96.86,-27.18"/>
</a>
</g>
</g>
<!-- Node7 -->
<g id="Node000007" class="node">
<title>Node7</title>
<g id="a_Node000007"><a xlink:href="tasks_2radio_2radio_8h.html" target="_top" xlink:title="Handles radio communication.">
<polygon fill="white" stroke="#666666" points="309.5,-74 259.5,-74 259.5,-55 309.5,-55 309.5,-74"/>
<text text-anchor="middle" x="284.5" y="-62" font-family="Helvetica,sans-Serif" font-size="10.00">radio.h</text>
</a>
</g>
</g>
<!-- Node1&#45;&gt;Node7 -->
<g id="edge6_Node000001_Node000007" class="edge">
<title>Node1&#45;&gt;Node7</title>
<g id="a_edge6_Node000001_Node000007"><a xlink:title=" ">
<path fill="none" stroke="#63b8ff" d="M474.19,-274.91C433.1,-260.61 352.47,-228.99 295.5,-184 270.71,-164.42 261.12,-158.75 250.5,-129 244.43,-112 256.02,-93.98 267.28,-81.49"/>
<polygon fill="#63b8ff" stroke="#63b8ff" points="269.96,-83.76 274.45,-74.16 264.96,-78.86 269.96,-83.76"/>
</a>
</g>
</g>
<!-- Node10 -->
<g id="Node000010" class="node">
<title>Node10</title>
<g id="a_Node000010"><a xlink:href="PicoHal_8h.html" target="_top" xlink:title="Adapted from RadioLib&#39;s provided PicoHal.">
<polygon fill="white" stroke="#666666" points="743.5,-239 681.5,-239 681.5,-220 743.5,-220 743.5,-239"/>
<text text-anchor="middle" x="712.5" y="-227" font-family="Helvetica,sans-Serif" font-size="10.00">PicoHal.h</text>
</a>
</g>
</g>
<!-- Node1&#45;&gt;Node10 -->
<g id="edge10_Node000001_Node000010" class="edge">
<title>Node1&#45;&gt;Node10</title>
<g id="a_edge10_Node000001_Node000010"><a xlink:title=" ">
<path fill="none" stroke="#63b8ff" d="M531.78,-275.68C568.84,-266.42 630.68,-250.95 671.53,-240.74"/>
<polygon fill="#63b8ff" stroke="#63b8ff" points="672.58,-244.09 681.44,-238.27 670.89,-237.3 672.58,-244.09"/>
</a>
</g>
</g>
<!-- Node14 -->
<g id="Node000014" class="node">
<title>Node14</title>
<g id="a_Node000014"><a xlink:href="log_8h.html" target="_top" xlink:title=" ">
<polygon fill="white" stroke="#666666" points="570,-239 529,-239 529,-220 570,-220 570,-239"/>
<text text-anchor="middle" x="549.5" y="-227" font-family="Helvetica,sans-Serif" font-size="10.00">log.h</text>
</a>
</g>
</g>
<!-- Node1&#45;&gt;Node14 -->
<g id="edge16_Node000001_Node000014" class="edge">
<title>Node1&#45;&gt;Node14</title>
<g id="a_edge16_Node000001_Node000014"><a xlink:title=" ">
<path fill="none" stroke="#63b8ff" d="M508.59,-274.75C515.66,-267.11 526.09,-255.82 534.65,-246.56"/>
<polygon fill="#63b8ff" stroke="#63b8ff" points="537.34,-248.81 541.56,-239.09 532.2,-244.06 537.34,-248.81"/>
</a>
</g>
</g>
<!-- Node23 -->
<g id="Node000023" class="node">
<title>Node23</title>
<g id="a_Node000023"><a xlink:href="gse_8h.html" target="_top" xlink:title="Handles hardline communication over USB.">
<polygon fill="white" stroke="#666666" points="805,-239 762,-239 762,-220 805,-220 805,-239"/>
<text text-anchor="middle" x="783.5" y="-227" font-family="Helvetica,sans-Serif" font-size="10.00">gse.h</text>
</a>
</g>
</g>
<!-- Node1&#45;&gt;Node23 -->
<g id="edge34_Node000001_Node000023" class="edge">
<title>Node1&#45;&gt;Node23</title>
<g id="a_edge34_Node000001_Node000023"><a xlink:title=" ">
<path fill="none" stroke="#63b8ff" d="M531.72,-278.94C577.75,-272.01 666.69,-257.84 752.04,-238.91"/>
<polygon fill="#63b8ff" stroke="#63b8ff" points="752.89,-242.31 761.88,-236.7 751.36,-235.48 752.89,-242.31"/>
</a>
</g>
</g>
<!-- Node24 -->
<g id="Node000024" class="node">
<title>Node24</title>
<g id="a_Node000024"><a xlink:href="command_8h.html" target="_top" xlink:title="Handles decoding and triggering responses to received commands.">
<polygon fill="white" stroke="#666666" points="550.5,-184 476.5,-184 476.5,-165 550.5,-165 550.5,-184"/>
<text text-anchor="middle" x="513.5" y="-172" font-family="Helvetica,sans-Serif" font-size="10.00">command.h</text>
</a>
</g>
</g>
<!-- Node1&#45;&gt;Node24 -->
<g id="edge35_Node000001_Node000024" class="edge">
<title>Node1&#45;&gt;Node24</title>
<g id="a_edge35_Node000001_Node000024"><a xlink:title=" ">
<path fill="none" stroke="#63b8ff" d="M501.56,-274.66C503.67,-257.17 508.41,-217.8 511.24,-194.27"/>
<polygon fill="#63b8ff" stroke="#63b8ff" points="514.74,-194.51 512.46,-184.16 507.79,-193.67 514.74,-194.51"/>
</a>
</g>
</g>
<!-- Node26 -->
<g id="Node000026" class="node">
<title>Node26</title>
<g id="a_Node000026"><a xlink:href="timing_8h.html" target="_top" xlink:title=" ">
<polygon fill="white" stroke="#666666" points="127,-74 70,-74 70,-55 127,-55 127,-74"/>
<text text-anchor="middle" x="98.5" y="-62" font-family="Helvetica,sans-Serif" font-size="10.00">timing.h</text>
</a>
</g>
</g>
<!-- Node1&#45;&gt;Node26 -->
<g id="edge42_Node000001_Node000026" class="edge">
<title>Node1&#45;&gt;Node26</title>
<g id="a_edge42_Node000001_Node000026"><a xlink:title=" ">
<path fill="none" stroke="#63b8ff" d="M469.45,-283.99C391.39,-284.56 189.72,-281.77 141.5,-239 96.46,-199.05 94.99,-120.01 96.92,-84.07"/>
<polygon fill="#63b8ff" stroke="#63b8ff" points="100.42,-84.24 97.61,-74.02 93.43,-83.75 100.42,-84.24"/>
</a>
</g>
</g>
<!-- Node7&#45;&gt;Node2 -->
<g id="edge7_Node000007_Node000002" class="edge">
<title>Node7&#45;&gt;Node2</title>
<g id="a_edge7_Node000007_Node000002"><a xlink:title=" ">
<path fill="none" stroke="#63b8ff" d="M273.25,-54.98C262.7,-47 246.7,-34.88 234.06,-25.31"/>
<polygon fill="#63b8ff" stroke="#63b8ff" points="236.04,-22.42 225.95,-19.17 231.81,-28 236.04,-22.42"/>
</a>
</g>
</g>
<!-- Node8 -->
<g id="Node000008" class="node">
<title>Node8</title>
<g id="a_Node000008"><a xlink:title=" ">
<polygon fill="#e0e0e0" stroke="#999999" points="328.5,-19 272.5,-19 272.5,0 328.5,0 328.5,-19"/>
<text text-anchor="middle" x="300.5" y="-7" font-family="Helvetica,sans-Serif" font-size="10.00">queue.h</text>
</a>
</g>
</g>
<!-- Node7&#45;&gt;Node8 -->
<g id="edge8_Node000007_Node000008" class="edge">
<title>Node7&#45;&gt;Node8</title>
<g id="a_edge8_Node000007_Node000008"><a xlink:title=" ">
<path fill="none" stroke="#63b8ff" d="M287.14,-54.75C289.26,-47.72 292.31,-37.62 294.96,-28.84"/>
<polygon fill="#63b8ff" stroke="#63b8ff" points="298.37,-29.67 297.91,-19.09 291.67,-27.65 298.37,-29.67"/>
</a>
</g>
</g>
<!-- Node9 -->
<g id="Node000009" class="node">
<title>Node9</title>
<g id="a_Node000009"><a xlink:title=" ">
<polygon fill="#e0e0e0" stroke="#999999" points="400,-19 347,-19 347,0 400,0 400,-19"/>
<text text-anchor="middle" x="373.5" y="-7" font-family="Helvetica,sans-Serif" font-size="10.00">stdint.h</text>
</a>
</g>
</g>
<!-- Node7&#45;&gt;Node9 -->
<g id="edge9_Node000007_Node000009" class="edge">
<title>Node7&#45;&gt;Node9</title>
<g id="a_edge9_Node000007_Node000009"><a xlink:title=" ">
<path fill="none" stroke="#63b8ff" d="M298.8,-54.98C312.6,-46.77 333.74,-34.18 350.01,-24.49"/>
<polygon fill="#63b8ff" stroke="#63b8ff" points="352.14,-27.29 358.94,-19.17 348.56,-21.28 352.14,-27.29"/>
</a>
</g>
</g>
<!-- Node10&#45;&gt;Node3 -->
<g id="edge12_Node000010_Node000003" class="edge">
<title>Node10&#45;&gt;Node3</title>
<g id="a_edge12_Node000010_Node000003"><a xlink:title=" ">
<path fill="none" stroke="#63b8ff" d="M699.81,-219.98C687.67,-211.84 669.14,-199.41 654.75,-189.76"/>
<polygon fill="#63b8ff" stroke="#63b8ff" points="656.68,-186.84 646.42,-184.17 652.78,-192.65 656.68,-186.84"/>
</a>
</g>
</g>
<!-- Node10&#45;&gt;Node4 -->
<g id="edge11_Node000010_Node000004" class="edge">
<title>Node10&#45;&gt;Node4</title>
<g id="a_edge11_Node000010_Node000004"><a xlink:title=" ">
<path fill="none" stroke="#63b8ff" d="M712.5,-219.75C712.5,-212.8 712.5,-202.85 712.5,-194.13"/>
<polygon fill="#63b8ff" stroke="#63b8ff" points="716,-194.09 712.5,-184.09 709,-194.09 716,-194.09"/>
</a>
</g>
</g>
<!-- Node11 -->
<g id="Node000011" class="node">
<title>Node11</title>
<g id="a_Node000011"><a xlink:href="spi_8h.html" target="_top" xlink:title=" ">
<polygon fill="white" stroke="#666666" points="910,-184 821,-184 821,-165 910,-165 910,-184"/>
<text text-anchor="middle" x="865.5" y="-172" font-family="Helvetica,sans-Serif" font-size="10.00">hardware/spi.h</text>
</a>
</g>
</g>
<!-- Node10&#45;&gt;Node11 -->
<g id="edge13_Node000010_Node000011" class="edge">
<title>Node10&#45;&gt;Node11</title>
<g id="a_edge13_Node000010_Node000011"><a xlink:title=" ">
<path fill="none" stroke="#63b8ff" d="M737.08,-219.98C762.55,-211.16 802.54,-197.31 831.13,-187.41"/>
<polygon fill="#63b8ff" stroke="#63b8ff" points="832.42,-190.66 840.73,-184.08 830.13,-184.05 832.42,-190.66"/>
</a>
</g>
</g>
<!-- Node12 -->
<g id="Node000012" class="node">
<title>Node12</title>
<g id="a_Node000012"><a xlink:title=" ">
<polygon fill="#e0e0e0" stroke="#999999" points="1028.5,-184 928.5,-184 928.5,-165 1028.5,-165 1028.5,-184"/>
<text text-anchor="middle" x="978.5" y="-172" font-family="Helvetica,sans-Serif" font-size="10.00">hardware/timer.h</text>
</a>
</g>
</g>
<!-- Node10&#45;&gt;Node12 -->
<g id="edge14_Node000010_Node000012" class="edge">
<title>Node10&#45;&gt;Node12</title>
<g id="a_edge14_Node000010_Node000012"><a xlink:title=" ">
<path fill="none" stroke="#63b8ff" d="M743.83,-221.97C747.1,-221.3 750.37,-220.63 753.5,-220 811.92,-208.17 878.94,-194.96 924.54,-186.03"/>
<polygon fill="#63b8ff" stroke="#63b8ff" points="925.36,-189.43 934.5,-184.08 924.01,-182.56 925.36,-189.43"/>
</a>
</g>
</g>
<!-- Node13 -->
<g id="Node000013" class="node">
<title>Node13</title>
<g id="a_Node000013"><a xlink:title=" ">
<polygon fill="#e0e0e0" stroke="#999999" points="802.5,-184 764.5,-184 764.5,-165 802.5,-165 802.5,-184"/>
<text text-anchor="middle" x="783.5" y="-172" font-family="Helvetica,sans-Serif" font-size="10.00">map</text>
</a>
</g>
</g>
<!-- Node10&#45;&gt;Node13 -->
<g id="edge15_Node000010_Node000013" class="edge">
<title>Node10&#45;&gt;Node13</title>
<g id="a_edge15_Node000010_Node000013"><a xlink:title=" ">
<path fill="none" stroke="#63b8ff" d="M723.91,-219.98C734.61,-212 750.84,-199.88 763.66,-190.31"/>
<polygon fill="#63b8ff" stroke="#63b8ff" points="765.97,-192.96 771.89,-184.17 761.78,-187.35 765.97,-192.96"/>
</a>
</g>
</g>
<!-- Node15 -->
<g id="Node000015" class="node">
<title>Node15</title>
<g id="a_Node000015"><a xlink:href="telemetry_8h.html" target="_top" xlink:title="Functions for packaging and queuing telemetry packets for sending.">
<polygon fill="white" stroke="#666666" points="376.5,-184 304.5,-184 304.5,-165 376.5,-165 376.5,-184"/>
<text text-anchor="middle" x="340.5" y="-172" font-family="Helvetica,sans-Serif" font-size="10.00">telemetry.h</text>
</a>
</g>
</g>
<!-- Node14&#45;&gt;Node15 -->
<g id="edge17_Node000014_Node000015" class="edge">
<title>Node14&#45;&gt;Node15</title>
<g id="a_edge17_Node000014_Node000015"><a xlink:title=" ">
<path fill="none" stroke="#63b8ff" d="M528.7,-223.22C495.17,-214.72 428.48,-197.81 384.17,-186.57"/>
<polygon fill="#63b8ff" stroke="#63b8ff" points="384.8,-183.12 374.25,-184.06 383.08,-189.91 384.8,-183.12"/>
</a>
</g>
</g>
<!-- Node22 -->
<g id="Node000022" class="node">
<title>Node22</title>
<g id="a_Node000022"><a xlink:title=" ">
<polygon fill="#e0e0e0" stroke="#999999" points="797.5,-19 735.5,-19 735.5,0 797.5,0 797.5,-19"/>
<text text-anchor="middle" x="766.5" y="-7" font-family="Helvetica,sans-Serif" font-size="10.00">stdbool.h</text>
</a>
</g>
</g>
<!-- Node14&#45;&gt;Node22 -->
<g id="edge33_Node000014_Node000022" class="edge">
<title>Node14&#45;&gt;Node22</title>
<g id="a_edge33_Node000014_Node000022"><a xlink:title=" ">
<path fill="none" stroke="#63b8ff" d="M555.25,-219.9C563.82,-207.31 580.75,-183.39 597.5,-165 647.87,-109.69 715.51,-52.21 747.81,-25.64"/>
<polygon fill="#63b8ff" stroke="#63b8ff" points="750.06,-28.32 755.58,-19.28 745.63,-22.9 750.06,-28.32"/>
</a>
</g>
</g>
<!-- Node15&#45;&gt;Node2 -->
<g id="edge18_Node000015_Node000002" class="edge">
<title>Node15&#45;&gt;Node2</title>
<g id="a_edge18_Node000015_Node000002"><a xlink:title=" ">
<path fill="none" stroke="#63b8ff" d="M308.95,-164.95C289.56,-158.17 265.61,-146.82 250.5,-129 225.9,-99.99 218.11,-54.48 215.64,-29.14"/>
<polygon fill="#63b8ff" stroke="#63b8ff" points="219.12,-28.73 214.84,-19.04 212.14,-29.29 219.12,-28.73"/>
</a>
</g>
</g>
<!-- Node15&#45;&gt;Node8 -->
<g id="edge19_Node000015_Node000008" class="edge">
<title>Node15&#45;&gt;Node8</title>
<g id="a_edge19_Node000015_Node000008"><a xlink:title=" ">
<path fill="none" stroke="#63b8ff" d="M345.7,-164.96C352.43,-152.85 362.82,-129.93 358.5,-110 351.48,-77.61 329.24,-45.45 314.43,-26.8"/>
<polygon fill="#63b8ff" stroke="#63b8ff" points="317.09,-24.53 308.04,-19.01 311.67,-28.96 317.09,-24.53"/>
</a>
</g>
</g>
<!-- Node16 -->
<g id="Node000016" class="node">
<title>Node16</title>
<g id="a_Node000016"><a xlink:href="file__downlink_8h.html" target="_top" xlink:title=" ">
<polygon fill="white" stroke="#666666" points="349.5,-129 259.5,-129 259.5,-110 349.5,-110 349.5,-129"/>
<text text-anchor="middle" x="304.5" y="-117" font-family="Helvetica,sans-Serif" font-size="10.00">file_downlink.h</text>
</a>
</g>
</g>
<!-- Node15&#45;&gt;Node16 -->
<g id="edge20_Node000015_Node000016" class="edge">
<title>Node15&#45;&gt;Node16</title>
<g id="a_edge20_Node000015_Node000016"><a xlink:title=" ">
<path fill="none" stroke="#63b8ff" d="M334.56,-164.75C329.52,-157.34 322.16,-146.5 315.99,-137.41"/>
<polygon fill="#63b8ff" stroke="#63b8ff" points="318.85,-135.39 310.33,-129.09 313.06,-139.33 318.85,-135.39"/>
</a>
</g>
</g>
<!-- Node16&#45;&gt;Node2 -->
<g id="edge21_Node000016_Node000002" class="edge">
<title>Node16&#45;&gt;Node2</title>
<g id="a_edge21_Node000016_Node000002"><a xlink:title=" ">
<path fill="none" stroke="#63b8ff" d="M291.34,-109.76C279.63,-101.52 262.53,-88.33 250.5,-74 238.81,-60.08 228.92,-41.82 222.48,-28.46"/>
<polygon fill="#63b8ff" stroke="#63b8ff" points="225.64,-26.95 218.26,-19.35 219.28,-29.89 225.64,-26.95"/>
</a>
</g>
</g>
<!-- Node16&#45;&gt;Node8 -->
<g id="edge22_Node000016_Node000008" class="edge">
<title>Node16&#45;&gt;Node8</title>
<g id="a_edge22_Node000016_Node000008"><a xlink:title=" ">
<path fill="none" stroke="#63b8ff" d="M308.68,-109.9C314.07,-97.72 322.34,-74.72 318.5,-55 316.71,-45.8 313.02,-36.09 309.44,-28.1"/>
<polygon fill="#63b8ff" stroke="#63b8ff" points="312.59,-26.57 305.12,-19.06 306.27,-29.59 312.59,-26.57"/>
</a>
</g>
</g>
<!-- Node17 -->
<g id="Node000017" class="node">
<title>Node17</title>
<g id="a_Node000017"><a xlink:href="filesystem_8h.html" target="_top" xlink:title="Handles file system operations and management.">
<polygon fill="white" stroke="#666666" points="565,-74 488,-74 488,-55 565,-55 565,-74"/>
<text text-anchor="middle" x="526.5" y="-62" font-family="Helvetica,sans-Serif" font-size="10.00">filesystem.h</text>
</a>
</g>
</g>
<!-- Node16&#45;&gt;Node17 -->
<g id="edge23_Node000016_Node000017" class="edge">
<title>Node16&#45;&gt;Node17</title>
<g id="a_edge23_Node000016_Node000017"><a xlink:title=" ">
<path fill="none" stroke="#63b8ff" d="M340.17,-109.98C378.33,-100.87 438.97,-86.4 480.65,-76.45"/>
<polygon fill="#63b8ff" stroke="#63b8ff" points="481.64,-79.81 490.55,-74.08 480.01,-73 481.64,-79.81"/>
</a>
</g>
</g>
<!-- Node17&#45;&gt;Node2 -->
<g id="edge24_Node000017_Node000002" class="edge">
<title>Node17&#45;&gt;Node2</title>
<g id="a_edge24_Node000017_Node000002"><a xlink:title=" ">
<path fill="none" stroke="#63b8ff" d="M487.72,-56.99C436.41,-48.37 343.15,-32.65 263.5,-19 262.59,-18.84 261.67,-18.69 260.74,-18.53"/>
<polygon fill="#63b8ff" stroke="#63b8ff" points="261.07,-15.03 250.62,-16.78 259.88,-21.93 261.07,-15.03"/>
</a>
</g>
</g>
<!-- Node17&#45;&gt;Node6 -->
<g id="edge29_Node000017_Node000006" class="edge">
<title>Node17&#45;&gt;Node6</title>
<g id="a_edge29_Node000017_Node000006"><a xlink:title=" ">
<path fill="none" stroke="#63b8ff" d="M487.85,-59.3C422.26,-52.02 285.02,-36.21 169.5,-19 166.96,-18.62 164.35,-18.22 161.72,-17.8"/>
<polygon fill="#63b8ff" stroke="#63b8ff" points="162.01,-14.3 151.57,-16.12 160.87,-21.2 162.01,-14.3"/>
</a>
</g>
</g>
<!-- Node17&#45;&gt;Node8 -->
<g id="edge25_Node000017_Node000008" class="edge">
<title>Node17&#45;&gt;Node8</title>
<g id="a_edge25_Node000017_Node000008"><a xlink:title=" ">
<path fill="none" stroke="#63b8ff" d="M490.19,-54.98C448.58,-45.23 380.69,-29.31 338.42,-19.39"/>
<polygon fill="#63b8ff" stroke="#63b8ff" points="339.05,-15.94 328.51,-17.07 337.45,-22.76 339.05,-15.94"/>
</a>
</g>
</g>
<!-- Node17&#45;&gt;Node9 -->
<g id="edge31_Node000017_Node000009" class="edge">
<title>Node17&#45;&gt;Node9</title>
<g id="a_edge31_Node000017_Node000009"><a xlink:title=" ">
<path fill="none" stroke="#63b8ff" d="M501.92,-54.98C476.45,-46.16 436.46,-32.31 407.87,-22.41"/>
<polygon fill="#63b8ff" stroke="#63b8ff" points="408.87,-19.05 398.27,-19.08 406.58,-25.66 408.87,-19.05"/>
</a>
</g>
</g>
<!-- Node18 -->
<g id="Node000018" class="node">
<title>Node18</title>
<g id="a_Node000018"><a xlink:title=" ">
<polygon fill="#e0e0e0" stroke="#999999" points="465,-19 418,-19 418,0 465,0 465,-19"/>
<text text-anchor="middle" x="441.5" y="-7" font-family="Helvetica,sans-Serif" font-size="10.00">task.h</text>
</a>
</g>
</g>
<!-- Node17&#45;&gt;Node18 -->
<g id="edge26_Node000017_Node000018" class="edge">
<title>Node17&#45;&gt;Node18</title>
<g id="a_edge26_Node000017_Node000018"><a xlink:title=" ">
<path fill="none" stroke="#63b8ff" d="M512.84,-54.98C499.66,-46.77 479.47,-34.18 463.93,-24.49"/>
<polygon fill="#63b8ff" stroke="#63b8ff" points="465.74,-21.49 455.41,-19.17 462.04,-27.43 465.74,-21.49"/>
</a>
</g>
</g>
<!-- Node19 -->
<g id="Node000019" class="node">
<title>Node19</title>
<g id="a_Node000019"><a xlink:title=" ">
<polygon fill="#e0e0e0" stroke="#999999" points="515.5,-19 483.5,-19 483.5,0 515.5,0 515.5,-19"/>
<text text-anchor="middle" x="499.5" y="-7" font-family="Helvetica,sans-Serif" font-size="10.00">ff.h</text>
</a>
</g>
</g>
<!-- Node17&#45;&gt;Node19 -->
<g id="edge27_Node000017_Node000019" class="edge">
<title>Node17&#45;&gt;Node19</title>
<g id="a_edge27_Node000017_Node000019"><a xlink:title=" ">
<path fill="none" stroke="#63b8ff" d="M522.04,-54.75C518.38,-47.57 513.09,-37.18 508.55,-28.27"/>
<polygon fill="#63b8ff" stroke="#63b8ff" points="511.53,-26.41 503.88,-19.09 505.3,-29.59 511.53,-26.41"/>
</a>
</g>
</g>
<!-- Node20 -->
<g id="Node000020" class="node">
<title>Node20</title>
<g id="a_Node000020"><a xlink:href="filesystem__errors_8h.html" target="_top" xlink:title=" ">
<polygon fill="white" stroke="#666666" points="643.5,-19 533.5,-19 533.5,0 643.5,0 643.5,-19"/>
<text text-anchor="middle" x="588.5" y="-7" font-family="Helvetica,sans-Serif" font-size="10.00">filesystem_errors.h</text>
</a>
</g>
</g>
<!-- Node17&#45;&gt;Node20 -->
<g id="edge28_Node000017_Node000020" class="edge">
<title>Node17&#45;&gt;Node20</title>
<g id="a_edge28_Node000017_Node000020"><a xlink:title=" ">
<path fill="none" stroke="#63b8ff" d="M536.46,-54.98C545.63,-47.15 559.44,-35.34 570.53,-25.86"/>
<polygon fill="#63b8ff" stroke="#63b8ff" points="573.03,-28.33 578.36,-19.17 568.48,-23.01 573.03,-28.33"/>
</a>
</g>
</g>
<!-- Node21 -->
<g id="Node000021" class="node">
<title>Node21</title>
<g id="a_Node000021"><a xlink:title=" ">
<polygon fill="#e0e0e0" stroke="#999999" points="717.5,-19 661.5,-19 661.5,0 717.5,0 717.5,-19"/>
<text text-anchor="middle" x="689.5" y="-7" font-family="Helvetica,sans-Serif" font-size="10.00">stddef.h</text>
</a>
</g>
</g>
<!-- Node17&#45;&gt;Node21 -->
<g id="edge30_Node000017_Node000021" class="edge">
<title>Node17&#45;&gt;Node21</title>
<g id="a_edge30_Node000017_Node000021"><a xlink:title=" ">
<path fill="none" stroke="#63b8ff" d="M552.69,-54.98C579.94,-46.13 622.8,-32.19 653.28,-22.28"/>
<polygon fill="#63b8ff" stroke="#63b8ff" points="654.68,-25.5 663.11,-19.08 652.51,-18.85 654.68,-25.5"/>
</a>
</g>
</g>
<!-- Node17&#45;&gt;Node22 -->
<g id="edge32_Node000017_Node000022" class="edge">
<title>Node17&#45;&gt;Node22</title>
<g id="a_edge32_Node000017_Node000022"><a xlink:title=" ">
<path fill="none" stroke="#63b8ff" d="M565.06,-54.98C608.95,-45.29 680.35,-29.53 725.3,-19.6"/>
<polygon fill="#63b8ff" stroke="#63b8ff" points="726.29,-22.96 735.3,-17.39 724.78,-16.13 726.29,-22.96"/>
</a>
</g>
</g>
<!-- Node24&#45;&gt;Node5 -->
<g id="edge37_Node000024_Node000005" class="edge">
<title>Node24&#45;&gt;Node5</title>
<g id="a_edge37_Node000024_Node000005"><a xlink:title=" ">
<path fill="none" stroke="#63b8ff" d="M503.06,-164.98C493.35,-157.07 478.68,-145.11 467,-135.58"/>
<polygon fill="#63b8ff" stroke="#63b8ff" points="469.1,-132.78 459.13,-129.17 464.67,-138.2 469.1,-132.78"/>
</a>
</g>
</g>
<!-- Node24&#45;&gt;Node9 -->
<g id="edge36_Node000024_Node000009" class="edge">
<title>Node24&#45;&gt;Node9</title>
<g id="a_edge36_Node000024_Node000009"><a xlink:title=" ">
<path fill="none" stroke="#63b8ff" d="M513.8,-164.86C513.84,-151.81 512.21,-126.8 500.5,-110 483.15,-85.11 466.66,-92.35 442.5,-74 422.99,-59.18 402.58,-39.84 389.07,-26.42"/>
<polygon fill="#63b8ff" stroke="#63b8ff" points="391.5,-23.9 381.96,-19.28 386.53,-28.84 391.5,-23.9"/>
</a>
</g>
</g>
<!-- Node25 -->
<g id="Node000025" class="node">
<title>Node25</title>
<g id="a_Node000025"><a xlink:href="user__auth_8h.html" target="_top" xlink:title=" ">
<polygon fill="white" stroke="#666666" points="621.5,-129 547.5,-129 547.5,-110 621.5,-110 621.5,-129"/>
<text text-anchor="middle" x="584.5" y="-117" font-family="Helvetica,sans-Serif" font-size="10.00">user_auth.h</text>
</a>
</g>
</g>
<!-- Node24&#45;&gt;Node25 -->
<g id="edge38_Node000024_Node000025" class="edge">
<title>Node24&#45;&gt;Node25</title>
<g id="a_edge38_Node000024_Node000025"><a xlink:title=" ">
<path fill="none" stroke="#63b8ff" d="M524.91,-164.98C535.61,-157 551.84,-144.88 564.66,-135.31"/>
<polygon fill="#63b8ff" stroke="#63b8ff" points="566.97,-137.96 572.89,-129.17 562.78,-132.35 566.97,-137.96"/>
</a>
</g>
</g>
<!-- Node25&#45;&gt;Node9 -->
<g id="edge40_Node000025_Node000009" class="edge">
<title>Node25&#45;&gt;Node9</title>
<g id="a_edge40_Node000025_Node000009"><a xlink:title=" ">
<path fill="none" stroke="#63b8ff" d="M561.32,-109.9C539.54,-101.56 506.25,-88.12 478.5,-74 448.56,-58.77 415.67,-38.21 394.82,-24.67"/>
<polygon fill="#63b8ff" stroke="#63b8ff" points="396.69,-21.71 386.41,-19.15 392.86,-27.56 396.69,-21.71"/>
</a>
</g>
</g>
<!-- Node25&#45;&gt;Node17 -->
<g id="edge41_Node000025_Node000017" class="edge">
<title>Node25&#45;&gt;Node17</title>
<g id="a_edge41_Node000025_Node000017"><a xlink:title=" ">
<path fill="none" stroke="#63b8ff" d="M575.18,-109.98C566.69,-102.23 553.94,-90.58 543.62,-81.14"/>
<polygon fill="#63b8ff" stroke="#63b8ff" points="545.73,-78.33 535.99,-74.17 541.01,-83.5 545.73,-78.33"/>
</a>
</g>
</g>
<!-- Node25&#45;&gt;Node22 -->
<g id="edge39_Node000025_Node000022" class="edge">
<title>Node25&#45;&gt;Node22</title>
<g id="a_edge39_Node000025_Node000022"><a xlink:title=" ">
<path fill="none" stroke="#63b8ff" d="M589.28,-109.8C597.16,-96.2 614.19,-69.92 635.5,-55 650.3,-44.64 692.94,-31.09 725.6,-21.67"/>
<polygon fill="#63b8ff" stroke="#63b8ff" points="726.71,-25 735.37,-18.89 724.79,-18.26 726.71,-25"/>
</a>
</g>
</g>
<!-- Node26&#45;&gt;Node2 -->
<g id="edge43_Node000026_Node000002" class="edge">
<title>Node26&#45;&gt;Node2</title>
<g id="a_edge43_Node000026_Node000002"><a xlink:title=" ">
<path fill="none" stroke="#63b8ff" d="M117.14,-54.98C135.8,-46.46 164.75,-33.23 186.24,-23.41"/>
<polygon fill="#63b8ff" stroke="#63b8ff" points="187.88,-26.51 195.52,-19.17 184.97,-20.14 187.88,-26.51"/>
</a>
</g>
</g>
<!-- Node26&#45;&gt;Node6 -->
<g id="edge45_Node000026_Node000006" class="edge">
<title>Node26&#45;&gt;Node6</title>
<g id="a_edge45_Node000026_Node000006"><a xlink:title=" ">
<path fill="none" stroke="#63b8ff" d="M102.13,-54.75C105.08,-47.65 109.33,-37.4 113.01,-28.56"/>
<polygon fill="#63b8ff" stroke="#63b8ff" points="116.33,-29.67 116.93,-19.09 109.87,-26.98 116.33,-29.67"/>
</a>
</g>
</g>
<!-- Node26&#45;&gt;Node9 -->
<g id="edge44_Node000026_Node000009" class="edge">
<title>Node26&#45;&gt;Node9</title>
<g id="a_edge44_Node000026_Node000009"><a xlink:title=" ">
<path fill="none" stroke="#63b8ff" d="M127.28,-58.6C170.51,-51.14 254.99,-36.18 336.83,-19.05"/>
<polygon fill="#63b8ff" stroke="#63b8ff" points="337.73,-22.44 346.8,-16.96 336.29,-15.59 337.73,-22.44"/>
</a>
</g>
</g>
<!-- Node27 -->
<g id="Node000027" class="node">
<title>Node27</title>
<g id="a_Node000027"><a xlink:title=" ">
<polygon fill="#e0e0e0" stroke="#999999" points="71,-19 0,-19 0,0 71,0 71,-19"/>
<text text-anchor="middle" x="35.5" y="-7" font-family="Helvetica,sans-Serif" font-size="10.00">pico/time.h</text>
</a>
</g>
</g>
<!-- Node26&#45;&gt;Node27 -->
<g id="edge46_Node000026_Node000027" class="edge">
<title>Node26&#45;&gt;Node27</title>
<g id="a_edge46_Node000026_Node000027"><a xlink:title=" ">
<path fill="none" stroke="#63b8ff" d="M88.38,-54.98C79.06,-47.15 65.03,-35.34 53.76,-25.86"/>
<polygon fill="#63b8ff" stroke="#63b8ff" points="55.71,-22.93 45.81,-19.17 51.21,-28.29 55.71,-22.93"/>
</a>
</g>
</g>
</g>
</svg>

<g id="navigator" transform="translate(0 0)" fill="#404254">
  <rect fill="#f2f5e9" fill-opacity="0.5" stroke="#606060" stroke-width=".5" x="0" y="0" width="60" height="60"/>
  <use id="zoomplus" xlink:href="#zoomPlus" x="17" y="9" onmousedown="handleZoom(evt,'in')"/>
  <use id="zoomminus" xlink:href="#zoomMin" x="42" y="9" onmousedown="handleZoom(evt,'out')"/>
  <use id="reset" xlink:href="#resetDef" x="30" y="36" onmousedown="handleReset()"/>
   <use id="arrowup" xlink:href="#arrowUp" x="0" y="0" onmousedown="handlePan(0,-1)"/>
  <use id="arrowright" xlink:href="#arrowRight" x="0" y="0" onmousedown="handlePan(1,0)"/>
  <use id="arrowdown" xlink:href="#arrowDown" x="0" y="0" onmousedown="handlePan(0,1)"/>
  <use id="arrowleft" xlink:href="#arrowLeft" x="0" y="0" onmousedown="handlePan(-1,0)"/>
</g>
<svg viewBox="0 0 15 15" width="100%" height="30px" preserveAspectRatio="xMaxYMin meet">
 <g id="arrow_out" transform="scale(0.3 0.3)">
  <a xlink:href="radio_8cpp__incl_org.svg" target="_base">
   <rect id="button" ry="5" rx="5" y="6" x="6" height="38" width="38"
        fill="#f2f5e9" fill-opacity="0.5" stroke="#606060" stroke-width="1.0"/>
   <path id="arrow"
     d="M 11.500037,31.436501 C 11.940474,20.09759 22.043105,11.32322 32.158766,21.979434 L 37.068811,17.246167 C 37.068811,17.246167 37.088388,32 37.088388,32 L 22.160133,31.978069 C 22.160133,31.978069 26.997745,27.140456 26.997745,27.140456 C 18.528582,18.264221 13.291696,25.230495 11.500037,31.436501 z"
     style="fill:#404040;"/>
  </a>
 </g>
</svg>

<style type='text/css'>
<![CDATA[
[data-mouse-over-selected='false'] { opacity: 0.7; }
[data-mouse-over-selected='true']  { opacity: 1.0; }
]]>
</style>
<script type="application/ecmascript"><![CDATA[
document.addEventListener('DOMContentLoaded', (event) => {
  highlightEdges();
  highlightAdjacentNodes();
});
]]></script>
</svg>
