<?xml version="1.0" encoding="UTF-8" standalone="no"?>
<!DOCTYPE svg PUBLIC "-//W3C//DTD SVG 1.1//EN"
 "http://www.w3.org/Graphics/SVG/1.1/DTD/svg11.dtd">
<!-- Generated by graphviz version 12.1.2 (20240928.0832)
 -->
<!-- Title: radio_panic Pages: 1 -->
<svg width="245pt" height="142pt"
 viewBox="0.00 0.00 244.75 142.00" xmlns="http://www.w3.org/2000/svg" xmlns:xlink="http://www.w3.org/1999/xlink">
<g id="graph0" class="graph" transform="scale(1 1) rotate(0) translate(4 138)">
<title>radio_panic</title>
<!-- Node1 -->
<g id="Node000001" class="node">
<title>Node1</title>
<g id="a_Node000001"><a xlink:title=" ">
<polygon fill="#999999" stroke="#666666" points="65.5,-77 0,-77 0,-57 65.5,-57 65.5,-77"/>
<text text-anchor="middle" x="32.75" y="-63.5" font-family="Helvetica,sans-Serif" font-size="10.00">radio_panic</text>
</a>
</g>
</g>
<!-- Node2 -->
<g id="Node000002" class="node">
<title>Node2</title>
<g id="a_Node000002"><a xlink:href="radio_8cpp.html#ae7b8fc4ccc09bb7acd7b803ecad3caca" target="_top" xlink:title=" ">
<polygon fill="white" stroke="#666666" points="233,-134 105.25,-134 105.25,-114 233,-114 233,-134"/>
<text text-anchor="middle" x="169.12" y="-120.5" font-family="Helvetica,sans-Serif" font-size="10.00">radio_cad_detected_RFM</text>
</a>
</g>
</g>
<!-- Node1&#45;&gt;Node2 -->
<g id="edge1_Node000001_Node000002" class="edge">
<title>Node1&#45;&gt;Node2</title>
<g id="a_edge1_Node000001_Node000002"><a xlink:title=" ">
<path fill="none" stroke="#63b8ff" d="M49.91,-77.49C63.31,-85.83 83.07,-97.33 101.5,-105 105.81,-106.79 110.34,-108.48 114.94,-110.05"/>
<polygon fill="#63b8ff" stroke="#63b8ff" points="113.64,-113.31 124.24,-113.04 115.79,-106.65 113.64,-113.31"/>
</a>
</g>
</g>
<!-- Node3 -->
<g id="Node000003" class="node">
<title>Node3</title>
<g id="a_Node000003"><a xlink:href="radio_8cpp.html#a9cc461d365bd6aa5037aa79b50a4ab70" target="_top" xlink:title=" ">
<polygon fill="white" stroke="#666666" points="225.88,-96 112.38,-96 112.38,-76 225.88,-76 225.88,-96"/>
<text text-anchor="middle" x="169.12" y="-82.5" font-family="Helvetica,sans-Serif" font-size="10.00">radio_general_flag_SX</text>
</a>
</g>
</g>
<!-- Node1&#45;&gt;Node3 -->
<g id="edge2_Node000001_Node000003" class="edge">
<title>Node1&#45;&gt;Node3</title>
<g id="a_edge2_Node000001_Node000003"><a xlink:title=" ">
<path fill="none" stroke="#63b8ff" d="M65.94,-71.55C76.52,-73.05 88.71,-74.77 100.9,-76.49"/>
<polygon fill="#63b8ff" stroke="#63b8ff" points="100.16,-79.92 110.55,-77.86 101.14,-72.99 100.16,-79.92"/>
</a>
</g>
</g>
<!-- Node4 -->
<g id="Node000004" class="node">
<title>Node4</title>
<g id="a_Node000004"><a xlink:href="radio_8cpp.html#abb38d1447d7bbd825a1514d39e9889f3" target="_top" xlink:title="Handle hardware switches between radios.">
<polygon fill="white" stroke="#666666" points="233.75,-58 104.5,-58 104.5,-38 233.75,-38 233.75,-58"/>
<text text-anchor="middle" x="169.12" y="-44.5" font-family="Helvetica,sans-Serif" font-size="10.00">radio_hardware_switch_to</text>
</a>
</g>
</g>
<!-- Node1&#45;&gt;Node4 -->
<g id="edge3_Node000001_Node000004" class="edge">
<title>Node1&#45;&gt;Node4</title>
<g id="a_edge3_Node000001_Node000004"><a xlink:title=" ">
<path fill="none" stroke="#63b8ff" d="M65.94,-62.45C74.2,-61.28 83.43,-59.97 92.89,-58.64"/>
<polygon fill="#63b8ff" stroke="#63b8ff" points="93.13,-62.14 102.54,-57.27 92.15,-55.21 93.13,-62.14"/>
</a>
</g>
</g>
<!-- Node5 -->
<g id="Node000005" class="node">
<title>Node5</title>
<g id="a_Node000005"><a xlink:href="radio_8cpp.html#a69267b1b554b36d584cbc4322534266f" target="_top" xlink:title=" ">
<polygon fill="white" stroke="#666666" points="236.75,-20 101.5,-20 101.5,0 236.75,0 236.75,-20"/>
<text text-anchor="middle" x="169.12" y="-6.5" font-family="Helvetica,sans-Serif" font-size="10.00">radio_operation_done_RFM</text>
</a>
</g>
</g>
<!-- Node1&#45;&gt;Node5 -->
<g id="edge4_Node000001_Node000005" class="edge">
<title>Node1&#45;&gt;Node5</title>
<g id="a_edge4_Node000001_Node000005"><a xlink:title=" ">
<path fill="none" stroke="#63b8ff" d="M49.91,-56.51C63.31,-48.17 83.07,-36.67 101.5,-29 105.81,-27.21 110.34,-25.52 114.94,-23.95"/>
<polygon fill="#63b8ff" stroke="#63b8ff" points="115.79,-27.35 124.24,-20.96 113.64,-20.69 115.79,-27.35"/>
</a>
</g>
</g>
</g>
</svg>
