<?xml version="1.0" encoding="UTF-8" standalone="no"?>
<!DOCTYPE svg PUBLIC "-//W3C//DTD SVG 1.1//EN"
 "http://www.w3.org/Graphics/SVG/1.1/DTD/svg11.dtd">
<!-- Generated by graphviz version 12.1.2 (20240928.0832)
 -->
<!-- Title: radiolibhal.h Pages: 1 -->
<svg width="420pt" height="84pt"
 viewBox="0.00 0.00 419.50 84.00" xmlns="http://www.w3.org/2000/svg" xmlns:xlink="http://www.w3.org/1999/xlink">
<g id="graph0" class="graph" transform="scale(1 1) rotate(0) translate(4 80)">
<title>radiolibhal.h</title>
<!-- Node1 -->
<g id="Node000001" class="node">
<title>Node1</title>
<g id="a_Node000001"><a xlink:title=" ">
<polygon fill="#999999" stroke="#666666" points="261.12,-76 193.38,-76 193.38,-56 261.12,-56 261.12,-76"/>
<text text-anchor="middle" x="227.25" y="-62.5" font-family="Helvetica,sans-Serif" font-size="10.00">radiolibhal.h</text>
</a>
</g>
</g>
<!-- Node2 -->
<g id="Node000002" class="node">
<title>Node2</title>
<g id="a_Node000002"><a xlink:href="stdlib_8h.html" target="_top" xlink:title=" ">
<polygon fill="white" stroke="#666666" points="68.5,-20 0,-20 0,0 68.5,0 68.5,-20"/>
<text text-anchor="middle" x="34.25" y="-6.5" font-family="Helvetica,sans-Serif" font-size="10.00">pico/stdlib.h</text>
</a>
</g>
</g>
<!-- Node1&#45;&gt;Node2 -->
<g id="edge1_Node000001_Node000002" class="edge">
<title>Node1&#45;&gt;Node2</title>
<g id="a_edge1_Node000001_Node000002"><a xlink:title=" ">
<path fill="none" stroke="#63b8ff" d="M193.63,-55.59C161.86,-46.71 113.99,-33.31 79,-23.52"/>
<polygon fill="#63b8ff" stroke="#63b8ff" points="80.16,-20.21 69.59,-20.89 78.28,-26.95 80.16,-20.21"/>
</a>
</g>
</g>
<!-- Node3 -->
<g id="Node000003" class="node">
<title>Node3</title>
<g id="a_Node000003"><a xlink:href="adc_8h.html" target="_top" xlink:title=" ">
<polygon fill="white" stroke="#666666" points="169.62,-20 86.88,-20 86.88,0 169.62,0 169.62,-20"/>
<text text-anchor="middle" x="128.25" y="-6.5" font-family="Helvetica,sans-Serif" font-size="10.00">hardware/adc.h</text>
</a>
</g>
</g>
<!-- Node1&#45;&gt;Node3 -->
<g id="edge2_Node000001_Node000003" class="edge">
<title>Node1&#45;&gt;Node3</title>
<g id="a_edge2_Node000001_Node000003"><a xlink:title=" ">
<path fill="none" stroke="#63b8ff" d="M210.01,-55.59C194.91,-47.36 172.72,-35.26 155.27,-25.74"/>
<polygon fill="#63b8ff" stroke="#63b8ff" points="157.41,-22.92 146.96,-21.2 154.06,-29.07 157.41,-22.92"/>
</a>
</g>
</g>
<!-- Node4 -->
<g id="Node000004" class="node">
<title>Node4</title>
<g id="a_Node000004"><a xlink:href="spi_8h.html" target="_top" xlink:title=" ">
<polygon fill="white" stroke="#666666" points="267.12,-20 187.38,-20 187.38,0 267.12,0 267.12,-20"/>
<text text-anchor="middle" x="227.25" y="-6.5" font-family="Helvetica,sans-Serif" font-size="10.00">hardware/spi.h</text>
</a>
</g>
</g>
<!-- Node1&#45;&gt;Node4 -->
<g id="edge3_Node000001_Node000004" class="edge">
<title>Node1&#45;&gt;Node4</title>
<g id="a_edge3_Node000001_Node000004"><a xlink:title=" ">
<path fill="none" stroke="#63b8ff" d="M227.25,-55.59C227.25,-49.01 227.25,-39.96 227.25,-31.73"/>
<polygon fill="#63b8ff" stroke="#63b8ff" points="230.75,-31.81 227.25,-21.81 223.75,-31.81 230.75,-31.81"/>
</a>
</g>
</g>
<!-- Node5 -->
<g id="Node000005" class="node">
<title>Node5</title>
<g id="a_Node000005"><a xlink:title=" ">
<polygon fill="#e0e0e0" stroke="#999999" points="330.88,-20 285.62,-20 285.62,0 330.88,0 330.88,-20"/>
<text text-anchor="middle" x="308.25" y="-6.5" font-family="Helvetica,sans-Serif" font-size="10.00">radio.h</text>
</a>
</g>
</g>
<!-- Node1&#45;&gt;Node5 -->
<g id="edge4_Node000001_Node000005" class="edge">
<title>Node1&#45;&gt;Node5</title>
<g id="a_edge4_Node000001_Node000005"><a xlink:title=" ">
<path fill="none" stroke="#63b8ff" d="M241.36,-55.59C253.25,-47.67 270.52,-36.16 284.53,-26.82"/>
<polygon fill="#63b8ff" stroke="#63b8ff" points="286.39,-29.78 292.77,-21.32 282.51,-23.95 286.39,-29.78"/>
</a>
</g>
</g>
<!-- Node6 -->
<g id="Node000006" class="node">
<title>Node6</title>
<g id="a_Node000006"><a xlink:title=" ">
<polygon fill="#e0e0e0" stroke="#999999" points="411.5,-20 349,-20 349,0 411.5,0 411.5,-20"/>
<text text-anchor="middle" x="380.25" y="-6.5" font-family="Helvetica,sans-Serif" font-size="10.00">RadioLib.h</text>
</a>
</g>
</g>
<!-- Node1&#45;&gt;Node6 -->
<g id="edge5_Node000001_Node000006" class="edge">
<title>Node1&#45;&gt;Node6</title>
<g id="a_edge5_Node000001_Node000006"><a xlink:title=" ">
<path fill="none" stroke="#63b8ff" d="M253.9,-55.59C278.43,-46.94 315.08,-34 342.59,-24.29"/>
<polygon fill="#63b8ff" stroke="#63b8ff" points="343.7,-27.61 351.96,-20.98 341.37,-21.01 343.7,-27.61"/>
</a>
</g>
</g>
</g>
</svg>
