<?xml version="1.0" encoding="UTF-8" standalone="no"?>
<!DOCTYPE svg PUBLIC "-//W3C//DTD SVG 1.1//EN"
 "http://www.w3.org/Graphics/SVG/1.1/DTD/svg11.dtd">
<!-- Generated by graphviz version 2.43.0 (0)
 -->
<!-- Title: radio.cpp Pages: 1 -->
<svg width="1039pt" height="302pt"
 viewBox="0.00 0.00 1039.00 302.00" xmlns="http://www.w3.org/2000/svg" xmlns:xlink="http://www.w3.org/1999/xlink">
<g id="graph0" class="graph" transform="scale(1 1) rotate(0) translate(4 298)">
<title>radio.cpp</title>
<!-- Node1 -->
<g id="Node000001" class="node">
<title>Node1</title>
<g id="a_Node000001"><a xlink:title="Radio operations and the task handling them.">
<polygon fill="#999999" stroke="#666666" points="533.5,-294 471.5,-294 471.5,-275 533.5,-275 533.5,-294"/>
<text text-anchor="middle" x="502.5" y="-282" font-family="Helvetica,sans-Serif" font-size="10.00">radio.cpp</text>
</a>
</g>
</g>
<!-- Node2 -->
<g id="Node000002" class="node">
<title>Node2</title>
<g id="a_Node000002"><a xlink:title=" ">
<polygon fill="#e0e0e0" stroke="#999999" points="251,-19 178,-19 178,0 251,0 251,-19"/>
<text text-anchor="middle" x="214.5" y="-7" font-family="Helvetica,sans-Serif" font-size="10.00">FreeRTOS.h</text>
</a>
</g>
</g>
<!-- Node1&#45;&gt;Node2 -->
<g id="edge1_Node000001_Node000002" class="edge">
<title>Node1&#45;&gt;Node2</title>
<g id="a_edge1_Node000001_Node000002"><a xlink:title=" ">
<path fill="none" stroke="#63b8ff" d="M471.4,-280.55C386.23,-271.62 155.5,-241.35 155.5,-175.5 155.5,-175.5 155.5,-175.5 155.5,-118.5 155.5,-82.23 181.44,-46.58 198.92,-26.67"/>
<polygon fill="#63b8ff" stroke="#63b8ff" points="201.63,-28.89 205.79,-19.14 196.47,-24.17 201.63,-28.89"/>
</a>
</g>
</g>
<!-- Node3 -->
<g id="Node000003" class="node">
<title>Node3</title>
<g id="a_Node000003"><a xlink:href="stdlib_8h.html" target="_top" xlink:title=" ">
<polygon fill="white" stroke="#666666" points="662,-184 609,-184 609,-165 662,-165 662,-184"/>
<text text-anchor="middle" x="635.5" y="-172" font-family="Helvetica,sans-Serif" font-size="10.00">stdlib.h</text>
</a>
</g>
</g>
<!-- Node1&#45;&gt;Node3 -->
<g id="edge2_Node000001_Node000003" class="edge">
<title>Node1&#45;&gt;Node3</title>
<g id="a_edge2_Node000001_Node000003"><a xlink:title=" ">
<path fill="none" stroke="#63b8ff" d="M521.59,-274.88C538.12,-266.91 562.19,-254.04 580.5,-239 597.32,-225.18 613.23,-205.88 623.57,-192.2"/>
<polygon fill="#63b8ff" stroke="#63b8ff" points="626.4,-194.25 629.51,-184.13 620.76,-190.1 626.4,-194.25"/>
</a>
</g>
</g>
<!-- Node4 -->
<g id="Node000004" class="node">
<title>Node4</title>
<g id="a_Node000004"><a xlink:title=" ">
<polygon fill="#e0e0e0" stroke="#999999" points="748.5,-184 680.5,-184 680.5,-165 748.5,-165 748.5,-184"/>
<text text-anchor="middle" x="714.5" y="-172" font-family="Helvetica,sans-Serif" font-size="10.00">RadioLib.h</text>
</a>
</g>
</g>
<!-- Node1&#45;&gt;Node4 -->
<g id="edge3_Node000001_Node000004" class="edge">
<title>Node1&#45;&gt;Node4</title>
<g id="a_edge3_Node000001_Node000004"><a xlink:title=" ">
<path fill="none" stroke="#63b8ff" d="M523.92,-274.98C544.78,-266.48 577.25,-252.76 604.5,-239 635.68,-223.26 670.38,-202.69 692.31,-189.29"/>
<polygon fill="#63b8ff" stroke="#63b8ff" points="694.2,-192.24 700.88,-184.03 690.53,-186.28 694.2,-192.24"/>
</a>
</g>
</g>
<!-- Node5 -->
<g id="Node000005" class="node">
<title>Node5</title>
<g id="a_Node000005"><a xlink:title=" ">
<polygon fill="#e0e0e0" stroke="#999999" points="493.5,-129 407.5,-129 407.5,-110 493.5,-110 493.5,-129"/>
<text text-anchor="middle" x="450.5" y="-117" font-family="Helvetica,sans-Serif" font-size="10.00">spacepacket.h</text>
</a>
</g>
</g>
<!-- Node1&#45;&gt;Node5 -->
<g id="edge4_Node000001_Node000005" class="edge">
<title>Node1&#45;&gt;Node5</title>
<g id="a_edge4_Node000001_Node000005"><a xlink:title=" ">
<path fill="none" stroke="#63b8ff" d="M499.5,-274.74C493.59,-257.45 480.12,-217.67 469.5,-184 464.74,-168.89 459.6,-151.67 455.87,-138.97"/>
<polygon fill="#63b8ff" stroke="#63b8ff" points="459.17,-137.77 453,-129.15 452.45,-139.73 459.17,-137.77"/>
</a>
</g>
</g>
<!-- Node6 -->
<g id="Node000006" class="node">
<title>Node6</title>
<g id="a_Node000006"><a xlink:title=" ">
<polygon fill="#e0e0e0" stroke="#999999" points="151.5,-19 89.5,-19 89.5,0 151.5,0 151.5,-19"/>
<text text-anchor="middle" x="120.5" y="-7" font-family="Helvetica,sans-Serif" font-size="10.00">semphr.h</text>
</a>
</g>
</g>
<!-- Node1&#45;&gt;Node6 -->
<g id="edge5_Node000001_Node000006" class="edge">
<title>Node1&#45;&gt;Node6</title>
<g id="a_edge5_Node000001_Node000006"><a xlink:title=" ">
<path fill="none" stroke="#63b8ff" d="M471.18,-282.89C367.42,-280.02 41.5,-263.97 41.5,-175.5 41.5,-175.5 41.5,-175.5 41.5,-118.5 41.5,-89.04 43.58,-79.12 60.5,-55 69.34,-42.39 82.89,-31.91 94.88,-24.29"/>
<polygon fill="#63b8ff" stroke="#63b8ff" points="96.86,-27.18 103.63,-19.03 93.26,-21.18 96.86,-27.18"/>
</a>
</g>
</g>
<!-- Node7 -->
<g id="Node000007" class="node">
<title>Node7</title>
<g id="a_Node000007"><a xlink:href="tasks_2radio_2radio_8h.html" target="_top" xlink:title="Handles radio communication.">
<polygon fill="white" stroke="#666666" points="309.5,-74 259.5,-74 259.5,-55 309.5,-55 309.5,-74"/>
<text text-anchor="middle" x="284.5" y="-62" font-family="Helvetica,sans-Serif" font-size="10.00">radio.h</text>
</a>
</g>
</g>
<!-- Node1&#45;&gt;Node7 -->
<g id="edge6_Node000001_Node000007" class="edge">
<title>Node1&#45;&gt;Node7</title>
<g id="a_edge6_Node000001_Node000007"><a xlink:title=" ">
<path fill="none" stroke="#63b8ff" d="M476.98,-274.99C436.24,-260.61 355.26,-228.62 297.5,-184 272.05,-164.34 261.63,-159.17 250.5,-129 244.25,-112.06 255.86,-94.03 267.18,-81.53"/>
<polygon fill="#63b8ff" stroke="#63b8ff" points="269.88,-83.77 274.38,-74.18 264.88,-78.87 269.88,-83.77"/>
</a>
</g>
</g>
<!-- Node10 -->
<g id="Node000010" class="node">
<title>Node10</title>
<g id="a_Node000010"><a xlink:href="PicoHal_8h.html" target="_top" xlink:title="Adapted from RadioLib&#39;s provided PicoHal.">
<polygon fill="white" stroke="#666666" points="745.5,-239 683.5,-239 683.5,-220 745.5,-220 745.5,-239"/>
<text text-anchor="middle" x="714.5" y="-227" font-family="Helvetica,sans-Serif" font-size="10.00">PicoHal.h</text>
</a>
</g>
</g>
<!-- Node1&#45;&gt;Node10 -->
<g id="edge10_Node000001_Node000010" class="edge">
<title>Node1&#45;&gt;Node10</title>
<g id="a_edge10_Node000001_Node000010"><a xlink:title=" ">
<path fill="none" stroke="#63b8ff" d="M533.78,-275.68C570.84,-266.42 632.68,-250.95 673.53,-240.74"/>
<polygon fill="#63b8ff" stroke="#63b8ff" points="674.58,-244.09 683.44,-238.27 672.89,-237.3 674.58,-244.09"/>
</a>
</g>
</g>
<!-- Node14 -->
<g id="Node000014" class="node">
<title>Node14</title>
<g id="a_Node000014"><a xlink:href="log_8h.html" target="_top" xlink:title=" ">
<polygon fill="white" stroke="#666666" points="572,-239 531,-239 531,-220 572,-220 572,-239"/>
<text text-anchor="middle" x="551.5" y="-227" font-family="Helvetica,sans-Serif" font-size="10.00">log.h</text>
</a>
</g>
</g>
<!-- Node1&#45;&gt;Node14 -->
<g id="edge16_Node000001_Node000014" class="edge">
<title>Node1&#45;&gt;Node14</title>
<g id="a_edge16_Node000001_Node000014"><a xlink:title=" ">
<path fill="none" stroke="#63b8ff" d="M510.59,-274.75C517.66,-267.11 528.09,-255.82 536.65,-246.56"/>
<polygon fill="#63b8ff" stroke="#63b8ff" points="539.34,-248.81 543.56,-239.09 534.2,-244.06 539.34,-248.81"/>
</a>
</g>
</g>
<!-- Node23 -->
<g id="Node000023" class="node">
<title>Node23</title>
<g id="a_Node000023"><a xlink:href="gse_8h.html" target="_top" xlink:title="Handles hardline communication over USB.">
<polygon fill="white" stroke="#666666" points="807,-239 764,-239 764,-220 807,-220 807,-239"/>
<text text-anchor="middle" x="785.5" y="-227" font-family="Helvetica,sans-Serif" font-size="10.00">gse.h</text>
</a>
</g>
</g>
<!-- Node1&#45;&gt;Node23 -->
<g id="edge34_Node000001_Node000023" class="edge">
<title>Node1&#45;&gt;Node23</title>
<g id="a_edge34_Node000001_Node000023"><a xlink:title=" ">
<path fill="none" stroke="#63b8ff" d="M533.72,-278.94C579.75,-272.01 668.69,-257.84 754.04,-238.91"/>
<polygon fill="#63b8ff" stroke="#63b8ff" points="754.89,-242.31 763.88,-236.7 753.36,-235.48 754.89,-242.31"/>
</a>
</g>
</g>
<!-- Node24 -->
<g id="Node000024" class="node">
<title>Node24</title>
<g id="a_Node000024"><a xlink:href="command_8h.html" target="_top" xlink:title="Handles decoding and triggering responses to received commands.">
<polygon fill="white" stroke="#666666" points="552.5,-184 478.5,-184 478.5,-165 552.5,-165 552.5,-184"/>
<text text-anchor="middle" x="515.5" y="-172" font-family="Helvetica,sans-Serif" font-size="10.00">command.h</text>
</a>
</g>
</g>
<!-- Node1&#45;&gt;Node24 -->
<g id="edge35_Node000001_Node000024" class="edge">
<title>Node1&#45;&gt;Node24</title>
<g id="a_edge35_Node000001_Node000024"><a xlink:title=" ">
<path fill="none" stroke="#63b8ff" d="M503.56,-274.66C505.67,-257.17 510.41,-217.8 513.24,-194.27"/>
<polygon fill="#63b8ff" stroke="#63b8ff" points="516.74,-194.51 514.46,-184.16 509.79,-193.67 516.74,-194.51"/>
</a>
</g>
</g>
<!-- Node26 -->
<g id="Node000026" class="node">
<title>Node26</title>
<g id="a_Node000026"><a xlink:href="timing_8h.html" target="_top" xlink:title=" ">
<polygon fill="white" stroke="#666666" points="127,-74 70,-74 70,-55 127,-55 127,-74"/>
<text text-anchor="middle" x="98.5" y="-62" font-family="Helvetica,sans-Serif" font-size="10.00">timing.h</text>
</a>
</g>
</g>
<!-- Node1&#45;&gt;Node26 -->
<g id="edge42_Node000001_Node000026" class="edge">
<title>Node1&#45;&gt;Node26</title>
<g id="a_edge42_Node000001_Node000026"><a xlink:title=" ">
<path fill="none" stroke="#63b8ff" d="M471.28,-284.02C392.78,-284.65 190,-281.99 141.5,-239 96.45,-199.06 94.98,-120.02 96.92,-84.07"/>
<polygon fill="#63b8ff" stroke="#63b8ff" points="100.41,-84.24 97.61,-74.02 93.43,-83.75 100.41,-84.24"/>
</a>
</g>
</g>
<!-- Node7&#45;&gt;Node2 -->
<g id="edge7_Node000007_Node000002" class="edge">
<title>Node7&#45;&gt;Node2</title>
<g id="a_edge7_Node000007_Node000002"><a xlink:title=" ">
<path fill="none" stroke="#63b8ff" d="M273.25,-54.98C262.7,-47 246.7,-34.88 234.06,-25.31"/>
<polygon fill="#63b8ff" stroke="#63b8ff" points="236.04,-22.42 225.95,-19.17 231.81,-28 236.04,-22.42"/>
</a>
</g>
</g>
<!-- Node8 -->
<g id="Node000008" class="node">
<title>Node8</title>
<g id="a_Node000008"><a xlink:title=" ">
<polygon fill="#e0e0e0" stroke="#999999" points="329.5,-19 273.5,-19 273.5,0 329.5,0 329.5,-19"/>
<text text-anchor="middle" x="301.5" y="-7" font-family="Helvetica,sans-Serif" font-size="10.00">queue.h</text>
</a>
</g>
</g>
<!-- Node7&#45;&gt;Node8 -->
<g id="edge8_Node000007_Node000008" class="edge">
<title>Node7&#45;&gt;Node8</title>
<g id="a_edge8_Node000007_Node000008"><a xlink:title=" ">
<path fill="none" stroke="#63b8ff" d="M287.31,-54.75C289.56,-47.72 292.8,-37.62 295.62,-28.84"/>
<polygon fill="#63b8ff" stroke="#63b8ff" points="299.02,-29.68 298.75,-19.09 292.36,-27.54 299.02,-29.68"/>
</a>
</g>
</g>
<!-- Node9 -->
<g id="Node000009" class="node">
<title>Node9</title>
<g id="a_Node000009"><a xlink:title=" ">
<polygon fill="#e0e0e0" stroke="#999999" points="401,-19 348,-19 348,0 401,0 401,-19"/>
<text text-anchor="middle" x="374.5" y="-7" font-family="Helvetica,sans-Serif" font-size="10.00">stdint.h</text>
</a>
</g>
</g>
<!-- Node7&#45;&gt;Node9 -->
<g id="edge9_Node000007_Node000009" class="edge">
<title>Node7&#45;&gt;Node9</title>
<g id="a_edge9_Node000007_Node000009"><a xlink:title=" ">
<path fill="none" stroke="#63b8ff" d="M298.96,-54.98C312.92,-46.77 334.29,-34.18 350.75,-24.49"/>
<polygon fill="#63b8ff" stroke="#63b8ff" points="352.94,-27.26 359.78,-19.17 349.38,-21.23 352.94,-27.26"/>
</a>
</g>
</g>
<!-- Node10&#45;&gt;Node3 -->
<g id="edge12_Node000010_Node000003" class="edge">
<title>Node10&#45;&gt;Node3</title>
<g id="a_edge12_Node000010_Node000003"><a xlink:title=" ">
<path fill="none" stroke="#63b8ff" d="M701.81,-219.98C689.67,-211.84 671.14,-199.41 656.75,-189.76"/>
<polygon fill="#63b8ff" stroke="#63b8ff" points="658.68,-186.84 648.42,-184.17 654.78,-192.65 658.68,-186.84"/>
</a>
</g>
</g>
<!-- Node10&#45;&gt;Node4 -->
<g id="edge11_Node000010_Node000004" class="edge">
<title>Node10&#45;&gt;Node4</title>
<g id="a_edge11_Node000010_Node000004"><a xlink:title=" ">
<path fill="none" stroke="#63b8ff" d="M714.5,-219.75C714.5,-212.8 714.5,-202.85 714.5,-194.13"/>
<polygon fill="#63b8ff" stroke="#63b8ff" points="718,-194.09 714.5,-184.09 711,-194.09 718,-194.09"/>
</a>
</g>
</g>
<!-- Node11 -->
<g id="Node000011" class="node">
<title>Node11</title>
<g id="a_Node000011"><a xlink:href="spi_8h.html" target="_top" xlink:title=" ">
<polygon fill="white" stroke="#666666" points="912,-184 823,-184 823,-165 912,-165 912,-184"/>
<text text-anchor="middle" x="867.5" y="-172" font-family="Helvetica,sans-Serif" font-size="10.00">hardware/spi.h</text>
</a>
</g>
</g>
<!-- Node10&#45;&gt;Node11 -->
<g id="edge13_Node000010_Node000011" class="edge">
<title>Node10&#45;&gt;Node11</title>
<g id="a_edge13_Node000010_Node000011"><a xlink:title=" ">
<path fill="none" stroke="#63b8ff" d="M739.08,-219.98C764.55,-211.16 804.54,-197.31 833.13,-187.41"/>
<polygon fill="#63b8ff" stroke="#63b8ff" points="834.42,-190.66 842.73,-184.08 832.13,-184.05 834.42,-190.66"/>
</a>
</g>
</g>
<!-- Node12 -->
<g id="Node000012" class="node">
<title>Node12</title>
<g id="a_Node000012"><a xlink:title=" ">
<polygon fill="#e0e0e0" stroke="#999999" points="1031,-184 930,-184 930,-165 1031,-165 1031,-184"/>
<text text-anchor="middle" x="980.5" y="-172" font-family="Helvetica,sans-Serif" font-size="10.00">hardware/timer.h</text>
</a>
</g>
</g>
<!-- Node10&#45;&gt;Node12 -->
<g id="edge14_Node000010_Node000012" class="edge">
<title>Node10&#45;&gt;Node12</title>
<g id="a_edge14_Node000010_Node000012"><a xlink:title=" ">
<path fill="none" stroke="#63b8ff" d="M745.83,-221.97C749.1,-221.3 752.37,-220.63 755.5,-220 813.92,-208.17 880.94,-194.96 926.54,-186.03"/>
<polygon fill="#63b8ff" stroke="#63b8ff" points="927.36,-189.43 936.5,-184.08 926.01,-182.56 927.36,-189.43"/>
</a>
</g>
</g>
<!-- Node13 -->
<g id="Node000013" class="node">
<title>Node13</title>
<g id="a_Node000013"><a xlink:title=" ">
<polygon fill="#e0e0e0" stroke="#999999" points="804.5,-184 766.5,-184 766.5,-165 804.5,-165 804.5,-184"/>
<text text-anchor="middle" x="785.5" y="-172" font-family="Helvetica,sans-Serif" font-size="10.00">map</text>
</a>
</g>
</g>
<!-- Node10&#45;&gt;Node13 -->
<g id="edge15_Node000010_Node000013" class="edge">
<title>Node10&#45;&gt;Node13</title>
<g id="a_edge15_Node000010_Node000013"><a xlink:title=" ">
<path fill="none" stroke="#63b8ff" d="M725.91,-219.98C736.61,-212 752.84,-199.88 765.66,-190.31"/>
<polygon fill="#63b8ff" stroke="#63b8ff" points="767.97,-192.96 773.89,-184.17 763.78,-187.35 767.97,-192.96"/>
</a>
</g>
</g>
<!-- Node15 -->
<g id="Node000015" class="node">
<title>Node15</title>
<g id="a_Node000015"><a xlink:href="telemetry_8h.html" target="_top" xlink:title="Functions for packaging and queuing telemetry packets for sending.">
<polygon fill="white" stroke="#666666" points="378.5,-184 306.5,-184 306.5,-165 378.5,-165 378.5,-184"/>
<text text-anchor="middle" x="342.5" y="-172" font-family="Helvetica,sans-Serif" font-size="10.00">telemetry.h</text>
</a>
</g>
</g>
<!-- Node14&#45;&gt;Node15 -->
<g id="edge17_Node000014_Node000015" class="edge">
<title>Node14&#45;&gt;Node15</title>
<g id="a_edge17_Node000014_Node000015"><a xlink:title=" ">
<path fill="none" stroke="#63b8ff" d="M530.7,-223.22C497.17,-214.72 430.48,-197.81 386.17,-186.57"/>
<polygon fill="#63b8ff" stroke="#63b8ff" points="386.8,-183.12 376.25,-184.06 385.08,-189.91 386.8,-183.12"/>
</a>
</g>
</g>
<!-- Node22 -->
<g id="Node000022" class="node">
<title>Node22</title>
<g id="a_Node000022"><a xlink:title=" ">
<polygon fill="#e0e0e0" stroke="#999999" points="800.5,-19 738.5,-19 738.5,0 800.5,0 800.5,-19"/>
<text text-anchor="middle" x="769.5" y="-7" font-family="Helvetica,sans-Serif" font-size="10.00">stdbool.h</text>
</a>
</g>
</g>
<!-- Node14&#45;&gt;Node22 -->
<g id="edge33_Node000014_Node000022" class="edge">
<title>Node14&#45;&gt;Node22</title>
<g id="a_edge33_Node000014_Node000022"><a xlink:title=" ">
<path fill="none" stroke="#63b8ff" d="M557.24,-219.89C565.81,-207.3 582.72,-183.37 599.5,-165 650.12,-109.59 718.18,-52.16 750.69,-25.62"/>
<polygon fill="#63b8ff" stroke="#63b8ff" points="752.95,-28.28 758.51,-19.27 748.54,-22.85 752.95,-28.28"/>
</a>
</g>
</g>
<!-- Node15&#45;&gt;Node2 -->
<g id="edge18_Node000015_Node000002" class="edge">
<title>Node15&#45;&gt;Node2</title>
<g id="a_edge18_Node000015_Node000002"><a xlink:title=" ">
<path fill="none" stroke="#63b8ff" d="M309.82,-164.97C290.07,-158.24 265.84,-146.93 250.5,-129 225.78,-100.09 218.03,-54.55 215.61,-29.17"/>
<polygon fill="#63b8ff" stroke="#63b8ff" points="219.08,-28.76 214.82,-19.06 212.1,-29.3 219.08,-28.76"/>
</a>
</g>
</g>
<!-- Node15&#45;&gt;Node8 -->
<g id="edge19_Node000015_Node000008" class="edge">
<title>Node15&#45;&gt;Node8</title>
<g id="a_edge19_Node000015_Node000008"><a xlink:title=" ">
<path fill="none" stroke="#63b8ff" d="M347.51,-164.93C353.99,-152.78 363.95,-129.82 359.5,-110 352.24,-77.66 330.07,-45.49 315.34,-26.82"/>
<polygon fill="#63b8ff" stroke="#63b8ff" points="318.01,-24.57 308.99,-19.02 312.59,-28.99 318.01,-24.57"/>
</a>
</g>
</g>
<!-- Node16 -->
<g id="Node000016" class="node">
<title>Node16</title>
<g id="a_Node000016"><a xlink:href="file__downlink_8h.html" target="_top" xlink:title=" ">
<polygon fill="white" stroke="#666666" points="351,-129 260,-129 260,-110 351,-110 351,-129"/>
<text text-anchor="middle" x="305.5" y="-117" font-family="Helvetica,sans-Serif" font-size="10.00">file_downlink.h</text>
</a>
</g>
</g>
<!-- Node15&#45;&gt;Node16 -->
<g id="edge20_Node000015_Node000016" class="edge">
<title>Node15&#45;&gt;Node16</title>
<g id="a_edge20_Node000015_Node000016"><a xlink:title=" ">
<path fill="none" stroke="#63b8ff" d="M336.39,-164.75C331.22,-157.34 323.65,-146.5 317.31,-137.41"/>
<polygon fill="#63b8ff" stroke="#63b8ff" points="320.09,-135.29 311.5,-129.09 314.35,-139.29 320.09,-135.29"/>
</a>
</g>
</g>
<!-- Node16&#45;&gt;Node2 -->
<g id="edge21_Node000016_Node000002" class="edge">
<title>Node16&#45;&gt;Node2</title>
<g id="a_edge21_Node000016_Node000002"><a xlink:title=" ">
<path fill="none" stroke="#63b8ff" d="M292.09,-109.81C280.15,-101.6 262.73,-88.43 250.5,-74 238.75,-60.13 228.86,-41.87 222.44,-28.49"/>
<polygon fill="#63b8ff" stroke="#63b8ff" points="225.6,-26.98 218.23,-19.37 219.24,-29.91 225.6,-26.98"/>
</a>
</g>
</g>
<!-- Node16&#45;&gt;Node8 -->
<g id="edge22_Node000016_Node000008" class="edge">
<title>Node16&#45;&gt;Node8</title>
<g id="a_edge22_Node000016_Node000008"><a xlink:title=" ">
<path fill="none" stroke="#63b8ff" d="M309.4,-109.89C314.43,-97.7 322.13,-74.7 318.5,-55 316.83,-45.95 313.4,-36.36 310.06,-28.41"/>
<polygon fill="#63b8ff" stroke="#63b8ff" points="313.16,-26.78 305.87,-19.09 306.77,-29.65 313.16,-26.78"/>
</a>
</g>
</g>
<!-- Node17 -->
<g id="Node000017" class="node">
<title>Node17</title>
<g id="a_Node000017"><a xlink:href="filesystem_8h.html" target="_top" xlink:title="Handles file system operations and management.">
<polygon fill="white" stroke="#666666" points="567,-74 490,-74 490,-55 567,-55 567,-74"/>
<text text-anchor="middle" x="528.5" y="-62" font-family="Helvetica,sans-Serif" font-size="10.00">filesystem.h</text>
</a>
</g>
</g>
<!-- Node16&#45;&gt;Node17 -->
<g id="edge23_Node000016_Node000017" class="edge">
<title>Node16&#45;&gt;Node17</title>
<g id="a_edge23_Node000016_Node000017"><a xlink:title=" ">
<path fill="none" stroke="#63b8ff" d="M341.33,-109.98C379.66,-100.87 440.58,-86.4 482.45,-76.45"/>
<polygon fill="#63b8ff" stroke="#63b8ff" points="483.47,-79.8 492.39,-74.08 481.85,-72.99 483.47,-79.8"/>
</a>
</g>
</g>
<!-- Node17&#45;&gt;Node2 -->
<g id="edge24_Node000017_Node000002" class="edge">
<title>Node17&#45;&gt;Node2</title>
<g id="a_edge24_Node000017_Node000002"><a xlink:title=" ">
<path fill="none" stroke="#63b8ff" d="M489.58,-56.96C438.08,-48.3 344.47,-32.54 264.5,-19 263.41,-18.82 262.32,-18.63 261.21,-18.44"/>
<polygon fill="#63b8ff" stroke="#63b8ff" points="261.54,-14.95 251.09,-16.73 260.36,-21.85 261.54,-14.95"/>
</a>
</g>
</g>
<!-- Node17&#45;&gt;Node6 -->
<g id="edge29_Node000017_Node000006" class="edge">
<title>Node17&#45;&gt;Node6</title>
<g id="a_edge29_Node000017_Node000006"><a xlink:title=" ">
<path fill="none" stroke="#63b8ff" d="M489.79,-59.39C423.74,-52.22 285.11,-36.52 168.5,-19 166.29,-18.67 164.03,-18.31 161.74,-17.95"/>
<polygon fill="#63b8ff" stroke="#63b8ff" points="162.14,-14.47 151.7,-16.27 160.99,-21.37 162.14,-14.47"/>
</a>
</g>
</g>
<!-- Node17&#45;&gt;Node8 -->
<g id="edge25_Node000017_Node000008" class="edge">
<title>Node17&#45;&gt;Node8</title>
<g id="a_edge25_Node000017_Node000008"><a xlink:title=" ">
<path fill="none" stroke="#63b8ff" d="M492.03,-54.98C450.23,-45.23 382.05,-29.31 339.58,-19.39"/>
<polygon fill="#63b8ff" stroke="#63b8ff" points="340.17,-15.93 329.64,-17.07 338.58,-22.75 340.17,-15.93"/>
</a>
</g>
</g>
<!-- Node17&#45;&gt;Node9 -->
<g id="edge31_Node000017_Node000009" class="edge">
<title>Node17&#45;&gt;Node9</title>
<g id="a_edge31_Node000017_Node000009"><a xlink:title=" ">
<path fill="none" stroke="#63b8ff" d="M503.76,-54.98C478.13,-46.16 437.87,-32.31 409.09,-22.41"/>
<polygon fill="#63b8ff" stroke="#63b8ff" points="410.03,-19.03 399.44,-19.08 407.75,-25.65 410.03,-19.03"/>
</a>
</g>
</g>
<!-- Node18 -->
<g id="Node000018" class="node">
<title>Node18</title>
<g id="a_Node000018"><a xlink:title=" ">
<polygon fill="#e0e0e0" stroke="#999999" points="466,-19 419,-19 419,0 466,0 466,-19"/>
<text text-anchor="middle" x="442.5" y="-7" font-family="Helvetica,sans-Serif" font-size="10.00">task.h</text>
</a>
</g>
</g>
<!-- Node17&#45;&gt;Node18 -->
<g id="edge26_Node000017_Node000018" class="edge">
<title>Node17&#45;&gt;Node18</title>
<g id="a_edge26_Node000017_Node000018"><a xlink:title=" ">
<path fill="none" stroke="#63b8ff" d="M514.68,-54.98C501.35,-46.77 480.92,-34.18 465.19,-24.49"/>
<polygon fill="#63b8ff" stroke="#63b8ff" points="466.92,-21.44 456.57,-19.17 463.25,-27.4 466.92,-21.44"/>
</a>
</g>
</g>
<!-- Node19 -->
<g id="Node000019" class="node">
<title>Node19</title>
<g id="a_Node000019"><a xlink:title=" ">
<polygon fill="#e0e0e0" stroke="#999999" points="516.5,-19 484.5,-19 484.5,0 516.5,0 516.5,-19"/>
<text text-anchor="middle" x="500.5" y="-7" font-family="Helvetica,sans-Serif" font-size="10.00">ff.h</text>
</a>
</g>
</g>
<!-- Node17&#45;&gt;Node19 -->
<g id="edge27_Node000017_Node000019" class="edge">
<title>Node17&#45;&gt;Node19</title>
<g id="a_edge27_Node000017_Node000019"><a xlink:title=" ">
<path fill="none" stroke="#63b8ff" d="M523.88,-54.75C520.04,-47.49 514.48,-36.95 509.74,-27.98"/>
<polygon fill="#63b8ff" stroke="#63b8ff" points="512.8,-26.3 505.04,-19.09 506.61,-29.57 512.8,-26.3"/>
</a>
</g>
</g>
<!-- Node20 -->
<g id="Node000020" class="node">
<title>Node20</title>
<g id="a_Node000020"><a xlink:href="filesystem__errors_8h.html" target="_top" xlink:title=" ">
<polygon fill="white" stroke="#666666" points="646,-19 535,-19 535,0 646,0 646,-19"/>
<text text-anchor="middle" x="590.5" y="-7" font-family="Helvetica,sans-Serif" font-size="10.00">filesystem_errors.h</text>
</a>
</g>
</g>
<!-- Node17&#45;&gt;Node20 -->
<g id="edge28_Node000017_Node000020" class="edge">
<title>Node17&#45;&gt;Node20</title>
<g id="a_edge28_Node000017_Node000020"><a xlink:title=" ">
<path fill="none" stroke="#63b8ff" d="M538.46,-54.98C547.63,-47.15 561.44,-35.34 572.53,-25.86"/>
<polygon fill="#63b8ff" stroke="#63b8ff" points="575.03,-28.33 580.36,-19.17 570.48,-23.01 575.03,-28.33"/>
</a>
</g>
</g>
<!-- Node21 -->
<g id="Node000021" class="node">
<title>Node21</title>
<g id="a_Node000021"><a xlink:title=" ">
<polygon fill="#e0e0e0" stroke="#999999" points="720.5,-19 664.5,-19 664.5,0 720.5,0 720.5,-19"/>
<text text-anchor="middle" x="692.5" y="-7" font-family="Helvetica,sans-Serif" font-size="10.00">stddef.h</text>
</a>
</g>
</g>
<!-- Node17&#45;&gt;Node21 -->
<g id="edge30_Node000017_Node000021" class="edge">
<title>Node17&#45;&gt;Node21</title>
<g id="a_edge30_Node000017_Node000021"><a xlink:title=" ">
<path fill="none" stroke="#63b8ff" d="M554.85,-54.98C582.26,-46.13 625.39,-32.19 656.06,-22.28"/>
<polygon fill="#63b8ff" stroke="#63b8ff" points="657.5,-25.49 665.94,-19.08 655.35,-18.83 657.5,-25.49"/>
</a>
</g>
</g>
<!-- Node17&#45;&gt;Node22 -->
<g id="edge32_Node000017_Node000022" class="edge">
<title>Node17&#45;&gt;Node22</title>
<g id="a_edge32_Node000017_Node000022"><a xlink:title=" ">
<path fill="none" stroke="#63b8ff" d="M567.22,-54.98C611.29,-45.29 682.99,-29.53 728.13,-19.6"/>
<polygon fill="#63b8ff" stroke="#63b8ff" points="729.15,-22.96 738.17,-17.39 727.65,-16.12 729.15,-22.96"/>
</a>
</g>
</g>
<!-- Node24&#45;&gt;Node5 -->
<g id="edge37_Node000024_Node000005" class="edge">
<title>Node24&#45;&gt;Node5</title>
<g id="a_edge37_Node000024_Node000005"><a xlink:title=" ">
<path fill="none" stroke="#63b8ff" d="M505.06,-164.98C495.35,-157.07 480.68,-145.11 469,-135.58"/>
<polygon fill="#63b8ff" stroke="#63b8ff" points="471.1,-132.78 461.13,-129.17 466.67,-138.2 471.1,-132.78"/>
</a>
</g>
</g>
<!-- Node24&#45;&gt;Node9 -->
<g id="edge36_Node000024_Node000009" class="edge">
<title>Node24&#45;&gt;Node9</title>
<g id="a_edge36_Node000024_Node000009"><a xlink:title=" ">
<path fill="none" stroke="#63b8ff" d="M515.8,-164.86C515.84,-151.81 514.21,-126.8 502.5,-110 485.15,-85.11 468.72,-92.27 444.5,-74 424.79,-59.13 404.06,-39.81 390.33,-26.4"/>
<polygon fill="#63b8ff" stroke="#63b8ff" points="392.68,-23.8 383.11,-19.26 387.76,-28.78 392.68,-23.8"/>
</a>
</g>
</g>
<!-- Node25 -->
<g id="Node000025" class="node">
<title>Node25</title>
<g id="a_Node000025"><a xlink:href="user__auth_8h.html" target="_top" xlink:title=" ">
<polygon fill="white" stroke="#666666" points="623.5,-129 549.5,-129 549.5,-110 623.5,-110 623.5,-129"/>
<text text-anchor="middle" x="586.5" y="-117" font-family="Helvetica,sans-Serif" font-size="10.00">user_auth.h</text>
</a>
</g>
</g>
<!-- Node24&#45;&gt;Node25 -->
<g id="edge38_Node000024_Node000025" class="edge">
<title>Node24&#45;&gt;Node25</title>
<g id="a_edge38_Node000024_Node000025"><a xlink:title=" ">
<path fill="none" stroke="#63b8ff" d="M526.91,-164.98C537.61,-157 553.84,-144.88 566.66,-135.31"/>
<polygon fill="#63b8ff" stroke="#63b8ff" points="568.97,-137.96 574.89,-129.17 564.78,-132.35 568.97,-137.96"/>
</a>
</g>
</g>
<!-- Node25&#45;&gt;Node9 -->
<g id="edge40_Node000025_Node000009" class="edge">
<title>Node25&#45;&gt;Node9</title>
<g id="a_edge40_Node000025_Node000009"><a xlink:title=" ">
<path fill="none" stroke="#63b8ff" d="M563.33,-109.87C541.56,-101.51 508.28,-88.06 480.5,-74 450.32,-58.72 417.11,-38.18 396.05,-24.65"/>
<polygon fill="#63b8ff" stroke="#63b8ff" points="397.84,-21.64 387.54,-19.14 394.03,-27.51 397.84,-21.64"/>
</a>
</g>
</g>
<!-- Node25&#45;&gt;Node17 -->
<g id="edge41_Node000025_Node000017" class="edge">
<title>Node25&#45;&gt;Node17</title>
<g id="a_edge41_Node000025_Node000017"><a xlink:title=" ">
<path fill="none" stroke="#63b8ff" d="M577.18,-109.98C568.69,-102.23 555.94,-90.58 545.62,-81.14"/>
<polygon fill="#63b8ff" stroke="#63b8ff" points="547.73,-78.33 537.99,-74.17 543.01,-83.5 547.73,-78.33"/>
</a>
</g>
</g>
<!-- Node25&#45;&gt;Node22 -->
<g id="edge39_Node000025_Node000022" class="edge">
<title>Node25&#45;&gt;Node22</title>
<g id="a_edge39_Node000025_Node000022"><a xlink:title=" ">
<path fill="none" stroke="#63b8ff" d="M591.27,-109.79C599.16,-96.18 616.17,-69.9 637.5,-55 652.46,-44.55 695.64,-30.96 728.58,-21.56"/>
<polygon fill="#63b8ff" stroke="#63b8ff" points="729.76,-24.87 738.43,-18.79 727.86,-18.13 729.76,-24.87"/>
</a>
</g>
</g>
<!-- Node26&#45;&gt;Node2 -->
<g id="edge43_Node000026_Node000002" class="edge">
<title>Node26&#45;&gt;Node2</title>
<g id="a_edge43_Node000026_Node000002"><a xlink:title=" ">
<path fill="none" stroke="#63b8ff" d="M117.14,-54.98C135.8,-46.46 164.75,-33.23 186.24,-23.41"/>
<polygon fill="#63b8ff" stroke="#63b8ff" points="187.88,-26.51 195.52,-19.17 184.97,-20.14 187.88,-26.51"/>
</a>
</g>
</g>
<!-- Node26&#45;&gt;Node6 -->
<g id="edge45_Node000026_Node000006" class="edge">
<title>Node26&#45;&gt;Node6</title>
<g id="a_edge45_Node000026_Node000006"><a xlink:title=" ">
<path fill="none" stroke="#63b8ff" d="M102.13,-54.75C105.08,-47.65 109.33,-37.4 113.01,-28.56"/>
<polygon fill="#63b8ff" stroke="#63b8ff" points="116.33,-29.67 116.93,-19.09 109.87,-26.98 116.33,-29.67"/>
</a>
</g>
</g>
<!-- Node26&#45;&gt;Node9 -->
<g id="edge44_Node000026_Node000009" class="edge">
<title>Node26&#45;&gt;Node9</title>
<g id="a_edge44_Node000026_Node000009"><a xlink:title=" ">
<path fill="none" stroke="#63b8ff" d="M127.04,-58.67C170.33,-51.24 255.42,-36.26 337.77,-19.06"/>
<polygon fill="#63b8ff" stroke="#63b8ff" points="338.73,-22.44 347.8,-16.96 337.29,-15.59 338.73,-22.44"/>
</a>
</g>
</g>
<!-- Node27 -->
<g id="Node000027" class="node">
<title>Node27</title>
<g id="a_Node000027"><a xlink:title=" ">
<polygon fill="#e0e0e0" stroke="#999999" points="71,-19 0,-19 0,0 71,0 71,-19"/>
<text text-anchor="middle" x="35.5" y="-7" font-family="Helvetica,sans-Serif" font-size="10.00">pico/time.h</text>
</a>
</g>
</g>
<!-- Node26&#45;&gt;Node27 -->
<g id="edge46_Node000026_Node000027" class="edge">
<title>Node26&#45;&gt;Node27</title>
<g id="a_edge46_Node000026_Node000027"><a xlink:title=" ">
<path fill="none" stroke="#63b8ff" d="M88.38,-54.98C79.06,-47.15 65.03,-35.34 53.76,-25.86"/>
<polygon fill="#63b8ff" stroke="#63b8ff" points="55.71,-22.93 45.81,-19.17 51.21,-28.29 55.71,-22.93"/>
</a>
</g>
</g>
</g>
</svg>
