<?xml version="1.0" encoding="UTF-8" standalone="no"?>
<!DOCTYPE svg PUBLIC "-//W3C//DTD SVG 1.1//EN"
 "http://www.w3.org/Graphics/SVG/1.1/DTD/svg11.dtd">
<!-- Generated by graphviz version 2.43.0 (0)
 -->
<!-- Title: rtc_test Pages: 1 -->
<svg width="361pt" height="360pt"
 viewBox="0.00 0.00 361.00 360.00" xmlns="http://www.w3.org/2000/svg" xmlns:xlink="http://www.w3.org/1999/xlink">
<g id="graph0" class="graph" transform="scale(1 1) rotate(0) translate(4 356)">
<title>rtc_test</title>
<!-- Node1 -->
<g id="Node000001" class="node">
<title>Node1</title>
<g id="a_Node000001"><a xlink:title="Test RTC functions.">
<polygon fill="#999999" stroke="#666666" points="53,-185 0,-185 0,-166 53,-166 53,-185"/>
<text text-anchor="middle" x="26.5" y="-173" font-family="Helvetica,sans-Serif" font-size="10.00">rtc_test</text>
</a>
</g>
</g>
<!-- Node2 -->
<g id="Node000002" class="node">
<title>Node2</title>
<g id="a_Node000002"><a xlink:href="i2c_8c.html#a5d09de7ed47b30c0948eb1f363cb836c" target="_top" xlink:title="Configure i2c0 speed and pins.">
<polygon fill="white" stroke="#666666" points="174,-352 103,-352 103,-333 174,-333 174,-352"/>
<text text-anchor="middle" x="138.5" y="-340" font-family="Helvetica,sans-Serif" font-size="10.00">config_i2c1</text>
</a>
</g>
</g>
<!-- Node1&#45;&gt;Node2 -->
<g id="edge1_Node000001_Node000002" class="edge">
<title>Node1&#45;&gt;Node2</title>
<g id="a_edge1_Node000001_Node000002"><a xlink:title=" ">
<path fill="none" stroke="#63b8ff" d="M28.81,-185.37C32.83,-211.68 47.31,-284.28 89,-324.5 90.45,-325.9 92.03,-327.2 93.69,-328.39"/>
<polygon fill="#63b8ff" stroke="#63b8ff" points="92.16,-331.56 102.56,-333.58 95.7,-325.51 92.16,-331.56"/>
</a>
</g>
</g>
<!-- Node3 -->
<g id="Node000003" class="node">
<title>Node3</title>
<g id="a_Node000003"><a xlink:href="rtc__ds3231_8c.html#a4d9ecc8e912cc84cd50c842a8d69e70e" target="_top" xlink:title=" ">
<polygon fill="white" stroke="#666666" points="177,-315 100,-315 100,-296 177,-296 177,-315"/>
<text text-anchor="middle" x="138.5" y="-303" font-family="Helvetica,sans-Serif" font-size="10.00">rtc_get_date</text>
</a>
</g>
</g>
<!-- Node1&#45;&gt;Node3 -->
<g id="edge2_Node000001_Node000003" class="edge">
<title>Node1&#45;&gt;Node3</title>
<g id="a_edge2_Node000001_Node000003"><a xlink:title=" ">
<path fill="none" stroke="#63b8ff" d="M30.22,-185.07C36.77,-206.46 55.41,-258.51 89,-287.5 90.36,-288.67 91.79,-289.77 93.29,-290.79"/>
<polygon fill="#63b8ff" stroke="#63b8ff" points="91.99,-294.08 102.42,-295.96 95.44,-287.99 91.99,-294.08"/>
</a>
</g>
</g>
<!-- Node5 -->
<g id="Node000005" class="node">
<title>Node5</title>
<g id="a_Node000005"><a xlink:href="rtc__ds3231_8c.html#a50130551fb17b3228d45e86ff7b634c3" target="_top" xlink:title=" ">
<polygon fill="white" stroke="#666666" points="177,-278 100,-278 100,-259 177,-259 177,-278"/>
<text text-anchor="middle" x="138.5" y="-266" font-family="Helvetica,sans-Serif" font-size="10.00">rtc_get_hour</text>
</a>
</g>
</g>
<!-- Node1&#45;&gt;Node5 -->
<g id="edge4_Node000001_Node000005" class="edge">
<title>Node1&#45;&gt;Node5</title>
<g id="a_edge4_Node000001_Node000005"><a xlink:title=" ">
<path fill="none" stroke="#63b8ff" d="M33.06,-185.18C42.59,-200.96 63.5,-232.31 89,-250.5 90.9,-251.86 92.92,-253.12 95,-254.3"/>
<polygon fill="#63b8ff" stroke="#63b8ff" points="93.95,-257.69 104.47,-258.95 97.04,-251.4 93.95,-257.69"/>
</a>
</g>
</g>
<!-- Node6 -->
<g id="Node000006" class="node">
<title>Node6</title>
<g id="a_Node000006"><a xlink:href="rtc__ds3231_8c.html#a37b2be869bea794d2fdfa8869baaa26d" target="_top" xlink:title=" ">
<polygon fill="white" stroke="#666666" points="183.5,-241 93.5,-241 93.5,-222 183.5,-222 183.5,-241"/>
<text text-anchor="middle" x="138.5" y="-229" font-family="Helvetica,sans-Serif" font-size="10.00">rtc_get_minute</text>
</a>
</g>
</g>
<!-- Node1&#45;&gt;Node6 -->
<g id="edge6_Node000001_Node000006" class="edge">
<title>Node1&#45;&gt;Node6</title>
<g id="a_edge6_Node000001_Node000006"><a xlink:title=" ">
<path fill="none" stroke="#63b8ff" d="M41.22,-185.07C53.39,-193.3 71.86,-205.13 89,-213.5 92.34,-215.13 95.88,-216.71 99.45,-218.2"/>
<polygon fill="#63b8ff" stroke="#63b8ff" points="98.31,-221.52 108.89,-221.95 100.89,-215.01 98.31,-221.52"/>
</a>
</g>
</g>
<!-- Node7 -->
<g id="Node000007" class="node">
<title>Node7</title>
<g id="a_Node000007"><a xlink:href="rtc__ds3231_8c.html#a21b982cbe42fb3a2a10755cc9cb1f3f8" target="_top" xlink:title=" ">
<polygon fill="white" stroke="#666666" points="182,-204 95,-204 95,-185 182,-185 182,-204"/>
<text text-anchor="middle" x="138.5" y="-192" font-family="Helvetica,sans-Serif" font-size="10.00">rtc_get_month</text>
</a>
</g>
</g>
<!-- Node1&#45;&gt;Node7 -->
<g id="edge8_Node000001_Node000007" class="edge">
<title>Node1&#45;&gt;Node7</title>
<g id="a_edge8_Node000001_Node000007"><a xlink:title=" ">
<path fill="none" stroke="#63b8ff" d="M53.01,-179.91C62.54,-181.55 73.74,-183.49 84.81,-185.4"/>
<polygon fill="#63b8ff" stroke="#63b8ff" points="84.44,-188.89 94.89,-187.14 85.63,-181.99 84.44,-188.89"/>
</a>
</g>
</g>
<!-- Node8 -->
<g id="Node000008" class="node">
<title>Node8</title>
<g id="a_Node000008"><a xlink:href="rtc__ds3231_8c.html#a663d94e64990cdf62b9f4f740b94bfab" target="_top" xlink:title=" ">
<polygon fill="white" stroke="#666666" points="183.5,-167 93.5,-167 93.5,-148 183.5,-148 183.5,-167"/>
<text text-anchor="middle" x="138.5" y="-155" font-family="Helvetica,sans-Serif" font-size="10.00">rtc_get_second</text>
</a>
</g>
</g>
<!-- Node1&#45;&gt;Node8 -->
<g id="edge10_Node000001_Node000008" class="edge">
<title>Node1&#45;&gt;Node8</title>
<g id="a_edge10_Node000001_Node000008"><a xlink:title=" ">
<path fill="none" stroke="#63b8ff" d="M53.01,-171.33C62.05,-169.85 72.61,-168.12 83.13,-166.4"/>
<polygon fill="#63b8ff" stroke="#63b8ff" points="83.85,-169.83 93.16,-164.76 82.72,-162.92 83.85,-169.83"/>
</a>
</g>
</g>
<!-- Node9 -->
<g id="Node000009" class="node">
<title>Node9</title>
<g id="a_Node000009"><a xlink:href="rtc__ds3231_8c.html#a787d50004f6b318e952f813800188f89" target="_top" xlink:title="Reads temp (C) from RTC and writes it to [output].">
<polygon fill="white" stroke="#666666" points="179,-130 98,-130 98,-111 179,-111 179,-130"/>
<text text-anchor="middle" x="138.5" y="-118" font-family="Helvetica,sans-Serif" font-size="10.00">rtc_get_temp</text>
</a>
</g>
</g>
<!-- Node1&#45;&gt;Node9 -->
<g id="edge12_Node000001_Node000009" class="edge">
<title>Node1&#45;&gt;Node9</title>
<g id="a_edge12_Node000001_Node000009"><a xlink:title=" ">
<path fill="none" stroke="#63b8ff" d="M42.3,-165.95C54.54,-158.27 72.52,-147.49 89,-139.5 93.05,-137.54 97.35,-135.62 101.66,-133.81"/>
<polygon fill="#63b8ff" stroke="#63b8ff" points="103.05,-137.02 111,-130.02 100.42,-130.53 103.05,-137.02"/>
</a>
</g>
</g>
<!-- Node10 -->
<g id="Node000010" class="node">
<title>Node10</title>
<g id="a_Node000010"><a xlink:href="rtc__ds3231_8c.html#ab763e064ad555e3e2b0f21d4e78c0d76" target="_top" xlink:title=" ">
<polygon fill="white" stroke="#666666" points="177,-93 100,-93 100,-74 177,-74 177,-93"/>
<text text-anchor="middle" x="138.5" y="-81" font-family="Helvetica,sans-Serif" font-size="10.00">rtc_get_year</text>
</a>
</g>
</g>
<!-- Node1&#45;&gt;Node10 -->
<g id="edge14_Node000001_Node000010" class="edge">
<title>Node1&#45;&gt;Node10</title>
<g id="a_edge14_Node000001_Node000010"><a xlink:title=" ">
<path fill="none" stroke="#63b8ff" d="M33.48,-165.64C43.29,-150.21 64.22,-120.27 89,-102.5 91.53,-100.69 94.25,-99.02 97.07,-97.49"/>
<polygon fill="#63b8ff" stroke="#63b8ff" points="98.79,-100.55 106.3,-93.06 95.77,-94.23 98.79,-100.55"/>
</a>
</g>
</g>
<!-- Node11 -->
<g id="Node000011" class="node">
<title>Node11</title>
<g id="a_Node000011"><a xlink:href="rtc__ds3231_8c.html#a2c6c198dcdf9a137429432320e626cd0" target="_top" xlink:title="Set the RTC&#39;s date and time, assumes 24h input.">
<polygon fill="white" stroke="#666666" points="177,-19 100,-19 100,0 177,0 177,-19"/>
<text text-anchor="middle" x="138.5" y="-7" font-family="Helvetica,sans-Serif" font-size="10.00">rtc_set_time</text>
</a>
</g>
</g>
<!-- Node1&#45;&gt;Node11 -->
<g id="edge16_Node000001_Node000011" class="edge">
<title>Node1&#45;&gt;Node11</title>
<g id="a_edge16_Node000001_Node000011"><a xlink:title=" ">
<path fill="none" stroke="#63b8ff" d="M28.9,-165.8C33.11,-139.93 48.05,-68.53 89,-28.5 90.46,-27.08 92.03,-25.76 93.69,-24.54"/>
<polygon fill="#63b8ff" stroke="#63b8ff" points="95.81,-27.35 102.57,-19.19 92.2,-21.35 95.81,-27.35"/>
</a>
</g>
</g>
<!-- Node13 -->
<g id="Node000013" class="node">
<title>Node13</title>
<g id="a_Node000013"><a xlink:href="rtc__ds3231_8c.html#a20e96ec4aa615b2c3921058dc539b14a" target="_top" xlink:title="Manually updates value in temp register. RTC auto&#45;updates the temp every 64 seconds.">
<polygon fill="white" stroke="#666666" points="188,-56 89,-56 89,-37 188,-37 188,-56"/>
<text text-anchor="middle" x="138.5" y="-44" font-family="Helvetica,sans-Serif" font-size="10.00">rtc_update_temp</text>
</a>
</g>
</g>
<!-- Node1&#45;&gt;Node13 -->
<g id="edge18_Node000001_Node000013" class="edge">
<title>Node1&#45;&gt;Node13</title>
<g id="a_edge18_Node000001_Node000013"><a xlink:title=" ">
<path fill="none" stroke="#63b8ff" d="M30.41,-165.82C37.23,-144.71 56.19,-94.12 89,-65.5 90.91,-63.84 92.98,-62.31 95.15,-60.91"/>
<polygon fill="#63b8ff" stroke="#63b8ff" points="96.84,-63.98 103.94,-56.11 93.48,-57.83 96.84,-63.98"/>
</a>
</g>
</g>
<!-- Node4 -->
<g id="Node000004" class="node">
<title>Node4</title>
<g id="a_Node000004"><a xlink:href="i2c_8c.html#afd489cf93d14a907e09132068de8e1c9" target="_top" xlink:title="Write [reg] byte to i2c device and then read [nbytes] from it. Read bytes are stored in [buf].">
<polygon fill="white" stroke="#666666" points="353,-185 224,-185 224,-166 353,-166 353,-185"/>
<text text-anchor="middle" x="288.5" y="-173" font-family="Helvetica,sans-Serif" font-size="10.00">i2c_read_from_register</text>
</a>
</g>
</g>
<!-- Node3&#45;&gt;Node4 -->
<g id="edge3_Node000003_Node000004" class="edge">
<title>Node3&#45;&gt;Node4</title>
<g id="a_edge3_Node000003_Node000004"><a xlink:title=" ">
<path fill="none" stroke="#63b8ff" d="M172.16,-295.9C177.68,-293.58 183.18,-290.8 188,-287.5 226.07,-261.46 259.15,-217.75 275.88,-193.35"/>
<polygon fill="#63b8ff" stroke="#63b8ff" points="278.8,-195.27 281.46,-185.02 272.99,-191.37 278.8,-195.27"/>
</a>
</g>
</g>
<!-- Node5&#45;&gt;Node4 -->
<g id="edge5_Node000005_Node000004" class="edge">
<title>Node5&#45;&gt;Node4</title>
<g id="a_edge5_Node000005_Node000004"><a xlink:title=" ">
<path fill="none" stroke="#63b8ff" d="M169.34,-258.98C175.66,-256.54 182.17,-253.69 188,-250.5 218.58,-233.77 250.09,-208.38 269.24,-191.87"/>
<polygon fill="#63b8ff" stroke="#63b8ff" points="271.67,-194.39 276.89,-185.17 267.06,-189.13 271.67,-194.39"/>
</a>
</g>
</g>
<!-- Node6&#45;&gt;Node4 -->
<g id="edge7_Node000006_Node000004" class="edge">
<title>Node6&#45;&gt;Node4</title>
<g id="a_edge7_Node000006_Node000004"><a xlink:title=" ">
<path fill="none" stroke="#63b8ff" d="M165.44,-221.92C172.74,-219.21 180.69,-216.25 188,-213.5 209.66,-205.34 233.93,-196.08 253.08,-188.74"/>
<polygon fill="#63b8ff" stroke="#63b8ff" points="254.5,-191.94 262.58,-185.09 251.99,-185.41 254.5,-191.94"/>
</a>
</g>
</g>
<!-- Node7&#45;&gt;Node4 -->
<g id="edge9_Node000007_Node000004" class="edge">
<title>Node7&#45;&gt;Node4</title>
<g id="a_edge9_Node000007_Node000004"><a xlink:title=" ">
<path fill="none" stroke="#63b8ff" d="M182.31,-189C192.24,-187.73 203.1,-186.34 213.94,-184.94"/>
<polygon fill="#63b8ff" stroke="#63b8ff" points="214.39,-188.41 223.86,-183.67 213.5,-181.47 214.39,-188.41"/>
</a>
</g>
</g>
<!-- Node8&#45;&gt;Node4 -->
<g id="edge11_Node000008_Node000004" class="edge">
<title>Node8&#45;&gt;Node4</title>
<g id="a_edge11_Node000008_Node000004"><a xlink:title=" ">
<path fill="none" stroke="#63b8ff" d="M183.5,-162.85C193.13,-164.02 203.56,-165.29 213.98,-166.56"/>
<polygon fill="#63b8ff" stroke="#63b8ff" points="213.6,-170.04 223.95,-167.77 214.44,-163.09 213.6,-170.04"/>
</a>
</g>
</g>
<!-- Node9&#45;&gt;Node4 -->
<g id="edge13_Node000009_Node000004" class="edge">
<title>Node9&#45;&gt;Node4</title>
<g id="a_edge13_Node000009_Node000004"><a xlink:title=" ">
<path fill="none" stroke="#63b8ff" d="M165.28,-130.08C189.33,-139.02 225.4,-152.42 252.13,-162.36"/>
<polygon fill="#63b8ff" stroke="#63b8ff" points="250.93,-165.64 261.52,-165.84 253.36,-159.08 250.93,-165.64"/>
</a>
</g>
</g>
<!-- Node10&#45;&gt;Node4 -->
<g id="edge15_Node000010_Node000004" class="edge">
<title>Node10&#45;&gt;Node4</title>
<g id="a_edge15_Node000010_Node000004"><a xlink:title=" ">
<path fill="none" stroke="#63b8ff" d="M167.51,-93.05C174.37,-95.77 181.58,-98.97 188,-102.5 218.08,-119.06 249.5,-143.5 268.79,-159.46"/>
<polygon fill="#63b8ff" stroke="#63b8ff" points="266.6,-162.19 276.51,-165.94 271.1,-156.83 266.6,-162.19"/>
</a>
</g>
</g>
<!-- Node12 -->
<g id="Node000012" class="node">
<title>Node12</title>
<g id="a_Node000012"><a xlink:href="i2c_8c.html#a73f9c3581b5d48d5db9c6c445034a970" target="_top" xlink:title="Write [reg] and [buf] to i2c device, [reg] is just inserted before [buf].">
<polygon fill="white" stroke="#666666" points="348,-38 229,-38 229,-19 348,-19 348,-38"/>
<text text-anchor="middle" x="288.5" y="-26" font-family="Helvetica,sans-Serif" font-size="10.00">i2c_write_to_register</text>
</a>
</g>
</g>
<!-- Node11&#45;&gt;Node12 -->
<g id="edge17_Node000011_Node000012" class="edge">
<title>Node11&#45;&gt;Node12</title>
<g id="a_edge17_Node000011_Node000012"><a xlink:title=" ">
<path fill="none" stroke="#63b8ff" d="M177.23,-14.34C189.84,-15.96 204.32,-17.82 218.55,-19.65"/>
<polygon fill="#63b8ff" stroke="#63b8ff" points="218.47,-23.17 228.83,-20.97 219.36,-16.22 218.47,-23.17"/>
</a>
</g>
</g>
<!-- Node13&#45;&gt;Node4 -->
<g id="edge19_Node000013_Node000004" class="edge">
<title>Node13&#45;&gt;Node4</title>
<g id="a_edge19_Node000013_Node000004"><a xlink:title=" ">
<path fill="none" stroke="#63b8ff" d="M170.35,-56.1C176.46,-58.68 182.64,-61.8 188,-65.5 225.22,-91.21 258.22,-133.44 275.25,-157.4"/>
<polygon fill="#63b8ff" stroke="#63b8ff" points="272.58,-159.69 281.17,-165.9 278.33,-155.69 272.58,-159.69"/>
</a>
</g>
</g>
<!-- Node13&#45;&gt;Node12 -->
<g id="edge20_Node000013_Node000012" class="edge">
<title>Node13&#45;&gt;Node12</title>
<g id="a_edge20_Node000013_Node000012"><a xlink:title=" ">
<path fill="none" stroke="#63b8ff" d="M188.37,-40.56C198.1,-39.37 208.48,-38.11 218.73,-36.86"/>
<polygon fill="#63b8ff" stroke="#63b8ff" points="219.39,-40.31 228.9,-35.63 218.55,-33.36 219.39,-40.31"/>
</a>
</g>
</g>
</g>
</svg>
