<?xml version="1.0" encoding="UTF-8" standalone="no"?>
<!DOCTYPE svg PUBLIC "-//W3C//DTD SVG 1.1//EN"
 "http://www.w3.org/Graphics/SVG/1.1/DTD/svg11.dtd">
<!-- Generated by graphviz version 2.43.0 (0)
 -->
<!-- Title: rtc_ds3231.c Pages: 1 -->
<svg width="715pt" height="302pt"
 viewBox="0.00 0.00 714.50 302.00" xmlns="http://www.w3.org/2000/svg" xmlns:xlink="http://www.w3.org/1999/xlink">
<g id="graph0" class="graph" transform="scale(1 1) rotate(0) translate(4 298)">
<title>rtc_ds3231.c</title>
<!-- Node1 -->
<g id="Node000001" class="node">
<title>Node1</title>
<g id="a_Node000001"><a xlink:title=" ">
<polygon fill="#999999" stroke="#666666" points="212.5,-294 134.5,-294 134.5,-275 212.5,-275 212.5,-294"/>
<text text-anchor="middle" x="173.5" y="-282" font-family="Helvetica,sans-Serif" font-size="10.00">rtc_ds3231.c</text>
</a>
</g>
</g>
<!-- Node2 -->
<g id="Node000002" class="node">
<title>Node2</title>
<g id="a_Node000002"><a xlink:href="rtc__ds3231_8h.html" target="_top" xlink:title="DS3231 Real Time Clock Driver.">
<polygon fill="white" stroke="#666666" points="79,-129 0,-129 0,-110 79,-110 79,-129"/>
<text text-anchor="middle" x="39.5" y="-117" font-family="Helvetica,sans-Serif" font-size="10.00">rtc_ds3231.h</text>
</a>
</g>
</g>
<!-- Node1&#45;&gt;Node2 -->
<g id="edge1_Node000001_Node000002" class="edge">
<title>Node1&#45;&gt;Node2</title>
<g id="a_edge1_Node000001_Node000002"><a xlink:title=" ">
<path fill="none" stroke="#63b8ff" d="M149.51,-274.91C132.07,-267.63 108.91,-255.7 93.5,-239 66.38,-209.62 50.96,-164.29 44.02,-139.06"/>
<polygon fill="#63b8ff" stroke="#63b8ff" points="47.38,-138.1 41.48,-129.3 40.61,-139.86 47.38,-138.1"/>
</a>
</g>
</g>
<!-- Node3 -->
<g id="Node000003" class="node">
<title>Node3</title>
<g id="a_Node000003"><a xlink:href="simulator_2pico-sdk_2hardware_2i2c_8h.html" target="_top" xlink:title=" ">
<polygon fill="white" stroke="#666666" points="152,-74 63,-74 63,-55 152,-55 152,-74"/>
<text text-anchor="middle" x="107.5" y="-62" font-family="Helvetica,sans-Serif" font-size="10.00">hardware/i2c.h</text>
</a>
</g>
</g>
<!-- Node1&#45;&gt;Node3 -->
<g id="edge7_Node000001_Node000003" class="edge">
<title>Node1&#45;&gt;Node3</title>
<g id="a_edge7_Node000001_Node000003"><a xlink:title=" ">
<path fill="none" stroke="#63b8ff" d="M159.85,-274.69C148.84,-266.78 134,-254.1 126.5,-239 100.94,-187.53 102.82,-117.11 105.52,-84.06"/>
<polygon fill="#63b8ff" stroke="#63b8ff" points="109.01,-84.3 106.46,-74.02 102.04,-83.64 109.01,-84.3"/>
</a>
</g>
</g>
<!-- Node7 -->
<g id="Node000007" class="node">
<title>Node7</title>
<g id="a_Node000007"><a xlink:href="stdlib_8h.html" target="_top" xlink:title=" ">
<polygon fill="white" stroke="#666666" points="211.5,-239 135.5,-239 135.5,-220 211.5,-220 211.5,-239"/>
<text text-anchor="middle" x="173.5" y="-227" font-family="Helvetica,sans-Serif" font-size="10.00">pico/stdlib.h</text>
</a>
</g>
</g>
<!-- Node1&#45;&gt;Node7 -->
<g id="edge8_Node000001_Node000007" class="edge">
<title>Node1&#45;&gt;Node7</title>
<g id="a_edge8_Node000001_Node000007"><a xlink:title=" ">
<path fill="none" stroke="#63b8ff" d="M173.5,-274.75C173.5,-267.8 173.5,-257.85 173.5,-249.13"/>
<polygon fill="#63b8ff" stroke="#63b8ff" points="177,-249.09 173.5,-239.09 170,-249.09 177,-249.09"/>
</a>
</g>
</g>
<!-- Node8 -->
<g id="Node000008" class="node">
<title>Node8</title>
<g id="a_Node000008"><a xlink:title=" ">
<polygon fill="#e0e0e0" stroke="#999999" points="269.5,-239 229.5,-239 229.5,-220 269.5,-220 269.5,-239"/>
<text text-anchor="middle" x="249.5" y="-227" font-family="Helvetica,sans-Serif" font-size="10.00">i2c.h</text>
</a>
</g>
</g>
<!-- Node1&#45;&gt;Node8 -->
<g id="edge9_Node000001_Node000008" class="edge">
<title>Node1&#45;&gt;Node8</title>
<g id="a_edge9_Node000001_Node000008"><a xlink:title=" ">
<path fill="none" stroke="#63b8ff" d="M185.71,-274.98C197.28,-266.92 214.88,-254.65 228.66,-245.03"/>
<polygon fill="#63b8ff" stroke="#63b8ff" points="230.87,-247.76 237.07,-239.17 226.86,-242.02 230.87,-247.76"/>
</a>
</g>
</g>
<!-- Node9 -->
<g id="Node000009" class="node">
<title>Node9</title>
<g id="a_Node000009"><a xlink:href="log_8h.html" target="_top" xlink:title=" ">
<polygon fill="white" stroke="#666666" points="329,-239 288,-239 288,-220 329,-220 329,-239"/>
<text text-anchor="middle" x="308.5" y="-227" font-family="Helvetica,sans-Serif" font-size="10.00">log.h</text>
</a>
</g>
</g>
<!-- Node1&#45;&gt;Node9 -->
<g id="edge10_Node000001_Node000009" class="edge">
<title>Node1&#45;&gt;Node9</title>
<g id="a_edge10_Node000001_Node000009"><a xlink:title=" ">
<path fill="none" stroke="#63b8ff" d="M195.19,-274.98C217.69,-266.15 253.06,-252.27 278.29,-242.36"/>
<polygon fill="#63b8ff" stroke="#63b8ff" points="279.72,-245.56 287.75,-238.65 277.16,-239.04 279.72,-245.56"/>
</a>
</g>
</g>
<!-- Node2&#45;&gt;Node3 -->
<g id="edge2_Node000002_Node000003" class="edge">
<title>Node2&#45;&gt;Node3</title>
<g id="a_edge2_Node000002_Node000003"><a xlink:title=" ">
<path fill="none" stroke="#63b8ff" d="M50.43,-109.98C60.58,-102.07 75.92,-90.11 88.15,-80.58"/>
<polygon fill="#63b8ff" stroke="#63b8ff" points="90.64,-83.08 96.38,-74.17 86.34,-77.56 90.64,-83.08"/>
</a>
</g>
</g>
<!-- Node4 -->
<g id="Node000004" class="node">
<title>Node4</title>
<g id="a_Node000004"><a xlink:title=" ">
<polygon fill="#e0e0e0" stroke="#999999" points="61,-19 8,-19 8,0 61,0 61,-19"/>
<text text-anchor="middle" x="34.5" y="-7" font-family="Helvetica,sans-Serif" font-size="10.00">stdint.h</text>
</a>
</g>
</g>
<!-- Node2&#45;&gt;Node4 -->
<g id="edge6_Node000002_Node000004" class="edge">
<title>Node2&#45;&gt;Node4</title>
<g id="a_edge6_Node000002_Node000004"><a xlink:title=" ">
<path fill="none" stroke="#63b8ff" d="M39.09,-109.66C38.28,-92.17 36.46,-52.8 35.37,-29.27"/>
<polygon fill="#63b8ff" stroke="#63b8ff" points="38.86,-28.99 34.9,-19.16 31.87,-29.31 38.86,-28.99"/>
</a>
</g>
</g>
<!-- Node3&#45;&gt;Node4 -->
<g id="edge3_Node000003_Node000004" class="edge">
<title>Node3&#45;&gt;Node4</title>
<g id="a_edge3_Node000003_Node000004"><a xlink:title=" ">
<path fill="none" stroke="#63b8ff" d="M95.77,-54.98C84.77,-47 68.08,-34.88 54.9,-25.31"/>
<polygon fill="#63b8ff" stroke="#63b8ff" points="56.59,-22.21 46.44,-19.17 52.48,-27.88 56.59,-22.21"/>
</a>
</g>
</g>
<!-- Node5 -->
<g id="Node000005" class="node">
<title>Node5</title>
<g id="a_Node000005"><a xlink:title=" ">
<polygon fill="#e0e0e0" stroke="#999999" points="135.5,-19 79.5,-19 79.5,0 135.5,0 135.5,-19"/>
<text text-anchor="middle" x="107.5" y="-7" font-family="Helvetica,sans-Serif" font-size="10.00">stddef.h</text>
</a>
</g>
</g>
<!-- Node3&#45;&gt;Node5 -->
<g id="edge4_Node000003_Node000005" class="edge">
<title>Node3&#45;&gt;Node5</title>
<g id="a_edge4_Node000003_Node000005"><a xlink:title=" ">
<path fill="none" stroke="#63b8ff" d="M107.5,-54.75C107.5,-47.8 107.5,-37.85 107.5,-29.13"/>
<polygon fill="#63b8ff" stroke="#63b8ff" points="111,-29.09 107.5,-19.09 104,-29.09 111,-29.09"/>
</a>
</g>
</g>
<!-- Node6 -->
<g id="Node000006" class="node">
<title>Node6</title>
<g id="a_Node000006"><a xlink:title=" ">
<polygon fill="#e0e0e0" stroke="#999999" points="215.5,-19 153.5,-19 153.5,0 215.5,0 215.5,-19"/>
<text text-anchor="middle" x="184.5" y="-7" font-family="Helvetica,sans-Serif" font-size="10.00">stdbool.h</text>
</a>
</g>
</g>
<!-- Node3&#45;&gt;Node6 -->
<g id="edge5_Node000003_Node000006" class="edge">
<title>Node3&#45;&gt;Node6</title>
<g id="a_edge5_Node000003_Node000006"><a xlink:title=" ">
<path fill="none" stroke="#63b8ff" d="M119.87,-54.98C131.59,-46.92 149.42,-34.65 163.39,-25.03"/>
<polygon fill="#63b8ff" stroke="#63b8ff" points="165.65,-27.72 171.9,-19.17 161.68,-21.96 165.65,-27.72"/>
</a>
</g>
</g>
<!-- Node9&#45;&gt;Node6 -->
<g id="edge27_Node000009_Node000006" class="edge">
<title>Node9&#45;&gt;Node6</title>
<g id="a_edge27_Node000009_Node000006"><a xlink:title=" ">
<path fill="none" stroke="#63b8ff" d="M303.64,-219.95C285.24,-187.61 219.63,-72.26 194.45,-27.98"/>
<polygon fill="#63b8ff" stroke="#63b8ff" points="197.45,-26.19 189.46,-19.22 191.36,-29.65 197.45,-26.19"/>
</a>
</g>
</g>
<!-- Node10 -->
<g id="Node000010" class="node">
<title>Node10</title>
<g id="a_Node000010"><a xlink:href="telemetry_8h.html" target="_top" xlink:title="Functions for packaging and queuing telemetry packets for sending.">
<polygon fill="white" stroke="#666666" points="605.5,-184 533.5,-184 533.5,-165 605.5,-165 605.5,-184"/>
<text text-anchor="middle" x="569.5" y="-172" font-family="Helvetica,sans-Serif" font-size="10.00">telemetry.h</text>
</a>
</g>
</g>
<!-- Node9&#45;&gt;Node10 -->
<g id="edge11_Node000009_Node000010" class="edge">
<title>Node9&#45;&gt;Node10</title>
<g id="a_edge11_Node000009_Node000010"><a xlink:title=" ">
<path fill="none" stroke="#63b8ff" d="M329.42,-224.25C371.3,-215.75 466.32,-196.45 523.46,-184.85"/>
<polygon fill="#63b8ff" stroke="#63b8ff" points="524.22,-188.27 533.32,-182.85 522.83,-181.41 524.22,-188.27"/>
</a>
</g>
</g>
<!-- Node11 -->
<g id="Node000011" class="node">
<title>Node11</title>
<g id="a_Node000011"><a xlink:title=" ">
<polygon fill="#e0e0e0" stroke="#999999" points="632,-19 559,-19 559,0 632,0 632,-19"/>
<text text-anchor="middle" x="595.5" y="-7" font-family="Helvetica,sans-Serif" font-size="10.00">FreeRTOS.h</text>
</a>
</g>
</g>
<!-- Node10&#45;&gt;Node11 -->
<g id="edge12_Node000010_Node000011" class="edge">
<title>Node10&#45;&gt;Node11</title>
<g id="a_edge12_Node000010_Node000011"><a xlink:title=" ">
<path fill="none" stroke="#63b8ff" d="M573.66,-164.87C577.69,-156.07 583.61,-141.91 586.5,-129 594.25,-94.4 595.65,-52.84 595.73,-29.27"/>
<polygon fill="#63b8ff" stroke="#63b8ff" points="599.23,-29.23 595.69,-19.25 592.23,-29.26 599.23,-29.23"/>
</a>
</g>
</g>
<!-- Node12 -->
<g id="Node000012" class="node">
<title>Node12</title>
<g id="a_Node000012"><a xlink:title=" ">
<polygon fill="#e0e0e0" stroke="#999999" points="706.5,-19 650.5,-19 650.5,0 706.5,0 706.5,-19"/>
<text text-anchor="middle" x="678.5" y="-7" font-family="Helvetica,sans-Serif" font-size="10.00">queue.h</text>
</a>
</g>
</g>
<!-- Node10&#45;&gt;Node12 -->
<g id="edge13_Node000010_Node000012" class="edge">
<title>Node10&#45;&gt;Node12</title>
<g id="a_edge13_Node000010_Node000012"><a xlink:title=" ">
<path fill="none" stroke="#63b8ff" d="M576,-164.72C582.55,-155.81 592.91,-141.57 601.5,-129 625.74,-93.56 652.82,-51.2 667.53,-27.94"/>
<polygon fill="#63b8ff" stroke="#63b8ff" points="670.66,-29.54 673.03,-19.22 664.74,-25.81 670.66,-29.54"/>
</a>
</g>
</g>
<!-- Node13 -->
<g id="Node000013" class="node">
<title>Node13</title>
<g id="a_Node000013"><a xlink:href="file__downlink_8h.html" target="_top" xlink:title=" ">
<polygon fill="white" stroke="#666666" points="577,-129 486,-129 486,-110 577,-110 577,-129"/>
<text text-anchor="middle" x="531.5" y="-117" font-family="Helvetica,sans-Serif" font-size="10.00">file_downlink.h</text>
</a>
</g>
</g>
<!-- Node10&#45;&gt;Node13 -->
<g id="edge14_Node000010_Node000013" class="edge">
<title>Node10&#45;&gt;Node13</title>
<g id="a_edge14_Node000010_Node000013"><a xlink:title=" ">
<path fill="none" stroke="#63b8ff" d="M563.23,-164.75C557.91,-157.34 550.14,-146.5 543.62,-137.41"/>
<polygon fill="#63b8ff" stroke="#63b8ff" points="546.33,-135.18 537.66,-129.09 540.64,-139.26 546.33,-135.18"/>
</a>
</g>
</g>
<!-- Node13&#45;&gt;Node11 -->
<g id="edge15_Node000013_Node000011" class="edge">
<title>Node13&#45;&gt;Node11</title>
<g id="a_edge15_Node000013_Node000011"><a xlink:title=" ">
<path fill="none" stroke="#63b8ff" d="M533.48,-109.8C536.62,-97.1 543.54,-73.04 554.5,-55 560.88,-44.5 569.99,-34.3 578.01,-26.32"/>
<polygon fill="#63b8ff" stroke="#63b8ff" points="580.7,-28.59 585.51,-19.15 575.86,-23.53 580.7,-28.59"/>
</a>
</g>
</g>
<!-- Node13&#45;&gt;Node12 -->
<g id="edge16_Node000013_Node000012" class="edge">
<title>Node13&#45;&gt;Node12</title>
<g id="a_edge16_Node000013_Node000012"><a xlink:title=" ">
<path fill="none" stroke="#63b8ff" d="M543.28,-109.84C568.33,-91.44 627.14,-48.23 658.3,-25.34"/>
<polygon fill="#63b8ff" stroke="#63b8ff" points="660.68,-27.94 666.66,-19.2 656.53,-22.3 660.68,-27.94"/>
</a>
</g>
</g>
<!-- Node14 -->
<g id="Node000014" class="node">
<title>Node14</title>
<g id="a_Node000014"><a xlink:href="filesystem_8h.html" target="_top" xlink:title="Handles file system operations and management.">
<polygon fill="white" stroke="#666666" points="430,-74 353,-74 353,-55 430,-55 430,-74"/>
<text text-anchor="middle" x="391.5" y="-62" font-family="Helvetica,sans-Serif" font-size="10.00">filesystem.h</text>
</a>
</g>
</g>
<!-- Node13&#45;&gt;Node14 -->
<g id="edge17_Node000013_Node000014" class="edge">
<title>Node13&#45;&gt;Node14</title>
<g id="a_edge17_Node000013_Node000014"><a xlink:title=" ">
<path fill="none" stroke="#63b8ff" d="M509.01,-109.98C485.98,-101.27 449.96,-87.63 423.87,-77.75"/>
<polygon fill="#63b8ff" stroke="#63b8ff" points="424.99,-74.44 414.4,-74.17 422.52,-80.98 424.99,-74.44"/>
</a>
</g>
</g>
<!-- Node14&#45;&gt;Node4 -->
<g id="edge25_Node000014_Node000004" class="edge">
<title>Node14&#45;&gt;Node4</title>
<g id="a_edge25_Node000014_Node000004"><a xlink:title=" ">
<path fill="none" stroke="#63b8ff" d="M352.77,-59.32C294.08,-52.74 178.95,-38.8 71.24,-18.97"/>
<polygon fill="#63b8ff" stroke="#63b8ff" points="71.65,-15.48 61.18,-17.09 70.37,-22.37 71.65,-15.48"/>
</a>
</g>
</g>
<!-- Node14&#45;&gt;Node5 -->
<g id="edge24_Node000014_Node000005" class="edge">
<title>Node14&#45;&gt;Node5</title>
<g id="a_edge24_Node000014_Node000005"><a xlink:title=" ">
<path fill="none" stroke="#63b8ff" d="M352.89,-57.13C306.18,-49.29 224.93,-35.25 145.88,-19.21"/>
<polygon fill="#63b8ff" stroke="#63b8ff" points="146.25,-15.71 135.75,-17.14 144.85,-22.57 146.25,-15.71"/>
</a>
</g>
</g>
<!-- Node14&#45;&gt;Node6 -->
<g id="edge26_Node000014_Node000006" class="edge">
<title>Node14&#45;&gt;Node6</title>
<g id="a_edge26_Node000014_Node000006"><a xlink:title=" ">
<path fill="none" stroke="#63b8ff" d="M358.24,-54.98C322.15,-45.74 264.49,-30.98 225.59,-21.02"/>
<polygon fill="#63b8ff" stroke="#63b8ff" points="226.2,-17.56 215.64,-18.47 224.46,-24.35 226.2,-17.56"/>
</a>
</g>
</g>
<!-- Node14&#45;&gt;Node11 -->
<g id="edge18_Node000014_Node000011" class="edge">
<title>Node14&#45;&gt;Node11</title>
<g id="a_edge18_Node000014_Node000011"><a xlink:title=" ">
<path fill="none" stroke="#63b8ff" d="M424.28,-54.98C459.12,-45.93 514.37,-31.58 552.64,-21.64"/>
<polygon fill="#63b8ff" stroke="#63b8ff" points="553.67,-24.98 562.47,-19.08 551.91,-18.21 553.67,-24.98"/>
</a>
</g>
</g>
<!-- Node14&#45;&gt;Node12 -->
<g id="edge19_Node000014_Node000012" class="edge">
<title>Node14&#45;&gt;Node12</title>
<g id="a_edge19_Node000014_Node000012"><a xlink:title=" ">
<path fill="none" stroke="#63b8ff" d="M430.16,-57.23C477.36,-49.44 559.86,-35.39 639.99,-19.23"/>
<polygon fill="#63b8ff" stroke="#63b8ff" points="641.15,-22.56 650.25,-17.14 639.75,-15.7 641.15,-22.56"/>
</a>
</g>
</g>
<!-- Node15 -->
<g id="Node000015" class="node">
<title>Node15</title>
<g id="a_Node000015"><a xlink:title=" ">
<polygon fill="#e0e0e0" stroke="#999999" points="541,-19 494,-19 494,0 541,0 541,-19"/>
<text text-anchor="middle" x="517.5" y="-7" font-family="Helvetica,sans-Serif" font-size="10.00">task.h</text>
</a>
</g>
</g>
<!-- Node14&#45;&gt;Node15 -->
<g id="edge20_Node000014_Node000015" class="edge">
<title>Node14&#45;&gt;Node15</title>
<g id="a_edge20_Node000014_Node000015"><a xlink:title=" ">
<path fill="none" stroke="#63b8ff" d="M411.74,-54.98C432.2,-46.38 464.03,-32.99 487.43,-23.15"/>
<polygon fill="#63b8ff" stroke="#63b8ff" points="489.03,-26.27 496.89,-19.17 486.31,-19.82 489.03,-26.27"/>
</a>
</g>
</g>
<!-- Node16 -->
<g id="Node000016" class="node">
<title>Node16</title>
<g id="a_Node000016"><a xlink:title=" ">
<polygon fill="#e0e0e0" stroke="#999999" points="265.5,-19 233.5,-19 233.5,0 265.5,0 265.5,-19"/>
<text text-anchor="middle" x="249.5" y="-7" font-family="Helvetica,sans-Serif" font-size="10.00">ff.h</text>
</a>
</g>
</g>
<!-- Node14&#45;&gt;Node16 -->
<g id="edge21_Node000014_Node000016" class="edge">
<title>Node14&#45;&gt;Node16</title>
<g id="a_edge21_Node000014_Node000016"><a xlink:title=" ">
<path fill="none" stroke="#63b8ff" d="M368.69,-54.98C343.1,-45.44 301.72,-29.99 275.06,-20.04"/>
<polygon fill="#63b8ff" stroke="#63b8ff" points="276.23,-16.74 265.63,-16.52 273.78,-23.3 276.23,-16.74"/>
</a>
</g>
</g>
<!-- Node17 -->
<g id="Node000017" class="node">
<title>Node17</title>
<g id="a_Node000017"><a xlink:href="filesystem__errors_8h.html" target="_top" xlink:title=" ">
<polygon fill="white" stroke="#666666" points="395,-19 284,-19 284,0 395,0 395,-19"/>
<text text-anchor="middle" x="339.5" y="-7" font-family="Helvetica,sans-Serif" font-size="10.00">filesystem_errors.h</text>
</a>
</g>
</g>
<!-- Node14&#45;&gt;Node17 -->
<g id="edge22_Node000014_Node000017" class="edge">
<title>Node14&#45;&gt;Node17</title>
<g id="a_edge22_Node000014_Node000017"><a xlink:title=" ">
<path fill="none" stroke="#63b8ff" d="M382.91,-54.75C375.34,-47.03 364.12,-35.6 354.99,-26.28"/>
<polygon fill="#63b8ff" stroke="#63b8ff" points="357.43,-23.78 347.93,-19.09 352.43,-28.68 357.43,-23.78"/>
</a>
</g>
</g>
<!-- Node18 -->
<g id="Node000018" class="node">
<title>Node18</title>
<g id="a_Node000018"><a xlink:title=" ">
<polygon fill="#e0e0e0" stroke="#999999" points="475.5,-19 413.5,-19 413.5,0 475.5,0 475.5,-19"/>
<text text-anchor="middle" x="444.5" y="-7" font-family="Helvetica,sans-Serif" font-size="10.00">semphr.h</text>
</a>
</g>
</g>
<!-- Node14&#45;&gt;Node18 -->
<g id="edge23_Node000014_Node000018" class="edge">
<title>Node14&#45;&gt;Node18</title>
<g id="a_edge23_Node000014_Node000018"><a xlink:title=" ">
<path fill="none" stroke="#63b8ff" d="M400.25,-54.75C407.97,-47.03 419.4,-35.6 428.72,-26.28"/>
<polygon fill="#63b8ff" stroke="#63b8ff" points="431.31,-28.64 435.91,-19.09 426.36,-23.69 431.31,-28.64"/>
</a>
</g>
</g>
</g>
</svg>
