<?xml version="1.0" encoding="UTF-8" standalone="no"?>
<!DOCTYPE svg PUBLIC "-//W3C//DTD SVG 1.1//EN"
 "http://www.w3.org/Graphics/SVG/1.1/DTD/svg11.dtd">
<!-- Generated by graphviz version 12.1.2 (20240928.0832)
 -->
<!-- Title: rtc_ds3231.c Pages: 1 -->
<svg width="392pt" height="196pt"
 viewBox="0.00 0.00 392.38 196.00" xmlns="http://www.w3.org/2000/svg" xmlns:xlink="http://www.w3.org/1999/xlink">

<svg id="main" version="1.1" xmlns="http://www.w3.org/2000/svg" xmlns:xlink="http://www.w3.org/1999/xlink" xml:space="preserve">

<style type="text/css"><![CDATA[
.node, .edge {opacity: 0.7;}
.node.selected, .edge.selected {opacity: 1;}
.edge:hover path { stroke: red; }
.edge:hover polygon { stroke: red; fill: red; }
]]></style>
<script type="application/ecmascript" xlink:href="svg.min.js"/>
<svg id="graph" class="graph">
<g id="graph0" class="graph" transform="scale(1 1) rotate(0) translate(4 192)">
<title>rtc_ds3231.c</title>
<!-- Node1 -->
<g id="Node000001" class="node">
<title>Node1</title>
<g id="a_Node000001"><a xlink:title=" ">
<polygon fill="#999999" stroke="#666666" points="198.25,-188 126,-188 126,-168 198.25,-168 198.25,-188"/>
<text text-anchor="middle" x="162.12" y="-174.5" font-family="Helvetica,sans-Serif" font-size="10.00">rtc_ds3231.c</text>
</a>
</g>
</g>
<!-- Node2 -->
<g id="Node000002" class="node">
<title>Node2</title>
<g id="a_Node000002"><a xlink:href="rtc__ds3231_8h.html" target="_top" xlink:title=" ">
<polygon fill="white" stroke="#666666" points="72.25,-132 0,-132 0,-112 72.25,-112 72.25,-132"/>
<text text-anchor="middle" x="36.12" y="-118.5" font-family="Helvetica,sans-Serif" font-size="10.00">rtc_ds3231.h</text>
</a>
</g>
</g>
<!-- Node1&#45;&gt;Node2 -->
<g id="edge1_Node000001_Node000002" class="edge">
<title>Node1&#45;&gt;Node2</title>
<g id="a_edge1_Node000001_Node000002"><a xlink:title=" ">
<path fill="none" stroke="#63b8ff" d="M140.18,-167.59C120.42,-159.13 91.13,-146.58 68.66,-136.94"/>
<polygon fill="#63b8ff" stroke="#63b8ff" points="70.21,-133.8 59.63,-133.08 67.45,-140.23 70.21,-133.8"/>
</a>
</g>
</g>
<!-- Node3 -->
<g id="Node000003" class="node">
<title>Node3</title>
<g id="a_Node000003"><a xlink:href="simulator_2pico-sdk_2hardware_2i2c_8h.html" target="_top" xlink:title=" ">
<polygon fill="white" stroke="#666666" points="142,-76 62.25,-76 62.25,-56 142,-56 142,-76"/>
<text text-anchor="middle" x="102.12" y="-62.5" font-family="Helvetica,sans-Serif" font-size="10.00">hardware/i2c.h</text>
</a>
</g>
</g>
<!-- Node1&#45;&gt;Node3 -->
<g id="edge7_Node000001_Node000003" class="edge">
<title>Node1&#45;&gt;Node3</title>
<g id="a_edge7_Node000001_Node000003"><a xlink:title=" ">
<path fill="none" stroke="#63b8ff" d="M150.18,-167.52C140.43,-159.17 127.03,-146.15 119.12,-132 111.45,-118.26 107.15,-100.96 104.79,-87.65"/>
<polygon fill="#63b8ff" stroke="#63b8ff" points="108.27,-87.24 103.31,-77.87 101.34,-88.29 108.27,-87.24"/>
</a>
</g>
</g>
<!-- Node7 -->
<g id="Node000007" class="node">
<title>Node7</title>
<g id="a_Node000007"><a xlink:href="stdlib_8h.html" target="_top" xlink:title=" ">
<polygon fill="white" stroke="#666666" points="196.38,-132 127.88,-132 127.88,-112 196.38,-112 196.38,-132"/>
<text text-anchor="middle" x="162.12" y="-118.5" font-family="Helvetica,sans-Serif" font-size="10.00">pico/stdlib.h</text>
</a>
</g>
</g>
<!-- Node1&#45;&gt;Node7 -->
<g id="edge8_Node000001_Node000007" class="edge">
<title>Node1&#45;&gt;Node7</title>
<g id="a_edge8_Node000001_Node000007"><a xlink:title=" ">
<path fill="none" stroke="#63b8ff" d="M162.12,-167.59C162.12,-161.01 162.12,-151.96 162.12,-143.73"/>
<polygon fill="#63b8ff" stroke="#63b8ff" points="165.63,-143.81 162.13,-133.81 158.63,-143.81 165.63,-143.81"/>
</a>
</g>
</g>
<!-- Node8 -->
<g id="Node000008" class="node">
<title>Node8</title>
<g id="a_Node000008"><a xlink:title=" ">
<polygon fill="#e0e0e0" stroke="#999999" points="251.62,-132 214.62,-132 214.62,-112 251.62,-112 251.62,-132"/>
<text text-anchor="middle" x="233.12" y="-118.5" font-family="Helvetica,sans-Serif" font-size="10.00">i2c.h</text>
</a>
</g>
</g>
<!-- Node1&#45;&gt;Node8 -->
<g id="edge9_Node000001_Node000008" class="edge">
<title>Node1&#45;&gt;Node8</title>
<g id="a_edge9_Node000001_Node000008"><a xlink:title=" ">
<path fill="none" stroke="#63b8ff" d="M174.49,-167.59C184.77,-159.77 199.64,-148.46 211.84,-139.19"/>
<polygon fill="#63b8ff" stroke="#63b8ff" points="213.85,-142.05 219.69,-133.21 209.62,-136.48 213.85,-142.05"/>
</a>
</g>
</g>
<!-- Node9 -->
<g id="Node000009" class="node">
<title>Node9</title>
<g id="a_Node000009"><a xlink:href="log_8h.html" target="_top" xlink:title=" ">
<polygon fill="white" stroke="#666666" points="306.62,-132 269.62,-132 269.62,-112 306.62,-112 306.62,-132"/>
<text text-anchor="middle" x="288.12" y="-118.5" font-family="Helvetica,sans-Serif" font-size="10.00">log.h</text>
</a>
</g>
</g>
<!-- Node1&#45;&gt;Node9 -->
<g id="edge10_Node000001_Node000009" class="edge">
<title>Node1&#45;&gt;Node9</title>
<g id="a_edge10_Node000001_Node000009"><a xlink:title=" ">
<path fill="none" stroke="#63b8ff" d="M184.07,-167.59C204.8,-158.71 236.01,-145.33 258.85,-135.55"/>
<polygon fill="#63b8ff" stroke="#63b8ff" points="260.1,-138.82 267.91,-131.66 257.34,-132.38 260.1,-138.82"/>
</a>
</g>
</g>
<!-- Node2&#45;&gt;Node3 -->
<g id="edge2_Node000002_Node000003" class="edge">
<title>Node2&#45;&gt;Node3</title>
<g id="a_edge2_Node000002_Node000003"><a xlink:title=" ">
<path fill="none" stroke="#63b8ff" d="M47.62,-111.59C57.09,-103.85 70.73,-92.69 82,-83.47"/>
<polygon fill="#63b8ff" stroke="#63b8ff" points="84.07,-86.3 89.59,-77.26 79.63,-80.88 84.07,-86.3"/>
</a>
</g>
</g>
<!-- Node4 -->
<g id="Node000004" class="node">
<title>Node4</title>
<g id="a_Node000004"><a xlink:title=" ">
<polygon fill="#e0e0e0" stroke="#999999" points="58.25,-20 10,-20 10,0 58.25,0 58.25,-20"/>
<text text-anchor="middle" x="34.12" y="-6.5" font-family="Helvetica,sans-Serif" font-size="10.00">stdint.h</text>
</a>
</g>
</g>
<!-- Node2&#45;&gt;Node4 -->
<g id="edge6_Node000002_Node000004" class="edge">
<title>Node2&#45;&gt;Node4</title>
<g id="a_edge6_Node000002_Node000004"><a xlink:title=" ">
<path fill="none" stroke="#63b8ff" d="M35.95,-111.62C35.63,-94.01 34.94,-55.59 34.5,-31.65"/>
<polygon fill="#63b8ff" stroke="#63b8ff" points="38,-31.8 34.32,-21.87 31.01,-31.93 38,-31.8"/>
</a>
</g>
</g>
<!-- Node3&#45;&gt;Node4 -->
<g id="edge3_Node000003_Node000004" class="edge">
<title>Node3&#45;&gt;Node4</title>
<g id="a_edge3_Node000003_Node000004"><a xlink:title=" ">
<path fill="none" stroke="#63b8ff" d="M90.28,-55.59C80.43,-47.77 66.19,-36.46 54.52,-27.19"/>
<polygon fill="#63b8ff" stroke="#63b8ff" points="57.03,-24.72 47.02,-21.24 52.67,-30.2 57.03,-24.72"/>
</a>
</g>
</g>
<!-- Node5 -->
<g id="Node000005" class="node">
<title>Node5</title>
<g id="a_Node000005"><a xlink:title=" ">
<polygon fill="#e0e0e0" stroke="#999999" points="127.75,-20 76.5,-20 76.5,0 127.75,0 127.75,-20"/>
<text text-anchor="middle" x="102.12" y="-6.5" font-family="Helvetica,sans-Serif" font-size="10.00">stddef.h</text>
</a>
</g>
</g>
<!-- Node3&#45;&gt;Node5 -->
<g id="edge4_Node000003_Node000005" class="edge">
<title>Node3&#45;&gt;Node5</title>
<g id="a_edge4_Node000003_Node000005"><a xlink:title=" ">
<path fill="none" stroke="#63b8ff" d="M102.12,-55.59C102.12,-49.01 102.12,-39.96 102.12,-31.73"/>
<polygon fill="#63b8ff" stroke="#63b8ff" points="105.63,-31.81 102.13,-21.81 98.63,-31.81 105.63,-31.81"/>
</a>
</g>
</g>
<!-- Node6 -->
<g id="Node000006" class="node">
<title>Node6</title>
<g id="a_Node000006"><a xlink:title=" ">
<polygon fill="#e0e0e0" stroke="#999999" points="211,-20 155.25,-20 155.25,0 211,0 211,-20"/>
<text text-anchor="middle" x="183.12" y="-6.5" font-family="Helvetica,sans-Serif" font-size="10.00">stdbool.h</text>
</a>
</g>
</g>
<!-- Node3&#45;&gt;Node6 -->
<g id="edge5_Node000003_Node000006" class="edge">
<title>Node3&#45;&gt;Node6</title>
<g id="a_edge5_Node000003_Node000006"><a xlink:title=" ">
<path fill="none" stroke="#63b8ff" d="M116.23,-55.59C128.12,-47.67 145.39,-36.16 159.4,-26.82"/>
<polygon fill="#63b8ff" stroke="#63b8ff" points="161.27,-29.78 167.65,-21.32 157.38,-23.95 161.27,-29.78"/>
</a>
</g>
</g>
<!-- Node9&#45;&gt;Node6 -->
<g id="edge14_Node000009_Node000006" class="edge">
<title>Node9&#45;&gt;Node6</title>
<g id="a_edge14_Node000009_Node000006"><a xlink:title=" ">
<path fill="none" stroke="#63b8ff" d="M279.17,-111.62C261.58,-93.19 222.27,-52.01 199.77,-28.44"/>
<polygon fill="#63b8ff" stroke="#63b8ff" points="202.54,-26.27 193.1,-21.45 197.47,-31.1 202.54,-26.27"/>
</a>
</g>
</g>
<!-- Node10 -->
<g id="Node000010" class="node">
<title>Node10</title>
<g id="a_Node000010"><a xlink:href="telemetry_8h.html" target="_top" xlink:title=" ">
<polygon fill="white" stroke="#666666" points="320.12,-76 256.12,-76 256.12,-56 320.12,-56 320.12,-76"/>
<text text-anchor="middle" x="288.12" y="-62.5" font-family="Helvetica,sans-Serif" font-size="10.00">telemetry.h</text>
</a>
</g>
</g>
<!-- Node9&#45;&gt;Node10 -->
<g id="edge11_Node000009_Node000010" class="edge">
<title>Node9&#45;&gt;Node10</title>
<g id="a_edge11_Node000009_Node000010"><a xlink:title=" ">
<path fill="none" stroke="#63b8ff" d="M288.12,-111.59C288.12,-105.01 288.12,-95.96 288.12,-87.73"/>
<polygon fill="#63b8ff" stroke="#63b8ff" points="291.63,-87.81 288.13,-77.81 284.63,-87.81 291.63,-87.81"/>
</a>
</g>
</g>
<!-- Node11 -->
<g id="Node000011" class="node">
<title>Node11</title>
<g id="a_Node000011"><a xlink:title=" ">
<polygon fill="#e0e0e0" stroke="#999999" points="315.5,-20 244.75,-20 244.75,0 315.5,0 315.5,-20"/>
<text text-anchor="middle" x="280.12" y="-6.5" font-family="Helvetica,sans-Serif" font-size="10.00">FreeRTOS.h</text>
</a>
</g>
</g>
<!-- Node10&#45;&gt;Node11 -->
<g id="edge12_Node000010_Node000011" class="edge">
<title>Node10&#45;&gt;Node11</title>
<g id="a_edge12_Node000010_Node000011"><a xlink:title=" ">
<path fill="none" stroke="#63b8ff" d="M286.73,-55.59C285.74,-48.93 284.38,-39.75 283.15,-31.44"/>
<polygon fill="#63b8ff" stroke="#63b8ff" points="286.65,-31.17 281.72,-21.8 279.73,-32.2 286.65,-31.17"/>
</a>
</g>
</g>
<!-- Node12 -->
<g id="Node000012" class="node">
<title>Node12</title>
<g id="a_Node000012"><a xlink:title=" ">
<polygon fill="#e0e0e0" stroke="#999999" points="384.38,-20 333.88,-20 333.88,0 384.38,0 384.38,-20"/>
<text text-anchor="middle" x="359.12" y="-6.5" font-family="Helvetica,sans-Serif" font-size="10.00">queue.h</text>
</a>
</g>
</g>
<!-- Node10&#45;&gt;Node12 -->
<g id="edge13_Node000010_Node000012" class="edge">
<title>Node10&#45;&gt;Node12</title>
<g id="a_edge13_Node000010_Node000012"><a xlink:title=" ">
<path fill="none" stroke="#63b8ff" d="M300.49,-55.59C310.77,-47.77 325.64,-36.46 337.84,-27.19"/>
<polygon fill="#63b8ff" stroke="#63b8ff" points="339.85,-30.05 345.69,-21.21 335.62,-24.48 339.85,-30.05"/>
</a>
</g>
</g>
</g>
</svg>
</svg>

<style type='text/css'>
<![CDATA[
[data-mouse-over-selected='false'] { opacity: 0.7; }
[data-mouse-over-selected='true']  { opacity: 1.0; }
]]>
</style>
<script type="application/ecmascript"><![CDATA[
document.addEventListener('DOMContentLoaded', (event) => {
  highlightEdges();
  highlightAdjacentNodes();
});
]]></script>
</svg>
