<?xml version="1.0" encoding="UTF-8" standalone="no"?>
<!DOCTYPE svg PUBLIC "-//W3C//DTD SVG 1.1//EN"
 "http://www.w3.org/Graphics/SVG/1.1/DTD/svg11.dtd">
<!-- Generated by graphviz version 12.1.2 (20240928.0832)
 -->
<!-- Title: rtc_test Pages: 1 -->
<svg width="333pt" height="370pt"
 viewBox="0.00 0.00 332.75 370.00" xmlns="http://www.w3.org/2000/svg" xmlns:xlink="http://www.w3.org/1999/xlink">
<g id="graph0" class="graph" transform="scale(1 1) rotate(0) translate(4 366)">
<title>rtc_test</title>
<!-- Node1 -->
<g id="Node000001" class="node">
<title>Node1</title>
<g id="a_Node000001"><a xlink:title=" ">
<polygon fill="#999999" stroke="#666666" points="49,-191 0,-191 0,-171 49,-171 49,-191"/>
<text text-anchor="middle" x="24.5" y="-177.5" font-family="Helvetica,sans-Serif" font-size="10.00">rtc_test</text>
</a>
</g>
</g>
<!-- Node2 -->
<g id="Node000002" class="node">
<title>Node2</title>
<g id="a_Node000002"><a xlink:href="i2c_8c.html#a5d09de7ed47b30c0948eb1f363cb836c" target="_top" xlink:title=" ">
<polygon fill="white" stroke="#666666" points="162.12,-362 96.62,-362 96.62,-342 162.12,-342 162.12,-362"/>
<text text-anchor="middle" x="129.38" y="-348.5" font-family="Helvetica,sans-Serif" font-size="10.00">config_i2c1</text>
</a>
</g>
</g>
<!-- Node1&#45;&gt;Node2 -->
<g id="edge1_Node000001_Node000002" class="edge">
<title>Node1&#45;&gt;Node2</title>
<g id="a_edge1_Node000001_Node000002"><a xlink:title=" ">
<path fill="none" stroke="#63b8ff" d="M26.79,-191.31C30.67,-218.13 44.55,-290.91 85,-333 85.72,-333.75 86.48,-334.48 87.27,-335.17"/>
<polygon fill="#63b8ff" stroke="#63b8ff" points="85.15,-337.96 95.36,-340.79 89.14,-332.21 85.15,-337.96"/>
</a>
</g>
</g>
<!-- Node3 -->
<g id="Node000003" class="node">
<title>Node3</title>
<g id="a_Node000003"><a xlink:href="rtc__ds3231_8c.html#a4d9ecc8e912cc84cd50c842a8d69e70e" target="_top" xlink:title=" ">
<polygon fill="white" stroke="#666666" points="164.38,-324 94.38,-324 94.38,-304 164.38,-304 164.38,-324"/>
<text text-anchor="middle" x="129.38" y="-310.5" font-family="Helvetica,sans-Serif" font-size="10.00">rtc_get_date</text>
</a>
</g>
</g>
<!-- Node1&#45;&gt;Node3 -->
<g id="edge2_Node000001_Node000003" class="edge">
<title>Node1&#45;&gt;Node3</title>
<g id="a_edge2_Node000001_Node000003"><a xlink:title=" ">
<path fill="none" stroke="#63b8ff" d="M28.3,-191.26C34.77,-213.13 52.7,-264.83 85,-295 85.9,-295.84 86.85,-296.65 87.83,-297.43"/>
<polygon fill="#63b8ff" stroke="#63b8ff" points="85.79,-300.28 96.1,-302.74 89.58,-294.39 85.79,-300.28"/>
</a>
</g>
</g>
<!-- Node5 -->
<g id="Node000005" class="node">
<title>Node5</title>
<g id="a_Node000005"><a xlink:href="rtc__ds3231_8c.html#a50130551fb17b3228d45e86ff7b634c3" target="_top" xlink:title=" ">
<polygon fill="white" stroke="#666666" points="164.38,-286 94.38,-286 94.38,-266 164.38,-266 164.38,-286"/>
<text text-anchor="middle" x="129.38" y="-272.5" font-family="Helvetica,sans-Serif" font-size="10.00">rtc_get_hour</text>
</a>
</g>
</g>
<!-- Node1&#45;&gt;Node5 -->
<g id="edge4_Node000001_Node000005" class="edge">
<title>Node1&#45;&gt;Node5</title>
<g id="a_edge4_Node000001_Node000005"><a xlink:title=" ">
<path fill="none" stroke="#63b8ff" d="M31.34,-191.43C40.78,-207.45 60.77,-238.21 85,-257 86.47,-258.14 88.03,-259.23 89.63,-260.27"/>
<polygon fill="#63b8ff" stroke="#63b8ff" points="87.49,-263.08 97.93,-264.9 90.9,-256.97 87.49,-263.08"/>
</a>
</g>
</g>
<!-- Node6 -->
<g id="Node000006" class="node">
<title>Node6</title>
<g id="a_Node000006"><a xlink:href="rtc__ds3231_8c.html#a37b2be869bea794d2fdfa8869baaa26d" target="_top" xlink:title=" ">
<polygon fill="white" stroke="#666666" points="169.62,-248 89.12,-248 89.12,-228 169.62,-228 169.62,-248"/>
<text text-anchor="middle" x="129.38" y="-234.5" font-family="Helvetica,sans-Serif" font-size="10.00">rtc_get_minute</text>
</a>
</g>
</g>
<!-- Node1&#45;&gt;Node6 -->
<g id="edge6_Node000001_Node000006" class="edge">
<title>Node1&#45;&gt;Node6</title>
<g id="a_edge6_Node000001_Node000006"><a xlink:title=" ">
<path fill="none" stroke="#63b8ff" d="M40.27,-191.35C52.08,-199.39 69.22,-210.57 85,-219 87.39,-220.27 89.88,-221.54 92.4,-222.77"/>
<polygon fill="#63b8ff" stroke="#63b8ff" points="90.91,-225.93 101.46,-226.96 93.86,-219.58 90.91,-225.93"/>
</a>
</g>
</g>
<!-- Node7 -->
<g id="Node000007" class="node">
<title>Node7</title>
<g id="a_Node000007"><a xlink:href="rtc__ds3231_8c.html#a21b982cbe42fb3a2a10755cc9cb1f3f8" target="_top" xlink:title=" ">
<polygon fill="white" stroke="#666666" points="168.5,-210 90.25,-210 90.25,-190 168.5,-190 168.5,-210"/>
<text text-anchor="middle" x="129.38" y="-196.5" font-family="Helvetica,sans-Serif" font-size="10.00">rtc_get_month</text>
</a>
</g>
</g>
<!-- Node1&#45;&gt;Node7 -->
<g id="edge8_Node000001_Node000007" class="edge">
<title>Node1&#45;&gt;Node7</title>
<g id="a_edge8_Node000001_Node000007"><a xlink:title=" ">
<path fill="none" stroke="#63b8ff" d="M49.36,-185.41C58.25,-187.05 68.71,-188.98 79.05,-190.89"/>
<polygon fill="#63b8ff" stroke="#63b8ff" points="78.18,-194.29 88.65,-192.66 79.45,-187.41 78.18,-194.29"/>
</a>
</g>
</g>
<!-- Node8 -->
<g id="Node000008" class="node">
<title>Node8</title>
<g id="a_Node000008"><a xlink:href="rtc__ds3231_8c.html#a663d94e64990cdf62b9f4f740b94bfab" target="_top" xlink:title=" ">
<polygon fill="white" stroke="#666666" points="170.75,-172 88,-172 88,-152 170.75,-152 170.75,-172"/>
<text text-anchor="middle" x="129.38" y="-158.5" font-family="Helvetica,sans-Serif" font-size="10.00">rtc_get_second</text>
</a>
</g>
</g>
<!-- Node1&#45;&gt;Node8 -->
<g id="edge10_Node000001_Node000008" class="edge">
<title>Node1&#45;&gt;Node8</title>
<g id="a_edge10_Node000001_Node000008"><a xlink:title=" ">
<path fill="none" stroke="#63b8ff" d="M49.36,-176.59C57.55,-175.08 67.07,-173.32 76.6,-171.56"/>
<polygon fill="#63b8ff" stroke="#63b8ff" points="77.03,-175.04 86.23,-169.78 75.76,-168.16 77.03,-175.04"/>
</a>
</g>
</g>
<!-- Node9 -->
<g id="Node000009" class="node">
<title>Node9</title>
<g id="a_Node000009"><a xlink:href="rtc__ds3231_8c.html#a787d50004f6b318e952f813800188f89" target="_top" xlink:title=" ">
<polygon fill="white" stroke="#666666" points="165.88,-134 92.88,-134 92.88,-114 165.88,-114 165.88,-134"/>
<text text-anchor="middle" x="129.38" y="-120.5" font-family="Helvetica,sans-Serif" font-size="10.00">rtc_get_temp</text>
</a>
</g>
</g>
<!-- Node1&#45;&gt;Node9 -->
<g id="edge12_Node000001_Node000009" class="edge">
<title>Node1&#45;&gt;Node9</title>
<g id="a_edge12_Node000001_Node000009"><a xlink:title=" ">
<path fill="none" stroke="#63b8ff" d="M40.27,-170.65C52.08,-162.61 69.22,-151.43 85,-143 87.39,-141.73 89.88,-140.46 92.4,-139.23"/>
<polygon fill="#63b8ff" stroke="#63b8ff" points="93.86,-142.42 101.46,-135.04 90.91,-136.07 93.86,-142.42"/>
</a>
</g>
</g>
<!-- Node10 -->
<g id="Node000010" class="node">
<title>Node10</title>
<g id="a_Node000010"><a xlink:href="rtc__ds3231_8c.html#ab763e064ad555e3e2b0f21d4e78c0d76" target="_top" xlink:title=" ">
<polygon fill="white" stroke="#666666" points="164.38,-96 94.38,-96 94.38,-76 164.38,-76 164.38,-96"/>
<text text-anchor="middle" x="129.38" y="-82.5" font-family="Helvetica,sans-Serif" font-size="10.00">rtc_get_year</text>
</a>
</g>
</g>
<!-- Node1&#45;&gt;Node10 -->
<g id="edge14_Node000001_Node000010" class="edge">
<title>Node1&#45;&gt;Node10</title>
<g id="a_edge14_Node000001_Node000010"><a xlink:title=" ">
<path fill="none" stroke="#63b8ff" d="M31.34,-170.57C40.78,-154.55 60.77,-123.79 85,-105 86.47,-103.86 88.03,-102.77 89.63,-101.73"/>
<polygon fill="#63b8ff" stroke="#63b8ff" points="90.9,-105.03 97.93,-97.1 87.49,-98.92 90.9,-105.03"/>
</a>
</g>
</g>
<!-- Node11 -->
<g id="Node000011" class="node">
<title>Node11</title>
<g id="a_Node000011"><a xlink:href="rtc__ds3231_8c.html#a2c6c198dcdf9a137429432320e626cd0" target="_top" xlink:title=" ">
<polygon fill="white" stroke="#666666" points="164.38,-20 94.38,-20 94.38,0 164.38,0 164.38,-20"/>
<text text-anchor="middle" x="129.38" y="-6.5" font-family="Helvetica,sans-Serif" font-size="10.00">rtc_set_time</text>
</a>
</g>
</g>
<!-- Node1&#45;&gt;Node11 -->
<g id="edge16_Node000001_Node000011" class="edge">
<title>Node1&#45;&gt;Node11</title>
<g id="a_edge16_Node000001_Node000011"><a xlink:title=" ">
<path fill="none" stroke="#63b8ff" d="M26.79,-170.69C30.67,-143.87 44.55,-71.09 85,-29 85.72,-28.25 86.48,-27.52 87.27,-26.83"/>
<polygon fill="#63b8ff" stroke="#63b8ff" points="89.14,-29.79 95.36,-21.21 85.15,-24.04 89.14,-29.79"/>
</a>
</g>
</g>
<!-- Node13 -->
<g id="Node000013" class="node">
<title>Node13</title>
<g id="a_Node000013"><a xlink:href="rtc__ds3231_8c.html#a20e96ec4aa615b2c3921058dc539b14a" target="_top" xlink:title=" ">
<polygon fill="white" stroke="#666666" points="173.75,-58 85,-58 85,-38 173.75,-38 173.75,-58"/>
<text text-anchor="middle" x="129.38" y="-44.5" font-family="Helvetica,sans-Serif" font-size="10.00">rtc_update_temp</text>
</a>
</g>
</g>
<!-- Node1&#45;&gt;Node13 -->
<g id="edge18_Node000001_Node000013" class="edge">
<title>Node1&#45;&gt;Node13</title>
<g id="a_edge18_Node000001_Node000013"><a xlink:title=" ">
<path fill="none" stroke="#63b8ff" d="M28.3,-170.74C34.77,-148.87 52.7,-97.17 85,-67 85.9,-66.16 86.85,-65.35 87.83,-64.57"/>
<polygon fill="#63b8ff" stroke="#63b8ff" points="89.58,-67.61 96.1,-59.26 85.79,-61.72 89.58,-67.61"/>
</a>
</g>
</g>
<!-- Node4 -->
<g id="Node000004" class="node">
<title>Node4</title>
<g id="a_Node000004"><a xlink:href="i2c_8c.html#afd489cf93d14a907e09132068de8e1c9" target="_top" xlink:title=" ">
<polygon fill="white" stroke="#666666" points="324.75,-191 209.75,-191 209.75,-171 324.75,-171 324.75,-191"/>
<text text-anchor="middle" x="267.25" y="-177.5" font-family="Helvetica,sans-Serif" font-size="10.00">i2c_read_from_register</text>
</a>
</g>
</g>
<!-- Node3&#45;&gt;Node4 -->
<g id="edge3_Node000003_Node000004" class="edge">
<title>Node3&#45;&gt;Node4</title>
<g id="a_edge3_Node000003_Node000004"><a xlink:title=" ">
<path fill="none" stroke="#63b8ff" d="M159.45,-303.57C164.46,-301.14 169.43,-298.29 173.75,-295 208.72,-268.36 238.56,-225.87 254.3,-200.98"/>
<polygon fill="#63b8ff" stroke="#63b8ff" points="257.27,-202.83 259.54,-192.48 251.32,-199.16 257.27,-202.83"/>
</a>
</g>
</g>
<!-- Node5&#45;&gt;Node4 -->
<g id="edge5_Node000005_Node000004" class="edge">
<title>Node5&#45;&gt;Node4</title>
<g id="a_edge5_Node000005_Node000004"><a xlink:title=" ">
<path fill="none" stroke="#63b8ff" d="M157.11,-265.67C162.75,-263.11 168.56,-260.18 173.75,-257 201.21,-240.15 229.32,-215.85 247.23,-199.29"/>
<polygon fill="#63b8ff" stroke="#63b8ff" points="249.62,-201.85 254.51,-192.46 244.83,-196.75 249.62,-201.85"/>
</a>
</g>
</g>
<!-- Node6&#45;&gt;Node4 -->
<g id="edge7_Node000006_Node000004" class="edge">
<title>Node6&#45;&gt;Node4</title>
<g id="a_edge7_Node000006_Node000004"><a xlink:title=" ">
<path fill="none" stroke="#63b8ff" d="M155.3,-227.55C176.56,-218.63 207.36,-205.7 231.12,-195.74"/>
<polygon fill="#63b8ff" stroke="#63b8ff" points="232.22,-199.07 240.09,-191.97 229.52,-192.61 232.22,-199.07"/>
</a>
</g>
</g>
<!-- Node7&#45;&gt;Node4 -->
<g id="edge9_Node000007_Node000004" class="edge">
<title>Node7&#45;&gt;Node4</title>
<g id="a_edge9_Node000007_Node000004"><a xlink:title=" ">
<path fill="none" stroke="#63b8ff" d="M168.95,-194.61C178.07,-193.33 188.06,-191.93 198.07,-190.53"/>
<polygon fill="#63b8ff" stroke="#63b8ff" points="198.4,-194.02 207.82,-189.17 197.43,-187.09 198.4,-194.02"/>
</a>
</g>
</g>
<!-- Node8&#45;&gt;Node4 -->
<g id="edge11_Node000008_Node000004" class="edge">
<title>Node8&#45;&gt;Node4</title>
<g id="a_edge11_Node000008_Node000004"><a xlink:title=" ">
<path fill="none" stroke="#63b8ff" d="M171.14,-167.7C179.7,-168.9 188.95,-170.19 198.2,-171.48"/>
<polygon fill="#63b8ff" stroke="#63b8ff" points="197.55,-174.93 207.94,-172.85 198.52,-167.99 197.55,-174.93"/>
</a>
</g>
</g>
<!-- Node9&#45;&gt;Node4 -->
<g id="edge13_Node000009_Node000004" class="edge">
<title>Node9&#45;&gt;Node4</title>
<g id="a_edge13_Node000009_Node000004"><a xlink:title=" ">
<path fill="none" stroke="#63b8ff" d="M155.3,-134.45C176.56,-143.37 207.36,-156.3 231.12,-166.26"/>
<polygon fill="#63b8ff" stroke="#63b8ff" points="229.52,-169.39 240.09,-170.03 232.22,-162.93 229.52,-169.39"/>
</a>
</g>
</g>
<!-- Node10&#45;&gt;Node4 -->
<g id="edge15_Node000010_Node000004" class="edge">
<title>Node10&#45;&gt;Node4</title>
<g id="a_edge15_Node000010_Node000004"><a xlink:title=" ">
<path fill="none" stroke="#63b8ff" d="M157.11,-96.33C162.75,-98.89 168.56,-101.82 173.75,-105 201.21,-121.85 229.32,-146.15 247.23,-162.71"/>
<polygon fill="#63b8ff" stroke="#63b8ff" points="244.83,-165.25 254.51,-169.54 249.62,-160.15 244.83,-165.25"/>
</a>
</g>
</g>
<!-- Node12 -->
<g id="Node000012" class="node">
<title>Node12</title>
<g id="a_Node000012"><a xlink:href="i2c_8c.html#a73f9c3581b5d48d5db9c6c445034a970" target="_top" xlink:title=" ">
<polygon fill="white" stroke="#666666" points="320.25,-39 214.25,-39 214.25,-19 320.25,-19 320.25,-39"/>
<text text-anchor="middle" x="267.25" y="-25.5" font-family="Helvetica,sans-Serif" font-size="10.00">i2c_write_to_register</text>
</a>
</g>
</g>
<!-- Node11&#45;&gt;Node12 -->
<g id="edge17_Node000011_Node000012" class="edge">
<title>Node11&#45;&gt;Node12</title>
<g id="a_edge17_Node000011_Node000012"><a xlink:title=" ">
<path fill="none" stroke="#63b8ff" d="M164.66,-14.79C176.21,-16.41 189.5,-18.27 202.58,-20.1"/>
<polygon fill="#63b8ff" stroke="#63b8ff" points="202.08,-23.56 212.47,-21.48 203.05,-16.63 202.08,-23.56"/>
</a>
</g>
</g>
<!-- Node13&#45;&gt;Node4 -->
<g id="edge19_Node000013_Node000004" class="edge">
<title>Node13&#45;&gt;Node4</title>
<g id="a_edge19_Node000013_Node000004"><a xlink:title=" ">
<path fill="none" stroke="#63b8ff" d="M159.45,-58.43C164.46,-60.86 169.43,-63.71 173.75,-67 208.72,-93.64 238.56,-136.13 254.3,-161.02"/>
<polygon fill="#63b8ff" stroke="#63b8ff" points="251.32,-162.84 259.54,-169.52 257.27,-159.17 251.32,-162.84"/>
</a>
</g>
</g>
<!-- Node13&#45;&gt;Node12 -->
<g id="edge20_Node000013_Node000012" class="edge">
<title>Node13&#45;&gt;Node12</title>
<g id="a_edge20_Node000013_Node000012"><a xlink:title=" ">
<path fill="none" stroke="#63b8ff" d="M174.11,-41.88C183.26,-40.6 193.08,-39.23 202.77,-37.88"/>
<polygon fill="#63b8ff" stroke="#63b8ff" points="203.13,-41.36 212.55,-36.51 202.16,-34.43 203.13,-41.36"/>
</a>
</g>
</g>
</g>
</svg>
