<?xml version="1.0" encoding="UTF-8" standalone="no"?>
<!DOCTYPE svg PUBLIC "-//W3C//DTD SVG 1.1//EN"
 "http://www.w3.org/Graphics/SVG/1.1/DTD/svg11.dtd">
<!-- Generated by graphviz version 2.43.0 (0)
 -->
<!-- Title: rtc_update_temp Pages: 1 -->
<svg width="272pt" height="64pt"
 viewBox="0.00 0.00 272.00 64.00" xmlns="http://www.w3.org/2000/svg" xmlns:xlink="http://www.w3.org/1999/xlink">
<g id="graph0" class="graph" transform="scale(1 1) rotate(0) translate(4 60)">
<title>rtc_update_temp</title>
<!-- Node1 -->
<g id="Node000001" class="node">
<title>Node1</title>
<g id="a_Node000001"><a xlink:title="Manually updates value in temp register. RTC auto&#45;updates the temp every 64 seconds.">
<polygon fill="#999999" stroke="#666666" points="99,-37 0,-37 0,-18 99,-18 99,-37"/>
<text text-anchor="middle" x="49.5" y="-25" font-family="Helvetica,sans-Serif" font-size="10.00">rtc_update_temp</text>
</a>
</g>
</g>
<!-- Node2 -->
<g id="Node000002" class="node">
<title>Node2</title>
<g id="a_Node000002"><a xlink:href="i2c_8c.html#afd489cf93d14a907e09132068de8e1c9" target="_top" xlink:title="Write [reg] byte to i2c device and then read [nbytes] from it. Read bytes are stored in [buf].">
<polygon fill="white" stroke="#666666" points="264,-56 135,-56 135,-37 264,-37 264,-56"/>
<text text-anchor="middle" x="199.5" y="-44" font-family="Helvetica,sans-Serif" font-size="10.00">i2c_read_from_register</text>
</a>
</g>
</g>
<!-- Node1&#45;&gt;Node2 -->
<g id="edge1_Node000001_Node000002" class="edge">
<title>Node1&#45;&gt;Node2</title>
<g id="a_edge1_Node000001_Node000002"><a xlink:title=" ">
<path fill="none" stroke="#63b8ff" d="M99.37,-33.77C107.54,-34.82 116.17,-35.93 124.8,-37.04"/>
<polygon fill="#63b8ff" stroke="#63b8ff" points="124.54,-40.53 134.9,-38.34 125.43,-33.59 124.54,-40.53"/>
</a>
</g>
</g>
<!-- Node3 -->
<g id="Node000003" class="node">
<title>Node3</title>
<g id="a_Node000003"><a xlink:href="i2c_8c.html#a73f9c3581b5d48d5db9c6c445034a970" target="_top" xlink:title="Write [reg] and [buf] to i2c device, [reg] is just inserted before [buf].">
<polygon fill="white" stroke="#666666" points="259,-19 140,-19 140,0 259,0 259,-19"/>
<text text-anchor="middle" x="199.5" y="-7" font-family="Helvetica,sans-Serif" font-size="10.00">i2c_write_to_register</text>
</a>
</g>
</g>
<!-- Node1&#45;&gt;Node3 -->
<g id="edge2_Node000001_Node000003" class="edge">
<title>Node1&#45;&gt;Node3</title>
<g id="a_edge2_Node000001_Node000003"><a xlink:title=" ">
<path fill="none" stroke="#63b8ff" d="M99.37,-21.56C109.1,-20.37 119.48,-19.11 129.73,-17.86"/>
<polygon fill="#63b8ff" stroke="#63b8ff" points="130.39,-21.31 139.9,-16.63 129.55,-14.36 130.39,-21.31"/>
</a>
</g>
</g>
</g>
</svg>
