<?xml version="1.0" encoding="UTF-8" standalone="no"?>
<!DOCTYPE svg PUBLIC "-//W3C//DTD SVG 1.1//EN"
 "http://www.w3.org/Graphics/SVG/1.1/DTD/svg11.dtd">
<!-- Generated by graphviz version 12.1.2 (20240928.0832)
 -->
<!-- Title: set_rtc_job.h Pages: 1 -->
<svg width="201pt" height="196pt"
 viewBox="0.00 0.00 201.27 196.00" xmlns="http://www.w3.org/2000/svg" xmlns:xlink="http://www.w3.org/1999/xlink">

<svg id="main" version="1.1" xmlns="http://www.w3.org/2000/svg" xmlns:xlink="http://www.w3.org/1999/xlink" xml:space="preserve">

<style type="text/css"><![CDATA[
.node, .edge {opacity: 0.7;}
.node.selected, .edge.selected {opacity: 1;}
.edge:hover path { stroke: red; }
.edge:hover polygon { stroke: red; fill: red; }
]]></style>
<script type="application/ecmascript" xlink:href="svg.min.js"/>
<svg id="graph" class="graph">
<g id="graph0" class="graph" transform="scale(1 1) rotate(0) translate(4 192)">
<title>set_rtc_job.h</title>
<!-- Node1 -->
<g id="Node000001" class="node">
<title>Node1</title>
<g id="a_Node000001"><a xlink:title=" ">
<polygon fill="#999999" stroke="#666666" points="87.52,-188 15.27,-188 15.27,-168 87.52,-168 87.52,-188"/>
<text text-anchor="middle" x="51.39" y="-174.5" font-family="Helvetica,sans-Serif" font-size="10.00">set_rtc_job.h</text>
</a>
</g>
</g>
<!-- Node2 -->
<g id="Node000002" class="node">
<title>Node2</title>
<g id="a_Node000002"><a xlink:title=" ">
<polygon fill="#e0e0e0" stroke="#999999" points="49.52,-20 1.27,-20 1.27,0 49.52,0 49.52,-20"/>
<text text-anchor="middle" x="25.39" y="-6.5" font-family="Helvetica,sans-Serif" font-size="10.00">stdint.h</text>
</a>
</g>
</g>
<!-- Node1&#45;&gt;Node2 -->
<g id="edge1_Node000001_Node000002" class="edge">
<title>Node1&#45;&gt;Node2</title>
<g id="a_edge1_Node000001_Node000002"><a xlink:title=" ">
<path fill="none" stroke="#63b8ff" d="M37.46,-167.8C26.71,-159.79 12.65,-147.11 6.39,-132 -7.59,-98.23 5.76,-55.27 16.05,-30.67"/>
<polygon fill="#63b8ff" stroke="#63b8ff" points="19.23,-32.14 20.11,-21.58 12.84,-29.29 19.23,-32.14"/>
</a>
</g>
</g>
<!-- Node3 -->
<g id="Node000003" class="node">
<title>Node3</title>
<g id="a_Node000003"><a xlink:href="rtc__ds3231_8h.html" target="_top" xlink:title=" ">
<polygon fill="white" stroke="#666666" points="87.52,-132 15.27,-132 15.27,-112 87.52,-112 87.52,-132"/>
<text text-anchor="middle" x="51.39" y="-118.5" font-family="Helvetica,sans-Serif" font-size="10.00">rtc_ds3231.h</text>
</a>
</g>
</g>
<!-- Node1&#45;&gt;Node3 -->
<g id="edge2_Node000001_Node000003" class="edge">
<title>Node1&#45;&gt;Node3</title>
<g id="a_edge2_Node000001_Node000003"><a xlink:title=" ">
<path fill="none" stroke="#63b8ff" d="M51.39,-167.59C51.39,-161.01 51.39,-151.96 51.39,-143.73"/>
<polygon fill="#63b8ff" stroke="#63b8ff" points="54.89,-143.81 51.39,-133.81 47.89,-143.81 54.89,-143.81"/>
</a>
</g>
</g>
<!-- Node7 -->
<g id="Node000007" class="node">
<title>Node7</title>
<g id="a_Node000007"><a xlink:title=" ">
<polygon fill="#e0e0e0" stroke="#999999" points="176.77,-132 106.02,-132 106.02,-112 176.77,-112 176.77,-132"/>
<text text-anchor="middle" x="141.39" y="-118.5" font-family="Helvetica,sans-Serif" font-size="10.00">FreeRTOS.h</text>
</a>
</g>
</g>
<!-- Node1&#45;&gt;Node7 -->
<g id="edge8_Node000001_Node000007" class="edge">
<title>Node1&#45;&gt;Node7</title>
<g id="a_edge8_Node000001_Node000007"><a xlink:title=" ">
<path fill="none" stroke="#63b8ff" d="M67.07,-167.59C80.54,-159.51 100.21,-147.71 115.94,-138.27"/>
<polygon fill="#63b8ff" stroke="#63b8ff" points="117.52,-141.4 124.29,-133.26 113.92,-135.4 117.52,-141.4"/>
</a>
</g>
</g>
<!-- Node3&#45;&gt;Node2 -->
<g id="edge7_Node000003_Node000002" class="edge">
<title>Node3&#45;&gt;Node2</title>
<g id="a_edge7_Node000003_Node000002"><a xlink:title=" ">
<path fill="none" stroke="#63b8ff" d="M49.17,-111.62C44.99,-93.92 35.85,-55.24 30.2,-31.32"/>
<polygon fill="#63b8ff" stroke="#63b8ff" points="33.66,-30.75 27.95,-21.83 26.84,-32.36 33.66,-30.75"/>
</a>
</g>
</g>
<!-- Node4 -->
<g id="Node000004" class="node">
<title>Node4</title>
<g id="a_Node000004"><a xlink:href="simulator_2pico-sdk_2hardware_2i2c_8h.html" target="_top" xlink:title=" ">
<polygon fill="white" stroke="#666666" points="133.27,-76 53.52,-76 53.52,-56 133.27,-56 133.27,-76"/>
<text text-anchor="middle" x="93.39" y="-62.5" font-family="Helvetica,sans-Serif" font-size="10.00">hardware/i2c.h</text>
</a>
</g>
</g>
<!-- Node3&#45;&gt;Node4 -->
<g id="edge3_Node000003_Node000004" class="edge">
<title>Node3&#45;&gt;Node4</title>
<g id="a_edge3_Node000003_Node000004"><a xlink:title=" ">
<path fill="none" stroke="#63b8ff" d="M58.71,-111.59C64.37,-104.32 72.38,-94.02 79.28,-85.15"/>
<polygon fill="#63b8ff" stroke="#63b8ff" points="81.85,-87.54 85.23,-77.49 76.33,-83.24 81.85,-87.54"/>
</a>
</g>
</g>
<!-- Node4&#45;&gt;Node2 -->
<g id="edge4_Node000004_Node000002" class="edge">
<title>Node4&#45;&gt;Node2</title>
<g id="a_edge4_Node000004_Node000002"><a xlink:title=" ">
<path fill="none" stroke="#63b8ff" d="M81.55,-55.59C71.7,-47.77 57.46,-36.46 45.78,-27.19"/>
<polygon fill="#63b8ff" stroke="#63b8ff" points="48.29,-24.72 38.29,-21.24 43.94,-30.2 48.29,-24.72"/>
</a>
</g>
</g>
<!-- Node5 -->
<g id="Node000005" class="node">
<title>Node5</title>
<g id="a_Node000005"><a xlink:title=" ">
<polygon fill="#e0e0e0" stroke="#999999" points="119.02,-20 67.77,-20 67.77,0 119.02,0 119.02,-20"/>
<text text-anchor="middle" x="93.39" y="-6.5" font-family="Helvetica,sans-Serif" font-size="10.00">stddef.h</text>
</a>
</g>
</g>
<!-- Node4&#45;&gt;Node5 -->
<g id="edge5_Node000004_Node000005" class="edge">
<title>Node4&#45;&gt;Node5</title>
<g id="a_edge5_Node000004_Node000005"><a xlink:title=" ">
<path fill="none" stroke="#63b8ff" d="M93.39,-55.59C93.39,-49.01 93.39,-39.96 93.39,-31.73"/>
<polygon fill="#63b8ff" stroke="#63b8ff" points="96.89,-31.81 93.39,-21.81 89.89,-31.81 96.89,-31.81"/>
</a>
</g>
</g>
<!-- Node6 -->
<g id="Node000006" class="node">
<title>Node6</title>
<g id="a_Node000006"><a xlink:title=" ">
<polygon fill="#e0e0e0" stroke="#999999" points="193.27,-20 137.52,-20 137.52,0 193.27,0 193.27,-20"/>
<text text-anchor="middle" x="165.39" y="-6.5" font-family="Helvetica,sans-Serif" font-size="10.00">stdbool.h</text>
</a>
</g>
</g>
<!-- Node4&#45;&gt;Node6 -->
<g id="edge6_Node000004_Node000006" class="edge">
<title>Node4&#45;&gt;Node6</title>
<g id="a_edge6_Node000004_Node000006"><a xlink:title=" ">
<path fill="none" stroke="#63b8ff" d="M105.93,-55.59C116.36,-47.77 131.44,-36.46 143.8,-27.19"/>
<polygon fill="#63b8ff" stroke="#63b8ff" points="145.88,-30.01 151.78,-21.21 141.68,-24.41 145.88,-30.01"/>
</a>
</g>
</g>
</g>
</svg>
</svg>

<style type='text/css'>
<![CDATA[
[data-mouse-over-selected='false'] { opacity: 0.7; }
[data-mouse-over-selected='true']  { opacity: 1.0; }
]]>
</style>
<script type="application/ecmascript"><![CDATA[
document.addEventListener('DOMContentLoaded', (event) => {
  highlightEdges();
  highlightAdjacentNodes();
});
]]></script>
</svg>
