<?xml version="1.0" encoding="UTF-8" standalone="no"?>
<!DOCTYPE svg PUBLIC "-//W3C//DTD SVG 1.1//EN"
 "http://www.w3.org/Graphics/SVG/1.1/DTD/svg11.dtd">
<!-- Generated by graphviz version 2.43.0 (0)
 -->
<!-- Title: set_rtc_job.c Pages: 1 -->
<svg width="333pt" height="247pt"
 viewBox="0.00 0.00 332.92 247.00" xmlns="http://www.w3.org/2000/svg" xmlns:xlink="http://www.w3.org/1999/xlink">
<g id="graph0" class="graph" transform="scale(1 1) rotate(0) translate(4 243)">
<title>set_rtc_job.c</title>
<!-- Node1 -->
<g id="Node000001" class="node">
<title>Node1</title>
<g id="a_Node000001"><a xlink:title=" ">
<polygon fill="#999999" stroke="#666666" points="232.5,-239 154.5,-239 154.5,-220 232.5,-220 232.5,-239"/>
<text text-anchor="middle" x="193.5" y="-227" font-family="Helvetica,sans-Serif" font-size="10.00">set_rtc_job.c</text>
</a>
</g>
</g>
<!-- Node2 -->
<g id="Node000002" class="node">
<title>Node2</title>
<g id="a_Node000002"><a xlink:href="set__rtc__job_8h.html" target="_top" xlink:title=" ">
<polygon fill="white" stroke="#666666" points="194,-184 115,-184 115,-165 194,-165 194,-184"/>
<text text-anchor="middle" x="154.5" y="-172" font-family="Helvetica,sans-Serif" font-size="10.00">set_rtc_job.h</text>
</a>
</g>
</g>
<!-- Node1&#45;&gt;Node2 -->
<g id="edge1_Node000001_Node000002" class="edge">
<title>Node1&#45;&gt;Node2</title>
<g id="a_edge1_Node000001_Node000002"><a xlink:title=" ">
<path fill="none" stroke="#63b8ff" d="M187.06,-219.75C181.61,-212.34 173.64,-201.5 166.94,-192.41"/>
<polygon fill="#63b8ff" stroke="#63b8ff" points="169.57,-190.07 160.82,-184.09 163.93,-194.22 169.57,-190.07"/>
</a>
</g>
</g>
<!-- Node9 -->
<g id="Node000009" class="node">
<title>Node9</title>
<g id="a_Node000009"><a xlink:href="log_8h.html" target="_top" xlink:title=" ">
<polygon fill="white" stroke="#666666" points="280,-184 239,-184 239,-165 280,-165 280,-184"/>
<text text-anchor="middle" x="259.5" y="-172" font-family="Helvetica,sans-Serif" font-size="10.00">log.h</text>
</a>
</g>
</g>
<!-- Node1&#45;&gt;Node9 -->
<g id="edge10_Node000001_Node000009" class="edge">
<title>Node1&#45;&gt;Node9</title>
<g id="a_edge10_Node000001_Node000009"><a xlink:title=" ">
<path fill="none" stroke="#63b8ff" d="M204.1,-219.98C213.96,-212.07 228.85,-200.11 240.72,-190.58"/>
<polygon fill="#63b8ff" stroke="#63b8ff" points="243.1,-193.16 248.7,-184.17 238.71,-187.7 243.1,-193.16"/>
</a>
</g>
</g>
<!-- Node3 -->
<g id="Node000003" class="node">
<title>Node3</title>
<g id="a_Node000003"><a xlink:title=" ">
<polygon fill="#e0e0e0" stroke="#999999" points="53,-19 0,-19 0,0 53,0 53,-19"/>
<text text-anchor="middle" x="26.5" y="-7" font-family="Helvetica,sans-Serif" font-size="10.00">stdint.h</text>
</a>
</g>
</g>
<!-- Node2&#45;&gt;Node3 -->
<g id="edge2_Node000002_Node000003" class="edge">
<title>Node2&#45;&gt;Node3</title>
<g id="a_edge2_Node000002_Node000003"><a xlink:title=" ">
<path fill="none" stroke="#63b8ff" d="M114.86,-165.18C93.12,-158.72 67.26,-147.61 50.5,-129 25.65,-101.41 23.68,-55.36 24.84,-29.54"/>
<polygon fill="#63b8ff" stroke="#63b8ff" points="28.35,-29.45 25.52,-19.24 21.37,-28.99 28.35,-29.45"/>
</a>
</g>
</g>
<!-- Node4 -->
<g id="Node000004" class="node">
<title>Node4</title>
<g id="a_Node000004"><a xlink:href="rtc__ds3231_8h.html" target="_top" xlink:title="DS3231 Real Time Clock Driver.">
<polygon fill="white" stroke="#666666" points="139,-129 60,-129 60,-110 139,-110 139,-129"/>
<text text-anchor="middle" x="99.5" y="-117" font-family="Helvetica,sans-Serif" font-size="10.00">rtc_ds3231.h</text>
</a>
</g>
</g>
<!-- Node2&#45;&gt;Node4 -->
<g id="edge3_Node000002_Node000004" class="edge">
<title>Node2&#45;&gt;Node4</title>
<g id="a_edge3_Node000002_Node000004"><a xlink:title=" ">
<path fill="none" stroke="#63b8ff" d="M145.42,-164.75C137.41,-157.03 125.54,-145.6 115.88,-136.28"/>
<polygon fill="#63b8ff" stroke="#63b8ff" points="118.04,-133.51 108.41,-129.09 113.19,-138.55 118.04,-133.51"/>
</a>
</g>
</g>
<!-- Node8 -->
<g id="Node000008" class="node">
<title>Node8</title>
<g id="a_Node000008"><a xlink:title=" ">
<polygon fill="#e0e0e0" stroke="#999999" points="234.5,-74 162.5,-74 162.5,-55 234.5,-55 234.5,-74"/>
<text text-anchor="middle" x="198.5" y="-62" font-family="Helvetica,sans-Serif" font-size="10.00">FreeRTOS.h</text>
</a>
</g>
</g>
<!-- Node2&#45;&gt;Node8 -->
<g id="edge9_Node000002_Node000008" class="edge">
<title>Node2&#45;&gt;Node8</title>
<g id="a_edge9_Node000002_Node000008"><a xlink:title=" ">
<path fill="none" stroke="#63b8ff" d="M158.1,-164.66C165.29,-147.01 181.56,-107.09 191.11,-83.64"/>
<polygon fill="#63b8ff" stroke="#63b8ff" points="194.44,-84.74 194.97,-74.16 187.96,-82.1 194.44,-84.74"/>
</a>
</g>
</g>
<!-- Node4&#45;&gt;Node3 -->
<g id="edge8_Node000004_Node000003" class="edge">
<title>Node4&#45;&gt;Node3</title>
<g id="a_edge8_Node000004_Node000003"><a xlink:title=" ">
<path fill="none" stroke="#63b8ff" d="M84.58,-109.74C72.39,-101.85 55.58,-89.18 45.5,-74 36.55,-60.52 31.7,-42.69 29.14,-29.35"/>
<polygon fill="#63b8ff" stroke="#63b8ff" points="32.58,-28.7 27.5,-19.4 25.68,-29.84 32.58,-28.7"/>
</a>
</g>
</g>
<!-- Node5 -->
<g id="Node000005" class="node">
<title>Node5</title>
<g id="a_Node000005"><a xlink:href="simulator_2pico-sdk_2hardware_2i2c_8h.html" target="_top" xlink:title=" ">
<polygon fill="white" stroke="#666666" points="144,-74 55,-74 55,-55 144,-55 144,-74"/>
<text text-anchor="middle" x="99.5" y="-62" font-family="Helvetica,sans-Serif" font-size="10.00">hardware/i2c.h</text>
</a>
</g>
</g>
<!-- Node4&#45;&gt;Node5 -->
<g id="edge4_Node000004_Node000005" class="edge">
<title>Node4&#45;&gt;Node5</title>
<g id="a_edge4_Node000004_Node000005"><a xlink:title=" ">
<path fill="none" stroke="#63b8ff" d="M99.5,-109.75C99.5,-102.8 99.5,-92.85 99.5,-84.13"/>
<polygon fill="#63b8ff" stroke="#63b8ff" points="103,-84.09 99.5,-74.09 96,-84.09 103,-84.09"/>
</a>
</g>
</g>
<!-- Node5&#45;&gt;Node3 -->
<g id="edge5_Node000005_Node000003" class="edge">
<title>Node5&#45;&gt;Node3</title>
<g id="a_edge5_Node000005_Node000003"><a xlink:title=" ">
<path fill="none" stroke="#63b8ff" d="M87.77,-54.98C76.77,-47 60.08,-34.88 46.9,-25.31"/>
<polygon fill="#63b8ff" stroke="#63b8ff" points="48.59,-22.21 38.44,-19.17 44.48,-27.88 48.59,-22.21"/>
</a>
</g>
</g>
<!-- Node6 -->
<g id="Node000006" class="node">
<title>Node6</title>
<g id="a_Node000006"><a xlink:title=" ">
<polygon fill="#e0e0e0" stroke="#999999" points="127.5,-19 71.5,-19 71.5,0 127.5,0 127.5,-19"/>
<text text-anchor="middle" x="99.5" y="-7" font-family="Helvetica,sans-Serif" font-size="10.00">stddef.h</text>
</a>
</g>
</g>
<!-- Node5&#45;&gt;Node6 -->
<g id="edge6_Node000005_Node000006" class="edge">
<title>Node5&#45;&gt;Node6</title>
<g id="a_edge6_Node000005_Node000006"><a xlink:title=" ">
<path fill="none" stroke="#63b8ff" d="M99.5,-54.75C99.5,-47.8 99.5,-37.85 99.5,-29.13"/>
<polygon fill="#63b8ff" stroke="#63b8ff" points="103,-29.09 99.5,-19.09 96,-29.09 103,-29.09"/>
</a>
</g>
</g>
<!-- Node7 -->
<g id="Node000007" class="node">
<title>Node7</title>
<g id="a_Node000007"><a xlink:title=" ">
<polygon fill="#e0e0e0" stroke="#999999" points="287.5,-19 225.5,-19 225.5,0 287.5,0 287.5,-19"/>
<text text-anchor="middle" x="256.5" y="-7" font-family="Helvetica,sans-Serif" font-size="10.00">stdbool.h</text>
</a>
</g>
</g>
<!-- Node5&#45;&gt;Node7 -->
<g id="edge7_Node000005_Node000007" class="edge">
<title>Node5&#45;&gt;Node7</title>
<g id="a_edge7_Node000005_Node000007"><a xlink:title=" ">
<path fill="none" stroke="#63b8ff" d="M124.72,-54.98C150.86,-46.16 191.9,-32.31 221.23,-22.41"/>
<polygon fill="#63b8ff" stroke="#63b8ff" points="222.72,-25.6 231.08,-19.08 220.48,-18.96 222.72,-25.6"/>
</a>
</g>
</g>
<!-- Node9&#45;&gt;Node7 -->
<g id="edge14_Node000009_Node000007" class="edge">
<title>Node9&#45;&gt;Node7</title>
<g id="a_edge14_Node000009_Node000007"><a xlink:title=" ">
<path fill="none" stroke="#63b8ff" d="M271.29,-164.96C281.62,-156.86 296.22,-143.75 304.5,-129 320.85,-99.88 332.63,-84.77 317.5,-55 310.73,-41.68 297.9,-31.41 285.75,-24.1"/>
<polygon fill="#63b8ff" stroke="#63b8ff" points="287.14,-20.87 276.7,-19.09 283.75,-26.99 287.14,-20.87"/>
</a>
</g>
</g>
<!-- Node10 -->
<g id="Node000010" class="node">
<title>Node10</title>
<g id="a_Node000010"><a xlink:href="telemetry_8h.html" target="_top" xlink:title=" ">
<polygon fill="white" stroke="#666666" points="295.5,-129 223.5,-129 223.5,-110 295.5,-110 295.5,-129"/>
<text text-anchor="middle" x="259.5" y="-117" font-family="Helvetica,sans-Serif" font-size="10.00">telemetry.h</text>
</a>
</g>
</g>
<!-- Node9&#45;&gt;Node10 -->
<g id="edge11_Node000009_Node000010" class="edge">
<title>Node9&#45;&gt;Node10</title>
<g id="a_edge11_Node000009_Node000010"><a xlink:title=" ">
<path fill="none" stroke="#63b8ff" d="M259.5,-164.75C259.5,-157.8 259.5,-147.85 259.5,-139.13"/>
<polygon fill="#63b8ff" stroke="#63b8ff" points="263,-139.09 259.5,-129.09 256,-139.09 263,-139.09"/>
</a>
</g>
</g>
<!-- Node10&#45;&gt;Node8 -->
<g id="edge12_Node000010_Node000008" class="edge">
<title>Node10&#45;&gt;Node8</title>
<g id="a_edge12_Node000010_Node000008"><a xlink:title=" ">
<path fill="none" stroke="#63b8ff" d="M249.7,-109.98C240.68,-102.15 227.09,-90.34 216.18,-80.86"/>
<polygon fill="#63b8ff" stroke="#63b8ff" points="218.32,-78.09 208.48,-74.17 213.73,-83.37 218.32,-78.09"/>
</a>
</g>
</g>
<!-- Node11 -->
<g id="Node000011" class="node">
<title>Node11</title>
<g id="a_Node000011"><a xlink:title=" ">
<polygon fill="#e0e0e0" stroke="#999999" points="308.5,-74 252.5,-74 252.5,-55 308.5,-55 308.5,-74"/>
<text text-anchor="middle" x="280.5" y="-62" font-family="Helvetica,sans-Serif" font-size="10.00">queue.h</text>
</a>
</g>
</g>
<!-- Node10&#45;&gt;Node11 -->
<g id="edge13_Node000010_Node000011" class="edge">
<title>Node10&#45;&gt;Node11</title>
<g id="a_edge13_Node000010_Node000011"><a xlink:title=" ">
<path fill="none" stroke="#63b8ff" d="M262.97,-109.75C265.78,-102.65 269.84,-92.4 273.35,-83.56"/>
<polygon fill="#63b8ff" stroke="#63b8ff" points="276.67,-84.68 277.1,-74.09 270.16,-82.1 276.67,-84.68"/>
</a>
</g>
</g>
</g>
</svg>
