<?xml version="1.0" encoding="UTF-8" standalone="no"?>
<!DOCTYPE svg PUBLIC "-//W3C//DTD SVG 1.1//EN"
 "http://www.w3.org/Graphics/SVG/1.1/DTD/svg11.dtd">
<!-- Generated by graphviz version 2.43.0 (0)
 -->
<!-- Title: usb_uart.c Pages: 1 -->
<svg width="431pt" height="137pt"
 viewBox="0.00 0.00 430.69 137.00" xmlns="http://www.w3.org/2000/svg" xmlns:xlink="http://www.w3.org/1999/xlink">
<g id="graph0" class="graph" transform="scale(1 1) rotate(0) translate(4 133)">
<title>usb_uart.c</title>
<!-- Node1 -->
<g id="Node000001" class="node">
<title>Node1</title>
<g id="a_Node000001"><a xlink:title=" ">
<polygon fill="#999999" stroke="#666666" points="196.69,-129 129.69,-129 129.69,-110 196.69,-110 196.69,-129"/>
<text text-anchor="middle" x="163.19" y="-117" font-family="Helvetica,sans-Serif" font-size="10.00">usb_uart.c</text>
</a>
</g>
</g>
<!-- Node2 -->
<g id="Node000002" class="node">
<title>Node2</title>
<g id="a_Node000002"><a xlink:href="stdio_8h.html" target="_top" xlink:title=" ">
<polygon fill="white" stroke="#666666" points="163.19,-19 113.19,-19 113.19,0 163.19,0 163.19,-19"/>
<text text-anchor="middle" x="138.19" y="-7" font-family="Helvetica,sans-Serif" font-size="10.00">stdio.h</text>
</a>
</g>
</g>
<!-- Node1&#45;&gt;Node2 -->
<g id="edge1_Node000001_Node000002" class="edge">
<title>Node1&#45;&gt;Node2</title>
<g id="a_edge1_Node000001_Node000002"><a xlink:title=" ">
<path fill="none" stroke="#63b8ff" d="M129.4,-113.72C87.85,-107.08 21.01,-93.61 6.19,-74 -21.46,-37.43 55.29,-20.88 103.11,-14.28"/>
<polygon fill="#63b8ff" stroke="#63b8ff" points="103.65,-17.74 113.12,-12.99 102.75,-10.8 103.65,-17.74"/>
</a>
</g>
</g>
<!-- Node3 -->
<g id="Node000003" class="node">
<title>Node3</title>
<g id="a_Node000003"><a xlink:title=" ">
<polygon fill="#e0e0e0" stroke="#999999" points="71.19,-74 15.19,-74 15.19,-55 71.19,-55 71.19,-74"/>
<text text-anchor="middle" x="43.19" y="-62" font-family="Helvetica,sans-Serif" font-size="10.00">unistd.h</text>
</a>
</g>
</g>
<!-- Node1&#45;&gt;Node3 -->
<g id="edge2_Node000001_Node000003" class="edge">
<title>Node1&#45;&gt;Node3</title>
<g id="a_edge2_Node000001_Node000003"><a xlink:title=" ">
<path fill="none" stroke="#63b8ff" d="M143.91,-109.98C124.52,-101.42 94.38,-88.11 72.12,-78.28"/>
<polygon fill="#63b8ff" stroke="#63b8ff" points="73.38,-75.01 62.82,-74.17 70.55,-81.41 73.38,-75.01"/>
</a>
</g>
</g>
<!-- Node4 -->
<g id="Node000004" class="node">
<title>Node4</title>
<g id="a_Node000004"><a xlink:title=" ">
<polygon fill="#e0e0e0" stroke="#999999" points="151.19,-74 89.19,-74 89.19,-55 151.19,-55 151.19,-74"/>
<text text-anchor="middle" x="120.19" y="-62" font-family="Helvetica,sans-Serif" font-size="10.00">stdbool.h</text>
</a>
</g>
</g>
<!-- Node1&#45;&gt;Node4 -->
<g id="edge3_Node000001_Node000004" class="edge">
<title>Node1&#45;&gt;Node4</title>
<g id="a_edge3_Node000001_Node000004"><a xlink:title=" ">
<path fill="none" stroke="#63b8ff" d="M156.09,-109.75C150.01,-102.26 141.1,-91.28 133.68,-82.13"/>
<polygon fill="#63b8ff" stroke="#63b8ff" points="136.17,-79.65 127.16,-74.09 130.74,-84.06 136.17,-79.65"/>
</a>
</g>
</g>
<!-- Node5 -->
<g id="Node000005" class="node">
<title>Node5</title>
<g id="a_Node000005"><a xlink:title=" ">
<polygon fill="#e0e0e0" stroke="#999999" points="242.69,-74 169.69,-74 169.69,-55 242.69,-55 242.69,-74"/>
<text text-anchor="middle" x="206.19" y="-62" font-family="Helvetica,sans-Serif" font-size="10.00">FreeRTOS.h</text>
</a>
</g>
</g>
<!-- Node1&#45;&gt;Node5 -->
<g id="edge4_Node000001_Node000005" class="edge">
<title>Node1&#45;&gt;Node5</title>
<g id="a_edge4_Node000001_Node000005"><a xlink:title=" ">
<path fill="none" stroke="#63b8ff" d="M170.29,-109.75C176.36,-102.26 185.27,-91.28 192.7,-82.13"/>
<polygon fill="#63b8ff" stroke="#63b8ff" points="195.64,-84.06 199.22,-74.09 190.2,-79.65 195.64,-84.06"/>
</a>
</g>
</g>
<!-- Node6 -->
<g id="Node000006" class="node">
<title>Node6</title>
<g id="a_Node000006"><a xlink:title=" ">
<polygon fill="#e0e0e0" stroke="#999999" points="307.69,-74 260.69,-74 260.69,-55 307.69,-55 307.69,-74"/>
<text text-anchor="middle" x="284.19" y="-62" font-family="Helvetica,sans-Serif" font-size="10.00">task.h</text>
</a>
</g>
</g>
<!-- Node1&#45;&gt;Node6 -->
<g id="edge5_Node000001_Node000006" class="edge">
<title>Node1&#45;&gt;Node6</title>
<g id="a_edge5_Node000001_Node000006"><a xlink:title=" ">
<path fill="none" stroke="#63b8ff" d="M182.63,-109.98C202.18,-101.42 232.57,-88.11 255.01,-78.28"/>
<polygon fill="#63b8ff" stroke="#63b8ff" points="256.64,-81.39 264.39,-74.17 253.83,-74.98 256.64,-81.39"/>
</a>
</g>
</g>
<!-- Node7 -->
<g id="Node000007" class="node">
<title>Node7</title>
<g id="a_Node000007"><a xlink:href="usb__uart_8h.html" target="_top" xlink:title="Serial Communication Driver (USB/UART).">
<polygon fill="white" stroke="#666666" points="394.19,-74 326.19,-74 326.19,-55 394.19,-55 394.19,-74"/>
<text text-anchor="middle" x="360.19" y="-62" font-family="Helvetica,sans-Serif" font-size="10.00">usb_uart.h</text>
</a>
</g>
</g>
<!-- Node1&#45;&gt;Node7 -->
<g id="edge6_Node000001_Node000007" class="edge">
<title>Node1&#45;&gt;Node7</title>
<g id="a_edge6_Node000001_Node000007"><a xlink:title=" ">
<path fill="none" stroke="#63b8ff" d="M194.84,-109.98C228.34,-100.97 281.38,-86.7 318.33,-76.76"/>
<polygon fill="#63b8ff" stroke="#63b8ff" points="319.54,-80.06 328.29,-74.08 317.72,-73.3 319.54,-80.06"/>
</a>
</g>
</g>
<!-- Node7&#45;&gt;Node2 -->
<g id="edge9_Node000007_Node000002" class="edge">
<title>Node7&#45;&gt;Node2</title>
<g id="a_edge9_Node000007_Node000002"><a xlink:title=" ">
<path fill="none" stroke="#63b8ff" d="M325.99,-55.33C284.53,-45.44 215.02,-28.84 173.2,-18.86"/>
<polygon fill="#63b8ff" stroke="#63b8ff" points="173.99,-15.45 163.45,-16.53 172.36,-22.26 173.99,-15.45"/>
</a>
</g>
</g>
<!-- Node8 -->
<g id="Node000008" class="node">
<title>Node8</title>
<g id="a_Node000008"><a xlink:title=" ">
<polygon fill="#e0e0e0" stroke="#999999" points="351.19,-19 295.19,-19 295.19,0 351.19,0 351.19,-19"/>
<text text-anchor="middle" x="323.19" y="-7" font-family="Helvetica,sans-Serif" font-size="10.00">stddef.h</text>
</a>
</g>
</g>
<!-- Node7&#45;&gt;Node8 -->
<g id="edge7_Node000007_Node000008" class="edge">
<title>Node7&#45;&gt;Node8</title>
<g id="a_edge7_Node000007_Node000008"><a xlink:title=" ">
<path fill="none" stroke="#63b8ff" d="M354.08,-54.75C348.91,-47.34 341.34,-36.5 334.99,-27.41"/>
<polygon fill="#63b8ff" stroke="#63b8ff" points="337.78,-25.29 329.18,-19.09 332.04,-29.29 337.78,-25.29"/>
</a>
</g>
</g>
<!-- Node9 -->
<g id="Node000009" class="node">
<title>Node9</title>
<g id="a_Node000009"><a xlink:title=" ">
<polygon fill="#e0e0e0" stroke="#999999" points="422.69,-19 369.69,-19 369.69,0 422.69,0 422.69,-19"/>
<text text-anchor="middle" x="396.19" y="-7" font-family="Helvetica,sans-Serif" font-size="10.00">stdint.h</text>
</a>
</g>
</g>
<!-- Node7&#45;&gt;Node9 -->
<g id="edge8_Node000007_Node000009" class="edge">
<title>Node7&#45;&gt;Node9</title>
<g id="a_edge8_Node000007_Node000009"><a xlink:title=" ">
<path fill="none" stroke="#63b8ff" d="M366.13,-54.75C371.17,-47.34 378.52,-36.5 384.7,-27.41"/>
<polygon fill="#63b8ff" stroke="#63b8ff" points="387.63,-29.33 390.35,-19.09 381.84,-25.39 387.63,-29.33"/>
</a>
</g>
</g>
</g>
</svg>
