<?xml version="1.0" encoding="UTF-8" standalone="no"?>
<!DOCTYPE svg PUBLIC "-//W3C//DTD SVG 1.1//EN"
 "http://www.w3.org/Graphics/SVG/1.1/DTD/svg11.dtd">
<!-- Generated by graphviz version 2.43.0 (0)
 -->
<!-- Title: usb_uart.c Pages: 1 -->
<svg width="430pt" height="137pt"
 viewBox="0.00 0.00 429.65 137.00" xmlns="http://www.w3.org/2000/svg" xmlns:xlink="http://www.w3.org/1999/xlink">

<svg id="main" version="1.1" xmlns="http://www.w3.org/2000/svg" xmlns:xlink="http://www.w3.org/1999/xlink" xml:space="preserve">

<style type="text/css"><![CDATA[
.node, .edge {opacity: 0.7;}
.node.selected, .edge.selected {opacity: 1;}
.edge:hover path { stroke: red; }
.edge:hover polygon { stroke: red; fill: red; }
]]></style>
<script type="application/ecmascript" xlink:href="svg.min.js"/>
<svg id="graph" class="graph">
<g id="graph0" class="graph" transform="scale(1 1) rotate(0) translate(4 133)">
<title>usb_uart.c</title>
<!-- Node1 -->
<g id="Node000001" class="node">
<title>Node1</title>
<g id="a_Node000001"><a xlink:title=" ">
<polygon fill="#999999" stroke="#666666" points="195.65,-129 128.65,-129 128.65,-110 195.65,-110 195.65,-129"/>
<text text-anchor="middle" x="162.15" y="-117" font-family="Helvetica,sans-Serif" font-size="10.00">usb_uart.c</text>
</a>
</g>
</g>
<!-- Node2 -->
<g id="Node000002" class="node">
<title>Node2</title>
<g id="a_Node000002"><a xlink:href="stdio_8h.html" target="_top" xlink:title=" ">
<polygon fill="white" stroke="#666666" points="162.15,-19 112.15,-19 112.15,0 162.15,0 162.15,-19"/>
<text text-anchor="middle" x="137.15" y="-7" font-family="Helvetica,sans-Serif" font-size="10.00">stdio.h</text>
</a>
</g>
</g>
<!-- Node1&#45;&gt;Node2 -->
<g id="edge1_Node000001_Node000002" class="edge">
<title>Node1&#45;&gt;Node2</title>
<g id="a_edge1_Node000001_Node000002"><a xlink:title=" ">
<path fill="none" stroke="#63b8ff" d="M128.57,-113.69C87.29,-107.01 20.86,-93.5 6.15,-74 -21.23,-37.73 54.48,-21.08 101.97,-14.39"/>
<polygon fill="#63b8ff" stroke="#63b8ff" points="102.46,-17.85 111.91,-13.07 101.54,-10.91 102.46,-17.85"/>
</a>
</g>
</g>
<!-- Node3 -->
<g id="Node000003" class="node">
<title>Node3</title>
<g id="a_Node000003"><a xlink:title=" ">
<polygon fill="#e0e0e0" stroke="#999999" points="71.15,-74 15.15,-74 15.15,-55 71.15,-55 71.15,-74"/>
<text text-anchor="middle" x="43.15" y="-62" font-family="Helvetica,sans-Serif" font-size="10.00">unistd.h</text>
</a>
</g>
</g>
<!-- Node1&#45;&gt;Node3 -->
<g id="edge2_Node000001_Node000003" class="edge">
<title>Node1&#45;&gt;Node3</title>
<g id="a_edge2_Node000001_Node000003"><a xlink:title=" ">
<path fill="none" stroke="#63b8ff" d="M143.03,-109.98C123.8,-101.42 93.91,-88.11 71.84,-78.28"/>
<polygon fill="#63b8ff" stroke="#63b8ff" points="73.17,-75.04 62.61,-74.17 70.33,-81.44 73.17,-75.04"/>
</a>
</g>
</g>
<!-- Node4 -->
<g id="Node000004" class="node">
<title>Node4</title>
<g id="a_Node000004"><a xlink:title=" ">
<polygon fill="#e0e0e0" stroke="#999999" points="151.15,-74 89.15,-74 89.15,-55 151.15,-55 151.15,-74"/>
<text text-anchor="middle" x="120.15" y="-62" font-family="Helvetica,sans-Serif" font-size="10.00">stdbool.h</text>
</a>
</g>
</g>
<!-- Node1&#45;&gt;Node4 -->
<g id="edge3_Node000001_Node000004" class="edge">
<title>Node1&#45;&gt;Node4</title>
<g id="a_edge3_Node000001_Node000004"><a xlink:title=" ">
<path fill="none" stroke="#63b8ff" d="M155.21,-109.75C149.28,-102.26 140.57,-91.28 133.32,-82.13"/>
<polygon fill="#63b8ff" stroke="#63b8ff" points="135.91,-79.75 126.95,-74.09 130.42,-84.1 135.91,-79.75"/>
</a>
</g>
</g>
<!-- Node5 -->
<g id="Node000005" class="node">
<title>Node5</title>
<g id="a_Node000005"><a xlink:title=" ">
<polygon fill="#e0e0e0" stroke="#999999" points="241.15,-74 169.15,-74 169.15,-55 241.15,-55 241.15,-74"/>
<text text-anchor="middle" x="205.15" y="-62" font-family="Helvetica,sans-Serif" font-size="10.00">FreeRTOS.h</text>
</a>
</g>
</g>
<!-- Node1&#45;&gt;Node5 -->
<g id="edge4_Node000001_Node000005" class="edge">
<title>Node1&#45;&gt;Node5</title>
<g id="a_edge4_Node000001_Node000005"><a xlink:title=" ">
<path fill="none" stroke="#63b8ff" d="M169.25,-109.75C175.32,-102.26 184.23,-91.28 191.66,-82.13"/>
<polygon fill="#63b8ff" stroke="#63b8ff" points="194.6,-84.06 198.18,-74.09 189.16,-79.65 194.6,-84.06"/>
</a>
</g>
</g>
<!-- Node6 -->
<g id="Node000006" class="node">
<title>Node6</title>
<g id="a_Node000006"><a xlink:title=" ">
<polygon fill="#e0e0e0" stroke="#999999" points="306.65,-74 259.65,-74 259.65,-55 306.65,-55 306.65,-74"/>
<text text-anchor="middle" x="283.15" y="-62" font-family="Helvetica,sans-Serif" font-size="10.00">task.h</text>
</a>
</g>
</g>
<!-- Node1&#45;&gt;Node6 -->
<g id="edge5_Node000001_Node000006" class="edge">
<title>Node1&#45;&gt;Node6</title>
<g id="a_edge5_Node000001_Node000006"><a xlink:title=" ">
<path fill="none" stroke="#63b8ff" d="M181.59,-109.98C201.14,-101.42 231.53,-88.11 253.97,-78.28"/>
<polygon fill="#63b8ff" stroke="#63b8ff" points="255.6,-81.39 263.35,-74.17 252.79,-74.98 255.6,-81.39"/>
</a>
</g>
</g>
<!-- Node7 -->
<g id="Node000007" class="node">
<title>Node7</title>
<g id="a_Node000007"><a xlink:href="usb__uart_8h.html" target="_top" xlink:title="Serial Communication Driver (USB/UART)">
<polygon fill="white" stroke="#666666" points="393.15,-74 325.15,-74 325.15,-55 393.15,-55 393.15,-74"/>
<text text-anchor="middle" x="359.15" y="-62" font-family="Helvetica,sans-Serif" font-size="10.00">usb_uart.h</text>
</a>
</g>
</g>
<!-- Node1&#45;&gt;Node7 -->
<g id="edge6_Node000001_Node000007" class="edge">
<title>Node1&#45;&gt;Node7</title>
<g id="a_edge6_Node000001_Node000007"><a xlink:title=" ">
<path fill="none" stroke="#63b8ff" d="M193.8,-109.98C227.3,-100.97 280.34,-86.7 317.28,-76.76"/>
<polygon fill="#63b8ff" stroke="#63b8ff" points="318.5,-80.06 327.25,-74.08 316.68,-73.3 318.5,-80.06"/>
</a>
</g>
</g>
<!-- Node7&#45;&gt;Node2 -->
<g id="edge9_Node000007_Node000002" class="edge">
<title>Node7&#45;&gt;Node2</title>
<g id="a_edge9_Node000007_Node000002"><a xlink:title=" ">
<path fill="none" stroke="#63b8ff" d="M324.95,-55.33C283.48,-45.44 213.98,-28.84 172.16,-18.86"/>
<polygon fill="#63b8ff" stroke="#63b8ff" points="172.95,-15.45 162.41,-16.53 171.32,-22.26 172.95,-15.45"/>
</a>
</g>
</g>
<!-- Node8 -->
<g id="Node000008" class="node">
<title>Node8</title>
<g id="a_Node000008"><a xlink:title=" ">
<polygon fill="#e0e0e0" stroke="#999999" points="350.15,-19 294.15,-19 294.15,0 350.15,0 350.15,-19"/>
<text text-anchor="middle" x="322.15" y="-7" font-family="Helvetica,sans-Serif" font-size="10.00">stddef.h</text>
</a>
</g>
</g>
<!-- Node7&#45;&gt;Node8 -->
<g id="edge7_Node000007_Node000008" class="edge">
<title>Node7&#45;&gt;Node8</title>
<g id="a_edge7_Node000007_Node000008"><a xlink:title=" ">
<path fill="none" stroke="#63b8ff" d="M353.04,-54.75C347.86,-47.34 340.3,-36.5 333.95,-27.41"/>
<polygon fill="#63b8ff" stroke="#63b8ff" points="336.74,-25.29 328.14,-19.09 331,-29.29 336.74,-25.29"/>
</a>
</g>
</g>
<!-- Node9 -->
<g id="Node000009" class="node">
<title>Node9</title>
<g id="a_Node000009"><a xlink:title=" ">
<polygon fill="#e0e0e0" stroke="#999999" points="421.65,-19 368.65,-19 368.65,0 421.65,0 421.65,-19"/>
<text text-anchor="middle" x="395.15" y="-7" font-family="Helvetica,sans-Serif" font-size="10.00">stdint.h</text>
</a>
</g>
</g>
<!-- Node7&#45;&gt;Node9 -->
<g id="edge8_Node000007_Node000009" class="edge">
<title>Node7&#45;&gt;Node9</title>
<g id="a_edge8_Node000007_Node000009"><a xlink:title=" ">
<path fill="none" stroke="#63b8ff" d="M365.09,-54.75C370.12,-47.34 377.48,-36.5 383.66,-27.41"/>
<polygon fill="#63b8ff" stroke="#63b8ff" points="386.59,-29.33 389.31,-19.09 380.8,-25.39 386.59,-29.33"/>
</a>
</g>
</g>
</g>
</svg>
</svg>

<style type='text/css'>
<![CDATA[
[data-mouse-over-selected='false'] { opacity: 0.7; }
[data-mouse-over-selected='true']  { opacity: 1.0; }
]]>
</style>
<script type="application/ecmascript"><![CDATA[
document.addEventListener('DOMContentLoaded', (event) => {
  highlightEdges();
  highlightAdjacentNodes();
});
]]></script>
</svg>
