<?xml version="1.0" encoding="UTF-8" standalone="no"?>
<!DOCTYPE svg PUBLIC "-//W3C//DTD SVG 1.1//EN"
 "http://www.w3.org/Graphics/SVG/1.1/DTD/svg11.dtd">
<!-- Generated by graphviz version 12.1.2 (20240928.0832)
 -->
<!-- Title: i2c.h Pages: 1 -->
<!--zoomable 196 -->

<svg id="main" version="1.1" xmlns="http://www.w3.org/2000/svg" xmlns:xlink="http://www.w3.org/1999/xlink" xml:space="preserve" onload="init(evt)">

<style type="text/css"><![CDATA[
.node, .edge {opacity: 0.7;}
.node.selected, .edge.selected {opacity: 1;}
.edge:hover path { stroke: red; }
.edge:hover polygon { stroke: red; fill: red; }
]]></style>

<defs>
  <circle id="rim" cx="0" cy="0" r="7"/>
  <circle id="rim2" cx="0" cy="0" r="3.5"/>
  <g id="zoomPlus">
    <use xlink:href="#rim" fill="#404040"><set attributeName="fill" to="#808080" begin="zoomplus.mouseover" end="zoomplus.mouseout"/></use>
    <path d="M-4,0h8M0,-4v8" fill="none" stroke="white" stroke-width="1.5" pointer-events="none"/>
  </g>
  <g id="zoomMin">
    <use xlink:href="#rim" fill="#404040"><set attributeName="fill" to="#808080" begin="zoomminus.mouseover" end="zoomminus.mouseout"/></use>
    <path d="M-4,0h8" fill="none" stroke="white" stroke-width="1.5" pointer-events="none"/>
  </g>
  <g id="arrowUp" transform="translate(30 24)">
    <use xlink:href="#rim"/>
    <path pointer-events="none" fill="none" stroke="white" stroke-width="1.5" d="M0,-3.0v7 M-2.5,-0.5L0,-3.0L2.5,-0.5"/>
  </g>
  <g id="arrowRight" transform="rotate(90) translate(36 -43)">
    <use xlink:href="#rim"/>
    <path pointer-events="none" fill="none" stroke="white" stroke-width="1.5" d="M0,-3.0v7 M-2.5,-0.5L0,-3.0L2.5,-0.5"/>
  </g>
  <g id="arrowDown" transform="rotate(180) translate(-30 -48)">
    <use xlink:href="#rim"/>
    <path pointer-events="none" fill="none" stroke="white" stroke-width="1.5" d="M0,-3.0v7 M-2.5,-0.5L0,-3.0L2.5,-0.5"/>
  </g>
  <g id="arrowLeft" transform="rotate(270) translate(-36 17)">
    <use xlink:href="#rim"/>
    <path pointer-events="none" fill="none" stroke="white" stroke-width="1.5" d="M0,-3.0v7 M-2.5,-0.5L0,-3.0L2.5,-0.5"/>
  </g>
  <g id="resetDef">
    <use xlink:href="#rim2" fill="#404040"><set attributeName="fill" to="#808080" begin="reset.mouseover" end="reset.mouseout"/></use>
  </g>
</defs>
<script type="application/ecmascript">
var viewWidth = 685;
var viewHeight = 196;
var sectionId = 'dynsection-1';
</script>
<script type="application/ecmascript" xlink:href="svg.min.js"/>
<svg id="graph" class="graph">
<g id="viewport">
<title>i2c.h</title>
<!-- Node1 -->
<g id="Node000001" class="node">
<title>Node1</title>
<g id="a_Node000001"><a xlink:title=" ">
<polygon fill="#999999" stroke="#666666" points="311.5,-188 274.5,-188 274.5,-168 311.5,-168 311.5,-188"/>
<text text-anchor="middle" x="293" y="-174.5" font-family="Helvetica,sans-Serif" font-size="10.00">i2c.h</text>
</a>
</g>
</g>
<!-- Node2 -->
<g id="Node000002" class="node">
<title>Node2</title>
<g id="a_Node000002"><a xlink:href="drivers_2include_2i2c_8h.html" target="_top" xlink:title=" ">
<polygon fill="white" stroke="#666666" points="189.5,-132 152.5,-132 152.5,-112 189.5,-112 189.5,-132"/>
<text text-anchor="middle" x="171" y="-118.5" font-family="Helvetica,sans-Serif" font-size="10.00">i2c.h</text>
</a>
</g>
</g>
<!-- Node1&#45;&gt;Node2 -->
<g id="edge1_Node000001_Node000002" class="edge">
<title>Node1&#45;&gt;Node2</title>
<g id="a_edge1_Node000001_Node000002"><a xlink:title=" ">
<path fill="none" stroke="#63b8ff" d="M263.97,-164.15C240.93,-153.95 209.4,-139.99 189.62,-131.24"/>
<polygon fill="#63b8ff" stroke="#63b8ff" points="262.26,-167.22 272.82,-168.07 265.09,-160.82 262.26,-167.22"/>
</a>
</g>
</g>
<!-- Node3 -->
<g id="Node000003" class="node">
<title>Node3</title>
<g id="a_Node000003"><a xlink:href="mag__lis3mdltr_8h.html" target="_top" xlink:title=" ">
<polygon fill="white" stroke="#666666" points="254.5,-76 169.5,-76 169.5,-56 254.5,-56 254.5,-76"/>
<text text-anchor="middle" x="212" y="-62.5" font-family="Helvetica,sans-Serif" font-size="10.00">mag_lis3mdltr.h</text>
</a>
</g>
</g>
<!-- Node1&#45;&gt;Node3 -->
<g id="edge15_Node000001_Node000003" class="edge">
<title>Node1&#45;&gt;Node3</title>
<g id="a_edge15_Node000001_Node000003"><a xlink:title=" ">
<path fill="none" stroke="#63b8ff" d="M279.44,-158.58C261.97,-134.86 232.26,-94.52 218.89,-76.35"/>
<polygon fill="#63b8ff" stroke="#63b8ff" points="276.45,-160.43 285.2,-166.4 282.09,-156.27 276.45,-160.43"/>
</a>
</g>
</g>
<!-- Node8 -->
<g id="Node000008" class="node">
<title>Node8</title>
<g id="a_Node000008"><a xlink:href="vega__ant_8h.html" target="_top" xlink:title=" ">
<polygon fill="white" stroke="#666666" points="64,-76 0,-76 0,-56 64,-56 64,-76"/>
<text text-anchor="middle" x="32" y="-62.5" font-family="Helvetica,sans-Serif" font-size="10.00">vega_ant.h</text>
</a>
</g>
</g>
<!-- Node1&#45;&gt;Node8 -->
<g id="edge24_Node000001_Node000008" class="edge">
<title>Node1&#45;&gt;Node8</title>
<g id="a_edge24_Node000001_Node000008"><a xlink:title=" ">
<path fill="none" stroke="#63b8ff" d="M262.97,-170.12C232.35,-162.6 183.83,-149.29 144,-132 106.67,-115.8 66.14,-90.01 45.6,-76.3"/>
<polygon fill="#63b8ff" stroke="#63b8ff" points="262.14,-173.52 272.68,-172.45 263.78,-166.71 262.14,-173.52"/>
</a>
</g>
</g>
<!-- Node10 -->
<g id="Node000010" class="node">
<title>Node10</title>
<g id="a_Node000010"><a xlink:href="ina219_8h.html" target="_top" xlink:title=" ">
<polygon fill="white" stroke="#666666" points="347.38,-132 294.62,-132 294.62,-112 347.38,-112 347.38,-132"/>
<text text-anchor="middle" x="321" y="-118.5" font-family="Helvetica,sans-Serif" font-size="10.00">ina219.h</text>
</a>
</g>
</g>
<!-- Node1&#45;&gt;Node10 -->
<g id="edge10_Node000001_Node000010" class="edge">
<title>Node1&#45;&gt;Node10</title>
<g id="a_edge10_Node000001_Node000010"><a xlink:title=" ">
<path fill="none" stroke="#63b8ff" d="M303.07,-157.58C307.53,-148.97 312.58,-139.24 316.18,-132.3"/>
<polygon fill="#63b8ff" stroke="#63b8ff" points="300.07,-155.76 298.57,-166.25 306.28,-158.98 300.07,-155.76"/>
</a>
</g>
</g>
<!-- Node13 -->
<g id="Node000013" class="node">
<title>Node13</title>
<g id="a_Node000013"><a xlink:href="rtc__ds3231_8c.html" target="_top" xlink:title=" ">
<polygon fill="white" stroke="#666666" points="677.12,-76 604.88,-76 604.88,-56 677.12,-56 677.12,-76"/>
<text text-anchor="middle" x="641" y="-62.5" font-family="Helvetica,sans-Serif" font-size="10.00">rtc_ds3231.c</text>
</a>
</g>
</g>
<!-- Node1&#45;&gt;Node13 -->
<g id="edge16_Node000001_Node000013" class="edge">
<title>Node1&#45;&gt;Node13</title>
<g id="a_edge16_Node000001_Node000013"><a xlink:title=" ">
<path fill="none" stroke="#63b8ff" d="M323.19,-174.73C369.44,-170.5 460.05,-159.24 532,-132 569.71,-117.72 609.2,-90.64 628.66,-76.36"/>
<polygon fill="#63b8ff" stroke="#63b8ff" points="323.06,-171.23 313.4,-175.57 323.66,-178.2 323.06,-171.23"/>
</a>
</g>
</g>
<!-- Node14 -->
<g id="Node000014" class="node">
<title>Node14</title>
<g id="a_Node000014"><a xlink:href="rtc__ds3231_8h.html" target="_top" xlink:title=" ">
<polygon fill="white" stroke="#666666" points="523.12,-132 450.88,-132 450.88,-112 523.12,-112 523.12,-132"/>
<text text-anchor="middle" x="487" y="-118.5" font-family="Helvetica,sans-Serif" font-size="10.00">rtc_ds3231.h</text>
</a>
</g>
</g>
<!-- Node1&#45;&gt;Node14 -->
<g id="edge17_Node000001_Node000014" class="edge">
<title>Node1&#45;&gt;Node14</title>
<g id="a_edge17_Node000001_Node000014"><a xlink:title=" ">
<path fill="none" stroke="#63b8ff" d="M322.93,-168.67C358.08,-158.88 416.26,-142.69 453.06,-132.45"/>
<polygon fill="#63b8ff" stroke="#63b8ff" points="322.11,-165.26 313.41,-171.32 323.99,-172.01 322.11,-165.26"/>
</a>
</g>
</g>
<!-- Node2&#45;&gt;Node3 -->
<g id="edge2_Node000002_Node000003" class="edge">
<title>Node2&#45;&gt;Node3</title>
<g id="a_edge2_Node000002_Node000003"><a xlink:title=" ">
<path fill="none" stroke="#63b8ff" d="M185.09,-102.44C191.79,-93.62 199.5,-83.47 204.94,-76.3"/>
<polygon fill="#63b8ff" stroke="#63b8ff" points="182.32,-100.31 179.06,-110.39 187.89,-104.54 182.32,-100.31"/>
</a>
</g>
</g>
<!-- Node7 -->
<g id="Node000007" class="node">
<title>Node7</title>
<g id="a_Node000007"><a xlink:href="drivers_2include_2max17048_8h.html" target="_top" xlink:title=" ">
<polygon fill="white" stroke="#666666" points="151.62,-76 82.38,-76 82.38,-56 151.62,-56 151.62,-76"/>
<text text-anchor="middle" x="117" y="-62.5" font-family="Helvetica,sans-Serif" font-size="10.00">max17048.h</text>
</a>
</g>
</g>
<!-- Node2&#45;&gt;Node7 -->
<g id="edge6_Node000002_Node000007" class="edge">
<title>Node2&#45;&gt;Node7</title>
<g id="a_edge6_Node000002_Node000007"><a xlink:title=" ">
<path fill="none" stroke="#63b8ff" d="M153.57,-103.57C144.5,-94.5 133.78,-83.78 126.3,-76.3"/>
<polygon fill="#63b8ff" stroke="#63b8ff" points="150.98,-105.93 160.52,-110.52 155.93,-100.98 150.98,-105.93"/>
</a>
</g>
</g>
<!-- Node2&#45;&gt;Node8 -->
<g id="edge7_Node000002_Node000008" class="edge">
<title>Node2&#45;&gt;Node8</title>
<g id="a_edge7_Node000002_Node000008"><a xlink:title=" ">
<path fill="none" stroke="#63b8ff" d="M141.75,-109.64C116.29,-99.74 79.83,-85.58 56.03,-76.34"/>
<polygon fill="#63b8ff" stroke="#63b8ff" points="140.25,-112.81 150.84,-113.17 142.79,-106.29 140.25,-112.81"/>
</a>
</g>
</g>
<!-- Node4 -->
<g id="Node000004" class="node">
<title>Node4</title>
<g id="a_Node000004"><a xlink:href="heartbeat__job_8c.html" target="_top" xlink:title=" ">
<polygon fill="white" stroke="#666666" points="362.38,-20 279.62,-20 279.62,0 362.38,0 362.38,-20"/>
<text text-anchor="middle" x="321" y="-6.5" font-family="Helvetica,sans-Serif" font-size="10.00">heartbeat_job.c</text>
</a>
</g>
</g>
<!-- Node3&#45;&gt;Node4 -->
<g id="edge3_Node000003_Node000004" class="edge">
<title>Node3&#45;&gt;Node4</title>
<g id="a_edge3_Node000003_Node000004"><a xlink:title=" ">
<path fill="none" stroke="#63b8ff" d="M241.04,-50.61C260.3,-41.07 285.04,-28.81 301.87,-20.48"/>
<polygon fill="#63b8ff" stroke="#63b8ff" points="239.75,-47.35 232.34,-54.92 242.86,-53.62 239.75,-47.35"/>
</a>
</g>
</g>
<!-- Node5 -->
<g id="Node000005" class="node">
<title>Node5</title>
<g id="a_Node000005"><a xlink:href="mag__lis3mdltr_8c.html" target="_top" xlink:title=" ">
<polygon fill="white" stroke="#666666" points="194.5,-20 109.5,-20 109.5,0 194.5,0 194.5,-20"/>
<text text-anchor="middle" x="152" y="-6.5" font-family="Helvetica,sans-Serif" font-size="10.00">mag_lis3mdltr.c</text>
</a>
</g>
</g>
<!-- Node3&#45;&gt;Node5 -->
<g id="edge4_Node000003_Node000005" class="edge">
<title>Node3&#45;&gt;Node5</title>
<g id="a_edge4_Node000003_Node000005"><a xlink:title=" ">
<path fill="none" stroke="#63b8ff" d="M193.25,-48.13C183.05,-38.94 170.81,-27.93 162.33,-20.3"/>
<polygon fill="#63b8ff" stroke="#63b8ff" points="190.65,-50.49 200.42,-54.58 195.33,-45.29 190.65,-50.49"/>
</a>
</g>
</g>
<!-- Node6 -->
<g id="Node000006" class="node">
<title>Node6</title>
<g id="a_Node000006"><a xlink:href="steve_8c.html" target="_top" xlink:title=" ">
<polygon fill="white" stroke="#666666" points="261.12,-20 212.88,-20 212.88,0 261.12,0 261.12,-20"/>
<text text-anchor="middle" x="237" y="-6.5" font-family="Helvetica,sans-Serif" font-size="10.00">steve.c</text>
</a>
</g>
</g>
<!-- Node3&#45;&gt;Node6 -->
<g id="edge5_Node000003_Node000006" class="edge">
<title>Node3&#45;&gt;Node6</title>
<g id="a_edge5_Node000003_Node000006"><a xlink:title=" ">
<path fill="none" stroke="#63b8ff" d="M221.12,-45.29C225.08,-36.75 229.52,-27.16 232.7,-20.3"/>
<polygon fill="#63b8ff" stroke="#63b8ff" points="218.02,-43.68 216.99,-54.22 224.37,-46.62 218.02,-43.68"/>
</a>
</g>
</g>
<!-- Node8&#45;&gt;Node4 -->
<g id="edge8_Node000008_Node000004" class="edge">
<title>Node8&#45;&gt;Node4</title>
<g id="a_edge8_Node000008_Node000004"><a xlink:title=" ">
<path fill="none" stroke="#63b8ff" d="M75.43,-55.59C127.17,-45.48 224.05,-28.18 279.61,-18.32"/>
<polygon fill="#63b8ff" stroke="#63b8ff" points="74.82,-52.14 65.69,-57.52 76.18,-59.01 74.82,-52.14"/>
</a>
</g>
</g>
<!-- Node9 -->
<g id="Node000009" class="node">
<title>Node9</title>
<g id="a_Node000009"><a xlink:href="vega__ant_8c.html" target="_top" xlink:title=" ">
<polygon fill="white" stroke="#666666" points="64,-20 0,-20 0,0 64,0 64,-20"/>
<text text-anchor="middle" x="32" y="-6.5" font-family="Helvetica,sans-Serif" font-size="10.00">vega_ant.c</text>
</a>
</g>
</g>
<!-- Node8&#45;&gt;Node9 -->
<g id="edge9_Node000008_Node000009" class="edge">
<title>Node8&#45;&gt;Node9</title>
<g id="a_edge9_Node000008_Node000009"><a xlink:title=" ">
<path fill="none" stroke="#63b8ff" d="M32,-44.13C32,-35.9 32,-26.85 32,-20.3"/>
<polygon fill="#63b8ff" stroke="#63b8ff" points="28.5,-44.08 32,-54.08 35.5,-44.08 28.5,-44.08"/>
</a>
</g>
</g>
<!-- Node10&#45;&gt;Node4 -->
<g id="edge12_Node000010_Node000004" class="edge">
<title>Node10&#45;&gt;Node4</title>
<g id="a_edge12_Node000010_Node000004"><a xlink:title=" ">
<path fill="none" stroke="#63b8ff" d="M321,-100.31C321,-76.36 321,-37.95 321,-20.35"/>
<polygon fill="#63b8ff" stroke="#63b8ff" points="317.5,-100.11 321,-110.11 324.5,-100.11 317.5,-100.11"/>
</a>
</g>
</g>
<!-- Node10&#45;&gt;Node6 -->
<g id="edge14_Node000010_Node000006" class="edge">
<title>Node10&#45;&gt;Node6</title>
<g id="a_edge14_Node000010_Node000006"><a xlink:title=" ">
<path fill="none" stroke="#63b8ff" d="M306.94,-102.58C288.82,-78.86 258.02,-38.52 244.14,-20.35"/>
<polygon fill="#63b8ff" stroke="#63b8ff" points="304.07,-104.6 312.92,-110.42 309.63,-100.35 304.07,-104.6"/>
</a>
</g>
</g>
<!-- Node11 -->
<g id="Node000011" class="node">
<title>Node11</title>
<g id="a_Node000011"><a xlink:href="gse_8c.html" target="_top" xlink:title=" ">
<polygon fill="white" stroke="#666666" points="459,-76 419,-76 419,-56 459,-56 459,-76"/>
<text text-anchor="middle" x="439" y="-62.5" font-family="Helvetica,sans-Serif" font-size="10.00">gse.c</text>
</a>
</g>
</g>
<!-- Node10&#45;&gt;Node11 -->
<g id="edge11_Node000010_Node000011" class="edge">
<title>Node10&#45;&gt;Node11</title>
<g id="a_edge11_Node000010_Node000011"><a xlink:title=" ">
<path fill="none" stroke="#63b8ff" d="M351.93,-106.85C373,-97.2 400.31,-84.7 418.68,-76.3"/>
<polygon fill="#63b8ff" stroke="#63b8ff" points="350.57,-103.62 342.93,-110.96 353.48,-109.99 350.57,-103.62"/>
</a>
</g>
</g>
<!-- Node12 -->
<g id="Node000012" class="node">
<title>Node12</title>
<g id="a_Node000012"><a xlink:href="ina219_8c.html" target="_top" xlink:title=" ">
<polygon fill="white" stroke="#666666" points="401.38,-76 348.62,-76 348.62,-56 401.38,-56 401.38,-76"/>
<text text-anchor="middle" x="375" y="-62.5" font-family="Helvetica,sans-Serif" font-size="10.00">ina219.c</text>
</a>
</g>
</g>
<!-- Node10&#45;&gt;Node12 -->
<g id="edge13_Node000010_Node000012" class="edge">
<title>Node10&#45;&gt;Node12</title>
<g id="a_edge13_Node000010_Node000012"><a xlink:title=" ">
<path fill="none" stroke="#63b8ff" d="M338.43,-103.57C347.5,-94.5 358.22,-83.78 365.7,-76.3"/>
<polygon fill="#63b8ff" stroke="#63b8ff" points="336.07,-100.98 331.48,-110.52 341.02,-105.93 336.07,-100.98"/>
</a>
</g>
</g>
<!-- Node14&#45;&gt;Node4 -->
<g id="edge19_Node000014_Node000004" class="edge">
<title>Node14&#45;&gt;Node4</title>
<g id="a_edge19_Node000014_Node000004"><a xlink:title=" ">
<path fill="none" stroke="#63b8ff" d="M485.98,-100.5C484.21,-86.25 479.63,-67.78 468,-56 440.25,-27.89 395.45,-17.24 362.59,-13.26"/>
<polygon fill="#63b8ff" stroke="#63b8ff" points="482.47,-100.48 486.8,-110.15 489.45,-99.9 482.47,-100.48"/>
</a>
</g>
</g>
<!-- Node14&#45;&gt;Node11 -->
<g id="edge18_Node000014_Node000011" class="edge">
<title>Node14&#45;&gt;Node11</title>
<g id="a_edge18_Node000014_Node000011"><a xlink:title=" ">
<path fill="none" stroke="#63b8ff" d="M471,-103C463.05,-94.06 453.78,-83.62 447.27,-76.3"/>
<polygon fill="#63b8ff" stroke="#63b8ff" points="468.37,-105.31 477.63,-110.46 473.61,-100.66 468.37,-105.31"/>
</a>
</g>
</g>
<!-- Node14&#45;&gt;Node13 -->
<g id="edge20_Node000014_Node000013" class="edge">
<title>Node14&#45;&gt;Node13</title>
<g id="a_edge20_Node000014_Node000013"><a xlink:title=" ">
<path fill="none" stroke="#63b8ff" d="M524.67,-107.79C552.31,-98.1 589.21,-85.16 613.97,-76.48"/>
<polygon fill="#63b8ff" stroke="#63b8ff" points="523.53,-104.48 515.25,-111.09 525.85,-111.09 523.53,-104.48"/>
</a>
</g>
</g>
<!-- Node15 -->
<g id="Node000015" class="node">
<title>Node15</title>
<g id="a_Node000015"><a xlink:href="set__rtc__job_8h.html" target="_top" xlink:title=" ">
<polygon fill="white" stroke="#666666" points="587.12,-76 514.88,-76 514.88,-56 587.12,-56 587.12,-76"/>
<text text-anchor="middle" x="551" y="-62.5" font-family="Helvetica,sans-Serif" font-size="10.00">set_rtc_job.h</text>
</a>
</g>
</g>
<!-- Node14&#45;&gt;Node15 -->
<g id="edge21_Node000014_Node000015" class="edge">
<title>Node14&#45;&gt;Node15</title>
<g id="a_edge21_Node000014_Node000015"><a xlink:title=" ">
<path fill="none" stroke="#63b8ff" d="M506.67,-104.4C517.62,-95.17 530.84,-84.01 539.98,-76.3"/>
<polygon fill="#63b8ff" stroke="#63b8ff" points="504.69,-101.49 499.3,-110.62 509.2,-106.84 504.69,-101.49"/>
</a>
</g>
</g>
<!-- Node16 -->
<g id="Node000016" class="node">
<title>Node16</title>
<g id="a_Node000016"><a xlink:href="command_8c.html" target="_top" xlink:title=" ">
<polygon fill="white" stroke="#666666" points="540.5,-20 473.5,-20 473.5,0 540.5,0 540.5,-20"/>
<text text-anchor="middle" x="507" y="-6.5" font-family="Helvetica,sans-Serif" font-size="10.00">command.c</text>
</a>
</g>
</g>
<!-- Node15&#45;&gt;Node16 -->
<g id="edge22_Node000015_Node000016" class="edge">
<title>Node15&#45;&gt;Node16</title>
<g id="a_edge22_Node000015_Node000016"><a xlink:title=" ">
<path fill="none" stroke="#63b8ff" d="M536.11,-46.72C528.87,-37.84 520.48,-27.55 514.58,-20.3"/>
<polygon fill="#63b8ff" stroke="#63b8ff" points="533.35,-48.88 542.38,-54.42 538.78,-44.46 533.35,-48.88"/>
</a>
</g>
</g>
<!-- Node17 -->
<g id="Node000017" class="node">
<title>Node17</title>
<g id="a_Node000017"><a xlink:href="set__rtc__job_8c.html" target="_top" xlink:title=" ">
<polygon fill="white" stroke="#666666" points="631.12,-20 558.88,-20 558.88,0 631.12,0 631.12,-20"/>
<text text-anchor="middle" x="595" y="-6.5" font-family="Helvetica,sans-Serif" font-size="10.00">set_rtc_job.c</text>
</a>
</g>
</g>
<!-- Node15&#45;&gt;Node17 -->
<g id="edge23_Node000015_Node000017" class="edge">
<title>Node15&#45;&gt;Node17</title>
<g id="a_edge23_Node000015_Node000017"><a xlink:title=" ">
<path fill="none" stroke="#63b8ff" d="M565.89,-46.72C573.13,-37.84 581.52,-27.55 587.42,-20.3"/>
<polygon fill="#63b8ff" stroke="#63b8ff" points="563.22,-44.46 559.62,-54.42 568.65,-48.88 563.22,-44.46"/>
</a>
</g>
</g>
</g>
</svg>

<g id="navigator" transform="translate(0 0)" fill="#404254">
  <rect fill="#f2f5e9" fill-opacity="0.5" stroke="#606060" stroke-width=".5" x="0" y="0" width="60" height="60"/>
  <use id="zoomplus" xlink:href="#zoomPlus" x="17" y="9" onmousedown="handleZoom(evt,'in')"/>
  <use id="zoomminus" xlink:href="#zoomMin" x="42" y="9" onmousedown="handleZoom(evt,'out')"/>
  <use id="reset" xlink:href="#resetDef" x="30" y="36" onmousedown="handleReset()"/>
   <use id="arrowup" xlink:href="#arrowUp" x="0" y="0" onmousedown="handlePan(0,-1)"/>
  <use id="arrowright" xlink:href="#arrowRight" x="0" y="0" onmousedown="handlePan(1,0)"/>
  <use id="arrowdown" xlink:href="#arrowDown" x="0" y="0" onmousedown="handlePan(0,1)"/>
  <use id="arrowleft" xlink:href="#arrowLeft" x="0" y="0" onmousedown="handlePan(-1,0)"/>
</g>
<svg viewBox="0 0 15 15" width="100%" height="30px" preserveAspectRatio="xMaxYMin meet">
 <g id="arrow_out" transform="scale(0.3 0.3)">
  <a xlink:href="simulator_2pico-sdk_2hardware_2i2c_8h__dep__incl_org.svg" target="_base">
   <rect id="button" ry="5" rx="5" y="6" x="6" height="38" width="38"
        fill="#f2f5e9" fill-opacity="0.5" stroke="#606060" stroke-width="1.0"/>
   <path id="arrow"
     d="M 11.500037,31.436501 C 11.940474,20.09759 22.043105,11.32322 32.158766,21.979434 L 37.068811,17.246167 C 37.068811,17.246167 37.088388,32 37.088388,32 L 22.160133,31.978069 C 22.160133,31.978069 26.997745,27.140456 26.997745,27.140456 C 18.528582,18.264221 13.291696,25.230495 11.500037,31.436501 z"
     style="fill:#404040;"/>
  </a>
 </g>
</svg>

<style type='text/css'>
<![CDATA[
[data-mouse-over-selected='false'] { opacity: 0.7; }
[data-mouse-over-selected='true']  { opacity: 1.0; }
]]>
</style>
<script type="application/ecmascript"><![CDATA[
document.addEventListener('DOMContentLoaded', (event) => {
  highlightEdges();
  highlightAdjacentNodes();
});
]]></script>
</svg>
