<?xml version="1.0" encoding="UTF-8" standalone="no"?>
<!DOCTYPE svg PUBLIC "-//W3C//DTD SVG 1.1//EN"
 "http://www.w3.org/Graphics/SVG/1.1/DTD/svg11.dtd">
<!-- Generated by graphviz version 2.43.0 (0)
 -->
<!-- Title: i2c.h Pages: 1 -->
<svg width="845pt" height="192pt"
 viewBox="0.00 0.00 845.00 192.00" xmlns="http://www.w3.org/2000/svg" xmlns:xlink="http://www.w3.org/1999/xlink">
<g id="graph0" class="graph" transform="scale(1 1) rotate(0) translate(4 188)">
<title>i2c.h</title>
<!-- Node1 -->
<g id="Node000001" class="node">
<title>Node1</title>
<g id="a_Node000001"><a xlink:title=" ">
<polygon fill="#999999" stroke="#666666" points="450,-184 410,-184 410,-165 450,-165 450,-184"/>
<text text-anchor="middle" x="430" y="-172" font-family="Helvetica,sans-Serif" font-size="10.00">i2c.h</text>
</a>
</g>
</g>
<!-- Node2 -->
<g id="Node000002" class="node">
<title>Node2</title>
<g id="a_Node000002"><a xlink:href="drivers_2include_2i2c_8h.html" target="_top" xlink:title="Drivers for i2c peripheral devices.">
<polygon fill="white" stroke="#666666" points="320,-129 280,-129 280,-110 320,-110 320,-129"/>
<text text-anchor="middle" x="300" y="-117" font-family="Helvetica,sans-Serif" font-size="10.00">i2c.h</text>
</a>
</g>
</g>
<!-- Node1&#45;&gt;Node2 -->
<g id="edge1_Node000001_Node000002" class="edge">
<title>Node1&#45;&gt;Node2</title>
<g id="a_edge1_Node000001_Node000002"><a xlink:title=" ">
<path fill="none" stroke="#63b8ff" d="M400.46,-161.45C375.95,-151.47 341.77,-137.53 320.26,-128.76"/>
<polygon fill="#63b8ff" stroke="#63b8ff" points="399.39,-164.8 409.97,-165.33 402.03,-158.32 399.39,-164.8"/>
</a>
</g>
</g>
<!-- Node3 -->
<g id="Node000003" class="node">
<title>Node3</title>
<g id="a_Node000003"><a xlink:href="mag__lis3mdltr_8h.html" target="_top" xlink:title="Magnetometer Driver (LIS3MDLTR)">
<polygon fill="white" stroke="#666666" points="392.5,-74 297.5,-74 297.5,-55 392.5,-55 392.5,-74"/>
<text text-anchor="middle" x="345" y="-62" font-family="Helvetica,sans-Serif" font-size="10.00">mag_lis3mdltr.h</text>
</a>
</g>
</g>
<!-- Node1&#45;&gt;Node3 -->
<g id="edge16_Node000001_Node000003" class="edge">
<title>Node1&#45;&gt;Node3</title>
<g id="a_edge16_Node000001_Node000003"><a xlink:title=" ">
<path fill="none" stroke="#63b8ff" d="M416.77,-156.69C398.42,-133.37 365.9,-92.05 351.81,-74.16"/>
<polygon fill="#63b8ff" stroke="#63b8ff" points="414.11,-158.97 423.04,-164.66 419.61,-154.64 414.11,-158.97"/>
</a>
</g>
</g>
<!-- Node8 -->
<g id="Node000008" class="node">
<title>Node8</title>
<g id="a_Node000008"><a xlink:href="vega__ant_8h.html" target="_top" xlink:title="Vega Antenna Board Driver.">
<polygon fill="white" stroke="#666666" points="184.5,-74 113.5,-74 113.5,-55 184.5,-55 184.5,-74"/>
<text text-anchor="middle" x="149" y="-62" font-family="Helvetica,sans-Serif" font-size="10.00">vega_ant.h</text>
</a>
</g>
</g>
<!-- Node1&#45;&gt;Node8 -->
<g id="edge25_Node000001_Node000008" class="edge">
<title>Node1&#45;&gt;Node8</title>
<g id="a_edge25_Node000001_Node000008"><a xlink:title=" ">
<path fill="none" stroke="#63b8ff" d="M399.81,-167.02C367.36,-159.6 314.59,-146.23 271,-129 230.36,-112.94 185.48,-87.39 163.19,-74.13"/>
<polygon fill="#63b8ff" stroke="#63b8ff" points="399.46,-170.53 409.99,-169.3 400.99,-163.7 399.46,-170.53"/>
</a>
</g>
</g>
<!-- Node11 -->
<g id="Node000011" class="node">
<title>Node11</title>
<g id="a_Node000011"><a xlink:href="ina219_8h.html" target="_top" xlink:title="INA219 Driver.">
<polygon fill="white" stroke="#666666" points="488.5,-129 429.5,-129 429.5,-110 488.5,-110 488.5,-129"/>
<text text-anchor="middle" x="459" y="-117" font-family="Helvetica,sans-Serif" font-size="10.00">ina219.h</text>
</a>
</g>
</g>
<!-- Node1&#45;&gt;Node11 -->
<g id="edge11_Node000001_Node000011" class="edge">
<title>Node1&#45;&gt;Node11</title>
<g id="a_edge11_Node000001_Node000011"><a xlink:title=" ">
<path fill="none" stroke="#63b8ff" d="M439.68,-155.82C444.6,-146.82 450.36,-136.29 454.3,-129.09"/>
<polygon fill="#63b8ff" stroke="#63b8ff" points="436.52,-154.3 434.79,-164.75 442.66,-157.66 436.52,-154.3"/>
</a>
</g>
</g>
<!-- Node14 -->
<g id="Node000014" class="node">
<title>Node14</title>
<g id="a_Node000014"><a xlink:href="rtc__ds3231_8c.html" target="_top" xlink:title=" ">
<polygon fill="white" stroke="#666666" points="837,-74 759,-74 759,-55 837,-55 837,-74"/>
<text text-anchor="middle" x="798" y="-62" font-family="Helvetica,sans-Serif" font-size="10.00">rtc_ds3231.c</text>
</a>
</g>
</g>
<!-- Node1&#45;&gt;Node14 -->
<g id="edge17_Node000001_Node000014" class="edge">
<title>Node1&#45;&gt;Node14</title>
<g id="a_edge17_Node000001_Node000014"><a xlink:title=" ">
<path fill="none" stroke="#63b8ff" d="M460.09,-171.3C508.01,-167.12 604.1,-155.89 681,-129 721.36,-114.89 764.49,-88.01 785.31,-74.19"/>
<polygon fill="#63b8ff" stroke="#63b8ff" points="459.75,-167.82 450.08,-172.14 460.33,-174.8 459.75,-167.82"/>
</a>
</g>
</g>
<!-- Node15 -->
<g id="Node000015" class="node">
<title>Node15</title>
<g id="a_Node000015"><a xlink:href="rtc__ds3231_8h.html" target="_top" xlink:title="DS3231 Real Time Clock Driver.">
<polygon fill="white" stroke="#666666" points="672.5,-129 593.5,-129 593.5,-110 672.5,-110 672.5,-129"/>
<text text-anchor="middle" x="633" y="-117" font-family="Helvetica,sans-Serif" font-size="10.00">rtc_ds3231.h</text>
</a>
</g>
</g>
<!-- Node1&#45;&gt;Node15 -->
<g id="edge18_Node000001_Node000015" class="edge">
<title>Node1&#45;&gt;Node15</title>
<g id="a_edge18_Node000001_Node000015"><a xlink:title=" ">
<path fill="none" stroke="#63b8ff" d="M460.04,-165.66C497.55,-155.86 561.48,-139.17 600.22,-129.06"/>
<polygon fill="#63b8ff" stroke="#63b8ff" points="459,-162.31 450.21,-168.22 460.77,-169.08 459,-162.31"/>
</a>
</g>
</g>
<!-- Node2&#45;&gt;Node3 -->
<g id="edge2_Node000002_Node000003" class="edge">
<title>Node2&#45;&gt;Node3</title>
<g id="a_edge2_Node000002_Node000003"><a xlink:title=" ">
<path fill="none" stroke="#63b8ff" d="M314.05,-101.96C321.89,-92.72 331.33,-81.6 337.71,-74.09"/>
<polygon fill="#63b8ff" stroke="#63b8ff" points="311.24,-99.86 307.43,-109.75 316.57,-104.39 311.24,-99.86"/>
</a>
</g>
</g>
<!-- Node7 -->
<g id="Node000007" class="node">
<title>Node7</title>
<g id="a_Node000007"><a xlink:href="drivers_2include_2max17048_8h.html" target="_top" xlink:title="MAX17048 Driver.">
<polygon fill="white" stroke="#666666" points="279.5,-74 202.5,-74 202.5,-55 279.5,-55 279.5,-74"/>
<text text-anchor="middle" x="241" y="-62" font-family="Helvetica,sans-Serif" font-size="10.00">max17048.h</text>
</a>
</g>
</g>
<!-- Node2&#45;&gt;Node7 -->
<g id="edge6_Node000002_Node000007" class="edge">
<title>Node2&#45;&gt;Node7</title>
<g id="a_edge6_Node000002_Node000007"><a xlink:title=" ">
<path fill="none" stroke="#63b8ff" d="M282.8,-103.04C272.33,-93.64 259.35,-81.98 250.65,-74.17"/>
<polygon fill="#63b8ff" stroke="#63b8ff" points="280.74,-105.91 290.52,-109.98 285.42,-100.7 280.74,-105.91"/>
</a>
</g>
</g>
<!-- Node2&#45;&gt;Node8 -->
<g id="edge7_Node000002_Node000008" class="edge">
<title>Node2&#45;&gt;Node8</title>
<g id="a_edge7_Node000002_Node000008"><a xlink:title=" ">
<path fill="none" stroke="#63b8ff" d="M270.19,-108.04C241.86,-98.09 199.77,-83.32 173.39,-74.06"/>
<polygon fill="#63b8ff" stroke="#63b8ff" points="269.35,-111.45 279.95,-111.46 271.67,-104.85 269.35,-111.45"/>
</a>
</g>
</g>
<!-- Node4 -->
<g id="Node000004" class="node">
<title>Node4</title>
<g id="a_Node000004"><a xlink:href="heartbeat__job_8c.html" target="_top" xlink:title=" ">
<polygon fill="white" stroke="#666666" points="505,-19 413,-19 413,0 505,0 505,-19"/>
<text text-anchor="middle" x="459" y="-7" font-family="Helvetica,sans-Serif" font-size="10.00">heartbeat_job.c</text>
</a>
</g>
</g>
<!-- Node3&#45;&gt;Node4 -->
<g id="edge3_Node000003_Node000004" class="edge">
<title>Node3&#45;&gt;Node4</title>
<g id="a_edge3_Node000003_Node000004"><a xlink:title=" ">
<path fill="none" stroke="#63b8ff" d="M372.39,-50.77C393.42,-40.99 421.89,-27.75 440.35,-19.17"/>
<polygon fill="#63b8ff" stroke="#63b8ff" points="370.91,-47.6 363.32,-54.98 373.86,-53.94 370.91,-47.6"/>
</a>
</g>
</g>
<!-- Node5 -->
<g id="Node000005" class="node">
<title>Node5</title>
<g id="a_Node000005"><a xlink:href="mag__lis3mdltr_8c.html" target="_top" xlink:title=" ">
<polygon fill="white" stroke="#666666" points="324.5,-19 229.5,-19 229.5,0 324.5,0 324.5,-19"/>
<text text-anchor="middle" x="277" y="-7" font-family="Helvetica,sans-Serif" font-size="10.00">mag_lis3mdltr.c</text>
</a>
</g>
</g>
<!-- Node3&#45;&gt;Node5 -->
<g id="edge4_Node000003_Node000005" class="edge">
<title>Node3&#45;&gt;Node5</title>
<g id="a_edge4_Node000003_Node000005"><a xlink:title=" ">
<path fill="none" stroke="#63b8ff" d="M325.88,-48.6C313.7,-39.11 298.34,-27.13 288.12,-19.17"/>
<polygon fill="#63b8ff" stroke="#63b8ff" points="324.04,-51.6 334.07,-54.98 328.34,-46.08 324.04,-51.6"/>
</a>
</g>
</g>
<!-- Node6 -->
<g id="Node000006" class="node">
<title>Node6</title>
<g id="a_Node000006"><a xlink:href="steve_8c.html" target="_top" xlink:title=" ">
<polygon fill="white" stroke="#666666" points="395,-19 343,-19 343,0 395,0 395,-19"/>
<text text-anchor="middle" x="369" y="-7" font-family="Helvetica,sans-Serif" font-size="10.00">steve.c</text>
</a>
</g>
</g>
<!-- Node3&#45;&gt;Node6 -->
<g id="edge5_Node000003_Node000006" class="edge">
<title>Node3&#45;&gt;Node6</title>
<g id="a_edge5_Node000003_Node000006"><a xlink:title=" ">
<path fill="none" stroke="#63b8ff" d="M353.14,-45.53C357.18,-36.6 361.88,-26.22 365.11,-19.09"/>
<polygon fill="#63b8ff" stroke="#63b8ff" points="349.9,-44.19 348.96,-54.75 356.28,-47.08 349.9,-44.19"/>
</a>
</g>
</g>
<!-- Node8&#45;&gt;Node4 -->
<g id="edge9_Node000008_Node000004" class="edge">
<title>Node8&#45;&gt;Node4</title>
<g id="a_edge9_Node000008_Node000004"><a xlink:title=" ">
<path fill="none" stroke="#63b8ff" d="M194.56,-54.75C276.91,-39.99 361.78,-26.09 412.81,-17.87"/>
<polygon fill="#63b8ff" stroke="#63b8ff" points="193.75,-51.34 184.53,-56.56 194.99,-58.23 193.75,-51.34"/>
</a>
</g>
</g>
<!-- Node9 -->
<g id="Node000009" class="node">
<title>Node9</title>
<g id="a_Node000009"><a xlink:href="antenna__deploy__job_8c.html" target="_top" xlink:title=" ">
<polygon fill="white" stroke="#666666" points="211.5,-19 88.5,-19 88.5,0 211.5,0 211.5,-19"/>
<text text-anchor="middle" x="150" y="-7" font-family="Helvetica,sans-Serif" font-size="10.00">antenna_deploy_job.c</text>
</a>
</g>
</g>
<!-- Node8&#45;&gt;Node9 -->
<g id="edge8_Node000008_Node000009" class="edge">
<title>Node8&#45;&gt;Node9</title>
<g id="a_edge8_Node000008_Node000009"><a xlink:title=" ">
<path fill="none" stroke="#63b8ff" d="M149.36,-44.66C149.52,-35.93 149.71,-25.99 149.84,-19.09"/>
<polygon fill="#63b8ff" stroke="#63b8ff" points="145.85,-44.68 149.17,-54.75 152.85,-44.82 145.85,-44.68"/>
</a>
</g>
</g>
<!-- Node10 -->
<g id="Node000010" class="node">
<title>Node10</title>
<g id="a_Node000010"><a xlink:href="vega__ant_8c.html" target="_top" xlink:title=" ">
<polygon fill="white" stroke="#666666" points="70,-19 0,-19 0,0 70,0 70,-19"/>
<text text-anchor="middle" x="35" y="-7" font-family="Helvetica,sans-Serif" font-size="10.00">vega_ant.c</text>
</a>
</g>
</g>
<!-- Node8&#45;&gt;Node10 -->
<g id="edge10_Node000008_Node000010" class="edge">
<title>Node8&#45;&gt;Node10</title>
<g id="a_edge10_Node000008_Node000010"><a xlink:title=" ">
<path fill="none" stroke="#63b8ff" d="M121.61,-50.77C100.58,-40.99 72.11,-27.75 53.65,-19.17"/>
<polygon fill="#63b8ff" stroke="#63b8ff" points="120.14,-53.94 130.68,-54.98 123.09,-47.6 120.14,-53.94"/>
</a>
</g>
</g>
<!-- Node11&#45;&gt;Node4 -->
<g id="edge13_Node000011_Node000004" class="edge">
<title>Node11&#45;&gt;Node4</title>
<g id="a_edge13_Node000011_Node000004"><a xlink:title=" ">
<path fill="none" stroke="#63b8ff" d="M459,-99.48C459,-75.84 459,-36.5 459,-19.16"/>
<polygon fill="#63b8ff" stroke="#63b8ff" points="455.5,-99.66 459,-109.66 462.5,-99.66 455.5,-99.66"/>
</a>
</g>
</g>
<!-- Node11&#45;&gt;Node6 -->
<g id="edge15_Node000011_Node000006" class="edge">
<title>Node11&#45;&gt;Node6</title>
<g id="a_edge15_Node000011_Node000006"><a xlink:title=" ">
<path fill="none" stroke="#63b8ff" d="M444.99,-101.69C425.56,-78.37 391.12,-37.05 376.22,-19.16"/>
<polygon fill="#63b8ff" stroke="#63b8ff" points="442.54,-104.22 451.63,-109.66 447.92,-99.74 442.54,-104.22"/>
</a>
</g>
</g>
<!-- Node12 -->
<g id="Node000012" class="node">
<title>Node12</title>
<g id="a_Node000012"><a xlink:href="gse_8c.html" target="_top" xlink:title=" ">
<polygon fill="white" stroke="#666666" points="605,-74 563,-74 563,-55 605,-55 605,-74"/>
<text text-anchor="middle" x="584" y="-62" font-family="Helvetica,sans-Serif" font-size="10.00">gse.c</text>
</a>
</g>
</g>
<!-- Node11&#45;&gt;Node12 -->
<g id="edge12_Node000011_Node000012" class="edge">
<title>Node11&#45;&gt;Node12</title>
<g id="a_edge12_Node000011_Node000012"><a xlink:title=" ">
<path fill="none" stroke="#63b8ff" d="M488.41,-106.03C511.53,-96.23 543.13,-82.83 563.55,-74.17"/>
<polygon fill="#63b8ff" stroke="#63b8ff" points="486.92,-102.86 479.08,-109.98 489.66,-109.3 486.92,-102.86"/>
</a>
</g>
</g>
<!-- Node13 -->
<g id="Node000013" class="node">
<title>Node13</title>
<g id="a_Node000013"><a xlink:href="ina219_8c.html" target="_top" xlink:title=" ">
<polygon fill="white" stroke="#666666" points="545,-74 487,-74 487,-55 545,-55 545,-74"/>
<text text-anchor="middle" x="516" y="-62" font-family="Helvetica,sans-Serif" font-size="10.00">ina219.c</text>
</a>
</g>
</g>
<!-- Node11&#45;&gt;Node13 -->
<g id="edge14_Node000011_Node000013" class="edge">
<title>Node11&#45;&gt;Node13</title>
<g id="a_edge14_Node000011_Node000013"><a xlink:title=" ">
<path fill="none" stroke="#63b8ff" d="M475.62,-103.04C485.73,-93.64 498.28,-81.98 506.68,-74.17"/>
<polygon fill="#63b8ff" stroke="#63b8ff" points="473.1,-100.61 468.16,-109.98 477.86,-105.74 473.1,-100.61"/>
</a>
</g>
</g>
<!-- Node15&#45;&gt;Node4 -->
<g id="edge20_Node000015_Node000004" class="edge">
<title>Node15&#45;&gt;Node4</title>
<g id="a_edge20_Node000015_Node000004"><a xlink:title=" ">
<path fill="none" stroke="#63b8ff" d="M632.08,-99.71C630.4,-85.59 625.88,-66.75 614,-55 585.23,-26.55 539.56,-16.04 505.23,-12.28"/>
<polygon fill="#63b8ff" stroke="#63b8ff" points="628.6,-100.11 632.91,-109.79 635.58,-99.54 628.6,-100.11"/>
</a>
</g>
</g>
<!-- Node15&#45;&gt;Node12 -->
<g id="edge19_Node000015_Node000012" class="edge">
<title>Node15&#45;&gt;Node12</title>
<g id="a_edge19_Node000015_Node000012"><a xlink:title=" ">
<path fill="none" stroke="#63b8ff" d="M617.97,-102.24C609.38,-92.95 598.96,-81.68 591.94,-74.09"/>
<polygon fill="#63b8ff" stroke="#63b8ff" points="615.55,-104.78 624.91,-109.75 620.69,-100.03 615.55,-104.78"/>
</a>
</g>
</g>
<!-- Node15&#45;&gt;Node14 -->
<g id="edge21_Node000015_Node000014" class="edge">
<title>Node15&#45;&gt;Node14</title>
<g id="a_edge21_Node000015_Node000014"><a xlink:title=" ">
<path fill="none" stroke="#63b8ff" d="M669.43,-106.8C700.22,-96.91 743.62,-82.97 771.28,-74.08"/>
<polygon fill="#63b8ff" stroke="#63b8ff" points="667.96,-103.59 659.51,-109.98 670.1,-110.26 667.96,-103.59"/>
</a>
</g>
</g>
<!-- Node16 -->
<g id="Node000016" class="node">
<title>Node16</title>
<g id="a_Node000016"><a xlink:href="set__rtc__job_8h.html" target="_top" xlink:title=" ">
<polygon fill="white" stroke="#666666" points="740.5,-74 661.5,-74 661.5,-55 740.5,-55 740.5,-74"/>
<text text-anchor="middle" x="701" y="-62" font-family="Helvetica,sans-Serif" font-size="10.00">set_rtc_job.h</text>
</a>
</g>
</g>
<!-- Node15&#45;&gt;Node16 -->
<g id="edge22_Node000015_Node000016" class="edge">
<title>Node15&#45;&gt;Node16</title>
<g id="a_edge22_Node000015_Node000016"><a xlink:title=" ">
<path fill="none" stroke="#63b8ff" d="M652.12,-103.6C664.3,-94.11 679.66,-82.13 689.88,-74.17"/>
<polygon fill="#63b8ff" stroke="#63b8ff" points="649.66,-101.08 643.93,-109.98 653.96,-106.6 649.66,-101.08"/>
</a>
</g>
</g>
<!-- Node17 -->
<g id="Node000017" class="node">
<title>Node17</title>
<g id="a_Node000017"><a xlink:href="command_8c.html" target="_top" xlink:title=" ">
<polygon fill="white" stroke="#666666" points="785,-19 711,-19 711,0 785,0 785,-19"/>
<text text-anchor="middle" x="748" y="-7" font-family="Helvetica,sans-Serif" font-size="10.00">command.c</text>
</a>
</g>
</g>
<!-- Node16&#45;&gt;Node17 -->
<g id="edge23_Node000016_Node000017" class="edge">
<title>Node16&#45;&gt;Node17</title>
<g id="a_edge23_Node000016_Node000017"><a xlink:title=" ">
<path fill="none" stroke="#63b8ff" d="M715.42,-47.24C723.66,-37.95 733.65,-26.68 740.38,-19.09"/>
<polygon fill="#63b8ff" stroke="#63b8ff" points="712.78,-44.94 708.76,-54.75 718.01,-49.59 712.78,-44.94"/>
</a>
</g>
</g>
<!-- Node18 -->
<g id="Node000018" class="node">
<title>Node18</title>
<g id="a_Node000018"><a xlink:href="set__rtc__job_8c.html" target="_top" xlink:title=" ">
<polygon fill="white" stroke="#666666" points="693,-19 615,-19 615,0 693,0 693,-19"/>
<text text-anchor="middle" x="654" y="-7" font-family="Helvetica,sans-Serif" font-size="10.00">set_rtc_job.c</text>
</a>
</g>
</g>
<!-- Node16&#45;&gt;Node18 -->
<g id="edge24_Node000016_Node000018" class="edge">
<title>Node16&#45;&gt;Node18</title>
<g id="a_edge24_Node000016_Node000018"><a xlink:title=" ">
<path fill="none" stroke="#63b8ff" d="M686.58,-47.24C678.34,-37.95 668.35,-26.68 661.62,-19.09"/>
<polygon fill="#63b8ff" stroke="#63b8ff" points="683.99,-49.59 693.24,-54.75 689.22,-44.94 683.99,-49.59"/>
</a>
</g>
</g>
</g>
</svg>
