<?xml version="1.0" encoding="UTF-8" standalone="no"?>
<!DOCTYPE svg PUBLIC "-//W3C//DTD SVG 1.1//EN"
 "http://www.w3.org/Graphics/SVG/1.1/DTD/svg11.dtd">
<!-- Generated by graphviz version 12.1.2 (20240928.0832)
 -->
<!-- Title: usb_uart.c Pages: 1 -->
<svg width="403pt" height="140pt"
 viewBox="0.00 0.00 402.93 140.00" xmlns="http://www.w3.org/2000/svg" xmlns:xlink="http://www.w3.org/1999/xlink">

<svg id="main" version="1.1" xmlns="http://www.w3.org/2000/svg" xmlns:xlink="http://www.w3.org/1999/xlink" xml:space="preserve">

<style type="text/css"><![CDATA[
.node, .edge {opacity: 0.7;}
.node.selected, .edge.selected {opacity: 1;}
.edge:hover path { stroke: red; }
.edge:hover polygon { stroke: red; fill: red; }
]]></style>
<script type="application/ecmascript" xlink:href="svg.min.js"/>
<svg id="graph" class="graph">
<g id="graph0" class="graph" transform="scale(1 1) rotate(0) translate(4 136)">
<title>usb_uart.c</title>
<!-- Node1 -->
<g id="Node000001" class="node">
<title>Node1</title>
<g id="a_Node000001"><a xlink:title=" ">
<polygon fill="#999999" stroke="#666666" points="181.68,-132 119.93,-132 119.93,-112 181.68,-112 181.68,-132"/>
<text text-anchor="middle" x="150.8" y="-118.5" font-family="Helvetica,sans-Serif" font-size="10.00">usb_uart.c</text>
</a>
</g>
</g>
<!-- Node2 -->
<g id="Node000002" class="node">
<title>Node2</title>
<g id="a_Node000002"><a xlink:href="stdio_8h.html" target="_top" xlink:title=" ">
<polygon fill="white" stroke="#666666" points="151.43,-20 106.18,-20 106.18,0 151.43,0 151.43,-20"/>
<text text-anchor="middle" x="128.8" y="-6.5" font-family="Helvetica,sans-Serif" font-size="10.00">stdio.h</text>
</a>
</g>
</g>
<!-- Node1&#45;&gt;Node2 -->
<g id="edge1_Node000001_Node000002" class="edge">
<title>Node1&#45;&gt;Node2</title>
<g id="a_edge1_Node000001_Node000002"><a xlink:title=" ">
<path fill="none" stroke="#63b8ff" d="M119.57,-121.3C85.34,-119.74 31.83,-111.33 5.8,-76 -19.71,-41.37 49.79,-23.47 94.47,-15.77"/>
<polygon fill="#63b8ff" stroke="#63b8ff" points="94.95,-19.24 104.27,-14.19 93.84,-12.33 94.95,-19.24"/>
</a>
</g>
</g>
<!-- Node3 -->
<g id="Node000003" class="node">
<title>Node3</title>
<g id="a_Node000003"><a xlink:title=" ">
<polygon fill="#e0e0e0" stroke="#999999" points="65.05,-76 14.55,-76 14.55,-56 65.05,-56 65.05,-76"/>
<text text-anchor="middle" x="39.8" y="-62.5" font-family="Helvetica,sans-Serif" font-size="10.00">unistd.h</text>
</a>
</g>
</g>
<!-- Node1&#45;&gt;Node3 -->
<g id="edge2_Node000001_Node000003" class="edge">
<title>Node1&#45;&gt;Node3</title>
<g id="a_edge2_Node000001_Node000003"><a xlink:title=" ">
<path fill="none" stroke="#63b8ff" d="M131.47,-111.59C114.38,-103.28 89.2,-91.03 69.55,-81.47"/>
<polygon fill="#63b8ff" stroke="#63b8ff" points="71.17,-78.37 60.65,-77.14 68.11,-84.66 71.17,-78.37"/>
</a>
</g>
</g>
<!-- Node4 -->
<g id="Node000004" class="node">
<title>Node4</title>
<g id="a_Node000004"><a xlink:title=" ">
<polygon fill="#e0e0e0" stroke="#999999" points="138.68,-76 82.93,-76 82.93,-56 138.68,-56 138.68,-76"/>
<text text-anchor="middle" x="110.8" y="-62.5" font-family="Helvetica,sans-Serif" font-size="10.00">stdbool.h</text>
</a>
</g>
</g>
<!-- Node1&#45;&gt;Node4 -->
<g id="edge3_Node000001_Node000004" class="edge">
<title>Node1&#45;&gt;Node4</title>
<g id="a_edge3_Node000001_Node000004"><a xlink:title=" ">
<path fill="none" stroke="#63b8ff" d="M143.83,-111.59C138.5,-104.39 130.97,-94.23 124.45,-85.43"/>
<polygon fill="#63b8ff" stroke="#63b8ff" points="127.35,-83.47 118.59,-77.51 121.73,-87.63 127.35,-83.47"/>
</a>
</g>
</g>
<!-- Node5 -->
<g id="Node000005" class="node">
<title>Node5</title>
<g id="a_Node000005"><a xlink:title=" ">
<polygon fill="#e0e0e0" stroke="#999999" points="227.18,-76 156.43,-76 156.43,-56 227.18,-56 227.18,-76"/>
<text text-anchor="middle" x="191.8" y="-62.5" font-family="Helvetica,sans-Serif" font-size="10.00">FreeRTOS.h</text>
</a>
</g>
</g>
<!-- Node1&#45;&gt;Node5 -->
<g id="edge4_Node000001_Node000005" class="edge">
<title>Node1&#45;&gt;Node5</title>
<g id="a_edge4_Node000001_Node000005"><a xlink:title=" ">
<path fill="none" stroke="#63b8ff" d="M157.94,-111.59C163.41,-104.39 171.12,-94.23 177.81,-85.43"/>
<polygon fill="#63b8ff" stroke="#63b8ff" points="180.57,-87.58 183.83,-77.5 174.99,-83.35 180.57,-87.58"/>
</a>
</g>
</g>
<!-- Node6 -->
<g id="Node000006" class="node">
<title>Node6</title>
<g id="a_Node000006"><a xlink:title=" ">
<polygon fill="#e0e0e0" stroke="#999999" points="288.3,-76 245.3,-76 245.3,-56 288.3,-56 288.3,-76"/>
<text text-anchor="middle" x="266.8" y="-62.5" font-family="Helvetica,sans-Serif" font-size="10.00">task.h</text>
</a>
</g>
</g>
<!-- Node1&#45;&gt;Node6 -->
<g id="edge5_Node000001_Node000006" class="edge">
<title>Node1&#45;&gt;Node6</title>
<g id="a_edge5_Node000001_Node000006"><a xlink:title=" ">
<path fill="none" stroke="#63b8ff" d="M171.01,-111.59C189.03,-103.21 215.67,-90.8 236.28,-81.21"/>
<polygon fill="#63b8ff" stroke="#63b8ff" points="237.48,-84.51 245.07,-77.12 234.52,-78.17 237.48,-84.51"/>
</a>
</g>
</g>
<!-- Node7 -->
<g id="Node000007" class="node">
<title>Node7</title>
<g id="a_Node000007"><a xlink:href="usb__uart_8h.html" target="_top" xlink:title=" ">
<polygon fill="white" stroke="#666666" points="367.68,-76 305.93,-76 305.93,-56 367.68,-56 367.68,-76"/>
<text text-anchor="middle" x="336.8" y="-62.5" font-family="Helvetica,sans-Serif" font-size="10.00">usb_uart.h</text>
</a>
</g>
</g>
<!-- Node1&#45;&gt;Node7 -->
<g id="edge6_Node000001_Node000007" class="edge">
<title>Node1&#45;&gt;Node7</title>
<g id="a_edge6_Node000001_Node000007"><a xlink:title=" ">
<path fill="none" stroke="#63b8ff" d="M181.93,-111.96C212.91,-102.97 260.66,-89.11 294.95,-79.15"/>
<polygon fill="#63b8ff" stroke="#63b8ff" points="295.49,-82.64 304.11,-76.49 293.53,-75.92 295.49,-82.64"/>
</a>
</g>
</g>
<!-- Node7&#45;&gt;Node2 -->
<g id="edge9_Node000007_Node000002" class="edge">
<title>Node7&#45;&gt;Node2</title>
<g id="a_edge9_Node000007_Node000002"><a xlink:title=" ">
<path fill="none" stroke="#63b8ff" d="M305.66,-56.92C267.29,-46.95 202.33,-30.09 162.72,-19.81"/>
<polygon fill="#63b8ff" stroke="#63b8ff" points="163.81,-16.47 153.25,-17.35 162.05,-23.25 163.81,-16.47"/>
</a>
</g>
</g>
<!-- Node8 -->
<g id="Node000008" class="node">
<title>Node8</title>
<g id="a_Node000008"><a xlink:title=" ">
<polygon fill="#e0e0e0" stroke="#999999" points="328.43,-20 277.18,-20 277.18,0 328.43,0 328.43,-20"/>
<text text-anchor="middle" x="302.8" y="-6.5" font-family="Helvetica,sans-Serif" font-size="10.00">stddef.h</text>
</a>
</g>
</g>
<!-- Node7&#45;&gt;Node8 -->
<g id="edge7_Node000007_Node000008" class="edge">
<title>Node7&#45;&gt;Node8</title>
<g id="a_edge7_Node000007_Node000008"><a xlink:title=" ">
<path fill="none" stroke="#63b8ff" d="M330.88,-55.59C326.44,-48.55 320.22,-38.67 314.76,-30"/>
<polygon fill="#63b8ff" stroke="#63b8ff" points="317.75,-28.18 309.46,-21.58 311.83,-31.91 317.75,-28.18"/>
</a>
</g>
</g>
<!-- Node9 -->
<g id="Node000009" class="node">
<title>Node9</title>
<g id="a_Node000009"><a xlink:title=" ">
<polygon fill="#e0e0e0" stroke="#999999" points="394.93,-20 346.68,-20 346.68,0 394.93,0 394.93,-20"/>
<text text-anchor="middle" x="370.8" y="-6.5" font-family="Helvetica,sans-Serif" font-size="10.00">stdint.h</text>
</a>
</g>
</g>
<!-- Node7&#45;&gt;Node9 -->
<g id="edge8_Node000007_Node000009" class="edge">
<title>Node7&#45;&gt;Node9</title>
<g id="a_edge8_Node000007_Node000009"><a xlink:title=" ">
<path fill="none" stroke="#63b8ff" d="M342.72,-55.59C347.16,-48.55 353.38,-38.67 358.84,-30"/>
<polygon fill="#63b8ff" stroke="#63b8ff" points="361.77,-31.91 364.14,-21.58 355.85,-28.18 361.77,-31.91"/>
</a>
</g>
</g>
</g>
</svg>
</svg>

<style type='text/css'>
<![CDATA[
[data-mouse-over-selected='false'] { opacity: 0.7; }
[data-mouse-over-selected='true']  { opacity: 1.0; }
]]>
</style>
<script type="application/ecmascript"><![CDATA[
document.addEventListener('DOMContentLoaded', (event) => {
  highlightEdges();
  highlightAdjacentNodes();
});
]]></script>
</svg>
