<?xml version="1.0" encoding="UTF-8" standalone="no"?>
<!DOCTYPE svg PUBLIC "-//W3C//DTD SVG 1.1//EN"
 "http://www.w3.org/Graphics/SVG/1.1/DTD/svg11.dtd">
<!-- Generated by graphviz version 2.43.0 (0)
 -->
<!-- Title: i2c.h Pages: 1 -->
<svg width="947pt" height="192pt"
 viewBox="0.00 0.00 947.00 192.00" xmlns="http://www.w3.org/2000/svg" xmlns:xlink="http://www.w3.org/1999/xlink">
<g id="graph0" class="graph" transform="scale(1 1) rotate(0) translate(4 188)">
<title>i2c.h</title>
<!-- Node1 -->
<g id="Node000001" class="node">
<title>Node1</title>
<g id="a_Node000001"><a xlink:title=" ">
<polygon fill="#999999" stroke="#666666" points="450,-184 410,-184 410,-165 450,-165 450,-184"/>
<text text-anchor="middle" x="430" y="-172" font-family="Helvetica,sans-Serif" font-size="10.00">i2c.h</text>
</a>
</g>
</g>
<!-- Node2 -->
<g id="Node000002" class="node">
<title>Node2</title>
<g id="a_Node000002"><a xlink:href="drivers_2include_2i2c_8h.html" target="_top" xlink:title="Drivers for i2c peripheral devices.">
<polygon fill="white" stroke="#666666" points="301,-129 261,-129 261,-110 301,-110 301,-129"/>
<text text-anchor="middle" x="281" y="-117" font-family="Helvetica,sans-Serif" font-size="10.00">i2c.h</text>
</a>
</g>
</g>
<!-- Node1&#45;&gt;Node2 -->
<g id="edge1_Node000001_Node000002" class="edge">
<title>Node1&#45;&gt;Node2</title>
<g id="a_edge1_Node000001_Node000002"><a xlink:title=" ">
<path fill="none" stroke="#63b8ff" d="M400.19,-162.89C370.82,-152.45 326.77,-136.78 301.25,-127.7"/>
<polygon fill="#63b8ff" stroke="#63b8ff" points="399.31,-166.3 409.91,-166.35 401.66,-159.7 399.31,-166.3"/>
</a>
</g>
</g>
<!-- Node3 -->
<g id="Node000003" class="node">
<title>Node3</title>
<g id="a_Node000003"><a xlink:href="mag__lis3mdltr_8h.html" target="_top" xlink:title="Magnetometer Driver (LIS3MDLTR).">
<polygon fill="white" stroke="#666666" points="366,-74 270,-74 270,-55 366,-55 366,-74"/>
<text text-anchor="middle" x="318" y="-62" font-family="Helvetica,sans-Serif" font-size="10.00">mag_lis3mdltr.h</text>
</a>
</g>
</g>
<!-- Node1&#45;&gt;Node3 -->
<g id="edge16_Node000001_Node000003" class="edge">
<title>Node1&#45;&gt;Node3</title>
<g id="a_edge16_Node000001_Node000003"><a xlink:title=" ">
<path fill="none" stroke="#63b8ff" d="M413.52,-157.61C389.52,-134.47 345.78,-92.29 326.98,-74.16"/>
<polygon fill="#63b8ff" stroke="#63b8ff" points="411.21,-160.24 420.83,-164.66 416.07,-155.2 411.21,-160.24"/>
</a>
</g>
</g>
<!-- Node8 -->
<g id="Node000008" class="node">
<title>Node8</title>
<g id="a_Node000008"><a xlink:href="vega__ant_8h.html" target="_top" xlink:title="Vega Antenna Board Driver.">
<polygon fill="white" stroke="#666666" points="156.5,-74 85.5,-74 85.5,-55 156.5,-55 156.5,-74"/>
<text text-anchor="middle" x="121" y="-62" font-family="Helvetica,sans-Serif" font-size="10.00">vega_ant.h</text>
</a>
</g>
</g>
<!-- Node1&#45;&gt;Node8 -->
<g id="edge27_Node000001_Node000008" class="edge">
<title>Node1&#45;&gt;Node8</title>
<g id="a_edge27_Node000001_Node000008"><a xlink:title=" ">
<path fill="none" stroke="#63b8ff" d="M400.02,-167.97C364.18,-160.92 302.69,-147.4 252,-129 208.52,-113.22 160.26,-87.55 136.28,-74.2"/>
<polygon fill="#63b8ff" stroke="#63b8ff" points="399.36,-171.41 409.84,-169.87 400.69,-164.54 399.36,-171.41"/>
</a>
</g>
</g>
<!-- Node11 -->
<g id="Node000011" class="node">
<title>Node11</title>
<g id="a_Node000011"><a xlink:href="ina219_8h.html" target="_top" xlink:title="INA219 Driver.">
<polygon fill="white" stroke="#666666" points="499.5,-129 440.5,-129 440.5,-110 499.5,-110 499.5,-129"/>
<text text-anchor="middle" x="470" y="-117" font-family="Helvetica,sans-Serif" font-size="10.00">ina219.h</text>
</a>
</g>
</g>
<!-- Node1&#45;&gt;Node11 -->
<g id="edge11_Node000001_Node000011" class="edge">
<title>Node1&#45;&gt;Node11</title>
<g id="a_edge11_Node000001_Node000011"><a xlink:title=" ">
<path fill="none" stroke="#63b8ff" d="M442.7,-156.67C449.63,-147.5 457.91,-136.52 463.52,-129.09"/>
<polygon fill="#63b8ff" stroke="#63b8ff" points="439.84,-154.66 436.61,-164.75 445.42,-158.87 439.84,-154.66"/>
</a>
</g>
</g>
<!-- Node14 -->
<g id="Node000014" class="node">
<title>Node14</title>
<g id="a_Node000014"><a xlink:href="rtc__ds3231_8c.html" target="_top" xlink:title=" ">
<polygon fill="white" stroke="#666666" points="674,-74 596,-74 596,-55 674,-55 674,-74"/>
<text text-anchor="middle" x="635" y="-62" font-family="Helvetica,sans-Serif" font-size="10.00">rtc_ds3231.c</text>
</a>
</g>
</g>
<!-- Node1&#45;&gt;Node14 -->
<g id="edge17_Node000001_Node000014" class="edge">
<title>Node1&#45;&gt;Node14</title>
<g id="a_edge17_Node000001_Node000014"><a xlink:title=" ">
<path fill="none" stroke="#63b8ff" d="M455.35,-160.14C498.07,-137.64 583.19,-92.79 618.78,-74.05"/>
<polygon fill="#63b8ff" stroke="#63b8ff" points="453.65,-157.09 446.43,-164.84 456.91,-163.28 453.65,-157.09"/>
</a>
</g>
</g>
<!-- Node15 -->
<g id="Node000015" class="node">
<title>Node15</title>
<g id="a_Node000015"><a xlink:href="rtc__ds3231_8h.html" target="_top" xlink:title="DS3231 Real Time Clock Driver.">
<polygon fill="white" stroke="#666666" points="741.5,-129 662.5,-129 662.5,-110 741.5,-110 741.5,-129"/>
<text text-anchor="middle" x="702" y="-117" font-family="Helvetica,sans-Serif" font-size="10.00">rtc_ds3231.h</text>
</a>
</g>
</g>
<!-- Node1&#45;&gt;Node15 -->
<g id="edge18_Node000001_Node000015" class="edge">
<title>Node1&#45;&gt;Node15</title>
<g id="a_edge18_Node000001_Node000015"><a xlink:title=" ">
<path fill="none" stroke="#63b8ff" d="M460.02,-167.65C509.26,-158.06 607.22,-138.97 662.2,-128.26"/>
<polygon fill="#63b8ff" stroke="#63b8ff" points="459.15,-164.25 450,-169.6 460.49,-171.13 459.15,-164.25"/>
</a>
</g>
</g>
<!-- Node2&#45;&gt;Node3 -->
<g id="edge2_Node000002_Node000003" class="edge">
<title>Node2&#45;&gt;Node3</title>
<g id="a_edge2_Node000002_Node000003"><a xlink:title=" ">
<path fill="none" stroke="#63b8ff" d="M292.95,-101.39C299.31,-92.27 306.87,-81.45 312,-74.09"/>
<polygon fill="#63b8ff" stroke="#63b8ff" points="289.96,-99.55 287.11,-109.75 295.7,-103.55 289.96,-99.55"/>
</a>
</g>
</g>
<!-- Node7 -->
<g id="Node000007" class="node">
<title>Node7</title>
<g id="a_Node000007"><a xlink:href="drivers_2include_2max17048_8h.html" target="_top" xlink:title="MAX17048 Driver.">
<polygon fill="white" stroke="#666666" points="251.5,-74 174.5,-74 174.5,-55 251.5,-55 251.5,-74"/>
<text text-anchor="middle" x="213" y="-62" font-family="Helvetica,sans-Serif" font-size="10.00">max17048.h</text>
</a>
</g>
</g>
<!-- Node2&#45;&gt;Node7 -->
<g id="edge6_Node000002_Node000007" class="edge">
<title>Node2&#45;&gt;Node7</title>
<g id="a_edge6_Node000002_Node000007"><a xlink:title=" ">
<path fill="none" stroke="#63b8ff" d="M261.88,-103.6C249.7,-94.11 234.34,-82.13 224.12,-74.17"/>
<polygon fill="#63b8ff" stroke="#63b8ff" points="260.04,-106.6 270.07,-109.98 264.34,-101.08 260.04,-106.6"/>
</a>
</g>
</g>
<!-- Node2&#45;&gt;Node8 -->
<g id="edge7_Node000002_Node000008" class="edge">
<title>Node2&#45;&gt;Node8</title>
<g id="a_edge7_Node000002_Node000008"><a xlink:title=" ">
<path fill="none" stroke="#63b8ff" d="M251.22,-108.64C221.24,-98.7 175.45,-83.54 146.92,-74.09"/>
<polygon fill="#63b8ff" stroke="#63b8ff" points="250.14,-111.97 260.74,-111.79 252.34,-105.32 250.14,-111.97"/>
</a>
</g>
</g>
<!-- Node4 -->
<g id="Node000004" class="node">
<title>Node4</title>
<g id="a_Node000004"><a xlink:href="heartbeat__job_8c.html" target="_top" xlink:title=" ">
<polygon fill="white" stroke="#666666" points="464,-19 372,-19 372,0 464,0 464,-19"/>
<text text-anchor="middle" x="418" y="-7" font-family="Helvetica,sans-Serif" font-size="10.00">heartbeat_job.c</text>
</a>
</g>
</g>
<!-- Node3&#45;&gt;Node4 -->
<g id="edge3_Node000003_Node000004" class="edge">
<title>Node3&#45;&gt;Node4</title>
<g id="a_edge3_Node000003_Node000004"><a xlink:title=" ">
<path fill="none" stroke="#63b8ff" d="M343.03,-50.23C361.37,-40.51 385.74,-27.6 401.64,-19.17"/>
<polygon fill="#63b8ff" stroke="#63b8ff" points="341.26,-47.21 334.07,-54.98 344.54,-53.39 341.26,-47.21"/>
</a>
</g>
</g>
<!-- Node5 -->
<g id="Node000005" class="node">
<title>Node5</title>
<g id="a_Node000005"><a xlink:href="mag__lis3mdltr_8c.html" target="_top" xlink:title=" ">
<polygon fill="white" stroke="#666666" points="353.5,-19 258.5,-19 258.5,0 353.5,0 353.5,-19"/>
<text text-anchor="middle" x="306" y="-7" font-family="Helvetica,sans-Serif" font-size="10.00">mag_lis3mdltr.c</text>
</a>
</g>
</g>
<!-- Node3&#45;&gt;Node5 -->
<g id="edge4_Node000003_Node000005" class="edge">
<title>Node3&#45;&gt;Node5</title>
<g id="a_edge4_Node000003_Node000005"><a xlink:title=" ">
<path fill="none" stroke="#63b8ff" d="M313.8,-44.95C311.81,-36.15 309.52,-26.06 307.94,-19.09"/>
<polygon fill="#63b8ff" stroke="#63b8ff" points="310.4,-45.77 316.02,-54.75 317.22,-44.22 310.4,-45.77"/>
</a>
</g>
</g>
<!-- Node6 -->
<g id="Node000006" class="node">
<title>Node6</title>
<g id="a_Node000006"><a xlink:href="steve_8c.html" target="_top" xlink:title=" ">
<polygon fill="white" stroke="#666666" points="534,-19 482,-19 482,0 534,0 534,-19"/>
<text text-anchor="middle" x="508" y="-7" font-family="Helvetica,sans-Serif" font-size="10.00">steve.c</text>
</a>
</g>
</g>
<!-- Node3&#45;&gt;Node6 -->
<g id="edge5_Node000003_Node000006" class="edge">
<title>Node3&#45;&gt;Node6</title>
<g id="a_edge5_Node000003_Node000006"><a xlink:title=" ">
<path fill="none" stroke="#63b8ff" d="M358.56,-52.19C395.83,-41.79 449.98,-26.69 481.83,-17.8"/>
<polygon fill="#63b8ff" stroke="#63b8ff" points="357.22,-48.93 348.53,-54.98 359.1,-55.67 357.22,-48.93"/>
</a>
</g>
</g>
<!-- Node8&#45;&gt;Node4 -->
<g id="edge9_Node000008_Node000004" class="edge">
<title>Node8&#45;&gt;Node4</title>
<g id="a_edge9_Node000008_Node000004"><a xlink:title=" ">
<path fill="none" stroke="#63b8ff" d="M166.47,-54.75C243.97,-40.5 323.12,-26.75 371.79,-18.39"/>
<polygon fill="#63b8ff" stroke="#63b8ff" points="165.73,-51.33 156.53,-56.58 167,-58.21 165.73,-51.33"/>
</a>
</g>
</g>
<!-- Node9 -->
<g id="Node000009" class="node">
<title>Node9</title>
<g id="a_Node000009"><a xlink:href="antenna__deploy__job_8c.html" target="_top" xlink:title=" ">
<polygon fill="white" stroke="#666666" points="211.5,-19 88.5,-19 88.5,0 211.5,0 211.5,-19"/>
<text text-anchor="middle" x="150" y="-7" font-family="Helvetica,sans-Serif" font-size="10.00">antenna_deploy_job.c</text>
</a>
</g>
</g>
<!-- Node8&#45;&gt;Node9 -->
<g id="edge8_Node000008_Node000009" class="edge">
<title>Node8&#45;&gt;Node9</title>
<g id="a_edge8_Node000008_Node000009"><a xlink:title=" ">
<path fill="none" stroke="#63b8ff" d="M130.68,-45.82C135.6,-36.82 141.36,-26.29 145.3,-19.09"/>
<polygon fill="#63b8ff" stroke="#63b8ff" points="127.52,-44.3 125.79,-54.75 133.66,-47.66 127.52,-44.3"/>
</a>
</g>
</g>
<!-- Node10 -->
<g id="Node000010" class="node">
<title>Node10</title>
<g id="a_Node000010"><a xlink:href="vega__ant_8c.html" target="_top" xlink:title=" ">
<polygon fill="white" stroke="#666666" points="70,-19 0,-19 0,0 70,0 70,-19"/>
<text text-anchor="middle" x="35" y="-7" font-family="Helvetica,sans-Serif" font-size="10.00">vega_ant.c</text>
</a>
</g>
</g>
<!-- Node8&#45;&gt;Node10 -->
<g id="edge10_Node000008_Node000010" class="edge">
<title>Node8&#45;&gt;Node10</title>
<g id="a_edge10_Node000008_Node000010"><a xlink:title=" ">
<path fill="none" stroke="#63b8ff" d="M98.6,-49.7C82.93,-40.04 62.49,-27.44 49.07,-19.17"/>
<polygon fill="#63b8ff" stroke="#63b8ff" points="96.83,-52.72 107.18,-54.98 100.51,-46.76 96.83,-52.72"/>
</a>
</g>
</g>
<!-- Node11&#45;&gt;Node4 -->
<g id="edge13_Node000011_Node000004" class="edge">
<title>Node11&#45;&gt;Node4</title>
<g id="a_edge13_Node000011_Node000004"><a xlink:title=" ">
<path fill="none" stroke="#63b8ff" d="M466.23,-99.86C463.17,-86.85 458.18,-69.32 451,-55 444.19,-41.41 433.22,-27.65 425.81,-19.1"/>
<polygon fill="#63b8ff" stroke="#63b8ff" points="462.87,-100.91 468.42,-109.93 469.71,-99.41 462.87,-100.91"/>
</a>
</g>
</g>
<!-- Node11&#45;&gt;Node6 -->
<g id="edge15_Node000011_Node000006" class="edge">
<title>Node11&#45;&gt;Node6</title>
<g id="a_edge15_Node000011_Node000006"><a xlink:title=" ">
<path fill="none" stroke="#63b8ff" d="M476.47,-100.12C484.76,-76.56 498.8,-36.66 504.95,-19.16"/>
<polygon fill="#63b8ff" stroke="#63b8ff" points="473.13,-99.07 473.11,-109.66 479.73,-101.39 473.13,-99.07"/>
</a>
</g>
</g>
<!-- Node12 -->
<g id="Node000012" class="node">
<title>Node12</title>
<g id="a_Node000012"><a xlink:href="gse_8c.html" target="_top" xlink:title=" ">
<polygon fill="white" stroke="#666666" points="578,-74 536,-74 536,-55 578,-55 578,-74"/>
<text text-anchor="middle" x="557" y="-62" font-family="Helvetica,sans-Serif" font-size="10.00">gse.c</text>
</a>
</g>
</g>
<!-- Node11&#45;&gt;Node12 -->
<g id="edge12_Node000011_Node000012" class="edge">
<title>Node11&#45;&gt;Node12</title>
<g id="a_edge12_Node000011_Node000012"><a xlink:title=" ">
<path fill="none" stroke="#63b8ff" d="M492.66,-104.7C508.51,-95.04 529.19,-82.44 542.77,-74.17"/>
<polygon fill="#63b8ff" stroke="#63b8ff" points="490.7,-101.79 483.98,-109.98 494.34,-107.77 490.7,-101.79"/>
</a>
</g>
</g>
<!-- Node13 -->
<g id="Node000013" class="node">
<title>Node13</title>
<g id="a_Node000013"><a xlink:href="ina219_8c.html" target="_top" xlink:title=" ">
<polygon fill="white" stroke="#666666" points="442,-74 384,-74 384,-55 442,-55 442,-74"/>
<text text-anchor="middle" x="413" y="-62" font-family="Helvetica,sans-Serif" font-size="10.00">ina219.c</text>
</a>
</g>
</g>
<!-- Node11&#45;&gt;Node13 -->
<g id="edge14_Node000011_Node000013" class="edge">
<title>Node11&#45;&gt;Node13</title>
<g id="a_edge14_Node000011_Node000013"><a xlink:title=" ">
<path fill="none" stroke="#63b8ff" d="M453.38,-103.04C443.27,-93.64 430.72,-81.98 422.32,-74.17"/>
<polygon fill="#63b8ff" stroke="#63b8ff" points="451.14,-105.74 460.84,-109.98 455.9,-100.61 451.14,-105.74"/>
</a>
</g>
</g>
<!-- Node15&#45;&gt;Node4 -->
<g id="edge20_Node000015_Node000004" class="edge">
<title>Node15&#45;&gt;Node4</title>
<g id="a_edge20_Node000015_Node000004"><a xlink:title=" ">
<path fill="none" stroke="#63b8ff" d="M701.44,-99.32C699.95,-85 695.52,-66.06 683,-55 680.95,-53.19 539.37,-30.1 464.03,-17.92"/>
<polygon fill="#63b8ff" stroke="#63b8ff" points="697.97,-99.83 702.1,-109.58 704.95,-99.38 697.97,-99.83"/>
</a>
</g>
</g>
<!-- Node15&#45;&gt;Node12 -->
<g id="edge19_Node000015_Node000012" class="edge">
<title>Node15&#45;&gt;Node12</title>
<g id="a_edge19_Node000015_Node000012"><a xlink:title=" ">
<path fill="none" stroke="#63b8ff" d="M669.01,-106.44C641.2,-96.28 602.23,-82.03 578.35,-73.3"/>
<polygon fill="#63b8ff" stroke="#63b8ff" points="668.11,-109.84 678.7,-109.98 670.51,-103.26 668.11,-109.84"/>
</a>
</g>
</g>
<!-- Node15&#45;&gt;Node14 -->
<g id="edge22_Node000015_Node000014" class="edge">
<title>Node15&#45;&gt;Node14</title>
<g id="a_edge22_Node000015_Node000014"><a xlink:title=" ">
<path fill="none" stroke="#63b8ff" d="M683.17,-103.6C671.16,-94.11 656.03,-82.13 645.96,-74.17"/>
<polygon fill="#63b8ff" stroke="#63b8ff" points="681.22,-106.53 691.24,-109.98 685.56,-101.04 681.22,-106.53"/>
</a>
</g>
</g>
<!-- Node16 -->
<g id="Node000016" class="node">
<title>Node16</title>
<g id="a_Node000016"><a xlink:href="main_8c.html" target="_top" xlink:title=" ">
<polygon fill="white" stroke="#666666" points="780,-74 730,-74 730,-55 780,-55 780,-74"/>
<text text-anchor="middle" x="755" y="-62" font-family="Helvetica,sans-Serif" font-size="10.00">main.c</text>
</a>
</g>
</g>
<!-- Node15&#45;&gt;Node16 -->
<g id="edge21_Node000015_Node000016" class="edge">
<title>Node15&#45;&gt;Node16</title>
<g id="a_edge21_Node000015_Node000016"><a xlink:title=" ">
<path fill="none" stroke="#63b8ff" d="M717.98,-102.52C727.32,-93.18 738.75,-81.75 746.41,-74.09"/>
<polygon fill="#63b8ff" stroke="#63b8ff" points="715.35,-100.2 710.75,-109.75 720.3,-105.15 715.35,-100.2"/>
</a>
</g>
</g>
<!-- Node17 -->
<g id="Node000017" class="node">
<title>Node17</title>
<g id="a_Node000017"><a xlink:href="set__rtc__job_8c.html" target="_top" xlink:title=" ">
<polygon fill="white" stroke="#666666" points="847,-19 769,-19 769,0 847,0 847,-19"/>
<text text-anchor="middle" x="808" y="-7" font-family="Helvetica,sans-Serif" font-size="10.00">set_rtc_job.c</text>
</a>
</g>
</g>
<!-- Node15&#45;&gt;Node17 -->
<g id="edge23_Node000015_Node000017" class="edge">
<title>Node15&#45;&gt;Node17</title>
<g id="a_edge23_Node000015_Node000017"><a xlink:title=" ">
<path fill="none" stroke="#63b8ff" d="M741.69,-106.12C758.39,-99.1 776.75,-88.71 789,-74 802.4,-57.91 806.35,-32.6 807.51,-19.32"/>
<polygon fill="#63b8ff" stroke="#63b8ff" points="740.15,-102.97 732.11,-109.87 742.7,-109.48 740.15,-102.97"/>
</a>
</g>
</g>
<!-- Node18 -->
<g id="Node000018" class="node">
<title>Node18</title>
<g id="a_Node000018"><a xlink:href="set__rtc__job_8h.html" target="_top" xlink:title=" ">
<polygon fill="white" stroke="#666666" points="915.5,-74 836.5,-74 836.5,-55 915.5,-55 915.5,-74"/>
<text text-anchor="middle" x="876" y="-62" font-family="Helvetica,sans-Serif" font-size="10.00">set_rtc_job.h</text>
</a>
</g>
</g>
<!-- Node15&#45;&gt;Node18 -->
<g id="edge24_Node000015_Node000018" class="edge">
<title>Node15&#45;&gt;Node18</title>
<g id="a_edge24_Node000015_Node000018"><a xlink:title=" ">
<path fill="none" stroke="#63b8ff" d="M739.57,-107.06C772.09,-97.15 818.4,-83.04 847.82,-74.08"/>
<polygon fill="#63b8ff" stroke="#63b8ff" points="738.5,-103.72 729.96,-109.98 740.54,-110.42 738.5,-103.72"/>
</a>
</g>
</g>
<!-- Node18&#45;&gt;Node17 -->
<g id="edge26_Node000018_Node000017" class="edge">
<title>Node18&#45;&gt;Node17</title>
<g id="a_edge26_Node000018_Node000017"><a xlink:title=" ">
<path fill="none" stroke="#63b8ff" d="M856.88,-48.6C844.7,-39.11 829.34,-27.13 819.12,-19.17"/>
<polygon fill="#63b8ff" stroke="#63b8ff" points="855.04,-51.6 865.07,-54.98 859.34,-46.08 855.04,-51.6"/>
</a>
</g>
</g>
<!-- Node19 -->
<g id="Node000019" class="node">
<title>Node19</title>
<g id="a_Node000019"><a xlink:href="command_8c.html" target="_top" xlink:title=" ">
<polygon fill="white" stroke="#666666" points="939,-19 865,-19 865,0 939,0 939,-19"/>
<text text-anchor="middle" x="902" y="-7" font-family="Helvetica,sans-Serif" font-size="10.00">command.c</text>
</a>
</g>
</g>
<!-- Node18&#45;&gt;Node19 -->
<g id="edge25_Node000018_Node000019" class="edge">
<title>Node18&#45;&gt;Node19</title>
<g id="a_edge25_Node000018_Node000019"><a xlink:title=" ">
<path fill="none" stroke="#63b8ff" d="M884.82,-45.53C889.2,-36.6 894.29,-26.22 897.79,-19.09"/>
<polygon fill="#63b8ff" stroke="#63b8ff" points="881.56,-44.23 880.29,-54.75 887.84,-47.31 881.56,-44.23"/>
</a>
</g>
</g>
</g>
</svg>
