<?xml version="1.0" encoding="UTF-8" standalone="no"?>
<!DOCTYPE svg PUBLIC "-//W3C//DTD SVG 1.1//EN"
 "http://www.w3.org/Graphics/SVG/1.1/DTD/svg11.dtd">
<!-- Generated by graphviz version 2.43.0 (0)
 -->
<!-- Title: i2c.h Pages: 1 -->
<svg width="732pt" height="192pt"
 viewBox="0.00 0.00 731.50 192.00" xmlns="http://www.w3.org/2000/svg" xmlns:xlink="http://www.w3.org/1999/xlink">
<g id="graph0" class="graph" transform="scale(1 1) rotate(0) translate(4 188)">
<title>i2c.h</title>
<!-- Node1 -->
<g id="Node000001" class="node">
<title>Node1</title>
<g id="a_Node000001"><a xlink:title=" ">
<polygon fill="#999999" stroke="#666666" points="336.5,-184 296.5,-184 296.5,-165 336.5,-165 336.5,-184"/>
<text text-anchor="middle" x="316.5" y="-172" font-family="Helvetica,sans-Serif" font-size="10.00">i2c.h</text>
</a>
</g>
</g>
<!-- Node2 -->
<g id="Node000002" class="node">
<title>Node2</title>
<g id="a_Node000002"><a xlink:href="drivers_2include_2i2c_8h.html" target="_top" xlink:title="Drivers for i2c peripheral devices.">
<polygon fill="white" stroke="#666666" points="206.5,-129 166.5,-129 166.5,-110 206.5,-110 206.5,-129"/>
<text text-anchor="middle" x="186.5" y="-117" font-family="Helvetica,sans-Serif" font-size="10.00">i2c.h</text>
</a>
</g>
</g>
<!-- Node1&#45;&gt;Node2 -->
<g id="edge1_Node000001_Node000002" class="edge">
<title>Node1&#45;&gt;Node2</title>
<g id="a_edge1_Node000001_Node000002"><a xlink:title=" ">
<path fill="none" stroke="#63b8ff" d="M286.96,-161.45C262.45,-151.47 228.27,-137.53 206.76,-128.76"/>
<polygon fill="#63b8ff" stroke="#63b8ff" points="285.89,-164.8 296.47,-165.33 288.53,-158.32 285.89,-164.8"/>
</a>
</g>
</g>
<!-- Node3 -->
<g id="Node000003" class="node">
<title>Node3</title>
<g id="a_Node000003"><a xlink:href="mag__lis3mdltr_8h.html" target="_top" xlink:title="Magnetometer Driver (LIS3MDLTR)">
<polygon fill="white" stroke="#666666" points="279,-74 184,-74 184,-55 279,-55 279,-74"/>
<text text-anchor="middle" x="231.5" y="-62" font-family="Helvetica,sans-Serif" font-size="10.00">mag_lis3mdltr.h</text>
</a>
</g>
</g>
<!-- Node1&#45;&gt;Node3 -->
<g id="edge15_Node000001_Node000003" class="edge">
<title>Node1&#45;&gt;Node3</title>
<g id="a_edge15_Node000001_Node000003"><a xlink:title=" ">
<path fill="none" stroke="#63b8ff" d="M303.27,-156.69C284.92,-133.37 252.4,-92.05 238.31,-74.16"/>
<polygon fill="#63b8ff" stroke="#63b8ff" points="300.61,-158.97 309.54,-164.66 306.11,-154.64 300.61,-158.97"/>
</a>
</g>
</g>
<!-- Node8 -->
<g id="Node000008" class="node">
<title>Node8</title>
<g id="a_Node000008"><a xlink:href="vega__ant_8h.html" target="_top" xlink:title="Vega Antenna Board Driver.">
<polygon fill="white" stroke="#666666" points="71,-74 0,-74 0,-55 71,-55 71,-74"/>
<text text-anchor="middle" x="35.5" y="-62" font-family="Helvetica,sans-Serif" font-size="10.00">vega_ant.h</text>
</a>
</g>
</g>
<!-- Node1&#45;&gt;Node8 -->
<g id="edge24_Node000001_Node000008" class="edge">
<title>Node1&#45;&gt;Node8</title>
<g id="a_edge24_Node000001_Node000008"><a xlink:title=" ">
<path fill="none" stroke="#63b8ff" d="M286.31,-167.02C253.86,-159.6 201.09,-146.23 157.5,-129 116.86,-112.94 71.98,-87.39 49.69,-74.13"/>
<polygon fill="#63b8ff" stroke="#63b8ff" points="285.96,-170.53 296.49,-169.3 287.49,-163.7 285.96,-170.53"/>
</a>
</g>
</g>
<!-- Node10 -->
<g id="Node000010" class="node">
<title>Node10</title>
<g id="a_Node000010"><a xlink:href="ina219_8h.html" target="_top" xlink:title="INA219 Driver.">
<polygon fill="white" stroke="#666666" points="375,-129 316,-129 316,-110 375,-110 375,-129"/>
<text text-anchor="middle" x="345.5" y="-117" font-family="Helvetica,sans-Serif" font-size="10.00">ina219.h</text>
</a>
</g>
</g>
<!-- Node1&#45;&gt;Node10 -->
<g id="edge10_Node000001_Node000010" class="edge">
<title>Node1&#45;&gt;Node10</title>
<g id="a_edge10_Node000001_Node000010"><a xlink:title=" ">
<path fill="none" stroke="#63b8ff" d="M326.18,-155.82C331.1,-146.82 336.86,-136.29 340.8,-129.09"/>
<polygon fill="#63b8ff" stroke="#63b8ff" points="323.02,-154.3 321.29,-164.75 329.16,-157.66 323.02,-154.3"/>
</a>
</g>
</g>
<!-- Node13 -->
<g id="Node000013" class="node">
<title>Node13</title>
<g id="a_Node000013"><a xlink:href="rtc__ds3231_8c.html" target="_top" xlink:title=" ">
<polygon fill="white" stroke="#666666" points="723.5,-74 645.5,-74 645.5,-55 723.5,-55 723.5,-74"/>
<text text-anchor="middle" x="684.5" y="-62" font-family="Helvetica,sans-Serif" font-size="10.00">rtc_ds3231.c</text>
</a>
</g>
</g>
<!-- Node1&#45;&gt;Node13 -->
<g id="edge16_Node000001_Node000013" class="edge">
<title>Node1&#45;&gt;Node13</title>
<g id="a_edge16_Node000001_Node000013"><a xlink:title=" ">
<path fill="none" stroke="#63b8ff" d="M346.59,-171.3C394.51,-167.12 490.6,-155.89 567.5,-129 607.86,-114.89 650.99,-88.01 671.81,-74.19"/>
<polygon fill="#63b8ff" stroke="#63b8ff" points="346.25,-167.82 336.58,-172.14 346.83,-174.8 346.25,-167.82"/>
</a>
</g>
</g>
<!-- Node14 -->
<g id="Node000014" class="node">
<title>Node14</title>
<g id="a_Node000014"><a xlink:href="rtc__ds3231_8h.html" target="_top" xlink:title="DS3231 Real Time Clock Driver.">
<polygon fill="white" stroke="#666666" points="559,-129 480,-129 480,-110 559,-110 559,-129"/>
<text text-anchor="middle" x="519.5" y="-117" font-family="Helvetica,sans-Serif" font-size="10.00">rtc_ds3231.h</text>
</a>
</g>
</g>
<!-- Node1&#45;&gt;Node14 -->
<g id="edge17_Node000001_Node000014" class="edge">
<title>Node1&#45;&gt;Node14</title>
<g id="a_edge17_Node000001_Node000014"><a xlink:title=" ">
<path fill="none" stroke="#63b8ff" d="M346.54,-165.66C384.05,-155.86 447.98,-139.17 486.72,-129.06"/>
<polygon fill="#63b8ff" stroke="#63b8ff" points="345.5,-162.31 336.71,-168.22 347.27,-169.08 345.5,-162.31"/>
</a>
</g>
</g>
<!-- Node2&#45;&gt;Node3 -->
<g id="edge2_Node000002_Node000003" class="edge">
<title>Node2&#45;&gt;Node3</title>
<g id="a_edge2_Node000002_Node000003"><a xlink:title=" ">
<path fill="none" stroke="#63b8ff" d="M200.55,-101.96C208.39,-92.72 217.83,-81.6 224.21,-74.09"/>
<polygon fill="#63b8ff" stroke="#63b8ff" points="197.74,-99.86 193.93,-109.75 203.07,-104.39 197.74,-99.86"/>
</a>
</g>
</g>
<!-- Node7 -->
<g id="Node000007" class="node">
<title>Node7</title>
<g id="a_Node000007"><a xlink:href="drivers_2include_2max17048_8h.html" target="_top" xlink:title="MAX17048 Driver.">
<polygon fill="white" stroke="#666666" points="166,-74 89,-74 89,-55 166,-55 166,-74"/>
<text text-anchor="middle" x="127.5" y="-62" font-family="Helvetica,sans-Serif" font-size="10.00">max17048.h</text>
</a>
</g>
</g>
<!-- Node2&#45;&gt;Node7 -->
<g id="edge6_Node000002_Node000007" class="edge">
<title>Node2&#45;&gt;Node7</title>
<g id="a_edge6_Node000002_Node000007"><a xlink:title=" ">
<path fill="none" stroke="#63b8ff" d="M169.3,-103.04C158.83,-93.64 145.85,-81.98 137.15,-74.17"/>
<polygon fill="#63b8ff" stroke="#63b8ff" points="167.24,-105.91 177.02,-109.98 171.92,-100.7 167.24,-105.91"/>
</a>
</g>
</g>
<!-- Node2&#45;&gt;Node8 -->
<g id="edge7_Node000002_Node000008" class="edge">
<title>Node2&#45;&gt;Node8</title>
<g id="a_edge7_Node000002_Node000008"><a xlink:title=" ">
<path fill="none" stroke="#63b8ff" d="M156.69,-108.04C128.36,-98.09 86.27,-83.32 59.89,-74.06"/>
<polygon fill="#63b8ff" stroke="#63b8ff" points="155.85,-111.45 166.45,-111.46 158.17,-104.85 155.85,-111.45"/>
</a>
</g>
</g>
<!-- Node4 -->
<g id="Node000004" class="node">
<title>Node4</title>
<g id="a_Node000004"><a xlink:href="heartbeat__job_8c.html" target="_top" xlink:title=" ">
<polygon fill="white" stroke="#666666" points="391.5,-19 299.5,-19 299.5,0 391.5,0 391.5,-19"/>
<text text-anchor="middle" x="345.5" y="-7" font-family="Helvetica,sans-Serif" font-size="10.00">heartbeat_job.c</text>
</a>
</g>
</g>
<!-- Node3&#45;&gt;Node4 -->
<g id="edge3_Node000003_Node000004" class="edge">
<title>Node3&#45;&gt;Node4</title>
<g id="a_edge3_Node000003_Node000004"><a xlink:title=" ">
<path fill="none" stroke="#63b8ff" d="M258.89,-50.77C279.92,-40.99 308.39,-27.75 326.85,-19.17"/>
<polygon fill="#63b8ff" stroke="#63b8ff" points="257.41,-47.6 249.82,-54.98 260.36,-53.94 257.41,-47.6"/>
</a>
</g>
</g>
<!-- Node5 -->
<g id="Node000005" class="node">
<title>Node5</title>
<g id="a_Node000005"><a xlink:href="mag__lis3mdltr_8c.html" target="_top" xlink:title=" ">
<polygon fill="white" stroke="#666666" points="211,-19 116,-19 116,0 211,0 211,-19"/>
<text text-anchor="middle" x="163.5" y="-7" font-family="Helvetica,sans-Serif" font-size="10.00">mag_lis3mdltr.c</text>
</a>
</g>
</g>
<!-- Node3&#45;&gt;Node5 -->
<g id="edge4_Node000003_Node000005" class="edge">
<title>Node3&#45;&gt;Node5</title>
<g id="a_edge4_Node000003_Node000005"><a xlink:title=" ">
<path fill="none" stroke="#63b8ff" d="M212.38,-48.6C200.2,-39.11 184.84,-27.13 174.62,-19.17"/>
<polygon fill="#63b8ff" stroke="#63b8ff" points="210.54,-51.6 220.57,-54.98 214.84,-46.08 210.54,-51.6"/>
</a>
</g>
</g>
<!-- Node6 -->
<g id="Node000006" class="node">
<title>Node6</title>
<g id="a_Node000006"><a xlink:href="steve_8c.html" target="_top" xlink:title=" ">
<polygon fill="white" stroke="#666666" points="281.5,-19 229.5,-19 229.5,0 281.5,0 281.5,-19"/>
<text text-anchor="middle" x="255.5" y="-7" font-family="Helvetica,sans-Serif" font-size="10.00">steve.c</text>
</a>
</g>
</g>
<!-- Node3&#45;&gt;Node6 -->
<g id="edge5_Node000003_Node000006" class="edge">
<title>Node3&#45;&gt;Node6</title>
<g id="a_edge5_Node000003_Node000006"><a xlink:title=" ">
<path fill="none" stroke="#63b8ff" d="M239.64,-45.53C243.68,-36.6 248.38,-26.22 251.61,-19.09"/>
<polygon fill="#63b8ff" stroke="#63b8ff" points="236.4,-44.19 235.46,-54.75 242.78,-47.08 236.4,-44.19"/>
</a>
</g>
</g>
<!-- Node8&#45;&gt;Node4 -->
<g id="edge8_Node000008_Node000004" class="edge">
<title>Node8&#45;&gt;Node4</title>
<g id="a_edge8_Node000008_Node000004"><a xlink:title=" ">
<path fill="none" stroke="#63b8ff" d="M81.06,-54.75C163.41,-39.99 248.28,-26.09 299.31,-17.87"/>
<polygon fill="#63b8ff" stroke="#63b8ff" points="80.25,-51.34 71.03,-56.56 81.49,-58.23 80.25,-51.34"/>
</a>
</g>
</g>
<!-- Node9 -->
<g id="Node000009" class="node">
<title>Node9</title>
<g id="a_Node000009"><a xlink:href="vega__ant_8c.html" target="_top" xlink:title=" ">
<polygon fill="white" stroke="#666666" points="70.5,-19 0.5,-19 0.5,0 70.5,0 70.5,-19"/>
<text text-anchor="middle" x="35.5" y="-7" font-family="Helvetica,sans-Serif" font-size="10.00">vega_ant.c</text>
</a>
</g>
</g>
<!-- Node8&#45;&gt;Node9 -->
<g id="edge9_Node000008_Node000009" class="edge">
<title>Node8&#45;&gt;Node9</title>
<g id="a_edge9_Node000008_Node000009"><a xlink:title=" ">
<path fill="none" stroke="#63b8ff" d="M35.5,-44.66C35.5,-35.93 35.5,-25.99 35.5,-19.09"/>
<polygon fill="#63b8ff" stroke="#63b8ff" points="32,-44.75 35.5,-54.75 39,-44.75 32,-44.75"/>
</a>
</g>
</g>
<!-- Node10&#45;&gt;Node4 -->
<g id="edge12_Node000010_Node000004" class="edge">
<title>Node10&#45;&gt;Node4</title>
<g id="a_edge12_Node000010_Node000004"><a xlink:title=" ">
<path fill="none" stroke="#63b8ff" d="M345.5,-99.48C345.5,-75.84 345.5,-36.5 345.5,-19.16"/>
<polygon fill="#63b8ff" stroke="#63b8ff" points="342,-99.66 345.5,-109.66 349,-99.66 342,-99.66"/>
</a>
</g>
</g>
<!-- Node10&#45;&gt;Node6 -->
<g id="edge14_Node000010_Node000006" class="edge">
<title>Node10&#45;&gt;Node6</title>
<g id="a_edge14_Node000010_Node000006"><a xlink:title=" ">
<path fill="none" stroke="#63b8ff" d="M331.49,-101.69C312.06,-78.37 277.62,-37.05 262.72,-19.16"/>
<polygon fill="#63b8ff" stroke="#63b8ff" points="329.04,-104.22 338.13,-109.66 334.42,-99.74 329.04,-104.22"/>
</a>
</g>
</g>
<!-- Node11 -->
<g id="Node000011" class="node">
<title>Node11</title>
<g id="a_Node000011"><a xlink:href="gse_8c.html" target="_top" xlink:title=" ">
<polygon fill="white" stroke="#666666" points="491.5,-74 449.5,-74 449.5,-55 491.5,-55 491.5,-74"/>
<text text-anchor="middle" x="470.5" y="-62" font-family="Helvetica,sans-Serif" font-size="10.00">gse.c</text>
</a>
</g>
</g>
<!-- Node10&#45;&gt;Node11 -->
<g id="edge11_Node000010_Node000011" class="edge">
<title>Node10&#45;&gt;Node11</title>
<g id="a_edge11_Node000010_Node000011"><a xlink:title=" ">
<path fill="none" stroke="#63b8ff" d="M374.91,-106.03C398.03,-96.23 429.63,-82.83 450.05,-74.17"/>
<polygon fill="#63b8ff" stroke="#63b8ff" points="373.42,-102.86 365.58,-109.98 376.16,-109.3 373.42,-102.86"/>
</a>
</g>
</g>
<!-- Node12 -->
<g id="Node000012" class="node">
<title>Node12</title>
<g id="a_Node000012"><a xlink:href="ina219_8c.html" target="_top" xlink:title=" ">
<polygon fill="white" stroke="#666666" points="431.5,-74 373.5,-74 373.5,-55 431.5,-55 431.5,-74"/>
<text text-anchor="middle" x="402.5" y="-62" font-family="Helvetica,sans-Serif" font-size="10.00">ina219.c</text>
</a>
</g>
</g>
<!-- Node10&#45;&gt;Node12 -->
<g id="edge13_Node000010_Node000012" class="edge">
<title>Node10&#45;&gt;Node12</title>
<g id="a_edge13_Node000010_Node000012"><a xlink:title=" ">
<path fill="none" stroke="#63b8ff" d="M362.12,-103.04C372.23,-93.64 384.78,-81.98 393.18,-74.17"/>
<polygon fill="#63b8ff" stroke="#63b8ff" points="359.6,-100.61 354.66,-109.98 364.36,-105.74 359.6,-100.61"/>
</a>
</g>
</g>
<!-- Node14&#45;&gt;Node4 -->
<g id="edge19_Node000014_Node000004" class="edge">
<title>Node14&#45;&gt;Node4</title>
<g id="a_edge19_Node000014_Node000004"><a xlink:title=" ">
<path fill="none" stroke="#63b8ff" d="M518.58,-99.71C516.9,-85.59 512.38,-66.75 500.5,-55 471.73,-26.55 426.06,-16.04 391.73,-12.28"/>
<polygon fill="#63b8ff" stroke="#63b8ff" points="515.1,-100.11 519.41,-109.79 522.08,-99.54 515.1,-100.11"/>
</a>
</g>
</g>
<!-- Node14&#45;&gt;Node11 -->
<g id="edge18_Node000014_Node000011" class="edge">
<title>Node14&#45;&gt;Node11</title>
<g id="a_edge18_Node000014_Node000011"><a xlink:title=" ">
<path fill="none" stroke="#63b8ff" d="M504.47,-102.24C495.88,-92.95 485.46,-81.68 478.44,-74.09"/>
<polygon fill="#63b8ff" stroke="#63b8ff" points="502.05,-104.78 511.41,-109.75 507.19,-100.03 502.05,-104.78"/>
</a>
</g>
</g>
<!-- Node14&#45;&gt;Node13 -->
<g id="edge20_Node000014_Node000013" class="edge">
<title>Node14&#45;&gt;Node13</title>
<g id="a_edge20_Node000014_Node000013"><a xlink:title=" ">
<path fill="none" stroke="#63b8ff" d="M555.93,-106.8C586.72,-96.91 630.12,-82.97 657.78,-74.08"/>
<polygon fill="#63b8ff" stroke="#63b8ff" points="554.46,-103.59 546.01,-109.98 556.6,-110.26 554.46,-103.59"/>
</a>
</g>
</g>
<!-- Node15 -->
<g id="Node000015" class="node">
<title>Node15</title>
<g id="a_Node000015"><a xlink:href="set__rtc__job_8h.html" target="_top" xlink:title=" ">
<polygon fill="white" stroke="#666666" points="627,-74 548,-74 548,-55 627,-55 627,-74"/>
<text text-anchor="middle" x="587.5" y="-62" font-family="Helvetica,sans-Serif" font-size="10.00">set_rtc_job.h</text>
</a>
</g>
</g>
<!-- Node14&#45;&gt;Node15 -->
<g id="edge21_Node000014_Node000015" class="edge">
<title>Node14&#45;&gt;Node15</title>
<g id="a_edge21_Node000014_Node000015"><a xlink:title=" ">
<path fill="none" stroke="#63b8ff" d="M538.62,-103.6C550.8,-94.11 566.16,-82.13 576.38,-74.17"/>
<polygon fill="#63b8ff" stroke="#63b8ff" points="536.16,-101.08 530.43,-109.98 540.46,-106.6 536.16,-101.08"/>
</a>
</g>
</g>
<!-- Node16 -->
<g id="Node000016" class="node">
<title>Node16</title>
<g id="a_Node000016"><a xlink:href="command_8c.html" target="_top" xlink:title=" ">
<polygon fill="white" stroke="#666666" points="577.5,-19 503.5,-19 503.5,0 577.5,0 577.5,-19"/>
<text text-anchor="middle" x="540.5" y="-7" font-family="Helvetica,sans-Serif" font-size="10.00">command.c</text>
</a>
</g>
</g>
<!-- Node15&#45;&gt;Node16 -->
<g id="edge22_Node000015_Node000016" class="edge">
<title>Node15&#45;&gt;Node16</title>
<g id="a_edge22_Node000015_Node000016"><a xlink:title=" ">
<path fill="none" stroke="#63b8ff" d="M573.08,-47.24C564.84,-37.95 554.85,-26.68 548.12,-19.09"/>
<polygon fill="#63b8ff" stroke="#63b8ff" points="570.49,-49.59 579.74,-54.75 575.72,-44.94 570.49,-49.59"/>
</a>
</g>
</g>
<!-- Node17 -->
<g id="Node000017" class="node">
<title>Node17</title>
<g id="a_Node000017"><a xlink:href="set__rtc__job_8c.html" target="_top" xlink:title=" ">
<polygon fill="white" stroke="#666666" points="673.5,-19 595.5,-19 595.5,0 673.5,0 673.5,-19"/>
<text text-anchor="middle" x="634.5" y="-7" font-family="Helvetica,sans-Serif" font-size="10.00">set_rtc_job.c</text>
</a>
</g>
</g>
<!-- Node15&#45;&gt;Node17 -->
<g id="edge23_Node000015_Node000017" class="edge">
<title>Node15&#45;&gt;Node17</title>
<g id="a_edge23_Node000015_Node000017"><a xlink:title=" ">
<path fill="none" stroke="#63b8ff" d="M601.92,-47.24C610.16,-37.95 620.15,-26.68 626.88,-19.09"/>
<polygon fill="#63b8ff" stroke="#63b8ff" points="599.28,-44.94 595.26,-54.75 604.51,-49.59 599.28,-44.94"/>
</a>
</g>
</g>
</g>
</svg>
