<?xml version="1.0" encoding="UTF-8" standalone="no"?>
<!DOCTYPE svg PUBLIC "-//W3C//DTD SVG 1.1//EN"
 "http://www.w3.org/Graphics/SVG/1.1/DTD/svg11.dtd">
<!-- Generated by graphviz version 2.43.0 (0)
 -->
<!-- Title: stdio.h Pages: 1 -->
<svg width="994pt" height="137pt"
 viewBox="0.00 0.00 993.50 137.00" xmlns="http://www.w3.org/2000/svg" xmlns:xlink="http://www.w3.org/1999/xlink">
<g id="graph0" class="graph" transform="scale(1 1) rotate(0) translate(4 133)">
<title>stdio.h</title>
<!-- Node1 -->
<g id="Node000001" class="node">
<title>Node1</title>
<g id="a_Node000001"><a xlink:title=" ">
<polygon fill="#999999" stroke="#666666" points="533,-129 483,-129 483,-110 533,-110 533,-129"/>
<text text-anchor="middle" x="508" y="-117" font-family="Helvetica,sans-Serif" font-size="10.00">stdio.h</text>
</a>
</g>
</g>
<!-- Node2 -->
<g id="Node000002" class="node">
<title>Node2</title>
<g id="a_Node000002"><a xlink:href="drivers_2src_2diskio_8c.html" target="_top" xlink:title=" ">
<polygon fill="white" stroke="#666666" points="54,-74 0,-74 0,-55 54,-55 54,-74"/>
<text text-anchor="middle" x="27" y="-62" font-family="Helvetica,sans-Serif" font-size="10.00">diskio.c</text>
</a>
</g>
</g>
<!-- Node1&#45;&gt;Node2 -->
<g id="edge1_Node000001_Node000002" class="edge">
<title>Node1&#45;&gt;Node2</title>
<g id="a_edge1_Node000001_Node000002"><a xlink:title=" ">
<path fill="none" stroke="#63b8ff" d="M472.37,-116.54C396.6,-112.02 214.09,-99.28 63,-74 60.09,-73.51 57.06,-72.93 54.05,-72.29"/>
<polygon fill="#63b8ff" stroke="#63b8ff" points="472.57,-120.06 482.75,-117.15 472.98,-113.07 472.57,-120.06"/>
</a>
</g>
</g>
<!-- Node3 -->
<g id="Node000003" class="node">
<title>Node3</title>
<g id="a_Node000003"><a xlink:href="ds18b20_8c.html" target="_top" xlink:title=" ">
<polygon fill="white" stroke="#666666" points="138,-74 72,-74 72,-55 138,-55 138,-74"/>
<text text-anchor="middle" x="105" y="-62" font-family="Helvetica,sans-Serif" font-size="10.00">ds18b20.c</text>
</a>
</g>
</g>
<!-- Node1&#45;&gt;Node3 -->
<g id="edge2_Node000001_Node000003" class="edge">
<title>Node1&#45;&gt;Node3</title>
<g id="a_edge2_Node000001_Node000003"><a xlink:title=" ">
<path fill="none" stroke="#63b8ff" d="M472.95,-114.76C409.01,-107.8 269.23,-91.91 152,-74 147.49,-73.31 142.75,-72.53 138.09,-71.72"/>
<polygon fill="#63b8ff" stroke="#63b8ff" points="472.58,-118.24 482.9,-115.84 473.34,-111.28 472.58,-118.24"/>
</a>
</g>
</g>
<!-- Node4 -->
<g id="Node000004" class="node">
<title>Node4</title>
<g id="a_Node000004"><a xlink:href="gse_8c.html" target="_top" xlink:title=" ">
<polygon fill="white" stroke="#666666" points="467,-19 425,-19 425,0 467,0 467,-19"/>
<text text-anchor="middle" x="446" y="-7" font-family="Helvetica,sans-Serif" font-size="10.00">gse.c</text>
</a>
</g>
</g>
<!-- Node1&#45;&gt;Node4 -->
<g id="edge3_Node000001_Node000004" class="edge">
<title>Node1&#45;&gt;Node4</title>
<g id="a_edge3_Node000001_Node000004"><a xlink:title=" ">
<path fill="none" stroke="#63b8ff" d="M472.75,-119.18C396.89,-119.8 222.03,-116.49 185,-74 179.45,-67.63 179.55,-61.45 185,-55 215.76,-18.55 368.13,-11.95 424.76,-10.76"/>
<polygon fill="#63b8ff" stroke="#63b8ff" points="472.81,-122.68 482.77,-119.07 472.73,-115.68 472.81,-122.68"/>
</a>
</g>
</g>
<!-- Node5 -->
<g id="Node000005" class="node">
<title>Node5</title>
<g id="a_Node000005"><a xlink:href="hb__tlm__log_8c.html" target="_top" xlink:title=" ">
<polygon fill="white" stroke="#666666" points="273.5,-74 194.5,-74 194.5,-55 273.5,-55 273.5,-74"/>
<text text-anchor="middle" x="234" y="-62" font-family="Helvetica,sans-Serif" font-size="10.00">hb_tlm_log.c</text>
</a>
</g>
</g>
<!-- Node1&#45;&gt;Node5 -->
<g id="edge4_Node000001_Node000005" class="edge">
<title>Node1&#45;&gt;Node5</title>
<g id="a_edge4_Node000001_Node000005"><a xlink:title=" ">
<path fill="none" stroke="#63b8ff" d="M472.79,-111.69C421.67,-101.8 327.17,-83.52 273.66,-73.17"/>
<polygon fill="#63b8ff" stroke="#63b8ff" points="472.23,-115.15 482.71,-113.61 473.56,-108.27 472.23,-115.15"/>
</a>
</g>
</g>
<!-- Node6 -->
<g id="Node000006" class="node">
<title>Node6</title>
<g id="a_Node000006"><a xlink:href="heartbeat__job_8c.html" target="_top" xlink:title=" ">
<polygon fill="white" stroke="#666666" points="384,-74 292,-74 292,-55 384,-55 384,-74"/>
<text text-anchor="middle" x="338" y="-62" font-family="Helvetica,sans-Serif" font-size="10.00">heartbeat_job.c</text>
</a>
</g>
</g>
<!-- Node1&#45;&gt;Node6 -->
<g id="edge5_Node000001_Node000006" class="edge">
<title>Node1&#45;&gt;Node6</title>
<g id="a_edge5_Node000001_Node000006"><a xlink:title=" ">
<path fill="none" stroke="#63b8ff" d="M473.12,-107.63C441.25,-97.69 394.74,-83.19 365.44,-74.06"/>
<polygon fill="#63b8ff" stroke="#63b8ff" points="472.33,-111.04 482.92,-110.68 474.41,-104.36 472.33,-111.04"/>
</a>
</g>
</g>
<!-- Node7 -->
<g id="Node000007" class="node">
<title>Node7</title>
<g id="a_Node000007"><a xlink:href="utilities_2src_2log_8c.html" target="_top" xlink:title=" ">
<polygon fill="white" stroke="#666666" points="442,-74 402,-74 402,-55 442,-55 442,-74"/>
<text text-anchor="middle" x="422" y="-62" font-family="Helvetica,sans-Serif" font-size="10.00">log.c</text>
</a>
</g>
</g>
<!-- Node1&#45;&gt;Node7 -->
<g id="edge6_Node000001_Node000007" class="edge">
<title>Node1&#45;&gt;Node7</title>
<g id="a_edge6_Node000001_Node000007"><a xlink:title=" ">
<path fill="none" stroke="#63b8ff" d="M485.6,-104.7C469.93,-95.04 449.49,-82.44 436.07,-74.17"/>
<polygon fill="#63b8ff" stroke="#63b8ff" points="483.83,-107.72 494.18,-109.98 487.51,-101.76 483.83,-107.72"/>
</a>
</g>
</g>
<!-- Node8 -->
<g id="Node000008" class="node">
<title>Node8</title>
<g id="a_Node000008"><a xlink:href="mag__lis3mdltr_8c.html" target="_top" xlink:title=" ">
<polygon fill="white" stroke="#666666" points="555.5,-74 460.5,-74 460.5,-55 555.5,-55 555.5,-74"/>
<text text-anchor="middle" x="508" y="-62" font-family="Helvetica,sans-Serif" font-size="10.00">mag_lis3mdltr.c</text>
</a>
</g>
</g>
<!-- Node1&#45;&gt;Node8 -->
<g id="edge7_Node000001_Node000008" class="edge">
<title>Node1&#45;&gt;Node8</title>
<g id="a_edge7_Node000001_Node000008"><a xlink:title=" ">
<path fill="none" stroke="#63b8ff" d="M508,-99.66C508,-90.93 508,-80.99 508,-74.09"/>
<polygon fill="#63b8ff" stroke="#63b8ff" points="504.5,-99.75 508,-109.75 511.5,-99.75 504.5,-99.75"/>
</a>
</g>
</g>
<!-- Node9 -->
<g id="Node000009" class="node">
<title>Node9</title>
<g id="a_Node000009"><a xlink:href="main_8c.html" target="_top" xlink:title=" ">
<polygon fill="white" stroke="#666666" points="624,-74 574,-74 574,-55 624,-55 624,-74"/>
<text text-anchor="middle" x="599" y="-62" font-family="Helvetica,sans-Serif" font-size="10.00">main.c</text>
</a>
</g>
</g>
<!-- Node1&#45;&gt;Node9 -->
<g id="edge8_Node000001_Node000009" class="edge">
<title>Node1&#45;&gt;Node9</title>
<g id="a_edge8_Node000001_Node000009"><a xlink:title=" ">
<path fill="none" stroke="#63b8ff" d="M531.7,-104.7C548.28,-95.04 569.91,-82.44 584.11,-74.17"/>
<polygon fill="#63b8ff" stroke="#63b8ff" points="529.5,-101.93 522.62,-109.98 533.02,-107.98 529.5,-101.93"/>
</a>
</g>
</g>
<!-- Node10 -->
<g id="Node000010" class="node">
<title>Node10</title>
<g id="a_Node000010"><a xlink:href="mram_8c.html" target="_top" xlink:title=" ">
<polygon fill="white" stroke="#666666" points="696,-74 642,-74 642,-55 696,-55 696,-74"/>
<text text-anchor="middle" x="669" y="-62" font-family="Helvetica,sans-Serif" font-size="10.00">mram.c</text>
</a>
</g>
</g>
<!-- Node1&#45;&gt;Node10 -->
<g id="edge9_Node000001_Node000010" class="edge">
<title>Node1&#45;&gt;Node10</title>
<g id="a_edge9_Node000001_Node000010"><a xlink:title=" ">
<path fill="none" stroke="#63b8ff" d="M542.83,-107.03C572.93,-97.13 615.75,-83.03 642.95,-74.07"/>
<polygon fill="#63b8ff" stroke="#63b8ff" points="541.56,-103.77 533.16,-110.22 543.75,-110.42 541.56,-103.77"/>
</a>
</g>
</g>
<!-- Node11 -->
<g id="Node000011" class="node">
<title>Node11</title>
<g id="a_Node000011"><a xlink:href="timing_8c.html" target="_top" xlink:title=" ">
<polygon fill="white" stroke="#666666" points="770,-74 714,-74 714,-55 770,-55 770,-74"/>
<text text-anchor="middle" x="742" y="-62" font-family="Helvetica,sans-Serif" font-size="10.00">timing.c</text>
</a>
</g>
</g>
<!-- Node1&#45;&gt;Node11 -->
<g id="edge10_Node000001_Node000011" class="edge">
<title>Node1&#45;&gt;Node11</title>
<g id="a_edge10_Node000001_Node000011"><a xlink:title=" ">
<path fill="none" stroke="#63b8ff" d="M543.1,-110.61C582.51,-101.75 648.35,-86.9 705,-74 707.83,-73.36 710.78,-72.68 713.72,-72.01"/>
<polygon fill="#63b8ff" stroke="#63b8ff" points="542.18,-107.23 533.2,-112.84 543.72,-114.06 542.18,-107.23"/>
</a>
</g>
</g>
<!-- Node12 -->
<g id="Node000012" class="node">
<title>Node12</title>
<g id="a_Node000012"><a xlink:href="simulator_2drivers_2src_2usb__uart_8c.html" target="_top" xlink:title=" ">
<polygon fill="white" stroke="#666666" points="917.5,-19 850.5,-19 850.5,0 917.5,0 917.5,-19"/>
<text text-anchor="middle" x="884" y="-7" font-family="Helvetica,sans-Serif" font-size="10.00">usb_uart.c</text>
</a>
</g>
</g>
<!-- Node1&#45;&gt;Node12 -->
<g id="edge11_Node000001_Node000012" class="edge">
<title>Node1&#45;&gt;Node12</title>
<g id="a_edge11_Node000001_Node000012"><a xlink:title=" ">
<path fill="none" stroke="#63b8ff" d="M543.17,-118.83C623.45,-118.87 816.96,-114.63 865,-74 881.34,-60.18 883.97,-32.92 884.18,-19.05"/>
<polygon fill="#63b8ff" stroke="#63b8ff" points="543.08,-115.33 533.07,-118.81 543.06,-122.33 543.08,-115.33"/>
</a>
</g>
</g>
<!-- Node13 -->
<g id="Node000013" class="node">
<title>Node13</title>
<g id="a_Node000013"><a xlink:href="usb__uart_8h.html" target="_top" xlink:title="Serial Communication Driver (USB/UART)">
<polygon fill="white" stroke="#666666" points="856,-74 788,-74 788,-55 856,-55 856,-74"/>
<text text-anchor="middle" x="822" y="-62" font-family="Helvetica,sans-Serif" font-size="10.00">usb_uart.h</text>
</a>
</g>
</g>
<!-- Node1&#45;&gt;Node13 -->
<g id="edge12_Node000001_Node000013" class="edge">
<title>Node1&#45;&gt;Node13</title>
<g id="a_edge12_Node000001_Node000013"><a xlink:title=" ">
<path fill="none" stroke="#63b8ff" d="M543.06,-113.11C594.78,-105.09 694.51,-89.28 779,-74 781.85,-73.49 784.79,-72.94 787.75,-72.37"/>
<polygon fill="#63b8ff" stroke="#63b8ff" points="542.43,-109.67 533.08,-114.66 543.5,-116.59 542.43,-109.67"/>
</a>
</g>
</g>
<!-- Node15 -->
<g id="Node000015" class="node">
<title>Node15</title>
<g id="a_Node000015"><a xlink:href="user__auth_8c.html" target="_top" xlink:title=" ">
<polygon fill="white" stroke="#666666" points="985.5,-74 912.5,-74 912.5,-55 985.5,-55 985.5,-74"/>
<text text-anchor="middle" x="949" y="-62" font-family="Helvetica,sans-Serif" font-size="10.00">user_auth.c</text>
</a>
</g>
</g>
<!-- Node1&#45;&gt;Node15 -->
<g id="edge16_Node000001_Node000015" class="edge">
<title>Node1&#45;&gt;Node15</title>
<g id="a_edge16_Node000001_Node000015"><a xlink:title=" ">
<path fill="none" stroke="#63b8ff" d="M543.39,-115.08C611.96,-108.31 767.64,-92.29 898,-74 902.62,-73.35 907.47,-72.62 912.26,-71.85"/>
<polygon fill="#63b8ff" stroke="#63b8ff" points="542.76,-111.62 533.15,-116.08 543.45,-118.59 542.76,-111.62"/>
</a>
</g>
</g>
<!-- Node13&#45;&gt;Node4 -->
<g id="edge13_Node000013_Node000004" class="edge">
<title>Node13&#45;&gt;Node4</title>
<g id="a_edge13_Node000013_Node000004"><a xlink:title=" ">
<path fill="none" stroke="#63b8ff" d="M777.76,-54.88C654.2,-34.7 518.46,-18.69 467.11,-12.86"/>
<polygon fill="#63b8ff" stroke="#63b8ff" points="777.33,-58.36 787.77,-56.53 778.47,-51.45 777.33,-58.36"/>
</a>
</g>
</g>
<!-- Node13&#45;&gt;Node12 -->
<g id="edge15_Node000013_Node000012" class="edge">
<title>Node13&#45;&gt;Node12</title>
<g id="a_edge15_Node000013_Node000012"><a xlink:title=" ">
<path fill="none" stroke="#63b8ff" d="M839.75,-48.32C850.81,-38.87 864.63,-27.06 873.86,-19.17"/>
<polygon fill="#63b8ff" stroke="#63b8ff" points="837.29,-45.83 831.96,-54.98 841.84,-51.15 837.29,-45.83"/>
</a>
</g>
</g>
<!-- Node14 -->
<g id="Node000014" class="node">
<title>Node14</title>
<g id="a_Node000014"><a xlink:href="drivers_2src_2usb__uart_8c.html" target="_top" xlink:title=" ">
<polygon fill="white" stroke="#666666" points="832.5,-19 765.5,-19 765.5,0 832.5,0 832.5,-19"/>
<text text-anchor="middle" x="799" y="-7" font-family="Helvetica,sans-Serif" font-size="10.00">usb_uart.c</text>
</a>
</g>
</g>
<!-- Node13&#45;&gt;Node14 -->
<g id="edge14_Node000013_Node000014" class="edge">
<title>Node13&#45;&gt;Node14</title>
<g id="a_edge14_Node000013_Node000014"><a xlink:title=" ">
<path fill="none" stroke="#63b8ff" d="M814.2,-45.53C810.32,-36.6 805.82,-26.22 802.73,-19.09"/>
<polygon fill="#63b8ff" stroke="#63b8ff" points="811.01,-46.97 818.2,-54.75 817.43,-44.18 811.01,-46.97"/>
</a>
</g>
</g>
</g>
</svg>
