<?xml version="1.0" encoding="UTF-8" standalone="no"?>
<!DOCTYPE svg PUBLIC "-//W3C//DTD SVG 1.1//EN"
 "http://www.w3.org/Graphics/SVG/1.1/DTD/svg11.dtd">
<!-- Generated by graphviz version 12.1.2 (20240928.0832)
 -->
<!-- Title: stdio.h Pages: 1 -->
<svg width="647pt" height="140pt"
 viewBox="0.00 0.00 647.38 140.00" xmlns="http://www.w3.org/2000/svg" xmlns:xlink="http://www.w3.org/1999/xlink">
<g id="graph0" class="graph" transform="scale(1 1) rotate(0) translate(4 136)">
<title>stdio.h</title>
<!-- Node1 -->
<g id="Node000001" class="node">
<title>Node1</title>
<g id="a_Node000001"><a xlink:title=" ">
<polygon fill="#999999" stroke="#666666" points="337.5,-132 292.25,-132 292.25,-112 337.5,-112 337.5,-132"/>
<text text-anchor="middle" x="314.88" y="-118.5" font-family="Helvetica,sans-Serif" font-size="10.00">stdio.h</text>
</a>
</g>
</g>
<!-- Node2 -->
<g id="Node000002" class="node">
<title>Node2</title>
<g id="a_Node000002"><a xlink:href="drivers_2src_2diskio_8c.html" target="_top" xlink:title=" ">
<polygon fill="white" stroke="#666666" points="49.75,-76 0,-76 0,-56 49.75,-56 49.75,-76"/>
<text text-anchor="middle" x="24.88" y="-62.5" font-family="Helvetica,sans-Serif" font-size="10.00">diskio.c</text>
</a>
</g>
</g>
<!-- Node1&#45;&gt;Node2 -->
<g id="edge1_Node000001_Node000002" class="edge">
<title>Node1&#45;&gt;Node2</title>
<g id="a_edge1_Node000001_Node000002"><a xlink:title=" ">
<path fill="none" stroke="#63b8ff" d="M280.61,-115.41C232.19,-107.38 141.04,-91.81 63.88,-76 59.38,-75.08 54.61,-74.04 50.01,-72.99"/>
<polygon fill="#63b8ff" stroke="#63b8ff" points="280.03,-118.86 290.47,-117.04 281.17,-111.95 280.03,-118.86"/>
</a>
</g>
</g>
<!-- Node3 -->
<g id="Node000003" class="node">
<title>Node3</title>
<g id="a_Node000003"><a xlink:href="gse_8c.html" target="_top" xlink:title=" ">
<polygon fill="white" stroke="#666666" points="256.88,-20 216.88,-20 216.88,0 256.88,0 256.88,-20"/>
<text text-anchor="middle" x="236.88" y="-6.5" font-family="Helvetica,sans-Serif" font-size="10.00">gse.c</text>
</a>
</g>
</g>
<!-- Node1&#45;&gt;Node3 -->
<g id="edge2_Node000001_Node000003" class="edge">
<title>Node1&#45;&gt;Node3</title>
<g id="a_edge2_Node000001_Node000003"><a xlink:title=" ">
<path fill="none" stroke="#63b8ff" d="M280.69,-119.05C225.27,-115.09 119.67,-103.98 96.88,-76 62.6,-33.93 170.15,-17.74 216.6,-12.82"/>
<polygon fill="#63b8ff" stroke="#63b8ff" points="280.31,-122.53 290.52,-119.71 280.78,-115.54 280.31,-122.53"/>
</a>
</g>
</g>
<!-- Node4 -->
<g id="Node000004" class="node">
<title>Node4</title>
<g id="a_Node000004"><a xlink:href="hb__tlm__log_8c.html" target="_top" xlink:title=" ">
<polygon fill="white" stroke="#666666" points="177.62,-76 106.12,-76 106.12,-56 177.62,-56 177.62,-76"/>
<text text-anchor="middle" x="141.88" y="-62.5" font-family="Helvetica,sans-Serif" font-size="10.00">hb_tlm_log.c</text>
</a>
</g>
</g>
<!-- Node1&#45;&gt;Node4 -->
<g id="edge3_Node000001_Node000004" class="edge">
<title>Node1&#45;&gt;Node4</title>
<g id="a_edge3_Node000001_Node000004"><a xlink:title=" ">
<path fill="none" stroke="#63b8ff" d="M281,-110.43C249.39,-100.56 202.65,-85.97 172.23,-76.47"/>
<polygon fill="#63b8ff" stroke="#63b8ff" points="279.87,-113.74 290.46,-113.38 281.95,-107.06 279.87,-113.74"/>
</a>
</g>
</g>
<!-- Node5 -->
<g id="Node000005" class="node">
<title>Node5</title>
<g id="a_Node000005"><a xlink:href="heartbeat__job_8c.html" target="_top" xlink:title=" ">
<polygon fill="white" stroke="#666666" points="278.25,-76 195.5,-76 195.5,-56 278.25,-56 278.25,-76"/>
<text text-anchor="middle" x="236.88" y="-62.5" font-family="Helvetica,sans-Serif" font-size="10.00">heartbeat_job.c</text>
</a>
</g>
</g>
<!-- Node1&#45;&gt;Node5 -->
<g id="edge4_Node000001_Node000005" class="edge">
<title>Node1&#45;&gt;Node5</title>
<g id="a_edge4_Node000001_Node000005"><a xlink:title=" ">
<path fill="none" stroke="#63b8ff" d="M292.16,-105.27C278.68,-95.94 262.05,-84.43 250.57,-76.48"/>
<polygon fill="#63b8ff" stroke="#63b8ff" points="289.83,-107.92 300.04,-110.73 293.81,-102.16 289.83,-107.92"/>
</a>
</g>
</g>
<!-- Node6 -->
<g id="Node000006" class="node">
<title>Node6</title>
<g id="a_Node000006"><a xlink:href="utilities_2src_2log_8c.html" target="_top" xlink:title=" ">
<polygon fill="white" stroke="#666666" points="333.38,-76 296.38,-76 296.38,-56 333.38,-56 333.38,-76"/>
<text text-anchor="middle" x="314.88" y="-62.5" font-family="Helvetica,sans-Serif" font-size="10.00">log.c</text>
</a>
</g>
</g>
<!-- Node1&#45;&gt;Node6 -->
<g id="edge5_Node000001_Node000006" class="edge">
<title>Node1&#45;&gt;Node6</title>
<g id="a_edge5_Node000001_Node000006"><a xlink:title=" ">
<path fill="none" stroke="#63b8ff" d="M314.88,-100.13C314.88,-91.9 314.88,-82.85 314.88,-76.3"/>
<polygon fill="#63b8ff" stroke="#63b8ff" points="311.38,-100.08 314.88,-110.08 318.38,-100.08 311.38,-100.08"/>
</a>
</g>
</g>
<!-- Node7 -->
<g id="Node000007" class="node">
<title>Node7</title>
<g id="a_Node000007"><a xlink:href="mag__lis3mdltr_8c.html" target="_top" xlink:title=" ">
<polygon fill="white" stroke="#666666" points="436.38,-76 351.38,-76 351.38,-56 436.38,-56 436.38,-76"/>
<text text-anchor="middle" x="393.88" y="-62.5" font-family="Helvetica,sans-Serif" font-size="10.00">mag_lis3mdltr.c</text>
</a>
</g>
</g>
<!-- Node1&#45;&gt;Node7 -->
<g id="edge6_Node000001_Node000007" class="edge">
<title>Node1&#45;&gt;Node7</title>
<g id="a_edge6_Node000001_Node000007"><a xlink:title=" ">
<path fill="none" stroke="#63b8ff" d="M337.89,-105.27C351.53,-95.94 368.38,-84.43 380.01,-76.48"/>
<polygon fill="#63b8ff" stroke="#63b8ff" points="336.17,-102.21 329.89,-110.74 340.12,-107.99 336.17,-102.21"/>
</a>
</g>
</g>
<!-- Node8 -->
<g id="Node000008" class="node">
<title>Node8</title>
<g id="a_Node000008"><a xlink:href="simulator_2drivers_2src_2usb__uart_8c.html" target="_top" xlink:title=" ">
<polygon fill="white" stroke="#666666" points="574.75,-20 513,-20 513,0 574.75,0 574.75,-20"/>
<text text-anchor="middle" x="543.88" y="-6.5" font-family="Helvetica,sans-Serif" font-size="10.00">usb_uart.c</text>
</a>
</g>
</g>
<!-- Node1&#45;&gt;Node8 -->
<g id="edge7_Node000001_Node000008" class="edge">
<title>Node1&#45;&gt;Node8</title>
<g id="a_edge7_Node000001_Node000008"><a xlink:title=" ">
<path fill="none" stroke="#63b8ff" d="M348.94,-117.91C401.68,-112.46 499.67,-99.42 524.88,-76 540.72,-61.27 543.6,-34.14 543.97,-20.04"/>
<polygon fill="#63b8ff" stroke="#63b8ff" points="348.91,-114.4 339.3,-118.87 349.6,-121.36 348.91,-114.4"/>
</a>
</g>
</g>
<!-- Node9 -->
<g id="Node000009" class="node">
<title>Node9</title>
<g id="a_Node000009"><a xlink:href="usb__uart_8h.html" target="_top" xlink:title=" ">
<polygon fill="white" stroke="#666666" points="515.75,-76 454,-76 454,-56 515.75,-56 515.75,-76"/>
<text text-anchor="middle" x="484.88" y="-62.5" font-family="Helvetica,sans-Serif" font-size="10.00">usb_uart.h</text>
</a>
</g>
</g>
<!-- Node1&#45;&gt;Node9 -->
<g id="edge8_Node000001_Node000009" class="edge">
<title>Node1&#45;&gt;Node9</title>
<g id="a_edge8_Node000001_Node000009"><a xlink:title=" ">
<path fill="none" stroke="#63b8ff" d="M348.54,-110.31C379.65,-100.43 425.41,-85.89 455.18,-76.43"/>
<polygon fill="#63b8ff" stroke="#63b8ff" points="347.72,-106.9 339.24,-113.26 349.83,-113.57 347.72,-106.9"/>
</a>
</g>
</g>
<!-- Node11 -->
<g id="Node000011" class="node">
<title>Node11</title>
<g id="a_Node000011"><a xlink:href="user__auth_8c.html" target="_top" xlink:title=" ">
<polygon fill="white" stroke="#666666" points="639.38,-76 572.38,-76 572.38,-56 639.38,-56 639.38,-76"/>
<text text-anchor="middle" x="605.88" y="-62.5" font-family="Helvetica,sans-Serif" font-size="10.00">user_auth.c</text>
</a>
</g>
</g>
<!-- Node1&#45;&gt;Node11 -->
<g id="edge12_Node000001_Node000011" class="edge">
<title>Node1&#45;&gt;Node11</title>
<g id="a_edge12_Node000001_Node000011"><a xlink:title=" ">
<path fill="none" stroke="#63b8ff" d="M349.05,-114.7C396.09,-106.01 483.41,-89.88 557.88,-76 562.46,-75.15 567.29,-74.24 572.05,-73.35"/>
<polygon fill="#63b8ff" stroke="#63b8ff" points="348.68,-111.2 339.49,-116.46 349.95,-118.09 348.68,-111.2"/>
</a>
</g>
</g>
<!-- Node9&#45;&gt;Node3 -->
<g id="edge9_Node000009_Node000003" class="edge">
<title>Node9&#45;&gt;Node3</title>
<g id="a_edge9_Node000009_Node000003"><a xlink:title=" ">
<path fill="none" stroke="#63b8ff" d="M442.96,-55.37C369.27,-39 293.07,-22.84 257.37,-15.31"/>
<polygon fill="#63b8ff" stroke="#63b8ff" points="441.81,-58.7 452.33,-57.46 443.33,-51.87 441.81,-58.7"/>
</a>
</g>
</g>
<!-- Node9&#45;&gt;Node8 -->
<g id="edge11_Node000009_Node000008" class="edge">
<title>Node9&#45;&gt;Node8</title>
<g id="a_edge11_Node000009_Node000008"><a xlink:title=" ">
<path fill="none" stroke="#63b8ff" d="M503.62,-47.85C513.59,-38.72 525.46,-27.86 533.72,-20.3"/>
<polygon fill="#63b8ff" stroke="#63b8ff" points="501.28,-45.24 496.27,-54.57 506.01,-50.4 501.28,-45.24"/>
</a>
</g>
</g>
<!-- Node10 -->
<g id="Node000010" class="node">
<title>Node10</title>
<g id="a_Node000010"><a xlink:href="drivers_2src_2usb__uart_8c.html" target="_top" xlink:title=" ">
<polygon fill="white" stroke="#666666" points="494.75,-20 433,-20 433,0 494.75,0 494.75,-20"/>
<text text-anchor="middle" x="463.88" y="-6.5" font-family="Helvetica,sans-Serif" font-size="10.00">usb_uart.c</text>
</a>
</g>
</g>
<!-- Node9&#45;&gt;Node10 -->
<g id="edge10_Node000009_Node000010" class="edge">
<title>Node9&#45;&gt;Node10</title>
<g id="a_edge10_Node000009_Node000010"><a xlink:title=" ">
<path fill="none" stroke="#63b8ff" d="M477.1,-45C473.81,-36.54 470.13,-27.08 467.49,-20.3"/>
<polygon fill="#63b8ff" stroke="#63b8ff" points="473.78,-46.13 480.67,-54.18 480.31,-43.59 473.78,-46.13"/>
</a>
</g>
</g>
</g>
</svg>
