<?xml version="1.0" encoding="UTF-8" standalone="no"?>
<!DOCTYPE svg PUBLIC "-//W3C//DTD SVG 1.1//EN"
 "http://www.w3.org/Graphics/SVG/1.1/DTD/svg11.dtd">
<!-- Generated by graphviz version 12.1.2 (20240928.0832)
 -->
<!-- Title: schedule_recurring_job_mins Pages: 1 -->
<svg width="500pt" height="110pt"
 viewBox="0.00 0.00 499.50 110.00" xmlns="http://www.w3.org/2000/svg" xmlns:xlink="http://www.w3.org/1999/xlink">
<g id="graph0" class="graph" transform="scale(1 1) rotate(0) translate(4 106)">
<title>schedule_recurring_job_mins</title>
<!-- Node1 -->
<g id="Node000001" class="node">
<title>Node1</title>
<g id="a_Node000001"><a xlink:title=" ">
<polygon fill="#999999" stroke="#666666" points="97.75,-70 0,-70 0,-38 97.75,-38 97.75,-70"/>
<text text-anchor="start" x="8" y="-56.5" font-family="Helvetica,sans-Serif" font-size="10.00">schedule_recurring</text>
<text text-anchor="middle" x="48.88" y="-44.5" font-family="Helvetica,sans-Serif" font-size="10.00">_job_mins</text>
</a>
</g>
</g>
<!-- Node2 -->
<g id="Node000002" class="node">
<title>Node2</title>
<g id="a_Node000002"><a xlink:href="timing_8c.html#a01a2b07b8a31d303bc5659c9eefb0103" target="_top" xlink:title=" ">
<polygon fill="white" stroke="#666666" points="221,-86 144.25,-86 144.25,-66 221,-66 221,-86"/>
<text text-anchor="middle" x="182.62" y="-72.5" font-family="Helvetica,sans-Serif" font-size="10.00">mins_to_secs</text>
</a>
</g>
</g>
<!-- Node1&#45;&gt;Node2 -->
<g id="edge1_Node000001_Node000002" class="edge">
<title>Node1&#45;&gt;Node2</title>
<g id="a_edge1_Node000001_Node000002"><a xlink:title=" ">
<path fill="none" stroke="#63b8ff" d="M98.19,-62.07C109.53,-63.96 121.63,-65.98 132.99,-67.88"/>
<polygon fill="#63b8ff" stroke="#63b8ff" points="132.12,-71.28 142.56,-69.48 133.27,-64.38 132.12,-71.28"/>
</a>
</g>
</g>
<!-- Node3 -->
<g id="Node000003" class="node">
<title>Node3</title>
<g id="a_Node000003"><a xlink:href="steve_8c.html#aa1f662b5890cdc563739a6c3eed51686" target="_top" xlink:title=" ">
<polygon fill="white" stroke="#666666" points="231.5,-48 133.75,-48 133.75,-16 231.5,-16 231.5,-48"/>
<text text-anchor="start" x="141.75" y="-34.5" font-family="Helvetica,sans-Serif" font-size="10.00">schedule_recurring</text>
<text text-anchor="middle" x="182.62" y="-22.5" font-family="Helvetica,sans-Serif" font-size="10.00">_job_secs</text>
</a>
</g>
</g>
<!-- Node1&#45;&gt;Node3 -->
<g id="edge2_Node000001_Node000003" class="edge">
<title>Node1&#45;&gt;Node3</title>
<g id="a_edge2_Node000001_Node000003"><a xlink:title=" ">
<path fill="none" stroke="#63b8ff" d="M98.19,-45.93C105.97,-44.63 114.11,-43.27 122.13,-41.94"/>
<polygon fill="#63b8ff" stroke="#63b8ff" points="122.54,-45.41 131.83,-40.32 121.39,-38.51 122.54,-45.41"/>
</a>
</g>
</g>
<!-- Node4 -->
<g id="Node000004" class="node">
<title>Node4</title>
<g id="a_Node000004"><a xlink:href="steve_8c.html#aaf3a25d4f1bba70397602d3312c7596d" target="_top" xlink:title=" ">
<polygon fill="white" stroke="#666666" points="365.25,-70 267.5,-70 267.5,-38 365.25,-38 365.25,-70"/>
<text text-anchor="start" x="275.5" y="-56.5" font-family="Helvetica,sans-Serif" font-size="10.00">schedule_recurring</text>
<text text-anchor="middle" x="316.38" y="-44.5" font-family="Helvetica,sans-Serif" font-size="10.00">_job_ms</text>
</a>
</g>
</g>
<!-- Node3&#45;&gt;Node4 -->
<g id="edge3_Node000003_Node000004" class="edge">
<title>Node3&#45;&gt;Node4</title>
<g id="a_edge3_Node000003_Node000004"><a xlink:title=" ">
<path fill="none" stroke="#63b8ff" d="M231.94,-40.07C239.72,-41.37 247.86,-42.73 255.88,-44.06"/>
<polygon fill="#63b8ff" stroke="#63b8ff" points="255.14,-47.49 265.58,-45.68 256.29,-40.59 255.14,-47.49"/>
</a>
</g>
</g>
<!-- Node8 -->
<g id="Node000008" class="node">
<title>Node8</title>
<g id="a_Node000008"><a xlink:href="timing_8c.html#afd3999513ea688f512ea1d35aed46a43" target="_top" xlink:title=" ">
<polygon fill="white" stroke="#666666" points="351,-20 281.75,-20 281.75,0 351,0 351,-20"/>
<text text-anchor="middle" x="316.38" y="-6.5" font-family="Helvetica,sans-Serif" font-size="10.00">secs_to_ms</text>
</a>
</g>
</g>
<!-- Node3&#45;&gt;Node8 -->
<g id="edge7_Node000003_Node000008" class="edge">
<title>Node3&#45;&gt;Node8</title>
<g id="a_edge7_Node000003_Node000008"><a xlink:title=" ">
<path fill="none" stroke="#63b8ff" d="M231.94,-23.93C244.53,-21.83 258.05,-19.57 270.46,-17.5"/>
<polygon fill="#63b8ff" stroke="#63b8ff" points="270.71,-21.01 280,-15.91 269.56,-14.1 270.71,-21.01"/>
</a>
</g>
</g>
<!-- Node5 -->
<g id="Node000005" class="node">
<title>Node5</title>
<g id="a_Node000005"><a xlink:href="steve_8c.html#a799ff818db4199c57a75461bbae98611" target="_top" xlink:title=" ">
<polygon fill="white" stroke="#666666" points="491.5,-102 401.25,-102 401.25,-82 491.5,-82 491.5,-102"/>
<text text-anchor="middle" x="446.38" y="-88.5" font-family="Helvetica,sans-Serif" font-size="10.00">create_steve_job</text>
</a>
</g>
</g>
<!-- Node4&#45;&gt;Node5 -->
<g id="edge4_Node000004_Node000005" class="edge">
<title>Node4&#45;&gt;Node5</title>
<g id="a_edge4_Node000004_Node000005"><a xlink:title=" ">
<path fill="none" stroke="#63b8ff" d="M365.4,-68.26C376.57,-71.57 388.44,-75.1 399.52,-78.39"/>
<polygon fill="#63b8ff" stroke="#63b8ff" points="398.24,-81.66 408.82,-81.15 400.23,-74.95 398.24,-81.66"/>
</a>
</g>
</g>
<!-- Node6 -->
<g id="Node000006" class="node">
<title>Node6</title>
<g id="a_Node000006"><a xlink:href="timing_8c.html#a7cef17ffb0e9db503a077191e1a4b013" target="_top" xlink:title=" ">
<polygon fill="white" stroke="#666666" points="478.38,-64 414.38,-64 414.38,-44 478.38,-44 478.38,-64"/>
<text text-anchor="middle" x="446.38" y="-50.5" font-family="Helvetica,sans-Serif" font-size="10.00">get_uptime</text>
</a>
</g>
</g>
<!-- Node4&#45;&gt;Node6 -->
<g id="edge5_Node000004_Node000006" class="edge">
<title>Node4&#45;&gt;Node6</title>
<g id="a_edge5_Node000004_Node000006"><a xlink:title=" ">
<path fill="none" stroke="#63b8ff" d="M365.4,-54C377.64,-54 390.71,-54 402.66,-54"/>
<polygon fill="#63b8ff" stroke="#63b8ff" points="402.65,-57.5 412.65,-54 402.65,-50.5 402.65,-57.5"/>
</a>
</g>
</g>
<!-- Node7 -->
<g id="Node000007" class="node">
<title>Node7</title>
<g id="a_Node000007"><a xlink:href="timing_8c.html#aca6ceb66dd9a31e6376e1bc478dec3d6" target="_top" xlink:title=" ">
<polygon fill="white" stroke="#666666" points="481,-26 411.75,-26 411.75,-6 481,-6 481,-26"/>
<text text-anchor="middle" x="446.38" y="-12.5" font-family="Helvetica,sans-Serif" font-size="10.00">ms_to_ticks</text>
</a>
</g>
</g>
<!-- Node4&#45;&gt;Node7 -->
<g id="edge6_Node000004_Node000007" class="edge">
<title>Node4&#45;&gt;Node7</title>
<g id="a_edge6_Node000004_Node000007"><a xlink:title=" ">
<path fill="none" stroke="#63b8ff" d="M365.4,-39.74C376.89,-36.33 389.12,-32.7 400.46,-29.33"/>
<polygon fill="#63b8ff" stroke="#63b8ff" points="401.42,-32.7 410.01,-26.5 399.42,-25.99 401.42,-32.7"/>
</a>
</g>
</g>
</g>
</svg>
