<?xml version="1.0" encoding="UTF-8" standalone="no"?>
<!DOCTYPE svg PUBLIC "-//W3C//DTD SVG 1.1//EN"
 "http://www.w3.org/Graphics/SVG/1.1/DTD/svg11.dtd">
<!-- Generated by graphviz version 12.1.2 (20240928.0832)
 -->
<!-- Title: schedule_recurring_job_ms Pages: 1 -->
<svg width="232pt" height="104pt"
 viewBox="0.00 0.00 232.00 104.00" xmlns="http://www.w3.org/2000/svg" xmlns:xlink="http://www.w3.org/1999/xlink">
<g id="graph0" class="graph" transform="scale(1 1) rotate(0) translate(4 100)">
<title>schedule_recurring_job_ms</title>
<!-- Node1 -->
<g id="Node000001" class="node">
<title>Node1</title>
<g id="a_Node000001"><a xlink:title=" ">
<polygon fill="#999999" stroke="#666666" points="97.75,-64 0,-64 0,-32 97.75,-32 97.75,-64"/>
<text text-anchor="start" x="8" y="-50.5" font-family="Helvetica,sans-Serif" font-size="10.00">schedule_recurring</text>
<text text-anchor="middle" x="48.88" y="-38.5" font-family="Helvetica,sans-Serif" font-size="10.00">_job_ms</text>
</a>
</g>
</g>
<!-- Node2 -->
<g id="Node000002" class="node">
<title>Node2</title>
<g id="a_Node000002"><a xlink:href="steve_8c.html#a799ff818db4199c57a75461bbae98611" target="_top" xlink:title=" ">
<polygon fill="white" stroke="#666666" points="224,-96 133.75,-96 133.75,-76 224,-76 224,-96"/>
<text text-anchor="middle" x="178.88" y="-82.5" font-family="Helvetica,sans-Serif" font-size="10.00">create_steve_job</text>
</a>
</g>
</g>
<!-- Node1&#45;&gt;Node2 -->
<g id="edge1_Node000001_Node000002" class="edge">
<title>Node1&#45;&gt;Node2</title>
<g id="a_edge1_Node000001_Node000002"><a xlink:title=" ">
<path fill="none" stroke="#63b8ff" d="M97.9,-62.26C109.07,-65.57 120.94,-69.1 132.02,-72.39"/>
<polygon fill="#63b8ff" stroke="#63b8ff" points="130.74,-75.66 141.32,-75.15 132.73,-68.95 130.74,-75.66"/>
</a>
</g>
</g>
<!-- Node3 -->
<g id="Node000003" class="node">
<title>Node3</title>
<g id="a_Node000003"><a xlink:href="timing_8c.html#a7cef17ffb0e9db503a077191e1a4b013" target="_top" xlink:title=" ">
<polygon fill="white" stroke="#666666" points="210.88,-58 146.88,-58 146.88,-38 210.88,-38 210.88,-58"/>
<text text-anchor="middle" x="178.88" y="-44.5" font-family="Helvetica,sans-Serif" font-size="10.00">get_uptime</text>
</a>
</g>
</g>
<!-- Node1&#45;&gt;Node3 -->
<g id="edge2_Node000001_Node000003" class="edge">
<title>Node1&#45;&gt;Node3</title>
<g id="a_edge2_Node000001_Node000003"><a xlink:title=" ">
<path fill="none" stroke="#63b8ff" d="M97.9,-48C110.14,-48 123.21,-48 135.16,-48"/>
<polygon fill="#63b8ff" stroke="#63b8ff" points="135.15,-51.5 145.15,-48 135.15,-44.5 135.15,-51.5"/>
</a>
</g>
</g>
<!-- Node4 -->
<g id="Node000004" class="node">
<title>Node4</title>
<g id="a_Node000004"><a xlink:href="timing_8c.html#aca6ceb66dd9a31e6376e1bc478dec3d6" target="_top" xlink:title=" ">
<polygon fill="white" stroke="#666666" points="213.5,-20 144.25,-20 144.25,0 213.5,0 213.5,-20"/>
<text text-anchor="middle" x="178.88" y="-6.5" font-family="Helvetica,sans-Serif" font-size="10.00">ms_to_ticks</text>
</a>
</g>
</g>
<!-- Node1&#45;&gt;Node4 -->
<g id="edge3_Node000001_Node000004" class="edge">
<title>Node1&#45;&gt;Node4</title>
<g id="a_edge3_Node000001_Node000004"><a xlink:title=" ">
<path fill="none" stroke="#63b8ff" d="M97.9,-33.74C109.39,-30.33 121.62,-26.7 132.96,-23.33"/>
<polygon fill="#63b8ff" stroke="#63b8ff" points="133.92,-26.7 142.51,-20.5 131.92,-19.99 133.92,-26.7"/>
</a>
</g>
</g>
</g>
</svg>
