<?xml version="1.0" encoding="UTF-8" standalone="no"?>
<!DOCTYPE svg PUBLIC "-//W3C//DTD SVG 1.1//EN"
 "http://www.w3.org/Graphics/SVG/1.1/DTD/svg11.dtd">
<!-- Generated by graphviz version 12.1.2 (20240928.0832)
 -->
<!-- Title: schedule_delayed_job_mins Pages: 1 -->
<!--zoomable 104 -->

<svg id="main" version="1.1" xmlns="http://www.w3.org/2000/svg" xmlns:xlink="http://www.w3.org/1999/xlink" xml:space="preserve" onload="init(evt)">

<style type="text/css"><![CDATA[
.node, .edge {opacity: 0.7;}
.node.selected, .edge.selected {opacity: 1;}
.edge:hover path { stroke: red; }
.edge:hover polygon { stroke: red; fill: red; }
]]></style>

<defs>
  <circle id="rim" cx="0" cy="0" r="7"/>
  <circle id="rim2" cx="0" cy="0" r="3.5"/>
  <g id="zoomPlus">
    <use xlink:href="#rim" fill="#404040"><set attributeName="fill" to="#808080" begin="zoomplus.mouseover" end="zoomplus.mouseout"/></use>
    <path d="M-4,0h8M0,-4v8" fill="none" stroke="white" stroke-width="1.5" pointer-events="none"/>
  </g>
  <g id="zoomMin">
    <use xlink:href="#rim" fill="#404040"><set attributeName="fill" to="#808080" begin="zoomminus.mouseover" end="zoomminus.mouseout"/></use>
    <path d="M-4,0h8" fill="none" stroke="white" stroke-width="1.5" pointer-events="none"/>
  </g>
  <g id="arrowUp" transform="translate(30 24)">
    <use xlink:href="#rim"/>
    <path pointer-events="none" fill="none" stroke="white" stroke-width="1.5" d="M0,-3.0v7 M-2.5,-0.5L0,-3.0L2.5,-0.5"/>
  </g>
  <g id="arrowRight" transform="rotate(90) translate(36 -43)">
    <use xlink:href="#rim"/>
    <path pointer-events="none" fill="none" stroke="white" stroke-width="1.5" d="M0,-3.0v7 M-2.5,-0.5L0,-3.0L2.5,-0.5"/>
  </g>
  <g id="arrowDown" transform="rotate(180) translate(-30 -48)">
    <use xlink:href="#rim"/>
    <path pointer-events="none" fill="none" stroke="white" stroke-width="1.5" d="M0,-3.0v7 M-2.5,-0.5L0,-3.0L2.5,-0.5"/>
  </g>
  <g id="arrowLeft" transform="rotate(270) translate(-36 17)">
    <use xlink:href="#rim"/>
    <path pointer-events="none" fill="none" stroke="white" stroke-width="1.5" d="M0,-3.0v7 M-2.5,-0.5L0,-3.0L2.5,-0.5"/>
  </g>
  <g id="resetDef">
    <use xlink:href="#rim2" fill="#404040"><set attributeName="fill" to="#808080" begin="reset.mouseover" end="reset.mouseout"/></use>
  </g>
</defs>
<script type="application/ecmascript">
var viewWidth = 614;
var viewHeight = 104;
var sectionId = 'dynsection-8';
</script>
<script type="application/ecmascript" xlink:href="svg.min.js"/>
<svg id="graph" class="graph">
<g id="viewport">
<title>schedule_delayed_job_mins</title>
<!-- Node1 -->
<g id="Node000001" class="node">
<title>Node1</title>
<g id="a_Node000001"><a xlink:title=" ">
<polygon fill="#999999" stroke="#666666" points="138.25,-58 0,-58 0,-38 138.25,-38 138.25,-58"/>
<text text-anchor="middle" x="69.12" y="-44.5" font-family="Helvetica,sans-Serif" font-size="10.00">schedule_delayed_job_mins</text>
</a>
</g>
</g>
<!-- Node2 -->
<g id="Node000002" class="node">
<title>Node2</title>
<g id="a_Node000002"><a xlink:href="timing_8c.html#a01a2b07b8a31d303bc5659c9eefb0103" target="_top" xlink:title=" ">
<polygon fill="white" stroke="#666666" points="281.75,-77 205,-77 205,-57 281.75,-57 281.75,-77"/>
<text text-anchor="middle" x="243.38" y="-63.5" font-family="Helvetica,sans-Serif" font-size="10.00">mins_to_secs</text>
</a>
</g>
</g>
<!-- Node1&#45;&gt;Node2 -->
<g id="edge1_Node000001_Node000002" class="edge">
<title>Node1&#45;&gt;Node2</title>
<g id="a_edge1_Node000001_Node000002"><a xlink:title=" ">
<path fill="none" stroke="#63b8ff" d="M138.7,-55.56C156.99,-57.58 176.39,-59.72 193.4,-61.6"/>
<polygon fill="#63b8ff" stroke="#63b8ff" points="192.92,-65.07 203.24,-62.68 193.69,-58.11 192.92,-65.07"/>
</a>
</g>
</g>
<!-- Node3 -->
<g id="Node000003" class="node">
<title>Node3</title>
<g id="a_Node000003"><a xlink:href="steve_8c.html#a91d71dfff270a62a0c797a91085e5445" target="_top" xlink:title=" ">
<polygon fill="white" stroke="#666666" points="312.5,-39 174.25,-39 174.25,-19 312.5,-19 312.5,-39"/>
<text text-anchor="middle" x="243.38" y="-25.5" font-family="Helvetica,sans-Serif" font-size="10.00">schedule_delayed_job_secs</text>
</a>
</g>
</g>
<!-- Node1&#45;&gt;Node3 -->
<g id="edge2_Node000001_Node000003" class="edge">
<title>Node1&#45;&gt;Node3</title>
<g id="a_edge2_Node000001_Node000003"><a xlink:title=" ">
<path fill="none" stroke="#63b8ff" d="M138.7,-40.44C146.54,-39.57 154.59,-38.68 162.56,-37.8"/>
<polygon fill="#63b8ff" stroke="#63b8ff" points="162.7,-41.31 172.25,-36.73 161.93,-34.35 162.7,-41.31"/>
</a>
</g>
</g>
<!-- Node4 -->
<g id="Node000004" class="node">
<title>Node4</title>
<g id="a_Node000004"><a xlink:href="steve_8c.html#acc0bfad0acf234b4903c832955b29767" target="_top" xlink:title=" ">
<polygon fill="white" stroke="#666666" points="479.25,-58 348.5,-58 348.5,-38 479.25,-38 479.25,-58"/>
<text text-anchor="middle" x="413.88" y="-44.5" font-family="Helvetica,sans-Serif" font-size="10.00">schedule_delayed_job_ms</text>
</a>
</g>
</g>
<!-- Node3&#45;&gt;Node4 -->
<g id="edge3_Node000003_Node000004" class="edge">
<title>Node3&#45;&gt;Node4</title>
<g id="a_edge3_Node000003_Node000004"><a xlink:title=" ">
<path fill="none" stroke="#63b8ff" d="M312.91,-36.73C320.84,-37.62 328.96,-38.54 336.97,-39.44"/>
<polygon fill="#63b8ff" stroke="#63b8ff" points="336.38,-42.9 346.71,-40.54 337.16,-35.94 336.38,-42.9"/>
</a>
</g>
</g>
<!-- Node8 -->
<g id="Node000008" class="node">
<title>Node8</title>
<g id="a_Node000008"><a xlink:href="timing_8c.html#afd3999513ea688f512ea1d35aed46a43" target="_top" xlink:title=" ">
<polygon fill="white" stroke="#666666" points="448.5,-20 379.25,-20 379.25,0 448.5,0 448.5,-20"/>
<text text-anchor="middle" x="413.88" y="-6.5" font-family="Helvetica,sans-Serif" font-size="10.00">secs_to_ms</text>
</a>
</g>
</g>
<!-- Node3&#45;&gt;Node8 -->
<g id="edge7_Node000003_Node000008" class="edge">
<title>Node3&#45;&gt;Node8</title>
<g id="a_edge7_Node000003_Node000008"><a xlink:title=" ">
<path fill="none" stroke="#63b8ff" d="M312.91,-21.27C331.42,-19.19 350.97,-16.98 367.83,-15.08"/>
<polygon fill="#63b8ff" stroke="#63b8ff" points="367.98,-18.58 377.53,-13.99 367.2,-11.63 367.98,-18.58"/>
</a>
</g>
</g>
<!-- Node5 -->
<g id="Node000005" class="node">
<title>Node5</title>
<g id="a_Node000005"><a xlink:href="steve_8c.html#a799ff818db4199c57a75461bbae98611" target="_top" xlink:title=" ">
<polygon fill="white" stroke="#666666" points="605.5,-96 515.25,-96 515.25,-76 605.5,-76 605.5,-96"/>
<text text-anchor="middle" x="560.38" y="-82.5" font-family="Helvetica,sans-Serif" font-size="10.00">create_steve_job</text>
</a>
</g>
</g>
<!-- Node4&#45;&gt;Node5 -->
<g id="edge4_Node000004_Node000005" class="edge">
<title>Node4&#45;&gt;Node5</title>
<g id="a_edge4_Node000004_Node000005"><a xlink:title=" ">
<path fill="none" stroke="#63b8ff" d="M454.74,-58.48C471.41,-62.87 490.96,-68.01 508.64,-72.66"/>
<polygon fill="#63b8ff" stroke="#63b8ff" points="507.61,-76.01 518.17,-75.17 509.39,-69.24 507.61,-76.01"/>
</a>
</g>
</g>
<!-- Node6 -->
<g id="Node000006" class="node">
<title>Node6</title>
<g id="a_Node000006"><a xlink:href="timing_8c.html#a7cef17ffb0e9db503a077191e1a4b013" target="_top" xlink:title=" ">
<polygon fill="white" stroke="#666666" points="592.38,-58 528.38,-58 528.38,-38 592.38,-38 592.38,-58"/>
<text text-anchor="middle" x="560.38" y="-44.5" font-family="Helvetica,sans-Serif" font-size="10.00">get_uptime</text>
</a>
</g>
</g>
<!-- Node4&#45;&gt;Node6 -->
<g id="edge5_Node000004_Node000006" class="edge">
<title>Node4&#45;&gt;Node6</title>
<g id="a_edge5_Node000004_Node000006"><a xlink:title=" ">
<path fill="none" stroke="#63b8ff" d="M479.52,-48C492.14,-48 505.08,-48 516.77,-48"/>
<polygon fill="#63b8ff" stroke="#63b8ff" points="516.46,-51.5 526.46,-48 516.46,-44.5 516.46,-51.5"/>
</a>
</g>
</g>
<!-- Node7 -->
<g id="Node000007" class="node">
<title>Node7</title>
<g id="a_Node000007"><a xlink:href="timing_8c.html#aca6ceb66dd9a31e6376e1bc478dec3d6" target="_top" xlink:title=" ">
<polygon fill="white" stroke="#666666" points="595,-20 525.75,-20 525.75,0 595,0 595,-20"/>
<text text-anchor="middle" x="560.38" y="-6.5" font-family="Helvetica,sans-Serif" font-size="10.00">ms_to_ticks</text>
</a>
</g>
</g>
<!-- Node4&#45;&gt;Node7 -->
<g id="edge6_Node000004_Node000007" class="edge">
<title>Node4&#45;&gt;Node7</title>
<g id="a_edge6_Node000004_Node000007"><a xlink:title=" ">
<path fill="none" stroke="#63b8ff" d="M454.74,-37.52C473.32,-32.63 495.49,-26.8 514.64,-21.76"/>
<polygon fill="#63b8ff" stroke="#63b8ff" points="515.27,-25.22 524.05,-19.29 513.49,-18.45 515.27,-25.22"/>
</a>
</g>
</g>
</g>
</svg>

<g id="navigator" transform="translate(0 0)" fill="#404254">
  <rect fill="#f2f5e9" fill-opacity="0.5" stroke="#606060" stroke-width=".5" x="0" y="0" width="60" height="60"/>
  <use id="zoomplus" xlink:href="#zoomPlus" x="17" y="9" onmousedown="handleZoom(evt,'in')"/>
  <use id="zoomminus" xlink:href="#zoomMin" x="42" y="9" onmousedown="handleZoom(evt,'out')"/>
  <use id="reset" xlink:href="#resetDef" x="30" y="36" onmousedown="handleReset()"/>
   <use id="arrowup" xlink:href="#arrowUp" x="0" y="0" onmousedown="handlePan(0,-1)"/>
  <use id="arrowright" xlink:href="#arrowRight" x="0" y="0" onmousedown="handlePan(1,0)"/>
  <use id="arrowdown" xlink:href="#arrowDown" x="0" y="0" onmousedown="handlePan(0,1)"/>
  <use id="arrowleft" xlink:href="#arrowLeft" x="0" y="0" onmousedown="handlePan(-1,0)"/>
</g>
<svg viewBox="0 0 15 15" width="100%" height="30px" preserveAspectRatio="xMaxYMin meet">
 <g id="arrow_out" transform="scale(0.3 0.3)">
  <a xlink:href="steve_8h_ace442d9381f8eb22beb38e26a5bc23e1_cgraph_org.svg" target="_base">
   <rect id="button" ry="5" rx="5" y="6" x="6" height="38" width="38"
        fill="#f2f5e9" fill-opacity="0.5" stroke="#606060" stroke-width="1.0"/>
   <path id="arrow"
     d="M 11.500037,31.436501 C 11.940474,20.09759 22.043105,11.32322 32.158766,21.979434 L 37.068811,17.246167 C 37.068811,17.246167 37.088388,32 37.088388,32 L 22.160133,31.978069 C 22.160133,31.978069 26.997745,27.140456 26.997745,27.140456 C 18.528582,18.264221 13.291696,25.230495 11.500037,31.436501 z"
     style="fill:#404040;"/>
  </a>
 </g>
</svg>

<style type='text/css'>
<![CDATA[
[data-mouse-over-selected='false'] { opacity: 0.7; }
[data-mouse-over-selected='true']  { opacity: 1.0; }
]]>
</style>
<script type="application/ecmascript"><![CDATA[
document.addEventListener('DOMContentLoaded', (event) => {
  highlightEdges();
  highlightAdjacentNodes();
});
]]></script>
</svg>
