<?xml version="1.0" encoding="UTF-8" standalone="no"?>
<!DOCTYPE svg PUBLIC "-//W3C//DTD SVG 1.1//EN"
 "http://www.w3.org/Graphics/SVG/1.1/DTD/svg11.dtd">
<!-- Generated by graphviz version 12.1.2 (20240928.0832)
 -->
<!-- Title: print_debug_exec_times Pages: 1 -->
<svg width="235pt" height="104pt"
 viewBox="0.00 0.00 235.00 104.00" xmlns="http://www.w3.org/2000/svg" xmlns:xlink="http://www.w3.org/1999/xlink">
<g id="graph0" class="graph" transform="scale(1 1) rotate(0) translate(4 100)">
<title>print_debug_exec_times</title>
<!-- Node1 -->
<g id="Node000001" class="node">
<title>Node1</title>
<g id="a_Node000001"><a xlink:title=" ">
<polygon fill="#999999" stroke="#666666" points="121.75,-58 0,-58 0,-38 121.75,-38 121.75,-58"/>
<text text-anchor="middle" x="60.88" y="-44.5" font-family="Helvetica,sans-Serif" font-size="10.00">print_debug_exec_times</text>
</a>
</g>
</g>
<!-- Node2 -->
<g id="Node000002" class="node">
<title>Node2</title>
<g id="a_Node000002"><a xlink:href="timing_8c.html#a7cef17ffb0e9db503a077191e1a4b013" target="_top" xlink:title=" ">
<polygon fill="white" stroke="#666666" points="224.38,-96 160.38,-96 160.38,-76 224.38,-76 224.38,-96"/>
<text text-anchor="middle" x="192.38" y="-82.5" font-family="Helvetica,sans-Serif" font-size="10.00">get_uptime</text>
</a>
</g>
</g>
<!-- Node1&#45;&gt;Node2 -->
<g id="edge1_Node000001_Node000002" class="edge">
<title>Node1&#45;&gt;Node2</title>
<g id="a_edge1_Node000001_Node000002"><a xlink:title=" ">
<path fill="none" stroke="#63b8ff" d="M97.6,-58.48C113.69,-63.21 132.8,-68.81 149.55,-73.73"/>
<polygon fill="#63b8ff" stroke="#63b8ff" points="148.13,-76.96 158.71,-76.42 150.11,-70.24 148.13,-76.96"/>
</a>
</g>
</g>
<!-- Node3 -->
<g id="Node000003" class="node">
<title>Node3</title>
<g id="a_Node000003"><a xlink:href="timing_8c.html#a9eaeded457e70e6eb00abc6129920593" target="_top" xlink:title=" ">
<polygon fill="white" stroke="#666666" points="227,-58 157.75,-58 157.75,-38 227,-38 227,-58"/>
<text text-anchor="middle" x="192.38" y="-44.5" font-family="Helvetica,sans-Serif" font-size="10.00">ms_to_secs</text>
</a>
</g>
</g>
<!-- Node1&#45;&gt;Node3 -->
<g id="edge2_Node000001_Node000003" class="edge">
<title>Node1&#45;&gt;Node3</title>
<g id="a_edge2_Node000001_Node000003"><a xlink:title=" ">
<path fill="none" stroke="#63b8ff" d="M122.08,-48C130.15,-48 138.31,-48 146.07,-48"/>
<polygon fill="#63b8ff" stroke="#63b8ff" points="145.94,-51.5 155.94,-48 145.94,-44.5 145.94,-51.5"/>
</a>
</g>
</g>
<!-- Node4 -->
<g id="Node000004" class="node">
<title>Node4</title>
<g id="a_Node000004"><a xlink:href="timing_8c.html#afc667ef1e53f787d5e61e758dc1bd7b2" target="_top" xlink:title=" ">
<polygon fill="white" stroke="#666666" points="227,-20 157.75,-20 157.75,0 227,0 227,-20"/>
<text text-anchor="middle" x="192.38" y="-6.5" font-family="Helvetica,sans-Serif" font-size="10.00">ticks_to_ms</text>
</a>
</g>
</g>
<!-- Node1&#45;&gt;Node4 -->
<g id="edge3_Node000001_Node000004" class="edge">
<title>Node1&#45;&gt;Node4</title>
<g id="a_edge3_Node000001_Node000004"><a xlink:title=" ">
<path fill="none" stroke="#63b8ff" d="M97.6,-37.52C112.81,-33.05 130.71,-27.8 146.77,-23.09"/>
<polygon fill="#63b8ff" stroke="#63b8ff" points="147.48,-26.53 156.09,-20.35 145.51,-19.81 147.48,-26.53"/>
</a>
</g>
</g>
</g>
</svg>
