<?xml version="1.0" encoding="UTF-8" standalone="no"?>
<!DOCTYPE svg PUBLIC "-//W3C//DTD SVG 1.1//EN"
 "http://www.w3.org/Graphics/SVG/1.1/DTD/svg11.dtd">
<!-- Generated by graphviz version 12.1.2 (20240928.0832)
 -->
<!-- Title: edit_steve_job_recur_time Pages: 1 -->
<svg width="253pt" height="66pt"
 viewBox="0.00 0.00 253.00 66.00" xmlns="http://www.w3.org/2000/svg" xmlns:xlink="http://www.w3.org/1999/xlink">
<g id="graph0" class="graph" transform="scale(1 1) rotate(0) translate(4 62)">
<title>edit_steve_job_recur_time</title>
<!-- Node1 -->
<g id="Node000001" class="node">
<title>Node1</title>
<g id="a_Node000001"><a xlink:title=" ">
<polygon fill="#999999" stroke="#666666" points="130,-39 0,-39 0,-19 130,-19 130,-39"/>
<text text-anchor="middle" x="65" y="-25.5" font-family="Helvetica,sans-Serif" font-size="10.00">edit_steve_job_recur_time</text>
</a>
</g>
</g>
<!-- Node2 -->
<g id="Node000002" class="node">
<title>Node2</title>
<g id="a_Node000002"><a xlink:href="steve_8c.html#a19f0e4d517e614fdb1e563f56ac1123a" target="_top" xlink:title=" ">
<polygon fill="white" stroke="#666666" points="245,-58 166,-58 166,-38 245,-38 245,-58"/>
<text text-anchor="middle" x="205.5" y="-44.5" font-family="Helvetica,sans-Serif" font-size="10.00">find_steve_job</text>
</a>
</g>
</g>
<!-- Node1&#45;&gt;Node2 -->
<g id="edge1_Node000001_Node000002" class="edge">
<title>Node1&#45;&gt;Node2</title>
<g id="a_edge1_Node000001_Node000002"><a xlink:title=" ">
<path fill="none" stroke="#63b8ff" d="M130.38,-37.83C138.36,-38.93 146.42,-40.03 154.14,-41.09"/>
<polygon fill="#63b8ff" stroke="#63b8ff" points="153.66,-44.56 164.05,-42.45 154.61,-37.62 153.66,-44.56"/>
</a>
</g>
</g>
<!-- Node3 -->
<g id="Node000003" class="node">
<title>Node3</title>
<g id="a_Node000003"><a xlink:href="timing_8c.html#aca6ceb66dd9a31e6376e1bc478dec3d6" target="_top" xlink:title=" ">
<polygon fill="white" stroke="#666666" points="240.12,-20 170.88,-20 170.88,0 240.12,0 240.12,-20"/>
<text text-anchor="middle" x="205.5" y="-6.5" font-family="Helvetica,sans-Serif" font-size="10.00">ms_to_ticks</text>
</a>
</g>
</g>
<!-- Node1&#45;&gt;Node3 -->
<g id="edge2_Node000001_Node000003" class="edge">
<title>Node1&#45;&gt;Node3</title>
<g id="a_edge2_Node000001_Node000003"><a xlink:title=" ">
<path fill="none" stroke="#63b8ff" d="M130.38,-20.17C140.12,-18.83 149.98,-17.48 159.2,-16.21"/>
<polygon fill="#63b8ff" stroke="#63b8ff" points="159.54,-19.7 168.98,-14.87 158.59,-12.77 159.54,-19.7"/>
</a>
</g>
</g>
</g>
</svg>
