<?xml version="1.0" encoding="UTF-8" standalone="no"?>
<!DOCTYPE svg PUBLIC "-//W3C//DTD SVG 1.1//EN"
 "http://www.w3.org/Graphics/SVG/1.1/DTD/svg11.dtd">
<!-- Generated by graphviz version 2.43.0 (0)
 -->
<!-- Title: steve.c Pages: 1 -->
<!--zoomable 247 -->

<svg id="main" version="1.1" xmlns="http://www.w3.org/2000/svg" xmlns:xlink="http://www.w3.org/1999/xlink" xml:space="preserve" onload="init(evt)">

<style type="text/css"><![CDATA[
.node, .edge {opacity: 0.7;}
.node.selected, .edge.selected {opacity: 1;}
.edge:hover path { stroke: red; }
.edge:hover polygon { stroke: red; fill: red; }
]]></style>

<defs>
  <circle id="rim" cx="0" cy="0" r="7"/>
  <circle id="rim2" cx="0" cy="0" r="3.5"/>
  <g id="zoomPlus">
    <use xlink:href="#rim" fill="#404040"><set attributeName="fill" to="#808080" begin="zoomplus.mouseover" end="zoomplus.mouseout"/></use>
    <path d="M-4,0h8M0,-4v8" fill="none" stroke="white" stroke-width="1.5" pointer-events="none"/>
  </g>
  <g id="zoomMin">
    <use xlink:href="#rim" fill="#404040"><set attributeName="fill" to="#808080" begin="zoomminus.mouseover" end="zoomminus.mouseout"/></use>
    <path d="M-4,0h8" fill="none" stroke="white" stroke-width="1.5" pointer-events="none"/>
  </g>
  <g id="arrowUp" transform="translate(30 24)">
    <use xlink:href="#rim"/>
    <path pointer-events="none" fill="none" stroke="white" stroke-width="1.5" d="M0,-3.0v7 M-2.5,-0.5L0,-3.0L2.5,-0.5"/>
  </g>
  <g id="arrowRight" transform="rotate(90) translate(36 -43)">
    <use xlink:href="#rim"/>
    <path pointer-events="none" fill="none" stroke="white" stroke-width="1.5" d="M0,-3.0v7 M-2.5,-0.5L0,-3.0L2.5,-0.5"/>
  </g>
  <g id="arrowDown" transform="rotate(180) translate(-30 -48)">
    <use xlink:href="#rim"/>
    <path pointer-events="none" fill="none" stroke="white" stroke-width="1.5" d="M0,-3.0v7 M-2.5,-0.5L0,-3.0L2.5,-0.5"/>
  </g>
  <g id="arrowLeft" transform="rotate(270) translate(-36 17)">
    <use xlink:href="#rim"/>
    <path pointer-events="none" fill="none" stroke="white" stroke-width="1.5" d="M0,-3.0v7 M-2.5,-0.5L0,-3.0L2.5,-0.5"/>
  </g>
  <g id="resetDef">
    <use xlink:href="#rim2" fill="#404040"><set attributeName="fill" to="#808080" begin="reset.mouseover" end="reset.mouseout"/></use>
  </g>
</defs>
<script type="application/ecmascript">
var viewWidth = 1212;
var viewHeight = 247;
var sectionId = 'dynsection-0';
</script>
<script type="application/ecmascript" xlink:href="svg.min.js"/>
<svg id="graph" class="graph">
<g id="viewport">
<title>steve.c</title>
<!-- Node1 -->
<g id="Node000001" class="node">
<title>Node1</title>
<g id="a_Node000001"><a xlink:title=" ">
<polygon fill="#999999" stroke="#666666" points="667.96,-239 615.96,-239 615.96,-220 667.96,-220 667.96,-239"/>
<text text-anchor="middle" x="641.96" y="-227" font-family="Helvetica,sans-Serif" font-size="10.00">steve.c</text>
</a>
</g>
</g>
<!-- Node2 -->
<g id="Node000002" class="node">
<title>Node2</title>
<g id="a_Node000002"><a xlink:href="stdlib_8h.html" target="_top" xlink:title=" ">
<polygon fill="white" stroke="#666666" points="556.96,-129 480.96,-129 480.96,-110 556.96,-110 556.96,-129"/>
<text text-anchor="middle" x="518.96" y="-117" font-family="Helvetica,sans-Serif" font-size="10.00">pico/stdlib.h</text>
</a>
</g>
</g>
<!-- Node1&#45;&gt;Node2 -->
<g id="edge1_Node000001_Node000002" class="edge">
<title>Node1&#45;&gt;Node2</title>
<g id="a_edge1_Node000001_Node000002"><a xlink:title=" ">
<path fill="none" stroke="#63b8ff" d="M625.13,-219.99C610.05,-211.91 587.77,-198.81 570.96,-184 555.15,-170.07 540.25,-151.05 530.49,-137.46"/>
<polygon fill="#63b8ff" stroke="#63b8ff" points="533.21,-135.24 524.6,-129.05 527.47,-139.25 533.21,-135.24"/>
</a>
</g>
</g>
<!-- Node3 -->
<g id="Node000003" class="node">
<title>Node3</title>
<g id="a_Node000003"><a xlink:title=" ">
<polygon fill="#e0e0e0" stroke="#999999" points="742.46,-184 689.46,-184 689.46,-165 742.46,-165 742.46,-184"/>
<text text-anchor="middle" x="715.96" y="-172" font-family="Helvetica,sans-Serif" font-size="10.00">string.h</text>
</a>
</g>
</g>
<!-- Node1&#45;&gt;Node3 -->
<g id="edge2_Node000001_Node000003" class="edge">
<title>Node1&#45;&gt;Node3</title>
<g id="a_edge2_Node000001_Node000003"><a xlink:title=" ">
<path fill="none" stroke="#63b8ff" d="M653.85,-219.98C665.11,-211.92 682.25,-199.65 695.67,-190.03"/>
<polygon fill="#63b8ff" stroke="#63b8ff" points="697.76,-192.84 703.85,-184.17 693.69,-187.15 697.76,-192.84"/>
</a>
</g>
</g>
<!-- Node4 -->
<g id="Node000004" class="node">
<title>Node4</title>
<g id="a_Node000004"><a xlink:title=" ">
<polygon fill="#e0e0e0" stroke="#999999" points="399.96,-19 337.96,-19 337.96,0 399.96,0 399.96,-19"/>
<text text-anchor="middle" x="368.96" y="-7" font-family="Helvetica,sans-Serif" font-size="10.00">stdbool.h</text>
</a>
</g>
</g>
<!-- Node1&#45;&gt;Node4 -->
<g id="edge3_Node000001_Node000004" class="edge">
<title>Node1&#45;&gt;Node4</title>
<g id="a_edge3_Node000001_Node000004"><a xlink:title=" ">
<path fill="none" stroke="#63b8ff" d="M638.41,-219.95C629.26,-198.82 602.98,-143.4 565.96,-110 539.35,-85.99 446.4,-43.92 398.3,-23.02"/>
<polygon fill="#63b8ff" stroke="#63b8ff" points="399.6,-19.77 389.03,-19.02 396.82,-26.2 399.6,-19.77"/>
</a>
</g>
</g>
<!-- Node5 -->
<g id="Node000005" class="node">
<title>Node5</title>
<g id="a_Node000005"><a xlink:title=" ">
<polygon fill="#e0e0e0" stroke="#999999" points="667.96,-19 595.96,-19 595.96,0 667.96,0 667.96,-19"/>
<text text-anchor="middle" x="631.96" y="-7" font-family="Helvetica,sans-Serif" font-size="10.00">FreeRTOS.h</text>
</a>
</g>
</g>
<!-- Node1&#45;&gt;Node5 -->
<g id="edge4_Node000001_Node000005" class="edge">
<title>Node1&#45;&gt;Node5</title>
<g id="a_edge4_Node000001_Node000005"><a xlink:title=" ">
<path fill="none" stroke="#63b8ff" d="M641.57,-219.95C640.1,-187.95 634.9,-74.68 632.83,-29.4"/>
<polygon fill="#63b8ff" stroke="#63b8ff" points="636.31,-29.05 632.36,-19.22 629.32,-29.37 636.31,-29.05"/>
</a>
</g>
</g>
<!-- Node6 -->
<g id="Node000006" class="node">
<title>Node6</title>
<g id="a_Node000006"><a xlink:title=" ">
<polygon fill="#e0e0e0" stroke="#999999" points="807.46,-184 760.46,-184 760.46,-165 807.46,-165 807.46,-184"/>
<text text-anchor="middle" x="783.96" y="-172" font-family="Helvetica,sans-Serif" font-size="10.00">task.h</text>
</a>
</g>
</g>
<!-- Node1&#45;&gt;Node6 -->
<g id="edge5_Node000001_Node000006" class="edge">
<title>Node1&#45;&gt;Node6</title>
<g id="a_edge5_Node000001_Node000006"><a xlink:title=" ">
<path fill="none" stroke="#63b8ff" d="M664.77,-219.98C688.13,-211.27 724.66,-197.63 751.13,-187.75"/>
<polygon fill="#63b8ff" stroke="#63b8ff" points="752.58,-190.95 760.73,-184.17 750.14,-184.39 752.58,-190.95"/>
</a>
</g>
</g>
<!-- Node7 -->
<g id="Node000007" class="node">
<title>Node7</title>
<g id="a_Node000007"><a xlink:href="log_8h.html" target="_top" xlink:title=" ">
<polygon fill="white" stroke="#666666" points="302.46,-129 261.46,-129 261.46,-110 302.46,-110 302.46,-129"/>
<text text-anchor="middle" x="281.96" y="-117" font-family="Helvetica,sans-Serif" font-size="10.00">log.h</text>
</a>
</g>
</g>
<!-- Node1&#45;&gt;Node7 -->
<g id="edge6_Node000001_Node000007" class="edge">
<title>Node1&#45;&gt;Node7</title>
<g id="a_edge6_Node000001_Node000007"><a xlink:title=" ">
<path fill="none" stroke="#63b8ff" d="M615.64,-225.64C572.46,-220.45 484.24,-207.75 412.96,-184 373.63,-170.89 330.91,-148.51 305.3,-134.12"/>
<polygon fill="#63b8ff" stroke="#63b8ff" points="306.79,-130.94 296.36,-129.03 303.32,-137.02 306.79,-130.94"/>
</a>
</g>
</g>
<!-- Node10 -->
<g id="Node000010" class="node">
<title>Node10</title>
<g id="a_Node000010"><a xlink:href="state_8h.html" target="_top" xlink:title=" ">
<polygon fill="white" stroke="#666666" points="875.96,-184 825.96,-184 825.96,-165 875.96,-165 875.96,-184"/>
<text text-anchor="middle" x="850.96" y="-172" font-family="Helvetica,sans-Serif" font-size="10.00">state.h</text>
</a>
</g>
</g>
<!-- Node1&#45;&gt;Node10 -->
<g id="edge11_Node000001_Node000010" class="edge">
<title>Node1&#45;&gt;Node10</title>
<g id="a_edge11_Node000001_Node000010"><a xlink:title=" ">
<path fill="none" stroke="#63b8ff" d="M668.01,-221.89C705.41,-212.41 774.41,-194.91 816.15,-184.33"/>
<polygon fill="#63b8ff" stroke="#63b8ff" points="817.06,-187.71 825.89,-181.86 815.34,-180.92 817.06,-187.71"/>
</a>
</g>
</g>
<!-- Node11 -->
<g id="Node000011" class="node">
<title>Node11</title>
<g id="a_Node000011"><a xlink:href="mag__lis3mdltr_8h.html" target="_top" xlink:title="Magnetometer Driver (LIS3MDLTR)">
<polygon fill="white" stroke="#666666" points="179.46,-184 84.46,-184 84.46,-165 179.46,-165 179.46,-184"/>
<text text-anchor="middle" x="131.96" y="-172" font-family="Helvetica,sans-Serif" font-size="10.00">mag_lis3mdltr.h</text>
</a>
</g>
</g>
<!-- Node1&#45;&gt;Node11 -->
<g id="edge12_Node000001_Node000011" class="edge">
<title>Node1&#45;&gt;Node11</title>
<g id="a_edge12_Node000001_Node000011"><a xlink:title=" ">
<path fill="none" stroke="#63b8ff" d="M615.61,-225.76C536.57,-217.55 300.14,-192.98 189.82,-181.51"/>
<polygon fill="#63b8ff" stroke="#63b8ff" points="189.86,-178 179.55,-180.45 189.14,-184.96 189.86,-178"/>
</a>
</g>
</g>
<!-- Node17 -->
<g id="Node000017" class="node">
<title>Node17</title>
<g id="a_Node000017"><a xlink:href="ina219_8h.html" target="_top" xlink:title="INA219 Driver.">
<polygon fill="white" stroke="#666666" points="243.46,-129 184.46,-129 184.46,-110 243.46,-110 243.46,-129"/>
<text text-anchor="middle" x="213.96" y="-117" font-family="Helvetica,sans-Serif" font-size="10.00">ina219.h</text>
</a>
</g>
</g>
<!-- Node1&#45;&gt;Node17 -->
<g id="edge25_Node000001_Node000017" class="edge">
<title>Node1&#45;&gt;Node17</title>
<g id="a_edge25_Node000001_Node000017"><a xlink:title=" ">
<path fill="none" stroke="#63b8ff" d="M615.92,-226.41C566.3,-221.96 455.1,-209.79 364.96,-184 319.51,-171 269.43,-148.11 239.88,-133.66"/>
<polygon fill="#63b8ff" stroke="#63b8ff" points="241.2,-130.4 230.69,-129.1 238.1,-136.68 241.2,-130.4"/>
</a>
</g>
</g>
<!-- Node18 -->
<g id="Node000018" class="node">
<title>Node18</title>
<g id="a_Node000018"><a xlink:href="timing_8h.html" target="_top" xlink:title=" ">
<polygon fill="white" stroke="#666666" points="708.46,-74 651.46,-74 651.46,-55 708.46,-55 708.46,-74"/>
<text text-anchor="middle" x="679.96" y="-62" font-family="Helvetica,sans-Serif" font-size="10.00">timing.h</text>
</a>
</g>
</g>
<!-- Node1&#45;&gt;Node18 -->
<g id="edge27_Node000001_Node000018" class="edge">
<title>Node1&#45;&gt;Node18</title>
<g id="a_edge27_Node000001_Node000018"><a xlink:title=" ">
<path fill="none" stroke="#63b8ff" d="M644,-219.74C649.96,-194.2 667.39,-119.43 675.59,-84.23"/>
<polygon fill="#63b8ff" stroke="#63b8ff" points="679.04,-84.84 677.91,-74.31 672.23,-83.25 679.04,-84.84"/>
</a>
</g>
</g>
<!-- Node19 -->
<g id="Node000019" class="node">
<title>Node19</title>
<g id="a_Node000019"><a xlink:href="ds18b20_8h.html" target="_top" xlink:title=" ">
<polygon fill="white" stroke="#666666" points="489.46,-184 422.46,-184 422.46,-165 489.46,-165 489.46,-184"/>
<text text-anchor="middle" x="455.96" y="-172" font-family="Helvetica,sans-Serif" font-size="10.00">ds18b20.h</text>
</a>
</g>
</g>
<!-- Node1&#45;&gt;Node19 -->
<g id="edge29_Node000001_Node000019" class="edge">
<title>Node1&#45;&gt;Node19</title>
<g id="a_edge29_Node000001_Node000019"><a xlink:title=" ">
<path fill="none" stroke="#63b8ff" d="M615.7,-221.02C584.49,-212.12 532.08,-197.19 495.85,-186.87"/>
<polygon fill="#63b8ff" stroke="#63b8ff" points="496.66,-183.46 486.09,-184.08 494.74,-190.19 496.66,-183.46"/>
</a>
</g>
</g>
<!-- Node21 -->
<g id="Node000021" class="node">
<title>Node21</title>
<g id="a_Node000021"><a xlink:href="heartbeat__job_8h.html" target="_top" xlink:title=" ">
<polygon fill="white" stroke="#666666" points="987.46,-184 894.46,-184 894.46,-165 987.46,-165 987.46,-184"/>
<text text-anchor="middle" x="940.96" y="-172" font-family="Helvetica,sans-Serif" font-size="10.00">heartbeat_job.h</text>
</a>
</g>
</g>
<!-- Node1&#45;&gt;Node21 -->
<g id="edge33_Node000001_Node000021" class="edge">
<title>Node1&#45;&gt;Node21</title>
<g id="a_edge33_Node000001_Node000021"><a xlink:title=" ">
<path fill="none" stroke="#63b8ff" d="M667.97,-223.89C715.92,-215.39 819.24,-197.08 884.12,-185.57"/>
<polygon fill="#63b8ff" stroke="#63b8ff" points="884.96,-188.98 894.19,-183.79 883.74,-182.09 884.96,-188.98"/>
</a>
</g>
</g>
<!-- Node22 -->
<g id="Node000022" class="node">
<title>Node22</title>
<g id="a_Node000022"><a xlink:href="miscellaneous__jobs_8h.html" target="_top" xlink:title="This file is used for small jobs that don&#39;t deserve their own files.">
<polygon fill="white" stroke="#666666" points="1127.96,-184 1005.96,-184 1005.96,-165 1127.96,-165 1127.96,-184"/>
<text text-anchor="middle" x="1066.96" y="-172" font-family="Helvetica,sans-Serif" font-size="10.00">miscellaneous_jobs.h</text>
</a>
</g>
</g>
<!-- Node1&#45;&gt;Node22 -->
<g id="edge34_Node000001_Node000022" class="edge">
<title>Node1&#45;&gt;Node22</title>
<g id="a_edge34_Node000001_Node000022"><a xlink:title=" ">
<path fill="none" stroke="#63b8ff" d="M668.22,-225.22C732.55,-217.2 899.71,-196.36 995.94,-184.36"/>
<polygon fill="#63b8ff" stroke="#63b8ff" points="996.39,-187.83 1005.88,-183.12 995.53,-180.88 996.39,-187.83"/>
</a>
</g>
</g>
<!-- Node23 -->
<g id="Node000023" class="node">
<title>Node23</title>
<g id="a_Node000023"><a xlink:href="steve_8h.html" target="_top" xlink:title=" ">
<polygon fill="white" stroke="#666666" points="1199.46,-184 1146.46,-184 1146.46,-165 1199.46,-165 1199.46,-184"/>
<text text-anchor="middle" x="1172.96" y="-172" font-family="Helvetica,sans-Serif" font-size="10.00">steve.h</text>
</a>
</g>
</g>
<!-- Node1&#45;&gt;Node23 -->
<g id="edge35_Node000001_Node000023" class="edge">
<title>Node1&#45;&gt;Node23</title>
<g id="a_edge35_Node000001_Node000023"><a xlink:title=" ">
<path fill="none" stroke="#63b8ff" d="M668.15,-227.46C740.89,-224.29 951.58,-213.23 1136.41,-183.83"/>
<polygon fill="#63b8ff" stroke="#63b8ff" points="1136.99,-187.29 1146.31,-182.24 1135.88,-180.37 1136.99,-187.29"/>
</a>
</g>
</g>
<!-- Node7&#45;&gt;Node4 -->
<g id="edge10_Node000007_Node000004" class="edge">
<title>Node7&#45;&gt;Node4</title>
<g id="a_edge10_Node000007_Node000004"><a xlink:title=" ">
<path fill="none" stroke="#63b8ff" d="M289.08,-109.66C303.62,-91.61 336.92,-50.28 355.61,-27.08"/>
<polygon fill="#63b8ff" stroke="#63b8ff" points="358.44,-29.14 361.98,-19.16 352.99,-24.75 358.44,-29.14"/>
</a>
</g>
</g>
<!-- Node8 -->
<g id="Node000008" class="node">
<title>Node8</title>
<g id="a_Node000008"><a xlink:href="telemetry_8h.html" target="_top" xlink:title=" ">
<polygon fill="white" stroke="#666666" points="594.96,-74 522.96,-74 522.96,-55 594.96,-55 594.96,-74"/>
<text text-anchor="middle" x="558.96" y="-62" font-family="Helvetica,sans-Serif" font-size="10.00">telemetry.h</text>
</a>
</g>
</g>
<!-- Node7&#45;&gt;Node8 -->
<g id="edge7_Node000007_Node000008" class="edge">
<title>Node7&#45;&gt;Node8</title>
<g id="a_edge7_Node000007_Node000008"><a xlink:title=" ">
<path fill="none" stroke="#63b8ff" d="M302.78,-114.52C347.14,-106.03 451.9,-85.98 512.83,-74.33"/>
<polygon fill="#63b8ff" stroke="#63b8ff" points="513.78,-77.71 522.94,-72.39 512.46,-70.83 513.78,-77.71"/>
</a>
</g>
</g>
<!-- Node8&#45;&gt;Node5 -->
<g id="edge8_Node000008_Node000005" class="edge">
<title>Node8&#45;&gt;Node5</title>
<g id="a_edge8_Node000008_Node000005"><a xlink:title=" ">
<path fill="none" stroke="#63b8ff" d="M570.69,-54.98C581.69,-47 598.38,-34.88 611.56,-25.31"/>
<polygon fill="#63b8ff" stroke="#63b8ff" points="613.98,-27.88 620.02,-19.17 609.87,-22.21 613.98,-27.88"/>
</a>
</g>
</g>
<!-- Node9 -->
<g id="Node000009" class="node">
<title>Node9</title>
<g id="a_Node000009"><a xlink:title=" ">
<polygon fill="#e0e0e0" stroke="#999999" points="577.96,-19 521.96,-19 521.96,0 577.96,0 577.96,-19"/>
<text text-anchor="middle" x="549.96" y="-7" font-family="Helvetica,sans-Serif" font-size="10.00">queue.h</text>
</a>
</g>
</g>
<!-- Node8&#45;&gt;Node9 -->
<g id="edge9_Node000008_Node000009" class="edge">
<title>Node8&#45;&gt;Node9</title>
<g id="a_edge9_Node000008_Node000009"><a xlink:title=" ">
<path fill="none" stroke="#63b8ff" d="M557.47,-54.75C556.29,-47.8 554.6,-37.85 553.12,-29.13"/>
<polygon fill="#63b8ff" stroke="#63b8ff" points="556.54,-28.36 551.42,-19.09 549.64,-29.53 556.54,-28.36"/>
</a>
</g>
</g>
<!-- Node11&#45;&gt;Node7 -->
<g id="edge20_Node000011_Node000007" class="edge">
<title>Node11&#45;&gt;Node7</title>
<g id="a_edge20_Node000011_Node000007"><a xlink:title=" ">
<path fill="none" stroke="#63b8ff" d="M156.06,-164.98C182.02,-155.81 223.39,-141.19 251.57,-131.24"/>
<polygon fill="#63b8ff" stroke="#63b8ff" points="253.04,-134.43 261.3,-127.8 250.7,-127.83 253.04,-134.43"/>
</a>
</g>
</g>
<!-- Node12 -->
<g id="Node000012" class="node">
<title>Node12</title>
<g id="a_Node000012"><a xlink:href="simulator_2pico-sdk_2hardware_2i2c_8h.html" target="_top" xlink:title=" ">
<polygon fill="white" stroke="#666666" points="258.46,-74 169.46,-74 169.46,-55 258.46,-55 258.46,-74"/>
<text text-anchor="middle" x="213.96" y="-62" font-family="Helvetica,sans-Serif" font-size="10.00">hardware/i2c.h</text>
</a>
</g>
</g>
<!-- Node11&#45;&gt;Node12 -->
<g id="edge13_Node000011_Node000012" class="edge">
<title>Node11&#45;&gt;Node12</title>
<g id="a_edge13_Node000011_Node000012"><a xlink:title=" ">
<path fill="none" stroke="#63b8ff" d="M137.47,-164.63C145.35,-152.13 160.48,-128.76 174.96,-110 182.49,-100.24 191.53,-89.85 199.01,-81.57"/>
<polygon fill="#63b8ff" stroke="#63b8ff" points="201.69,-83.83 205.86,-74.09 196.52,-79.11 201.69,-83.83"/>
</a>
</g>
</g>
<!-- Node13 -->
<g id="Node000013" class="node">
<title>Node13</title>
<g id="a_Node000013"><a xlink:title=" ">
<polygon fill="#e0e0e0" stroke="#999999" points="167.46,-19 114.46,-19 114.46,0 167.46,0 167.46,-19"/>
<text text-anchor="middle" x="140.96" y="-7" font-family="Helvetica,sans-Serif" font-size="10.00">stdint.h</text>
</a>
</g>
</g>
<!-- Node11&#45;&gt;Node13 -->
<g id="edge19_Node000011_Node000013" class="edge">
<title>Node11&#45;&gt;Node13</title>
<g id="a_edge19_Node000011_Node000013"><a xlink:title=" ">
<path fill="none" stroke="#63b8ff" d="M109.44,-164.97C65.13,-146.89 -26.23,-102.49 7.96,-55 29.69,-24.82 72.83,-14.81 104.1,-11.65"/>
<polygon fill="#63b8ff" stroke="#63b8ff" points="104.52,-15.13 114.2,-10.82 103.95,-8.15 104.52,-15.13"/>
</a>
</g>
</g>
<!-- Node15 -->
<g id="Node000015" class="node">
<title>Node15</title>
<g id="a_Node000015"><a xlink:href="gpio_8h.html" target="_top" xlink:title=" ">
<polygon fill="white" stroke="#666666" points="112.46,-74 17.46,-74 17.46,-55 112.46,-55 112.46,-74"/>
<text text-anchor="middle" x="64.96" y="-62" font-family="Helvetica,sans-Serif" font-size="10.00">hardware/gpio.h</text>
</a>
</g>
</g>
<!-- Node11&#45;&gt;Node15 -->
<g id="edge17_Node000011_Node000015" class="edge">
<title>Node11&#45;&gt;Node15</title>
<g id="a_edge17_Node000011_Node000015"><a xlink:title=" ">
<path fill="none" stroke="#63b8ff" d="M117.03,-164.86C104.89,-157.04 88.3,-144.41 78.96,-129 70.82,-115.56 67.39,-97.96 65.96,-84.69"/>
<polygon fill="#63b8ff" stroke="#63b8ff" points="69.42,-84.07 65.14,-74.37 62.44,-84.62 69.42,-84.07"/>
</a>
</g>
</g>
<!-- Node16 -->
<g id="Node000016" class="node">
<title>Node16</title>
<g id="a_Node000016"><a xlink:href="drivers_2include_2i2c_8h.html" target="_top" xlink:title="Drivers for i2c peripheral devices.">
<polygon fill="white" stroke="#666666" points="127.96,-129 87.96,-129 87.96,-110 127.96,-110 127.96,-129"/>
<text text-anchor="middle" x="107.96" y="-117" font-family="Helvetica,sans-Serif" font-size="10.00">i2c.h</text>
</a>
</g>
</g>
<!-- Node11&#45;&gt;Node16 -->
<g id="edge21_Node000011_Node000016" class="edge">
<title>Node11&#45;&gt;Node16</title>
<g id="a_edge21_Node000011_Node000016"><a xlink:title=" ">
<path fill="none" stroke="#63b8ff" d="M128,-164.75C124.75,-157.57 120.04,-147.18 116.01,-138.27"/>
<polygon fill="#63b8ff" stroke="#63b8ff" points="119.16,-136.75 111.85,-129.09 112.79,-139.64 119.16,-136.75"/>
</a>
</g>
</g>
<!-- Node12&#45;&gt;Node4 -->
<g id="edge16_Node000012_Node000004" class="edge">
<title>Node12&#45;&gt;Node4</title>
<g id="a_edge16_Node000012_Node000004"><a xlink:title=" ">
<path fill="none" stroke="#63b8ff" d="M238.86,-54.98C264.66,-46.16 305.18,-32.31 334.14,-22.41"/>
<polygon fill="#63b8ff" stroke="#63b8ff" points="335.53,-25.63 343.86,-19.08 333.27,-19.01 335.53,-25.63"/>
</a>
</g>
</g>
<!-- Node12&#45;&gt;Node13 -->
<g id="edge14_Node000012_Node000013" class="edge">
<title>Node12&#45;&gt;Node13</title>
<g id="a_edge14_Node000012_Node000013"><a xlink:title=" ">
<path fill="none" stroke="#63b8ff" d="M202.23,-54.98C191.23,-47 174.54,-34.88 161.36,-25.31"/>
<polygon fill="#63b8ff" stroke="#63b8ff" points="163.05,-22.21 152.9,-19.17 158.94,-27.88 163.05,-22.21"/>
</a>
</g>
</g>
<!-- Node14 -->
<g id="Node000014" class="node">
<title>Node14</title>
<g id="a_Node000014"><a xlink:title=" ">
<polygon fill="#e0e0e0" stroke="#999999" points="241.96,-19 185.96,-19 185.96,0 241.96,0 241.96,-19"/>
<text text-anchor="middle" x="213.96" y="-7" font-family="Helvetica,sans-Serif" font-size="10.00">stddef.h</text>
</a>
</g>
</g>
<!-- Node12&#45;&gt;Node14 -->
<g id="edge15_Node000012_Node000014" class="edge">
<title>Node12&#45;&gt;Node14</title>
<g id="a_edge15_Node000012_Node000014"><a xlink:title=" ">
<path fill="none" stroke="#63b8ff" d="M213.96,-54.75C213.96,-47.8 213.96,-37.85 213.96,-29.13"/>
<polygon fill="#63b8ff" stroke="#63b8ff" points="217.46,-29.09 213.96,-19.09 210.46,-29.09 217.46,-29.09"/>
</a>
</g>
</g>
<!-- Node15&#45;&gt;Node13 -->
<g id="edge18_Node000015_Node000013" class="edge">
<title>Node15&#45;&gt;Node13</title>
<g id="a_edge18_Node000015_Node000013"><a xlink:title=" ">
<path fill="none" stroke="#63b8ff" d="M77.17,-54.98C88.74,-46.92 106.33,-34.65 120.12,-25.03"/>
<polygon fill="#63b8ff" stroke="#63b8ff" points="122.33,-27.76 128.53,-19.17 118.32,-22.02 122.33,-27.76"/>
</a>
</g>
</g>
<!-- Node16&#45;&gt;Node12 -->
<g id="edge22_Node000016_Node000012" class="edge">
<title>Node16&#45;&gt;Node12</title>
<g id="a_edge22_Node000016_Node000012"><a xlink:title=" ">
<path fill="none" stroke="#63b8ff" d="M124.99,-109.98C141.89,-101.54 168.02,-88.47 187.6,-78.68"/>
<polygon fill="#63b8ff" stroke="#63b8ff" points="189.24,-81.77 196.62,-74.17 186.11,-75.51 189.24,-81.77"/>
</a>
</g>
</g>
<!-- Node16&#45;&gt;Node13 -->
<g id="edge24_Node000016_Node000013" class="edge">
<title>Node16&#45;&gt;Node13</title>
<g id="a_edge24_Node000016_Node000013"><a xlink:title=" ">
<path fill="none" stroke="#63b8ff" d="M110.66,-109.66C116.03,-92.09 128.14,-52.45 135.32,-28.95"/>
<polygon fill="#63b8ff" stroke="#63b8ff" points="138.74,-29.74 138.31,-19.16 132.04,-27.7 138.74,-29.74"/>
</a>
</g>
</g>
<!-- Node16&#45;&gt;Node15 -->
<g id="edge23_Node000016_Node000015" class="edge">
<title>Node16&#45;&gt;Node15</title>
<g id="a_edge23_Node000016_Node000015"><a xlink:title=" ">
<path fill="none" stroke="#63b8ff" d="M100.86,-109.75C94.79,-102.26 85.87,-91.28 78.45,-82.13"/>
<polygon fill="#63b8ff" stroke="#63b8ff" points="80.95,-79.65 71.93,-74.09 75.51,-84.06 80.95,-79.65"/>
</a>
</g>
</g>
<!-- Node17&#45;&gt;Node12 -->
<g id="edge26_Node000017_Node000012" class="edge">
<title>Node17&#45;&gt;Node12</title>
<g id="a_edge26_Node000017_Node000012"><a xlink:title=" ">
<path fill="none" stroke="#63b8ff" d="M213.96,-109.75C213.96,-102.8 213.96,-92.85 213.96,-84.13"/>
<polygon fill="#63b8ff" stroke="#63b8ff" points="217.46,-84.09 213.96,-74.09 210.46,-84.09 217.46,-84.09"/>
</a>
</g>
</g>
<!-- Node18&#45;&gt;Node5 -->
<g id="edge28_Node000018_Node000005" class="edge">
<title>Node18&#45;&gt;Node5</title>
<g id="a_edge28_Node000018_Node000005"><a xlink:title=" ">
<path fill="none" stroke="#63b8ff" d="M672.03,-54.75C665.11,-47.11 654.89,-35.82 646.51,-26.56"/>
<polygon fill="#63b8ff" stroke="#63b8ff" points="649.05,-24.15 639.74,-19.09 643.86,-28.85 649.05,-24.15"/>
</a>
</g>
</g>
<!-- Node19&#45;&gt;Node2 -->
<g id="edge30_Node000019_Node000002" class="edge">
<title>Node19&#45;&gt;Node2</title>
<g id="a_edge30_Node000019_Node000002"><a xlink:title=" ">
<path fill="none" stroke="#63b8ff" d="M466.08,-164.98C475.39,-157.15 489.43,-145.34 500.7,-135.86"/>
<polygon fill="#63b8ff" stroke="#63b8ff" points="503.25,-138.29 508.65,-129.17 498.75,-132.93 503.25,-138.29"/>
</a>
</g>
</g>
<!-- Node19&#45;&gt;Node13 -->
<g id="edge32_Node000019_Node000013" class="edge">
<title>Node19&#45;&gt;Node13</title>
<g id="a_edge32_Node000019_Node000013"><a xlink:title=" ">
<path fill="none" stroke="#63b8ff" d="M429.07,-164.99C406.89,-157.34 375.11,-144.87 349.96,-129 308.16,-102.63 309.5,-80.15 266.96,-55 238.84,-38.38 203.53,-26.58 177.45,-19.33"/>
<polygon fill="#63b8ff" stroke="#63b8ff" points="178.16,-15.89 167.59,-16.68 176.34,-22.65 178.16,-15.89"/>
</a>
</g>
</g>
<!-- Node20 -->
<g id="Node000020" class="node">
<title>Node20</title>
<g id="a_Node000020"><a xlink:title=" ">
<polygon fill="#e0e0e0" stroke="#999999" points="462.96,-129 358.96,-129 358.96,-110 462.96,-110 462.96,-129"/>
<text text-anchor="middle" x="410.96" y="-117" font-family="Helvetica,sans-Serif" font-size="10.00">pico/binary_info.h</text>
</a>
</g>
</g>
<!-- Node19&#45;&gt;Node20 -->
<g id="edge31_Node000019_Node000020" class="edge">
<title>Node19&#45;&gt;Node20</title>
<g id="a_edge31_Node000019_Node000020"><a xlink:title=" ">
<path fill="none" stroke="#63b8ff" d="M448.53,-164.75C442.11,-157.18 432.65,-146.05 424.84,-136.84"/>
<polygon fill="#63b8ff" stroke="#63b8ff" points="427.39,-134.45 418.25,-129.09 422.06,-138.98 427.39,-134.45"/>
</a>
</g>
</g>
<!-- Node24 -->
<g id="Node000024" class="node">
<title>Node24</title>
<g id="a_Node000024"><a xlink:title=" ">
<polygon fill="#e0e0e0" stroke="#999999" points="1203.96,-129 1141.96,-129 1141.96,-110 1203.96,-110 1203.96,-129"/>
<text text-anchor="middle" x="1172.96" y="-117" font-family="Helvetica,sans-Serif" font-size="10.00">semphr.h</text>
</a>
</g>
</g>
<!-- Node23&#45;&gt;Node24 -->
<g id="edge36_Node000023_Node000024" class="edge">
<title>Node23&#45;&gt;Node24</title>
<g id="a_edge36_Node000023_Node000024"><a xlink:title=" ">
<path fill="none" stroke="#63b8ff" d="M1172.96,-164.75C1172.96,-157.8 1172.96,-147.85 1172.96,-139.13"/>
<polygon fill="#63b8ff" stroke="#63b8ff" points="1176.46,-139.09 1172.96,-129.09 1169.46,-139.09 1176.46,-139.09"/>
</a>
</g>
</g>
</g>
</svg>

<g id="navigator" transform="translate(0 0)" fill="#404254">
  <rect fill="#f2f5e9" fill-opacity="0.5" stroke="#606060" stroke-width=".5" x="0" y="0" width="60" height="60"/>
  <use id="zoomplus" xlink:href="#zoomPlus" x="17" y="9" onmousedown="handleZoom(evt,'in')"/>
  <use id="zoomminus" xlink:href="#zoomMin" x="42" y="9" onmousedown="handleZoom(evt,'out')"/>
  <use id="reset" xlink:href="#resetDef" x="30" y="36" onmousedown="handleReset()"/>
   <use id="arrowup" xlink:href="#arrowUp" x="0" y="0" onmousedown="handlePan(0,-1)"/>
  <use id="arrowright" xlink:href="#arrowRight" x="0" y="0" onmousedown="handlePan(1,0)"/>
  <use id="arrowdown" xlink:href="#arrowDown" x="0" y="0" onmousedown="handlePan(0,1)"/>
  <use id="arrowleft" xlink:href="#arrowLeft" x="0" y="0" onmousedown="handlePan(-1,0)"/>
</g>
<svg viewBox="0 0 15 15" width="100%" height="30px" preserveAspectRatio="xMaxYMin meet">
 <g id="arrow_out" transform="scale(0.3 0.3)">
  <a xlink:href="steve_8c__incl_org.svg" target="_base">
   <rect id="button" ry="5" rx="5" y="6" x="6" height="38" width="38"
        fill="#f2f5e9" fill-opacity="0.5" stroke="#606060" stroke-width="1.0"/>
   <path id="arrow"
     d="M 11.500037,31.436501 C 11.940474,20.09759 22.043105,11.32322 32.158766,21.979434 L 37.068811,17.246167 C 37.068811,17.246167 37.088388,32 37.088388,32 L 22.160133,31.978069 C 22.160133,31.978069 26.997745,27.140456 26.997745,27.140456 C 18.528582,18.264221 13.291696,25.230495 11.500037,31.436501 z"
     style="fill:#404040;"/>
  </a>
 </g>
</svg>

<style type='text/css'>
<![CDATA[
[data-mouse-over-selected='false'] { opacity: 0.7; }
[data-mouse-over-selected='true']  { opacity: 1.0; }
]]>
</style>
<script type="application/ecmascript"><![CDATA[
document.addEventListener('DOMContentLoaded', (event) => {
  highlightEdges();
  highlightAdjacentNodes();
});
]]></script>
</svg>
