<?xml version="1.0" encoding="UTF-8" standalone="no"?>
<!DOCTYPE svg PUBLIC "-//W3C//DTD SVG 1.1//EN"
 "http://www.w3.org/Graphics/SVG/1.1/DTD/svg11.dtd">
<!-- Generated by graphviz version 2.43.0 (0)
 -->
<!-- Title: initialize_steve Pages: 1 -->
<!--zoomable 1078 -->

<svg id="main" version="1.1" xmlns="http://www.w3.org/2000/svg" xmlns:xlink="http://www.w3.org/1999/xlink" xml:space="preserve" onload="init(evt)">

<style type="text/css"><![CDATA[
.node, .edge {opacity: 0.7;}
.node.selected, .edge.selected {opacity: 1;}
.edge:hover path { stroke: red; }
.edge:hover polygon { stroke: red; fill: red; }
]]></style>

<defs>
  <circle id="rim" cx="0" cy="0" r="7"/>
  <circle id="rim2" cx="0" cy="0" r="3.5"/>
  <g id="zoomPlus">
    <use xlink:href="#rim" fill="#404040"><set attributeName="fill" to="#808080" begin="zoomplus.mouseover" end="zoomplus.mouseout"/></use>
    <path d="M-4,0h8M0,-4v8" fill="none" stroke="white" stroke-width="1.5" pointer-events="none"/>
  </g>
  <g id="zoomMin">
    <use xlink:href="#rim" fill="#404040"><set attributeName="fill" to="#808080" begin="zoomminus.mouseover" end="zoomminus.mouseout"/></use>
    <path d="M-4,0h8" fill="none" stroke="white" stroke-width="1.5" pointer-events="none"/>
  </g>
  <g id="arrowUp" transform="translate(30 24)">
    <use xlink:href="#rim"/>
    <path pointer-events="none" fill="none" stroke="white" stroke-width="1.5" d="M0,-3.0v7 M-2.5,-0.5L0,-3.0L2.5,-0.5"/>
  </g>
  <g id="arrowRight" transform="rotate(90) translate(36 -43)">
    <use xlink:href="#rim"/>
    <path pointer-events="none" fill="none" stroke="white" stroke-width="1.5" d="M0,-3.0v7 M-2.5,-0.5L0,-3.0L2.5,-0.5"/>
  </g>
  <g id="arrowDown" transform="rotate(180) translate(-30 -48)">
    <use xlink:href="#rim"/>
    <path pointer-events="none" fill="none" stroke="white" stroke-width="1.5" d="M0,-3.0v7 M-2.5,-0.5L0,-3.0L2.5,-0.5"/>
  </g>
  <g id="arrowLeft" transform="rotate(270) translate(-36 17)">
    <use xlink:href="#rim"/>
    <path pointer-events="none" fill="none" stroke="white" stroke-width="1.5" d="M0,-3.0v7 M-2.5,-0.5L0,-3.0L2.5,-0.5"/>
  </g>
  <g id="resetDef">
    <use xlink:href="#rim2" fill="#404040"><set attributeName="fill" to="#808080" begin="reset.mouseover" end="reset.mouseout"/></use>
  </g>
</defs>
<script type="application/ecmascript">
var viewWidth = 937;
var viewHeight = 1078;
var sectionId = 'dynsection-4';
</script>
<script type="application/ecmascript" xlink:href="svg.min.js"/>
<svg id="graph" class="graph">
<g id="viewport">
<title>initialize_steve</title>
<!-- Node1 -->
<g id="Node000001" class="node">
<title>Node1</title>
<g id="a_Node000001"><a xlink:title=" ">
<polygon fill="#999999" stroke="#666666" points="91,-269 0,-269 0,-250 91,-250 91,-269"/>
<text text-anchor="middle" x="45.5" y="-257" font-family="Helvetica,sans-Serif" font-size="10.00">initialize_steve</text>
</a>
</g>
</g>
<!-- Node2 -->
<g id="Node000002" class="node">
<title>Node2</title>
<g id="a_Node000002"><a xlink:href="heartbeat__job_8c.html#a5a39a53ceb61fec283d89fcb0032a24b" target="_top" xlink:title=" ">
<polygon fill="white" stroke="#666666" points="264,-476 127,-476 127,-457 264,-457 264,-476"/>
<text text-anchor="middle" x="195.5" y="-464" font-family="Helvetica,sans-Serif" font-size="10.00">heartbeat_telemetry_job</text>
</a>
</g>
</g>
<!-- Node1&#45;&gt;Node2 -->
<g id="edge1_Node000001_Node000002" class="edge">
<title>Node1&#45;&gt;Node2</title>
<g id="a_edge1_Node000001_Node000002"><a xlink:title=" ">
<path fill="none" stroke="#63b8ff" d="M53.44,-269.21C76.55,-301.53 151.13,-405.84 181.48,-448.28"/>
<polygon fill="#63b8ff" stroke="#63b8ff" points="178.74,-450.47 187.4,-456.57 184.43,-446.4 178.74,-450.47"/>
</a>
</g>
</g>
<!-- Node35 -->
<g id="Node000035" class="node">
<title>Node35</title>
<g id="a_Node000035"><a xlink:href="steve_8c.html#aa1f662b5890cdc563739a6c3eed51686" target="_top" xlink:title=" ">
<polygon fill="white" stroke="#666666" points="250,-67.5 141,-67.5 141,-37.5 250,-37.5 250,-67.5"/>
<text text-anchor="start" x="149" y="-55.5" font-family="Helvetica,sans-Serif" font-size="10.00">schedule_recurring</text>
<text text-anchor="middle" x="195.5" y="-44.5" font-family="Helvetica,sans-Serif" font-size="10.00">_job_secs</text>
</a>
</g>
</g>
<!-- Node1&#45;&gt;Node35 -->
<g id="edge56_Node000001_Node000035" class="edge">
<title>Node1&#45;&gt;Node35</title>
<g id="a_edge56_Node000001_Node000035"><a xlink:title=" ">
<path fill="none" stroke="#63b8ff" d="M53.44,-249.79C75.62,-218.77 145.23,-121.41 177.62,-76.11"/>
<polygon fill="#63b8ff" stroke="#63b8ff" points="180.61,-77.95 183.57,-67.78 174.91,-73.88 180.61,-77.95"/>
</a>
</g>
</g>
<!-- Node3 -->
<g id="Node000003" class="node">
<title>Node3</title>
<g id="a_Node000003"><a xlink:href="ina219_8c.html#a9ffe93da633c2f6008fac2f2da36ab72" target="_top" xlink:title=" ">
<polygon fill="white" stroke="#666666" points="565.5,-827 519.5,-827 519.5,-808 565.5,-808 565.5,-827"/>
<text text-anchor="middle" x="542.5" y="-815" font-family="Helvetica,sans-Serif" font-size="10.00">config</text>
</a>
</g>
</g>
<!-- Node2&#45;&gt;Node3 -->
<g id="edge2_Node000002_Node000003" class="edge">
<title>Node2&#45;&gt;Node3</title>
<g id="a_edge2_Node000002_Node000003"><a xlink:title=" ">
<path fill="none" stroke="#63b8ff" d="M197.81,-476.28C205.05,-528.52 241.87,-774.03 300,-817.5 361.89,-863.77 459.83,-843.42 509.85,-828.39"/>
<polygon fill="#63b8ff" stroke="#63b8ff" points="510.97,-831.7 519.47,-825.38 508.88,-825.02 510.97,-831.7"/>
</a>
</g>
</g>
<!-- Node5 -->
<g id="Node000005" class="node">
<title>Node5</title>
<g id="a_Node000005"><a xlink:href="timing_8c.html#a7cef17ffb0e9db503a077191e1a4b013" target="_top" xlink:title=" ">
<polygon fill="white" stroke="#666666" points="578.5,-102 506.5,-102 506.5,-83 578.5,-83 578.5,-102"/>
<text text-anchor="middle" x="542.5" y="-90" font-family="Helvetica,sans-Serif" font-size="10.00">get_uptime</text>
</a>
</g>
</g>
<!-- Node2&#45;&gt;Node5 -->
<g id="edge5_Node000002_Node000005" class="edge">
<title>Node2&#45;&gt;Node5</title>
<g id="a_edge5_Node000002_Node000005"><a xlink:title=" ">
<path fill="none" stroke="#63b8ff" d="M197.88,-456.79C205.46,-404.86 243.77,-160.7 300,-114.5 355.04,-69.27 442.84,-74.22 496.04,-82.78"/>
<polygon fill="#63b8ff" stroke="#63b8ff" points="495.75,-86.28 506.19,-84.52 496.93,-79.38 495.75,-86.28"/>
</a>
</g>
</g>
<!-- Node6 -->
<g id="Node000006" class="node">
<title>Node6</title>
<g id="a_Node000006"><a xlink:href="ina219_8c.html#a7a37de137b1bb2ec0149be505ec84ffe" target="_top" xlink:title=" ">
<polygon fill="white" stroke="#666666" points="417,-809 325,-809 325,-790 417,-790 417,-809"/>
<text text-anchor="middle" x="371" y="-797" font-family="Helvetica,sans-Serif" font-size="10.00">getCurrent_raw</text>
</a>
</g>
</g>
<!-- Node2&#45;&gt;Node6 -->
<g id="edge6_Node000002_Node000006" class="edge">
<title>Node2&#45;&gt;Node6</title>
<g id="a_edge6_Node000002_Node000006"><a xlink:title=" ">
<path fill="none" stroke="#63b8ff" d="M196.58,-476.13C197.47,-518.76 206.9,-692.24 300,-780.5 304.39,-784.66 309.6,-787.93 315.16,-790.5"/>
<polygon fill="#63b8ff" stroke="#63b8ff" points="314.19,-793.87 324.78,-794.18 316.7,-787.34 314.19,-793.87"/>
</a>
</g>
</g>
<!-- Node9 -->
<g id="Node000009" class="node">
<title>Node9</title>
<g id="a_Node000009"><a xlink:href="ina219_8c.html#aeb76d9007b107e997adfd60ab4d3bae0" target="_top" xlink:title=" ">
<polygon fill="white" stroke="#666666" points="414,-772 328,-772 328,-753 414,-753 414,-772"/>
<text text-anchor="middle" x="371" y="-760" font-family="Helvetica,sans-Serif" font-size="10.00">getPower_raw</text>
</a>
</g>
</g>
<!-- Node2&#45;&gt;Node9 -->
<g id="edge10_Node000002_Node000009" class="edge">
<title>Node2&#45;&gt;Node9</title>
<g id="a_edge10_Node000002_Node000009"><a xlink:title=" ">
<path fill="none" stroke="#63b8ff" d="M197.05,-476.06C199.87,-515.48 215.96,-666.9 300,-743.5 305.19,-748.23 311.44,-751.8 318.04,-754.49"/>
<polygon fill="#63b8ff" stroke="#63b8ff" points="317.29,-757.94 327.89,-757.84 319.55,-751.31 317.29,-757.94"/>
</a>
</g>
</g>
<!-- Node10 -->
<g id="Node000010" class="node">
<title>Node10</title>
<g id="a_Node000010"><a xlink:href="ina219_8c.html#acc82e6e7a3a8b48efe1ad86f421dcad0" target="_top" xlink:title=" ">
<polygon fill="white" stroke="#666666" points="411,-328 331,-328 331,-309 411,-309 411,-328"/>
<text text-anchor="middle" x="371" y="-316" font-family="Helvetica,sans-Serif" font-size="10.00">getVBus_raw</text>
</a>
</g>
</g>
<!-- Node2&#45;&gt;Node10 -->
<g id="edge13_Node000002_Node000010" class="edge">
<title>Node2&#45;&gt;Node10</title>
<g id="a_edge13_Node000002_Node000010"><a xlink:title=" ">
<path fill="none" stroke="#63b8ff" d="M201.28,-456.91C213.86,-432.68 250.37,-368.66 300,-336.5 306.3,-332.42 313.47,-329.26 320.77,-326.82"/>
<polygon fill="#63b8ff" stroke="#63b8ff" points="322.12,-330.07 330.74,-323.91 320.16,-323.35 322.12,-330.07"/>
</a>
</g>
</g>
<!-- Node11 -->
<g id="Node000011" class="node">
<title>Node11</title>
<g id="a_Node000011"><a xlink:href="ina219_8c.html#a0ef96929110f3bf77d9da6940841b7a3" target="_top" xlink:title=" ">
<polygon fill="white" stroke="#666666" points="416,-291 326,-291 326,-272 416,-272 416,-291"/>
<text text-anchor="middle" x="371" y="-279" font-family="Helvetica,sans-Serif" font-size="10.00">getVShunt_raw</text>
</a>
</g>
</g>
<!-- Node2&#45;&gt;Node11 -->
<g id="edge15_Node000002_Node000011" class="edge">
<title>Node2&#45;&gt;Node11</title>
<g id="a_edge15_Node000002_Node000011"><a xlink:title=" ">
<path fill="none" stroke="#63b8ff" d="M199.59,-456.78C209.3,-427.93 242.01,-342.12 300,-299.5 304.86,-295.93 310.36,-293.07 316.09,-290.77"/>
<polygon fill="#63b8ff" stroke="#63b8ff" points="317.55,-293.97 325.88,-287.41 315.28,-287.34 317.55,-293.97"/>
</a>
</g>
</g>
<!-- Node12 -->
<g id="Node000012" class="node">
<title>Node12</title>
<g id="a_Node000012"><a xlink:href="hb__tlm__log_8c.html#a06d9003c959538dac30ed99c0f01db0f" target="_top" xlink:title=" ">
<polygon fill="white" stroke="#666666" points="424,-956 318,-956 318,-937 424,-937 424,-956"/>
<text text-anchor="middle" x="371" y="-944" font-family="Helvetica,sans-Serif" font-size="10.00">log_heartbeat_tlm</text>
</a>
</g>
</g>
<!-- Node2&#45;&gt;Node12 -->
<g id="edge17_Node000002_Node000012" class="edge">
<title>Node2&#45;&gt;Node12</title>
<g id="a_edge17_Node000002_Node000012"><a xlink:title=" ">
<path fill="none" stroke="#63b8ff" d="M197.75,-476.19C203.81,-520.97 232.58,-711.51 300,-851.5 314.21,-881 337.96,-910.7 353.81,-928.85"/>
<polygon fill="#63b8ff" stroke="#63b8ff" points="351.6,-931.64 360.87,-936.78 356.83,-926.98 351.6,-931.64"/>
</a>
</g>
</g>
<!-- Node20 -->
<g id="Node000020" class="node">
<title>Node20</title>
<g id="a_Node000020"><a xlink:href="mag__lis3mdltr_8c.html#a7701b495ff94874c5d3bbd940b8f99ff" target="_top" xlink:title=" ">
<polygon fill="white" stroke="#666666" points="416,-254 326,-254 326,-235 416,-235 416,-254"/>
<text text-anchor="middle" x="371" y="-242" font-family="Helvetica,sans-Serif" font-size="10.00">mag_get_temp</text>
</a>
</g>
</g>
<!-- Node2&#45;&gt;Node20 -->
<g id="edge27_Node000002_Node000020" class="edge">
<title>Node2&#45;&gt;Node20</title>
<g id="a_edge27_Node000002_Node000020"><a xlink:title=" ">
<path fill="none" stroke="#63b8ff" d="M198.49,-456.59C205.67,-423.51 233.42,-315.96 300,-262.5 304.76,-258.68 310.25,-255.65 316.01,-253.27"/>
<polygon fill="#63b8ff" stroke="#63b8ff" points="317.58,-256.43 325.87,-249.83 315.28,-249.82 317.58,-256.43"/>
</a>
</g>
</g>
<!-- Node21 -->
<g id="Node000021" class="node">
<title>Node21</title>
<g id="a_Node000021"><a xlink:href="mag__lis3mdltr_8c.html#a38a61bd16b9dfb232231f3518d803b65" target="_top" xlink:title=" ">
<polygon fill="white" stroke="#666666" points="406.5,-217 335.5,-217 335.5,-198 406.5,-198 406.5,-217"/>
<text text-anchor="middle" x="371" y="-205" font-family="Helvetica,sans-Serif" font-size="10.00">mag_get_x</text>
</a>
</g>
</g>
<!-- Node2&#45;&gt;Node21 -->
<g id="edge29_Node000002_Node000021" class="edge">
<title>Node2&#45;&gt;Node21</title>
<g id="a_edge29_Node000002_Node000021"><a xlink:title=" ">
<path fill="none" stroke="#63b8ff" d="M197.62,-456.92C202.37,-420.63 224.27,-290.38 300,-225.5 307.21,-219.32 316.27,-215.23 325.46,-212.52"/>
<polygon fill="#63b8ff" stroke="#63b8ff" points="326.51,-215.86 335.39,-210.09 324.85,-209.06 326.51,-215.86"/>
</a>
</g>
</g>
<!-- Node22 -->
<g id="Node000022" class="node">
<title>Node22</title>
<g id="a_Node000022"><a xlink:href="mag__lis3mdltr_8c.html#a47dbf866e595e1b959c9da3b594dcc7d" target="_top" xlink:title=" ">
<polygon fill="white" stroke="#666666" points="406.5,-143 335.5,-143 335.5,-124 406.5,-124 406.5,-143"/>
<text text-anchor="middle" x="371" y="-131" font-family="Helvetica,sans-Serif" font-size="10.00">mag_get_y</text>
</a>
</g>
</g>
<!-- Node2&#45;&gt;Node22 -->
<g id="edge31_Node000002_Node000022" class="edge">
<title>Node2&#45;&gt;Node22</title>
<g id="a_edge31_Node000002_Node000022"><a xlink:title=" ">
<path fill="none" stroke="#63b8ff" d="M196.54,-456.81C197.27,-413.92 206.09,-239.43 300,-151.5 307.07,-144.88 316.24,-140.62 325.6,-137.89"/>
<polygon fill="#63b8ff" stroke="#63b8ff" points="326.43,-141.29 335.35,-135.57 324.81,-134.48 326.43,-141.29"/>
</a>
</g>
</g>
<!-- Node23 -->
<g id="Node000023" class="node">
<title>Node23</title>
<g id="a_Node000023"><a xlink:href="mag__lis3mdltr_8c.html#ae8775374a424d7f7cce47046c180954d" target="_top" xlink:title=" ">
<polygon fill="white" stroke="#666666" points="406,-735 336,-735 336,-716 406,-716 406,-735"/>
<text text-anchor="middle" x="371" y="-723" font-family="Helvetica,sans-Serif" font-size="10.00">mag_get_z</text>
</a>
</g>
</g>
<!-- Node2&#45;&gt;Node23 -->
<g id="edge33_Node000002_Node000023" class="edge">
<title>Node2&#45;&gt;Node23</title>
<g id="a_edge33_Node000002_Node000023"><a xlink:title=" ">
<path fill="none" stroke="#63b8ff" d="M197.66,-476.01C202.55,-512.04 224.92,-641.4 300,-706.5 307.34,-712.87 316.62,-717.12 326,-719.96"/>
<polygon fill="#63b8ff" stroke="#63b8ff" points="325.18,-723.36 335.74,-722.43 326.91,-716.58 325.18,-723.36"/>
</a>
</g>
</g>
<!-- Node24 -->
<g id="Node000024" class="node">
<title>Node24</title>
<g id="a_Node000024"><a xlink:href="simulator_2drivers_2include_2max17048_8h.html#ad9a75a9c9fa941599b507163dc5c223a" target="_top" xlink:title=" ">
<polygon fill="white" stroke="#666666" points="442,-661 300,-661 300,-642 442,-642 442,-661"/>
<text text-anchor="middle" x="371" y="-649" font-family="Helvetica,sans-Serif" font-size="10.00">max17048CellPercentage</text>
</a>
</g>
</g>
<!-- Node2&#45;&gt;Node24 -->
<g id="edge35_Node000002_Node000024" class="edge">
<title>Node2&#45;&gt;Node24</title>
<g id="a_edge35_Node000002_Node000024"><a xlink:title=" ">
<path fill="none" stroke="#63b8ff" d="M199.64,-476.12C209.47,-504.7 242.49,-589.75 300,-632.5 302.63,-634.45 305.44,-636.21 308.38,-637.78"/>
<polygon fill="#63b8ff" stroke="#63b8ff" points="306.96,-640.97 317.5,-641.97 309.88,-634.61 306.96,-640.97"/>
</a>
</g>
</g>
<!-- Node25 -->
<g id="Node000025" class="node">
<title>Node25</title>
<g id="a_Node000025"><a xlink:href="max17048_8c.html#adf384268b2363eadca0fdb81281a1a6f" target="_top" xlink:title=" ">
<polygon fill="white" stroke="#666666" points="433,-180 309,-180 309,-161 433,-161 433,-180"/>
<text text-anchor="middle" x="371" y="-168" font-family="Helvetica,sans-Serif" font-size="10.00">max17048CellVoltage</text>
</a>
</g>
</g>
<!-- Node2&#45;&gt;Node25 -->
<g id="edge37_Node000002_Node000025" class="edge">
<title>Node2&#45;&gt;Node25</title>
<g id="a_edge37_Node000002_Node000025"><a xlink:title=" ">
<path fill="none" stroke="#63b8ff" d="M197.01,-456.87C199.67,-417.19 215.23,-264.83 300,-188.5 301.17,-187.45 302.38,-186.46 303.65,-185.53"/>
<polygon fill="#63b8ff" stroke="#63b8ff" points="305.81,-188.31 312.56,-180.15 302.19,-182.32 305.81,-188.31"/>
</a>
</g>
</g>
<!-- Node26 -->
<g id="Node000026" class="node">
<title>Node26</title>
<g id="a_Node000026"><a xlink:href="rtc__ds3231_8c.html#a4d9ecc8e912cc84cd50c842a8d69e70e" target="_top" xlink:title=" ">
<polygon fill="white" stroke="#666666" points="409.5,-624 332.5,-624 332.5,-605 409.5,-605 409.5,-624"/>
<text text-anchor="middle" x="371" y="-612" font-family="Helvetica,sans-Serif" font-size="10.00">rtc_get_date</text>
</a>
</g>
</g>
<!-- Node2&#45;&gt;Node26 -->
<g id="edge39_Node000002_Node000026" class="edge">
<title>Node2&#45;&gt;Node26</title>
<g id="a_edge39_Node000002_Node000026"><a xlink:title=" ">
<path fill="none" stroke="#63b8ff" d="M201.51,-476.33C214.37,-500.55 251,-563.41 300,-595.5 306.82,-599.96 314.66,-603.38 322.57,-606"/>
<polygon fill="#63b8ff" stroke="#63b8ff" points="321.61,-609.37 332.19,-608.82 323.58,-602.65 321.61,-609.37"/>
</a>
</g>
</g>
<!-- Node27 -->
<g id="Node000027" class="node">
<title>Node27</title>
<g id="a_Node000027"><a xlink:href="rtc__ds3231_8c.html#a50130551fb17b3228d45e86ff7b634c3" target="_top" xlink:title=" ">
<polygon fill="white" stroke="#666666" points="409.5,-587 332.5,-587 332.5,-568 409.5,-568 409.5,-587"/>
<text text-anchor="middle" x="371" y="-575" font-family="Helvetica,sans-Serif" font-size="10.00">rtc_get_hour</text>
</a>
</g>
</g>
<!-- Node2&#45;&gt;Node27 -->
<g id="edge41_Node000002_Node000027" class="edge">
<title>Node2&#45;&gt;Node27</title>
<g id="a_edge41_Node000002_Node000027"><a xlink:title=" ">
<path fill="none" stroke="#63b8ff" d="M204.55,-476.17C220.69,-494.92 258.98,-536.31 300,-558.5 307.01,-562.29 314.83,-565.37 322.63,-567.85"/>
<polygon fill="#63b8ff" stroke="#63b8ff" points="321.87,-571.28 332.45,-570.7 323.81,-564.55 321.87,-571.28"/>
</a>
</g>
</g>
<!-- Node28 -->
<g id="Node000028" class="node">
<title>Node28</title>
<g id="a_Node000028"><a xlink:href="rtc__ds3231_8c.html#a37b2be869bea794d2fdfa8869baaa26d" target="_top" xlink:title=" ">
<polygon fill="white" stroke="#666666" points="416,-550 326,-550 326,-531 416,-531 416,-550"/>
<text text-anchor="middle" x="371" y="-538" font-family="Helvetica,sans-Serif" font-size="10.00">rtc_get_minute</text>
</a>
</g>
</g>
<!-- Node2&#45;&gt;Node28 -->
<g id="edge43_Node000002_Node000028" class="edge">
<title>Node2&#45;&gt;Node28</title>
<g id="a_edge43_Node000002_Node000028"><a xlink:title=" ">
<path fill="none" stroke="#63b8ff" d="M211.76,-476.01C231.51,-487.98 267.27,-508.55 300,-521.5 305.99,-523.87 312.39,-526.05 318.79,-528.03"/>
<polygon fill="#63b8ff" stroke="#63b8ff" points="318.2,-531.5 328.78,-530.96 320.17,-524.79 318.2,-531.5"/>
</a>
</g>
</g>
<!-- Node29 -->
<g id="Node000029" class="node">
<title>Node29</title>
<g id="a_Node000029"><a xlink:href="rtc__ds3231_8c.html#a21b982cbe42fb3a2a10755cc9cb1f3f8" target="_top" xlink:title=" ">
<polygon fill="white" stroke="#666666" points="414.5,-513 327.5,-513 327.5,-494 414.5,-494 414.5,-513"/>
<text text-anchor="middle" x="371" y="-501" font-family="Helvetica,sans-Serif" font-size="10.00">rtc_get_month</text>
</a>
</g>
</g>
<!-- Node2&#45;&gt;Node29 -->
<g id="edge45_Node000002_Node000029" class="edge">
<title>Node2&#45;&gt;Node29</title>
<g id="a_edge45_Node000002_Node000029"><a xlink:title=" ">
<path fill="none" stroke="#63b8ff" d="M241.18,-476.03C264.48,-481 293.12,-487.1 317.47,-492.3"/>
<polygon fill="#63b8ff" stroke="#63b8ff" points="316.76,-495.72 327.27,-494.39 318.22,-488.88 316.76,-495.72"/>
</a>
</g>
</g>
<!-- Node30 -->
<g id="Node000030" class="node">
<title>Node30</title>
<g id="a_Node000030"><a xlink:href="rtc__ds3231_8c.html#a663d94e64990cdf62b9f4f740b94bfab" target="_top" xlink:title=" ">
<polygon fill="white" stroke="#666666" points="416,-476 326,-476 326,-457 416,-457 416,-476"/>
<text text-anchor="middle" x="371" y="-464" font-family="Helvetica,sans-Serif" font-size="10.00">rtc_get_second</text>
</a>
</g>
</g>
<!-- Node2&#45;&gt;Node30 -->
<g id="edge47_Node000002_Node000030" class="edge">
<title>Node2&#45;&gt;Node30</title>
<g id="a_edge47_Node000002_Node000030"><a xlink:title=" ">
<path fill="none" stroke="#63b8ff" d="M264.08,-466.5C281.09,-466.5 299.14,-466.5 315.43,-466.5"/>
<polygon fill="#63b8ff" stroke="#63b8ff" points="315.85,-470 325.85,-466.5 315.85,-463 315.85,-470"/>
</a>
</g>
</g>
<!-- Node31 -->
<g id="Node000031" class="node">
<title>Node31</title>
<g id="a_Node000031"><a xlink:href="rtc__ds3231_8c.html#a787d50004f6b318e952f813800188f89" target="_top" xlink:title=" ">
<polygon fill="white" stroke="#666666" points="411.5,-402 330.5,-402 330.5,-383 411.5,-383 411.5,-402"/>
<text text-anchor="middle" x="371" y="-390" font-family="Helvetica,sans-Serif" font-size="10.00">rtc_get_temp</text>
</a>
</g>
</g>
<!-- Node2&#45;&gt;Node31 -->
<g id="edge49_Node000002_Node000031" class="edge">
<title>Node2&#45;&gt;Node31</title>
<g id="a_edge49_Node000002_Node000031"><a xlink:title=" ">
<path fill="none" stroke="#63b8ff" d="M211.37,-456.94C230.98,-444.69 266.91,-423.48 300,-410.5 306.44,-407.98 313.34,-405.7 320.22,-403.69"/>
<polygon fill="#63b8ff" stroke="#63b8ff" points="321.51,-406.97 330.22,-400.94 319.65,-400.22 321.51,-406.97"/>
</a>
</g>
</g>
<!-- Node32 -->
<g id="Node000032" class="node">
<title>Node32</title>
<g id="a_Node000032"><a xlink:href="rtc__ds3231_8c.html#ab763e064ad555e3e2b0f21d4e78c0d76" target="_top" xlink:title=" ">
<polygon fill="white" stroke="#666666" points="409.5,-439 332.5,-439 332.5,-420 409.5,-420 409.5,-439"/>
<text text-anchor="middle" x="371" y="-427" font-family="Helvetica,sans-Serif" font-size="10.00">rtc_get_year</text>
</a>
</g>
</g>
<!-- Node2&#45;&gt;Node32 -->
<g id="edge51_Node000002_Node000032" class="edge">
<title>Node2&#45;&gt;Node32</title>
<g id="a_edge51_Node000002_Node000032"><a xlink:title=" ">
<path fill="none" stroke="#63b8ff" d="M241.18,-456.97C265.98,-451.68 296.83,-445.1 322.12,-439.71"/>
<polygon fill="#63b8ff" stroke="#63b8ff" points="323.17,-443.06 332.22,-437.56 321.71,-436.22 323.17,-443.06"/>
</a>
</g>
</g>
<!-- Node33 -->
<g id="Node000033" class="node">
<title>Node33</title>
<g id="a_Node000033"><a xlink:href="telemetry_8c.html#a6dbf6c6cfd75451e5642ca0b64bf7f5a" target="_top" xlink:title=" ">
<polygon fill="white" stroke="#666666" points="417.5,-698 324.5,-698 324.5,-679 417.5,-679 417.5,-698"/>
<text text-anchor="middle" x="371" y="-686" font-family="Helvetica,sans-Serif" font-size="10.00">send_telemetry</text>
</a>
</g>
</g>
<!-- Node2&#45;&gt;Node33 -->
<g id="edge53_Node000002_Node000033" class="edge">
<title>Node2&#45;&gt;Node33</title>
<g id="a_edge53_Node000002_Node000033"><a xlink:title=" ">
<path fill="none" stroke="#63b8ff" d="M198.53,-476.33C205.85,-509.14 233.98,-615.88 300,-669.5 304.4,-673.07 309.41,-675.98 314.69,-678.34"/>
<polygon fill="#63b8ff" stroke="#63b8ff" points="313.81,-681.75 324.4,-682.02 316.3,-675.2 313.81,-681.75"/>
</a>
</g>
</g>
<!-- Node34 -->
<g id="Node000034" class="node">
<title>Node34</title>
<g id="a_Node000034"><a xlink:href="vega__ant_8c.html#a6377b53e9c676bceaa38ec9ddeb7fd28" target="_top" xlink:title=" ">
<polygon fill="white" stroke="#666666" points="419.5,-365 322.5,-365 322.5,-346 419.5,-346 419.5,-365"/>
<text text-anchor="middle" x="371" y="-353" font-family="Helvetica,sans-Serif" font-size="10.00">vega_ant_status</text>
</a>
</g>
</g>
<!-- Node2&#45;&gt;Node34 -->
<g id="edge54_Node000002_Node000034" class="edge">
<title>Node2&#45;&gt;Node34</title>
<g id="a_edge54_Node000002_Node000034"><a xlink:title=" ">
<path fill="none" stroke="#63b8ff" d="M204.26,-456.96C220.16,-438.06 258.48,-395.75 300,-373.5 303.96,-371.38 308.19,-369.49 312.53,-367.83"/>
<polygon fill="#63b8ff" stroke="#63b8ff" points="313.83,-371.08 322.14,-364.51 311.55,-364.46 313.83,-371.08"/>
</a>
</g>
</g>
<!-- Node3&#45;&gt;Node3 -->
<g id="edge3_Node000003_Node000003" class="edge">
<title>Node3&#45;&gt;Node3</title>
<g id="a_edge3_Node000003_Node000003"><a xlink:title=" ">
<path fill="none" stroke="#63b8ff" d="M519.09,-826.23C505.32,-835.11 513.12,-845 542.5,-845 563.15,-845 573.14,-840.11 572.47,-834.12"/>
<polygon fill="#63b8ff" stroke="#63b8ff" points="574.99,-831.68 565.91,-826.23 569.61,-836.16 574.99,-831.68"/>
</a>
</g>
</g>
<!-- Node4 -->
<g id="Node000004" class="node">
<title>Node4</title>
<g id="a_Node000004"><a xlink:href="i2c_8c.html#a73f9c3581b5d48d5db9c6c445034a970" target="_top" xlink:title=" ">
<polygon fill="white" stroke="#666666" points="762,-809 643,-809 643,-790 762,-790 762,-809"/>
<text text-anchor="middle" x="702.5" y="-797" font-family="Helvetica,sans-Serif" font-size="10.00">i2c_write_to_register</text>
</a>
</g>
</g>
<!-- Node3&#45;&gt;Node4 -->
<g id="edge4_Node000003_Node000004" class="edge">
<title>Node3&#45;&gt;Node4</title>
<g id="a_edge4_Node000003_Node000004"><a xlink:title=" ">
<path fill="none" stroke="#63b8ff" d="M565.8,-814.96C583.29,-812.97 608.62,-810.08 632.67,-807.34"/>
<polygon fill="#63b8ff" stroke="#63b8ff" points="633.33,-810.79 642.87,-806.18 632.54,-803.83 633.33,-810.79"/>
</a>
</g>
</g>
<!-- Node7 -->
<g id="Node000007" class="node">
<title>Node7</title>
<g id="a_Node000007"><a xlink:href="ina219_8c.html#a75d20b3960f7d7688d27f264f02eb98a" target="_top" xlink:title=" ">
<polygon fill="white" stroke="#666666" points="572,-790 513,-790 513,-771 572,-771 572,-790"/>
<text text-anchor="middle" x="542.5" y="-778" font-family="Helvetica,sans-Serif" font-size="10.00">calibrate</text>
</a>
</g>
</g>
<!-- Node6&#45;&gt;Node7 -->
<g id="edge7_Node000006_Node000007" class="edge">
<title>Node6&#45;&gt;Node7</title>
<g id="a_edge7_Node000006_Node000007"><a xlink:title=" ">
<path fill="none" stroke="#63b8ff" d="M417.42,-794.41C444.14,-791.41 477.56,-787.67 502.98,-784.82"/>
<polygon fill="#63b8ff" stroke="#63b8ff" points="503.45,-788.29 513,-783.7 502.67,-781.33 503.45,-788.29"/>
</a>
</g>
</g>
<!-- Node8 -->
<g id="Node000008" class="node">
<title>Node8</title>
<g id="a_Node000008"><a xlink:href="i2c_8c.html#afd489cf93d14a907e09132068de8e1c9" target="_top" xlink:title=" ">
<polygon fill="white" stroke="#666666" points="607,-457 478,-457 478,-438 607,-438 607,-457"/>
<text text-anchor="middle" x="542.5" y="-445" font-family="Helvetica,sans-Serif" font-size="10.00">i2c_read_from_register</text>
</a>
</g>
</g>
<!-- Node6&#45;&gt;Node8 -->
<g id="edge9_Node000006_Node000008" class="edge">
<title>Node6&#45;&gt;Node8</title>
<g id="a_edge9_Node000006_Node000008"><a xlink:title=" ">
<path fill="none" stroke="#63b8ff" d="M417.35,-794.32C426.43,-791.45 435.24,-787.09 442,-780.5 532.74,-692.03 541.56,-524.58 541.8,-467.3"/>
<polygon fill="#63b8ff" stroke="#63b8ff" points="545.3,-467.07 541.76,-457.09 538.3,-467.11 545.3,-467.07"/>
</a>
</g>
</g>
<!-- Node7&#45;&gt;Node4 -->
<g id="edge8_Node000007_Node000004" class="edge">
<title>Node7&#45;&gt;Node4</title>
<g id="a_edge8_Node000007_Node000004"><a xlink:title=" ">
<path fill="none" stroke="#63b8ff" d="M572.11,-783.94C589.16,-785.99 611.57,-788.69 632.94,-791.26"/>
<polygon fill="#63b8ff" stroke="#63b8ff" points="632.65,-794.75 642.99,-792.46 633.48,-787.8 632.65,-794.75"/>
</a>
</g>
</g>
<!-- Node9&#45;&gt;Node7 -->
<g id="edge11_Node000009_Node000007" class="edge">
<title>Node9&#45;&gt;Node7</title>
<g id="a_edge11_Node000009_Node000007"><a xlink:title=" ">
<path fill="none" stroke="#63b8ff" d="M414.33,-767C441.52,-769.88 476.54,-773.6 502.95,-776.41"/>
<polygon fill="#63b8ff" stroke="#63b8ff" points="502.66,-779.89 512.97,-777.47 503.4,-772.93 502.66,-779.89"/>
</a>
</g>
</g>
<!-- Node9&#45;&gt;Node8 -->
<g id="edge12_Node000009_Node000008" class="edge">
<title>Node9&#45;&gt;Node8</title>
<g id="a_edge12_Node000009_Node000008"><a xlink:title=" ">
<path fill="none" stroke="#63b8ff" d="M414.28,-758.02C424.36,-755.19 434.39,-750.67 442,-743.5 523.78,-666.42 538.36,-520.09 540.95,-467.2"/>
<polygon fill="#63b8ff" stroke="#63b8ff" points="544.45,-467.26 541.34,-457.13 537.45,-466.98 544.45,-467.26"/>
</a>
</g>
</g>
<!-- Node10&#45;&gt;Node8 -->
<g id="edge14_Node000010_Node000008" class="edge">
<title>Node10&#45;&gt;Node8</title>
<g id="a_edge14_Node000010_Node000008"><a xlink:title=" ">
<path fill="none" stroke="#63b8ff" d="M411.04,-324.27C421.6,-326.94 432.67,-330.83 442,-336.5 481.23,-360.33 513.86,-404.41 530.2,-429.25"/>
<polygon fill="#63b8ff" stroke="#63b8ff" points="527.31,-431.22 535.65,-437.75 533.2,-427.44 527.31,-431.22"/>
</a>
</g>
</g>
<!-- Node11&#45;&gt;Node8 -->
<g id="edge16_Node000011_Node000008" class="edge">
<title>Node11&#45;&gt;Node8</title>
<g id="a_edge16_Node000011_Node000008"><a xlink:title=" ">
<path fill="none" stroke="#63b8ff" d="M416.34,-287.73C425.37,-290.38 434.42,-294.14 442,-299.5 489.25,-332.9 520.54,-396.4 533.99,-428.26"/>
<polygon fill="#63b8ff" stroke="#63b8ff" points="530.85,-429.82 537.86,-437.76 537.33,-427.18 530.85,-429.82"/>
</a>
</g>
</g>
<!-- Node13 -->
<g id="Node000013" class="node">
<title>Node13</title>
<g id="a_Node000013"><a xlink:href="filesystem_8c.html#a02c1e03f51146617a18f5bcc96099220" target="_top" xlink:title=" ">
<polygon fill="white" stroke="#666666" points="576.5,-1070 508.5,-1070 508.5,-1051 576.5,-1051 576.5,-1070"/>
<text text-anchor="middle" x="542.5" y="-1058" font-family="Helvetica,sans-Serif" font-size="10.00">delete_file</text>
</a>
</g>
</g>
<!-- Node12&#45;&gt;Node13 -->
<g id="edge18_Node000012_Node000013" class="edge">
<title>Node12&#45;&gt;Node13</title>
<g id="a_edge18_Node000012_Node000013"><a xlink:title=" ">
<path fill="none" stroke="#63b8ff" d="M381.08,-956.15C398.41,-974.11 438.07,-1012.96 478,-1036.5 484.92,-1040.58 492.67,-1044.19 500.3,-1047.29"/>
<polygon fill="#63b8ff" stroke="#63b8ff" points="499.25,-1050.64 509.84,-1050.94 501.75,-1044.1 499.25,-1050.64"/>
</a>
</g>
</g>
<!-- Node14 -->
<g id="Node000014" class="node">
<title>Node14</title>
<g id="a_Node000014"><a xlink:href="filesystem_8c.html#a6c3bed1f355bd1952d7ffa87405828c6" target="_top" xlink:title=" ">
<polygon fill="white" stroke="#666666" points="574.5,-956 510.5,-956 510.5,-937 574.5,-937 574.5,-956"/>
<text text-anchor="middle" x="542.5" y="-944" font-family="Helvetica,sans-Serif" font-size="10.00">dir_exists</text>
</a>
</g>
</g>
<!-- Node12&#45;&gt;Node14 -->
<g id="edge19_Node000012_Node000014" class="edge">
<title>Node12&#45;&gt;Node14</title>
<g id="a_edge19_Node000012_Node000014"><a xlink:title=" ">
<path fill="none" stroke="#63b8ff" d="M424.24,-946.5C448.7,-946.5 477.42,-946.5 500.32,-946.5"/>
<polygon fill="#63b8ff" stroke="#63b8ff" points="500.39,-950 510.39,-946.5 500.39,-943 500.39,-950"/>
</a>
</g>
</g>
<!-- Node15 -->
<g id="Node000015" class="node">
<title>Node15</title>
<g id="a_Node000015"><a xlink:href="filesystem_8c.html#aa109ff29a72d1beadda58bb3a54185b6" target="_top" xlink:title=" ">
<polygon fill="white" stroke="#666666" points="720,-994 685,-994 685,-975 720,-975 720,-994"/>
<text text-anchor="middle" x="702.5" y="-982" font-family="Helvetica,sans-Serif" font-size="10.00">stat</text>
</a>
</g>
</g>
<!-- Node12&#45;&gt;Node15 -->
<g id="edge25_Node000012_Node000015" class="edge">
<title>Node12&#45;&gt;Node15</title>
<g id="a_edge25_Node000012_Node000015"><a xlink:title=" ">
<path fill="none" stroke="#63b8ff" d="M423.1,-956.02C440.48,-959.03 460.04,-962.18 478,-964.5 548.75,-973.66 632.65,-979.95 674.68,-982.79"/>
<polygon fill="#63b8ff" stroke="#63b8ff" points="674.7,-986.3 684.91,-983.47 675.16,-979.31 674.7,-986.3"/>
</a>
</g>
</g>
<!-- Node17 -->
<g id="Node000017" class="node">
<title>Node17</title>
<g id="a_Node000017"><a xlink:href="filesystem_8c.html#a20ca64a89158ccc1eb3f714b3d8725f5" target="_top" xlink:title=" ">
<polygon fill="white" stroke="#666666" points="573.5,-919 511.5,-919 511.5,-900 573.5,-900 573.5,-919"/>
<text text-anchor="middle" x="542.5" y="-907" font-family="Helvetica,sans-Serif" font-size="10.00">make_dir</text>
</a>
</g>
</g>
<!-- Node12&#45;&gt;Node17 -->
<g id="edge22_Node000012_Node000017" class="edge">
<title>Node12&#45;&gt;Node17</title>
<g id="a_edge22_Node000012_Node000017"><a xlink:title=" ">
<path fill="none" stroke="#63b8ff" d="M415.65,-936.97C442.15,-931.19 475.72,-923.86 501.52,-918.23"/>
<polygon fill="#63b8ff" stroke="#63b8ff" points="502.33,-921.63 511.35,-916.08 500.84,-914.79 502.33,-921.63"/>
</a>
</g>
</g>
<!-- Node18 -->
<g id="Node000018" class="node">
<title>Node18</title>
<g id="a_Node000018"><a xlink:href="filesystem_8c.html#ab92b1f0beb3be903677f3293d0430b62" target="_top" xlink:title=" ">
<polygon fill="white" stroke="#666666" points="732,-1031 673,-1031 673,-1012 732,-1012 732,-1031"/>
<text text-anchor="middle" x="702.5" y="-1019" font-family="Helvetica,sans-Serif" font-size="10.00">read_file</text>
</a>
</g>
</g>
<!-- Node12&#45;&gt;Node18 -->
<g id="edge23_Node000012_Node000018" class="edge">
<title>Node12&#45;&gt;Node18</title>
<g id="a_edge23_Node000012_Node000018"><a xlink:title=" ">
<path fill="none" stroke="#63b8ff" d="M394.34,-956.16C415.52,-964.96 448.41,-977.75 478,-985.5 541.71,-1002.18 617.77,-1012.45 662.72,-1017.55"/>
<polygon fill="#63b8ff" stroke="#63b8ff" points="662.59,-1021.06 672.91,-1018.68 663.36,-1014.1 662.59,-1021.06"/>
</a>
</g>
</g>
<!-- Node19 -->
<g id="Node000019" class="node">
<title>Node19</title>
<g id="a_Node000019"><a xlink:href="filesystem_8c.html#a8e5a51c709e9d6229c1974435475292a" target="_top" xlink:title=" ">
<polygon fill="white" stroke="#666666" points="573.5,-882 511.5,-882 511.5,-863 573.5,-863 573.5,-882"/>
<text text-anchor="middle" x="542.5" y="-870" font-family="Helvetica,sans-Serif" font-size="10.00">write_file</text>
</a>
</g>
</g>
<!-- Node12&#45;&gt;Node19 -->
<g id="edge26_Node000012_Node000019" class="edge">
<title>Node12&#45;&gt;Node19</title>
<g id="a_edge26_Node000012_Node000019"><a xlink:title=" ">
<path fill="none" stroke="#63b8ff" d="M387.66,-936.88C407.92,-924.76 444.58,-903.89 478,-890.5 485.48,-887.5 493.64,-884.79 501.54,-882.44"/>
<polygon fill="#63b8ff" stroke="#63b8ff" points="502.68,-885.76 511.35,-879.66 500.77,-879.02 502.68,-885.76"/>
</a>
</g>
</g>
<!-- Node14&#45;&gt;Node15 -->
<g id="edge20_Node000014_Node000015" class="edge">
<title>Node14&#45;&gt;Node15</title>
<g id="a_edge20_Node000014_Node000015"><a xlink:title=" ">
<path fill="none" stroke="#63b8ff" d="M574.72,-954.01C604.06,-961.07 647.5,-971.51 675.15,-978.16"/>
<polygon fill="#63b8ff" stroke="#63b8ff" points="674.37,-981.57 684.91,-980.51 676,-974.77 674.37,-981.57"/>
</a>
</g>
</g>
<!-- Node16 -->
<g id="Node000016" class="node">
<title>Node16</title>
<g id="a_Node000016"><a xlink:href="utilities_2src_2log_8c.html#a4b048be24c6c7f622a6bc6c6bf8ac435" target="_top" xlink:title=" ">
<polygon fill="white" stroke="#666666" points="929,-1012 798,-1012 798,-993 929,-993 929,-1012"/>
<text text-anchor="middle" x="863.5" y="-1000" font-family="Helvetica,sans-Serif" font-size="10.00">get_current_task_name</text>
</a>
</g>
</g>
<!-- Node15&#45;&gt;Node16 -->
<g id="edge21_Node000015_Node000016" class="edge">
<title>Node15&#45;&gt;Node16</title>
<g id="a_edge21_Node000015_Node000016"><a xlink:title=" ">
<path fill="none" stroke="#63b8ff" d="M720.22,-986.39C736.55,-988.24 762.58,-991.19 787.94,-994.06"/>
<polygon fill="#63b8ff" stroke="#63b8ff" points="787.65,-997.55 797.98,-995.2 788.44,-990.59 787.65,-997.55"/>
</a>
</g>
</g>
<!-- Node18&#45;&gt;Node16 -->
<g id="edge24_Node000018_Node000016" class="edge">
<title>Node18&#45;&gt;Node16</title>
<g id="a_edge24_Node000018_Node000016"><a xlink:title=" ">
<path fill="none" stroke="#63b8ff" d="M732.29,-1018.06C747.99,-1016.18 768.21,-1013.77 788.01,-1011.4"/>
<polygon fill="#63b8ff" stroke="#63b8ff" points="788.47,-1014.87 797.99,-1010.21 787.64,-1007.92 788.47,-1014.87"/>
</a>
</g>
</g>
<!-- Node20&#45;&gt;Node8 -->
<g id="edge28_Node000020_Node000008" class="edge">
<title>Node20&#45;&gt;Node8</title>
<g id="a_edge28_Node000020_Node000008"><a xlink:title=" ">
<path fill="none" stroke="#63b8ff" d="M416.02,-249.96C425.27,-252.64 434.49,-256.62 442,-262.5 497.66,-306.1 526.08,-389.76 536.6,-427.8"/>
<polygon fill="#63b8ff" stroke="#63b8ff" points="533.26,-428.87 539.2,-437.65 540.03,-427.09 533.26,-428.87"/>
</a>
</g>
</g>
<!-- Node21&#45;&gt;Node8 -->
<g id="edge30_Node000021_Node000008" class="edge">
<title>Node21&#45;&gt;Node8</title>
<g id="a_edge30_Node000021_Node000008"><a xlink:title=" ">
<path fill="none" stroke="#63b8ff" d="M406.54,-210.17C418.86,-212.63 432.12,-217.17 442,-225.5 506.45,-279.85 530.89,-384.43 538.53,-427.85"/>
<polygon fill="#63b8ff" stroke="#63b8ff" points="535.07,-428.43 540.15,-437.73 541.98,-427.29 535.07,-428.43"/>
</a>
</g>
</g>
<!-- Node22&#45;&gt;Node8 -->
<g id="edge32_Node000022_Node000008" class="edge">
<title>Node22&#45;&gt;Node8</title>
<g id="a_edge32_Node000022_Node000008"><a xlink:title=" ">
<path fill="none" stroke="#63b8ff" d="M406.62,-135.6C419.1,-137.98 432.44,-142.61 442,-151.5 524.3,-228.03 538.56,-374.7 541,-427.74"/>
<polygon fill="#63b8ff" stroke="#63b8ff" points="537.51,-427.98 541.37,-437.84 544.5,-427.72 537.51,-427.98"/>
</a>
</g>
</g>
<!-- Node23&#45;&gt;Node8 -->
<g id="edge34_Node000023_Node000008" class="edge">
<title>Node23&#45;&gt;Node8</title>
<g id="a_edge34_Node000023_Node000008"><a xlink:title=" ">
<path fill="none" stroke="#63b8ff" d="M406.09,-722.72C418.65,-720.15 432.19,-715.36 442,-706.5 514.81,-640.74 534.75,-515.68 539.85,-467.3"/>
<polygon fill="#63b8ff" stroke="#63b8ff" points="543.35,-467.5 540.82,-457.21 536.38,-466.83 543.35,-467.5"/>
</a>
</g>
</g>
<!-- Node24&#45;&gt;Node8 -->
<g id="edge36_Node000024_Node000008" class="edge">
<title>Node24&#45;&gt;Node8</title>
<g id="a_edge36_Node000024_Node000008"><a xlink:title=" ">
<path fill="none" stroke="#63b8ff" d="M425.45,-642C431.39,-639.53 437.07,-636.42 442,-632.5 497.36,-588.53 525.94,-505.06 536.54,-467.14"/>
<polygon fill="#63b8ff" stroke="#63b8ff" points="539.97,-467.88 539.17,-457.32 533.21,-466.07 539.97,-467.88"/>
</a>
</g>
</g>
<!-- Node25&#45;&gt;Node8 -->
<g id="edge38_Node000025_Node000008" class="edge">
<title>Node25&#45;&gt;Node8</title>
<g id="a_edge38_Node000025_Node000008"><a xlink:title=" ">
<path fill="none" stroke="#63b8ff" d="M429.06,-180.02C433.75,-182.29 438.16,-185.08 442,-188.5 515.25,-253.77 534.92,-379.12 539.91,-427.64"/>
<polygon fill="#63b8ff" stroke="#63b8ff" points="536.44,-428.12 540.84,-437.76 543.41,-427.48 536.44,-428.12"/>
</a>
</g>
</g>
<!-- Node26&#45;&gt;Node8 -->
<g id="edge40_Node000026_Node000008" class="edge">
<title>Node26&#45;&gt;Node8</title>
<g id="a_edge40_Node000026_Node000008"><a xlink:title=" ">
<path fill="none" stroke="#63b8ff" d="M409.78,-609.41C420.9,-606.6 432.58,-602.25 442,-595.5 489.02,-561.79 520.42,-498.43 533.94,-466.67"/>
<polygon fill="#63b8ff" stroke="#63b8ff" points="537.27,-467.78 537.84,-457.2 530.79,-465.12 537.27,-467.78"/>
</a>
</g>
</g>
<!-- Node27&#45;&gt;Node8 -->
<g id="edge42_Node000027_Node000008" class="edge">
<title>Node27&#45;&gt;Node8</title>
<g id="a_edge42_Node000027_Node000008"><a xlink:title=" ">
<path fill="none" stroke="#63b8ff" d="M409.6,-571.49C420.58,-568.65 432.25,-564.51 442,-558.5 481.07,-534.41 513.76,-490.43 530.16,-465.68"/>
<polygon fill="#63b8ff" stroke="#63b8ff" points="533.14,-467.51 535.62,-457.21 527.26,-463.71 533.14,-467.51"/>
</a>
</g>
</g>
<!-- Node28&#45;&gt;Node8 -->
<g id="edge44_Node000028_Node000008" class="edge">
<title>Node28&#45;&gt;Node8</title>
<g id="a_edge44_Node000028_Node000008"><a xlink:title=" ">
<path fill="none" stroke="#63b8ff" d="M416.23,-531.19C424.99,-528.61 433.96,-525.41 442,-521.5 473.37,-506.26 504.89,-480.67 523.8,-463.93"/>
<polygon fill="#63b8ff" stroke="#63b8ff" points="526.24,-466.44 531.33,-457.15 521.56,-461.24 526.24,-466.44"/>
</a>
</g>
</g>
<!-- Node29&#45;&gt;Node8 -->
<g id="edge46_Node000029_Node000008" class="edge">
<title>Node29&#45;&gt;Node8</title>
<g id="a_edge46_Node000029_Node000008"><a xlink:title=" ">
<path fill="none" stroke="#63b8ff" d="M409.6,-493.97C420.14,-491.11 431.57,-487.85 442,-484.5 464.27,-477.35 488.9,-468.2 508.09,-460.79"/>
<polygon fill="#63b8ff" stroke="#63b8ff" points="509.54,-463.98 517.59,-457.09 507,-457.46 509.54,-463.98"/>
</a>
</g>
</g>
<!-- Node30&#45;&gt;Node8 -->
<g id="edge48_Node000030_Node000008" class="edge">
<title>Node30&#45;&gt;Node8</title>
<g id="a_edge48_Node000030_Node000008"><a xlink:title=" ">
<path fill="none" stroke="#63b8ff" d="M416.09,-461.56C431.84,-459.79 450.03,-457.75 467.6,-455.78"/>
<polygon fill="#63b8ff" stroke="#63b8ff" points="468.29,-459.23 477.84,-454.64 467.51,-452.27 468.29,-459.23"/>
</a>
</g>
</g>
<!-- Node31&#45;&gt;Node8 -->
<g id="edge50_Node000031_Node000008" class="edge">
<title>Node31&#45;&gt;Node8</title>
<g id="a_edge50_Node000031_Node000008"><a xlink:title=" ">
<path fill="none" stroke="#63b8ff" d="M411.81,-401.97C421.73,-404.54 432.3,-407.46 442,-410.5 464.46,-417.54 489.28,-426.77 508.51,-434.25"/>
<polygon fill="#63b8ff" stroke="#63b8ff" points="507.43,-437.58 518.02,-437.98 509.99,-431.07 507.43,-437.58"/>
</a>
</g>
</g>
<!-- Node32&#45;&gt;Node8 -->
<g id="edge52_Node000032_Node000008" class="edge">
<title>Node32&#45;&gt;Node8</title>
<g id="a_edge52_Node000032_Node000008"><a xlink:title=" ">
<path fill="none" stroke="#63b8ff" d="M409.62,-433.49C426.72,-435.31 447.58,-437.53 467.62,-439.65"/>
<polygon fill="#63b8ff" stroke="#63b8ff" points="467.37,-443.15 477.68,-440.72 468.11,-436.19 467.37,-443.15"/>
</a>
</g>
</g>
<!-- Node34&#45;&gt;Node8 -->
<g id="edge55_Node000034_Node000008" class="edge">
<title>Node34&#45;&gt;Node8</title>
<g id="a_edge55_Node000034_Node000008"><a xlink:title=" ">
<path fill="none" stroke="#63b8ff" d="M419.58,-365.07C427.25,-367.36 434.98,-370.15 442,-373.5 473.47,-388.53 504.96,-414.18 523.84,-430.98"/>
<polygon fill="#63b8ff" stroke="#63b8ff" points="521.6,-433.67 531.35,-437.8 526.3,-428.49 521.6,-433.67"/>
</a>
</g>
</g>
<!-- Node36 -->
<g id="Node000036" class="node">
<title>Node36</title>
<g id="a_Node000036"><a xlink:href="steve_8c.html#aaf3a25d4f1bba70397602d3312c7596d" target="_top" xlink:title=" ">
<polygon fill="white" stroke="#666666" points="425.5,-67.5 316.5,-67.5 316.5,-37.5 425.5,-37.5 425.5,-67.5"/>
<text text-anchor="start" x="324.5" y="-55.5" font-family="Helvetica,sans-Serif" font-size="10.00">schedule_recurring</text>
<text text-anchor="middle" x="371" y="-44.5" font-family="Helvetica,sans-Serif" font-size="10.00">_job_ms</text>
</a>
</g>
</g>
<!-- Node35&#45;&gt;Node36 -->
<g id="edge57_Node000035_Node000036" class="edge">
<title>Node35&#45;&gt;Node36</title>
<g id="a_edge57_Node000035_Node000036"><a xlink:title=" ">
<path fill="none" stroke="#63b8ff" d="M250.45,-52.5C268.16,-52.5 288,-52.5 306.36,-52.5"/>
<polygon fill="#63b8ff" stroke="#63b8ff" points="306.39,-56 316.39,-52.5 306.39,-49 306.39,-56"/>
</a>
</g>
</g>
<!-- Node39 -->
<g id="Node000039" class="node">
<title>Node39</title>
<g id="a_Node000039"><a xlink:href="timing_8c.html#afd3999513ea688f512ea1d35aed46a43" target="_top" xlink:title=" ">
<polygon fill="white" stroke="#666666" points="408,-19 334,-19 334,0 408,0 408,-19"/>
<text text-anchor="middle" x="371" y="-7" font-family="Helvetica,sans-Serif" font-size="10.00">secs_to_ms</text>
</a>
</g>
</g>
<!-- Node35&#45;&gt;Node39 -->
<g id="edge61_Node000035_Node000039" class="edge">
<title>Node35&#45;&gt;Node39</title>
<g id="a_edge61_Node000035_Node000039"><a xlink:title=" ">
<path fill="none" stroke="#63b8ff" d="M250.45,-39.13C274,-33.29 301.33,-26.52 323.91,-20.92"/>
<polygon fill="#63b8ff" stroke="#63b8ff" points="325.06,-24.24 333.92,-18.44 323.37,-17.45 325.06,-24.24"/>
</a>
</g>
</g>
<!-- Node36&#45;&gt;Node5 -->
<g id="edge59_Node000036_Node000005" class="edge">
<title>Node36&#45;&gt;Node5</title>
<g id="a_edge59_Node000036_Node000005"><a xlink:title=" ">
<path fill="none" stroke="#63b8ff" d="M425.63,-65.16C448.41,-70.53 474.66,-76.73 496.41,-81.86"/>
<polygon fill="#63b8ff" stroke="#63b8ff" points="495.84,-85.32 506.38,-84.21 497.45,-78.51 495.84,-85.32"/>
</a>
</g>
</g>
<!-- Node37 -->
<g id="Node000037" class="node">
<title>Node37</title>
<g id="a_Node000037"><a xlink:href="steve_8c.html#a799ff818db4199c57a75461bbae98611" target="_top" xlink:title=" ">
<polygon fill="white" stroke="#666666" points="592.5,-63 492.5,-63 492.5,-44 592.5,-44 592.5,-63"/>
<text text-anchor="middle" x="542.5" y="-51" font-family="Helvetica,sans-Serif" font-size="10.00">create_steve_job</text>
</a>
</g>
</g>
<!-- Node36&#45;&gt;Node37 -->
<g id="edge58_Node000036_Node000037" class="edge">
<title>Node36&#45;&gt;Node37</title>
<g id="a_edge58_Node000036_Node000037"><a xlink:title=" ">
<path fill="none" stroke="#63b8ff" d="M425.63,-52.82C443.63,-52.92 463.81,-53.04 482.22,-53.15"/>
<polygon fill="#63b8ff" stroke="#63b8ff" points="482.23,-56.65 492.25,-53.21 482.27,-49.65 482.23,-56.65"/>
</a>
</g>
</g>
<!-- Node38 -->
<g id="Node000038" class="node">
<title>Node38</title>
<g id="a_Node000038"><a xlink:href="timing_8c.html#aca6ceb66dd9a31e6376e1bc478dec3d6" target="_top" xlink:title=" ">
<polygon fill="white" stroke="#666666" points="580,-26 505,-26 505,-7 580,-7 580,-26"/>
<text text-anchor="middle" x="542.5" y="-14" font-family="Helvetica,sans-Serif" font-size="10.00">ms_to_ticks</text>
</a>
</g>
</g>
<!-- Node36&#45;&gt;Node38 -->
<g id="edge60_Node000036_Node000038" class="edge">
<title>Node36&#45;&gt;Node38</title>
<g id="a_edge60_Node000036_Node000038"><a xlink:title=" ">
<path fill="none" stroke="#63b8ff" d="M425.63,-41.11C447.9,-36.38 473.5,-30.94 494.97,-26.38"/>
<polygon fill="#63b8ff" stroke="#63b8ff" points="495.77,-29.79 504.83,-24.29 494.32,-22.94 495.77,-29.79"/>
</a>
</g>
</g>
</g>
</svg>

<g id="navigator" transform="translate(0 0)" fill="#404254">
  <rect fill="#f2f5e9" fill-opacity="0.5" stroke="#606060" stroke-width=".5" x="0" y="0" width="60" height="60"/>
  <use id="zoomplus" xlink:href="#zoomPlus" x="17" y="9" onmousedown="handleZoom(evt,'in')"/>
  <use id="zoomminus" xlink:href="#zoomMin" x="42" y="9" onmousedown="handleZoom(evt,'out')"/>
  <use id="reset" xlink:href="#resetDef" x="30" y="36" onmousedown="handleReset()"/>
   <use id="arrowup" xlink:href="#arrowUp" x="0" y="0" onmousedown="handlePan(0,-1)"/>
  <use id="arrowright" xlink:href="#arrowRight" x="0" y="0" onmousedown="handlePan(1,0)"/>
  <use id="arrowdown" xlink:href="#arrowDown" x="0" y="0" onmousedown="handlePan(0,1)"/>
  <use id="arrowleft" xlink:href="#arrowLeft" x="0" y="0" onmousedown="handlePan(-1,0)"/>
</g>
<svg viewBox="0 0 15 15" width="100%" height="30px" preserveAspectRatio="xMaxYMin meet">
 <g id="arrow_out" transform="scale(0.3 0.3)">
  <a xlink:href="steve_8h_a7eb0cd293c468c08d67c90a8ace5448c_cgraph_org.svg" target="_base">
   <rect id="button" ry="5" rx="5" y="6" x="6" height="38" width="38"
        fill="#f2f5e9" fill-opacity="0.5" stroke="#606060" stroke-width="1.0"/>
   <path id="arrow"
     d="M 11.500037,31.436501 C 11.940474,20.09759 22.043105,11.32322 32.158766,21.979434 L 37.068811,17.246167 C 37.068811,17.246167 37.088388,32 37.088388,32 L 22.160133,31.978069 C 22.160133,31.978069 26.997745,27.140456 26.997745,27.140456 C 18.528582,18.264221 13.291696,25.230495 11.500037,31.436501 z"
     style="fill:#404040;"/>
  </a>
 </g>
</svg>

<style type='text/css'>
<![CDATA[
[data-mouse-over-selected='false'] { opacity: 0.7; }
[data-mouse-over-selected='true']  { opacity: 1.0; }
]]>
</style>
<script type="application/ecmascript"><![CDATA[
document.addEventListener('DOMContentLoaded', (event) => {
  highlightEdges();
  highlightAdjacentNodes();
});
]]></script>
</svg>
