<?xml version="1.0" encoding="UTF-8" standalone="no"?>
<!DOCTYPE svg PUBLIC "-//W3C//DTD SVG 1.1//EN"
 "http://www.w3.org/Graphics/SVG/1.1/DTD/svg11.dtd">
<!-- Generated by graphviz version 12.1.2 (20240928.0832)
 -->
<!-- Title: steve.c Pages: 1 -->
<svg width="751pt" height="252pt"
 viewBox="0.00 0.00 750.50 252.00" xmlns="http://www.w3.org/2000/svg" xmlns:xlink="http://www.w3.org/1999/xlink">
<g id="graph0" class="graph" transform="scale(1 1) rotate(0) translate(4 248)">
<title>steve.c</title>
<!-- Node1 -->
<g id="Node000001" class="node">
<title>Node1</title>
<g id="a_Node000001"><a xlink:title=" ">
<polygon fill="#999999" stroke="#666666" points="349.38,-244 301.12,-244 301.12,-224 349.38,-224 349.38,-244"/>
<text text-anchor="middle" x="325.25" y="-230.5" font-family="Helvetica,sans-Serif" font-size="10.00">steve.c</text>
</a>
</g>
</g>
<!-- Node2 -->
<g id="Node000002" class="node">
<title>Node2</title>
<g id="a_Node000002"><a xlink:href="stdlib_8h.html" target="_top" xlink:title=" ">
<polygon fill="white" stroke="#666666" points="68.5,-188 0,-188 0,-168 68.5,-168 68.5,-188"/>
<text text-anchor="middle" x="34.25" y="-174.5" font-family="Helvetica,sans-Serif" font-size="10.00">pico/stdlib.h</text>
</a>
</g>
</g>
<!-- Node1&#45;&gt;Node2 -->
<g id="edge1_Node000001_Node000002" class="edge">
<title>Node1&#45;&gt;Node2</title>
<g id="a_edge1_Node000001_Node000002"><a xlink:title=" ">
<path fill="none" stroke="#63b8ff" d="M300.92,-228.81C258.27,-221.41 166.96,-205.37 80.09,-188.52"/>
<polygon fill="#63b8ff" stroke="#63b8ff" points="80.94,-185.12 70.45,-186.64 79.6,-191.99 80.94,-185.12"/>
</a>
</g>
</g>
<!-- Node3 -->
<g id="Node000003" class="node">
<title>Node3</title>
<g id="a_Node000003"><a xlink:title=" ">
<polygon fill="#e0e0e0" stroke="#999999" points="134.38,-188 86.12,-188 86.12,-168 134.38,-168 134.38,-188"/>
<text text-anchor="middle" x="110.25" y="-174.5" font-family="Helvetica,sans-Serif" font-size="10.00">string.h</text>
</a>
</g>
</g>
<!-- Node1&#45;&gt;Node3 -->
<g id="edge2_Node000001_Node000003" class="edge">
<title>Node1&#45;&gt;Node3</title>
<g id="a_edge2_Node000001_Node000003"><a xlink:title=" ">
<path fill="none" stroke="#63b8ff" d="M301,-226.91C263.1,-217.39 189.61,-198.93 145.74,-187.91"/>
<polygon fill="#63b8ff" stroke="#63b8ff" points="146.76,-184.56 136.2,-185.52 145.05,-191.35 146.76,-184.56"/>
</a>
</g>
</g>
<!-- Node4 -->
<g id="Node000004" class="node">
<title>Node4</title>
<g id="a_Node000004"><a xlink:title=" ">
<polygon fill="#e0e0e0" stroke="#999999" points="388.12,-20 332.38,-20 332.38,0 388.12,0 388.12,-20"/>
<text text-anchor="middle" x="360.25" y="-6.5" font-family="Helvetica,sans-Serif" font-size="10.00">stdbool.h</text>
</a>
</g>
</g>
<!-- Node1&#45;&gt;Node4 -->
<g id="edge3_Node000001_Node000004" class="edge">
<title>Node1&#45;&gt;Node4</title>
<g id="a_edge3_Node000001_Node000004"><a xlink:title=" ">
<path fill="none" stroke="#63b8ff" d="M345.35,-223.52C358.79,-215.98 375.4,-204.02 383.25,-188 396.56,-160.82 376.17,-72.07 365.76,-31.53"/>
<polygon fill="#63b8ff" stroke="#63b8ff" points="369.15,-30.66 363.22,-21.88 362.38,-32.44 369.15,-30.66"/>
</a>
</g>
</g>
<!-- Node5 -->
<g id="Node000005" class="node">
<title>Node5</title>
<g id="a_Node000005"><a xlink:title=" ">
<polygon fill="#e0e0e0" stroke="#999999" points="227.62,-20 156.88,-20 156.88,0 227.62,0 227.62,-20"/>
<text text-anchor="middle" x="192.25" y="-6.5" font-family="Helvetica,sans-Serif" font-size="10.00">FreeRTOS.h</text>
</a>
</g>
</g>
<!-- Node1&#45;&gt;Node5 -->
<g id="edge4_Node000001_Node000005" class="edge">
<title>Node1&#45;&gt;Node5</title>
<g id="a_edge4_Node000001_Node000005"><a xlink:title=" ">
<path fill="none" stroke="#63b8ff" d="M300.68,-229.24C274.58,-224.09 233.55,-212.52 207.25,-188 163.87,-147.57 177.19,-68.03 186.51,-30.93"/>
<polygon fill="#63b8ff" stroke="#63b8ff" points="189.81,-32.12 189.04,-21.56 183.06,-30.3 189.81,-32.12"/>
</a>
</g>
</g>
<!-- Node6 -->
<g id="Node000006" class="node">
<title>Node6</title>
<g id="a_Node000006"><a xlink:title=" ">
<polygon fill="#e0e0e0" stroke="#999999" points="271.75,-188 228.75,-188 228.75,-168 271.75,-168 271.75,-188"/>
<text text-anchor="middle" x="250.25" y="-174.5" font-family="Helvetica,sans-Serif" font-size="10.00">task.h</text>
</a>
</g>
</g>
<!-- Node1&#45;&gt;Node6 -->
<g id="edge5_Node000001_Node000006" class="edge">
<title>Node1&#45;&gt;Node6</title>
<g id="a_edge5_Node000001_Node000006"><a xlink:title=" ">
<path fill="none" stroke="#63b8ff" d="M312.19,-223.59C301.28,-215.74 285.5,-204.38 272.59,-195.09"/>
<polygon fill="#63b8ff" stroke="#63b8ff" points="274.8,-192.37 264.64,-189.36 270.71,-198.05 274.8,-192.37"/>
</a>
</g>
</g>
<!-- Node7 -->
<g id="Node000007" class="node">
<title>Node7</title>
<g id="a_Node000007"><a xlink:href="log_8h.html" target="_top" xlink:title=" ">
<polygon fill="white" stroke="#666666" points="329.75,-132 292.75,-132 292.75,-112 329.75,-112 329.75,-132"/>
<text text-anchor="middle" x="311.25" y="-118.5" font-family="Helvetica,sans-Serif" font-size="10.00">log.h</text>
</a>
</g>
</g>
<!-- Node1&#45;&gt;Node7 -->
<g id="edge6_Node000001_Node000007" class="edge">
<title>Node1&#45;&gt;Node7</title>
<g id="a_edge6_Node000001_Node000007"><a xlink:title=" ">
<path fill="none" stroke="#63b8ff" d="M323.98,-223.7C322.75,-214.6 320.83,-200.35 319.25,-188 317.34,-173.11 315.27,-156.3 313.72,-143.5"/>
<polygon fill="#63b8ff" stroke="#63b8ff" points="317.22,-143.27 312.54,-133.76 310.27,-144.11 317.22,-143.27"/>
</a>
</g>
</g>
<!-- Node10 -->
<g id="Node000010" class="node">
<title>Node10</title>
<g id="a_Node000010"><a xlink:href="state_8h.html" target="_top" xlink:title=" ">
<polygon fill="white" stroke="#666666" points="374.25,-188 328.25,-188 328.25,-168 374.25,-168 374.25,-188"/>
<text text-anchor="middle" x="351.25" y="-174.5" font-family="Helvetica,sans-Serif" font-size="10.00">state.h</text>
</a>
</g>
</g>
<!-- Node1&#45;&gt;Node10 -->
<g id="edge11_Node000001_Node000010" class="edge">
<title>Node1&#45;&gt;Node10</title>
<g id="a_edge11_Node000001_Node000010"><a xlink:title=" ">
<path fill="none" stroke="#63b8ff" d="M329.78,-223.59C333.1,-216.7 337.72,-207.1 341.83,-198.57"/>
<polygon fill="#63b8ff" stroke="#63b8ff" points="344.93,-200.19 346.12,-189.66 338.62,-197.15 344.93,-200.19"/>
</a>
</g>
</g>
<!-- Node11 -->
<g id="Node000011" class="node">
<title>Node11</title>
<g id="a_Node000011"><a xlink:href="mag__lis3mdltr_8h.html" target="_top" xlink:title=" ">
<polygon fill="white" stroke="#666666" points="515.75,-188 430.75,-188 430.75,-168 515.75,-168 515.75,-188"/>
<text text-anchor="middle" x="473.25" y="-174.5" font-family="Helvetica,sans-Serif" font-size="10.00">mag_lis3mdltr.h</text>
</a>
</g>
</g>
<!-- Node1&#45;&gt;Node11 -->
<g id="edge12_Node000001_Node000011" class="edge">
<title>Node1&#45;&gt;Node11</title>
<g id="a_edge12_Node000001_Node000011"><a xlink:title=" ">
<path fill="none" stroke="#63b8ff" d="M349.69,-224.08C373.36,-215.45 409.54,-202.24 436.65,-192.35"/>
<polygon fill="#63b8ff" stroke="#63b8ff" points="437.66,-195.71 445.86,-188.99 435.26,-189.13 437.66,-195.71"/>
</a>
</g>
</g>
<!-- Node17 -->
<g id="Node000017" class="node">
<title>Node17</title>
<g id="a_Node000017"><a xlink:href="ina219_8h.html" target="_top" xlink:title=" ">
<polygon fill="white" stroke="#666666" points="667.62,-132 614.88,-132 614.88,-112 667.62,-112 667.62,-132"/>
<text text-anchor="middle" x="641.25" y="-118.5" font-family="Helvetica,sans-Serif" font-size="10.00">ina219.h</text>
</a>
</g>
</g>
<!-- Node1&#45;&gt;Node17 -->
<g id="edge25_Node000001_Node000017" class="edge">
<title>Node1&#45;&gt;Node17</title>
<g id="a_edge25_Node000001_Node000017"><a xlink:title=" ">
<path fill="none" stroke="#63b8ff" d="M349.61,-229.84C387.95,-224.36 464.27,-211.37 525.25,-188 534.55,-184.44 583.98,-156.16 615.24,-138.1"/>
<polygon fill="#63b8ff" stroke="#63b8ff" points="616.85,-141.21 623.76,-133.17 613.35,-135.15 616.85,-141.21"/>
</a>
</g>
</g>
<!-- Node18 -->
<g id="Node000018" class="node">
<title>Node18</title>
<g id="a_Node000018"><a xlink:href="timing_8h.html" target="_top" xlink:title=" ">
<polygon fill="white" stroke="#666666" points="240.5,-132 190,-132 190,-112 240.5,-112 240.5,-132"/>
<text text-anchor="middle" x="215.25" y="-118.5" font-family="Helvetica,sans-Serif" font-size="10.00">timing.h</text>
</a>
</g>
</g>
<!-- Node1&#45;&gt;Node18 -->
<g id="edge27_Node000001_Node000018" class="edge">
<title>Node1&#45;&gt;Node18</title>
<g id="a_edge27_Node000001_Node000018"><a xlink:title=" ">
<path fill="none" stroke="#63b8ff" d="M300.89,-230.03C275.89,-225.58 238.06,-214.61 219.25,-188 210.26,-175.28 209.79,-157.42 211.27,-143.63"/>
<polygon fill="#63b8ff" stroke="#63b8ff" points="214.71,-144.3 212.76,-133.89 207.79,-143.24 214.71,-144.3"/>
</a>
</g>
</g>
<!-- Node19 -->
<g id="Node000019" class="node">
<title>Node19</title>
<g id="a_Node000019"><a xlink:href="heartbeat__job_8h.html" target="_top" xlink:title=" ">
<polygon fill="white" stroke="#666666" points="654.62,-188 571.88,-188 571.88,-168 654.62,-168 654.62,-188"/>
<text text-anchor="middle" x="613.25" y="-174.5" font-family="Helvetica,sans-Serif" font-size="10.00">heartbeat_job.h</text>
</a>
</g>
</g>
<!-- Node1&#45;&gt;Node19 -->
<g id="edge29_Node000001_Node000019" class="edge">
<title>Node1&#45;&gt;Node19</title>
<g id="a_edge29_Node000001_Node000019"><a xlink:title=" ">
<path fill="none" stroke="#63b8ff" d="M349.8,-228.4C396.23,-219.69 497.8,-200.65 560.39,-188.91"/>
<polygon fill="#63b8ff" stroke="#63b8ff" points="560.92,-192.37 570.11,-187.09 559.63,-185.49 560.92,-192.37"/>
</a>
</g>
</g>
<!-- Node20 -->
<g id="Node000020" class="node">
<title>Node20</title>
<g id="a_Node000020"><a xlink:href="steve_8h.html" target="_top" xlink:title=" ">
<polygon fill="white" stroke="#666666" points="732.38,-188 684.12,-188 684.12,-168 732.38,-168 732.38,-188"/>
<text text-anchor="middle" x="708.25" y="-174.5" font-family="Helvetica,sans-Serif" font-size="10.00">steve.h</text>
</a>
</g>
</g>
<!-- Node1&#45;&gt;Node20 -->
<g id="edge30_Node000001_Node000020" class="edge">
<title>Node1&#45;&gt;Node20</title>
<g id="a_edge30_Node000001_Node000020"><a xlink:title=" ">
<path fill="none" stroke="#63b8ff" d="M349.51,-230.32C405.15,-224.05 546.17,-207.48 663.25,-188 666.42,-187.47 669.7,-186.89 672.99,-186.28"/>
<polygon fill="#63b8ff" stroke="#63b8ff" points="673.37,-189.77 682.53,-184.43 672.05,-182.9 673.37,-189.77"/>
</a>
</g>
</g>
<!-- Node7&#45;&gt;Node4 -->
<g id="edge10_Node000007_Node000004" class="edge">
<title>Node7&#45;&gt;Node4</title>
<g id="a_edge10_Node000007_Node000004"><a xlink:title=" ">
<path fill="none" stroke="#63b8ff" d="M315.43,-111.62C323.38,-93.76 340.86,-54.53 351.49,-30.67"/>
<polygon fill="#63b8ff" stroke="#63b8ff" points="354.59,-32.3 355.47,-21.74 348.2,-29.45 354.59,-32.3"/>
</a>
</g>
</g>
<!-- Node8 -->
<g id="Node000008" class="node">
<title>Node8</title>
<g id="a_Node000008"><a xlink:href="telemetry_8h.html" target="_top" xlink:title=" ">
<polygon fill="white" stroke="#666666" points="294.25,-76 230.25,-76 230.25,-56 294.25,-56 294.25,-76"/>
<text text-anchor="middle" x="262.25" y="-62.5" font-family="Helvetica,sans-Serif" font-size="10.00">telemetry.h</text>
</a>
</g>
</g>
<!-- Node7&#45;&gt;Node8 -->
<g id="edge7_Node000007_Node000008" class="edge">
<title>Node7&#45;&gt;Node8</title>
<g id="a_edge7_Node000007_Node000008"><a xlink:title=" ">
<path fill="none" stroke="#63b8ff" d="M302.71,-111.59C295.97,-104.16 286.36,-93.58 278.21,-84.58"/>
<polygon fill="#63b8ff" stroke="#63b8ff" points="281.02,-82.47 271.7,-77.42 275.83,-87.18 281.02,-82.47"/>
</a>
</g>
</g>
<!-- Node8&#45;&gt;Node5 -->
<g id="edge8_Node000008_Node000005" class="edge">
<title>Node8&#45;&gt;Node5</title>
<g id="a_edge8_Node000008_Node000005"><a xlink:title=" ">
<path fill="none" stroke="#63b8ff" d="M250.06,-55.59C239.92,-47.77 225.26,-36.46 213.24,-27.19"/>
<polygon fill="#63b8ff" stroke="#63b8ff" points="215.56,-24.56 205.5,-21.22 211.28,-30.1 215.56,-24.56"/>
</a>
</g>
</g>
<!-- Node9 -->
<g id="Node000009" class="node">
<title>Node9</title>
<g id="a_Node000009"><a xlink:title=" ">
<polygon fill="#e0e0e0" stroke="#999999" points="296.5,-20 246,-20 246,0 296.5,0 296.5,-20"/>
<text text-anchor="middle" x="271.25" y="-6.5" font-family="Helvetica,sans-Serif" font-size="10.00">queue.h</text>
</a>
</g>
</g>
<!-- Node8&#45;&gt;Node9 -->
<g id="edge9_Node000008_Node000009" class="edge">
<title>Node8&#45;&gt;Node9</title>
<g id="a_edge9_Node000008_Node000009"><a xlink:title=" ">
<path fill="none" stroke="#63b8ff" d="M263.82,-55.59C264.93,-48.93 266.46,-39.75 267.84,-31.44"/>
<polygon fill="#63b8ff" stroke="#63b8ff" points="271.26,-32.23 269.45,-21.79 264.36,-31.08 271.26,-32.23"/>
</a>
</g>
</g>
<!-- Node11&#45;&gt;Node7 -->
<g id="edge20_Node000011_Node000007" class="edge">
<title>Node11&#45;&gt;Node7</title>
<g id="a_edge20_Node000011_Node000007"><a xlink:title=" ">
<path fill="none" stroke="#63b8ff" d="M445.03,-167.59C415.9,-157.88 370.64,-142.8 340.97,-132.91"/>
<polygon fill="#63b8ff" stroke="#63b8ff" points="342.08,-129.59 331.49,-129.75 339.87,-136.23 342.08,-129.59"/>
</a>
</g>
</g>
<!-- Node12 -->
<g id="Node000012" class="node">
<title>Node12</title>
<g id="a_Node000012"><a xlink:href="simulator_2pico-sdk_2hardware_2i2c_8h.html" target="_top" xlink:title=" ">
<polygon fill="white" stroke="#666666" points="610.12,-76 530.38,-76 530.38,-56 610.12,-56 610.12,-76"/>
<text text-anchor="middle" x="570.25" y="-62.5" font-family="Helvetica,sans-Serif" font-size="10.00">hardware/i2c.h</text>
</a>
</g>
</g>
<!-- Node11&#45;&gt;Node12 -->
<g id="edge13_Node000011_Node000012" class="edge">
<title>Node11&#45;&gt;Node12</title>
<g id="a_edge13_Node000011_Node000012"><a xlink:title=" ">
<path fill="none" stroke="#63b8ff" d="M485.3,-167.7C496.11,-159.06 512.1,-145.53 524.25,-132 537.23,-117.55 549.81,-99.39 558.53,-85.94"/>
<polygon fill="#63b8ff" stroke="#63b8ff" points="561.41,-87.93 563.81,-77.61 555.5,-84.18 561.41,-87.93"/>
</a>
</g>
</g>
<!-- Node13 -->
<g id="Node000013" class="node">
<title>Node13</title>
<g id="a_Node000013"><a xlink:title=" ">
<polygon fill="#e0e0e0" stroke="#999999" points="526.38,-20 478.12,-20 478.12,0 526.38,0 526.38,-20"/>
<text text-anchor="middle" x="502.25" y="-6.5" font-family="Helvetica,sans-Serif" font-size="10.00">stdint.h</text>
</a>
</g>
</g>
<!-- Node11&#45;&gt;Node13 -->
<g id="edge19_Node000011_Node000013" class="edge">
<title>Node11&#45;&gt;Node13</title>
<g id="a_edge19_Node000011_Node000013"><a xlink:title=" ">
<path fill="none" stroke="#63b8ff" d="M500.68,-167.59C535.93,-153.81 595.39,-124.37 619.25,-76 623.18,-68.03 624.28,-63.33 619.25,-56 614.32,-48.83 569.89,-33.06 537.24,-22.23"/>
<polygon fill="#63b8ff" stroke="#63b8ff" points="538.72,-19.03 528.13,-19.24 536.54,-25.68 538.72,-19.03"/>
</a>
</g>
</g>
<!-- Node15 -->
<g id="Node000015" class="node">
<title>Node15</title>
<g id="a_Node000015"><a xlink:href="gpio_8h.html" target="_top" xlink:title=" ">
<polygon fill="white" stroke="#666666" points="473.75,-76 388.75,-76 388.75,-56 473.75,-56 473.75,-76"/>
<text text-anchor="middle" x="431.25" y="-62.5" font-family="Helvetica,sans-Serif" font-size="10.00">hardware/gpio.h</text>
</a>
</g>
</g>
<!-- Node11&#45;&gt;Node15 -->
<g id="edge17_Node000011_Node000015" class="edge">
<title>Node11&#45;&gt;Node15</title>
<g id="a_edge17_Node000011_Node000015"><a xlink:title=" ">
<path fill="none" stroke="#63b8ff" d="M469.67,-167.62C462.88,-149.84 448.01,-110.88 438.89,-87"/>
<polygon fill="#63b8ff" stroke="#63b8ff" points="442.2,-85.86 435.36,-77.77 435.66,-88.36 442.2,-85.86"/>
</a>
</g>
</g>
<!-- Node16 -->
<g id="Node000016" class="node">
<title>Node16</title>
<g id="a_Node000016"><a xlink:href="drivers_2include_2i2c_8h.html" target="_top" xlink:title=" ">
<polygon fill="white" stroke="#666666" points="514.75,-132 477.75,-132 477.75,-112 514.75,-112 514.75,-132"/>
<text text-anchor="middle" x="496.25" y="-118.5" font-family="Helvetica,sans-Serif" font-size="10.00">i2c.h</text>
</a>
</g>
</g>
<!-- Node11&#45;&gt;Node16 -->
<g id="edge21_Node000011_Node000016" class="edge">
<title>Node11&#45;&gt;Node16</title>
<g id="a_edge21_Node000011_Node000016"><a xlink:title=" ">
<path fill="none" stroke="#63b8ff" d="M477.26,-167.59C480.16,-160.78 484.19,-151.32 487.79,-142.86"/>
<polygon fill="#63b8ff" stroke="#63b8ff" points="491,-144.26 491.7,-133.69 484.56,-141.52 491,-144.26"/>
</a>
</g>
</g>
<!-- Node12&#45;&gt;Node4 -->
<g id="edge16_Node000012_Node000004" class="edge">
<title>Node12&#45;&gt;Node4</title>
<g id="a_edge16_Node000012_Node000004"><a xlink:title=" ">
<path fill="none" stroke="#63b8ff" d="M533.67,-55.59C496.02,-45.91 437.59,-30.89 399.12,-21"/>
<polygon fill="#63b8ff" stroke="#63b8ff" points="400.38,-17.7 389.82,-18.6 398.63,-24.48 400.38,-17.7"/>
</a>
</g>
</g>
<!-- Node12&#45;&gt;Node13 -->
<g id="edge14_Node000012_Node000013" class="edge">
<title>Node12&#45;&gt;Node13</title>
<g id="a_edge14_Node000012_Node000013"><a xlink:title=" ">
<path fill="none" stroke="#63b8ff" d="M558.41,-55.59C548.56,-47.77 534.32,-36.46 522.64,-27.19"/>
<polygon fill="#63b8ff" stroke="#63b8ff" points="525.15,-24.72 515.14,-21.24 520.8,-30.2 525.15,-24.72"/>
</a>
</g>
</g>
<!-- Node14 -->
<g id="Node000014" class="node">
<title>Node14</title>
<g id="a_Node000014"><a xlink:title=" ">
<polygon fill="#e0e0e0" stroke="#999999" points="595.88,-20 544.62,-20 544.62,0 595.88,0 595.88,-20"/>
<text text-anchor="middle" x="570.25" y="-6.5" font-family="Helvetica,sans-Serif" font-size="10.00">stddef.h</text>
</a>
</g>
</g>
<!-- Node12&#45;&gt;Node14 -->
<g id="edge15_Node000012_Node000014" class="edge">
<title>Node12&#45;&gt;Node14</title>
<g id="a_edge15_Node000012_Node000014"><a xlink:title=" ">
<path fill="none" stroke="#63b8ff" d="M570.25,-55.59C570.25,-49.01 570.25,-39.96 570.25,-31.73"/>
<polygon fill="#63b8ff" stroke="#63b8ff" points="573.75,-31.81 570.25,-21.81 566.75,-31.81 573.75,-31.81"/>
</a>
</g>
</g>
<!-- Node15&#45;&gt;Node13 -->
<g id="edge18_Node000015_Node000013" class="edge">
<title>Node15&#45;&gt;Node13</title>
<g id="a_edge18_Node000015_Node000013"><a xlink:title=" ">
<path fill="none" stroke="#63b8ff" d="M443.62,-55.59C453.9,-47.77 468.77,-36.46 480.96,-27.19"/>
<polygon fill="#63b8ff" stroke="#63b8ff" points="482.98,-30.05 488.82,-21.21 478.74,-24.48 482.98,-30.05"/>
</a>
</g>
</g>
<!-- Node16&#45;&gt;Node12 -->
<g id="edge22_Node000016_Node000012" class="edge">
<title>Node16&#45;&gt;Node12</title>
<g id="a_edge22_Node000016_Node000012"><a xlink:title=" ">
<path fill="none" stroke="#63b8ff" d="M509.14,-111.59C519.96,-103.7 535.66,-92.24 548.44,-82.92"/>
<polygon fill="#63b8ff" stroke="#63b8ff" points="550.27,-85.91 556.29,-77.19 546.14,-80.26 550.27,-85.91"/>
</a>
</g>
</g>
<!-- Node16&#45;&gt;Node13 -->
<g id="edge24_Node000016_Node000013" class="edge">
<title>Node16&#45;&gt;Node13</title>
<g id="a_edge24_Node000016_Node000013"><a xlink:title=" ">
<path fill="none" stroke="#63b8ff" d="M496.76,-111.62C497.72,-94.01 499.82,-55.59 501.12,-31.65"/>
<polygon fill="#63b8ff" stroke="#63b8ff" points="504.61,-32.04 501.66,-21.87 497.62,-31.66 504.61,-32.04"/>
</a>
</g>
</g>
<!-- Node16&#45;&gt;Node15 -->
<g id="edge23_Node000016_Node000015" class="edge">
<title>Node16&#45;&gt;Node15</title>
<g id="a_edge23_Node000016_Node000015"><a xlink:title=" ">
<path fill="none" stroke="#63b8ff" d="M484.93,-111.59C475.61,-103.85 462.17,-92.69 451.07,-83.47"/>
<polygon fill="#63b8ff" stroke="#63b8ff" points="453.54,-80.96 443.61,-77.27 449.06,-86.35 453.54,-80.96"/>
</a>
</g>
</g>
<!-- Node17&#45;&gt;Node12 -->
<g id="edge26_Node000017_Node000012" class="edge">
<title>Node17&#45;&gt;Node12</title>
<g id="a_edge26_Node000017_Node000012"><a xlink:title=" ">
<path fill="none" stroke="#63b8ff" d="M628.88,-111.59C618.6,-103.77 603.73,-92.46 591.54,-83.19"/>
<polygon fill="#63b8ff" stroke="#63b8ff" points="593.76,-80.48 583.68,-77.21 589.52,-86.05 593.76,-80.48"/>
</a>
</g>
</g>
<!-- Node18&#45;&gt;Node5 -->
<g id="edge28_Node000018_Node000005" class="edge">
<title>Node18&#45;&gt;Node5</title>
<g id="a_edge28_Node000018_Node000005"><a xlink:title=" ">
<path fill="none" stroke="#63b8ff" d="M213.29,-111.62C209.59,-93.92 201.5,-55.24 196.5,-31.32"/>
<polygon fill="#63b8ff" stroke="#63b8ff" points="199.99,-30.91 194.52,-21.84 193.14,-32.34 199.99,-30.91"/>
</a>
</g>
</g>
<!-- Node21 -->
<g id="Node000021" class="node">
<title>Node21</title>
<g id="a_Node000021"><a xlink:title=" ">
<polygon fill="#e0e0e0" stroke="#999999" points="742.5,-132 686,-132 686,-112 742.5,-112 742.5,-132"/>
<text text-anchor="middle" x="714.25" y="-118.5" font-family="Helvetica,sans-Serif" font-size="10.00">semphr.h</text>
</a>
</g>
</g>
<!-- Node20&#45;&gt;Node21 -->
<g id="edge31_Node000020_Node000021" class="edge">
<title>Node20&#45;&gt;Node21</title>
<g id="a_edge31_Node000020_Node000021"><a xlink:title=" ">
<path fill="none" stroke="#63b8ff" d="M709.3,-167.59C710.03,-161.01 711.03,-151.96 711.95,-143.73"/>
<polygon fill="#63b8ff" stroke="#63b8ff" points="715.42,-144.13 713.05,-133.8 708.47,-143.35 715.42,-144.13"/>
</a>
</g>
</g>
</g>
</svg>
