<?xml version="1.0" encoding="UTF-8" standalone="no"?>
<!DOCTYPE svg PUBLIC "-//W3C//DTD SVG 1.1//EN"
 "http://www.w3.org/Graphics/SVG/1.1/DTD/svg11.dtd">
<!-- Generated by graphviz version 12.1.2 (20240928.0832)
 -->
<!-- Title: initialize_steve Pages: 1 -->
<svg width="856pt" height="1123pt"
 viewBox="0.00 0.00 855.50 1123.00" xmlns="http://www.w3.org/2000/svg" xmlns:xlink="http://www.w3.org/1999/xlink">
<g id="graph0" class="graph" transform="scale(1 1) rotate(0) translate(4 1119)">
<title>initialize_steve</title>
<!-- Node1 -->
<g id="Node000001" class="node">
<title>Node1</title>
<g id="a_Node000001"><a xlink:title=" ">
<polygon fill="#999999" stroke="#666666" points="80.5,-295 0,-295 0,-275 80.5,-275 80.5,-295"/>
<text text-anchor="middle" x="40.25" y="-281.5" font-family="Helvetica,sans-Serif" font-size="10.00">initialize_steve</text>
</a>
</g>
</g>
<!-- Node2 -->
<g id="Node000002" class="node">
<title>Node2</title>
<g id="a_Node000002"><a xlink:href="heartbeat__job_8c.html#a5a39a53ceb61fec283d89fcb0032a24b" target="_top" xlink:title=" ">
<polygon fill="white" stroke="#666666" points="236.75,-545 116.5,-545 116.5,-525 236.75,-525 236.75,-545"/>
<text text-anchor="middle" x="176.62" y="-531.5" font-family="Helvetica,sans-Serif" font-size="10.00">heartbeat_telemetry_job</text>
</a>
</g>
</g>
<!-- Node1&#45;&gt;Node2 -->
<g id="edge1_Node000001_Node000002" class="edge">
<title>Node1&#45;&gt;Node2</title>
<g id="a_edge1_Node000001_Node000002"><a xlink:title=" ">
<path fill="none" stroke="#63b8ff" d="M46.85,-295.42C67.17,-333.23 137.22,-463.55 164.57,-514.43"/>
<polygon fill="#63b8ff" stroke="#63b8ff" points="161.46,-516.05 169.28,-523.2 167.63,-512.73 161.46,-516.05"/>
</a>
</g>
</g>
<!-- Node38 -->
<g id="Node000038" class="node">
<title>Node38</title>
<g id="a_Node000038"><a xlink:href="steve_8c.html#aa1f662b5890cdc563739a6c3eed51686" target="_top" xlink:title=" ">
<polygon fill="white" stroke="#666666" points="225.5,-70 127.75,-70 127.75,-38 225.5,-38 225.5,-70"/>
<text text-anchor="start" x="135.75" y="-56.5" font-family="Helvetica,sans-Serif" font-size="10.00">schedule_recurring</text>
<text text-anchor="middle" x="176.62" y="-44.5" font-family="Helvetica,sans-Serif" font-size="10.00">_job_secs</text>
</a>
</g>
</g>
<!-- Node1&#45;&gt;Node38 -->
<g id="edge59_Node000001_Node000038" class="edge">
<title>Node1&#45;&gt;Node38</title>
<g id="a_edge59_Node000001_Node000038"><a xlink:title=" ">
<path fill="none" stroke="#63b8ff" d="M47.2,-274.78C66.97,-240.78 130.93,-130.84 160.44,-80.1"/>
<polygon fill="#63b8ff" stroke="#63b8ff" points="163.42,-81.93 165.43,-71.53 157.37,-78.41 163.42,-81.93"/>
</a>
</g>
</g>
<!-- Node3 -->
<g id="Node000003" class="node">
<title>Node3</title>
<g id="a_Node000003"><a xlink:href="ina219_8c.html#a9ffe93da633c2f6008fac2f2da36ab72" target="_top" xlink:title=" ">
<polygon fill="white" stroke="#666666" points="515.12,-840 472.88,-840 472.88,-820 515.12,-820 515.12,-840"/>
<text text-anchor="middle" x="494" y="-826.5" font-family="Helvetica,sans-Serif" font-size="10.00">config</text>
</a>
</g>
</g>
<!-- Node2&#45;&gt;Node3 -->
<g id="edge2_Node000002_Node000003" class="edge">
<title>Node2&#45;&gt;Node3</title>
<g id="a_edge2_Node000002_Node000003"><a xlink:title=" ">
<path fill="none" stroke="#63b8ff" d="M178.3,-545.41C182.38,-604.75 205.85,-899.62 272.75,-953 317.13,-988.41 350.77,-980.41 400.5,-953 426.74,-938.54 418.71,-920.11 436.5,-896 448.75,-879.4 464.04,-861.69 475.63,-848.8"/>
<polygon fill="#63b8ff" stroke="#63b8ff" points="478.15,-851.23 482.29,-841.47 472.97,-846.52 478.15,-851.23"/>
</a>
</g>
</g>
<!-- Node5 -->
<g id="Node000005" class="node">
<title>Node5</title>
<g id="a_Node000005"><a xlink:href="timing_8c.html#a7cef17ffb0e9db503a077191e1a4b013" target="_top" xlink:title=" ">
<polygon fill="white" stroke="#666666" points="526,-106 462,-106 462,-86 526,-86 526,-106"/>
<text text-anchor="middle" x="494" y="-92.5" font-family="Helvetica,sans-Serif" font-size="10.00">get_uptime</text>
</a>
</g>
</g>
<!-- Node2&#45;&gt;Node5 -->
<g id="edge5_Node000002_Node000005" class="edge">
<title>Node2&#45;&gt;Node5</title>
<g id="a_edge5_Node000002_Node000005"><a xlink:title=" ">
<path fill="none" stroke="#63b8ff" d="M178.38,-524.69C182.91,-465.88 208.46,-173.5 272.75,-117 321.36,-74.27 401.39,-78.69 450.43,-86.71"/>
<polygon fill="#63b8ff" stroke="#63b8ff" points="449.64,-90.12 460.1,-88.42 450.86,-83.23 449.64,-90.12"/>
</a>
</g>
</g>
<!-- Node6 -->
<g id="Node000006" class="node">
<title>Node6</title>
<g id="a_Node000006"><a xlink:href="ina219_8c.html#a7a37de137b1bb2ec0149be505ec84ffe" target="_top" xlink:title=" ">
<polygon fill="white" stroke="#666666" points="378,-754 295.25,-754 295.25,-734 378,-734 378,-754"/>
<text text-anchor="middle" x="336.62" y="-740.5" font-family="Helvetica,sans-Serif" font-size="10.00">getCurrent_raw</text>
</a>
</g>
</g>
<!-- Node2&#45;&gt;Node6 -->
<g id="edge6_Node000002_Node000006" class="edge">
<title>Node2&#45;&gt;Node6</title>
<g id="a_edge6_Node000002_Node000006"><a xlink:title=" ">
<path fill="none" stroke="#63b8ff" d="M179.79,-545.44C186.95,-577.38 212.94,-674.62 272.75,-725 276.33,-728.02 280.38,-730.55 284.66,-732.69"/>
<polygon fill="#63b8ff" stroke="#63b8ff" points="282.96,-735.77 293.54,-736.39 285.65,-729.31 282.96,-735.77"/>
</a>
</g>
</g>
<!-- Node9 -->
<g id="Node000009" class="node">
<title>Node9</title>
<g id="a_Node000009"><a xlink:href="ina219_8c.html#aeb76d9007b107e997adfd60ab4d3bae0" target="_top" xlink:title=" ">
<polygon fill="white" stroke="#666666" points="375.75,-792 297.5,-792 297.5,-772 375.75,-772 375.75,-792"/>
<text text-anchor="middle" x="336.62" y="-778.5" font-family="Helvetica,sans-Serif" font-size="10.00">getPower_raw</text>
</a>
</g>
</g>
<!-- Node2&#45;&gt;Node9 -->
<g id="edge10_Node000002_Node000009" class="edge">
<title>Node2&#45;&gt;Node9</title>
<g id="a_edge10_Node000002_Node000009"><a xlink:title=" ">
<path fill="none" stroke="#63b8ff" d="M178.83,-545.41C183.54,-581.28 203.99,-700.91 272.75,-763 276.82,-766.68 281.58,-769.64 286.63,-772.03"/>
<polygon fill="#63b8ff" stroke="#63b8ff" points="285.26,-775.26 295.85,-775.63 287.81,-768.74 285.26,-775.26"/>
</a>
</g>
</g>
<!-- Node10 -->
<g id="Node000010" class="node">
<title>Node10</title>
<g id="a_Node000010"><a xlink:href="ina219_8c.html#acc82e6e7a3a8b48efe1ad86f421dcad0" target="_top" xlink:title=" ">
<polygon fill="white" stroke="#666666" points="373.88,-678 299.38,-678 299.38,-658 373.88,-658 373.88,-678"/>
<text text-anchor="middle" x="336.62" y="-664.5" font-family="Helvetica,sans-Serif" font-size="10.00">getVBus_raw</text>
</a>
</g>
</g>
<!-- Node2&#45;&gt;Node10 -->
<g id="edge13_Node000002_Node000010" class="edge">
<title>Node2&#45;&gt;Node10</title>
<g id="a_edge13_Node000002_Node000010"><a xlink:title=" ">
<path fill="none" stroke="#63b8ff" d="M183.31,-545.23C196.22,-567.51 229.97,-620.7 272.75,-649 277.56,-652.18 282.92,-654.85 288.43,-657.08"/>
<polygon fill="#63b8ff" stroke="#63b8ff" points="287.09,-660.31 297.68,-660.35 289.42,-653.71 287.09,-660.31"/>
</a>
</g>
</g>
<!-- Node11 -->
<g id="Node000011" class="node">
<title>Node11</title>
<g id="a_Node000011"><a xlink:href="ina219_8c.html#a0ef96929110f3bf77d9da6940841b7a3" target="_top" xlink:title=" ">
<polygon fill="white" stroke="#666666" points="378,-640 295.25,-640 295.25,-620 378,-620 378,-640"/>
<text text-anchor="middle" x="336.62" y="-626.5" font-family="Helvetica,sans-Serif" font-size="10.00">getVShunt_raw</text>
</a>
</g>
</g>
<!-- Node2&#45;&gt;Node11 -->
<g id="edge15_Node000002_Node000011" class="edge">
<title>Node2&#45;&gt;Node11</title>
<g id="a_edge15_Node000002_Node000011"><a xlink:title=" ">
<path fill="none" stroke="#63b8ff" d="M187.8,-545.36C204.24,-561.56 238.32,-592.91 272.75,-611 276.4,-612.92 280.27,-614.67 284.22,-616.27"/>
<polygon fill="#63b8ff" stroke="#63b8ff" points="282.79,-619.47 293.39,-619.62 285.2,-612.9 282.79,-619.47"/>
</a>
</g>
</g>
<!-- Node12 -->
<g id="Node000012" class="node">
<title>Node12</title>
<g id="a_Node000012"><a xlink:href="hb__tlm__log_8c.html#a06d9003c959538dac30ed99c0f01db0f" target="_top" xlink:title=" ">
<polygon fill="white" stroke="#666666" points="383.25,-1020 290,-1020 290,-1000 383.25,-1000 383.25,-1020"/>
<text text-anchor="middle" x="336.62" y="-1006.5" font-family="Helvetica,sans-Serif" font-size="10.00">log_heartbeat_tlm</text>
</a>
</g>
</g>
<!-- Node2&#45;&gt;Node12 -->
<g id="edge17_Node000002_Node000012" class="edge">
<title>Node2&#45;&gt;Node12</title>
<g id="a_edge17_Node000002_Node000012"><a xlink:title=" ">
<path fill="none" stroke="#63b8ff" d="M178.49,-545.45C183.7,-606.4 212.84,-915.88 272.75,-986 275.33,-989.02 278.34,-991.67 281.61,-993.98"/>
<polygon fill="#63b8ff" stroke="#63b8ff" points="279.69,-996.91 290.1,-998.89 283.2,-990.85 279.69,-996.91"/>
</a>
</g>
</g>
<!-- Node20 -->
<g id="Node000020" class="node">
<title>Node20</title>
<g id="a_Node000020"><a xlink:href="mag__lis3mdltr_8c.html#a7701b495ff94874c5d3bbd940b8f99ff" target="_top" xlink:title=" ">
<polygon fill="white" stroke="#666666" points="376.88,-602 296.38,-602 296.38,-582 376.88,-582 376.88,-602"/>
<text text-anchor="middle" x="336.62" y="-588.5" font-family="Helvetica,sans-Serif" font-size="10.00">mag_get_temp</text>
</a>
</g>
</g>
<!-- Node2&#45;&gt;Node20 -->
<g id="edge27_Node000002_Node000020" class="edge">
<title>Node2&#45;&gt;Node20</title>
<g id="a_edge27_Node000002_Node000020"><a xlink:title=" ">
<path fill="none" stroke="#63b8ff" d="M202.04,-545.43C221.13,-553.42 248.41,-564.48 272.75,-573 277.8,-574.77 283.11,-576.53 288.41,-578.22"/>
<polygon fill="#63b8ff" stroke="#63b8ff" points="287.18,-581.5 297.77,-581.13 289.26,-574.81 287.18,-581.5"/>
</a>
</g>
</g>
<!-- Node21 -->
<g id="Node000021" class="node">
<title>Node21</title>
<g id="a_Node000021"><a xlink:href="mag__lis3mdltr_8c.html#a38a61bd16b9dfb232231f3518d803b65" target="_top" xlink:title=" ">
<polygon fill="white" stroke="#666666" points="368.62,-564 304.62,-564 304.62,-544 368.62,-544 368.62,-564"/>
<text text-anchor="middle" x="336.62" y="-550.5" font-family="Helvetica,sans-Serif" font-size="10.00">mag_get_x</text>
</a>
</g>
</g>
<!-- Node2&#45;&gt;Node21 -->
<g id="edge29_Node000002_Node000021" class="edge">
<title>Node2&#45;&gt;Node21</title>
<g id="a_edge29_Node000002_Node000021"><a xlink:title=" ">
<path fill="none" stroke="#63b8ff" d="M236.91,-542.13C255.55,-544.37 275.75,-546.8 293,-548.87"/>
<polygon fill="#63b8ff" stroke="#63b8ff" points="292.56,-552.35 302.91,-550.07 293.4,-545.4 292.56,-552.35"/>
</a>
</g>
</g>
<!-- Node22 -->
<g id="Node000022" class="node">
<title>Node22</title>
<g id="a_Node000022"><a xlink:href="mag__lis3mdltr_8c.html#a47dbf866e595e1b959c9da3b594dcc7d" target="_top" xlink:title=" ">
<polygon fill="white" stroke="#666666" points="368.62,-526 304.62,-526 304.62,-506 368.62,-506 368.62,-526"/>
<text text-anchor="middle" x="336.62" y="-512.5" font-family="Helvetica,sans-Serif" font-size="10.00">mag_get_y</text>
</a>
</g>
</g>
<!-- Node2&#45;&gt;Node22 -->
<g id="edge31_Node000002_Node000022" class="edge">
<title>Node2&#45;&gt;Node22</title>
<g id="a_edge31_Node000002_Node000022"><a xlink:title=" ">
<path fill="none" stroke="#63b8ff" d="M236.91,-527.87C255.55,-525.63 275.75,-523.2 293,-521.13"/>
<polygon fill="#63b8ff" stroke="#63b8ff" points="293.4,-524.6 302.91,-519.93 292.56,-517.65 293.4,-524.6"/>
</a>
</g>
</g>
<!-- Node23 -->
<g id="Node000023" class="node">
<title>Node23</title>
<g id="a_Node000023"><a xlink:href="mag__lis3mdltr_8c.html#ae8775374a424d7f7cce47046c180954d" target="_top" xlink:title=" ">
<polygon fill="white" stroke="#666666" points="368.62,-488 304.62,-488 304.62,-468 368.62,-468 368.62,-488"/>
<text text-anchor="middle" x="336.62" y="-474.5" font-family="Helvetica,sans-Serif" font-size="10.00">mag_get_z</text>
</a>
</g>
</g>
<!-- Node2&#45;&gt;Node23 -->
<g id="edge33_Node000002_Node000023" class="edge">
<title>Node2&#45;&gt;Node23</title>
<g id="a_edge33_Node000002_Node000023"><a xlink:title=" ">
<path fill="none" stroke="#63b8ff" d="M202.04,-524.57C221.13,-516.58 248.41,-505.52 272.75,-497 279.46,-494.65 286.63,-492.32 293.64,-490.14"/>
<polygon fill="#63b8ff" stroke="#63b8ff" points="294.44,-493.55 302.98,-487.29 292.4,-486.86 294.44,-493.55"/>
</a>
</g>
</g>
<!-- Node24 -->
<g id="Node000024" class="node">
<title>Node24</title>
<g id="a_Node000024"><a xlink:href="simulator_2drivers_2include_2max17048_8h.html#ad9a75a9c9fa941599b507163dc5c223a" target="_top" xlink:title=" ">
<polygon fill="white" stroke="#666666" points="400.5,-450 272.75,-450 272.75,-430 400.5,-430 400.5,-450"/>
<text text-anchor="middle" x="336.62" y="-436.5" font-family="Helvetica,sans-Serif" font-size="10.00">max17048CellPercentage</text>
</a>
</g>
</g>
<!-- Node2&#45;&gt;Node24 -->
<g id="edge35_Node000002_Node000024" class="edge">
<title>Node2&#45;&gt;Node24</title>
<g id="a_edge35_Node000002_Node000024"><a xlink:title=" ">
<path fill="none" stroke="#63b8ff" d="M187.8,-524.64C204.24,-508.44 238.32,-477.09 272.75,-459 275.83,-457.38 279.07,-455.88 282.39,-454.49"/>
<polygon fill="#63b8ff" stroke="#63b8ff" points="283.61,-457.77 291.73,-450.95 281.14,-451.22 283.61,-457.77"/>
</a>
</g>
</g>
<!-- Node25 -->
<g id="Node000025" class="node">
<title>Node25</title>
<g id="a_Node000025"><a xlink:href="max17048_8c.html#adf384268b2363eadca0fdb81281a1a6f" target="_top" xlink:title=" ">
<polygon fill="white" stroke="#666666" points="391.88,-412 281.38,-412 281.38,-392 391.88,-392 391.88,-412"/>
<text text-anchor="middle" x="336.62" y="-398.5" font-family="Helvetica,sans-Serif" font-size="10.00">max17048CellVoltage</text>
</a>
</g>
</g>
<!-- Node2&#45;&gt;Node25 -->
<g id="edge37_Node000002_Node000025" class="edge">
<title>Node2&#45;&gt;Node25</title>
<g id="a_edge37_Node000002_Node000025"><a xlink:title=" ">
<path fill="none" stroke="#63b8ff" d="M183.31,-524.77C196.22,-502.49 229.97,-449.3 272.75,-421 274.84,-419.62 277.03,-418.34 279.29,-417.14"/>
<polygon fill="#63b8ff" stroke="#63b8ff" points="280.52,-420.43 288.18,-413.1 277.63,-414.06 280.52,-420.43"/>
</a>
</g>
</g>
<!-- Node26 -->
<g id="Node000026" class="node">
<title>Node26</title>
<g id="a_Node000026"><a xlink:href="radio_8cpp.html#ab7478d8e46fb0bc28055ad273b45cc6c" target="_top" xlink:title=" ">
<polygon fill="white" stroke="#666666" points="391.5,-944 281.75,-944 281.75,-924 391.5,-924 391.5,-944"/>
<text text-anchor="middle" x="336.62" y="-930.5" font-family="Helvetica,sans-Serif" font-size="10.00">radio_get_RFM_state</text>
</a>
</g>
</g>
<!-- Node2&#45;&gt;Node26 -->
<g id="edge39_Node000002_Node000026" class="edge">
<title>Node2&#45;&gt;Node26</title>
<g id="a_edge39_Node000002_Node000026"><a xlink:title=" ">
<path fill="none" stroke="#63b8ff" d="M178.83,-545.27C185.45,-600.17 219.15,-858.75 272.75,-915 273.47,-915.76 274.22,-916.49 275,-917.19"/>
<polygon fill="#63b8ff" stroke="#63b8ff" points="272.76,-919.89 282.96,-922.77 276.78,-914.16 272.76,-919.89"/>
</a>
</g>
</g>
<!-- Node27 -->
<g id="Node000027" class="node">
<title>Node27</title>
<g id="a_Node000027"><a xlink:href="radio_8cpp.html#aad94e22af3ec5d65defed81b0efee8d6" target="_top" xlink:title=" ">
<polygon fill="white" stroke="#666666" points="387.38,-906 285.88,-906 285.88,-886 387.38,-886 387.38,-906"/>
<text text-anchor="middle" x="336.62" y="-892.5" font-family="Helvetica,sans-Serif" font-size="10.00">radio_get_SX_state</text>
</a>
</g>
</g>
<!-- Node2&#45;&gt;Node27 -->
<g id="edge40_Node000002_Node000027" class="edge">
<title>Node2&#45;&gt;Node27</title>
<g id="a_edge40_Node000002_Node000027"><a xlink:title=" ">
<path fill="none" stroke="#63b8ff" d="M177.18,-545.38C175.79,-591.32 176.44,-778.53 272.75,-877 273.78,-878.05 274.87,-879.05 276.01,-879.99"/>
<polygon fill="#63b8ff" stroke="#63b8ff" points="273.96,-882.84 284.25,-885.36 277.78,-876.97 273.96,-882.84"/>
</a>
</g>
</g>
<!-- Node28 -->
<g id="Node000028" class="node">
<title>Node28</title>
<g id="a_Node000028"><a xlink:href="radio_8cpp.html#ae0cf1b14647d5b91ce8706a14d792e76" target="_top" xlink:title=" ">
<polygon fill="white" stroke="#666666" points="370.5,-868 302.75,-868 302.75,-848 370.5,-848 370.5,-868"/>
<text text-anchor="middle" x="336.62" y="-854.5" font-family="Helvetica,sans-Serif" font-size="10.00">radio_which</text>
</a>
</g>
</g>
<!-- Node2&#45;&gt;Node28 -->
<g id="edge41_Node000002_Node000028" class="edge">
<title>Node2&#45;&gt;Node28</title>
<g id="a_edge41_Node000002_Node000028"><a xlink:title=" ">
<path fill="none" stroke="#63b8ff" d="M177.6,-545.38C178.08,-588.19 185.71,-752.81 272.75,-839 278.09,-844.28 284.84,-848.11 291.92,-850.87"/>
<polygon fill="#63b8ff" stroke="#63b8ff" points="290.38,-854.05 300.97,-853.75 292.5,-847.38 290.38,-854.05"/>
</a>
</g>
</g>
<!-- Node29 -->
<g id="Node000029" class="node">
<title>Node29</title>
<g id="a_Node000029"><a xlink:href="rtc__ds3231_8c.html#a4d9ecc8e912cc84cd50c842a8d69e70e" target="_top" xlink:title=" ">
<polygon fill="white" stroke="#666666" points="371.62,-374 301.62,-374 301.62,-354 371.62,-354 371.62,-374"/>
<text text-anchor="middle" x="336.62" y="-360.5" font-family="Helvetica,sans-Serif" font-size="10.00">rtc_get_date</text>
</a>
</g>
</g>
<!-- Node2&#45;&gt;Node29 -->
<g id="edge42_Node000002_Node000029" class="edge">
<title>Node2&#45;&gt;Node29</title>
<g id="a_edge42_Node000002_Node000029"><a xlink:title=" ">
<path fill="none" stroke="#63b8ff" d="M181.12,-524.73C190.95,-497.36 221.55,-422.13 272.75,-383 278.03,-378.96 284.17,-375.78 290.5,-373.27"/>
<polygon fill="#63b8ff" stroke="#63b8ff" points="291.42,-376.65 299.78,-370.14 289.18,-370.02 291.42,-376.65"/>
</a>
</g>
</g>
<!-- Node30 -->
<g id="Node000030" class="node">
<title>Node30</title>
<g id="a_Node000030"><a xlink:href="rtc__ds3231_8c.html#a50130551fb17b3228d45e86ff7b634c3" target="_top" xlink:title=" ">
<polygon fill="white" stroke="#666666" points="371.62,-336 301.62,-336 301.62,-316 371.62,-316 371.62,-336"/>
<text text-anchor="middle" x="336.62" y="-322.5" font-family="Helvetica,sans-Serif" font-size="10.00">rtc_get_hour</text>
</a>
</g>
</g>
<!-- Node2&#45;&gt;Node30 -->
<g id="edge44_Node000002_Node000030" class="edge">
<title>Node2&#45;&gt;Node30</title>
<g id="a_edge44_Node000002_Node000030"><a xlink:title=" ">
<path fill="none" stroke="#63b8ff" d="M179.79,-524.56C186.95,-492.62 212.94,-395.38 272.75,-345 277.89,-340.67 284,-337.33 290.35,-334.75"/>
<polygon fill="#63b8ff" stroke="#63b8ff" points="291.37,-338.09 299.72,-331.57 289.13,-331.47 291.37,-338.09"/>
</a>
</g>
</g>
<!-- Node31 -->
<g id="Node000031" class="node">
<title>Node31</title>
<g id="a_Node000031"><a xlink:href="rtc__ds3231_8c.html#a37b2be869bea794d2fdfa8869baaa26d" target="_top" xlink:title=" ">
<polygon fill="white" stroke="#666666" points="376.88,-298 296.38,-298 296.38,-278 376.88,-278 376.88,-298"/>
<text text-anchor="middle" x="336.62" y="-284.5" font-family="Helvetica,sans-Serif" font-size="10.00">rtc_get_minute</text>
</a>
</g>
</g>
<!-- Node2&#45;&gt;Node31 -->
<g id="edge46_Node000002_Node000031" class="edge">
<title>Node2&#45;&gt;Node31</title>
<g id="a_edge46_Node000002_Node000031"><a xlink:title=" ">
<path fill="none" stroke="#63b8ff" d="M178.83,-524.59C183.54,-488.72 203.99,-369.09 272.75,-307 276.52,-303.6 280.88,-300.8 285.51,-298.51"/>
<polygon fill="#63b8ff" stroke="#63b8ff" points="286.61,-301.84 294.55,-294.82 283.97,-295.36 286.61,-301.84"/>
</a>
</g>
</g>
<!-- Node32 -->
<g id="Node000032" class="node">
<title>Node32</title>
<g id="a_Node000032"><a xlink:href="rtc__ds3231_8c.html#a21b982cbe42fb3a2a10755cc9cb1f3f8" target="_top" xlink:title=" ">
<polygon fill="white" stroke="#666666" points="375.75,-260 297.5,-260 297.5,-240 375.75,-240 375.75,-260"/>
<text text-anchor="middle" x="336.62" y="-246.5" font-family="Helvetica,sans-Serif" font-size="10.00">rtc_get_month</text>
</a>
</g>
</g>
<!-- Node2&#45;&gt;Node32 -->
<g id="edge48_Node000002_Node000032" class="edge">
<title>Node2&#45;&gt;Node32</title>
<g id="a_edge48_Node000002_Node000032"><a xlink:title=" ">
<path fill="none" stroke="#63b8ff" d="M178.13,-524.58C180.64,-485.06 194.93,-343.03 272.75,-269 276.72,-265.22 281.42,-262.19 286.44,-259.76"/>
<polygon fill="#63b8ff" stroke="#63b8ff" points="287.61,-263.06 295.63,-256.13 285.04,-256.55 287.61,-263.06"/>
</a>
</g>
</g>
<!-- Node33 -->
<g id="Node000033" class="node">
<title>Node33</title>
<g id="a_Node000033"><a xlink:href="rtc__ds3231_8c.html#a663d94e64990cdf62b9f4f740b94bfab" target="_top" xlink:title=" ">
<polygon fill="white" stroke="#666666" points="378,-222 295.25,-222 295.25,-202 378,-202 378,-222"/>
<text text-anchor="middle" x="336.62" y="-208.5" font-family="Helvetica,sans-Serif" font-size="10.00">rtc_get_second</text>
</a>
</g>
</g>
<!-- Node2&#45;&gt;Node33 -->
<g id="edge50_Node000002_Node000033" class="edge">
<title>Node2&#45;&gt;Node33</title>
<g id="a_edge50_Node000002_Node000033"><a xlink:title=" ">
<path fill="none" stroke="#63b8ff" d="M177.6,-524.62C178.08,-481.81 185.71,-317.19 272.75,-231 276.17,-227.61 280.17,-224.83 284.46,-222.54"/>
<polygon fill="#63b8ff" stroke="#63b8ff" points="285.71,-225.81 293.5,-218.64 282.93,-219.39 285.71,-225.81"/>
</a>
</g>
</g>
<!-- Node34 -->
<g id="Node000034" class="node">
<title>Node34</title>
<g id="a_Node000034"><a xlink:href="rtc__ds3231_8c.html#a787d50004f6b318e952f813800188f89" target="_top" xlink:title=" ">
<polygon fill="white" stroke="#666666" points="373.12,-184 300.12,-184 300.12,-164 373.12,-164 373.12,-184"/>
<text text-anchor="middle" x="336.62" y="-170.5" font-family="Helvetica,sans-Serif" font-size="10.00">rtc_get_temp</text>
</a>
</g>
</g>
<!-- Node2&#45;&gt;Node34 -->
<g id="edge52_Node000002_Node000034" class="edge">
<title>Node2&#45;&gt;Node34</title>
<g id="a_edge52_Node000002_Node000034"><a xlink:title=" ">
<path fill="none" stroke="#63b8ff" d="M177.18,-524.62C175.79,-478.68 176.44,-291.47 272.75,-193 277.35,-188.3 283.06,-184.75 289.16,-182.08"/>
<polygon fill="#63b8ff" stroke="#63b8ff" points="289.97,-185.5 298.23,-178.86 287.63,-178.91 289.97,-185.5"/>
</a>
</g>
</g>
<!-- Node35 -->
<g id="Node000035" class="node">
<title>Node35</title>
<g id="a_Node000035"><a xlink:href="rtc__ds3231_8c.html#ab763e064ad555e3e2b0f21d4e78c0d76" target="_top" xlink:title=" ">
<polygon fill="white" stroke="#666666" points="371.62,-146 301.62,-146 301.62,-126 371.62,-126 371.62,-146"/>
<text text-anchor="middle" x="336.62" y="-132.5" font-family="Helvetica,sans-Serif" font-size="10.00">rtc_get_year</text>
</a>
</g>
</g>
<!-- Node2&#45;&gt;Node35 -->
<g id="edge54_Node000002_Node000035" class="edge">
<title>Node2&#45;&gt;Node35</title>
<g id="a_edge54_Node000002_Node000035"><a xlink:title=" ">
<path fill="none" stroke="#63b8ff" d="M178.83,-524.73C185.45,-469.83 219.15,-211.25 272.75,-155 277.65,-149.85 283.9,-146.09 290.54,-143.33"/>
<polygon fill="#63b8ff" stroke="#63b8ff" points="291.35,-146.75 299.73,-140.27 289.14,-140.11 291.35,-146.75"/>
</a>
</g>
</g>
<!-- Node36 -->
<g id="Node000036" class="node">
<title>Node36</title>
<g id="a_Node000036"><a xlink:href="telemetry_8c.html#a6dbf6c6cfd75451e5642ca0b64bf7f5a" target="_top" xlink:title=" ">
<polygon fill="white" stroke="#666666" points="378,-830 295.25,-830 295.25,-810 378,-810 378,-830"/>
<text text-anchor="middle" x="336.62" y="-816.5" font-family="Helvetica,sans-Serif" font-size="10.00">send_telemetry</text>
</a>
</g>
</g>
<!-- Node2&#45;&gt;Node36 -->
<g id="edge56_Node000002_Node000036" class="edge">
<title>Node2&#45;&gt;Node36</title>
<g id="a_edge56_Node000002_Node000036"><a xlink:title=" ">
<path fill="none" stroke="#63b8ff" d="M178.13,-545.42C180.64,-584.94 194.93,-726.97 272.75,-801 276.24,-804.32 280.28,-807.05 284.6,-809.32"/>
<polygon fill="#63b8ff" stroke="#63b8ff" points="283.11,-812.48 293.68,-813.18 285.85,-806.04 283.11,-812.48"/>
</a>
</g>
</g>
<!-- Node37 -->
<g id="Node000037" class="node">
<title>Node37</title>
<g id="a_Node000037"><a xlink:href="vega__ant_8c.html#a6377b53e9c676bceaa38ec9ddeb7fd28" target="_top" xlink:title=" ">
<polygon fill="white" stroke="#666666" points="380.62,-716 292.62,-716 292.62,-696 380.62,-696 380.62,-716"/>
<text text-anchor="middle" x="336.62" y="-702.5" font-family="Helvetica,sans-Serif" font-size="10.00">vega_ant_status</text>
</a>
</g>
</g>
<!-- Node2&#45;&gt;Node37 -->
<g id="edge57_Node000002_Node000037" class="edge">
<title>Node2&#45;&gt;Node37</title>
<g id="a_edge57_Node000002_Node000037"><a xlink:title=" ">
<path fill="none" stroke="#63b8ff" d="M181.12,-545.27C190.95,-572.64 221.55,-647.87 272.75,-687 275.65,-689.22 278.81,-691.17 282.11,-692.91"/>
<polygon fill="#63b8ff" stroke="#63b8ff" points="280.42,-695.98 290.98,-696.83 283.25,-689.58 280.42,-695.98"/>
</a>
</g>
</g>
<!-- Node3&#45;&gt;Node3 -->
<g id="edge3_Node000003_Node000003" class="edge">
<title>Node3&#45;&gt;Node3</title>
<g id="a_edge3_Node000003_Node000003"><a xlink:title=" ">
<path fill="none" stroke="#63b8ff" d="M472.57,-838.89C459.96,-847.93 467.1,-858 494,-858 511.23,-858 520.35,-853.87 521.37,-848.52"/>
<polygon fill="#63b8ff" stroke="#63b8ff" points="524.46,-846.85 516.23,-840.18 518.5,-850.53 524.46,-846.85"/>
</a>
</g>
</g>
<!-- Node4 -->
<g id="Node000004" class="node">
<title>Node4</title>
<g id="a_Node000004"><a xlink:href="i2c_8c.html#a73f9c3581b5d48d5db9c6c445034a970" target="_top" xlink:title=" ">
<polygon fill="white" stroke="#666666" points="693.5,-811 587.5,-811 587.5,-791 693.5,-791 693.5,-811"/>
<text text-anchor="middle" x="640.5" y="-797.5" font-family="Helvetica,sans-Serif" font-size="10.00">i2c_write_to_register</text>
</a>
</g>
</g>
<!-- Node3&#45;&gt;Node4 -->
<g id="edge4_Node000003_Node000004" class="edge">
<title>Node3&#45;&gt;Node4</title>
<g id="a_edge4_Node000003_Node000004"><a xlink:title=" ">
<path fill="none" stroke="#63b8ff" d="M515.4,-825.91C531.37,-822.7 554.49,-818.06 576.45,-813.65"/>
<polygon fill="#63b8ff" stroke="#63b8ff" points="576.85,-817.14 585.96,-811.74 575.47,-810.28 576.85,-817.14"/>
</a>
</g>
</g>
<!-- Node7 -->
<g id="Node000007" class="node">
<title>Node7</title>
<g id="a_Node000007"><a xlink:href="ina219_8c.html#a75d20b3960f7d7688d27f264f02eb98a" target="_top" xlink:title=" ">
<polygon fill="white" stroke="#666666" points="520.38,-792 467.62,-792 467.62,-772 520.38,-772 520.38,-792"/>
<text text-anchor="middle" x="494" y="-778.5" font-family="Helvetica,sans-Serif" font-size="10.00">calibrate</text>
</a>
</g>
</g>
<!-- Node6&#45;&gt;Node7 -->
<g id="edge7_Node000006_Node000007" class="edge">
<title>Node6&#45;&gt;Node7</title>
<g id="a_edge7_Node000006_Node000007"><a xlink:title=" ">
<path fill="none" stroke="#63b8ff" d="M378.45,-753.98C402.71,-759.92 433.22,-767.38 456.65,-773.11"/>
<polygon fill="#63b8ff" stroke="#63b8ff" points="455.51,-776.43 466.05,-775.41 457.17,-769.63 455.51,-776.43"/>
</a>
</g>
</g>
<!-- Node8 -->
<g id="Node000008" class="node">
<title>Node8</title>
<g id="a_Node000008"><a xlink:href="i2c_8c.html#afd489cf93d14a907e09132068de8e1c9" target="_top" xlink:title=" ">
<polygon fill="white" stroke="#666666" points="551.5,-469 436.5,-469 436.5,-449 551.5,-449 551.5,-469"/>
<text text-anchor="middle" x="494" y="-455.5" font-family="Helvetica,sans-Serif" font-size="10.00">i2c_read_from_register</text>
</a>
</g>
</g>
<!-- Node6&#45;&gt;Node8 -->
<g id="edge9_Node000006_Node000008" class="edge">
<title>Node6&#45;&gt;Node8</title>
<g id="a_edge9_Node000006_Node000008"><a xlink:title=" ">
<path fill="none" stroke="#63b8ff" d="M378.22,-737.82C386.38,-735 394.33,-730.92 400.5,-725 471.57,-656.8 488.07,-531.2 491.87,-480.79"/>
<polygon fill="#63b8ff" stroke="#63b8ff" points="495.36,-481.13 492.51,-470.93 488.37,-480.68 495.36,-481.13"/>
</a>
</g>
</g>
<!-- Node7&#45;&gt;Node4 -->
<g id="edge8_Node000007_Node000004" class="edge">
<title>Node7&#45;&gt;Node4</title>
<g id="a_edge8_Node000007_Node000004"><a xlink:title=" ">
<path fill="none" stroke="#63b8ff" d="M520.83,-785.4C536.24,-787.42 556.52,-790.09 575.96,-792.64"/>
<polygon fill="#63b8ff" stroke="#63b8ff" points="575.39,-796.1 585.76,-793.93 576.3,-789.16 575.39,-796.1"/>
</a>
</g>
</g>
<!-- Node9&#45;&gt;Node7 -->
<g id="edge11_Node000009_Node000007" class="edge">
<title>Node9&#45;&gt;Node7</title>
<g id="a_edge11_Node000009_Node000007"><a xlink:title=" ">
<path fill="none" stroke="#63b8ff" d="M376.03,-782C400.44,-782 431.86,-782 455.99,-782"/>
<polygon fill="#63b8ff" stroke="#63b8ff" points="455.67,-785.5 465.67,-782 455.67,-778.5 455.67,-785.5"/>
</a>
</g>
</g>
<!-- Node9&#45;&gt;Node8 -->
<g id="edge12_Node000009_Node000008" class="edge">
<title>Node9&#45;&gt;Node8</title>
<g id="a_edge12_Node000009_Node000008"><a xlink:title=" ">
<path fill="none" stroke="#63b8ff" d="M376.11,-776.75C385.05,-773.93 393.88,-769.61 400.5,-763 480.57,-683.08 491.72,-536.14 492.98,-480.83"/>
<polygon fill="#63b8ff" stroke="#63b8ff" points="496.48,-480.93 493.11,-470.89 489.48,-480.84 496.48,-480.93"/>
</a>
</g>
</g>
<!-- Node10&#45;&gt;Node8 -->
<g id="edge14_Node000010_Node000008" class="edge">
<title>Node10&#45;&gt;Node8</title>
<g id="a_edge14_Node000010_Node000008"><a xlink:title=" ">
<path fill="none" stroke="#63b8ff" d="M374.1,-662.41C383.49,-659.59 393.03,-655.36 400.5,-649 453.92,-603.49 479.16,-519.9 488.5,-480.55"/>
<polygon fill="#63b8ff" stroke="#63b8ff" points="491.89,-481.44 490.66,-470.92 485.06,-479.91 491.89,-481.44"/>
</a>
</g>
</g>
<!-- Node11&#45;&gt;Node8 -->
<g id="edge16_Node000011_Node000008" class="edge">
<title>Node11&#45;&gt;Node8</title>
<g id="a_edge16_Node000011_Node000008"><a xlink:title=" ">
<path fill="none" stroke="#63b8ff" d="M378.32,-622.45C386.19,-619.73 394.01,-616.03 400.5,-611 445.53,-576.14 473.68,-512.66 485.9,-479.86"/>
<polygon fill="#63b8ff" stroke="#63b8ff" points="489.11,-481.29 489.18,-470.7 482.52,-478.93 489.11,-481.29"/>
</a>
</g>
</g>
<!-- Node13 -->
<g id="Node000013" class="node">
<title>Node13</title>
<g id="a_Node000013"><a xlink:href="filesystem_8c.html#a02c1e03f51146617a18f5bcc96099220" target="_top" xlink:title=" ">
<polygon fill="white" stroke="#666666" points="524.12,-1115 463.88,-1115 463.88,-1095 524.12,-1095 524.12,-1115"/>
<text text-anchor="middle" x="494" y="-1101.5" font-family="Helvetica,sans-Serif" font-size="10.00">delete_file</text>
</a>
</g>
</g>
<!-- Node12&#45;&gt;Node13 -->
<g id="edge18_Node000012_Node000013" class="edge">
<title>Node12&#45;&gt;Node13</title>
<g id="a_edge18_Node000012_Node000013"><a xlink:title=" ">
<path fill="none" stroke="#63b8ff" d="M350.13,-1020.37C368.32,-1035.13 403.53,-1062.46 436.5,-1081 442.27,-1084.25 448.57,-1087.33 454.8,-1090.14"/>
<polygon fill="#63b8ff" stroke="#63b8ff" points="453.16,-1093.24 463.73,-1093.99 455.93,-1086.81 453.16,-1093.24"/>
</a>
</g>
</g>
<!-- Node14 -->
<g id="Node000014" class="node">
<title>Node14</title>
<g id="a_Node000014"><a xlink:href="filesystem_8c.html#a6c3bed1f355bd1952d7ffa87405828c6" target="_top" xlink:title=" ">
<polygon fill="white" stroke="#666666" points="523,-1001 465,-1001 465,-981 523,-981 523,-1001"/>
<text text-anchor="middle" x="494" y="-987.5" font-family="Helvetica,sans-Serif" font-size="10.00">dir_exists</text>
</a>
</g>
</g>
<!-- Node12&#45;&gt;Node14 -->
<g id="edge19_Node000012_Node000014" class="edge">
<title>Node12&#45;&gt;Node14</title>
<g id="a_edge19_Node000012_Node000014"><a xlink:title=" ">
<path fill="none" stroke="#63b8ff" d="M383.4,-1004.4C405.61,-1001.69 432.02,-998.46 453.36,-995.85"/>
<polygon fill="#63b8ff" stroke="#63b8ff" points="453.62,-999.34 463.12,-994.65 452.77,-992.39 453.62,-999.34"/>
</a>
</g>
</g>
<!-- Node15 -->
<g id="Node000015" class="node">
<title>Node15</title>
<g id="a_Node000015"><a xlink:href="filesystem_8c.html#aa109ff29a72d1beadda58bb3a54185b6" target="_top" xlink:title=" ">
<polygon fill="white" stroke="#666666" points="656.75,-1039 624.25,-1039 624.25,-1019 656.75,-1019 656.75,-1039"/>
<text text-anchor="middle" x="640.5" y="-1025.5" font-family="Helvetica,sans-Serif" font-size="10.00">stat</text>
</a>
</g>
</g>
<!-- Node12&#45;&gt;Node15 -->
<g id="edge25_Node000012_Node000015" class="edge">
<title>Node12&#45;&gt;Node15</title>
<g id="a_edge25_Node000012_Node000015"><a xlink:title=" ">
<path fill="none" stroke="#63b8ff" d="M383.47,-1012.89C447.3,-1016.9 560.9,-1024.05 612.57,-1027.31"/>
<polygon fill="#63b8ff" stroke="#63b8ff" points="612.04,-1030.78 622.24,-1027.91 612.48,-1023.79 612.04,-1030.78"/>
</a>
</g>
</g>
<!-- Node17 -->
<g id="Node000017" class="node">
<title>Node17</title>
<g id="a_Node000017"><a xlink:href="filesystem_8c.html#a20ca64a89158ccc1eb3f714b3d8725f5" target="_top" xlink:title=" ">
<polygon fill="white" stroke="#666666" points="521.88,-963 466.12,-963 466.12,-943 521.88,-943 521.88,-963"/>
<text text-anchor="middle" x="494" y="-949.5" font-family="Helvetica,sans-Serif" font-size="10.00">make_dir</text>
</a>
</g>
</g>
<!-- Node12&#45;&gt;Node17 -->
<g id="edge22_Node000012_Node000017" class="edge">
<title>Node12&#45;&gt;Node17</title>
<g id="a_edge22_Node000012_Node000017"><a xlink:title=" ">
<path fill="none" stroke="#63b8ff" d="M365.18,-999.52C376.18,-995.33 388.94,-990.45 400.5,-986 416.52,-979.83 420.36,-977.85 436.5,-972 442.46,-969.84 448.8,-967.63 455,-965.51"/>
<polygon fill="#63b8ff" stroke="#63b8ff" points="456.11,-968.83 464.46,-962.31 453.87,-962.2 456.11,-968.83"/>
</a>
</g>
</g>
<!-- Node18 -->
<g id="Node000018" class="node">
<title>Node18</title>
<g id="a_Node000018"><a xlink:href="filesystem_8c.html#ab92b1f0beb3be903677f3293d0430b62" target="_top" xlink:title=" ">
<polygon fill="white" stroke="#666666" points="666.88,-1077 614.12,-1077 614.12,-1057 666.88,-1057 666.88,-1077"/>
<text text-anchor="middle" x="640.5" y="-1063.5" font-family="Helvetica,sans-Serif" font-size="10.00">read_file</text>
</a>
</g>
</g>
<!-- Node12&#45;&gt;Node18 -->
<g id="edge23_Node000012_Node000018" class="edge">
<title>Node12&#45;&gt;Node18</title>
<g id="a_edge23_Node000012_Node000018"><a xlink:title=" ">
<path fill="none" stroke="#63b8ff" d="M377.4,-1020.39C395.38,-1024.9 416.94,-1030.04 436.5,-1034 494.15,-1045.67 561.67,-1055.98 602.48,-1061.86"/>
<polygon fill="#63b8ff" stroke="#63b8ff" points="601.86,-1065.3 612.25,-1063.25 602.84,-1058.37 601.86,-1065.3"/>
</a>
</g>
</g>
<!-- Node19 -->
<g id="Node000019" class="node">
<title>Node19</title>
<g id="a_Node000019"><a xlink:href="filesystem_8c.html#a8e5a51c709e9d6229c1974435475292a" target="_top" xlink:title=" ">
<polygon fill="white" stroke="#666666" points="521.5,-925 466.5,-925 466.5,-905 521.5,-905 521.5,-925"/>
<text text-anchor="middle" x="494" y="-911.5" font-family="Helvetica,sans-Serif" font-size="10.00">write_file</text>
</a>
</g>
</g>
<!-- Node12&#45;&gt;Node19 -->
<g id="edge26_Node000012_Node000019" class="edge">
<title>Node12&#45;&gt;Node19</title>
<g id="a_edge26_Node000012_Node000019"><a xlink:title=" ">
<path fill="none" stroke="#63b8ff" d="M375.82,-999.61C384.47,-996.16 393.24,-991.7 400.5,-986 422.62,-968.66 414.04,-950.9 436.5,-934 442.2,-929.71 448.92,-926.36 455.71,-923.74"/>
<polygon fill="#63b8ff" stroke="#63b8ff" points="456.47,-927.18 464.85,-920.69 454.25,-920.54 456.47,-927.18"/>
</a>
</g>
</g>
<!-- Node14&#45;&gt;Node15 -->
<g id="edge20_Node000014_Node000015" class="edge">
<title>Node14&#45;&gt;Node15</title>
<g id="a_edge20_Node000014_Node000015"><a xlink:title=" ">
<path fill="none" stroke="#63b8ff" d="M523.2,-998.42C549.15,-1005.24 587.37,-1015.29 612.82,-1021.98"/>
<polygon fill="#63b8ff" stroke="#63b8ff" points="611.83,-1025.34 622.39,-1024.5 613.61,-1018.57 611.83,-1025.34"/>
</a>
</g>
</g>
<!-- Node16 -->
<g id="Node000016" class="node">
<title>Node16</title>
<g id="a_Node000016"><a xlink:href="utilities_2src_2log_8c.html#a4b048be24c6c7f622a6bc6c6bf8ac435" target="_top" xlink:title=" ">
<polygon fill="white" stroke="#666666" points="847.5,-1058 729.5,-1058 729.5,-1038 847.5,-1038 847.5,-1058"/>
<text text-anchor="middle" x="788.5" y="-1044.5" font-family="Helvetica,sans-Serif" font-size="10.00">get_current_task_name</text>
</a>
</g>
</g>
<!-- Node15&#45;&gt;Node16 -->
<g id="edge21_Node000015_Node000016" class="edge">
<title>Node15&#45;&gt;Node16</title>
<g id="a_edge21_Node000015_Node000016"><a xlink:title=" ">
<path fill="none" stroke="#63b8ff" d="M657.12,-1031.03C671.92,-1032.96 695.2,-1035.99 718.03,-1038.96"/>
<polygon fill="#63b8ff" stroke="#63b8ff" points="717.29,-1042.39 727.65,-1040.21 718.19,-1035.45 717.29,-1042.39"/>
</a>
</g>
</g>
<!-- Node18&#45;&gt;Node16 -->
<g id="edge24_Node000018_Node000016" class="edge">
<title>Node18&#45;&gt;Node16</title>
<g id="a_edge24_Node000018_Node000016"><a xlink:title=" ">
<path fill="none" stroke="#63b8ff" d="M667.27,-1063.65C681.5,-1061.79 699.94,-1059.39 718.08,-1057.03"/>
<polygon fill="#63b8ff" stroke="#63b8ff" points="718.33,-1060.53 727.8,-1055.77 717.43,-1053.59 718.33,-1060.53"/>
</a>
</g>
</g>
<!-- Node20&#45;&gt;Node8 -->
<g id="edge28_Node000020_Node000008" class="edge">
<title>Node20&#45;&gt;Node8</title>
<g id="a_edge28_Node000020_Node000008"><a xlink:title=" ">
<path fill="none" stroke="#63b8ff" d="M377.15,-583.98C385.29,-581.28 393.49,-577.7 400.5,-573 437.34,-548.26 466.86,-504.43 481.97,-478.93"/>
<polygon fill="#63b8ff" stroke="#63b8ff" points="484.85,-480.96 486.79,-470.55 478.78,-477.47 484.85,-480.96"/>
</a>
</g>
</g>
<!-- Node21&#45;&gt;Node8 -->
<g id="edge30_Node000021_Node000008" class="edge">
<title>Node21&#45;&gt;Node8</title>
<g id="a_edge30_Node000021_Node000008"><a xlink:title=" ">
<path fill="none" stroke="#63b8ff" d="M368.97,-547.15C379.35,-544.2 390.74,-540.21 400.5,-535 429.49,-519.51 457.96,-494.16 475.49,-477.04"/>
<polygon fill="#63b8ff" stroke="#63b8ff" points="477.49,-479.99 482.1,-470.45 472.55,-475.03 477.49,-479.99"/>
</a>
</g>
</g>
<!-- Node22&#45;&gt;Node8 -->
<g id="edge32_Node000022_Node000008" class="edge">
<title>Node22&#45;&gt;Node8</title>
<g id="a_edge32_Node000022_Node000008"><a xlink:title=" ">
<path fill="none" stroke="#63b8ff" d="M368.84,-507.21C379,-504.18 390.29,-500.63 400.5,-497 420.14,-490.02 441.71,-481.22 459.07,-473.86"/>
<polygon fill="#63b8ff" stroke="#63b8ff" points="460.08,-477.23 467.9,-470.08 457.33,-470.8 460.08,-477.23"/>
</a>
</g>
</g>
<!-- Node23&#45;&gt;Node8 -->
<g id="edge34_Node000023_Node000008" class="edge">
<title>Node23&#45;&gt;Node8</title>
<g id="a_edge34_Node000023_Node000008"><a xlink:title=" ">
<path fill="none" stroke="#63b8ff" d="M369.07,-474.16C385.15,-472.19 405.4,-469.71 424.83,-467.34"/>
<polygon fill="#63b8ff" stroke="#63b8ff" points="425.14,-470.82 434.64,-466.14 424.29,-463.88 425.14,-470.82"/>
</a>
</g>
</g>
<!-- Node24&#45;&gt;Node8 -->
<g id="edge36_Node000024_Node000008" class="edge">
<title>Node24&#45;&gt;Node8</title>
<g id="a_edge36_Node000024_Node000008"><a xlink:title=" ">
<path fill="none" stroke="#63b8ff" d="M400.82,-447.73C408.82,-448.71 417.02,-449.71 425.09,-450.7"/>
<polygon fill="#63b8ff" stroke="#63b8ff" points="424.5,-454.15 434.85,-451.89 425.35,-447.2 424.5,-454.15"/>
</a>
</g>
</g>
<!-- Node25&#45;&gt;Node8 -->
<g id="edge38_Node000025_Node000008" class="edge">
<title>Node25&#45;&gt;Node8</title>
<g id="a_edge38_Node000025_Node000008"><a xlink:title=" ">
<path fill="none" stroke="#63b8ff" d="M374.39,-412.46C383.01,-415.09 392.12,-418.02 400.5,-421 420.14,-427.98 441.71,-436.78 459.07,-444.14"/>
<polygon fill="#63b8ff" stroke="#63b8ff" points="457.33,-447.2 467.9,-447.92 460.08,-440.77 457.33,-447.2"/>
</a>
</g>
</g>
<!-- Node29&#45;&gt;Node8 -->
<g id="edge43_Node000029_Node000008" class="edge">
<title>Node29&#45;&gt;Node8</title>
<g id="a_edge43_Node000029_Node000008"><a xlink:title=" ">
<path fill="none" stroke="#63b8ff" d="M371.88,-371.7C381.45,-374.55 391.65,-378.27 400.5,-383 429.49,-398.49 457.96,-423.84 475.49,-440.96"/>
<polygon fill="#63b8ff" stroke="#63b8ff" points="472.55,-442.97 482.1,-447.55 477.49,-438.01 472.55,-442.97"/>
</a>
</g>
</g>
<!-- Node30&#45;&gt;Node8 -->
<g id="edge45_Node000030_Node000008" class="edge">
<title>Node30&#45;&gt;Node8</title>
<g id="a_edge45_Node000030_Node000008"><a xlink:title=" ">
<path fill="none" stroke="#63b8ff" d="M371.9,-332.39C381.68,-335.23 391.98,-339.28 400.5,-345 437.34,-369.74 466.86,-413.57 481.97,-439.07"/>
<polygon fill="#63b8ff" stroke="#63b8ff" points="478.78,-440.53 486.79,-447.45 484.85,-437.04 478.78,-440.53"/>
</a>
</g>
</g>
<!-- Node31&#45;&gt;Node8 -->
<g id="edge47_Node000031_Node000008" class="edge">
<title>Node31&#45;&gt;Node8</title>
<g id="a_edge47_Node000031_Node000008"><a xlink:title=" ">
<path fill="none" stroke="#63b8ff" d="M377.33,-295.21C385.54,-297.97 393.74,-301.76 400.5,-307 445.53,-341.86 473.68,-405.34 485.9,-438.14"/>
<polygon fill="#63b8ff" stroke="#63b8ff" points="482.52,-439.07 489.18,-447.3 489.11,-436.71 482.52,-439.07"/>
</a>
</g>
</g>
<!-- Node32&#45;&gt;Node8 -->
<g id="edge49_Node000032_Node000008" class="edge">
<title>Node32&#45;&gt;Node8</title>
<g id="a_edge49_Node000032_Node000008"><a xlink:title=" ">
<path fill="none" stroke="#63b8ff" d="M376.07,-256.2C384.81,-259.01 393.56,-263.08 400.5,-269 453.92,-314.51 479.16,-398.1 488.5,-437.45"/>
<polygon fill="#63b8ff" stroke="#63b8ff" points="485.06,-438.09 490.66,-447.08 491.89,-436.56 485.06,-438.09"/>
</a>
</g>
</g>
<!-- Node33&#45;&gt;Node8 -->
<g id="edge51_Node000033_Node000008" class="edge">
<title>Node33&#45;&gt;Node8</title>
<g id="a_edge51_Node000033_Node000008"><a xlink:title=" ">
<path fill="none" stroke="#63b8ff" d="M378.32,-218.53C386.38,-221.33 394.27,-225.31 400.5,-231 462.68,-287.71 483.94,-392.17 490.43,-437.3"/>
<polygon fill="#63b8ff" stroke="#63b8ff" points="486.95,-437.64 491.73,-447.09 493.89,-436.72 486.95,-437.64"/>
</a>
</g>
</g>
<!-- Node34&#45;&gt;Node8 -->
<g id="edge53_Node000034_Node000008" class="edge">
<title>Node34&#45;&gt;Node8</title>
<g id="a_edge53_Node000034_Node000008"><a xlink:title=" ">
<path fill="none" stroke="#63b8ff" d="M373.31,-178.64C383.13,-181.44 393.1,-185.89 400.5,-193 471.57,-261.2 488.07,-386.8 491.87,-437.21"/>
<polygon fill="#63b8ff" stroke="#63b8ff" points="488.37,-437.32 492.51,-447.07 495.36,-436.87 488.37,-437.32"/>
</a>
</g>
</g>
<!-- Node35&#45;&gt;Node8 -->
<g id="edge55_Node000035_Node000008" class="edge">
<title>Node35&#45;&gt;Node8</title>
<g id="a_edge55_Node000035_Node000008"><a xlink:title=" ">
<path fill="none" stroke="#63b8ff" d="M371.85,-140.01C382.2,-142.76 392.83,-147.35 400.5,-155 480.57,-234.92 491.72,-381.86 492.98,-437.17"/>
<polygon fill="#63b8ff" stroke="#63b8ff" points="489.48,-437.16 493.11,-447.11 496.48,-437.07 489.48,-437.16"/>
</a>
</g>
</g>
<!-- Node37&#45;&gt;Node8 -->
<g id="edge58_Node000037_Node000008" class="edge">
<title>Node37&#45;&gt;Node8</title>
<g id="a_edge58_Node000037_Node000008"><a xlink:title=" ">
<path fill="none" stroke="#63b8ff" d="M380.93,-698.52C388.07,-695.79 394.94,-692.07 400.5,-687 462.68,-630.29 483.94,-525.83 490.43,-480.7"/>
<polygon fill="#63b8ff" stroke="#63b8ff" points="493.89,-481.28 491.73,-470.91 486.95,-480.36 493.89,-481.28"/>
</a>
</g>
</g>
<!-- Node39 -->
<g id="Node000039" class="node">
<title>Node39</title>
<g id="a_Node000039"><a xlink:href="steve_8c.html#aaf3a25d4f1bba70397602d3312c7596d" target="_top" xlink:title=" ">
<polygon fill="white" stroke="#666666" points="385.5,-70 287.75,-70 287.75,-38 385.5,-38 385.5,-70"/>
<text text-anchor="start" x="295.75" y="-56.5" font-family="Helvetica,sans-Serif" font-size="10.00">schedule_recurring</text>
<text text-anchor="middle" x="336.62" y="-44.5" font-family="Helvetica,sans-Serif" font-size="10.00">_job_ms</text>
</a>
</g>
</g>
<!-- Node38&#45;&gt;Node39 -->
<g id="edge60_Node000038_Node000039" class="edge">
<title>Node38&#45;&gt;Node39</title>
<g id="a_edge60_Node000038_Node000039"><a xlink:title=" ">
<path fill="none" stroke="#63b8ff" d="M225.89,-54C241.74,-54 259.55,-54 276.14,-54"/>
<polygon fill="#63b8ff" stroke="#63b8ff" points="275.87,-57.5 285.87,-54 275.87,-50.5 275.87,-57.5"/>
</a>
</g>
</g>
<!-- Node42 -->
<g id="Node000042" class="node">
<title>Node42</title>
<g id="a_Node000042"><a xlink:href="timing_8c.html#afd3999513ea688f512ea1d35aed46a43" target="_top" xlink:title=" ">
<polygon fill="white" stroke="#666666" points="371.25,-20 302,-20 302,0 371.25,0 371.25,-20"/>
<text text-anchor="middle" x="336.62" y="-6.5" font-family="Helvetica,sans-Serif" font-size="10.00">secs_to_ms</text>
</a>
</g>
</g>
<!-- Node38&#45;&gt;Node42 -->
<g id="edge64_Node000038_Node000042" class="edge">
<title>Node38&#45;&gt;Node42</title>
<g id="a_edge64_Node000038_Node000042"><a xlink:title=" ">
<path fill="none" stroke="#63b8ff" d="M225.89,-40.56C246.56,-34.8 270.56,-28.12 290.84,-22.47"/>
<polygon fill="#63b8ff" stroke="#63b8ff" points="291.52,-25.91 300.22,-19.86 289.64,-19.17 291.52,-25.91"/>
</a>
</g>
</g>
<!-- Node39&#45;&gt;Node5 -->
<g id="edge62_Node000039_Node000005" class="edge">
<title>Node39&#45;&gt;Node5</title>
<g id="a_edge62_Node000039_Node000005"><a xlink:title=" ">
<path fill="none" stroke="#63b8ff" d="M385.93,-67.06C406.73,-72.68 430.83,-79.19 450.89,-84.62"/>
<polygon fill="#63b8ff" stroke="#63b8ff" points="449.84,-87.96 460.41,-87.19 451.67,-81.2 449.84,-87.96"/>
</a>
</g>
</g>
<!-- Node40 -->
<g id="Node000040" class="node">
<title>Node40</title>
<g id="a_Node000040"><a xlink:href="steve_8c.html#a799ff818db4199c57a75461bbae98611" target="_top" xlink:title=" ">
<polygon fill="white" stroke="#666666" points="539.12,-65 448.88,-65 448.88,-45 539.12,-45 539.12,-65"/>
<text text-anchor="middle" x="494" y="-51.5" font-family="Helvetica,sans-Serif" font-size="10.00">create_steve_job</text>
</a>
</g>
</g>
<!-- Node39&#45;&gt;Node40 -->
<g id="edge61_Node000039_Node000040" class="edge">
<title>Node39&#45;&gt;Node40</title>
<g id="a_edge61_Node000039_Node000040"><a xlink:title=" ">
<path fill="none" stroke="#63b8ff" d="M385.93,-54.31C402.15,-54.42 420.36,-54.53 437.11,-54.64"/>
<polygon fill="#63b8ff" stroke="#63b8ff" points="436.89,-58.14 446.91,-54.7 436.93,-51.14 436.89,-58.14"/>
</a>
</g>
</g>
<!-- Node41 -->
<g id="Node000041" class="node">
<title>Node41</title>
<g id="a_Node000041"><a xlink:href="timing_8c.html#aca6ceb66dd9a31e6376e1bc478dec3d6" target="_top" xlink:title=" ">
<polygon fill="white" stroke="#666666" points="528.62,-27 459.38,-27 459.38,-7 528.62,-7 528.62,-27"/>
<text text-anchor="middle" x="494" y="-13.5" font-family="Helvetica,sans-Serif" font-size="10.00">ms_to_ticks</text>
</a>
</g>
</g>
<!-- Node39&#45;&gt;Node41 -->
<g id="edge63_Node000039_Node000041" class="edge">
<title>Node39&#45;&gt;Node41</title>
<g id="a_edge63_Node000039_Node000041"><a xlink:title=" ">
<path fill="none" stroke="#63b8ff" d="M385.93,-42.5C405.74,-37.78 428.54,-32.35 447.99,-27.72"/>
<polygon fill="#63b8ff" stroke="#63b8ff" points="448.62,-31.17 457.54,-25.44 447,-24.36 448.62,-31.17"/>
</a>
</g>
</g>
</g>
</svg>
