<?xml version="1.0" encoding="UTF-8" standalone="no"?>
<!DOCTYPE svg PUBLIC "-//W3C//DTD SVG 1.1//EN"
 "http://www.w3.org/Graphics/SVG/1.1/DTD/svg11.dtd">
<!-- Generated by graphviz version 12.1.2 (20240928.0832)
 -->
<!-- Title: schedule_recurring_job_secs Pages: 1 -->
<svg width="366pt" height="110pt"
 viewBox="0.00 0.00 365.75 110.00" xmlns="http://www.w3.org/2000/svg" xmlns:xlink="http://www.w3.org/1999/xlink">
<g id="graph0" class="graph" transform="scale(1 1) rotate(0) translate(4 106)">
<title>schedule_recurring_job_secs</title>
<!-- Node1 -->
<g id="Node000001" class="node">
<title>Node1</title>
<g id="a_Node000001"><a xlink:title=" ">
<polygon fill="#999999" stroke="#666666" points="97.75,-48 0,-48 0,-16 97.75,-16 97.75,-48"/>
<text text-anchor="start" x="8" y="-34.5" font-family="Helvetica,sans-Serif" font-size="10.00">schedule_recurring</text>
<text text-anchor="middle" x="48.88" y="-22.5" font-family="Helvetica,sans-Serif" font-size="10.00">_job_secs</text>
</a>
</g>
</g>
<!-- Node2 -->
<g id="Node000002" class="node">
<title>Node2</title>
<g id="a_Node000002"><a xlink:href="steve_8c.html#aaf3a25d4f1bba70397602d3312c7596d" target="_top" xlink:title=" ">
<polygon fill="white" stroke="#666666" points="231.5,-70 133.75,-70 133.75,-38 231.5,-38 231.5,-70"/>
<text text-anchor="start" x="141.75" y="-56.5" font-family="Helvetica,sans-Serif" font-size="10.00">schedule_recurring</text>
<text text-anchor="middle" x="182.62" y="-44.5" font-family="Helvetica,sans-Serif" font-size="10.00">_job_ms</text>
</a>
</g>
</g>
<!-- Node1&#45;&gt;Node2 -->
<g id="edge1_Node000001_Node000002" class="edge">
<title>Node1&#45;&gt;Node2</title>
<g id="a_edge1_Node000001_Node000002"><a xlink:title=" ">
<path fill="none" stroke="#63b8ff" d="M98.19,-40.07C105.97,-41.37 114.11,-42.73 122.13,-44.06"/>
<polygon fill="#63b8ff" stroke="#63b8ff" points="121.39,-47.49 131.83,-45.68 122.54,-40.59 121.39,-47.49"/>
</a>
</g>
</g>
<!-- Node6 -->
<g id="Node000006" class="node">
<title>Node6</title>
<g id="a_Node000006"><a xlink:href="timing_8c.html#afd3999513ea688f512ea1d35aed46a43" target="_top" xlink:title=" ">
<polygon fill="white" stroke="#666666" points="217.25,-20 148,-20 148,0 217.25,0 217.25,-20"/>
<text text-anchor="middle" x="182.62" y="-6.5" font-family="Helvetica,sans-Serif" font-size="10.00">secs_to_ms</text>
</a>
</g>
</g>
<!-- Node1&#45;&gt;Node6 -->
<g id="edge5_Node000001_Node000006" class="edge">
<title>Node1&#45;&gt;Node6</title>
<g id="a_edge5_Node000001_Node000006"><a xlink:title=" ">
<path fill="none" stroke="#63b8ff" d="M98.19,-23.93C110.78,-21.83 124.3,-19.57 136.71,-17.5"/>
<polygon fill="#63b8ff" stroke="#63b8ff" points="136.96,-21.01 146.25,-15.91 135.81,-14.1 136.96,-21.01"/>
</a>
</g>
</g>
<!-- Node3 -->
<g id="Node000003" class="node">
<title>Node3</title>
<g id="a_Node000003"><a xlink:href="steve_8c.html#a799ff818db4199c57a75461bbae98611" target="_top" xlink:title=" ">
<polygon fill="white" stroke="#666666" points="357.75,-102 267.5,-102 267.5,-82 357.75,-82 357.75,-102"/>
<text text-anchor="middle" x="312.62" y="-88.5" font-family="Helvetica,sans-Serif" font-size="10.00">create_steve_job</text>
</a>
</g>
</g>
<!-- Node2&#45;&gt;Node3 -->
<g id="edge2_Node000002_Node000003" class="edge">
<title>Node2&#45;&gt;Node3</title>
<g id="a_edge2_Node000002_Node000003"><a xlink:title=" ">
<path fill="none" stroke="#63b8ff" d="M231.65,-68.26C242.82,-71.57 254.69,-75.1 265.77,-78.39"/>
<polygon fill="#63b8ff" stroke="#63b8ff" points="264.49,-81.66 275.07,-81.15 266.48,-74.95 264.49,-81.66"/>
</a>
</g>
</g>
<!-- Node4 -->
<g id="Node000004" class="node">
<title>Node4</title>
<g id="a_Node000004"><a xlink:href="timing_8c.html#a7cef17ffb0e9db503a077191e1a4b013" target="_top" xlink:title=" ">
<polygon fill="white" stroke="#666666" points="344.62,-64 280.62,-64 280.62,-44 344.62,-44 344.62,-64"/>
<text text-anchor="middle" x="312.62" y="-50.5" font-family="Helvetica,sans-Serif" font-size="10.00">get_uptime</text>
</a>
</g>
</g>
<!-- Node2&#45;&gt;Node4 -->
<g id="edge3_Node000002_Node000004" class="edge">
<title>Node2&#45;&gt;Node4</title>
<g id="a_edge3_Node000002_Node000004"><a xlink:title=" ">
<path fill="none" stroke="#63b8ff" d="M231.65,-54C243.89,-54 256.96,-54 268.91,-54"/>
<polygon fill="#63b8ff" stroke="#63b8ff" points="268.9,-57.5 278.9,-54 268.9,-50.5 268.9,-57.5"/>
</a>
</g>
</g>
<!-- Node5 -->
<g id="Node000005" class="node">
<title>Node5</title>
<g id="a_Node000005"><a xlink:href="timing_8c.html#aca6ceb66dd9a31e6376e1bc478dec3d6" target="_top" xlink:title=" ">
<polygon fill="white" stroke="#666666" points="347.25,-26 278,-26 278,-6 347.25,-6 347.25,-26"/>
<text text-anchor="middle" x="312.62" y="-12.5" font-family="Helvetica,sans-Serif" font-size="10.00">ms_to_ticks</text>
</a>
</g>
</g>
<!-- Node2&#45;&gt;Node5 -->
<g id="edge4_Node000002_Node000005" class="edge">
<title>Node2&#45;&gt;Node5</title>
<g id="a_edge4_Node000002_Node000005"><a xlink:title=" ">
<path fill="none" stroke="#63b8ff" d="M231.65,-39.74C243.14,-36.33 255.37,-32.7 266.71,-29.33"/>
<polygon fill="#63b8ff" stroke="#63b8ff" points="267.67,-32.7 276.26,-26.5 265.67,-25.99 267.67,-32.7"/>
</a>
</g>
</g>
</g>
</svg>
