<?xml version="1.0" encoding="UTF-8" standalone="no"?>
<!DOCTYPE svg PUBLIC "-//W3C//DTD SVG 1.1//EN"
 "http://www.w3.org/Graphics/SVG/1.1/DTD/svg11.dtd">
<!-- Generated by graphviz version 2.43.0 (0)
 -->
<!-- Title: steve.h Pages: 1 -->
<svg width="779pt" height="82pt"
 viewBox="0.00 0.00 779.00 82.00" xmlns="http://www.w3.org/2000/svg" xmlns:xlink="http://www.w3.org/1999/xlink">
<g id="graph0" class="graph" transform="scale(1 1) rotate(0) translate(4 78)">
<title>steve.h</title>
<!-- Node1 -->
<g id="Node000001" class="node">
<title>Node1</title>
<g id="a_Node000001"><a xlink:title="S.T.E.V.E (Scheduler Task for Executing Vital Events).">
<polygon fill="#999999" stroke="#666666" points="425,-74 372,-74 372,-55 425,-55 425,-74"/>
<text text-anchor="middle" x="398.5" y="-62" font-family="Helvetica,sans-Serif" font-size="10.00">steve.h</text>
</a>
</g>
</g>
<!-- Node2 -->
<g id="Node000002" class="node">
<title>Node2</title>
<g id="a_Node000002"><a xlink:href="antenna__deploy__job_8c.html" target="_top" xlink:title=" ">
<polygon fill="white" stroke="#666666" points="123,-19 0,-19 0,0 123,0 123,-19"/>
<text text-anchor="middle" x="61.5" y="-7" font-family="Helvetica,sans-Serif" font-size="10.00">antenna_deploy_job.c</text>
</a>
</g>
</g>
<!-- Node1&#45;&gt;Node2 -->
<g id="edge1_Node000001_Node000002" class="edge">
<title>Node1&#45;&gt;Node2</title>
<g id="a_edge1_Node000001_Node000002"><a xlink:title=" ">
<path fill="none" stroke="#63b8ff" d="M361.72,-57.72C302.32,-48.37 184.93,-29.91 115.85,-19.05"/>
<polygon fill="#63b8ff" stroke="#63b8ff" points="361.35,-61.2 371.77,-59.3 362.44,-54.29 361.35,-61.2"/>
</a>
</g>
</g>
<!-- Node3 -->
<g id="Node000003" class="node">
<title>Node3</title>
<g id="a_Node000003"><a xlink:href="command_8c.html" target="_top" xlink:title=" ">
<polygon fill="white" stroke="#666666" points="215.5,-19 141.5,-19 141.5,0 215.5,0 215.5,-19"/>
<text text-anchor="middle" x="178.5" y="-7" font-family="Helvetica,sans-Serif" font-size="10.00">command.c</text>
</a>
</g>
</g>
<!-- Node1&#45;&gt;Node3 -->
<g id="edge2_Node000001_Node000003" class="edge">
<title>Node1&#45;&gt;Node3</title>
<g id="a_edge2_Node000001_Node000003"><a xlink:title=" ">
<path fill="none" stroke="#63b8ff" d="M362.09,-54.73C320.97,-44.82 254.52,-28.82 213.85,-19.02"/>
<polygon fill="#63b8ff" stroke="#63b8ff" points="361.42,-58.17 371.96,-57.11 363.06,-51.36 361.42,-58.17"/>
</a>
</g>
</g>
<!-- Node4 -->
<g id="Node000004" class="node">
<title>Node4</title>
<g id="a_Node000004"><a xlink:href="command__fuzzer_8cpp.html" target="_top" xlink:title=" ">
<polygon fill="white" stroke="#666666" points="355,-19 234,-19 234,0 355,0 355,-19"/>
<text text-anchor="middle" x="294.5" y="-7" font-family="Helvetica,sans-Serif" font-size="10.00">command_fuzzer.cpp</text>
</a>
</g>
</g>
<!-- Node1&#45;&gt;Node4 -->
<g id="edge3_Node000001_Node000004" class="edge">
<title>Node1&#45;&gt;Node4</title>
<g id="a_edge3_Node000001_Node000004"><a xlink:title=" ">
<path fill="none" stroke="#63b8ff" d="M372.73,-50.37C353.63,-40.63 328.13,-27.64 311.51,-19.17"/>
<polygon fill="#63b8ff" stroke="#63b8ff" points="371.29,-53.56 381.79,-54.98 374.47,-47.33 371.29,-53.56"/>
</a>
</g>
</g>
<!-- Node5 -->
<g id="Node000005" class="node">
<title>Node5</title>
<g id="a_Node000005"><a xlink:href="main_8c.html" target="_top" xlink:title=" ">
<polygon fill="white" stroke="#666666" points="423.5,-19 373.5,-19 373.5,0 423.5,0 423.5,-19"/>
<text text-anchor="middle" x="398.5" y="-7" font-family="Helvetica,sans-Serif" font-size="10.00">main.c</text>
</a>
</g>
</g>
<!-- Node1&#45;&gt;Node5 -->
<g id="edge4_Node000001_Node000005" class="edge">
<title>Node1&#45;&gt;Node5</title>
<g id="a_edge4_Node000001_Node000005"><a xlink:title=" ">
<path fill="none" stroke="#63b8ff" d="M398.5,-44.66C398.5,-35.93 398.5,-25.99 398.5,-19.09"/>
<polygon fill="#63b8ff" stroke="#63b8ff" points="395,-44.75 398.5,-54.75 402,-44.75 395,-44.75"/>
</a>
</g>
</g>
<!-- Node6 -->
<g id="Node000006" class="node">
<title>Node6</title>
<g id="a_Node000006"><a xlink:href="miscellaneous__jobs_8c.html" target="_top" xlink:title=" ">
<polygon fill="white" stroke="#666666" points="563,-19 442,-19 442,0 563,0 563,-19"/>
<text text-anchor="middle" x="502.5" y="-7" font-family="Helvetica,sans-Serif" font-size="10.00">miscellaneous_jobs.c</text>
</a>
</g>
</g>
<!-- Node1&#45;&gt;Node6 -->
<g id="edge5_Node000001_Node000006" class="edge">
<title>Node1&#45;&gt;Node6</title>
<g id="a_edge5_Node000001_Node000006"><a xlink:title=" ">
<path fill="none" stroke="#63b8ff" d="M424.27,-50.37C443.37,-40.63 468.87,-27.64 485.49,-19.17"/>
<polygon fill="#63b8ff" stroke="#63b8ff" points="422.53,-47.33 415.21,-54.98 425.71,-53.56 422.53,-47.33"/>
</a>
</g>
</g>
<!-- Node7 -->
<g id="Node000007" class="node">
<title>Node7</title>
<g id="a_Node000007"><a xlink:href="steve_8c.html" target="_top" xlink:title=" ">
<polygon fill="white" stroke="#666666" points="633.5,-19 581.5,-19 581.5,0 633.5,0 633.5,-19"/>
<text text-anchor="middle" x="607.5" y="-7" font-family="Helvetica,sans-Serif" font-size="10.00">steve.c</text>
</a>
</g>
</g>
<!-- Node1&#45;&gt;Node7 -->
<g id="edge6_Node000001_Node000007" class="edge">
<title>Node1&#45;&gt;Node7</title>
<g id="a_edge6_Node000001_Node000007"><a xlink:title=" ">
<path fill="none" stroke="#63b8ff" d="M435.2,-54.19C477.07,-43.57 544.5,-26.48 581.37,-17.13"/>
<polygon fill="#63b8ff" stroke="#63b8ff" points="434.23,-50.83 425.4,-56.68 435.95,-57.61 434.23,-50.83"/>
</a>
</g>
</g>
<!-- Node8 -->
<g id="Node000008" class="node">
<title>Node8</title>
<g id="a_Node000008"><a xlink:href="steve__test__unittest_8c.html" target="_top" xlink:title=" ">
<polygon fill="white" stroke="#666666" points="771,-19 652,-19 652,0 771,0 771,-19"/>
<text text-anchor="middle" x="711.5" y="-7" font-family="Helvetica,sans-Serif" font-size="10.00">steve_test_unittest.c</text>
</a>
</g>
</g>
<!-- Node1&#45;&gt;Node8 -->
<g id="edge7_Node000001_Node000008" class="edge">
<title>Node1&#45;&gt;Node8</title>
<g id="a_edge7_Node000001_Node000008"><a xlink:title=" ">
<path fill="none" stroke="#63b8ff" d="M435.36,-57.26C491.38,-47.77 598.09,-29.7 661.2,-19.02"/>
<polygon fill="#63b8ff" stroke="#63b8ff" points="434.46,-53.86 425.19,-58.98 435.63,-60.76 434.46,-53.86"/>
</a>
</g>
</g>
</g>
</svg>
