<?xml version="1.0" encoding="UTF-8" standalone="no"?>
<!DOCTYPE svg PUBLIC "-//W3C//DTD SVG 1.1//EN"
 "http://www.w3.org/Graphics/SVG/1.1/DTD/svg11.dtd">
<!-- Generated by graphviz version 12.1.2 (20240928.0832)
 -->
<!-- Title: run_steve_job Pages: 1 -->
<svg width="367pt" height="66pt"
 viewBox="0.00 0.00 366.50 66.00" xmlns="http://www.w3.org/2000/svg" xmlns:xlink="http://www.w3.org/1999/xlink">
<g id="graph0" class="graph" transform="scale(1 1) rotate(0) translate(4 62)">
<title>run_steve_job</title>
<!-- Node1 -->
<g id="Node000001" class="node">
<title>Node1</title>
<g id="a_Node000001"><a xlink:title=" ">
<polygon fill="#999999" stroke="#666666" points="76.75,-39 0,-39 0,-19 76.75,-19 76.75,-39"/>
<text text-anchor="middle" x="38.38" y="-25.5" font-family="Helvetica,sans-Serif" font-size="10.00">run_steve_job</text>
</a>
</g>
</g>
<!-- Node2 -->
<g id="Node000002" class="node">
<title>Node2</title>
<g id="a_Node000002"><a xlink:href="steve_8c.html#a94f8eaec20f9dd9819b29e3e4fd6429b" target="_top" xlink:title=" ">
<polygon fill="white" stroke="#666666" points="202.25,-58 112.75,-58 112.75,-38 202.25,-38 202.25,-58"/>
<text text-anchor="middle" x="157.5" y="-44.5" font-family="Helvetica,sans-Serif" font-size="10.00">delete_steve_job</text>
</a>
</g>
</g>
<!-- Node1&#45;&gt;Node2 -->
<g id="edge1_Node000001_Node000002" class="edge">
<title>Node1&#45;&gt;Node2</title>
<g id="a_edge1_Node000001_Node000002"><a xlink:title=" ">
<path fill="none" stroke="#63b8ff" d="M77.08,-35.12C84.71,-36.36 92.9,-37.68 101,-39"/>
<polygon fill="#63b8ff" stroke="#63b8ff" points="100.41,-42.45 110.84,-40.59 101.53,-35.54 100.41,-42.45"/>
</a>
</g>
</g>
<!-- Node4 -->
<g id="Node000004" class="node">
<title>Node4</title>
<g id="a_Node000004"><a xlink:href="timing_8c.html#a7cef17ffb0e9db503a077191e1a4b013" target="_top" xlink:title=" ">
<polygon fill="white" stroke="#666666" points="189.5,-20 125.5,-20 125.5,0 189.5,0 189.5,-20"/>
<text text-anchor="middle" x="157.5" y="-6.5" font-family="Helvetica,sans-Serif" font-size="10.00">get_uptime</text>
</a>
</g>
</g>
<!-- Node1&#45;&gt;Node4 -->
<g id="edge3_Node000001_Node000004" class="edge">
<title>Node1&#45;&gt;Node4</title>
<g id="a_edge3_Node000001_Node000004"><a xlink:title=" ">
<path fill="none" stroke="#63b8ff" d="M77.08,-22.88C88.84,-20.98 101.88,-18.86 113.95,-16.9"/>
<polygon fill="#63b8ff" stroke="#63b8ff" points="114.34,-20.39 123.65,-15.33 113.22,-13.48 114.34,-20.39"/>
</a>
</g>
</g>
<!-- Node3 -->
<g id="Node000003" class="node">
<title>Node3</title>
<g id="a_Node000003"><a xlink:href="steve_8c.html#a3b9cfae7f649f5fb0fa35e0319f8f06e" target="_top" xlink:title=" ">
<polygon fill="white" stroke="#666666" points="358.5,-58 238.25,-58 238.25,-38 358.5,-38 358.5,-58"/>
<text text-anchor="middle" x="298.38" y="-44.5" font-family="Helvetica,sans-Serif" font-size="10.00">cleanup_steve_jobs_list</text>
</a>
</g>
</g>
<!-- Node2&#45;&gt;Node3 -->
<g id="edge2_Node000002_Node000003" class="edge">
<title>Node2&#45;&gt;Node3</title>
<g id="a_edge2_Node000002_Node000003"><a xlink:title=" ">
<path fill="none" stroke="#63b8ff" d="M202.44,-48C210.2,-48 218.45,-48 226.72,-48"/>
<polygon fill="#63b8ff" stroke="#63b8ff" points="226.46,-51.5 236.46,-48 226.46,-44.5 226.46,-51.5"/>
</a>
</g>
</g>
</g>
</svg>
