<?xml version="1.0" encoding="UTF-8" standalone="no"?>
<!DOCTYPE svg PUBLIC "-//W3C//DTD SVG 1.1//EN"
 "http://www.w3.org/Graphics/SVG/1.1/DTD/svg11.dtd">
<!-- Generated by graphviz version 2.43.0 (0)
 -->
<!-- Title: filesystem_queue_operations_t Pages: 1 -->
<!--zoomable 308 -->

<svg id="main" version="1.1" xmlns="http://www.w3.org/2000/svg" xmlns:xlink="http://www.w3.org/1999/xlink" xml:space="preserve" onload="init(evt)">

<style type="text/css"><![CDATA[
.node, .edge {opacity: 0.7;}
.node.selected, .edge.selected {opacity: 1;}
.edge:hover path { stroke: red; }
.edge:hover polygon { stroke: red; fill: red; }
]]></style>

<defs>
  <circle id="rim" cx="0" cy="0" r="7"/>
  <circle id="rim2" cx="0" cy="0" r="3.5"/>
  <g id="zoomPlus">
    <use xlink:href="#rim" fill="#404040"><set attributeName="fill" to="#808080" begin="zoomplus.mouseover" end="zoomplus.mouseout"/></use>
    <path d="M-4,0h8M0,-4v8" fill="none" stroke="white" stroke-width="1.5" pointer-events="none"/>
  </g>
  <g id="zoomMin">
    <use xlink:href="#rim" fill="#404040"><set attributeName="fill" to="#808080" begin="zoomminus.mouseover" end="zoomminus.mouseout"/></use>
    <path d="M-4,0h8" fill="none" stroke="white" stroke-width="1.5" pointer-events="none"/>
  </g>
  <g id="arrowUp" transform="translate(30 24)">
    <use xlink:href="#rim"/>
    <path pointer-events="none" fill="none" stroke="white" stroke-width="1.5" d="M0,-3.0v7 M-2.5,-0.5L0,-3.0L2.5,-0.5"/>
  </g>
  <g id="arrowRight" transform="rotate(90) translate(36 -43)">
    <use xlink:href="#rim"/>
    <path pointer-events="none" fill="none" stroke="white" stroke-width="1.5" d="M0,-3.0v7 M-2.5,-0.5L0,-3.0L2.5,-0.5"/>
  </g>
  <g id="arrowDown" transform="rotate(180) translate(-30 -48)">
    <use xlink:href="#rim"/>
    <path pointer-events="none" fill="none" stroke="white" stroke-width="1.5" d="M0,-3.0v7 M-2.5,-0.5L0,-3.0L2.5,-0.5"/>
  </g>
  <g id="arrowLeft" transform="rotate(270) translate(-36 17)">
    <use xlink:href="#rim"/>
    <path pointer-events="none" fill="none" stroke="white" stroke-width="1.5" d="M0,-3.0v7 M-2.5,-0.5L0,-3.0L2.5,-0.5"/>
  </g>
  <g id="resetDef">
    <use xlink:href="#rim2" fill="#404040"><set attributeName="fill" to="#808080" begin="reset.mouseover" end="reset.mouseout"/></use>
  </g>
</defs>
<script type="application/ecmascript">
var viewWidth = 668;
var viewHeight = 308;
var sectionId = 'dynsection-0';
</script>
<script type="application/ecmascript" xlink:href="svg.min.js"/>
<svg id="graph" class="graph">
<g id="viewport">
<title>filesystem_queue_operations_t</title>
<!-- Node1 -->
<g id="Node000001" class="node">
<title>Node1</title>
<g id="a_Node000001"><a xlink:title=" ">
<polygon fill="#999999" stroke="#666666" points="660,-159 490,-159 490,-140 660,-140 660,-159"/>
<text text-anchor="middle" x="575" y="-147" font-family="Helvetica,sans-Serif" font-size="10.00">filesystem_queue_operations_t</text>
</a>
</g>
</g>
<!-- Node2 -->
<g id="Node000002" class="node">
<title>Node2</title>
<g id="a_Node000002"><a xlink:href="unionfile__operation__union__t.html" target="_top" xlink:title=" ">
<polygon fill="white" stroke="#666666" points="380,-159 255,-159 255,-140 380,-140 380,-159"/>
<text text-anchor="middle" x="317.5" y="-147" font-family="Helvetica,sans-Serif" font-size="10.00">file_operation_union_t</text>
</a>
</g>
</g>
<!-- Node2&#45;&gt;Node1 -->
<g id="edge1_Node000001_Node000002" class="edge">
<title>Node2&#45;&gt;Node1</title>
<g id="a_edge1_Node000001_Node000002"><a xlink:title=" ">
<path fill="none" stroke="#9a32cd" stroke-dasharray="5,2" d="M390.29,-149.5C421.24,-149.5 457.63,-149.5 489.84,-149.5"/>
<polygon fill="#9a32cd" stroke="#9a32cd" points="390.02,-146 380.02,-149.5 390.02,-153 390.02,-146"/>
</a>
</g>
<text text-anchor="start" x="401" y="-155" font-family="Helvetica,sans-Serif" font-size="10.00" fill="grey">file_operation</text>
</g>
<!-- Node3 -->
<g id="Node000003" class="node">
<title>Node3</title>
<g id="a_Node000003"><a xlink:href="structread__operation__t.html" target="_top" xlink:title=" ">
<polygon fill="white" stroke="#666666" points="126,-299 27,-299 27,-280 126,-280 126,-299"/>
<text text-anchor="middle" x="76.5" y="-287" font-family="Helvetica,sans-Serif" font-size="10.00">read_operation_t</text>
</a>
</g>
</g>
<!-- Node3&#45;&gt;Node2 -->
<g id="edge2_Node000002_Node000003" class="edge">
<title>Node3&#45;&gt;Node2</title>
<g id="a_edge2_Node000002_Node000003"><a xlink:title=" ">
<path fill="none" stroke="#9a32cd" stroke-dasharray="5,2" d="M136.35,-288.35C168.25,-285.31 207.14,-277.48 237,-258.5 276.53,-233.37 302.82,-180.98 312.43,-159.26"/>
<polygon fill="#9a32cd" stroke="#9a32cd" points="135.94,-284.87 126.26,-289.18 136.51,-291.85 135.94,-284.87"/>
</a>
</g>
<text text-anchor="start" x="184" y="-288" font-family="Helvetica,sans-Serif" font-size="10.00" fill="grey">read_op</text>
</g>
<!-- Node4 -->
<g id="Node000004" class="node">
<title>Node4</title>
<g id="a_Node000004"><a xlink:href="structwrite__operation__t.html" target="_top" xlink:title=" ">
<polygon fill="white" stroke="#666666" points="127.5,-259 25.5,-259 25.5,-240 127.5,-240 127.5,-259"/>
<text text-anchor="middle" x="76.5" y="-247" font-family="Helvetica,sans-Serif" font-size="10.00">write_operation_t</text>
</a>
</g>
</g>
<!-- Node4&#45;&gt;Node2 -->
<g id="edge3_Node000002_Node000004" class="edge">
<title>Node4&#45;&gt;Node2</title>
<g id="a_edge3_Node000002_Node000004"><a xlink:title=" ">
<path fill="none" stroke="#9a32cd" stroke-dasharray="5,2" d="M137.89,-244.15C168.73,-239.68 206.15,-231.48 237,-216.5 266.55,-202.15 294.27,-174.34 307.82,-159.46"/>
<polygon fill="#9a32cd" stroke="#9a32cd" points="137.14,-240.72 127.7,-245.53 138.08,-247.66 137.14,-240.72"/>
</a>
</g>
<text text-anchor="start" x="183" y="-243" font-family="Helvetica,sans-Serif" font-size="10.00" fill="grey">write_op</text>
</g>
<!-- Node5 -->
<g id="Node000005" class="node">
<title>Node5</title>
<g id="a_Node000005"><a xlink:href="structlist__directory__operation__t.html" target="_top" xlink:title=" ">
<polygon fill="white" stroke="#666666" points="147,-219 6,-219 6,-200 147,-200 147,-219"/>
<text text-anchor="middle" x="76.5" y="-207" font-family="Helvetica,sans-Serif" font-size="10.00">list_directory_operation_t</text>
</a>
</g>
</g>
<!-- Node5&#45;&gt;Node2 -->
<g id="edge4_Node000002_Node000005" class="edge">
<title>Node5&#45;&gt;Node2</title>
<g id="a_edge4_Node000002_Node000005"><a xlink:title=" ">
<path fill="none" stroke="#9a32cd" stroke-dasharray="5,2" d="M157.37,-198.84C183.06,-194.52 211.46,-188.79 237,-181.5 257.6,-175.62 280.18,-166.23 295.99,-159.14"/>
<polygon fill="#9a32cd" stroke="#9a32cd" points="156.61,-195.41 147.3,-200.48 157.74,-202.32 156.61,-195.41"/>
</a>
</g>
<text text-anchor="start" x="191" y="-201" font-family="Helvetica,sans-Serif" font-size="10.00" fill="grey">ls_op</text>
</g>
<!-- Node6 -->
<g id="Node000006" class="node">
<title>Node6</title>
<g id="a_Node000006"><a xlink:href="structdelete__operation__t.html" target="_top" xlink:title=" ">
<polygon fill="white" stroke="#666666" points="130.5,-179 22.5,-179 22.5,-160 130.5,-160 130.5,-179"/>
<text text-anchor="middle" x="76.5" y="-167" font-family="Helvetica,sans-Serif" font-size="10.00">delete_operation_t</text>
</a>
</g>
</g>
<!-- Node6&#45;&gt;Node2 -->
<g id="edge5_Node000002_Node000006" class="edge">
<title>Node6&#45;&gt;Node2</title>
<g id="a_edge5_Node000002_Node000006"><a xlink:title=" ">
<path fill="none" stroke="#9a32cd" stroke-dasharray="5,2" d="M140.72,-164.21C175.98,-161.26 219.71,-157.6 254.73,-154.67"/>
<polygon fill="#9a32cd" stroke="#9a32cd" points="140.22,-160.74 130.54,-165.06 140.8,-167.72 140.22,-160.74"/>
</a>
</g>
<text text-anchor="start" x="180" y="-166" font-family="Helvetica,sans-Serif" font-size="10.00" fill="grey">delete_op</text>
</g>
<!-- Node7 -->
<g id="Node000007" class="node">
<title>Node7</title>
<g id="a_Node000007"><a xlink:href="structmake__directory__operation__t.html" target="_top" xlink:title=" ">
<polygon fill="white" stroke="#666666" points="153,-139 0,-139 0,-120 153,-120 153,-139"/>
<text text-anchor="middle" x="76.5" y="-127" font-family="Helvetica,sans-Serif" font-size="10.00">make_directory_operation_t</text>
</a>
</g>
</g>
<!-- Node7&#45;&gt;Node2 -->
<g id="edge6_Node000002_Node000007" class="edge">
<title>Node7&#45;&gt;Node2</title>
<g id="a_edge6_Node000002_Node000007"><a xlink:title=" ">
<path fill="none" stroke="#9a32cd" stroke-dasharray="5,2" d="M163.22,-130.57C187.15,-131.45 213.13,-132.96 237,-135.5 247.31,-136.6 258.31,-138.23 268.72,-140"/>
<polygon fill="#9a32cd" stroke="#9a32cd" points="163.22,-127.07 153.11,-130.23 162.98,-134.06 163.22,-127.07"/>
</a>
</g>
<text text-anchor="start" x="181" y="-141" font-family="Helvetica,sans-Serif" font-size="10.00" fill="grey">mkdir_op</text>
</g>
<!-- Node8 -->
<g id="Node000008" class="node">
<title>Node8</title>
<g id="a_Node000008"><a xlink:href="structopen__directory__operation__t.html" target="_top" xlink:title=" ">
<polygon fill="white" stroke="#666666" points="151.5,-99 1.5,-99 1.5,-80 151.5,-80 151.5,-99"/>
<text text-anchor="middle" x="76.5" y="-87" font-family="Helvetica,sans-Serif" font-size="10.00">open_directory_operation_t</text>
</a>
</g>
</g>
<!-- Node8&#45;&gt;Node2 -->
<g id="edge7_Node000002_Node000008" class="edge">
<title>Node8&#45;&gt;Node2</title>
<g id="a_edge7_Node000002_Node000008"><a xlink:title=" ">
<path fill="none" stroke="#9a32cd" stroke-dasharray="5,2" d="M161.7,-94.63C186.33,-97.58 213.07,-102.22 237,-109.5 260.65,-116.7 285.79,-130.52 301.32,-139.88"/>
<polygon fill="#9a32cd" stroke="#9a32cd" points="161.98,-91.14 151.65,-93.51 161.2,-98.1 161.98,-91.14"/>
</a>
</g>
<text text-anchor="start" x="174" y="-115" font-family="Helvetica,sans-Serif" font-size="10.00" fill="grey">open_dir_op</text>
</g>
<!-- Node9 -->
<g id="Node000009" class="node">
<title>Node9</title>
<g id="a_Node000009"><a xlink:href="structread__directory__operation__t.html" target="_top" xlink:title=" ">
<polygon fill="white" stroke="#666666" points="150.5,-59 2.5,-59 2.5,-40 150.5,-40 150.5,-59"/>
<text text-anchor="middle" x="76.5" y="-47" font-family="Helvetica,sans-Serif" font-size="10.00">read_directory_operation_t</text>
</a>
</g>
</g>
<!-- Node9&#45;&gt;Node2 -->
<g id="edge8_Node000002_Node000009" class="edge">
<title>Node9&#45;&gt;Node2</title>
<g id="a_edge8_Node000002_Node000009"><a xlink:title=" ">
<path fill="none" stroke="#9a32cd" stroke-dasharray="5,2" d="M160.57,-53.03C186.06,-56.57 213.56,-63.01 237,-74.5 269.03,-90.2 296.89,-123.29 309.43,-139.76"/>
<polygon fill="#9a32cd" stroke="#9a32cd" points="160.89,-49.54 150.53,-51.76 160.02,-56.48 160.89,-49.54"/>
</a>
</g>
<text text-anchor="start" x="175" y="-80" font-family="Helvetica,sans-Serif" font-size="10.00" fill="grey">read_dir_op</text>
</g>
<!-- Node10 -->
<g id="Node000010" class="node">
<title>Node10</title>
<g id="a_Node000010"><a xlink:href="structstat__operation__t.html" target="_top" xlink:title=" ">
<polygon fill="white" stroke="#666666" points="124.5,-19 28.5,-19 28.5,0 124.5,0 124.5,-19"/>
<text text-anchor="middle" x="76.5" y="-7" font-family="Helvetica,sans-Serif" font-size="10.00">stat_operation_t</text>
</a>
</g>
</g>
<!-- Node10&#45;&gt;Node2 -->
<g id="edge9_Node000002_Node000010" class="edge">
<title>Node10&#45;&gt;Node2</title>
<g id="a_edge9_Node000002_Node000010"><a xlink:title=" ">
<path fill="none" stroke="#9a32cd" stroke-dasharray="5,2" d="M134.71,-7.24C166.95,-8.5 206.7,-14.52 237,-33.5 278.79,-59.68 304.13,-116.77 312.96,-139.69"/>
<polygon fill="#9a32cd" stroke="#9a32cd" points="134.61,-3.73 124.53,-6.98 134.44,-10.73 134.61,-3.73"/>
</a>
</g>
<text text-anchor="start" x="186" y="-39" font-family="Helvetica,sans-Serif" font-size="10.00" fill="grey">stat_op</text>
</g>
</g>
</svg>

<g id="navigator" transform="translate(0 0)" fill="#404254">
  <rect fill="#f2f5e9" fill-opacity="0.5" stroke="#606060" stroke-width=".5" x="0" y="0" width="60" height="60"/>
  <use id="zoomplus" xlink:href="#zoomPlus" x="17" y="9" onmousedown="handleZoom(evt,'in')"/>
  <use id="zoomminus" xlink:href="#zoomMin" x="42" y="9" onmousedown="handleZoom(evt,'out')"/>
  <use id="reset" xlink:href="#resetDef" x="30" y="36" onmousedown="handleReset()"/>
   <use id="arrowup" xlink:href="#arrowUp" x="0" y="0" onmousedown="handlePan(0,-1)"/>
  <use id="arrowright" xlink:href="#arrowRight" x="0" y="0" onmousedown="handlePan(1,0)"/>
  <use id="arrowdown" xlink:href="#arrowDown" x="0" y="0" onmousedown="handlePan(0,1)"/>
  <use id="arrowleft" xlink:href="#arrowLeft" x="0" y="0" onmousedown="handlePan(-1,0)"/>
</g>
<svg viewBox="0 0 15 15" width="100%" height="30px" preserveAspectRatio="xMaxYMin meet">
 <g id="arrow_out" transform="scale(0.3 0.3)">
  <a xlink:href="structfilesystem__queue__operations__t__coll__graph_org.svg" target="_base">
   <rect id="button" ry="5" rx="5" y="6" x="6" height="38" width="38"
        fill="#f2f5e9" fill-opacity="0.5" stroke="#606060" stroke-width="1.0"/>
   <path id="arrow"
     d="M 11.500037,31.436501 C 11.940474,20.09759 22.043105,11.32322 32.158766,21.979434 L 37.068811,17.246167 C 37.068811,17.246167 37.088388,32 37.088388,32 L 22.160133,31.978069 C 22.160133,31.978069 26.997745,27.140456 26.997745,27.140456 C 18.528582,18.264221 13.291696,25.230495 11.500037,31.436501 z"
     style="fill:#404040;"/>
  </a>
 </g>
</svg>

<style type='text/css'>
<![CDATA[
[data-mouse-over-selected='false'] { opacity: 0.7; }
[data-mouse-over-selected='true']  { opacity: 1.0; }
]]>
</style>
<script type="application/ecmascript"><![CDATA[
document.addEventListener('DOMContentLoaded', (event) => {
  highlightEdges();
  highlightAdjacentNodes();
});
]]></script>
</svg>
