<?xml version="1.0" encoding="UTF-8" standalone="no"?>
<!DOCTYPE svg PUBLIC "-//W3C//DTD SVG 1.1//EN"
 "http://www.w3.org/Graphics/SVG/1.1/DTD/svg11.dtd">
<!-- Generated by graphviz version 12.1.2 (20240928.0832)
 -->
<!-- Title: filesystem_queue_operations_t Pages: 1 -->
<!--zoomable 294 -->

<svg id="main" version="1.1" xmlns="http://www.w3.org/2000/svg" xmlns:xlink="http://www.w3.org/1999/xlink" xml:space="preserve" onload="init(evt)">

<style type="text/css"><![CDATA[
.node, .edge {opacity: 0.7;}
.node.selected, .edge.selected {opacity: 1;}
.edge:hover path { stroke: red; }
.edge:hover polygon { stroke: red; fill: red; }
]]></style>

<defs>
  <circle id="rim" cx="0" cy="0" r="7"/>
  <circle id="rim2" cx="0" cy="0" r="3.5"/>
  <g id="zoomPlus">
    <use xlink:href="#rim" fill="#404040"><set attributeName="fill" to="#808080" begin="zoomplus.mouseover" end="zoomplus.mouseout"/></use>
    <path d="M-4,0h8M0,-4v8" fill="none" stroke="white" stroke-width="1.5" pointer-events="none"/>
  </g>
  <g id="zoomMin">
    <use xlink:href="#rim" fill="#404040"><set attributeName="fill" to="#808080" begin="zoomminus.mouseover" end="zoomminus.mouseout"/></use>
    <path d="M-4,0h8" fill="none" stroke="white" stroke-width="1.5" pointer-events="none"/>
  </g>
  <g id="arrowUp" transform="translate(30 24)">
    <use xlink:href="#rim"/>
    <path pointer-events="none" fill="none" stroke="white" stroke-width="1.5" d="M0,-3.0v7 M-2.5,-0.5L0,-3.0L2.5,-0.5"/>
  </g>
  <g id="arrowRight" transform="rotate(90) translate(36 -43)">
    <use xlink:href="#rim"/>
    <path pointer-events="none" fill="none" stroke="white" stroke-width="1.5" d="M0,-3.0v7 M-2.5,-0.5L0,-3.0L2.5,-0.5"/>
  </g>
  <g id="arrowDown" transform="rotate(180) translate(-30 -48)">
    <use xlink:href="#rim"/>
    <path pointer-events="none" fill="none" stroke="white" stroke-width="1.5" d="M0,-3.0v7 M-2.5,-0.5L0,-3.0L2.5,-0.5"/>
  </g>
  <g id="arrowLeft" transform="rotate(270) translate(-36 17)">
    <use xlink:href="#rim"/>
    <path pointer-events="none" fill="none" stroke="white" stroke-width="1.5" d="M0,-3.0v7 M-2.5,-0.5L0,-3.0L2.5,-0.5"/>
  </g>
  <g id="resetDef">
    <use xlink:href="#rim2" fill="#404040"><set attributeName="fill" to="#808080" begin="reset.mouseover" end="reset.mouseout"/></use>
  </g>
</defs>
<script type="application/ecmascript">
var viewWidth = 594;
var viewHeight = 294;
var sectionId = 'dynsection-0';
</script>
<script type="application/ecmascript" xlink:href="svg.min.js"/>
<svg id="graph" class="graph">
<g id="viewport">
<title>filesystem_queue_operations_t</title>
<!-- Node1 -->
<g id="Node000001" class="node">
<title>Node1</title>
<g id="a_Node000001"><a xlink:title=" ">
<polygon fill="#999999" stroke="#666666" points="585.75,-153 434.75,-153 434.75,-133 585.75,-133 585.75,-153"/>
<text text-anchor="middle" x="510.25" y="-139.5" font-family="Helvetica,sans-Serif" font-size="10.00">filesystem_queue_operations_t</text>
</a>
</g>
</g>
<!-- Node2 -->
<g id="Node000002" class="node">
<title>Node2</title>
<g id="a_Node000002"><a xlink:href="unionfile__operation__union__t.html" target="_top" xlink:title=" ">
<polygon fill="white" stroke="#666666" points="338,-153 227.5,-153 227.5,-133 338,-133 338,-153"/>
<text text-anchor="middle" x="282.75" y="-139.5" font-family="Helvetica,sans-Serif" font-size="10.00">file_operation_union_t</text>
</a>
</g>
</g>
<!-- Node2&#45;&gt;Node1 -->
<g id="edge1_Node000001_Node000002" class="edge">
<title>Node2&#45;&gt;Node1</title>
<g id="a_edge1_Node000001_Node000002"><a xlink:title=" ">
<path fill="none" stroke="#9a32cd" stroke-dasharray="5,2" d="M349.8,-143C376.3,-143 406.97,-143 434.29,-143"/>
<polygon fill="#9a32cd" stroke="#9a32cd" points="349.85,-139.5 339.85,-143 349.85,-146.5 349.85,-139.5"/>
</a>
</g>
<text text-anchor="middle" x="386.38" y="-145.5" font-family="Helvetica,sans-Serif" font-size="10.00" fill="grey"> file_operation</text>
</g>
<!-- Node3 -->
<g id="Node000003" class="node">
<title>Node3</title>
<g id="a_Node000003"><a xlink:href="structread__operation__t.html" target="_top" xlink:title=" ">
<polygon fill="white" stroke="#666666" points="112,-286 24,-286 24,-266 112,-266 112,-286"/>
<text text-anchor="middle" x="68" y="-272.5" font-family="Helvetica,sans-Serif" font-size="10.00">read_operation_t</text>
</a>
</g>
</g>
<!-- Node3&#45;&gt;Node2 -->
<g id="edge2_Node000002_Node000003" class="edge">
<title>Node3&#45;&gt;Node2</title>
<g id="a_edge2_Node000002_Node000003"><a xlink:title=" ">
<path fill="none" stroke="#9a32cd" stroke-dasharray="5,2" d="M123.3,-268.8C150.9,-263.18 183.92,-253.29 209.5,-236 242.02,-214.02 266.4,-172.7 276.56,-153.41"/>
<polygon fill="#9a32cd" stroke="#9a32cd" points="122.9,-265.31 113.72,-270.61 124.2,-272.19 122.9,-265.31"/>
</a>
</g>
<text text-anchor="middle" x="181.75" y="-263.17" font-family="Helvetica,sans-Serif" font-size="10.00" fill="grey"> read_op</text>
</g>
<!-- Node4 -->
<g id="Node000004" class="node">
<title>Node4</title>
<g id="a_Node000004"><a xlink:href="structwrite__operation__t.html" target="_top" xlink:title=" ">
<polygon fill="white" stroke="#666666" points="113.12,-248 22.88,-248 22.88,-228 113.12,-228 113.12,-248"/>
<text text-anchor="middle" x="68" y="-234.5" font-family="Helvetica,sans-Serif" font-size="10.00">write_operation_t</text>
</a>
</g>
</g>
<!-- Node4&#45;&gt;Node2 -->
<g id="edge3_Node000002_Node000004" class="edge">
<title>Node4&#45;&gt;Node2</title>
<g id="a_edge3_Node000002_Node000004"><a xlink:title=" ">
<path fill="none" stroke="#9a32cd" stroke-dasharray="5,2" d="M124.46,-228.41C151.1,-222.47 182.93,-213.36 209.5,-200 234.05,-187.65 258.23,-166.17 271.45,-153.39"/>
<polygon fill="#9a32cd" stroke="#9a32cd" points="123.92,-224.95 114.87,-230.45 125.38,-231.79 123.92,-224.95"/>
</a>
</g>
<text text-anchor="middle" x="181.75" y="-222.43" font-family="Helvetica,sans-Serif" font-size="10.00" fill="grey"> write_op</text>
</g>
<!-- Node5 -->
<g id="Node000005" class="node">
<title>Node5</title>
<g id="a_Node000005"><a xlink:href="structlist__directory__operation__t.html" target="_top" xlink:title=" ">
<polygon fill="white" stroke="#666666" points="130.38,-210 5.63,-210 5.63,-190 130.38,-190 130.38,-210"/>
<text text-anchor="middle" x="68" y="-196.5" font-family="Helvetica,sans-Serif" font-size="10.00">list_directory_operation_t</text>
</a>
</g>
</g>
<!-- Node5&#45;&gt;Node2 -->
<g id="edge4_Node000002_Node000005" class="edge">
<title>Node5&#45;&gt;Node2</title>
<g id="a_edge4_Node000002_Node000005"><a xlink:title=" ">
<path fill="none" stroke="#9a32cd" stroke-dasharray="5,2" d="M138.24,-187.33C161.11,-182.58 186.56,-176.7 209.5,-170 225.44,-165.35 242.89,-158.87 256.65,-153.42"/>
<polygon fill="#9a32cd" stroke="#9a32cd" points="137.83,-183.84 128.72,-189.26 139.22,-190.7 137.83,-183.84"/>
</a>
</g>
<text text-anchor="middle" x="181.75" y="-186.03" font-family="Helvetica,sans-Serif" font-size="10.00" fill="grey"> ls_op</text>
</g>
<!-- Node6 -->
<g id="Node000006" class="node">
<title>Node6</title>
<g id="a_Node000006"><a xlink:href="structdelete__operation__t.html" target="_top" xlink:title=" ">
<polygon fill="white" stroke="#666666" points="115.75,-172 20.25,-172 20.25,-152 115.75,-152 115.75,-172"/>
<text text-anchor="middle" x="68" y="-158.5" font-family="Helvetica,sans-Serif" font-size="10.00">delete_operation_t</text>
</a>
</g>
</g>
<!-- Node6&#45;&gt;Node2 -->
<g id="edge5_Node000002_Node000006" class="edge">
<title>Node6&#45;&gt;Node2</title>
<g id="a_edge5_Node000002_Node000006"><a xlink:title=" ">
<path fill="none" stroke="#9a32cd" stroke-dasharray="5,2" d="M127.35,-156.79C158.5,-154.01 196.59,-150.61 227.15,-147.88"/>
<polygon fill="#9a32cd" stroke="#9a32cd" points="127.37,-153.27 117.72,-157.65 128,-160.25 127.37,-153.27"/>
</a>
</g>
<text text-anchor="middle" x="181.75" y="-156.7" font-family="Helvetica,sans-Serif" font-size="10.00" fill="grey"> delete_op</text>
</g>
<!-- Node7 -->
<g id="Node000007" class="node">
<title>Node7</title>
<g id="a_Node000007"><a xlink:href="structmake__directory__operation__t.html" target="_top" xlink:title=" ">
<polygon fill="white" stroke="#666666" points="136,-134 0,-134 0,-114 136,-114 136,-134"/>
<text text-anchor="middle" x="68" y="-120.5" font-family="Helvetica,sans-Serif" font-size="10.00">make_directory_operation_t</text>
</a>
</g>
</g>
<!-- Node7&#45;&gt;Node2 -->
<g id="edge6_Node000002_Node000007" class="edge">
<title>Node7&#45;&gt;Node2</title>
<g id="a_edge6_Node000002_Node000007"><a xlink:title=" ">
<path fill="none" stroke="#9a32cd" stroke-dasharray="5,2" d="M147.61,-128.86C167.8,-130.31 189.47,-132.04 209.5,-134 215.29,-134.57 221.33,-135.22 227.34,-135.91"/>
<polygon fill="#9a32cd" stroke="#9a32cd" points="147.97,-125.38 137.75,-128.17 147.48,-132.36 147.97,-125.38"/>
</a>
</g>
<text text-anchor="middle" x="181.75" y="-136.5" font-family="Helvetica,sans-Serif" font-size="10.00" fill="grey"> mkdir_op</text>
</g>
<!-- Node8 -->
<g id="Node000008" class="node">
<title>Node8</title>
<g id="a_Node000008"><a xlink:href="structopen__directory__operation__t.html" target="_top" xlink:title=" ">
<polygon fill="white" stroke="#666666" points="134.5,-96 1.5,-96 1.5,-76 134.5,-76 134.5,-96"/>
<text text-anchor="middle" x="68" y="-82.5" font-family="Helvetica,sans-Serif" font-size="10.00">open_directory_operation_t</text>
</a>
</g>
</g>
<!-- Node8&#45;&gt;Node2 -->
<g id="edge7_Node000002_Node000008" class="edge">
<title>Node8&#45;&gt;Node2</title>
<g id="a_edge7_Node000002_Node000008"><a xlink:title=" ">
<path fill="none" stroke="#9a32cd" stroke-dasharray="5,2" d="M145.8,-97.83C166.68,-101.84 189.13,-106.88 209.5,-113 226.93,-118.23 245.91,-126.21 260.04,-132.62"/>
<polygon fill="#9a32cd" stroke="#9a32cd" points="146.68,-94.44 136.21,-96.05 145.4,-101.32 146.68,-94.44"/>
</a>
</g>
<text text-anchor="middle" x="181.75" y="-115.5" font-family="Helvetica,sans-Serif" font-size="10.00" fill="grey"> open_dir_op</text>
</g>
<!-- Node9 -->
<g id="Node000009" class="node">
<title>Node9</title>
<g id="a_Node000009"><a xlink:href="structread__directory__operation__t.html" target="_top" xlink:title=" ">
<polygon fill="white" stroke="#666666" points="133.38,-58 2.62,-58 2.62,-38 133.38,-38 133.38,-58"/>
<text text-anchor="middle" x="68" y="-44.5" font-family="Helvetica,sans-Serif" font-size="10.00">read_directory_operation_t</text>
</a>
</g>
</g>
<!-- Node9&#45;&gt;Node2 -->
<g id="edge8_Node000002_Node000009" class="edge">
<title>Node9&#45;&gt;Node2</title>
<g id="a_edge8_Node000002_Node000009"><a xlink:title=" ">
<path fill="none" stroke="#9a32cd" stroke-dasharray="5,2" d="M144.83,-61.07C166.43,-66.47 189.5,-73.9 209.5,-84 234.65,-96.71 258.99,-119.4 272,-132.63"/>
<polygon fill="#9a32cd" stroke="#9a32cd" points="145.71,-57.68 135.18,-58.78 144.1,-64.5 145.71,-57.68"/>
</a>
</g>
<text text-anchor="middle" x="181.75" y="-86.5" font-family="Helvetica,sans-Serif" font-size="10.00" fill="grey"> read_dir_op</text>
</g>
<!-- Node10 -->
<g id="Node000010" class="node">
<title>Node10</title>
<g id="a_Node000010"><a xlink:href="structstat__operation__t.html" target="_top" xlink:title=" ">
<polygon fill="white" stroke="#666666" points="110.88,-20 25.12,-20 25.12,0 110.88,0 110.88,-20"/>
<text text-anchor="middle" x="68" y="-6.5" font-family="Helvetica,sans-Serif" font-size="10.00">stat_operation_t</text>
</a>
</g>
</g>
<!-- Node10&#45;&gt;Node2 -->
<g id="edge9_Node000002_Node000010" class="edge">
<title>Node10&#45;&gt;Node2</title>
<g id="a_edge9_Node000002_Node000010"><a xlink:title=" ">
<path fill="none" stroke="#9a32cd" stroke-dasharray="5,2" d="M122.45,-16.06C150.25,-21.19 183.71,-30.64 209.5,-48 242.68,-70.33 266.89,-112.99 276.8,-132.63"/>
<polygon fill="#9a32cd" stroke="#9a32cd" points="123.26,-12.64 112.81,-14.42 122.09,-19.54 123.26,-12.64"/>
</a>
</g>
<text text-anchor="middle" x="181.75" y="-50.5" font-family="Helvetica,sans-Serif" font-size="10.00" fill="grey"> stat_op</text>
</g>
</g>
</svg>

<g id="navigator" transform="translate(0 0)" fill="#404254">
  <rect fill="#f2f5e9" fill-opacity="0.5" stroke="#606060" stroke-width=".5" x="0" y="0" width="60" height="60"/>
  <use id="zoomplus" xlink:href="#zoomPlus" x="17" y="9" onmousedown="handleZoom(evt,'in')"/>
  <use id="zoomminus" xlink:href="#zoomMin" x="42" y="9" onmousedown="handleZoom(evt,'out')"/>
  <use id="reset" xlink:href="#resetDef" x="30" y="36" onmousedown="handleReset()"/>
   <use id="arrowup" xlink:href="#arrowUp" x="0" y="0" onmousedown="handlePan(0,-1)"/>
  <use id="arrowright" xlink:href="#arrowRight" x="0" y="0" onmousedown="handlePan(1,0)"/>
  <use id="arrowdown" xlink:href="#arrowDown" x="0" y="0" onmousedown="handlePan(0,1)"/>
  <use id="arrowleft" xlink:href="#arrowLeft" x="0" y="0" onmousedown="handlePan(-1,0)"/>
</g>
<svg viewBox="0 0 15 15" width="100%" height="30px" preserveAspectRatio="xMaxYMin meet">
 <g id="arrow_out" transform="scale(0.3 0.3)">
  <a xlink:href="structfilesystem__queue__operations__t__coll__graph_org.svg" target="_base">
   <rect id="button" ry="5" rx="5" y="6" x="6" height="38" width="38"
        fill="#f2f5e9" fill-opacity="0.5" stroke="#606060" stroke-width="1.0"/>
   <path id="arrow"
     d="M 11.500037,31.436501 C 11.940474,20.09759 22.043105,11.32322 32.158766,21.979434 L 37.068811,17.246167 C 37.068811,17.246167 37.088388,32 37.088388,32 L 22.160133,31.978069 C 22.160133,31.978069 26.997745,27.140456 26.997745,27.140456 C 18.528582,18.264221 13.291696,25.230495 11.500037,31.436501 z"
     style="fill:#404040;"/>
  </a>
 </g>
</svg>

<style type='text/css'>
<![CDATA[
[data-mouse-over-selected='false'] { opacity: 0.7; }
[data-mouse-over-selected='true']  { opacity: 1.0; }
]]>
</style>
<script type="application/ecmascript"><![CDATA[
document.addEventListener('DOMContentLoaded', (event) => {
  highlightEdges();
  highlightAdjacentNodes();
});
]]></script>
</svg>
