<?xml version="1.0" encoding="UTF-8" standalone="no"?>
<!DOCTYPE svg PUBLIC "-//W3C//DTD SVG 1.1//EN"
 "http://www.w3.org/Graphics/SVG/1.1/DTD/svg11.dtd">
<!-- Generated by graphviz version 12.1.2 (20240928.0832)
 -->
<!-- Title: radio_task Pages: 1 -->
<!--zoomable 380 -->

<svg id="main" version="1.1" xmlns="http://www.w3.org/2000/svg" xmlns:xlink="http://www.w3.org/1999/xlink" xml:space="preserve" onload="init(evt)">

<style type="text/css"><![CDATA[
.node, .edge {opacity: 0.7;}
.node.selected, .edge.selected {opacity: 1;}
.edge:hover path { stroke: red; }
.edge:hover polygon { stroke: red; fill: red; }
]]></style>

<defs>
  <circle id="rim" cx="0" cy="0" r="7"/>
  <circle id="rim2" cx="0" cy="0" r="3.5"/>
  <g id="zoomPlus">
    <use xlink:href="#rim" fill="#404040"><set attributeName="fill" to="#808080" begin="zoomplus.mouseover" end="zoomplus.mouseout"/></use>
    <path d="M-4,0h8M0,-4v8" fill="none" stroke="white" stroke-width="1.5" pointer-events="none"/>
  </g>
  <g id="zoomMin">
    <use xlink:href="#rim" fill="#404040"><set attributeName="fill" to="#808080" begin="zoomminus.mouseover" end="zoomminus.mouseout"/></use>
    <path d="M-4,0h8" fill="none" stroke="white" stroke-width="1.5" pointer-events="none"/>
  </g>
  <g id="arrowUp" transform="translate(30 24)">
    <use xlink:href="#rim"/>
    <path pointer-events="none" fill="none" stroke="white" stroke-width="1.5" d="M0,-3.0v7 M-2.5,-0.5L0,-3.0L2.5,-0.5"/>
  </g>
  <g id="arrowRight" transform="rotate(90) translate(36 -43)">
    <use xlink:href="#rim"/>
    <path pointer-events="none" fill="none" stroke="white" stroke-width="1.5" d="M0,-3.0v7 M-2.5,-0.5L0,-3.0L2.5,-0.5"/>
  </g>
  <g id="arrowDown" transform="rotate(180) translate(-30 -48)">
    <use xlink:href="#rim"/>
    <path pointer-events="none" fill="none" stroke="white" stroke-width="1.5" d="M0,-3.0v7 M-2.5,-0.5L0,-3.0L2.5,-0.5"/>
  </g>
  <g id="arrowLeft" transform="rotate(270) translate(-36 17)">
    <use xlink:href="#rim"/>
    <path pointer-events="none" fill="none" stroke="white" stroke-width="1.5" d="M0,-3.0v7 M-2.5,-0.5L0,-3.0L2.5,-0.5"/>
  </g>
  <g id="resetDef">
    <use xlink:href="#rim2" fill="#404040"><set attributeName="fill" to="#808080" begin="reset.mouseover" end="reset.mouseout"/></use>
  </g>
</defs>
<script type="application/ecmascript">
var viewWidth = 675;
var viewHeight = 380;
var sectionId = 'dynsection-3';
</script>
<script type="application/ecmascript" xlink:href="svg.min.js"/>
<svg id="graph" class="graph">
<g id="viewport">
<title>radio_task</title>
<!-- Node1 -->
<g id="Node000001" class="node">
<title>Node1</title>
<g id="a_Node000001"><a xlink:title=" ">
<polygon fill="#999999" stroke="#666666" points="61,-172 0,-172 0,-152 61,-152 61,-172"/>
<text text-anchor="middle" x="30.5" y="-158.5" font-family="Helvetica,sans-Serif" font-size="10.00">radio_task</text>
</a>
</g>
</g>
<!-- Node2 -->
<g id="Node000002" class="node">
<title>Node2</title>
<g id="a_Node000002"><a xlink:href="radio_8cpp.html#aa62d7d3a4530934e87199d4741b365d1" target="_top" xlink:title=" ">
<polygon fill="white" stroke="#666666" points="179,-172 97,-172 97,-152 179,-152 179,-172"/>
<text text-anchor="middle" x="138" y="-158.5" font-family="Helvetica,sans-Serif" font-size="10.00">radio_task_cpp</text>
</a>
</g>
</g>
<!-- Node1&#45;&gt;Node2 -->
<g id="edge1_Node000001_Node000002" class="edge">
<title>Node1&#45;&gt;Node2</title>
<g id="a_edge1_Node000001_Node000002"><a xlink:title=" ">
<path fill="none" stroke="#63b8ff" d="M61.45,-162C68.9,-162 77.11,-162 85.28,-162"/>
<polygon fill="#63b8ff" stroke="#63b8ff" points="85.22,-165.5 95.22,-162 85.22,-158.5 85.22,-165.5"/>
</a>
</g>
</g>
<!-- Node3 -->
<g id="Node000003" class="node">
<title>Node3</title>
<g id="a_Node000003"><a xlink:href="radio_8cpp.html#ad6a879966c96e3220276583110fde2eb" target="_top" xlink:title=" ">
<polygon fill="white" stroke="#666666" points="304.88,-267 249.88,-267 249.88,-247 304.88,-247 304.88,-267"/>
<text text-anchor="middle" x="277.38" y="-253.5" font-family="Helvetica,sans-Serif" font-size="10.00">init_radio</text>
</a>
</g>
</g>
<!-- Node2&#45;&gt;Node3 -->
<g id="edge2_Node000002_Node000003" class="edge">
<title>Node2&#45;&gt;Node3</title>
<g id="a_edge2_Node000002_Node000003"><a xlink:title=" ">
<path fill="none" stroke="#63b8ff" d="M150.63,-172.38C165.14,-185.08 190.98,-206.88 215,-223 224.61,-229.45 235.54,-235.79 245.48,-241.22"/>
<polygon fill="#63b8ff" stroke="#63b8ff" points="243.59,-244.18 254.06,-245.8 246.89,-238.01 243.59,-244.18"/>
</a>
</g>
</g>
<!-- Node4 -->
<g id="Node000004" class="node">
<title>Node4</title>
<g id="a_Node000004"><a xlink:href="radio_8cpp.html#ae7b8fc4ccc09bb7acd7b803ecad3caca" target="_top" xlink:title=" ">
<polygon fill="white" stroke="#666666" points="662.75,-362 535,-362 535,-342 662.75,-342 662.75,-362"/>
<text text-anchor="middle" x="598.88" y="-348.5" font-family="Helvetica,sans-Serif" font-size="10.00">radio_cad_detected_RFM</text>
</a>
</g>
</g>
<!-- Node2&#45;&gt;Node4 -->
<g id="edge12_Node000002_Node000004" class="edge">
<title>Node2&#45;&gt;Node4</title>
<g id="a_edge12_Node000002_Node000004"><a xlink:title=" ">
<path fill="none" stroke="#63b8ff" d="M140.94,-172.48C146.68,-200.36 166.33,-276.65 215,-313 307.8,-382.31 450.47,-375.64 532.93,-364.1"/>
<polygon fill="#63b8ff" stroke="#63b8ff" points="533.28,-367.59 542.66,-362.67 532.26,-360.66 533.28,-367.59"/>
</a>
</g>
</g>
<!-- Node5 -->
<g id="Node000005" class="node">
<title>Node5</title>
<g id="a_Node000005"><a xlink:href="radio_8cpp.html#a9cc461d365bd6aa5037aa79b50a4ab70" target="_top" xlink:title=" ">
<polygon fill="white" stroke="#666666" points="655.62,-210 542.12,-210 542.12,-190 655.62,-190 655.62,-210"/>
<text text-anchor="middle" x="598.88" y="-196.5" font-family="Helvetica,sans-Serif" font-size="10.00">radio_general_flag_SX</text>
</a>
</g>
</g>
<!-- Node2&#45;&gt;Node5 -->
<g id="edge13_Node000002_Node000005" class="edge">
<title>Node2&#45;&gt;Node5</title>
<g id="a_edge13_Node000002_Node000005"><a xlink:title=" ">
<path fill="none" stroke="#63b8ff" d="M179.49,-153.38C246.32,-140.71 383.42,-121.29 495.25,-148 523.87,-154.84 553.54,-171.03 573.57,-183.54"/>
<polygon fill="#63b8ff" stroke="#63b8ff" points="571.53,-186.39 581.83,-188.86 575.32,-180.5 571.53,-186.39"/>
</a>
</g>
</g>
<!-- Node6 -->
<g id="Node000006" class="node">
<title>Node6</title>
<g id="a_Node000006"><a xlink:href="radio_8cpp.html#abb38d1447d7bbd825a1514d39e9889f3" target="_top" xlink:title="Handle hardware switches between radios.">
<polygon fill="white" stroke="#666666" points="663.5,-324 534.25,-324 534.25,-304 663.5,-304 663.5,-324"/>
<text text-anchor="middle" x="598.88" y="-310.5" font-family="Helvetica,sans-Serif" font-size="10.00">radio_hardware_switch_to</text>
</a>
</g>
</g>
<!-- Node2&#45;&gt;Node6 -->
<g id="edge14_Node000002_Node000006" class="edge">
<title>Node2&#45;&gt;Node6</title>
<g id="a_edge14_Node000002_Node000006"><a xlink:title=" ">
<path fill="none" stroke="#63b8ff" d="M142.55,-172.32C151.04,-195.27 174.83,-250.51 215,-276 308.19,-335.14 440.58,-333.77 522.75,-325.36"/>
<polygon fill="#63b8ff" stroke="#63b8ff" points="522.93,-328.86 532.5,-324.3 522.18,-321.9 522.93,-328.86"/>
</a>
</g>
</g>
<!-- Node7 -->
<g id="Node000007" class="node">
<title>Node7</title>
<g id="a_Node000007"><a xlink:href="radio_8cpp.html#a69267b1b554b36d584cbc4322534266f" target="_top" xlink:title=" ">
<polygon fill="white" stroke="#666666" points="666.5,-248 531.25,-248 531.25,-228 666.5,-228 666.5,-248"/>
<text text-anchor="middle" x="598.88" y="-234.5" font-family="Helvetica,sans-Serif" font-size="10.00">radio_operation_done_RFM</text>
</a>
</g>
</g>
<!-- Node2&#45;&gt;Node7 -->
<g id="edge15_Node000002_Node000007" class="edge">
<title>Node2&#45;&gt;Node7</title>
<g id="a_edge15_Node000002_Node000007"><a xlink:title=" ">
<path fill="none" stroke="#63b8ff" d="M179.2,-163.44C219.87,-165.32 284.47,-169.42 339.75,-178 413.93,-189.51 498.41,-210.72 549.92,-224.59"/>
<polygon fill="#63b8ff" stroke="#63b8ff" points="549,-227.97 559.56,-227.21 550.83,-221.21 549,-227.97"/>
</a>
</g>
</g>
<!-- Node8 -->
<g id="Node000008" class="node">
<title>Node8</title>
<g id="a_Node000008"><a xlink:href="radio_8cpp.html#a39fef0e9987217c6be69bcc9ca1af791" target="_top" xlink:title=" ">
<polygon fill="white" stroke="#666666" points="468.25,-248 402.75,-248 402.75,-228 468.25,-228 468.25,-248"/>
<text text-anchor="middle" x="435.5" y="-234.5" font-family="Helvetica,sans-Serif" font-size="10.00">radio_panic</text>
</a>
</g>
</g>
<!-- Node2&#45;&gt;Node8 -->
<g id="edge16_Node000002_Node000008" class="edge">
<title>Node2&#45;&gt;Node8</title>
<g id="a_edge16_Node000002_Node000008"><a xlink:title=" ">
<path fill="none" stroke="#63b8ff" d="M179.47,-172.41C235.07,-186.71 334.65,-212.32 391.54,-226.95"/>
<polygon fill="#63b8ff" stroke="#63b8ff" points="390.63,-230.33 401.19,-229.43 392.38,-223.55 390.63,-230.33"/>
</a>
</g>
</g>
<!-- Node9 -->
<g id="Node000009" class="node">
<title>Node9</title>
<g id="a_Node000009"><a xlink:href="command_8c.html#ac090b79f5dfeeaa73978dc9df75fe1a0" target="_top" xlink:title=" ">
<polygon fill="white" stroke="#666666" points="339.75,-96 215,-96 215,-76 339.75,-76 339.75,-96"/>
<text text-anchor="middle" x="277.38" y="-82.5" font-family="Helvetica,sans-Serif" font-size="10.00">receive_command_bytes</text>
</a>
</g>
</g>
<!-- Node2&#45;&gt;Node9 -->
<g id="edge17_Node000002_Node000009" class="edge">
<title>Node2&#45;&gt;Node9</title>
<g id="a_edge17_Node000002_Node000009"><a xlink:title=" ">
<path fill="none" stroke="#63b8ff" d="M152.14,-151.63C166.85,-140.37 191.68,-122.33 215,-110 221.37,-106.63 228.32,-103.47 235.19,-100.61"/>
<polygon fill="#63b8ff" stroke="#63b8ff" points="236.39,-103.9 244.39,-96.95 233.81,-97.39 236.39,-103.9"/>
</a>
</g>
</g>
<!-- Node11 -->
<g id="Node000011" class="node">
<title>Node11</title>
<g id="a_Node000011"><a xlink:href="telemetry_8c.html#a6dbf6c6cfd75451e5642ca0b64bf7f5a" target="_top" xlink:title=" ">
<polygon fill="white" stroke="#666666" points="318.75,-58 236,-58 236,-38 318.75,-38 318.75,-58"/>
<text text-anchor="middle" x="277.38" y="-44.5" font-family="Helvetica,sans-Serif" font-size="10.00">send_telemetry</text>
</a>
</g>
</g>
<!-- Node2&#45;&gt;Node11 -->
<g id="edge19_Node000002_Node000011" class="edge">
<title>Node2&#45;&gt;Node11</title>
<g id="a_edge19_Node000002_Node000011"><a xlink:title=" ">
<path fill="none" stroke="#63b8ff" d="M144.42,-151.74C155.22,-132.29 181.31,-89.95 215,-67 218.18,-64.83 221.63,-62.9 225.2,-61.18"/>
<polygon fill="#63b8ff" stroke="#63b8ff" points="226.22,-64.55 234.11,-57.48 223.54,-58.09 226.22,-64.55"/>
</a>
</g>
</g>
<!-- Node12 -->
<g id="Node000012" class="node">
<title>Node12</title>
<g id="a_Node000012"><a xlink:href="radio_8cpp.html#a74c252dc0de25701a447a67c039e9804" target="_top" xlink:title=" ">
<polygon fill="white" stroke="#666666" points="324,-20 230.75,-20 230.75,0 324,0 324,-20"/>
<text text-anchor="middle" x="277.38" y="-6.5" font-family="Helvetica,sans-Serif" font-size="10.00">set_power_output</text>
</a>
</g>
</g>
<!-- Node2&#45;&gt;Node12 -->
<g id="edge20_Node000002_Node000012" class="edge">
<title>Node2&#45;&gt;Node12</title>
<g id="a_edge20_Node000002_Node000012"><a xlink:title=" ">
<path fill="none" stroke="#63b8ff" d="M142.01,-151.6C149.77,-126.62 172.88,-62.78 215,-29 216.73,-27.61 218.56,-26.33 220.47,-25.13"/>
<polygon fill="#63b8ff" stroke="#63b8ff" points="221.9,-28.33 229.16,-20.62 218.67,-22.12 221.9,-28.33"/>
</a>
</g>
</g>
<!-- Node3&#45;&gt;Node4 -->
<g id="edge3_Node000003_Node000004" class="edge">
<title>Node3&#45;&gt;Node4</title>
<g id="a_edge3_Node000003_Node000004"><a xlink:title=" ">
<path fill="none" stroke="#63b8ff" d="M298.83,-267.37C318.23,-276.89 348.41,-290.85 375.75,-300 426.02,-316.82 484.45,-330.27 528.76,-339.27"/>
<polygon fill="#63b8ff" stroke="#63b8ff" points="528.02,-342.69 538.51,-341.22 529.39,-335.83 528.02,-342.69"/>
</a>
</g>
</g>
<!-- Node3&#45;&gt;Node5 -->
<g id="edge4_Node000003_Node000005" class="edge">
<title>Node3&#45;&gt;Node5</title>
<g id="a_edge4_Node000003_Node000005"><a xlink:title=" ">
<path fill="none" stroke="#63b8ff" d="M299.85,-246.55C319.21,-237.64 348.71,-225.29 375.75,-219 426.9,-207.09 486.23,-202.47 530.7,-200.76"/>
<polygon fill="#63b8ff" stroke="#63b8ff" points="530.57,-204.26 540.45,-200.42 530.33,-197.27 530.57,-204.26"/>
</a>
</g>
</g>
<!-- Node3&#45;&gt;Node6 -->
<g id="edge5_Node000003_Node000006" class="edge">
<title>Node3&#45;&gt;Node6</title>
<g id="a_edge5_Node000003_Node000006"><a xlink:title=" ">
<path fill="none" stroke="#63b8ff" d="M305.34,-261.81C354.11,-270.51 458.38,-289.11 528.33,-301.59"/>
<polygon fill="#63b8ff" stroke="#63b8ff" points="527.3,-304.96 537.76,-303.28 528.53,-298.07 527.3,-304.96"/>
</a>
</g>
</g>
<!-- Node3&#45;&gt;Node7 -->
<g id="edge6_Node000003_Node000007" class="edge">
<title>Node3&#45;&gt;Node7</title>
<g id="a_edge6_Node000003_Node000007"><a xlink:title=" ">
<path fill="none" stroke="#63b8ff" d="M305.16,-258.57C346.18,-260.62 427.01,-263.26 495.25,-257 509.99,-255.65 525.77,-253.22 540.43,-250.55"/>
<polygon fill="#63b8ff" stroke="#63b8ff" points="540.72,-254.06 549.89,-248.75 539.42,-247.18 540.72,-254.06"/>
</a>
</g>
</g>
<!-- Node3&#45;&gt;Node8 -->
<g id="edge7_Node000003_Node000008" class="edge">
<title>Node3&#45;&gt;Node8</title>
<g id="a_edge7_Node000003_Node000008"><a xlink:title=" ">
<path fill="none" stroke="#63b8ff" d="M305.21,-253.73C328.79,-250.87 363.52,-246.64 391.05,-243.29"/>
<polygon fill="#63b8ff" stroke="#63b8ff" points="391.34,-246.78 400.85,-242.1 390.5,-239.83 391.34,-246.78"/>
</a>
</g>
</g>
<!-- Node8&#45;&gt;Node4 -->
<g id="edge8_Node000008_Node000004" class="edge">
<title>Node8&#45;&gt;Node4</title>
<g id="a_edge8_Node000008_Node000004"><a xlink:title=" ">
<path fill="none" stroke="#63b8ff" d="M443.85,-248.28C458.33,-267.78 492.51,-310.18 531.25,-333 533.88,-334.55 536.64,-335.98 539.49,-337.29"/>
<polygon fill="#63b8ff" stroke="#63b8ff" points="538.06,-340.49 548.64,-341.02 540.7,-334.01 538.06,-340.49"/>
</a>
</g>
</g>
<!-- Node8&#45;&gt;Node5 -->
<g id="edge9_Node000008_Node000005" class="edge">
<title>Node8&#45;&gt;Node5</title>
<g id="a_edge9_Node000008_Node000005"><a xlink:title=" ">
<path fill="none" stroke="#63b8ff" d="M468.38,-230.49C489.49,-225.52 517.74,-218.87 542.46,-213.05"/>
<polygon fill="#63b8ff" stroke="#63b8ff" points="543.13,-216.49 552.06,-210.79 541.53,-209.67 543.13,-216.49"/>
</a>
</g>
</g>
<!-- Node8&#45;&gt;Node6 -->
<g id="edge10_Node000008_Node000006" class="edge">
<title>Node8&#45;&gt;Node6</title>
<g id="a_edge10_Node000008_Node000006"><a xlink:title=" ">
<path fill="none" stroke="#63b8ff" d="M458.6,-248.41C486.29,-261.45 533.94,-283.89 565.68,-298.84"/>
<polygon fill="#63b8ff" stroke="#63b8ff" points="563.88,-301.86 574.41,-302.95 566.86,-295.52 563.88,-301.86"/>
</a>
</g>
</g>
<!-- Node8&#45;&gt;Node7 -->
<g id="edge11_Node000008_Node000007" class="edge">
<title>Node8&#45;&gt;Node7</title>
<g id="a_edge11_Node000008_Node000007"><a xlink:title=" ">
<path fill="none" stroke="#63b8ff" d="M468.38,-238C483.22,-238 501.57,-238 519.76,-238"/>
<polygon fill="#63b8ff" stroke="#63b8ff" points="519.51,-241.5 529.51,-238 519.51,-234.5 519.51,-241.5"/>
</a>
</g>
</g>
<!-- Node10 -->
<g id="Node000010" class="node">
<title>Node10</title>
<g id="a_Node000010"><a xlink:href="command_8c.html#a4f5fb387e54e9f86c0201fff500341a7" target="_top" xlink:title=" ">
<polygon fill="white" stroke="#666666" points="495.25,-96 375.75,-96 375.75,-76 495.25,-76 495.25,-96"/>
<text text-anchor="middle" x="435.5" y="-82.5" font-family="Helvetica,sans-Serif" font-size="10.00">receive_command_byte</text>
</a>
</g>
</g>
<!-- Node9&#45;&gt;Node10 -->
<g id="edge18_Node000009_Node000010" class="edge">
<title>Node9&#45;&gt;Node10</title>
<g id="a_edge18_Node000009_Node000010"><a xlink:title=" ">
<path fill="none" stroke="#63b8ff" d="M340.08,-86C347.87,-86 355.88,-86 363.8,-86"/>
<polygon fill="#63b8ff" stroke="#63b8ff" points="363.77,-89.5 373.77,-86 363.77,-82.5 363.77,-89.5"/>
</a>
</g>
</g>
</g>
</svg>

<g id="navigator" transform="translate(0 0)" fill="#404254">
  <rect fill="#f2f5e9" fill-opacity="0.5" stroke="#606060" stroke-width=".5" x="0" y="0" width="60" height="60"/>
  <use id="zoomplus" xlink:href="#zoomPlus" x="17" y="9" onmousedown="handleZoom(evt,'in')"/>
  <use id="zoomminus" xlink:href="#zoomMin" x="42" y="9" onmousedown="handleZoom(evt,'out')"/>
  <use id="reset" xlink:href="#resetDef" x="30" y="36" onmousedown="handleReset()"/>
   <use id="arrowup" xlink:href="#arrowUp" x="0" y="0" onmousedown="handlePan(0,-1)"/>
  <use id="arrowright" xlink:href="#arrowRight" x="0" y="0" onmousedown="handlePan(1,0)"/>
  <use id="arrowdown" xlink:href="#arrowDown" x="0" y="0" onmousedown="handlePan(0,1)"/>
  <use id="arrowleft" xlink:href="#arrowLeft" x="0" y="0" onmousedown="handlePan(-1,0)"/>
</g>
<svg viewBox="0 0 15 15" width="100%" height="30px" preserveAspectRatio="xMaxYMin meet">
 <g id="arrow_out" transform="scale(0.3 0.3)">
  <a xlink:href="tasks_2radio_2radio_8h_a59a92112128a733a637390e350d2d16b_cgraph_org.svg" target="_base">
   <rect id="button" ry="5" rx="5" y="6" x="6" height="38" width="38"
        fill="#f2f5e9" fill-opacity="0.5" stroke="#606060" stroke-width="1.0"/>
   <path id="arrow"
     d="M 11.500037,31.436501 C 11.940474,20.09759 22.043105,11.32322 32.158766,21.979434 L 37.068811,17.246167 C 37.068811,17.246167 37.088388,32 37.088388,32 L 22.160133,31.978069 C 22.160133,31.978069 26.997745,27.140456 26.997745,27.140456 C 18.528582,18.264221 13.291696,25.230495 11.500037,31.436501 z"
     style="fill:#404040;"/>
  </a>
 </g>
</svg>

<style type='text/css'>
<![CDATA[
[data-mouse-over-selected='false'] { opacity: 0.7; }
[data-mouse-over-selected='true']  { opacity: 1.0; }
]]>
</style>
<script type="application/ecmascript"><![CDATA[
document.addEventListener('DOMContentLoaded', (event) => {
  highlightEdges();
  highlightAdjacentNodes();
});
]]></script>
</svg>
