<?xml version="1.0" encoding="UTF-8" standalone="no"?>
<!DOCTYPE svg PUBLIC "-//W3C//DTD SVG 1.1//EN"
 "http://www.w3.org/Graphics/SVG/1.1/DTD/svg11.dtd">
<!-- Generated by graphviz version 12.1.2 (20240928.0832)
 -->
<!-- Title: radio_task_cpp Pages: 1 -->
<!--zoomable 380 -->

<svg id="main" version="1.1" xmlns="http://www.w3.org/2000/svg" xmlns:xlink="http://www.w3.org/1999/xlink" xml:space="preserve" onload="init(evt)">

<style type="text/css"><![CDATA[
.node, .edge {opacity: 0.7;}
.node.selected, .edge.selected {opacity: 1;}
.edge:hover path { stroke: red; }
.edge:hover polygon { stroke: red; fill: red; }
]]></style>

<defs>
  <circle id="rim" cx="0" cy="0" r="7"/>
  <circle id="rim2" cx="0" cy="0" r="3.5"/>
  <g id="zoomPlus">
    <use xlink:href="#rim" fill="#404040"><set attributeName="fill" to="#808080" begin="zoomplus.mouseover" end="zoomplus.mouseout"/></use>
    <path d="M-4,0h8M0,-4v8" fill="none" stroke="white" stroke-width="1.5" pointer-events="none"/>
  </g>
  <g id="zoomMin">
    <use xlink:href="#rim" fill="#404040"><set attributeName="fill" to="#808080" begin="zoomminus.mouseover" end="zoomminus.mouseout"/></use>
    <path d="M-4,0h8" fill="none" stroke="white" stroke-width="1.5" pointer-events="none"/>
  </g>
  <g id="arrowUp" transform="translate(30 24)">
    <use xlink:href="#rim"/>
    <path pointer-events="none" fill="none" stroke="white" stroke-width="1.5" d="M0,-3.0v7 M-2.5,-0.5L0,-3.0L2.5,-0.5"/>
  </g>
  <g id="arrowRight" transform="rotate(90) translate(36 -43)">
    <use xlink:href="#rim"/>
    <path pointer-events="none" fill="none" stroke="white" stroke-width="1.5" d="M0,-3.0v7 M-2.5,-0.5L0,-3.0L2.5,-0.5"/>
  </g>
  <g id="arrowDown" transform="rotate(180) translate(-30 -48)">
    <use xlink:href="#rim"/>
    <path pointer-events="none" fill="none" stroke="white" stroke-width="1.5" d="M0,-3.0v7 M-2.5,-0.5L0,-3.0L2.5,-0.5"/>
  </g>
  <g id="arrowLeft" transform="rotate(270) translate(-36 17)">
    <use xlink:href="#rim"/>
    <path pointer-events="none" fill="none" stroke="white" stroke-width="1.5" d="M0,-3.0v7 M-2.5,-0.5L0,-3.0L2.5,-0.5"/>
  </g>
  <g id="resetDef">
    <use xlink:href="#rim2" fill="#404040"><set attributeName="fill" to="#808080" begin="reset.mouseover" end="reset.mouseout"/></use>
  </g>
</defs>
<script type="application/ecmascript">
var viewWidth = 578;
var viewHeight = 380;
var sectionId = 'dynsection-4';
</script>
<script type="application/ecmascript" xlink:href="svg.min.js"/>
<svg id="graph" class="graph">
<g id="viewport">
<title>radio_task_cpp</title>
<!-- Node1 -->
<g id="Node000001" class="node">
<title>Node1</title>
<g id="a_Node000001"><a xlink:title=" ">
<polygon fill="#999999" stroke="#666666" points="82,-172 0,-172 0,-152 82,-152 82,-172"/>
<text text-anchor="middle" x="41" y="-158.5" font-family="Helvetica,sans-Serif" font-size="10.00">radio_task_cpp</text>
</a>
</g>
</g>
<!-- Node2 -->
<g id="Node000002" class="node">
<title>Node2</title>
<g id="a_Node000002"><a xlink:href="radio_8cpp.html#ad6a879966c96e3220276583110fde2eb" target="_top" xlink:title=" ">
<polygon fill="white" stroke="#666666" points="207.88,-267 152.88,-267 152.88,-247 207.88,-247 207.88,-267"/>
<text text-anchor="middle" x="180.38" y="-253.5" font-family="Helvetica,sans-Serif" font-size="10.00">init_radio</text>
</a>
</g>
</g>
<!-- Node1&#45;&gt;Node2 -->
<g id="edge1_Node000001_Node000002" class="edge">
<title>Node1&#45;&gt;Node2</title>
<g id="a_edge1_Node000001_Node000002"><a xlink:title=" ">
<path fill="none" stroke="#63b8ff" d="M53.63,-172.38C68.14,-185.08 93.98,-206.88 118,-223 127.61,-229.45 138.54,-235.79 148.48,-241.22"/>
<polygon fill="#63b8ff" stroke="#63b8ff" points="146.59,-244.18 157.06,-245.8 149.89,-238.01 146.59,-244.18"/>
</a>
</g>
</g>
<!-- Node3 -->
<g id="Node000003" class="node">
<title>Node3</title>
<g id="a_Node000003"><a xlink:href="radio_8cpp.html#ae7b8fc4ccc09bb7acd7b803ecad3caca" target="_top" xlink:title=" ">
<polygon fill="white" stroke="#666666" points="565.75,-362 438,-362 438,-342 565.75,-342 565.75,-362"/>
<text text-anchor="middle" x="501.88" y="-348.5" font-family="Helvetica,sans-Serif" font-size="10.00">radio_cad_detected_RFM</text>
</a>
</g>
</g>
<!-- Node1&#45;&gt;Node3 -->
<g id="edge11_Node000001_Node000003" class="edge">
<title>Node1&#45;&gt;Node3</title>
<g id="a_edge11_Node000001_Node000003"><a xlink:title=" ">
<path fill="none" stroke="#63b8ff" d="M43.94,-172.48C49.68,-200.36 69.33,-276.65 118,-313 210.8,-382.31 353.47,-375.64 435.93,-364.1"/>
<polygon fill="#63b8ff" stroke="#63b8ff" points="436.28,-367.59 445.66,-362.67 435.26,-360.66 436.28,-367.59"/>
</a>
</g>
</g>
<!-- Node4 -->
<g id="Node000004" class="node">
<title>Node4</title>
<g id="a_Node000004"><a xlink:href="radio_8cpp.html#a9cc461d365bd6aa5037aa79b50a4ab70" target="_top" xlink:title=" ">
<polygon fill="white" stroke="#666666" points="558.62,-210 445.12,-210 445.12,-190 558.62,-190 558.62,-210"/>
<text text-anchor="middle" x="501.88" y="-196.5" font-family="Helvetica,sans-Serif" font-size="10.00">radio_general_flag_SX</text>
</a>
</g>
</g>
<!-- Node1&#45;&gt;Node4 -->
<g id="edge12_Node000001_Node000004" class="edge">
<title>Node1&#45;&gt;Node4</title>
<g id="a_edge12_Node000001_Node000004"><a xlink:title=" ">
<path fill="none" stroke="#63b8ff" d="M82.49,-153.38C149.32,-140.71 286.42,-121.29 398.25,-148 426.87,-154.84 456.54,-171.03 476.57,-183.54"/>
<polygon fill="#63b8ff" stroke="#63b8ff" points="474.53,-186.39 484.83,-188.86 478.32,-180.5 474.53,-186.39"/>
</a>
</g>
</g>
<!-- Node5 -->
<g id="Node000005" class="node">
<title>Node5</title>
<g id="a_Node000005"><a xlink:href="radio_8cpp.html#abb38d1447d7bbd825a1514d39e9889f3" target="_top" xlink:title="Handle hardware switches between radios.">
<polygon fill="white" stroke="#666666" points="566.5,-324 437.25,-324 437.25,-304 566.5,-304 566.5,-324"/>
<text text-anchor="middle" x="501.88" y="-310.5" font-family="Helvetica,sans-Serif" font-size="10.00">radio_hardware_switch_to</text>
</a>
</g>
</g>
<!-- Node1&#45;&gt;Node5 -->
<g id="edge13_Node000001_Node000005" class="edge">
<title>Node1&#45;&gt;Node5</title>
<g id="a_edge13_Node000001_Node000005"><a xlink:title=" ">
<path fill="none" stroke="#63b8ff" d="M45.55,-172.32C54.04,-195.27 77.83,-250.51 118,-276 211.19,-335.14 343.58,-333.77 425.75,-325.36"/>
<polygon fill="#63b8ff" stroke="#63b8ff" points="425.93,-328.86 435.5,-324.3 425.18,-321.9 425.93,-328.86"/>
</a>
</g>
</g>
<!-- Node6 -->
<g id="Node000006" class="node">
<title>Node6</title>
<g id="a_Node000006"><a xlink:href="radio_8cpp.html#a69267b1b554b36d584cbc4322534266f" target="_top" xlink:title=" ">
<polygon fill="white" stroke="#666666" points="569.5,-248 434.25,-248 434.25,-228 569.5,-228 569.5,-248"/>
<text text-anchor="middle" x="501.88" y="-234.5" font-family="Helvetica,sans-Serif" font-size="10.00">radio_operation_done_RFM</text>
</a>
</g>
</g>
<!-- Node1&#45;&gt;Node6 -->
<g id="edge14_Node000001_Node000006" class="edge">
<title>Node1&#45;&gt;Node6</title>
<g id="a_edge14_Node000001_Node000006"><a xlink:title=" ">
<path fill="none" stroke="#63b8ff" d="M82.2,-163.44C122.87,-165.32 187.47,-169.42 242.75,-178 316.93,-189.51 401.41,-210.72 452.92,-224.59"/>
<polygon fill="#63b8ff" stroke="#63b8ff" points="452,-227.97 462.56,-227.21 453.83,-221.21 452,-227.97"/>
</a>
</g>
</g>
<!-- Node7 -->
<g id="Node000007" class="node">
<title>Node7</title>
<g id="a_Node000007"><a xlink:href="radio_8cpp.html#a39fef0e9987217c6be69bcc9ca1af791" target="_top" xlink:title=" ">
<polygon fill="white" stroke="#666666" points="371.25,-248 305.75,-248 305.75,-228 371.25,-228 371.25,-248"/>
<text text-anchor="middle" x="338.5" y="-234.5" font-family="Helvetica,sans-Serif" font-size="10.00">radio_panic</text>
</a>
</g>
</g>
<!-- Node1&#45;&gt;Node7 -->
<g id="edge15_Node000001_Node000007" class="edge">
<title>Node1&#45;&gt;Node7</title>
<g id="a_edge15_Node000001_Node000007"><a xlink:title=" ">
<path fill="none" stroke="#63b8ff" d="M82.47,-172.41C138.07,-186.71 237.65,-212.32 294.54,-226.95"/>
<polygon fill="#63b8ff" stroke="#63b8ff" points="293.63,-230.33 304.19,-229.43 295.38,-223.55 293.63,-230.33"/>
</a>
</g>
</g>
<!-- Node8 -->
<g id="Node000008" class="node">
<title>Node8</title>
<g id="a_Node000008"><a xlink:href="command_8c.html#ac090b79f5dfeeaa73978dc9df75fe1a0" target="_top" xlink:title=" ">
<polygon fill="white" stroke="#666666" points="242.75,-96 118,-96 118,-76 242.75,-76 242.75,-96"/>
<text text-anchor="middle" x="180.38" y="-82.5" font-family="Helvetica,sans-Serif" font-size="10.00">receive_command_bytes</text>
</a>
</g>
</g>
<!-- Node1&#45;&gt;Node8 -->
<g id="edge16_Node000001_Node000008" class="edge">
<title>Node1&#45;&gt;Node8</title>
<g id="a_edge16_Node000001_Node000008"><a xlink:title=" ">
<path fill="none" stroke="#63b8ff" d="M55.14,-151.63C69.85,-140.37 94.68,-122.33 118,-110 124.37,-106.63 131.32,-103.47 138.19,-100.61"/>
<polygon fill="#63b8ff" stroke="#63b8ff" points="139.39,-103.9 147.39,-96.95 136.81,-97.39 139.39,-103.9"/>
</a>
</g>
</g>
<!-- Node10 -->
<g id="Node000010" class="node">
<title>Node10</title>
<g id="a_Node000010"><a xlink:href="telemetry_8c.html#a6dbf6c6cfd75451e5642ca0b64bf7f5a" target="_top" xlink:title=" ">
<polygon fill="white" stroke="#666666" points="221.75,-58 139,-58 139,-38 221.75,-38 221.75,-58"/>
<text text-anchor="middle" x="180.38" y="-44.5" font-family="Helvetica,sans-Serif" font-size="10.00">send_telemetry</text>
</a>
</g>
</g>
<!-- Node1&#45;&gt;Node10 -->
<g id="edge18_Node000001_Node000010" class="edge">
<title>Node1&#45;&gt;Node10</title>
<g id="a_edge18_Node000001_Node000010"><a xlink:title=" ">
<path fill="none" stroke="#63b8ff" d="M47.42,-151.74C58.22,-132.29 84.31,-89.95 118,-67 121.18,-64.83 124.63,-62.9 128.2,-61.18"/>
<polygon fill="#63b8ff" stroke="#63b8ff" points="129.22,-64.55 137.11,-57.48 126.54,-58.09 129.22,-64.55"/>
</a>
</g>
</g>
<!-- Node11 -->
<g id="Node000011" class="node">
<title>Node11</title>
<g id="a_Node000011"><a xlink:href="radio_8cpp.html#a74c252dc0de25701a447a67c039e9804" target="_top" xlink:title=" ">
<polygon fill="white" stroke="#666666" points="227,-20 133.75,-20 133.75,0 227,0 227,-20"/>
<text text-anchor="middle" x="180.38" y="-6.5" font-family="Helvetica,sans-Serif" font-size="10.00">set_power_output</text>
</a>
</g>
</g>
<!-- Node1&#45;&gt;Node11 -->
<g id="edge19_Node000001_Node000011" class="edge">
<title>Node1&#45;&gt;Node11</title>
<g id="a_edge19_Node000001_Node000011"><a xlink:title=" ">
<path fill="none" stroke="#63b8ff" d="M45.01,-151.6C52.77,-126.62 75.88,-62.78 118,-29 119.73,-27.61 121.56,-26.33 123.47,-25.13"/>
<polygon fill="#63b8ff" stroke="#63b8ff" points="124.9,-28.33 132.16,-20.62 121.67,-22.12 124.9,-28.33"/>
</a>
</g>
</g>
<!-- Node2&#45;&gt;Node3 -->
<g id="edge2_Node000002_Node000003" class="edge">
<title>Node2&#45;&gt;Node3</title>
<g id="a_edge2_Node000002_Node000003"><a xlink:title=" ">
<path fill="none" stroke="#63b8ff" d="M201.83,-267.37C221.23,-276.89 251.41,-290.85 278.75,-300 329.02,-316.82 387.45,-330.27 431.76,-339.27"/>
<polygon fill="#63b8ff" stroke="#63b8ff" points="431.02,-342.69 441.51,-341.22 432.39,-335.83 431.02,-342.69"/>
</a>
</g>
</g>
<!-- Node2&#45;&gt;Node4 -->
<g id="edge3_Node000002_Node000004" class="edge">
<title>Node2&#45;&gt;Node4</title>
<g id="a_edge3_Node000002_Node000004"><a xlink:title=" ">
<path fill="none" stroke="#63b8ff" d="M202.85,-246.55C222.21,-237.64 251.71,-225.29 278.75,-219 329.9,-207.09 389.23,-202.47 433.7,-200.76"/>
<polygon fill="#63b8ff" stroke="#63b8ff" points="433.57,-204.26 443.45,-200.42 433.33,-197.27 433.57,-204.26"/>
</a>
</g>
</g>
<!-- Node2&#45;&gt;Node5 -->
<g id="edge4_Node000002_Node000005" class="edge">
<title>Node2&#45;&gt;Node5</title>
<g id="a_edge4_Node000002_Node000005"><a xlink:title=" ">
<path fill="none" stroke="#63b8ff" d="M208.34,-261.81C257.11,-270.51 361.38,-289.11 431.33,-301.59"/>
<polygon fill="#63b8ff" stroke="#63b8ff" points="430.3,-304.96 440.76,-303.28 431.53,-298.07 430.3,-304.96"/>
</a>
</g>
</g>
<!-- Node2&#45;&gt;Node6 -->
<g id="edge5_Node000002_Node000006" class="edge">
<title>Node2&#45;&gt;Node6</title>
<g id="a_edge5_Node000002_Node000006"><a xlink:title=" ">
<path fill="none" stroke="#63b8ff" d="M208.16,-258.57C249.18,-260.62 330.01,-263.26 398.25,-257 412.99,-255.65 428.77,-253.22 443.43,-250.55"/>
<polygon fill="#63b8ff" stroke="#63b8ff" points="443.72,-254.06 452.89,-248.75 442.42,-247.18 443.72,-254.06"/>
</a>
</g>
</g>
<!-- Node2&#45;&gt;Node7 -->
<g id="edge6_Node000002_Node000007" class="edge">
<title>Node2&#45;&gt;Node7</title>
<g id="a_edge6_Node000002_Node000007"><a xlink:title=" ">
<path fill="none" stroke="#63b8ff" d="M208.21,-253.73C231.79,-250.87 266.52,-246.64 294.05,-243.29"/>
<polygon fill="#63b8ff" stroke="#63b8ff" points="294.34,-246.78 303.85,-242.1 293.5,-239.83 294.34,-246.78"/>
</a>
</g>
</g>
<!-- Node7&#45;&gt;Node3 -->
<g id="edge7_Node000007_Node000003" class="edge">
<title>Node7&#45;&gt;Node3</title>
<g id="a_edge7_Node000007_Node000003"><a xlink:title=" ">
<path fill="none" stroke="#63b8ff" d="M346.85,-248.28C361.33,-267.78 395.51,-310.18 434.25,-333 436.88,-334.55 439.64,-335.98 442.49,-337.29"/>
<polygon fill="#63b8ff" stroke="#63b8ff" points="441.06,-340.49 451.64,-341.02 443.7,-334.01 441.06,-340.49"/>
</a>
</g>
</g>
<!-- Node7&#45;&gt;Node4 -->
<g id="edge8_Node000007_Node000004" class="edge">
<title>Node7&#45;&gt;Node4</title>
<g id="a_edge8_Node000007_Node000004"><a xlink:title=" ">
<path fill="none" stroke="#63b8ff" d="M371.38,-230.49C392.49,-225.52 420.74,-218.87 445.46,-213.05"/>
<polygon fill="#63b8ff" stroke="#63b8ff" points="446.13,-216.49 455.06,-210.79 444.53,-209.67 446.13,-216.49"/>
</a>
</g>
</g>
<!-- Node7&#45;&gt;Node5 -->
<g id="edge9_Node000007_Node000005" class="edge">
<title>Node7&#45;&gt;Node5</title>
<g id="a_edge9_Node000007_Node000005"><a xlink:title=" ">
<path fill="none" stroke="#63b8ff" d="M361.6,-248.41C389.29,-261.45 436.94,-283.89 468.68,-298.84"/>
<polygon fill="#63b8ff" stroke="#63b8ff" points="466.88,-301.86 477.41,-302.95 469.86,-295.52 466.88,-301.86"/>
</a>
</g>
</g>
<!-- Node7&#45;&gt;Node6 -->
<g id="edge10_Node000007_Node000006" class="edge">
<title>Node7&#45;&gt;Node6</title>
<g id="a_edge10_Node000007_Node000006"><a xlink:title=" ">
<path fill="none" stroke="#63b8ff" d="M371.38,-238C386.22,-238 404.57,-238 422.76,-238"/>
<polygon fill="#63b8ff" stroke="#63b8ff" points="422.51,-241.5 432.51,-238 422.51,-234.5 422.51,-241.5"/>
</a>
</g>
</g>
<!-- Node9 -->
<g id="Node000009" class="node">
<title>Node9</title>
<g id="a_Node000009"><a xlink:href="command_8c.html#a4f5fb387e54e9f86c0201fff500341a7" target="_top" xlink:title=" ">
<polygon fill="white" stroke="#666666" points="398.25,-96 278.75,-96 278.75,-76 398.25,-76 398.25,-96"/>
<text text-anchor="middle" x="338.5" y="-82.5" font-family="Helvetica,sans-Serif" font-size="10.00">receive_command_byte</text>
</a>
</g>
</g>
<!-- Node8&#45;&gt;Node9 -->
<g id="edge17_Node000008_Node000009" class="edge">
<title>Node8&#45;&gt;Node9</title>
<g id="a_edge17_Node000008_Node000009"><a xlink:title=" ">
<path fill="none" stroke="#63b8ff" d="M243.08,-86C250.87,-86 258.88,-86 266.8,-86"/>
<polygon fill="#63b8ff" stroke="#63b8ff" points="266.77,-89.5 276.77,-86 266.77,-82.5 266.77,-89.5"/>
</a>
</g>
</g>
</g>
</svg>

<g id="navigator" transform="translate(0 0)" fill="#404254">
  <rect fill="#f2f5e9" fill-opacity="0.5" stroke="#606060" stroke-width=".5" x="0" y="0" width="60" height="60"/>
  <use id="zoomplus" xlink:href="#zoomPlus" x="17" y="9" onmousedown="handleZoom(evt,'in')"/>
  <use id="zoomminus" xlink:href="#zoomMin" x="42" y="9" onmousedown="handleZoom(evt,'out')"/>
  <use id="reset" xlink:href="#resetDef" x="30" y="36" onmousedown="handleReset()"/>
   <use id="arrowup" xlink:href="#arrowUp" x="0" y="0" onmousedown="handlePan(0,-1)"/>
  <use id="arrowright" xlink:href="#arrowRight" x="0" y="0" onmousedown="handlePan(1,0)"/>
  <use id="arrowdown" xlink:href="#arrowDown" x="0" y="0" onmousedown="handlePan(0,1)"/>
  <use id="arrowleft" xlink:href="#arrowLeft" x="0" y="0" onmousedown="handlePan(-1,0)"/>
</g>
<svg viewBox="0 0 15 15" width="100%" height="30px" preserveAspectRatio="xMaxYMin meet">
 <g id="arrow_out" transform="scale(0.3 0.3)">
  <a xlink:href="tasks_2radio_2radio_8h_aa62d7d3a4530934e87199d4741b365d1_cgraph_org.svg" target="_base">
   <rect id="button" ry="5" rx="5" y="6" x="6" height="38" width="38"
        fill="#f2f5e9" fill-opacity="0.5" stroke="#606060" stroke-width="1.0"/>
   <path id="arrow"
     d="M 11.500037,31.436501 C 11.940474,20.09759 22.043105,11.32322 32.158766,21.979434 L 37.068811,17.246167 C 37.068811,17.246167 37.088388,32 37.088388,32 L 22.160133,31.978069 C 22.160133,31.978069 26.997745,27.140456 26.997745,27.140456 C 18.528582,18.264221 13.291696,25.230495 11.500037,31.436501 z"
     style="fill:#404040;"/>
  </a>
 </g>
</svg>

<style type='text/css'>
<![CDATA[
[data-mouse-over-selected='false'] { opacity: 0.7; }
[data-mouse-over-selected='true']  { opacity: 1.0; }
]]>
</style>
<script type="application/ecmascript"><![CDATA[
document.addEventListener('DOMContentLoaded', (event) => {
  highlightEdges();
  highlightAdjacentNodes();
});
]]></script>
</svg>
