<?xml version="1.0" encoding="UTF-8" standalone="no"?>
<!DOCTYPE svg PUBLIC "-//W3C//DTD SVG 1.1//EN"
 "http://www.w3.org/Graphics/SVG/1.1/DTD/svg11.dtd">
<!-- Generated by graphviz version 12.1.2 (20240928.0832)
 -->
<!-- Title: telemetry_task Pages: 1 -->
<svg width="356pt" height="104pt"
 viewBox="0.00 0.00 356.00 104.00" xmlns="http://www.w3.org/2000/svg" xmlns:xlink="http://www.w3.org/1999/xlink">

<svg id="main" version="1.1" xmlns="http://www.w3.org/2000/svg" xmlns:xlink="http://www.w3.org/1999/xlink" xml:space="preserve">

<style type="text/css"><![CDATA[
.node, .edge {opacity: 0.7;}
.node.selected, .edge.selected {opacity: 1;}
.edge:hover path { stroke: red; }
.edge:hover polygon { stroke: red; fill: red; }
]]></style>
<script type="application/ecmascript" xlink:href="svg.min.js"/>
<svg id="graph" class="graph">
<g id="graph0" class="graph" transform="scale(1 1) rotate(0) translate(4 100)">
<title>telemetry_task</title>
<!-- Node1 -->
<g id="Node000001" class="node">
<title>Node1</title>
<g id="a_Node000001"><a xlink:title=" ">
<polygon fill="#999999" stroke="#666666" points="80.5,-58 0,-58 0,-38 80.5,-38 80.5,-58"/>
<text text-anchor="middle" x="40.25" y="-44.5" font-family="Helvetica,sans-Serif" font-size="10.00">telemetry_task</text>
</a>
</g>
</g>
<!-- Node2 -->
<g id="Node000002" class="node">
<title>Node2</title>
<g id="a_Node000002"><a xlink:href="gse_8c.html#a07a7ef3b41255450f286364cc3668e54" target="_top" xlink:title=" ">
<polygon fill="white" stroke="#666666" points="227.38,-96 119.12,-96 119.12,-76 227.38,-76 227.38,-96"/>
<text text-anchor="middle" x="173.25" y="-82.5" font-family="Helvetica,sans-Serif" font-size="10.00">gse_queue_message</text>
</a>
</g>
</g>
<!-- Node1&#45;&gt;Node2 -->
<g id="edge1_Node000001_Node000002" class="edge">
<title>Node1&#45;&gt;Node2</title>
<g id="a_edge1_Node000001_Node000002"><a xlink:title=" ">
<path fill="none" stroke="#63b8ff" d="M77.39,-58.48C92.28,-62.8 109.73,-67.86 125.57,-72.46"/>
<polygon fill="#63b8ff" stroke="#63b8ff" points="124.19,-75.7 134.77,-75.13 126.14,-68.98 124.19,-75.7"/>
</a>
</g>
</g>
<!-- Node4 -->
<g id="Node000004" class="node">
<title>Node4</title>
<g id="a_Node000004"><a xlink:href="test_2unit_2utilities_2log_8c.html#ad6da18174ed9892c214e56bac27bfc7f" target="_top" xlink:title=" ">
<polygon fill="white" stroke="#666666" points="207.88,-58 138.62,-58 138.62,-38 207.88,-38 207.88,-58"/>
<text text-anchor="middle" x="173.25" y="-44.5" font-family="Helvetica,sans-Serif" font-size="10.00">print_banner</text>
</a>
</g>
</g>
<!-- Node1&#45;&gt;Node4 -->
<g id="edge3_Node000001_Node000004" class="edge">
<title>Node1&#45;&gt;Node4</title>
<g id="a_edge3_Node000001_Node000004"><a xlink:title=" ">
<path fill="none" stroke="#63b8ff" d="M80.91,-48C95.55,-48 112.25,-48 127.32,-48"/>
<polygon fill="#63b8ff" stroke="#63b8ff" points="126.96,-51.5 136.96,-48 126.96,-44.5 126.96,-51.5"/>
</a>
</g>
</g>
<!-- Node5 -->
<g id="Node000005" class="node">
<title>Node5</title>
<g id="a_Node000005"><a xlink:href="radio_8cpp.html#af0ecc74e51dbb7c5bdb5d2bfc4a7a0b2" target="_top" xlink:title=" ">
<polygon fill="white" stroke="#666666" points="230,-20 116.5,-20 116.5,0 230,0 230,-20"/>
<text text-anchor="middle" x="173.25" y="-6.5" font-family="Helvetica,sans-Serif" font-size="10.00">radio_queue_message</text>
</a>
</g>
</g>
<!-- Node1&#45;&gt;Node5 -->
<g id="edge4_Node000001_Node000005" class="edge">
<title>Node1&#45;&gt;Node5</title>
<g id="a_edge4_Node000001_Node000005"><a xlink:title=" ">
<path fill="none" stroke="#63b8ff" d="M77.39,-37.52C92.28,-33.2 109.73,-28.14 125.57,-23.54"/>
<polygon fill="#63b8ff" stroke="#63b8ff" points="126.14,-27.02 134.77,-20.87 124.19,-20.3 126.14,-27.02"/>
</a>
</g>
</g>
<!-- Node3 -->
<g id="Node000003" class="node">
<title>Node3</title>
<g id="a_Node000003"><a xlink:href="simulator_2drivers_2src_2usb__uart_8c.html#aeeacfdf2d1ad160004870cf65253058f" target="_top" xlink:title=" ">
<polygon fill="white" stroke="#666666" points="348,-96 266,-96 266,-76 348,-76 348,-96"/>
<text text-anchor="middle" x="307" y="-82.5" font-family="Helvetica,sans-Serif" font-size="10.00">writebytes_usb</text>
</a>
</g>
</g>
<!-- Node2&#45;&gt;Node3 -->
<g id="edge2_Node000002_Node000003" class="edge">
<title>Node2&#45;&gt;Node3</title>
<g id="a_edge2_Node000002_Node000003"><a xlink:title=" ">
<path fill="none" stroke="#63b8ff" d="M227.84,-86C236.66,-86 245.78,-86 254.54,-86"/>
<polygon fill="#63b8ff" stroke="#63b8ff" points="254.29,-89.5 264.29,-86 254.29,-82.5 254.29,-89.5"/>
</a>
</g>
</g>
</g>
</svg>
</svg>

<style type='text/css'>
<![CDATA[
[data-mouse-over-selected='false'] { opacity: 0.7; }
[data-mouse-over-selected='true']  { opacity: 1.0; }
]]>
</style>
<script type="application/ecmascript"><![CDATA[
document.addEventListener('DOMContentLoaded', (event) => {
  highlightEdges();
  highlightAdjacentNodes();
});
]]></script>
</svg>
