<?xml version="1.0" encoding="UTF-8" standalone="no"?>
<!DOCTYPE svg PUBLIC "-//W3C//DTD SVG 1.1//EN"
 "http://www.w3.org/Graphics/SVG/1.1/DTD/svg11.dtd">
<!-- Generated by graphviz version 2.43.0 (0)
 -->
<!-- Title: telemetry.h Pages: 1 -->
<!--zoomable 192 -->

<svg id="main" version="1.1" xmlns="http://www.w3.org/2000/svg" xmlns:xlink="http://www.w3.org/1999/xlink" xml:space="preserve" onload="init(evt)">

<style type="text/css"><![CDATA[
.node, .edge {opacity: 0.7;}
.node.selected, .edge.selected {opacity: 1;}
.edge:hover path { stroke: red; }
.edge:hover polygon { stroke: red; fill: red; }
]]></style>

<defs>
  <circle id="rim" cx="0" cy="0" r="7"/>
  <circle id="rim2" cx="0" cy="0" r="3.5"/>
  <g id="zoomPlus">
    <use xlink:href="#rim" fill="#404040"><set attributeName="fill" to="#808080" begin="zoomplus.mouseover" end="zoomplus.mouseout"/></use>
    <path d="M-4,0h8M0,-4v8" fill="none" stroke="white" stroke-width="1.5" pointer-events="none"/>
  </g>
  <g id="zoomMin">
    <use xlink:href="#rim" fill="#404040"><set attributeName="fill" to="#808080" begin="zoomminus.mouseover" end="zoomminus.mouseout"/></use>
    <path d="M-4,0h8" fill="none" stroke="white" stroke-width="1.5" pointer-events="none"/>
  </g>
  <g id="arrowUp" transform="translate(30 24)">
    <use xlink:href="#rim"/>
    <path pointer-events="none" fill="none" stroke="white" stroke-width="1.5" d="M0,-3.0v7 M-2.5,-0.5L0,-3.0L2.5,-0.5"/>
  </g>
  <g id="arrowRight" transform="rotate(90) translate(36 -43)">
    <use xlink:href="#rim"/>
    <path pointer-events="none" fill="none" stroke="white" stroke-width="1.5" d="M0,-3.0v7 M-2.5,-0.5L0,-3.0L2.5,-0.5"/>
  </g>
  <g id="arrowDown" transform="rotate(180) translate(-30 -48)">
    <use xlink:href="#rim"/>
    <path pointer-events="none" fill="none" stroke="white" stroke-width="1.5" d="M0,-3.0v7 M-2.5,-0.5L0,-3.0L2.5,-0.5"/>
  </g>
  <g id="arrowLeft" transform="rotate(270) translate(-36 17)">
    <use xlink:href="#rim"/>
    <path pointer-events="none" fill="none" stroke="white" stroke-width="1.5" d="M0,-3.0v7 M-2.5,-0.5L0,-3.0L2.5,-0.5"/>
  </g>
  <g id="resetDef">
    <use xlink:href="#rim2" fill="#404040"><set attributeName="fill" to="#808080" begin="reset.mouseover" end="reset.mouseout"/></use>
  </g>
</defs>
<script type="application/ecmascript">
var viewWidth = 2504;
var viewHeight = 192;
var sectionId = 'dynsection-1';
</script>
<script type="application/ecmascript" xlink:href="svg.min.js"/>
<svg id="graph" class="graph">
<g id="viewport">
<title>telemetry.h</title>
<!-- Node1 -->
<g id="Node000001" class="node">
<title>Node1</title>
<g id="a_Node000001"><a xlink:title="Functions for packaging and queuing telemetry packets for sending.">
<polygon fill="#999999" stroke="#666666" points="374.88,-184 302.88,-184 302.88,-165 374.88,-165 374.88,-184"/>
<text text-anchor="middle" x="338.88" y="-172" font-family="Helvetica,sans-Serif" font-size="10.00">telemetry.h</text>
</a>
</g>
</g>
<!-- Node2 -->
<g id="Node000002" class="node">
<title>Node2</title>
<g id="a_Node000002"><a xlink:href="command__fuzzer_8cpp.html" target="_top" xlink:title=" ">
<polygon fill="white" stroke="#666666" points="135.88,-74 15.88,-74 15.88,-55 135.88,-55 135.88,-74"/>
<text text-anchor="middle" x="75.88" y="-62" font-family="Helvetica,sans-Serif" font-size="10.00">command_fuzzer.cpp</text>
</a>
</g>
</g>
<!-- Node1&#45;&gt;Node2 -->
<g id="edge1_Node000001_Node000002" class="edge">
<title>Node1&#45;&gt;Node2</title>
<g id="a_edge1_Node000001_Node000002"><a xlink:title=" ">
<path fill="none" stroke="#63b8ff" d="M308.39,-160.98C254.31,-138.77 142.91,-93.03 96.69,-74.05"/>
<polygon fill="#63b8ff" stroke="#63b8ff" points="307.22,-164.28 317.8,-164.84 309.88,-157.81 307.22,-164.28"/>
</a>
</g>
</g>
<!-- Node3 -->
<g id="Node000003" class="node">
<title>Node3</title>
<g id="a_Node000003"><a xlink:href="file__downlink_8c.html" target="_top" xlink:title=" ">
<polygon fill="white" stroke="#666666" points="281.38,-74 192.38,-74 192.38,-55 281.38,-55 281.38,-74"/>
<text text-anchor="middle" x="236.88" y="-62" font-family="Helvetica,sans-Serif" font-size="10.00">file_downlink.c</text>
</a>
</g>
</g>
<!-- Node1&#45;&gt;Node3 -->
<g id="edge2_Node000001_Node000003" class="edge">
<title>Node1&#45;&gt;Node3</title>
<g id="a_edge2_Node000001_Node000003"><a xlink:title=" ">
<path fill="none" stroke="#63b8ff" d="M320.68,-158.05C311.2,-149.73 299.6,-139.14 289.88,-129 271.98,-110.35 253.05,-86.53 243.39,-74.03"/>
<polygon fill="#63b8ff" stroke="#63b8ff" points="318.5,-160.79 328.36,-164.69 323.09,-155.5 318.5,-160.79"/>
</a>
</g>
</g>
<!-- Node4 -->
<g id="Node000004" class="node">
<title>Node4</title>
<g id="a_Node000004"><a xlink:href="hb__tlm__log_8h.html" target="_top" xlink:title=" ">
<polygon fill="white" stroke="#666666" points="378.88,-129 298.88,-129 298.88,-110 378.88,-110 378.88,-129"/>
<text text-anchor="middle" x="338.88" y="-117" font-family="Helvetica,sans-Serif" font-size="10.00">hb_tlm_log.h</text>
</a>
</g>
</g>
<!-- Node1&#45;&gt;Node4 -->
<g id="edge3_Node000001_Node000004" class="edge">
<title>Node1&#45;&gt;Node4</title>
<g id="a_edge3_Node000001_Node000004"><a xlink:title=" ">
<path fill="none" stroke="#63b8ff" d="M338.88,-154.66C338.88,-145.93 338.88,-135.99 338.88,-129.09"/>
<polygon fill="#63b8ff" stroke="#63b8ff" points="335.38,-154.75 338.88,-164.75 342.38,-154.75 335.38,-154.75"/>
</a>
</g>
</g>
<!-- Node7 -->
<g id="Node000007" class="node">
<title>Node7</title>
<g id="a_Node000007"><a xlink:href="heartbeat__job_8c.html" target="_top" xlink:title=" ">
<polygon fill="white" stroke="#666666" points="209.88,-19 117.88,-19 117.88,0 209.88,0 209.88,-19"/>
<text text-anchor="middle" x="163.88" y="-7" font-family="Helvetica,sans-Serif" font-size="10.00">heartbeat_job.c</text>
</a>
</g>
</g>
<!-- Node1&#45;&gt;Node7 -->
<g id="edge7_Node000001_Node000007" class="edge">
<title>Node1&#45;&gt;Node7</title>
<g id="a_edge7_Node000001_Node000007"><a xlink:title=" ">
<path fill="none" stroke="#63b8ff" d="M292.82,-166.55C209.96,-153 41.19,-120.29 6.88,-74 -23.77,-32.66 60.85,-18.17 117.47,-13.13"/>
<polygon fill="#63b8ff" stroke="#63b8ff" points="292.29,-170.01 302.72,-168.15 293.41,-163.1 292.29,-170.01"/>
</a>
</g>
</g>
<!-- Node8 -->
<g id="Node000008" class="node">
<title>Node8</title>
<g id="a_Node000008"><a xlink:href="log_8h.html" target="_top" xlink:title=" ">
<polygon fill="white" stroke="#666666" points="1382.38,-129 1341.38,-129 1341.38,-110 1382.38,-110 1382.38,-129"/>
<text text-anchor="middle" x="1361.88" y="-117" font-family="Helvetica,sans-Serif" font-size="10.00">log.h</text>
</a>
</g>
</g>
<!-- Node1&#45;&gt;Node8 -->
<g id="edge8_Node000001_Node000008" class="edge">
<title>Node1&#45;&gt;Node8</title>
<g id="a_edge8_Node000001_Node000008"><a xlink:title=" ">
<path fill="none" stroke="#63b8ff" d="M385.18,-171.1C565.38,-161.77 1215.95,-128.06 1341,-121.58"/>
<polygon fill="#63b8ff" stroke="#63b8ff" points="384.79,-167.62 374.98,-171.63 385.15,-174.61 384.79,-167.62"/>
</a>
</g>
</g>
<!-- Node21 -->
<g id="Node000021" class="node">
<title>Node21</title>
<g id="a_Node000021"><a xlink:href="main_8c.html" target="_top" xlink:title=" ">
<polygon fill="white" stroke="#666666" points="2406.88,-74 2356.88,-74 2356.88,-55 2406.88,-55 2406.88,-74"/>
<text text-anchor="middle" x="2381.88" y="-62" font-family="Helvetica,sans-Serif" font-size="10.00">main.c</text>
</a>
</g>
</g>
<!-- Node1&#45;&gt;Node21 -->
<g id="edge40_Node000001_Node000021" class="edge">
<title>Node1&#45;&gt;Node21</title>
<g id="a_edge40_Node000001_Node000021"><a xlink:title=" ">
<path fill="none" stroke="#63b8ff" d="M385.61,-172.48C649.09,-166.52 1951.4,-134.41 2347.88,-74 2350.76,-73.56 2353.76,-72.99 2356.73,-72.34"/>
<polygon fill="#63b8ff" stroke="#63b8ff" points="385.17,-168.99 375.25,-172.71 385.33,-175.98 385.17,-168.99"/>
</a>
</g>
</g>
<!-- Node28 -->
<g id="Node000028" class="node">
<title>Node28</title>
<g id="a_Node000028"><a xlink:href="telemetry_8c.html" target="_top" xlink:title=" ">
<polygon fill="white" stroke="#666666" points="2496.38,-74 2425.38,-74 2425.38,-55 2496.38,-55 2496.38,-74"/>
<text text-anchor="middle" x="2460.88" y="-62" font-family="Helvetica,sans-Serif" font-size="10.00">telemetry.c</text>
</a>
</g>
</g>
<!-- Node1&#45;&gt;Node28 -->
<g id="edge41_Node000001_Node000028" class="edge">
<title>Node1&#45;&gt;Node28</title>
<g id="a_edge41_Node000001_Node000028"><a xlink:title=" ">
<path fill="none" stroke="#63b8ff" d="M385.11,-173.2C568.47,-171.79 1262.21,-164.28 1831.88,-129 2092.08,-112.89 2157.73,-110.46 2415.88,-74 2418.87,-73.58 2421.96,-73.09 2425.06,-72.57"/>
<polygon fill="#63b8ff" stroke="#63b8ff" points="384.99,-169.7 375.01,-173.28 385.04,-176.7 384.99,-169.7"/>
</a>
</g>
</g>
<!-- Node5 -->
<g id="Node000005" class="node">
<title>Node5</title>
<g id="a_Node000005"><a xlink:href="command_8c.html" target="_top" xlink:title=" ">
<polygon fill="white" stroke="#666666" points="470.88,-74 396.88,-74 396.88,-55 470.88,-55 470.88,-74"/>
<text text-anchor="middle" x="433.88" y="-62" font-family="Helvetica,sans-Serif" font-size="10.00">command.c</text>
</a>
</g>
</g>
<!-- Node4&#45;&gt;Node5 -->
<g id="edge4_Node000004_Node000005" class="edge">
<title>Node4&#45;&gt;Node5</title>
<g id="a_edge4_Node000004_Node000005"><a xlink:title=" ">
<path fill="none" stroke="#63b8ff" d="M363.14,-104.97C380.5,-95.28 403.37,-82.52 418.33,-74.17"/>
<polygon fill="#63b8ff" stroke="#63b8ff" points="361.17,-102.06 354.14,-109.98 364.58,-108.17 361.17,-102.06"/>
</a>
</g>
</g>
<!-- Node6 -->
<g id="Node000006" class="node">
<title>Node6</title>
<g id="a_Node000006"><a xlink:href="hb__tlm__log_8c.html" target="_top" xlink:title=" ">
<polygon fill="white" stroke="#666666" points="378.38,-74 299.38,-74 299.38,-55 378.38,-55 378.38,-74"/>
<text text-anchor="middle" x="338.88" y="-62" font-family="Helvetica,sans-Serif" font-size="10.00">hb_tlm_log.c</text>
</a>
</g>
</g>
<!-- Node4&#45;&gt;Node6 -->
<g id="edge5_Node000004_Node000006" class="edge">
<title>Node4&#45;&gt;Node6</title>
<g id="a_edge5_Node000004_Node000006"><a xlink:title=" ">
<path fill="none" stroke="#63b8ff" d="M338.88,-99.66C338.88,-90.93 338.88,-80.99 338.88,-74.09"/>
<polygon fill="#63b8ff" stroke="#63b8ff" points="335.38,-99.75 338.88,-109.75 342.38,-99.75 335.38,-99.75"/>
</a>
</g>
</g>
<!-- Node4&#45;&gt;Node7 -->
<g id="edge6_Node000004_Node000007" class="edge">
<title>Node4&#45;&gt;Node7</title>
<g id="a_edge6_Node000004_Node000007"><a xlink:title=" ">
<path fill="none" stroke="#63b8ff" d="M288.44,-116.35C254.4,-112.28 210.76,-101.52 182.88,-74 167.81,-59.12 164.58,-32.83 163.96,-19.21"/>
<polygon fill="#63b8ff" stroke="#63b8ff" points="288.36,-119.87 298.67,-117.42 289.09,-112.9 288.36,-119.87"/>
</a>
</g>
</g>
<!-- Node8&#45;&gt;Node2 -->
<g id="edge11_Node000008_Node000002" class="edge">
<title>Node8&#45;&gt;Node2</title>
<g id="a_edge11_Node000008_Node000002"><a xlink:title=" ">
<path fill="none" stroke="#63b8ff" d="M1331.26,-117.81C1196.09,-114.68 639.29,-100.73 182.88,-74 167.71,-73.11 151.36,-71.93 136.11,-70.73"/>
<polygon fill="#63b8ff" stroke="#63b8ff" points="1331.22,-121.31 1341.3,-118.04 1331.38,-114.31 1331.22,-121.31"/>
</a>
</g>
</g>
<!-- Node8&#45;&gt;Node3 -->
<g id="edge13_Node000008_Node000003" class="edge">
<title>Node8&#45;&gt;Node3</title>
<g id="a_edge13_Node000008_Node000003"><a xlink:title=" ">
<path fill="none" stroke="#63b8ff" d="M1331.16,-118.54C1203.25,-118.45 700.47,-115.3 289.88,-74 287.19,-73.73 284.43,-73.41 281.65,-73.06"/>
<polygon fill="#63b8ff" stroke="#63b8ff" points="1331.37,-122.04 1341.37,-118.54 1331.37,-115.04 1331.37,-122.04"/>
</a>
</g>
</g>
<!-- Node8&#45;&gt;Node5 -->
<g id="edge10_Node000008_Node000005" class="edge">
<title>Node8&#45;&gt;Node5</title>
<g id="a_edge10_Node000008_Node000005"><a xlink:title=" ">
<path fill="none" stroke="#63b8ff" d="M1331.24,-118.42C1217.9,-117.81 811.8,-112.87 479.88,-74 476.97,-73.66 473.97,-73.25 470.97,-72.79"/>
<polygon fill="#63b8ff" stroke="#63b8ff" points="1331.26,-121.92 1341.28,-118.47 1331.3,-114.92 1331.26,-121.92"/>
</a>
</g>
</g>
<!-- Node8&#45;&gt;Node6 -->
<g id="edge16_Node000008_Node000006" class="edge">
<title>Node8&#45;&gt;Node6</title>
<g id="a_edge16_Node000008_Node000006"><a xlink:title=" ">
<path fill="none" stroke="#63b8ff" d="M1330.88,-118.5C1209.85,-118.22 757.48,-114.34 387.88,-74 384.79,-73.66 381.6,-73.25 378.4,-72.8"/>
<polygon fill="#63b8ff" stroke="#63b8ff" points="1331.23,-122 1341.24,-118.52 1331.24,-115 1331.23,-122"/>
</a>
</g>
</g>
<!-- Node9 -->
<g id="Node000009" class="node">
<title>Node9</title>
<g id="a_Node000009"><a xlink:href="antenna__deploy__job_8c.html" target="_top" xlink:title=" ">
<polygon fill="white" stroke="#666666" points="1908.38,-74 1785.38,-74 1785.38,-55 1908.38,-55 1908.38,-74"/>
<text text-anchor="middle" x="1846.88" y="-62" font-family="Helvetica,sans-Serif" font-size="10.00">antenna_deploy_job.c</text>
</a>
</g>
</g>
<!-- Node8&#45;&gt;Node9 -->
<g id="edge9_Node000008_Node000009" class="edge">
<title>Node8&#45;&gt;Node9</title>
<g id="a_edge9_Node000008_Node000009"><a xlink:title=" ">
<path fill="none" stroke="#63b8ff" d="M1392.81,-115.17C1461.05,-107.81 1629.69,-89.58 1770.88,-74 1775.49,-73.49 1780.27,-72.96 1785.08,-72.43"/>
<polygon fill="#63b8ff" stroke="#63b8ff" points="1392.3,-111.7 1382.73,-116.25 1393.05,-118.66 1392.3,-111.7"/>
</a>
</g>
</g>
<!-- Node10 -->
<g id="Node000010" class="node">
<title>Node10</title>
<g id="a_Node000010"><a xlink:href="ds18b20_8c.html" target="_top" xlink:title=" ">
<polygon fill="white" stroke="#666666" points="1992.88,-74 1926.88,-74 1926.88,-55 1992.88,-55 1992.88,-74"/>
<text text-anchor="middle" x="1959.88" y="-62" font-family="Helvetica,sans-Serif" font-size="10.00">ds18b20.c</text>
</a>
</g>
</g>
<!-- Node8&#45;&gt;Node10 -->
<g id="edge12_Node000008_Node000010" class="edge">
<title>Node8&#45;&gt;Node10</title>
<g id="a_edge12_Node000008_Node000010"><a xlink:title=" ">
<path fill="none" stroke="#63b8ff" d="M1392.51,-117.28C1476.62,-113.68 1718.05,-101.53 1916.88,-74 1920.04,-73.56 1923.33,-73.04 1926.6,-72.47"/>
<polygon fill="#63b8ff" stroke="#63b8ff" points="1392.22,-113.79 1382.38,-117.71 1392.52,-120.79 1392.22,-113.79"/>
</a>
</g>
</g>
<!-- Node11 -->
<g id="Node000011" class="node">
<title>Node11</title>
<g id="a_Node000011"><a xlink:href="filesystem_8c.html" target="_top" xlink:title=" ">
<polygon fill="white" stroke="#666666" points="2086.88,-74 2010.88,-74 2010.88,-55 2086.88,-55 2086.88,-74"/>
<text text-anchor="middle" x="2048.88" y="-62" font-family="Helvetica,sans-Serif" font-size="10.00">filesystem.c</text>
</a>
</g>
</g>
<!-- Node8&#45;&gt;Node11 -->
<g id="edge14_Node000008_Node000011" class="edge">
<title>Node8&#45;&gt;Node11</title>
<g id="a_edge14_Node000008_Node000011"><a xlink:title=" ">
<path fill="none" stroke="#63b8ff" d="M1392.45,-117.56C1484.74,-114.48 1768.52,-103.13 2001.88,-74 2004.76,-73.64 2007.73,-73.22 2010.71,-72.76"/>
<polygon fill="#63b8ff" stroke="#63b8ff" points="1392.28,-114.07 1382.4,-117.89 1392.51,-121.06 1392.28,-114.07"/>
</a>
</g>
</g>
<!-- Node12 -->
<g id="Node000012" class="node">
<title>Node12</title>
<g id="a_Node000012"><a xlink:href="gse_8c.html" target="_top" xlink:title=" ">
<polygon fill="white" stroke="#666666" points="2146.88,-74 2104.88,-74 2104.88,-55 2146.88,-55 2146.88,-74"/>
<text text-anchor="middle" x="2125.88" y="-62" font-family="Helvetica,sans-Serif" font-size="10.00">gse.c</text>
</a>
</g>
</g>
<!-- Node8&#45;&gt;Node12 -->
<g id="edge15_Node000008_Node000012" class="edge">
<title>Node8&#45;&gt;Node12</title>
<g id="a_edge15_Node000008_Node000012"><a xlink:title=" ">
<path fill="none" stroke="#63b8ff" d="M1392.64,-118.99C1493.98,-120.12 1826.29,-119.81 2095.88,-74 2098.76,-73.51 2101.76,-72.85 2104.7,-72.11"/>
<polygon fill="#63b8ff" stroke="#63b8ff" points="1392.54,-115.49 1382.49,-118.87 1392.45,-122.49 1392.54,-115.49"/>
</a>
</g>
</g>
<!-- Node13 -->
<g id="Node000013" class="node">
<title>Node13</title>
<g id="a_Node000013"><a xlink:href="i2c_8c.html" target="_top" xlink:title=" ">
<polygon fill="white" stroke="#666666" points="2204.38,-74 2165.38,-74 2165.38,-55 2204.38,-55 2204.38,-74"/>
<text text-anchor="middle" x="2184.88" y="-62" font-family="Helvetica,sans-Serif" font-size="10.00">i2c.c</text>
</a>
</g>
</g>
<!-- Node8&#45;&gt;Node13 -->
<g id="edge17_Node000008_Node000013" class="edge">
<title>Node8&#45;&gt;Node13</title>
<g id="a_edge17_Node000008_Node000013"><a xlink:title=" ">
<path fill="none" stroke="#63b8ff" d="M1392.97,-117.71C1520.66,-114.31 2005.16,-99.96 2155.88,-74 2158.98,-73.47 2162.22,-72.71 2165.36,-71.88"/>
<polygon fill="#63b8ff" stroke="#63b8ff" points="1392.63,-114.22 1382.73,-117.98 1392.82,-121.21 1392.63,-114.22"/>
</a>
</g>
</g>
<!-- Node14 -->
<g id="Node000014" class="node">
<title>Node14</title>
<g id="a_Node000014"><a xlink:href="ina219_8c.html" target="_top" xlink:title=" ">
<polygon fill="white" stroke="#666666" points="2280.88,-74 2222.88,-74 2222.88,-55 2280.88,-55 2280.88,-74"/>
<text text-anchor="middle" x="2251.88" y="-62" font-family="Helvetica,sans-Serif" font-size="10.00">ina219.c</text>
</a>
</g>
</g>
<!-- Node8&#45;&gt;Node14 -->
<g id="edge18_Node000008_Node000014" class="edge">
<title>Node8&#45;&gt;Node14</title>
<g id="a_edge18_Node000008_Node000014"><a xlink:title=" ">
<path fill="none" stroke="#63b8ff" d="M1392.59,-118.75C1503.71,-119.27 1895.04,-117.67 2213.88,-74 2216.69,-73.61 2219.6,-73.13 2222.51,-72.58"/>
<polygon fill="#63b8ff" stroke="#63b8ff" points="1392.46,-115.25 1382.44,-118.69 1392.42,-122.25 1392.46,-115.25"/>
</a>
</g>
</g>
<!-- Node15 -->
<g id="Node000015" class="node">
<title>Node15</title>
<g id="a_Node000015"><a xlink:href="test_2unit_2utilities_2log_8c.html" target="_top" xlink:title=" ">
<polygon fill="white" stroke="#666666" points="2338.88,-74 2298.88,-74 2298.88,-55 2338.88,-55 2338.88,-74"/>
<text text-anchor="middle" x="2318.88" y="-62" font-family="Helvetica,sans-Serif" font-size="10.00">log.c</text>
</a>
</g>
</g>
<!-- Node8&#45;&gt;Node15 -->
<g id="edge19_Node000008_Node000015" class="edge">
<title>Node8&#45;&gt;Node15</title>
<g id="a_edge19_Node000008_Node000015"><a xlink:title=" ">
<path fill="none" stroke="#63b8ff" d="M1392.64,-118C1532.76,-115.6 2111.4,-104 2289.88,-74 2292.77,-73.51 2295.79,-72.83 2298.74,-72.07"/>
<polygon fill="#63b8ff" stroke="#63b8ff" points="1392.54,-114.51 1382.6,-118.17 1392.65,-121.5 1392.54,-114.51"/>
</a>
</g>
</g>
<!-- Node16 -->
<g id="Node000016" class="node">
<title>Node16</title>
<g id="a_Node000016"><a xlink:href="utilities_2src_2log_8c.html" target="_top" xlink:title=" ">
<polygon fill="white" stroke="#666666" points="528.88,-74 488.88,-74 488.88,-55 528.88,-55 528.88,-74"/>
<text text-anchor="middle" x="508.88" y="-62" font-family="Helvetica,sans-Serif" font-size="10.00">log.c</text>
</a>
</g>
</g>
<!-- Node8&#45;&gt;Node16 -->
<g id="edge20_Node000008_Node000016" class="edge">
<title>Node8&#45;&gt;Node16</title>
<g id="a_edge20_Node000008_Node000016"><a xlink:title=" ">
<path fill="none" stroke="#63b8ff" d="M1331.3,-117.79C1201.42,-114.65 694.97,-100.89 537.88,-74 534.98,-73.5 531.96,-72.82 529.02,-72.05"/>
<polygon fill="#63b8ff" stroke="#63b8ff" points="1331.26,-121.29 1341.34,-118.03 1331.43,-114.3 1331.26,-121.29"/>
</a>
</g>
</g>
<!-- Node17 -->
<g id="Node000017" class="node">
<title>Node17</title>
<g id="a_Node000017"><a xlink:href="log__test__unittest_8c.html" target="_top" xlink:title=" ">
<polygon fill="white" stroke="#666666" points="654.38,-74 547.38,-74 547.38,-55 654.38,-55 654.38,-74"/>
<text text-anchor="middle" x="600.88" y="-62" font-family="Helvetica,sans-Serif" font-size="10.00">log_test_unittest.c</text>
</a>
</g>
</g>
<!-- Node8&#45;&gt;Node17 -->
<g id="edge21_Node000008_Node000017" class="edge">
<title>Node8&#45;&gt;Node17</title>
<g id="a_edge21_Node000008_Node000017"><a xlink:title=" ">
<path fill="none" stroke="#63b8ff" d="M1331.17,-117.34C1233.4,-113.49 920.61,-99.84 662.88,-74 660.17,-73.73 657.41,-73.43 654.62,-73.11"/>
<polygon fill="#63b8ff" stroke="#63b8ff" points="1331.12,-120.84 1341.25,-117.74 1331.39,-113.85 1331.12,-120.84"/>
</a>
</g>
</g>
<!-- Node18 -->
<g id="Node000018" class="node">
<title>Node18</title>
<g id="a_Node000018"><a xlink:href="mag__lis3mdltr_8c.html" target="_top" xlink:title=" ">
<polygon fill="white" stroke="#666666" points="1667.38,-19 1572.38,-19 1572.38,0 1667.38,0 1667.38,-19"/>
<text text-anchor="middle" x="1619.88" y="-7" font-family="Helvetica,sans-Serif" font-size="10.00">mag_lis3mdltr.c</text>
</a>
</g>
</g>
<!-- Node8&#45;&gt;Node18 -->
<g id="edge22_Node000008_Node000018" class="edge">
<title>Node8&#45;&gt;Node18</title>
<g id="a_edge22_Node000008_Node000018"><a xlink:title=" ">
<path fill="none" stroke="#63b8ff" d="M1392.56,-115.65C1446.52,-110.12 1555.56,-96.46 1585.88,-74 1604.56,-60.15 1614.04,-32.91 1617.83,-19.04"/>
<polygon fill="#63b8ff" stroke="#63b8ff" points="1392.15,-112.17 1382.55,-116.65 1392.84,-119.14 1392.15,-112.17"/>
</a>
</g>
</g>
<!-- Node19 -->
<g id="Node000019" class="node">
<title>Node19</title>
<g id="a_Node000019"><a xlink:href="mag__lis3mdltr_8h.html" target="_top" xlink:title="Magnetometer Driver (LIS3MDLTR)">
<polygon fill="white" stroke="#666666" points="1728.38,-74 1633.38,-74 1633.38,-55 1728.38,-55 1728.38,-74"/>
<text text-anchor="middle" x="1680.88" y="-62" font-family="Helvetica,sans-Serif" font-size="10.00">mag_lis3mdltr.h</text>
</a>
</g>
</g>
<!-- Node8&#45;&gt;Node19 -->
<g id="edge23_Node000008_Node000019" class="edge">
<title>Node8&#45;&gt;Node19</title>
<g id="a_edge23_Node000008_Node000019"><a xlink:title=" ">
<path fill="none" stroke="#63b8ff" d="M1392.81,-113.36C1448.71,-104.07 1566.9,-84.44 1633.2,-73.42"/>
<polygon fill="#63b8ff" stroke="#63b8ff" points="1392.1,-109.93 1382.81,-115.02 1393.24,-116.84 1392.1,-109.93"/>
</a>
</g>
</g>
<!-- Node20 -->
<g id="Node000020" class="node">
<title>Node20</title>
<g id="a_Node000020"><a xlink:href="steve_8c.html" target="_top" xlink:title=" ">
<polygon fill="white" stroke="#666666" points="1767.88,-19 1715.88,-19 1715.88,0 1767.88,0 1767.88,-19"/>
<text text-anchor="middle" x="1741.88" y="-7" font-family="Helvetica,sans-Serif" font-size="10.00">steve.c</text>
</a>
</g>
</g>
<!-- Node8&#45;&gt;Node20 -->
<g id="edge34_Node000008_Node000020" class="edge">
<title>Node8&#45;&gt;Node20</title>
<g id="a_edge34_Node000008_Node000020"><a xlink:title=" ">
<path fill="none" stroke="#63b8ff" d="M1392.68,-117.05C1478.08,-112.74 1713.13,-98.7 1736.88,-74 1750.98,-59.33 1747.39,-32.94 1744.26,-19.26"/>
<polygon fill="#63b8ff" stroke="#63b8ff" points="1392.39,-113.56 1382.57,-117.55 1392.73,-120.55 1392.39,-113.56"/>
</a>
</g>
</g>
<!-- Node8&#45;&gt;Node21 -->
<g id="edge27_Node000008_Node000021" class="edge">
<title>Node8&#45;&gt;Node21</title>
<g id="a_edge27_Node000008_Node000021"><a xlink:title=" ">
<path fill="none" stroke="#63b8ff" d="M1392.66,-117.94C1538.04,-115.17 2156.82,-101.91 2347.88,-74 2350.77,-73.58 2353.77,-73.02 2356.74,-72.38"/>
<polygon fill="#63b8ff" stroke="#63b8ff" points="1392.58,-114.44 1382.65,-118.13 1392.71,-121.44 1392.58,-114.44"/>
</a>
</g>
</g>
<!-- Node22 -->
<g id="Node000022" class="node">
<title>Node22</title>
<g id="a_Node000022"><a xlink:href="max17048_8c.html" target="_top" xlink:title=" ">
<polygon fill="white" stroke="#666666" points="749.38,-74 672.38,-74 672.38,-55 749.38,-55 749.38,-74"/>
<text text-anchor="middle" x="710.88" y="-62" font-family="Helvetica,sans-Serif" font-size="10.00">max17048.c</text>
</a>
</g>
</g>
<!-- Node8&#45;&gt;Node22 -->
<g id="edge28_Node000008_Node000022" class="edge">
<title>Node8&#45;&gt;Node22</title>
<g id="a_edge28_Node000008_Node000022"><a xlink:title=" ">
<path fill="none" stroke="#63b8ff" d="M1330.98,-117.37C1241.8,-113.88 976.41,-101.73 757.88,-74 755.16,-73.66 752.37,-73.26 749.55,-72.83"/>
<polygon fill="#63b8ff" stroke="#63b8ff" points="1331.07,-120.88 1341.2,-117.77 1331.34,-113.89 1331.07,-120.88"/>
</a>
</g>
</g>
<!-- Node23 -->
<g id="Node000023" class="node">
<title>Node23</title>
<g id="a_Node000023"><a xlink:href="miscellaneous__jobs_8c.html" target="_top" xlink:title=" ">
<polygon fill="white" stroke="#666666" points="888.38,-74 767.38,-74 767.38,-55 888.38,-55 888.38,-74"/>
<text text-anchor="middle" x="827.88" y="-62" font-family="Helvetica,sans-Serif" font-size="10.00">miscellaneous_jobs.c</text>
</a>
</g>
</g>
<!-- Node8&#45;&gt;Node23 -->
<g id="edge29_Node000008_Node000023" class="edge">
<title>Node8&#45;&gt;Node23</title>
<g id="a_edge29_Node000008_Node000023"><a xlink:title=" ">
<path fill="none" stroke="#63b8ff" d="M1330.94,-115.8C1256.37,-109.25 1060.82,-91.7 897.88,-74 894.83,-73.67 891.72,-73.32 888.57,-72.97"/>
<polygon fill="#63b8ff" stroke="#63b8ff" points="1330.78,-119.3 1341.05,-116.69 1331.39,-112.33 1330.78,-119.3"/>
</a>
</g>
</g>
<!-- Node24 -->
<g id="Node000024" class="node">
<title>Node24</title>
<g id="a_Node000024"><a xlink:href="mram_8c.html" target="_top" xlink:title=" ">
<polygon fill="white" stroke="#666666" points="960.88,-74 906.88,-74 906.88,-55 960.88,-55 960.88,-74"/>
<text text-anchor="middle" x="933.88" y="-62" font-family="Helvetica,sans-Serif" font-size="10.00">mram.c</text>
</a>
</g>
</g>
<!-- Node8&#45;&gt;Node24 -->
<g id="edge30_Node000008_Node000024" class="edge">
<title>Node8&#45;&gt;Node24</title>
<g id="a_edge30_Node000008_Node000024"><a xlink:title=" ">
<path fill="none" stroke="#63b8ff" d="M1331.18,-116.26C1264.88,-111.16 1103.46,-97.27 969.88,-74 966.97,-73.49 963.94,-72.89 960.93,-72.25"/>
<polygon fill="#63b8ff" stroke="#63b8ff" points="1331.11,-119.77 1341.35,-117.03 1331.64,-112.79 1331.11,-119.77"/>
</a>
</g>
</g>
<!-- Node25 -->
<g id="Node000025" class="node">
<title>Node25</title>
<g id="a_Node000025"><a xlink:href="radio_8cpp.html" target="_top" xlink:title="Radio operations and the task handling them.">
<polygon fill="white" stroke="#666666" points="1040.88,-74 978.88,-74 978.88,-55 1040.88,-55 1040.88,-74"/>
<text text-anchor="middle" x="1009.88" y="-62" font-family="Helvetica,sans-Serif" font-size="10.00">radio.cpp</text>
</a>
</g>
</g>
<!-- Node8&#45;&gt;Node25 -->
<g id="edge31_Node000008_Node000025" class="edge">
<title>Node8&#45;&gt;Node25</title>
<g id="a_edge31_Node000008_Node000025"><a xlink:title=" ">
<path fill="none" stroke="#63b8ff" d="M1331.39,-114.85C1275.43,-107.99 1152.62,-92.22 1049.88,-74 1047.08,-73.5 1044.18,-72.96 1041.28,-72.38"/>
<polygon fill="#63b8ff" stroke="#63b8ff" points="1331.01,-118.33 1341.36,-116.06 1331.85,-111.38 1331.01,-118.33"/>
</a>
</g>
</g>
<!-- Node26 -->
<g id="Node000026" class="node">
<title>Node26</title>
<g id="a_Node000026"><a xlink:href="rtc__ds3231_8c.html" target="_top" xlink:title=" ">
<polygon fill="white" stroke="#666666" points="1136.88,-74 1058.88,-74 1058.88,-55 1136.88,-55 1136.88,-74"/>
<text text-anchor="middle" x="1097.88" y="-62" font-family="Helvetica,sans-Serif" font-size="10.00">rtc_ds3231.c</text>
</a>
</g>
</g>
<!-- Node8&#45;&gt;Node26 -->
<g id="edge32_Node000008_Node000026" class="edge">
<title>Node8&#45;&gt;Node26</title>
<g id="a_edge32_Node000008_Node000026"><a xlink:title=" ">
<path fill="none" stroke="#63b8ff" d="M1331.34,-112.37C1283.24,-102.71 1189.88,-83.97 1136.95,-73.35"/>
<polygon fill="#63b8ff" stroke="#63b8ff" points="1330.67,-115.8 1341.16,-114.34 1332.04,-108.94 1330.67,-115.8"/>
</a>
</g>
</g>
<!-- Node27 -->
<g id="Node000027" class="node">
<title>Node27</title>
<g id="a_Node000027"><a xlink:href="set__rtc__job_8c.html" target="_top" xlink:title=" ">
<polygon fill="white" stroke="#666666" points="1232.88,-74 1154.88,-74 1154.88,-55 1232.88,-55 1232.88,-74"/>
<text text-anchor="middle" x="1193.88" y="-62" font-family="Helvetica,sans-Serif" font-size="10.00">set_rtc_job.c</text>
</a>
</g>
</g>
<!-- Node8&#45;&gt;Node27 -->
<g id="edge33_Node000008_Node000027" class="edge">
<title>Node8&#45;&gt;Node27</title>
<g id="a_edge33_Node000008_Node000027"><a xlink:title=" ">
<path fill="none" stroke="#63b8ff" d="M1331.72,-108.99C1300.25,-99.06 1251.35,-83.63 1221.04,-74.07"/>
<polygon fill="#63b8ff" stroke="#63b8ff" points="1330.69,-112.33 1341.28,-112 1332.79,-105.65 1330.69,-112.33"/>
</a>
</g>
</g>
<!-- Node8&#45;&gt;Node28 -->
<g id="edge35_Node000008_Node000028" class="edge">
<title>Node8&#45;&gt;Node28</title>
<g id="a_edge35_Node000008_Node000028"><a xlink:title=" ">
<path fill="none" stroke="#63b8ff" d="M1392.53,-118.82C1519.09,-119.8 2013.22,-120.28 2415.88,-74 2418.88,-73.65 2421.98,-73.23 2425.09,-72.74"/>
<polygon fill="#63b8ff" stroke="#63b8ff" points="1392.44,-115.32 1382.41,-118.73 1392.38,-122.32 1392.44,-115.32"/>
</a>
</g>
</g>
<!-- Node29 -->
<g id="Node000029" class="node">
<title>Node29</title>
<g id="a_Node000029"><a xlink:href="timing_8c.html" target="_top" xlink:title=" ">
<polygon fill="white" stroke="#666666" points="1306.88,-74 1250.88,-74 1250.88,-55 1306.88,-55 1306.88,-74"/>
<text text-anchor="middle" x="1278.88" y="-62" font-family="Helvetica,sans-Serif" font-size="10.00">timing.c</text>
</a>
</g>
</g>
<!-- Node8&#45;&gt;Node29 -->
<g id="edge36_Node000008_Node000029" class="edge">
<title>Node8&#45;&gt;Node29</title>
<g id="a_edge36_Node000008_Node000029"><a xlink:title=" ">
<path fill="none" stroke="#63b8ff" d="M1339.83,-104.42C1324.77,-94.81 1305.29,-82.37 1292.45,-74.17"/>
<polygon fill="#63b8ff" stroke="#63b8ff" points="1338.23,-107.55 1348.54,-109.98 1342,-101.65 1338.23,-107.55"/>
</a>
</g>
</g>
<!-- Node30 -->
<g id="Node000030" class="node">
<title>Node30</title>
<g id="a_Node000030"><a xlink:href="user__auth_8c.html" target="_top" xlink:title=" ">
<polygon fill="white" stroke="#666666" points="1398.38,-74 1325.38,-74 1325.38,-55 1398.38,-55 1398.38,-74"/>
<text text-anchor="middle" x="1361.88" y="-62" font-family="Helvetica,sans-Serif" font-size="10.00">user_auth.c</text>
</a>
</g>
</g>
<!-- Node8&#45;&gt;Node30 -->
<g id="edge37_Node000008_Node000030" class="edge">
<title>Node8&#45;&gt;Node30</title>
<g id="a_edge37_Node000008_Node000030"><a xlink:title=" ">
<path fill="none" stroke="#63b8ff" d="M1361.88,-99.66C1361.88,-90.93 1361.88,-80.99 1361.88,-74.09"/>
<polygon fill="#63b8ff" stroke="#63b8ff" points="1358.38,-99.75 1361.88,-109.75 1365.38,-99.75 1358.38,-99.75"/>
</a>
</g>
</g>
<!-- Node31 -->
<g id="Node000031" class="node">
<title>Node31</title>
<g id="a_Node000031"><a xlink:href="vega__ant_8c.html" target="_top" xlink:title=" ">
<polygon fill="white" stroke="#666666" points="1486.88,-74 1416.88,-74 1416.88,-55 1486.88,-55 1486.88,-74"/>
<text text-anchor="middle" x="1451.88" y="-62" font-family="Helvetica,sans-Serif" font-size="10.00">vega_ant.c</text>
</a>
</g>
</g>
<!-- Node8&#45;&gt;Node31 -->
<g id="edge38_Node000008_Node000031" class="edge">
<title>Node8&#45;&gt;Node31</title>
<g id="a_edge38_Node000008_Node000031"><a xlink:title=" ">
<path fill="none" stroke="#63b8ff" d="M1385.32,-104.7C1401.71,-95.04 1423.1,-82.44 1437.15,-74.17"/>
<polygon fill="#63b8ff" stroke="#63b8ff" points="1383.18,-101.89 1376.34,-109.98 1386.73,-107.93 1383.18,-101.89"/>
</a>
</g>
</g>
<!-- Node32 -->
<g id="Node000032" class="node">
<title>Node32</title>
<g id="a_Node000032"><a xlink:href="watchdog_8c.html" target="_top" xlink:title=" ">
<polygon fill="white" stroke="#666666" points="1576.88,-74 1504.88,-74 1504.88,-55 1576.88,-55 1576.88,-74"/>
<text text-anchor="middle" x="1540.88" y="-62" font-family="Helvetica,sans-Serif" font-size="10.00">watchdog.c</text>
</a>
</g>
</g>
<!-- Node8&#45;&gt;Node32 -->
<g id="edge39_Node000008_Node000032" class="edge">
<title>Node8&#45;&gt;Node32</title>
<g id="a_edge39_Node000008_Node000032"><a xlink:title=" ">
<path fill="none" stroke="#63b8ff" d="M1392.11,-109.55C1425.58,-99.64 1479.14,-83.78 1512.04,-74.04"/>
<polygon fill="#63b8ff" stroke="#63b8ff" points="1391,-106.23 1382.41,-112.42 1392.99,-112.94 1391,-106.23"/>
</a>
</g>
</g>
<!-- Node19&#45;&gt;Node7 -->
<g id="edge24_Node000019_Node000007" class="edge">
<title>Node19&#45;&gt;Node7</title>
<g id="a_edge24_Node000019_Node000007"><a xlink:title=" ">
<path fill="none" stroke="#63b8ff" d="M1622.97,-57.78C1610.73,-56.72 1597.88,-55.72 1585.88,-55 1045.32,-22.39 387.64,-13 209.96,-10.97"/>
<polygon fill="#63b8ff" stroke="#63b8ff" points="1622.8,-61.28 1633.07,-58.68 1623.42,-54.31 1622.8,-61.28"/>
</a>
</g>
</g>
<!-- Node19&#45;&gt;Node18 -->
<g id="edge25_Node000019_Node000018" class="edge">
<title>Node19&#45;&gt;Node18</title>
<g id="a_edge25_Node000019_Node000018"><a xlink:title=" ">
<path fill="none" stroke="#63b8ff" d="M1663.41,-48.32C1652.53,-38.87 1638.93,-27.06 1629.85,-19.17"/>
<polygon fill="#63b8ff" stroke="#63b8ff" points="1661.23,-51.07 1671.07,-54.98 1665.82,-45.78 1661.23,-51.07"/>
</a>
</g>
</g>
<!-- Node19&#45;&gt;Node20 -->
<g id="edge26_Node000019_Node000020" class="edge">
<title>Node19&#45;&gt;Node20</title>
<g id="a_edge26_Node000019_Node000020"><a xlink:title=" ">
<path fill="none" stroke="#63b8ff" d="M1698.34,-48.32C1709.22,-38.87 1722.82,-27.06 1731.9,-19.17"/>
<polygon fill="#63b8ff" stroke="#63b8ff" points="1695.93,-45.78 1690.68,-54.98 1700.52,-51.07 1695.93,-45.78"/>
</a>
</g>
</g>
</g>
</svg>

<g id="navigator" transform="translate(0 0)" fill="#404254">
  <rect fill="#f2f5e9" fill-opacity="0.5" stroke="#606060" stroke-width=".5" x="0" y="0" width="60" height="60"/>
  <use id="zoomplus" xlink:href="#zoomPlus" x="17" y="9" onmousedown="handleZoom(evt,'in')"/>
  <use id="zoomminus" xlink:href="#zoomMin" x="42" y="9" onmousedown="handleZoom(evt,'out')"/>
  <use id="reset" xlink:href="#resetDef" x="30" y="36" onmousedown="handleReset()"/>
   <use id="arrowup" xlink:href="#arrowUp" x="0" y="0" onmousedown="handlePan(0,-1)"/>
  <use id="arrowright" xlink:href="#arrowRight" x="0" y="0" onmousedown="handlePan(1,0)"/>
  <use id="arrowdown" xlink:href="#arrowDown" x="0" y="0" onmousedown="handlePan(0,1)"/>
  <use id="arrowleft" xlink:href="#arrowLeft" x="0" y="0" onmousedown="handlePan(-1,0)"/>
</g>
<svg viewBox="0 0 15 15" width="100%" height="30px" preserveAspectRatio="xMaxYMin meet">
 <g id="arrow_out" transform="scale(0.3 0.3)">
  <a xlink:href="telemetry_8h__dep__incl_org.svg" target="_base">
   <rect id="button" ry="5" rx="5" y="6" x="6" height="38" width="38"
        fill="#f2f5e9" fill-opacity="0.5" stroke="#606060" stroke-width="1.0"/>
   <path id="arrow"
     d="M 11.500037,31.436501 C 11.940474,20.09759 22.043105,11.32322 32.158766,21.979434 L 37.068811,17.246167 C 37.068811,17.246167 37.088388,32 37.088388,32 L 22.160133,31.978069 C 22.160133,31.978069 26.997745,27.140456 26.997745,27.140456 C 18.528582,18.264221 13.291696,25.230495 11.500037,31.436501 z"
     style="fill:#404040;"/>
  </a>
 </g>
</svg>

<style type='text/css'>
<![CDATA[
[data-mouse-over-selected='false'] { opacity: 0.7; }
[data-mouse-over-selected='true']  { opacity: 1.0; }
]]>
</style>
<script type="application/ecmascript"><![CDATA[
document.addEventListener('DOMContentLoaded', (event) => {
  highlightEdges();
  highlightAdjacentNodes();
});
]]></script>
</svg>
