<?xml version="1.0" encoding="UTF-8" standalone="no"?>
<!DOCTYPE svg PUBLIC "-//W3C//DTD SVG 1.1//EN"
 "http://www.w3.org/Graphics/SVG/1.1/DTD/svg11.dtd">
<!-- Generated by graphviz version 12.1.2 (20240928.0832)
 -->
<!-- Title: telemetry.c Pages: 1 -->
<svg width="755pt" height="196pt"
 viewBox="0.00 0.00 754.80 196.00" xmlns="http://www.w3.org/2000/svg" xmlns:xlink="http://www.w3.org/1999/xlink">
<g id="graph0" class="graph" transform="scale(1 1) rotate(0) translate(4 192)">
<title>telemetry.c</title>
<!-- Node1 -->
<g id="Node000001" class="node">
<title>Node1</title>
<g id="a_Node000001"><a xlink:title=" ">
<polygon fill="#999999" stroke="#666666" points="395.75,-188 331.75,-188 331.75,-168 395.75,-168 395.75,-188"/>
<text text-anchor="middle" x="363.75" y="-174.5" font-family="Helvetica,sans-Serif" font-size="10.00">telemetry.c</text>
</a>
</g>
</g>
<!-- Node2 -->
<g id="Node000002" class="node">
<title>Node2</title>
<g id="a_Node000002"><a xlink:href="stdlib_8h.html" target="_top" xlink:title=" ">
<polygon fill="white" stroke="#666666" points="47.5,-132 0,-132 0,-112 47.5,-112 47.5,-132"/>
<text text-anchor="middle" x="23.75" y="-118.5" font-family="Helvetica,sans-Serif" font-size="10.00">stdlib.h</text>
</a>
</g>
</g>
<!-- Node1&#45;&gt;Node2 -->
<g id="edge1_Node000001_Node000002" class="edge">
<title>Node1&#45;&gt;Node2</title>
<g id="a_edge1_Node000001_Node000002"><a xlink:title=" ">
<path fill="none" stroke="#63b8ff" d="M331.26,-173.54C276.91,-167.48 163.95,-153.69 58.94,-132.23"/>
<polygon fill="#63b8ff" stroke="#63b8ff" points="59.8,-128.84 49.3,-130.23 58.38,-135.69 59.8,-128.84"/>
</a>
</g>
</g>
<!-- Node3 -->
<g id="Node000003" class="node">
<title>Node3</title>
<g id="a_Node000003"><a xlink:title=" ">
<polygon fill="#e0e0e0" stroke="#999999" points="113.88,-132 65.62,-132 65.62,-112 113.88,-112 113.88,-132"/>
<text text-anchor="middle" x="89.75" y="-118.5" font-family="Helvetica,sans-Serif" font-size="10.00">string.h</text>
</a>
</g>
</g>
<!-- Node1&#45;&gt;Node3 -->
<g id="edge2_Node000001_Node000003" class="edge">
<title>Node1&#45;&gt;Node3</title>
<g id="a_edge2_Node000001_Node000003"><a xlink:title=" ">
<path fill="none" stroke="#63b8ff" d="M331.61,-171.86C287.33,-164.59 204.85,-150.38 125.39,-132.46"/>
<polygon fill="#63b8ff" stroke="#63b8ff" points="126.21,-129.06 115.68,-130.24 124.65,-135.88 126.21,-129.06"/>
</a>
</g>
</g>
<!-- Node4 -->
<g id="Node000004" class="node">
<title>Node4</title>
<g id="a_Node000004"><a xlink:title=" ">
<polygon fill="#e0e0e0" stroke="#999999" points="179.88,-132 131.62,-132 131.62,-112 179.88,-112 179.88,-132"/>
<text text-anchor="middle" x="155.75" y="-118.5" font-family="Helvetica,sans-Serif" font-size="10.00">stdint.h</text>
</a>
</g>
</g>
<!-- Node1&#45;&gt;Node4 -->
<g id="edge3_Node000001_Node000004" class="edge">
<title>Node1&#45;&gt;Node4</title>
<g id="a_edge3_Node000001_Node000004"><a xlink:title=" ">
<path fill="none" stroke="#63b8ff" d="M331.25,-168.56C293.27,-158.7 230.63,-142.44 191.36,-132.25"/>
<polygon fill="#63b8ff" stroke="#63b8ff" points="192.25,-128.86 181.69,-129.73 190.49,-135.63 192.25,-128.86"/>
</a>
</g>
</g>
<!-- Node5 -->
<g id="Node000005" class="node">
<title>Node5</title>
<g id="a_Node000005"><a xlink:title=" ">
<polygon fill="#e0e0e0" stroke="#999999" points="428.62,-76 372.88,-76 372.88,-56 428.62,-56 428.62,-76"/>
<text text-anchor="middle" x="400.75" y="-62.5" font-family="Helvetica,sans-Serif" font-size="10.00">stdbool.h</text>
</a>
</g>
</g>
<!-- Node1&#45;&gt;Node5 -->
<g id="edge4_Node000001_Node000005" class="edge">
<title>Node1&#45;&gt;Node5</title>
<g id="a_edge4_Node000001_Node000005"><a xlink:title=" ">
<path fill="none" stroke="#63b8ff" d="M331.45,-169.69C295.25,-159.93 244.16,-140.5 264.75,-112 286.61,-81.75 329.57,-71.5 361.39,-68.2"/>
<polygon fill="#63b8ff" stroke="#63b8ff" points="361.36,-71.71 371.04,-67.4 360.78,-64.74 361.36,-71.71"/>
</a>
</g>
</g>
<!-- Node6 -->
<g id="Node000006" class="node">
<title>Node6</title>
<g id="a_Node000006"><a xlink:title=" ">
<polygon fill="#e0e0e0" stroke="#999999" points="407.12,-20 336.38,-20 336.38,0 407.12,0 407.12,-20"/>
<text text-anchor="middle" x="371.75" y="-6.5" font-family="Helvetica,sans-Serif" font-size="10.00">FreeRTOS.h</text>
</a>
</g>
</g>
<!-- Node1&#45;&gt;Node6 -->
<g id="edge5_Node000001_Node000006" class="edge">
<title>Node1&#45;&gt;Node6</title>
<g id="a_edge5_Node000001_Node000006"><a xlink:title=" ">
<path fill="none" stroke="#63b8ff" d="M331.46,-171.66C294.27,-163.82 240.15,-146.26 255.75,-112 273.68,-72.61 315.41,-42.61 343.61,-25.9"/>
<polygon fill="#63b8ff" stroke="#63b8ff" points="345.06,-29.1 352.01,-21.1 341.59,-23.02 345.06,-29.1"/>
</a>
</g>
</g>
<!-- Node7 -->
<g id="Node000007" class="node">
<title>Node7</title>
<g id="a_Node000007"><a xlink:title=" ">
<polygon fill="#e0e0e0" stroke="#999999" points="317.25,-132 274.25,-132 274.25,-112 317.25,-112 317.25,-132"/>
<text text-anchor="middle" x="295.75" y="-118.5" font-family="Helvetica,sans-Serif" font-size="10.00">task.h</text>
</a>
</g>
</g>
<!-- Node1&#45;&gt;Node7 -->
<g id="edge6_Node000001_Node000007" class="edge">
<title>Node1&#45;&gt;Node7</title>
<g id="a_edge6_Node000001_Node000007"><a xlink:title=" ">
<path fill="none" stroke="#63b8ff" d="M351.91,-167.59C342.06,-159.77 327.82,-148.46 316.14,-139.19"/>
<polygon fill="#63b8ff" stroke="#63b8ff" points="318.65,-136.72 308.64,-133.24 314.3,-142.2 318.65,-136.72"/>
</a>
</g>
</g>
<!-- Node8 -->
<g id="Node000008" class="node">
<title>Node8</title>
<g id="a_Node000008"><a xlink:title=" ">
<polygon fill="#e0e0e0" stroke="#999999" points="392,-132 335.5,-132 335.5,-112 392,-112 392,-132"/>
<text text-anchor="middle" x="363.75" y="-118.5" font-family="Helvetica,sans-Serif" font-size="10.00">semphr.h</text>
</a>
</g>
</g>
<!-- Node1&#45;&gt;Node8 -->
<g id="edge7_Node000001_Node000008" class="edge">
<title>Node1&#45;&gt;Node8</title>
<g id="a_edge7_Node000001_Node000008"><a xlink:title=" ">
<path fill="none" stroke="#63b8ff" d="M363.75,-167.59C363.75,-161.01 363.75,-151.96 363.75,-143.73"/>
<polygon fill="#63b8ff" stroke="#63b8ff" points="367.25,-143.81 363.75,-133.81 360.25,-143.81 367.25,-143.81"/>
</a>
</g>
</g>
<!-- Node9 -->
<g id="Node000009" class="node">
<title>Node9</title>
<g id="a_Node000009"><a xlink:href="gse_8h.html" target="_top" xlink:title=" ">
<polygon fill="white" stroke="#666666" points="449.75,-132 409.75,-132 409.75,-112 449.75,-112 449.75,-132"/>
<text text-anchor="middle" x="429.75" y="-118.5" font-family="Helvetica,sans-Serif" font-size="10.00">gse.h</text>
</a>
</g>
</g>
<!-- Node1&#45;&gt;Node9 -->
<g id="edge8_Node000001_Node000009" class="edge">
<title>Node1&#45;&gt;Node9</title>
<g id="a_edge8_Node000001_Node000009"><a xlink:title=" ">
<path fill="none" stroke="#63b8ff" d="M375.25,-167.59C384.71,-159.85 398.35,-148.69 409.62,-139.47"/>
<polygon fill="#63b8ff" stroke="#63b8ff" points="411.69,-142.3 417.21,-133.26 407.26,-136.88 411.69,-142.3"/>
</a>
</g>
</g>
<!-- Node10 -->
<g id="Node000010" class="node">
<title>Node10</title>
<g id="a_Node000010"><a xlink:title=" ">
<polygon fill="#e0e0e0" stroke="#999999" points="513.38,-132 468.12,-132 468.12,-112 513.38,-112 513.38,-132"/>
<text text-anchor="middle" x="490.75" y="-118.5" font-family="Helvetica,sans-Serif" font-size="10.00">radio.h</text>
</a>
</g>
</g>
<!-- Node1&#45;&gt;Node10 -->
<g id="edge9_Node000001_Node000010" class="edge">
<title>Node1&#45;&gt;Node10</title>
<g id="a_edge9_Node000001_Node000010"><a xlink:title=" ">
<path fill="none" stroke="#63b8ff" d="M385.87,-167.59C405.78,-159.13 435.3,-146.58 457.96,-136.94"/>
<polygon fill="#63b8ff" stroke="#63b8ff" points="459.23,-140.21 467.06,-133.07 456.49,-133.76 459.23,-140.21"/>
</a>
</g>
</g>
<!-- Node11 -->
<g id="Node000011" class="node">
<title>Node11</title>
<g id="a_Node000011"><a xlink:href="state_8h.html" target="_top" xlink:title=" ">
<polygon fill="white" stroke="#666666" points="577.75,-132 531.75,-132 531.75,-112 577.75,-112 577.75,-132"/>
<text text-anchor="middle" x="554.75" y="-118.5" font-family="Helvetica,sans-Serif" font-size="10.00">state.h</text>
</a>
</g>
</g>
<!-- Node1&#45;&gt;Node11 -->
<g id="edge10_Node000001_Node000011" class="edge">
<title>Node1&#45;&gt;Node11</title>
<g id="a_edge10_Node000001_Node000011"><a xlink:title=" ">
<path fill="none" stroke="#63b8ff" d="M396.15,-167.84C430.82,-158.04 485.57,-142.56 520.82,-132.59"/>
<polygon fill="#63b8ff" stroke="#63b8ff" points="521.4,-136.07 530.07,-129.98 519.5,-129.33 521.4,-136.07"/>
</a>
</g>
</g>
<!-- Node12 -->
<g id="Node000012" class="node">
<title>Node12</title>
<g id="a_Node000012"><a xlink:href="telemetry_8h.html" target="_top" xlink:title=" ">
<polygon fill="white" stroke="#666666" points="646.75,-76 582.75,-76 582.75,-56 646.75,-56 646.75,-76"/>
<text text-anchor="middle" x="614.75" y="-62.5" font-family="Helvetica,sans-Serif" font-size="10.00">telemetry.h</text>
</a>
</g>
</g>
<!-- Node1&#45;&gt;Node12 -->
<g id="edge11_Node000001_Node000012" class="edge">
<title>Node1&#45;&gt;Node12</title>
<g id="a_edge11_Node000001_Node000012"><a xlink:title=" ">
<path fill="none" stroke="#63b8ff" d="M396.06,-175.54C483.02,-171.3 717.06,-157.57 739.75,-132 767.07,-101.22 704.49,-82.82 658.38,-73.83"/>
<polygon fill="#63b8ff" stroke="#63b8ff" points="659.03,-70.39 648.56,-72.02 657.76,-77.27 659.03,-70.39"/>
</a>
</g>
</g>
<!-- Node14 -->
<g id="Node000014" class="node">
<title>Node14</title>
<g id="a_Node000014"><a xlink:title=" ">
<polygon fill="#e0e0e0" stroke="#999999" points="730.62,-132 650.88,-132 650.88,-112 730.62,-112 730.62,-132"/>
<text text-anchor="middle" x="690.75" y="-118.5" font-family="Helvetica,sans-Serif" font-size="10.00">spacepacket.h</text>
</a>
</g>
</g>
<!-- Node1&#45;&gt;Node14 -->
<g id="edge14_Node000001_Node000014" class="edge">
<title>Node1&#45;&gt;Node14</title>
<g id="a_edge14_Node000001_Node000014"><a xlink:title=" ">
<path fill="none" stroke="#63b8ff" d="M396.02,-172.07C446.04,-164.36 545.61,-148.79 639.33,-132.57"/>
<polygon fill="#63b8ff" stroke="#63b8ff" points="639.69,-136.06 648.94,-130.9 638.49,-129.16 639.69,-136.06"/>
</a>
</g>
</g>
<!-- Node15 -->
<g id="Node000015" class="node">
<title>Node15</title>
<g id="a_Node000015"><a xlink:href="log_8h.html" target="_top" xlink:title=" ">
<polygon fill="white" stroke="#666666" points="633.25,-132 596.25,-132 596.25,-112 633.25,-112 633.25,-132"/>
<text text-anchor="middle" x="614.75" y="-118.5" font-family="Helvetica,sans-Serif" font-size="10.00">log.h</text>
</a>
</g>
</g>
<!-- Node1&#45;&gt;Node15 -->
<g id="edge15_Node000001_Node000015" class="edge">
<title>Node1&#45;&gt;Node15</title>
<g id="a_edge15_Node000001_Node000015"><a xlink:title=" ">
<path fill="none" stroke="#63b8ff" d="M396.14,-171.64C437.72,-164.5 512.27,-150.85 585.12,-132.18"/>
<polygon fill="#63b8ff" stroke="#63b8ff" points="585.59,-135.67 594.39,-129.77 583.83,-128.9 585.59,-135.67"/>
</a>
</g>
</g>
<!-- Node12&#45;&gt;Node6 -->
<g id="edge12_Node000012_Node000006" class="edge">
<title>Node12&#45;&gt;Node6</title>
<g id="a_edge12_Node000012_Node000006"><a xlink:title=" ">
<path fill="none" stroke="#63b8ff" d="M582.48,-57.83C540.41,-48.48 466.53,-32.06 418.37,-21.36"/>
<polygon fill="#63b8ff" stroke="#63b8ff" points="419.31,-17.98 408.79,-19.23 417.79,-24.82 419.31,-17.98"/>
</a>
</g>
</g>
<!-- Node13 -->
<g id="Node000013" class="node">
<title>Node13</title>
<g id="a_Node000013"><a xlink:title=" ">
<polygon fill="#e0e0e0" stroke="#999999" points="640,-20 589.5,-20 589.5,0 640,0 640,-20"/>
<text text-anchor="middle" x="614.75" y="-6.5" font-family="Helvetica,sans-Serif" font-size="10.00">queue.h</text>
</a>
</g>
</g>
<!-- Node12&#45;&gt;Node13 -->
<g id="edge13_Node000012_Node000013" class="edge">
<title>Node12&#45;&gt;Node13</title>
<g id="a_edge13_Node000012_Node000013"><a xlink:title=" ">
<path fill="none" stroke="#63b8ff" d="M614.75,-55.59C614.75,-49.01 614.75,-39.96 614.75,-31.73"/>
<polygon fill="#63b8ff" stroke="#63b8ff" points="618.25,-31.81 614.75,-21.81 611.25,-31.81 618.25,-31.81"/>
</a>
</g>
</g>
<!-- Node15&#45;&gt;Node5 -->
<g id="edge17_Node000015_Node000005" class="edge">
<title>Node15&#45;&gt;Node5</title>
<g id="a_edge17_Node000015_Node000005"><a xlink:title=" ">
<path fill="none" stroke="#63b8ff" d="M595.83,-114.71C592.8,-113.76 589.7,-112.83 586.75,-112 536.46,-97.86 477.78,-84.11 439.99,-75.61"/>
<polygon fill="#63b8ff" stroke="#63b8ff" points="440.96,-72.24 430.44,-73.48 439.44,-79.07 440.96,-72.24"/>
</a>
</g>
</g>
<!-- Node15&#45;&gt;Node12 -->
<g id="edge16_Node000015_Node000012" class="edge">
<title>Node15&#45;&gt;Node12</title>
<g id="a_edge16_Node000015_Node000012"><a xlink:title=" ">
<path fill="none" stroke="#63b8ff" d="M614.75,-111.59C614.75,-105.01 614.75,-95.96 614.75,-87.73"/>
<polygon fill="#63b8ff" stroke="#63b8ff" points="618.25,-87.81 614.75,-77.81 611.25,-87.81 618.25,-87.81"/>
</a>
</g>
</g>
</g>
</svg>
