<?xml version="1.0" encoding="UTF-8" standalone="no"?>
<!DOCTYPE svg PUBLIC "-//W3C//DTD SVG 1.1//EN"
 "http://www.w3.org/Graphics/SVG/1.1/DTD/svg11.dtd">
<!-- Generated by graphviz version 2.43.0 (0)
 -->
<!-- Title: telemetry.c Pages: 1 -->
<svg width="763pt" height="302pt"
 viewBox="0.00 0.00 762.50 302.00" xmlns="http://www.w3.org/2000/svg" xmlns:xlink="http://www.w3.org/1999/xlink">
<g id="graph0" class="graph" transform="scale(1 1) rotate(0) translate(4 298)">
<title>telemetry.c</title>
<!-- Node1 -->
<g id="Node000001" class="node">
<title>Node1</title>
<g id="a_Node000001"><a xlink:title=" ">
<polygon fill="#999999" stroke="#666666" points="340,-294 269,-294 269,-275 340,-275 340,-294"/>
<text text-anchor="middle" x="304.5" y="-282" font-family="Helvetica,sans-Serif" font-size="10.00">telemetry.c</text>
</a>
</g>
</g>
<!-- Node2 -->
<g id="Node000002" class="node">
<title>Node2</title>
<g id="a_Node000002"><a xlink:href="stdlib_8h.html" target="_top" xlink:title=" ">
<polygon fill="white" stroke="#666666" points="53,-239 0,-239 0,-220 53,-220 53,-239"/>
<text text-anchor="middle" x="26.5" y="-227" font-family="Helvetica,sans-Serif" font-size="10.00">stdlib.h</text>
</a>
</g>
</g>
<!-- Node1&#45;&gt;Node2 -->
<g id="edge1_Node000001_Node000002" class="edge">
<title>Node1&#45;&gt;Node2</title>
<g id="a_edge1_Node000001_Node000002"><a xlink:title=" ">
<path fill="none" stroke="#63b8ff" d="M268.96,-277.65C223.46,-270.01 141.95,-255.85 63.29,-239.29"/>
<polygon fill="#63b8ff" stroke="#63b8ff" points="63.73,-235.81 53.22,-237.15 62.27,-242.65 63.73,-235.81"/>
</a>
</g>
</g>
<!-- Node3 -->
<g id="Node000003" class="node">
<title>Node3</title>
<g id="a_Node000003"><a xlink:title=" ">
<polygon fill="#e0e0e0" stroke="#999999" points="124,-239 71,-239 71,-220 124,-220 124,-239"/>
<text text-anchor="middle" x="97.5" y="-227" font-family="Helvetica,sans-Serif" font-size="10.00">string.h</text>
</a>
</g>
</g>
<!-- Node1&#45;&gt;Node3 -->
<g id="edge2_Node000001_Node000003" class="edge">
<title>Node1&#45;&gt;Node3</title>
<g id="a_edge2_Node000001_Node000003"><a xlink:title=" ">
<path fill="none" stroke="#63b8ff" d="M271.24,-274.98C233.68,-265.37 172.76,-249.77 133.94,-239.83"/>
<polygon fill="#63b8ff" stroke="#63b8ff" points="134.65,-236.4 124.09,-237.31 132.91,-243.18 134.65,-236.4"/>
</a>
</g>
</g>
<!-- Node4 -->
<g id="Node000004" class="node">
<title>Node4</title>
<g id="a_Node000004"><a xlink:title=" ">
<polygon fill="#e0e0e0" stroke="#999999" points="109,-19 56,-19 56,0 109,0 109,-19"/>
<text text-anchor="middle" x="82.5" y="-7" font-family="Helvetica,sans-Serif" font-size="10.00">stdint.h</text>
</a>
</g>
</g>
<!-- Node1&#45;&gt;Node4 -->
<g id="edge3_Node000001_Node000004" class="edge">
<title>Node1&#45;&gt;Node4</title>
<g id="a_edge3_Node000001_Node000004"><a xlink:title=" ">
<path fill="none" stroke="#63b8ff" d="M268.86,-275.03C223.94,-261.99 152.5,-232.31 152.5,-175.5 152.5,-175.5 152.5,-175.5 152.5,-118.5 152.5,-80.43 121.49,-45.19 100.75,-25.89"/>
<polygon fill="#63b8ff" stroke="#63b8ff" points="102.92,-23.13 93.13,-19.07 98.25,-28.34 102.92,-23.13"/>
</a>
</g>
</g>
<!-- Node5 -->
<g id="Node000005" class="node">
<title>Node5</title>
<g id="a_Node000005"><a xlink:title=" ">
<polygon fill="#e0e0e0" stroke="#999999" points="754.5,-19 692.5,-19 692.5,0 754.5,0 754.5,-19"/>
<text text-anchor="middle" x="723.5" y="-7" font-family="Helvetica,sans-Serif" font-size="10.00">stdbool.h</text>
</a>
</g>
</g>
<!-- Node1&#45;&gt;Node5 -->
<g id="edge4_Node000001_Node000005" class="edge">
<title>Node1&#45;&gt;Node5</title>
<g id="a_edge4_Node000001_Node000005"><a xlink:title=" ">
<path fill="none" stroke="#63b8ff" d="M340.26,-283.59C424.11,-283.14 630.48,-277.98 685.5,-239 711.12,-220.84 716.5,-206.91 716.5,-175.5 716.5,-175.5 716.5,-175.5 716.5,-118.5 716.5,-87.12 719.48,-50.73 721.55,-29.21"/>
<polygon fill="#63b8ff" stroke="#63b8ff" points="725.04,-29.47 722.56,-19.17 718.08,-28.77 725.04,-29.47"/>
</a>
</g>
</g>
<!-- Node6 -->
<g id="Node000006" class="node">
<title>Node6</title>
<g id="a_Node000006"><a xlink:title=" ">
<polygon fill="#e0e0e0" stroke="#999999" points="346,-19 273,-19 273,0 346,0 346,-19"/>
<text text-anchor="middle" x="309.5" y="-7" font-family="Helvetica,sans-Serif" font-size="10.00">FreeRTOS.h</text>
</a>
</g>
</g>
<!-- Node1&#45;&gt;Node6 -->
<g id="edge5_Node000001_Node000006" class="edge">
<title>Node1&#45;&gt;Node6</title>
<g id="a_edge5_Node000001_Node000006"><a xlink:title=" ">
<path fill="none" stroke="#63b8ff" d="M299.22,-274.9C288.77,-257.07 266.5,-214.46 266.5,-175.5 266.5,-175.5 266.5,-175.5 266.5,-118.5 266.5,-84.53 285.09,-48.53 297.83,-27.87"/>
<polygon fill="#63b8ff" stroke="#63b8ff" points="300.89,-29.58 303.34,-19.27 295,-25.8 300.89,-29.58"/>
</a>
</g>
</g>
<!-- Node7 -->
<g id="Node000007" class="node">
<title>Node7</title>
<g id="a_Node000007"><a xlink:title=" ">
<polygon fill="#e0e0e0" stroke="#999999" points="174,-19 127,-19 127,0 174,0 174,-19"/>
<text text-anchor="middle" x="150.5" y="-7" font-family="Helvetica,sans-Serif" font-size="10.00">task.h</text>
</a>
</g>
</g>
<!-- Node1&#45;&gt;Node7 -->
<g id="edge6_Node000001_Node000007" class="edge">
<title>Node1&#45;&gt;Node7</title>
<g id="a_edge6_Node000001_Node000007"><a xlink:title=" ">
<path fill="none" stroke="#63b8ff" d="M283.32,-274.95C250.36,-260.06 190.5,-226.07 190.5,-175.5 190.5,-175.5 190.5,-175.5 190.5,-118.5 190.5,-84.67 173.03,-48.38 161.18,-27.66"/>
<polygon fill="#63b8ff" stroke="#63b8ff" points="164.18,-25.86 156.06,-19.06 158.16,-29.44 164.18,-25.86"/>
</a>
</g>
</g>
<!-- Node8 -->
<g id="Node000008" class="node">
<title>Node8</title>
<g id="a_Node000008"><a xlink:title=" ">
<polygon fill="#e0e0e0" stroke="#999999" points="254.5,-19 192.5,-19 192.5,0 254.5,0 254.5,-19"/>
<text text-anchor="middle" x="223.5" y="-7" font-family="Helvetica,sans-Serif" font-size="10.00">semphr.h</text>
</a>
</g>
</g>
<!-- Node1&#45;&gt;Node8 -->
<g id="edge7_Node000001_Node000008" class="edge">
<title>Node1&#45;&gt;Node8</title>
<g id="a_edge7_Node000001_Node000008"><a xlink:title=" ">
<path fill="none" stroke="#63b8ff" d="M292.62,-274.88C271.25,-258.26 228.5,-219.52 228.5,-175.5 228.5,-175.5 228.5,-175.5 228.5,-118.5 228.5,-87.16 226.37,-50.75 224.89,-29.22"/>
<polygon fill="#63b8ff" stroke="#63b8ff" points="228.38,-28.9 224.17,-19.17 221.4,-29.4 228.38,-28.9"/>
</a>
</g>
</g>
<!-- Node9 -->
<g id="Node000009" class="node">
<title>Node9</title>
<g id="a_Node000009"><a xlink:href="gse_8h.html" target="_top" xlink:title="Handles hardline communication over USB.">
<polygon fill="white" stroke="#666666" points="376,-239 333,-239 333,-220 376,-220 376,-239"/>
<text text-anchor="middle" x="354.5" y="-227" font-family="Helvetica,sans-Serif" font-size="10.00">gse.h</text>
</a>
</g>
</g>
<!-- Node1&#45;&gt;Node9 -->
<g id="edge8_Node000001_Node000009" class="edge">
<title>Node1&#45;&gt;Node9</title>
<g id="a_edge8_Node000001_Node000009"><a xlink:title=" ">
<path fill="none" stroke="#63b8ff" d="M312.76,-274.75C319.96,-267.11 330.61,-255.82 339.35,-246.56"/>
<polygon fill="#63b8ff" stroke="#63b8ff" points="342.08,-248.76 346.4,-239.09 336.99,-243.96 342.08,-248.76"/>
</a>
</g>
</g>
<!-- Node10 -->
<g id="Node000010" class="node">
<title>Node10</title>
<g id="a_Node000010"><a xlink:title=" ">
<polygon fill="#e0e0e0" stroke="#999999" points="444.5,-239 394.5,-239 394.5,-220 444.5,-220 444.5,-239"/>
<text text-anchor="middle" x="419.5" y="-227" font-family="Helvetica,sans-Serif" font-size="10.00">radio.h</text>
</a>
</g>
</g>
<!-- Node1&#45;&gt;Node10 -->
<g id="edge9_Node000001_Node000010" class="edge">
<title>Node1&#45;&gt;Node10</title>
<g id="a_edge9_Node000001_Node000010"><a xlink:title=" ">
<path fill="none" stroke="#63b8ff" d="M322.98,-274.98C341.48,-266.46 370.18,-253.23 391.48,-243.41"/>
<polygon fill="#63b8ff" stroke="#63b8ff" points="393.07,-246.53 400.69,-239.17 390.14,-240.18 393.07,-246.53"/>
</a>
</g>
</g>
<!-- Node11 -->
<g id="Node000011" class="node">
<title>Node11</title>
<g id="a_Node000011"><a xlink:href="state_8h.html" target="_top" xlink:title=" ">
<polygon fill="white" stroke="#666666" points="512.5,-239 462.5,-239 462.5,-220 512.5,-220 512.5,-239"/>
<text text-anchor="middle" x="487.5" y="-227" font-family="Helvetica,sans-Serif" font-size="10.00">state.h</text>
</a>
</g>
</g>
<!-- Node1&#45;&gt;Node11 -->
<g id="edge10_Node000001_Node000011" class="edge">
<title>Node1&#45;&gt;Node11</title>
<g id="a_edge10_Node000001_Node000011"><a xlink:title=" ">
<path fill="none" stroke="#63b8ff" d="M333.9,-274.98C366.27,-265.61 418.27,-250.55 452.66,-240.59"/>
<polygon fill="#63b8ff" stroke="#63b8ff" points="453.66,-243.94 462.29,-237.8 451.72,-237.22 453.66,-243.94"/>
</a>
</g>
</g>
<!-- Node12 -->
<g id="Node000012" class="node">
<title>Node12</title>
<g id="a_Node000012"><a xlink:href="telemetry_8h.html" target="_top" xlink:title="Functions for packaging and queuing telemetry packets for sending.">
<polygon fill="white" stroke="#666666" points="450.5,-184 378.5,-184 378.5,-165 450.5,-165 450.5,-184"/>
<text text-anchor="middle" x="414.5" y="-172" font-family="Helvetica,sans-Serif" font-size="10.00">telemetry.h</text>
</a>
</g>
</g>
<!-- Node1&#45;&gt;Node12 -->
<g id="edge11_Node000001_Node000012" class="edge">
<title>Node1&#45;&gt;Node12</title>
<g id="a_edge11_Node000001_Node000012"><a xlink:title=" ">
<path fill="none" stroke="#63b8ff" d="M305.12,-274.65C306.48,-261.33 310.81,-235.98 324.5,-220 337.32,-205.03 356.37,-194.61 373.65,-187.63"/>
<polygon fill="#63b8ff" stroke="#63b8ff" points="374.89,-190.9 383.02,-184.1 372.42,-184.35 374.89,-190.9"/>
</a>
</g>
</g>
<!-- Node19 -->
<g id="Node000019" class="node">
<title>Node19</title>
<g id="a_Node000019"><a xlink:title=" ">
<polygon fill="#e0e0e0" stroke="#999999" points="676.5,-239 590.5,-239 590.5,-220 676.5,-220 676.5,-239"/>
<text text-anchor="middle" x="633.5" y="-227" font-family="Helvetica,sans-Serif" font-size="10.00">spacepacket.h</text>
</a>
</g>
</g>
<!-- Node1&#45;&gt;Node19 -->
<g id="edge27_Node000001_Node000019" class="edge">
<title>Node1&#45;&gt;Node19</title>
<g id="a_edge27_Node000001_Node000019"><a xlink:title=" ">
<path fill="none" stroke="#63b8ff" d="M340.36,-277.77C391.31,-269.62 487.86,-254.16 580.29,-239.19"/>
<polygon fill="#63b8ff" stroke="#63b8ff" points="581.06,-242.61 590.37,-237.56 579.94,-235.7 581.06,-242.61"/>
</a>
</g>
</g>
<!-- Node20 -->
<g id="Node000020" class="node">
<title>Node20</title>
<g id="a_Node000020"><a xlink:href="log_8h.html" target="_top" xlink:title=" ">
<polygon fill="white" stroke="#666666" points="572,-239 531,-239 531,-220 572,-220 572,-239"/>
<text text-anchor="middle" x="551.5" y="-227" font-family="Helvetica,sans-Serif" font-size="10.00">log.h</text>
</a>
</g>
</g>
<!-- Node1&#45;&gt;Node20 -->
<g id="edge28_Node000001_Node000020" class="edge">
<title>Node1&#45;&gt;Node20</title>
<g id="a_edge28_Node000001_Node000020"><a xlink:title=" ">
<path fill="none" stroke="#63b8ff" d="M340.01,-277.05C381.2,-269.39 451.32,-255.78 521.06,-238.95"/>
<polygon fill="#63b8ff" stroke="#63b8ff" points="522.01,-242.32 530.9,-236.55 520.35,-235.52 522.01,-242.32"/>
</a>
</g>
</g>
<!-- Node12&#45;&gt;Node6 -->
<g id="edge12_Node000012_Node000006" class="edge">
<title>Node12&#45;&gt;Node6</title>
<g id="a_edge12_Node000012_Node000006"><a xlink:title=" ">
<path fill="none" stroke="#63b8ff" d="M400.49,-164.75C388.54,-156.69 371.59,-143.77 360.5,-129 336.94,-97.62 321.75,-53.7 314.5,-29.1"/>
<polygon fill="#63b8ff" stroke="#63b8ff" points="317.81,-27.94 311.72,-19.26 311.07,-29.84 317.81,-27.94"/>
</a>
</g>
</g>
<!-- Node13 -->
<g id="Node000013" class="node">
<title>Node13</title>
<g id="a_Node000013"><a xlink:title=" ">
<polygon fill="#e0e0e0" stroke="#999999" points="674.5,-19 618.5,-19 618.5,0 674.5,0 674.5,-19"/>
<text text-anchor="middle" x="646.5" y="-7" font-family="Helvetica,sans-Serif" font-size="10.00">queue.h</text>
</a>
</g>
</g>
<!-- Node12&#45;&gt;Node13 -->
<g id="edge13_Node000012_Node000013" class="edge">
<title>Node12&#45;&gt;Node13</title>
<g id="a_edge13_Node000012_Node000013"><a xlink:title=" ">
<path fill="none" stroke="#63b8ff" d="M426.65,-164.97C464.22,-138.57 578.87,-58.02 625.97,-24.93"/>
<polygon fill="#63b8ff" stroke="#63b8ff" points="628.02,-27.76 634.19,-19.15 624,-22.03 628.02,-27.76"/>
</a>
</g>
</g>
<!-- Node14 -->
<g id="Node000014" class="node">
<title>Node14</title>
<g id="a_Node000014"><a xlink:href="file__downlink_8h.html" target="_top" xlink:title=" ">
<polygon fill="white" stroke="#666666" points="460,-129 369,-129 369,-110 460,-110 460,-129"/>
<text text-anchor="middle" x="414.5" y="-117" font-family="Helvetica,sans-Serif" font-size="10.00">file_downlink.h</text>
</a>
</g>
</g>
<!-- Node12&#45;&gt;Node14 -->
<g id="edge14_Node000012_Node000014" class="edge">
<title>Node12&#45;&gt;Node14</title>
<g id="a_edge14_Node000012_Node000014"><a xlink:title=" ">
<path fill="none" stroke="#63b8ff" d="M414.5,-164.75C414.5,-157.8 414.5,-147.85 414.5,-139.13"/>
<polygon fill="#63b8ff" stroke="#63b8ff" points="418,-139.09 414.5,-129.09 411,-139.09 418,-139.09"/>
</a>
</g>
</g>
<!-- Node14&#45;&gt;Node6 -->
<g id="edge15_Node000014_Node000006" class="edge">
<title>Node14&#45;&gt;Node6</title>
<g id="a_edge15_Node000014_Node000006"><a xlink:title=" ">
<path fill="none" stroke="#63b8ff" d="M404.94,-109.83C395.31,-101 380.1,-86.83 367.5,-74 352.22,-58.45 335.5,-39.98 323.96,-26.98"/>
<polygon fill="#63b8ff" stroke="#63b8ff" points="326.43,-24.49 317.19,-19.31 321.18,-29.12 326.43,-24.49"/>
</a>
</g>
</g>
<!-- Node14&#45;&gt;Node13 -->
<g id="edge16_Node000014_Node000013" class="edge">
<title>Node14&#45;&gt;Node13</title>
<g id="a_edge16_Node000014_Node000013"><a xlink:title=" ">
<path fill="none" stroke="#63b8ff" d="M433.09,-109.84C473.83,-90.88 571.15,-45.58 618.99,-23.31"/>
<polygon fill="#63b8ff" stroke="#63b8ff" points="620.55,-26.44 628.14,-19.05 617.6,-20.09 620.55,-26.44"/>
</a>
</g>
</g>
<!-- Node15 -->
<g id="Node000015" class="node">
<title>Node15</title>
<g id="a_Node000015"><a xlink:href="filesystem_8h.html" target="_top" xlink:title="Handles file system operations and management.">
<polygon fill="white" stroke="#666666" points="453,-74 376,-74 376,-55 453,-55 453,-74"/>
<text text-anchor="middle" x="414.5" y="-62" font-family="Helvetica,sans-Serif" font-size="10.00">filesystem.h</text>
</a>
</g>
</g>
<!-- Node14&#45;&gt;Node15 -->
<g id="edge17_Node000014_Node000015" class="edge">
<title>Node14&#45;&gt;Node15</title>
<g id="a_edge17_Node000014_Node000015"><a xlink:title=" ">
<path fill="none" stroke="#63b8ff" d="M414.5,-109.75C414.5,-102.8 414.5,-92.85 414.5,-84.13"/>
<polygon fill="#63b8ff" stroke="#63b8ff" points="418,-84.09 414.5,-74.09 411,-84.09 418,-84.09"/>
</a>
</g>
</g>
<!-- Node15&#45;&gt;Node4 -->
<g id="edge25_Node000015_Node000004" class="edge">
<title>Node15&#45;&gt;Node4</title>
<g id="a_edge25_Node000015_Node000004"><a xlink:title=" ">
<path fill="none" stroke="#63b8ff" d="M375.86,-58.83C320.9,-51.95 216.81,-38.01 119.23,-19.2"/>
<polygon fill="#63b8ff" stroke="#63b8ff" points="119.68,-15.72 109.2,-17.24 118.34,-22.59 119.68,-15.72"/>
</a>
</g>
</g>
<!-- Node15&#45;&gt;Node5 -->
<g id="edge26_Node000015_Node000005" class="edge">
<title>Node15&#45;&gt;Node5</title>
<g id="a_edge26_Node000015_Node000005"><a xlink:title=" ">
<path fill="none" stroke="#63b8ff" d="M453.35,-57.64C503.79,-49.91 594.79,-35.53 682.02,-19.21"/>
<polygon fill="#63b8ff" stroke="#63b8ff" points="682.9,-22.61 692.08,-17.32 681.61,-15.73 682.9,-22.61"/>
</a>
</g>
</g>
<!-- Node15&#45;&gt;Node6 -->
<g id="edge18_Node000015_Node000006" class="edge">
<title>Node15&#45;&gt;Node6</title>
<g id="a_edge18_Node000015_Node000006"><a xlink:title=" ">
<path fill="none" stroke="#63b8ff" d="M397.63,-54.98C380.89,-46.54 355,-33.47 335.61,-23.68"/>
<polygon fill="#63b8ff" stroke="#63b8ff" points="337.18,-20.55 326.68,-19.17 334.03,-26.8 337.18,-20.55"/>
</a>
</g>
</g>
<!-- Node15&#45;&gt;Node7 -->
<g id="edge20_Node000015_Node000007" class="edge">
<title>Node15&#45;&gt;Node7</title>
<g id="a_edge20_Node000015_Node000007"><a xlink:title=" ">
<path fill="none" stroke="#63b8ff" d="M375.93,-56.82C331.92,-49.04 257.58,-35.38 184.13,-19.02"/>
<polygon fill="#63b8ff" stroke="#63b8ff" points="184.77,-15.58 174.25,-16.8 183.24,-22.41 184.77,-15.58"/>
</a>
</g>
</g>
<!-- Node15&#45;&gt;Node8 -->
<g id="edge23_Node000015_Node000008" class="edge">
<title>Node15&#45;&gt;Node8</title>
<g id="a_edge23_Node000015_Node000008"><a xlink:title=" ">
<path fill="none" stroke="#63b8ff" d="M383.81,-54.98C351.33,-45.97 299.9,-31.7 264.09,-21.76"/>
<polygon fill="#63b8ff" stroke="#63b8ff" points="265,-18.38 254.43,-19.08 263.13,-25.13 265,-18.38"/>
</a>
</g>
</g>
<!-- Node15&#45;&gt;Node13 -->
<g id="edge19_Node000015_Node000013" class="edge">
<title>Node15&#45;&gt;Node13</title>
<g id="a_edge19_Node000015_Node000013"><a xlink:title=" ">
<path fill="none" stroke="#63b8ff" d="M451.89,-54.99C489.07,-46.51 548.03,-33.07 608.17,-19.3"/>
<polygon fill="#63b8ff" stroke="#63b8ff" points="609.25,-22.64 618.22,-17 607.69,-15.82 609.25,-22.64"/>
</a>
</g>
</g>
<!-- Node16 -->
<g id="Node000016" class="node">
<title>Node16</title>
<g id="a_Node000016"><a xlink:title=" ">
<polygon fill="#e0e0e0" stroke="#999999" points="470.5,-19 438.5,-19 438.5,0 470.5,0 470.5,-19"/>
<text text-anchor="middle" x="454.5" y="-7" font-family="Helvetica,sans-Serif" font-size="10.00">ff.h</text>
</a>
</g>
</g>
<!-- Node15&#45;&gt;Node16 -->
<g id="edge21_Node000015_Node000016" class="edge">
<title>Node15&#45;&gt;Node16</title>
<g id="a_edge21_Node000015_Node000016"><a xlink:title=" ">
<path fill="none" stroke="#63b8ff" d="M421.11,-54.75C426.76,-47.26 435.04,-36.28 441.95,-27.13"/>
<polygon fill="#63b8ff" stroke="#63b8ff" points="444.79,-29.18 448.02,-19.09 439.2,-24.96 444.79,-29.18"/>
</a>
</g>
</g>
<!-- Node17 -->
<g id="Node000017" class="node">
<title>Node17</title>
<g id="a_Node000017"><a xlink:href="filesystem__errors_8h.html" target="_top" xlink:title=" ">
<polygon fill="white" stroke="#666666" points="600,-19 489,-19 489,0 600,0 600,-19"/>
<text text-anchor="middle" x="544.5" y="-7" font-family="Helvetica,sans-Serif" font-size="10.00">filesystem_errors.h</text>
</a>
</g>
</g>
<!-- Node15&#45;&gt;Node17 -->
<g id="edge22_Node000015_Node000017" class="edge">
<title>Node15&#45;&gt;Node17</title>
<g id="a_edge22_Node000015_Node000017"><a xlink:title=" ">
<path fill="none" stroke="#63b8ff" d="M435.39,-54.98C456.58,-46.34 489.63,-32.87 513.8,-23.02"/>
<polygon fill="#63b8ff" stroke="#63b8ff" points="515.29,-26.19 523.23,-19.17 512.65,-19.7 515.29,-26.19"/>
</a>
</g>
</g>
<!-- Node18 -->
<g id="Node000018" class="node">
<title>Node18</title>
<g id="a_Node000018"><a xlink:title=" ">
<polygon fill="#e0e0e0" stroke="#999999" points="420.5,-19 364.5,-19 364.5,0 420.5,0 420.5,-19"/>
<text text-anchor="middle" x="392.5" y="-7" font-family="Helvetica,sans-Serif" font-size="10.00">stddef.h</text>
</a>
</g>
</g>
<!-- Node15&#45;&gt;Node18 -->
<g id="edge24_Node000015_Node000018" class="edge">
<title>Node15&#45;&gt;Node18</title>
<g id="a_edge24_Node000015_Node000018"><a xlink:title=" ">
<path fill="none" stroke="#63b8ff" d="M410.87,-54.75C407.92,-47.65 403.67,-37.4 399.99,-28.56"/>
<polygon fill="#63b8ff" stroke="#63b8ff" points="403.13,-26.98 396.07,-19.09 396.67,-29.67 403.13,-26.98"/>
</a>
</g>
</g>
<!-- Node20&#45;&gt;Node5 -->
<g id="edge30_Node000020_Node000005" class="edge">
<title>Node20&#45;&gt;Node5</title>
<g id="a_edge30_Node000020_Node000005"><a xlink:title=" ">
<path fill="none" stroke="#63b8ff" d="M558.24,-219.95C583.93,-187.4 675.92,-70.81 710.36,-27.16"/>
<polygon fill="#63b8ff" stroke="#63b8ff" points="713.17,-29.24 716.62,-19.22 707.68,-24.91 713.17,-29.24"/>
</a>
</g>
</g>
<!-- Node20&#45;&gt;Node12 -->
<g id="edge29_Node000020_Node000012" class="edge">
<title>Node20&#45;&gt;Node12</title>
<g id="a_edge29_Node000020_Node000012"><a xlink:title=" ">
<path fill="none" stroke="#63b8ff" d="M530.99,-220.57C508.49,-211.86 472.09,-197.78 445.97,-187.68"/>
<polygon fill="#63b8ff" stroke="#63b8ff" points="447.1,-184.36 436.51,-184.02 444.58,-190.89 447.1,-184.36"/>
</a>
</g>
</g>
</g>
</svg>
