<?xml version="1.0" encoding="UTF-8" standalone="no"?>
<!DOCTYPE svg PUBLIC "-//W3C//DTD SVG 1.1//EN"
 "http://www.w3.org/Graphics/SVG/1.1/DTD/svg11.dtd">
<!-- Generated by graphviz version 2.43.0 (0)
 -->
<!-- Title: telemetry.h Pages: 1 -->
<!--zoomable 192 -->

<svg id="main" version="1.1" xmlns="http://www.w3.org/2000/svg" xmlns:xlink="http://www.w3.org/1999/xlink" xml:space="preserve" onload="init(evt)">

<style type="text/css"><![CDATA[
.node, .edge {opacity: 0.7;}
.node.selected, .edge.selected {opacity: 1;}
.edge:hover path { stroke: red; }
.edge:hover polygon { stroke: red; fill: red; }
]]></style>

<defs>
  <circle id="rim" cx="0" cy="0" r="7"/>
  <circle id="rim2" cx="0" cy="0" r="3.5"/>
  <g id="zoomPlus">
    <use xlink:href="#rim" fill="#404040"><set attributeName="fill" to="#808080" begin="zoomplus.mouseover" end="zoomplus.mouseout"/></use>
    <path d="M-4,0h8M0,-4v8" fill="none" stroke="white" stroke-width="1.5" pointer-events="none"/>
  </g>
  <g id="zoomMin">
    <use xlink:href="#rim" fill="#404040"><set attributeName="fill" to="#808080" begin="zoomminus.mouseover" end="zoomminus.mouseout"/></use>
    <path d="M-4,0h8" fill="none" stroke="white" stroke-width="1.5" pointer-events="none"/>
  </g>
  <g id="arrowUp" transform="translate(30 24)">
    <use xlink:href="#rim"/>
    <path pointer-events="none" fill="none" stroke="white" stroke-width="1.5" d="M0,-3.0v7 M-2.5,-0.5L0,-3.0L2.5,-0.5"/>
  </g>
  <g id="arrowRight" transform="rotate(90) translate(36 -43)">
    <use xlink:href="#rim"/>
    <path pointer-events="none" fill="none" stroke="white" stroke-width="1.5" d="M0,-3.0v7 M-2.5,-0.5L0,-3.0L2.5,-0.5"/>
  </g>
  <g id="arrowDown" transform="rotate(180) translate(-30 -48)">
    <use xlink:href="#rim"/>
    <path pointer-events="none" fill="none" stroke="white" stroke-width="1.5" d="M0,-3.0v7 M-2.5,-0.5L0,-3.0L2.5,-0.5"/>
  </g>
  <g id="arrowLeft" transform="rotate(270) translate(-36 17)">
    <use xlink:href="#rim"/>
    <path pointer-events="none" fill="none" stroke="white" stroke-width="1.5" d="M0,-3.0v7 M-2.5,-0.5L0,-3.0L2.5,-0.5"/>
  </g>
  <g id="resetDef">
    <use xlink:href="#rim2" fill="#404040"><set attributeName="fill" to="#808080" begin="reset.mouseover" end="reset.mouseout"/></use>
  </g>
</defs>
<script type="application/ecmascript">
var viewWidth = 2509;
var viewHeight = 192;
var sectionId = 'dynsection-1';
</script>
<script type="application/ecmascript" xlink:href="svg.min.js"/>
<svg id="graph" class="graph">
<g id="viewport">
<title>telemetry.h</title>
<!-- Node1 -->
<g id="Node000001" class="node">
<title>Node1</title>
<g id="a_Node000001"><a xlink:title="Functions for packaging and queuing telemetry packets for sending.">
<polygon fill="#999999" stroke="#666666" points="377.96,-184 305.96,-184 305.96,-165 377.96,-165 377.96,-184"/>
<text text-anchor="middle" x="341.96" y="-172" font-family="Helvetica,sans-Serif" font-size="10.00">telemetry.h</text>
</a>
</g>
</g>
<!-- Node2 -->
<g id="Node000002" class="node">
<title>Node2</title>
<g id="a_Node000002"><a xlink:href="command__fuzzer_8cpp.html" target="_top" xlink:title=" ">
<polygon fill="white" stroke="#666666" points="137.46,-74 16.46,-74 16.46,-55 137.46,-55 137.46,-74"/>
<text text-anchor="middle" x="76.96" y="-62" font-family="Helvetica,sans-Serif" font-size="10.00">command_fuzzer.cpp</text>
</a>
</g>
</g>
<!-- Node1&#45;&gt;Node2 -->
<g id="edge1_Node000001_Node000002" class="edge">
<title>Node1&#45;&gt;Node2</title>
<g id="a_edge1_Node000001_Node000002"><a xlink:title=" ">
<path fill="none" stroke="#63b8ff" d="M311.25,-160.98C256.75,-138.77 144.51,-93.03 97.93,-74.05"/>
<polygon fill="#63b8ff" stroke="#63b8ff" points="310.14,-164.31 320.72,-164.84 312.78,-157.83 310.14,-164.31"/>
</a>
</g>
</g>
<!-- Node3 -->
<g id="Node000003" class="node">
<title>Node3</title>
<g id="a_Node000003"><a xlink:href="file__downlink_8c.html" target="_top" xlink:title=" ">
<polygon fill="white" stroke="#666666" points="283.96,-74 193.96,-74 193.96,-55 283.96,-55 283.96,-74"/>
<text text-anchor="middle" x="238.96" y="-62" font-family="Helvetica,sans-Serif" font-size="10.00">file_downlink.c</text>
</a>
</g>
</g>
<!-- Node1&#45;&gt;Node3 -->
<g id="edge2_Node000001_Node000003" class="edge">
<title>Node1&#45;&gt;Node3</title>
<g id="a_edge2_Node000001_Node000003"><a xlink:title=" ">
<path fill="none" stroke="#63b8ff" d="M324.16,-158.32C314.63,-149.96 302.85,-139.22 292.96,-129 274.84,-110.28 255.51,-86.49 245.62,-74.02"/>
<polygon fill="#63b8ff" stroke="#63b8ff" points="322,-161.09 331.85,-164.99 326.59,-155.8 322,-161.09"/>
</a>
</g>
</g>
<!-- Node4 -->
<g id="Node000004" class="node">
<title>Node4</title>
<g id="a_Node000004"><a xlink:href="hb__tlm__log_8h.html" target="_top" xlink:title=" ">
<polygon fill="white" stroke="#666666" points="381.96,-129 301.96,-129 301.96,-110 381.96,-110 381.96,-129"/>
<text text-anchor="middle" x="341.96" y="-117" font-family="Helvetica,sans-Serif" font-size="10.00">hb_tlm_log.h</text>
</a>
</g>
</g>
<!-- Node1&#45;&gt;Node4 -->
<g id="edge3_Node000001_Node000004" class="edge">
<title>Node1&#45;&gt;Node4</title>
<g id="a_edge3_Node000001_Node000004"><a xlink:title=" ">
<path fill="none" stroke="#63b8ff" d="M341.96,-154.66C341.96,-145.93 341.96,-135.99 341.96,-129.09"/>
<polygon fill="#63b8ff" stroke="#63b8ff" points="338.46,-154.75 341.96,-164.75 345.46,-154.75 338.46,-154.75"/>
</a>
</g>
</g>
<!-- Node7 -->
<g id="Node000007" class="node">
<title>Node7</title>
<g id="a_Node000007"><a xlink:href="heartbeat__job_8c.html" target="_top" xlink:title=" ">
<polygon fill="white" stroke="#666666" points="211.96,-19 119.96,-19 119.96,0 211.96,0 211.96,-19"/>
<text text-anchor="middle" x="165.96" y="-7" font-family="Helvetica,sans-Serif" font-size="10.00">heartbeat_job.c</text>
</a>
</g>
</g>
<!-- Node1&#45;&gt;Node7 -->
<g id="edge7_Node000001_Node000007" class="edge">
<title>Node1&#45;&gt;Node7</title>
<g id="a_edge7_Node000001_Node000007"><a xlink:title=" ">
<path fill="none" stroke="#63b8ff" d="M295.81,-166.66C212.33,-153.25 41.67,-120.68 6.96,-74 -24.26,-32.02 62.6,-17.75 119.94,-12.93"/>
<polygon fill="#63b8ff" stroke="#63b8ff" points="295.36,-170.14 305.78,-168.24 296.45,-163.22 295.36,-170.14"/>
</a>
</g>
</g>
<!-- Node8 -->
<g id="Node000008" class="node">
<title>Node8</title>
<g id="a_Node000008"><a xlink:href="log_8h.html" target="_top" xlink:title=" ">
<polygon fill="white" stroke="#666666" points="1385.46,-129 1344.46,-129 1344.46,-110 1385.46,-110 1385.46,-129"/>
<text text-anchor="middle" x="1364.96" y="-117" font-family="Helvetica,sans-Serif" font-size="10.00">log.h</text>
</a>
</g>
</g>
<!-- Node1&#45;&gt;Node8 -->
<g id="edge8_Node000001_Node000008" class="edge">
<title>Node1&#45;&gt;Node8</title>
<g id="a_edge8_Node000001_Node000008"><a xlink:title=" ">
<path fill="none" stroke="#63b8ff" d="M388.27,-171.1C568.46,-161.77 1219.04,-128.06 1344.09,-121.58"/>
<polygon fill="#63b8ff" stroke="#63b8ff" points="387.87,-167.62 378.07,-171.63 388.24,-174.61 387.87,-167.62"/>
</a>
</g>
</g>
<!-- Node21 -->
<g id="Node000021" class="node">
<title>Node21</title>
<g id="a_Node000021"><a xlink:href="main_8c.html" target="_top" xlink:title=" ">
<polygon fill="white" stroke="#666666" points="2411.96,-74 2361.96,-74 2361.96,-55 2411.96,-55 2411.96,-74"/>
<text text-anchor="middle" x="2386.96" y="-62" font-family="Helvetica,sans-Serif" font-size="10.00">main.c</text>
</a>
</g>
</g>
<!-- Node1&#45;&gt;Node21 -->
<g id="edge40_Node000001_Node000021" class="edge">
<title>Node1&#45;&gt;Node21</title>
<g id="a_edge40_Node000001_Node000021"><a xlink:title=" ">
<path fill="none" stroke="#63b8ff" d="M388.31,-172.49C651.09,-166.56 1955.87,-134.47 2352.96,-74 2355.85,-73.56 2358.85,-72.99 2361.82,-72.34"/>
<polygon fill="#63b8ff" stroke="#63b8ff" points="387.91,-169 377.99,-172.72 388.07,-175.99 387.91,-169"/>
</a>
</g>
</g>
<!-- Node28 -->
<g id="Node000028" class="node">
<title>Node28</title>
<g id="a_Node000028"><a xlink:href="telemetry_8c.html" target="_top" xlink:title=" ">
<polygon fill="white" stroke="#666666" points="2501.46,-74 2430.46,-74 2430.46,-55 2501.46,-55 2501.46,-74"/>
<text text-anchor="middle" x="2465.96" y="-62" font-family="Helvetica,sans-Serif" font-size="10.00">telemetry.c</text>
</a>
</g>
</g>
<!-- Node1&#45;&gt;Node28 -->
<g id="edge41_Node000001_Node000028" class="edge">
<title>Node1&#45;&gt;Node28</title>
<g id="a_edge41_Node000001_Node000028"><a xlink:title=" ">
<path fill="none" stroke="#63b8ff" d="M388.26,-173.2C571.86,-171.8 1266.53,-164.31 1836.96,-129 2097.17,-112.89 2162.82,-110.46 2420.96,-74 2423.95,-73.58 2427.05,-73.09 2430.15,-72.57"/>
<polygon fill="#63b8ff" stroke="#63b8ff" points="388.12,-169.7 378.15,-173.28 388.17,-176.7 388.12,-169.7"/>
</a>
</g>
</g>
<!-- Node5 -->
<g id="Node000005" class="node">
<title>Node5</title>
<g id="a_Node000005"><a xlink:href="command_8c.html" target="_top" xlink:title=" ">
<polygon fill="white" stroke="#666666" points="473.96,-74 399.96,-74 399.96,-55 473.96,-55 473.96,-74"/>
<text text-anchor="middle" x="436.96" y="-62" font-family="Helvetica,sans-Serif" font-size="10.00">command.c</text>
</a>
</g>
</g>
<!-- Node4&#45;&gt;Node5 -->
<g id="edge4_Node000004_Node000005" class="edge">
<title>Node4&#45;&gt;Node5</title>
<g id="a_edge4_Node000004_Node000005"><a xlink:title=" ">
<path fill="none" stroke="#63b8ff" d="M366.22,-104.97C383.59,-95.28 406.45,-82.52 421.42,-74.17"/>
<polygon fill="#63b8ff" stroke="#63b8ff" points="364.25,-102.06 357.22,-109.98 367.66,-108.17 364.25,-102.06"/>
</a>
</g>
</g>
<!-- Node6 -->
<g id="Node000006" class="node">
<title>Node6</title>
<g id="a_Node000006"><a xlink:href="hb__tlm__log_8c.html" target="_top" xlink:title=" ">
<polygon fill="white" stroke="#666666" points="381.46,-74 302.46,-74 302.46,-55 381.46,-55 381.46,-74"/>
<text text-anchor="middle" x="341.96" y="-62" font-family="Helvetica,sans-Serif" font-size="10.00">hb_tlm_log.c</text>
</a>
</g>
</g>
<!-- Node4&#45;&gt;Node6 -->
<g id="edge5_Node000004_Node000006" class="edge">
<title>Node4&#45;&gt;Node6</title>
<g id="a_edge5_Node000004_Node000006"><a xlink:title=" ">
<path fill="none" stroke="#63b8ff" d="M341.96,-99.66C341.96,-90.93 341.96,-80.99 341.96,-74.09"/>
<polygon fill="#63b8ff" stroke="#63b8ff" points="338.46,-99.75 341.96,-109.75 345.46,-99.75 338.46,-99.75"/>
</a>
</g>
</g>
<!-- Node4&#45;&gt;Node7 -->
<g id="edge6_Node000004_Node000007" class="edge">
<title>Node4&#45;&gt;Node7</title>
<g id="a_edge6_Node000004_Node000007"><a xlink:title=" ">
<path fill="none" stroke="#63b8ff" d="M291.55,-116.48C257.24,-112.47 213.12,-101.75 184.96,-74 169.88,-59.14 166.66,-32.84 166.05,-19.22"/>
<polygon fill="#63b8ff" stroke="#63b8ff" points="291.55,-120 301.85,-117.52 292.25,-113.03 291.55,-120"/>
</a>
</g>
</g>
<!-- Node8&#45;&gt;Node2 -->
<g id="edge11_Node000008_Node000002" class="edge">
<title>Node8&#45;&gt;Node2</title>
<g id="a_edge11_Node000008_Node000002"><a xlink:title=" ">
<path fill="none" stroke="#63b8ff" d="M1334.32,-117.8C1199.04,-114.64 641.77,-100.58 184.96,-74 169.56,-73.1 152.95,-71.91 137.48,-70.7"/>
<polygon fill="#63b8ff" stroke="#63b8ff" points="1334.29,-121.31 1344.37,-118.04 1334.45,-114.31 1334.29,-121.31"/>
</a>
</g>
</g>
<!-- Node8&#45;&gt;Node3 -->
<g id="edge13_Node000008_Node000003" class="edge">
<title>Node8&#45;&gt;Node3</title>
<g id="a_edge13_Node000008_Node000003"><a xlink:title=" ">
<path fill="none" stroke="#63b8ff" d="M1333.82,-118.51C1205.25,-118.28 703.17,-114.66 292.96,-74 290.03,-73.71 287.02,-73.37 283.99,-72.98"/>
<polygon fill="#63b8ff" stroke="#63b8ff" points="1334.1,-122.01 1344.1,-118.52 1334.11,-115.01 1334.1,-122.01"/>
</a>
</g>
</g>
<!-- Node8&#45;&gt;Node5 -->
<g id="edge10_Node000008_Node000005" class="edge">
<title>Node8&#45;&gt;Node5</title>
<g id="a_edge10_Node000008_Node000005"><a xlink:title=" ">
<path fill="none" stroke="#63b8ff" d="M1334.32,-118.42C1220.99,-117.81 814.88,-112.87 482.96,-74 480.06,-73.66 477.06,-73.25 474.05,-72.79"/>
<polygon fill="#63b8ff" stroke="#63b8ff" points="1334.35,-121.92 1344.37,-118.47 1334.38,-114.92 1334.35,-121.92"/>
</a>
</g>
</g>
<!-- Node8&#45;&gt;Node6 -->
<g id="edge16_Node000008_Node000006" class="edge">
<title>Node8&#45;&gt;Node6</title>
<g id="a_edge16_Node000008_Node000006"><a xlink:title=" ">
<path fill="none" stroke="#63b8ff" d="M1333.97,-118.5C1212.93,-118.22 760.56,-114.34 390.96,-74 387.87,-73.66 384.68,-73.25 381.48,-72.8"/>
<polygon fill="#63b8ff" stroke="#63b8ff" points="1334.32,-122 1344.32,-118.52 1334.33,-115 1334.32,-122"/>
</a>
</g>
</g>
<!-- Node9 -->
<g id="Node000009" class="node">
<title>Node9</title>
<g id="a_Node000009"><a xlink:href="antenna__deploy__job_8c.html" target="_top" xlink:title=" ">
<polygon fill="white" stroke="#666666" points="1911.46,-74 1788.46,-74 1788.46,-55 1911.46,-55 1911.46,-74"/>
<text text-anchor="middle" x="1849.96" y="-62" font-family="Helvetica,sans-Serif" font-size="10.00">antenna_deploy_job.c</text>
</a>
</g>
</g>
<!-- Node8&#45;&gt;Node9 -->
<g id="edge9_Node000008_Node000009" class="edge">
<title>Node8&#45;&gt;Node9</title>
<g id="a_edge9_Node000008_Node000009"><a xlink:title=" ">
<path fill="none" stroke="#63b8ff" d="M1395.89,-115.17C1464.14,-107.81 1632.78,-89.58 1773.96,-74 1778.58,-73.49 1783.36,-72.96 1788.16,-72.43"/>
<polygon fill="#63b8ff" stroke="#63b8ff" points="1395.39,-111.7 1385.82,-116.25 1396.14,-118.66 1395.39,-111.7"/>
</a>
</g>
</g>
<!-- Node10 -->
<g id="Node000010" class="node">
<title>Node10</title>
<g id="a_Node000010"><a xlink:href="ds18b20_8c.html" target="_top" xlink:title=" ">
<polygon fill="white" stroke="#666666" points="1995.96,-74 1929.96,-74 1929.96,-55 1995.96,-55 1995.96,-74"/>
<text text-anchor="middle" x="1962.96" y="-62" font-family="Helvetica,sans-Serif" font-size="10.00">ds18b20.c</text>
</a>
</g>
</g>
<!-- Node8&#45;&gt;Node10 -->
<g id="edge12_Node000008_Node000010" class="edge">
<title>Node8&#45;&gt;Node10</title>
<g id="a_edge12_Node000008_Node000010"><a xlink:title=" ">
<path fill="none" stroke="#63b8ff" d="M1395.6,-117.28C1479.71,-113.68 1721.14,-101.53 1919.96,-74 1923.13,-73.56 1926.41,-73.04 1929.69,-72.47"/>
<polygon fill="#63b8ff" stroke="#63b8ff" points="1395.31,-113.79 1385.46,-117.71 1395.6,-120.79 1395.31,-113.79"/>
</a>
</g>
</g>
<!-- Node11 -->
<g id="Node000011" class="node">
<title>Node11</title>
<g id="a_Node000011"><a xlink:href="filesystem_8c.html" target="_top" xlink:title=" ">
<polygon fill="white" stroke="#666666" points="2091.46,-74 2014.46,-74 2014.46,-55 2091.46,-55 2091.46,-74"/>
<text text-anchor="middle" x="2052.96" y="-62" font-family="Helvetica,sans-Serif" font-size="10.00">filesystem.c</text>
</a>
</g>
</g>
<!-- Node8&#45;&gt;Node11 -->
<g id="edge14_Node000008_Node000011" class="edge">
<title>Node8&#45;&gt;Node11</title>
<g id="a_edge14_Node000008_Node000011"><a xlink:title=" ">
<path fill="none" stroke="#63b8ff" d="M1395.53,-117.52C1487.81,-114.33 1771.55,-102.7 2004.96,-74 2007.98,-73.63 2011.11,-73.19 2014.24,-72.72"/>
<polygon fill="#63b8ff" stroke="#63b8ff" points="1395.36,-114.03 1385.48,-117.86 1395.6,-121.02 1395.36,-114.03"/>
</a>
</g>
</g>
<!-- Node12 -->
<g id="Node000012" class="node">
<title>Node12</title>
<g id="a_Node000012"><a xlink:href="gse_8c.html" target="_top" xlink:title=" ">
<polygon fill="white" stroke="#666666" points="2151.96,-74 2109.96,-74 2109.96,-55 2151.96,-55 2151.96,-74"/>
<text text-anchor="middle" x="2130.96" y="-62" font-family="Helvetica,sans-Serif" font-size="10.00">gse.c</text>
</a>
</g>
</g>
<!-- Node8&#45;&gt;Node12 -->
<g id="edge15_Node000008_Node000012" class="edge">
<title>Node8&#45;&gt;Node12</title>
<g id="a_edge15_Node000008_Node000012"><a xlink:title=" ">
<path fill="none" stroke="#63b8ff" d="M1395.75,-118.9C1497.18,-119.76 1829.81,-118.72 2099.96,-74 2103.15,-73.47 2106.49,-72.75 2109.74,-71.94"/>
<polygon fill="#63b8ff" stroke="#63b8ff" points="1395.63,-115.4 1385.59,-118.81 1395.56,-122.4 1395.63,-115.4"/>
</a>
</g>
</g>
<!-- Node13 -->
<g id="Node000013" class="node">
<title>Node13</title>
<g id="a_Node000013"><a xlink:href="i2c_8c.html" target="_top" xlink:title=" ">
<polygon fill="white" stroke="#666666" points="2209.46,-74 2170.46,-74 2170.46,-55 2209.46,-55 2209.46,-74"/>
<text text-anchor="middle" x="2189.96" y="-62" font-family="Helvetica,sans-Serif" font-size="10.00">i2c.c</text>
</a>
</g>
</g>
<!-- Node8&#45;&gt;Node13 -->
<g id="edge17_Node000008_Node000013" class="edge">
<title>Node8&#45;&gt;Node13</title>
<g id="a_edge17_Node000008_Node000013"><a xlink:title=" ">
<path fill="none" stroke="#63b8ff" d="M1395.71,-117.72C1523.08,-114.36 2009.7,-100.04 2160.96,-74 2164.06,-73.47 2167.3,-72.72 2170.45,-71.88"/>
<polygon fill="#63b8ff" stroke="#63b8ff" points="1395.41,-114.23 1385.5,-117.99 1395.59,-121.23 1395.41,-114.23"/>
</a>
</g>
</g>
<!-- Node14 -->
<g id="Node000014" class="node">
<title>Node14</title>
<g id="a_Node000014"><a xlink:href="ina219_8c.html" target="_top" xlink:title=" ">
<polygon fill="white" stroke="#666666" points="2285.96,-74 2227.96,-74 2227.96,-55 2285.96,-55 2285.96,-74"/>
<text text-anchor="middle" x="2256.96" y="-62" font-family="Helvetica,sans-Serif" font-size="10.00">ina219.c</text>
</a>
</g>
</g>
<!-- Node8&#45;&gt;Node14 -->
<g id="edge18_Node000008_Node000014" class="edge">
<title>Node8&#45;&gt;Node14</title>
<g id="a_edge18_Node000008_Node000014"><a xlink:title=" ">
<path fill="none" stroke="#63b8ff" d="M1395.75,-118.76C1507.13,-119.29 1899.38,-117.75 2218.96,-74 2221.77,-73.61 2224.69,-73.13 2227.59,-72.58"/>
<polygon fill="#63b8ff" stroke="#63b8ff" points="1395.59,-115.26 1385.57,-118.7 1395.55,-122.26 1395.59,-115.26"/>
</a>
</g>
</g>
<!-- Node15 -->
<g id="Node000015" class="node">
<title>Node15</title>
<g id="a_Node000015"><a xlink:href="test_2unit_2utilities_2log_8c.html" target="_top" xlink:title=" ">
<polygon fill="white" stroke="#666666" points="2343.96,-74 2303.96,-74 2303.96,-55 2343.96,-55 2343.96,-74"/>
<text text-anchor="middle" x="2323.96" y="-62" font-family="Helvetica,sans-Serif" font-size="10.00">log.c</text>
</a>
</g>
</g>
<!-- Node8&#45;&gt;Node15 -->
<g id="edge19_Node000008_Node000015" class="edge">
<title>Node8&#45;&gt;Node15</title>
<g id="a_edge19_Node000008_Node000015"><a xlink:title=" ">
<path fill="none" stroke="#63b8ff" d="M1395.79,-118.01C1536.21,-115.61 2116.1,-104.05 2294.96,-74 2297.86,-73.51 2300.88,-72.83 2303.82,-72.07"/>
<polygon fill="#63b8ff" stroke="#63b8ff" points="1395.67,-114.51 1385.73,-118.18 1395.78,-121.51 1395.67,-114.51"/>
</a>
</g>
</g>
<!-- Node16 -->
<g id="Node000016" class="node">
<title>Node16</title>
<g id="a_Node000016"><a xlink:href="utilities_2src_2log_8c.html" target="_top" xlink:title=" ">
<polygon fill="white" stroke="#666666" points="531.96,-74 491.96,-74 491.96,-55 531.96,-55 531.96,-74"/>
<text text-anchor="middle" x="511.96" y="-62" font-family="Helvetica,sans-Serif" font-size="10.00">log.c</text>
</a>
</g>
</g>
<!-- Node8&#45;&gt;Node16 -->
<g id="edge20_Node000008_Node000016" class="edge">
<title>Node8&#45;&gt;Node16</title>
<g id="a_edge20_Node000008_Node000016"><a xlink:title=" ">
<path fill="none" stroke="#63b8ff" d="M1334.38,-117.79C1204.51,-114.65 698.05,-100.89 540.96,-74 538.06,-73.5 535.05,-72.82 532.1,-72.05"/>
<polygon fill="#63b8ff" stroke="#63b8ff" points="1334.35,-121.29 1344.43,-118.03 1334.52,-114.3 1334.35,-121.29"/>
</a>
</g>
</g>
<!-- Node17 -->
<g id="Node000017" class="node">
<title>Node17</title>
<g id="a_Node000017"><a xlink:href="log__test__unittest_8c.html" target="_top" xlink:title=" ">
<polygon fill="white" stroke="#666666" points="657.46,-74 550.46,-74 550.46,-55 657.46,-55 657.46,-74"/>
<text text-anchor="middle" x="603.96" y="-62" font-family="Helvetica,sans-Serif" font-size="10.00">log_test_unittest.c</text>
</a>
</g>
</g>
<!-- Node8&#45;&gt;Node17 -->
<g id="edge21_Node000008_Node000017" class="edge">
<title>Node8&#45;&gt;Node17</title>
<g id="a_edge21_Node000008_Node000017"><a xlink:title=" ">
<path fill="none" stroke="#63b8ff" d="M1334.26,-117.34C1236.48,-113.49 923.69,-99.84 665.96,-74 663.26,-73.73 660.49,-73.43 657.7,-73.11"/>
<polygon fill="#63b8ff" stroke="#63b8ff" points="1334.2,-120.84 1344.33,-117.74 1334.47,-113.85 1334.2,-120.84"/>
</a>
</g>
</g>
<!-- Node18 -->
<g id="Node000018" class="node">
<title>Node18</title>
<g id="a_Node000018"><a xlink:href="mag__lis3mdltr_8c.html" target="_top" xlink:title=" ">
<polygon fill="white" stroke="#666666" points="1670.46,-19 1575.46,-19 1575.46,0 1670.46,0 1670.46,-19"/>
<text text-anchor="middle" x="1622.96" y="-7" font-family="Helvetica,sans-Serif" font-size="10.00">mag_lis3mdltr.c</text>
</a>
</g>
</g>
<!-- Node8&#45;&gt;Node18 -->
<g id="edge22_Node000008_Node000018" class="edge">
<title>Node8&#45;&gt;Node18</title>
<g id="a_edge22_Node000008_Node000018"><a xlink:title=" ">
<path fill="none" stroke="#63b8ff" d="M1395.65,-115.65C1449.61,-110.12 1558.65,-96.46 1588.96,-74 1607.65,-60.15 1617.13,-32.91 1620.92,-19.04"/>
<polygon fill="#63b8ff" stroke="#63b8ff" points="1395.23,-112.17 1385.63,-116.65 1395.93,-119.14 1395.23,-112.17"/>
</a>
</g>
</g>
<!-- Node19 -->
<g id="Node000019" class="node">
<title>Node19</title>
<g id="a_Node000019"><a xlink:href="mag__lis3mdltr_8h.html" target="_top" xlink:title="Magnetometer Driver (LIS3MDLTR).">
<polygon fill="white" stroke="#666666" points="1731.96,-74 1635.96,-74 1635.96,-55 1731.96,-55 1731.96,-74"/>
<text text-anchor="middle" x="1683.96" y="-62" font-family="Helvetica,sans-Serif" font-size="10.00">mag_lis3mdltr.h</text>
</a>
</g>
</g>
<!-- Node8&#45;&gt;Node19 -->
<g id="edge23_Node000008_Node000019" class="edge">
<title>Node8&#45;&gt;Node19</title>
<g id="a_edge23_Node000008_Node000019"><a xlink:title=" ">
<path fill="none" stroke="#63b8ff" d="M1395.86,-113.37C1451.59,-104.11 1569.28,-84.55 1635.71,-73.52"/>
<polygon fill="#63b8ff" stroke="#63b8ff" points="1395.18,-109.93 1385.89,-115.02 1396.33,-116.84 1395.18,-109.93"/>
</a>
</g>
</g>
<!-- Node20 -->
<g id="Node000020" class="node">
<title>Node20</title>
<g id="a_Node000020"><a xlink:href="steve_8c.html" target="_top" xlink:title=" ">
<polygon fill="white" stroke="#666666" points="1770.96,-19 1718.96,-19 1718.96,0 1770.96,0 1770.96,-19"/>
<text text-anchor="middle" x="1744.96" y="-7" font-family="Helvetica,sans-Serif" font-size="10.00">steve.c</text>
</a>
</g>
</g>
<!-- Node8&#45;&gt;Node20 -->
<g id="edge34_Node000008_Node000020" class="edge">
<title>Node8&#45;&gt;Node20</title>
<g id="a_edge34_Node000008_Node000020"><a xlink:title=" ">
<path fill="none" stroke="#63b8ff" d="M1395.57,-117.09C1481.01,-112.86 1717.32,-98.98 1740.96,-74 1754.93,-59.24 1750.89,-32.89 1747.51,-19.24"/>
<polygon fill="#63b8ff" stroke="#63b8ff" points="1395.29,-113.6 1385.47,-117.58 1395.63,-120.59 1395.29,-113.6"/>
</a>
</g>
</g>
<!-- Node8&#45;&gt;Node21 -->
<g id="edge27_Node000008_Node000021" class="edge">
<title>Node8&#45;&gt;Node21</title>
<g id="a_edge27_Node000008_Node000021"><a xlink:title=" ">
<path fill="none" stroke="#63b8ff" d="M1395.8,-117.94C1541.48,-115.18 2161.52,-101.95 2352.96,-74 2355.85,-73.58 2358.85,-73.02 2361.82,-72.38"/>
<polygon fill="#63b8ff" stroke="#63b8ff" points="1395.71,-114.44 1385.77,-118.13 1395.84,-121.44 1395.71,-114.44"/>
</a>
</g>
</g>
<!-- Node22 -->
<g id="Node000022" class="node">
<title>Node22</title>
<g id="a_Node000022"><a xlink:href="max17048_8c.html" target="_top" xlink:title=" ">
<polygon fill="white" stroke="#666666" points="752.46,-74 675.46,-74 675.46,-55 752.46,-55 752.46,-74"/>
<text text-anchor="middle" x="713.96" y="-62" font-family="Helvetica,sans-Serif" font-size="10.00">max17048.c</text>
</a>
</g>
</g>
<!-- Node8&#45;&gt;Node22 -->
<g id="edge28_Node000008_Node000022" class="edge">
<title>Node8&#45;&gt;Node22</title>
<g id="a_edge28_Node000008_Node000022"><a xlink:title=" ">
<path fill="none" stroke="#63b8ff" d="M1334.06,-117.37C1244.88,-113.88 979.5,-101.73 760.96,-74 758.25,-73.66 755.45,-73.26 752.64,-72.83"/>
<polygon fill="#63b8ff" stroke="#63b8ff" points="1334.16,-120.88 1344.28,-117.77 1334.43,-113.89 1334.16,-120.88"/>
</a>
</g>
</g>
<!-- Node23 -->
<g id="Node000023" class="node">
<title>Node23</title>
<g id="a_Node000023"><a xlink:href="miscellaneous__jobs_8c.html" target="_top" xlink:title=" ">
<polygon fill="white" stroke="#666666" points="891.46,-74 770.46,-74 770.46,-55 891.46,-55 891.46,-74"/>
<text text-anchor="middle" x="830.96" y="-62" font-family="Helvetica,sans-Serif" font-size="10.00">miscellaneous_jobs.c</text>
</a>
</g>
</g>
<!-- Node8&#45;&gt;Node23 -->
<g id="edge29_Node000008_Node000023" class="edge">
<title>Node8&#45;&gt;Node23</title>
<g id="a_edge29_Node000008_Node000023"><a xlink:title=" ">
<path fill="none" stroke="#63b8ff" d="M1334.02,-115.8C1259.46,-109.25 1063.91,-91.7 900.96,-74 897.92,-73.67 894.8,-73.32 891.66,-72.97"/>
<polygon fill="#63b8ff" stroke="#63b8ff" points="1333.86,-119.3 1344.13,-116.69 1334.47,-112.33 1333.86,-119.3"/>
</a>
</g>
</g>
<!-- Node24 -->
<g id="Node000024" class="node">
<title>Node24</title>
<g id="a_Node000024"><a xlink:href="mram_8c.html" target="_top" xlink:title=" ">
<polygon fill="white" stroke="#666666" points="963.96,-74 909.96,-74 909.96,-55 963.96,-55 963.96,-74"/>
<text text-anchor="middle" x="936.96" y="-62" font-family="Helvetica,sans-Serif" font-size="10.00">mram.c</text>
</a>
</g>
</g>
<!-- Node8&#45;&gt;Node24 -->
<g id="edge30_Node000008_Node000024" class="edge">
<title>Node8&#45;&gt;Node24</title>
<g id="a_edge30_Node000008_Node000024"><a xlink:title=" ">
<path fill="none" stroke="#63b8ff" d="M1334.27,-116.26C1267.96,-111.16 1106.55,-97.27 972.96,-74 970.05,-73.49 967.02,-72.89 964.02,-72.25"/>
<polygon fill="#63b8ff" stroke="#63b8ff" points="1334.2,-119.77 1344.43,-117.03 1334.73,-112.79 1334.2,-119.77"/>
</a>
</g>
</g>
<!-- Node25 -->
<g id="Node000025" class="node">
<title>Node25</title>
<g id="a_Node000025"><a xlink:href="radio_8cpp.html" target="_top" xlink:title="Radio operations and the task handling them.">
<polygon fill="white" stroke="#666666" points="1043.96,-74 981.96,-74 981.96,-55 1043.96,-55 1043.96,-74"/>
<text text-anchor="middle" x="1012.96" y="-62" font-family="Helvetica,sans-Serif" font-size="10.00">radio.cpp</text>
</a>
</g>
</g>
<!-- Node8&#45;&gt;Node25 -->
<g id="edge31_Node000008_Node000025" class="edge">
<title>Node8&#45;&gt;Node25</title>
<g id="a_edge31_Node000008_Node000025"><a xlink:title=" ">
<path fill="none" stroke="#63b8ff" d="M1334.48,-114.85C1278.52,-107.99 1155.7,-92.22 1052.96,-74 1050.16,-73.5 1047.27,-72.96 1044.36,-72.38"/>
<polygon fill="#63b8ff" stroke="#63b8ff" points="1334.09,-118.33 1344.44,-116.06 1334.94,-111.38 1334.09,-118.33"/>
</a>
</g>
</g>
<!-- Node26 -->
<g id="Node000026" class="node">
<title>Node26</title>
<g id="a_Node000026"><a xlink:href="rtc__ds3231_8c.html" target="_top" xlink:title=" ">
<polygon fill="white" stroke="#666666" points="1139.96,-74 1061.96,-74 1061.96,-55 1139.96,-55 1139.96,-74"/>
<text text-anchor="middle" x="1100.96" y="-62" font-family="Helvetica,sans-Serif" font-size="10.00">rtc_ds3231.c</text>
</a>
</g>
</g>
<!-- Node8&#45;&gt;Node26 -->
<g id="edge32_Node000008_Node000026" class="edge">
<title>Node8&#45;&gt;Node26</title>
<g id="a_edge32_Node000008_Node000026"><a xlink:title=" ">
<path fill="none" stroke="#63b8ff" d="M1334.42,-112.37C1286.32,-102.71 1192.96,-83.97 1140.04,-73.35"/>
<polygon fill="#63b8ff" stroke="#63b8ff" points="1333.75,-115.8 1344.24,-114.34 1335.13,-108.94 1333.75,-115.8"/>
</a>
</g>
</g>
<!-- Node27 -->
<g id="Node000027" class="node">
<title>Node27</title>
<g id="a_Node000027"><a xlink:href="set__rtc__job_8c.html" target="_top" xlink:title=" ">
<polygon fill="white" stroke="#666666" points="1235.96,-74 1157.96,-74 1157.96,-55 1235.96,-55 1235.96,-74"/>
<text text-anchor="middle" x="1196.96" y="-62" font-family="Helvetica,sans-Serif" font-size="10.00">set_rtc_job.c</text>
</a>
</g>
</g>
<!-- Node8&#45;&gt;Node27 -->
<g id="edge33_Node000008_Node000027" class="edge">
<title>Node8&#45;&gt;Node27</title>
<g id="a_edge33_Node000008_Node000027"><a xlink:title=" ">
<path fill="none" stroke="#63b8ff" d="M1334.8,-108.99C1303.33,-99.06 1254.44,-83.63 1224.13,-74.07"/>
<polygon fill="#63b8ff" stroke="#63b8ff" points="1333.77,-112.33 1344.36,-112 1335.88,-105.65 1333.77,-112.33"/>
</a>
</g>
</g>
<!-- Node8&#45;&gt;Node28 -->
<g id="edge35_Node000008_Node000028" class="edge">
<title>Node8&#45;&gt;Node28</title>
<g id="a_edge35_Node000008_Node000028"><a xlink:title=" ">
<path fill="none" stroke="#63b8ff" d="M1395.67,-118.82C1522.47,-119.82 2017.54,-120.35 2420.96,-74 2423.96,-73.66 2427.06,-73.23 2430.17,-72.74"/>
<polygon fill="#63b8ff" stroke="#63b8ff" points="1395.56,-115.32 1385.53,-118.74 1395.5,-122.32 1395.56,-115.32"/>
</a>
</g>
</g>
<!-- Node29 -->
<g id="Node000029" class="node">
<title>Node29</title>
<g id="a_Node000029"><a xlink:href="timing_8c.html" target="_top" xlink:title=" ">
<polygon fill="white" stroke="#666666" points="1309.96,-74 1253.96,-74 1253.96,-55 1309.96,-55 1309.96,-74"/>
<text text-anchor="middle" x="1281.96" y="-62" font-family="Helvetica,sans-Serif" font-size="10.00">timing.c</text>
</a>
</g>
</g>
<!-- Node8&#45;&gt;Node29 -->
<g id="edge36_Node000008_Node000029" class="edge">
<title>Node8&#45;&gt;Node29</title>
<g id="a_edge36_Node000008_Node000029"><a xlink:title=" ">
<path fill="none" stroke="#63b8ff" d="M1342.92,-104.42C1327.86,-94.81 1308.37,-82.37 1295.54,-74.17"/>
<polygon fill="#63b8ff" stroke="#63b8ff" points="1341.31,-107.55 1351.63,-109.98 1345.08,-101.65 1341.31,-107.55"/>
</a>
</g>
</g>
<!-- Node30 -->
<g id="Node000030" class="node">
<title>Node30</title>
<g id="a_Node000030"><a xlink:href="user__auth_8c.html" target="_top" xlink:title=" ">
<polygon fill="white" stroke="#666666" points="1401.46,-74 1328.46,-74 1328.46,-55 1401.46,-55 1401.46,-74"/>
<text text-anchor="middle" x="1364.96" y="-62" font-family="Helvetica,sans-Serif" font-size="10.00">user_auth.c</text>
</a>
</g>
</g>
<!-- Node8&#45;&gt;Node30 -->
<g id="edge37_Node000008_Node000030" class="edge">
<title>Node8&#45;&gt;Node30</title>
<g id="a_edge37_Node000008_Node000030"><a xlink:title=" ">
<path fill="none" stroke="#63b8ff" d="M1364.96,-99.66C1364.96,-90.93 1364.96,-80.99 1364.96,-74.09"/>
<polygon fill="#63b8ff" stroke="#63b8ff" points="1361.46,-99.75 1364.96,-109.75 1368.46,-99.75 1361.46,-99.75"/>
</a>
</g>
</g>
<!-- Node31 -->
<g id="Node000031" class="node">
<title>Node31</title>
<g id="a_Node000031"><a xlink:href="vega__ant_8c.html" target="_top" xlink:title=" ">
<polygon fill="white" stroke="#666666" points="1489.96,-74 1419.96,-74 1419.96,-55 1489.96,-55 1489.96,-74"/>
<text text-anchor="middle" x="1454.96" y="-62" font-family="Helvetica,sans-Serif" font-size="10.00">vega_ant.c</text>
</a>
</g>
</g>
<!-- Node8&#45;&gt;Node31 -->
<g id="edge38_Node000008_Node000031" class="edge">
<title>Node8&#45;&gt;Node31</title>
<g id="a_edge38_Node000008_Node000031"><a xlink:title=" ">
<path fill="none" stroke="#63b8ff" d="M1388.4,-104.7C1404.8,-95.04 1426.19,-82.44 1440.24,-74.17"/>
<polygon fill="#63b8ff" stroke="#63b8ff" points="1386.26,-101.89 1379.42,-109.98 1389.81,-107.93 1386.26,-101.89"/>
</a>
</g>
</g>
<!-- Node32 -->
<g id="Node000032" class="node">
<title>Node32</title>
<g id="a_Node000032"><a xlink:href="watchdog_8c.html" target="_top" xlink:title=" ">
<polygon fill="white" stroke="#666666" points="1579.96,-74 1507.96,-74 1507.96,-55 1579.96,-55 1579.96,-74"/>
<text text-anchor="middle" x="1543.96" y="-62" font-family="Helvetica,sans-Serif" font-size="10.00">watchdog.c</text>
</a>
</g>
</g>
<!-- Node8&#45;&gt;Node32 -->
<g id="edge39_Node000008_Node000032" class="edge">
<title>Node8&#45;&gt;Node32</title>
<g id="a_edge39_Node000008_Node000032"><a xlink:title=" ">
<path fill="none" stroke="#63b8ff" d="M1395.19,-109.55C1428.66,-99.64 1482.22,-83.78 1515.12,-74.04"/>
<polygon fill="#63b8ff" stroke="#63b8ff" points="1394.09,-106.23 1385.49,-112.42 1396.08,-112.94 1394.09,-106.23"/>
</a>
</g>
</g>
<!-- Node19&#45;&gt;Node7 -->
<g id="edge24_Node000019_Node000007" class="edge">
<title>Node19&#45;&gt;Node7</title>
<g id="a_edge24_Node000019_Node000007"><a xlink:title=" ">
<path fill="none" stroke="#63b8ff" d="M1625.66,-57.75C1613.54,-56.7 1600.84,-55.72 1588.96,-55 1048.03,-22.37 389.88,-12.99 212.07,-10.97"/>
<polygon fill="#63b8ff" stroke="#63b8ff" points="1625.4,-61.24 1635.67,-58.63 1626.02,-54.26 1625.4,-61.24"/>
</a>
</g>
</g>
<!-- Node19&#45;&gt;Node18 -->
<g id="edge25_Node000019_Node000018" class="edge">
<title>Node19&#45;&gt;Node18</title>
<g id="a_edge25_Node000019_Node000018"><a xlink:title=" ">
<path fill="none" stroke="#63b8ff" d="M1666.49,-48.32C1655.62,-38.87 1642.02,-27.06 1632.94,-19.17"/>
<polygon fill="#63b8ff" stroke="#63b8ff" points="1664.32,-51.07 1674.16,-54.98 1668.91,-45.78 1664.32,-51.07"/>
</a>
</g>
</g>
<!-- Node19&#45;&gt;Node20 -->
<g id="edge26_Node000019_Node000020" class="edge">
<title>Node19&#45;&gt;Node20</title>
<g id="a_edge26_Node000019_Node000020"><a xlink:title=" ">
<path fill="none" stroke="#63b8ff" d="M1701.43,-48.32C1712.3,-38.87 1725.9,-27.06 1734.98,-19.17"/>
<polygon fill="#63b8ff" stroke="#63b8ff" points="1699.01,-45.78 1693.76,-54.98 1703.61,-51.07 1699.01,-45.78"/>
</a>
</g>
</g>
</g>
</svg>

<g id="navigator" transform="translate(0 0)" fill="#404254">
  <rect fill="#f2f5e9" fill-opacity="0.5" stroke="#606060" stroke-width=".5" x="0" y="0" width="60" height="60"/>
  <use id="zoomplus" xlink:href="#zoomPlus" x="17" y="9" onmousedown="handleZoom(evt,'in')"/>
  <use id="zoomminus" xlink:href="#zoomMin" x="42" y="9" onmousedown="handleZoom(evt,'out')"/>
  <use id="reset" xlink:href="#resetDef" x="30" y="36" onmousedown="handleReset()"/>
   <use id="arrowup" xlink:href="#arrowUp" x="0" y="0" onmousedown="handlePan(0,-1)"/>
  <use id="arrowright" xlink:href="#arrowRight" x="0" y="0" onmousedown="handlePan(1,0)"/>
  <use id="arrowdown" xlink:href="#arrowDown" x="0" y="0" onmousedown="handlePan(0,1)"/>
  <use id="arrowleft" xlink:href="#arrowLeft" x="0" y="0" onmousedown="handlePan(-1,0)"/>
</g>
<svg viewBox="0 0 15 15" width="100%" height="30px" preserveAspectRatio="xMaxYMin meet">
 <g id="arrow_out" transform="scale(0.3 0.3)">
  <a xlink:href="telemetry_8h__dep__incl_org.svg" target="_base">
   <rect id="button" ry="5" rx="5" y="6" x="6" height="38" width="38"
        fill="#f2f5e9" fill-opacity="0.5" stroke="#606060" stroke-width="1.0"/>
   <path id="arrow"
     d="M 11.500037,31.436501 C 11.940474,20.09759 22.043105,11.32322 32.158766,21.979434 L 37.068811,17.246167 C 37.068811,17.246167 37.088388,32 37.088388,32 L 22.160133,31.978069 C 22.160133,31.978069 26.997745,27.140456 26.997745,27.140456 C 18.528582,18.264221 13.291696,25.230495 11.500037,31.436501 z"
     style="fill:#404040;"/>
  </a>
 </g>
</svg>

<style type='text/css'>
<![CDATA[
[data-mouse-over-selected='false'] { opacity: 0.7; }
[data-mouse-over-selected='true']  { opacity: 1.0; }
]]>
</style>
<script type="application/ecmascript"><![CDATA[
document.addEventListener('DOMContentLoaded', (event) => {
  highlightEdges();
  highlightAdjacentNodes();
});
]]></script>
</svg>
