<?xml version="1.0" encoding="UTF-8" standalone="no"?>
<!DOCTYPE svg PUBLIC "-//W3C//DTD SVG 1.1//EN"
 "http://www.w3.org/Graphics/SVG/1.1/DTD/svg11.dtd">
<!-- Generated by graphviz version 12.1.2 (20240928.0832)
 -->
<!-- Title: timing.c Pages: 1 -->
<svg width="131pt" height="140pt"
 viewBox="0.00 0.00 131.46 140.00" xmlns="http://www.w3.org/2000/svg" xmlns:xlink="http://www.w3.org/1999/xlink">
<g id="graph0" class="graph" transform="scale(1 1) rotate(0) translate(4 136)">
<title>timing.c</title>
<!-- Node1 -->
<g id="Node000001" class="node">
<title>Node1</title>
<g id="a_Node000001"><a xlink:title=" ">
<polygon fill="#999999" stroke="#666666" points="58.46,-132 7.96,-132 7.96,-112 58.46,-112 58.46,-132"/>
<text text-anchor="middle" x="33.21" y="-118.5" font-family="Helvetica,sans-Serif" font-size="10.00">timing.c</text>
</a>
</g>
</g>
<!-- Node2 -->
<g id="Node000002" class="node">
<title>Node2</title>
<g id="a_Node000002"><a xlink:title=" ">
<polygon fill="#e0e0e0" stroke="#999999" points="75.58,-20 4.83,-20 4.83,0 75.58,0 75.58,-20"/>
<text text-anchor="middle" x="40.21" y="-6.5" font-family="Helvetica,sans-Serif" font-size="10.00">FreeRTOS.h</text>
</a>
</g>
</g>
<!-- Node1&#45;&gt;Node2 -->
<g id="edge1_Node000001_Node000002" class="edge">
<title>Node1&#45;&gt;Node2</title>
<g id="a_edge1_Node000001_Node000002"><a xlink:title=" ">
<path fill="none" stroke="#63b8ff" d="M23.4,-111.55C11.74,-99.12 -5.27,-76.43 2.21,-56 5.99,-45.65 13.33,-36.03 20.56,-28.37"/>
<polygon fill="#63b8ff" stroke="#63b8ff" points="22.98,-30.9 27.68,-21.41 18.09,-25.89 22.98,-30.9"/>
</a>
</g>
</g>
<!-- Node3 -->
<g id="Node000003" class="node">
<title>Node3</title>
<g id="a_Node000003"><a xlink:title=" ">
<polygon fill="#e0e0e0" stroke="#999999" points="54.71,-76 11.71,-76 11.71,-56 54.71,-56 54.71,-76"/>
<text text-anchor="middle" x="33.21" y="-62.5" font-family="Helvetica,sans-Serif" font-size="10.00">task.h</text>
</a>
</g>
</g>
<!-- Node1&#45;&gt;Node3 -->
<g id="edge2_Node000001_Node000003" class="edge">
<title>Node1&#45;&gt;Node3</title>
<g id="a_edge2_Node000001_Node000003"><a xlink:title=" ">
<path fill="none" stroke="#63b8ff" d="M33.21,-111.59C33.21,-105.01 33.21,-95.96 33.21,-87.73"/>
<polygon fill="#63b8ff" stroke="#63b8ff" points="36.71,-87.81 33.21,-77.81 29.71,-87.81 36.71,-87.81"/>
</a>
</g>
</g>
<!-- Node4 -->
<g id="Node000004" class="node">
<title>Node4</title>
<g id="a_Node000004"><a xlink:href="timing_8h.html" target="_top" xlink:title=" ">
<polygon fill="white" stroke="#666666" points="123.46,-76 72.96,-76 72.96,-56 123.46,-56 123.46,-76"/>
<text text-anchor="middle" x="98.21" y="-62.5" font-family="Helvetica,sans-Serif" font-size="10.00">timing.h</text>
</a>
</g>
</g>
<!-- Node1&#45;&gt;Node4 -->
<g id="edge3_Node000001_Node000004" class="edge">
<title>Node1&#45;&gt;Node4</title>
<g id="a_edge3_Node000001_Node000004"><a xlink:title=" ">
<path fill="none" stroke="#63b8ff" d="M44.53,-111.59C53.85,-103.85 67.29,-92.69 78.38,-83.47"/>
<polygon fill="#63b8ff" stroke="#63b8ff" points="80.39,-86.35 85.85,-77.27 75.92,-80.96 80.39,-86.35"/>
</a>
</g>
</g>
<!-- Node4&#45;&gt;Node2 -->
<g id="edge4_Node000004_Node000002" class="edge">
<title>Node4&#45;&gt;Node2</title>
<g id="a_edge4_Node000004_Node000002"><a xlink:title=" ">
<path fill="none" stroke="#63b8ff" d="M88.1,-55.59C79.95,-48.01 68.28,-37.13 58.49,-28.02"/>
<polygon fill="#63b8ff" stroke="#63b8ff" points="61,-25.58 51.3,-21.33 56.24,-30.71 61,-25.58"/>
</a>
</g>
</g>
</g>
</svg>
