<?xml version="1.0" encoding="UTF-8" standalone="no"?>
<!DOCTYPE svg PUBLIC "-//W3C//DTD SVG 1.1//EN"
 "http://www.w3.org/Graphics/SVG/1.1/DTD/svg11.dtd">
<!-- Generated by graphviz version 2.43.0 (0)
 -->
<!-- Title: timing.c Pages: 1 -->
<svg width="796pt" height="302pt"
 viewBox="0.00 0.00 795.50 302.00" xmlns="http://www.w3.org/2000/svg" xmlns:xlink="http://www.w3.org/1999/xlink">
<g id="graph0" class="graph" transform="scale(1 1) rotate(0) translate(4 298)">
<title>timing.c</title>
<!-- Node1 -->
<g id="Node000001" class="node">
<title>Node1</title>
<g id="a_Node000001"><a xlink:title=" ">
<polygon fill="#999999" stroke="#666666" points="437.5,-294 381.5,-294 381.5,-275 437.5,-275 437.5,-294"/>
<text text-anchor="middle" x="409.5" y="-282" font-family="Helvetica,sans-Serif" font-size="10.00">timing.c</text>
</a>
</g>
</g>
<!-- Node2 -->
<g id="Node000002" class="node">
<title>Node2</title>
<g id="a_Node000002"><a xlink:title=" ">
<polygon fill="#e0e0e0" stroke="#999999" points="314,-19 241,-19 241,0 314,0 314,-19"/>
<text text-anchor="middle" x="277.5" y="-7" font-family="Helvetica,sans-Serif" font-size="10.00">FreeRTOS.h</text>
</a>
</g>
</g>
<!-- Node1&#45;&gt;Node2 -->
<g id="edge1_Node000001_Node000002" class="edge">
<title>Node1&#45;&gt;Node2</title>
<g id="a_edge1_Node000001_Node000002"><a xlink:title=" ">
<path fill="none" stroke="#63b8ff" d="M382.15,-274.92C343.49,-260.89 277.5,-229.09 277.5,-175.5 277.5,-175.5 277.5,-175.5 277.5,-118.5 277.5,-87.19 277.5,-50.77 277.5,-29.23"/>
<polygon fill="#63b8ff" stroke="#63b8ff" points="281,-29.18 277.5,-19.18 274,-29.18 281,-29.18"/>
</a>
</g>
</g>
<!-- Node3 -->
<g id="Node000003" class="node">
<title>Node3</title>
<g id="a_Node000003"><a xlink:title=" ">
<polygon fill="#e0e0e0" stroke="#999999" points="379,-19 332,-19 332,0 379,0 379,-19"/>
<text text-anchor="middle" x="355.5" y="-7" font-family="Helvetica,sans-Serif" font-size="10.00">task.h</text>
</a>
</g>
</g>
<!-- Node1&#45;&gt;Node3 -->
<g id="edge2_Node000001_Node000003" class="edge">
<title>Node1&#45;&gt;Node3</title>
<g id="a_edge2_Node000001_Node000003"><a xlink:title=" ">
<path fill="none" stroke="#63b8ff" d="M401.24,-274.77C385.66,-257.37 353.5,-216.47 353.5,-175.5 353.5,-175.5 353.5,-175.5 353.5,-118.5 353.5,-87.18 354.35,-50.77 354.94,-29.23"/>
<polygon fill="#63b8ff" stroke="#63b8ff" points="358.44,-29.27 355.23,-19.18 351.45,-29.07 358.44,-29.27"/>
</a>
</g>
</g>
<!-- Node4 -->
<g id="Node000004" class="node">
<title>Node4</title>
<g id="a_Node000004"><a xlink:href="timing_8h.html" target="_top" xlink:title=" ">
<polygon fill="white" stroke="#666666" points="220,-74 163,-74 163,-55 220,-55 220,-74"/>
<text text-anchor="middle" x="191.5" y="-62" font-family="Helvetica,sans-Serif" font-size="10.00">timing.h</text>
</a>
</g>
</g>
<!-- Node1&#45;&gt;Node4 -->
<g id="edge3_Node000001_Node000004" class="edge">
<title>Node1&#45;&gt;Node4</title>
<g id="a_edge3_Node000001_Node000004"><a xlink:title=" ">
<path fill="none" stroke="#63b8ff" d="M381.29,-281.94C349.05,-278.73 296.48,-268.91 263.5,-239 216.85,-196.69 199.61,-119.49 193.96,-84.11"/>
<polygon fill="#63b8ff" stroke="#63b8ff" points="197.41,-83.58 192.5,-74.19 190.49,-84.59 197.41,-83.58"/>
</a>
</g>
</g>
<!-- Node5 -->
<g id="Node000005" class="node">
<title>Node5</title>
<g id="a_Node000005"><a xlink:title=" ">
<polygon fill="#e0e0e0" stroke="#999999" points="53,-19 0,-19 0,0 53,0 53,-19"/>
<text text-anchor="middle" x="26.5" y="-7" font-family="Helvetica,sans-Serif" font-size="10.00">stdint.h</text>
</a>
</g>
</g>
<!-- Node1&#45;&gt;Node5 -->
<g id="edge26_Node000001_Node000005" class="edge">
<title>Node1&#45;&gt;Node5</title>
<g id="a_edge26_Node000001_Node000005"><a xlink:title=" ">
<path fill="none" stroke="#63b8ff" d="M381.45,-280.41C301.89,-270.86 80.5,-238.62 80.5,-175.5 80.5,-175.5 80.5,-175.5 80.5,-118.5 80.5,-82.89 56.73,-46.99 40.73,-26.86"/>
<polygon fill="#63b8ff" stroke="#63b8ff" points="43.31,-24.49 34.24,-19.01 37.91,-28.95 43.31,-24.49"/>
</a>
</g>
</g>
<!-- Node8 -->
<g id="Node000008" class="node">
<title>Node8</title>
<g id="a_Node000008"><a xlink:href="log_8h.html" target="_top" xlink:title=" ">
<polygon fill="white" stroke="#666666" points="486,-239 445,-239 445,-220 486,-220 486,-239"/>
<text text-anchor="middle" x="465.5" y="-227" font-family="Helvetica,sans-Serif" font-size="10.00">log.h</text>
</a>
</g>
</g>
<!-- Node1&#45;&gt;Node8 -->
<g id="edge8_Node000001_Node000008" class="edge">
<title>Node1&#45;&gt;Node8</title>
<g id="a_edge8_Node000001_Node000008"><a xlink:title=" ">
<path fill="none" stroke="#63b8ff" d="M418.5,-274.98C426.69,-267.23 439.01,-255.58 448.97,-246.14"/>
<polygon fill="#63b8ff" stroke="#63b8ff" points="451.48,-248.59 456.34,-239.17 446.67,-243.5 451.48,-248.59"/>
</a>
</g>
</g>
<!-- Node16 -->
<g id="Node000016" class="node">
<title>Node16</title>
<g id="a_Node000016"><a xlink:title=" ">
<polygon fill="#e0e0e0" stroke="#999999" points="787.5,-19 725.5,-19 725.5,0 787.5,0 787.5,-19"/>
<text text-anchor="middle" x="756.5" y="-7" font-family="Helvetica,sans-Serif" font-size="10.00">stdbool.h</text>
</a>
</g>
</g>
<!-- Node1&#45;&gt;Node16 -->
<g id="edge27_Node000001_Node000016" class="edge">
<title>Node1&#45;&gt;Node16</title>
<g id="a_edge27_Node000001_Node000016"><a xlink:title=" ">
<path fill="none" stroke="#63b8ff" d="M437.7,-282.92C499.12,-280.02 639.5,-263.73 639.5,-175.5 639.5,-175.5 639.5,-175.5 639.5,-118.5 639.5,-71.75 690.55,-39.64 725.21,-23.23"/>
<polygon fill="#63b8ff" stroke="#63b8ff" points="726.83,-26.33 734.49,-19.01 723.94,-19.96 726.83,-26.33"/>
</a>
</g>
</g>
<!-- Node17 -->
<g id="Node000017" class="node">
<title>Node17</title>
<g id="a_Node000017"><a xlink:href="stdio_8h.html" target="_top" xlink:title=" ">
<polygon fill="white" stroke="#666666" points="717.5,-239 667.5,-239 667.5,-220 717.5,-220 717.5,-239"/>
<text text-anchor="middle" x="692.5" y="-227" font-family="Helvetica,sans-Serif" font-size="10.00">stdio.h</text>
</a>
</g>
</g>
<!-- Node1&#45;&gt;Node17 -->
<g id="edge28_Node000001_Node000017" class="edge">
<title>Node1&#45;&gt;Node17</title>
<g id="a_edge28_Node000001_Node000017"><a xlink:title=" ">
<path fill="none" stroke="#63b8ff" d="M437.74,-278.67C483.25,-270.82 575.6,-254.59 653.5,-239 654.76,-238.75 656.04,-238.49 657.34,-238.22"/>
<polygon fill="#63b8ff" stroke="#63b8ff" points="658.29,-241.6 667.35,-236.11 656.84,-234.75 658.29,-241.6"/>
</a>
</g>
</g>
<!-- Node18 -->
<g id="Node000018" class="node">
<title>Node18</title>
<g id="a_Node000018"><a xlink:title=" ">
<polygon fill="#e0e0e0" stroke="#999999" points="783.5,-239 735.5,-239 735.5,-220 783.5,-220 783.5,-239"/>
<text text-anchor="middle" x="759.5" y="-227" font-family="Helvetica,sans-Serif" font-size="10.00">time.h</text>
</a>
</g>
</g>
<!-- Node1&#45;&gt;Node18 -->
<g id="edge29_Node000001_Node000018" class="edge">
<title>Node1&#45;&gt;Node18</title>
<g id="a_edge29_Node000001_Node000018"><a xlink:title=" ">
<path fill="none" stroke="#63b8ff" d="M437.67,-280.62C491.6,-274.89 613.34,-260.83 725.31,-239.03"/>
<polygon fill="#63b8ff" stroke="#63b8ff" points="726.29,-242.41 735.42,-237.04 724.93,-235.54 726.29,-242.41"/>
</a>
</g>
</g>
<!-- Node4&#45;&gt;Node2 -->
<g id="edge4_Node000004_Node000002" class="edge">
<title>Node4&#45;&gt;Node2</title>
<g id="a_edge4_Node000004_Node000002"><a xlink:title=" ">
<path fill="none" stroke="#63b8ff" d="M205.32,-54.98C218.65,-46.77 239.08,-34.18 254.81,-24.49"/>
<polygon fill="#63b8ff" stroke="#63b8ff" points="256.75,-27.4 263.43,-19.17 253.08,-21.44 256.75,-27.4"/>
</a>
</g>
</g>
<!-- Node4&#45;&gt;Node5 -->
<g id="edge5_Node000004_Node000005" class="edge">
<title>Node4&#45;&gt;Node5</title>
<g id="a_edge5_Node000004_Node000005"><a xlink:title=" ">
<path fill="none" stroke="#63b8ff" d="M164.99,-54.98C137.29,-46.09 93.64,-32.07 62.76,-22.15"/>
<polygon fill="#63b8ff" stroke="#63b8ff" points="63.81,-18.81 53.22,-19.08 61.67,-25.47 63.81,-18.81"/>
</a>
</g>
</g>
<!-- Node6 -->
<g id="Node000006" class="node">
<title>Node6</title>
<g id="a_Node000006"><a xlink:title=" ">
<polygon fill="#e0e0e0" stroke="#999999" points="222.5,-19 160.5,-19 160.5,0 222.5,0 222.5,-19"/>
<text text-anchor="middle" x="191.5" y="-7" font-family="Helvetica,sans-Serif" font-size="10.00">semphr.h</text>
</a>
</g>
</g>
<!-- Node4&#45;&gt;Node6 -->
<g id="edge6_Node000004_Node000006" class="edge">
<title>Node4&#45;&gt;Node6</title>
<g id="a_edge6_Node000004_Node000006"><a xlink:title=" ">
<path fill="none" stroke="#63b8ff" d="M191.5,-54.75C191.5,-47.8 191.5,-37.85 191.5,-29.13"/>
<polygon fill="#63b8ff" stroke="#63b8ff" points="195,-29.09 191.5,-19.09 188,-29.09 195,-29.09"/>
</a>
</g>
</g>
<!-- Node7 -->
<g id="Node000007" class="node">
<title>Node7</title>
<g id="a_Node000007"><a xlink:title=" ">
<polygon fill="#e0e0e0" stroke="#999999" points="142,-19 71,-19 71,0 142,0 142,-19"/>
<text text-anchor="middle" x="106.5" y="-7" font-family="Helvetica,sans-Serif" font-size="10.00">pico/time.h</text>
</a>
</g>
</g>
<!-- Node4&#45;&gt;Node7 -->
<g id="edge7_Node000004_Node000007" class="edge">
<title>Node4&#45;&gt;Node7</title>
<g id="a_edge7_Node000004_Node000007"><a xlink:title=" ">
<path fill="none" stroke="#63b8ff" d="M177.84,-54.98C164.66,-46.77 144.47,-34.18 128.93,-24.49"/>
<polygon fill="#63b8ff" stroke="#63b8ff" points="130.74,-21.49 120.41,-19.17 127.04,-27.43 130.74,-21.49"/>
</a>
</g>
</g>
<!-- Node9 -->
<g id="Node000009" class="node">
<title>Node9</title>
<g id="a_Node000009"><a xlink:href="telemetry_8h.html" target="_top" xlink:title="Functions for packaging and queuing telemetry packets for sending.">
<polygon fill="white" stroke="#666666" points="501.5,-184 429.5,-184 429.5,-165 501.5,-165 501.5,-184"/>
<text text-anchor="middle" x="465.5" y="-172" font-family="Helvetica,sans-Serif" font-size="10.00">telemetry.h</text>
</a>
</g>
</g>
<!-- Node8&#45;&gt;Node9 -->
<g id="edge9_Node000008_Node000009" class="edge">
<title>Node8&#45;&gt;Node9</title>
<g id="a_edge9_Node000008_Node000009"><a xlink:title=" ">
<path fill="none" stroke="#63b8ff" d="M465.5,-219.75C465.5,-212.8 465.5,-202.85 465.5,-194.13"/>
<polygon fill="#63b8ff" stroke="#63b8ff" points="469,-194.09 465.5,-184.09 462,-194.09 469,-194.09"/>
</a>
</g>
</g>
<!-- Node8&#45;&gt;Node16 -->
<g id="edge25_Node000008_Node000016" class="edge">
<title>Node8&#45;&gt;Node16</title>
<g id="a_edge25_Node000008_Node000016"><a xlink:title=" ">
<path fill="none" stroke="#63b8ff" d="M474.63,-219.8C483.84,-210.94 498.39,-196.75 510.5,-184 563.39,-128.3 561.47,-97.42 625.5,-55 640.56,-45.02 683.16,-31.4 715.73,-21.87"/>
<polygon fill="#63b8ff" stroke="#63b8ff" points="716.84,-25.19 725.47,-19.05 714.89,-18.47 716.84,-25.19"/>
</a>
</g>
</g>
<!-- Node9&#45;&gt;Node2 -->
<g id="edge10_Node000009_Node000002" class="edge">
<title>Node9&#45;&gt;Node2</title>
<g id="a_edge10_Node000009_Node000002"><a xlink:title=" ">
<path fill="none" stroke="#63b8ff" d="M454.65,-164.74C443.68,-155.85 426.28,-141.62 411.5,-129 369.06,-92.77 320.18,-49.02 294.81,-26.15"/>
<polygon fill="#63b8ff" stroke="#63b8ff" points="296.92,-23.34 287.15,-19.24 292.23,-28.54 296.92,-23.34"/>
</a>
</g>
</g>
<!-- Node10 -->
<g id="Node000010" class="node">
<title>Node10</title>
<g id="a_Node000010"><a xlink:title=" ">
<polygon fill="#e0e0e0" stroke="#999999" points="707.5,-19 651.5,-19 651.5,0 707.5,0 707.5,-19"/>
<text text-anchor="middle" x="679.5" y="-7" font-family="Helvetica,sans-Serif" font-size="10.00">queue.h</text>
</a>
</g>
</g>
<!-- Node9&#45;&gt;Node10 -->
<g id="edge11_Node000009_Node000010" class="edge">
<title>Node9&#45;&gt;Node10</title>
<g id="a_edge11_Node000009_Node000010"><a xlink:title=" ">
<path fill="none" stroke="#63b8ff" d="M477.31,-164.79C488.76,-156.16 506.4,-142.34 520.5,-129 552.73,-98.51 551.99,-81.59 587.5,-55 605.44,-41.57 628.07,-30.56 646.4,-22.85"/>
<polygon fill="#63b8ff" stroke="#63b8ff" points="647.87,-26.03 655.81,-19.02 645.23,-19.55 647.87,-26.03"/>
</a>
</g>
</g>
<!-- Node11 -->
<g id="Node000011" class="node">
<title>Node11</title>
<g id="a_Node000011"><a xlink:href="file__downlink_8h.html" target="_top" xlink:title=" ">
<polygon fill="white" stroke="#666666" points="511,-129 420,-129 420,-110 511,-110 511,-129"/>
<text text-anchor="middle" x="465.5" y="-117" font-family="Helvetica,sans-Serif" font-size="10.00">file_downlink.h</text>
</a>
</g>
</g>
<!-- Node9&#45;&gt;Node11 -->
<g id="edge12_Node000009_Node000011" class="edge">
<title>Node9&#45;&gt;Node11</title>
<g id="a_edge12_Node000009_Node000011"><a xlink:title=" ">
<path fill="none" stroke="#63b8ff" d="M465.5,-164.75C465.5,-157.8 465.5,-147.85 465.5,-139.13"/>
<polygon fill="#63b8ff" stroke="#63b8ff" points="469,-139.09 465.5,-129.09 462,-139.09 469,-139.09"/>
</a>
</g>
</g>
<!-- Node11&#45;&gt;Node2 -->
<g id="edge13_Node000011_Node000002" class="edge">
<title>Node11&#45;&gt;Node2</title>
<g id="a_edge13_Node000011_Node000002"><a xlink:title=" ">
<path fill="none" stroke="#63b8ff" d="M450.43,-109.84C417.9,-91.16 340.86,-46.9 301.52,-24.3"/>
<polygon fill="#63b8ff" stroke="#63b8ff" points="302.79,-20.99 292.38,-19.05 299.31,-27.06 302.79,-20.99"/>
</a>
</g>
</g>
<!-- Node11&#45;&gt;Node10 -->
<g id="edge14_Node000011_Node000010" class="edge">
<title>Node11&#45;&gt;Node10</title>
<g id="a_edge14_Node000011_Node000010"><a xlink:title=" ">
<path fill="none" stroke="#63b8ff" d="M475.13,-109.56C490.06,-96.12 520.12,-70.62 549.5,-55 578.92,-39.36 614.93,-27.54 641.58,-20.03"/>
<polygon fill="#63b8ff" stroke="#63b8ff" points="642.59,-23.38 651.31,-17.36 640.74,-16.63 642.59,-23.38"/>
</a>
</g>
</g>
<!-- Node12 -->
<g id="Node000012" class="node">
<title>Node12</title>
<g id="a_Node000012"><a xlink:href="filesystem_8h.html" target="_top" xlink:title="Handles file system operations and management.">
<polygon fill="white" stroke="#666666" points="497,-74 420,-74 420,-55 497,-55 497,-74"/>
<text text-anchor="middle" x="458.5" y="-62" font-family="Helvetica,sans-Serif" font-size="10.00">filesystem.h</text>
</a>
</g>
</g>
<!-- Node11&#45;&gt;Node12 -->
<g id="edge15_Node000011_Node000012" class="edge">
<title>Node11&#45;&gt;Node12</title>
<g id="a_edge15_Node000011_Node000012"><a xlink:title=" ">
<path fill="none" stroke="#63b8ff" d="M464.34,-109.75C463.43,-102.8 462.11,-92.85 460.96,-84.13"/>
<polygon fill="#63b8ff" stroke="#63b8ff" points="464.41,-83.54 459.63,-74.09 457.47,-84.46 464.41,-83.54"/>
</a>
</g>
</g>
<!-- Node12&#45;&gt;Node2 -->
<g id="edge16_Node000012_Node000002" class="edge">
<title>Node12&#45;&gt;Node2</title>
<g id="a_edge16_Node000012_Node000002"><a xlink:title=" ">
<path fill="none" stroke="#63b8ff" d="M429.42,-54.98C398.9,-46.05 350.74,-31.94 316.84,-22.02"/>
<polygon fill="#63b8ff" stroke="#63b8ff" points="317.39,-18.53 306.81,-19.08 315.42,-25.25 317.39,-18.53"/>
</a>
</g>
</g>
<!-- Node12&#45;&gt;Node3 -->
<g id="edge18_Node000012_Node000003" class="edge">
<title>Node12&#45;&gt;Node3</title>
<g id="a_edge18_Node000012_Node000003"><a xlink:title=" ">
<path fill="none" stroke="#63b8ff" d="M441.95,-54.98C425.61,-46.57 400.37,-33.59 381.37,-23.81"/>
<polygon fill="#63b8ff" stroke="#63b8ff" points="382.84,-20.63 372.35,-19.17 379.64,-26.86 382.84,-20.63"/>
</a>
</g>
</g>
<!-- Node12&#45;&gt;Node5 -->
<g id="edge23_Node000012_Node000005" class="edge">
<title>Node12&#45;&gt;Node5</title>
<g id="a_edge23_Node000012_Node000005"><a xlink:title=" ">
<path fill="none" stroke="#63b8ff" d="M419.94,-60.81C350.47,-55.61 199.55,-42.71 63.37,-19.14"/>
<polygon fill="#63b8ff" stroke="#63b8ff" points="63.63,-15.63 53.18,-17.35 62.42,-22.52 63.63,-15.63"/>
</a>
</g>
</g>
<!-- Node12&#45;&gt;Node6 -->
<g id="edge21_Node000012_Node000006" class="edge">
<title>Node12&#45;&gt;Node6</title>
<g id="a_edge21_Node000012_Node000006"><a xlink:title=" ">
<path fill="none" stroke="#63b8ff" d="M419.69,-55.98C376.67,-47.62 304.96,-33.6 232.99,-19.08"/>
<polygon fill="#63b8ff" stroke="#63b8ff" points="233.33,-15.58 222.83,-17.03 231.94,-22.44 233.33,-15.58"/>
</a>
</g>
</g>
<!-- Node12&#45;&gt;Node10 -->
<g id="edge17_Node000012_Node000010" class="edge">
<title>Node12&#45;&gt;Node10</title>
<g id="a_edge17_Node000012_Node000010"><a xlink:title=" ">
<path fill="none" stroke="#63b8ff" d="M494.01,-54.98C534.39,-45.3 600.07,-29.55 641.47,-19.62"/>
<polygon fill="#63b8ff" stroke="#63b8ff" points="642.53,-22.96 651.44,-17.23 640.9,-16.16 642.53,-22.96"/>
</a>
</g>
</g>
<!-- Node13 -->
<g id="Node000013" class="node">
<title>Node13</title>
<g id="a_Node000013"><a xlink:title=" ">
<polygon fill="#e0e0e0" stroke="#999999" points="429.5,-19 397.5,-19 397.5,0 429.5,0 429.5,-19"/>
<text text-anchor="middle" x="413.5" y="-7" font-family="Helvetica,sans-Serif" font-size="10.00">ff.h</text>
</a>
</g>
</g>
<!-- Node12&#45;&gt;Node13 -->
<g id="edge19_Node000012_Node000013" class="edge">
<title>Node12&#45;&gt;Node13</title>
<g id="a_edge19_Node000012_Node000013"><a xlink:title=" ">
<path fill="none" stroke="#63b8ff" d="M451.07,-54.75C444.65,-47.18 435.19,-36.05 427.38,-26.84"/>
<polygon fill="#63b8ff" stroke="#63b8ff" points="429.93,-24.45 420.79,-19.09 424.6,-28.98 429.93,-24.45"/>
</a>
</g>
</g>
<!-- Node14 -->
<g id="Node000014" class="node">
<title>Node14</title>
<g id="a_Node000014"><a xlink:href="filesystem__errors_8h.html" target="_top" xlink:title=" ">
<polygon fill="white" stroke="#666666" points="559,-19 448,-19 448,0 559,0 559,-19"/>
<text text-anchor="middle" x="503.5" y="-7" font-family="Helvetica,sans-Serif" font-size="10.00">filesystem_errors.h</text>
</a>
</g>
</g>
<!-- Node12&#45;&gt;Node14 -->
<g id="edge20_Node000012_Node000014" class="edge">
<title>Node12&#45;&gt;Node14</title>
<g id="a_edge20_Node000012_Node000014"><a xlink:title=" ">
<path fill="none" stroke="#63b8ff" d="M465.93,-54.75C472.35,-47.18 481.81,-36.05 489.62,-26.84"/>
<polygon fill="#63b8ff" stroke="#63b8ff" points="492.4,-28.98 496.21,-19.09 487.07,-24.45 492.4,-28.98"/>
</a>
</g>
</g>
<!-- Node15 -->
<g id="Node000015" class="node">
<title>Node15</title>
<g id="a_Node000015"><a xlink:title=" ">
<polygon fill="#e0e0e0" stroke="#999999" points="633.5,-19 577.5,-19 577.5,0 633.5,0 633.5,-19"/>
<text text-anchor="middle" x="605.5" y="-7" font-family="Helvetica,sans-Serif" font-size="10.00">stddef.h</text>
</a>
</g>
</g>
<!-- Node12&#45;&gt;Node15 -->
<g id="edge22_Node000012_Node000015" class="edge">
<title>Node12&#45;&gt;Node15</title>
<g id="a_edge22_Node000012_Node000015"><a xlink:title=" ">
<path fill="none" stroke="#63b8ff" d="M482.12,-54.98C506.4,-46.23 544.45,-32.51 571.87,-22.62"/>
<polygon fill="#63b8ff" stroke="#63b8ff" points="573.23,-25.85 581.45,-19.17 570.86,-19.27 573.23,-25.85"/>
</a>
</g>
</g>
<!-- Node12&#45;&gt;Node16 -->
<g id="edge24_Node000012_Node000016" class="edge">
<title>Node12&#45;&gt;Node16</title>
<g id="a_edge24_Node000012_Node000016"><a xlink:title=" ">
<path fill="none" stroke="#63b8ff" d="M497.05,-57.33C545.63,-49.44 631.94,-35.09 715.21,-19.19"/>
<polygon fill="#63b8ff" stroke="#63b8ff" points="715.92,-22.62 725.08,-17.3 714.6,-15.74 715.92,-22.62"/>
</a>
</g>
</g>
</g>
</svg>
