<?xml version="1.0" encoding="UTF-8" standalone="no"?>
<!DOCTYPE svg PUBLIC "-//W3C//DTD SVG 1.1//EN"
 "http://www.w3.org/Graphics/SVG/1.1/DTD/svg11.dtd">
<!-- Generated by graphviz version 2.43.0 (0)
 -->
<!-- Title: user_auth_test Pages: 1 -->
<svg width="1007pt" height="618pt"
 viewBox="0.00 0.00 1007.00 617.77" xmlns="http://www.w3.org/2000/svg" xmlns:xlink="http://www.w3.org/1999/xlink">
<g id="graph0" class="graph" transform="scale(1 1) rotate(0) translate(4 613.77)">
<title>user_auth_test</title>
<!-- Node1 -->
<g id="Node000001" class="node">
<title>Node1</title>
<g id="a_Node000001"><a xlink:title=" ">
<polygon fill="#999999" stroke="#666666" points="89,-287.77 0,-287.77 0,-268.77 89,-268.77 89,-287.77"/>
<text text-anchor="middle" x="44.5" y="-275.77" font-family="Helvetica,sans-Serif" font-size="10.00">user_auth_test</text>
</a>
</g>
</g>
<!-- Node2 -->
<g id="Node000002" class="node">
<title>Node2</title>
<g id="a_Node000002"><a xlink:href="user__auth_8c.html#a2e45341289a64a026113badabc8369cc" target="_top" xlink:title=" ">
<polygon fill="white" stroke="#666666" points="207,-495.77 146,-495.77 146,-476.77 207,-476.77 207,-495.77"/>
<text text-anchor="middle" x="176.5" y="-483.77" font-family="Helvetica,sans-Serif" font-size="10.00">add_user</text>
</a>
</g>
</g>
<!-- Node1&#45;&gt;Node2 -->
<g id="edge1_Node000001_Node000002" class="edge">
<title>Node1&#45;&gt;Node2</title>
<g id="a_edge1_Node000001_Node000002"><a xlink:title=" ">
<path fill="none" stroke="#63b8ff" d="M51.46,-287.92C64.66,-309.27 97.37,-362.15 125,-406.27 138.33,-427.56 153.77,-451.98 164.03,-468.17"/>
<polygon fill="#63b8ff" stroke="#63b8ff" points="161.1,-470.1 169.41,-476.68 167.02,-466.36 161.1,-470.1"/>
</a>
</g>
</g>
<!-- Node7 -->
<g id="Node000007" class="node">
<title>Node7</title>
<g id="a_Node000007"><a xlink:href="user__auth_8c.html#ab7d59518267fd7616ff486aa9054d753" target="_top" xlink:title=" ">
<polygon fill="white" stroke="#666666" points="372.5,-419.77 268.5,-419.77 268.5,-400.77 372.5,-400.77 372.5,-419.77"/>
<text text-anchor="middle" x="320.5" y="-407.77" font-family="Helvetica,sans-Serif" font-size="10.00">get_user_dir_path</text>
</a>
</g>
</g>
<!-- Node1&#45;&gt;Node7 -->
<g id="edge26_Node000001_Node000007" class="edge">
<title>Node1&#45;&gt;Node7</title>
<g id="a_edge26_Node000001_Node000007"><a xlink:title=" ">
<path fill="none" stroke="#63b8ff" d="M52.97,-287.98C65.89,-304.13 94.04,-336.48 125,-354.27 166.29,-378 218.36,-392.3 258.24,-400.5"/>
<polygon fill="#63b8ff" stroke="#63b8ff" points="257.61,-403.94 268.1,-402.46 258.97,-397.08 257.61,-403.94"/>
</a>
</g>
</g>
<!-- Node11 -->
<g id="Node000011" class="node">
<title>Node11</title>
<g id="a_Node000011"><a xlink:href="filesystem_8c.html#aedf13aa9daded9085cdb13bc1560947b" target="_top" xlink:title=" ">
<polygon fill="white" stroke="#666666" points="192.5,-268.77 160.5,-268.77 160.5,-249.77 192.5,-249.77 192.5,-268.77"/>
<text text-anchor="middle" x="176.5" y="-256.77" font-family="Helvetica,sans-Serif" font-size="10.00">cat</text>
</a>
</g>
</g>
<!-- Node1&#45;&gt;Node11 -->
<g id="edge11_Node000001_Node000011" class="edge">
<title>Node1&#45;&gt;Node11</title>
<g id="a_edge11_Node000001_Node000011"><a xlink:title=" ">
<path fill="none" stroke="#63b8ff" d="M89.15,-271.89C109.55,-268.91 133.11,-265.46 150.46,-262.93"/>
<polygon fill="#63b8ff" stroke="#63b8ff" points="150.99,-266.39 160.38,-261.48 149.98,-259.46 150.99,-266.39"/>
</a>
</g>
</g>
<!-- Node16 -->
<g id="Node000016" class="node">
<title>Node16</title>
<g id="a_Node000016"><a xlink:href="user__auth_8c.html#a7b721ad996f2f06a51dc10384adec934" target="_top" xlink:title=" ">
<polygon fill="white" stroke="#666666" points="213.5,-344.77 139.5,-344.77 139.5,-325.77 213.5,-325.77 213.5,-344.77"/>
<text text-anchor="middle" x="176.5" y="-332.77" font-family="Helvetica,sans-Serif" font-size="10.00">delete_user</text>
</a>
</g>
</g>
<!-- Node1&#45;&gt;Node16 -->
<g id="edge18_Node000001_Node000016" class="edge">
<title>Node1&#45;&gt;Node16</title>
<g id="a_edge18_Node000001_Node000016"><a xlink:title=" ">
<path fill="none" stroke="#63b8ff" d="M67.26,-287.81C88.35,-297.06 120.56,-311.18 144.36,-321.62"/>
<polygon fill="#63b8ff" stroke="#63b8ff" points="143.11,-324.89 153.67,-325.7 145.92,-318.48 143.11,-324.89"/>
</a>
</g>
</g>
<!-- Node18 -->
<g id="Node000018" class="node">
<title>Node18</title>
<g id="a_Node000018"><a xlink:href="user__auth_8c.html#a1cefb8275e8b8485dc7c3fdc3baa5377" target="_top" xlink:title=" ">
<polygon fill="white" stroke="#666666" points="377,-193.77 264,-193.77 264,-174.77 377,-174.77 377,-193.77"/>
<text text-anchor="middle" x="320.5" y="-181.77" font-family="Helvetica,sans-Serif" font-size="10.00">get_user_data_path</text>
</a>
</g>
</g>
<!-- Node1&#45;&gt;Node18 -->
<g id="edge25_Node000001_Node000018" class="edge">
<title>Node1&#45;&gt;Node18</title>
<g id="a_edge25_Node000001_Node000018"><a xlink:title=" ">
<path fill="none" stroke="#63b8ff" d="M64.11,-268.63C80.01,-260.64 103.63,-249.32 125,-241.27 173.72,-222.91 231.1,-206.73 270.85,-196.35"/>
<polygon fill="#63b8ff" stroke="#63b8ff" points="271.75,-199.73 280.56,-193.83 270,-192.95 271.75,-199.73"/>
</a>
</g>
</g>
<!-- Node19 -->
<g id="Node000019" class="node">
<title>Node19</title>
<g id="a_Node000019"><a xlink:href="filesystem_8c.html#a550849e6b02b5ca20d32bdacb2ddd19b" target="_top" xlink:title=" ">
<polygon fill="white" stroke="#666666" points="345.5,-306.77 295.5,-306.77 295.5,-287.77 345.5,-287.77 345.5,-306.77"/>
<text text-anchor="middle" x="320.5" y="-294.77" font-family="Helvetica,sans-Serif" font-size="10.00">list_dir</text>
</a>
</g>
</g>
<!-- Node1&#45;&gt;Node19 -->
<g id="edge27_Node000001_Node000019" class="edge">
<title>Node1&#45;&gt;Node19</title>
<g id="a_edge27_Node000001_Node000019"><a xlink:title=" ">
<path fill="none" stroke="#63b8ff" d="M89.22,-281.3C143.69,-285.08 235.64,-291.45 285.27,-294.89"/>
<polygon fill="#63b8ff" stroke="#63b8ff" points="285.26,-298.4 295.48,-295.6 285.75,-291.42 285.26,-298.4"/>
</a>
</g>
</g>
<!-- Node20 -->
<g id="Node000020" class="node">
<title>Node20</title>
<g id="a_Node000020"><a xlink:href="filesystem_8c.html#a799eadaaf9ccd6162d5fa3fd15a0c3a1" target="_top" xlink:title=" ">
<polygon fill="white" stroke="#666666" points="226.5,-192.77 126.5,-192.77 126.5,-173.77 226.5,-173.77 226.5,-192.77"/>
<text text-anchor="middle" x="176.5" y="-180.77" font-family="Helvetica,sans-Serif" font-size="10.00">make_filesystem</text>
</a>
</g>
</g>
<!-- Node1&#45;&gt;Node20 -->
<g id="edge28_Node000001_Node000020" class="edge">
<title>Node1&#45;&gt;Node20</title>
<g id="a_edge28_Node000001_Node000020"><a xlink:title=" ">
<path fill="none" stroke="#63b8ff" d="M54.56,-268.57C68.6,-253.93 96.95,-225.9 125,-207.27 130.47,-203.64 136.57,-200.25 142.58,-197.23"/>
<polygon fill="#63b8ff" stroke="#63b8ff" points="144.35,-200.27 151.87,-192.81 141.34,-193.95 144.35,-200.27"/>
</a>
</g>
</g>
<!-- Node21 -->
<g id="Node000021" class="node">
<title>Node21</title>
<g id="a_Node000021"><a xlink:href="user__auth_8c.html#acb5e4e390f704ceea798b215f70692d6" target="_top" xlink:title=" ">
<polygon fill="white" stroke="#666666" points="228,-117.77 125,-117.77 125,-98.77 228,-98.77 228,-117.77"/>
<text text-anchor="middle" x="176.5" y="-105.77" font-family="Helvetica,sans-Serif" font-size="10.00">upload_user_data</text>
</a>
</g>
</g>
<!-- Node1&#45;&gt;Node21 -->
<g id="edge29_Node000001_Node000021" class="edge">
<title>Node1&#45;&gt;Node21</title>
<g id="a_edge29_Node000001_Node000021"><a xlink:title=" ">
<path fill="none" stroke="#63b8ff" d="M51.75,-268.63C64.73,-248.79 95.84,-202.15 125,-165.27 135.95,-151.42 149.23,-136.5 159.41,-125.4"/>
<polygon fill="#63b8ff" stroke="#63b8ff" points="161.98,-127.78 166.21,-118.07 156.85,-123.02 161.98,-127.78"/>
</a>
</g>
</g>
<!-- Node3 -->
<g id="Node000003" class="node">
<title>Node3</title>
<g id="a_Node000003"><a xlink:href="filesystem_8c.html#a6c3bed1f355bd1952d7ffa87405828c6" target="_top" xlink:title=" ">
<polygon fill="white" stroke="#666666" points="352.5,-495.77 288.5,-495.77 288.5,-476.77 352.5,-476.77 352.5,-495.77"/>
<text text-anchor="middle" x="320.5" y="-483.77" font-family="Helvetica,sans-Serif" font-size="10.00">dir_exists</text>
</a>
</g>
</g>
<!-- Node2&#45;&gt;Node3 -->
<g id="edge2_Node000002_Node000003" class="edge">
<title>Node2&#45;&gt;Node3</title>
<g id="a_edge2_Node000002_Node000003"><a xlink:title=" ">
<path fill="none" stroke="#63b8ff" d="M207.27,-486.27C227.86,-486.27 255.54,-486.27 278.25,-486.27"/>
<polygon fill="#63b8ff" stroke="#63b8ff" points="278.3,-489.77 288.3,-486.27 278.3,-482.77 278.3,-489.77"/>
</a>
</g>
</g>
<!-- Node6 -->
<g id="Node000006" class="node">
<title>Node6</title>
<g id="a_Node000006"><a xlink:href="filesystem_8c.html#a07610d3a6787ca02aa3d340759bcb8c9" target="_top" xlink:title=" ">
<polygon fill="white" stroke="#666666" points="761,-194.77 695,-194.77 695,-175.77 761,-175.77 761,-194.77"/>
<text text-anchor="middle" x="728" y="-182.77" font-family="Helvetica,sans-Serif" font-size="10.00">file_exists</text>
</a>
</g>
</g>
<!-- Node2&#45;&gt;Node6 -->
<g id="edge5_Node000002_Node000006" class="edge">
<title>Node2&#45;&gt;Node6</title>
<g id="a_edge5_Node000002_Node000006"><a xlink:title=" ">
<path fill="none" stroke="#63b8ff" d="M192.72,-495.79C209.45,-505.66 237.5,-520.44 264,-526.27 313.05,-537.06 329.99,-543.95 377,-526.27 547.74,-462.03 678.59,-265.12 716.09,-203.74"/>
<polygon fill="#63b8ff" stroke="#63b8ff" points="719.32,-205.17 721.48,-194.79 713.32,-201.55 719.32,-205.17"/>
</a>
</g>
</g>
<!-- Node2&#45;&gt;Node7 -->
<g id="edge7_Node000002_Node000007" class="edge">
<title>Node2&#45;&gt;Node7</title>
<g id="a_edge7_Node000002_Node000007"><a xlink:title=" ">
<path fill="none" stroke="#63b8ff" d="M192.16,-476.63C209.09,-465.7 237.97,-447.64 264,-434.27 270.93,-430.71 278.51,-427.19 285.78,-424"/>
<polygon fill="#63b8ff" stroke="#63b8ff" points="287.6,-427.02 295.41,-419.86 284.84,-420.59 287.6,-427.02"/>
</a>
</g>
</g>
<!-- Node8 -->
<g id="Node000008" class="node">
<title>Node8</title>
<g id="a_Node000008"><a xlink:href="user__auth_8c.html#aed0ce6c01378a5dfdbf8faa9bf3e9460" target="_top" xlink:title=" ">
<polygon fill="white" stroke="#666666" points="531,-381.77 413,-381.77 413,-362.77 531,-362.77 531,-381.77"/>
<text text-anchor="middle" x="472" y="-369.77" font-family="Helvetica,sans-Serif" font-size="10.00">get_user_token_path</text>
</a>
</g>
</g>
<!-- Node2&#45;&gt;Node8 -->
<g id="edge8_Node000002_Node000008" class="edge">
<title>Node2&#45;&gt;Node8</title>
<g id="a_edge8_Node000002_Node000008"><a xlink:title=" ">
<path fill="none" stroke="#63b8ff" d="M199.65,-495.82C238.12,-510.87 318.76,-535.42 377,-505.27 423.49,-481.19 451.91,-422.36 464.07,-391.65"/>
<polygon fill="#63b8ff" stroke="#63b8ff" points="467.43,-392.65 467.7,-382.06 460.89,-390.18 467.43,-392.65"/>
</a>
</g>
</g>
<!-- Node9 -->
<g id="Node000009" class="node">
<title>Node9</title>
<g id="a_Node000009"><a xlink:href="filesystem_8c.html#a20ca64a89158ccc1eb3f714b3d8725f5" target="_top" xlink:title=" ">
<polygon fill="white" stroke="#666666" points="351.5,-609.77 289.5,-609.77 289.5,-590.77 351.5,-590.77 351.5,-609.77"/>
<text text-anchor="middle" x="320.5" y="-597.77" font-family="Helvetica,sans-Serif" font-size="10.00">make_dir</text>
</a>
</g>
</g>
<!-- Node2&#45;&gt;Node9 -->
<g id="edge9_Node000002_Node000009" class="edge">
<title>Node2&#45;&gt;Node9</title>
<g id="a_edge9_Node000002_Node000009"><a xlink:title=" ">
<path fill="none" stroke="#63b8ff" d="M184.61,-495.88C198.25,-513.78 229.82,-552.54 264,-576.27 269.62,-580.17 275.98,-583.64 282.33,-586.65"/>
<polygon fill="#63b8ff" stroke="#63b8ff" points="280.99,-589.88 291.55,-590.71 283.81,-583.47 280.99,-589.88"/>
</a>
</g>
</g>
<!-- Node10 -->
<g id="Node000010" class="node">
<title>Node10</title>
<g id="a_Node000010"><a xlink:href="filesystem_8c.html#a8e5a51c709e9d6229c1974435475292a" target="_top" xlink:title=" ">
<polygon fill="white" stroke="#666666" points="503,-42.77 441,-42.77 441,-23.77 503,-23.77 503,-42.77"/>
<text text-anchor="middle" x="472" y="-30.77" font-family="Helvetica,sans-Serif" font-size="10.00">write_file</text>
</a>
</g>
</g>
<!-- Node2&#45;&gt;Node10 -->
<g id="edge10_Node000002_Node000010" class="edge">
<title>Node2&#45;&gt;Node10</title>
<g id="a_edge10_Node000002_Node000010"><a xlink:title=" ">
<path fill="none" stroke="#63b8ff" d="M207.4,-479.64C260.28,-467.65 365.84,-442.36 377,-429.27 420.69,-378 390.94,-191.92 413,-128.27 423.17,-98.93 443.43,-68.99 457.1,-50.76"/>
<polygon fill="#63b8ff" stroke="#63b8ff" points="459.89,-52.87 463.21,-42.81 454.34,-48.61 459.89,-52.87"/>
</a>
</g>
</g>
<!-- Node4 -->
<g id="Node000004" class="node">
<title>Node4</title>
<g id="a_Node000004"><a xlink:href="filesystem_8c.html#aa109ff29a72d1beadda58bb3a54185b6" target="_top" xlink:title=" ">
<polygon fill="white" stroke="#666666" points="832,-175.77 797,-175.77 797,-156.77 832,-156.77 832,-175.77"/>
<text text-anchor="middle" x="814.5" y="-163.77" font-family="Helvetica,sans-Serif" font-size="10.00">stat</text>
</a>
</g>
</g>
<!-- Node3&#45;&gt;Node4 -->
<g id="edge3_Node000003_Node000004" class="edge">
<title>Node3&#45;&gt;Node4</title>
<g id="a_edge3_Node000003_Node000004"><a xlink:title=" ">
<path fill="none" stroke="#63b8ff" d="M348.02,-476.69C388.84,-461.41 468.85,-429.34 531,-391.27 639.49,-324.81 753.49,-222.34 796.1,-182.7"/>
<polygon fill="#63b8ff" stroke="#63b8ff" points="798.51,-185.24 803.42,-175.85 793.73,-180.12 798.51,-185.24"/>
</a>
</g>
</g>
<!-- Node5 -->
<g id="Node000005" class="node">
<title>Node5</title>
<g id="a_Node000005"><a xlink:href="utilities_2src_2log_8c.html#a4b048be24c6c7f622a6bc6c6bf8ac435" target="_top" xlink:title=" ">
<polygon fill="white" stroke="#666666" points="999,-99.77 868,-99.77 868,-80.77 999,-80.77 999,-99.77"/>
<text text-anchor="middle" x="933.5" y="-87.77" font-family="Helvetica,sans-Serif" font-size="10.00">get_current_task_name</text>
</a>
</g>
</g>
<!-- Node4&#45;&gt;Node5 -->
<g id="edge4_Node000004_Node000005" class="edge">
<title>Node4&#45;&gt;Node5</title>
<g id="a_edge4_Node000004_Node000005"><a xlink:title=" ">
<path fill="none" stroke="#63b8ff" d="M830.32,-156.64C850.19,-143.74 885.67,-120.69 909.15,-105.43"/>
<polygon fill="#63b8ff" stroke="#63b8ff" points="911.32,-108.2 917.8,-99.82 907.51,-102.33 911.32,-108.2"/>
</a>
</g>
</g>
<!-- Node6&#45;&gt;Node4 -->
<g id="edge6_Node000006_Node000004" class="edge">
<title>Node6&#45;&gt;Node4</title>
<g id="a_edge6_Node000006_Node000004"><a xlink:title=" ">
<path fill="none" stroke="#63b8ff" d="M761.43,-177.98C769.84,-176.08 778.81,-174.07 786.88,-172.25"/>
<polygon fill="#63b8ff" stroke="#63b8ff" points="787.88,-175.62 796.87,-170.01 786.34,-168.79 787.88,-175.62"/>
</a>
</g>
</g>
<!-- Node12 -->
<g id="Node000012" class="node">
<title>Node12</title>
<g id="a_Node000012"><a xlink:href="filesystem_8c.html#a927cf61c34acf12c6d2e91abb0894b0b" target="_top" xlink:title=" ">
<polygon fill="white" stroke="#666666" points="343.5,-269.77 297.5,-269.77 297.5,-250.77 343.5,-250.77 343.5,-269.77"/>
<text text-anchor="middle" x="320.5" y="-257.77" font-family="Helvetica,sans-Serif" font-size="10.00">fs_log</text>
</a>
</g>
</g>
<!-- Node11&#45;&gt;Node12 -->
<g id="edge12_Node000011_Node000012" class="edge">
<title>Node11&#45;&gt;Node12</title>
<g id="a_edge12_Node000011_Node000012"><a xlink:title=" ">
<path fill="none" stroke="#63b8ff" d="M192.7,-259.38C215.13,-259.53 257.63,-259.83 287.21,-260.04"/>
<polygon fill="#63b8ff" stroke="#63b8ff" points="287.44,-263.54 297.47,-260.11 287.49,-256.54 287.44,-263.54"/>
</a>
</g>
</g>
<!-- Node14 -->
<g id="Node000014" class="node">
<title>Node14</title>
<g id="a_Node000014"><a xlink:href="filesystem_8c.html#ab92b1f0beb3be903677f3293d0430b62" target="_top" xlink:title=" ">
<polygon fill="white" stroke="#666666" points="501.5,-156.77 442.5,-156.77 442.5,-137.77 501.5,-137.77 501.5,-156.77"/>
<text text-anchor="middle" x="472" y="-144.77" font-family="Helvetica,sans-Serif" font-size="10.00">read_file</text>
</a>
</g>
</g>
<!-- Node11&#45;&gt;Node14 -->
<g id="edge14_Node000011_Node000014" class="edge">
<title>Node11&#45;&gt;Node14</title>
<g id="a_edge14_Node000011_Node000014"><a xlink:title=" ">
<path fill="none" stroke="#63b8ff" d="M192.73,-256.43C226.73,-249.77 311.05,-231.58 377,-203.27 403.1,-192.06 430.78,-174.84 449.29,-162.46"/>
<polygon fill="#63b8ff" stroke="#63b8ff" points="451.29,-165.33 457.59,-156.81 447.36,-159.54 451.29,-165.33"/>
</a>
</g>
</g>
<!-- Node13 -->
<g id="Node000013" class="node">
<title>Node13</title>
<g id="a_Node000013"><a xlink:href="telemetry_8c.html#a6dbf6c6cfd75451e5642ca0b64bf7f5a" target="_top" xlink:title=" ">
<polygon fill="white" stroke="#666666" points="518.5,-269.77 425.5,-269.77 425.5,-250.77 518.5,-250.77 518.5,-269.77"/>
<text text-anchor="middle" x="472" y="-257.77" font-family="Helvetica,sans-Serif" font-size="10.00">send_telemetry</text>
</a>
</g>
</g>
<!-- Node12&#45;&gt;Node13 -->
<g id="edge13_Node000012_Node000013" class="edge">
<title>Node12&#45;&gt;Node13</title>
<g id="a_edge13_Node000012_Node000013"><a xlink:title=" ">
<path fill="none" stroke="#63b8ff" d="M343.56,-260.27C362.41,-260.27 390.34,-260.27 415.26,-260.27"/>
<polygon fill="#63b8ff" stroke="#63b8ff" points="415.36,-263.77 425.36,-260.27 415.36,-256.77 415.36,-263.77"/>
</a>
</g>
</g>
<!-- Node15 -->
<g id="Node000015" class="node">
<title>Node15</title>
<g id="a_Node000015"><a xlink:href="filesystem_8c.html#ae0599d66eddc7fdf656fca874aa5f1d1" target="_top" xlink:title=" ">
<polygon fill="white" stroke="#666666" points="659,-156.77 567,-156.77 567,-137.77 659,-137.77 659,-156.77"/>
<text text-anchor="middle" x="613" y="-144.77" font-family="Helvetica,sans-Serif" font-size="10.00">read_file_offset</text>
</a>
</g>
</g>
<!-- Node14&#45;&gt;Node15 -->
<g id="edge15_Node000014_Node000015" class="edge">
<title>Node14&#45;&gt;Node15</title>
<g id="a_edge15_Node000014_Node000015"><a xlink:title=" ">
<path fill="none" stroke="#63b8ff" d="M501.8,-147.27C517.64,-147.27 537.82,-147.27 556.58,-147.27"/>
<polygon fill="#63b8ff" stroke="#63b8ff" points="556.82,-150.77 566.82,-147.27 556.82,-143.77 556.82,-150.77"/>
</a>
</g>
</g>
<!-- Node15&#45;&gt;Node5 -->
<g id="edge17_Node000015_Node000005" class="edge">
<title>Node15&#45;&gt;Node5</title>
<g id="a_edge17_Node000015_Node000005"><a xlink:title=" ">
<path fill="none" stroke="#63b8ff" d="M659.3,-139.16C714.28,-129.32 807.34,-112.67 869.34,-101.57"/>
<polygon fill="#63b8ff" stroke="#63b8ff" points="870.17,-104.98 879.4,-99.77 868.94,-98.09 870.17,-104.98"/>
</a>
</g>
</g>
<!-- Node15&#45;&gt;Node6 -->
<g id="edge16_Node000015_Node000006" class="edge">
<title>Node15&#45;&gt;Node6</title>
<g id="a_edge16_Node000015_Node000006"><a xlink:title=" ">
<path fill="none" stroke="#63b8ff" d="M642.51,-156.86C656.57,-161.58 673.71,-167.35 688.87,-172.45"/>
<polygon fill="#63b8ff" stroke="#63b8ff" points="687.9,-175.81 698.49,-175.68 690.13,-169.18 687.9,-175.81"/>
</a>
</g>
</g>
<!-- Node16&#45;&gt;Node3 -->
<g id="edge20_Node000016_Node000003" class="edge">
<title>Node16&#45;&gt;Node3</title>
<g id="a_edge20_Node000016_Node000003"><a xlink:title=" ">
<path fill="none" stroke="#63b8ff" d="M186.25,-344.96C201.77,-362.1 235.19,-398.83 264,-429.27 276.84,-442.83 291.59,-457.96 302.66,-469.23"/>
<polygon fill="#63b8ff" stroke="#63b8ff" points="300.48,-472 309.99,-476.67 305.47,-467.09 300.48,-472"/>
</a>
</g>
</g>
<!-- Node16&#45;&gt;Node7 -->
<g id="edge22_Node000016_Node000007" class="edge">
<title>Node16&#45;&gt;Node7</title>
<g id="a_edge22_Node000016_Node000007"><a xlink:title=" ">
<path fill="none" stroke="#63b8ff" d="M192.49,-344.88C209.49,-355.6 238.2,-373.15 264,-386.27 271.17,-389.92 279.02,-393.53 286.51,-396.8"/>
<polygon fill="#63b8ff" stroke="#63b8ff" points="285.14,-400.02 295.71,-400.75 287.89,-393.59 285.14,-400.02"/>
</a>
</g>
</g>
<!-- Node16&#45;&gt;Node8 -->
<g id="edge23_Node000016_Node000008" class="edge">
<title>Node16&#45;&gt;Node8</title>
<g id="a_edge23_Node000016_Node000008"><a xlink:title=" ">
<path fill="none" stroke="#63b8ff" d="M213.53,-343.72C229,-347.1 247.31,-350.77 264,-353.27 310.07,-360.15 362.3,-364.92 402.77,-367.96"/>
<polygon fill="#63b8ff" stroke="#63b8ff" points="402.56,-371.46 412.79,-368.7 403.07,-364.48 402.56,-371.46"/>
</a>
</g>
</g>
<!-- Node17 -->
<g id="Node000017" class="node">
<title>Node17</title>
<g id="a_Node000017"><a xlink:href="filesystem_8c.html#a02c1e03f51146617a18f5bcc96099220" target="_top" xlink:title=" ">
<polygon fill="white" stroke="#666666" points="354.5,-343.77 286.5,-343.77 286.5,-324.77 354.5,-324.77 354.5,-343.77"/>
<text text-anchor="middle" x="320.5" y="-331.77" font-family="Helvetica,sans-Serif" font-size="10.00">delete_file</text>
</a>
</g>
</g>
<!-- Node16&#45;&gt;Node17 -->
<g id="edge19_Node000016_Node000017" class="edge">
<title>Node16&#45;&gt;Node17</title>
<g id="a_edge19_Node000016_Node000017"><a xlink:title=" ">
<path fill="none" stroke="#63b8ff" d="M213.7,-335.01C232.73,-334.88 256.2,-334.71 276.19,-334.57"/>
<polygon fill="#63b8ff" stroke="#63b8ff" points="276.31,-338.07 286.29,-334.5 276.26,-331.07 276.31,-338.07"/>
</a>
</g>
</g>
<!-- Node16&#45;&gt;Node18 -->
<g id="edge21_Node000016_Node000018" class="edge">
<title>Node16&#45;&gt;Node18</title>
<g id="a_edge21_Node000016_Node000018"><a xlink:title=" ">
<path fill="none" stroke="#63b8ff" d="M186.3,-325.72C201.88,-308.83 235.4,-272.58 264,-242.27 277.05,-228.43 291.97,-212.86 303.04,-201.34"/>
<polygon fill="#63b8ff" stroke="#63b8ff" points="305.62,-203.71 310.03,-194.08 300.57,-198.86 305.62,-203.71"/>
</a>
</g>
</g>
<!-- Node16&#45;&gt;Node19 -->
<g id="edge24_Node000016_Node000019" class="edge">
<title>Node16&#45;&gt;Node19</title>
<g id="a_edge24_Node000016_Node000019"><a xlink:title=" ">
<path fill="none" stroke="#63b8ff" d="M213.33,-325.68C235.46,-319.76 263.69,-312.2 285.47,-306.37"/>
<polygon fill="#63b8ff" stroke="#63b8ff" points="286.54,-309.71 295.29,-303.75 284.73,-302.95 286.54,-309.71"/>
</a>
</g>
</g>
<!-- Node21&#45;&gt;Node4 -->
<g id="edge39_Node000021_Node000004" class="edge">
<title>Node21&#45;&gt;Node4</title>
<g id="a_edge39_Node000021_Node000004"><a xlink:title=" ">
<path fill="none" stroke="#63b8ff" d="M184.54,-98.64C197.84,-81.29 228.53,-45.12 264,-29.27 372.51,19.22 412.47,-5.52 531,-14.27 588.36,-18.5 610.69,-2.07 659,-33.27 683.86,-49.32 674.13,-68.3 695,-89.27 722.62,-117.03 761.86,-140.1 787.5,-153.55"/>
<polygon fill="#63b8ff" stroke="#63b8ff" points="786.11,-156.77 796.61,-158.22 789.3,-150.54 786.11,-156.77"/>
</a>
</g>
</g>
<!-- Node21&#45;&gt;Node6 -->
<g id="edge30_Node000021_Node000006" class="edge">
<title>Node21&#45;&gt;Node6</title>
<g id="a_edge30_Node000021_Node000006"><a xlink:title=" ">
<path fill="none" stroke="#63b8ff" d="M208.38,-117.78C253.04,-131.09 338.49,-154.93 413,-166.27 509.27,-180.91 623.75,-184.37 684.38,-185.13"/>
<polygon fill="#63b8ff" stroke="#63b8ff" points="684.67,-188.63 694.7,-185.23 684.74,-181.63 684.67,-188.63"/>
</a>
</g>
</g>
<!-- Node21&#45;&gt;Node10 -->
<g id="edge42_Node000021_Node000010" class="edge">
<title>Node21&#45;&gt;Node10</title>
<g id="a_edge42_Node000021_Node000010"><a xlink:title=" ">
<path fill="none" stroke="#63b8ff" d="M188.32,-98.74C203.84,-85.69 233.91,-62.68 264,-52.27 319.49,-33.07 388.07,-30.6 430.68,-31.35"/>
<polygon fill="#63b8ff" stroke="#63b8ff" points="430.84,-34.86 440.93,-31.6 431.01,-27.86 430.84,-34.86"/>
</a>
</g>
</g>
<!-- Node21&#45;&gt;Node18 -->
<g id="edge38_Node000021_Node000018" class="edge">
<title>Node21&#45;&gt;Node18</title>
<g id="a_edge38_Node000021_Node000018"><a xlink:title=" ">
<path fill="none" stroke="#63b8ff" d="M192.16,-117.9C209.09,-128.84 237.97,-146.89 264,-160.27 270.93,-163.83 278.51,-167.35 285.78,-170.54"/>
<polygon fill="#63b8ff" stroke="#63b8ff" points="284.84,-173.95 295.41,-174.67 287.6,-167.51 284.84,-173.95"/>
</a>
</g>
</g>
<!-- Node22 -->
<g id="Node000022" class="node">
<title>Node22</title>
<g id="a_Node000022"><a xlink:href="user__auth_8c.html#abd83d867ec7c814578d0f6d9a13f79f0" target="_top" xlink:title=" ">
<polygon fill="white" stroke="#666666" points="350,-117.77 291,-117.77 291,-98.77 350,-98.77 350,-117.77"/>
<text text-anchor="middle" x="320.5" y="-105.77" font-family="Helvetica,sans-Serif" font-size="10.00">get_user</text>
</a>
</g>
</g>
<!-- Node21&#45;&gt;Node22 -->
<g id="edge31_Node000021_Node000022" class="edge">
<title>Node21&#45;&gt;Node22</title>
<g id="a_edge31_Node000021_Node000022"><a xlink:title=" ">
<path fill="none" stroke="#63b8ff" d="M228.36,-108.27C245.6,-108.27 264.56,-108.27 280.7,-108.27"/>
<polygon fill="#63b8ff" stroke="#63b8ff" points="280.86,-111.77 290.85,-108.27 280.85,-104.77 280.86,-111.77"/>
</a>
</g>
</g>
<!-- Node25 -->
<g id="Node000025" class="node">
<title>Node25</title>
<g id="a_Node000025"><a xlink:href="filesystem_8c.html#a1038e83eda006a16d81aba0bda5c3334" target="_top" xlink:title=" ">
<polygon fill="white" stroke="#666666" points="342.5,-80.77 298.5,-80.77 298.5,-61.77 342.5,-61.77 342.5,-80.77"/>
<text text-anchor="middle" x="320.5" y="-68.77" font-family="Helvetica,sans-Serif" font-size="10.00">touch</text>
</a>
</g>
</g>
<!-- Node21&#45;&gt;Node25 -->
<g id="edge40_Node000021_Node000025" class="edge">
<title>Node21&#45;&gt;Node25</title>
<g id="a_edge40_Node000021_Node000025"><a xlink:title=" ">
<path fill="none" stroke="#63b8ff" d="M214.07,-98.74C237.2,-92.71 266.75,-85.01 288.68,-79.3"/>
<polygon fill="#63b8ff" stroke="#63b8ff" points="289.68,-82.66 298.47,-76.75 287.91,-75.88 289.68,-82.66"/>
</a>
</g>
</g>
<!-- Node22&#45;&gt;Node8 -->
<g id="edge32_Node000022_Node000008" class="edge">
<title>Node22&#45;&gt;Node8</title>
<g id="a_edge32_Node000022_Node000008"><a xlink:title=" ">
<path fill="none" stroke="#63b8ff" d="M333.79,-118.13C346.31,-128.79 365.47,-146.86 377,-166.27 403.91,-211.59 390.88,-231.42 413,-279.27 425.71,-306.77 445.05,-336.04 457.86,-354.24"/>
<polygon fill="#63b8ff" stroke="#63b8ff" points="455.22,-356.58 463.88,-362.68 460.92,-352.51 455.22,-356.58"/>
</a>
</g>
</g>
<!-- Node22&#45;&gt;Node14 -->
<g id="edge37_Node000022_Node000014" class="edge">
<title>Node22&#45;&gt;Node14</title>
<g id="a_edge37_Node000022_Node000014"><a xlink:title=" ">
<path fill="none" stroke="#63b8ff" d="M350.33,-115.79C373.7,-121.88 406.85,-130.53 432.49,-137.22"/>
<polygon fill="#63b8ff" stroke="#63b8ff" points="431.7,-140.63 442.26,-139.77 433.47,-133.86 431.7,-140.63"/>
</a>
</g>
</g>
<!-- Node23 -->
<g id="Node000023" class="node">
<title>Node23</title>
<g id="a_Node000023"><a xlink:href="filesystem_8c.html#ae37338ef034a23a8068df8421a5e3dfd" target="_top" xlink:title=" ">
<polygon fill="white" stroke="#666666" points="642.5,-61.77 583.5,-61.77 583.5,-42.77 642.5,-42.77 642.5,-61.77"/>
<text text-anchor="middle" x="613" y="-49.77" font-family="Helvetica,sans-Serif" font-size="10.00">open_dir</text>
</a>
</g>
</g>
<!-- Node22&#45;&gt;Node23 -->
<g id="edge33_Node000022_Node000023" class="edge">
<title>Node22&#45;&gt;Node23</title>
<g id="a_edge33_Node000022_Node000023"><a xlink:title=" ">
<path fill="none" stroke="#63b8ff" d="M350.15,-102.75C402.54,-92.65 513.85,-71.19 573.06,-59.78"/>
<polygon fill="#63b8ff" stroke="#63b8ff" points="573.98,-63.16 583.14,-57.83 572.65,-56.29 573.98,-63.16"/>
</a>
</g>
</g>
<!-- Node24 -->
<g id="Node000024" class="node">
<title>Node24</title>
<g id="a_Node000024"><a xlink:href="filesystem_8c.html#a7e4306f2cf5a6c7ab054e334829a4b9d" target="_top" xlink:title=" ">
<polygon fill="white" stroke="#666666" points="756,-80.77 700,-80.77 700,-61.77 756,-61.77 756,-80.77"/>
<text text-anchor="middle" x="728" y="-68.77" font-family="Helvetica,sans-Serif" font-size="10.00">read_dir</text>
</a>
</g>
</g>
<!-- Node22&#45;&gt;Node24 -->
<g id="edge35_Node000022_Node000024" class="edge">
<title>Node22&#45;&gt;Node24</title>
<g id="a_edge35_Node000022_Node000024"><a xlink:title=" ">
<path fill="none" stroke="#63b8ff" d="M350.34,-106.8C390.77,-104.64 466.57,-100.2 531,-94.27 586.43,-89.17 650.46,-81.28 689.83,-76.19"/>
<polygon fill="#63b8ff" stroke="#63b8ff" points="690.31,-79.66 699.78,-74.9 689.41,-72.72 690.31,-79.66"/>
</a>
</g>
</g>
<!-- Node23&#45;&gt;Node5 -->
<g id="edge34_Node000023_Node000005" class="edge">
<title>Node23&#45;&gt;Node5</title>
<g id="a_edge34_Node000023_Node000005"><a xlink:title=" ">
<path fill="none" stroke="#63b8ff" d="M642.56,-50.44C672.25,-48.96 720.03,-47.78 761,-52.27 805.56,-57.15 855.49,-68.95 889.93,-78.12"/>
<polygon fill="#63b8ff" stroke="#63b8ff" points="889.09,-81.52 899.66,-80.75 890.92,-74.76 889.09,-81.52"/>
</a>
</g>
</g>
<!-- Node24&#45;&gt;Node5 -->
<g id="edge36_Node000024_Node000005" class="edge">
<title>Node24&#45;&gt;Node5</title>
<g id="a_edge36_Node000024_Node000005"><a xlink:title=" ">
<path fill="none" stroke="#63b8ff" d="M756.02,-73.79C781.8,-76.2 821.85,-79.94 857.28,-83.25"/>
<polygon fill="#63b8ff" stroke="#63b8ff" points="857.34,-86.77 867.62,-84.21 857.99,-79.8 857.34,-86.77"/>
</a>
</g>
</g>
<!-- Node25&#45;&gt;Node10 -->
<g id="edge41_Node000025_Node000010" class="edge">
<title>Node25&#45;&gt;Node10</title>
<g id="a_edge41_Node000025_Node000010"><a xlink:title=" ">
<path fill="none" stroke="#63b8ff" d="M342.6,-65.9C365.47,-60.09 402.49,-50.68 430.92,-43.46"/>
<polygon fill="#63b8ff" stroke="#63b8ff" points="432.14,-46.76 440.97,-40.9 430.41,-39.97 432.14,-46.76"/>
</a>
</g>
</g>
</g>
</svg>
