<?xml version="1.0" encoding="UTF-8" standalone="no"?>
<!DOCTYPE svg PUBLIC "-//W3C//DTD SVG 1.1//EN"
 "http://www.w3.org/Graphics/SVG/1.1/DTD/svg11.dtd">
<!-- Generated by graphviz version 2.43.0 (0)
 -->
<!-- Title: user_auth.h Pages: 1 -->
<svg width="448pt" height="192pt"
 viewBox="0.00 0.00 447.74 192.00" xmlns="http://www.w3.org/2000/svg" xmlns:xlink="http://www.w3.org/1999/xlink">
<g id="graph0" class="graph" transform="scale(1 1) rotate(0) translate(4 188)">
<title>user_auth.h</title>
<!-- Node1 -->
<g id="Node000001" class="node">
<title>Node1</title>
<g id="a_Node000001"><a xlink:title=" ">
<polygon fill="#999999" stroke="#666666" points="294.74,-184 220.74,-184 220.74,-165 294.74,-165 294.74,-184"/>
<text text-anchor="middle" x="257.74" y="-172" font-family="Helvetica,sans-Serif" font-size="10.00">user_auth.h</text>
</a>
</g>
</g>
<!-- Node2 -->
<g id="Node000002" class="node">
<title>Node2</title>
<g id="a_Node000002"><a xlink:href="command_8h.html" target="_top" xlink:title="Handles decoding and triggering responses to received commands.">
<polygon fill="white" stroke="#666666" points="248.74,-129 174.74,-129 174.74,-110 248.74,-110 248.74,-129"/>
<text text-anchor="middle" x="211.74" y="-117" font-family="Helvetica,sans-Serif" font-size="10.00">command.h</text>
</a>
</g>
</g>
<!-- Node1&#45;&gt;Node2 -->
<g id="edge1_Node000001_Node000002" class="edge">
<title>Node1&#45;&gt;Node2</title>
<g id="a_edge1_Node000001_Node000002"><a xlink:title=" ">
<path fill="none" stroke="#63b8ff" d="M243.38,-156.96C235.37,-147.72 225.72,-136.6 219.2,-129.09"/>
<polygon fill="#63b8ff" stroke="#63b8ff" points="240.95,-159.49 250.15,-164.75 246.23,-154.9 240.95,-159.49"/>
</a>
</g>
</g>
<!-- Node11 -->
<g id="Node000011" class="node">
<title>Node11</title>
<g id="a_Node000011"><a xlink:href="user__auth_8c.html" target="_top" xlink:title=" ">
<polygon fill="white" stroke="#666666" points="340.24,-129 267.24,-129 267.24,-110 340.24,-110 340.24,-129"/>
<text text-anchor="middle" x="303.74" y="-117" font-family="Helvetica,sans-Serif" font-size="10.00">user_auth.c</text>
</a>
</g>
</g>
<!-- Node1&#45;&gt;Node11 -->
<g id="edge11_Node000001_Node000011" class="edge">
<title>Node1&#45;&gt;Node11</title>
<g id="a_edge11_Node000001_Node000011"><a xlink:title=" ">
<path fill="none" stroke="#63b8ff" d="M272.1,-156.96C280.12,-147.72 289.77,-136.6 296.29,-129.09"/>
<polygon fill="#63b8ff" stroke="#63b8ff" points="269.25,-154.9 265.34,-164.75 274.54,-159.49 269.25,-154.9"/>
</a>
</g>
</g>
<!-- Node3 -->
<g id="Node000003" class="node">
<title>Node3</title>
<g id="a_Node000003"><a xlink:href="command_8c.html" target="_top" xlink:title=" ">
<polygon fill="white" stroke="#666666" points="108.74,-19 34.74,-19 34.74,0 108.74,0 108.74,-19"/>
<text text-anchor="middle" x="71.74" y="-7" font-family="Helvetica,sans-Serif" font-size="10.00">command.c</text>
</a>
</g>
</g>
<!-- Node2&#45;&gt;Node3 -->
<g id="edge2_Node000002_Node000003" class="edge">
<title>Node2&#45;&gt;Node3</title>
<g id="a_edge2_Node000002_Node000003"><a xlink:title=" ">
<path fill="none" stroke="#63b8ff" d="M164.5,-115.08C109.73,-110.02 24.44,-98.38 4.74,-74 -12.78,-52.31 24.47,-30.77 50.13,-19.19"/>
<polygon fill="#63b8ff" stroke="#63b8ff" points="164.41,-118.59 174.68,-115.98 165.03,-111.62 164.41,-118.59"/>
</a>
</g>
</g>
<!-- Node4 -->
<g id="Node000004" class="node">
<title>Node4</title>
<g id="a_Node000004"><a xlink:href="command__fuzzer_8cpp.html" target="_top" xlink:title=" ">
<polygon fill="white" stroke="#666666" points="133.74,-74 13.74,-74 13.74,-55 133.74,-55 133.74,-74"/>
<text text-anchor="middle" x="73.74" y="-62" font-family="Helvetica,sans-Serif" font-size="10.00">command_fuzzer.cpp</text>
</a>
</g>
</g>
<!-- Node2&#45;&gt;Node4 -->
<g id="edge3_Node000002_Node000004" class="edge">
<title>Node2&#45;&gt;Node4</title>
<g id="a_edge3_Node000002_Node000004"><a xlink:title=" ">
<path fill="none" stroke="#63b8ff" d="M179.95,-106.29C154.37,-96.47 119.07,-82.91 96.32,-74.17"/>
<polygon fill="#63b8ff" stroke="#63b8ff" points="178.98,-109.67 189.57,-109.98 181.49,-103.13 178.98,-109.67"/>
</a>
</g>
</g>
<!-- Node5 -->
<g id="Node000005" class="node">
<title>Node5</title>
<g id="a_Node000005"><a xlink:href="gse_8c.html" target="_top" xlink:title=" ">
<polygon fill="white" stroke="#666666" points="193.74,-74 151.74,-74 151.74,-55 193.74,-55 193.74,-74"/>
<text text-anchor="middle" x="172.74" y="-62" font-family="Helvetica,sans-Serif" font-size="10.00">gse.c</text>
</a>
</g>
</g>
<!-- Node2&#45;&gt;Node5 -->
<g id="edge4_Node000002_Node000005" class="edge">
<title>Node2&#45;&gt;Node5</title>
<g id="a_edge4_Node000002_Node000005"><a xlink:title=" ">
<path fill="none" stroke="#63b8ff" d="M199.36,-101.67C192.61,-92.5 184.53,-81.52 179.06,-74.09"/>
<polygon fill="#63b8ff" stroke="#63b8ff" points="196.56,-103.77 205.3,-109.75 202.19,-99.62 196.56,-103.77"/>
</a>
</g>
</g>
<!-- Node6 -->
<g id="Node000006" class="node">
<title>Node6</title>
<g id="a_Node000006"><a xlink:href="hb__tlm__log_8h.html" target="_top" xlink:title=" ">
<polygon fill="white" stroke="#666666" points="291.74,-74 211.74,-74 211.74,-55 291.74,-55 291.74,-74"/>
<text text-anchor="middle" x="251.74" y="-62" font-family="Helvetica,sans-Serif" font-size="10.00">hb_tlm_log.h</text>
</a>
</g>
</g>
<!-- Node2&#45;&gt;Node6 -->
<g id="edge5_Node000002_Node000006" class="edge">
<title>Node2&#45;&gt;Node6</title>
<g id="a_edge5_Node000002_Node000006"><a xlink:title=" ">
<path fill="none" stroke="#63b8ff" d="M224.44,-101.67C231.37,-92.5 239.65,-81.52 245.26,-74.09"/>
<polygon fill="#63b8ff" stroke="#63b8ff" points="221.58,-99.66 218.35,-109.75 227.16,-103.87 221.58,-99.66"/>
</a>
</g>
</g>
<!-- Node9 -->
<g id="Node000009" class="node">
<title>Node9</title>
<g id="a_Node000009"><a xlink:href="main_8c.html" target="_top" xlink:title=" ">
<polygon fill="white" stroke="#666666" points="359.74,-74 309.74,-74 309.74,-55 359.74,-55 359.74,-74"/>
<text text-anchor="middle" x="334.74" y="-62" font-family="Helvetica,sans-Serif" font-size="10.00">main.c</text>
</a>
</g>
</g>
<!-- Node2&#45;&gt;Node9 -->
<g id="edge9_Node000002_Node000009" class="edge">
<title>Node2&#45;&gt;Node9</title>
<g id="a_edge9_Node000002_Node000009"><a xlink:title=" ">
<path fill="none" stroke="#63b8ff" d="M240.99,-105.9C263.71,-96.11 294.61,-82.79 314.62,-74.17"/>
<polygon fill="#63b8ff" stroke="#63b8ff" points="239.3,-102.81 231.5,-109.98 242.07,-109.24 239.3,-102.81"/>
</a>
</g>
</g>
<!-- Node10 -->
<g id="Node000010" class="node">
<title>Node10</title>
<g id="a_Node000010"><a xlink:href="radio_8cpp.html" target="_top" xlink:title=" ">
<polygon fill="white" stroke="#666666" points="439.74,-74 377.74,-74 377.74,-55 439.74,-55 439.74,-74"/>
<text text-anchor="middle" x="408.74" y="-62" font-family="Helvetica,sans-Serif" font-size="10.00">radio.cpp</text>
</a>
</g>
</g>
<!-- Node2&#45;&gt;Node10 -->
<g id="edge10_Node000002_Node000010" class="edge">
<title>Node2&#45;&gt;Node10</title>
<g id="a_edge10_Node000002_Node000010"><a xlink:title=" ">
<path fill="none" stroke="#63b8ff" d="M253.39,-107.29C290.49,-97.31 343.95,-82.93 377.49,-73.91"/>
<polygon fill="#63b8ff" stroke="#63b8ff" points="252.14,-104.01 243.39,-109.98 253.96,-110.77 252.14,-104.01"/>
</a>
</g>
</g>
<!-- Node6&#45;&gt;Node3 -->
<g id="edge6_Node000006_Node000003" class="edge">
<title>Node6&#45;&gt;Node3</title>
<g id="a_edge6_Node000006_Node000003"><a xlink:title=" ">
<path fill="none" stroke="#63b8ff" d="M212.87,-52.06C179.23,-42.15 131.33,-28.04 100.89,-19.08"/>
<polygon fill="#63b8ff" stroke="#63b8ff" points="212.24,-55.52 222.82,-54.98 214.22,-48.8 212.24,-55.52"/>
</a>
</g>
</g>
<!-- Node7 -->
<g id="Node000007" class="node">
<title>Node7</title>
<g id="a_Node000007"><a xlink:href="hb__tlm__log_8c.html" target="_top" xlink:title=" ">
<polygon fill="white" stroke="#666666" points="239.24,-19 160.24,-19 160.24,0 239.24,0 239.24,-19"/>
<text text-anchor="middle" x="199.74" y="-7" font-family="Helvetica,sans-Serif" font-size="10.00">hb_tlm_log.c</text>
</a>
</g>
</g>
<!-- Node6&#45;&gt;Node7 -->
<g id="edge7_Node000006_Node000007" class="edge">
<title>Node6&#45;&gt;Node7</title>
<g id="a_edge7_Node000006_Node000007"><a xlink:title=" ">
<path fill="none" stroke="#63b8ff" d="M236.06,-47.52C226.9,-38.18 215.69,-26.75 208.17,-19.09"/>
<polygon fill="#63b8ff" stroke="#63b8ff" points="233.65,-50.06 243.16,-54.75 238.65,-45.16 233.65,-50.06"/>
</a>
</g>
</g>
<!-- Node8 -->
<g id="Node000008" class="node">
<title>Node8</title>
<g id="a_Node000008"><a xlink:href="heartbeat__job_8c.html" target="_top" xlink:title=" ">
<polygon fill="white" stroke="#666666" points="349.74,-19 257.74,-19 257.74,0 349.74,0 349.74,-19"/>
<text text-anchor="middle" x="303.74" y="-7" font-family="Helvetica,sans-Serif" font-size="10.00">heartbeat_job.c</text>
</a>
</g>
</g>
<!-- Node6&#45;&gt;Node8 -->
<g id="edge8_Node000006_Node000008" class="edge">
<title>Node6&#45;&gt;Node8</title>
<g id="a_edge8_Node000006_Node000008"><a xlink:title=" ">
<path fill="none" stroke="#63b8ff" d="M267.42,-47.52C276.59,-38.18 287.79,-26.75 295.31,-19.09"/>
<polygon fill="#63b8ff" stroke="#63b8ff" points="264.83,-45.16 260.33,-54.75 269.83,-50.06 264.83,-45.16"/>
</a>
</g>
</g>
</g>
</svg>
