<?xml version="1.0" encoding="UTF-8" standalone="no"?>
<!DOCTYPE svg PUBLIC "-//W3C//DTD SVG 1.1//EN"
 "http://www.w3.org/Graphics/SVG/1.1/DTD/svg11.dtd">
<!-- Generated by graphviz version 2.43.0 (0)
 -->
<!-- Title: get_user Pages: 1 -->
<svg width="691pt" height="179pt"
 viewBox="0.00 0.00 691.00 179.00" xmlns="http://www.w3.org/2000/svg" xmlns:xlink="http://www.w3.org/1999/xlink">
<g id="graph0" class="graph" transform="scale(1 1) rotate(0) translate(4 175)">
<title>get_user</title>
<!-- Node1 -->
<g id="Node000001" class="node">
<title>Node1</title>
<g id="a_Node000001"><a xlink:title=" ">
<polygon fill="#999999" stroke="#666666" points="59,-114 0,-114 0,-95 59,-95 59,-114"/>
<text text-anchor="middle" x="29.5" y="-102" font-family="Helvetica,sans-Serif" font-size="10.00">get_user</text>
</a>
</g>
</g>
<!-- Node2 -->
<g id="Node000002" class="node">
<title>Node2</title>
<g id="a_Node000002"><a xlink:href="user__auth_8c.html#aed0ce6c01378a5dfdbf8faa9bf3e9460" target="_top" xlink:title=" ">
<polygon fill="white" stroke="#666666" points="213,-171 95,-171 95,-152 213,-152 213,-171"/>
<text text-anchor="middle" x="154" y="-159" font-family="Helvetica,sans-Serif" font-size="10.00">get_user_token_path</text>
</a>
</g>
</g>
<!-- Node1&#45;&gt;Node2 -->
<g id="edge1_Node000001_Node000002" class="edge">
<title>Node1&#45;&gt;Node2</title>
<g id="a_edge1_Node000001_Node000002"><a xlink:title=" ">
<path fill="none" stroke="#63b8ff" d="M48.38,-114.14C61.22,-120.94 79.01,-130.12 95,-137.5 102.74,-141.07 111.16,-144.7 119.13,-148.02"/>
<polygon fill="#63b8ff" stroke="#63b8ff" points="117.96,-151.33 128.54,-151.89 120.62,-144.85 117.96,-151.33"/>
</a>
</g>
</g>
<!-- Node3 -->
<g id="Node000003" class="node">
<title>Node3</title>
<g id="a_Node000003"><a xlink:href="filesystem_8c.html#ae37338ef034a23a8068df8421a5e3dfd" target="_top" xlink:title=" ">
<polygon fill="white" stroke="#666666" points="325,-133 266,-133 266,-114 325,-114 325,-133"/>
<text text-anchor="middle" x="295.5" y="-121" font-family="Helvetica,sans-Serif" font-size="10.00">open_dir</text>
</a>
</g>
</g>
<!-- Node1&#45;&gt;Node3 -->
<g id="edge2_Node000001_Node000003" class="edge">
<title>Node1&#45;&gt;Node3</title>
<g id="a_edge2_Node000001_Node000003"><a xlink:title=" ">
<path fill="none" stroke="#63b8ff" d="M59,-106.55C106.5,-109.97 201.91,-116.84 255.57,-120.7"/>
<polygon fill="#63b8ff" stroke="#63b8ff" points="255.49,-124.2 265.72,-121.43 255.99,-117.22 255.49,-124.2"/>
</a>
</g>
</g>
<!-- Node5 -->
<g id="Node000005" class="node">
<title>Node5</title>
<g id="a_Node000005"><a xlink:href="filesystem_8c.html#a7e4306f2cf5a6c7ab054e334829a4b9d" target="_top" xlink:title=" ">
<polygon fill="white" stroke="#666666" points="439.5,-95 383.5,-95 383.5,-76 439.5,-76 439.5,-95"/>
<text text-anchor="middle" x="411.5" y="-83" font-family="Helvetica,sans-Serif" font-size="10.00">read_dir</text>
</a>
</g>
</g>
<!-- Node1&#45;&gt;Node5 -->
<g id="edge4_Node000001_Node000005" class="edge">
<title>Node1&#45;&gt;Node5</title>
<g id="a_edge4_Node000001_Node000005"><a xlink:title=" ">
<path fill="none" stroke="#63b8ff" d="M59.06,-103.07C126.9,-99.68 297.67,-91.14 373.37,-87.36"/>
<polygon fill="#63b8ff" stroke="#63b8ff" points="373.59,-90.85 383.4,-86.85 373.24,-83.86 373.59,-90.85"/>
</a>
</g>
</g>
<!-- Node6 -->
<g id="Node000006" class="node">
<title>Node6</title>
<g id="a_Node000006"><a xlink:href="filesystem_8c.html#ab92b1f0beb3be903677f3293d0430b62" target="_top" xlink:title=" ">
<polygon fill="white" stroke="#666666" points="183.5,-57 124.5,-57 124.5,-38 183.5,-38 183.5,-57"/>
<text text-anchor="middle" x="154" y="-45" font-family="Helvetica,sans-Serif" font-size="10.00">read_file</text>
</a>
</g>
</g>
<!-- Node1&#45;&gt;Node6 -->
<g id="edge6_Node000001_Node000006" class="edge">
<title>Node1&#45;&gt;Node6</title>
<g id="a_edge6_Node000001_Node000006"><a xlink:title=" ">
<path fill="none" stroke="#63b8ff" d="M48.38,-94.86C61.22,-88.06 79.01,-78.88 95,-71.5 102.74,-67.93 111.16,-64.3 119.13,-60.98"/>
<polygon fill="#63b8ff" stroke="#63b8ff" points="120.62,-64.15 128.54,-57.11 117.96,-57.67 120.62,-64.15"/>
</a>
</g>
</g>
<!-- Node4 -->
<g id="Node000004" class="node">
<title>Node4</title>
<g id="a_Node000004"><a xlink:href="utilities_2src_2log_8c.html#a4b048be24c6c7f622a6bc6c6bf8ac435" target="_top" xlink:title=" ">
<polygon fill="white" stroke="#666666" points="683,-76 552,-76 552,-57 683,-57 683,-76"/>
<text text-anchor="middle" x="617.5" y="-64" font-family="Helvetica,sans-Serif" font-size="10.00">get_current_task_name</text>
</a>
</g>
</g>
<!-- Node3&#45;&gt;Node4 -->
<g id="edge3_Node000003_Node000004" class="edge">
<title>Node3&#45;&gt;Node4</title>
<g id="a_edge3_Node000003_Node000004"><a xlink:title=" ">
<path fill="none" stroke="#63b8ff" d="M325.13,-120.58C367.25,-116 448.24,-106.12 516,-91.5 533.92,-87.63 553.52,-82.88 570.6,-78.56"/>
<polygon fill="#63b8ff" stroke="#63b8ff" points="571.52,-81.94 580.34,-76.08 569.79,-75.16 571.52,-81.94"/>
</a>
</g>
</g>
<!-- Node5&#45;&gt;Node4 -->
<g id="edge5_Node000005_Node000004" class="edge">
<title>Node5&#45;&gt;Node4</title>
<g id="a_edge5_Node000005_Node000004"><a xlink:title=" ">
<path fill="none" stroke="#63b8ff" d="M439.59,-82.98C465.53,-80.56 505.89,-76.8 541.51,-73.48"/>
<polygon fill="#63b8ff" stroke="#63b8ff" points="542.27,-76.93 551.9,-72.52 541.62,-69.96 542.27,-76.93"/>
</a>
</g>
</g>
<!-- Node7 -->
<g id="Node000007" class="node">
<title>Node7</title>
<g id="a_Node000007"><a xlink:href="filesystem_8c.html#ae0599d66eddc7fdf656fca874aa5f1d1" target="_top" xlink:title=" ">
<polygon fill="white" stroke="#666666" points="342,-57 249,-57 249,-38 342,-38 342,-57"/>
<text text-anchor="middle" x="295.5" y="-45" font-family="Helvetica,sans-Serif" font-size="10.00">read_file_offset</text>
</a>
</g>
</g>
<!-- Node6&#45;&gt;Node7 -->
<g id="edge7_Node000006_Node000007" class="edge">
<title>Node6&#45;&gt;Node7</title>
<g id="a_edge7_Node000006_Node000007"><a xlink:title=" ">
<path fill="none" stroke="#63b8ff" d="M183.57,-47.5C199.51,-47.5 219.93,-47.5 238.9,-47.5"/>
<polygon fill="#63b8ff" stroke="#63b8ff" points="238.95,-51 248.95,-47.5 238.95,-44 238.95,-51"/>
</a>
</g>
</g>
<!-- Node7&#45;&gt;Node4 -->
<g id="edge11_Node000007_Node000004" class="edge">
<title>Node7&#45;&gt;Node4</title>
<g id="a_edge11_Node000007_Node000004"><a xlink:title=" ">
<path fill="none" stroke="#63b8ff" d="M342.01,-50.2C393.99,-53.29 479.82,-58.38 541.67,-62.06"/>
<polygon fill="#63b8ff" stroke="#63b8ff" points="541.58,-65.56 551.77,-62.66 542,-58.57 541.58,-65.56"/>
</a>
</g>
</g>
<!-- Node8 -->
<g id="Node000008" class="node">
<title>Node8</title>
<g id="a_Node000008"><a xlink:href="filesystem_8c.html#a07610d3a6787ca02aa3d340759bcb8c9" target="_top" xlink:title=" ">
<polygon fill="white" stroke="#666666" points="445,-19 378,-19 378,0 445,0 445,-19"/>
<text text-anchor="middle" x="411.5" y="-7" font-family="Helvetica,sans-Serif" font-size="10.00">file_exists</text>
</a>
</g>
</g>
<!-- Node7&#45;&gt;Node8 -->
<g id="edge8_Node000007_Node000008" class="edge">
<title>Node7&#45;&gt;Node8</title>
<g id="a_edge8_Node000007_Node000008"><a xlink:title=" ">
<path fill="none" stroke="#63b8ff" d="M325.27,-37.91C339.44,-33.19 356.74,-27.42 372.03,-22.32"/>
<polygon fill="#63b8ff" stroke="#63b8ff" points="373.36,-25.57 381.74,-19.09 371.15,-18.93 373.36,-25.57"/>
</a>
</g>
</g>
<!-- Node9 -->
<g id="Node000009" class="node">
<title>Node9</title>
<g id="a_Node000009"><a xlink:href="filesystem_8c.html#aa109ff29a72d1beadda58bb3a54185b6" target="_top" xlink:title=" ">
<polygon fill="white" stroke="#666666" points="516,-19 481,-19 481,0 516,0 516,-19"/>
<text text-anchor="middle" x="498.5" y="-7" font-family="Helvetica,sans-Serif" font-size="10.00">stat</text>
</a>
</g>
</g>
<!-- Node8&#45;&gt;Node9 -->
<g id="edge9_Node000008_Node000009" class="edge">
<title>Node8&#45;&gt;Node9</title>
<g id="a_edge9_Node000008_Node000009"><a xlink:title=" ">
<path fill="none" stroke="#63b8ff" d="M445.12,-9.5C453.58,-9.5 462.6,-9.5 470.73,-9.5"/>
<polygon fill="#63b8ff" stroke="#63b8ff" points="470.77,-13 480.77,-9.5 470.77,-6 470.77,-13"/>
</a>
</g>
</g>
<!-- Node9&#45;&gt;Node4 -->
<g id="edge10_Node000009_Node000004" class="edge">
<title>Node9&#45;&gt;Node4</title>
<g id="a_edge10_Node000009_Node000004"><a xlink:title=" ">
<path fill="none" stroke="#63b8ff" d="M516.02,-17.55C534.64,-26.62 565.28,-41.55 587.84,-52.54"/>
<polygon fill="#63b8ff" stroke="#63b8ff" points="586.43,-55.74 596.95,-56.98 589.49,-49.45 586.43,-55.74"/>
</a>
</g>
</g>
</g>
</svg>
