<?xml version="1.0" encoding="UTF-8" standalone="no"?>
<!DOCTYPE svg PUBLIC "-//W3C//DTD SVG 1.1//EN"
 "http://www.w3.org/Graphics/SVG/1.1/DTD/svg11.dtd">
<!-- Generated by graphviz version 2.43.0 (0)
 -->
<!-- Title: upload_user_data Pages: 1 -->
<svg width="882pt" height="245pt"
 viewBox="0.00 0.00 882.00 244.50" xmlns="http://www.w3.org/2000/svg" xmlns:xlink="http://www.w3.org/1999/xlink">
<g id="graph0" class="graph" transform="scale(1 1) rotate(0) translate(4 240.5)">
<title>upload_user_data</title>
<!-- Node1 -->
<g id="Node000001" class="node">
<title>Node1</title>
<g id="a_Node000001"><a xlink:title=" ">
<polygon fill="#999999" stroke="#666666" points="103,-113 0,-113 0,-94 103,-94 103,-113"/>
<text text-anchor="middle" x="51.5" y="-101" font-family="Helvetica,sans-Serif" font-size="10.00">upload_user_data</text>
</a>
</g>
</g>
<!-- Node2 -->
<g id="Node000002" class="node">
<title>Node2</title>
<g id="a_Node000002"><a xlink:href="filesystem_8c.html#a07610d3a6787ca02aa3d340759bcb8c9" target="_top" xlink:title=" ">
<polygon fill="white" stroke="#666666" points="636,-208 570,-208 570,-189 636,-189 636,-208"/>
<text text-anchor="middle" x="603" y="-196" font-family="Helvetica,sans-Serif" font-size="10.00">file_exists</text>
</a>
</g>
</g>
<!-- Node1&#45;&gt;Node2 -->
<g id="edge1_Node000001_Node000002" class="edge">
<title>Node1&#45;&gt;Node2</title>
<g id="a_edge1_Node000001_Node000002"><a xlink:title=" ">
<path fill="none" stroke="#63b8ff" d="M72.43,-113.07C89.75,-121.13 115.64,-132.58 139,-140.5 203.72,-162.45 220.5,-167.84 288,-178.5 384.2,-193.7 498.71,-197.43 559.36,-198.29"/>
<polygon fill="#63b8ff" stroke="#63b8ff" points="559.65,-201.79 569.69,-198.42 559.73,-194.79 559.65,-201.79"/>
</a>
</g>
</g>
<!-- Node3 -->
<g id="Node000003" class="node">
<title>Node3</title>
<g id="a_Node000003"><a xlink:href="filesystem_8c.html#aa109ff29a72d1beadda58bb3a54185b6" target="_top" xlink:title=" ">
<polygon fill="white" stroke="#666666" points="707,-208 672,-208 672,-189 707,-189 707,-208"/>
<text text-anchor="middle" x="689.5" y="-196" font-family="Helvetica,sans-Serif" font-size="10.00">stat</text>
</a>
</g>
</g>
<!-- Node1&#45;&gt;Node3 -->
<g id="edge15_Node000001_Node000003" class="edge">
<title>Node1&#45;&gt;Node3</title>
<g id="a_edge15_Node000001_Node000003"><a xlink:title=" ">
<path fill="none" stroke="#63b8ff" d="M62.33,-113.03C77.59,-127.34 108.4,-154.42 139,-170.5 224.48,-215.42 249.44,-236.5 346,-236.5 346,-236.5 346,-236.5 489,-236.5 554.88,-236.5 571.98,-233.02 636,-217.5 644.71,-215.39 653.97,-212.33 662.25,-209.27"/>
<polygon fill="#63b8ff" stroke="#63b8ff" points="663.68,-212.47 671.77,-205.62 661.17,-205.94 663.68,-212.47"/>
</a>
</g>
</g>
<!-- Node5 -->
<g id="Node000005" class="node">
<title>Node5</title>
<g id="a_Node000005"><a xlink:href="user__auth_8c.html#abd83d867ec7c814578d0f6d9a13f79f0" target="_top" xlink:title=" ">
<polygon fill="white" stroke="#666666" points="225,-132 166,-132 166,-113 225,-113 225,-132"/>
<text text-anchor="middle" x="195.5" y="-120" font-family="Helvetica,sans-Serif" font-size="10.00">get_user</text>
</a>
</g>
</g>
<!-- Node1&#45;&gt;Node5 -->
<g id="edge4_Node000001_Node000005" class="edge">
<title>Node1&#45;&gt;Node5</title>
<g id="a_edge4_Node000001_Node000005"><a xlink:title=" ">
<path fill="none" stroke="#63b8ff" d="M103.36,-110.31C120.6,-112.61 139.56,-115.15 155.7,-117.31"/>
<polygon fill="#63b8ff" stroke="#63b8ff" points="155.48,-120.81 165.85,-118.67 156.41,-113.87 155.48,-120.81"/>
</a>
</g>
</g>
<!-- Node11 -->
<g id="Node000011" class="node">
<title>Node11</title>
<g id="a_Node000011"><a xlink:href="user__auth_8c.html#a1cefb8275e8b8485dc7c3fdc3baa5377" target="_top" xlink:title=" ">
<polygon fill="white" stroke="#666666" points="252,-95 139,-95 139,-76 252,-76 252,-95"/>
<text text-anchor="middle" x="195.5" y="-83" font-family="Helvetica,sans-Serif" font-size="10.00">get_user_data_path</text>
</a>
</g>
</g>
<!-- Node1&#45;&gt;Node11 -->
<g id="edge14_Node000001_Node000011" class="edge">
<title>Node1&#45;&gt;Node11</title>
<g id="a_edge14_Node000001_Node000011"><a xlink:title=" ">
<path fill="none" stroke="#63b8ff" d="M103.36,-97.05C111.6,-96.01 120.23,-94.91 128.76,-93.83"/>
<polygon fill="#63b8ff" stroke="#63b8ff" points="129.22,-97.3 138.7,-92.57 128.34,-90.36 129.22,-97.3"/>
</a>
</g>
</g>
<!-- Node12 -->
<g id="Node000012" class="node">
<title>Node12</title>
<g id="a_Node000012"><a xlink:href="filesystem_8c.html#a1038e83eda006a16d81aba0bda5c3334" target="_top" xlink:title=" ">
<polygon fill="white" stroke="#666666" points="217.5,-58 173.5,-58 173.5,-39 217.5,-39 217.5,-58"/>
<text text-anchor="middle" x="195.5" y="-46" font-family="Helvetica,sans-Serif" font-size="10.00">touch</text>
</a>
</g>
</g>
<!-- Node1&#45;&gt;Node12 -->
<g id="edge16_Node000001_Node000012" class="edge">
<title>Node1&#45;&gt;Node12</title>
<g id="a_edge16_Node000001_Node000012"><a xlink:title=" ">
<path fill="none" stroke="#63b8ff" d="M73.26,-93.99C90.65,-86.18 116.21,-75.05 139,-66.5 146.87,-63.55 155.47,-60.62 163.49,-58.01"/>
<polygon fill="#63b8ff" stroke="#63b8ff" points="164.8,-61.27 173.26,-54.89 162.67,-54.6 164.8,-61.27"/>
</a>
</g>
</g>
<!-- Node13 -->
<g id="Node000013" class="node">
<title>Node13</title>
<g id="a_Node000013"><a xlink:href="filesystem_8c.html#a8e5a51c709e9d6229c1974435475292a" target="_top" xlink:title=" ">
<polygon fill="white" stroke="#666666" points="378,-19 316,-19 316,0 378,0 378,-19"/>
<text text-anchor="middle" x="347" y="-7" font-family="Helvetica,sans-Serif" font-size="10.00">write_file</text>
</a>
</g>
</g>
<!-- Node1&#45;&gt;Node13 -->
<g id="edge18_Node000001_Node000013" class="edge">
<title>Node1&#45;&gt;Node13</title>
<g id="a_edge18_Node000001_Node000013"><a xlink:title=" ">
<path fill="none" stroke="#63b8ff" d="M60.11,-93.95C73.86,-77.48 104.63,-44.11 139,-29.5 193.33,-6.4 262.71,-4.65 305.75,-6.4"/>
<polygon fill="#63b8ff" stroke="#63b8ff" points="305.67,-9.9 315.83,-6.9 306.01,-2.91 305.67,-9.9"/>
</a>
</g>
</g>
<!-- Node2&#45;&gt;Node3 -->
<g id="edge2_Node000002_Node000003" class="edge">
<title>Node2&#45;&gt;Node3</title>
<g id="a_edge2_Node000002_Node000003"><a xlink:title=" ">
<path fill="none" stroke="#63b8ff" d="M636.43,-198.5C644.75,-198.5 653.6,-198.5 661.61,-198.5"/>
<polygon fill="#63b8ff" stroke="#63b8ff" points="661.87,-202 671.87,-198.5 661.87,-195 661.87,-202"/>
</a>
</g>
</g>
<!-- Node4 -->
<g id="Node000004" class="node">
<title>Node4</title>
<g id="a_Node000004"><a xlink:href="utilities_2src_2log_8c.html#a4b048be24c6c7f622a6bc6c6bf8ac435" target="_top" xlink:title=" ">
<polygon fill="white" stroke="#666666" points="874,-151 743,-151 743,-132 874,-132 874,-151"/>
<text text-anchor="middle" x="808.5" y="-139" font-family="Helvetica,sans-Serif" font-size="10.00">get_current_task_name</text>
</a>
</g>
</g>
<!-- Node3&#45;&gt;Node4 -->
<g id="edge3_Node000003_Node000004" class="edge">
<title>Node3&#45;&gt;Node4</title>
<g id="a_edge3_Node000003_Node000004"><a xlink:title=" ">
<path fill="none" stroke="#63b8ff" d="M707.02,-190.45C725.64,-181.38 756.28,-166.45 778.84,-155.46"/>
<polygon fill="#63b8ff" stroke="#63b8ff" points="780.49,-158.55 787.95,-151.02 777.43,-152.26 780.49,-158.55"/>
</a>
</g>
</g>
<!-- Node6 -->
<g id="Node000006" class="node">
<title>Node6</title>
<g id="a_Node000006"><a xlink:href="user__auth_8c.html#aed0ce6c01378a5dfdbf8faa9bf3e9460" target="_top" xlink:title=" ">
<polygon fill="white" stroke="#666666" points="406,-56 288,-56 288,-37 406,-37 406,-56"/>
<text text-anchor="middle" x="347" y="-44" font-family="Helvetica,sans-Serif" font-size="10.00">get_user_token_path</text>
</a>
</g>
</g>
<!-- Node5&#45;&gt;Node6 -->
<g id="edge5_Node000005_Node000006" class="edge">
<title>Node5&#45;&gt;Node6</title>
<g id="a_edge5_Node000005_Node000006"><a xlink:title=" ">
<path fill="none" stroke="#63b8ff" d="M225.16,-115.18C234.1,-112.25 243.77,-108.39 252,-103.5 270.66,-92.42 269.69,-82.16 288,-70.5 294.19,-66.56 301.14,-63.03 308.02,-59.96"/>
<polygon fill="#63b8ff" stroke="#63b8ff" points="309.41,-63.18 317.28,-56.09 306.71,-56.72 309.41,-63.18"/>
</a>
</g>
</g>
<!-- Node7 -->
<g id="Node000007" class="node">
<title>Node7</title>
<g id="a_Node000007"><a xlink:href="filesystem_8c.html#ae37338ef034a23a8068df8421a5e3dfd" target="_top" xlink:title=" ">
<polygon fill="white" stroke="#666666" points="517.5,-132 458.5,-132 458.5,-113 517.5,-113 517.5,-132"/>
<text text-anchor="middle" x="488" y="-120" font-family="Helvetica,sans-Serif" font-size="10.00">open_dir</text>
</a>
</g>
</g>
<!-- Node5&#45;&gt;Node7 -->
<g id="edge6_Node000005_Node000007" class="edge">
<title>Node5&#45;&gt;Node7</title>
<g id="a_edge6_Node000005_Node000007"><a xlink:title=" ">
<path fill="none" stroke="#63b8ff" d="M225.15,-122.5C277.54,-122.5 388.85,-122.5 448.06,-122.5"/>
<polygon fill="#63b8ff" stroke="#63b8ff" points="448.14,-126 458.14,-122.5 448.14,-119 448.14,-126"/>
</a>
</g>
</g>
<!-- Node8 -->
<g id="Node000008" class="node">
<title>Node8</title>
<g id="a_Node000008"><a xlink:href="filesystem_8c.html#a7e4306f2cf5a6c7ab054e334829a4b9d" target="_top" xlink:title=" ">
<polygon fill="white" stroke="#666666" points="631,-94 575,-94 575,-75 631,-75 631,-94"/>
<text text-anchor="middle" x="603" y="-82" font-family="Helvetica,sans-Serif" font-size="10.00">read_dir</text>
</a>
</g>
</g>
<!-- Node5&#45;&gt;Node8 -->
<g id="edge8_Node000005_Node000008" class="edge">
<title>Node5&#45;&gt;Node8</title>
<g id="a_edge8_Node000005_Node000008"><a xlink:title=" ">
<path fill="none" stroke="#63b8ff" d="M225.01,-119.83C296.7,-113.11 484.43,-95.52 564.71,-87.99"/>
<polygon fill="#63b8ff" stroke="#63b8ff" points="565.23,-91.46 574.86,-87.04 564.57,-84.49 565.23,-91.46"/>
</a>
</g>
</g>
<!-- Node9 -->
<g id="Node000009" class="node">
<title>Node9</title>
<g id="a_Node000009"><a xlink:href="filesystem_8c.html#ab92b1f0beb3be903677f3293d0430b62" target="_top" xlink:title=" ">
<polygon fill="white" stroke="#666666" points="376.5,-170 317.5,-170 317.5,-151 376.5,-151 376.5,-170"/>
<text text-anchor="middle" x="347" y="-158" font-family="Helvetica,sans-Serif" font-size="10.00">read_file</text>
</a>
</g>
</g>
<!-- Node5&#45;&gt;Node9 -->
<g id="edge10_Node000005_Node000009" class="edge">
<title>Node5&#45;&gt;Node9</title>
<g id="a_edge10_Node000005_Node000009"><a xlink:title=" ">
<path fill="none" stroke="#63b8ff" d="M225.33,-129.83C248.7,-135.77 281.85,-144.19 307.49,-150.71"/>
<polygon fill="#63b8ff" stroke="#63b8ff" points="306.71,-154.12 317.26,-153.2 308.43,-147.34 306.71,-154.12"/>
</a>
</g>
</g>
<!-- Node7&#45;&gt;Node4 -->
<g id="edge7_Node000007_Node000004" class="edge">
<title>Node7&#45;&gt;Node4</title>
<g id="a_edge7_Node000007_Node000004"><a xlink:title=" ">
<path fill="none" stroke="#63b8ff" d="M517.55,-124.2C565.47,-127.06 663.61,-132.92 732.39,-137.02"/>
<polygon fill="#63b8ff" stroke="#63b8ff" points="732.54,-140.53 742.73,-137.64 732.96,-133.55 732.54,-140.53"/>
</a>
</g>
</g>
<!-- Node8&#45;&gt;Node4 -->
<g id="edge9_Node000008_Node000004" class="edge">
<title>Node8&#45;&gt;Node4</title>
<g id="a_edge9_Node000008_Node000004"><a xlink:title=" ">
<path fill="none" stroke="#63b8ff" d="M631.27,-90.17C652.13,-94.67 681.54,-101.37 707,-108.5 728.29,-114.46 751.77,-122.11 770.69,-128.55"/>
<polygon fill="#63b8ff" stroke="#63b8ff" points="769.81,-131.94 780.4,-131.88 772.08,-125.32 769.81,-131.94"/>
</a>
</g>
</g>
<!-- Node10 -->
<g id="Node000010" class="node">
<title>Node10</title>
<g id="a_Node000010"><a xlink:href="filesystem_8c.html#ae0599d66eddc7fdf656fca874aa5f1d1" target="_top" xlink:title=" ">
<polygon fill="white" stroke="#666666" points="534,-170 442,-170 442,-151 534,-151 534,-170"/>
<text text-anchor="middle" x="488" y="-158" font-family="Helvetica,sans-Serif" font-size="10.00">read_file_offset</text>
</a>
</g>
</g>
<!-- Node9&#45;&gt;Node10 -->
<g id="edge11_Node000009_Node000010" class="edge">
<title>Node9&#45;&gt;Node10</title>
<g id="a_edge11_Node000009_Node000010"><a xlink:title=" ">
<path fill="none" stroke="#63b8ff" d="M376.8,-160.5C392.64,-160.5 412.82,-160.5 431.58,-160.5"/>
<polygon fill="#63b8ff" stroke="#63b8ff" points="431.82,-164 441.82,-160.5 431.82,-157 431.82,-164"/>
</a>
</g>
</g>
<!-- Node10&#45;&gt;Node2 -->
<g id="edge12_Node000010_Node000002" class="edge">
<title>Node10&#45;&gt;Node2</title>
<g id="a_edge12_Node000010_Node000002"><a xlink:title=" ">
<path fill="none" stroke="#63b8ff" d="M517.51,-170.09C531.57,-174.81 548.71,-180.58 563.87,-185.68"/>
<polygon fill="#63b8ff" stroke="#63b8ff" points="562.9,-189.04 573.49,-188.91 565.13,-182.41 562.9,-189.04"/>
</a>
</g>
</g>
<!-- Node10&#45;&gt;Node4 -->
<g id="edge13_Node000010_Node000004" class="edge">
<title>Node10&#45;&gt;Node4</title>
<g id="a_edge13_Node000010_Node000004"><a xlink:title=" ">
<path fill="none" stroke="#63b8ff" d="M534.3,-157.8C585.95,-154.72 671.19,-149.63 732.73,-145.96"/>
<polygon fill="#63b8ff" stroke="#63b8ff" points="733.01,-149.45 742.78,-145.36 732.59,-142.46 733.01,-149.45"/>
</a>
</g>
</g>
<!-- Node12&#45;&gt;Node13 -->
<g id="edge17_Node000012_Node000013" class="edge">
<title>Node12&#45;&gt;Node13</title>
<g id="a_edge17_Node000012_Node000013"><a xlink:title=" ">
<path fill="none" stroke="#63b8ff" d="M217.6,-42.99C240.47,-37.03 277.49,-27.37 305.92,-19.95"/>
<polygon fill="#63b8ff" stroke="#63b8ff" points="307.17,-23.25 315.97,-17.33 305.41,-16.47 307.17,-23.25"/>
</a>
</g>
</g>
</g>
</svg>
