<?xml version="1.0" encoding="UTF-8" standalone="no"?>
<!DOCTYPE svg PUBLIC "-//W3C//DTD SVG 1.1//EN"
 "http://www.w3.org/Graphics/SVG/1.1/DTD/svg11.dtd">
<!-- Generated by graphviz version 12.1.2 (20240928.0832)
 -->
<!-- Title: user_auth.c Pages: 1 -->
<svg width="539pt" height="196pt"
 viewBox="0.00 0.00 539.38 196.00" xmlns="http://www.w3.org/2000/svg" xmlns:xlink="http://www.w3.org/1999/xlink">
<g id="graph0" class="graph" transform="scale(1 1) rotate(0) translate(4 192)">
<title>user_auth.c</title>
<!-- Node1 -->
<g id="Node000001" class="node">
<title>Node1</title>
<g id="a_Node000001"><a xlink:title=" ">
<polygon fill="#999999" stroke="#666666" points="370.75,-188 303.75,-188 303.75,-168 370.75,-168 370.75,-188"/>
<text text-anchor="middle" x="337.25" y="-174.5" font-family="Helvetica,sans-Serif" font-size="10.00">user_auth.c</text>
</a>
</g>
</g>
<!-- Node2 -->
<g id="Node000002" class="node">
<title>Node2</title>
<g id="a_Node000002"><a xlink:title=" ">
<polygon fill="#e0e0e0" stroke="#999999" points="267.38,-132 219.12,-132 219.12,-112 267.38,-112 267.38,-132"/>
<text text-anchor="middle" x="243.25" y="-118.5" font-family="Helvetica,sans-Serif" font-size="10.00">string.h</text>
</a>
</g>
</g>
<!-- Node1&#45;&gt;Node2 -->
<g id="edge1_Node000001_Node000002" class="edge">
<title>Node1&#45;&gt;Node2</title>
<g id="a_edge1_Node000001_Node000002"><a xlink:title=" ">
<path fill="none" stroke="#63b8ff" d="M320.88,-167.59C306.68,-159.44 285.87,-147.48 269.37,-138"/>
<polygon fill="#63b8ff" stroke="#63b8ff" points="271.48,-135.18 261.06,-133.23 267.99,-141.25 271.48,-135.18"/>
</a>
</g>
</g>
<!-- Node3 -->
<g id="Node000003" class="node">
<title>Node3</title>
<g id="a_Node000003"><a xlink:href="stdio_8h.html" target="_top" xlink:title=" ">
<polygon fill="white" stroke="#666666" points="330.88,-132 285.62,-132 285.62,-112 330.88,-112 330.88,-132"/>
<text text-anchor="middle" x="308.25" y="-118.5" font-family="Helvetica,sans-Serif" font-size="10.00">stdio.h</text>
</a>
</g>
</g>
<!-- Node1&#45;&gt;Node3 -->
<g id="edge2_Node000001_Node000003" class="edge">
<title>Node1&#45;&gt;Node3</title>
<g id="a_edge2_Node000001_Node000003"><a xlink:title=" ">
<path fill="none" stroke="#63b8ff" d="M332.2,-167.59C328.46,-160.63 323.23,-150.89 318.61,-142.29"/>
<polygon fill="#63b8ff" stroke="#63b8ff" points="321.77,-140.79 313.96,-133.63 315.61,-144.1 321.77,-140.79"/>
</a>
</g>
</g>
<!-- Node4 -->
<g id="Node000004" class="node">
<title>Node4</title>
<g id="a_Node000004"><a xlink:href="log_8h.html" target="_top" xlink:title=" ">
<polygon fill="white" stroke="#666666" points="385.75,-132 348.75,-132 348.75,-112 385.75,-112 385.75,-132"/>
<text text-anchor="middle" x="367.25" y="-118.5" font-family="Helvetica,sans-Serif" font-size="10.00">log.h</text>
</a>
</g>
</g>
<!-- Node1&#45;&gt;Node4 -->
<g id="edge3_Node000001_Node000004" class="edge">
<title>Node1&#45;&gt;Node4</title>
<g id="a_edge3_Node000001_Node000004"><a xlink:title=" ">
<path fill="none" stroke="#63b8ff" d="M342.48,-167.59C346.35,-160.63 351.76,-150.89 356.53,-142.29"/>
<polygon fill="#63b8ff" stroke="#63b8ff" points="359.55,-144.06 361.35,-133.62 353.43,-140.66 359.55,-144.06"/>
</a>
</g>
</g>
<!-- Node9 -->
<g id="Node000009" class="node">
<title>Node9</title>
<g id="a_Node000009"><a xlink:href="user__auth_8h.html" target="_top" xlink:title=" ">
<polygon fill="white" stroke="#666666" points="470.75,-132 403.75,-132 403.75,-112 470.75,-112 470.75,-132"/>
<text text-anchor="middle" x="437.25" y="-118.5" font-family="Helvetica,sans-Serif" font-size="10.00">user_auth.h</text>
</a>
</g>
</g>
<!-- Node1&#45;&gt;Node9 -->
<g id="edge8_Node000001_Node000009" class="edge">
<title>Node1&#45;&gt;Node9</title>
<g id="a_edge8_Node000001_Node000009"><a xlink:title=" ">
<path fill="none" stroke="#63b8ff" d="M354.67,-167.59C369.92,-159.36 392.33,-147.26 409.96,-137.74"/>
<polygon fill="#63b8ff" stroke="#63b8ff" points="411.23,-141.03 418.36,-133.2 407.9,-134.87 411.23,-141.03"/>
</a>
</g>
</g>
<!-- Node5 -->
<g id="Node000005" class="node">
<title>Node5</title>
<g id="a_Node000005"><a xlink:href="telemetry_8h.html" target="_top" xlink:title=" ">
<polygon fill="white" stroke="#666666" points="136.25,-76 72.25,-76 72.25,-56 136.25,-56 136.25,-76"/>
<text text-anchor="middle" x="104.25" y="-62.5" font-family="Helvetica,sans-Serif" font-size="10.00">telemetry.h</text>
</a>
</g>
</g>
<!-- Node4&#45;&gt;Node5 -->
<g id="edge4_Node000004_Node000005" class="edge">
<title>Node4&#45;&gt;Node5</title>
<g id="a_edge4_Node000004_Node000005"><a xlink:title=" ">
<path fill="none" stroke="#63b8ff" d="M348.46,-114.38C345.73,-113.52 342.93,-112.7 340.25,-112 273.88,-94.69 195.4,-81.05 147.75,-73.51"/>
<polygon fill="#63b8ff" stroke="#63b8ff" points="148.53,-70.09 138.11,-72 147.45,-77.01 148.53,-70.09"/>
</a>
</g>
</g>
<!-- Node8 -->
<g id="Node000008" class="node">
<title>Node8</title>
<g id="a_Node000008"><a xlink:title=" ">
<polygon fill="#e0e0e0" stroke="#999999" points="465.12,-20 409.38,-20 409.38,0 465.12,0 465.12,-20"/>
<text text-anchor="middle" x="437.25" y="-6.5" font-family="Helvetica,sans-Serif" font-size="10.00">stdbool.h</text>
</a>
</g>
</g>
<!-- Node4&#45;&gt;Node8 -->
<g id="edge7_Node000004_Node000008" class="edge">
<title>Node4&#45;&gt;Node8</title>
<g id="a_edge7_Node000004_Node000008"><a xlink:title=" ">
<path fill="none" stroke="#63b8ff" d="M373.22,-111.62C384.69,-93.6 410.01,-53.81 425.14,-30.02"/>
<polygon fill="#63b8ff" stroke="#63b8ff" points="428.07,-31.95 430.48,-21.63 422.16,-28.19 428.07,-31.95"/>
</a>
</g>
</g>
<!-- Node6 -->
<g id="Node000006" class="node">
<title>Node6</title>
<g id="a_Node000006"><a xlink:title=" ">
<polygon fill="#e0e0e0" stroke="#999999" points="139.62,-20 68.88,-20 68.88,0 139.62,0 139.62,-20"/>
<text text-anchor="middle" x="104.25" y="-6.5" font-family="Helvetica,sans-Serif" font-size="10.00">FreeRTOS.h</text>
</a>
</g>
</g>
<!-- Node5&#45;&gt;Node6 -->
<g id="edge5_Node000005_Node000006" class="edge">
<title>Node5&#45;&gt;Node6</title>
<g id="a_edge5_Node000005_Node000006"><a xlink:title=" ">
<path fill="none" stroke="#63b8ff" d="M104.25,-55.59C104.25,-49.01 104.25,-39.96 104.25,-31.73"/>
<polygon fill="#63b8ff" stroke="#63b8ff" points="107.75,-31.81 104.25,-21.81 100.75,-31.81 107.75,-31.81"/>
</a>
</g>
</g>
<!-- Node7 -->
<g id="Node000007" class="node">
<title>Node7</title>
<g id="a_Node000007"><a xlink:title=" ">
<polygon fill="#e0e0e0" stroke="#999999" points="50.5,-20 0,-20 0,0 50.5,0 50.5,-20"/>
<text text-anchor="middle" x="25.25" y="-6.5" font-family="Helvetica,sans-Serif" font-size="10.00">queue.h</text>
</a>
</g>
</g>
<!-- Node5&#45;&gt;Node7 -->
<g id="edge6_Node000005_Node000007" class="edge">
<title>Node5&#45;&gt;Node7</title>
<g id="a_edge6_Node000005_Node000007"><a xlink:title=" ">
<path fill="none" stroke="#63b8ff" d="M90.49,-55.59C78.89,-47.67 62.05,-36.16 48.39,-26.82"/>
<polygon fill="#63b8ff" stroke="#63b8ff" points="50.6,-24.09 40.37,-21.33 46.65,-29.87 50.6,-24.09"/>
</a>
</g>
</g>
<!-- Node9&#45;&gt;Node8 -->
<g id="edge9_Node000009_Node000008" class="edge">
<title>Node9&#45;&gt;Node8</title>
<g id="a_edge9_Node000009_Node000008"><a xlink:title=" ">
<path fill="none" stroke="#63b8ff" d="M437.25,-111.62C437.25,-94.01 437.25,-55.59 437.25,-31.65"/>
<polygon fill="#63b8ff" stroke="#63b8ff" points="440.75,-31.87 437.25,-21.87 433.75,-31.87 440.75,-31.87"/>
</a>
</g>
</g>
<!-- Node10 -->
<g id="Node000010" class="node">
<title>Node10</title>
<g id="a_Node000010"><a xlink:title=" ">
<polygon fill="#e0e0e0" stroke="#999999" points="531.38,-20 483.12,-20 483.12,0 531.38,0 531.38,-20"/>
<text text-anchor="middle" x="507.25" y="-6.5" font-family="Helvetica,sans-Serif" font-size="10.00">stdint.h</text>
</a>
</g>
</g>
<!-- Node9&#45;&gt;Node10 -->
<g id="edge10_Node000009_Node000010" class="edge">
<title>Node9&#45;&gt;Node10</title>
<g id="a_edge10_Node000009_Node000010"><a xlink:title=" ">
<path fill="none" stroke="#63b8ff" d="M443.22,-111.62C454.69,-93.6 480.01,-53.81 495.14,-30.02"/>
<polygon fill="#63b8ff" stroke="#63b8ff" points="498.07,-31.95 500.48,-21.63 492.16,-28.19 498.07,-31.95"/>
</a>
</g>
</g>
<!-- Node11 -->
<g id="Node000011" class="node">
<title>Node11</title>
<g id="a_Node000011"><a xlink:href="filesystem_8h.html" target="_top" xlink:title=" ">
<polygon fill="white" stroke="#666666" points="339.88,-76 270.62,-76 270.62,-56 339.88,-56 339.88,-76"/>
<text text-anchor="middle" x="305.25" y="-62.5" font-family="Helvetica,sans-Serif" font-size="10.00">filesystem.h</text>
</a>
</g>
</g>
<!-- Node9&#45;&gt;Node11 -->
<g id="edge11_Node000009_Node000011" class="edge">
<title>Node9&#45;&gt;Node11</title>
<g id="a_edge11_Node000009_Node000011"><a xlink:title=" ">
<path fill="none" stroke="#63b8ff" d="M414.26,-111.59C393.47,-103.09 362.6,-90.46 339.01,-80.81"/>
<polygon fill="#63b8ff" stroke="#63b8ff" points="340.4,-77.6 329.82,-77.05 337.75,-84.08 340.4,-77.6"/>
</a>
</g>
</g>
<!-- Node11&#45;&gt;Node6 -->
<g id="edge12_Node000011_Node000006" class="edge">
<title>Node11&#45;&gt;Node6</title>
<g id="a_edge12_Node000011_Node000006"><a xlink:title=" ">
<path fill="none" stroke="#63b8ff" d="M270.24,-55.59C237.01,-46.67 186.86,-33.19 150.38,-23.39"/>
<polygon fill="#63b8ff" stroke="#63b8ff" points="151.56,-20.09 141,-20.87 149.75,-26.85 151.56,-20.09"/>
</a>
</g>
</g>
<!-- Node11&#45;&gt;Node7 -->
<g id="edge13_Node000011_Node000007" class="edge">
<title>Node11&#45;&gt;Node7</title>
<g id="a_edge13_Node000011_Node000007"><a xlink:title=" ">
<path fill="none" stroke="#63b8ff" d="M270.2,-59.36C224.56,-51.83 142.07,-37.65 61.63,-20.17"/>
<polygon fill="#63b8ff" stroke="#63b8ff" points="62.81,-16.84 52.29,-18.12 61.31,-23.68 62.81,-16.84"/>
</a>
</g>
</g>
<!-- Node11&#45;&gt;Node8 -->
<g id="edge19_Node000011_Node000008" class="edge">
<title>Node11&#45;&gt;Node8</title>
<g id="a_edge19_Node000011_Node000008"><a xlink:title=" ">
<path fill="none" stroke="#63b8ff" d="M328.24,-55.59C349.03,-47.09 379.9,-34.46 403.49,-24.81"/>
<polygon fill="#63b8ff" stroke="#63b8ff" points="404.75,-28.08 412.68,-21.05 402.1,-21.6 404.75,-28.08"/>
</a>
</g>
</g>
<!-- Node11&#45;&gt;Node10 -->
<g id="edge18_Node000011_Node000010" class="edge">
<title>Node11&#45;&gt;Node10</title>
<g id="a_edge18_Node000011_Node000010"><a xlink:title=" ">
<path fill="none" stroke="#63b8ff" d="M340.22,-55.75C372.14,-47.3 420.91,-34.35 471.85,-20.64"/>
<polygon fill="#63b8ff" stroke="#63b8ff" points="472.54,-24.08 481.28,-18.09 470.72,-17.32 472.54,-24.08"/>
</a>
</g>
</g>
<!-- Node12 -->
<g id="Node000012" class="node">
<title>Node12</title>
<g id="a_Node000012"><a xlink:title=" ">
<polygon fill="#e0e0e0" stroke="#999999" points="391.75,-20 348.75,-20 348.75,0 391.75,0 391.75,-20"/>
<text text-anchor="middle" x="370.25" y="-6.5" font-family="Helvetica,sans-Serif" font-size="10.00">task.h</text>
</a>
</g>
</g>
<!-- Node11&#45;&gt;Node12 -->
<g id="edge14_Node000011_Node000012" class="edge">
<title>Node11&#45;&gt;Node12</title>
<g id="a_edge14_Node000011_Node000012"><a xlink:title=" ">
<path fill="none" stroke="#63b8ff" d="M316.57,-55.59C325.89,-47.85 339.33,-36.69 350.43,-27.47"/>
<polygon fill="#63b8ff" stroke="#63b8ff" points="352.44,-30.35 357.89,-21.27 347.96,-24.96 352.44,-30.35"/>
</a>
</g>
</g>
<!-- Node13 -->
<g id="Node000013" class="node">
<title>Node13</title>
<g id="a_Node000013"><a xlink:title=" ">
<polygon fill="#e0e0e0" stroke="#999999" points="187,-20 157.5,-20 157.5,0 187,0 187,-20"/>
<text text-anchor="middle" x="172.25" y="-6.5" font-family="Helvetica,sans-Serif" font-size="10.00">ff.h</text>
</a>
</g>
</g>
<!-- Node11&#45;&gt;Node13 -->
<g id="edge15_Node000011_Node000013" class="edge">
<title>Node11&#45;&gt;Node13</title>
<g id="a_edge15_Node000011_Node000013"><a xlink:title=" ">
<path fill="none" stroke="#63b8ff" d="M282.08,-55.59C258.57,-46.05 222.25,-31.3 197.88,-21.41"/>
<polygon fill="#63b8ff" stroke="#63b8ff" points="199.29,-18.2 188.71,-17.68 196.66,-24.69 199.29,-18.2"/>
</a>
</g>
</g>
<!-- Node14 -->
<g id="Node000014" class="node">
<title>Node14</title>
<g id="a_Node000014"><a xlink:title=" ">
<polygon fill="#e0e0e0" stroke="#999999" points="261.5,-20 205,-20 205,0 261.5,0 261.5,-20"/>
<text text-anchor="middle" x="233.25" y="-6.5" font-family="Helvetica,sans-Serif" font-size="10.00">semphr.h</text>
</a>
</g>
</g>
<!-- Node11&#45;&gt;Node14 -->
<g id="edge16_Node000011_Node000014" class="edge">
<title>Node11&#45;&gt;Node14</title>
<g id="a_edge16_Node000011_Node000014"><a xlink:title=" ">
<path fill="none" stroke="#63b8ff" d="M292.71,-55.59C282.28,-47.77 267.2,-36.46 254.84,-27.19"/>
<polygon fill="#63b8ff" stroke="#63b8ff" points="256.96,-24.41 246.86,-21.21 252.76,-30.01 256.96,-24.41"/>
</a>
</g>
</g>
<!-- Node15 -->
<g id="Node000015" class="node">
<title>Node15</title>
<g id="a_Node000015"><a xlink:title=" ">
<polygon fill="#e0e0e0" stroke="#999999" points="330.88,-20 279.62,-20 279.62,0 330.88,0 330.88,-20"/>
<text text-anchor="middle" x="305.25" y="-6.5" font-family="Helvetica,sans-Serif" font-size="10.00">stddef.h</text>
</a>
</g>
</g>
<!-- Node11&#45;&gt;Node15 -->
<g id="edge17_Node000011_Node000015" class="edge">
<title>Node11&#45;&gt;Node15</title>
<g id="a_edge17_Node000011_Node000015"><a xlink:title=" ">
<path fill="none" stroke="#63b8ff" d="M305.25,-55.59C305.25,-49.01 305.25,-39.96 305.25,-31.73"/>
<polygon fill="#63b8ff" stroke="#63b8ff" points="308.75,-31.81 305.25,-21.81 301.75,-31.81 308.75,-31.81"/>
</a>
</g>
</g>
</g>
</svg>
