<?xml version="1.0" encoding="UTF-8" standalone="no"?>
<!DOCTYPE svg PUBLIC "-//W3C//DTD SVG 1.1//EN"
 "http://www.w3.org/Graphics/SVG/1.1/DTD/svg11.dtd">
<!-- Generated by graphviz version 2.43.0 (0)
 -->
<!-- Title: user_auth_test Pages: 1 -->
<svg width="1009pt" height="618pt"
 viewBox="0.00 0.00 1009.00 617.75" xmlns="http://www.w3.org/2000/svg" xmlns:xlink="http://www.w3.org/1999/xlink">
<g id="graph0" class="graph" transform="scale(1 1) rotate(0) translate(4 613.75)">
<title>user_auth_test</title>
<!-- Node1 -->
<g id="Node000001" class="node">
<title>Node1</title>
<g id="a_Node000001"><a xlink:title=" ">
<polygon fill="#999999" stroke="#666666" points="89,-287.75 0,-287.75 0,-268.75 89,-268.75 89,-287.75"/>
<text text-anchor="middle" x="44.5" y="-275.75" font-family="Helvetica,sans-Serif" font-size="10.00">user_auth_test</text>
</a>
</g>
</g>
<!-- Node2 -->
<g id="Node000002" class="node">
<title>Node2</title>
<g id="a_Node000002"><a xlink:href="user__auth_8c.html#a2e45341289a64a026113badabc8369cc" target="_top" xlink:title=" ">
<polygon fill="white" stroke="#666666" points="207,-495.75 146,-495.75 146,-476.75 207,-476.75 207,-495.75"/>
<text text-anchor="middle" x="176.5" y="-483.75" font-family="Helvetica,sans-Serif" font-size="10.00">add_user</text>
</a>
</g>
</g>
<!-- Node1&#45;&gt;Node2 -->
<g id="edge1_Node000001_Node000002" class="edge">
<title>Node1&#45;&gt;Node2</title>
<g id="a_edge1_Node000001_Node000002"><a xlink:title=" ">
<path fill="none" stroke="#63b8ff" d="M51.46,-287.89C64.66,-309.25 97.37,-362.12 125,-406.25 138.33,-427.54 153.77,-451.95 164.03,-468.15"/>
<polygon fill="#63b8ff" stroke="#63b8ff" points="161.1,-470.08 169.41,-476.65 167.02,-466.33 161.1,-470.08"/>
</a>
</g>
</g>
<!-- Node7 -->
<g id="Node000007" class="node">
<title>Node7</title>
<g id="a_Node000007"><a xlink:href="user__auth_8c.html#ab7d59518267fd7616ff486aa9054d753" target="_top" xlink:title=" ">
<polygon fill="white" stroke="#666666" points="372.5,-419.75 268.5,-419.75 268.5,-400.75 372.5,-400.75 372.5,-419.75"/>
<text text-anchor="middle" x="320.5" y="-407.75" font-family="Helvetica,sans-Serif" font-size="10.00">get_user_dir_path</text>
</a>
</g>
</g>
<!-- Node1&#45;&gt;Node7 -->
<g id="edge26_Node000001_Node000007" class="edge">
<title>Node1&#45;&gt;Node7</title>
<g id="a_edge26_Node000001_Node000007"><a xlink:title=" ">
<path fill="none" stroke="#63b8ff" d="M52.97,-287.96C65.89,-304.1 94.04,-336.45 125,-354.25 166.29,-377.97 218.36,-392.27 258.24,-400.48"/>
<polygon fill="#63b8ff" stroke="#63b8ff" points="257.61,-403.92 268.1,-402.43 258.97,-397.05 257.61,-403.92"/>
</a>
</g>
</g>
<!-- Node11 -->
<g id="Node000011" class="node">
<title>Node11</title>
<g id="a_Node000011"><a xlink:href="filesystem_8c.html#aedf13aa9daded9085cdb13bc1560947b" target="_top" xlink:title=" ">
<polygon fill="white" stroke="#666666" points="192.5,-268.75 160.5,-268.75 160.5,-249.75 192.5,-249.75 192.5,-268.75"/>
<text text-anchor="middle" x="176.5" y="-256.75" font-family="Helvetica,sans-Serif" font-size="10.00">cat</text>
</a>
</g>
</g>
<!-- Node1&#45;&gt;Node11 -->
<g id="edge11_Node000001_Node000011" class="edge">
<title>Node1&#45;&gt;Node11</title>
<g id="a_edge11_Node000001_Node000011"><a xlink:title=" ">
<path fill="none" stroke="#63b8ff" d="M89.15,-271.87C109.55,-268.88 133.11,-265.44 150.46,-262.9"/>
<polygon fill="#63b8ff" stroke="#63b8ff" points="150.99,-266.36 160.38,-261.46 149.98,-259.44 150.99,-266.36"/>
</a>
</g>
</g>
<!-- Node16 -->
<g id="Node000016" class="node">
<title>Node16</title>
<g id="a_Node000016"><a xlink:href="user__auth_8c.html#a7b721ad996f2f06a51dc10384adec934" target="_top" xlink:title=" ">
<polygon fill="white" stroke="#666666" points="213.5,-344.75 139.5,-344.75 139.5,-325.75 213.5,-325.75 213.5,-344.75"/>
<text text-anchor="middle" x="176.5" y="-332.75" font-family="Helvetica,sans-Serif" font-size="10.00">delete_user</text>
</a>
</g>
</g>
<!-- Node1&#45;&gt;Node16 -->
<g id="edge18_Node000001_Node000016" class="edge">
<title>Node1&#45;&gt;Node16</title>
<g id="a_edge18_Node000001_Node000016"><a xlink:title=" ">
<path fill="none" stroke="#63b8ff" d="M67.26,-287.79C88.35,-297.03 120.56,-311.16 144.36,-321.59"/>
<polygon fill="#63b8ff" stroke="#63b8ff" points="143.11,-324.86 153.67,-325.67 145.92,-318.45 143.11,-324.86"/>
</a>
</g>
</g>
<!-- Node18 -->
<g id="Node000018" class="node">
<title>Node18</title>
<g id="a_Node000018"><a xlink:href="user__auth_8c.html#a1cefb8275e8b8485dc7c3fdc3baa5377" target="_top" xlink:title=" ">
<polygon fill="white" stroke="#666666" points="377,-193.75 264,-193.75 264,-174.75 377,-174.75 377,-193.75"/>
<text text-anchor="middle" x="320.5" y="-181.75" font-family="Helvetica,sans-Serif" font-size="10.00">get_user_data_path</text>
</a>
</g>
</g>
<!-- Node1&#45;&gt;Node18 -->
<g id="edge25_Node000001_Node000018" class="edge">
<title>Node1&#45;&gt;Node18</title>
<g id="a_edge25_Node000001_Node000018"><a xlink:title=" ">
<path fill="none" stroke="#63b8ff" d="M64.11,-268.61C80.01,-260.62 103.63,-249.3 125,-241.25 173.72,-222.89 231.1,-206.71 270.85,-196.32"/>
<polygon fill="#63b8ff" stroke="#63b8ff" points="271.75,-199.71 280.56,-193.81 270,-192.93 271.75,-199.71"/>
</a>
</g>
</g>
<!-- Node19 -->
<g id="Node000019" class="node">
<title>Node19</title>
<g id="a_Node000019"><a xlink:href="filesystem_8c.html#a550849e6b02b5ca20d32bdacb2ddd19b" target="_top" xlink:title=" ">
<polygon fill="white" stroke="#666666" points="345.5,-306.75 295.5,-306.75 295.5,-287.75 345.5,-287.75 345.5,-306.75"/>
<text text-anchor="middle" x="320.5" y="-294.75" font-family="Helvetica,sans-Serif" font-size="10.00">list_dir</text>
</a>
</g>
</g>
<!-- Node1&#45;&gt;Node19 -->
<g id="edge27_Node000001_Node000019" class="edge">
<title>Node1&#45;&gt;Node19</title>
<g id="a_edge27_Node000001_Node000019"><a xlink:title=" ">
<path fill="none" stroke="#63b8ff" d="M89.22,-281.28C143.69,-285.05 235.64,-291.43 285.27,-294.87"/>
<polygon fill="#63b8ff" stroke="#63b8ff" points="285.26,-298.38 295.48,-295.58 285.75,-291.4 285.26,-298.38"/>
</a>
</g>
</g>
<!-- Node20 -->
<g id="Node000020" class="node">
<title>Node20</title>
<g id="a_Node000020"><a xlink:href="filesystem_8c.html#a799eadaaf9ccd6162d5fa3fd15a0c3a1" target="_top" xlink:title=" ">
<polygon fill="white" stroke="#666666" points="227,-192.75 126,-192.75 126,-173.75 227,-173.75 227,-192.75"/>
<text text-anchor="middle" x="176.5" y="-180.75" font-family="Helvetica,sans-Serif" font-size="10.00">make_filesystem</text>
</a>
</g>
</g>
<!-- Node1&#45;&gt;Node20 -->
<g id="edge28_Node000001_Node000020" class="edge">
<title>Node1&#45;&gt;Node20</title>
<g id="a_edge28_Node000001_Node000020"><a xlink:title=" ">
<path fill="none" stroke="#63b8ff" d="M54.56,-268.55C68.6,-253.9 96.95,-225.88 125,-207.25 130.47,-203.62 136.57,-200.23 142.58,-197.21"/>
<polygon fill="#63b8ff" stroke="#63b8ff" points="144.35,-200.25 151.87,-192.79 141.34,-193.93 144.35,-200.25"/>
</a>
</g>
</g>
<!-- Node21 -->
<g id="Node000021" class="node">
<title>Node21</title>
<g id="a_Node000021"><a xlink:href="user__auth_8c.html#acb5e4e390f704ceea798b215f70692d6" target="_top" xlink:title=" ">
<polygon fill="white" stroke="#666666" points="228,-117.75 125,-117.75 125,-98.75 228,-98.75 228,-117.75"/>
<text text-anchor="middle" x="176.5" y="-105.75" font-family="Helvetica,sans-Serif" font-size="10.00">upload_user_data</text>
</a>
</g>
</g>
<!-- Node1&#45;&gt;Node21 -->
<g id="edge29_Node000001_Node000021" class="edge">
<title>Node1&#45;&gt;Node21</title>
<g id="a_edge29_Node000001_Node000021"><a xlink:title=" ">
<path fill="none" stroke="#63b8ff" d="M51.75,-268.61C64.73,-248.77 95.84,-202.12 125,-165.25 135.95,-151.39 149.23,-136.48 159.41,-125.38"/>
<polygon fill="#63b8ff" stroke="#63b8ff" points="161.98,-127.76 166.21,-118.04 156.85,-123 161.98,-127.76"/>
</a>
</g>
</g>
<!-- Node3 -->
<g id="Node000003" class="node">
<title>Node3</title>
<g id="a_Node000003"><a xlink:href="filesystem_8c.html#a6c3bed1f355bd1952d7ffa87405828c6" target="_top" xlink:title=" ">
<polygon fill="white" stroke="#666666" points="352.5,-495.75 288.5,-495.75 288.5,-476.75 352.5,-476.75 352.5,-495.75"/>
<text text-anchor="middle" x="320.5" y="-483.75" font-family="Helvetica,sans-Serif" font-size="10.00">dir_exists</text>
</a>
</g>
</g>
<!-- Node2&#45;&gt;Node3 -->
<g id="edge2_Node000002_Node000003" class="edge">
<title>Node2&#45;&gt;Node3</title>
<g id="a_edge2_Node000002_Node000003"><a xlink:title=" ">
<path fill="none" stroke="#63b8ff" d="M207.27,-486.25C227.86,-486.25 255.54,-486.25 278.25,-486.25"/>
<polygon fill="#63b8ff" stroke="#63b8ff" points="278.3,-489.75 288.3,-486.25 278.3,-482.75 278.3,-489.75"/>
</a>
</g>
</g>
<!-- Node6 -->
<g id="Node000006" class="node">
<title>Node6</title>
<g id="a_Node000006"><a xlink:href="filesystem_8c.html#a07610d3a6787ca02aa3d340759bcb8c9" target="_top" xlink:title=" ">
<polygon fill="white" stroke="#666666" points="763,-194.75 696,-194.75 696,-175.75 763,-175.75 763,-194.75"/>
<text text-anchor="middle" x="729.5" y="-182.75" font-family="Helvetica,sans-Serif" font-size="10.00">file_exists</text>
</a>
</g>
</g>
<!-- Node2&#45;&gt;Node6 -->
<g id="edge5_Node000002_Node000006" class="edge">
<title>Node2&#45;&gt;Node6</title>
<g id="a_edge5_Node000002_Node000006"><a xlink:title=" ">
<path fill="none" stroke="#63b8ff" d="M192.72,-495.77C209.45,-505.64 237.5,-520.41 264,-526.25 313.05,-537.04 329.99,-543.93 377,-526.25 548.46,-461.73 680.31,-264.24 717.75,-203.33"/>
<polygon fill="#63b8ff" stroke="#63b8ff" points="720.75,-205.13 722.94,-194.77 714.77,-201.5 720.75,-205.13"/>
</a>
</g>
</g>
<!-- Node2&#45;&gt;Node7 -->
<g id="edge7_Node000002_Node000007" class="edge">
<title>Node2&#45;&gt;Node7</title>
<g id="a_edge7_Node000002_Node000007"><a xlink:title=" ">
<path fill="none" stroke="#63b8ff" d="M192.16,-476.61C209.09,-465.67 237.97,-447.62 264,-434.25 270.93,-430.68 278.51,-427.17 285.78,-423.97"/>
<polygon fill="#63b8ff" stroke="#63b8ff" points="287.6,-427 295.41,-419.84 284.84,-420.57 287.6,-427"/>
</a>
</g>
</g>
<!-- Node8 -->
<g id="Node000008" class="node">
<title>Node8</title>
<g id="a_Node000008"><a xlink:href="user__auth_8c.html#aed0ce6c01378a5dfdbf8faa9bf3e9460" target="_top" xlink:title=" ">
<polygon fill="white" stroke="#666666" points="531,-381.75 413,-381.75 413,-362.75 531,-362.75 531,-381.75"/>
<text text-anchor="middle" x="472" y="-369.75" font-family="Helvetica,sans-Serif" font-size="10.00">get_user_token_path</text>
</a>
</g>
</g>
<!-- Node2&#45;&gt;Node8 -->
<g id="edge8_Node000002_Node000008" class="edge">
<title>Node2&#45;&gt;Node8</title>
<g id="a_edge8_Node000002_Node000008"><a xlink:title=" ">
<path fill="none" stroke="#63b8ff" d="M199.65,-495.8C238.12,-510.85 318.76,-535.4 377,-505.25 423.49,-481.17 451.91,-422.34 464.07,-391.63"/>
<polygon fill="#63b8ff" stroke="#63b8ff" points="467.43,-392.63 467.7,-382.04 460.89,-390.15 467.43,-392.63"/>
</a>
</g>
</g>
<!-- Node9 -->
<g id="Node000009" class="node">
<title>Node9</title>
<g id="a_Node000009"><a xlink:href="filesystem_8c.html#a20ca64a89158ccc1eb3f714b3d8725f5" target="_top" xlink:title=" ">
<polygon fill="white" stroke="#666666" points="351.5,-609.75 289.5,-609.75 289.5,-590.75 351.5,-590.75 351.5,-609.75"/>
<text text-anchor="middle" x="320.5" y="-597.75" font-family="Helvetica,sans-Serif" font-size="10.00">make_dir</text>
</a>
</g>
</g>
<!-- Node2&#45;&gt;Node9 -->
<g id="edge9_Node000002_Node000009" class="edge">
<title>Node2&#45;&gt;Node9</title>
<g id="a_edge9_Node000002_Node000009"><a xlink:title=" ">
<path fill="none" stroke="#63b8ff" d="M184.61,-495.86C198.25,-513.76 229.82,-552.52 264,-576.25 269.62,-580.15 275.98,-583.62 282.33,-586.62"/>
<polygon fill="#63b8ff" stroke="#63b8ff" points="280.99,-589.85 291.55,-590.69 283.81,-583.45 280.99,-589.85"/>
</a>
</g>
</g>
<!-- Node10 -->
<g id="Node000010" class="node">
<title>Node10</title>
<g id="a_Node000010"><a xlink:href="filesystem_8c.html#a8e5a51c709e9d6229c1974435475292a" target="_top" xlink:title=" ">
<polygon fill="white" stroke="#666666" points="503,-42.75 441,-42.75 441,-23.75 503,-23.75 503,-42.75"/>
<text text-anchor="middle" x="472" y="-30.75" font-family="Helvetica,sans-Serif" font-size="10.00">write_file</text>
</a>
</g>
</g>
<!-- Node2&#45;&gt;Node10 -->
<g id="edge10_Node000002_Node000010" class="edge">
<title>Node2&#45;&gt;Node10</title>
<g id="a_edge10_Node000002_Node000010"><a xlink:title=" ">
<path fill="none" stroke="#63b8ff" d="M207.4,-479.62C260.28,-467.62 365.84,-442.34 377,-429.25 420.69,-377.97 390.94,-191.9 413,-128.25 423.17,-98.9 443.43,-68.96 457.1,-50.74"/>
<polygon fill="#63b8ff" stroke="#63b8ff" points="459.89,-52.85 463.21,-42.79 454.34,-48.58 459.89,-52.85"/>
</a>
</g>
</g>
<!-- Node4 -->
<g id="Node000004" class="node">
<title>Node4</title>
<g id="a_Node000004"><a xlink:href="filesystem_8c.html#aa109ff29a72d1beadda58bb3a54185b6" target="_top" xlink:title=" ">
<polygon fill="white" stroke="#666666" points="834,-175.75 799,-175.75 799,-156.75 834,-156.75 834,-175.75"/>
<text text-anchor="middle" x="816.5" y="-163.75" font-family="Helvetica,sans-Serif" font-size="10.00">stat</text>
</a>
</g>
</g>
<!-- Node3&#45;&gt;Node4 -->
<g id="edge3_Node000003_Node000004" class="edge">
<title>Node3&#45;&gt;Node4</title>
<g id="a_edge3_Node000003_Node000004"><a xlink:title=" ">
<path fill="none" stroke="#63b8ff" d="M348.01,-476.64C388.8,-461.33 468.78,-429.21 531,-391.25 640.08,-324.68 754.99,-222.27 797.95,-182.67"/>
<polygon fill="#63b8ff" stroke="#63b8ff" points="800.38,-185.18 805.34,-175.82 795.62,-180.05 800.38,-185.18"/>
</a>
</g>
</g>
<!-- Node5 -->
<g id="Node000005" class="node">
<title>Node5</title>
<g id="a_Node000005"><a xlink:href="utilities_2src_2log_8c.html#a4b048be24c6c7f622a6bc6c6bf8ac435" target="_top" xlink:title=" ">
<polygon fill="white" stroke="#666666" points="1001,-99.75 870,-99.75 870,-80.75 1001,-80.75 1001,-99.75"/>
<text text-anchor="middle" x="935.5" y="-87.75" font-family="Helvetica,sans-Serif" font-size="10.00">get_current_task_name</text>
</a>
</g>
</g>
<!-- Node4&#45;&gt;Node5 -->
<g id="edge4_Node000004_Node000005" class="edge">
<title>Node4&#45;&gt;Node5</title>
<g id="a_edge4_Node000004_Node000005"><a xlink:title=" ">
<path fill="none" stroke="#63b8ff" d="M832.32,-156.62C852.19,-143.71 887.67,-120.66 911.15,-105.41"/>
<polygon fill="#63b8ff" stroke="#63b8ff" points="913.32,-108.18 919.8,-99.79 909.51,-102.3 913.32,-108.18"/>
</a>
</g>
</g>
<!-- Node6&#45;&gt;Node4 -->
<g id="edge6_Node000006_Node000004" class="edge">
<title>Node6&#45;&gt;Node4</title>
<g id="a_edge6_Node000006_Node000004"><a xlink:title=" ">
<path fill="none" stroke="#63b8ff" d="M763.12,-177.95C771.68,-176.04 780.8,-174 789,-172.17"/>
<polygon fill="#63b8ff" stroke="#63b8ff" points="789.77,-175.58 798.77,-169.99 788.25,-168.75 789.77,-175.58"/>
</a>
</g>
</g>
<!-- Node12 -->
<g id="Node000012" class="node">
<title>Node12</title>
<g id="a_Node000012"><a xlink:href="filesystem_8c.html#a927cf61c34acf12c6d2e91abb0894b0b" target="_top" xlink:title=" ">
<polygon fill="white" stroke="#666666" points="343.5,-269.75 297.5,-269.75 297.5,-250.75 343.5,-250.75 343.5,-269.75"/>
<text text-anchor="middle" x="320.5" y="-257.75" font-family="Helvetica,sans-Serif" font-size="10.00">fs_log</text>
</a>
</g>
</g>
<!-- Node11&#45;&gt;Node12 -->
<g id="edge12_Node000011_Node000012" class="edge">
<title>Node11&#45;&gt;Node12</title>
<g id="a_edge12_Node000011_Node000012"><a xlink:title=" ">
<path fill="none" stroke="#63b8ff" d="M192.7,-259.35C215.13,-259.51 257.63,-259.81 287.21,-260.02"/>
<polygon fill="#63b8ff" stroke="#63b8ff" points="287.44,-263.52 297.47,-260.09 287.49,-256.52 287.44,-263.52"/>
</a>
</g>
</g>
<!-- Node14 -->
<g id="Node000014" class="node">
<title>Node14</title>
<g id="a_Node000014"><a xlink:href="filesystem_8c.html#ab92b1f0beb3be903677f3293d0430b62" target="_top" xlink:title=" ">
<polygon fill="white" stroke="#666666" points="501.5,-156.75 442.5,-156.75 442.5,-137.75 501.5,-137.75 501.5,-156.75"/>
<text text-anchor="middle" x="472" y="-144.75" font-family="Helvetica,sans-Serif" font-size="10.00">read_file</text>
</a>
</g>
</g>
<!-- Node11&#45;&gt;Node14 -->
<g id="edge14_Node000011_Node000014" class="edge">
<title>Node11&#45;&gt;Node14</title>
<g id="a_edge14_Node000011_Node000014"><a xlink:title=" ">
<path fill="none" stroke="#63b8ff" d="M192.73,-256.4C226.73,-249.75 311.05,-231.55 377,-203.25 403.1,-192.04 430.78,-174.82 449.29,-162.43"/>
<polygon fill="#63b8ff" stroke="#63b8ff" points="451.29,-165.31 457.59,-156.79 447.36,-159.52 451.29,-165.31"/>
</a>
</g>
</g>
<!-- Node13 -->
<g id="Node000013" class="node">
<title>Node13</title>
<g id="a_Node000013"><a xlink:href="telemetry_8c.html#a6dbf6c6cfd75451e5642ca0b64bf7f5a" target="_top" xlink:title=" ">
<polygon fill="white" stroke="#666666" points="518.5,-269.75 425.5,-269.75 425.5,-250.75 518.5,-250.75 518.5,-269.75"/>
<text text-anchor="middle" x="472" y="-257.75" font-family="Helvetica,sans-Serif" font-size="10.00">send_telemetry</text>
</a>
</g>
</g>
<!-- Node12&#45;&gt;Node13 -->
<g id="edge13_Node000012_Node000013" class="edge">
<title>Node12&#45;&gt;Node13</title>
<g id="a_edge13_Node000012_Node000013"><a xlink:title=" ">
<path fill="none" stroke="#63b8ff" d="M343.56,-260.25C362.41,-260.25 390.34,-260.25 415.26,-260.25"/>
<polygon fill="#63b8ff" stroke="#63b8ff" points="415.36,-263.75 425.36,-260.25 415.36,-256.75 415.36,-263.75"/>
</a>
</g>
</g>
<!-- Node15 -->
<g id="Node000015" class="node">
<title>Node15</title>
<g id="a_Node000015"><a xlink:href="filesystem_8c.html#ae0599d66eddc7fdf656fca874aa5f1d1" target="_top" xlink:title=" ">
<polygon fill="white" stroke="#666666" points="660,-156.75 567,-156.75 567,-137.75 660,-137.75 660,-156.75"/>
<text text-anchor="middle" x="613.5" y="-144.75" font-family="Helvetica,sans-Serif" font-size="10.00">read_file_offset</text>
</a>
</g>
</g>
<!-- Node14&#45;&gt;Node15 -->
<g id="edge15_Node000014_Node000015" class="edge">
<title>Node14&#45;&gt;Node15</title>
<g id="a_edge15_Node000014_Node000015"><a xlink:title=" ">
<path fill="none" stroke="#63b8ff" d="M501.57,-147.25C517.51,-147.25 537.93,-147.25 556.9,-147.25"/>
<polygon fill="#63b8ff" stroke="#63b8ff" points="556.95,-150.75 566.95,-147.25 556.95,-143.75 556.95,-150.75"/>
</a>
</g>
</g>
<!-- Node15&#45;&gt;Node5 -->
<g id="edge17_Node000015_Node000005" class="edge">
<title>Node15&#45;&gt;Node5</title>
<g id="a_edge17_Node000015_Node000005"><a xlink:title=" ">
<path fill="none" stroke="#63b8ff" d="M660.01,-139.14C715.26,-129.3 808.75,-112.65 871.05,-101.55"/>
<polygon fill="#63b8ff" stroke="#63b8ff" points="871.92,-104.95 881.15,-99.75 870.69,-98.06 871.92,-104.95"/>
</a>
</g>
</g>
<!-- Node15&#45;&gt;Node6 -->
<g id="edge16_Node000015_Node000006" class="edge">
<title>Node15&#45;&gt;Node6</title>
<g id="a_edge16_Node000015_Node000006"><a xlink:title=" ">
<path fill="none" stroke="#63b8ff" d="M643.27,-156.83C657.44,-161.56 674.74,-167.32 690.03,-172.42"/>
<polygon fill="#63b8ff" stroke="#63b8ff" points="689.15,-175.82 699.74,-175.66 691.36,-169.18 689.15,-175.82"/>
</a>
</g>
</g>
<!-- Node16&#45;&gt;Node3 -->
<g id="edge20_Node000016_Node000003" class="edge">
<title>Node16&#45;&gt;Node3</title>
<g id="a_edge20_Node000016_Node000003"><a xlink:title=" ">
<path fill="none" stroke="#63b8ff" d="M186.25,-344.94C201.77,-362.08 235.19,-398.8 264,-429.25 276.84,-442.81 291.59,-457.94 302.66,-469.2"/>
<polygon fill="#63b8ff" stroke="#63b8ff" points="300.48,-471.98 309.99,-476.64 305.47,-467.06 300.48,-471.98"/>
</a>
</g>
</g>
<!-- Node16&#45;&gt;Node7 -->
<g id="edge22_Node000016_Node000007" class="edge">
<title>Node16&#45;&gt;Node7</title>
<g id="a_edge22_Node000016_Node000007"><a xlink:title=" ">
<path fill="none" stroke="#63b8ff" d="M192.49,-344.86C209.49,-355.58 238.2,-373.13 264,-386.25 271.17,-389.89 279.02,-393.51 286.51,-396.78"/>
<polygon fill="#63b8ff" stroke="#63b8ff" points="285.14,-400 295.71,-400.72 287.89,-393.57 285.14,-400"/>
</a>
</g>
</g>
<!-- Node16&#45;&gt;Node8 -->
<g id="edge23_Node000016_Node000008" class="edge">
<title>Node16&#45;&gt;Node8</title>
<g id="a_edge23_Node000016_Node000008"><a xlink:title=" ">
<path fill="none" stroke="#63b8ff" d="M213.53,-343.7C229,-347.08 247.31,-350.75 264,-353.25 310.07,-360.13 362.3,-364.9 402.77,-367.94"/>
<polygon fill="#63b8ff" stroke="#63b8ff" points="402.56,-371.44 412.79,-368.68 403.07,-364.45 402.56,-371.44"/>
</a>
</g>
</g>
<!-- Node17 -->
<g id="Node000017" class="node">
<title>Node17</title>
<g id="a_Node000017"><a xlink:href="filesystem_8c.html#a02c1e03f51146617a18f5bcc96099220" target="_top" xlink:title=" ">
<polygon fill="white" stroke="#666666" points="354.5,-343.75 286.5,-343.75 286.5,-324.75 354.5,-324.75 354.5,-343.75"/>
<text text-anchor="middle" x="320.5" y="-331.75" font-family="Helvetica,sans-Serif" font-size="10.00">delete_file</text>
</a>
</g>
</g>
<!-- Node16&#45;&gt;Node17 -->
<g id="edge19_Node000016_Node000017" class="edge">
<title>Node16&#45;&gt;Node17</title>
<g id="a_edge19_Node000016_Node000017"><a xlink:title=" ">
<path fill="none" stroke="#63b8ff" d="M213.7,-334.99C232.73,-334.86 256.2,-334.69 276.19,-334.55"/>
<polygon fill="#63b8ff" stroke="#63b8ff" points="276.31,-338.05 286.29,-334.48 276.26,-331.05 276.31,-338.05"/>
</a>
</g>
</g>
<!-- Node16&#45;&gt;Node18 -->
<g id="edge21_Node000016_Node000018" class="edge">
<title>Node16&#45;&gt;Node18</title>
<g id="a_edge21_Node000016_Node000018"><a xlink:title=" ">
<path fill="none" stroke="#63b8ff" d="M186.3,-325.7C201.88,-308.8 235.4,-272.56 264,-242.25 277.05,-228.41 291.97,-212.84 303.04,-201.32"/>
<polygon fill="#63b8ff" stroke="#63b8ff" points="305.62,-203.69 310.03,-194.06 300.57,-198.83 305.62,-203.69"/>
</a>
</g>
</g>
<!-- Node16&#45;&gt;Node19 -->
<g id="edge24_Node000016_Node000019" class="edge">
<title>Node16&#45;&gt;Node19</title>
<g id="a_edge24_Node000016_Node000019"><a xlink:title=" ">
<path fill="none" stroke="#63b8ff" d="M213.33,-325.66C235.46,-319.73 263.69,-312.18 285.47,-306.35"/>
<polygon fill="#63b8ff" stroke="#63b8ff" points="286.54,-309.69 295.29,-303.72 284.73,-302.93 286.54,-309.69"/>
</a>
</g>
</g>
<!-- Node21&#45;&gt;Node4 -->
<g id="edge39_Node000021_Node000004" class="edge">
<title>Node21&#45;&gt;Node4</title>
<g id="a_edge39_Node000021_Node000004"><a xlink:title=" ">
<path fill="none" stroke="#63b8ff" d="M184.54,-98.62C197.84,-81.27 228.53,-45.09 264,-29.25 372.51,19.24 412.46,-5.56 531,-14.25 588.8,-18.48 611.3,-1.83 660,-33.25 684.86,-49.28 675.09,-68.31 696,-89.25 723.99,-117.27 763.86,-140.42 789.7,-153.79"/>
<polygon fill="#63b8ff" stroke="#63b8ff" points="788.37,-157.04 798.87,-158.43 791.53,-150.79 788.37,-157.04"/>
</a>
</g>
</g>
<!-- Node21&#45;&gt;Node6 -->
<g id="edge30_Node000021_Node000006" class="edge">
<title>Node21&#45;&gt;Node6</title>
<g id="a_edge30_Node000021_Node000006"><a xlink:title=" ">
<path fill="none" stroke="#63b8ff" d="M208.38,-117.76C253.04,-131.08 338.48,-154.92 413,-166.25 509.67,-180.94 624.62,-184.38 685.57,-185.12"/>
<polygon fill="#63b8ff" stroke="#63b8ff" points="685.56,-188.62 695.59,-185.22 685.63,-181.62 685.56,-188.62"/>
</a>
</g>
</g>
<!-- Node21&#45;&gt;Node10 -->
<g id="edge42_Node000021_Node000010" class="edge">
<title>Node21&#45;&gt;Node10</title>
<g id="a_edge42_Node000021_Node000010"><a xlink:title=" ">
<path fill="none" stroke="#63b8ff" d="M188.32,-98.72C203.84,-85.66 233.91,-62.66 264,-52.25 319.49,-33.05 388.07,-30.58 430.68,-31.33"/>
<polygon fill="#63b8ff" stroke="#63b8ff" points="430.84,-34.83 440.93,-31.58 431.01,-27.84 430.84,-34.83"/>
</a>
</g>
</g>
<!-- Node21&#45;&gt;Node18 -->
<g id="edge38_Node000021_Node000018" class="edge">
<title>Node21&#45;&gt;Node18</title>
<g id="a_edge38_Node000021_Node000018"><a xlink:title=" ">
<path fill="none" stroke="#63b8ff" d="M192.16,-117.88C209.09,-128.82 237.97,-146.87 264,-160.25 270.93,-163.81 278.51,-167.32 285.78,-170.52"/>
<polygon fill="#63b8ff" stroke="#63b8ff" points="284.84,-173.92 295.41,-174.65 287.6,-167.49 284.84,-173.92"/>
</a>
</g>
</g>
<!-- Node22 -->
<g id="Node000022" class="node">
<title>Node22</title>
<g id="a_Node000022"><a xlink:href="user__auth_8c.html#abd83d867ec7c814578d0f6d9a13f79f0" target="_top" xlink:title=" ">
<polygon fill="white" stroke="#666666" points="350,-117.75 291,-117.75 291,-98.75 350,-98.75 350,-117.75"/>
<text text-anchor="middle" x="320.5" y="-105.75" font-family="Helvetica,sans-Serif" font-size="10.00">get_user</text>
</a>
</g>
</g>
<!-- Node21&#45;&gt;Node22 -->
<g id="edge31_Node000021_Node000022" class="edge">
<title>Node21&#45;&gt;Node22</title>
<g id="a_edge31_Node000021_Node000022"><a xlink:title=" ">
<path fill="none" stroke="#63b8ff" d="M228.36,-108.25C245.6,-108.25 264.56,-108.25 280.7,-108.25"/>
<polygon fill="#63b8ff" stroke="#63b8ff" points="280.86,-111.75 290.85,-108.25 280.85,-104.75 280.86,-111.75"/>
</a>
</g>
</g>
<!-- Node25 -->
<g id="Node000025" class="node">
<title>Node25</title>
<g id="a_Node000025"><a xlink:href="filesystem_8c.html#a1038e83eda006a16d81aba0bda5c3334" target="_top" xlink:title=" ">
<polygon fill="white" stroke="#666666" points="342.5,-80.75 298.5,-80.75 298.5,-61.75 342.5,-61.75 342.5,-80.75"/>
<text text-anchor="middle" x="320.5" y="-68.75" font-family="Helvetica,sans-Serif" font-size="10.00">touch</text>
</a>
</g>
</g>
<!-- Node21&#45;&gt;Node25 -->
<g id="edge40_Node000021_Node000025" class="edge">
<title>Node21&#45;&gt;Node25</title>
<g id="a_edge40_Node000021_Node000025"><a xlink:title=" ">
<path fill="none" stroke="#63b8ff" d="M214.07,-98.72C237.2,-92.69 266.75,-84.99 288.68,-79.28"/>
<polygon fill="#63b8ff" stroke="#63b8ff" points="289.68,-82.63 298.47,-76.72 287.91,-75.86 289.68,-82.63"/>
</a>
</g>
</g>
<!-- Node22&#45;&gt;Node8 -->
<g id="edge32_Node000022_Node000008" class="edge">
<title>Node22&#45;&gt;Node8</title>
<g id="a_edge32_Node000022_Node000008"><a xlink:title=" ">
<path fill="none" stroke="#63b8ff" d="M333.79,-118.11C346.31,-128.76 365.47,-146.83 377,-166.25 403.91,-211.57 390.88,-231.4 413,-279.25 425.71,-306.75 445.05,-336.02 457.86,-354.22"/>
<polygon fill="#63b8ff" stroke="#63b8ff" points="455.22,-356.56 463.88,-362.66 460.92,-352.49 455.22,-356.56"/>
</a>
</g>
</g>
<!-- Node22&#45;&gt;Node14 -->
<g id="edge37_Node000022_Node000014" class="edge">
<title>Node22&#45;&gt;Node14</title>
<g id="a_edge37_Node000022_Node000014"><a xlink:title=" ">
<path fill="none" stroke="#63b8ff" d="M350.33,-115.76C373.7,-121.86 406.85,-130.51 432.49,-137.2"/>
<polygon fill="#63b8ff" stroke="#63b8ff" points="431.7,-140.61 442.26,-139.75 433.47,-133.84 431.7,-140.61"/>
</a>
</g>
</g>
<!-- Node23 -->
<g id="Node000023" class="node">
<title>Node23</title>
<g id="a_Node000023"><a xlink:href="filesystem_8c.html#ae37338ef034a23a8068df8421a5e3dfd" target="_top" xlink:title=" ">
<polygon fill="white" stroke="#666666" points="643,-61.75 584,-61.75 584,-42.75 643,-42.75 643,-61.75"/>
<text text-anchor="middle" x="613.5" y="-49.75" font-family="Helvetica,sans-Serif" font-size="10.00">open_dir</text>
</a>
</g>
</g>
<!-- Node22&#45;&gt;Node23 -->
<g id="edge33_Node000022_Node000023" class="edge">
<title>Node22&#45;&gt;Node23</title>
<g id="a_edge33_Node000022_Node000023"><a xlink:title=" ">
<path fill="none" stroke="#63b8ff" d="M350.2,-102.72C402.68,-92.62 514.18,-71.17 573.49,-59.75"/>
<polygon fill="#63b8ff" stroke="#63b8ff" points="574.43,-63.14 583.59,-57.81 573.1,-56.26 574.43,-63.14"/>
</a>
</g>
</g>
<!-- Node24 -->
<g id="Node000024" class="node">
<title>Node24</title>
<g id="a_Node000024"><a xlink:href="filesystem_8c.html#a7e4306f2cf5a6c7ab054e334829a4b9d" target="_top" xlink:title=" ">
<polygon fill="white" stroke="#666666" points="757.5,-80.75 701.5,-80.75 701.5,-61.75 757.5,-61.75 757.5,-80.75"/>
<text text-anchor="middle" x="729.5" y="-68.75" font-family="Helvetica,sans-Serif" font-size="10.00">read_dir</text>
</a>
</g>
</g>
<!-- Node22&#45;&gt;Node24 -->
<g id="edge35_Node000022_Node000024" class="edge">
<title>Node22&#45;&gt;Node24</title>
<g id="a_edge35_Node000022_Node000024"><a xlink:title=" ">
<path fill="none" stroke="#63b8ff" d="M350.34,-106.77C390.77,-104.59 466.57,-100.15 531,-94.25 587.01,-89.12 651.73,-81.2 691.38,-76.12"/>
<polygon fill="#63b8ff" stroke="#63b8ff" points="691.92,-79.58 701.39,-74.83 691.02,-72.64 691.92,-79.58"/>
</a>
</g>
</g>
<!-- Node23&#45;&gt;Node5 -->
<g id="edge34_Node000023_Node000005" class="edge">
<title>Node23&#45;&gt;Node5</title>
<g id="a_edge34_Node000023_Node000005"><a xlink:title=" ">
<path fill="none" stroke="#63b8ff" d="M643.07,-50.41C673.04,-48.91 721.48,-47.7 763,-52.25 807.56,-57.12 857.49,-68.93 891.93,-78.1"/>
<polygon fill="#63b8ff" stroke="#63b8ff" points="891.09,-81.49 901.66,-80.72 892.92,-74.74 891.09,-81.49"/>
</a>
</g>
</g>
<!-- Node24&#45;&gt;Node5 -->
<g id="edge36_Node000024_Node000005" class="edge">
<title>Node24&#45;&gt;Node5</title>
<g id="a_edge36_Node000024_Node000005"><a xlink:title=" ">
<path fill="none" stroke="#63b8ff" d="M757.59,-73.77C783.53,-76.18 823.89,-79.94 859.51,-83.26"/>
<polygon fill="#63b8ff" stroke="#63b8ff" points="859.62,-86.79 869.9,-84.23 860.27,-79.82 859.62,-86.79"/>
</a>
</g>
</g>
<!-- Node25&#45;&gt;Node10 -->
<g id="edge41_Node000025_Node000010" class="edge">
<title>Node25&#45;&gt;Node10</title>
<g id="a_edge41_Node000025_Node000010"><a xlink:title=" ">
<path fill="none" stroke="#63b8ff" d="M342.6,-65.88C365.47,-60.07 402.49,-50.66 430.92,-43.43"/>
<polygon fill="#63b8ff" stroke="#63b8ff" points="432.14,-46.74 440.97,-40.88 430.41,-39.95 432.14,-46.74"/>
</a>
</g>
</g>
</g>
</svg>
