<?xml version="1.0" encoding="UTF-8" standalone="no"?>
<!DOCTYPE svg PUBLIC "-//W3C//DTD SVG 1.1//EN"
 "http://www.w3.org/Graphics/SVG/1.1/DTD/svg11.dtd">
<!-- Generated by graphviz version 12.1.2 (20240928.0832)
 -->
<!-- Title: get_user Pages: 1 -->
<svg width="358pt" height="142pt"
 viewBox="0.00 0.00 358.25 142.00" xmlns="http://www.w3.org/2000/svg" xmlns:xlink="http://www.w3.org/1999/xlink">

<svg id="main" version="1.1" xmlns="http://www.w3.org/2000/svg" xmlns:xlink="http://www.w3.org/1999/xlink" xml:space="preserve">

<style type="text/css"><![CDATA[
.node, .edge {opacity: 0.7;}
.node.selected, .edge.selected {opacity: 1;}
.edge:hover path { stroke: red; }
.edge:hover polygon { stroke: red; fill: red; }
]]></style>
<script type="application/ecmascript" xlink:href="svg.min.js"/>
<svg id="graph" class="graph">
<g id="graph0" class="graph" transform="scale(1 1) rotate(0) translate(4 138)">
<title>get_user</title>
<!-- Node1 -->
<g id="Node000001" class="node">
<title>Node1</title>
<g id="a_Node000001"><a xlink:title=" ">
<polygon fill="#999999" stroke="#666666" points="53.5,-77 0,-77 0,-57 53.5,-57 53.5,-77"/>
<text text-anchor="middle" x="26.75" y="-63.5" font-family="Helvetica,sans-Serif" font-size="10.00">get_user</text>
</a>
</g>
</g>
<!-- Node2 -->
<g id="Node000002" class="node">
<title>Node2</title>
<g id="a_Node000002"><a xlink:href="user__auth_8c.html#aed0ce6c01378a5dfdbf8faa9bf3e9460" target="_top" xlink:title=" ">
<polygon fill="white" stroke="#666666" points="196.25,-134 89.5,-134 89.5,-114 196.25,-114 196.25,-134"/>
<text text-anchor="middle" x="142.88" y="-120.5" font-family="Helvetica,sans-Serif" font-size="10.00">get_user_token_path</text>
</a>
</g>
</g>
<!-- Node1&#45;&gt;Node2 -->
<g id="edge1_Node000001_Node000002" class="edge">
<title>Node1&#45;&gt;Node2</title>
<g id="a_edge1_Node000001_Node000002"><a xlink:title=" ">
<path fill="none" stroke="#63b8ff" d="M42.49,-77.26C54.71,-85.46 72.72,-96.9 89.5,-105 92.62,-106.51 95.9,-107.97 99.22,-109.36"/>
<polygon fill="#63b8ff" stroke="#63b8ff" points="97.88,-112.59 108.46,-113.01 100.45,-106.08 97.88,-112.59"/>
</a>
</g>
</g>
<!-- Node3 -->
<g id="Node000003" class="node">
<title>Node3</title>
<g id="a_Node000003"><a xlink:href="filesystem_8c.html#ae37338ef034a23a8068df8421a5e3dfd" target="_top" xlink:title=" ">
<polygon fill="white" stroke="#666666" points="169.25,-96 116.5,-96 116.5,-76 169.25,-76 169.25,-96"/>
<text text-anchor="middle" x="142.88" y="-82.5" font-family="Helvetica,sans-Serif" font-size="10.00">open_dir</text>
</a>
</g>
</g>
<!-- Node1&#45;&gt;Node3 -->
<g id="edge2_Node000001_Node000003" class="edge">
<title>Node1&#45;&gt;Node3</title>
<g id="a_edge2_Node000001_Node000003"><a xlink:title=" ">
<path fill="none" stroke="#63b8ff" d="M53.93,-71.36C69.12,-73.89 88.48,-77.11 105.17,-79.89"/>
<polygon fill="#63b8ff" stroke="#63b8ff" points="104.28,-83.29 114.71,-81.48 105.43,-76.38 104.28,-83.29"/>
</a>
</g>
</g>
<!-- Node5 -->
<g id="Node000005" class="node">
<title>Node5</title>
<g id="a_Node000005"><a xlink:href="filesystem_8c.html#a7e4306f2cf5a6c7ab054e334829a4b9d" target="_top" xlink:title=" ">
<polygon fill="white" stroke="#666666" points="168.12,-58 117.62,-58 117.62,-38 168.12,-38 168.12,-58"/>
<text text-anchor="middle" x="142.88" y="-44.5" font-family="Helvetica,sans-Serif" font-size="10.00">read_dir</text>
</a>
</g>
</g>
<!-- Node1&#45;&gt;Node5 -->
<g id="edge4_Node000001_Node000005" class="edge">
<title>Node1&#45;&gt;Node5</title>
<g id="a_edge4_Node000001_Node000005"><a xlink:title=" ">
<path fill="none" stroke="#63b8ff" d="M53.93,-62.64C69.44,-60.06 89.3,-56.75 106.22,-53.94"/>
<polygon fill="#63b8ff" stroke="#63b8ff" points="106.59,-57.42 115.88,-52.33 105.44,-50.52 106.59,-57.42"/>
</a>
</g>
</g>
<!-- Node6 -->
<g id="Node000006" class="node">
<title>Node6</title>
<g id="a_Node000006"><a xlink:href="filesystem_8c.html#ab92b1f0beb3be903677f3293d0430b62" target="_top" xlink:title=" ">
<polygon fill="white" stroke="#666666" points="169.25,-20 116.5,-20 116.5,0 169.25,0 169.25,-20"/>
<text text-anchor="middle" x="142.88" y="-6.5" font-family="Helvetica,sans-Serif" font-size="10.00">read_file</text>
</a>
</g>
</g>
<!-- Node1&#45;&gt;Node6 -->
<g id="edge6_Node000001_Node000006" class="edge">
<title>Node1&#45;&gt;Node6</title>
<g id="a_edge6_Node000001_Node000006"><a xlink:title=" ">
<path fill="none" stroke="#63b8ff" d="M42.49,-56.74C54.71,-48.54 72.72,-37.1 89.5,-29 94.65,-26.51 100.21,-24.16 105.72,-22.02"/>
<polygon fill="#63b8ff" stroke="#63b8ff" points="106.56,-25.44 114.72,-18.69 104.13,-18.88 106.56,-25.44"/>
</a>
</g>
</g>
<!-- Node4 -->
<g id="Node000004" class="node">
<title>Node4</title>
<g id="a_Node000004"><a xlink:href="utilities_2src_2log_8c.html#a4b048be24c6c7f622a6bc6c6bf8ac435" target="_top" xlink:title=" ">
<polygon fill="white" stroke="#666666" points="350.25,-58 232.25,-58 232.25,-38 350.25,-38 350.25,-58"/>
<text text-anchor="middle" x="291.25" y="-44.5" font-family="Helvetica,sans-Serif" font-size="10.00">get_current_task_name</text>
</a>
</g>
</g>
<!-- Node3&#45;&gt;Node4 -->
<g id="edge3_Node000003_Node000004" class="edge">
<title>Node3&#45;&gt;Node4</title>
<g id="a_edge3_Node000003_Node000004"><a xlink:title=" ">
<path fill="none" stroke="#63b8ff" d="M169.71,-79.29C188.91,-74.31 215.73,-67.35 239.2,-61.25"/>
<polygon fill="#63b8ff" stroke="#63b8ff" points="239.79,-64.72 248.59,-58.82 238.03,-57.94 239.79,-64.72"/>
</a>
</g>
</g>
<!-- Node5&#45;&gt;Node4 -->
<g id="edge5_Node000005_Node000004" class="edge">
<title>Node5&#45;&gt;Node4</title>
<g id="a_edge5_Node000005_Node000004"><a xlink:title=" ">
<path fill="none" stroke="#63b8ff" d="M168.37,-48C182.8,-48 201.84,-48 220.57,-48"/>
<polygon fill="#63b8ff" stroke="#63b8ff" points="220.33,-51.5 230.33,-48 220.33,-44.5 220.33,-51.5"/>
</a>
</g>
</g>
<!-- Node6&#45;&gt;Node4 -->
<g id="edge7_Node000006_Node000004" class="edge">
<title>Node6&#45;&gt;Node4</title>
<g id="a_edge7_Node000006_Node000004"><a xlink:title=" ">
<path fill="none" stroke="#63b8ff" d="M169.71,-16.71C188.91,-21.69 215.73,-28.65 239.2,-34.75"/>
<polygon fill="#63b8ff" stroke="#63b8ff" points="238.03,-38.06 248.59,-37.18 239.79,-31.28 238.03,-38.06"/>
</a>
</g>
</g>
</g>
</svg>
</svg>

<style type='text/css'>
<![CDATA[
[data-mouse-over-selected='false'] { opacity: 0.7; }
[data-mouse-over-selected='true']  { opacity: 1.0; }
]]>
</style>
<script type="application/ecmascript"><![CDATA[
document.addEventListener('DOMContentLoaded', (event) => {
  highlightEdges();
  highlightAdjacentNodes();
});
]]></script>
</svg>
