<?xml version="1.0" encoding="UTF-8" standalone="no"?>
<!DOCTYPE svg PUBLIC "-//W3C//DTD SVG 1.1//EN"
 "http://www.w3.org/Graphics/SVG/1.1/DTD/svg11.dtd">
<!-- Generated by graphviz version 2.43.0 (0)
 -->
<!-- Title: get_user Pages: 1 -->
<svg width="689pt" height="179pt"
 viewBox="0.00 0.00 689.00 179.00" xmlns="http://www.w3.org/2000/svg" xmlns:xlink="http://www.w3.org/1999/xlink">
<g id="graph0" class="graph" transform="scale(1 1) rotate(0) translate(4 175)">
<title>get_user</title>
<!-- Node1 -->
<g id="Node000001" class="node">
<title>Node1</title>
<g id="a_Node000001"><a xlink:title=" ">
<polygon fill="#999999" stroke="#666666" points="59,-114 0,-114 0,-95 59,-95 59,-114"/>
<text text-anchor="middle" x="29.5" y="-102" font-family="Helvetica,sans-Serif" font-size="10.00">get_user</text>
</a>
</g>
</g>
<!-- Node2 -->
<g id="Node000002" class="node">
<title>Node2</title>
<g id="a_Node000002"><a xlink:href="user__auth_8c.html#aed0ce6c01378a5dfdbf8faa9bf3e9460" target="_top" xlink:title=" ">
<polygon fill="white" stroke="#666666" points="213,-171 95,-171 95,-152 213,-152 213,-171"/>
<text text-anchor="middle" x="154" y="-159" font-family="Helvetica,sans-Serif" font-size="10.00">get_user_token_path</text>
</a>
</g>
</g>
<!-- Node1&#45;&gt;Node2 -->
<g id="edge1_Node000001_Node000002" class="edge">
<title>Node1&#45;&gt;Node2</title>
<g id="a_edge1_Node000001_Node000002"><a xlink:title=" ">
<path fill="none" stroke="#63b8ff" d="M48.38,-114.14C61.22,-120.94 79.01,-130.12 95,-137.5 102.74,-141.07 111.16,-144.7 119.13,-148.02"/>
<polygon fill="#63b8ff" stroke="#63b8ff" points="117.96,-151.33 128.54,-151.89 120.62,-144.85 117.96,-151.33"/>
</a>
</g>
</g>
<!-- Node3 -->
<g id="Node000003" class="node">
<title>Node3</title>
<g id="a_Node000003"><a xlink:href="filesystem_8c.html#ae37338ef034a23a8068df8421a5e3dfd" target="_top" xlink:title=" ">
<polygon fill="white" stroke="#666666" points="324.5,-133 265.5,-133 265.5,-114 324.5,-114 324.5,-133"/>
<text text-anchor="middle" x="295" y="-121" font-family="Helvetica,sans-Serif" font-size="10.00">open_dir</text>
</a>
</g>
</g>
<!-- Node1&#45;&gt;Node3 -->
<g id="edge2_Node000001_Node000003" class="edge">
<title>Node1&#45;&gt;Node3</title>
<g id="a_edge2_Node000001_Node000003"><a xlink:title=" ">
<path fill="none" stroke="#63b8ff" d="M59.2,-106.57C106.72,-110 201.79,-116.85 255.23,-120.7"/>
<polygon fill="#63b8ff" stroke="#63b8ff" points="255.11,-124.2 265.33,-121.43 255.61,-117.22 255.11,-124.2"/>
</a>
</g>
</g>
<!-- Node5 -->
<g id="Node000005" class="node">
<title>Node5</title>
<g id="a_Node000005"><a xlink:href="filesystem_8c.html#a7e4306f2cf5a6c7ab054e334829a4b9d" target="_top" xlink:title=" ">
<polygon fill="white" stroke="#666666" points="438,-95 382,-95 382,-76 438,-76 438,-95"/>
<text text-anchor="middle" x="410" y="-83" font-family="Helvetica,sans-Serif" font-size="10.00">read_dir</text>
</a>
</g>
</g>
<!-- Node1&#45;&gt;Node5 -->
<g id="edge4_Node000001_Node000005" class="edge">
<title>Node1&#45;&gt;Node5</title>
<g id="a_edge4_Node000001_Node000005"><a xlink:title=" ">
<path fill="none" stroke="#63b8ff" d="M59.26,-103.06C126.98,-99.66 296.43,-91.15 371.82,-87.37"/>
<polygon fill="#63b8ff" stroke="#63b8ff" points="372.01,-90.86 381.82,-86.86 371.65,-83.87 372.01,-90.86"/>
</a>
</g>
</g>
<!-- Node6 -->
<g id="Node000006" class="node">
<title>Node6</title>
<g id="a_Node000006"><a xlink:href="filesystem_8c.html#ab92b1f0beb3be903677f3293d0430b62" target="_top" xlink:title=" ">
<polygon fill="white" stroke="#666666" points="183.5,-57 124.5,-57 124.5,-38 183.5,-38 183.5,-57"/>
<text text-anchor="middle" x="154" y="-45" font-family="Helvetica,sans-Serif" font-size="10.00">read_file</text>
</a>
</g>
</g>
<!-- Node1&#45;&gt;Node6 -->
<g id="edge6_Node000001_Node000006" class="edge">
<title>Node1&#45;&gt;Node6</title>
<g id="a_edge6_Node000001_Node000006"><a xlink:title=" ">
<path fill="none" stroke="#63b8ff" d="M48.38,-94.86C61.22,-88.06 79.01,-78.88 95,-71.5 102.74,-67.93 111.16,-64.3 119.13,-60.98"/>
<polygon fill="#63b8ff" stroke="#63b8ff" points="120.62,-64.15 128.54,-57.11 117.96,-57.67 120.62,-64.15"/>
</a>
</g>
</g>
<!-- Node4 -->
<g id="Node000004" class="node">
<title>Node4</title>
<g id="a_Node000004"><a xlink:href="utilities_2src_2log_8c.html#a4b048be24c6c7f622a6bc6c6bf8ac435" target="_top" xlink:title=" ">
<polygon fill="white" stroke="#666666" points="681,-76 550,-76 550,-57 681,-57 681,-76"/>
<text text-anchor="middle" x="615.5" y="-64" font-family="Helvetica,sans-Serif" font-size="10.00">get_current_task_name</text>
</a>
</g>
</g>
<!-- Node3&#45;&gt;Node4 -->
<g id="edge3_Node000003_Node000004" class="edge">
<title>Node3&#45;&gt;Node4</title>
<g id="a_edge3_Node000003_Node000004"><a xlink:title=" ">
<path fill="none" stroke="#63b8ff" d="M324.79,-120.51C366.71,-115.89 446.88,-105.98 514,-91.5 531.92,-87.63 551.52,-82.88 568.6,-78.56"/>
<polygon fill="#63b8ff" stroke="#63b8ff" points="569.52,-81.94 578.34,-76.08 567.79,-75.16 569.52,-81.94"/>
</a>
</g>
</g>
<!-- Node5&#45;&gt;Node4 -->
<g id="edge5_Node000005_Node000004" class="edge">
<title>Node5&#45;&gt;Node4</title>
<g id="a_edge5_Node000005_Node000004"><a xlink:title=" ">
<path fill="none" stroke="#63b8ff" d="M438.02,-82.98C463.8,-80.57 503.85,-76.83 539.28,-73.52"/>
<polygon fill="#63b8ff" stroke="#63b8ff" points="539.99,-76.97 549.62,-72.56 539.34,-70 539.99,-76.97"/>
</a>
</g>
</g>
<!-- Node7 -->
<g id="Node000007" class="node">
<title>Node7</title>
<g id="a_Node000007"><a xlink:href="filesystem_8c.html#ae0599d66eddc7fdf656fca874aa5f1d1" target="_top" xlink:title=" ">
<polygon fill="white" stroke="#666666" points="341,-57 249,-57 249,-38 341,-38 341,-57"/>
<text text-anchor="middle" x="295" y="-45" font-family="Helvetica,sans-Serif" font-size="10.00">read_file_offset</text>
</a>
</g>
</g>
<!-- Node6&#45;&gt;Node7 -->
<g id="edge7_Node000006_Node000007" class="edge">
<title>Node6&#45;&gt;Node7</title>
<g id="a_edge7_Node000006_Node000007"><a xlink:title=" ">
<path fill="none" stroke="#63b8ff" d="M183.8,-47.5C199.64,-47.5 219.82,-47.5 238.58,-47.5"/>
<polygon fill="#63b8ff" stroke="#63b8ff" points="238.82,-51 248.82,-47.5 238.82,-44 238.82,-51"/>
</a>
</g>
</g>
<!-- Node7&#45;&gt;Node4 -->
<g id="edge11_Node000007_Node000004" class="edge">
<title>Node7&#45;&gt;Node4</title>
<g id="a_edge11_Node000007_Node000004"><a xlink:title=" ">
<path fill="none" stroke="#63b8ff" d="M341.3,-50.2C392.95,-53.28 478.19,-58.37 539.73,-62.04"/>
<polygon fill="#63b8ff" stroke="#63b8ff" points="539.59,-65.54 549.78,-62.64 540.01,-58.55 539.59,-65.54"/>
</a>
</g>
</g>
<!-- Node8 -->
<g id="Node000008" class="node">
<title>Node8</title>
<g id="a_Node000008"><a xlink:href="filesystem_8c.html#a07610d3a6787ca02aa3d340759bcb8c9" target="_top" xlink:title=" ">
<polygon fill="white" stroke="#666666" points="443,-19 377,-19 377,0 443,0 443,-19"/>
<text text-anchor="middle" x="410" y="-7" font-family="Helvetica,sans-Serif" font-size="10.00">file_exists</text>
</a>
</g>
</g>
<!-- Node7&#45;&gt;Node8 -->
<g id="edge8_Node000007_Node000008" class="edge">
<title>Node7&#45;&gt;Node8</title>
<g id="a_edge8_Node000007_Node000008"><a xlink:title=" ">
<path fill="none" stroke="#63b8ff" d="M324.51,-37.91C338.57,-33.19 355.71,-27.42 370.87,-22.32"/>
<polygon fill="#63b8ff" stroke="#63b8ff" points="372.13,-25.59 380.49,-19.09 369.9,-18.96 372.13,-25.59"/>
</a>
</g>
</g>
<!-- Node9 -->
<g id="Node000009" class="node">
<title>Node9</title>
<g id="a_Node000009"><a xlink:href="filesystem_8c.html#aa109ff29a72d1beadda58bb3a54185b6" target="_top" xlink:title=" ">
<polygon fill="white" stroke="#666666" points="514,-19 479,-19 479,0 514,0 514,-19"/>
<text text-anchor="middle" x="496.5" y="-7" font-family="Helvetica,sans-Serif" font-size="10.00">stat</text>
</a>
</g>
</g>
<!-- Node8&#45;&gt;Node9 -->
<g id="edge9_Node000008_Node000009" class="edge">
<title>Node8&#45;&gt;Node9</title>
<g id="a_edge9_Node000008_Node000009"><a xlink:title=" ">
<path fill="none" stroke="#63b8ff" d="M443.43,-9.5C451.75,-9.5 460.6,-9.5 468.61,-9.5"/>
<polygon fill="#63b8ff" stroke="#63b8ff" points="468.87,-13 478.87,-9.5 468.87,-6 468.87,-13"/>
</a>
</g>
</g>
<!-- Node9&#45;&gt;Node4 -->
<g id="edge10_Node000009_Node000004" class="edge">
<title>Node9&#45;&gt;Node4</title>
<g id="a_edge10_Node000009_Node000004"><a xlink:title=" ">
<path fill="none" stroke="#63b8ff" d="M514.02,-17.55C532.64,-26.62 563.28,-41.55 585.84,-52.54"/>
<polygon fill="#63b8ff" stroke="#63b8ff" points="584.43,-55.74 594.95,-56.98 587.49,-49.45 584.43,-55.74"/>
</a>
</g>
</g>
</g>
</svg>
