<?xml version="1.0" encoding="UTF-8" standalone="no"?>
<!DOCTYPE svg PUBLIC "-//W3C//DTD SVG 1.1//EN"
 "http://www.w3.org/Graphics/SVG/1.1/DTD/svg11.dtd">
<!-- Generated by graphviz version 12.1.2 (20240928.0832)
 -->
<!-- Title: add_user Pages: 1 -->
<svg width="429pt" height="218pt"
 viewBox="0.00 0.00 429.00 218.00" xmlns="http://www.w3.org/2000/svg" xmlns:xlink="http://www.w3.org/1999/xlink">

<svg id="main" version="1.1" xmlns="http://www.w3.org/2000/svg" xmlns:xlink="http://www.w3.org/1999/xlink" xml:space="preserve">

<style type="text/css"><![CDATA[
.node, .edge {opacity: 0.7;}
.node.selected, .edge.selected {opacity: 1;}
.edge:hover path { stroke: red; }
.edge:hover polygon { stroke: red; fill: red; }
]]></style>
<script type="application/ecmascript" xlink:href="svg.min.js"/>
<svg id="graph" class="graph">
<g id="graph0" class="graph" transform="scale(1 1) rotate(0) translate(4 214)">
<title>add_user</title>
<!-- Node1 -->
<g id="Node000001" class="node">
<title>Node1</title>
<g id="a_Node000001"><a xlink:title=" ">
<polygon fill="#999999" stroke="#666666" points="55.75,-115 0,-115 0,-95 55.75,-95 55.75,-115"/>
<text text-anchor="middle" x="27.88" y="-101.5" font-family="Helvetica,sans-Serif" font-size="10.00">add_user</text>
</a>
</g>
</g>
<!-- Node2 -->
<g id="Node000002" class="node">
<title>Node2</title>
<g id="a_Node000002"><a xlink:href="filesystem_8c.html#a6c3bed1f355bd1952d7ffa87405828c6" target="_top" xlink:title=" ">
<polygon fill="white" stroke="#666666" points="174.12,-210 116.12,-210 116.12,-190 174.12,-190 174.12,-210"/>
<text text-anchor="middle" x="145.12" y="-196.5" font-family="Helvetica,sans-Serif" font-size="10.00">dir_exists</text>
</a>
</g>
</g>
<!-- Node1&#45;&gt;Node2 -->
<g id="edge1_Node000001_Node000002" class="edge">
<title>Node1&#45;&gt;Node2</title>
<g id="a_edge1_Node000001_Node000002"><a xlink:title=" ">
<path fill="none" stroke="#63b8ff" d="M34.89,-115.35C44.78,-131.53 65.99,-162.85 91.75,-181 95.91,-183.93 100.57,-186.46 105.35,-188.63"/>
<polygon fill="#63b8ff" stroke="#63b8ff" points="103.87,-191.81 114.46,-192.25 106.46,-185.3 103.87,-191.81"/>
</a>
</g>
</g>
<!-- Node5 -->
<g id="Node000005" class="node">
<title>Node5</title>
<g id="a_Node000005"><a xlink:href="filesystem_8c.html#a07610d3a6787ca02aa3d340759bcb8c9" target="_top" xlink:title=" ">
<polygon fill="white" stroke="#666666" points="175.25,-172 115,-172 115,-152 175.25,-152 175.25,-172"/>
<text text-anchor="middle" x="145.12" y="-158.5" font-family="Helvetica,sans-Serif" font-size="10.00">file_exists</text>
</a>
</g>
</g>
<!-- Node1&#45;&gt;Node5 -->
<g id="edge4_Node000001_Node000005" class="edge">
<title>Node1&#45;&gt;Node5</title>
<g id="a_edge4_Node000001_Node000005"><a xlink:title=" ">
<path fill="none" stroke="#63b8ff" d="M44.16,-115.4C56.61,-123.59 74.83,-134.92 91.75,-143 95.71,-144.89 99.91,-146.71 104.15,-148.42"/>
<polygon fill="#63b8ff" stroke="#63b8ff" points="102.62,-151.59 113.21,-151.9 105.12,-145.05 102.62,-151.59"/>
</a>
</g>
</g>
<!-- Node6 -->
<g id="Node000006" class="node">
<title>Node6</title>
<g id="a_Node000006"><a xlink:href="user__auth_8c.html#ab7d59518267fd7616ff486aa9054d753" target="_top" xlink:title=" ">
<polygon fill="white" stroke="#666666" points="191.75,-134 98.5,-134 98.5,-114 191.75,-114 191.75,-134"/>
<text text-anchor="middle" x="145.12" y="-120.5" font-family="Helvetica,sans-Serif" font-size="10.00">get_user_dir_path</text>
</a>
</g>
</g>
<!-- Node1&#45;&gt;Node6 -->
<g id="edge6_Node000001_Node000006" class="edge">
<title>Node1&#45;&gt;Node6</title>
<g id="a_edge6_Node000001_Node000006"><a xlink:title=" ">
<path fill="none" stroke="#63b8ff" d="M56.19,-109.5C65.48,-111.03 76.23,-112.81 86.97,-114.58"/>
<polygon fill="#63b8ff" stroke="#63b8ff" points="86.15,-117.99 96.59,-116.16 87.29,-111.08 86.15,-117.99"/>
</a>
</g>
</g>
<!-- Node7 -->
<g id="Node000007" class="node">
<title>Node7</title>
<g id="a_Node000007"><a xlink:href="user__auth_8c.html#aed0ce6c01378a5dfdbf8faa9bf3e9460" target="_top" xlink:title=" ">
<polygon fill="white" stroke="#666666" points="198.5,-96 91.75,-96 91.75,-76 198.5,-76 198.5,-96"/>
<text text-anchor="middle" x="145.12" y="-82.5" font-family="Helvetica,sans-Serif" font-size="10.00">get_user_token_path</text>
</a>
</g>
</g>
<!-- Node1&#45;&gt;Node7 -->
<g id="edge7_Node000001_Node000007" class="edge">
<title>Node1&#45;&gt;Node7</title>
<g id="a_edge7_Node000001_Node000007"><a xlink:title=" ">
<path fill="none" stroke="#63b8ff" d="M56.19,-100.5C63.59,-99.28 71.93,-97.9 80.45,-96.5"/>
<polygon fill="#63b8ff" stroke="#63b8ff" points="80.89,-99.97 90.19,-94.89 79.76,-93.06 80.89,-99.97"/>
</a>
</g>
</g>
<!-- Node8 -->
<g id="Node000008" class="node">
<title>Node8</title>
<g id="a_Node000008"><a xlink:href="filesystem_8c.html#a20ca64a89158ccc1eb3f714b3d8725f5" target="_top" xlink:title=" ">
<polygon fill="white" stroke="#666666" points="173,-58 117.25,-58 117.25,-38 173,-38 173,-58"/>
<text text-anchor="middle" x="145.12" y="-44.5" font-family="Helvetica,sans-Serif" font-size="10.00">make_dir</text>
</a>
</g>
</g>
<!-- Node1&#45;&gt;Node8 -->
<g id="edge8_Node000001_Node000008" class="edge">
<title>Node1&#45;&gt;Node8</title>
<g id="a_edge8_Node000001_Node000008"><a xlink:title=" ">
<path fill="none" stroke="#63b8ff" d="M44.16,-94.6C56.61,-86.41 74.83,-75.08 91.75,-67 96.34,-64.81 101.26,-62.71 106.17,-60.77"/>
<polygon fill="#63b8ff" stroke="#63b8ff" points="107.25,-64.1 115.38,-57.31 104.79,-57.55 107.25,-64.1"/>
</a>
</g>
</g>
<!-- Node9 -->
<g id="Node000009" class="node">
<title>Node9</title>
<g id="a_Node000009"><a xlink:href="filesystem_8c.html#a8e5a51c709e9d6229c1974435475292a" target="_top" xlink:title=" ">
<polygon fill="white" stroke="#666666" points="172.62,-20 117.62,-20 117.62,0 172.62,0 172.62,-20"/>
<text text-anchor="middle" x="145.12" y="-6.5" font-family="Helvetica,sans-Serif" font-size="10.00">write_file</text>
</a>
</g>
</g>
<!-- Node1&#45;&gt;Node9 -->
<g id="edge9_Node000001_Node000009" class="edge">
<title>Node1&#45;&gt;Node9</title>
<g id="a_edge9_Node000001_Node000009"><a xlink:title=" ">
<path fill="none" stroke="#63b8ff" d="M34.89,-94.65C44.78,-78.47 65.99,-47.15 91.75,-29 96.26,-25.82 101.35,-23.12 106.55,-20.84"/>
<polygon fill="#63b8ff" stroke="#63b8ff" points="107.74,-24.13 115.81,-17.27 105.22,-17.6 107.74,-24.13"/>
</a>
</g>
</g>
<!-- Node3 -->
<g id="Node000003" class="node">
<title>Node3</title>
<g id="a_Node000003"><a xlink:href="filesystem_8c.html#aa109ff29a72d1beadda58bb3a54185b6" target="_top" xlink:title=" ">
<polygon fill="white" stroke="#666666" points="267,-191 234.5,-191 234.5,-171 267,-171 267,-191"/>
<text text-anchor="middle" x="250.75" y="-177.5" font-family="Helvetica,sans-Serif" font-size="10.00">stat</text>
</a>
</g>
</g>
<!-- Node2&#45;&gt;Node3 -->
<g id="edge2_Node000002_Node000003" class="edge">
<title>Node2&#45;&gt;Node3</title>
<g id="a_edge2_Node000002_Node000003"><a xlink:title=" ">
<path fill="none" stroke="#63b8ff" d="M174.44,-194.81C189.57,-192.03 208.09,-188.64 222.98,-185.91"/>
<polygon fill="#63b8ff" stroke="#63b8ff" points="223.32,-189.4 232.52,-184.16 222.06,-182.52 223.32,-189.4"/>
</a>
</g>
</g>
<!-- Node4 -->
<g id="Node000004" class="node">
<title>Node4</title>
<g id="a_Node000004"><a xlink:href="utilities_2src_2log_8c.html#a4b048be24c6c7f622a6bc6c6bf8ac435" target="_top" xlink:title=" ">
<polygon fill="white" stroke="#666666" points="421,-191 303,-191 303,-171 421,-171 421,-191"/>
<text text-anchor="middle" x="362" y="-177.5" font-family="Helvetica,sans-Serif" font-size="10.00">get_current_task_name</text>
</a>
</g>
</g>
<!-- Node3&#45;&gt;Node4 -->
<g id="edge3_Node000003_Node000004" class="edge">
<title>Node3&#45;&gt;Node4</title>
<g id="a_edge3_Node000003_Node000004"><a xlink:title=" ">
<path fill="none" stroke="#63b8ff" d="M267.4,-181C274.2,-181 282.67,-181 291.73,-181"/>
<polygon fill="#63b8ff" stroke="#63b8ff" points="291.47,-184.5 301.47,-181 291.47,-177.5 291.47,-184.5"/>
</a>
</g>
</g>
<!-- Node5&#45;&gt;Node3 -->
<g id="edge5_Node000005_Node000003" class="edge">
<title>Node5&#45;&gt;Node3</title>
<g id="a_edge5_Node000005_Node000003"><a xlink:title=" ">
<path fill="none" stroke="#63b8ff" d="M175.54,-167.39C190.41,-170.12 208.32,-173.4 222.82,-176.06"/>
<polygon fill="#63b8ff" stroke="#63b8ff" points="222.1,-179.49 232.57,-177.85 223.36,-172.6 222.1,-179.49"/>
</a>
</g>
</g>
</g>
</svg>
</svg>

<style type='text/css'>
<![CDATA[
[data-mouse-over-selected='false'] { opacity: 0.7; }
[data-mouse-over-selected='true']  { opacity: 1.0; }
]]>
</style>
<script type="application/ecmascript"><![CDATA[
document.addEventListener('DOMContentLoaded', (event) => {
  highlightEdges();
  highlightAdjacentNodes();
});
]]></script>
</svg>
