<?xml version="1.0" encoding="UTF-8" standalone="no"?>
<!DOCTYPE svg PUBLIC "-//W3C//DTD SVG 1.1//EN"
 "http://www.w3.org/Graphics/SVG/1.1/DTD/svg11.dtd">
<!-- Generated by graphviz version 2.43.0 (0)
 -->
<!-- Title: log.c Pages: 1 -->
<svg width="831pt" height="302pt"
 viewBox="0.00 0.00 831.00 302.00" xmlns="http://www.w3.org/2000/svg" xmlns:xlink="http://www.w3.org/1999/xlink">
<g id="graph0" class="graph" transform="scale(1 1) rotate(0) translate(4 298)">
<title>log.c</title>
<!-- Node1 -->
<g id="Node000001" class="node">
<title>Node1</title>
<g id="a_Node000001"><a xlink:title=" ">
<polygon fill="#999999" stroke="#666666" points="317.5,-294 277.5,-294 277.5,-275 317.5,-275 317.5,-294"/>
<text text-anchor="middle" x="297.5" y="-282" font-family="Helvetica,sans-Serif" font-size="10.00">log.c</text>
</a>
</g>
</g>
<!-- Node2 -->
<g id="Node000002" class="node">
<title>Node2</title>
<g id="a_Node000002"><a xlink:title=" ">
<polygon fill="#e0e0e0" stroke="#999999" points="53,-239 0,-239 0,-220 53,-220 53,-239"/>
<text text-anchor="middle" x="26.5" y="-227" font-family="Helvetica,sans-Serif" font-size="10.00">string.h</text>
</a>
</g>
</g>
<!-- Node1&#45;&gt;Node2 -->
<g id="edge1_Node000001_Node000002" class="edge">
<title>Node1&#45;&gt;Node2</title>
<g id="a_edge1_Node000001_Node000002"><a xlink:title=" ">
<path fill="none" stroke="#63b8ff" d="M277.32,-279.99C238.11,-273.11 148.67,-257.09 63.08,-239.04"/>
<polygon fill="#63b8ff" stroke="#63b8ff" points="63.72,-235.6 53.21,-236.95 62.26,-242.45 63.72,-235.6"/>
</a>
</g>
</g>
<!-- Node3 -->
<g id="Node000003" class="node">
<title>Node3</title>
<g id="a_Node000003"><a xlink:href="stdio_8h.html" target="_top" xlink:title=" ">
<polygon fill="white" stroke="#666666" points="121.5,-239 71.5,-239 71.5,-220 121.5,-220 121.5,-239"/>
<text text-anchor="middle" x="96.5" y="-227" font-family="Helvetica,sans-Serif" font-size="10.00">stdio.h</text>
</a>
</g>
</g>
<!-- Node1&#45;&gt;Node3 -->
<g id="edge2_Node000001_Node000003" class="edge">
<title>Node1&#45;&gt;Node3</title>
<g id="a_edge2_Node000001_Node000003"><a xlink:title=" ">
<path fill="none" stroke="#63b8ff" d="M277.49,-278.22C243.46,-269.25 173.88,-250.9 131.6,-239.76"/>
<polygon fill="#63b8ff" stroke="#63b8ff" points="132.3,-236.32 121.74,-237.15 130.51,-243.09 132.3,-236.32"/>
</a>
</g>
</g>
<!-- Node4 -->
<g id="Node000004" class="node">
<title>Node4</title>
<g id="a_Node000004"><a xlink:title=" ">
<polygon fill="#e0e0e0" stroke="#999999" points="195.5,-239 139.5,-239 139.5,-220 195.5,-220 195.5,-239"/>
<text text-anchor="middle" x="167.5" y="-227" font-family="Helvetica,sans-Serif" font-size="10.00">stdarg.h</text>
</a>
</g>
</g>
<!-- Node1&#45;&gt;Node4 -->
<g id="edge3_Node000001_Node000004" class="edge">
<title>Node1&#45;&gt;Node4</title>
<g id="a_edge3_Node000001_Node000004"><a xlink:title=" ">
<path fill="none" stroke="#63b8ff" d="M277.47,-275.33C256.31,-266.71 222.69,-253 198.18,-243.01"/>
<polygon fill="#63b8ff" stroke="#63b8ff" points="199.21,-239.65 188.63,-239.11 196.57,-246.13 199.21,-239.65"/>
</a>
</g>
</g>
<!-- Node5 -->
<g id="Node000005" class="node">
<title>Node5</title>
<g id="a_Node000005"><a xlink:title=" ">
<polygon fill="#e0e0e0" stroke="#999999" points="269.5,-239 213.5,-239 213.5,-220 269.5,-220 269.5,-239"/>
<text text-anchor="middle" x="241.5" y="-227" font-family="Helvetica,sans-Serif" font-size="10.00">unistd.h</text>
</a>
</g>
</g>
<!-- Node1&#45;&gt;Node5 -->
<g id="edge4_Node000001_Node000005" class="edge">
<title>Node1&#45;&gt;Node5</title>
<g id="a_edge4_Node000001_Node000005"><a xlink:title=" ">
<path fill="none" stroke="#63b8ff" d="M288.5,-274.98C280.31,-267.23 267.99,-255.58 258.03,-246.14"/>
<polygon fill="#63b8ff" stroke="#63b8ff" points="260.33,-243.5 250.66,-239.17 255.52,-248.59 260.33,-243.5"/>
</a>
</g>
</g>
<!-- Node6 -->
<g id="Node000006" class="node">
<title>Node6</title>
<g id="a_Node000006"><a xlink:title=" ">
<polygon fill="#e0e0e0" stroke="#999999" points="199.5,-19 127.5,-19 127.5,0 199.5,0 199.5,-19"/>
<text text-anchor="middle" x="163.5" y="-7" font-family="Helvetica,sans-Serif" font-size="10.00">FreeRTOS.h</text>
</a>
</g>
</g>
<!-- Node1&#45;&gt;Node6 -->
<g id="edge5_Node000001_Node000006" class="edge">
<title>Node1&#45;&gt;Node6</title>
<g id="a_edge5_Node000001_Node000006"><a xlink:title=" ">
<path fill="none" stroke="#63b8ff" d="M297.5,-274.82C297.5,-256.48 297.5,-212.44 297.5,-175.5 297.5,-175.5 297.5,-175.5 297.5,-118.5 297.5,-68.68 240.65,-37.94 201,-22.56"/>
<polygon fill="#63b8ff" stroke="#63b8ff" points="202.18,-19.26 191.59,-19.07 199.75,-25.83 202.18,-19.26"/>
</a>
</g>
</g>
<!-- Node7 -->
<g id="Node000007" class="node">
<title>Node7</title>
<g id="a_Node000007"><a xlink:title=" ">
<polygon fill="#e0e0e0" stroke="#999999" points="757.5,-19 701.5,-19 701.5,0 757.5,0 757.5,-19"/>
<text text-anchor="middle" x="729.5" y="-7" font-family="Helvetica,sans-Serif" font-size="10.00">queue.h</text>
</a>
</g>
</g>
<!-- Node1&#45;&gt;Node7 -->
<g id="edge6_Node000001_Node000007" class="edge">
<title>Node1&#45;&gt;Node7</title>
<g id="a_edge6_Node000001_Node000007"><a xlink:title=" ">
<path fill="none" stroke="#63b8ff" d="M317.73,-282.42C398.63,-277.57 694.5,-254.43 694.5,-175.5 694.5,-175.5 694.5,-175.5 694.5,-118.5 694.5,-85.3 709.65,-49.03 720.02,-28.11"/>
<polygon fill="#63b8ff" stroke="#63b8ff" points="723.16,-29.64 724.63,-19.15 716.94,-26.44 723.16,-29.64"/>
</a>
</g>
</g>
<!-- Node8 -->
<g id="Node000008" class="node">
<title>Node8</title>
<g id="a_Node000008"><a xlink:title=" ">
<polygon fill="#e0e0e0" stroke="#999999" points="823,-19 776,-19 776,0 823,0 823,-19"/>
<text text-anchor="middle" x="799.5" y="-7" font-family="Helvetica,sans-Serif" font-size="10.00">task.h</text>
</a>
</g>
</g>
<!-- Node1&#45;&gt;Node8 -->
<g id="edge7_Node000001_Node000008" class="edge">
<title>Node1&#45;&gt;Node8</title>
<g id="a_edge7_Node000001_Node000008"><a xlink:title=" ">
<path fill="none" stroke="#63b8ff" d="M317.61,-283.24C407.19,-281.54 765.5,-268.89 765.5,-175.5 765.5,-175.5 765.5,-175.5 765.5,-118.5 765.5,-85.39 780.22,-49.1 790.29,-28.14"/>
<polygon fill="#63b8ff" stroke="#63b8ff" points="793.43,-29.68 794.77,-19.17 787.17,-26.55 793.43,-29.68"/>
</a>
</g>
</g>
<!-- Node9 -->
<g id="Node000009" class="node">
<title>Node9</title>
<g id="a_Node000009"><a xlink:href="log_8h.html" target="_top" xlink:title=" ">
<polygon fill="white" stroke="#666666" points="367,-239 326,-239 326,-220 367,-220 367,-239"/>
<text text-anchor="middle" x="346.5" y="-227" font-family="Helvetica,sans-Serif" font-size="10.00">log.h</text>
</a>
</g>
</g>
<!-- Node1&#45;&gt;Node9 -->
<g id="edge8_Node000001_Node000009" class="edge">
<title>Node1&#45;&gt;Node9</title>
<g id="a_edge8_Node000001_Node000009"><a xlink:title=" ">
<path fill="none" stroke="#63b8ff" d="M305.59,-274.75C312.66,-267.11 323.09,-255.82 331.65,-246.56"/>
<polygon fill="#63b8ff" stroke="#63b8ff" points="334.34,-248.81 338.56,-239.09 329.2,-244.06 334.34,-248.81"/>
</a>
</g>
</g>
<!-- Node12 -->
<g id="Node000012" class="node">
<title>Node12</title>
<g id="a_Node000012"><a xlink:href="filesystem_8h.html" target="_top" xlink:title="Handles file system operations and management.">
<polygon fill="white" stroke="#666666" points="517,-74 440,-74 440,-55 517,-55 517,-74"/>
<text text-anchor="middle" x="478.5" y="-62" font-family="Helvetica,sans-Serif" font-size="10.00">filesystem.h</text>
</a>
</g>
</g>
<!-- Node1&#45;&gt;Node12 -->
<g id="edge26_Node000001_Node000012" class="edge">
<title>Node1&#45;&gt;Node12</title>
<g id="a_edge26_Node000001_Node000012"><a xlink:title=" ">
<path fill="none" stroke="#63b8ff" d="M317.59,-276.84C354.24,-263.88 432.84,-232.23 483.5,-184 509.58,-159.17 528.96,-143.79 516.5,-110 512.44,-98.99 504.31,-88.86 496.6,-81.05"/>
<polygon fill="#63b8ff" stroke="#63b8ff" points="498.89,-78.39 489.21,-74.07 494.08,-83.48 498.89,-78.39"/>
</a>
</g>
</g>
<!-- Node10 -->
<g id="Node000010" class="node">
<title>Node10</title>
<g id="a_Node000010"><a xlink:href="telemetry_8h.html" target="_top" xlink:title="Functions for packaging and queuing telemetry packets for sending.">
<polygon fill="white" stroke="#666666" points="474.5,-184 402.5,-184 402.5,-165 474.5,-165 474.5,-184"/>
<text text-anchor="middle" x="438.5" y="-172" font-family="Helvetica,sans-Serif" font-size="10.00">telemetry.h</text>
</a>
</g>
</g>
<!-- Node9&#45;&gt;Node10 -->
<g id="edge9_Node000009_Node000010" class="edge">
<title>Node9&#45;&gt;Node10</title>
<g id="a_edge9_Node000009_Node000010"><a xlink:title=" ">
<path fill="none" stroke="#63b8ff" d="M361.28,-219.98C375.68,-211.69 397.81,-198.94 414.69,-189.22"/>
<polygon fill="#63b8ff" stroke="#63b8ff" points="416.53,-192.19 423.45,-184.17 413.04,-186.13 416.53,-192.19"/>
</a>
</g>
</g>
<!-- Node18 -->
<g id="Node000018" class="node">
<title>Node18</title>
<g id="a_Node000018"><a xlink:title=" ">
<polygon fill="#e0e0e0" stroke="#999999" points="279.5,-19 217.5,-19 217.5,0 279.5,0 279.5,-19"/>
<text text-anchor="middle" x="248.5" y="-7" font-family="Helvetica,sans-Serif" font-size="10.00">stdbool.h</text>
</a>
</g>
</g>
<!-- Node9&#45;&gt;Node18 -->
<g id="edge25_Node000009_Node000018" class="edge">
<title>Node9&#45;&gt;Node18</title>
<g id="a_edge25_Node000009_Node000018"><a xlink:title=" ">
<path fill="none" stroke="#63b8ff" d="M346.91,-219.72C347.73,-192.75 347.06,-109.58 311.5,-55 302.91,-41.82 288.94,-31.36 276.33,-23.91"/>
<polygon fill="#63b8ff" stroke="#63b8ff" points="277.93,-20.79 267.49,-19.01 274.54,-26.92 277.93,-20.79"/>
</a>
</g>
</g>
<!-- Node10&#45;&gt;Node6 -->
<g id="edge10_Node000010_Node000006" class="edge">
<title>Node10&#45;&gt;Node6</title>
<g id="a_edge10_Node000010_Node000006"><a xlink:title=" ">
<path fill="none" stroke="#63b8ff" d="M431.77,-164.93C414.3,-143.26 365.1,-85.79 311.5,-55 293.85,-44.86 245.13,-31.11 208.37,-21.59"/>
<polygon fill="#63b8ff" stroke="#63b8ff" points="208.91,-18.11 198.36,-19.02 207.17,-24.89 208.91,-18.11"/>
</a>
</g>
</g>
<!-- Node10&#45;&gt;Node7 -->
<g id="edge11_Node000010_Node000007" class="edge">
<title>Node10&#45;&gt;Node7</title>
<g id="a_edge11_Node000010_Node000007"><a xlink:title=" ">
<path fill="none" stroke="#63b8ff" d="M453.74,-164.97C501.26,-138.35 647.07,-56.67 705.2,-24.11"/>
<polygon fill="#63b8ff" stroke="#63b8ff" points="707.05,-27.09 714.06,-19.15 703.63,-20.98 707.05,-27.09"/>
</a>
</g>
</g>
<!-- Node11 -->
<g id="Node000011" class="node">
<title>Node11</title>
<g id="a_Node000011"><a xlink:href="file__downlink_8h.html" target="_top" xlink:title=" ">
<polygon fill="white" stroke="#666666" points="507.5,-129 417.5,-129 417.5,-110 507.5,-110 507.5,-129"/>
<text text-anchor="middle" x="462.5" y="-117" font-family="Helvetica,sans-Serif" font-size="10.00">file_downlink.h</text>
</a>
</g>
</g>
<!-- Node10&#45;&gt;Node11 -->
<g id="edge12_Node000010_Node000011" class="edge">
<title>Node10&#45;&gt;Node11</title>
<g id="a_edge12_Node000010_Node000011"><a xlink:title=" ">
<path fill="none" stroke="#63b8ff" d="M442.46,-164.75C445.71,-157.57 450.42,-147.18 454.45,-138.27"/>
<polygon fill="#63b8ff" stroke="#63b8ff" points="457.67,-139.64 458.61,-129.09 451.3,-136.75 457.67,-139.64"/>
</a>
</g>
</g>
<!-- Node11&#45;&gt;Node6 -->
<g id="edge13_Node000011_Node000006" class="edge">
<title>Node11&#45;&gt;Node6</title>
<g id="a_edge13_Node000011_Node000006"><a xlink:title=" ">
<path fill="none" stroke="#63b8ff" d="M455.16,-109.94C442.72,-96.06 416.08,-68.78 387.5,-55 383.47,-53.06 273.95,-31.77 209.57,-19.35"/>
<polygon fill="#63b8ff" stroke="#63b8ff" points="210.13,-15.9 199.64,-17.44 208.8,-22.77 210.13,-15.9"/>
</a>
</g>
</g>
<!-- Node11&#45;&gt;Node7 -->
<g id="edge14_Node000011_Node000007" class="edge">
<title>Node11&#45;&gt;Node7</title>
<g id="a_edge14_Node000011_Node000007"><a xlink:title=" ">
<path fill="none" stroke="#63b8ff" d="M474.46,-109.96C493.66,-96.58 532.94,-70.6 569.5,-55 591.33,-45.68 651.28,-29.94 691.27,-19.89"/>
<polygon fill="#63b8ff" stroke="#63b8ff" points="692.37,-23.23 701.22,-17.41 690.67,-16.43 692.37,-23.23"/>
</a>
</g>
</g>
<!-- Node11&#45;&gt;Node12 -->
<g id="edge15_Node000011_Node000012" class="edge">
<title>Node11&#45;&gt;Node12</title>
<g id="a_edge15_Node000011_Node000012"><a xlink:title=" ">
<path fill="none" stroke="#63b8ff" d="M465.14,-109.75C467.26,-102.72 470.31,-92.62 472.96,-83.84"/>
<polygon fill="#63b8ff" stroke="#63b8ff" points="476.37,-84.67 475.91,-74.09 469.67,-82.65 476.37,-84.67"/>
</a>
</g>
</g>
<!-- Node12&#45;&gt;Node6 -->
<g id="edge16_Node000012_Node000006" class="edge">
<title>Node12&#45;&gt;Node6</title>
<g id="a_edge16_Node000012_Node000006"><a xlink:title=" ">
<path fill="none" stroke="#63b8ff" d="M439.76,-57.23C379.87,-47.52 266.55,-29.07 209.76,-19.18"/>
<polygon fill="#63b8ff" stroke="#63b8ff" points="210.29,-15.72 199.84,-17.44 209.08,-22.62 210.29,-15.72"/>
</a>
</g>
</g>
<!-- Node12&#45;&gt;Node7 -->
<g id="edge17_Node000012_Node000007" class="edge">
<title>Node12&#45;&gt;Node7</title>
<g id="a_edge17_Node000012_Node000007"><a xlink:title=" ">
<path fill="none" stroke="#63b8ff" d="M517.21,-55.7C558.1,-47.41 624.72,-33.74 691.4,-19.21"/>
<polygon fill="#63b8ff" stroke="#63b8ff" points="692.21,-22.61 701.23,-17.06 690.72,-15.77 692.21,-22.61"/>
</a>
</g>
</g>
<!-- Node12&#45;&gt;Node8 -->
<g id="edge18_Node000012_Node000008" class="edge">
<title>Node12&#45;&gt;Node8</title>
<g id="a_edge18_Node000012_Node000008"><a xlink:title=" ">
<path fill="none" stroke="#63b8ff" d="M517.38,-58.73C571.02,-51.89 670.91,-38.16 765.73,-18.97"/>
<polygon fill="#63b8ff" stroke="#63b8ff" points="766.68,-22.35 775.77,-16.91 765.27,-15.49 766.68,-22.35"/>
</a>
</g>
</g>
<!-- Node13 -->
<g id="Node000013" class="node">
<title>Node13</title>
<g id="a_Node000013"><a xlink:title=" ">
<polygon fill="#e0e0e0" stroke="#999999" points="555.5,-19 523.5,-19 523.5,0 555.5,0 555.5,-19"/>
<text text-anchor="middle" x="539.5" y="-7" font-family="Helvetica,sans-Serif" font-size="10.00">ff.h</text>
</a>
</g>
</g>
<!-- Node12&#45;&gt;Node13 -->
<g id="edge19_Node000012_Node000013" class="edge">
<title>Node12&#45;&gt;Node13</title>
<g id="a_edge19_Node000012_Node000013"><a xlink:title=" ">
<path fill="none" stroke="#63b8ff" d="M488.3,-54.98C497.32,-47.15 510.91,-35.34 521.82,-25.86"/>
<polygon fill="#63b8ff" stroke="#63b8ff" points="524.27,-28.37 529.52,-19.17 519.68,-23.09 524.27,-28.37"/>
</a>
</g>
</g>
<!-- Node14 -->
<g id="Node000014" class="node">
<title>Node14</title>
<g id="a_Node000014"><a xlink:href="filesystem__errors_8h.html" target="_top" xlink:title=" ">
<polygon fill="white" stroke="#666666" points="683.5,-19 573.5,-19 573.5,0 683.5,0 683.5,-19"/>
<text text-anchor="middle" x="628.5" y="-7" font-family="Helvetica,sans-Serif" font-size="10.00">filesystem_errors.h</text>
</a>
</g>
</g>
<!-- Node12&#45;&gt;Node14 -->
<g id="edge20_Node000012_Node000014" class="edge">
<title>Node12&#45;&gt;Node14</title>
<g id="a_edge20_Node000012_Node000014"><a xlink:title=" ">
<path fill="none" stroke="#63b8ff" d="M502.6,-54.98C527.38,-46.23 566.2,-32.51 594.19,-22.62"/>
<polygon fill="#63b8ff" stroke="#63b8ff" points="595.7,-25.8 603.96,-19.17 593.37,-19.2 595.7,-25.8"/>
</a>
</g>
</g>
<!-- Node15 -->
<g id="Node000015" class="node">
<title>Node15</title>
<g id="a_Node000015"><a xlink:title=" ">
<polygon fill="#e0e0e0" stroke="#999999" points="359.5,-19 297.5,-19 297.5,0 359.5,0 359.5,-19"/>
<text text-anchor="middle" x="328.5" y="-7" font-family="Helvetica,sans-Serif" font-size="10.00">semphr.h</text>
</a>
</g>
</g>
<!-- Node12&#45;&gt;Node15 -->
<g id="edge21_Node000012_Node000015" class="edge">
<title>Node12&#45;&gt;Node15</title>
<g id="a_edge21_Node000012_Node000015"><a xlink:title=" ">
<path fill="none" stroke="#63b8ff" d="M454.4,-54.98C429.62,-46.23 390.8,-32.51 362.81,-22.62"/>
<polygon fill="#63b8ff" stroke="#63b8ff" points="363.63,-19.2 353.04,-19.17 361.3,-25.8 363.63,-19.2"/>
</a>
</g>
</g>
<!-- Node16 -->
<g id="Node000016" class="node">
<title>Node16</title>
<g id="a_Node000016"><a xlink:title=" ">
<polygon fill="#e0e0e0" stroke="#999999" points="433.5,-19 377.5,-19 377.5,0 433.5,0 433.5,-19"/>
<text text-anchor="middle" x="405.5" y="-7" font-family="Helvetica,sans-Serif" font-size="10.00">stddef.h</text>
</a>
</g>
</g>
<!-- Node12&#45;&gt;Node16 -->
<g id="edge22_Node000012_Node000016" class="edge">
<title>Node12&#45;&gt;Node16</title>
<g id="a_edge22_Node000012_Node000016"><a xlink:title=" ">
<path fill="none" stroke="#63b8ff" d="M466.77,-54.98C455.77,-47 439.08,-34.88 425.9,-25.31"/>
<polygon fill="#63b8ff" stroke="#63b8ff" points="427.59,-22.21 417.44,-19.17 423.48,-27.88 427.59,-22.21"/>
</a>
</g>
</g>
<!-- Node17 -->
<g id="Node000017" class="node">
<title>Node17</title>
<g id="a_Node000017"><a xlink:title=" ">
<polygon fill="#e0e0e0" stroke="#999999" points="505,-19 452,-19 452,0 505,0 505,-19"/>
<text text-anchor="middle" x="478.5" y="-7" font-family="Helvetica,sans-Serif" font-size="10.00">stdint.h</text>
</a>
</g>
</g>
<!-- Node12&#45;&gt;Node17 -->
<g id="edge23_Node000012_Node000017" class="edge">
<title>Node12&#45;&gt;Node17</title>
<g id="a_edge23_Node000012_Node000017"><a xlink:title=" ">
<path fill="none" stroke="#63b8ff" d="M478.5,-54.75C478.5,-47.8 478.5,-37.85 478.5,-29.13"/>
<polygon fill="#63b8ff" stroke="#63b8ff" points="482,-29.09 478.5,-19.09 475,-29.09 482,-29.09"/>
</a>
</g>
</g>
<!-- Node12&#45;&gt;Node18 -->
<g id="edge24_Node000012_Node000018" class="edge">
<title>Node12&#45;&gt;Node18</title>
<g id="a_edge24_Node000012_Node000018"><a xlink:title=" ">
<path fill="none" stroke="#63b8ff" d="M441.55,-54.98C400.05,-45.42 332.88,-29.94 289.71,-20"/>
<polygon fill="#63b8ff" stroke="#63b8ff" points="290.35,-16.55 279.82,-17.72 288.78,-23.37 290.35,-16.55"/>
</a>
</g>
</g>
</g>
</svg>
