<?xml version="1.0" encoding="UTF-8" standalone="no"?>
<!DOCTYPE svg PUBLIC "-//W3C//DTD SVG 1.1//EN"
 "http://www.w3.org/Graphics/SVG/1.1/DTD/svg11.dtd">
<!-- Generated by graphviz version 2.43.0 (0)
 -->
<!-- Title: write_error_log Pages: 1 -->
<svg width="666pt" height="139pt"
 viewBox="0.00 0.00 666.00 139.00" xmlns="http://www.w3.org/2000/svg" xmlns:xlink="http://www.w3.org/1999/xlink">
<g id="graph0" class="graph" transform="scale(1 1) rotate(0) translate(4 135)">
<title>write_error_log</title>
<!-- Node1 -->
<g id="Node000001" class="node">
<title>Node1</title>
<g id="a_Node000001"><a xlink:title=" ">
<polygon fill="#999999" stroke="#666666" points="90,-74 0,-74 0,-55 90,-55 90,-74"/>
<text text-anchor="middle" x="45" y="-62" font-family="Helvetica,sans-Serif" font-size="10.00">write_error_log</text>
</a>
</g>
</g>
<!-- Node2 -->
<g id="Node000002" class="node">
<title>Node2</title>
<g id="a_Node000002"><a xlink:href="filesystem_8c.html#a6c3bed1f355bd1952d7ffa87405828c6" target="_top" xlink:title=" ">
<polygon fill="white" stroke="#666666" points="302.5,-131 238.5,-131 238.5,-112 302.5,-112 302.5,-131"/>
<text text-anchor="middle" x="270.5" y="-119" font-family="Helvetica,sans-Serif" font-size="10.00">dir_exists</text>
</a>
</g>
</g>
<!-- Node1&#45;&gt;Node2 -->
<g id="edge1_Node000001_Node000002" class="edge">
<title>Node1&#45;&gt;Node2</title>
<g id="a_edge1_Node000001_Node000002"><a xlink:title=" ">
<path fill="none" stroke="#63b8ff" d="M62.25,-74.08C78.01,-82.91 102.85,-95.65 126,-102.5 159.59,-112.43 199.14,-117.18 228.21,-119.45"/>
<polygon fill="#63b8ff" stroke="#63b8ff" points="228.19,-122.96 238.41,-120.18 228.68,-115.97 228.19,-122.96"/>
</a>
</g>
</g>
<!-- Node5 -->
<g id="Node000005" class="node">
<title>Node5</title>
<g id="a_Node000005"><a xlink:href="filesystem_8c.html#a20ca64a89158ccc1eb3f714b3d8725f5" target="_top" xlink:title=" ">
<polygon fill="white" stroke="#666666" points="188,-93 126,-93 126,-74 188,-74 188,-93"/>
<text text-anchor="middle" x="157" y="-81" font-family="Helvetica,sans-Serif" font-size="10.00">make_dir</text>
</a>
</g>
</g>
<!-- Node1&#45;&gt;Node5 -->
<g id="edge4_Node000001_Node000005" class="edge">
<title>Node1&#45;&gt;Node5</title>
<g id="a_edge4_Node000001_Node000005"><a xlink:title=" ">
<path fill="none" stroke="#63b8ff" d="M90.11,-72.12C98.61,-73.59 107.47,-75.12 115.83,-76.56"/>
<polygon fill="#63b8ff" stroke="#63b8ff" points="115.28,-80.02 125.73,-78.27 116.47,-73.12 115.28,-80.02"/>
</a>
</g>
</g>
<!-- Node6 -->
<g id="Node000006" class="node">
<title>Node6</title>
<g id="a_Node000006"><a xlink:href="filesystem_8c.html#ab92b1f0beb3be903677f3293d0430b62" target="_top" xlink:title=" ">
<polygon fill="white" stroke="#666666" points="186.5,-56 127.5,-56 127.5,-37 186.5,-37 186.5,-56"/>
<text text-anchor="middle" x="157" y="-44" font-family="Helvetica,sans-Serif" font-size="10.00">read_file</text>
</a>
</g>
</g>
<!-- Node1&#45;&gt;Node6 -->
<g id="edge5_Node000001_Node000006" class="edge">
<title>Node1&#45;&gt;Node6</title>
<g id="a_edge5_Node000001_Node000006"><a xlink:title=" ">
<path fill="none" stroke="#63b8ff" d="M90.11,-57.28C99.13,-55.81 108.56,-54.26 117.37,-52.82"/>
<polygon fill="#63b8ff" stroke="#63b8ff" points="118.07,-56.25 127.37,-51.18 116.94,-49.35 118.07,-56.25"/>
</a>
</g>
</g>
<!-- Node9 -->
<g id="Node000009" class="node">
<title>Node9</title>
<g id="a_Node000009"><a xlink:href="filesystem_8c.html#a8e5a51c709e9d6229c1974435475292a" target="_top" xlink:title=" ">
<polygon fill="white" stroke="#666666" points="188,-19 126,-19 126,0 188,0 188,-19"/>
<text text-anchor="middle" x="157" y="-7" font-family="Helvetica,sans-Serif" font-size="10.00">write_file</text>
</a>
</g>
</g>
<!-- Node1&#45;&gt;Node9 -->
<g id="edge10_Node000001_Node000009" class="edge">
<title>Node1&#45;&gt;Node9</title>
<g id="a_edge10_Node000001_Node000009"><a xlink:title=" ">
<path fill="none" stroke="#63b8ff" d="M65.16,-54.92C82.41,-46.3 107.98,-33.51 127.6,-23.7"/>
<polygon fill="#63b8ff" stroke="#63b8ff" points="129.31,-26.76 136.69,-19.16 126.18,-20.5 129.31,-26.76"/>
</a>
</g>
</g>
<!-- Node3 -->
<g id="Node000003" class="node">
<title>Node3</title>
<g id="a_Node000003"><a xlink:href="filesystem_8c.html#aa109ff29a72d1beadda58bb3a54185b6" target="_top" xlink:title=" ">
<polygon fill="white" stroke="#666666" points="491,-93 456,-93 456,-74 491,-74 491,-93"/>
<text text-anchor="middle" x="473.5" y="-81" font-family="Helvetica,sans-Serif" font-size="10.00">stat</text>
</a>
</g>
</g>
<!-- Node2&#45;&gt;Node3 -->
<g id="edge2_Node000002_Node000003" class="edge">
<title>Node2&#45;&gt;Node3</title>
<g id="a_edge2_Node000002_Node000003"><a xlink:title=" ">
<path fill="none" stroke="#63b8ff" d="M302.58,-119.52C332.87,-117.13 380.08,-112.15 420,-102.5 428.71,-100.39 437.97,-97.33 446.25,-94.28"/>
<polygon fill="#63b8ff" stroke="#63b8ff" points="447.69,-97.48 455.77,-90.63 445.18,-90.94 447.69,-97.48"/>
</a>
</g>
</g>
<!-- Node4 -->
<g id="Node000004" class="node">
<title>Node4</title>
<g id="a_Node000004"><a xlink:href="utilities_2src_2log_8c.html#a4b048be24c6c7f622a6bc6c6bf8ac435" target="_top" xlink:title=" ">
<polygon fill="white" stroke="#666666" points="658,-74 527,-74 527,-55 658,-55 658,-74"/>
<text text-anchor="middle" x="592.5" y="-62" font-family="Helvetica,sans-Serif" font-size="10.00">get_current_task_name</text>
</a>
</g>
</g>
<!-- Node3&#45;&gt;Node4 -->
<g id="edge3_Node000003_Node000004" class="edge">
<title>Node3&#45;&gt;Node4</title>
<g id="a_edge3_Node000003_Node000004"><a xlink:title=" ">
<path fill="none" stroke="#63b8ff" d="M491.02,-80.82C499.68,-79.41 510.93,-77.58 522.77,-75.66"/>
<polygon fill="#63b8ff" stroke="#63b8ff" points="523.49,-79.09 532.8,-74.03 522.36,-72.18 523.49,-79.09"/>
</a>
</g>
</g>
<!-- Node7 -->
<g id="Node000007" class="node">
<title>Node7</title>
<g id="a_Node000007"><a xlink:href="filesystem_8c.html#ae0599d66eddc7fdf656fca874aa5f1d1" target="_top" xlink:title=" ">
<polygon fill="white" stroke="#666666" points="317,-56 224,-56 224,-37 317,-37 317,-56"/>
<text text-anchor="middle" x="270.5" y="-44" font-family="Helvetica,sans-Serif" font-size="10.00">read_file_offset</text>
</a>
</g>
</g>
<!-- Node6&#45;&gt;Node7 -->
<g id="edge6_Node000006_Node000007" class="edge">
<title>Node6&#45;&gt;Node7</title>
<g id="a_edge6_Node000006_Node000007"><a xlink:title=" ">
<path fill="none" stroke="#63b8ff" d="M186.71,-46.5C194.96,-46.5 204.25,-46.5 213.54,-46.5"/>
<polygon fill="#63b8ff" stroke="#63b8ff" points="213.58,-50 223.58,-46.5 213.58,-43 213.58,-50"/>
</a>
</g>
</g>
<!-- Node7&#45;&gt;Node4 -->
<g id="edge9_Node000007_Node000004" class="edge">
<title>Node7&#45;&gt;Node4</title>
<g id="a_edge9_Node000007_Node000004"><a xlink:title=" ">
<path fill="none" stroke="#63b8ff" d="M317.01,-49.06C368.99,-51.98 454.82,-56.81 516.67,-60.29"/>
<polygon fill="#63b8ff" stroke="#63b8ff" points="516.59,-63.79 526.77,-60.86 516.98,-56.8 516.59,-63.79"/>
</a>
</g>
</g>
<!-- Node8 -->
<g id="Node000008" class="node">
<title>Node8</title>
<g id="a_Node000008"><a xlink:href="filesystem_8c.html#a07610d3a6787ca02aa3d340759bcb8c9" target="_top" xlink:title=" ">
<polygon fill="white" stroke="#666666" points="420,-93 353,-93 353,-74 420,-74 420,-93"/>
<text text-anchor="middle" x="386.5" y="-81" font-family="Helvetica,sans-Serif" font-size="10.00">file_exists</text>
</a>
</g>
</g>
<!-- Node7&#45;&gt;Node8 -->
<g id="edge7_Node000007_Node000008" class="edge">
<title>Node7&#45;&gt;Node8</title>
<g id="a_edge7_Node000007_Node000008"><a xlink:title=" ">
<path fill="none" stroke="#63b8ff" d="M300.86,-56.03C314.58,-60.48 331.12,-65.85 345.93,-70.66"/>
<polygon fill="#63b8ff" stroke="#63b8ff" points="345.25,-74.12 355.85,-73.88 347.41,-67.46 345.25,-74.12"/>
</a>
</g>
</g>
<!-- Node8&#45;&gt;Node3 -->
<g id="edge8_Node000008_Node000003" class="edge">
<title>Node8&#45;&gt;Node3</title>
<g id="a_edge8_Node000008_Node000003"><a xlink:title=" ">
<path fill="none" stroke="#63b8ff" d="M420.12,-83.5C428.58,-83.5 437.6,-83.5 445.73,-83.5"/>
<polygon fill="#63b8ff" stroke="#63b8ff" points="445.77,-87 455.77,-83.5 445.77,-80 445.77,-87"/>
</a>
</g>
</g>
</g>
</svg>
