<?xml version="1.0" encoding="UTF-8" standalone="no"?>
<!DOCTYPE svg PUBLIC "-//W3C//DTD SVG 1.1//EN"
 "http://www.w3.org/Graphics/SVG/1.1/DTD/svg11.dtd">
<!-- Generated by graphviz version 12.1.2 (20240928.0832)
 -->
<!-- Title: log.c Pages: 1 -->
<svg width="854pt" height="196pt"
 viewBox="0.00 0.00 853.68 196.00" xmlns="http://www.w3.org/2000/svg" xmlns:xlink="http://www.w3.org/1999/xlink">
<g id="graph0" class="graph" transform="scale(1 1) rotate(0) translate(4 192)">
<title>log.c</title>
<!-- Node1 -->
<g id="Node000001" class="node">
<title>Node1</title>
<g id="a_Node000001"><a xlink:title=" ">
<polygon fill="#999999" stroke="#666666" points="295.62,-188 258.62,-188 258.62,-168 295.62,-168 295.62,-188"/>
<text text-anchor="middle" x="277.12" y="-174.5" font-family="Helvetica,sans-Serif" font-size="10.00">log.c</text>
</a>
</g>
</g>
<!-- Node2 -->
<g id="Node000002" class="node">
<title>Node2</title>
<g id="a_Node000002"><a xlink:title=" ">
<polygon fill="#e0e0e0" stroke="#999999" points="48.25,-132 0,-132 0,-112 48.25,-112 48.25,-132"/>
<text text-anchor="middle" x="24.12" y="-118.5" font-family="Helvetica,sans-Serif" font-size="10.00">string.h</text>
</a>
</g>
</g>
<!-- Node1&#45;&gt;Node2 -->
<g id="edge1_Node000001_Node000002" class="edge">
<title>Node1&#45;&gt;Node2</title>
<g id="a_edge1_Node000001_Node000002"><a xlink:title=" ">
<path fill="none" stroke="#63b8ff" d="M258.2,-173.56C221.73,-166.83 138.96,-151.12 59.74,-132.51"/>
<polygon fill="#63b8ff" stroke="#63b8ff" points="60.6,-129.11 50.06,-130.21 58.98,-135.92 60.6,-129.11"/>
</a>
</g>
</g>
<!-- Node3 -->
<g id="Node000003" class="node">
<title>Node3</title>
<g id="a_Node000003"><a xlink:href="stdio_8h.html" target="_top" xlink:title=" ">
<polygon fill="white" stroke="#666666" points="111.75,-132 66.5,-132 66.5,-112 111.75,-112 111.75,-132"/>
<text text-anchor="middle" x="89.12" y="-118.5" font-family="Helvetica,sans-Serif" font-size="10.00">stdio.h</text>
</a>
</g>
</g>
<!-- Node1&#45;&gt;Node3 -->
<g id="edge2_Node000001_Node000003" class="edge">
<title>Node1&#45;&gt;Node3</title>
<g id="a_edge2_Node000001_Node000003"><a xlink:title=" ">
<path fill="none" stroke="#63b8ff" d="M258.27,-171.62C230.63,-163.72 177.22,-148.45 122.99,-132.82"/>
<polygon fill="#63b8ff" stroke="#63b8ff" points="124.18,-129.52 113.6,-130.11 122.24,-136.25 124.18,-129.52"/>
</a>
</g>
</g>
<!-- Node4 -->
<g id="Node000004" class="node">
<title>Node4</title>
<g id="a_Node000004"><a xlink:title=" ">
<polygon fill="#e0e0e0" stroke="#999999" points="180.75,-132 129.5,-132 129.5,-112 180.75,-112 180.75,-132"/>
<text text-anchor="middle" x="155.12" y="-118.5" font-family="Helvetica,sans-Serif" font-size="10.00">stdarg.h</text>
</a>
</g>
</g>
<!-- Node1&#45;&gt;Node4 -->
<g id="edge3_Node000001_Node000004" class="edge">
<title>Node1&#45;&gt;Node4</title>
<g id="a_edge3_Node000001_Node000004"><a xlink:title=" ">
<path fill="none" stroke="#63b8ff" d="M258.33,-168.68C239.26,-160.24 209.4,-147.02 186.69,-136.97"/>
<polygon fill="#63b8ff" stroke="#63b8ff" points="188.14,-133.79 177.58,-132.94 185.31,-140.19 188.14,-133.79"/>
</a>
</g>
</g>
<!-- Node5 -->
<g id="Node000005" class="node">
<title>Node5</title>
<g id="a_Node000005"><a xlink:title=" ">
<polygon fill="#e0e0e0" stroke="#999999" points="249.38,-132 198.88,-132 198.88,-112 249.38,-112 249.38,-132"/>
<text text-anchor="middle" x="224.12" y="-118.5" font-family="Helvetica,sans-Serif" font-size="10.00">unistd.h</text>
</a>
</g>
</g>
<!-- Node1&#45;&gt;Node5 -->
<g id="edge4_Node000001_Node000005" class="edge">
<title>Node1&#45;&gt;Node5</title>
<g id="a_edge4_Node000001_Node000005"><a xlink:title=" ">
<path fill="none" stroke="#63b8ff" d="M267.89,-167.59C260.52,-160.08 249.99,-149.35 241.11,-140.3"/>
<polygon fill="#63b8ff" stroke="#63b8ff" points="243.81,-138.06 234.31,-133.38 238.82,-142.97 243.81,-138.06"/>
</a>
</g>
</g>
<!-- Node6 -->
<g id="Node000006" class="node">
<title>Node6</title>
<g id="a_Node000006"><a xlink:title=" ">
<polygon fill="#e0e0e0" stroke="#999999" points="365.5,-20 294.75,-20 294.75,0 365.5,0 365.5,-20"/>
<text text-anchor="middle" x="330.12" y="-6.5" font-family="Helvetica,sans-Serif" font-size="10.00">FreeRTOS.h</text>
</a>
</g>
</g>
<!-- Node1&#45;&gt;Node6 -->
<g id="edge5_Node000001_Node000006" class="edge">
<title>Node1&#45;&gt;Node6</title>
<g id="a_edge5_Node000001_Node000006"><a xlink:title=" ">
<path fill="none" stroke="#63b8ff" d="M276.13,-167.7C274.29,-146.73 271.95,-94.57 289.12,-56 293.81,-45.48 301.94,-35.76 309.73,-28.07"/>
<polygon fill="#63b8ff" stroke="#63b8ff" points="312.06,-30.67 317.06,-21.33 307.33,-25.52 312.06,-30.67"/>
</a>
</g>
</g>
<!-- Node7 -->
<g id="Node000007" class="node">
<title>Node7</title>
<g id="a_Node000007"><a xlink:title=" ">
<polygon fill="#e0e0e0" stroke="#999999" points="723.38,-20 672.88,-20 672.88,0 723.38,0 723.38,-20"/>
<text text-anchor="middle" x="698.12" y="-6.5" font-family="Helvetica,sans-Serif" font-size="10.00">queue.h</text>
</a>
</g>
</g>
<!-- Node1&#45;&gt;Node7 -->
<g id="edge6_Node000001_Node000007" class="edge">
<title>Node1&#45;&gt;Node7</title>
<g id="a_edge6_Node000001_Node000007"><a xlink:title=" ">
<path fill="none" stroke="#63b8ff" d="M295.98,-176.84C386.1,-175.6 771.45,-165.11 839.12,-76 868.62,-37.17 786.01,-20.76 735.02,-14.47"/>
<polygon fill="#63b8ff" stroke="#63b8ff" points="735.58,-11.01 725.25,-13.36 734.78,-17.97 735.58,-11.01"/>
</a>
</g>
</g>
<!-- Node8 -->
<g id="Node000008" class="node">
<title>Node8</title>
<g id="a_Node000008"><a xlink:title=" ">
<polygon fill="#e0e0e0" stroke="#999999" points="496.62,-76 453.62,-76 453.62,-56 496.62,-56 496.62,-76"/>
<text text-anchor="middle" x="475.12" y="-62.5" font-family="Helvetica,sans-Serif" font-size="10.00">task.h</text>
</a>
</g>
</g>
<!-- Node1&#45;&gt;Node8 -->
<g id="edge7_Node000001_Node000008" class="edge">
<title>Node1&#45;&gt;Node8</title>
<g id="a_edge7_Node000001_Node000008"><a xlink:title=" ">
<path fill="none" stroke="#63b8ff" d="M294.01,-167.62C328.42,-148.5 406.92,-104.89 448.36,-81.87"/>
<polygon fill="#63b8ff" stroke="#63b8ff" points="449.92,-85.01 456.96,-77.09 446.52,-78.89 449.92,-85.01"/>
</a>
</g>
</g>
<!-- Node9 -->
<g id="Node000009" class="node">
<title>Node9</title>
<g id="a_Node000009"><a xlink:href="log_8h.html" target="_top" xlink:title=" ">
<polygon fill="white" stroke="#666666" points="348.62,-132 311.62,-132 311.62,-112 348.62,-112 348.62,-132"/>
<text text-anchor="middle" x="330.12" y="-118.5" font-family="Helvetica,sans-Serif" font-size="10.00">log.h</text>
</a>
</g>
</g>
<!-- Node1&#45;&gt;Node9 -->
<g id="edge8_Node000001_Node000009" class="edge">
<title>Node1&#45;&gt;Node9</title>
<g id="a_edge8_Node000001_Node000009"><a xlink:title=" ">
<path fill="none" stroke="#63b8ff" d="M286.36,-167.59C293.73,-160.08 304.26,-149.35 313.14,-140.3"/>
<polygon fill="#63b8ff" stroke="#63b8ff" points="315.43,-142.97 319.94,-133.38 310.44,-138.06 315.43,-142.97"/>
</a>
</g>
</g>
<!-- Node12 -->
<g id="Node000012" class="node">
<title>Node12</title>
<g id="a_Node000012"><a xlink:href="filesystem_8h.html" target="_top" xlink:title=" ">
<polygon fill="white" stroke="#666666" points="628.75,-132 559.5,-132 559.5,-112 628.75,-112 628.75,-132"/>
<text text-anchor="middle" x="594.12" y="-118.5" font-family="Helvetica,sans-Serif" font-size="10.00">filesystem.h</text>
</a>
</g>
</g>
<!-- Node1&#45;&gt;Node12 -->
<g id="edge13_Node000001_Node000012" class="edge">
<title>Node1&#45;&gt;Node12</title>
<g id="a_edge13_Node000001_Node000012"><a xlink:title=" ">
<path fill="none" stroke="#63b8ff" d="M296.01,-173.78C344.99,-165.44 477.27,-142.91 548.02,-130.85"/>
<polygon fill="#63b8ff" stroke="#63b8ff" points="548.47,-134.33 557.74,-129.2 547.3,-127.43 548.47,-134.33"/>
</a>
</g>
</g>
<!-- Node10 -->
<g id="Node000010" class="node">
<title>Node10</title>
<g id="a_Node000010"><a xlink:href="telemetry_8h.html" target="_top" xlink:title=" ">
<polygon fill="white" stroke="#666666" points="362.12,-76 298.12,-76 298.12,-56 362.12,-56 362.12,-76"/>
<text text-anchor="middle" x="330.12" y="-62.5" font-family="Helvetica,sans-Serif" font-size="10.00">telemetry.h</text>
</a>
</g>
</g>
<!-- Node9&#45;&gt;Node10 -->
<g id="edge9_Node000009_Node000010" class="edge">
<title>Node9&#45;&gt;Node10</title>
<g id="a_edge9_Node000009_Node000010"><a xlink:title=" ">
<path fill="none" stroke="#63b8ff" d="M330.12,-111.59C330.12,-105.01 330.12,-95.96 330.12,-87.73"/>
<polygon fill="#63b8ff" stroke="#63b8ff" points="333.63,-87.81 330.13,-77.81 326.63,-87.81 333.63,-87.81"/>
</a>
</g>
</g>
<!-- Node11 -->
<g id="Node000011" class="node">
<title>Node11</title>
<g id="a_Node000011"><a xlink:title=" ">
<polygon fill="#e0e0e0" stroke="#999999" points="436,-76 380.25,-76 380.25,-56 436,-56 436,-76"/>
<text text-anchor="middle" x="408.12" y="-62.5" font-family="Helvetica,sans-Serif" font-size="10.00">stdbool.h</text>
</a>
</g>
</g>
<!-- Node9&#45;&gt;Node11 -->
<g id="edge12_Node000009_Node000011" class="edge">
<title>Node9&#45;&gt;Node11</title>
<g id="a_edge12_Node000009_Node000011"><a xlink:title=" ">
<path fill="none" stroke="#63b8ff" d="M343.71,-111.59C355.16,-103.67 371.79,-92.16 385.28,-82.82"/>
<polygon fill="#63b8ff" stroke="#63b8ff" points="386.96,-85.91 393.19,-77.34 382.97,-80.16 386.96,-85.91"/>
</a>
</g>
</g>
<!-- Node10&#45;&gt;Node6 -->
<g id="edge10_Node000010_Node000006" class="edge">
<title>Node10&#45;&gt;Node6</title>
<g id="a_edge10_Node000010_Node000006"><a xlink:title=" ">
<path fill="none" stroke="#63b8ff" d="M330.12,-55.59C330.12,-49.01 330.12,-39.96 330.12,-31.73"/>
<polygon fill="#63b8ff" stroke="#63b8ff" points="333.63,-31.81 330.13,-21.81 326.63,-31.81 333.63,-31.81"/>
</a>
</g>
</g>
<!-- Node10&#45;&gt;Node7 -->
<g id="edge11_Node000010_Node000007" class="edge">
<title>Node10&#45;&gt;Node7</title>
<g id="a_edge11_Node000010_Node000007"><a xlink:title=" ">
<path fill="none" stroke="#63b8ff" d="M362.31,-57.68C365.28,-57.08 368.26,-56.51 371.12,-56 475.85,-37.33 600.63,-22.08 661.32,-15.1"/>
<polygon fill="#63b8ff" stroke="#63b8ff" points="661.53,-18.6 671.07,-13.99 660.74,-11.64 661.53,-18.6"/>
</a>
</g>
</g>
<!-- Node12&#45;&gt;Node6 -->
<g id="edge14_Node000012_Node000006" class="edge">
<title>Node12&#45;&gt;Node6</title>
<g id="a_edge14_Node000012_Node000006"><a xlink:title=" ">
<path fill="none" stroke="#63b8ff" d="M594.27,-111.91C593.98,-97.73 591.19,-70.49 575.12,-56 546.64,-30.3 439.92,-18.6 377.12,-13.85"/>
<polygon fill="#63b8ff" stroke="#63b8ff" points="377.67,-10.38 367.44,-13.15 377.16,-17.36 377.67,-10.38"/>
</a>
</g>
</g>
<!-- Node12&#45;&gt;Node7 -->
<g id="edge15_Node000012_Node000007" class="edge">
<title>Node12&#45;&gt;Node7</title>
<g id="a_edge15_Node000012_Node000007"><a xlink:title=" ">
<path fill="none" stroke="#63b8ff" d="M624.83,-111.58C643.03,-104.51 665.2,-93.08 679.12,-76 689.37,-63.44 694.09,-45.57 696.26,-31.74"/>
<polygon fill="#63b8ff" stroke="#63b8ff" points="699.72,-32.3 697.45,-21.95 692.77,-31.46 699.72,-32.3"/>
</a>
</g>
</g>
<!-- Node12&#45;&gt;Node8 -->
<g id="edge16_Node000012_Node000008" class="edge">
<title>Node12&#45;&gt;Node8</title>
<g id="a_edge16_Node000012_Node000008"><a xlink:title=" ">
<path fill="none" stroke="#63b8ff" d="M573.4,-111.59C554.91,-103.21 527.58,-90.8 506.43,-81.21"/>
<polygon fill="#63b8ff" stroke="#63b8ff" points="507.95,-78.05 497.39,-77.1 505.05,-84.42 507.95,-78.05"/>
</a>
</g>
</g>
<!-- Node12&#45;&gt;Node11 -->
<g id="edge21_Node000012_Node000011" class="edge">
<title>Node12&#45;&gt;Node11</title>
<g id="a_edge21_Node000012_Node000011"><a xlink:title=" ">
<path fill="none" stroke="#63b8ff" d="M561.73,-111.59C529.84,-102.34 481.12,-88.19 447.12,-78.32"/>
<polygon fill="#63b8ff" stroke="#63b8ff" points="448.24,-75 437.66,-75.57 446.29,-81.72 448.24,-75"/>
</a>
</g>
</g>
<!-- Node13 -->
<g id="Node000013" class="node">
<title>Node13</title>
<g id="a_Node000013"><a xlink:title=" ">
<polygon fill="#e0e0e0" stroke="#999999" points="755.88,-76 726.38,-76 726.38,-56 755.88,-56 755.88,-76"/>
<text text-anchor="middle" x="741.12" y="-62.5" font-family="Helvetica,sans-Serif" font-size="10.00">ff.h</text>
</a>
</g>
</g>
<!-- Node12&#45;&gt;Node13 -->
<g id="edge17_Node000012_Node000013" class="edge">
<title>Node12&#45;&gt;Node13</title>
<g id="a_edge17_Node000012_Node000013"><a xlink:title=" ">
<path fill="none" stroke="#63b8ff" d="M619.73,-111.59C646.65,-101.71 688.75,-86.24 715.63,-76.37"/>
<polygon fill="#63b8ff" stroke="#63b8ff" points="716.53,-79.76 724.71,-73.03 714.11,-73.19 716.53,-79.76"/>
</a>
</g>
</g>
<!-- Node14 -->
<g id="Node000014" class="node">
<title>Node14</title>
<g id="a_Node000014"><a xlink:title=" ">
<polygon fill="#e0e0e0" stroke="#999999" points="830.38,-76 773.88,-76 773.88,-56 830.38,-56 830.38,-76"/>
<text text-anchor="middle" x="802.12" y="-62.5" font-family="Helvetica,sans-Serif" font-size="10.00">semphr.h</text>
</a>
</g>
</g>
<!-- Node12&#45;&gt;Node14 -->
<g id="edge18_Node000012_Node000014" class="edge">
<title>Node12&#45;&gt;Node14</title>
<g id="a_edge18_Node000012_Node000014"><a xlink:title=" ">
<path fill="none" stroke="#63b8ff" d="M628.94,-111.96C665.89,-102.37 724.15,-87.24 762.75,-77.22"/>
<polygon fill="#63b8ff" stroke="#63b8ff" points="763.3,-80.7 772.1,-74.8 761.54,-73.92 763.3,-80.7"/>
</a>
</g>
</g>
<!-- Node15 -->
<g id="Node000015" class="node">
<title>Node15</title>
<g id="a_Node000015"><a xlink:title=" ">
<polygon fill="#e0e0e0" stroke="#999999" points="565.75,-76 514.5,-76 514.5,-56 565.75,-56 565.75,-76"/>
<text text-anchor="middle" x="540.12" y="-62.5" font-family="Helvetica,sans-Serif" font-size="10.00">stddef.h</text>
</a>
</g>
</g>
<!-- Node12&#45;&gt;Node15 -->
<g id="edge19_Node000012_Node000015" class="edge">
<title>Node12&#45;&gt;Node15</title>
<g id="a_edge19_Node000012_Node000015"><a xlink:title=" ">
<path fill="none" stroke="#63b8ff" d="M584.72,-111.59C577.21,-104.08 566.48,-93.35 557.43,-84.3"/>
<polygon fill="#63b8ff" stroke="#63b8ff" points="560.04,-81.96 550.49,-77.37 555.09,-86.91 560.04,-81.96"/>
</a>
</g>
</g>
<!-- Node16 -->
<g id="Node000016" class="node">
<title>Node16</title>
<g id="a_Node000016"><a xlink:title=" ">
<polygon fill="#e0e0e0" stroke="#999999" points="670.25,-76 622,-76 622,-56 670.25,-56 670.25,-76"/>
<text text-anchor="middle" x="646.12" y="-62.5" font-family="Helvetica,sans-Serif" font-size="10.00">stdint.h</text>
</a>
</g>
</g>
<!-- Node12&#45;&gt;Node16 -->
<g id="edge20_Node000012_Node000016" class="edge">
<title>Node12&#45;&gt;Node16</title>
<g id="a_edge20_Node000012_Node000016"><a xlink:title=" ">
<path fill="none" stroke="#63b8ff" d="M603.18,-111.59C610.34,-104.16 620.53,-93.58 629.19,-84.58"/>
<polygon fill="#63b8ff" stroke="#63b8ff" points="631.71,-87.02 636.12,-77.39 626.66,-82.16 631.71,-87.02"/>
</a>
</g>
</g>
</g>
</svg>
