<?xml version="1.0" encoding="UTF-8" standalone="no"?>
<!DOCTYPE svg PUBLIC "-//W3C//DTD SVG 1.1//EN"
 "http://www.w3.org/Graphics/SVG/1.1/DTD/svg11.dtd">
<!-- Generated by graphviz version 12.1.2 (20240928.0832)
 -->
<!-- Title: vega_ant.c Pages: 1 -->
<svg width="398pt" height="252pt"
 viewBox="0.00 0.00 398.25 252.00" xmlns="http://www.w3.org/2000/svg" xmlns:xlink="http://www.w3.org/1999/xlink">
<g id="graph0" class="graph" transform="scale(1 1) rotate(0) translate(4 248)">
<title>vega_ant.c</title>
<!-- Node1 -->
<g id="Node000001" class="node">
<title>Node1</title>
<g id="a_Node000001"><a xlink:title=" ">
<polygon fill="#999999" stroke="#666666" points="124.38,-244 60.38,-244 60.38,-224 124.38,-224 124.38,-244"/>
<text text-anchor="middle" x="92.38" y="-230.5" font-family="Helvetica,sans-Serif" font-size="10.00">vega_ant.c</text>
</a>
</g>
</g>
<!-- Node2 -->
<g id="Node000002" class="node">
<title>Node2</title>
<g id="a_Node000002"><a xlink:title=" ">
<polygon fill="#e0e0e0" stroke="#999999" points="70.75,-132 0,-132 0,-112 70.75,-112 70.75,-132"/>
<text text-anchor="middle" x="35.38" y="-118.5" font-family="Helvetica,sans-Serif" font-size="10.00">FreeRTOS.h</text>
</a>
</g>
</g>
<!-- Node1&#45;&gt;Node2 -->
<g id="edge1_Node000001_Node000002" class="edge">
<title>Node1&#45;&gt;Node2</title>
<g id="a_edge1_Node000001_Node000002"><a xlink:title=" ">
<path fill="none" stroke="#63b8ff" d="M85.08,-223.74C78.35,-214.9 68.36,-201.05 61.38,-188 53.55,-173.4 46.69,-155.92 41.98,-142.77"/>
<polygon fill="#63b8ff" stroke="#63b8ff" points="45.37,-141.85 38.79,-133.55 38.75,-144.14 45.37,-141.85"/>
</a>
</g>
</g>
<!-- Node3 -->
<g id="Node000003" class="node">
<title>Node3</title>
<g id="a_Node000003"><a xlink:title=" ">
<polygon fill="#e0e0e0" stroke="#999999" points="113.88,-188 70.88,-188 70.88,-168 113.88,-168 113.88,-188"/>
<text text-anchor="middle" x="92.38" y="-174.5" font-family="Helvetica,sans-Serif" font-size="10.00">task.h</text>
</a>
</g>
</g>
<!-- Node1&#45;&gt;Node3 -->
<g id="edge2_Node000001_Node000003" class="edge">
<title>Node1&#45;&gt;Node3</title>
<g id="a_edge2_Node000001_Node000003"><a xlink:title=" ">
<path fill="none" stroke="#63b8ff" d="M92.38,-223.59C92.38,-217.01 92.38,-207.96 92.38,-199.73"/>
<polygon fill="#63b8ff" stroke="#63b8ff" points="95.88,-199.81 92.38,-189.81 88.88,-199.81 95.88,-199.81"/>
</a>
</g>
</g>
<!-- Node4 -->
<g id="Node000004" class="node">
<title>Node4</title>
<g id="a_Node000004"><a xlink:href="vega__ant_8h.html" target="_top" xlink:title=" ">
<polygon fill="white" stroke="#666666" points="199.38,-188 135.38,-188 135.38,-168 199.38,-168 199.38,-188"/>
<text text-anchor="middle" x="167.38" y="-174.5" font-family="Helvetica,sans-Serif" font-size="10.00">vega_ant.h</text>
</a>
</g>
</g>
<!-- Node1&#45;&gt;Node4 -->
<g id="edge3_Node000001_Node000004" class="edge">
<title>Node1&#45;&gt;Node4</title>
<g id="a_edge3_Node000001_Node000004"><a xlink:title=" ">
<path fill="none" stroke="#63b8ff" d="M105.44,-223.59C116.34,-215.74 132.13,-204.38 145.03,-195.09"/>
<polygon fill="#63b8ff" stroke="#63b8ff" points="146.91,-198.05 152.98,-189.36 142.82,-192.37 146.91,-198.05"/>
</a>
</g>
</g>
<!-- Node4&#45;&gt;Node2 -->
<g id="edge15_Node000004_Node000002" class="edge">
<title>Node4&#45;&gt;Node2</title>
<g id="a_edge15_Node000004_Node000002"><a xlink:title=" ">
<path fill="none" stroke="#63b8ff" d="M144.38,-167.59C123.59,-159.09 92.72,-146.46 69.14,-136.81"/>
<polygon fill="#63b8ff" stroke="#63b8ff" points="70.53,-133.6 59.95,-133.05 67.88,-140.08 70.53,-133.6"/>
</a>
</g>
</g>
<!-- Node5 -->
<g id="Node000005" class="node">
<title>Node5</title>
<g id="a_Node000005"><a xlink:href="simulator_2pico-sdk_2hardware_2i2c_8h.html" target="_top" xlink:title=" ">
<polygon fill="white" stroke="#666666" points="348.25,-76 268.5,-76 268.5,-56 348.25,-56 348.25,-76"/>
<text text-anchor="middle" x="308.38" y="-62.5" font-family="Helvetica,sans-Serif" font-size="10.00">hardware/i2c.h</text>
</a>
</g>
</g>
<!-- Node4&#45;&gt;Node5 -->
<g id="edge4_Node000004_Node000005" class="edge">
<title>Node4&#45;&gt;Node5</title>
<g id="a_edge4_Node000004_Node000005"><a xlink:title=" ">
<path fill="none" stroke="#63b8ff" d="M192.85,-167.56C211.64,-159.82 237.16,-147.61 256.38,-132 272.47,-118.93 286.85,-100.1 296.39,-86.07"/>
<polygon fill="#63b8ff" stroke="#63b8ff" points="299.31,-88 301.86,-77.72 293.45,-84.17 299.31,-88"/>
</a>
</g>
</g>
<!-- Node6 -->
<g id="Node000006" class="node">
<title>Node6</title>
<g id="a_Node000006"><a xlink:title=" ">
<polygon fill="#e0e0e0" stroke="#999999" points="228.5,-20 180.25,-20 180.25,0 228.5,0 228.5,-20"/>
<text text-anchor="middle" x="204.38" y="-6.5" font-family="Helvetica,sans-Serif" font-size="10.00">stdint.h</text>
</a>
</g>
</g>
<!-- Node4&#45;&gt;Node6 -->
<g id="edge10_Node000004_Node000006" class="edge">
<title>Node4&#45;&gt;Node6</title>
<g id="a_edge10_Node000004_Node000006"><a xlink:title=" ">
<path fill="none" stroke="#63b8ff" d="M157.85,-167.74C137.55,-146.84 93.74,-94.83 117.38,-56 128.63,-37.51 150.2,-26.28 169.05,-19.66"/>
<polygon fill="#63b8ff" stroke="#63b8ff" points="170.1,-23 178.58,-16.65 167.99,-16.33 170.1,-23"/>
</a>
</g>
</g>
<!-- Node9 -->
<g id="Node000009" class="node">
<title>Node9</title>
<g id="a_Node000009"><a xlink:href="gpio_8h.html" target="_top" xlink:title=" ">
<polygon fill="white" stroke="#666666" points="211.88,-76 126.88,-76 126.88,-56 211.88,-56 211.88,-76"/>
<text text-anchor="middle" x="169.38" y="-62.5" font-family="Helvetica,sans-Serif" font-size="10.00">hardware/gpio.h</text>
</a>
</g>
</g>
<!-- Node4&#45;&gt;Node9 -->
<g id="edge8_Node000004_Node000009" class="edge">
<title>Node4&#45;&gt;Node9</title>
<g id="a_edge8_Node000004_Node000009"><a xlink:title=" ">
<path fill="none" stroke="#63b8ff" d="M167.55,-167.62C167.87,-150.01 168.56,-111.59 169,-87.65"/>
<polygon fill="#63b8ff" stroke="#63b8ff" points="172.49,-87.93 169.18,-77.87 165.5,-87.8 172.49,-87.93"/>
</a>
</g>
</g>
<!-- Node10 -->
<g id="Node000010" class="node">
<title>Node10</title>
<g id="a_Node000010"><a xlink:href="drivers_2include_2i2c_8h.html" target="_top" xlink:title=" ">
<polygon fill="white" stroke="#666666" points="246.88,-132 209.88,-132 209.88,-112 246.88,-112 246.88,-132"/>
<text text-anchor="middle" x="228.38" y="-118.5" font-family="Helvetica,sans-Serif" font-size="10.00">i2c.h</text>
</a>
</g>
</g>
<!-- Node4&#45;&gt;Node10 -->
<g id="edge11_Node000004_Node000010" class="edge">
<title>Node4&#45;&gt;Node10</title>
<g id="a_edge11_Node000004_Node000010"><a xlink:title=" ">
<path fill="none" stroke="#63b8ff" d="M178,-167.59C186.66,-159.93 199.11,-148.91 209.46,-139.75"/>
<polygon fill="#63b8ff" stroke="#63b8ff" points="211.57,-142.55 216.74,-133.3 206.93,-137.31 211.57,-142.55"/>
</a>
</g>
</g>
<!-- Node5&#45;&gt;Node6 -->
<g id="edge5_Node000005_Node000006" class="edge">
<title>Node5&#45;&gt;Node6</title>
<g id="a_edge5_Node000005_Node000006"><a xlink:title=" ">
<path fill="none" stroke="#63b8ff" d="M290.26,-55.59C274.4,-47.36 251.09,-35.26 232.76,-25.74"/>
<polygon fill="#63b8ff" stroke="#63b8ff" points="234.46,-22.68 223.98,-21.18 231.24,-28.89 234.46,-22.68"/>
</a>
</g>
</g>
<!-- Node7 -->
<g id="Node000007" class="node">
<title>Node7</title>
<g id="a_Node000007"><a xlink:title=" ">
<polygon fill="#e0e0e0" stroke="#999999" points="316,-20 264.75,-20 264.75,0 316,0 316,-20"/>
<text text-anchor="middle" x="290.38" y="-6.5" font-family="Helvetica,sans-Serif" font-size="10.00">stddef.h</text>
</a>
</g>
</g>
<!-- Node5&#45;&gt;Node7 -->
<g id="edge6_Node000005_Node000007" class="edge">
<title>Node5&#45;&gt;Node7</title>
<g id="a_edge6_Node000005_Node000007"><a xlink:title=" ">
<path fill="none" stroke="#63b8ff" d="M305.24,-55.59C302.99,-48.86 299.89,-39.53 297.09,-31.15"/>
<polygon fill="#63b8ff" stroke="#63b8ff" points="300.44,-30.11 293.95,-21.73 293.8,-32.33 300.44,-30.11"/>
</a>
</g>
</g>
<!-- Node8 -->
<g id="Node000008" class="node">
<title>Node8</title>
<g id="a_Node000008"><a xlink:title=" ">
<polygon fill="#e0e0e0" stroke="#999999" points="390.25,-20 334.5,-20 334.5,0 390.25,0 390.25,-20"/>
<text text-anchor="middle" x="362.38" y="-6.5" font-family="Helvetica,sans-Serif" font-size="10.00">stdbool.h</text>
</a>
</g>
</g>
<!-- Node5&#45;&gt;Node8 -->
<g id="edge7_Node000005_Node000008" class="edge">
<title>Node5&#45;&gt;Node8</title>
<g id="a_edge7_Node000005_Node000008"><a xlink:title=" ">
<path fill="none" stroke="#63b8ff" d="M317.78,-55.59C325.29,-48.08 336.02,-37.35 345.07,-28.3"/>
<polygon fill="#63b8ff" stroke="#63b8ff" points="347.41,-30.91 352.01,-21.37 342.46,-25.96 347.41,-30.91"/>
</a>
</g>
</g>
<!-- Node9&#45;&gt;Node6 -->
<g id="edge9_Node000009_Node000006" class="edge">
<title>Node9&#45;&gt;Node6</title>
<g id="a_edge9_Node000009_Node000006"><a xlink:title=" ">
<path fill="none" stroke="#63b8ff" d="M175.47,-55.59C180.09,-48.47 186.58,-38.45 192.24,-29.72"/>
<polygon fill="#63b8ff" stroke="#63b8ff" points="195.02,-31.86 197.53,-21.57 189.15,-28.06 195.02,-31.86"/>
</a>
</g>
</g>
<!-- Node10&#45;&gt;Node5 -->
<g id="edge12_Node000010_Node000005" class="edge">
<title>Node10&#45;&gt;Node5</title>
<g id="a_edge12_Node000010_Node000005"><a xlink:title=" ">
<path fill="none" stroke="#63b8ff" d="M242.31,-111.59C254.05,-103.67 271.11,-92.16 284.94,-82.82"/>
<polygon fill="#63b8ff" stroke="#63b8ff" points="286.75,-85.82 293.08,-77.33 282.83,-80.02 286.75,-85.82"/>
</a>
</g>
</g>
<!-- Node10&#45;&gt;Node6 -->
<g id="edge14_Node000010_Node000006" class="edge">
<title>Node10&#45;&gt;Node6</title>
<g id="a_edge14_Node000010_Node000006"><a xlink:title=" ">
<path fill="none" stroke="#63b8ff" d="M228.11,-111.62C227.58,-98.87 226.01,-75.43 221.38,-56 219.37,-47.58 216.2,-38.61 213.14,-30.91"/>
<polygon fill="#63b8ff" stroke="#63b8ff" points="216.43,-29.7 209.33,-21.83 209.97,-32.41 216.43,-29.7"/>
</a>
</g>
</g>
<!-- Node10&#45;&gt;Node9 -->
<g id="edge13_Node000010_Node000009" class="edge">
<title>Node10&#45;&gt;Node9</title>
<g id="a_edge13_Node000010_Node000009"><a xlink:title=" ">
<path fill="none" stroke="#63b8ff" d="M218.1,-111.59C209.81,-104.01 197.93,-93.13 187.97,-84.02"/>
<polygon fill="#63b8ff" stroke="#63b8ff" points="190.39,-81.49 180.65,-77.32 185.66,-86.65 190.39,-81.49"/>
</a>
</g>
</g>
</g>
</svg>
