<?xml version="1.0" encoding="UTF-8" standalone="no"?>
<!DOCTYPE svg PUBLIC "-//W3C//DTD SVG 1.1//EN"
 "http://www.w3.org/Graphics/SVG/1.1/DTD/svg11.dtd">
<!-- Generated by graphviz version 2.43.0 (0)
 -->
<!-- Title: vega_ant.c Pages: 1 -->
<!--zoomable 302 -->

<svg id="main" version="1.1" xmlns="http://www.w3.org/2000/svg" xmlns:xlink="http://www.w3.org/1999/xlink" xml:space="preserve" onload="init(evt)">

<style type="text/css"><![CDATA[
.node, .edge {opacity: 0.7;}
.node.selected, .edge.selected {opacity: 1;}
.edge:hover path { stroke: red; }
.edge:hover polygon { stroke: red; fill: red; }
]]></style>

<defs>
  <circle id="rim" cx="0" cy="0" r="7"/>
  <circle id="rim2" cx="0" cy="0" r="3.5"/>
  <g id="zoomPlus">
    <use xlink:href="#rim" fill="#404040"><set attributeName="fill" to="#808080" begin="zoomplus.mouseover" end="zoomplus.mouseout"/></use>
    <path d="M-4,0h8M0,-4v8" fill="none" stroke="white" stroke-width="1.5" pointer-events="none"/>
  </g>
  <g id="zoomMin">
    <use xlink:href="#rim" fill="#404040"><set attributeName="fill" to="#808080" begin="zoomminus.mouseover" end="zoomminus.mouseout"/></use>
    <path d="M-4,0h8" fill="none" stroke="white" stroke-width="1.5" pointer-events="none"/>
  </g>
  <g id="arrowUp" transform="translate(30 24)">
    <use xlink:href="#rim"/>
    <path pointer-events="none" fill="none" stroke="white" stroke-width="1.5" d="M0,-3.0v7 M-2.5,-0.5L0,-3.0L2.5,-0.5"/>
  </g>
  <g id="arrowRight" transform="rotate(90) translate(36 -43)">
    <use xlink:href="#rim"/>
    <path pointer-events="none" fill="none" stroke="white" stroke-width="1.5" d="M0,-3.0v7 M-2.5,-0.5L0,-3.0L2.5,-0.5"/>
  </g>
  <g id="arrowDown" transform="rotate(180) translate(-30 -48)">
    <use xlink:href="#rim"/>
    <path pointer-events="none" fill="none" stroke="white" stroke-width="1.5" d="M0,-3.0v7 M-2.5,-0.5L0,-3.0L2.5,-0.5"/>
  </g>
  <g id="arrowLeft" transform="rotate(270) translate(-36 17)">
    <use xlink:href="#rim"/>
    <path pointer-events="none" fill="none" stroke="white" stroke-width="1.5" d="M0,-3.0v7 M-2.5,-0.5L0,-3.0L2.5,-0.5"/>
  </g>
  <g id="resetDef">
    <use xlink:href="#rim2" fill="#404040"><set attributeName="fill" to="#808080" begin="reset.mouseover" end="reset.mouseout"/></use>
  </g>
</defs>
<script type="application/ecmascript">
var viewWidth = 798;
var viewHeight = 302;
var sectionId = 'dynsection-0';
</script>
<script type="application/ecmascript" xlink:href="svg.min.js"/>
<svg id="graph" class="graph">
<g id="viewport">
<title>vega_ant.c</title>
<!-- Node1 -->
<g id="Node000001" class="node">
<title>Node1</title>
<g id="a_Node000001"><a xlink:title=" ">
<polygon fill="#999999" stroke="#666666" points="605.5,-294 535.5,-294 535.5,-275 605.5,-275 605.5,-294"/>
<text text-anchor="middle" x="570.5" y="-282" font-family="Helvetica,sans-Serif" font-size="10.00">vega_ant.c</text>
</a>
</g>
</g>
<!-- Node2 -->
<g id="Node000002" class="node">
<title>Node2</title>
<g id="a_Node000002"><a xlink:title=" ">
<polygon fill="#e0e0e0" stroke="#999999" points="724.5,-19 652.5,-19 652.5,0 724.5,0 724.5,-19"/>
<text text-anchor="middle" x="688.5" y="-7" font-family="Helvetica,sans-Serif" font-size="10.00">FreeRTOS.h</text>
</a>
</g>
</g>
<!-- Node1&#45;&gt;Node2 -->
<g id="edge1_Node000001_Node000002" class="edge">
<title>Node1&#45;&gt;Node2</title>
<g id="a_edge1_Node000001_Node000002"><a xlink:title=" ">
<path fill="none" stroke="#63b8ff" d="M591.86,-275C625.12,-260.19 685.5,-226.31 685.5,-175.5 685.5,-175.5 685.5,-175.5 685.5,-118.5 685.5,-87.18 686.78,-50.77 687.66,-29.23"/>
<polygon fill="#63b8ff" stroke="#63b8ff" points="691.16,-29.32 688.1,-19.18 684.17,-29.02 691.16,-29.32"/>
</a>
</g>
</g>
<!-- Node3 -->
<g id="Node000003" class="node">
<title>Node3</title>
<g id="a_Node000003"><a xlink:title=" ">
<polygon fill="#e0e0e0" stroke="#999999" points="790,-19 743,-19 743,0 790,0 790,-19"/>
<text text-anchor="middle" x="766.5" y="-7" font-family="Helvetica,sans-Serif" font-size="10.00">task.h</text>
</a>
</g>
</g>
<!-- Node1&#45;&gt;Node3 -->
<g id="edge2_Node000001_Node000003" class="edge">
<title>Node1&#45;&gt;Node3</title>
<g id="a_edge2_Node000001_Node000003"><a xlink:title=" ">
<path fill="none" stroke="#63b8ff" d="M605.51,-277.8C656.06,-267.34 743.5,-239.94 743.5,-175.5 743.5,-175.5 743.5,-175.5 743.5,-118.5 743.5,-86.34 753.38,-49.95 760.19,-28.69"/>
<polygon fill="#63b8ff" stroke="#63b8ff" points="763.56,-29.64 763.4,-19.05 756.92,-27.43 763.56,-29.64"/>
</a>
</g>
</g>
<!-- Node4 -->
<g id="Node000004" class="node">
<title>Node4</title>
<g id="a_Node000004"><a xlink:href="vega__ant_8h.html" target="_top" xlink:title="Vega Antenna Board Driver.">
<polygon fill="white" stroke="#666666" points="217,-184 146,-184 146,-165 217,-165 217,-184"/>
<text text-anchor="middle" x="181.5" y="-172" font-family="Helvetica,sans-Serif" font-size="10.00">vega_ant.h</text>
</a>
</g>
</g>
<!-- Node1&#45;&gt;Node4 -->
<g id="edge3_Node000001_Node000004" class="edge">
<title>Node1&#45;&gt;Node4</title>
<g id="a_edge3_Node000001_Node000004"><a xlink:title=" ">
<path fill="none" stroke="#63b8ff" d="M539.65,-274.94C470,-255.6 300.55,-208.55 222.32,-186.83"/>
<polygon fill="#63b8ff" stroke="#63b8ff" points="222.92,-183.37 212.35,-184.07 221.05,-190.11 222.92,-183.37"/>
</a>
</g>
</g>
<!-- Node11 -->
<g id="Node000011" class="node">
<title>Node11</title>
<g id="a_Node000011"><a xlink:href="log_8h.html" target="_top" xlink:title=" ">
<polygon fill="white" stroke="#666666" points="474,-239 433,-239 433,-220 474,-220 474,-239"/>
<text text-anchor="middle" x="453.5" y="-227" font-family="Helvetica,sans-Serif" font-size="10.00">log.h</text>
</a>
</g>
</g>
<!-- Node1&#45;&gt;Node11 -->
<g id="edge16_Node000001_Node000011" class="edge">
<title>Node1&#45;&gt;Node11</title>
<g id="a_edge16_Node000001_Node000011"><a xlink:title=" ">
<path fill="none" stroke="#63b8ff" d="M551.7,-274.98C532.88,-266.46 503.68,-253.23 482,-243.41"/>
<polygon fill="#63b8ff" stroke="#63b8ff" points="483.19,-240.11 472.64,-239.17 480.3,-246.48 483.19,-240.11"/>
</a>
</g>
</g>
<!-- Node4&#45;&gt;Node2 -->
<g id="edge15_Node000004_Node000002" class="edge">
<title>Node4&#45;&gt;Node2</title>
<g id="a_edge15_Node000004_Node000002"><a xlink:title=" ">
<path fill="none" stroke="#63b8ff" d="M217.48,-173.7C278.93,-172.94 407.17,-166.5 507.5,-129 573.75,-104.24 640.46,-51.79 671.12,-25.79"/>
<polygon fill="#63b8ff" stroke="#63b8ff" points="673.48,-28.37 678.78,-19.2 668.91,-23.06 673.48,-28.37"/>
</a>
</g>
</g>
<!-- Node5 -->
<g id="Node000005" class="node">
<title>Node5</title>
<g id="a_Node000005"><a xlink:href="simulator_2pico-sdk_2hardware_2i2c_8h.html" target="_top" xlink:title=" ">
<polygon fill="white" stroke="#666666" points="279,-74 190,-74 190,-55 279,-55 279,-74"/>
<text text-anchor="middle" x="234.5" y="-62" font-family="Helvetica,sans-Serif" font-size="10.00">hardware/i2c.h</text>
</a>
</g>
</g>
<!-- Node4&#45;&gt;Node5 -->
<g id="edge4_Node000004_Node000005" class="edge">
<title>Node4&#45;&gt;Node5</title>
<g id="a_edge4_Node000004_Node000005"><a xlink:title=" ">
<path fill="none" stroke="#63b8ff" d="M185.84,-164.66C194.54,-146.93 214.27,-106.73 225.76,-83.32"/>
<polygon fill="#63b8ff" stroke="#63b8ff" points="228.99,-84.68 230.25,-74.16 222.7,-81.59 228.99,-84.68"/>
</a>
</g>
</g>
<!-- Node6 -->
<g id="Node000006" class="node">
<title>Node6</title>
<g id="a_Node000006"><a xlink:title=" ">
<polygon fill="#e0e0e0" stroke="#999999" points="148,-19 95,-19 95,0 148,0 148,-19"/>
<text text-anchor="middle" x="121.5" y="-7" font-family="Helvetica,sans-Serif" font-size="10.00">stdint.h</text>
</a>
</g>
</g>
<!-- Node4&#45;&gt;Node6 -->
<g id="edge10_Node000004_Node000006" class="edge">
<title>Node4&#45;&gt;Node6</title>
<g id="a_edge10_Node000004_Node000006"><a xlink:title=" ">
<path fill="none" stroke="#63b8ff" d="M178.27,-164.74C168.83,-139.09 141.11,-63.78 128.23,-28.78"/>
<polygon fill="#63b8ff" stroke="#63b8ff" points="131.48,-27.48 124.74,-19.31 124.91,-29.9 131.48,-27.48"/>
</a>
</g>
</g>
<!-- Node9 -->
<g id="Node000009" class="node">
<title>Node9</title>
<g id="a_Node000009"><a xlink:href="gpio_8h.html" target="_top" xlink:title=" ">
<polygon fill="white" stroke="#666666" points="95,-74 0,-74 0,-55 95,-55 95,-74"/>
<text text-anchor="middle" x="47.5" y="-62" font-family="Helvetica,sans-Serif" font-size="10.00">hardware/gpio.h</text>
</a>
</g>
</g>
<!-- Node4&#45;&gt;Node9 -->
<g id="edge8_Node000004_Node000009" class="edge">
<title>Node4&#45;&gt;Node9</title>
<g id="a_edge8_Node000004_Node000009"><a xlink:title=" ">
<path fill="none" stroke="#63b8ff" d="M151.19,-164.95C130.53,-157.93 103.58,-146.3 84.5,-129 70.64,-116.43 60.52,-97.43 54.4,-83.49"/>
<polygon fill="#63b8ff" stroke="#63b8ff" points="57.54,-81.92 50.51,-74 51.07,-84.58 57.54,-81.92"/>
</a>
</g>
</g>
<!-- Node10 -->
<g id="Node000010" class="node">
<title>Node10</title>
<g id="a_Node000010"><a xlink:href="drivers_2include_2i2c_8h.html" target="_top" xlink:title="Drivers for i2c peripheral devices.">
<polygon fill="white" stroke="#666666" points="133.5,-129 93.5,-129 93.5,-110 133.5,-110 133.5,-129"/>
<text text-anchor="middle" x="113.5" y="-117" font-family="Helvetica,sans-Serif" font-size="10.00">i2c.h</text>
</a>
</g>
</g>
<!-- Node4&#45;&gt;Node10 -->
<g id="edge11_Node000004_Node000010" class="edge">
<title>Node4&#45;&gt;Node10</title>
<g id="a_edge11_Node000004_Node000010"><a xlink:title=" ">
<path fill="none" stroke="#63b8ff" d="M170.57,-164.98C160.42,-157.07 145.08,-145.11 132.85,-135.58"/>
<polygon fill="#63b8ff" stroke="#63b8ff" points="134.66,-132.56 124.62,-129.17 130.36,-138.08 134.66,-132.56"/>
</a>
</g>
</g>
<!-- Node5&#45;&gt;Node6 -->
<g id="edge5_Node000005_Node000006" class="edge">
<title>Node5&#45;&gt;Node6</title>
<g id="a_edge5_Node000005_Node000006"><a xlink:title=" ">
<path fill="none" stroke="#63b8ff" d="M216.34,-54.98C198.25,-46.5 170.22,-33.35 149.31,-23.54"/>
<polygon fill="#63b8ff" stroke="#63b8ff" points="150.53,-20.25 139.99,-19.17 147.55,-26.59 150.53,-20.25"/>
</a>
</g>
</g>
<!-- Node7 -->
<g id="Node000007" class="node">
<title>Node7</title>
<g id="a_Node000007"><a xlink:title=" ">
<polygon fill="#e0e0e0" stroke="#999999" points="222.5,-19 166.5,-19 166.5,0 222.5,0 222.5,-19"/>
<text text-anchor="middle" x="194.5" y="-7" font-family="Helvetica,sans-Serif" font-size="10.00">stddef.h</text>
</a>
</g>
</g>
<!-- Node5&#45;&gt;Node7 -->
<g id="edge6_Node000005_Node000007" class="edge">
<title>Node5&#45;&gt;Node7</title>
<g id="a_edge6_Node000005_Node000007"><a xlink:title=" ">
<path fill="none" stroke="#63b8ff" d="M227.89,-54.75C222.24,-47.26 213.96,-36.28 207.05,-27.13"/>
<polygon fill="#63b8ff" stroke="#63b8ff" points="209.8,-24.96 200.98,-19.09 204.21,-29.18 209.8,-24.96"/>
</a>
</g>
</g>
<!-- Node8 -->
<g id="Node000008" class="node">
<title>Node8</title>
<g id="a_Node000008"><a xlink:title=" ">
<polygon fill="#e0e0e0" stroke="#999999" points="302.5,-19 240.5,-19 240.5,0 302.5,0 302.5,-19"/>
<text text-anchor="middle" x="271.5" y="-7" font-family="Helvetica,sans-Serif" font-size="10.00">stdbool.h</text>
</a>
</g>
</g>
<!-- Node5&#45;&gt;Node8 -->
<g id="edge7_Node000005_Node000008" class="edge">
<title>Node5&#45;&gt;Node8</title>
<g id="a_edge7_Node000005_Node000008"><a xlink:title=" ">
<path fill="none" stroke="#63b8ff" d="M240.61,-54.75C245.78,-47.34 253.35,-36.5 259.69,-27.41"/>
<polygon fill="#63b8ff" stroke="#63b8ff" points="262.65,-29.29 265.5,-19.09 256.91,-25.29 262.65,-29.29"/>
</a>
</g>
</g>
<!-- Node9&#45;&gt;Node6 -->
<g id="edge9_Node000009_Node000006" class="edge">
<title>Node9&#45;&gt;Node6</title>
<g id="a_edge9_Node000009_Node000006"><a xlink:title=" ">
<path fill="none" stroke="#63b8ff" d="M59.39,-54.98C70.65,-46.92 87.79,-34.65 101.21,-25.03"/>
<polygon fill="#63b8ff" stroke="#63b8ff" points="103.3,-27.84 109.39,-19.17 99.23,-22.15 103.3,-27.84"/>
</a>
</g>
</g>
<!-- Node10&#45;&gt;Node5 -->
<g id="edge12_Node000010_Node000005" class="edge">
<title>Node10&#45;&gt;Node5</title>
<g id="a_edge12_Node000010_Node000005"><a xlink:title=" ">
<path fill="none" stroke="#63b8ff" d="M132.94,-109.98C152.49,-101.42 182.88,-88.11 205.32,-78.28"/>
<polygon fill="#63b8ff" stroke="#63b8ff" points="206.95,-81.39 214.71,-74.17 204.14,-74.98 206.95,-81.39"/>
</a>
</g>
</g>
<!-- Node10&#45;&gt;Node6 -->
<g id="edge14_Node000010_Node000006" class="edge">
<title>Node10&#45;&gt;Node6</title>
<g id="a_edge14_Node000010_Node000006"><a xlink:title=" ">
<path fill="none" stroke="#63b8ff" d="M114.15,-109.66C115.45,-92.17 118.37,-52.8 120.11,-29.27"/>
<polygon fill="#63b8ff" stroke="#63b8ff" points="123.61,-29.39 120.86,-19.16 116.63,-28.87 123.61,-29.39"/>
</a>
</g>
</g>
<!-- Node10&#45;&gt;Node9 -->
<g id="edge13_Node000010_Node000009" class="edge">
<title>Node10&#45;&gt;Node9</title>
<g id="a_edge13_Node000010_Node000009"><a xlink:title=" ">
<path fill="none" stroke="#63b8ff" d="M102.9,-109.98C93.04,-102.07 78.15,-90.11 66.28,-80.58"/>
<polygon fill="#63b8ff" stroke="#63b8ff" points="68.29,-77.7 58.3,-74.17 63.9,-83.16 68.29,-77.7"/>
</a>
</g>
</g>
<!-- Node11&#45;&gt;Node8 -->
<g id="edge33_Node000011_Node000008" class="edge">
<title>Node11&#45;&gt;Node8</title>
<g id="a_edge33_Node000011_Node000008"><a xlink:title=" ">
<path fill="none" stroke="#63b8ff" d="M444.21,-219.95C434.87,-211.21 420.22,-197.1 408.5,-184 359.37,-129.06 306.85,-58.91 283.68,-27.29"/>
<polygon fill="#63b8ff" stroke="#63b8ff" points="286.43,-25.12 277.71,-19.1 280.77,-29.24 286.43,-25.12"/>
</a>
</g>
</g>
<!-- Node12 -->
<g id="Node000012" class="node">
<title>Node12</title>
<g id="a_Node000012"><a xlink:href="telemetry_8h.html" target="_top" xlink:title="Functions for packaging and queuing telemetry packets for sending.">
<polygon fill="white" stroke="#666666" points="489.5,-184 417.5,-184 417.5,-165 489.5,-165 489.5,-184"/>
<text text-anchor="middle" x="453.5" y="-172" font-family="Helvetica,sans-Serif" font-size="10.00">telemetry.h</text>
</a>
</g>
</g>
<!-- Node11&#45;&gt;Node12 -->
<g id="edge17_Node000011_Node000012" class="edge">
<title>Node11&#45;&gt;Node12</title>
<g id="a_edge17_Node000011_Node000012"><a xlink:title=" ">
<path fill="none" stroke="#63b8ff" d="M453.5,-219.75C453.5,-212.8 453.5,-202.85 453.5,-194.13"/>
<polygon fill="#63b8ff" stroke="#63b8ff" points="457,-194.09 453.5,-184.09 450,-194.09 457,-194.09"/>
</a>
</g>
</g>
<!-- Node12&#45;&gt;Node2 -->
<g id="edge18_Node000012_Node000002" class="edge">
<title>Node12&#45;&gt;Node2</title>
<g id="a_edge18_Node000012_Node000002"><a xlink:title=" ">
<path fill="none" stroke="#63b8ff" d="M489.55,-170.77C524.05,-166.57 576.08,-155.93 612.5,-129 647.91,-102.82 671.12,-54.79 681.77,-28.64"/>
<polygon fill="#63b8ff" stroke="#63b8ff" points="685.08,-29.78 685.45,-19.19 678.56,-27.23 685.08,-29.78"/>
</a>
</g>
</g>
<!-- Node13 -->
<g id="Node000013" class="node">
<title>Node13</title>
<g id="a_Node000013"><a xlink:title=" ">
<polygon fill="#e0e0e0" stroke="#999999" points="376.5,-19 320.5,-19 320.5,0 376.5,0 376.5,-19"/>
<text text-anchor="middle" x="348.5" y="-7" font-family="Helvetica,sans-Serif" font-size="10.00">queue.h</text>
</a>
</g>
</g>
<!-- Node12&#45;&gt;Node13 -->
<g id="edge19_Node000012_Node000013" class="edge">
<title>Node12&#45;&gt;Node13</title>
<g id="a_edge19_Node000012_Node000013"><a xlink:title=" ">
<path fill="none" stroke="#63b8ff" d="M439.49,-164.75C427.54,-156.69 410.59,-143.77 399.5,-129 375.94,-97.62 360.75,-53.7 353.5,-29.1"/>
<polygon fill="#63b8ff" stroke="#63b8ff" points="356.81,-27.94 350.72,-19.26 350.07,-29.84 356.81,-27.94"/>
</a>
</g>
</g>
<!-- Node14 -->
<g id="Node000014" class="node">
<title>Node14</title>
<g id="a_Node000014"><a xlink:href="file__downlink_8h.html" target="_top" xlink:title=" ">
<polygon fill="white" stroke="#666666" points="498.5,-129 408.5,-129 408.5,-110 498.5,-110 498.5,-129"/>
<text text-anchor="middle" x="453.5" y="-117" font-family="Helvetica,sans-Serif" font-size="10.00">file_downlink.h</text>
</a>
</g>
</g>
<!-- Node12&#45;&gt;Node14 -->
<g id="edge20_Node000012_Node000014" class="edge">
<title>Node12&#45;&gt;Node14</title>
<g id="a_edge20_Node000012_Node000014"><a xlink:title=" ">
<path fill="none" stroke="#63b8ff" d="M453.5,-164.75C453.5,-157.8 453.5,-147.85 453.5,-139.13"/>
<polygon fill="#63b8ff" stroke="#63b8ff" points="457,-139.09 453.5,-129.09 450,-139.09 457,-139.09"/>
</a>
</g>
</g>
<!-- Node14&#45;&gt;Node2 -->
<g id="edge21_Node000014_Node000002" class="edge">
<title>Node14&#45;&gt;Node2</title>
<g id="a_edge21_Node000014_Node000002"><a xlink:title=" ">
<path fill="none" stroke="#63b8ff" d="M470.75,-109.82C495.69,-97.34 543.34,-73.77 584.5,-55 609.18,-43.75 637.5,-31.68 658.36,-22.96"/>
<polygon fill="#63b8ff" stroke="#63b8ff" points="659.77,-26.16 667.66,-19.08 657.08,-19.7 659.77,-26.16"/>
</a>
</g>
</g>
<!-- Node14&#45;&gt;Node13 -->
<g id="edge22_Node000014_Node000013" class="edge">
<title>Node14&#45;&gt;Node13</title>
<g id="a_edge22_Node000014_Node000013"><a xlink:title=" ">
<path fill="none" stroke="#63b8ff" d="M443.69,-109.89C433.81,-101.1 418.25,-86.96 405.5,-74 390.33,-58.58 373.92,-40.09 362.62,-27.05"/>
<polygon fill="#63b8ff" stroke="#63b8ff" points="365.17,-24.66 356,-19.36 359.87,-29.22 365.17,-24.66"/>
</a>
</g>
</g>
<!-- Node15 -->
<g id="Node000015" class="node">
<title>Node15</title>
<g id="a_Node000015"><a xlink:href="filesystem_8h.html" target="_top" xlink:title="Handles file system operations and management.">
<polygon fill="white" stroke="#666666" points="492,-74 415,-74 415,-55 492,-55 492,-74"/>
<text text-anchor="middle" x="453.5" y="-62" font-family="Helvetica,sans-Serif" font-size="10.00">filesystem.h</text>
</a>
</g>
</g>
<!-- Node14&#45;&gt;Node15 -->
<g id="edge23_Node000014_Node000015" class="edge">
<title>Node14&#45;&gt;Node15</title>
<g id="a_edge23_Node000014_Node000015"><a xlink:title=" ">
<path fill="none" stroke="#63b8ff" d="M453.5,-109.75C453.5,-102.8 453.5,-92.85 453.5,-84.13"/>
<polygon fill="#63b8ff" stroke="#63b8ff" points="457,-84.09 453.5,-74.09 450,-84.09 457,-84.09"/>
</a>
</g>
</g>
<!-- Node15&#45;&gt;Node2 -->
<g id="edge24_Node000015_Node000002" class="edge">
<title>Node15&#45;&gt;Node2</title>
<g id="a_edge24_Node000015_Node000002"><a xlink:title=" ">
<path fill="none" stroke="#63b8ff" d="M491.26,-54.98C532.42,-45.7 598.31,-30.84 642.48,-20.88"/>
<polygon fill="#63b8ff" stroke="#63b8ff" points="643.4,-24.26 652.38,-18.65 641.86,-17.43 643.4,-24.26"/>
</a>
</g>
</g>
<!-- Node15&#45;&gt;Node3 -->
<g id="edge26_Node000015_Node000003" class="edge">
<title>Node15&#45;&gt;Node3</title>
<g id="a_edge26_Node000015_Node000003"><a xlink:title=" ">
<path fill="none" stroke="#63b8ff" d="M492.21,-58.53C544.52,-51.55 640.88,-37.78 732.75,-18.97"/>
<polygon fill="#63b8ff" stroke="#63b8ff" points="733.69,-22.35 742.77,-16.9 732.27,-15.5 733.69,-22.35"/>
</a>
</g>
</g>
<!-- Node15&#45;&gt;Node6 -->
<g id="edge31_Node000015_Node000006" class="edge">
<title>Node15&#45;&gt;Node6</title>
<g id="a_edge31_Node000015_Node000006"><a xlink:title=" ">
<path fill="none" stroke="#63b8ff" d="M414.54,-58.69C359.65,-51.68 256.25,-37.64 158.26,-19"/>
<polygon fill="#63b8ff" stroke="#63b8ff" points="158.66,-15.51 148.18,-17.06 157.34,-22.38 158.66,-15.51"/>
</a>
</g>
</g>
<!-- Node15&#45;&gt;Node7 -->
<g id="edge30_Node000015_Node000007" class="edge">
<title>Node15&#45;&gt;Node7</title>
<g id="a_edge30_Node000015_Node000007"><a xlink:title=" ">
<path fill="none" stroke="#63b8ff" d="M414.93,-56.11C372.59,-47.92 302.35,-34.11 232.6,-19.19"/>
<polygon fill="#63b8ff" stroke="#63b8ff" points="233.28,-15.76 222.76,-17.08 231.81,-22.6 233.28,-15.76"/>
</a>
</g>
</g>
<!-- Node15&#45;&gt;Node8 -->
<g id="edge32_Node000015_Node000008" class="edge">
<title>Node15&#45;&gt;Node8</title>
<g id="a_edge32_Node000015_Node000008"><a xlink:title=" ">
<path fill="none" stroke="#63b8ff" d="M424.26,-54.98C393.44,-46.01 344.72,-31.82 310.61,-21.89"/>
<polygon fill="#63b8ff" stroke="#63b8ff" points="311.55,-18.52 300.97,-19.08 309.59,-25.24 311.55,-18.52"/>
</a>
</g>
</g>
<!-- Node15&#45;&gt;Node13 -->
<g id="edge25_Node000015_Node000013" class="edge">
<title>Node15&#45;&gt;Node13</title>
<g id="a_edge25_Node000015_Node000013"><a xlink:title=" ">
<path fill="none" stroke="#63b8ff" d="M436.63,-54.98C419.89,-46.54 394,-33.47 374.61,-23.68"/>
<polygon fill="#63b8ff" stroke="#63b8ff" points="376.18,-20.55 365.68,-19.17 373.03,-26.8 376.18,-20.55"/>
</a>
</g>
</g>
<!-- Node16 -->
<g id="Node000016" class="node">
<title>Node16</title>
<g id="a_Node000016"><a xlink:title=" ">
<polygon fill="#e0e0e0" stroke="#999999" points="426.5,-19 394.5,-19 394.5,0 426.5,0 426.5,-19"/>
<text text-anchor="middle" x="410.5" y="-7" font-family="Helvetica,sans-Serif" font-size="10.00">ff.h</text>
</a>
</g>
</g>
<!-- Node15&#45;&gt;Node16 -->
<g id="edge27_Node000015_Node000016" class="edge">
<title>Node15&#45;&gt;Node16</title>
<g id="a_edge27_Node000015_Node000016"><a xlink:title=" ">
<path fill="none" stroke="#63b8ff" d="M446.4,-54.75C440.33,-47.26 431.41,-36.28 423.99,-27.13"/>
<polygon fill="#63b8ff" stroke="#63b8ff" points="426.49,-24.65 417.47,-19.09 421.05,-29.06 426.49,-24.65"/>
</a>
</g>
</g>
<!-- Node17 -->
<g id="Node000017" class="node">
<title>Node17</title>
<g id="a_Node000017"><a xlink:href="filesystem__errors_8h.html" target="_top" xlink:title=" ">
<polygon fill="white" stroke="#666666" points="554.5,-19 444.5,-19 444.5,0 554.5,0 554.5,-19"/>
<text text-anchor="middle" x="499.5" y="-7" font-family="Helvetica,sans-Serif" font-size="10.00">filesystem_errors.h</text>
</a>
</g>
</g>
<!-- Node15&#45;&gt;Node17 -->
<g id="edge28_Node000015_Node000017" class="edge">
<title>Node15&#45;&gt;Node17</title>
<g id="a_edge28_Node000015_Node000017"><a xlink:title=" ">
<path fill="none" stroke="#63b8ff" d="M461.1,-54.75C467.66,-47.18 477.32,-36.05 485.31,-26.84"/>
<polygon fill="#63b8ff" stroke="#63b8ff" points="488.13,-28.94 492.05,-19.09 482.85,-24.35 488.13,-28.94"/>
</a>
</g>
</g>
<!-- Node18 -->
<g id="Node000018" class="node">
<title>Node18</title>
<g id="a_Node000018"><a xlink:title=" ">
<polygon fill="#e0e0e0" stroke="#999999" points="634.5,-19 572.5,-19 572.5,0 634.5,0 634.5,-19"/>
<text text-anchor="middle" x="603.5" y="-7" font-family="Helvetica,sans-Serif" font-size="10.00">semphr.h</text>
</a>
</g>
</g>
<!-- Node15&#45;&gt;Node18 -->
<g id="edge29_Node000015_Node000018" class="edge">
<title>Node15&#45;&gt;Node18</title>
<g id="a_edge29_Node000015_Node000018"><a xlink:title=" ">
<path fill="none" stroke="#63b8ff" d="M477.6,-54.98C502.38,-46.23 541.2,-32.51 569.19,-22.62"/>
<polygon fill="#63b8ff" stroke="#63b8ff" points="570.7,-25.8 578.96,-19.17 568.37,-19.2 570.7,-25.8"/>
</a>
</g>
</g>
</g>
</svg>

<g id="navigator" transform="translate(0 0)" fill="#404254">
  <rect fill="#f2f5e9" fill-opacity="0.5" stroke="#606060" stroke-width=".5" x="0" y="0" width="60" height="60"/>
  <use id="zoomplus" xlink:href="#zoomPlus" x="17" y="9" onmousedown="handleZoom(evt,'in')"/>
  <use id="zoomminus" xlink:href="#zoomMin" x="42" y="9" onmousedown="handleZoom(evt,'out')"/>
  <use id="reset" xlink:href="#resetDef" x="30" y="36" onmousedown="handleReset()"/>
   <use id="arrowup" xlink:href="#arrowUp" x="0" y="0" onmousedown="handlePan(0,-1)"/>
  <use id="arrowright" xlink:href="#arrowRight" x="0" y="0" onmousedown="handlePan(1,0)"/>
  <use id="arrowdown" xlink:href="#arrowDown" x="0" y="0" onmousedown="handlePan(0,1)"/>
  <use id="arrowleft" xlink:href="#arrowLeft" x="0" y="0" onmousedown="handlePan(-1,0)"/>
</g>
<svg viewBox="0 0 15 15" width="100%" height="30px" preserveAspectRatio="xMaxYMin meet">
 <g id="arrow_out" transform="scale(0.3 0.3)">
  <a xlink:href="vega__ant_8c__incl_org.svg" target="_base">
   <rect id="button" ry="5" rx="5" y="6" x="6" height="38" width="38"
        fill="#f2f5e9" fill-opacity="0.5" stroke="#606060" stroke-width="1.0"/>
   <path id="arrow"
     d="M 11.500037,31.436501 C 11.940474,20.09759 22.043105,11.32322 32.158766,21.979434 L 37.068811,17.246167 C 37.068811,17.246167 37.088388,32 37.088388,32 L 22.160133,31.978069 C 22.160133,31.978069 26.997745,27.140456 26.997745,27.140456 C 18.528582,18.264221 13.291696,25.230495 11.500037,31.436501 z"
     style="fill:#404040;"/>
  </a>
 </g>
</svg>

<style type='text/css'>
<![CDATA[
[data-mouse-over-selected='false'] { opacity: 0.7; }
[data-mouse-over-selected='true']  { opacity: 1.0; }
]]>
</style>
<script type="application/ecmascript"><![CDATA[
document.addEventListener('DOMContentLoaded', (event) => {
  highlightEdges();
  highlightAdjacentNodes();
});
]]></script>
</svg>
