<?xml version="1.0" encoding="UTF-8" standalone="no"?>
<!DOCTYPE svg PUBLIC "-//W3C//DTD SVG 1.1//EN"
 "http://www.w3.org/Graphics/SVG/1.1/DTD/svg11.dtd">
<!-- Generated by graphviz version 12.1.2 (20240928.0832)
 -->
<!-- Title: vega_ant.h Pages: 1 -->
<svg width="284pt" height="196pt"
 viewBox="0.00 0.00 283.52 196.00" xmlns="http://www.w3.org/2000/svg" xmlns:xlink="http://www.w3.org/1999/xlink">

<svg id="main" version="1.1" xmlns="http://www.w3.org/2000/svg" xmlns:xlink="http://www.w3.org/1999/xlink" xml:space="preserve">

<style type="text/css"><![CDATA[
.node, .edge {opacity: 0.7;}
.node.selected, .edge.selected {opacity: 1;}
.edge:hover path { stroke: red; }
.edge:hover polygon { stroke: red; fill: red; }
]]></style>
<script type="application/ecmascript" xlink:href="svg.min.js"/>
<svg id="graph" class="graph">
<g id="graph0" class="graph" transform="scale(1 1) rotate(0) translate(4 192)">
<title>vega_ant.h</title>
<!-- Node1 -->
<g id="Node000001" class="node">
<title>Node1</title>
<g id="a_Node000001"><a xlink:title=" ">
<polygon fill="#999999" stroke="#666666" points="151.64,-188 87.64,-188 87.64,-168 151.64,-168 151.64,-188"/>
<text text-anchor="middle" x="119.64" y="-174.5" font-family="Helvetica,sans-Serif" font-size="10.00">vega_ant.h</text>
</a>
</g>
</g>
<!-- Node2 -->
<g id="Node000002" class="node">
<title>Node2</title>
<g id="a_Node000002"><a xlink:href="simulator_2pico-sdk_2hardware_2i2c_8h.html" target="_top" xlink:title=" ">
<polygon fill="white" stroke="#666666" points="233.52,-76 153.77,-76 153.77,-56 233.52,-56 233.52,-76"/>
<text text-anchor="middle" x="193.64" y="-62.5" font-family="Helvetica,sans-Serif" font-size="10.00">hardware/i2c.h</text>
</a>
</g>
</g>
<!-- Node1&#45;&gt;Node2 -->
<g id="edge1_Node000001_Node000002" class="edge">
<title>Node1&#45;&gt;Node2</title>
<g id="a_edge1_Node000001_Node000002"><a xlink:title=" ">
<path fill="none" stroke="#63b8ff" d="M125.95,-167.62C138.13,-149.52 165.08,-109.45 181.06,-85.7"/>
<polygon fill="#63b8ff" stroke="#63b8ff" points="183.82,-87.86 186.5,-77.61 178.02,-83.95 183.82,-87.86"/>
</a>
</g>
</g>
<!-- Node3 -->
<g id="Node000003" class="node">
<title>Node3</title>
<g id="a_Node000003"><a xlink:title=" ">
<polygon fill="#e0e0e0" stroke="#999999" points="113.77,-20 65.52,-20 65.52,0 113.77,0 113.77,-20"/>
<text text-anchor="middle" x="89.64" y="-6.5" font-family="Helvetica,sans-Serif" font-size="10.00">stdint.h</text>
</a>
</g>
</g>
<!-- Node1&#45;&gt;Node3 -->
<g id="edge7_Node000001_Node000003" class="edge">
<title>Node1&#45;&gt;Node3</title>
<g id="a_edge7_Node000001_Node000003"><a xlink:title=" ">
<path fill="none" stroke="#63b8ff" d="M101.06,-167.69C73.53,-152.72 22.97,-120.41 2.64,-76 -9.57,-49.32 25.21,-31.06 54.37,-20.84"/>
<polygon fill="#63b8ff" stroke="#63b8ff" points="55.3,-24.22 63.72,-17.78 53.13,-17.56 55.3,-24.22"/>
</a>
</g>
</g>
<!-- Node6 -->
<g id="Node000006" class="node">
<title>Node6</title>
<g id="a_Node000006"><a xlink:href="gpio_8h.html" target="_top" xlink:title=" ">
<polygon fill="white" stroke="#666666" points="97.14,-76 12.14,-76 12.14,-56 97.14,-56 97.14,-76"/>
<text text-anchor="middle" x="54.64" y="-62.5" font-family="Helvetica,sans-Serif" font-size="10.00">hardware/gpio.h</text>
</a>
</g>
</g>
<!-- Node1&#45;&gt;Node6 -->
<g id="edge5_Node000001_Node000006" class="edge">
<title>Node1&#45;&gt;Node6</title>
<g id="a_edge5_Node000001_Node000006"><a xlink:title=" ">
<path fill="none" stroke="#63b8ff" d="M114.02,-167.71C108.54,-158.62 99.98,-144.39 92.64,-132 83.48,-116.54 73.2,-98.93 65.64,-85.95"/>
<polygon fill="#63b8ff" stroke="#63b8ff" points="68.83,-84.47 60.78,-77.58 62.78,-87.99 68.83,-84.47"/>
</a>
</g>
</g>
<!-- Node7 -->
<g id="Node000007" class="node">
<title>Node7</title>
<g id="a_Node000007"><a xlink:href="drivers_2include_2i2c_8h.html" target="_top" xlink:title=" ">
<polygon fill="white" stroke="#666666" points="138.14,-132 101.14,-132 101.14,-112 138.14,-112 138.14,-132"/>
<text text-anchor="middle" x="119.64" y="-118.5" font-family="Helvetica,sans-Serif" font-size="10.00">i2c.h</text>
</a>
</g>
</g>
<!-- Node1&#45;&gt;Node7 -->
<g id="edge8_Node000001_Node000007" class="edge">
<title>Node1&#45;&gt;Node7</title>
<g id="a_edge8_Node000001_Node000007"><a xlink:title=" ">
<path fill="none" stroke="#63b8ff" d="M119.64,-167.59C119.64,-161.01 119.64,-151.96 119.64,-143.73"/>
<polygon fill="#63b8ff" stroke="#63b8ff" points="123.14,-143.81 119.64,-133.81 116.14,-143.81 123.14,-143.81"/>
</a>
</g>
</g>
<!-- Node8 -->
<g id="Node000008" class="node">
<title>Node8</title>
<g id="a_Node000008"><a xlink:title=" ">
<polygon fill="#e0e0e0" stroke="#999999" points="265.02,-132 194.27,-132 194.27,-112 265.02,-112 265.02,-132"/>
<text text-anchor="middle" x="229.64" y="-118.5" font-family="Helvetica,sans-Serif" font-size="10.00">FreeRTOS.h</text>
</a>
</g>
</g>
<!-- Node1&#45;&gt;Node8 -->
<g id="edge12_Node000001_Node000008" class="edge">
<title>Node1&#45;&gt;Node8</title>
<g id="a_edge12_Node000001_Node000008"><a xlink:title=" ">
<path fill="none" stroke="#63b8ff" d="M138.8,-167.59C155.73,-159.28 180.69,-147.03 200.16,-137.47"/>
<polygon fill="#63b8ff" stroke="#63b8ff" points="201.54,-140.7 208.97,-133.15 198.45,-134.41 201.54,-140.7"/>
</a>
</g>
</g>
<!-- Node2&#45;&gt;Node3 -->
<g id="edge2_Node000002_Node000003" class="edge">
<title>Node2&#45;&gt;Node3</title>
<g id="a_edge2_Node000002_Node000003"><a xlink:title=" ">
<path fill="none" stroke="#63b8ff" d="M175.53,-55.59C159.67,-47.36 136.36,-35.26 118.02,-25.74"/>
<polygon fill="#63b8ff" stroke="#63b8ff" points="119.73,-22.68 109.24,-21.18 116.5,-28.89 119.73,-22.68"/>
</a>
</g>
</g>
<!-- Node4 -->
<g id="Node000004" class="node">
<title>Node4</title>
<g id="a_Node000004"><a xlink:title=" ">
<polygon fill="#e0e0e0" stroke="#999999" points="201.27,-20 150.02,-20 150.02,0 201.27,0 201.27,-20"/>
<text text-anchor="middle" x="175.64" y="-6.5" font-family="Helvetica,sans-Serif" font-size="10.00">stddef.h</text>
</a>
</g>
</g>
<!-- Node2&#45;&gt;Node4 -->
<g id="edge3_Node000002_Node000004" class="edge">
<title>Node2&#45;&gt;Node4</title>
<g id="a_edge3_Node000002_Node000004"><a xlink:title=" ">
<path fill="none" stroke="#63b8ff" d="M190.51,-55.59C188.26,-48.86 185.15,-39.53 182.36,-31.15"/>
<polygon fill="#63b8ff" stroke="#63b8ff" points="185.7,-30.11 179.22,-21.73 179.06,-32.33 185.7,-30.11"/>
</a>
</g>
</g>
<!-- Node5 -->
<g id="Node000005" class="node">
<title>Node5</title>
<g id="a_Node000005"><a xlink:title=" ">
<polygon fill="#e0e0e0" stroke="#999999" points="275.52,-20 219.77,-20 219.77,0 275.52,0 275.52,-20"/>
<text text-anchor="middle" x="247.64" y="-6.5" font-family="Helvetica,sans-Serif" font-size="10.00">stdbool.h</text>
</a>
</g>
</g>
<!-- Node2&#45;&gt;Node5 -->
<g id="edge4_Node000002_Node000005" class="edge">
<title>Node2&#45;&gt;Node5</title>
<g id="a_edge4_Node000002_Node000005"><a xlink:title=" ">
<path fill="none" stroke="#63b8ff" d="M203.05,-55.59C210.56,-48.08 221.29,-37.35 230.34,-28.3"/>
<polygon fill="#63b8ff" stroke="#63b8ff" points="232.68,-30.91 237.27,-21.37 227.73,-25.96 232.68,-30.91"/>
</a>
</g>
</g>
<!-- Node6&#45;&gt;Node3 -->
<g id="edge6_Node000006_Node000003" class="edge">
<title>Node6&#45;&gt;Node3</title>
<g id="a_edge6_Node000006_Node000003"><a xlink:title=" ">
<path fill="none" stroke="#63b8ff" d="M60.74,-55.59C65.35,-48.47 71.85,-38.45 77.51,-29.72"/>
<polygon fill="#63b8ff" stroke="#63b8ff" points="80.29,-31.86 82.79,-21.57 74.41,-28.06 80.29,-31.86"/>
</a>
</g>
</g>
<!-- Node7&#45;&gt;Node2 -->
<g id="edge9_Node000007_Node000002" class="edge">
<title>Node7&#45;&gt;Node2</title>
<g id="a_edge9_Node000007_Node000002"><a xlink:title=" ">
<path fill="none" stroke="#63b8ff" d="M132.53,-111.59C143.35,-103.7 159.05,-92.24 171.83,-82.92"/>
<polygon fill="#63b8ff" stroke="#63b8ff" points="173.66,-85.91 179.68,-77.19 169.53,-80.26 173.66,-85.91"/>
</a>
</g>
</g>
<!-- Node7&#45;&gt;Node3 -->
<g id="edge11_Node000007_Node000003" class="edge">
<title>Node7&#45;&gt;Node3</title>
<g id="a_edge11_Node000007_Node000003"><a xlink:title=" ">
<path fill="none" stroke="#63b8ff" d="M118.26,-111.63C116.28,-98.89 112.22,-75.47 106.64,-56 104.22,-47.58 100.93,-38.5 97.89,-30.72"/>
<polygon fill="#63b8ff" stroke="#63b8ff" points="101.18,-29.51 94.18,-21.56 94.69,-32.14 101.18,-29.51"/>
</a>
</g>
</g>
<!-- Node7&#45;&gt;Node6 -->
<g id="edge10_Node000007_Node000006" class="edge">
<title>Node7&#45;&gt;Node6</title>
<g id="a_edge10_Node000007_Node000006"><a xlink:title=" ">
<path fill="none" stroke="#63b8ff" d="M108.32,-111.59C99,-103.85 85.56,-92.69 74.46,-83.47"/>
<polygon fill="#63b8ff" stroke="#63b8ff" points="76.93,-80.96 67,-77.27 72.45,-86.35 76.93,-80.96"/>
</a>
</g>
</g>
</g>
</svg>
</svg>

<style type='text/css'>
<![CDATA[
[data-mouse-over-selected='false'] { opacity: 0.7; }
[data-mouse-over-selected='true']  { opacity: 1.0; }
]]>
</style>
<script type="application/ecmascript"><![CDATA[
document.addEventListener('DOMContentLoaded', (event) => {
  highlightEdges();
  highlightAdjacentNodes();
});
]]></script>
</svg>
