<?xml version="1.0" encoding="UTF-8" standalone="no"?>
<!DOCTYPE svg PUBLIC "-//W3C//DTD SVG 1.1//EN"
 "http://www.w3.org/Graphics/SVG/1.1/DTD/svg11.dtd">
<!-- Generated by graphviz version 2.43.0 (0)
 -->
<!-- Title: vega_ant.h Pages: 1 -->
<svg width="306pt" height="192pt"
 viewBox="0.00 0.00 305.92 192.00" xmlns="http://www.w3.org/2000/svg" xmlns:xlink="http://www.w3.org/1999/xlink">
<g id="graph0" class="graph" transform="scale(1 1) rotate(0) translate(4 188)">
<title>vega_ant.h</title>
<!-- Node1 -->
<g id="Node000001" class="node">
<title>Node1</title>
<g id="a_Node000001"><a xlink:title="Vega Antenna Board Driver.">
<polygon fill="#999999" stroke="#666666" points="164.42,-184 93.42,-184 93.42,-165 164.42,-165 164.42,-184"/>
<text text-anchor="middle" x="128.92" y="-172" font-family="Helvetica,sans-Serif" font-size="10.00">vega_ant.h</text>
</a>
</g>
</g>
<!-- Node2 -->
<g id="Node000002" class="node">
<title>Node2</title>
<g id="a_Node000002"><a xlink:href="simulator_2pico-sdk_2hardware_2i2c_8h.html" target="_top" xlink:title=" ">
<polygon fill="white" stroke="#666666" points="253.42,-74 164.42,-74 164.42,-55 253.42,-55 253.42,-74"/>
<text text-anchor="middle" x="208.92" y="-62" font-family="Helvetica,sans-Serif" font-size="10.00">hardware/i2c.h</text>
</a>
</g>
</g>
<!-- Node1&#45;&gt;Node2 -->
<g id="edge1_Node000001_Node000002" class="edge">
<title>Node1&#45;&gt;Node2</title>
<g id="a_edge1_Node000001_Node000002"><a xlink:title=" ">
<path fill="none" stroke="#63b8ff" d="M135.47,-164.66C148.77,-146.69 179.18,-105.64 196.41,-82.38"/>
<polygon fill="#63b8ff" stroke="#63b8ff" points="199.37,-84.28 202.51,-74.16 193.74,-80.11 199.37,-84.28"/>
</a>
</g>
</g>
<!-- Node3 -->
<g id="Node000003" class="node">
<title>Node3</title>
<g id="a_Node000003"><a xlink:title=" ">
<polygon fill="#e0e0e0" stroke="#999999" points="124.42,-19 71.42,-19 71.42,0 124.42,0 124.42,-19"/>
<text text-anchor="middle" x="97.92" y="-7" font-family="Helvetica,sans-Serif" font-size="10.00">stdint.h</text>
</a>
</g>
</g>
<!-- Node1&#45;&gt;Node3 -->
<g id="edge7_Node000001_Node000003" class="edge">
<title>Node1&#45;&gt;Node3</title>
<g id="a_edge7_Node000001_Node000003"><a xlink:title=" ">
<path fill="none" stroke="#63b8ff" d="M108.97,-164.81C79.39,-150.68 25.04,-119.65 2.92,-74 -10.84,-45.61 29.17,-27.98 61.44,-18.71"/>
<polygon fill="#63b8ff" stroke="#63b8ff" points="62.4,-22.07 71.14,-16.09 60.58,-15.32 62.4,-22.07"/>
</a>
</g>
</g>
<!-- Node6 -->
<g id="Node000006" class="node">
<title>Node6</title>
<g id="a_Node000006"><a xlink:href="gpio_8h.html" target="_top" xlink:title=" ">
<polygon fill="white" stroke="#666666" points="107.42,-74 12.42,-74 12.42,-55 107.42,-55 107.42,-74"/>
<text text-anchor="middle" x="59.92" y="-62" font-family="Helvetica,sans-Serif" font-size="10.00">hardware/gpio.h</text>
</a>
</g>
</g>
<!-- Node1&#45;&gt;Node6 -->
<g id="edge5_Node000001_Node000006" class="edge">
<title>Node1&#45;&gt;Node6</title>
<g id="a_edge5_Node000001_Node000006"><a xlink:title=" ">
<path fill="none" stroke="#63b8ff" d="M123.32,-164.99C117.45,-156.06 107.98,-141.58 99.92,-129 89.95,-113.44 78.75,-95.63 70.74,-82.84"/>
<polygon fill="#63b8ff" stroke="#63b8ff" points="73.58,-80.78 65.31,-74.15 67.64,-84.49 73.58,-80.78"/>
</a>
</g>
</g>
<!-- Node7 -->
<g id="Node000007" class="node">
<title>Node7</title>
<g id="a_Node000007"><a xlink:href="drivers_2include_2i2c_8h.html" target="_top" xlink:title="Drivers for i2c peripheral devices.">
<polygon fill="white" stroke="#666666" points="148.92,-129 108.92,-129 108.92,-110 148.92,-110 148.92,-129"/>
<text text-anchor="middle" x="128.92" y="-117" font-family="Helvetica,sans-Serif" font-size="10.00">i2c.h</text>
</a>
</g>
</g>
<!-- Node1&#45;&gt;Node7 -->
<g id="edge8_Node000001_Node000007" class="edge">
<title>Node1&#45;&gt;Node7</title>
<g id="a_edge8_Node000001_Node000007"><a xlink:title=" ">
<path fill="none" stroke="#63b8ff" d="M128.92,-164.75C128.92,-157.8 128.92,-147.85 128.92,-139.13"/>
<polygon fill="#63b8ff" stroke="#63b8ff" points="132.42,-139.09 128.92,-129.09 125.42,-139.09 132.42,-139.09"/>
</a>
</g>
</g>
<!-- Node8 -->
<g id="Node000008" class="node">
<title>Node8</title>
<g id="a_Node000008"><a xlink:title=" ">
<polygon fill="#e0e0e0" stroke="#999999" points="276.92,-129 204.92,-129 204.92,-110 276.92,-110 276.92,-129"/>
<text text-anchor="middle" x="240.92" y="-117" font-family="Helvetica,sans-Serif" font-size="10.00">FreeRTOS.h</text>
</a>
</g>
</g>
<!-- Node1&#45;&gt;Node8 -->
<g id="edge12_Node000001_Node000008" class="edge">
<title>Node1&#45;&gt;Node8</title>
<g id="a_edge12_Node000001_Node000008"><a xlink:title=" ">
<path fill="none" stroke="#63b8ff" d="M146.91,-164.98C164.85,-156.5 192.63,-143.35 213.35,-133.54"/>
<polygon fill="#63b8ff" stroke="#63b8ff" points="215.05,-136.61 222.6,-129.17 212.06,-130.28 215.05,-136.61"/>
</a>
</g>
</g>
<!-- Node2&#45;&gt;Node3 -->
<g id="edge2_Node000002_Node000003" class="edge">
<title>Node2&#45;&gt;Node3</title>
<g id="a_edge2_Node000002_Node000003"><a xlink:title=" ">
<path fill="none" stroke="#63b8ff" d="M191.08,-54.98C173.31,-46.5 145.77,-33.35 125.24,-23.54"/>
<polygon fill="#63b8ff" stroke="#63b8ff" points="126.61,-20.32 116.08,-19.17 123.59,-26.64 126.61,-20.32"/>
</a>
</g>
</g>
<!-- Node4 -->
<g id="Node000004" class="node">
<title>Node4</title>
<g id="a_Node000004"><a xlink:title=" ">
<polygon fill="#e0e0e0" stroke="#999999" points="217.92,-19 161.92,-19 161.92,0 217.92,0 217.92,-19"/>
<text text-anchor="middle" x="189.92" y="-7" font-family="Helvetica,sans-Serif" font-size="10.00">stddef.h</text>
</a>
</g>
</g>
<!-- Node2&#45;&gt;Node4 -->
<g id="edge3_Node000002_Node000004" class="edge">
<title>Node2&#45;&gt;Node4</title>
<g id="a_edge3_Node000002_Node000004"><a xlink:title=" ">
<path fill="none" stroke="#63b8ff" d="M205.78,-54.75C203.24,-47.65 199.56,-37.4 196.39,-28.56"/>
<polygon fill="#63b8ff" stroke="#63b8ff" points="199.67,-27.32 193,-19.09 193.08,-29.68 199.67,-27.32"/>
</a>
</g>
</g>
<!-- Node5 -->
<g id="Node000005" class="node">
<title>Node5</title>
<g id="a_Node000005"><a xlink:title=" ">
<polygon fill="#e0e0e0" stroke="#999999" points="297.92,-19 235.92,-19 235.92,0 297.92,0 297.92,-19"/>
<text text-anchor="middle" x="266.92" y="-7" font-family="Helvetica,sans-Serif" font-size="10.00">stdbool.h</text>
</a>
</g>
</g>
<!-- Node2&#45;&gt;Node5 -->
<g id="edge4_Node000002_Node000005" class="edge">
<title>Node2&#45;&gt;Node5</title>
<g id="a_edge4_Node000002_Node000005"><a xlink:title=" ">
<path fill="none" stroke="#63b8ff" d="M218.24,-54.98C226.73,-47.23 239.48,-35.58 249.8,-26.14"/>
<polygon fill="#63b8ff" stroke="#63b8ff" points="252.41,-28.5 257.43,-19.17 247.69,-23.33 252.41,-28.5"/>
</a>
</g>
</g>
<!-- Node6&#45;&gt;Node3 -->
<g id="edge6_Node000006_Node000003" class="edge">
<title>Node6&#45;&gt;Node3</title>
<g id="a_edge6_Node000006_Node000003"><a xlink:title=" ">
<path fill="none" stroke="#63b8ff" d="M66.19,-54.75C71.51,-47.34 79.27,-36.5 85.79,-27.41"/>
<polygon fill="#63b8ff" stroke="#63b8ff" points="88.78,-29.26 91.76,-19.09 83.09,-25.18 88.78,-29.26"/>
</a>
</g>
</g>
<!-- Node7&#45;&gt;Node2 -->
<g id="edge9_Node000007_Node000002" class="edge">
<title>Node7&#45;&gt;Node2</title>
<g id="a_edge9_Node000007_Node000002"><a xlink:title=" ">
<path fill="none" stroke="#63b8ff" d="M141.77,-109.98C154.06,-101.84 172.83,-89.41 187.4,-79.76"/>
<polygon fill="#63b8ff" stroke="#63b8ff" points="189.43,-82.61 195.83,-74.17 185.56,-76.78 189.43,-82.61"/>
</a>
</g>
</g>
<!-- Node7&#45;&gt;Node3 -->
<g id="edge11_Node000007_Node000003" class="edge">
<title>Node7&#45;&gt;Node3</title>
<g id="a_edge11_Node000007_Node000003"><a xlink:title=" ">
<path fill="none" stroke="#63b8ff" d="M127.65,-109.75C125.73,-97.38 121.71,-74.18 115.92,-55 113.24,-46.12 109.49,-36.56 106.11,-28.58"/>
<polygon fill="#63b8ff" stroke="#63b8ff" points="109.21,-26.95 101.99,-19.19 102.8,-29.76 109.21,-26.95"/>
</a>
</g>
</g>
<!-- Node7&#45;&gt;Node6 -->
<g id="edge10_Node000007_Node000006" class="edge">
<title>Node7&#45;&gt;Node6</title>
<g id="a_edge10_Node000007_Node000006"><a xlink:title=" ">
<path fill="none" stroke="#63b8ff" d="M117.83,-109.98C107.43,-102 91.66,-89.88 79.2,-80.31"/>
<polygon fill="#63b8ff" stroke="#63b8ff" points="81.27,-77.49 71.21,-74.17 77.01,-83.04 81.27,-77.49"/>
</a>
</g>
</g>
</g>
</svg>
