<?xml version="1.0" encoding="UTF-8" standalone="no"?>
<!DOCTYPE svg PUBLIC "-//W3C//DTD SVG 1.1//EN"
 "http://www.w3.org/Graphics/SVG/1.1/DTD/svg11.dtd">
<!-- Generated by graphviz version 2.43.0 (0)
 -->
<!-- Title: vega_ant.c Pages: 1 -->
<svg width="458pt" height="247pt"
 viewBox="0.00 0.00 458.02 247.00" xmlns="http://www.w3.org/2000/svg" xmlns:xlink="http://www.w3.org/1999/xlink">

<svg id="main" version="1.1" xmlns="http://www.w3.org/2000/svg" xmlns:xlink="http://www.w3.org/1999/xlink" xml:space="preserve">

<style type="text/css"><![CDATA[
.node, .edge {opacity: 0.7;}
.node.selected, .edge.selected {opacity: 1;}
.edge:hover path { stroke: red; }
.edge:hover polygon { stroke: red; fill: red; }
]]></style>
<script type="application/ecmascript" xlink:href="svg.min.js"/>
<svg id="graph" class="graph">
<g id="graph0" class="graph" transform="scale(1 1) rotate(0) translate(4 243)">
<title>vega_ant.c</title>
<!-- Node1 -->
<g id="Node000001" class="node">
<title>Node1</title>
<g id="a_Node000001"><a xlink:title=" ">
<polygon fill="#999999" stroke="#666666" points="367.52,-239 297.52,-239 297.52,-220 367.52,-220 367.52,-239"/>
<text text-anchor="middle" x="332.52" y="-227" font-family="Helvetica,sans-Serif" font-size="10.00">vega_ant.c</text>
</a>
</g>
</g>
<!-- Node2 -->
<g id="Node000002" class="node">
<title>Node2</title>
<g id="a_Node000002"><a xlink:title=" ">
<polygon fill="#e0e0e0" stroke="#999999" points="344.52,-74 272.52,-74 272.52,-55 344.52,-55 344.52,-74"/>
<text text-anchor="middle" x="308.52" y="-62" font-family="Helvetica,sans-Serif" font-size="10.00">FreeRTOS.h</text>
</a>
</g>
</g>
<!-- Node1&#45;&gt;Node2 -->
<g id="edge1_Node000001_Node000002" class="edge">
<title>Node1&#45;&gt;Node2</title>
<g id="a_edge1_Node000001_Node000002"><a xlink:title=" ">
<path fill="none" stroke="#63b8ff" d="M331.23,-219.74C327.47,-194.2 316.46,-119.43 311.28,-84.23"/>
<polygon fill="#63b8ff" stroke="#63b8ff" points="314.74,-83.69 309.82,-74.31 307.82,-84.71 314.74,-83.69"/>
</a>
</g>
</g>
<!-- Node3 -->
<g id="Node000003" class="node">
<title>Node3</title>
<g id="a_Node000003"><a xlink:title=" ">
<polygon fill="#e0e0e0" stroke="#999999" points="450.02,-184 403.02,-184 403.02,-165 450.02,-165 450.02,-184"/>
<text text-anchor="middle" x="426.52" y="-172" font-family="Helvetica,sans-Serif" font-size="10.00">task.h</text>
</a>
</g>
</g>
<!-- Node1&#45;&gt;Node3 -->
<g id="edge2_Node000001_Node000003" class="edge">
<title>Node1&#45;&gt;Node3</title>
<g id="a_edge2_Node000001_Node000003"><a xlink:title=" ">
<path fill="none" stroke="#63b8ff" d="M347.63,-219.98C362.34,-211.69 384.95,-198.94 402.2,-189.22"/>
<polygon fill="#63b8ff" stroke="#63b8ff" points="404.15,-192.13 411.15,-184.17 400.72,-186.03 404.15,-192.13"/>
</a>
</g>
</g>
<!-- Node4 -->
<g id="Node000004" class="node">
<title>Node4</title>
<g id="a_Node000004"><a xlink:href="vega__ant_8h.html" target="_top" xlink:title="Vega Antenna Board Driver.">
<polygon fill="white" stroke="#666666" points="197.02,-184 126.02,-184 126.02,-165 197.02,-165 197.02,-184"/>
<text text-anchor="middle" x="161.52" y="-172" font-family="Helvetica,sans-Serif" font-size="10.00">vega_ant.h</text>
</a>
</g>
</g>
<!-- Node1&#45;&gt;Node4 -->
<g id="edge3_Node000001_Node000004" class="edge">
<title>Node1&#45;&gt;Node4</title>
<g id="a_edge3_Node000001_Node000004"><a xlink:title=" ">
<path fill="none" stroke="#63b8ff" d="M305.05,-219.98C276.34,-211.09 231.11,-197.07 199.1,-187.15"/>
<polygon fill="#63b8ff" stroke="#63b8ff" points="199.8,-183.7 189.21,-184.08 197.73,-190.39 199.8,-183.7"/>
</a>
</g>
</g>
<!-- Node11 -->
<g id="Node000011" class="node">
<title>Node11</title>
<g id="a_Node000011"><a xlink:href="log_8h.html" target="_top" xlink:title=" ">
<polygon fill="white" stroke="#666666" points="385.02,-184 344.02,-184 344.02,-165 385.02,-165 385.02,-184"/>
<text text-anchor="middle" x="364.52" y="-172" font-family="Helvetica,sans-Serif" font-size="10.00">log.h</text>
</a>
</g>
</g>
<!-- Node1&#45;&gt;Node11 -->
<g id="edge16_Node000001_Node000011" class="edge">
<title>Node1&#45;&gt;Node11</title>
<g id="a_edge16_Node000001_Node000011"><a xlink:title=" ">
<path fill="none" stroke="#63b8ff" d="M337.81,-219.75C342.24,-212.42 348.69,-201.73 354.14,-192.7"/>
<polygon fill="#63b8ff" stroke="#63b8ff" points="357.17,-194.46 359.34,-184.09 351.17,-190.84 357.17,-194.46"/>
</a>
</g>
</g>
<!-- Node4&#45;&gt;Node2 -->
<g id="edge15_Node000004_Node000002" class="edge">
<title>Node4&#45;&gt;Node2</title>
<g id="a_edge15_Node000004_Node000002"><a xlink:title=" ">
<path fill="none" stroke="#63b8ff" d="M173.31,-164.84C198.36,-146.44 257.17,-103.23 288.33,-80.34"/>
<polygon fill="#63b8ff" stroke="#63b8ff" points="290.7,-82.94 296.69,-74.2 286.56,-77.3 290.7,-82.94"/>
</a>
</g>
</g>
<!-- Node5 -->
<g id="Node000005" class="node">
<title>Node5</title>
<g id="a_Node000005"><a xlink:href="simulator_2pico-sdk_2hardware_2i2c_8h.html" target="_top" xlink:title=" ">
<polygon fill="white" stroke="#666666" points="254.02,-74 165.02,-74 165.02,-55 254.02,-55 254.02,-74"/>
<text text-anchor="middle" x="209.52" y="-62" font-family="Helvetica,sans-Serif" font-size="10.00">hardware/i2c.h</text>
</a>
</g>
</g>
<!-- Node4&#45;&gt;Node5 -->
<g id="edge4_Node000004_Node000005" class="edge">
<title>Node4&#45;&gt;Node5</title>
<g id="a_edge4_Node000004_Node000005"><a xlink:title=" ">
<path fill="none" stroke="#63b8ff" d="M165.45,-164.66C173.33,-146.93 191.2,-106.73 201.6,-83.32"/>
<polygon fill="#63b8ff" stroke="#63b8ff" points="204.81,-84.72 205.68,-74.16 198.42,-81.87 204.81,-84.72"/>
</a>
</g>
</g>
<!-- Node6 -->
<g id="Node000006" class="node">
<title>Node6</title>
<g id="a_Node000006"><a xlink:title=" ">
<polygon fill="#e0e0e0" stroke="#999999" points="125.02,-19 72.02,-19 72.02,0 125.02,0 125.02,-19"/>
<text text-anchor="middle" x="98.52" y="-7" font-family="Helvetica,sans-Serif" font-size="10.00">stdint.h</text>
</a>
</g>
</g>
<!-- Node4&#45;&gt;Node6 -->
<g id="edge10_Node000004_Node000006" class="edge">
<title>Node4&#45;&gt;Node6</title>
<g id="a_edge10_Node000004_Node000006"><a xlink:title=" ">
<path fill="none" stroke="#63b8ff" d="M132.64,-164.95C95.07,-152.09 31.02,-123.81 3.52,-74 -11.81,-46.22 29.1,-28.36 61.97,-18.88"/>
<polygon fill="#63b8ff" stroke="#63b8ff" points="63.1,-22.2 71.83,-16.2 61.27,-15.44 63.1,-22.2"/>
</a>
</g>
</g>
<!-- Node9 -->
<g id="Node000009" class="node">
<title>Node9</title>
<g id="a_Node000009"><a xlink:href="gpio_8h.html" target="_top" xlink:title=" ">
<polygon fill="white" stroke="#666666" points="108.02,-74 13.02,-74 13.02,-55 108.02,-55 108.02,-74"/>
<text text-anchor="middle" x="60.52" y="-62" font-family="Helvetica,sans-Serif" font-size="10.00">hardware/gpio.h</text>
</a>
</g>
</g>
<!-- Node4&#45;&gt;Node9 -->
<g id="edge8_Node000004_Node000009" class="edge">
<title>Node4&#45;&gt;Node9</title>
<g id="a_edge8_Node000004_Node000009"><a xlink:title=" ">
<path fill="none" stroke="#63b8ff" d="M151.62,-164.98C141.66,-156.27 126.04,-142.19 113.52,-129 99.07,-113.77 83.83,-95.22 73.42,-82.11"/>
<polygon fill="#63b8ff" stroke="#63b8ff" points="75.99,-79.71 67.06,-74.01 70.49,-84.04 75.99,-79.71"/>
</a>
</g>
</g>
<!-- Node10 -->
<g id="Node000010" class="node">
<title>Node10</title>
<g id="a_Node000010"><a xlink:href="drivers_2include_2i2c_8h.html" target="_top" xlink:title="Drivers for i2c peripheral devices.">
<polygon fill="white" stroke="#666666" points="162.52,-129 122.52,-129 122.52,-110 162.52,-110 162.52,-129"/>
<text text-anchor="middle" x="142.52" y="-117" font-family="Helvetica,sans-Serif" font-size="10.00">i2c.h</text>
</a>
</g>
</g>
<!-- Node4&#45;&gt;Node10 -->
<g id="edge11_Node000004_Node000010" class="edge">
<title>Node4&#45;&gt;Node10</title>
<g id="a_edge11_Node000004_Node000010"><a xlink:title=" ">
<path fill="none" stroke="#63b8ff" d="M158.39,-164.75C155.84,-157.65 152.17,-147.4 149,-138.56"/>
<polygon fill="#63b8ff" stroke="#63b8ff" points="152.27,-137.32 145.6,-129.09 145.68,-139.68 152.27,-137.32"/>
</a>
</g>
</g>
<!-- Node5&#45;&gt;Node6 -->
<g id="edge5_Node000005_Node000006" class="edge">
<title>Node5&#45;&gt;Node6</title>
<g id="a_edge5_Node000005_Node000006"><a xlink:title=" ">
<path fill="none" stroke="#63b8ff" d="M191.69,-54.98C173.91,-46.5 146.38,-33.35 125.84,-23.54"/>
<polygon fill="#63b8ff" stroke="#63b8ff" points="127.22,-20.32 116.68,-19.17 124.2,-26.64 127.22,-20.32"/>
</a>
</g>
</g>
<!-- Node7 -->
<g id="Node000007" class="node">
<title>Node7</title>
<g id="a_Node000007"><a xlink:title=" ">
<polygon fill="#e0e0e0" stroke="#999999" points="237.52,-19 181.52,-19 181.52,0 237.52,0 237.52,-19"/>
<text text-anchor="middle" x="209.52" y="-7" font-family="Helvetica,sans-Serif" font-size="10.00">stddef.h</text>
</a>
</g>
</g>
<!-- Node5&#45;&gt;Node7 -->
<g id="edge6_Node000005_Node000007" class="edge">
<title>Node5&#45;&gt;Node7</title>
<g id="a_edge6_Node000005_Node000007"><a xlink:title=" ">
<path fill="none" stroke="#63b8ff" d="M209.52,-54.75C209.52,-47.8 209.52,-37.85 209.52,-29.13"/>
<polygon fill="#63b8ff" stroke="#63b8ff" points="213.02,-29.09 209.52,-19.09 206.02,-29.09 213.02,-29.09"/>
</a>
</g>
</g>
<!-- Node8 -->
<g id="Node000008" class="node">
<title>Node8</title>
<g id="a_Node000008"><a xlink:title=" ">
<polygon fill="#e0e0e0" stroke="#999999" points="397.52,-19 335.52,-19 335.52,0 397.52,0 397.52,-19"/>
<text text-anchor="middle" x="366.52" y="-7" font-family="Helvetica,sans-Serif" font-size="10.00">stdbool.h</text>
</a>
</g>
</g>
<!-- Node5&#45;&gt;Node8 -->
<g id="edge7_Node000005_Node000008" class="edge">
<title>Node5&#45;&gt;Node8</title>
<g id="a_edge7_Node000005_Node000008"><a xlink:title=" ">
<path fill="none" stroke="#63b8ff" d="M234.75,-54.98C260.88,-46.16 301.92,-32.31 331.26,-22.41"/>
<polygon fill="#63b8ff" stroke="#63b8ff" points="332.75,-25.6 341.1,-19.08 330.51,-18.96 332.75,-25.6"/>
</a>
</g>
</g>
<!-- Node9&#45;&gt;Node6 -->
<g id="edge9_Node000009_Node000006" class="edge">
<title>Node9&#45;&gt;Node6</title>
<g id="a_edge9_Node000009_Node000006"><a xlink:title=" ">
<path fill="none" stroke="#63b8ff" d="M66.8,-54.75C72.11,-47.34 79.88,-36.5 86.4,-27.41"/>
<polygon fill="#63b8ff" stroke="#63b8ff" points="89.38,-29.26 92.37,-19.09 83.69,-25.18 89.38,-29.26"/>
</a>
</g>
</g>
<!-- Node10&#45;&gt;Node5 -->
<g id="edge12_Node000010_Node000005" class="edge">
<title>Node10&#45;&gt;Node5</title>
<g id="a_edge12_Node000010_Node000005"><a xlink:title=" ">
<path fill="none" stroke="#63b8ff" d="M153.29,-109.98C163.29,-102.07 178.41,-90.11 190.45,-80.58"/>
<polygon fill="#63b8ff" stroke="#63b8ff" points="192.89,-83.12 198.56,-74.17 188.55,-77.63 192.89,-83.12"/>
</a>
</g>
</g>
<!-- Node10&#45;&gt;Node6 -->
<g id="edge14_Node000010_Node000006" class="edge">
<title>Node10&#45;&gt;Node6</title>
<g id="a_edge14_Node000010_Node000006"><a xlink:title=" ">
<path fill="none" stroke="#63b8ff" d="M138.92,-109.66C131.73,-92.01 115.47,-52.09 105.91,-28.64"/>
<polygon fill="#63b8ff" stroke="#63b8ff" points="109.07,-27.1 102.05,-19.16 102.58,-29.74 109.07,-27.1"/>
</a>
</g>
</g>
<!-- Node10&#45;&gt;Node9 -->
<g id="edge13_Node000010_Node000009" class="edge">
<title>Node10&#45;&gt;Node9</title>
<g id="a_edge13_Node000010_Node000009"><a xlink:title=" ">
<path fill="none" stroke="#63b8ff" d="M129.35,-109.98C116.75,-101.84 97.52,-89.41 82.58,-79.76"/>
<polygon fill="#63b8ff" stroke="#63b8ff" points="84.24,-76.66 73.94,-74.17 80.44,-82.54 84.24,-76.66"/>
</a>
</g>
</g>
<!-- Node11&#45;&gt;Node8 -->
<g id="edge20_Node000011_Node000008" class="edge">
<title>Node11&#45;&gt;Node8</title>
<g id="a_edge20_Node000011_Node000008"><a xlink:title=" ">
<path fill="none" stroke="#63b8ff" d="M379.6,-164.95C391.83,-157.18 408.47,-144.58 417.52,-129 430,-107.51 425.29,-98.74 427.52,-74 428.28,-65.59 431.35,-62.53 427.52,-55 420.76,-41.68 407.93,-31.41 395.77,-24.1"/>
<polygon fill="#63b8ff" stroke="#63b8ff" points="397.17,-20.87 386.72,-19.09 393.78,-26.99 397.17,-20.87"/>
</a>
</g>
</g>
<!-- Node12 -->
<g id="Node000012" class="node">
<title>Node12</title>
<g id="a_Node000012"><a xlink:href="telemetry_8h.html" target="_top" xlink:title="Functions for packaging and queuing telemetry packets for sending.">
<polygon fill="white" stroke="#666666" points="408.52,-129 336.52,-129 336.52,-110 408.52,-110 408.52,-129"/>
<text text-anchor="middle" x="372.52" y="-117" font-family="Helvetica,sans-Serif" font-size="10.00">telemetry.h</text>
</a>
</g>
</g>
<!-- Node11&#45;&gt;Node12 -->
<g id="edge17_Node000011_Node000012" class="edge">
<title>Node11&#45;&gt;Node12</title>
<g id="a_edge17_Node000011_Node000012"><a xlink:title=" ">
<path fill="none" stroke="#63b8ff" d="M365.85,-164.75C366.89,-157.8 368.4,-147.85 369.71,-139.13"/>
<polygon fill="#63b8ff" stroke="#63b8ff" points="373.2,-139.5 371.23,-129.09 366.27,-138.45 373.2,-139.5"/>
</a>
</g>
</g>
<!-- Node12&#45;&gt;Node2 -->
<g id="edge18_Node000012_Node000002" class="edge">
<title>Node12&#45;&gt;Node2</title>
<g id="a_edge18_Node000012_Node000002"><a xlink:title=" ">
<path fill="none" stroke="#63b8ff" d="M362.24,-109.98C352.69,-102.07 338.24,-90.11 326.74,-80.58"/>
<polygon fill="#63b8ff" stroke="#63b8ff" points="328.93,-77.85 318.99,-74.17 324.46,-83.24 328.93,-77.85"/>
</a>
</g>
</g>
<!-- Node13 -->
<g id="Node000013" class="node">
<title>Node13</title>
<g id="a_Node000013"><a xlink:title=" ">
<polygon fill="#e0e0e0" stroke="#999999" points="418.52,-74 362.52,-74 362.52,-55 418.52,-55 418.52,-74"/>
<text text-anchor="middle" x="390.52" y="-62" font-family="Helvetica,sans-Serif" font-size="10.00">queue.h</text>
</a>
</g>
</g>
<!-- Node12&#45;&gt;Node13 -->
<g id="edge19_Node000012_Node000013" class="edge">
<title>Node12&#45;&gt;Node13</title>
<g id="a_edge19_Node000012_Node000013"><a xlink:title=" ">
<path fill="none" stroke="#63b8ff" d="M375.5,-109.75C377.88,-102.72 381.31,-92.62 384.29,-83.84"/>
<polygon fill="#63b8ff" stroke="#63b8ff" points="387.71,-84.68 387.61,-74.09 381.08,-82.43 387.71,-84.68"/>
</a>
</g>
</g>
</g>
</svg>
</svg>

<style type='text/css'>
<![CDATA[
[data-mouse-over-selected='false'] { opacity: 0.7; }
[data-mouse-over-selected='true']  { opacity: 1.0; }
]]>
</style>
<script type="application/ecmascript"><![CDATA[
document.addEventListener('DOMContentLoaded', (event) => {
  highlightEdges();
  highlightAdjacentNodes();
});
]]></script>
</svg>
