<?xml version="1.0" encoding="UTF-8" standalone="no"?>
<!DOCTYPE svg PUBLIC "-//W3C//DTD SVG 1.1//EN"
 "http://www.w3.org/Graphics/SVG/1.1/DTD/svg11.dtd">
<!-- Generated by graphviz version 2.43.0 (0)
 -->
<!-- Title: watchdog.c Pages: 1 -->
<svg width="527pt" height="192pt"
 viewBox="0.00 0.00 526.50 192.00" xmlns="http://www.w3.org/2000/svg" xmlns:xlink="http://www.w3.org/1999/xlink">
<g id="graph0" class="graph" transform="scale(1 1) rotate(0) translate(4 188)">
<title>watchdog.c</title>
<!-- Node1 -->
<g id="Node000001" class="node">
<title>Node1</title>
<g id="a_Node000001"><a xlink:title=" ">
<polygon fill="#999999" stroke="#666666" points="255.5,-184 183.5,-184 183.5,-165 255.5,-165 255.5,-184"/>
<text text-anchor="middle" x="219.5" y="-172" font-family="Helvetica,sans-Serif" font-size="10.00">watchdog.c</text>
</a>
</g>
</g>
<!-- Node2 -->
<g id="Node000002" class="node">
<title>Node2</title>
<g id="a_Node000002"><a xlink:href="watchdog_8h.html" target="_top" xlink:title="Watchdog management functions.">
<polygon fill="white" stroke="#666666" points="73,-129 0,-129 0,-110 73,-110 73,-129"/>
<text text-anchor="middle" x="36.5" y="-117" font-family="Helvetica,sans-Serif" font-size="10.00">watchdog.h</text>
</a>
</g>
</g>
<!-- Node1&#45;&gt;Node2 -->
<g id="edge1_Node000001_Node000002" class="edge">
<title>Node1&#45;&gt;Node2</title>
<g id="a_edge1_Node000001_Node000002"><a xlink:title=" ">
<path fill="none" stroke="#63b8ff" d="M190.1,-164.98C159.11,-156.01 110.12,-141.82 75.83,-131.89"/>
<polygon fill="#63b8ff" stroke="#63b8ff" points="76.71,-128.5 66.13,-129.08 74.76,-135.23 76.71,-128.5"/>
</a>
</g>
</g>
<!-- Node5 -->
<g id="Node000005" class="node">
<title>Node5</title>
<g id="a_Node000005"><a xlink:title=" ">
<polygon fill="#e0e0e0" stroke="#999999" points="192,-74 139,-74 139,-55 192,-55 192,-74"/>
<text text-anchor="middle" x="165.5" y="-62" font-family="Helvetica,sans-Serif" font-size="10.00">stdint.h</text>
</a>
</g>
</g>
<!-- Node1&#45;&gt;Node5 -->
<g id="edge4_Node000001_Node000005" class="edge">
<title>Node1&#45;&gt;Node5</title>
<g id="a_edge4_Node000001_Node000005"><a xlink:title=" ">
<path fill="none" stroke="#63b8ff" d="M183.32,-167.39C161.09,-161.57 134.32,-150.36 120.5,-129 109.44,-111.9 127,-92.92 143.32,-80.21"/>
<polygon fill="#63b8ff" stroke="#63b8ff" points="145.57,-82.9 151.58,-74.17 141.44,-77.25 145.57,-82.9"/>
</a>
</g>
</g>
<!-- Node6 -->
<g id="Node000006" class="node">
<title>Node6</title>
<g id="a_Node000006"><a xlink:href="stdlib_8h.html" target="_top" xlink:title=" ">
<polygon fill="white" stroke="#666666" points="205.5,-129 129.5,-129 129.5,-110 205.5,-110 205.5,-129"/>
<text text-anchor="middle" x="167.5" y="-117" font-family="Helvetica,sans-Serif" font-size="10.00">pico/stdlib.h</text>
</a>
</g>
</g>
<!-- Node1&#45;&gt;Node6 -->
<g id="edge5_Node000001_Node000006" class="edge">
<title>Node1&#45;&gt;Node6</title>
<g id="a_edge5_Node000001_Node000006"><a xlink:title=" ">
<path fill="none" stroke="#63b8ff" d="M210.91,-164.75C203.34,-157.03 192.12,-145.6 182.99,-136.28"/>
<polygon fill="#63b8ff" stroke="#63b8ff" points="185.43,-133.78 175.93,-129.09 180.43,-138.68 185.43,-133.78"/>
</a>
</g>
</g>
<!-- Node7 -->
<g id="Node000007" class="node">
<title>Node7</title>
<g id="a_Node000007"><a xlink:href="gpio_8h.html" target="_top" xlink:title=" ">
<polygon fill="white" stroke="#666666" points="319,-129 224,-129 224,-110 319,-110 319,-129"/>
<text text-anchor="middle" x="271.5" y="-117" font-family="Helvetica,sans-Serif" font-size="10.00">hardware/gpio.h</text>
</a>
</g>
</g>
<!-- Node1&#45;&gt;Node7 -->
<g id="edge6_Node000001_Node000007" class="edge">
<title>Node1&#45;&gt;Node7</title>
<g id="a_edge6_Node000001_Node000007"><a xlink:title=" ">
<path fill="none" stroke="#63b8ff" d="M228.09,-164.75C235.66,-157.03 246.88,-145.6 256.01,-136.28"/>
<polygon fill="#63b8ff" stroke="#63b8ff" points="258.57,-138.68 263.07,-129.09 253.57,-133.78 258.57,-138.68"/>
</a>
</g>
</g>
<!-- Node8 -->
<g id="Node000008" class="node">
<title>Node8</title>
<g id="a_Node000008"><a xlink:href="log_8h.html" target="_top" xlink:title=" ">
<polygon fill="white" stroke="#666666" points="378,-129 337,-129 337,-110 378,-110 378,-129"/>
<text text-anchor="middle" x="357.5" y="-117" font-family="Helvetica,sans-Serif" font-size="10.00">log.h</text>
</a>
</g>
</g>
<!-- Node1&#45;&gt;Node8 -->
<g id="edge8_Node000001_Node000008" class="edge">
<title>Node1&#45;&gt;Node8</title>
<g id="a_edge8_Node000001_Node000008"><a xlink:title=" ">
<path fill="none" stroke="#63b8ff" d="M241.67,-164.98C264.81,-156.1 301.25,-142.1 327.07,-132.19"/>
<polygon fill="#63b8ff" stroke="#63b8ff" points="328.66,-135.33 336.74,-128.47 326.15,-128.79 328.66,-135.33"/>
</a>
</g>
</g>
<!-- Node12 -->
<g id="Node000012" class="node">
<title>Node12</title>
<g id="a_Node000012"><a xlink:title=" ">
<polygon fill="#e0e0e0" stroke="#999999" points="518.5,-129 396.5,-129 396.5,-110 518.5,-110 518.5,-129"/>
<text text-anchor="middle" x="457.5" y="-117" font-family="Helvetica,sans-Serif" font-size="10.00">hardware/watchdog.h</text>
</a>
</g>
</g>
<!-- Node1&#45;&gt;Node12 -->
<g id="edge13_Node000001_Node000012" class="edge">
<title>Node1&#45;&gt;Node12</title>
<g id="a_edge13_Node000001_Node000012"><a xlink:title=" ">
<path fill="none" stroke="#63b8ff" d="M255.65,-165.45C296.63,-156.32 363.64,-141.4 409.11,-131.28"/>
<polygon fill="#63b8ff" stroke="#63b8ff" points="410.04,-134.66 419.04,-129.07 408.51,-127.82 410.04,-134.66"/>
</a>
</g>
</g>
<!-- Node3 -->
<g id="Node000003" class="node">
<title>Node3</title>
<g id="a_Node000003"><a xlink:title=" ">
<polygon fill="#e0e0e0" stroke="#999999" points="145.5,-19 73.5,-19 73.5,0 145.5,0 145.5,-19"/>
<text text-anchor="middle" x="109.5" y="-7" font-family="Helvetica,sans-Serif" font-size="10.00">FreeRTOS.h</text>
</a>
</g>
</g>
<!-- Node2&#45;&gt;Node3 -->
<g id="edge2_Node000002_Node000003" class="edge">
<title>Node2&#45;&gt;Node3</title>
<g id="a_edge2_Node000002_Node000003"><a xlink:title=" ">
<path fill="none" stroke="#63b8ff" d="M37.5,-109.6C39.3,-96.64 44.04,-72.26 55.5,-55 63.37,-43.14 75.36,-32.81 86.03,-25.1"/>
<polygon fill="#63b8ff" stroke="#63b8ff" points="88.3,-27.79 94.58,-19.26 84.35,-22.02 88.3,-27.79"/>
</a>
</g>
</g>
<!-- Node4 -->
<g id="Node000004" class="node">
<title>Node4</title>
<g id="a_Node000004"><a xlink:title=" ">
<polygon fill="#e0e0e0" stroke="#999999" points="112,-74 65,-74 65,-55 112,-55 112,-74"/>
<text text-anchor="middle" x="88.5" y="-62" font-family="Helvetica,sans-Serif" font-size="10.00">task.h</text>
</a>
</g>
</g>
<!-- Node2&#45;&gt;Node4 -->
<g id="edge3_Node000002_Node000004" class="edge">
<title>Node2&#45;&gt;Node4</title>
<g id="a_edge3_Node000002_Node000004"><a xlink:title=" ">
<path fill="none" stroke="#63b8ff" d="M45.09,-109.75C52.66,-102.03 63.88,-90.6 73.01,-81.28"/>
<polygon fill="#63b8ff" stroke="#63b8ff" points="75.57,-83.68 80.07,-74.09 70.57,-78.78 75.57,-83.68"/>
</a>
</g>
</g>
<!-- Node7&#45;&gt;Node5 -->
<g id="edge7_Node000007_Node000005" class="edge">
<title>Node7&#45;&gt;Node5</title>
<g id="a_edge7_Node000007_Node000005"><a xlink:title=" ">
<path fill="none" stroke="#63b8ff" d="M254.47,-109.98C237.57,-101.54 211.44,-88.47 191.86,-78.68"/>
<polygon fill="#63b8ff" stroke="#63b8ff" points="193.35,-75.51 182.84,-74.17 190.22,-81.77 193.35,-75.51"/>
</a>
</g>
</g>
<!-- Node9 -->
<g id="Node000009" class="node">
<title>Node9</title>
<g id="a_Node000009"><a xlink:href="telemetry_8h.html" target="_top" xlink:title="Functions for packaging and queuing telemetry packets for sending.">
<polygon fill="white" stroke="#666666" points="299.5,-74 227.5,-74 227.5,-55 299.5,-55 299.5,-74"/>
<text text-anchor="middle" x="263.5" y="-62" font-family="Helvetica,sans-Serif" font-size="10.00">telemetry.h</text>
</a>
</g>
</g>
<!-- Node8&#45;&gt;Node9 -->
<g id="edge9_Node000008_Node000009" class="edge">
<title>Node8&#45;&gt;Node9</title>
<g id="a_edge9_Node000008_Node000009"><a xlink:title=" ">
<path fill="none" stroke="#63b8ff" d="M342.4,-109.98C327.68,-101.69 305.08,-88.94 287.83,-79.22"/>
<polygon fill="#63b8ff" stroke="#63b8ff" points="289.31,-76.03 278.88,-74.17 285.87,-82.13 289.31,-76.03"/>
</a>
</g>
</g>
<!-- Node11 -->
<g id="Node000011" class="node">
<title>Node11</title>
<g id="a_Node000011"><a xlink:title=" ">
<polygon fill="#e0e0e0" stroke="#999999" points="388.5,-74 326.5,-74 326.5,-55 388.5,-55 388.5,-74"/>
<text text-anchor="middle" x="357.5" y="-62" font-family="Helvetica,sans-Serif" font-size="10.00">stdbool.h</text>
</a>
</g>
</g>
<!-- Node8&#45;&gt;Node11 -->
<g id="edge12_Node000008_Node000011" class="edge">
<title>Node8&#45;&gt;Node11</title>
<g id="a_edge12_Node000008_Node000011"><a xlink:title=" ">
<path fill="none" stroke="#63b8ff" d="M357.5,-109.75C357.5,-102.8 357.5,-92.85 357.5,-84.13"/>
<polygon fill="#63b8ff" stroke="#63b8ff" points="361,-84.09 357.5,-74.09 354,-84.09 361,-84.09"/>
</a>
</g>
</g>
<!-- Node9&#45;&gt;Node3 -->
<g id="edge10_Node000009_Node000003" class="edge">
<title>Node9&#45;&gt;Node3</title>
<g id="a_edge10_Node000009_Node000003"><a xlink:title=" ">
<path fill="none" stroke="#63b8ff" d="M238.76,-54.98C213.13,-46.16 172.87,-32.31 144.09,-22.41"/>
<polygon fill="#63b8ff" stroke="#63b8ff" points="145.03,-19.03 134.44,-19.08 142.75,-25.65 145.03,-19.03"/>
</a>
</g>
</g>
<!-- Node10 -->
<g id="Node000010" class="node">
<title>Node10</title>
<g id="a_Node000010"><a xlink:title=" ">
<polygon fill="#e0e0e0" stroke="#999999" points="291.5,-19 235.5,-19 235.5,0 291.5,0 291.5,-19"/>
<text text-anchor="middle" x="263.5" y="-7" font-family="Helvetica,sans-Serif" font-size="10.00">queue.h</text>
</a>
</g>
</g>
<!-- Node9&#45;&gt;Node10 -->
<g id="edge11_Node000009_Node000010" class="edge">
<title>Node9&#45;&gt;Node10</title>
<g id="a_edge11_Node000009_Node000010"><a xlink:title=" ">
<path fill="none" stroke="#63b8ff" d="M263.5,-54.75C263.5,-47.8 263.5,-37.85 263.5,-29.13"/>
<polygon fill="#63b8ff" stroke="#63b8ff" points="267,-29.09 263.5,-19.09 260,-29.09 267,-29.09"/>
</a>
</g>
</g>
</g>
</svg>
