<?xml version="1.0" encoding="UTF-8" standalone="no"?>
<!DOCTYPE svg PUBLIC "-//W3C//DTD SVG 1.1//EN"
 "http://www.w3.org/Graphics/SVG/1.1/DTD/svg11.dtd">
<!-- Generated by graphviz version 12.1.2 (20240928.0832)
 -->
<!-- Title: watchdog.h Pages: 1 -->
<svg width="223pt" height="84pt"
 viewBox="0.00 0.00 222.62 84.00" xmlns="http://www.w3.org/2000/svg" xmlns:xlink="http://www.w3.org/1999/xlink">

<svg id="main" version="1.1" xmlns="http://www.w3.org/2000/svg" xmlns:xlink="http://www.w3.org/1999/xlink" xml:space="preserve">

<style type="text/css"><![CDATA[
.node, .edge {opacity: 0.7;}
.node.selected, .edge.selected {opacity: 1;}
.edge:hover path { stroke: red; }
.edge:hover polygon { stroke: red; fill: red; }
]]></style>
<script type="application/ecmascript" xlink:href="svg.min.js"/>
<svg id="graph" class="graph">
<g id="graph0" class="graph" transform="scale(1 1) rotate(0) translate(4 80)">
<title>watchdog.h</title>
<!-- Node1 -->
<g id="Node000001" class="node">
<title>Node1</title>
<g id="a_Node000001"><a xlink:title=" ">
<polygon fill="#999999" stroke="#666666" points="140.62,-76 74.38,-76 74.38,-56 140.62,-56 140.62,-76"/>
<text text-anchor="middle" x="107.5" y="-62.5" font-family="Helvetica,sans-Serif" font-size="10.00">watchdog.h</text>
</a>
</g>
</g>
<!-- Node2 -->
<g id="Node000002" class="node">
<title>Node2</title>
<g id="a_Node000002"><a xlink:href="command_8c.html" target="_top" xlink:title=" ">
<polygon fill="white" stroke="#666666" points="67,-20 0,-20 0,0 67,0 67,-20"/>
<text text-anchor="middle" x="33.5" y="-6.5" font-family="Helvetica,sans-Serif" font-size="10.00">command.c</text>
</a>
</g>
</g>
<!-- Node1&#45;&gt;Node2 -->
<g id="edge1_Node000001_Node000002" class="edge">
<title>Node1&#45;&gt;Node2</title>
<g id="a_edge1_Node000001_Node000002"><a xlink:title=" ">
<path fill="none" stroke="#63b8ff" d="M85.51,-48.95C72.71,-39.61 57.02,-28.16 46.24,-20.3"/>
<polygon fill="#63b8ff" stroke="#63b8ff" points="83.25,-51.63 93.39,-54.7 87.37,-45.98 83.25,-51.63"/>
</a>
</g>
</g>
<!-- Node3 -->
<g id="Node000003" class="node">
<title>Node3</title>
<g id="a_Node000003"><a xlink:href="main_8c.html" target="_top" xlink:title=" ">
<polygon fill="white" stroke="#666666" points="130.12,-20 84.88,-20 84.88,0 130.12,0 130.12,-20"/>
<text text-anchor="middle" x="107.5" y="-6.5" font-family="Helvetica,sans-Serif" font-size="10.00">main.c</text>
</a>
</g>
</g>
<!-- Node1&#45;&gt;Node3 -->
<g id="edge2_Node000001_Node000003" class="edge">
<title>Node1&#45;&gt;Node3</title>
<g id="a_edge2_Node000001_Node000003"><a xlink:title=" ">
<path fill="none" stroke="#63b8ff" d="M107.5,-44.13C107.5,-35.9 107.5,-26.85 107.5,-20.3"/>
<polygon fill="#63b8ff" stroke="#63b8ff" points="104,-44.08 107.5,-54.08 111,-44.08 104,-44.08"/>
</a>
</g>
</g>
<!-- Node4 -->
<g id="Node000004" class="node">
<title>Node4</title>
<g id="a_Node000004"><a xlink:href="watchdog_8c.html" target="_top" xlink:title=" ">
<polygon fill="white" stroke="#666666" points="214.62,-20 148.38,-20 148.38,0 214.62,0 214.62,-20"/>
<text text-anchor="middle" x="181.5" y="-6.5" font-family="Helvetica,sans-Serif" font-size="10.00">watchdog.c</text>
</a>
</g>
</g>
<!-- Node1&#45;&gt;Node4 -->
<g id="edge3_Node000001_Node000004" class="edge">
<title>Node1&#45;&gt;Node4</title>
<g id="a_edge3_Node000001_Node000004"><a xlink:title=" ">
<path fill="none" stroke="#63b8ff" d="M129.49,-48.95C142.29,-39.61 157.98,-28.16 168.76,-20.3"/>
<polygon fill="#63b8ff" stroke="#63b8ff" points="127.63,-45.98 121.61,-54.7 131.75,-51.63 127.63,-45.98"/>
</a>
</g>
</g>
</g>
</svg>
</svg>

<style type='text/css'>
<![CDATA[
[data-mouse-over-selected='false'] { opacity: 0.7; }
[data-mouse-over-selected='true']  { opacity: 1.0; }
]]>
</style>
<script type="application/ecmascript"><![CDATA[
document.addEventListener('DOMContentLoaded', (event) => {
  highlightEdges();
  highlightAdjacentNodes();
});
]]></script>
</svg>
