<?xml version="1.0" encoding="UTF-8" standalone="no"?>
<!DOCTYPE svg PUBLIC "-//W3C//DTD SVG 1.1//EN"
 "http://www.w3.org/Graphics/SVG/1.1/DTD/svg11.dtd">
<!-- Generated by graphviz version 2.43.0 (0)
 -->
<!-- Title: watchdog.c Pages: 1 -->
<svg width="705pt" height="302pt"
 viewBox="0.00 0.00 704.50 302.00" xmlns="http://www.w3.org/2000/svg" xmlns:xlink="http://www.w3.org/1999/xlink">
<g id="graph0" class="graph" transform="scale(1 1) rotate(0) translate(4 298)">
<title>watchdog.c</title>
<!-- Node1 -->
<g id="Node000001" class="node">
<title>Node1</title>
<g id="a_Node000001"><a xlink:title=" ">
<polygon fill="#999999" stroke="#666666" points="237.5,-294 165.5,-294 165.5,-275 237.5,-275 237.5,-294"/>
<text text-anchor="middle" x="201.5" y="-282" font-family="Helvetica,sans-Serif" font-size="10.00">watchdog.c</text>
</a>
</g>
</g>
<!-- Node2 -->
<g id="Node000002" class="node">
<title>Node2</title>
<g id="a_Node000002"><a xlink:href="watchdog_8h.html" target="_top" xlink:title="Watchdog management functions.">
<polygon fill="white" stroke="#666666" points="222,-74 149,-74 149,-55 222,-55 222,-74"/>
<text text-anchor="middle" x="185.5" y="-62" font-family="Helvetica,sans-Serif" font-size="10.00">watchdog.h</text>
</a>
</g>
</g>
<!-- Node1&#45;&gt;Node2 -->
<g id="edge1_Node000001_Node000002" class="edge">
<title>Node1&#45;&gt;Node2</title>
<g id="a_edge1_Node000001_Node000002"><a xlink:title=" ">
<path fill="none" stroke="#63b8ff" d="M205.1,-274.82C208.56,-265.99 213.53,-251.81 215.5,-239 224.22,-182.24 203.99,-115.36 192.6,-83.77"/>
<polygon fill="#63b8ff" stroke="#63b8ff" points="195.78,-82.29 189,-74.15 189.22,-84.74 195.78,-82.29"/>
</a>
</g>
</g>
<!-- Node5 -->
<g id="Node000005" class="node">
<title>Node5</title>
<g id="a_Node000005"><a xlink:title=" ">
<polygon fill="#e0e0e0" stroke="#999999" points="53,-19 0,-19 0,0 53,0 53,-19"/>
<text text-anchor="middle" x="26.5" y="-7" font-family="Helvetica,sans-Serif" font-size="10.00">stdint.h</text>
</a>
</g>
</g>
<!-- Node1&#45;&gt;Node5 -->
<g id="edge4_Node000001_Node000005" class="edge">
<title>Node1&#45;&gt;Node5</title>
<g id="a_edge4_Node000001_Node000005"><a xlink:title=" ">
<path fill="none" stroke="#63b8ff" d="M165.24,-277.76C113.98,-267.35 26.5,-240.12 26.5,-175.5 26.5,-175.5 26.5,-175.5 26.5,-118.5 26.5,-87.19 26.5,-50.77 26.5,-29.23"/>
<polygon fill="#63b8ff" stroke="#63b8ff" points="30,-29.18 26.5,-19.18 23,-29.18 30,-29.18"/>
</a>
</g>
</g>
<!-- Node6 -->
<g id="Node000006" class="node">
<title>Node6</title>
<g id="a_Node000006"><a xlink:href="stdlib_8h.html" target="_top" xlink:title=" ">
<polygon fill="white" stroke="#666666" points="206.5,-239 130.5,-239 130.5,-220 206.5,-220 206.5,-239"/>
<text text-anchor="middle" x="168.5" y="-227" font-family="Helvetica,sans-Serif" font-size="10.00">pico/stdlib.h</text>
</a>
</g>
</g>
<!-- Node1&#45;&gt;Node6 -->
<g id="edge5_Node000001_Node000006" class="edge">
<title>Node1&#45;&gt;Node6</title>
<g id="a_edge5_Node000001_Node000006"><a xlink:title=" ">
<path fill="none" stroke="#63b8ff" d="M196.05,-274.75C191.49,-267.42 184.83,-256.73 179.21,-247.7"/>
<polygon fill="#63b8ff" stroke="#63b8ff" points="182.1,-245.73 173.85,-239.09 176.16,-249.43 182.1,-245.73"/>
</a>
</g>
</g>
<!-- Node7 -->
<g id="Node000007" class="node">
<title>Node7</title>
<g id="a_Node000007"><a xlink:href="gpio_8h.html" target="_top" xlink:title=" ">
<polygon fill="white" stroke="#666666" points="150,-184 55,-184 55,-165 150,-165 150,-184"/>
<text text-anchor="middle" x="102.5" y="-172" font-family="Helvetica,sans-Serif" font-size="10.00">hardware/gpio.h</text>
</a>
</g>
</g>
<!-- Node1&#45;&gt;Node7 -->
<g id="edge6_Node000001_Node000007" class="edge">
<title>Node1&#45;&gt;Node7</title>
<g id="a_edge6_Node000001_Node000007"><a xlink:title=" ">
<path fill="none" stroke="#63b8ff" d="M175.32,-274.9C157.73,-267.86 135.34,-256.22 121.5,-239 111.25,-226.25 106.53,-208.07 104.35,-194.43"/>
<polygon fill="#63b8ff" stroke="#63b8ff" points="107.79,-193.74 103.06,-184.26 100.85,-194.62 107.79,-193.74"/>
</a>
</g>
</g>
<!-- Node8 -->
<g id="Node000008" class="node">
<title>Node8</title>
<g id="a_Node000008"><a xlink:href="log_8h.html" target="_top" xlink:title=" ">
<polygon fill="white" stroke="#666666" points="329,-239 288,-239 288,-220 329,-220 329,-239"/>
<text text-anchor="middle" x="308.5" y="-227" font-family="Helvetica,sans-Serif" font-size="10.00">log.h</text>
</a>
</g>
</g>
<!-- Node1&#45;&gt;Node8 -->
<g id="edge8_Node000001_Node000008" class="edge">
<title>Node1&#45;&gt;Node8</title>
<g id="a_edge8_Node000001_Node000008"><a xlink:title=" ">
<path fill="none" stroke="#63b8ff" d="M218.69,-274.98C235.75,-266.54 262.13,-253.47 281.9,-243.68"/>
<polygon fill="#63b8ff" stroke="#63b8ff" points="283.59,-246.75 291,-239.17 280.48,-240.47 283.59,-246.75"/>
</a>
</g>
</g>
<!-- Node18 -->
<g id="Node000018" class="node">
<title>Node18</title>
<g id="a_Node000018"><a xlink:title=" ">
<polygon fill="#e0e0e0" stroke="#999999" points="469.5,-239 347.5,-239 347.5,-220 469.5,-220 469.5,-239"/>
<text text-anchor="middle" x="408.5" y="-227" font-family="Helvetica,sans-Serif" font-size="10.00">hardware/watchdog.h</text>
</a>
</g>
</g>
<!-- Node1&#45;&gt;Node18 -->
<g id="edge26_Node000001_Node000018" class="edge">
<title>Node1&#45;&gt;Node18</title>
<g id="a_edge26_Node000001_Node000018"><a xlink:title=" ">
<path fill="none" stroke="#63b8ff" d="M234.76,-274.98C270.11,-265.93 326.17,-251.58 365.01,-241.64"/>
<polygon fill="#63b8ff" stroke="#63b8ff" points="366.16,-244.95 374.98,-239.08 364.43,-238.17 366.16,-244.95"/>
</a>
</g>
</g>
<!-- Node3 -->
<g id="Node000003" class="node">
<title>Node3</title>
<g id="a_Node000003"><a xlink:title=" ">
<polygon fill="#e0e0e0" stroke="#999999" points="144,-19 71,-19 71,0 144,0 144,-19"/>
<text text-anchor="middle" x="107.5" y="-7" font-family="Helvetica,sans-Serif" font-size="10.00">FreeRTOS.h</text>
</a>
</g>
</g>
<!-- Node2&#45;&gt;Node3 -->
<g id="edge2_Node000002_Node000003" class="edge">
<title>Node2&#45;&gt;Node3</title>
<g id="a_edge2_Node000002_Node000003"><a xlink:title=" ">
<path fill="none" stroke="#63b8ff" d="M172.97,-54.98C161.1,-46.92 143.04,-34.65 128.89,-25.03"/>
<polygon fill="#63b8ff" stroke="#63b8ff" points="130.5,-21.9 120.26,-19.17 126.56,-27.69 130.5,-21.9"/>
</a>
</g>
</g>
<!-- Node4 -->
<g id="Node000004" class="node">
<title>Node4</title>
<g id="a_Node000004"><a xlink:title=" ">
<polygon fill="#e0e0e0" stroke="#999999" points="209,-19 162,-19 162,0 209,0 209,-19"/>
<text text-anchor="middle" x="185.5" y="-7" font-family="Helvetica,sans-Serif" font-size="10.00">task.h</text>
</a>
</g>
</g>
<!-- Node2&#45;&gt;Node4 -->
<g id="edge3_Node000002_Node000004" class="edge">
<title>Node2&#45;&gt;Node4</title>
<g id="a_edge3_Node000002_Node000004"><a xlink:title=" ">
<path fill="none" stroke="#63b8ff" d="M185.5,-54.75C185.5,-47.8 185.5,-37.85 185.5,-29.13"/>
<polygon fill="#63b8ff" stroke="#63b8ff" points="189,-29.09 185.5,-19.09 182,-29.09 189,-29.09"/>
</a>
</g>
</g>
<!-- Node7&#45;&gt;Node5 -->
<g id="edge7_Node000007_Node000005" class="edge">
<title>Node7&#45;&gt;Node5</title>
<g id="a_edge7_Node000007_Node000005"><a xlink:title=" ">
<path fill="none" stroke="#63b8ff" d="M98.41,-164.74C86.45,-139.09 51.34,-63.78 35.02,-28.78"/>
<polygon fill="#63b8ff" stroke="#63b8ff" points="38,-26.89 30.61,-19.31 31.66,-29.85 38,-26.89"/>
</a>
</g>
</g>
<!-- Node9 -->
<g id="Node000009" class="node">
<title>Node9</title>
<g id="a_Node000009"><a xlink:href="telemetry_8h.html" target="_top" xlink:title="Functions for packaging and queuing telemetry packets for sending.">
<polygon fill="white" stroke="#666666" points="368.5,-184 296.5,-184 296.5,-165 368.5,-165 368.5,-184"/>
<text text-anchor="middle" x="332.5" y="-172" font-family="Helvetica,sans-Serif" font-size="10.00">telemetry.h</text>
</a>
</g>
</g>
<!-- Node8&#45;&gt;Node9 -->
<g id="edge9_Node000008_Node000009" class="edge">
<title>Node8&#45;&gt;Node9</title>
<g id="a_edge9_Node000008_Node000009"><a xlink:title=" ">
<path fill="none" stroke="#63b8ff" d="M312.46,-219.75C315.71,-212.57 320.42,-202.18 324.45,-193.27"/>
<polygon fill="#63b8ff" stroke="#63b8ff" points="327.67,-194.64 328.61,-184.09 321.3,-191.75 327.67,-194.64"/>
</a>
</g>
</g>
<!-- Node17 -->
<g id="Node000017" class="node">
<title>Node17</title>
<g id="a_Node000017"><a xlink:title=" ">
<polygon fill="#e0e0e0" stroke="#999999" points="696.5,-19 634.5,-19 634.5,0 696.5,0 696.5,-19"/>
<text text-anchor="middle" x="665.5" y="-7" font-family="Helvetica,sans-Serif" font-size="10.00">stdbool.h</text>
</a>
</g>
</g>
<!-- Node8&#45;&gt;Node17 -->
<g id="edge25_Node000008_Node000017" class="edge">
<title>Node8&#45;&gt;Node17</title>
<g id="a_edge25_Node000008_Node000017"><a xlink:title=" ">
<path fill="none" stroke="#63b8ff" d="M322.49,-219.95C376.92,-186.72 574.77,-65.9 642.54,-24.52"/>
<polygon fill="#63b8ff" stroke="#63b8ff" points="644.5,-27.42 651.21,-19.22 640.86,-21.45 644.5,-27.42"/>
</a>
</g>
</g>
<!-- Node9&#45;&gt;Node3 -->
<g id="edge10_Node000009_Node000003" class="edge">
<title>Node9&#45;&gt;Node3</title>
<g id="a_edge10_Node000009_Node000003"><a xlink:title=" ">
<path fill="none" stroke="#63b8ff" d="M303.51,-164.92C262.43,-151.48 186.99,-121.93 139.5,-74 127.02,-61.41 118.47,-42.96 113.37,-29.19"/>
<polygon fill="#63b8ff" stroke="#63b8ff" points="116.56,-27.68 110.01,-19.35 109.93,-29.94 116.56,-27.68"/>
</a>
</g>
</g>
<!-- Node10 -->
<g id="Node000010" class="node">
<title>Node10</title>
<g id="a_Node000010"><a xlink:title=" ">
<polygon fill="#e0e0e0" stroke="#999999" points="616.5,-19 560.5,-19 560.5,0 616.5,0 616.5,-19"/>
<text text-anchor="middle" x="588.5" y="-7" font-family="Helvetica,sans-Serif" font-size="10.00">queue.h</text>
</a>
</g>
</g>
<!-- Node9&#45;&gt;Node10 -->
<g id="edge11_Node000009_Node000010" class="edge">
<title>Node9&#45;&gt;Node10</title>
<g id="a_edge11_Node000009_Node000010"><a xlink:title=" ">
<path fill="none" stroke="#63b8ff" d="M351.47,-164.9C369.58,-156.45 397.46,-142.85 420.5,-129 476.74,-95.19 538.85,-48.83 569.39,-25.38"/>
<polygon fill="#63b8ff" stroke="#63b8ff" points="571.7,-28.02 577.48,-19.14 567.42,-22.47 571.7,-28.02"/>
</a>
</g>
</g>
<!-- Node11 -->
<g id="Node000011" class="node">
<title>Node11</title>
<g id="a_Node000011"><a xlink:href="file__downlink_8h.html" target="_top" xlink:title=" ">
<polygon fill="white" stroke="#666666" points="411,-129 320,-129 320,-110 411,-110 411,-129"/>
<text text-anchor="middle" x="365.5" y="-117" font-family="Helvetica,sans-Serif" font-size="10.00">file_downlink.h</text>
</a>
</g>
</g>
<!-- Node9&#45;&gt;Node11 -->
<g id="edge12_Node000009_Node000011" class="edge">
<title>Node9&#45;&gt;Node11</title>
<g id="a_edge12_Node000009_Node000011"><a xlink:title=" ">
<path fill="none" stroke="#63b8ff" d="M337.95,-164.75C342.51,-157.42 349.17,-146.73 354.79,-137.7"/>
<polygon fill="#63b8ff" stroke="#63b8ff" points="357.84,-139.43 360.15,-129.09 351.9,-135.73 357.84,-139.43"/>
</a>
</g>
</g>
<!-- Node11&#45;&gt;Node3 -->
<g id="edge13_Node000011_Node000003" class="edge">
<title>Node11&#45;&gt;Node3</title>
<g id="a_edge13_Node000011_Node000003"><a xlink:title=" ">
<path fill="none" stroke="#63b8ff" d="M348.68,-109.97C323.36,-97.27 273.8,-72.97 230.5,-55 201.37,-42.91 167.65,-30.84 142.89,-22.33"/>
<polygon fill="#63b8ff" stroke="#63b8ff" points="143.8,-18.94 133.21,-19.02 141.54,-25.57 143.8,-18.94"/>
</a>
</g>
</g>
<!-- Node11&#45;&gt;Node10 -->
<g id="edge14_Node000011_Node000010" class="edge">
<title>Node11&#45;&gt;Node10</title>
<g id="a_edge14_Node000011_Node000010"><a xlink:title=" ">
<path fill="none" stroke="#63b8ff" d="M383.37,-109.84C422.45,-90.92 515.68,-45.77 561.77,-23.45"/>
<polygon fill="#63b8ff" stroke="#63b8ff" points="563.38,-26.56 570.85,-19.05 560.33,-20.26 563.38,-26.56"/>
</a>
</g>
</g>
<!-- Node12 -->
<g id="Node000012" class="node">
<title>Node12</title>
<g id="a_Node000012"><a xlink:href="filesystem_8h.html" target="_top" xlink:title="Handles file system operations and management.">
<polygon fill="white" stroke="#666666" points="408,-74 331,-74 331,-55 408,-55 408,-74"/>
<text text-anchor="middle" x="369.5" y="-62" font-family="Helvetica,sans-Serif" font-size="10.00">filesystem.h</text>
</a>
</g>
</g>
<!-- Node11&#45;&gt;Node12 -->
<g id="edge15_Node000011_Node000012" class="edge">
<title>Node11&#45;&gt;Node12</title>
<g id="a_edge15_Node000011_Node000012"><a xlink:title=" ">
<path fill="none" stroke="#63b8ff" d="M366.16,-109.75C366.68,-102.8 367.44,-92.85 368.09,-84.13"/>
<polygon fill="#63b8ff" stroke="#63b8ff" points="371.59,-84.32 368.85,-74.09 364.61,-83.8 371.59,-84.32"/>
</a>
</g>
</g>
<!-- Node12&#45;&gt;Node3 -->
<g id="edge16_Node000012_Node000003" class="edge">
<title>Node12&#45;&gt;Node3</title>
<g id="a_edge16_Node000012_Node000003"><a xlink:title=" ">
<path fill="none" stroke="#63b8ff" d="M330.84,-55.68C283.83,-46.17 204.55,-30.13 154.18,-19.94"/>
<polygon fill="#63b8ff" stroke="#63b8ff" points="154.7,-16.48 144.2,-17.92 153.31,-23.34 154.7,-16.48"/>
</a>
</g>
</g>
<!-- Node12&#45;&gt;Node4 -->
<g id="edge18_Node000012_Node000004" class="edge">
<title>Node12&#45;&gt;Node4</title>
<g id="a_edge18_Node000012_Node000004"><a xlink:title=" ">
<path fill="none" stroke="#63b8ff" d="M339.94,-54.98C306.84,-45.45 253.32,-30.03 218.78,-20.09"/>
<polygon fill="#63b8ff" stroke="#63b8ff" points="219.72,-16.71 209.14,-17.31 217.78,-23.44 219.72,-16.71"/>
</a>
</g>
</g>
<!-- Node12&#45;&gt;Node5 -->
<g id="edge23_Node000012_Node000005" class="edge">
<title>Node12&#45;&gt;Node5</title>
<g id="a_edge23_Node000012_Node000005"><a xlink:title=" ">
<path fill="none" stroke="#63b8ff" d="M330.89,-59.11C274.19,-52.41 164.89,-38.51 63.03,-19.15"/>
<polygon fill="#63b8ff" stroke="#63b8ff" points="63.68,-15.71 53.2,-17.26 62.36,-22.58 63.68,-15.71"/>
</a>
</g>
</g>
<!-- Node12&#45;&gt;Node10 -->
<g id="edge17_Node000012_Node000010" class="edge">
<title>Node12&#45;&gt;Node10</title>
<g id="a_edge17_Node000012_Node000010"><a xlink:title=" ">
<path fill="none" stroke="#63b8ff" d="M404.69,-54.98C444.59,-45.33 509.43,-29.64 550.47,-19.7"/>
<polygon fill="#63b8ff" stroke="#63b8ff" points="551.47,-23.06 560.36,-17.31 549.82,-16.26 551.47,-23.06"/>
</a>
</g>
</g>
<!-- Node13 -->
<g id="Node000013" class="node">
<title>Node13</title>
<g id="a_Node000013"><a xlink:title=" ">
<polygon fill="#e0e0e0" stroke="#999999" points="542.5,-19 510.5,-19 510.5,0 542.5,0 542.5,-19"/>
<text text-anchor="middle" x="526.5" y="-7" font-family="Helvetica,sans-Serif" font-size="10.00">ff.h</text>
</a>
</g>
</g>
<!-- Node12&#45;&gt;Node13 -->
<g id="edge19_Node000012_Node000013" class="edge">
<title>Node12&#45;&gt;Node13</title>
<g id="a_edge19_Node000012_Node000013"><a xlink:title=" ">
<path fill="none" stroke="#63b8ff" d="M394.81,-54.99C419.52,-46.68 458.43,-33.57 500.72,-19.26"/>
<polygon fill="#63b8ff" stroke="#63b8ff" points="502.01,-22.52 510.36,-15.99 499.77,-15.88 502.01,-22.52"/>
</a>
</g>
</g>
<!-- Node14 -->
<g id="Node000014" class="node">
<title>Node14</title>
<g id="a_Node000014"><a xlink:href="filesystem__errors_8h.html" target="_top" xlink:title=" ">
<polygon fill="white" stroke="#666666" points="338,-19 227,-19 227,0 338,0 338,-19"/>
<text text-anchor="middle" x="282.5" y="-7" font-family="Helvetica,sans-Serif" font-size="10.00">filesystem_errors.h</text>
</a>
</g>
</g>
<!-- Node12&#45;&gt;Node14 -->
<g id="edge20_Node000012_Node000014" class="edge">
<title>Node12&#45;&gt;Node14</title>
<g id="a_edge20_Node000012_Node000014"><a xlink:title=" ">
<path fill="none" stroke="#63b8ff" d="M355.52,-54.98C342.03,-46.77 321.37,-34.18 305.46,-24.49"/>
<polygon fill="#63b8ff" stroke="#63b8ff" points="307.09,-21.38 296.73,-19.17 303.45,-27.36 307.09,-21.38"/>
</a>
</g>
</g>
<!-- Node15 -->
<g id="Node000015" class="node">
<title>Node15</title>
<g id="a_Node000015"><a xlink:title=" ">
<polygon fill="#e0e0e0" stroke="#999999" points="418.5,-19 356.5,-19 356.5,0 418.5,0 418.5,-19"/>
<text text-anchor="middle" x="387.5" y="-7" font-family="Helvetica,sans-Serif" font-size="10.00">semphr.h</text>
</a>
</g>
</g>
<!-- Node12&#45;&gt;Node15 -->
<g id="edge21_Node000012_Node000015" class="edge">
<title>Node12&#45;&gt;Node15</title>
<g id="a_edge21_Node000012_Node000015"><a xlink:title=" ">
<path fill="none" stroke="#63b8ff" d="M372.47,-54.75C374.86,-47.72 378.29,-37.62 381.27,-28.84"/>
<polygon fill="#63b8ff" stroke="#63b8ff" points="384.68,-29.68 384.58,-19.09 378.05,-27.43 384.68,-29.68"/>
</a>
</g>
</g>
<!-- Node16 -->
<g id="Node000016" class="node">
<title>Node16</title>
<g id="a_Node000016"><a xlink:title=" ">
<polygon fill="#e0e0e0" stroke="#999999" points="492.5,-19 436.5,-19 436.5,0 492.5,0 492.5,-19"/>
<text text-anchor="middle" x="464.5" y="-7" font-family="Helvetica,sans-Serif" font-size="10.00">stddef.h</text>
</a>
</g>
</g>
<!-- Node12&#45;&gt;Node16 -->
<g id="edge22_Node000012_Node000016" class="edge">
<title>Node12&#45;&gt;Node16</title>
<g id="a_edge22_Node000012_Node000016"><a xlink:title=" ">
<path fill="none" stroke="#63b8ff" d="M384.76,-54.98C399.63,-46.69 422.48,-33.94 439.92,-24.22"/>
<polygon fill="#63b8ff" stroke="#63b8ff" points="441.93,-27.1 448.96,-19.17 438.52,-20.99 441.93,-27.1"/>
</a>
</g>
</g>
<!-- Node12&#45;&gt;Node17 -->
<g id="edge24_Node000012_Node000017" class="edge">
<title>Node12&#45;&gt;Node17</title>
<g id="a_edge24_Node000012_Node000017"><a xlink:title=" ">
<path fill="none" stroke="#63b8ff" d="M408.18,-57.24C456.42,-49.33 541.66,-35.01 624.05,-19.22"/>
<polygon fill="#63b8ff" stroke="#63b8ff" points="624.92,-22.62 634.08,-17.29 623.6,-15.75 624.92,-22.62"/>
</a>
</g>
</g>
</g>
</svg>
