<?xml version="1.0" encoding="UTF-8" standalone="no"?>
<!DOCTYPE svg PUBLIC "-//W3C//DTD SVG 1.1//EN"
 "http://www.w3.org/Graphics/SVG/1.1/DTD/svg11.dtd">
<!-- Generated by graphviz version 2.43.0 (0)
 -->
<!-- Title: watchdog.c Pages: 1 -->
<svg width="397pt" height="192pt"
 viewBox="0.00 0.00 396.50 192.00" xmlns="http://www.w3.org/2000/svg" xmlns:xlink="http://www.w3.org/1999/xlink">
<g id="graph0" class="graph" transform="scale(1 1) rotate(0) translate(4 188)">
<title>watchdog.c</title>
<!-- Node1 -->
<g id="Node000001" class="node">
<title>Node1</title>
<g id="a_Node000001"><a xlink:title=" ">
<polygon fill="#999999" stroke="#666666" points="203.5,-184 131.5,-184 131.5,-165 203.5,-165 203.5,-184"/>
<text text-anchor="middle" x="167.5" y="-172" font-family="Helvetica,sans-Serif" font-size="10.00">watchdog.c</text>
</a>
</g>
</g>
<!-- Node2 -->
<g id="Node000002" class="node">
<title>Node2</title>
<g id="a_Node000002"><a xlink:href="watchdog_8h.html" target="_top" xlink:title="Watchdog management functions.">
<polygon fill="white" stroke="#666666" points="73,-129 0,-129 0,-110 73,-110 73,-129"/>
<text text-anchor="middle" x="36.5" y="-117" font-family="Helvetica,sans-Serif" font-size="10.00">watchdog.h</text>
</a>
</g>
</g>
<!-- Node1&#45;&gt;Node2 -->
<g id="edge1_Node000001_Node000002" class="edge">
<title>Node1&#45;&gt;Node2</title>
<g id="a_edge1_Node000001_Node000002"><a xlink:title=" ">
<path fill="none" stroke="#63b8ff" d="M146.45,-164.98C125.09,-156.34 91.8,-142.87 67.44,-133.02"/>
<polygon fill="#63b8ff" stroke="#63b8ff" points="68.51,-129.68 57.93,-129.17 65.89,-136.17 68.51,-129.68"/>
</a>
</g>
</g>
<!-- Node5 -->
<g id="Node000005" class="node">
<title>Node5</title>
<g id="a_Node000005"><a xlink:title=" ">
<polygon fill="#e0e0e0" stroke="#999999" points="192,-74 139,-74 139,-55 192,-55 192,-74"/>
<text text-anchor="middle" x="165.5" y="-62" font-family="Helvetica,sans-Serif" font-size="10.00">stdint.h</text>
</a>
</g>
</g>
<!-- Node1&#45;&gt;Node5 -->
<g id="edge4_Node000001_Node000005" class="edge">
<title>Node1&#45;&gt;Node5</title>
<g id="a_edge4_Node000001_Node000005"><a xlink:title=" ">
<path fill="none" stroke="#63b8ff" d="M153.43,-164.89C142.15,-157.1 127.16,-144.48 120.5,-129 112.61,-110.67 128.8,-92.36 143.9,-80.15"/>
<polygon fill="#63b8ff" stroke="#63b8ff" points="146.15,-82.84 152.03,-74.03 141.94,-77.25 146.15,-82.84"/>
</a>
</g>
</g>
<!-- Node6 -->
<g id="Node000006" class="node">
<title>Node6</title>
<g id="a_Node000006"><a xlink:href="stdlib_8h.html" target="_top" xlink:title=" ">
<polygon fill="white" stroke="#666666" points="205.5,-129 129.5,-129 129.5,-110 205.5,-110 205.5,-129"/>
<text text-anchor="middle" x="167.5" y="-117" font-family="Helvetica,sans-Serif" font-size="10.00">pico/stdlib.h</text>
</a>
</g>
</g>
<!-- Node1&#45;&gt;Node6 -->
<g id="edge5_Node000001_Node000006" class="edge">
<title>Node1&#45;&gt;Node6</title>
<g id="a_edge5_Node000001_Node000006"><a xlink:title=" ">
<path fill="none" stroke="#63b8ff" d="M167.5,-164.75C167.5,-157.8 167.5,-147.85 167.5,-139.13"/>
<polygon fill="#63b8ff" stroke="#63b8ff" points="171,-139.09 167.5,-129.09 164,-139.09 171,-139.09"/>
</a>
</g>
</g>
<!-- Node7 -->
<g id="Node000007" class="node">
<title>Node7</title>
<g id="a_Node000007"><a xlink:href="gpio_8h.html" target="_top" xlink:title=" ">
<polygon fill="white" stroke="#666666" points="319,-129 224,-129 224,-110 319,-110 319,-129"/>
<text text-anchor="middle" x="271.5" y="-117" font-family="Helvetica,sans-Serif" font-size="10.00">hardware/gpio.h</text>
</a>
</g>
</g>
<!-- Node1&#45;&gt;Node7 -->
<g id="edge6_Node000001_Node000007" class="edge">
<title>Node1&#45;&gt;Node7</title>
<g id="a_edge6_Node000001_Node000007"><a xlink:title=" ">
<path fill="none" stroke="#63b8ff" d="M184.21,-164.98C200.71,-156.57 226.2,-143.59 245.38,-133.81"/>
<polygon fill="#63b8ff" stroke="#63b8ff" points="247.17,-136.83 254.49,-129.17 243.99,-130.59 247.17,-136.83"/>
</a>
</g>
</g>
<!-- Node8 -->
<g id="Node000008" class="node">
<title>Node8</title>
<g id="a_Node000008"><a xlink:href="log_8h.html" target="_top" xlink:title=" ">
<polygon fill="white" stroke="#666666" points="378,-129 337,-129 337,-110 378,-110 378,-129"/>
<text text-anchor="middle" x="357.5" y="-117" font-family="Helvetica,sans-Serif" font-size="10.00">log.h</text>
</a>
</g>
</g>
<!-- Node1&#45;&gt;Node8 -->
<g id="edge8_Node000001_Node000008" class="edge">
<title>Node1&#45;&gt;Node8</title>
<g id="a_edge8_Node000001_Node000008"><a xlink:title=" ">
<path fill="none" stroke="#63b8ff" d="M199.01,-164.95C229.53,-156.63 277.36,-143.5 327.25,-129.33"/>
<polygon fill="#63b8ff" stroke="#63b8ff" points="328.26,-132.68 336.92,-126.58 326.34,-125.95 328.26,-132.68"/>
</a>
</g>
</g>
<!-- Node3 -->
<g id="Node000003" class="node">
<title>Node3</title>
<g id="a_Node000003"><a xlink:title=" ">
<polygon fill="#e0e0e0" stroke="#999999" points="145.5,-19 73.5,-19 73.5,0 145.5,0 145.5,-19"/>
<text text-anchor="middle" x="109.5" y="-7" font-family="Helvetica,sans-Serif" font-size="10.00">FreeRTOS.h</text>
</a>
</g>
</g>
<!-- Node2&#45;&gt;Node3 -->
<g id="edge2_Node000002_Node000003" class="edge">
<title>Node2&#45;&gt;Node3</title>
<g id="a_edge2_Node000002_Node000003"><a xlink:title=" ">
<path fill="none" stroke="#63b8ff" d="M37.5,-109.6C39.3,-96.64 44.04,-72.26 55.5,-55 63.37,-43.14 75.36,-32.81 86.03,-25.1"/>
<polygon fill="#63b8ff" stroke="#63b8ff" points="88.3,-27.79 94.58,-19.26 84.35,-22.02 88.3,-27.79"/>
</a>
</g>
</g>
<!-- Node4 -->
<g id="Node000004" class="node">
<title>Node4</title>
<g id="a_Node000004"><a xlink:title=" ">
<polygon fill="#e0e0e0" stroke="#999999" points="112,-74 65,-74 65,-55 112,-55 112,-74"/>
<text text-anchor="middle" x="88.5" y="-62" font-family="Helvetica,sans-Serif" font-size="10.00">task.h</text>
</a>
</g>
</g>
<!-- Node2&#45;&gt;Node4 -->
<g id="edge3_Node000002_Node000004" class="edge">
<title>Node2&#45;&gt;Node4</title>
<g id="a_edge3_Node000002_Node000004"><a xlink:title=" ">
<path fill="none" stroke="#63b8ff" d="M45.09,-109.75C52.66,-102.03 63.88,-90.6 73.01,-81.28"/>
<polygon fill="#63b8ff" stroke="#63b8ff" points="75.57,-83.68 80.07,-74.09 70.57,-78.78 75.57,-83.68"/>
</a>
</g>
</g>
<!-- Node7&#45;&gt;Node5 -->
<g id="edge7_Node000007_Node000005" class="edge">
<title>Node7&#45;&gt;Node5</title>
<g id="a_edge7_Node000007_Node000005"><a xlink:title=" ">
<path fill="none" stroke="#63b8ff" d="M254.47,-109.98C237.57,-101.54 211.44,-88.47 191.86,-78.68"/>
<polygon fill="#63b8ff" stroke="#63b8ff" points="193.35,-75.51 182.84,-74.17 190.22,-81.77 193.35,-75.51"/>
</a>
</g>
</g>
<!-- Node9 -->
<g id="Node000009" class="node">
<title>Node9</title>
<g id="a_Node000009"><a xlink:href="telemetry_8h.html" target="_top" xlink:title="Functions for packaging and queuing telemetry packets for sending.">
<polygon fill="white" stroke="#666666" points="299.5,-74 227.5,-74 227.5,-55 299.5,-55 299.5,-74"/>
<text text-anchor="middle" x="263.5" y="-62" font-family="Helvetica,sans-Serif" font-size="10.00">telemetry.h</text>
</a>
</g>
</g>
<!-- Node8&#45;&gt;Node9 -->
<g id="edge9_Node000008_Node000009" class="edge">
<title>Node8&#45;&gt;Node9</title>
<g id="a_edge9_Node000008_Node000009"><a xlink:title=" ">
<path fill="none" stroke="#63b8ff" d="M342.4,-109.98C327.68,-101.69 305.08,-88.94 287.83,-79.22"/>
<polygon fill="#63b8ff" stroke="#63b8ff" points="289.31,-76.03 278.88,-74.17 285.87,-82.13 289.31,-76.03"/>
</a>
</g>
</g>
<!-- Node11 -->
<g id="Node000011" class="node">
<title>Node11</title>
<g id="a_Node000011"><a xlink:title=" ">
<polygon fill="#e0e0e0" stroke="#999999" points="388.5,-74 326.5,-74 326.5,-55 388.5,-55 388.5,-74"/>
<text text-anchor="middle" x="357.5" y="-62" font-family="Helvetica,sans-Serif" font-size="10.00">stdbool.h</text>
</a>
</g>
</g>
<!-- Node8&#45;&gt;Node11 -->
<g id="edge12_Node000008_Node000011" class="edge">
<title>Node8&#45;&gt;Node11</title>
<g id="a_edge12_Node000008_Node000011"><a xlink:title=" ">
<path fill="none" stroke="#63b8ff" d="M357.5,-109.75C357.5,-102.8 357.5,-92.85 357.5,-84.13"/>
<polygon fill="#63b8ff" stroke="#63b8ff" points="361,-84.09 357.5,-74.09 354,-84.09 361,-84.09"/>
</a>
</g>
</g>
<!-- Node9&#45;&gt;Node3 -->
<g id="edge10_Node000009_Node000003" class="edge">
<title>Node9&#45;&gt;Node3</title>
<g id="a_edge10_Node000009_Node000003"><a xlink:title=" ">
<path fill="none" stroke="#63b8ff" d="M238.76,-54.98C213.13,-46.16 172.87,-32.31 144.09,-22.41"/>
<polygon fill="#63b8ff" stroke="#63b8ff" points="145.03,-19.03 134.44,-19.08 142.75,-25.65 145.03,-19.03"/>
</a>
</g>
</g>
<!-- Node10 -->
<g id="Node000010" class="node">
<title>Node10</title>
<g id="a_Node000010"><a xlink:title=" ">
<polygon fill="#e0e0e0" stroke="#999999" points="291.5,-19 235.5,-19 235.5,0 291.5,0 291.5,-19"/>
<text text-anchor="middle" x="263.5" y="-7" font-family="Helvetica,sans-Serif" font-size="10.00">queue.h</text>
</a>
</g>
</g>
<!-- Node9&#45;&gt;Node10 -->
<g id="edge11_Node000009_Node000010" class="edge">
<title>Node9&#45;&gt;Node10</title>
<g id="a_edge11_Node000009_Node000010"><a xlink:title=" ">
<path fill="none" stroke="#63b8ff" d="M263.5,-54.75C263.5,-47.8 263.5,-37.85 263.5,-29.13"/>
<polygon fill="#63b8ff" stroke="#63b8ff" points="267,-29.09 263.5,-19.09 260,-29.09 267,-29.09"/>
</a>
</g>
</g>
</g>
</svg>
